<svg width="24" height="24" viewBox="0 0 24 24" fill="none" xmlns="http://www.w3.org/2000/svg">
<path d="M21.989 11.9461C21.989 13.0458 21.0974 13.9374 19.9977 13.9374C19.9783 13.9374 19.9589 13.9371 19.9395 13.9365L15.2007 13.7969L11.7473 20.9396C11.4696 21.5141 10.8876 21.8792 10.2494 21.8792C9.73798 21.8792 9.32339 21.4646 9.32339 20.9532C9.32339 20.9163 9.32559 20.8795 9.32998 20.8429L10.1922 13.6503L6.42663 13.5403L5.9366 14.881C5.75076 15.3894 5.26715 15.7275 4.72591 15.7275C4.22816 15.7275 3.82466 15.324 3.82466 14.8262L3.82536 13.3495L3.01461 13.1808C2.42995 13.0587 2.01105 12.5433 2.01105 11.9461C2.01105 11.3489 2.43013 10.8338 3.01477 10.7122L3.82536 10.5434L3.82466 9.06593C3.82466 8.60647 4.16847 8.22732 4.61286 8.1717L4.72591 8.16468C5.26715 8.16468 5.75076 8.5028 5.9366 9.01114L6.42771 10.3516L10.1792 10.2416L9.32998 3.1571C9.32779 3.13881 9.32614 3.12046 9.32504 3.10208L9.32339 3.04686C9.32339 2.53544 9.73798 2.12085 10.2494 2.12085C10.8344 2.12085 11.3722 2.4276 11.6717 2.9213L11.7473 3.06049L15.15 10.0961L19.9395 9.95589C21.0386 9.92361 21.9558 10.7885 21.9881 11.8876L21.989 11.9461Z" fill="currentColor"/>
</svg>
