<svg width="24" height="24" viewBox="0 0 24 24" fill="none" xmlns="http://www.w3.org/2000/svg">
<path d="M10 5.03861V5.8168L13.0266 7.01923H15.1454L13.896 4.21103C13.0023 2.20241 10 2.84012 10 5.03861ZM12.7207 7.97376L8.50001 6.29699V4.75637C8.50001 3.01852 6.24094 2.34323 5.28715 3.79588L3.37769 6.70404C2.58597 7.90985 3.08451 9.53837 4.41556 10.0943L7.91887 11.5577L5.87391 13.4562C4.24638 14.9672 5.86963 17.6214 7.95617 16.8611L14.7172 14.3973L18.1794 15.8434C19.5207 16.4037 21 15.4184 21 13.9648V12.7347C21 10.1305 18.8889 8.01934 16.2847 8.01934L12.9583 8.01923C12.877 8.01923 12.7963 8.0038 12.7207 7.97376ZM3 20.25C3 19.8358 3.33579 19.5 3.75 19.5H20.25C20.6642 19.5 21 19.8358 21 20.25C21 20.6642 20.6642 21 20.25 21H3.75C3.33579 21 3 20.6642 3 20.25Z" fill="#2A2A2A"/>
</svg>
