<svg width="24" height="24" viewBox="0 0 24 24" fill="none" xmlns="http://www.w3.org/2000/svg">
<path d="M11.5 7.48886L11.5 5.03861C11.5 4.45992 12.2903 4.29206 12.5255 4.82077L13.9486 8.01934H12.9584C12.877 8.01934 12.7964 8.00391 12.7208 7.97387L11.5 7.48886ZM15.5904 8.01934L13.896 4.21103C13.0023 2.20241 10 2.84012 10 5.03861V6.89292L8.50001 6.29699V4.75637C8.50001 3.01852 6.24094 2.34323 5.28715 3.79588L3.37769 6.70404C2.58597 7.90985 3.08451 9.53837 4.41556 10.0943L7.91887 11.5577L5.87391 13.4562C4.24638 14.9672 5.86963 17.6214 7.95617 16.8611L14.7172 14.3973L18.1794 15.8434C19.5207 16.4037 21 15.4184 21 13.9648V12.7347C21 10.1305 18.8889 8.01934 16.2847 8.01934H15.5904ZM7.00001 6.95136C7.00001 7.17095 7.13397 7.36831 7.33803 7.44939L12.1669 9.36788C12.4188 9.46795 12.6874 9.51934 12.9584 9.51934H16.2847C18.0605 9.51934 19.5 10.9589 19.5 12.7347V13.9648C19.5 14.3474 19.1106 14.6068 18.7576 14.4593L15.115 12.9378C14.8831 12.841 14.6233 12.835 14.3872 12.921L7.44259 15.4517C6.89336 15.6519 6.4661 14.9532 6.89449 14.5555L9.50865 12.1285C10.0417 11.6336 9.88487 10.7532 9.21368 10.4729L4.99369 8.71023C4.52928 8.51625 4.35533 7.94804 4.63157 7.52732L6.54103 4.61916C6.67729 4.41163 7.00001 4.50811 7.00001 4.75637V6.95136ZM3 20.25C3 19.8358 3.33579 19.5 3.75 19.5H20.25C20.6642 19.5 21 19.8358 21 20.25C21 20.6642 20.6642 21 20.25 21H3.75C3.33579 21 3 20.6642 3 20.25Z" fill="#2A2A2A"/>
</svg>
