<svg width="24" height="24" viewBox="0 0 24 24" fill="none" xmlns="http://www.w3.org/2000/svg">
<path d="M7.19999 1.20001C5.8745 1.20001 4.79999 2.27453 4.79999 3.60001V4.80001C4.79999 6.1255 5.8745 7.20001 7.19999 7.20001H16.8C18.1255 7.20001 19.2 6.1255 19.2 4.80001V3.60001C19.2 2.27453 18.1255 1.20001 16.8 1.20001H7.19999ZM7.19999 16.8C5.8745 16.8 4.79999 17.8745 4.79999 19.2V20.4C4.79999 21.7255 5.8745 22.8 7.19999 22.8H16.8C18.1255 22.8 19.2 21.7255 19.2 20.4V19.2C19.2 17.8745 18.1255 16.8 16.8 16.8H7.19999Z" fill="#2A2A2A"/>
</svg>
