<svg width="24" height="24" viewBox="0 0 24 24" fill="none" xmlns="http://www.w3.org/2000/svg">
<path d="M3.6 4.80005C2.27451 4.80005 1.2 5.87457 1.2 7.20005V16.8C1.2 18.1255 2.27451 19.2 3.6 19.2H4.8C6.12548 19.2 7.2 18.1255 7.2 16.8V7.20005C7.2 5.87457 6.12548 4.80005 4.8 4.80005H3.6ZM19.2 4.80005C17.8745 4.80005 16.8 5.87457 16.8 7.20005V16.8C16.8 18.1255 17.8745 19.2 19.2 19.2H20.4C21.7255 19.2 22.8 18.1255 22.8 16.8V7.20005C22.8 5.87457 21.7255 4.80005 20.4 4.80005H19.2Z" fill="currentColor"/>
</svg>
