<svg width="24" height="24" viewBox="0 0 24 24" fill="none" xmlns="http://www.w3.org/2000/svg">
<path d="M1.5 21.7501C1.5 22.1643 1.83579 22.5001 2.25 22.5001C2.66421 22.5001 3 22.1643 3 21.7501L3 2.25012C3 1.83591 2.66422 1.50012 2.25 1.50012C1.83579 1.50012 1.5 1.83591 1.5 2.25012L1.5 21.7501ZM12 21.7501C12 22.1643 12.3358 22.5001 12.75 22.5001C13.1642 22.5001 13.5 22.1643 13.5 21.7501L13.5 2.25012C13.5 1.83591 13.1642 1.50012 12.75 1.50012C12.3358 1.50012 12 1.83591 12 2.25012L12 21.7501ZM6.75 19.5001C5.50736 19.5001 4.5 18.4928 4.5 17.2501L4.5 6.75012C4.5 5.50748 5.50736 4.50012 6.75 4.50012H8.25C9.49264 4.50012 10.5 5.50748 10.5 6.75012L10.5 17.2501C10.5 18.4928 9.49264 19.5001 8.25 19.5001H6.75ZM6 17.2501C6 17.6643 6.33579 18.0001 6.75 18.0001H8.25C8.66421 18.0001 9 17.6643 9 17.2501L9 6.75012C9 6.33591 8.66422 6.00012 8.25 6.00012H6.75C6.33579 6.00012 6 6.33591 6 6.75012L6 17.2501ZM15 14.2501C15 15.4928 16.0074 16.5001 17.25 16.5001H18.75C19.9926 16.5001 21 15.4928 21 14.2501L21 9.75012C21 8.50748 19.9926 7.50012 18.75 7.50012H17.25C16.0074 7.50012 15 8.50748 15 9.75012L15 14.2501ZM17.25 15.0001C16.8358 15.0001 16.5 14.6643 16.5 14.2501L16.5 9.75012C16.5 9.33591 16.8358 9.00012 17.25 9.00012H18.75C19.1642 9.00012 19.5 9.33591 19.5 9.75012L19.5 14.2501C19.5 14.6643 19.1642 15.0001 18.75 15.0001H17.25Z" fill="#2A2A2A"/>
</svg>
