<svg width="24" height="24" viewBox="0 0 24 24" fill="none" xmlns="http://www.w3.org/2000/svg">
<path d="M7.19999 4.79999C5.8745 4.79999 4.79999 5.8745 4.79999 7.19999V8.39999C4.79999 9.72547 5.8745 10.8 7.19999 10.8H16.8C18.1255 10.8 19.2 9.72547 19.2 8.39999V7.19999C19.2 5.8745 18.1255 4.79999 16.8 4.79999H7.19999ZM7.19999 13.2C5.8745 13.2 4.79999 14.2745 4.79999 15.6V16.8C4.79999 18.1255 5.8745 19.2 7.19999 19.2H16.8C18.1255 19.2 19.2 18.1255 19.2 16.8V15.6C19.2 14.2745 18.1255 13.2 16.8 13.2H7.19999Z" fill="#2A2A2A"/>
</svg>
