<svg width="24" height="24" viewBox="0 0 24 24" fill="none" xmlns="http://www.w3.org/2000/svg">
<path d="M21.75 22.4999C22.1642 22.4999 22.5 22.1642 22.5 21.7499C22.5 21.3357 22.1642 20.9999 21.75 20.9999H2.25C1.83579 20.9999 1.5 21.3357 1.5 21.7499C1.5 22.1642 1.83579 22.4999 2.25 22.4999L21.75 22.4999ZM21.75 11.9999C22.1642 11.9999 22.5 11.6642 22.5 11.2499C22.5 10.8357 22.1642 10.4999 21.75 10.4999L2.25 10.4999C1.83579 10.4999 1.5 10.8357 1.5 11.2499C1.5 11.6642 1.83579 11.9999 2.25 11.9999L21.75 11.9999ZM4.5 5.24994C4.5 4.0073 5.50736 2.99994 6.75 2.99994L17.25 2.99994C18.4926 2.99994 19.5 4.0073 19.5 5.24994V6.74994C19.5 7.99258 18.4926 8.99994 17.25 8.99994L6.75 8.99994C5.50736 8.99994 4.5 7.99258 4.5 6.74994V5.24994ZM9.75 13.4999C8.50736 13.4999 7.5 14.5073 7.5 15.7499V17.2499C7.5 18.4926 8.50736 19.4999 9.75 19.4999H14.25C15.4926 19.4999 16.5 18.4926 16.5 17.2499V15.7499C16.5 14.5073 15.4926 13.4999 14.25 13.4999H9.75Z" fill="currentColor"/>
</svg>
