<svg width="24" height="24" viewBox="0 0 24 24" fill="none" xmlns="http://www.w3.org/2000/svg">
<path d="M7.19999 4.79999H8.39999C9.72547 4.79999 10.8 5.8745 10.8 7.19999V16.8C10.8 18.1255 9.72547 19.2 8.39999 19.2H7.19999C5.8745 19.2 4.79999 18.1255 4.79999 16.8V7.19999C4.79999 5.8745 5.8745 4.79999 7.19999 4.79999ZM5.99999 7.19999V16.8C5.99999 17.4627 6.53725 18 7.19999 18H8.39999C9.06273 18 9.59999 17.4627 9.59999 16.8V7.19999C9.59999 6.53725 9.06273 5.99999 8.39999 5.99999H7.19999C6.53725 5.99999 5.99999 6.53725 5.99999 7.19999ZM15.6 4.79999C14.2745 4.79999 13.2 5.8745 13.2 7.19999V16.8C13.2 18.1255 14.2745 19.2 15.6 19.2H16.8C18.1255 19.2 19.2 18.1255 19.2 16.8V7.19999C19.2 5.8745 18.1255 4.79999 16.8 4.79999H15.6ZM14.4 7.19999C14.4 6.53725 14.9372 5.99999 15.6 5.99999H16.8C17.4627 5.99999 18 6.53725 18 7.19999V16.8C18 17.4627 17.4627 18 16.8 18H15.6C14.9372 18 14.4 17.4627 14.4 16.8V7.19999Z" fill="#2A2A2A"/>
</svg>
