<svg width="24" height="24" viewBox="0 0 24 24" fill="none" xmlns="http://www.w3.org/2000/svg">
<path d="M7.19999 9.59998C5.87451 9.59998 4.79999 10.6745 4.79999 12V14.4C4.79999 15.7255 5.87451 16.8 7.19999 16.8H16.8C18.1255 16.8 19.2 15.7255 19.2 14.4V12C19.2 10.6745 18.1255 9.59998 16.8 9.59998H7.19999ZM5.99999 12C5.99999 11.3372 6.53725 10.8 7.19999 10.8H16.8C17.4627 10.8 18 11.3372 18 12V14.4C18 15.0627 17.4627 15.6 16.8 15.6H7.19999C6.53725 15.6 5.99999 15.0627 5.99999 14.4V12Z" fill="currentColor"/>
<path d="M2.39999 19.8C2.39999 19.4686 2.66862 19.2 2.99999 19.2H21C21.3314 19.2 21.6 19.4686 21.6 19.8C21.6 20.1313 21.3314 20.4 21 20.4H2.99999C2.66862 20.4 2.39999 20.1313 2.39999 19.8Z" fill="currentColor"/>
</svg>
