<svg width="24" height="24" viewBox="0 0 24 24" fill="none" xmlns="http://www.w3.org/2000/svg">
<path d="M3.00002 3.59998C2.66865 3.59998 2.40002 3.8686 2.40002 4.19998C2.40002 4.53135 2.66865 4.79998 3.00002 4.79998H21C21.3314 4.79998 21.6 4.53135 21.6 4.19998C21.6 3.8686 21.3314 3.59998 21 3.59998H3.00002Z" fill="#2A2A2A"/>
<path d="M3.00002 19.2C2.66865 19.2 2.40002 19.4686 2.40002 19.8C2.40002 20.1313 2.66865 20.4 3.00002 20.4H21C21.3314 20.4 21.6 20.1313 21.6 19.8C21.6 19.4686 21.3314 19.2 21 19.2H3.00002Z" fill="#2A2A2A"/>
<path d="M4.80002 15.6C4.80002 16.9255 5.87454 18 7.20002 18H8.40002C9.72551 18 10.8 16.9255 10.8 15.6V8.39998C10.8 7.07449 9.72551 5.99998 8.40002 5.99998H7.20002C5.87454 5.99998 4.80002 7.07449 4.80002 8.39998V15.6ZM7.20002 16.8C6.53728 16.8 6.00002 16.2627 6.00002 15.6V8.39998C6.00002 7.73723 6.53728 7.19998 7.20002 7.19998H8.40002C9.06277 7.19998 9.60002 7.73723 9.60002 8.39998V15.6C9.60002 16.2627 9.06277 16.8 8.40002 16.8H7.20002Z" fill="#2A2A2A"/>
<path d="M15.6 18H16.8C18.1255 18 19.2 16.9255 19.2 15.6V8.39998C19.2 7.07449 18.1255 5.99998 16.8 5.99998H15.6C14.2745 5.99998 13.2 7.07449 13.2 8.39998V15.6C13.2 16.9255 14.2745 18 15.6 18ZM14.4 15.6V8.39998C14.4 7.73723 14.9373 7.19998 15.6 7.19998H16.8C17.4628 7.19998 18 7.73723 18 8.39998V15.6C18 16.2627 17.4628 16.8 16.8 16.8H15.6C14.9373 16.8 14.4 16.2627 14.4 15.6Z" fill="#2A2A2A"/>
</svg>
