<svg width="24" height="24" viewBox="0 0 24 24" fill="none" xmlns="http://www.w3.org/2000/svg">
<path d="M4.19998 21.6C3.8686 21.6 3.59998 21.3314 3.59998 21V3.00002C3.59998 2.66865 3.8686 2.40002 4.19998 2.40002C4.53135 2.40002 4.79998 2.66865 4.79998 3.00002V21C4.79998 21.3314 4.53135 21.6 4.19998 21.6Z" fill="#2A2A2A"/>
<path d="M9.59998 4.80002C8.27449 4.80002 7.19998 5.87454 7.19998 7.20002V16.8C7.19998 18.1255 8.27449 19.2 9.59998 19.2H12C13.3255 19.2 14.4 18.1255 14.4 16.8V7.20002C14.4 5.87454 13.3255 4.80002 12 4.80002H9.59998ZM8.39998 7.20002C8.39998 6.53728 8.93723 6.00002 9.59998 6.00002H12C12.6627 6.00002 13.2 6.53728 13.2 7.20002V16.8C13.2 17.4628 12.6627 18 12 18H9.59998C8.93723 18 8.39998 17.4628 8.39998 16.8V7.20002Z" fill="#2A2A2A"/>
</svg>
