<svg width="24" height="24" viewBox="0 0 24 24" fill="none" xmlns="http://www.w3.org/2000/svg">
<path d="M2.24985 1.5C1.83564 1.5 1.49985 1.83579 1.49985 2.25C1.49985 2.66421 1.83564 3 2.24985 3L21.7498 3.00001C22.1641 3.00001 22.4998 2.66422 22.4998 2.25001C22.4998 1.83579 22.1641 1.5 21.7498 1.5L2.24985 1.5ZM2.24985 12C1.83564 12 1.49985 12.3358 1.49985 12.75C1.49985 13.1642 1.83564 13.5 2.24985 13.5L21.7498 13.5C22.1641 13.5 22.4998 13.1642 22.4998 12.75C22.4998 12.3358 22.1641 12 21.7498 12L2.24985 12ZM14.2498 21C15.4925 21 16.4998 19.9926 16.4998 18.75V17.25C16.4998 16.0074 15.4925 15 14.2498 15H9.74985C8.50721 15 7.49985 16.0074 7.49985 17.25L7.49985 18.75C7.49985 19.9926 8.50721 21 9.74985 21H14.2498ZM14.9998 18.75C14.9998 19.1642 14.6641 19.5 14.2498 19.5L9.74985 19.5C9.33563 19.5 8.99985 19.1642 8.99985 18.75V17.25C8.99985 16.8358 9.33563 16.5 9.74985 16.5H14.2498C14.6641 16.5 14.9998 16.8358 14.9998 17.25V18.75ZM17.2498 10.5C18.4925 10.5 19.4998 9.49264 19.4998 8.25V6.75C19.4998 5.50736 18.4925 4.5 17.2498 4.5H6.74985C5.50721 4.5 4.49985 5.50736 4.49985 6.75L4.49985 8.25C4.49985 9.49264 5.50721 10.5 6.74985 10.5H17.2498ZM17.9998 8.25C17.9998 8.66421 17.6641 9 17.2498 9H6.74985C6.33563 9 5.99985 8.66421 5.99985 8.25L5.99985 6.75C5.99985 6.33579 6.33563 6 6.74985 6H17.2498C17.6641 6 17.9998 6.33579 17.9998 6.75V8.25Z" fill="currentColor"/>
</svg>
