<svg width="24" height="24" viewBox="0 0 24 24" fill="none" xmlns="http://www.w3.org/2000/svg">
<path d="M19.2 21C19.2 21.3314 19.4686 21.6 19.8 21.6C20.1314 21.6 20.4 21.3314 20.4 21V3.00002C20.4 2.66865 20.1314 2.40002 19.8 2.40002C19.4686 2.40002 19.2 2.66865 19.2 3.00002V21Z" fill="#2A2A2A"/>
<path d="M12 4.80002C10.6745 4.80002 9.6 5.87454 9.6 7.20002V16.8C9.6 18.1255 10.6745 19.2 12 19.2H14.4C15.7255 19.2 16.8 18.1255 16.8 16.8V7.20002C16.8 5.87454 15.7255 4.80002 14.4 4.80002H12Z" fill="#2A2A2A"/>
</svg>
