<svg width="24" height="24" viewBox="0 0 24 24" fill="none" xmlns="http://www.w3.org/2000/svg">
<path d="M3.00002 3.59998C2.66865 3.59998 2.40002 3.8686 2.40002 4.19998C2.40002 4.53135 2.66865 4.79998 3.00002 4.79998H21C21.3314 4.79998 21.6 4.53135 21.6 4.19998C21.6 3.8686 21.3314 3.59998 21 3.59998H3.00002Z" fill="#2A2A2A"/>
<path d="M3.00002 19.2C2.66865 19.2 2.40002 19.4686 2.40002 19.8C2.40002 20.1313 2.66865 20.4 3.00002 20.4H21C21.3314 20.4 21.6 20.1313 21.6 19.8C21.6 19.4686 21.3314 19.2 21 19.2H3.00002Z" fill="#2A2A2A"/>
<path d="M4.80002 15.6C4.80002 16.9255 5.87454 18 7.20002 18H8.40002C9.72551 18 10.8 16.9255 10.8 15.6V8.39998C10.8 7.07449 9.72551 5.99998 8.40002 5.99998H7.20002C5.87454 5.99998 4.80002 7.07449 4.80002 8.39998V15.6Z" fill="#2A2A2A"/>
<path d="M15.6 18C14.2745 18 13.2 16.9255 13.2 15.6V8.39998C13.2 7.07449 14.2745 5.99998 15.6 5.99998H16.8C18.1255 5.99998 19.2 7.07449 19.2 8.39998V15.6C19.2 16.9255 18.1255 18 16.8 18H15.6Z" fill="#2A2A2A"/>
</svg>
