<svg width="24" height="24" viewBox="0 0 24 24" fill="none" xmlns="http://www.w3.org/2000/svg">
<path d="M22.5 2.24988C22.5 1.83566 22.1642 1.49988 21.75 1.49988C21.3358 1.49988 21 1.83566 21 2.24988L21 21.7499C21 22.1641 21.3358 22.4999 21.75 22.4999C22.1642 22.4999 22.5 22.1641 22.5 21.7499V2.24988ZM12 2.24988C12 1.83566 11.6642 1.49988 11.25 1.49988C10.8358 1.49988 10.5 1.83566 10.5 2.24988L10.5 21.7499C10.5 22.1641 10.8358 22.4999 11.25 22.4999C11.6642 22.4999 12 22.1641 12 21.7499L12 2.24988ZM5.25 19.4999C4.00736 19.4999 3 18.4925 3 17.2499L3 6.74988C3 5.50724 4.00736 4.49988 5.25 4.49988H6.75C7.99264 4.49988 9 5.50724 9 6.74988L9 17.2499C9 18.4925 7.99264 19.4999 6.75 19.4999H5.25ZM4.5 17.2499C4.5 17.6641 4.83579 17.9999 5.25 17.9999H6.75C7.16421 17.9999 7.5 17.6641 7.5 17.2499L7.5 6.74988C7.5 6.33567 7.16422 5.99988 6.75 5.99988H5.25C4.83579 5.99988 4.5 6.33567 4.5 6.74988L4.5 17.2499ZM13.5 14.2499C13.5 15.4925 14.5074 16.4999 15.75 16.4999H17.25C18.4926 16.4999 19.5 15.4925 19.5 14.2499V9.74988C19.5 8.50724 18.4926 7.49988 17.25 7.49988H15.75C14.5074 7.49988 13.5 8.50724 13.5 9.74988L13.5 14.2499ZM15.75 14.9999C15.3358 14.9999 15 14.6641 15 14.2499L15 9.74988C15 9.33566 15.3358 8.99988 15.75 8.99988H17.25C17.6642 8.99988 18 9.33566 18 9.74988V14.2499C18 14.6641 17.6642 14.9999 17.25 14.9999H15.75Z" fill="currentColor"/>
</svg>
