<svg width="24" height="24" viewBox="0 0 24 24" fill="none" xmlns="http://www.w3.org/2000/svg">
<path d="M3.00002 3.59998C2.66865 3.59998 2.40002 3.8686 2.40002 4.19998C2.40002 4.53135 2.66865 4.79998 3.00002 4.79998H21C21.3314 4.79998 21.6 4.53135 21.6 4.19998C21.6 3.8686 21.3314 3.59998 21 3.59998H3.00002Z" fill="#2A2A2A"/>
<path d="M7.20002 7.19998C5.87454 7.19998 4.80002 8.27449 4.80002 9.59998V12C4.80002 13.3255 5.87454 14.4 7.20002 14.4H16.8C18.1255 14.4 19.2 13.3255 19.2 12V9.59998C19.2 8.27449 18.1255 7.19998 16.8 7.19998H7.20002Z" fill="#2A2A2A"/>
</svg>
