<svg width="24" height="24" viewBox="0 0 24 24" fill="none" xmlns="http://www.w3.org/2000/svg">
<path d="M7.75 19C6.28747 19 5.0916 17.8583 5.00502 16.4176L5 16.25L4.99952 14.9991C3.34293 14.9991 2 13.6561 2 11.9996C2 10.343 3.34293 9.00004 4.99952 9.00004C6.07373 9.00004 7.03118 9.56881 7.56188 10.4389C8.07405 10.1927 8.64185 10.0413 9.24125 10.0074L9.5 10H13.4995L13.7475 10.0068L13.9935 10.0269L14.12 10.044L14.23 9.87682L14.361 9.69904L12.584 7.9221C11.8843 7.2224 11.8107 6.13373 12.3631 5.35214L12.4671 5.21755L12.584 5.09017C13.3249 4.34932 14.5018 4.31032 15.2886 4.9732L15.416 5.09017L20.8284 10.5026C22.3905 12.0647 22.3905 14.5974 20.8284 16.1595C20.1082 16.8797 19.1629 17.2818 18.1865 17.3271L17.9607 17.3312L17.779 17.324L17.7528 17.3881C17.3675 18.2373 16.5642 18.8496 15.6146 18.9759L15.4228 18.9946L15.2495 19H7.75ZM14.3553 6.15083C14.1591 5.9546 13.8409 5.9546 13.6447 6.15083C13.4703 6.32526 13.4509 6.59602 13.5866 6.79186L13.6447 6.86145L16.4528 9.66965L15.8149 10.3113C15.605 10.5212 15.4295 10.7556 15.2916 11.0077L15.1952 11.2L14.9287 11.7839L14.3107 11.6108C14.1146 11.5559 13.9126 11.521 13.7066 11.507L13.4995 11.5H9.5C8.80076 11.5 8.15739 11.7393 7.64728 12.1403L7.50409 12.2604L7.33898 12.4192L7.24566 12.5206L7.13486 12.6541L7.01378 12.8204L6.97161 12.8847C6.93089 12.9483 6.89251 13.0135 6.85658 13.0802L6.79897 13.1927L6.73697 13.3294L6.70271 13.4138L6.65152 13.5558L6.59714 13.7395C6.57164 13.8371 6.551 13.9364 6.53542 14.0371L6.52384 14.12L6.50602 14.3084L6.5 14.5V16.25C6.5 16.8972 6.99187 17.4296 7.62219 17.4936L7.75 17.5L12.001 17.4997L12.0019 17.2534C12.0019 16.6062 11.51 16.0739 10.8797 16.0099L10.7519 16.0034H9.75188C9.33767 16.0034 9.00188 15.6676 9.00188 15.2534C9.00188 14.8737 9.28403 14.5599 9.65011 14.5103L9.75188 14.5034H10.7519C12.2144 14.5034 13.4103 15.6451 13.4969 17.0859L13.5019 17.2534L13.501 17.4997L15.2495 17.5C15.8415 17.5 16.344 17.086 16.4678 16.5247L16.4885 16.4022L16.5872 15.5621L17.4095 15.7608C18.2518 15.9644 19.144 15.7226 19.7678 15.0988C20.7016 14.165 20.7422 12.6761 19.8896 11.694L19.7678 11.5633L14.3553 6.15083ZM4.99952 10.5C4.17136 10.5 3.5 11.1714 3.5 11.9996C3.5 12.779 4.0947 13.4195 4.8551 13.4922L4.99952 13.4991L5.114 13.494L5.11885 13.4682C5.15379 13.3193 5.19612 13.1732 5.24544 13.0304L5.34236 12.776L5.44825 12.5403L5.50494 12.427L5.63589 12.1925L5.72326 12.0525L5.86824 11.8424L5.94157 11.7451L6.05002 11.6106L6.17893 11.4635L6.329 11.307C6.1194 10.906 5.73907 10.6174 5.29202 10.5287L5.14067 10.5066L4.99952 10.5Z" fill="currentColor"/>
</svg>
