<svg width="24" height="24" viewBox="0 0 24 24" fill="none" xmlns="http://www.w3.org/2000/svg">
<path d="M10.9966 5.9978C13.6195 5.9978 15.9427 7.66234 16.7962 10.1234L16.8719 10.3564L16.9154 10.5006L19.2462 10.5013C20.7081 10.5013 21.9034 11.6423 21.99 13.0823L21.995 13.2498V14.2491C21.995 15.1669 21.2881 15.9195 20.3891 15.9925L20.2457 15.9983L18.6198 15.9976L18.8611 16.5819C19.2099 17.428 18.8464 18.3903 18.0477 18.8023L17.9106 18.8658C17.7519 18.9311 17.5849 18.9727 17.4147 18.9894L17.2438 18.9978H15.4573C14.8317 18.9978 14.2581 18.6643 13.9467 18.1308L13.8744 17.9933L13.3359 16.8509L13.3899 16.8438C11.9895 17.0298 10.5727 17.0518 9.16857 16.9097L8.67171 16.8526L8.13675 17.9893C7.84824 18.6024 7.23153 18.9938 6.55386 18.9938H4.74938C4.52092 18.9938 4.29467 18.949 4.08342 18.862C3.19003 18.4943 2.76395 17.472 3.13175 16.5787L3.565 15.5281C2.62412 14.9603 1.995 13.9282 1.995 12.7492C1.995 12.3697 2.27704 12.056 2.64298 12.0064L2.74471 11.9995L4.62501 11.9989L5.12226 10.357C5.90577 7.76836 8.29173 5.9978 10.9966 5.9978ZM17.7737 15.6912C17.0024 16.0012 16.2151 16.2561 15.4177 16.4562L14.8688 16.5848L15.2312 17.355C15.2559 17.4076 15.2975 17.4487 15.3477 17.4732L15.4006 17.492L15.4573 17.4985H17.2438C17.2765 17.4985 17.3088 17.4921 17.339 17.4797C17.4454 17.4358 17.5053 17.3271 17.4919 17.2182L17.4748 17.1534L16.9974 15.9976L16.9539 15.998L17.3652 15.8497L17.7737 15.6912ZM4.2219 15.6912L4.61279 15.8431L4.9994 15.984L4.51829 17.1495C4.46574 17.2771 4.52661 17.4231 4.65424 17.4757C4.68442 17.4881 4.71674 17.4945 4.74938 17.4945H6.55386L6.61059 17.488C6.68403 17.4708 6.74701 17.421 6.77998 17.351L7.13985 16.5878L7.18391 16.5973C6.17895 16.3816 5.18791 16.0795 4.2219 15.6912ZM4.01943 13.9965L4.17118 13.4972L3.66432 13.4984L3.68915 13.5508C3.77516 13.7167 3.88703 13.867 4.01943 13.9965ZM17.3692 11.9999L18.126 14.4977L20.2457 14.499C20.364 14.499 20.4631 14.4168 20.489 14.3064L20.4956 14.2491V13.2498C20.4956 12.603 20.0039 12.071 19.3739 12.007L19.2462 12.0005L17.3692 11.9999Z" fill="currentColor"/>
</svg>
