<svg width="24" height="24" viewBox="0 0 24 24" fill="none" xmlns="http://www.w3.org/2000/svg">
<path d="M18.4923 2.33027L21.671 5.50905C22.5497 6.38773 22.5497 7.81235 21.671 8.69103L19.0866 11.275C20.1696 11.4374 21 12.3717 21 13.4999V18.7499C21 19.9926 19.9926 20.9999 18.75 20.9999H5.25C4.00736 20.9999 3 19.9926 3 18.7499V5.24994C3 4.0073 4.00736 2.99994 5.25 2.99994H10.5C11.6289 2.99994 12.5637 3.83139 12.7253 4.91535L15.3103 2.33027C16.189 1.45159 17.6136 1.45159 18.4923 2.33027ZM4.5 18.7499C4.5 19.1642 4.83579 19.4999 5.25 19.4999L11.249 19.4993L11.25 12.7499L4.5 12.7493V18.7499ZM12.749 19.4993L18.75 19.4999C19.1642 19.4999 19.5 19.1642 19.5 18.7499V13.4999C19.5 13.0857 19.1642 12.7499 18.75 12.7499L12.749 12.7493V19.4993ZM10.5 4.49994H5.25C4.83579 4.49994 4.5 4.83573 4.5 5.24994V11.2493H11.25V5.24994C11.25 4.83573 10.9142 4.49994 10.5 4.49994ZM12.75 9.30926V11.2499L14.69 11.2493L12.75 9.30926ZM16.3709 3.39093L13.1922 6.56971C12.8993 6.8626 12.8993 7.33747 13.1922 7.63037L16.3709 10.8091C16.6638 11.102 17.1387 11.102 17.4316 10.8091L20.6104 7.63037C20.9033 7.33747 20.9033 6.8626 20.6104 6.56971L17.4316 3.39093C17.1387 3.09804 16.6638 3.09804 16.3709 3.39093Z" fill="#2A2A2A"/>
</svg>
