<svg width="24" height="24" viewBox="0 0 24 24" fill="none" xmlns="http://www.w3.org/2000/svg">
<path d="M11.25 3C10.8358 3 10.5 3.33579 10.5 3.75C10.5 4.16421 10.8358 4.5 11.25 4.5H18.4393L15.2197 7.71967C14.9268 8.01256 14.9268 8.48744 15.2197 8.78033C15.5126 9.07322 15.9874 9.07322 16.2803 8.78033L19.5 5.56066V12.75C19.5 13.1642 19.8358 13.5 20.25 13.5C20.6642 13.5 21 13.1642 21 12.75V3.75C21 3.33579 20.6642 3 20.25 3H11.25ZM13.2803 11.7803C13.5732 11.4874 13.5732 11.0126 13.2803 10.7197C12.9874 10.4268 12.5126 10.4268 12.2197 10.7197L9.21967 13.7197C8.92678 14.0126 8.92678 14.4874 9.21967 14.7803C9.51256 15.0732 9.98744 15.0732 10.2803 14.7803L13.2803 11.7803ZM7.28033 17.7803C7.57322 17.4874 7.57322 17.0126 7.28033 16.7197C6.98744 16.4268 6.51256 16.4268 6.21967 16.7197L3.21967 19.7197C2.92678 20.0126 2.92678 20.4874 3.21967 20.7803C3.51256 21.0732 3.98744 21.0732 4.28033 20.7803L7.28033 17.7803Z" fill="#2A2A2A"/>
</svg>
