<svg width="24" height="24" viewBox="0 0 24 24" fill="none" xmlns="http://www.w3.org/2000/svg">
<path d="M3.75 6.5C3.33579 6.5 3 6.16421 3 5.75C3 5.33579 3.33579 5 3.75 5L12.75 5C14.8211 5 16.5 6.67893 16.5 8.75V17.4393L19.7197 14.2197C20.0126 13.9268 20.4874 13.9268 20.7803 14.2197C21.0732 14.5126 21.0732 14.9874 20.7803 15.2803L16.2803 19.7803C15.9874 20.0732 15.5126 20.0732 15.2197 19.7803L10.7197 15.2803C10.4268 14.9874 10.4268 14.5126 10.7197 14.2197C11.0126 13.9268 11.4874 13.9268 11.7803 14.2197L15 17.4393V8.75C15 7.50736 13.9926 6.5 12.75 6.5L3.75 6.5Z" fill="currentColor"/>
</svg>
