<svg width="24" height="24" viewBox="0 0 24 24" fill="none" xmlns="http://www.w3.org/2000/svg">
<path d="M6.25287 9.33771C5.9007 8.98694 5.89956 8.4171 6.25033 8.06492C6.6011 7.71275 7.17095 7.71161 7.52312 8.06238L10.5351 11.0624C10.7045 11.231 10.7998 11.4601 10.8 11.6992C10.8002 11.9382 10.7054 12.1674 10.5364 12.3364L7.53639 15.3364C7.18492 15.6879 6.61507 15.6879 6.2636 15.3364C5.91213 14.985 5.91213 14.4151 6.2636 14.0637L7.7272 12.6H3.29999C2.80294 12.6 2.39999 12.1971 2.39999 11.7C2.39999 11.203 2.80294 10.8 3.29999 10.8H7.72105L6.25287 9.33771ZM17.7471 9.33771C18.0993 8.98694 18.1004 8.4171 17.7497 8.06492C17.3989 7.71275 16.829 7.71161 16.4769 8.06238L13.4649 11.0624C13.2955 11.231 13.2002 11.4601 13.2 11.6992C13.1998 11.9382 13.2946 12.1674 13.4636 12.3364L16.4636 15.3364C16.8151 15.6879 17.3849 15.6879 17.7364 15.3364C18.0879 14.985 18.0879 14.4151 17.7364 14.0637L16.2728 12.6H20.7C21.1971 12.6 21.6 12.1971 21.6 11.7C21.6 11.203 21.1971 10.8 20.7 10.8H16.2789L17.7471 9.33771Z" fill="currentColor"/>
</svg>
