<svg width="24" height="24" viewBox="0 0 24 24" fill="none" xmlns="http://www.w3.org/2000/svg">
<path d="M19.7365 19.8341C19.643 20.0678 19.456 20.2517 19.2207 20.3412C18.9855 20.4306 18.7235 20.4175 18.4984 20.305L12.4973 17.305C12.0527 17.0827 11.8725 16.5421 12.0947 16.0975C12.317 15.6529 12.8576 15.4727 13.3022 15.6949L17.1947 17.6409L12.0108 5.85933L6.52721 18.6545C6.33141 19.1113 5.80231 19.323 5.34545 19.1272C4.88858 18.9314 4.67694 18.4023 4.87274 17.9454L10.6285 4.51532C11.1453 3.30949 12.8518 3.30129 13.3802 4.50209L18.9064 17.0617L20.4641 13.1658C20.6486 12.7043 21.1723 12.4797 21.6339 12.6643C22.0954 12.8488 22.32 13.3725 22.1354 13.8341L19.7365 19.8341Z" fill="#2A2A2A"/>
</svg>
