<svg width="24" height="24" viewBox="0 0 24 24" fill="none" xmlns="http://www.w3.org/2000/svg">
<path d="M5.78033 7.71967C6.07322 8.01256 6.07322 8.48744 5.78033 8.78033L4.06066 10.5H9.75C10.1642 10.5 10.5 10.8358 10.5 11.25C10.5 11.6642 10.1642 12 9.75 12H4.06066L5.78033 13.7197C6.07322 14.0126 6.07322 14.4874 5.78033 14.7803C5.48744 15.0732 5.01256 15.0732 4.71967 14.7803L1.71967 11.7803C1.42678 11.4874 1.42678 11.0126 1.71967 10.7197L4.71967 7.71967C5.01256 7.42678 5.48744 7.42678 5.78033 7.71967ZM18.2197 7.71967C18.5126 7.42678 18.9874 7.42678 19.2803 7.71967L22.2803 10.7197C22.5732 11.0126 22.5732 11.4874 22.2803 11.7803L19.2803 14.7803C18.9874 15.0732 18.5126 15.0732 18.2197 14.7803C17.9268 14.4874 17.9268 14.0126 18.2197 13.7197L19.9393 12H14.25C13.8358 12 13.5 11.6642 13.5 11.25C13.5 10.8358 13.8358 10.5 14.25 10.5H19.9393L18.2197 8.78033C17.9268 8.48744 17.9268 8.01256 18.2197 7.71967Z" fill="currentColor"/>
</svg>
