<svg width="24" height="24" viewBox="0 0 24 24" fill="none" xmlns="http://www.w3.org/2000/svg">
<path d="M10.125 2.25C9.50368 2.25 9 2.75368 9 3.375C9 3.99632 9.50368 4.5 10.125 4.5H17.25C18.4926 4.5 19.5 5.50736 19.5 6.75V17.25C19.5 18.4926 18.4926 19.5 17.25 19.5H10.125C9.50368 19.5 9 20.0037 9 20.625C9 21.2463 9.50368 21.75 10.125 21.75H17.25C19.7353 21.75 21.75 19.7353 21.75 17.25V6.75C21.75 4.26472 19.7353 2.25 17.25 2.25H10.125ZM14.6705 11.2045L10.9205 7.4545C10.4812 7.01516 9.76884 7.01516 9.3295 7.4545C8.89017 7.89384 8.89017 8.60616 9.3295 9.0455L11.159 10.875H2.625C2.00368 10.875 1.5 11.3787 1.5 12C1.5 12.6213 2.00368 13.125 2.625 13.125H11.159L9.3295 14.9545C8.89017 15.3938 8.89017 16.1062 9.3295 16.5455C9.76884 16.9848 10.4812 16.9848 10.9205 16.5455L14.6705 12.7955C14.8815 12.5845 15 12.2984 15 12C15 11.7016 14.8815 11.4155 14.6705 11.2045Z" fill="#2A2A2A"/>
</svg>
