<svg width="24" height="24" viewBox="0 0 24 24" fill="none" xmlns="http://www.w3.org/2000/svg">
<path d="M6.94966 8.06492C7.30043 8.4171 7.29929 8.98694 6.94712 9.33771L5.47893 10.8H9.89999C10.3971 10.8 10.8 11.203 10.8 11.7C10.8 12.1971 10.3971 12.6 9.89999 12.6H5.47279L6.93639 14.0637C7.28786 14.4151 7.28786 14.985 6.93639 15.3364C6.58492 15.6879 6.01507 15.6879 5.6636 15.3364L2.6636 12.3364C2.49459 12.1674 2.39976 11.9382 2.39999 11.6992C2.40023 11.4601 2.49553 11.231 2.66487 11.0624L5.67687 8.06238C6.02904 7.71161 6.59889 7.71275 6.94966 8.06492ZM17.0636 8.06365C17.4151 7.71218 17.9849 7.71218 18.3364 8.06365L21.3364 11.0637C21.6879 11.4151 21.6879 11.985 21.3364 12.3364L18.3364 15.3364C17.9849 15.6879 17.4151 15.6879 17.0636 15.3364C16.7121 14.985 16.7121 14.4151 17.0636 14.0637L18.5272 12.6H14.1C13.6029 12.6 13.2 12.1971 13.2 11.7C13.2 11.203 13.6029 10.8 14.1 10.8H18.5272L17.0636 9.33644C16.7121 8.98497 16.7121 8.41512 17.0636 8.06365Z" fill="#2A2A2A"/>
</svg>
