<svg width="24" height="24" viewBox="0 0 24 24" fill="none" xmlns="http://www.w3.org/2000/svg">
<path d="M15.6364 4.46355C15.9879 4.81503 15.9879 5.38488 15.6364 5.73635L12.6364 8.73635C12.2849 9.08782 11.7151 9.08782 11.3636 8.73635L8.36362 5.73635C8.01214 5.38488 8.01214 4.81503 8.36362 4.46355C8.71509 4.11208 9.28494 4.11208 9.63641 4.46355L11.1 5.92716V2.09995C11.1 1.6029 11.503 1.19995 12 1.19995C12.4971 1.19995 12.9 1.6029 12.9 2.09995V5.92716L14.3636 4.46355C14.7151 4.11208 15.2849 4.11208 15.6364 4.46355ZM4.46362 8.36356C4.81509 8.01208 5.38494 8.01208 5.73641 8.36356L8.73641 11.3636C9.08788 11.715 9.08788 12.2849 8.73641 12.6363L5.73641 15.6363C5.38494 15.9878 4.81509 15.9878 4.46362 15.6363C4.11214 15.2849 4.11214 14.715 4.46362 14.3636L5.92722 12.9H2.10001C1.60296 12.9 1.20001 12.497 1.20001 12C1.20001 11.5029 1.60296 11.1 2.10001 11.1H5.92722L4.46362 9.63635C4.11214 9.28488 4.11214 8.71503 4.46362 8.36356ZM18.2636 8.36356C18.6151 8.01208 19.1849 8.01208 19.5364 8.36356C19.8879 8.71503 19.8879 9.28488 19.5364 9.63635L18.0728 11.1H21.9C22.3971 11.1 22.8 11.5029 22.8 12C22.8 12.497 22.3971 12.9 21.9 12.9H18.0728L19.5364 14.3636C19.8879 14.715 19.8879 15.2849 19.5364 15.6363C19.1849 15.9878 18.6151 15.9878 18.2636 15.6363L15.2636 12.6363C14.9121 12.2849 14.9121 11.715 15.2636 11.3636L18.2636 8.36356ZM15.6364 19.5363C15.9879 19.1849 15.9879 18.615 15.6364 18.2636L12.6364 15.2636C12.2849 14.9121 11.7151 14.9121 11.3636 15.2636L8.36362 18.2636C8.01214 18.615 8.01214 19.1849 8.36362 19.5363C8.71509 19.8878 9.28494 19.8878 9.63641 19.5363L11.1 18.0727V21.9C11.1 22.397 11.503 22.8 12 22.8C12.4971 22.8 12.9 22.397 12.9 21.9V18.0727L14.3636 19.5363C14.7151 19.8878 15.2849 19.8878 15.6364 19.5363Z" fill="currentColor"/>
</svg>
