<svg width="24" height="24" viewBox="0 0 24 24" fill="none" xmlns="http://www.w3.org/2000/svg">
<path d="M5.44651 19.528C5.29295 19.9127 4.85661 20.1001 4.47191 19.9465C4.08721 19.7929 3.89984 19.3566 4.0534 18.9719L10.3509 3.19553C10.7655 2.15686 12.231 2.14369 12.6642 3.17473L18.8108 17.8036L20.5672 13.9396C20.7386 13.5625 21.1832 13.3958 21.5603 13.5672C21.9374 13.7386 22.1041 14.1832 21.9327 14.5603L19.4327 20.0603C19.2652 20.4289 18.8353 20.598 18.4615 20.4423L12.4615 17.9423C12.0791 17.7829 11.8983 17.3438 12.0576 16.9615C12.217 16.5791 12.6561 16.3983 13.0384 16.5576L17.4289 18.387L11.5177 4.31844L5.44651 19.528Z" fill="#2A2A2A"/>
</svg>
