<svg width="24" height="24" viewBox="0 0 24 24" fill="none" xmlns="http://www.w3.org/2000/svg">
<path d="M5.39999 2.3999C5.73136 2.3999 5.99999 2.66853 5.99999 2.9999C5.99999 7.34853 9.45136 10.7999 13.8 10.7999H14.7515L13.3757 9.42417C13.1414 9.18985 13.1414 8.80995 13.3757 8.57564C13.61 8.34132 13.9899 8.34132 14.2243 8.57564L16.6243 10.9756C16.8586 11.21 16.8586 11.5899 16.6243 11.8242L14.2243 14.2242C13.9899 14.4585 13.61 14.4585 13.3757 14.2242C13.1414 13.9899 13.1414 13.61 13.3757 13.3756L14.7515 11.9999H13.8C9.45136 11.9999 5.99999 15.4513 5.99999 19.7999C5.99999 20.1313 5.73136 20.3999 5.39999 20.3999C5.06862 20.3999 4.79999 20.1313 4.79999 19.7999C4.79999 15.9442 7.16108 12.694 10.5325 11.3999C7.16108 10.1059 4.79999 6.85559 4.79999 2.9999C4.79999 2.66853 5.06862 2.3999 5.39999 2.3999ZM12.038 13.431C10.5399 13.8348 9.26456 14.7439 8.39999 15.9704V16.7999C8.39999 18.1254 9.4745 19.1999 10.8 19.1999H18C19.3255 19.1999 20.4 18.1254 20.4 16.7999V5.9999C20.4 4.67442 19.3255 3.5999 18 3.5999H10.8C9.4745 3.5999 8.39999 4.67442 8.39999 5.9999V6.82942C9.26456 8.05587 10.5399 8.96502 12.038 9.36879C11.9183 8.79444 12.0814 8.17294 12.5272 7.72711C13.2301 7.02417 14.3698 7.02417 15.0728 7.72711L17.4728 10.1271C18.1757 10.8301 18.1757 11.9698 17.4728 12.6727L15.0728 15.0727C14.3698 15.7756 13.2301 15.7756 12.5272 15.0727C12.0814 14.6269 11.9183 14.0054 12.038 13.431Z" fill="#2A2A2A"/>
</svg>
