<svg width="24" height="24" viewBox="0 0 24 24" fill="none" xmlns="http://www.w3.org/2000/svg">
<path d="M19.4328 3.43957C19.2652 3.07095 18.8353 2.90188 18.4615 3.05762L12.4615 5.55762C12.0792 5.71693 11.8984 6.15604 12.0577 6.53839C12.217 6.92074 12.6561 7.10155 13.0384 6.94223L17.4289 5.11286L11.5178 19.1814L5.44654 3.97188C5.29298 3.58718 4.85664 3.39981 4.47194 3.55337C4.08724 3.70693 3.89987 4.14327 4.05343 4.52797L10.3509 20.3043C10.7655 21.343 12.231 21.3562 12.6643 20.3251L18.8108 5.69626L20.5672 9.56028C20.7386 9.93737 21.1833 10.1041 21.5603 9.9327C21.9374 9.7613 22.1042 9.31666 21.9328 8.93957L19.4328 3.43957Z" fill="currentColor"/>
</svg>
