<svg width="24" height="24" viewBox="0 0 24 24" fill="none" xmlns="http://www.w3.org/2000/svg">
<path d="M11.862 4.50127C10.563 4.52498 9.27019 4.8837 8.12309 5.57753L6.81986 4.2743C8.15638 3.37623 9.67465 2.86236 11.2181 2.73278L10.5151 2.0298C10.1636 1.67833 10.1636 1.10848 10.5151 0.757012C10.8666 0.40554 11.4364 0.40554 11.7879 0.757012L14.3335 3.3026C14.685 3.65407 14.685 4.22392 14.3335 4.57539L11.7879 7.12097C11.4364 7.47245 10.8666 7.47245 10.5151 7.12097C10.1636 6.7695 10.1636 6.19965 10.5151 5.84818L11.862 4.50127ZM5.0131 5.86167C1.79762 9.5145 1.93456 15.0868 5.42392 18.5761C5.74225 18.8944 6.07834 19.1852 6.42912 19.4482C6.82682 19.7463 7.39093 19.6657 7.68909 19.268C7.98726 18.8703 7.90657 18.3062 7.50887 18.008C7.22611 17.796 6.95456 17.5612 6.69671 17.3033C3.91059 14.5172 3.77473 10.0844 6.28915 7.13772L16.8623 17.7109C15.5017 18.872 13.8251 19.4679 12.138 19.4987L13.4849 18.1518C13.8364 17.8003 13.8364 17.2305 13.4849 16.879C13.1334 16.5275 12.5636 16.5275 12.2121 16.879L9.66652 19.4246C9.31504 19.7761 9.31504 20.3459 9.66652 20.6974L12.2121 23.243C12.5636 23.5944 13.1334 23.5944 13.4849 23.243C13.8364 22.8915 13.8364 22.3216 13.4849 21.9702L12.7819 21.2672C14.708 21.1055 16.5949 20.3453 18.1383 18.9869L20.5757 21.4243C20.8101 21.6586 21.19 21.6586 21.4243 21.4243C21.6586 21.19 21.6586 20.8101 21.4243 20.5758L3.42427 2.57578C3.18995 2.34147 2.81005 2.34147 2.57574 2.57578C2.34142 2.8101 2.34142 3.19 2.57574 3.42431L5.0131 5.86167ZM18.4223 15.8768L19.7258 17.1802C22.1558 13.5647 21.7725 8.62031 18.5761 5.42387C18.2577 5.10553 17.9217 4.81478 17.5709 4.55179C17.1732 4.25363 16.6091 4.33432 16.3109 4.73201C16.0127 5.12971 16.0934 5.69382 16.4911 5.99198C16.7739 6.20397 17.0454 6.43881 17.3033 6.69666C19.7935 9.18685 20.1665 12.9925 18.4223 15.8768Z" fill="#2A2A2A"/>
</svg>
