<svg width="24" height="24" viewBox="0 0 24 24" fill="none" xmlns="http://www.w3.org/2000/svg">
<path d="M6.25 3.625C6.25 3.27982 5.97018 3 5.625 3C5.27982 3 5 3.27982 5 3.625V12.875C5 14.877 6.62297 16.5 8.625 16.5H17.7088L14.189 19.9272C13.9417 20.168 13.9364 20.5637 14.1772 20.811C14.418 21.0583 14.8137 21.0636 15.061 20.8228L19.811 16.1978C19.9318 16.0801 20 15.9186 20 15.75C20 15.5814 19.9318 15.4199 19.811 15.3022L15.061 10.6772C14.8137 10.4364 14.418 10.4417 14.1772 10.689C13.9364 10.9363 13.9417 11.332 14.189 11.5728L17.9656 15.25H8.625C7.31332 15.25 6.25 14.1867 6.25 12.875V3.625Z" fill="currentColor"/>
</svg>
