<svg width="24" height="24" viewBox="0 0 24 24" fill="none" xmlns="http://www.w3.org/2000/svg">
<path d="M9.75 3C9.33579 3 9 3.33579 9 3.75C9 4.16421 9.33579 4.5 9.75 4.5H17.25C18.4926 4.5 19.5 5.50736 19.5 6.75V17.25C19.5 18.4926 18.4926 19.5 17.25 19.5H9.75C9.33579 19.5 9 19.8358 9 20.25C9 20.6642 9.33579 21 9.75 21H17.25C19.3211 21 21 19.3211 21 17.25V6.75C21 4.67893 19.3211 3 17.25 3H9.75ZM14.7803 11.4697L10.2803 6.96967C9.98744 6.67678 9.51256 6.67678 9.21967 6.96967C8.92678 7.26256 8.92678 7.73744 9.21967 8.03033L12.4393 11.25H2.25C1.83579 11.25 1.5 11.5858 1.5 12C1.5 12.4142 1.83579 12.75 2.25 12.75H12.4393L9.21967 15.9697C8.92678 16.2626 8.92678 16.7374 9.21967 17.0303C9.51256 17.3232 9.98744 17.3232 10.2803 17.0303L14.7803 12.5303C15.0732 12.2374 15.0732 11.7626 14.7803 11.4697Z" fill="currentColor"/>
</svg>
