<svg width="24" height="24" viewBox="0 0 24 24" fill="none" xmlns="http://www.w3.org/2000/svg">
<path d="M15.001 8.99871H9.00399L9.00498 6.74954C9.00498 6.08985 8.21462 5.75151 7.73729 6.20686L2.23356 11.4572C1.92381 11.7527 1.92382 12.2471 2.23358 12.5426L7.73731 17.7926L7.81957 17.8612C8.30002 18.2093 9.00498 17.8729 9.00498 17.2499L9.00399 14.9997H15.001L15.0016 17.2499C15.0016 17.9098 15.7923 18.248 16.2696 17.7923L21.7667 12.5423C22.0761 12.2468 22.0761 11.7529 21.7668 11.4575L16.2696 6.20717C15.7924 5.75139 15.0016 6.08963 15.0016 6.74954L15.001 8.99871ZM3.83699 11.9997L7.50399 8.50071L7.50498 9.74933C7.50498 10.1635 7.84076 10.4993 8.25498 10.4993H15.7516L15.8533 10.4925C16.2194 10.4428 16.5016 10.129 16.5016 9.74933L16.501 8.50271L20.162 11.9997L16.501 15.4957L16.5016 14.2504C16.5016 13.8362 16.1658 13.5004 15.7516 13.5004H8.25498L8.15321 13.5073C7.78713 13.5569 7.50498 13.8707 7.50498 14.2504L7.50399 15.4977L3.83699 11.9997Z" fill="currentColor"/>
</svg>
