<svg width="24" height="24" viewBox="0 0 24 24" fill="none" xmlns="http://www.w3.org/2000/svg">
<path d="M20.1364 12.8637C20.4879 13.2151 20.4879 13.785 20.1364 14.1364L15.3364 18.9364C14.9849 19.2879 14.4151 19.2879 14.0636 18.9364L9.2636 14.1364C8.91213 13.785 8.91213 13.2151 9.2636 12.8637C9.61507 12.5122 10.1849 12.5122 10.5364 12.8637L13.8 16.1273V8.40005C13.8 7.40594 12.9941 6.60005 12 6.60005L4.5 6.60005C4.00294 6.60005 3.6 6.1971 3.6 5.70005C3.6 5.20299 4.00294 4.80005 4.5 4.80005L12 4.80005C13.9882 4.80005 15.6 6.41182 15.6 8.40005V16.1273L18.8636 12.8637C19.2151 12.5122 19.7849 12.5122 20.1364 12.8637Z" fill="currentColor"/>
</svg>
