<svg width="24" height="24" viewBox="0 0 24 24" fill="none" xmlns="http://www.w3.org/2000/svg">
<path d="M15.2197 3.21967C14.9268 3.51256 14.9268 3.98744 15.2197 4.28033L18.4394 7.5L14.9356 7.5C12.7341 7.49994 10.5778 7.49989 8.59704 8.09413C6.54841 8.70873 4.71908 9.94441 3.12604 12.334C2.89628 12.6786 2.98941 13.1443 3.33405 13.374C3.6787 13.6038 4.14435 13.5107 4.37411 13.166C5.78106 11.0556 7.32672 10.0413 9.02806 9.53087C10.7779 9.00591 12.7239 9 15 9H18.4393L15.2197 12.2197C14.9268 12.5126 14.9268 12.9874 15.2197 13.2803C15.5126 13.5732 15.9875 13.5732 16.2804 13.2803L20.7803 8.78033C21.0732 8.48744 21.0732 8.01256 20.7803 7.71967L16.2804 3.21967C15.9875 2.92678 15.5126 2.92678 15.2197 3.21967ZM12 22.5C13.6569 22.5 15 21.1569 15 19.5C15 17.8431 13.6569 16.5 12 16.5C10.3432 16.5 9.00005 17.8431 9.00005 19.5C9.00005 21.1569 10.3432 22.5 12 22.5ZM12 21C11.1716 21 10.5 20.3284 10.5 19.5C10.5 18.6716 11.1716 18 12 18C12.8285 18 13.5 18.6716 13.5 19.5C13.5 20.3284 12.8285 21 12 21Z" fill="#2A2A2A"/>
</svg>
