<svg width="24" height="24" viewBox="0 0 24 24" fill="none" xmlns="http://www.w3.org/2000/svg">
<path d="M18.6341 18.5364C18.8678 18.4429 19.0517 18.2559 19.1412 18.0206C19.2307 17.7854 19.2176 17.5234 19.105 17.2982L16.105 11.2972C15.8828 10.8526 15.3422 10.6723 14.8976 10.8946C14.453 11.1168 14.2727 11.6574 14.495 12.102L16.4409 15.9946L4.65939 10.8107L17.4545 5.32707C17.9114 5.13127 18.123 4.60218 17.9272 4.14531C17.7314 3.68845 17.2023 3.47681 16.7455 3.67261L3.31538 9.42836C2.10955 9.94515 2.10134 11.6517 3.30215 12.1801L15.8617 17.7063L11.9659 19.2639C11.5043 19.4485 11.2798 19.9722 11.4643 20.4337C11.6489 20.8953 12.1726 21.1198 12.6341 20.9353L18.6341 18.5364Z" fill="#2A2A2A"/>
</svg>
