<svg width="24" height="24" viewBox="0 0 24 24" fill="none" xmlns="http://www.w3.org/2000/svg">
<path d="M4.76311 4.70329C4.44369 4.57245 4.29081 4.20745 4.42164 3.88803C4.55248 3.5686 4.91748 3.41572 5.2369 3.54656L20.8923 9.95886C21.8237 10.3404 21.8237 11.6595 20.8923 12.041L5.78811 18.2275L10.1447 20.3111C10.4561 20.46 10.5878 20.8332 10.4388 21.1446C10.2899 21.456 9.91675 21.5877 9.60535 21.4388L3.85535 18.6888C3.55519 18.5452 3.42012 18.1917 3.54809 17.8845L6.04808 11.8845C6.18085 11.5659 6.54677 11.4152 6.86539 11.548C7.18402 11.6808 7.33469 12.0467 7.20193 12.3653L5.22629 17.1068L20.1361 10.9999L4.76311 4.70329Z" fill="#2A2A2A"/>
</svg>
