<svg width="24" height="24" viewBox="0 0 24 24" fill="none" xmlns="http://www.w3.org/2000/svg">
<path d="M18.6787 20.3953C18.7246 20.3893 18.7701 20.3779 18.8142 20.3611C18.971 20.3015 19.0957 20.1789 19.158 20.0231L21.557 14.0231C21.68 13.7154 21.5303 13.3662 21.2226 13.2432C20.9149 13.1202 20.5657 13.2699 20.4427 13.5776L18.6015 18.1828L13.0939 4.35366C12.6981 3.35999 11.2983 3.34142 10.8763 4.32423L4.8485 18.3638C4.71777 18.6683 4.85863 19.0211 5.16312 19.1518C5.46762 19.2826 5.82043 19.1417 5.95117 18.8372L11.979 4.79766L17.4596 18.559L12.8681 16.2636C12.5717 16.1155 12.2113 16.2356 12.0632 16.532C11.915 16.8284 12.0351 17.1888 12.3315 17.337L18.3099 20.3256C18.4205 20.3866 18.5496 20.4125 18.6787 20.3953Z" fill="currentColor"/>
</svg>
