<svg width="24" height="24" viewBox="0 0 24 24" fill="none" xmlns="http://www.w3.org/2000/svg">
<path d="M5.36588 18.5364C5.13217 18.4429 4.94827 18.2559 4.85879 18.0206C4.76931 17.7854 4.78244 17.5234 4.89499 17.2982L7.89499 11.2972C8.11725 10.8526 8.65784 10.6723 9.10244 10.8946C9.54704 11.1168 9.72728 11.6574 9.50502 12.102L7.5591 15.9946L19.3406 10.8107L6.54548 5.32707C6.08861 5.13127 5.87697 4.60218 6.07277 4.14531C6.26857 3.68845 6.79766 3.47681 7.25453 3.67261L20.6846 9.42836C21.8905 9.94515 21.8987 11.6517 20.6979 12.1801L8.13826 17.7063L12.0341 19.2639C12.4957 19.4485 12.7202 19.9722 12.5357 20.4337C12.3512 20.8953 11.8274 21.1198 11.3659 20.9353L5.36588 18.5364Z" fill="#2A2A2A"/>
</svg>
