<svg width="24" height="24" viewBox="0 0 24 24" fill="none" xmlns="http://www.w3.org/2000/svg">
<path d="M3.75 17.5C3.33579 17.5 3 17.8358 3 18.25C3 18.6642 3.33579 19 3.75 19H12.75C14.8211 19 16.5 17.3211 16.5 15.25V6.56066L19.7197 9.78033C20.0126 10.0732 20.4874 10.0732 20.7803 9.78033C21.0732 9.48744 21.0732 9.01256 20.7803 8.71967L16.2803 4.21967C15.9874 3.92678 15.5126 3.92678 15.2197 4.21967L10.7197 8.71967C10.4268 9.01256 10.4268 9.48744 10.7197 9.78033C11.0126 10.0732 11.4874 10.0732 11.7803 9.78033L15 6.56066V15.25C15 16.4926 13.9926 17.5 12.75 17.5H3.75Z" fill="currentColor"/>
</svg>
