<svg width="24" height="24" viewBox="0 0 24 24" fill="none" xmlns="http://www.w3.org/2000/svg">
<path d="M5.68014 7.09436C4.62708 8.44904 4 10.1513 4 12C4 13.9176 4.67591 15.6799 5.80155 17.0579C6.15094 17.4857 6.78092 17.5492 7.20864 17.1998C7.63636 16.8504 7.69986 16.2204 7.35047 15.7927C6.50586 14.7587 6 13.4398 6 12C6 10.7042 6.41079 9.50428 7.10925 8.52346L15.4765 16.8907C14.605 17.5114 13.5606 17.9049 12.4295 17.9849L13.2073 17.2071C13.5978 16.8166 13.5978 16.1834 13.2073 15.7929C12.8167 15.4024 12.1836 15.4024 11.793 15.7929L9.29304 18.2929C8.90252 18.6834 8.90252 19.3166 9.29304 19.7071L11.793 22.2071C12.1836 22.5976 12.8167 22.5976 13.2073 22.2071C13.5978 21.8166 13.5978 21.1834 13.2073 20.7929L12.4043 19.99C14.0965 19.9057 15.6503 19.2957 16.9056 18.3199L20.2929 21.7071C20.6834 22.0976 21.3166 22.0976 21.7071 21.7071C22.0976 21.3166 22.0976 20.6834 21.7071 20.2929L3.70711 2.29289C3.31658 1.90237 2.68342 1.90237 2.29289 2.29289C1.90237 2.68342 1.90237 3.31658 2.29289 3.70711L5.68014 7.09436ZM17.7967 13.5545L19.3668 15.1246C19.7745 14.1647 20 13.1087 20 12C20 9.86651 19.1635 7.92625 17.8027 6.49278C17.4224 6.09225 16.7895 6.0758 16.3889 6.45605C15.9884 6.8363 15.9719 7.46925 16.3522 7.86979C17.3743 8.94647 18 10.3991 18 12C18 12.5376 17.9293 13.0587 17.7967 13.5545ZM8.87536 4.6332L12.3281 8.08595L14.707 5.70711C15.0975 5.31658 15.0975 4.68342 14.707 4.29289L12.207 1.79289C11.8164 1.40237 11.1833 1.40237 10.7927 1.79289C10.4022 2.18342 10.4022 2.81658 10.7927 3.20711L11.5957 4.01004C10.6345 4.05789 9.71792 4.27538 8.87536 4.6332Z" fill="currentColor"/>
</svg>
