<svg width="24" height="24" viewBox="0 0 24 24" fill="none" xmlns="http://www.w3.org/2000/svg">
<path d="M17.75 20.375C17.75 20.7202 18.0298 21 18.375 21C18.7202 21 19 20.7202 19 20.375V11.125C19 9.12297 17.377 7.5 15.375 7.5H6.29118L9.81101 4.0728C10.0583 3.83199 10.0636 3.4363 9.82279 3.18899C9.58199 2.94168 9.1863 2.9364 8.93899 3.1772L4.18899 7.80221C4.06816 7.91986 4 8.08135 4 8.25C4 8.41865 4.06816 8.58014 4.18899 8.69779L8.93899 13.3228C9.1863 13.5636 9.58199 13.5583 9.82279 13.311C10.0636 13.0637 10.0583 12.668 9.81101 12.4272L6.03442 8.75H15.375C16.6867 8.75 17.75 9.81332 17.75 11.125V20.375Z" fill="#2A2A2A"/>
</svg>
