<svg width="24" height="24" viewBox="0 0 24 24" fill="none" xmlns="http://www.w3.org/2000/svg">
<path d="M17.5 3.75C17.5 3.33579 17.8358 3 18.25 3C18.6642 3 19 3.33579 19 3.75V12.75C19 14.8211 17.3211 16.5 15.25 16.5H6.56066L9.78033 19.7197C10.0732 20.0126 10.0732 20.4874 9.78033 20.7803C9.48744 21.0732 9.01256 21.0732 8.71967 20.7803L4.21967 16.2803C3.92678 15.9874 3.92678 15.5126 4.21967 15.2197L8.71967 10.7197C9.01256 10.4268 9.48744 10.4268 9.78033 10.7197C10.0732 11.0126 10.0732 11.4874 9.78033 11.7803L6.56066 15H15.25C16.4926 15 17.5 13.9926 17.5 12.75V3.75Z" fill="#2A2A2A"/>
</svg>
