<svg width="24" height="24" viewBox="0 0 24 24" fill="none" xmlns="http://www.w3.org/2000/svg">
<path d="M20.375 6.25C20.7202 6.25 21 5.97018 21 5.625C21 5.27982 20.7202 5 20.375 5L11.125 5C9.12297 5 7.5 6.62297 7.5 8.625V17.7088L4.0728 14.189C3.83199 13.9417 3.4363 13.9364 3.18899 14.1772C2.94168 14.418 2.9364 14.8137 3.1772 15.061L7.80221 19.811C7.91986 19.9318 8.08135 20 8.25 20C8.41865 20 8.58014 19.9318 8.69779 19.811L13.3228 15.061C13.5636 14.8137 13.5583 14.418 13.311 14.1772C13.0637 13.9364 12.668 13.9417 12.4272 14.189L8.75 17.9656V8.625C8.75 7.31332 9.81332 6.25 11.125 6.25L20.375 6.25Z" fill="currentColor"/>
</svg>
