<svg width="24" height="24" viewBox="0 0 24 24" fill="none" xmlns="http://www.w3.org/2000/svg">
<path d="M12 8.25C11.3457 8.25 10.7403 8.45946 10.2473 8.81498C9.49178 9.35974 9 10.2474 9 11.25C9 12.9069 10.3431 14.25 12 14.25H18.659L18.3295 13.9205C17.8902 13.4812 17.8902 12.7688 18.3295 12.3295C18.7688 11.8902 19.4812 11.8902 19.9205 12.3295L22.1705 14.5795C22.6098 15.0188 22.6098 15.7312 22.1705 16.1705L19.9205 18.4205C19.4812 18.8598 18.7688 18.8598 18.3295 18.4205C17.8902 17.9812 17.8902 17.2688 18.3295 16.8295L18.659 16.5H12C9.1005 16.5 6.75 14.1495 6.75 11.25C6.75 10.3091 6.99749 9.4261 7.43092 8.66241C7.43092 8.66241 7.43093 8.66241 7.43092 8.66241C8.33323 7.07257 10.0413 6 12 6C14.8995 6 17.25 8.35051 17.25 11.25L17.2499 11.288C16.8444 11.7017 16.6034 12.2163 16.5268 12.75H14.5986C14.8539 12.3087 15 11.7964 15 11.25C15 9.59315 13.6568 8.25 12 8.25ZM4.125 14.25H5.95164C6.38624 15.1245 7.00493 15.8914 7.757 16.5H4.125C3.50368 16.5 3 15.9963 3 15.375C3 14.7537 3.50368 14.25 4.125 14.25Z" fill="#2A2A2A"/>
</svg>
