<svg width="24" height="24" viewBox="0 0 24 24" fill="none" xmlns="http://www.w3.org/2000/svg">
<path d="M10.6243 20.2244C10.39 20.4587 10.0101 20.4587 9.77578 20.2244L4.97578 15.4244C4.74147 15.19 4.74147 14.8101 4.97578 14.5758L9.77578 9.77583C10.0101 9.54152 10.39 9.54152 10.6243 9.77583C10.8586 10.0101 10.8586 10.39 10.6243 10.6244L6.84858 14.4001H14.4C15.7255 14.4001 16.8 13.3256 16.8 12.0001V4.2001C16.8 3.86873 17.0687 3.6001 17.4 3.6001C17.7314 3.6001 18 3.86873 18 4.2001V12.0001C18 13.9883 16.3883 15.6001 14.4 15.6001H6.84858L10.6243 19.3758C10.8586 19.6101 10.8586 19.99 10.6243 20.2244Z" fill="#2A2A2A"/>
</svg>
