<svg width="24" height="24" viewBox="0 0 24 24" fill="none" xmlns="http://www.w3.org/2000/svg">
<path d="M13 16.5002C13 19.5378 10.5376 22.0002 7.5 22.0002C4.46243 22.0002 2 19.5378 2 16.5002C2 13.4626 4.46243 11.0002 7.5 11.0002C10.5376 11.0002 13 13.4626 13 16.5002ZM8.5285 13.0002H7.0965C6.88808 13.0002 6.70152 13.1295 6.62834 13.3246L5.50334 16.3246C5.38076 16.6515 5.6224 17.0002 5.9715 17.0002H6.75L5.97731 19.3183C5.86548 19.6537 6.11519 20.0002 6.46883 20.0002C6.6442 20.0002 6.80766 19.9115 6.90323 19.7645L9.52831 15.7259C9.73142 15.4134 9.50717 15.0002 9.1345 15.0002H8.5L8.99667 13.6758C9.11924 13.3489 8.8776 13.0002 8.5285 13.0002ZM16.6241 6.53745L19.5871 9.5004L13.8971 9.49976L13.6679 9.49564C10.3223 9.37507 7.64705 6.62483 7.64705 3.24976C7.64705 2.83554 7.31127 2.49976 6.89705 2.49976C6.48284 2.49976 6.14705 2.83554 6.14705 3.24976L6.15088 3.49577C6.2808 7.66213 9.69916 10.9998 13.8971 10.9998L19.5871 11.0004L16.6241 13.9621L16.5515 14.0462C16.3336 14.3398 16.3578 14.7565 16.6241 15.0227C16.917 15.3156 17.3918 15.3156 17.6847 15.0227L21.9274 10.7801L22 10.696C22.2179 10.4024 22.1936 9.9857 21.9274 9.71943L17.6847 5.47679L17.6006 5.40417C17.307 5.18631 16.8903 5.21052 16.6241 5.47679C16.3312 5.76968 16.3312 6.24455 16.6241 6.53745Z" fill="#2A2A2A"/>
</svg>
