<svg width="24" height="24" viewBox="0 0 24 24" fill="none" xmlns="http://www.w3.org/2000/svg">
<path d="M3.625 6.25C3.27982 6.25 3 5.97018 3 5.625C3 5.27982 3.27982 5 3.625 5L12.875 5C14.877 5 16.5 6.62297 16.5 8.625V17.7088L19.9272 14.189C20.168 13.9417 20.5637 13.9364 20.811 14.1772C21.0583 14.418 21.0636 14.8137 20.8228 15.061L16.1978 19.811C16.0801 19.9318 15.9186 20 15.75 20C15.5814 20 15.4199 19.9318 15.3022 19.811L10.6772 15.061C10.4364 14.8137 10.4417 14.418 10.689 14.1772C10.9363 13.9364 11.332 13.9417 11.5728 14.189L15.25 17.9656V8.625C15.25 7.31332 14.1867 6.25 12.875 6.25L3.625 6.25Z" fill="currentColor"/>
</svg>
