<svg width="24" height="24" viewBox="0 0 24 24" fill="none" xmlns="http://www.w3.org/2000/svg">
<path d="M19.7367 4.16598C19.6432 3.93226 19.4562 3.74836 19.2209 3.65888C18.9857 3.56941 18.7237 3.58254 18.4986 3.69508L12.4975 6.69508C12.0529 6.91734 11.8726 7.45794 12.0949 7.90253C12.3172 8.34713 12.8578 8.52737 13.3023 8.30511L17.1949 6.35919L12.011 18.1407L6.52738 5.34557C6.33158 4.8887 5.80249 4.67707 5.34562 4.87287C4.88876 5.06867 4.67712 5.59776 4.87292 6.05463L10.6287 19.4847C11.1455 20.6906 12.852 20.6988 13.3804 19.4979L18.9066 6.93836L20.4642 10.8342C20.6488 11.2958 21.1725 11.5203 21.634 11.3358C22.0956 11.1512 22.3201 10.6275 22.1356 10.166L19.7367 4.16598Z" fill="currentColor"/>
</svg>
