<svg width="24" height="24" viewBox="0 0 24 24" fill="none" xmlns="http://www.w3.org/2000/svg">
<path d="M6.4205 7.8295C6.85984 8.26884 6.85984 8.98116 6.4205 9.4205L5.34099 10.5H9.375C9.99632 10.5 10.5 11.0037 10.5 11.625C10.5 12.2463 9.99632 12.75 9.375 12.75H5.34099L6.4205 13.8295C6.85984 14.2688 6.85984 14.9812 6.4205 15.4205C5.98116 15.8598 5.26884 15.8598 4.8295 15.4205L1.8295 12.4205C1.39017 11.9812 1.39017 11.2688 1.8295 10.8295L4.8295 7.8295C5.26884 7.39017 5.98116 7.39017 6.4205 7.8295ZM17.5795 7.8295C18.0188 7.39017 18.7312 7.39017 19.1705 7.8295L22.1705 10.8295C22.6098 11.2688 22.6098 11.9812 22.1705 12.4205L19.1705 15.4205C18.7312 15.8598 18.0188 15.8598 17.5795 15.4205C17.1402 14.9812 17.1402 14.2688 17.5795 13.8295L18.659 12.75H14.625C14.0037 12.75 13.5 12.2463 13.5 11.625C13.5 11.0037 14.0037 10.5 14.625 10.5H18.659L17.5795 9.4205C17.1402 8.98116 17.1402 8.26884 17.5795 7.8295Z" fill="#2A2A2A"/>
</svg>
