<svg width="24" height="24" viewBox="0 0 24 24" fill="none" xmlns="http://www.w3.org/2000/svg">
<path d="M11.1364 20.1365C10.7849 20.488 10.2151 20.488 9.86359 20.1365L5.06359 15.3365C4.71212 14.985 4.71212 14.4152 5.06359 14.0637L9.86359 9.2637C10.2151 8.91223 10.7849 8.91223 11.1364 9.2637C11.4879 9.61517 11.4879 10.185 11.1364 10.5365L7.87278 13.8001H15.6C16.5941 13.8001 17.4 12.9942 17.4 12.0001V4.5001C17.4 4.00304 17.8029 3.6001 18.3 3.6001C18.797 3.6001 19.2 4.00304 19.2 4.5001V12.0001C19.2 13.9883 17.5882 15.6001 15.6 15.6001H7.87278L11.1364 18.8637C11.4879 19.2152 11.4879 19.785 11.1364 20.1365Z" fill="#2A2A2A"/>
</svg>
