<svg width="24" height="24" viewBox="0 0 24 24" fill="none" xmlns="http://www.w3.org/2000/svg">
<path d="M9.00001 20.4C8.66864 20.4 8.40001 20.1313 8.40001 19.8C8.40001 19.4686 8.66864 19.2 9.00001 19.2H16.8C18.1255 19.2 19.2 18.1255 19.2 16.8V7.19998C19.2 5.87449 18.1255 4.79998 16.8 4.79998H9.00001C8.66864 4.79998 8.40001 4.53135 8.40001 4.19998C8.40001 3.8686 8.66864 3.59998 9.00001 3.59998H16.8C18.7882 3.59998 20.4 5.21175 20.4 7.19998V16.8C20.4 18.7882 18.7882 20.4 16.8 20.4H9.00001ZM9.17575 7.37571C9.41006 7.1414 9.78996 7.1414 10.0243 7.37571L14.2243 11.5757C14.4586 11.81 14.4586 12.1899 14.2243 12.4242L10.0243 16.6242C9.78996 16.8586 9.41006 16.8586 9.17575 16.6242C8.94143 16.3899 8.94143 16.01 9.17575 15.7757L12.3515 12.6H1.80001C1.46864 12.6 1.20001 12.3313 1.20001 12C1.20001 11.6686 1.46864 11.4 1.80001 11.4H12.3515L9.17575 8.22424C8.94143 7.98992 8.94143 7.61003 9.17575 7.37571Z" fill="#2A2A2A"/>
</svg>
