<svg width="24" height="24" viewBox="0 0 24 24" fill="none" xmlns="http://www.w3.org/2000/svg">
<path d="M13 16.5002C13 19.5378 10.5376 22.0002 7.5 22.0002C4.46243 22.0002 2 19.5378 2 16.5002C2 13.4627 4.46243 11.0002 7.5 11.0002C10.5376 11.0002 13 13.4627 13 16.5002ZM8.5285 13.0002H7.0965C6.88808 13.0002 6.70152 13.1295 6.62834 13.3247L5.50334 16.3247C5.38076 16.6516 5.6224 17.0002 5.9715 17.0002H6.75L5.97731 19.3183C5.86548 19.6538 6.11519 20.0002 6.46883 20.0002C6.6442 20.0002 6.80766 19.9115 6.90323 19.7645L9.52831 15.7259C9.73142 15.4135 9.50717 15.0002 9.1345 15.0002L8.5 15.0002L8.99667 13.6758C9.11924 13.3489 8.8776 13.0002 8.5285 13.0002ZM16.2968 4.29156C15.906 4.68182 15.9055 5.31499 16.2958 5.70578L19.586 9.00025L13 9.00025L12.7751 8.99611C9.56558 8.87782 7 6.23864 7 3.00024C7 2.44796 6.55229 2.00024 6 2.00024C5.44772 2.00024 5 2.44796 5 3.00024L5.00381 3.24942C5.13546 7.55241 8.66509 11.0002 13 11.0002L19.589 11.0002L16.2962 14.2932C15.9057 14.6838 15.9058 15.3169 16.2964 15.7074C16.6869 16.0979 17.3201 16.0978 17.7106 15.7073L22.7072 10.7096C23.0975 10.3193 23.0976 9.68655 22.7076 9.29598L17.711 4.29253C17.3207 3.90174 16.6876 3.90131 16.2968 4.29156Z" fill="currentColor"/>
</svg>
