<svg width="24" height="24" viewBox="0 0 24 24" fill="none" xmlns="http://www.w3.org/2000/svg">
<path d="M7.28033 7.71967C6.98744 7.42678 6.51256 7.42678 6.21967 7.71967C5.92678 8.01256 5.92678 8.48744 6.21967 8.78033L7.93934 10.5H2.25C1.83579 10.5 1.5 10.8358 1.5 11.25C1.5 11.6642 1.83579 12 2.25 12H7.93934L6.21967 13.7197C5.92678 14.0126 5.92678 14.4874 6.21967 14.7803C6.51256 15.0732 6.98744 15.0732 7.28033 14.7803L10.2803 11.7803C10.5732 11.4874 10.5732 11.0126 10.2803 10.7197L7.28033 7.71967ZM17.7803 8.78033C18.0732 8.48744 18.0732 8.01256 17.7803 7.71967C17.4874 7.42678 17.0126 7.42678 16.7197 7.71967L13.7197 10.7197C13.4268 11.0126 13.4268 11.4874 13.7197 11.7803L16.7197 14.7803C17.0126 15.0732 17.4874 15.0732 17.7803 14.7803C18.0732 14.4874 18.0732 14.0126 17.7803 13.7197L16.0607 12H21.75C22.1642 12 22.5 11.6642 22.5 11.25C22.5 10.8358 22.1642 10.5 21.75 10.5H16.0607L17.7803 8.78033Z" fill="currentColor"/>
</svg>
