<svg width="24" height="24" viewBox="0 0 24 24" fill="none" xmlns="http://www.w3.org/2000/svg">
<path d="M12 3C12.5523 3 13 3.44772 13 4V9H15.2499C16.7687 9 17.9999 10.2312 17.9999 11.75V17.5858L19.2928 16.2929C19.6834 15.9024 20.3165 15.9024 20.707 16.2929C21.0976 16.6834 21.0976 17.3166 20.707 17.7071L17.707 20.7071C17.3165 21.0976 16.6834 21.0976 16.2928 20.7071L13.2928 17.7071C12.9023 17.3166 12.9023 16.6834 13.2928 16.2929C13.6834 15.9024 14.3165 15.9024 14.707 16.2929L15.9999 17.5858V11.75C15.9999 11.3358 15.6642 11 15.2499 11H8.74996C8.33574 11 7.99995 11.3358 7.99995 11.75V17.5858L9.29285 16.2929C9.68337 15.9024 10.3165 15.9024 10.7071 16.2929C11.0976 16.6834 11.0976 17.3166 10.7071 17.7071L7.70706 20.7071C7.31654 21.0976 6.68338 21.0976 6.29285 20.7071L3.29284 17.7071C2.90231 17.3166 2.90231 16.6834 3.29283 16.2929C3.68335 15.9024 4.31652 15.9024 4.70704 16.2929L5.99995 17.5858V11.75C5.99995 10.2312 7.23117 9 8.74996 9H11V4C11 3.44772 11.4477 3 12 3Z" fill="currentColor"/>
</svg>
