<svg width="24" height="24" viewBox="0 0 24 24" fill="none" xmlns="http://www.w3.org/2000/svg">
<path d="M12.0001 3C12.4143 3 12.7501 3.33579 12.7501 3.75V9.5H15.2455C16.7643 9.5 17.9955 10.7312 17.9955 12.25V18.4416L19.7201 16.7193C20.0132 16.4266 20.488 16.4269 20.7807 16.72C21.0734 17.0131 21.0731 17.488 20.78 17.7807L17.7755 20.7812C17.4825 21.0737 17.0079 21.0736 16.7152 20.7808L13.7146 17.7803C13.4218 17.4874 13.4218 17.0126 13.7146 16.7197C14.0075 16.4268 14.4824 16.4268 14.7753 16.7197L16.4955 18.4398V12.25C16.4955 11.5596 15.9358 11 15.2455 11H8.74995C8.0596 11 7.49995 11.5596 7.49995 12.25V18.4398L9.22013 16.7197C9.51302 16.4268 9.9879 16.4268 10.2808 16.7197C10.5737 17.0126 10.5737 17.4874 10.2808 17.7803L7.28028 20.7808C6.98739 21.0737 6.51252 21.0737 6.21963 20.7808L3.21906 17.7803C2.92617 17.4874 2.92616 17.0126 3.21905 16.7197C3.51194 16.4268 3.98682 16.4268 4.27971 16.7197L5.99995 18.4399V12.25C5.99995 10.7312 7.23117 9.5 8.74995 9.5H11.2501V3.75C11.2501 3.33579 11.5858 3 12.0001 3Z" fill="#2A2A2A"/>
</svg>
