<svg width="24" height="24" viewBox="0 0 24 24" fill="none" xmlns="http://www.w3.org/2000/svg">
<path d="M9.29995 21C8.80289 21 8.39995 20.5971 8.39995 20.1C8.39995 19.6029 8.80289 19.2 9.29995 19.2H16.8C18.1254 19.2 19.1999 18.1255 19.1999 16.8V7.2C19.1999 5.87452 18.1254 4.8 16.8 4.8H9.29995C8.80289 4.8 8.39995 4.39706 8.39995 3.9C8.39995 3.40294 8.80289 3 9.29995 3H16.8C19.1195 3 21 4.8804 21 7.2V16.8C21 19.1196 19.1195 21 16.8 21H9.29995ZM9.2895 7.43868C9.65474 7.10154 10.2241 7.12431 10.5613 7.48955L14.1613 11.3896C14.4795 11.7343 14.4795 12.2657 14.1613 12.6105L10.5613 16.5105C10.2241 16.8757 9.65474 16.8985 9.2895 16.5613C8.92426 16.2242 8.90148 15.6548 9.23863 15.2896L11.4444 12.9H2.09995C1.60289 12.9 1.19995 12.4971 1.19995 12C1.19995 11.5029 1.60289 11.1 2.09995 11.1H11.4444L9.23863 8.71046C8.90148 8.34522 8.92426 7.77583 9.2895 7.43868Z" fill="currentColor"/>
</svg>
