<svg width="24" height="24" viewBox="0 0 24 24" fill="none" xmlns="http://www.w3.org/2000/svg">
<path d="M18.679 3.60482C18.7249 3.61083 18.7704 3.62219 18.8145 3.63896C18.9713 3.69861 19.096 3.82121 19.1583 3.97702L21.5573 9.97702C21.6803 10.2847 21.5306 10.6339 21.2229 10.7569C20.9152 10.8799 20.566 10.7302 20.443 10.4225L18.6018 5.81732L13.0942 19.6464C12.6984 20.6401 11.2986 20.6587 10.8767 19.6759L4.84881 5.6363C4.71808 5.33181 4.85894 4.97899 5.16343 4.84826C5.46792 4.71753 5.82074 4.85839 5.95147 5.16288L11.9793 19.2024L17.4599 5.44111L12.8684 7.73644C12.572 7.88462 12.2116 7.76446 12.0635 7.46806C11.9153 7.17166 12.0355 6.81127 12.3319 6.66309L18.3102 3.67444C18.4208 3.6135 18.5499 3.58763 18.679 3.60482Z" fill="currentColor"/>
</svg>
