<svg width="24" height="24" viewBox="0 0 24 24" fill="none" xmlns="http://www.w3.org/2000/svg">
<path d="M20.25 17.5C20.6642 17.5 21 17.8358 21 18.25C21 18.6642 20.6642 19 20.25 19H11.25C9.17893 19 7.5 17.3211 7.5 15.25V6.56066L4.28033 9.78033C3.98744 10.0732 3.51256 10.0732 3.21967 9.78033C2.92678 9.48744 2.92678 9.01256 3.21967 8.71967L7.71967 4.21967C8.01256 3.92678 8.48744 3.92678 8.78033 4.21967L13.2803 8.71967C13.5732 9.01256 13.5732 9.48744 13.2803 9.78033C12.9874 10.0732 12.5126 10.0732 12.2197 9.78033L9 6.56066V15.25C9 16.4926 10.0074 17.5 11.25 17.5H20.25Z" fill="currentColor"/>
</svg>
