<svg width="24" height="24" viewBox="0 0 24 24" fill="none" xmlns="http://www.w3.org/2000/svg">
<path d="M14.0033 5.5H21C21.5128 5.5 21.9355 5.88604 21.9933 6.38338L22 6.5V13.5C22 14.0523 21.5523 14.5 21 14.5C20.4872 14.5 20.0645 14.114 20.0067 13.6166L20 13.5L19.9992 8.914L12.7071 16.2071C12.3468 16.5674 11.78 16.5953 11.3877 16.2908L11.2935 16.2077L8.9975 13.9157L3.70941 19.2055C3.31895 19.5961 2.68578 19.5962 2.2952 19.2057C1.93465 18.8453 1.90683 18.2781 2.2118 17.8857L2.29497 17.7915L8.28955 11.795C8.6498 11.4346 9.21668 11.4066 9.60904 11.7112L9.70327 11.7943L11.9994 14.0864L18.5842 7.5H14.0033C13.4904 7.5 13.0678 7.11396 13.01 6.61662L13.0033 6.5C13.0033 5.98716 13.3893 5.56449 13.8866 5.50673L14.0033 5.5H21H14.0033Z" fill="currentColor"/>
</svg>
