<svg width="24" height="24" viewBox="0 0 24 24" fill="none" xmlns="http://www.w3.org/2000/svg">
<path d="M13.3757 20.2244C13.61 20.4587 13.9899 20.4587 14.2243 20.2244L19.0243 15.4244C19.2586 15.19 19.2586 14.8101 19.0243 14.5758L14.2243 9.77583C13.9899 9.54152 13.61 9.54152 13.3757 9.77583C13.1414 10.0101 13.1414 10.39 13.3757 10.6244L17.1515 14.4001H9.6C8.27452 14.4001 7.2 13.3256 7.2 12.0001V4.2001C7.2 3.86873 6.93137 3.6001 6.6 3.6001C6.26863 3.6001 6 3.86873 6 4.2001V12.0001C6 13.9883 7.61177 15.6001 9.6 15.6001H17.1515L13.3757 19.3758C13.1414 19.6101 13.1414 19.99 13.3757 20.2244Z" fill="currentColor"/>
</svg>
