<svg width="24" height="24" viewBox="0 0 24 24" fill="none" xmlns="http://www.w3.org/2000/svg">
<path d="M4.8052 17.4786C4.81121 17.5245 4.82257 17.57 4.83934 17.6141C4.89899 17.771 5.02159 17.8957 5.1774 17.958L11.1774 20.3569C11.4851 20.4799 11.8342 20.3302 11.9573 20.0225C12.0803 19.7148 11.9306 19.3657 11.6229 19.2426L7.0177 17.4014L20.8468 11.8938C21.8405 11.498 21.8591 10.0982 20.8762 9.67627L6.83668 3.64843C6.53219 3.5177 6.17937 3.65856 6.04864 3.96305C5.91791 4.26754 6.05876 4.62036 6.36326 4.7511L20.4028 10.7789L6.64148 16.2596L8.93682 11.6681C9.085 11.3717 8.96484 11.0113 8.66844 10.8631C8.37204 10.7149 8.01164 10.8351 7.86347 11.1315L4.87482 17.1098C4.81387 17.2204 4.78801 17.3495 4.8052 17.4786Z" fill="#2A2A2A"/>
</svg>
