<svg width="24" height="24" viewBox="0 0 24 24" fill="none" xmlns="http://www.w3.org/2000/svg">
<path d="M3.8636 11.1364C3.51213 10.785 3.51213 10.2151 3.8636 9.86365L8.6636 5.06365C9.01507 4.71218 9.58492 4.71218 9.93639 5.06365L14.7364 9.86365C15.0879 10.2151 15.0879 10.785 14.7364 11.1364C14.3849 11.4879 13.8151 11.4879 13.4636 11.1364L10.2 7.87284V15.6C10.2 16.5942 11.0059 17.4 12 17.4H19.5C19.9971 17.4 20.4 17.803 20.4 18.3C20.4 18.7971 19.9971 19.2 19.5 19.2H12C10.0118 19.2 8.4 17.5883 8.4 15.6L8.4 7.87284L5.13639 11.1364C4.78492 11.4879 4.21507 11.4879 3.8636 11.1364Z" fill="#2A2A2A"/>
</svg>
