<svg width="24" height="24" viewBox="0 0 24 24" fill="none" xmlns="http://www.w3.org/2000/svg">
<path d="M15.001 8.99871H9.004L9.00499 6.74954C9.00499 6.08985 8.21463 5.75151 7.7373 6.20686L2.23357 11.4572C1.92382 11.7527 1.92382 12.2471 2.23359 12.5426L7.73731 17.7926L7.81958 17.8612C8.30003 18.2093 9.00499 17.8729 9.00499 17.2499L9.004 14.9997H15.001L15.0016 17.2499C15.0016 17.9098 15.7924 18.248 16.2696 17.7923L21.7667 12.5423C22.0761 12.2468 22.0761 11.7529 21.7668 11.4575L16.2696 6.20717C15.7924 5.75139 15.0016 6.08963 15.0016 6.74954L15.001 8.99871Z" fill="#2A2A2A"/>
</svg>
