<svg width="24" height="24" viewBox="0 0 24 24" fill="none" xmlns="http://www.w3.org/2000/svg">
<path d="M11.2496 13.7489C11.5158 14.0151 11.5401 14.4318 11.3222 14.7254L11.2496 14.8095L9.27872 16.7804C9.01242 17.0467 8.59569 17.0709 8.30208 16.8529L8.21796 16.7803L6.24873 14.8095C5.9559 14.5166 5.95599 14.0417 6.24894 13.7489C6.51525 13.4827 6.93192 13.4585 7.22549 13.6764L7.3096 13.7491L7.99951 14.4402L7.99922 7.74853C7.99922 7.36884 8.28137 7.05504 8.64745 7.00538L8.74922 6.99853C9.12891 6.99853 9.44271 7.28069 9.49237 7.64676L9.49922 7.74854L9.49951 14.4382L10.1889 13.7489C10.4552 13.4826 10.8719 13.4584 11.1655 13.6763L11.2496 13.7489ZM1.99902 11.999C1.99902 17.5219 6.47617 21.999 11.999 21.999C17.5219 21.999 21.999 17.5219 21.999 11.999C21.999 6.47618 17.5219 1.99902 11.999 1.99902C6.47618 1.99902 1.99902 6.47617 1.99902 11.999ZM17.6654 13.6763L17.7495 13.7489C18.0158 14.0151 18.04 14.4318 17.8221 14.7254L17.7495 14.8095L15.7787 16.7803C15.5124 17.0466 15.0957 17.0708 14.8021 16.8529L14.718 16.7802L12.7488 14.8095C12.456 14.5166 12.456 14.0417 12.749 13.7489C13.0153 13.4827 13.432 13.4585 13.7256 13.6764L13.8097 13.7491L14.4995 14.4402L14.4992 7.74847C14.4992 7.36878 14.7814 7.05498 15.1474 7.00532L15.2492 6.99847C15.6289 6.99847 15.9427 7.28063 15.9924 7.6467L15.9992 7.74847L15.9995 14.4382L16.6889 13.7489C16.9551 13.4826 17.3718 13.4584 17.6654 13.6763Z" fill="#2A2A2A"/>
</svg>
