<svg width="24" height="24" viewBox="0 0 24 24" fill="none" xmlns="http://www.w3.org/2000/svg">
<path d="M12.7481 3.00122L20.3019 3.00173L20.4021 3.01565L20.5009 3.04325L20.562 3.06918C20.6411 3.10407 20.715 3.1546 20.7799 3.21953L20.8206 3.26357L20.8812 3.34505L20.9183 3.41008L20.957 3.50039L20.9762 3.56452L20.9898 3.62846L20.9991 3.72165L20.9996 11.2551C20.9996 11.6693 20.6638 12.0051 20.2496 12.0051C19.8699 12.0051 19.5561 11.723 19.5065 11.3569L19.4996 11.2551L19.4991 5.55922L5.55911 19.5042L11.2496 19.5051C11.6293 19.5051 11.9431 19.7873 11.9928 20.1533L11.9996 20.2551C11.9996 20.6348 11.7175 20.9486 11.3514 20.9983L11.2496 21.0051L3.71378 21.0043L3.68479 21.0015C3.61873 20.9969 3.55602 20.983 3.49674 20.9619L3.40661 20.923L3.38942 20.9125C3.18522 20.8021 3.03877 20.5991 3.00535 20.3597L2.99811 20.2551V12.7512C2.99811 12.337 3.33389 12.0012 3.74811 12.0012C4.1278 12.0012 4.4416 12.2834 4.49126 12.6495L4.49811 12.7512V18.4432L18.4381 4.50022L12.7481 4.50122C12.3684 4.50122 12.0546 4.21907 12.005 3.85299L11.9981 3.75122C11.9981 3.37152 12.2803 3.05773 12.6463 3.00807L12.7481 3.00122Z" fill="#2A2A2A"/>
</svg>
