<svg width="24" height="24" viewBox="0 0 24 24" fill="none" xmlns="http://www.w3.org/2000/svg">
<path d="M16.8 4.80005C18.7882 4.80005 20.4 6.41182 20.4 8.40005C20.4 10.3883 18.7882 12 16.8 12H7.19998C5.87449 12 4.79998 13.0746 4.79998 14.4C4.79998 15.7255 5.87449 16.8 7.19998 16.8H19.5514L18.7757 16.0243C18.5414 15.79 18.5414 15.4101 18.7757 15.1758C19.01 14.9415 19.3899 14.9415 19.6242 15.1758L21.4242 16.9758C21.6586 17.2101 21.6586 17.59 21.4242 17.8243L19.6242 19.6243C19.3899 19.8586 19.01 19.8586 18.7757 19.6243C18.5414 19.39 18.5414 19.0101 18.7757 18.7758L19.5514 18H7.19998C5.21175 18 3.59998 16.3883 3.59998 14.4C3.59998 12.4118 5.21175 10.8 7.19998 10.8H16.8C18.1255 10.8 19.2 9.72553 19.2 8.40005C19.2 7.07457 18.1255 6.00005 16.8 6.00005H4.19998C3.86861 6.00005 3.59998 5.73142 3.59998 5.40005C3.59998 5.06868 3.86861 4.80005 4.19998 4.80005H16.8Z" fill="currentColor"/>
</svg>
