<svg width="24" height="24" viewBox="0 0 24 24" fill="none" xmlns="http://www.w3.org/2000/svg">
<path d="M3.6129 2.20967L3.70711 2.29286L21.7071 20.2929C22.0976 20.6834 22.0976 21.3166 21.7071 21.7071C21.3466 22.0676 20.7794 22.0953 20.3871 21.7903L20.2929 21.7071L17.2249 18.6392C16.626 18.8398 15.991 18.9616 15.3321 18.9923L15.0008 19L9.405 18.9993L10.7087 20.3033L10.7864 20.3905C11.0972 20.783 11.0713 21.3549 10.7087 21.7175C10.3482 22.078 9.78097 22.1057 9.38867 21.8007L9.29447 21.7175L6.28926 18.7123L6.21156 18.6251C5.92663 18.2652 5.92465 17.7548 6.20562 17.3929L6.28926 17.2981L9.29447 14.2929L9.38169 14.2152C9.7415 13.9302 10.252 13.9283 10.6139 14.2092L10.7087 14.2929L10.7864 14.3801C11.0713 14.7399 11.0733 15.2504 10.7923 15.6123L10.7087 15.7071L9.415 16.9993L15.0008 17C15.1879 17 15.3726 16.9897 15.5544 16.9697L6.34801 7.76166C4.93774 8.64553 4 10.2136 4 12.0008C4 12.9193 4.24775 13.7801 4.68008 14.5197L4.81525 14.738C4.93132 14.9005 5 15.1008 5 15.3171C5 15.8694 4.55228 16.3171 4 16.3171C3.666 16.3171 3.37024 16.1534 3.18863 15.9018C2.43833 14.7898 2 13.4465 2 12.0008C2 9.66269 3.14641 7.59238 4.90779 6.32128L2.29289 3.70707C1.90237 3.31655 1.90237 2.68339 2.29289 2.29286C2.65338 1.93238 3.22061 1.90465 3.6129 2.20967ZM20 7.68235C20.3191 7.68235 20.6034 7.83184 20.7865 8.06463L20.84 8.13962L20.8569 8.16655C21.5797 9.26744 22 10.585 22 12.0008C22 13.9778 21.1803 15.7634 19.8621 17.0363L18.447 15.6223C19.4037 14.7117 20 13.4258 20 12.0008C20 11.0748 19.7483 10.2077 19.3095 9.46407L19.1724 9.24475C19.064 9.08494 19 8.89112 19 8.68235C19 8.13006 19.4477 7.68235 20 7.68235ZM14.6251 2.21152L14.7123 2.28923L17.7175 5.29443C18.0801 5.65706 18.106 6.22891 17.7952 6.62143L17.7175 6.70865L14.7123 9.71385C14.3218 10.1044 13.6886 10.1044 13.2981 9.71385C12.9355 9.35122 12.9096 8.77938 13.2204 8.38686L13.2981 8.29964L14.595 7.00134H9.826L7.91134 5.08558C8.1887 5.0423 8.47145 5.0153 8.75859 5.0056L8.99921 5.00154L14.597 5.00134L13.2981 3.70344C12.9355 3.34081 12.9096 2.76897 13.2204 2.37645L13.2981 2.28923C13.6607 1.9266 14.2326 1.9007 14.6251 2.21152Z" fill="#2A2A2A"/>
</svg>
