<svg width="24" height="24" viewBox="0 0 24 24" fill="none" xmlns="http://www.w3.org/2000/svg">
<path d="M4.79998 21.6C4.79998 21.9314 4.53135 22.2 4.19998 22.2C3.8686 22.2 3.59998 21.9314 3.59998 21.6V21C3.59998 20.0059 4.40586 19.2 5.39998 19.2H17.4C18.3941 19.2 19.2 20.0059 19.2 21V21.6C19.2 21.9314 18.9313 22.2 18.6 22.2C18.2686 22.2 18 21.9314 18 21.6V21C18 20.6687 17.7313 20.4 17.4 20.4H5.39998C5.0686 20.4 4.79998 20.6687 4.79998 21V21.6ZM11.4 18C11.7313 18 12 17.7314 12 17.4V8.04858L16.3757 12.4243C16.61 12.6586 16.9899 12.6586 17.2242 12.4243C17.4586 12.19 17.4586 11.8101 17.2242 11.5758L11.8242 6.17578C11.5899 5.94147 11.21 5.94147 10.9757 6.17578L5.57571 11.5758C5.3414 11.8101 5.3414 12.19 5.57571 12.4243C5.81003 12.6586 6.18993 12.6586 6.42424 12.4243L10.8 8.04858V17.4C10.8 17.7314 11.0686 18 11.4 18ZM3.59998 3.00005C3.59998 3.99416 4.40586 4.80005 5.39998 4.80005H17.4C18.3941 4.80005 19.2 3.99416 19.2 3.00005V2.40005C19.2 2.06868 18.9313 1.80005 18.6 1.80005C18.2686 1.80005 18 2.06868 18 2.40005V3.00005C18 3.33142 17.7313 3.60005 17.4 3.60005H5.39998C5.0686 3.60005 4.79998 3.33142 4.79998 3.00005V2.40005C4.79998 2.06868 4.53135 1.80005 4.19998 1.80005C3.8686 1.80005 3.59998 2.06868 3.59998 2.40005V3.00005Z" fill="currentColor"/>
</svg>
