<svg width="24" height="24" viewBox="0 0 24 24" fill="none" xmlns="http://www.w3.org/2000/svg">
<path d="M19.25 1.99976C18.8703 1.99976 18.5565 2.28191 18.5069 2.64799L18.5 2.74976V8.43976L13.9257 3.87989C11.4837 1.43795 7.56156 1.37839 5.04741 3.70121L4.86153 3.87989C2.35853 6.38289 2.35853 10.441 4.86153 12.944L13.7067 21.7832C13.9997 22.076 14.4744 22.0756 14.7673 21.7827C15.0602 21.4898 15.0599 21.0148 14.7669 20.7221L5.92219 11.8834C4.00498 9.96617 4.00498 6.85776 5.92219 4.94055C7.7813 3.08144 10.7605 3.02511 12.6882 4.77224L12.8658 4.94132L17.438 9.49976L11.75 9.49994C11.3703 9.49994 11.0565 9.78209 11.0069 10.1482L11 10.2499C11 10.6296 11.2822 10.9434 11.6482 10.9931L11.75 10.9999H19.25C19.6297 10.9999 19.9435 10.7178 19.9932 10.3517L20 10.2499V2.74976C20 2.33554 19.6642 1.99976 19.25 1.99976Z" fill="currentColor"/>
</svg>
