<svg width="24" height="24" viewBox="0 0 24 24" fill="none" xmlns="http://www.w3.org/2000/svg">
<path d="M20.028 4.94651C20.4127 4.79295 20.6001 4.35661 20.4466 3.97191C20.293 3.58721 19.8567 3.39984 19.472 3.5534L3.69559 9.85089C2.65692 10.2655 2.64375 11.731 3.67479 12.1642L18.3037 18.3108L14.4397 20.0672C14.0626 20.2386 13.8958 20.6832 14.0672 21.0603C14.2386 21.4374 14.6833 21.6041 15.0604 21.4327L20.5604 18.9327C20.929 18.7652 21.098 18.3353 20.9423 17.9615L18.4423 11.9615C18.283 11.5791 17.8439 11.3983 17.4615 11.5576C17.0792 11.717 16.8984 12.1561 17.0577 12.5384L18.8871 16.9289L4.8185 11.0177L20.028 4.94651Z" fill="currentColor"/>
</svg>
