<svg width="24" height="24" viewBox="0 0 24 24" fill="none" xmlns="http://www.w3.org/2000/svg">
<path d="M8.82426 16.6243L10.8 14.6486C11.0343 14.4142 11.0343 14.0343 10.8 13.8C10.5657 13.5657 10.1858 13.5657 9.95147 13.8L8.99999 14.7515L8.99999 7.80002C8.99999 7.46865 8.73136 7.20002 8.39999 7.20002C8.06862 7.20002 7.79999 7.46865 7.79999 7.80002L7.79999 14.7515L6.84852 13.8C6.61421 13.5657 6.23431 13.5657 5.99999 13.8C5.76568 14.0343 5.76568 14.4142 5.99999 14.6486L7.97573 16.6243C8.21004 16.8586 8.58994 16.8586 8.82426 16.6243ZM17.9999 9.3515L16.0242 7.37576C15.7899 7.14145 15.41 7.14145 15.1757 7.37576L13.1999 9.3515C12.9656 9.58581 12.9656 9.96571 13.1999 10.2C13.4343 10.4343 13.8142 10.4343 14.0485 10.2L14.9999 9.24855L14.9999 16.2C14.9999 16.5314 15.2686 16.8 15.5999 16.8C15.9313 16.8 16.2 16.5314 16.2 16.2L16.1999 9.24855L17.1514 10.2C17.3857 10.4343 17.7656 10.4343 17.9999 10.2C18.2343 9.96571 18.2343 9.58581 17.9999 9.3515ZM21.6 12C21.6 17.302 17.3019 21.6 12 21.6C6.69806 21.6 2.39999 17.302 2.39999 12C2.39999 6.69809 6.69806 2.40002 12 2.40002C17.3019 2.40002 21.6 6.69809 21.6 12ZM12 20.4C16.6392 20.4 20.4 16.6392 20.4 12C20.4 7.36083 16.6392 3.60002 12 3.60002C7.3608 3.60002 3.59999 7.36083 3.59999 12C3.59999 16.6392 7.3608 20.4 12 20.4Z" fill="#2A2A2A"/>
</svg>
