<svg width="24" height="24" viewBox="0 0 24 24" fill="none" xmlns="http://www.w3.org/2000/svg">
<path d="M5.53746 6.95265C4.44872 8.34441 3.7998 10.0968 3.7998 12.0008C3.7998 13.9662 4.49272 15.7729 5.64647 17.1853C6.06573 17.6986 6.8217 17.7748 7.33497 17.3555C7.84823 16.9362 7.92444 16.1803 7.50517 15.667C6.68866 14.6674 6.1998 13.3928 6.1998 12.0008C6.1998 10.7603 6.58926 9.61075 7.25257 8.66775L15.3329 16.7481C14.6435 17.233 13.8437 17.5716 12.9787 17.7186L13.3479 17.3493C13.8166 16.8807 13.8166 16.1209 13.3479 15.6523C12.8793 15.1836 12.1195 15.1836 11.6509 15.6523L9.15087 18.1523C8.68224 18.6209 8.68224 19.3807 9.15087 19.8493L11.6509 22.3493C12.1195 22.8179 12.8793 22.8179 13.3479 22.3493C13.8166 21.8807 13.8166 21.1209 13.3479 20.6523L12.8527 20.157C14.4257 19.9945 15.8667 19.3872 17.048 18.4632L20.2929 21.7081C20.6834 22.0986 21.3166 22.0986 21.7071 21.7081C22.0976 21.3176 22.0976 20.6844 21.7071 20.2939L3.70711 2.29387C3.31658 1.90334 2.68342 1.90334 2.29289 2.29387C1.90237 2.68439 1.90237 3.31756 2.29289 3.70808L5.53746 6.95265ZM17.6322 13.3908L19.5189 15.2775C19.9569 14.274 20.1998 13.1658 20.1998 12.0008C20.1998 9.81408 19.3422 7.82506 17.9475 6.35591C17.4912 5.87527 16.7317 5.85554 16.251 6.31184C15.7704 6.76814 15.7506 7.52768 16.2069 8.00832C17.1952 9.04932 17.7998 10.4532 17.7998 12.0008C17.7998 12.4799 17.7417 12.9455 17.6322 13.3908ZM8.72309 4.48171L12.4695 8.22814L14.8483 5.84931C15.317 5.38068 15.317 4.62088 14.8483 4.15225L12.3483 1.65225C11.8797 1.18362 11.1199 1.18362 10.6513 1.65225C10.1827 2.12088 10.1827 2.88068 10.6513 3.34931L11.1467 3.84468C10.2931 3.93291 9.47847 4.15206 8.72309 4.48171Z" fill="currentColor"/>
</svg>
