<svg width="24" height="24" viewBox="0 0 24 24" fill="none" xmlns="http://www.w3.org/2000/svg">
<path d="M5.5795 9.4205C5.14016 8.98116 5.14016 8.26884 5.5795 7.8295C6.01884 7.39017 6.73116 7.39017 7.1705 7.8295L10.1705 10.8295C10.6098 11.2688 10.6098 11.9812 10.1705 12.4205L7.1705 15.4205C6.73116 15.8598 6.01884 15.8598 5.5795 15.4205C5.14016 14.9812 5.14016 14.2688 5.5795 13.8295L6.65901 12.75H2.625C2.00368 12.75 1.5 12.2463 1.5 11.625C1.5 11.0037 2.00368 10.5 2.625 10.5H6.65901L5.5795 9.4205ZM18.4205 9.4205C18.8598 8.98116 18.8598 8.26884 18.4205 7.8295C17.9812 7.39017 17.2688 7.39017 16.8295 7.8295L13.8295 10.8295C13.3902 11.2688 13.3902 11.9812 13.8295 12.4205L16.8295 15.4205C17.2688 15.8598 17.9812 15.8598 18.4205 15.4205C18.8598 14.9812 18.8598 14.2688 18.4205 13.8295L17.341 12.75H21.375C21.9963 12.75 22.5 12.2463 22.5 11.625C22.5 11.0037 21.9963 10.5 21.375 10.5H17.341L18.4205 9.4205Z" fill="currentColor"/>
</svg>
