<svg width="24" height="24" viewBox="0 0 24 24" fill="none" xmlns="http://www.w3.org/2000/svg">
<path d="M20.1364 11.1364C20.4879 10.785 20.4879 10.2151 20.1364 9.86365L15.3364 5.06365C14.9849 4.71218 14.4151 4.71218 14.0636 5.06365L9.2636 9.86365C8.91213 10.2151 8.91213 10.785 9.2636 11.1364C9.61507 11.4879 10.1849 11.4879 10.5364 11.1364L13.8 7.87284V15.6C13.8 16.5942 12.9941 17.4 12 17.4H4.5C4.00294 17.4 3.6 17.803 3.6 18.3C3.6 18.7971 4.00294 19.2 4.5 19.2H12C13.9882 19.2 15.6 17.5883 15.6 15.6V7.87284L18.8636 11.1364C19.2151 11.4879 19.7849 11.4879 20.1364 11.1364Z" fill="#2A2A2A"/>
</svg>
