<svg width="24" height="24" viewBox="0 0 24 24" fill="none" xmlns="http://www.w3.org/2000/svg">
<path d="M20.2242 10.6243C20.4586 10.39 20.4586 10.0101 20.2242 9.77578L15.4242 4.97578C15.1899 4.74147 14.81 4.74147 14.5757 4.97578L9.77571 9.77578C9.5414 10.0101 9.5414 10.39 9.77571 10.6243C10.01 10.8586 10.3899 10.8586 10.6242 10.6243L14.4 6.84858V14.4C14.4 15.7255 13.3255 16.8 12 16.8L4.19998 16.8C3.86861 16.8 3.59998 17.0687 3.59998 17.4C3.59998 17.7314 3.86861 18 4.19998 18L12 18C13.9882 18 15.6 16.3883 15.6 14.4V6.84858L19.3757 10.6243C19.61 10.8586 19.9899 10.8586 20.2242 10.6243Z" fill="#2A2A2A"/>
</svg>
