<svg width="24" height="24" viewBox="0 0 24 24" fill="none" xmlns="http://www.w3.org/2000/svg">
<path d="M20.375 17.75C20.7202 17.75 21 18.0298 21 18.375C21 18.7202 20.7202 19 20.375 19H11.125C9.12297 19 7.5 17.377 7.5 15.375V6.29118L4.0728 9.81101C3.83199 10.0583 3.4363 10.0636 3.18899 9.82279C2.94168 9.58199 2.9364 9.1863 3.1772 8.93899L7.80221 4.18899C7.91986 4.06816 8.08135 4 8.25 4C8.41865 4 8.58014 4.06816 8.69779 4.18899L13.3228 8.93899C13.5636 9.1863 13.5583 9.58199 13.311 9.82279C13.0637 10.0636 12.668 10.0583 12.4272 9.81101L8.75 6.03442V15.375C8.75 16.6867 9.81332 17.75 11.125 17.75H20.375Z" fill="#2A2A2A"/>
</svg>
