<svg width="24" height="24" viewBox="0 0 24 24" fill="none" xmlns="http://www.w3.org/2000/svg">
<path d="M12 7.2C10.2316 7.2 8.71838 8.29299 8.09916 9.84031C7.90618 10.3225 7.80002 10.8489 7.80002 11.4C7.80002 13.7196 9.68043 15.6 12 15.6H20.7515L19.3758 14.2243C19.1414 13.99 19.1414 13.6101 19.3758 13.3757C19.6101 13.1414 19.99 13.1414 20.2243 13.3757L22.6243 15.7757C22.8586 16.0101 22.8586 16.3899 22.6243 16.6243L20.2243 19.0243C19.99 19.2586 19.6101 19.2586 19.3758 19.0243C19.1414 18.7899 19.1414 18.4101 19.3758 18.1757L20.7515 16.8H12C9.01769 16.8 6.60002 14.3823 6.60002 11.4C6.60002 10.7782 6.7051 10.181 6.89848 9.62515C7.63263 7.51468 9.63944 6 12 6C14.9824 6 17.4 8.41766 17.4 11.4C17.4 12.5101 17.0651 13.5419 16.4907 14.4H14.9394C15.7173 13.6377 16.2 12.5752 16.2 11.4C16.2 9.0804 14.3196 7.2 12 7.2ZM3.00002 15.6H6.90862C7.28465 16.0553 7.72057 16.4593 8.20433 16.8H3.00002C2.66865 16.8 2.40002 16.5314 2.40002 16.2C2.40002 15.8686 2.66865 15.6 3.00002 15.6Z" fill="#2A2A2A"/>
</svg>
