<svg width="24" height="24" viewBox="0 0 24 24" fill="none" xmlns="http://www.w3.org/2000/svg">
<path d="M19.1948 17.4786C19.1888 17.5245 19.1774 17.57 19.1606 17.6141C19.101 17.771 18.9784 17.8957 18.8226 17.958L12.8226 20.3569C12.5149 20.4799 12.1657 20.3302 12.0427 20.0225C11.9197 19.7148 12.0694 19.3657 12.3771 19.2426L16.9823 17.4014L3.15316 11.8938C2.15949 11.498 2.14092 10.0982 3.12373 9.67627L17.1633 3.64843C17.4678 3.5177 17.8206 3.65856 17.9513 3.96305C18.0821 4.26754 17.9412 4.62036 17.6367 4.7511L3.59716 10.7789L17.3585 16.2596L15.0631 11.6681C14.915 11.3717 15.0351 11.0113 15.3315 10.8631C15.6279 10.7149 15.9883 10.8351 16.1365 11.1315L19.1251 17.1098C19.1861 17.2204 19.212 17.3495 19.1948 17.4786Z" fill="currentColor"/>
</svg>
