<svg width="24" height="24" viewBox="0 0 24 24" fill="none" xmlns="http://www.w3.org/2000/svg">
<path d="M6.00005 2.9999C6.00005 2.66853 5.73142 2.3999 5.40005 2.3999C5.06868 2.3999 4.80005 2.66853 4.80005 2.9999C4.80005 6.85559 7.16114 10.1059 10.5325 11.3999C7.16114 12.694 4.80005 15.9442 4.80005 19.7999C4.80005 20.1313 5.06868 20.3999 5.40005 20.3999C5.73142 20.3999 6.00005 20.1313 6.00005 19.7999C6.00005 15.4513 9.45142 11.9999 13.8 11.9999H14.7515L13.3758 13.3756C13.1415 13.61 13.1415 13.9899 13.3758 14.2242C13.6101 14.4585 13.99 14.4585 14.2243 14.2242L16.6243 11.8242C16.8586 11.5899 16.8586 11.21 16.6243 10.9756L14.2243 8.57564C13.99 8.34132 13.6101 8.34132 13.3758 8.57564C13.1415 8.80995 13.1415 9.18985 13.3758 9.42417L14.7515 10.7999H13.8C9.45142 10.7999 6.00005 7.34853 6.00005 2.9999ZM10.2 4.7999C9.86868 4.7999 9.60005 5.06853 9.60005 5.3999C9.60005 5.73127 9.86868 5.9999 10.2 5.9999H18C18.6287 5.9999 19.2 6.57127 19.2 7.1999V15.5999C19.2 16.2285 18.6287 16.7999 18 16.7999H10.2C9.86868 16.7999 9.60005 17.0685 9.60005 17.3999C9.60005 17.7313 9.86868 17.9999 10.2 17.9999H18C19.2914 17.9999 20.4 16.8913 20.4 15.5999V7.1999C20.4 5.90853 19.2914 4.7999 18 4.7999H10.2Z" fill="#2A2A2A"/>
</svg>
