<svg width="24" height="24" viewBox="0 0 24 24" fill="none" xmlns="http://www.w3.org/2000/svg">
<path d="M12 21.6C17.3019 21.6 21.6 17.302 21.6 12C21.6 6.69809 17.3019 2.40002 12 2.40002C6.69807 2.40002 2.4 6.69809 2.4 12C2.4 17.302 6.69807 21.6 12 21.6ZM10.8 14.6486L8.82426 16.6243C8.58995 16.8586 8.21005 16.8586 7.97574 16.6243L6 14.6486C5.76569 14.4142 5.76569 14.0343 6 13.8C6.23432 13.5657 6.61422 13.5657 6.84853 13.8L7.8 14.7515L7.8 7.80002C7.8 7.46865 8.06863 7.20002 8.4 7.20002C8.73137 7.20002 9 7.46865 9 7.80002L9 14.7515L9.95147 13.8C10.1858 13.5657 10.5657 13.5657 10.8 13.8C11.0343 14.0343 11.0343 14.4142 10.8 14.6486ZM18 9.3515C18.2343 9.58581 18.2343 9.96571 18 10.2C17.7656 10.4343 17.3857 10.4343 17.1514 10.2L16.2 9.24855L16.2 16.2C16.2 16.5314 15.9313 16.8 15.6 16.8C15.2686 16.8 15 16.5314 15 16.2L15 9.24855L14.0485 10.2C13.8142 10.4343 13.4343 10.4343 13.2 10.2C12.9656 9.96571 12.9656 9.58581 13.2 9.3515L15.1757 7.37576C15.41 7.14145 15.7899 7.14145 16.0242 7.37576L18 9.3515Z" fill="#2A2A2A"/>
</svg>
