<svg width="24" height="24" viewBox="0 0 24 24" fill="none" xmlns="http://www.w3.org/2000/svg">
<path d="M3.8636 12.8637C3.51213 13.2151 3.51213 13.785 3.8636 14.1364L8.6636 18.9364C9.01507 19.2879 9.58492 19.2879 9.93639 18.9364L14.7364 14.1364C15.0879 13.785 15.0879 13.2151 14.7364 12.8637C14.3849 12.5122 13.8151 12.5122 13.4636 12.8637L10.2 16.1273V8.40005C10.2 7.40594 11.0059 6.60005 12 6.60005L19.5 6.60005C19.9971 6.60005 20.4 6.1971 20.4 5.70005C20.4 5.20299 19.9971 4.80005 19.5 4.80005L12 4.80005C10.0118 4.80005 8.4 6.41182 8.4 8.40005L8.4 16.1273L5.13639 12.8637C4.78492 12.5122 4.21507 12.5122 3.8636 12.8637Z" fill="currentColor"/>
</svg>
