<svg width="24" height="24" viewBox="0 0 24 24" fill="none" xmlns="http://www.w3.org/2000/svg">
<path d="M6.00001 21.9C6.00001 22.397 5.59707 22.8 5.10001 22.8C4.60296 22.8 4.20001 22.397 4.20001 21.9L4.20001 21.3C4.20001 20.1402 5.14021 19.2 6.30001 19.2L17.1 19.2C18.2598 19.2 19.2 20.1402 19.2 21.3L19.2 21.9C19.2 22.397 18.7971 22.8 18.3 22.8C17.803 22.8 17.4 22.397 17.4 21.9L17.4 21.3C17.4 21.1343 17.2657 21 17.1 21L6.30001 21C6.13433 21 6.00001 21.1343 6.00001 21.3L6.00001 21.9ZM11.7 18C12.1971 18 12.6 17.597 12.6 17.1L12.6 9.07275L16.1636 12.6363C16.5151 12.9878 17.0849 12.9878 17.4364 12.6363C17.7879 12.2849 17.7879 11.715 17.4364 11.3636L12.3364 6.26356C11.9849 5.91208 11.4151 5.91208 11.0636 6.26356L5.96362 11.3636C5.61214 11.715 5.61214 12.2849 5.96362 12.6363C6.31509 12.9878 6.88494 12.9878 7.23641 12.6363L10.8 9.07274L10.8 17.1C10.8 17.597 11.203 18 11.7 18ZM4.20001 2.69995C4.20001 3.85975 5.14021 4.79995 6.30001 4.79995L17.1 4.79995C18.2598 4.79995 19.2 3.85975 19.2 2.69995L19.2 2.09995C19.2 1.6029 18.7971 1.19995 18.3 1.19995C17.803 1.19995 17.4 1.6029 17.4 2.09995L17.4 2.69995C17.4 2.86564 17.2657 2.99995 17.1 2.99995L6.30001 2.99995C6.13433 2.99995 6.00001 2.86564 6.00001 2.69995L6.00001 2.09995C6.00001 1.6029 5.59707 1.19995 5.10001 1.19995C4.60296 1.19995 4.20001 1.6029 4.20001 2.09995L4.20001 2.69995Z" fill="currentColor"/>
</svg>
