<svg width="24" height="24" viewBox="0 0 24 24" fill="none" xmlns="http://www.w3.org/2000/svg">
<path d="M5.12771 6.18837C3.80037 7.75638 3 9.78472 3 12C3 14.7794 4.26123 17.2652 6.23846 18.9143C6.7156 19.3123 7.42501 19.2481 7.82298 18.771C8.22094 18.2939 8.15676 17.5844 7.67962 17.1865C6.19297 15.9465 5.25 14.0839 5.25 12C5.25 10.4062 5.80236 8.94149 6.72608 7.78674L16.2133 17.2739C15.2797 18.0207 14.1436 18.5247 12.9005 18.6905L13.5455 18.0455C13.9848 17.6062 13.9848 16.8938 13.5455 16.4545C13.1062 16.0152 12.3938 16.0152 11.9545 16.4545L9.32951 19.0795C9.11853 19.2905 9 19.5766 9 19.875C9 20.1734 9.11853 20.4595 9.32951 20.6705L11.9545 23.2955C12.3938 23.7348 13.1062 23.7348 13.5455 23.2955C13.9848 22.8562 13.9848 22.1438 13.5455 21.7045L12.8054 20.9644C14.7055 20.7959 16.4358 20.037 17.8116 18.8723L21.2197 22.2803C21.5126 22.5732 21.9874 22.5732 22.2803 22.2803C22.5732 21.9874 22.5732 21.5126 22.2803 21.2197L2.78033 1.71967C2.48744 1.42678 2.01256 1.42678 1.71967 1.71967C1.42678 2.01256 1.42678 2.48744 1.71967 2.78033L5.12771 6.18837ZM10.4545 5.9545C10.1803 6.22868 10.0773 6.60917 10.1453 6.96328L11.0367 7.85471C11.3908 7.92275 11.7713 7.81967 12.0455 7.5455L14.6705 4.9205C15.1098 4.48116 15.1098 3.76884 14.6705 3.3295L12.0455 0.704505C11.6062 0.265165 10.8938 0.265165 10.4545 0.704505C10.0152 1.14384 10.0152 1.85616 10.4545 2.2955L11.1946 3.03555C9.82845 3.15671 8.55007 3.58311 7.42809 4.24608L9.08983 5.90783C9.71281 5.6097 10.3886 5.40431 11.0995 5.30955L10.4545 5.9545ZM18.0922 14.9102L19.7539 16.5719C20.5457 15.232 21 13.6691 21 12C21 9.22063 19.7388 6.7348 17.7615 5.08565C17.2844 4.68769 16.575 4.75187 16.177 5.22901C15.7791 5.70615 15.8432 6.41556 16.3204 6.81353C17.807 8.05349 18.75 9.91611 18.75 12C18.75 13.0421 18.5139 14.029 18.0922 14.9102Z" fill="#2A2A2A"/>
</svg>
