<svg width="24" height="24" viewBox="0 0 24 24" fill="none" xmlns="http://www.w3.org/2000/svg">
<path d="M3.50312 19.9984C3.47127 20.285 3.71345 20.5272 4.00006 20.4954L16.0617 19.1552C16.4367 19.1135 16.597 18.6566 16.3302 18.3898L14.5324 16.592C14.2395 16.2991 14.2395 15.8242 14.5324 15.5313L20.3664 9.69733C20.5422 9.5216 20.5422 9.23667 20.3664 9.06093L14.9373 3.6318C14.7616 3.45607 14.4766 3.45607 14.3009 3.6318L8.46689 9.4658C8.174 9.75869 7.69912 9.75869 7.40623 9.4658L5.60875 7.66831C5.34193 7.4015 4.88497 7.5618 4.8433 7.93682L3.50312 19.9984ZM4.16571 21.9862C2.92373 22.1242 1.87429 21.0748 2.01229 19.8328L3.35247 7.77117C3.53304 6.14609 5.51322 5.45147 6.6694 6.60765L7.93656 7.87481L13.2402 2.57114C14.0018 1.80962 15.2364 1.80962 15.9979 2.57114L21.4271 8.00027C22.1886 8.76179 22.1886 9.99647 21.4271 10.758L16.1234 16.0617L17.3908 17.3291C18.547 18.4853 17.8524 20.4655 16.2273 20.646L4.16571 21.9862Z" fill="#2A2A2A"/>
</svg>
