<svg width="24" height="24" viewBox="0 0 24 24" fill="none" xmlns="http://www.w3.org/2000/svg">
<path d="M3.77571 10.6243C3.5414 10.39 3.5414 10.0101 3.77571 9.77578L8.57571 4.97578C8.81003 4.74147 9.18992 4.74147 9.42424 4.97578L14.2242 9.77578C14.4586 10.0101 14.4586 10.39 14.2242 10.6243C13.9899 10.8586 13.61 10.8586 13.3757 10.6243L9.59998 6.84858V14.4C9.59998 15.7255 10.6745 16.8 12 16.8L19.8 16.8C20.1313 16.8 20.4 17.0687 20.4 17.4C20.4 17.7314 20.1313 18 19.8 18L12 18C10.0117 18 8.39997 16.3883 8.39997 14.4L8.39998 6.84858L4.62424 10.6243C4.38993 10.8586 4.01003 10.8586 3.77571 10.6243Z" fill="currentColor"/>
</svg>
