<svg width="24" height="24" viewBox="0 0 24 24" fill="none" xmlns="http://www.w3.org/2000/svg">
<path d="M19.1889 3.35523C19.0453 3.05507 18.6918 2.91999 18.3847 3.04796L12.3847 5.54796C12.066 5.68072 11.9154 6.04665 12.0481 6.36527C12.1809 6.6839 12.5468 6.83457 12.8654 6.70181L17.607 4.72617L11.5 19.6359L5.20341 4.26299C5.07257 3.94357 4.70757 3.79069 4.38815 3.92152C4.06873 4.05235 3.91584 4.41736 4.04668 4.73678L10.459 20.3921C10.8405 21.3236 12.1596 21.3236 12.5411 20.3921L18.7276 5.28799L20.8112 9.64455C20.9601 9.95594 21.3333 10.0876 21.6447 9.93872C21.9561 9.78979 22.0878 9.41662 21.9389 9.10523L19.1889 3.35523Z" fill="currentColor"/>
</svg>
