<svg width="24" height="24" viewBox="0 0 24 24" fill="none" xmlns="http://www.w3.org/2000/svg">
<path d="M11.5177 6.24044C11.7577 5.92014 12.238 5.92007 12.478 6.24031L17.8759 13.4418C18.1724 13.8374 17.8901 14.4017 17.3958 14.4017H6.60303C6.10876 14.4017 5.82649 13.8375 6.12283 13.4419L11.5177 6.24044ZM13.4382 5.52059C12.7181 4.55987 11.2772 4.56006 10.5573 5.52097L5.16244 12.7225C4.2734 13.9092 5.12021 15.6017 6.60303 15.6017H17.3958C18.8788 15.6017 19.7256 13.9088 18.8361 12.7221L13.4382 5.52059ZM4.79977 18.0002C4.4684 18.0002 4.19977 18.2688 4.19977 18.6002C4.19977 18.9315 4.4684 19.2002 4.79977 19.2002H19.1998C19.5311 19.2002 19.7998 18.9315 19.7998 18.6002C19.7998 18.2688 19.5311 18.0002 19.1998 18.0002H4.79977Z" fill="currentColor"/>
</svg>
