<svg width="24" height="24" viewBox="0 0 24 24" fill="none" xmlns="http://www.w3.org/2000/svg">
<path d="M8.57569 19.6242C8.81 19.8585 9.1899 19.8585 9.42422 19.6242L11.4 17.6485V22.2C11.4 22.5313 11.6686 22.8 12 22.8C12.3313 22.8 12.6 22.5313 12.6 22.2V17.6485L14.5757 19.6242C14.81 19.8585 15.1899 19.8585 15.4242 19.6242C15.6585 19.3899 15.6585 19.01 15.4242 18.7757L12.4242 15.7757C12.1899 15.5414 11.81 15.5414 11.5757 15.7757L8.57569 18.7757C8.34137 19.01 8.34137 19.3899 8.57569 19.6242ZM19.6242 9.42422C19.8585 9.1899 19.8585 8.81 19.6242 8.57569C19.3899 8.34137 19.01 8.34137 18.7757 8.57569L15.7757 11.5757C15.5414 11.81 15.5414 12.1899 15.7757 12.4242L18.7757 15.4242C19.01 15.6585 19.3899 15.6585 19.6242 15.4242C19.8585 15.1899 19.8585 14.81 19.6242 14.5757L17.6485 12.6H22.2C22.5313 12.6 22.8 12.3313 22.8 12C22.8 11.6686 22.5313 11.4 22.2 11.4H17.6485L19.6242 9.42422ZM4.37569 9.42422C4.14137 9.1899 4.14137 8.81 4.37569 8.57569C4.61 8.34137 4.9899 8.34137 5.22422 8.57569L8.22422 11.5757C8.45853 11.81 8.45853 12.1899 8.22422 12.4242L5.22422 15.4242C4.9899 15.6585 4.61 15.6585 4.37569 15.4242C4.14137 15.1899 4.14137 14.81 4.37569 14.5757L6.35142 12.6H1.79995C1.46858 12.6 1.19995 12.3313 1.19995 12C1.19995 11.6686 1.46858 11.4 1.79995 11.4H6.35142L4.37569 9.42422ZM9.42422 4.37569C9.1899 4.14137 8.81 4.14137 8.57569 4.37569C8.34137 4.61 8.34137 4.9899 8.57569 5.22421L11.5757 8.22422C11.81 8.45853 12.1899 8.45853 12.4242 8.22422L15.4242 5.22421C15.6585 4.9899 15.6585 4.61 15.4242 4.37569C15.1899 4.14137 14.81 4.14137 14.5757 4.37569L12.6 6.35142V1.79995C12.6 1.46858 12.3313 1.19995 12 1.19995C11.6686 1.19995 11.4 1.46858 11.4 1.79995V6.35142L9.42422 4.37569Z" fill="currentColor"/>
</svg>
