<svg width="24" height="24" viewBox="0 0 24 24" fill="none" xmlns="http://www.w3.org/2000/svg">
<path d="M20.2242 13.3757C20.4586 13.6101 20.4586 13.9899 20.2242 14.2243L15.4242 19.0243C15.1899 19.2586 14.81 19.2586 14.5757 19.0243L9.77571 14.2243C9.5414 13.9899 9.5414 13.61 9.77571 13.3757C10.01 13.1414 10.3899 13.1414 10.6242 13.3757L14.4 17.1515V9.6C14.4 8.27452 13.3255 7.2 12 7.2L4.19998 7.2C3.86861 7.2 3.59998 6.93137 3.59998 6.6C3.59998 6.26863 3.86861 6 4.19998 6L12 6C13.9882 6 15.6 7.61178 15.6 9.6V17.1515L19.3757 13.3757C19.61 13.1414 19.9899 13.1414 20.2242 13.3757Z" fill="currentColor"/>
</svg>
