<svg width="24" height="24" viewBox="0 0 24 24" fill="none" xmlns="http://www.w3.org/2000/svg">
<path d="M11.7716 3.74358C14.113 1.4 17.912 1.4 20.2552 3.74314C22.4625 5.95049 22.5904 9.44982 20.639 11.8069C20.1751 11.5507 19.6767 11.3494 19.1524 11.212L19.1964 11.1681C20.9519 9.41041 20.9519 6.56116 19.1945 4.8038C17.4921 3.10136 14.7649 3.04816 12.9984 4.6442L12.8305 4.8038L12.818 4.81812L3.28167 14.3544C2.98878 14.6473 2.51391 14.6473 2.22101 14.3544C1.95475 14.0882 1.93054 13.6715 2.14839 13.3779L2.22101 13.2938L11.7699 3.74314L11.7716 3.74358ZM11.2115 19.1509C11.3513 19.685 11.5573 20.1922 11.8203 20.6633L11.4426 21.0409L11.406 21.0712C9.9448 22.3879 7.6908 22.3432 6.28343 20.9358C4.96441 19.6168 4.84229 17.5541 5.91708 16.0974C5.94042 16.0521 5.96867 16.0083 6.00188 15.9672L6.05544 15.9075L6.14234 15.8198L6.28343 15.6719L6.28634 15.6748L13.7221 8.22047C13.988 7.95385 14.4046 7.92909 14.6985 8.14656L14.7827 8.21906C15.0494 8.48497 15.0741 8.90161 14.8567 9.19551L14.7842 9.27972L7.18953 16.8928C6.4719 17.7684 6.52178 19.0627 7.33917 19.8801C8.16824 20.7091 9.48789 20.7486 10.3637 19.9985L11.2115 19.1509ZM23 17.5001C23 20.5377 20.5376 23.0001 17.5 23.0001C14.4624 23.0001 12 20.5377 12 17.5001C12 14.4626 14.4624 12.0001 17.5 12.0001C20.5376 12.0001 23 14.4626 23 17.5001ZM14.5 17.0001C14.2239 17.0001 14 17.224 14 17.5001C14 17.7763 14.2239 18.0001 14.5 18.0001H19.2929L17.6464 19.6466C17.4512 19.8418 17.4512 20.1584 17.6464 20.3537C17.8417 20.5489 18.1583 20.5489 18.3536 20.3537L20.8536 17.8537C21.0488 17.6584 21.0488 17.3418 20.8536 17.1466L18.3536 14.6466C18.1583 14.4513 17.8417 14.4513 17.6464 14.6466C17.4512 14.8418 17.4512 15.1584 17.6464 15.3537L19.2929 17.0001L14.5 17.0001Z" fill="#2A2A2A"/>
</svg>
