<svg width="24" height="24" viewBox="0 0 24 24" fill="none" xmlns="http://www.w3.org/2000/svg">
<path d="M16 2C19.3138 2 22 4.68629 22 8C22 9.5373 21.4179 10.9843 20.3961 12.0835L20.2062 12.2784L11.4791 21.0053L11.426 21.0548L11.3703 21.0997C10.7011 21.6759 9.84606 22 8.94302 22C6.88791 22 5.22192 20.334 5.22192 18.2789C5.22192 17.3775 5.54493 16.5248 6.11748 15.8574L6.26577 15.6945L6.28085 15.6826L13.5719 8.37879C13.962 7.98793 14.5952 7.98737 14.9861 8.37755C15.3769 8.76774 15.3775 9.4009 14.9873 9.79177L7.6963 17.0956L7.68536 17.1039C7.38906 17.4208 7.22192 17.8354 7.22192 18.2789C7.22192 19.2294 7.99248 20 8.94302 20C9.32197 20 9.67991 19.8781 9.97424 19.6571L10.0964 19.5564L10.0971 19.558L18.7995 10.8571L18.9581 10.6927C19.6232 9.96299 20 9.0125 20 8C20 5.79086 18.2092 4 16 4C14.9384 4 13.9454 4.4146 13.2049 5.13858L13.0502 5.29842L13.0317 5.31139L3.70641 14.6403C3.31597 15.0309 2.68281 15.031 2.2922 14.6406C1.90159 14.2501 1.90144 13.617 2.29188 13.2264L11.6008 3.91324L11.6475 3.87021C12.7714 2.68577 14.3318 2 16 2Z" fill="currentColor"/>
</svg>
