<svg width="24" height="24" viewBox="0 0 24 24" fill="none" xmlns="http://www.w3.org/2000/svg">
<path d="M11.7716 3.74358C14.113 1.4 17.912 1.4 20.2552 3.74314C22.5382 6.02621 22.5968 9.69142 20.4308 12.0454L20.2426 12.2427L11.4426 21.0409L11.406 21.0712C9.9448 22.3879 7.6908 22.3432 6.28343 20.9358C4.96441 19.6168 4.84229 17.5541 5.91708 16.0974C5.94042 16.0521 5.96867 16.0083 6.00188 15.9672L6.05544 15.9075L6.14234 15.8198L6.28343 15.6719L6.28634 15.6748L13.7221 8.22047C13.988 7.95385 14.4046 7.92909 14.6985 8.14656L14.7827 8.21906C15.0494 8.48497 15.0741 8.9016 14.8567 9.19551L14.7842 9.27972L7.18953 16.8928C6.4719 17.7684 6.52178 19.0627 7.33917 19.8801C8.16824 20.7091 9.48789 20.7486 10.3637 19.9985L19.1964 11.1681C20.9519 9.41041 20.9519 6.56116 19.1945 4.8038C17.4921 3.10136 14.7649 3.04816 12.9984 4.6442L12.8305 4.8038L12.818 4.81812L3.28167 14.3544C2.98878 14.6473 2.51391 14.6473 2.22101 14.3544C1.95475 14.0882 1.93054 13.6715 2.14839 13.3779L2.22101 13.2938L11.7699 3.74314L11.7716 3.74358Z" fill="currentColor"/>
</svg>
