<svg width="24" height="24" viewBox="0 0 24 24" fill="none" xmlns="http://www.w3.org/2000/svg">
<path d="M13.461 4.93475C13.7538 5.11838 14.0089 5.35523 14.2133 5.63242L14.3298 5.80348L17.2749 10.4992L21.5 10.5001C21.8797 10.5001 22.1935 10.7822 22.2431 11.1483L22.25 11.2501C22.25 11.6643 21.9142 12.0001 21.5 12.0001L18.2159 11.9992L18.2216 12.0081L18.2129 11.9992C19.0111 12.8487 19.5 13.9923 19.5 15.2501C19.5 17.8734 17.3733 20.0001 14.75 20.0001C12.1266 20.0001 9.99998 17.8734 9.99998 15.2501C9.99998 12.6267 12.1266 10.5001 14.75 10.5001L15.5059 10.4992L13.059 6.60041C12.9588 6.44069 12.8238 6.3057 12.6641 6.20554C12.1182 5.86321 11.4098 5.99439 11.0196 6.48892L10.941 6.60041L3.38537 18.6486C3.1653 18.9995 2.70243 19.1056 2.35151 18.8855C2.03249 18.6854 1.91583 18.2847 2.06259 17.9498L2.11458 17.8516L9.6702 5.80348C10.4771 4.51678 12.1743 4.12784 13.461 4.93475ZM14.75 12.0001C12.9551 12.0001 11.5 13.4552 11.5 15.2501C11.5 17.045 12.9551 18.5001 14.75 18.5001C16.5449 18.5001 18 17.045 18 15.2501C18 13.4552 16.5449 12.0001 14.75 12.0001Z" fill="#2A2A2A"/>
</svg>
