<svg width="24" height="24" viewBox="0 0 24 24" fill="none" xmlns="http://www.w3.org/2000/svg">
<path d="M17.0001 6C18.657 6 20.0001 7.34315 20.0001 9V10H21.0004C21.1825 10 21.3533 10.0487 21.5004 10.1338C21.7993 10.3067 22.0004 10.6299 22.0004 11V13C22.0004 13.3701 21.7993 13.6933 21.5004 13.8662C21.3533 13.9513 21.1825 14 21.0004 14H20.0001V15C20.0001 16.6569 18.657 18 17.0001 18H4.99976C3.34291 18 1.99976 16.6569 1.99976 15V9C1.99976 7.34315 3.34291 6 4.99976 6H17.0001ZM16.9982 7.5H4.99976C4.22006 7.5 3.57931 8.09489 3.50662 8.85554L3.49976 9V15C3.49976 15.7797 4.09464 16.4204 4.8553 16.4931L4.99976 16.5H16.9982C17.7779 16.5 18.4187 15.9051 18.4914 15.1445L18.4982 15V9C18.4982 8.2203 17.9033 7.57955 17.1427 7.50687L16.9982 7.5ZM6.00306 8.99875H7.00008C7.51292 8.99875 7.93559 9.3848 7.99335 9.88213L8.00008 9.99875V13.9988C8.00008 14.5116 7.61404 14.9343 7.1167 14.992L7.00008 14.9988H6.00306C5.49022 14.9988 5.06755 14.6127 5.00979 14.1154L5.00306 13.9988V9.99875C5.00306 9.48592 5.38911 9.06324 5.88644 9.00548L6.00306 8.99875H7.00008H6.00306Z" fill="currentColor"/>
</svg>
