<svg width="24" height="24" viewBox="0 0 24 24" fill="none" xmlns="http://www.w3.org/2000/svg">
<path d="M17.0001 6C18.657 6 20.0001 7.34315 20.0001 9V10H21.0004C21.1825 10 21.3533 10.0487 21.5004 10.1338C21.7993 10.3067 22.0004 10.6299 22.0004 11V13C22.0004 13.3701 21.7993 13.6933 21.5004 13.8662C21.3533 13.9513 21.1825 14 21.0004 14H20.0001V15C20.0001 16.6569 18.657 18 17.0001 18H4.99976C3.34291 18 1.99976 16.6569 1.99976 15V9C1.99976 7.34315 3.34291 6 4.99976 6H17.0001ZM9.00008 9H6.01674C5.46446 9 5.01674 9.44772 5.01674 10V14C5.01674 14.5523 5.46446 15 6.01674 15H9.00008C9.55237 15 10.0001 14.5523 10.0001 14V10C10.0001 9.44772 9.55236 9 9.00008 9Z" fill="currentColor"/>
</svg>
