<svg width="24" height="24" viewBox="0 0 24 24" fill="none" xmlns="http://www.w3.org/2000/svg">
<path d="M8 4.5H8.99998V10.7382C8.99998 11.1132 8.90628 11.4822 8.72739 11.8117L5.14269 18.415C4.50968 19.5811 5.35388 20.9999 6.68068 20.9999H12.0218C11.7252 20.5367 11.4858 20.0334 11.3135 19.4999H6.68068C6.49114 19.4999 6.37054 19.2973 6.46097 19.1307L8.43192 15.5H11.3135C11.4858 14.9665 11.7253 14.4632 12.0218 14H9.24621L10.0457 12.5273C10.3438 11.9781 10.5 11.3631 10.5 10.7382V4.5H13.5V10.7382C13.5 11.2297 13.5966 11.715 13.7829 12.1671C14.1949 11.8794 14.6417 11.6382 15.1159 11.4511C15.0394 11.2221 15 10.9814 15 10.7382V4.5H16C16.4142 4.5 16.75 4.16421 16.75 3.75C16.75 3.33579 16.4142 3 16 3H8C7.58579 3 7.25 3.33579 7.25 3.75C7.25 4.16421 7.58579 4.5 8 4.5ZM23 17.5C23 14.4624 20.5376 12 17.5 12C14.4624 12 12 14.4624 12 17.5C12 20.5376 14.4624 23 17.5 23C20.5376 23 23 20.5376 23 17.5ZM15.0238 15.0241L15.093 14.9663L15.1693 14.9229C15.3274 14.8506 15.5155 14.865 15.6617 14.9663L15.7309 15.0241L17.5004 16.7937L19.2722 15.0242L19.3414 14.9663C19.5119 14.8482 19.7395 14.8482 19.91 14.9663L19.9793 15.0242L20.0371 15.0934C20.1552 15.2639 20.1552 15.4915 20.0371 15.662L19.9793 15.7313L18.2074 17.5007L19.9765 19.2697L20.0344 19.339C20.1525 19.5095 20.1525 19.7371 20.0344 19.9076L19.9765 19.9768L19.9073 20.0347C19.7367 20.1528 19.5092 20.1528 19.3386 20.0347L19.2694 19.9768L17.5004 18.2077L15.7335 19.9746L15.6642 20.0325C15.4937 20.1506 15.2661 20.1506 15.0956 20.0325L15.0264 19.9746L14.9685 19.9053C14.8504 19.7348 14.8504 19.5072 14.9685 19.3367L15.0264 19.2675L16.7934 17.5007L15.0238 15.7312L14.9659 15.662C14.8478 15.4915 14.8478 15.2639 14.9659 15.0934L15.0238 15.0241Z" fill="#2A2A2A"/>
</svg>
