<svg width="24" height="24" viewBox="0 0 24 24" fill="none" xmlns="http://www.w3.org/2000/svg">
<path d="M8 4.5H8.99998V10.7382C8.99998 11.1132 8.90628 11.4822 8.72739 11.8117L5.14269 18.415C4.50968 19.5811 5.35388 20.9999 6.68068 20.9999H12.0218C11.7252 20.5367 11.4858 20.0334 11.3135 19.4999H6.68068C6.49114 19.4999 6.37054 19.2973 6.46097 19.1307L8.43192 15.5H11.3135C11.4858 14.9665 11.7253 14.4632 12.0218 14H9.24621L10.0457 12.5273C10.3438 11.9781 10.5 11.3631 10.5 10.7382V4.5H13.5V10.7382C13.5 11.2297 13.5966 11.715 13.7829 12.1671C14.1949 11.8794 14.6417 11.6382 15.1159 11.4511C15.0394 11.2221 15 10.9814 15 10.7382V4.5H16C16.4142 4.5 16.75 4.16421 16.75 3.75C16.75 3.33579 16.4142 3 16 3H8C7.58579 3 7.25 3.33579 7.25 3.75C7.25 4.16421 7.58579 4.5 8 4.5ZM17.5 12C20.5376 12 23 14.4624 23 17.5C23 20.5376 20.5376 23 17.5 23C14.4624 23 12 20.5376 12 17.5C12 14.4624 14.4624 12 17.5 12ZM18.0011 20.5035L18.0006 18H20.503C20.7792 18 21.003 17.7762 21.003 17.5C21.003 17.2239 20.7792 17 20.503 17H18.0005L18 14.4993C18 14.2231 17.7761 13.9993 17.5 13.9993C17.2239 13.9993 17 14.2231 17 14.4993L17.0005 17H14.4961C14.22 17 13.9961 17.2239 13.9961 17.5C13.9961 17.7762 14.22 18 14.4961 18H17.0006L17.0011 20.5035C17.0011 20.7797 17.225 21.0035 17.5011 21.0035C17.7773 21.0035 18.0011 20.7797 18.0011 20.5035Z" fill="currentColor"/>
</svg>
