<svg width="24" height="24" viewBox="0 0 24 24" fill="none" xmlns="http://www.w3.org/2000/svg">
<path d="M11.499 9.49929L11.5 21.0013L6.25006 21.0019C4.51701 21.0019 3.10076 19.6456 3.00514 17.9365L3 17.7521V9.49929H11.499ZM12.999 15.4993H21.5L21.5008 17.752C21.5006 19.5469 20.0456 21.0019 18.2507 21.0019L13 21.0013L12.999 15.4993ZM18.2514 2.49829C19.9844 2.49829 21.4007 3.85464 21.4963 5.56379L21.5014 5.74822L21.5 13.9993H12.999L13 2.49829H18.2514ZM11.5 2.49829L11.499 7.99929H3L3.0006 5.74823C3.00081 3.9534 4.45582 2.49829 6.25065 2.49829H11.5Z" fill="#2A2A2A"/>
</svg>
