<svg width="24" height="24" viewBox="0 0 24 24" fill="none" xmlns="http://www.w3.org/2000/svg">
<path d="M6.19045 21.854C5.69432 22.211 5.00244 21.8564 5.00244 21.2452V6.24927C5.00244 4.45434 6.45752 2.99927 8.25244 2.99927H15.7508C17.5458 2.99927 19.0008 4.45434 19.0008 6.24927V21.2452C19.0008 21.8564 18.309 22.211 17.8128 21.854L12.0016 17.6731L6.19045 21.854ZM17.5008 6.24927C17.5008 5.28277 16.7173 4.49927 15.7508 4.49927H8.25244C7.28594 4.49927 6.50244 5.28277 6.50244 6.24927V19.7817L11.5636 16.1403C11.8253 15.9521 12.178 15.9521 12.4397 16.1403L17.5008 19.7817V6.24927Z" fill="#2A2A2A"/>
</svg>
