<svg width="24" height="24" viewBox="0 0 24 24" fill="none" xmlns="http://www.w3.org/2000/svg">
<path d="M17.7532 13.9999C18.9958 13.9999 20.0032 15.0073 20.0032 16.2499V17.155C20.0032 18.2487 19.5257 19.2879 18.6959 20.0003C17.1305 21.3442 14.8901 22.0011 12.0001 22.0011C9.11062 22.0011 6.87181 21.3445 5.30894 20.0008C4.48032 19.2884 4.00366 18.25 4.00366 17.1572V16.2499C4.00366 15.0073 5.01102 13.9999 6.25366 13.9999H17.7532ZM11.8987 2.00733L12.0005 2.00049C12.3801 2.00049 12.6939 2.28264 12.7436 2.64872L12.7505 2.75049L12.7497 3.49949L16.2501 3.49999C17.4928 3.49999 18.5001 4.50735 18.5001 5.74999V10.2546C18.5001 11.4972 17.4928 12.5046 16.2501 12.5046H7.75012C6.50748 12.5046 5.50012 11.4972 5.50012 10.2546V5.74999C5.50012 4.50735 6.50748 3.49999 7.75012 3.49999L11.2497 3.49949L11.2505 2.75049C11.2505 2.37079 11.5326 2.057 11.8987 2.00733L12.0005 2.00049L11.8987 2.00733ZM9.74941 6.49999C9.05945 6.49999 8.50012 7.05932 8.50012 7.74928C8.50012 8.43925 9.05945 8.99857 9.74941 8.99857C10.4394 8.99857 10.9987 8.43925 10.9987 7.74928C10.9987 7.05932 10.4394 6.49999 9.74941 6.49999ZM14.2421 6.49999C13.5522 6.49999 12.9929 7.05932 12.9929 7.74928C12.9929 8.43925 13.5522 8.99857 14.2421 8.99857C14.9321 8.99857 15.4914 8.43925 15.4914 7.74928C15.4914 7.05932 14.9321 6.49999 14.2421 6.49999Z" fill="currentColor"/>
</svg>
