<svg width="24" height="24" viewBox="0 0 24 24" fill="none" xmlns="http://www.w3.org/2000/svg">
<path d="M18.3641 10.2834C18.4102 10.3159 18.4542 10.3508 18.4961 10.3879C18.4987 10.3438 18.5 10.2994 18.5 10.2546V5.74999C18.5 4.50735 17.4926 3.49999 16.25 3.49999L12.7495 3.49949L12.7503 2.75049L12.7435 2.64872C12.6938 2.28264 12.38 2.00049 12.0003 2.00049L11.8986 2.00733C11.5325 2.057 11.2503 2.37079 11.2503 2.75049L11.2495 3.49949L7.75 3.49999C6.50736 3.49999 5.5 4.50735 5.5 5.74999V10.2546C5.5 11.4972 6.50736 12.5046 7.75 12.5046H15.5342C15.5407 12.4873 15.547 12.4699 15.553 12.4524L15.5619 12.426L16.0121 11.0417L16.0163 11.03C16.1227 10.7286 16.3199 10.4678 16.5807 10.2834C16.8416 10.099 17.1531 10 17.4724 10C17.7918 10 18.1033 10.099 18.3641 10.2834ZM9.74929 6.49999C10.4393 6.49999 10.9986 7.05932 10.9986 7.74928C10.9986 8.43925 10.4393 8.99857 9.74929 8.99857C9.05932 8.99857 8.5 8.43925 8.5 7.74928C8.5 7.05932 9.05932 6.49999 9.74929 6.49999ZM14.242 6.49999C14.932 6.49999 15.4913 7.05932 15.4913 7.74928C15.4913 8.43925 14.932 8.99857 14.242 8.99857C13.5521 8.99857 12.9927 8.43925 12.9927 7.74928C12.9927 7.05932 13.5521 6.49999 14.242 6.49999ZM13.0425 14.0365L13.155 13.9999H6.25354C5.0109 13.9999 4.00354 15.0073 4.00354 16.2499V17.1572C4.00354 18.25 4.48019 19.2884 5.30882 20.0008C6.87168 21.3445 9.1105 22.0011 12 22.0011C14.076 22.0011 15.8167 21.6621 17.2129 20.9731C16.9964 20.9321 16.79 20.8451 16.6083 20.7166C16.3475 20.5322 16.1502 20.2714 16.0438 19.97L16.0397 19.9583L15.5892 18.5733L15.5887 18.5717C15.5232 18.3736 15.4246 18.1886 15.2975 18.0243C15.2506 17.9638 15.2 17.9062 15.1457 17.8517L14.7869 17.59L14.4281 17.4066L13.0425 16.9567L13.0307 16.9525C12.7295 16.8463 12.4685 16.6493 12.2839 16.3886C12.0992 16.1278 12 15.8162 12 15.4966C12 15.1769 12.0992 14.8653 12.2839 14.6045C12.4685 14.3438 12.7295 14.1468 13.0307 14.0406L13.0425 14.0365ZM15.8539 17.1457C15.9377 17.2298 16.016 17.3189 16.0883 17.4123C16.2851 17.6666 16.4378 17.9533 16.539 18.2604L16.9868 19.6371C17.0242 19.7432 17.0937 19.8351 17.1856 19.9001C17.2776 19.9651 17.3874 20 17.5 20C17.6126 20 17.7224 19.9651 17.8144 19.9001C17.8964 19.8421 17.9605 19.7627 18 19.6709C18.0048 19.6598 18.0092 19.6486 18.0132 19.6371L18.461 18.2604C18.6003 17.8418 18.8353 17.4615 19.1474 17.1496C19.4595 16.8377 19.8402 16.6029 20.259 16.4637L21.6368 16.0163C21.743 15.9788 21.835 15.9094 21.9 15.8176C21.9651 15.7257 22 15.616 22 15.5034C22 15.3909 21.9651 15.2812 21.9 15.1893C21.835 15.0975 21.743 15.028 21.6368 14.9906L21.6093 14.9837L20.2315 14.5363C19.8126 14.3971 19.432 14.1623 19.1198 13.8504C18.8077 13.5385 18.5727 13.1582 18.4335 12.7396L17.9857 11.3629C17.9482 11.2568 17.8787 11.1649 17.7868 11.0999C17.6949 11.0349 17.5851 11 17.4724 11C17.3598 11 17.25 11.0349 17.1581 11.0999C17.0662 11.1649 16.9967 11.2568 16.9592 11.3629L16.5114 12.7396L16.5 12.7737C16.3623 13.1759 16.1357 13.5422 15.837 13.8454C15.5299 14.1571 15.1547 14.3935 14.741 14.5363L13.3632 14.9837C13.257 15.0212 13.165 15.0906 13.1 15.1824C13.0349 15.2743 13 15.384 13 15.4966C13 15.6091 13.0349 15.7188 13.1 15.8107C13.165 15.9025 13.257 15.972 13.3632 16.0094L14.741 16.4568C15.1606 16.5967 15.5417 16.8326 15.8539 17.1457ZM23.0175 20.9646L23.7829 21.2132L23.7982 21.217C23.8572 21.2378 23.9083 21.2764 23.9445 21.3274C23.9806 21.3784 24 21.4394 24 21.5019C24 21.5644 23.9806 21.6254 23.9445 21.6764C23.9083 21.7275 23.8572 21.766 23.7982 21.7868L23.0328 22.0354C22.8001 22.1127 22.5886 22.2432 22.4152 22.4164C22.2418 22.5897 22.1113 22.801 22.0339 23.0335L21.7851 23.7984C21.7643 23.8573 21.7257 23.9084 21.6746 23.9445C21.6236 23.9806 21.5626 24 21.5 24C21.4374 24 21.3764 23.9806 21.3254 23.9445C21.2743 23.9084 21.2357 23.8573 21.2149 23.7984L20.9661 23.0335C20.8893 22.8003 20.7589 22.5882 20.5855 22.4143C20.412 22.2403 20.2003 22.1093 19.9672 22.0316L19.2018 21.783C19.1428 21.7622 19.0917 21.7236 19.0555 21.6726C19.0194 21.6216 19 21.5606 19 21.4981C19 21.4356 19.0194 21.3746 19.0555 21.3236C19.0917 21.2725 19.1428 21.234 19.2018 21.2132L19.9672 20.9646C20.1971 20.8853 20.4055 20.7539 20.5761 20.5808C20.7467 20.4076 20.875 20.1974 20.9508 19.9665L21.1996 19.2016C21.2204 19.1427 21.259 19.0916 21.31 19.0555C21.3611 19.0194 21.4221 19 21.4847 19C21.5473 19 21.6083 19.0194 21.6593 19.0555C21.7104 19.0916 21.749 19.1427 21.7698 19.2016L22.0186 19.9665C22.0959 20.199 22.2265 20.4103 22.3999 20.5836C22.5733 20.7568 22.7848 20.8873 23.0175 20.9646Z" fill="#2A2A2A"/>
</svg>
