<svg width="24" height="24" viewBox="0 0 24 24" fill="none" xmlns="http://www.w3.org/2000/svg">
<path d="M2 5.76541C2 3.84586 4.07371 2.64244 5.74035 3.59481L9.24035 5.59481C9.41887 5.69682 9.58173 5.81896 9.72672 5.95745C10.0726 5.6716 10.5162 5.49985 11 5.49985H13C13.4838 5.49985 13.9274 5.6716 14.2733 5.95745C14.4183 5.81896 14.5811 5.69682 14.7597 5.59481L18.2597 3.59481C19.9263 2.64244 22 3.84586 22 5.76541V11.716C22 13.6321 19.9331 14.8359 18.2665 13.8905L14.7665 11.9051C14.4626 11.7327 14.2038 11.5021 14.0009 11.2318C13.7065 11.4023 13.3646 11.4998 13 11.4998H11C10.6354 11.4998 10.2935 11.4023 9.99914 11.2318C9.7962 11.5021 9.5374 11.7327 9.23352 11.9051L5.73352 13.8905C4.06693 14.8359 2 13.6321 2 11.716V5.76541ZM8 7.99988C7.58579 7.99988 7.25 8.33566 7.25 8.74988C7.25 9.16409 7.58579 9.49988 8 9.49988H9.75V7.99988H8ZM16.75 8.74988C16.75 8.33566 16.4142 7.99988 16 7.99988H14.25V9.49988H16C16.4142 9.49988 16.75 9.16409 16.75 8.74988ZM9.72668 12.7749C9.91588 12.6676 10.0926 12.5442 10.2555 12.4069C10.5302 12.477 10.7497 12.7078 10.7497 12.9913V19.2499C10.7497 20.2164 9.96625 20.9999 8.99975 20.9999H6.58902C5.41924 20.9999 4.5788 19.8743 4.91112 18.7527L6.06901 14.8449C6.12182 14.8182 6.17439 14.79 6.22668 14.7604L9.72668 12.7749ZM13.7442 12.4069C13.4695 12.477 13.25 12.7078 13.25 12.9913V19.2499C13.25 20.2164 14.0335 20.9999 15 20.9999H17.4107C18.5805 20.9999 19.4209 19.8743 19.0886 18.7527L17.9307 14.8449C17.8779 14.8182 17.8254 14.79 17.7731 14.7604L14.2731 12.7749C14.0839 12.6676 13.9071 12.5442 13.7442 12.4069Z" fill="#2A2A2A"/>
</svg>
