<svg width="24" height="24" viewBox="0 0 24 24" fill="none" xmlns="http://www.w3.org/2000/svg">
<path d="M5.73352 13.8908L6.18223 13.6362L4.84634 18.8128C4.56049 19.9205 5.39685 21.0001 6.54083 21.0001H9C9.9665 21.0001 10.75 20.2166 10.75 19.2501V11.5001L10.7498 11.4846C10.8318 11.4948 10.9153 11.5001 11 11.5001H13C13.0847 11.5001 13.1682 11.4948 13.2502 11.4846C13.2501 11.4898 13.25 11.4949 13.25 11.5001V19.2501C13.25 20.2166 14.0335 21.0001 15 21.0001H17.4592C18.6031 21.0001 19.4395 19.9205 19.1537 18.8128L17.8178 13.6362L18.2665 13.8908C19.9331 14.8362 22 13.6324 22 11.7163V5.76566C22 3.8461 19.9263 2.64268 18.2597 3.59505L14.7597 5.59505C14.5811 5.69706 14.4183 5.81921 14.2733 5.9577C13.9274 5.67184 13.4838 5.50009 13 5.50009H11C10.5162 5.50009 10.0726 5.67184 9.72672 5.9577C9.58173 5.81921 9.41887 5.69706 9.24035 5.59505L5.74035 3.59505C4.07371 2.64268 2 3.8461 2 5.76566V11.7163C2 13.6324 4.06693 14.8362 5.73352 13.8908ZM3.5 5.76566C3.5 4.99783 4.32948 4.51647 4.99614 4.89741L8.49614 6.89741C8.80771 7.07546 9 7.4068 9 7.76566V8.00009H6.75C6.33579 8.00009 6 8.33588 6 8.75009C6 9.16431 6.33579 9.50009 6.75 9.50009H9V9.73085C9 10.0908 8.80652 10.423 8.49341 10.6006L4.99341 12.5861C4.32677 12.9642 3.5 12.4827 3.5 11.7163V5.76566ZM9.23352 11.9053L9.25 11.8959V19.2501C9.25 19.3882 9.13807 19.5001 9 19.5001H6.54083C6.3774 19.5001 6.25792 19.3459 6.29876 19.1876L7.97621 12.6875C7.98291 12.6615 7.98816 12.6355 7.99202 12.6096L9.23352 11.9053ZM16.008 12.6096C16.0118 12.6355 16.0171 12.6615 16.0238 12.6875L17.7012 19.1876C17.7421 19.3459 17.6226 19.5001 17.4592 19.5001H15C14.8619 19.5001 14.75 19.3882 14.75 19.2501V11.8959C14.7555 11.8991 14.761 11.9022 14.7665 11.9053L16.008 12.6096ZM10.5 9.50009V7.50009C10.5 7.22395 10.7239 7.00009 11 7.00009H13C13.2761 7.00009 13.5 7.22395 13.5 7.50009V9.50009C13.5 9.77623 13.2761 10.0001 13 10.0001H11C10.7239 10.0001 10.5 9.77623 10.5 9.50009ZM15 9.50009H17.2536C17.6678 9.50009 18.0036 9.16431 18.0036 8.75009C18.0036 8.33588 17.6678 8.00009 17.2536 8.00009H15V7.76566C15 7.4068 15.1923 7.07546 15.5039 6.89741L19.0039 4.89741C19.6705 4.51647 20.5 4.99783 20.5 5.76566V11.7163C20.5 12.4827 19.6732 12.9642 19.0066 12.5861L15.5066 10.6006C15.1935 10.423 15 10.0908 15 9.73085V9.50009Z" fill="currentColor"/>
</svg>
