<svg width="24" height="24" viewBox="0 0 24 24" fill="none" xmlns="http://www.w3.org/2000/svg">
<path d="M16.2999 2.33115C15.461 2.02113 14.539 2.02113 13.7001 2.33115L9.39337 3.92273C8.70625 4.17666 8.25 4.83169 8.25 5.56423V8.35743C9.05071 8.2294 9.87632 8.30772 10.6466 8.59237L14.9533 10.184C15.4674 10.374 15.8993 10.7069 16.2107 11.1279C16.6275 11.044 17.0586 11 17.5 11C19.1249 11 20.6105 11.5962 21.75 12.5818V5.56422C21.75 4.83169 21.2937 4.17666 20.6066 3.92273L16.2999 2.33115ZM11.7692 7.20905C11.3777 7.07373 11.1701 6.64667 11.3054 6.25518C11.4407 5.8637 11.8678 5.65604 12.2593 5.79136L14.9178 6.71031C14.9708 6.72863 15.0284 6.7286 15.0813 6.71025L17.7318 5.79185C18.1232 5.65624 18.5504 5.86357 18.686 6.25496C18.8216 6.64634 18.6143 7.07356 18.2229 7.20918L15.5725 8.12758C15.2017 8.25604 14.7986 8.25619 14.4278 8.12801L11.7692 7.20905ZM14.6066 11.122C14.8077 11.1963 14.989 11.3049 15.1449 11.4398C14.0902 11.85 13.169 12.5275 12.4647 13.3893C12.269 13.2223 11.9924 13.1605 11.7318 13.2508L8.99959 14.1976L6.25925 13.2503C5.86776 13.115 5.4407 13.3227 5.30538 13.7142C5.17006 14.1057 5.37772 14.5327 5.76921 14.668L8.24989 15.5255V18.2243C8.24989 18.6386 8.58567 18.9743 8.99989 18.9743C9.4141 18.9743 9.74989 18.6386 9.74989 18.2243V15.5251L11.5385 14.9053C11.1921 15.7001 11 16.5776 11 17.5C11 18.799 11.3811 20.0091 12.0375 21.0244L10.2999 21.6665C9.46103 21.9766 8.53897 21.9766 7.70008 21.6665L3.39337 20.075C2.70625 19.821 2.25 19.166 2.25 18.4335V12.7634C2.25 12.0309 2.70625 11.3759 3.39337 11.122L7.70008 9.53037C8.53897 9.22035 9.46103 9.22035 10.2999 9.53037L14.6066 11.122ZM23 17.5C23 20.5376 20.5376 23 17.5 23C14.4624 23 12 20.5376 12 17.5C12 14.4624 14.4624 12 17.5 12C20.5376 12 23 14.4624 23 17.5ZM20.8536 15.1464C20.6583 14.9512 20.3417 14.9512 20.1464 15.1464L16.5 18.7929L14.8536 17.1464C14.6583 16.9512 14.3417 16.9512 14.1464 17.1464C13.9512 17.3417 13.9512 17.6583 14.1464 17.8536L16.1464 19.8536C16.3417 20.0488 16.6583 20.0488 16.8536 19.8536L20.8536 15.8536C21.0488 15.6583 21.0488 15.3417 20.8536 15.1464Z" fill="currentColor"/>
</svg>
