<svg width="24" height="24" viewBox="0 0 24 24" fill="none" xmlns="http://www.w3.org/2000/svg">
<path d="M13.4089 2.51203C12.5053 2.14573 11.4947 2.14573 10.5911 2.51203L8.40058 3.40008L17.9928 7.13038L21.3671 5.82666C21.2312 5.71392 21.0769 5.62067 20.9075 5.552L13.4089 2.51203ZM22 7.19021L12.7498 10.7642V13.0631C13.9361 11.7936 15.6254 11 17.5 11C19.2465 11 20.8321 11.6888 22 12.8096V7.19021ZM11.2498 15.7093V10.7642L2 7.19037V16.8265C2 17.5391 2.43211 18.1806 3.09252 18.4483L10.5911 21.4883C10.8056 21.5752 11.0261 21.6415 11.2498 21.6872V19.2907C11.0871 18.7219 11 18.1211 11 17.5C11 16.8789 11.0871 16.2781 11.2498 15.7093ZM2.63273 5.82677L11.9998 9.44586L15.9168 7.93248L6.37434 4.22153L3.09252 5.552C2.92308 5.62069 2.76867 5.71398 2.63273 5.82677ZM17.5 12C14.4624 12 12 14.4624 12 17.5C12 20.5376 14.4624 23 17.5 23C20.5376 23 23 20.5376 23 17.5C23 14.4624 20.5376 12 17.5 12ZM14.0018 17.4576L14.0166 17.3719L14.0378 17.309L14.0719 17.2415L14.104 17.194L16.6464 14.6464L16.7157 14.5886C16.9106 14.4536 17.18 14.4729 17.3536 14.6464C17.5271 14.82 17.5464 15.0894 17.4114 15.2843L17.3536 15.3536L15.706 17.001L21 17L21.0899 17.0081C21.294 17.0451 21.4549 17.206 21.4919 17.4101L21.5 17.5L21.4919 17.5899C21.4549 17.794 21.294 17.9549 21.0899 17.9919L21 18L15.708 18.001L17.3536 19.6464L17.4114 19.7157C17.5295 19.8862 17.5295 20.1138 17.4114 20.2843L17.3536 20.3536L17.2843 20.4114C17.1138 20.5295 16.8862 20.5295 16.7157 20.4114L16.6464 20.3536L14.1344 17.8411L14.0888 17.7847L14.0467 17.7114L14.0166 17.6281L14.005 17.568L14 17.512L14.0018 17.4576Z" fill="currentColor"/>
</svg>
