<svg width="24" height="24" viewBox="0 0 24 24" fill="none" xmlns="http://www.w3.org/2000/svg">
<path d="M14.25 2.00146C14.6297 2.00146 14.9435 2.28362 14.9932 2.64969L15 2.75146V3.50358C15 4.13634 14.8041 4.72335 14.4696 5.20726C15.8646 5.68545 16.8883 6.96558 16.9914 8.498L17.2469 8.49808C18.4895 8.49295 19.4927 7.48143 19.4876 6.2388L19.4814 4.7532C19.4797 4.33899 19.8141 4.00182 20.2283 4.0001C20.6425 3.9984 20.9797 4.33279 20.9814 4.747L20.9876 6.2326C20.9958 8.23684 19.4302 9.88034 17.4522 9.99205L17.2376 9.9981L17 9.99746V11.4995L21.2528 11.5001C21.6325 11.5001 21.9463 11.7823 21.996 12.1483L22.0028 12.2501C22.0028 12.6298 21.7207 12.9436 21.3546 12.9933L21.2528 13.0001H17.0004L17 14.9995L17.2376 15.0001L17.4522 15.0062C19.3643 15.1141 20.891 16.6535 20.9832 18.5664L20.9876 18.7656L20.9814 20.2512C20.9797 20.6654 20.6425 20.9998 20.2283 20.9981C19.8486 20.9965 19.536 20.7131 19.4878 20.3468L19.4814 20.245L19.4876 18.7594C19.4925 17.5685 18.5714 16.5899 17.4009 16.5059L17.2469 16.5001L16.7713 16.5C16.1343 18.5289 14.239 20.0006 12 20.0006C9.76098 20.0006 7.86569 18.5289 7.22873 16.5L6.74073 16.5001C5.4981 16.5053 4.49492 17.5168 4.50005 18.7594L4.50619 20.245C4.50791 20.6592 4.17351 20.9964 3.7593 20.9981C3.34509 20.9998 3.00792 20.6654 3.00621 20.2512L3 18.7656C2.99178 16.7614 4.55736 15.1179 6.5354 15.0062L6.75003 15.0001L7 14.9995V12.9995L2.75 13.0001C2.3703 13.0001 2.05651 12.7179 2.00685 12.3519L2 12.2501C2 11.8704 2.28215 11.5566 2.64823 11.5069L2.75 11.5001L7 11.4995V9.99746L6.75 9.9981L6.53536 9.99204C4.62326 9.88406 3.09658 8.3447 3.00438 6.43177L3 6.23259L3.00617 4.747C3.00789 4.33279 3.34506 3.99839 3.75927 4.0001C4.13896 4.00167 4.45159 4.28512 4.49973 4.6514L4.50616 4.7532L4.50002 6.23879C4.4951 7.42965 5.41622 8.40824 6.58667 8.49225L6.7407 8.49808L7.00857 8.498C7.11171 6.96558 8.13544 5.68545 9.53135 5.20604C9.23317 4.77698 9.04526 4.2655 9.00718 3.71272L9 3.50358V2.75146C9 2.33725 9.33579 2.00146 9.75 2.00146C10.1297 2.00146 10.4435 2.28362 10.4932 2.64969L10.5 2.75146V3.50358C10.5 4.332 11.1716 5.00358 12 5.00358C12.7797 5.00358 13.4204 4.40869 13.4931 3.64804L13.5 3.50358V2.75146C13.5 2.33725 13.8358 2.00146 14.25 2.00146Z" fill="#2A2A2A"/>
</svg>
