<svg width="24" height="24" viewBox="0 0 24 24" fill="none" xmlns="http://www.w3.org/2000/svg">
<path d="M10.9684 2.3244C11.583 1.87591 12.417 1.87592 13.0316 2.3244L20.4534 7.74036C21.4299 8.45291 20.9268 9.99811 19.7189 10.0001H4.28108C3.07318 9.99811 2.57011 8.4529 3.54657 7.74035L10.9684 2.3244ZM13 6.25009C13 5.69781 12.5523 5.25009 12 5.25009C11.4477 5.25009 11 5.69781 11 6.25009C11 6.80238 11.4477 7.25009 12 7.25009C12.5523 7.25009 13 6.80238 13 6.25009ZM11.25 16.0001H9.25V11.0001H11.25V16.0001ZM14.75 16.0001H12.75V11.0001H14.75V16.0001ZM18.5 16.0001H16.25V11.0001H18.5V16.0001ZM18.75 17.0001H5.25C4.00736 17.0001 3 18.0075 3 19.2501V19.7501C3 20.1643 3.33579 20.5001 3.75 20.5001H20.25C20.6642 20.5001 21 20.1643 21 19.7501V19.2501C21 18.0075 19.9926 17.0001 18.75 17.0001ZM7.75 16.0001H5.5V11.0001H7.75V16.0001Z" fill="#2A2A2A"/>
</svg>
