<svg width="24" height="24" viewBox="0 0 24 24" fill="none" xmlns="http://www.w3.org/2000/svg">
<path d="M13 6.25009C13 6.80238 12.5523 7.25009 12 7.25009C11.4477 7.25009 11 6.80238 11 6.25009C11 5.69781 11.4477 5.25009 12 5.25009C12.5523 5.25009 13 5.69781 13 6.25009ZM13.0316 2.3244C12.417 1.87592 11.583 1.87591 10.9684 2.3244L3.54657 7.74035C2.56949 8.45336 3.07382 10.0001 4.2834 10.0001H4.5L4.5 15.7999C3.60958 16.2551 3 17.1814 3 18.2501V19.7501C3 20.1643 3.33579 20.5001 3.75 20.5001H20.25C20.6642 20.5001 21 20.1643 21 19.7501V18.2501C21 17.1814 20.3904 16.2551 19.5 15.7999V10.0001H19.7166C20.9262 10.0001 21.4305 8.45337 20.4534 7.74036L13.0316 2.3244ZM11.8526 3.53609C11.9404 3.47202 12.0596 3.47202 12.1474 3.53609L18.9499 8.50009H5.05011L11.8526 3.53609ZM18 10.0001V15.5001H16V10.0001H18ZM14.5 10.0001V15.5001H12.75V10.0001H14.5ZM11.25 10.0001V15.5001H9.5L9.5 10.0001H11.25ZM5.75 17.0001H18.25C18.9404 17.0001 19.5 17.5597 19.5 18.2501V19.0001H4.5V18.2501C4.5 17.5597 5.05964 17.0001 5.75 17.0001ZM6 15.5001L6 10.0001H8L8 15.5001H6Z" fill="#2A2A2A"/>
</svg>
