<svg width="24" height="24" viewBox="0 0 24 24" fill="none" xmlns="http://www.w3.org/2000/svg">
<path d="M10.9684 2.3244C11.583 1.87591 12.417 1.87592 13.0316 2.3244L20.4535 7.74036C21.4299 8.45291 20.9268 9.99811 19.7189 10.0001H4.28108C3.07318 9.99811 2.57011 8.4529 3.54657 7.74035L10.9684 2.3244ZM13 6.25009C13 5.69781 12.5523 5.25009 12 5.25009C11.4477 5.25009 11 5.69781 11 6.25009C11 6.80238 11.4477 7.25009 12 7.25009C12.5523 7.25009 13 6.80238 13 6.25009ZM11.25 16.0001H9.25001V11.0001H11.25V16.0001ZM12.75 15.5672C13.3213 15.1012 14.0031 14.7656 14.75 14.6055V11.0001H12.75V15.5672ZM16.25 14.5001H18.5V11.0001H16.25V14.5001ZM11 19.2501C11 18.436 11.2048 17.6698 11.5657 17.0001H5.25C4.00736 17.0001 3 18.0075 3 19.2501V19.7501C3 20.1643 3.33579 20.5001 3.75 20.5001H11.1662C11.0578 20.1018 11 19.6827 11 19.2501ZM7.75001 16.0001H5.5V11.0001H7.75001V16.0001ZM23 19.2501C23 17.179 21.3211 15.5001 19.25 15.5001L19.1483 15.5069C18.7822 15.5566 18.5 15.8704 18.5 16.2501C18.5 16.6643 18.8358 17.0001 19.25 17.0001L19.4041 17.0053C20.5749 17.0844 21.5 18.0592 21.5 19.2501C21.5 20.4927 20.4927 21.5001 19.25 21.5001L19.2466 21.5047L19.1448 21.512C18.779 21.5633 18.4983 21.8784 18.5 22.2581C18.5019 22.6723 18.8393 23.0066 19.2535 23.0047V23.0001L19.4523 22.9949C21.4277 22.8914 23 21.2544 23 19.2501ZM16.5 16.2501C16.5 15.8359 16.1642 15.5001 15.75 15.5001L15.5509 15.5053C13.5724 15.6088 12 17.2458 12 19.2501C12 21.3212 13.679 23.0001 15.75 23.0001L15.8518 22.9932C16.2179 22.9436 16.5 22.6298 16.5 22.2501C16.5 21.8359 16.1642 21.5001 15.75 21.5001L15.596 21.4949C14.4252 21.4157 13.5 20.441 13.5 19.2501C13.5 18.0075 14.5074 17.0001 15.75 17.0001L15.8518 16.9932C16.2179 16.9436 16.5 16.6298 16.5 16.2501ZM20 19.2501C20 18.8359 19.6642 18.5001 19.25 18.5001H15.75L15.6482 18.5069C15.2822 18.5566 15 18.8704 15 19.2501C15 19.6643 15.3358 20.0001 15.75 20.0001H19.25L19.3518 19.9932C19.7179 19.9436 20 19.6298 20 19.2501Z" fill="#2A2A2A"/>
</svg>
