<svg width="24" height="24" viewBox="0 0 24 24" fill="none" xmlns="http://www.w3.org/2000/svg">
<path d="M13 6.25009C13 6.80238 12.5523 7.25009 12 7.25009C11.4477 7.25009 11 6.80238 11 6.25009C11 5.69781 11.4477 5.25009 12 5.25009C12.5523 5.25009 13 5.69781 13 6.25009ZM13.0316 2.3244C12.417 1.87592 11.583 1.87591 10.9684 2.3244L3.54657 7.74035C2.56949 8.45336 3.07382 10.0001 4.28341 10.0001H4.5L4.5 15.7999C3.60958 16.2551 3 17.1814 3 18.2501V19.7501C3 20.1643 3.33579 20.5001 3.75 20.5001H11.1662C11.0578 20.1018 11 19.6827 11 19.2501C11 19.1662 11.0022 19.0829 11.0065 19.0001H4.5V18.2501C4.5 17.5597 5.05965 17.0001 5.75 17.0001H11.5657C11.8805 16.4158 12.3141 15.9051 12.8342 15.5001H12.75V10.0001H14.5V14.6663C14.8983 14.5579 15.3174 14.5001 15.75 14.5001H16V10.0001H18V14.5001H19.25C19.3339 14.5001 19.4172 14.5023 19.5 14.5066V10.0001H19.7166C20.9262 10.0001 21.4306 8.45337 20.4535 7.74036L13.0316 2.3244ZM11.8526 3.53609C11.9404 3.47202 12.0596 3.47202 12.1474 3.53609L18.9499 8.50009H5.05011L11.8526 3.53609ZM11.25 10.0001V15.5001H9.50001L9.50001 10.0001H11.25ZM6 15.5001L6.00001 10.0001H8.00001L8.00001 15.5001H6ZM23 19.2501C23 17.179 21.3211 15.5001 19.25 15.5001L19.1483 15.5069C18.7822 15.5566 18.5 15.8704 18.5 16.2501C18.5 16.6643 18.8358 17.0001 19.25 17.0001L19.4041 17.0053C20.5749 17.0844 21.5 18.0592 21.5 19.2501C21.5 20.4927 20.4927 21.5001 19.25 21.5001L19.2466 21.5047L19.1448 21.512C18.779 21.5633 18.4983 21.8784 18.5 22.2581C18.5019 22.6723 18.8393 23.0066 19.2535 23.0047V23.0001L19.4523 22.9949C21.4277 22.8914 23 21.2544 23 19.2501ZM16.5 16.2501C16.5 15.8359 16.1642 15.5001 15.75 15.5001L15.5509 15.5053C13.5724 15.6088 12 17.2458 12 19.2501C12 21.3212 13.679 23.0001 15.75 23.0001L15.8518 22.9932C16.2179 22.9436 16.5 22.6298 16.5 22.2501C16.5 21.8359 16.1642 21.5001 15.75 21.5001L15.596 21.4949C14.4252 21.4157 13.5 20.441 13.5 19.2501C13.5 18.0075 14.5074 17.0001 15.75 17.0001L15.8518 16.9932C16.2179 16.9436 16.5 16.6298 16.5 16.2501ZM20 19.2501C20 18.8359 19.6642 18.5001 19.25 18.5001H15.75L15.6482 18.5069C15.2822 18.5566 15 18.8704 15 19.2501C15 19.6643 15.3358 20.0001 15.75 20.0001H19.25L19.3518 19.9932C19.7179 19.9436 20 19.6298 20 19.2501Z" fill="#2A2A2A"/>
</svg>
