<svg width="24" height="24" viewBox="0 0 24 24" fill="none" xmlns="http://www.w3.org/2000/svg">
<path d="M8.03871 4.57766L10.9911 7.13579C11.1555 7.27824 11.25 7.48507 11.25 7.70262V15.5001H8.75C8.33579 15.5001 8 15.8359 8 16.2501V19.5001H4.75C4.61193 19.5001 4.5 19.3882 4.5 19.2501V7.70262C4.5 7.48507 4.59446 7.27824 4.75887 7.13579L7.71129 4.57766C7.80525 4.49625 7.94475 4.49625 8.03871 4.57766ZM11.25 17.0001V19.5001H9.5V17.0001H11.25ZM12.75 17.0001H14.5V19.5001H12.75V17.0001ZM16 19.5001V16.2501C16 15.8359 15.6642 15.5001 15.25 15.5001H12.75V7.70262C12.75 7.48507 12.8445 7.27824 13.0089 7.13579L15.9613 4.57766C16.0552 4.49625 16.1948 4.49625 16.2887 4.57766L19.2411 7.13579C19.4055 7.27824 19.5 7.48507 19.5 7.70262V19.2501C19.5 19.3882 19.3881 19.5001 19.25 19.5001H16ZM4.75 21.0001H19.25C20.2165 21.0001 21 20.2166 21 19.2501V7.70262C21 7.04998 20.7166 6.4295 20.2234 6.00213L17.271 3.44401C16.6133 2.87413 15.6367 2.87413 14.979 3.444L12.0266 6.00213L12 6.02557L11.9734 6.00213L9.02097 3.444C8.36326 2.87413 7.38674 2.87413 6.72903 3.44401L3.77661 6.00213C3.28337 6.4295 3 7.04998 3 7.70262V19.2501C3 20.2166 3.7835 21.0001 4.75 21.0001ZM8.87891 9.00009C8.87891 9.55237 8.43119 10.0001 7.87891 10.0001C7.32662 10.0001 6.87891 9.55237 6.87891 9.00009C6.87891 8.4478 7.32662 8.00009 7.87891 8.00009C8.43119 8.00009 8.87891 8.4478 8.87891 9.00009ZM7.87891 13.9967C8.43119 13.9967 8.87891 13.549 8.87891 12.9967C8.87891 12.4444 8.43119 11.9967 7.87891 11.9967C7.32662 11.9967 6.87891 12.4444 6.87891 12.9967C6.87891 13.549 7.32662 13.9967 7.87891 13.9967ZM16.1211 10.0001C15.5688 10.0001 15.1211 9.55237 15.1211 9.00009C15.1211 8.4478 15.5688 8.00009 16.1211 8.00009C16.6734 8.00009 17.1211 8.4478 17.1211 9.00009C17.1211 9.55237 16.6734 10.0001 16.1211 10.0001ZM15.1211 12.9967C15.1211 13.549 15.5688 13.9967 16.1211 13.9967C16.6734 13.9967 17.1211 13.549 17.1211 12.9967C17.1211 12.4444 16.6734 11.9967 16.1211 11.9967C15.5688 11.9967 15.1211 12.4444 15.1211 12.9967Z" fill="currentColor"/>
</svg>
