<svg width="24" height="24" viewBox="0 0 24 24" fill="none" xmlns="http://www.w3.org/2000/svg">
<path d="M21.9489 12.9926L21.7515 14.0292C21.5666 15.0005 20.659 15.6528 19.6307 15.5534L17.5843 15.3557C16.6926 15.2695 15.9328 14.6361 15.7059 13.7897L15.0745 11.4345C14.1401 11.0513 13.1101 10.8761 11.9847 10.909C10.8594 10.9419 9.81256 11.1778 8.84436 11.6166L8.45329 13.8214C8.30505 14.6571 7.6155 15.2804 6.74217 15.3682L4.70765 15.5728C3.69249 15.6748 2.71915 15.0289 2.43056 14.0616L2.12129 13.025C1.81345 11.9931 2.08816 10.9073 2.84247 10.1743C4.62325 8.44406 7.59228 7.57623 11.7495 7.57083C15.9128 7.56546 18.9743 8.42801 20.9339 10.1585C21.7585 10.8866 22.1446 11.9648 21.9489 12.9926Z" fill="#2A2A2A"/>
</svg>
