<svg width="24" height="24" viewBox="0 0 24 24" fill="none" xmlns="http://www.w3.org/2000/svg">
<path d="M21.7804 3.28033C22.0733 2.98743 22.0733 2.51256 21.7804 2.21967C21.4875 1.92677 21.0126 1.92678 20.7198 2.21967L15.0002 7.93934L13.1305 6.06967C12.8376 5.77678 12.3628 5.77678 12.0699 6.06967C11.777 6.36256 11.777 6.83744 12.0699 7.13033L14.4699 9.53033C14.6105 9.67098 14.8013 9.75 15.0002 9.75C15.1991 9.75 15.3899 9.67098 15.5305 9.53033L21.7804 3.28033ZM6.84843 2.09522L5.77184 2.43923C4.70434 2.78033 3.88682 3.69482 3.62283 4.84313C2.99546 7.57214 3.7482 10.8947 5.88107 14.8109C8.01085 18.7214 10.3452 21.0726 12.884 21.8645C13.9594 22.2 15.122 21.9036 15.9359 21.0865L16.7536 20.2655C17.5166 19.4995 17.6272 18.2532 17.0123 17.3498L15.7799 15.5392C15.2509 14.762 14.3118 14.4315 13.4494 14.7191L11.1742 15.4778C10.2663 14.7907 9.50923 13.9259 8.90309 12.8834C8.29696 11.8409 7.93545 10.7819 7.81856 9.70641L9.71288 7.9084C10.3936 7.26227 10.6015 6.22336 10.2269 5.33991L9.36712 3.31256C8.9351 2.29382 7.85725 1.77287 6.84843 2.09522Z" fill="#2A2A2A"/>
</svg>
