<svg width="24" height="24" viewBox="0 0 24 24" fill="none" xmlns="http://www.w3.org/2000/svg">
<path d="M20.9337 5.65949C18.974 3.92901 15.9126 3.06647 11.7493 3.0718C7.59203 3.07723 4.62301 3.94506 2.84222 5.67535C2.08792 6.40826 1.8132 7.49414 2.12104 8.52596L2.43031 9.56259C2.71891 10.5299 3.69224 11.1758 4.70741 11.0738L6.74193 10.8692C7.61525 10.7814 8.30481 10.1581 8.45304 9.32237L8.84412 7.11763C9.81232 6.6788 10.8591 6.44293 11.9845 6.41003C13.1099 6.37713 14.1398 6.55228 15.0743 6.93549L15.7056 9.29073C15.9325 10.1371 16.6923 10.7705 17.5841 10.8567L19.6305 11.0544C20.6588 11.1538 21.5664 10.5015 21.7513 9.53019L21.9487 8.49361C22.1443 7.46579 21.7582 6.38765 20.9337 5.65949ZM12 21.9999C8.96243 21.9999 6.5 19.5374 6.5 16.4999C6.5 13.4623 8.96243 10.9999 12 10.9999C15.0376 10.9999 17.5 13.4623 17.5 16.4999C17.5 19.5374 15.0376 21.9999 12 21.9999ZM12 20.4999C14.2091 20.4999 16 18.709 16 16.4999C16 15.6664 15.7451 14.8924 15.3089 14.2517L9.75185 19.8088C10.3925 20.2449 11.1665 20.4999 12 20.4999ZM8.69117 18.7482L14.2483 13.191C13.6076 12.7548 12.8336 12.4999 12 12.4999C9.79086 12.4999 8 14.2907 8 16.4999C8 17.3334 8.25497 18.1074 8.69117 18.7482Z" fill="#2A2A2A"/>
</svg>
