<svg width="24" height="24" viewBox="0 0 24 24" fill="none" xmlns="http://www.w3.org/2000/svg">
<path d="M6.22346 2.06619L5.05646 2.41795C3.80203 2.79607 2.8359 3.80146 2.50803 5.06994C1.79158 7.84173 2.56877 11.1462 4.78372 14.9826C6.99559 18.8137 9.4649 21.1378 12.219 21.9065C13.4877 22.2606 14.8493 21.9231 15.8057 21.0173L16.6921 20.1779C17.6924 19.2306 17.8373 17.6893 17.0312 16.5721L15.7505 14.7971C15.0618 13.8426 13.842 13.4323 12.7164 13.7764L10.7061 14.391C10.6493 14.4079 10.516 14.3615 10.2739 14.1468C9.92644 13.8387 9.5182 13.2908 9.06715 12.5095C8.44688 11.4352 8.17765 10.6618 8.22201 10.2647C8.22864 10.2053 8.25629 10.1503 8.29997 10.1096L9.79427 8.71612C10.6553 7.91317 10.9097 6.65117 10.427 5.57733L9.52531 3.57161C8.95896 2.31179 7.54596 1.66755 6.22346 2.06619ZM3.9603 5.44532C4.15702 4.68423 4.7367 4.081 5.48936 3.85413L6.65636 3.50236C7.25749 3.32116 7.89977 3.614 8.1572 4.18665L9.05887 6.19237C9.2783 6.68047 9.16266 7.25411 8.77127 7.61909L7.27697 9.01254C6.97125 9.29763 6.77768 9.68273 6.73128 10.0982C6.64171 10.9001 6.9998 11.9288 7.76811 13.2595C8.9082 15.2342 9.96987 16.1757 11.1396 15.827L13.1549 15.2109C13.6666 15.0544 14.221 15.241 14.5341 15.6748L15.8148 17.4498C16.1812 17.9576 16.1153 18.6582 15.6606 19.0888L14.7743 19.9282C14.2004 20.4717 13.3835 20.6742 12.6223 20.4617C10.3052 19.815 8.11629 17.7548 6.08276 14.2326C4.04651 10.7057 3.35765 7.77684 3.9603 5.44532ZM21.7802 3.28026C22.0731 2.98736 22.0731 2.51249 21.7802 2.2196C21.4873 1.92671 21.0124 1.92671 20.7196 2.21961L15 7.93927L13.1303 6.0696C12.8374 5.77671 12.3625 5.77671 12.0697 6.0696C11.7768 6.3625 11.7768 6.83737 12.0697 7.13026L14.4697 9.53026C14.6103 9.67092 14.8011 9.74993 15 9.74993C15.1989 9.74993 15.3897 9.67091 15.5303 9.53026L21.7802 3.28026Z" fill="currentColor"/>
</svg>
