<svg width="24" height="24" viewBox="0 0 24 24" fill="none" xmlns="http://www.w3.org/2000/svg">
<path d="M9.367 3.31261L10.2267 5.33995C10.6014 6.22341 10.3935 7.26231 9.71276 7.90844L7.81844 9.70645C7.93532 10.7819 8.29683 11.8409 8.90297 12.8834C9.50911 13.926 10.2661 14.7908 11.174 15.4778L13.4492 14.7192C14.3116 14.4316 15.2508 14.7621 15.7798 15.5392L17.0122 17.3498C17.6271 18.2532 17.5165 19.4996 16.7535 20.2656L15.9358 21.0865C15.1218 21.9036 13.9593 22.2 12.8839 21.8646C10.345 21.0726 8.01073 18.7214 5.88095 14.8109C3.74808 10.8948 2.99533 7.57218 3.62271 4.84317C3.8867 3.69486 4.70422 2.78038 5.77172 2.43927L6.84831 2.09527C7.85713 1.77291 8.93498 2.29386 9.367 3.31261ZM17.1484 2.00392L17.2502 1.99707C17.6299 1.99707 17.9437 2.27922 17.9934 2.6453L18.0002 2.74707L17.9998 6.00107L21.2519 6.00172C21.6316 6.00172 21.9454 6.28388 21.9951 6.64995L22.0019 6.75172C22.0019 7.13142 21.7198 7.44521 21.3537 7.49488L21.2519 7.50172L17.9998 7.50107L18.0002 10.75C18.0002 11.1297 17.718 11.4435 17.352 11.4932L17.2502 11.5C16.8705 11.5 16.5567 11.2179 16.507 10.8518L16.5002 10.75L16.4998 7.50107L13.2485 7.50172C12.8688 7.50172 12.555 7.21957 12.5053 6.85349L12.4985 6.75172C12.4985 6.37203 12.7806 6.05823 13.1467 6.00857L13.2485 6.00172L16.4998 6.00107L16.5002 2.74707C16.5002 2.36737 16.7823 2.05358 17.1484 2.00392L17.2502 1.99707L17.1484 2.00392Z" fill="#2A2A2A"/>
</svg>
