<svg width="24" height="24" viewBox="0 0 24 24" fill="none" xmlns="http://www.w3.org/2000/svg">
<path d="M15.5 2.75C15.5 2.33579 15.1642 2 14.75 2C14.3358 2 14 2.33579 14 2.75V10.25C14 10.6642 14.3358 11 14.75 11C15.1642 11 15.5 10.6642 15.5 10.25V2.75ZM19.5 2.75C19.5 2.33579 19.1642 2 18.75 2C18.3358 2 18 2.33579 18 2.75V10.25C18 10.6642 18.3358 11 18.75 11C19.1642 11 19.5 10.6642 19.5 10.25V2.75ZM10.2266 5.33991L9.36688 3.31256C8.93486 2.29382 7.85701 1.77287 6.84819 2.09522L5.7716 2.43923C4.70409 2.78033 3.88658 3.69482 3.62258 4.84313C2.99521 7.57214 3.74796 10.8947 5.88083 14.8109C8.0106 18.7214 10.3449 21.0726 12.8838 21.8645C13.9592 22.2 15.1217 21.9036 15.9356 21.0865L16.7534 20.2655C17.5164 19.4995 17.627 18.2532 17.0121 17.3498L15.7797 15.5392C15.2507 14.762 14.3115 14.4315 13.4491 14.7191L11.1739 15.4778C10.266 14.7907 9.50899 13.9259 8.90285 12.8834C8.29671 11.8409 7.9352 10.7819 7.81832 9.70641L9.71264 7.9084C10.3934 7.26227 10.6013 6.22336 10.2266 5.33991Z" fill="#2A2A2A"/>
</svg>
