<svg width="24" height="24" viewBox="0 0 24 24" fill="none" xmlns="http://www.w3.org/2000/svg">
<path d="M20.9337 5.65949C18.974 3.92901 15.9126 3.06647 11.7493 3.0718C7.59203 3.07723 4.62301 3.94506 2.84222 5.67535C2.08792 6.40826 1.8132 7.49414 2.12104 8.52596L2.43031 9.56259C2.71891 10.5299 3.69224 11.1758 4.70741 11.0738L6.74193 10.8692C7.61525 10.7814 8.30481 10.1581 8.45304 9.32237L8.84412 7.11763C9.81232 6.6788 10.8591 6.44293 11.9845 6.41003C13.1099 6.37713 14.1398 6.55228 15.0743 6.93549L15.7056 9.29073C15.9325 10.1371 16.6923 10.7705 17.5841 10.8567L19.6305 11.0544C20.6588 11.1538 21.5664 10.5015 21.7513 9.53019L21.9487 8.49361C22.1443 7.46579 21.7582 6.38765 20.9337 5.65949ZM11.7498 13.9999C12.164 13.9999 12.4998 14.3357 12.4998 14.7499V16.4999H13.4998C13.914 16.4999 14.2498 16.8357 14.2498 17.2499C14.2498 17.6641 13.914 17.9999 13.4998 17.9999H11.7498C11.3356 17.9999 10.9998 17.6641 10.9998 17.2499V14.7499C10.9998 14.3357 11.3355 13.9999 11.7498 13.9999ZM11.9998 10.9999C8.96219 10.9999 6.49976 13.4623 6.49976 16.4999C6.49976 19.5374 8.96219 21.9999 11.9998 21.9999C15.0373 21.9999 17.4998 19.5374 17.4998 16.4999C17.4998 13.4623 15.0373 10.9999 11.9998 10.9999ZM7.99976 16.4999C7.99976 14.2907 9.79062 12.4999 11.9998 12.4999C14.2089 12.4999 15.9998 14.2907 15.9998 16.4999C15.9998 18.709 14.2089 20.4999 11.9998 20.4999C9.79062 20.4999 7.99976 18.709 7.99976 16.4999Z" fill="#2A2A2A"/>
</svg>
