<svg width="24" height="24" viewBox="0 0 24 24" fill="none" xmlns="http://www.w3.org/2000/svg">
<path d="M9.52531 3.57161L10.427 5.57733C10.9097 6.65117 10.6553 7.91317 9.79427 8.71612L8.29997 10.1096C8.25629 10.1503 8.22864 10.2053 8.22201 10.2647C8.17765 10.6618 8.44688 11.4352 9.06715 12.5095C9.5182 13.2908 9.92644 13.8387 10.2739 14.1468C10.516 14.3615 10.6493 14.4079 10.7061 14.391L12.7164 13.7764C13.842 13.4323 15.0618 13.8426 15.7505 14.7971L17.0312 16.5721C17.8373 17.6893 17.6924 19.2306 16.6921 20.1779L15.8057 21.0173C14.8493 21.9231 13.4877 22.2606 12.219 21.9065C9.4649 21.1378 6.99559 18.8137 4.78372 14.9826C2.56877 11.1462 1.79158 7.84173 2.50803 5.06994C2.81769 3.87193 3.69665 2.90859 4.85011 2.48672L5.05646 2.41795L6.22346 2.06619C7.54596 1.66755 8.95896 2.31179 9.52531 3.57161ZM6.65636 3.50236L5.48936 3.85413L5.3308 3.90842C4.65584 4.16798 4.14297 4.73859 3.9603 5.44532C3.35765 7.77684 4.04651 10.7057 6.08276 14.2326C8.11629 17.7548 10.3052 19.815 12.6223 20.4617C13.3835 20.6742 14.2004 20.4717 14.7743 19.9282L15.6606 19.0888C16.1153 18.6582 16.1812 17.9576 15.8148 17.4498L14.5341 15.6748C14.221 15.241 13.6666 15.0544 13.1549 15.2109L11.1396 15.827C9.96987 16.1757 8.9082 15.2342 7.76811 13.2595C6.9998 11.9288 6.64171 10.9001 6.73128 10.0982C6.77768 9.68273 6.97125 9.29763 7.27697 9.01254L8.77127 7.61909C9.16266 7.25411 9.27829 6.68047 9.05887 6.19237L8.1572 4.18665C7.89977 3.614 7.25749 3.32116 6.65636 3.50236ZM14.748 2.00117L21.2638 2.00136C21.2896 2.00056 21.3154 2.00237 21.3411 2.00551L21.4027 2.0158L21.4977 2.04217L21.5864 2.07976L21.6538 2.11938C21.6983 2.14656 21.7406 2.1804 21.7797 2.21947C21.8182 2.25795 21.8517 2.29958 21.88 2.34352L21.9221 2.41765L21.9639 2.52103L21.988 2.61841L21.9989 2.71933L21.9995 9.25512C21.9995 9.66933 21.6637 10.0051 21.2495 10.0051C20.8698 10.0051 20.556 9.72297 20.5064 9.35689L20.4995 9.25512L20.4995 4.56073L14.2795 10.7844C14.0133 11.0508 13.5967 11.0751 13.303 10.8573L13.2189 10.7847C12.9525 10.5185 12.9282 10.1019 13.146 9.80818L13.2186 9.72405L19.4385 3.50073L14.748 3.50123C14.3683 3.50123 14.0545 3.21907 14.0048 2.853L13.998 2.75123C13.998 2.33702 14.3338 2.00117 14.748 2.00117Z" fill="currentColor"/>
</svg>
