<svg width="24" height="24" viewBox="0 0 24 24" fill="none" xmlns="http://www.w3.org/2000/svg">
<path d="M9.36712 3.31248L10.2269 5.33982C10.6015 6.22328 10.3936 7.26219 9.71288 7.90831L7.81856 9.70632C7.93545 10.7818 8.29696 11.8408 8.90309 12.8833C9.50923 13.9258 10.2663 14.7906 11.1742 15.4777L13.4494 14.719C14.3118 14.4314 15.2509 14.7619 15.7799 15.5391L17.0123 17.3497C17.6272 18.2531 17.5166 19.4994 16.7536 20.2655L15.9359 21.0864C15.122 21.9035 13.9594 22.1999 12.884 21.8644C10.3452 21.0725 8.01085 18.7213 5.88107 14.8108C3.7482 10.8946 2.99546 7.57205 3.62283 4.84304C3.88682 3.69473 4.70434 2.78025 5.77184 2.43915L6.84843 2.09514C7.85725 1.77279 8.9351 2.29374 9.36712 3.31248ZM14.4979 8.43861L20.7185 2.21541C21.0114 1.92244 21.4862 1.92232 21.7792 2.21514C22.0455 2.48134 22.0699 2.89799 21.8521 3.19166L21.7795 3.2758L15.5589 9.49861L20.2501 9.49862C20.6298 9.49862 20.9436 9.78077 20.9932 10.1468L21.0001 10.2486C21.0001 10.6283 20.7179 10.9421 20.3519 10.9918L20.2501 10.9986L13.6953 10.9979L13.5971 10.9844L13.5017 10.9582L13.4339 10.9296C13.3556 10.8947 13.2826 10.8446 13.2184 10.7804L13.1777 10.7363L13.1526 10.7041L13.1052 10.6355L13.0589 10.5441L13.0266 10.4525L13.0103 10.3824L13.0003 10.3014L12.9986 10.2486V3.74473C12.9986 3.33051 13.3344 2.99473 13.7486 2.99473C14.1283 2.99473 14.4421 3.27688 14.4917 3.64296L14.4986 3.74473L14.4979 8.43861L20.7185 2.21541L14.4979 8.43861Z" fill="#2A2A2A"/>
</svg>
