<svg width="24" height="24" viewBox="0 0 24 24" fill="none" xmlns="http://www.w3.org/2000/svg">
<path d="M11.3722 7.26841C10.7062 5.56747 8.2962 5.57603 7.64236 7.28167L6.43545 10.43C6.36132 10.6234 6.17567 10.7511 5.96858 10.7511H4.56204C4.19553 10.2933 3.632 10.0002 3 10.0002C1.89543 10.0002 1 10.8956 1 12.0002C1 13.1048 1.89543 14.0002 3 14.0002C3.83901 14.0002 4.55736 13.4836 4.85427 12.7511H5.96858C7.00402 12.7511 7.9323 12.1128 8.30293 11.1459L9.50984 7.99756L12.7309 16.2245C13.3681 17.8521 15.6398 17.9367 16.3962 16.3609L17.993 13.0347C18.0763 12.8613 18.2515 12.7511 18.4438 12.7511H19.1457C19.4426 13.4836 20.161 14.0002 21 14.0002C22.1046 14.0002 23 13.1048 23 12.0002C23 10.8956 22.1046 10.0002 21 10.0002C20.368 10.0002 19.8045 10.2933 19.438 10.7511H18.4438C17.4824 10.7511 16.6061 11.3024 16.19 12.1691L14.5932 15.4954L11.3722 7.26841Z" fill="currentColor"/>
</svg>
