<svg width="24" height="24" viewBox="0 0 24 24" fill="none" xmlns="http://www.w3.org/2000/svg">
<path d="M17.5 12C20.5375 12 23 14.4624 23 17.5C23 20.5376 20.5375 23 17.5 23C14.4624 23 12 20.5376 12 17.5C12 14.4624 14.4624 12 17.5 12ZM17.75 3C19.483 3 20.8992 4.35645 20.9948 6.06558L21 6.25L21.0007 12.0223C19.9902 11.3752 18.7889 11 17.5 11C15.655 11 13.9896 11.7687 12.8065 13.0032L8.74774 13.0031L8.64597 13.0099C8.27989 13.0596 7.99774 13.3734 7.99774 13.7531C7.99774 14.1327 8.27989 14.4465 8.64597 14.4962L8.74774 14.5031L11.7307 14.5029C11.2638 15.3997 11 16.419 11 17.5C11 18.7892 11.3753 19.9907 12.0226 21.0012L6.24998 21C4.51695 21 3.10073 19.6435 3.00512 17.9344L2.99998 17.75L2.99969 9.37208C3.23436 9.45505 3.4869 9.5002 3.74998 9.5002C4.99268 9.5002 6.00008 8.4928 6.00008 7.2501C6.00008 6.0074 4.99268 5 3.74998 5C3.56875 5 3.39253 5.02142 3.22371 5.06188C3.67573 3.91215 4.76394 3.0822 6.05487 3.00576L6.24998 3H17.75ZM18.5 20.0015H16.5L16.5067 20.1181C16.5645 20.6155 16.9871 21.0015 17.5 21.0015C18.0523 21.0015 18.5 20.5538 18.5 20.0015ZM17.5034 14L17.336 14.0071C16.3992 14.0924 15.6666 14.7714 15.5271 15.6417L15.5087 15.7972L15.5031 16.0009V17.2936L14.6469 18.1475C14.3523 18.4413 14.5269 18.9306 14.9139 18.9945L15 19.0015H20C20.4157 19.0015 20.6378 18.5324 20.4094 18.2137L20.3535 18.148L19.5049 17.2993V15.9469L19.4994 15.8007C19.4228 14.7878 18.5558 14 17.5034 14ZM15.2522 9.49623H8.74774L8.64597 9.50307C8.27989 9.55274 7.99774 9.86653 7.99774 10.2462C7.99774 10.6259 8.27989 10.9397 8.64597 10.9894L8.74774 10.9962H15.2522L15.354 10.9894C15.7201 10.9397 16.0022 10.6259 16.0022 10.2462C16.0022 9.83201 15.6664 9.49623 15.2522 9.49623ZM3.74998 6C4.44039 6 5.00008 6.55969 5.00008 7.2501C5.00008 7.94051 4.44039 8.5002 3.74998 8.5002C3.05957 8.5002 2.49988 7.94051 2.49988 7.2501C2.49988 6.55969 3.05957 6 3.74998 6Z" fill="#2A2A2A"/>
</svg>
