<svg width="24" height="24" viewBox="0 0 24 24" fill="none" xmlns="http://www.w3.org/2000/svg">
<path d="M9.8361 2.03398C9.94862 2.07226 10.0585 2.11779 10.1652 2.17028L11.4479 2.80183C11.796 2.97323 12.204 2.97323 12.5522 2.80183L13.8349 2.17028C15.1975 1.49942 16.8459 2.06018 17.5168 3.42276L17.5903 3.58509L17.6531 3.75183L18.1136 5.10543C18.2385 5.4728 18.527 5.7613 18.8944 5.88627L20.248 6.34673C21.6859 6.83585 22.455 8.39799 21.9658 9.83585C21.9276 9.94837 21.882 10.0583 21.8295 10.1649L21.198 11.4477C21.0266 11.7958 21.0266 12.2038 21.198 12.5519L21.8295 13.8347C22.5004 15.1972 21.9396 16.8457 20.5771 17.5165C20.4704 17.569 20.3605 17.6146 20.248 17.6528L18.8944 18.1133C18.527 18.2383 18.2385 18.5268 18.1136 18.8941L17.6531 20.2477C17.164 21.6856 15.6018 22.4547 14.164 21.9656C14.0514 21.9273 13.9415 21.8818 13.8349 21.8293L12.5522 21.1977C12.204 21.0263 11.796 21.0263 11.4479 21.1977L10.1652 21.8293C8.80257 22.5002 7.15414 21.9394 6.48327 20.5768C6.43078 20.4702 6.38525 20.3603 6.34697 20.2477L5.88651 18.8941C5.76154 18.5268 5.47304 18.2383 5.10567 18.1133L3.75207 17.6528C2.31421 17.1637 1.5451 15.6016 2.03422 14.1637C2.0725 14.0512 2.11803 13.9413 2.17053 13.8347L2.80207 12.5519C2.97348 12.2038 2.97348 11.7958 2.80207 11.4477L2.17053 10.1649C1.49966 8.80233 2.06042 7.15389 3.42301 6.48303C3.52964 6.43053 3.63955 6.385 3.75207 6.34673L5.10567 5.88627C5.47304 5.7613 5.76154 5.4728 5.88651 5.10543L6.34697 3.75183C6.8361 2.31396 8.39823 1.54486 9.8361 2.03398ZM15.4697 8.96946L10.0504 14.3887L8.0762 12.0197C7.81103 11.7014 7.3381 11.6584 7.01989 11.9236C6.70169 12.1888 6.65869 12.6617 6.92387 12.9799L9.42387 15.9799C9.7062 16.3187 10.2185 16.342 10.5304 16.0301L16.5304 10.0301C16.8233 9.73722 16.8233 9.26235 16.5304 8.96946C16.2375 8.67657 15.7626 8.67657 15.4697 8.96946Z" fill="currentColor"/>
</svg>
