<svg width="24" height="24" viewBox="0 0 24 24" fill="none" xmlns="http://www.w3.org/2000/svg">
<path d="M12.75 2.74658C12.75 2.33237 12.4142 1.99658 12 1.99658C11.5858 1.99658 11.25 2.33237 11.25 2.74658V3.99988H9.25C8.2835 3.99988 7.5 4.78338 7.5 5.74988V7.90427C9.01944 7.76658 10.5 8.94046 10.5 10.6479V21.2499C10.5 21.276 10.4994 21.302 10.4983 21.3279V21.9999H13.4983V20.7499H13.5V13.2499C13.5 11.7311 14.7312 10.4999 16.25 10.4999H16.5V5.74988C16.5 4.78338 15.7165 3.99988 14.75 3.99988H12.75V2.74658ZM14.4983 21.9999H18.75C19.7165 21.9999 20.5 21.2164 20.5 20.2499V13.2499C20.5 12.2834 19.7165 11.4999 18.75 11.4999H16.25C15.2835 11.4999 14.5 12.2834 14.5 13.2499V20.7499H14.4983V21.9999ZM9.5 20.7499H9.49829V21.3009L9.4982 21.3023V21.9999H8.75541L8.75 21.9999H5.25C4.2835 21.9999 3.5 21.2164 3.5 20.2499V12.2895C3.5 11.7001 3.79674 11.1502 4.28945 10.8267L6.78945 9.18511C7.95318 8.42095 9.5 9.25573 9.5 10.6479V20.7499Z" fill="currentColor"/>
</svg>
