<svg width="24" height="24" viewBox="0 0 24 24" fill="none" xmlns="http://www.w3.org/2000/svg">
<path d="M17.25 2.00052C18.7688 2.00052 20 3.23173 20 4.75052V19.2488C20 20.7675 18.7688 21.9988 17.25 21.9988H6.74988C5.23109 21.9988 3.99988 20.7675 3.99988 19.2488V4.75052C3.99988 3.23173 5.23109 2.00052 6.74988 2.00052L7.0413 2V10.1671C7.0413 10.9152 7.83167 11.1812 8.35988 10.9065L8.45016 10.8524L10.5431 9.65511L12.6836 10.8845C13.129 11.1927 13.9441 10.9854 14.0333 10.2941L14.0413 10.1671V2L17.25 2.00052ZM12.5413 2V9.0757L10.9197 8.14379C10.693 8.03527 10.3846 8.03774 10.1269 8.16631L10.0199 8.22918L8.5413 9.07502V2H12.5413Z" fill="currentColor"/>
</svg>
