<svg width="24" height="24" viewBox="0 0 24 24" fill="none" xmlns="http://www.w3.org/2000/svg">
<path d="M9.01838 6.00129L7.52668 7.50373L4.25 7.50462C3.83579 7.50462 3.5 7.8404 3.5 8.25462V19.7502C3.5 20.1644 3.83579 20.5002 4.25 20.5002H15.75C16.1642 20.5002 16.5 20.1644 16.5 19.7502L16.4976 16.4719L18 14.9802V19.7502C18 20.9929 16.9926 22.0002 15.75 22.0002H4.25C3.00736 22.0002 2 20.9929 2 19.7502V8.25462C2 7.01198 3.00736 6.00462 4.25 6.00462L9.01838 6.00129ZM5.2199 12.2197L7.219 10.2223C7.48524 9.95629 7.90164 9.93213 8.19516 10.1498L8.27926 10.2224L13.7802 15.7197C14.0466 15.986 14.0709 16.4027 13.853 16.6964L13.7803 16.7806L11.7803 18.7806C11.5141 19.0468 11.0974 19.071 10.8038 18.8532L10.7197 18.7806L5.21967 13.2806C4.95332 13.0142 4.92919 12.5974 5.14722 12.3038L5.2199 12.2197L7.219 10.2223L5.2199 12.2197ZM7.74904 11.8131L6.81089 12.7505L11.25 17.1896L12.1892 16.2504L7.74904 11.8131ZM21.2797 2.71856C21.4615 2.90018 21.6151 3.10797 21.7355 3.33504C22.3753 4.54242 21.9593 6.02831 20.8122 6.73496L20.6651 6.81915L19.497 7.43736L20.013 7.95255C21.2353 9.17487 21.2804 11.1285 20.1484 12.4042L20.0126 12.5483L18.7803 13.7806C18.5141 14.0468 18.0974 14.071 17.8038 13.8532L17.7197 13.7806L17.25 13.3112L15.7803 14.7806C15.5141 15.0468 15.0974 15.071 14.8038 14.8532L14.7197 14.7806L9.21967 9.28056C8.95332 9.01422 8.92919 8.5974 9.14722 8.30379L9.2199 8.21967L10.689 6.75015L10.2197 6.28056C9.95335 6.01424 9.92919 5.59748 10.1472 5.30387L10.2198 5.21975L11.4511 3.98913C12.674 2.76928 14.6259 2.72415 15.9032 3.85416L16.0475 3.98976L16.561 4.50336L17.1789 3.33651C17.269 3.16636 17.3777 3.00702 17.5029 2.86137L17.6336 2.7204C18.64 1.71306 20.2724 1.71224 21.2797 2.71856ZM11.749 7.81312L10.8109 8.75046L15.25 13.1896L16.1892 12.2504L11.749 7.81312ZM12.6359 4.93729L12.511 5.0506L11.8108 5.75039L18.25 12.1896L18.9521 11.4874C19.6299 10.8103 19.6357 9.71542 18.9696 9.03071L14.9876 5.05117C14.3435 4.40858 13.3238 4.37076 12.6359 4.93729ZM18.6948 3.78052C18.6443 3.83115 18.5989 3.88662 18.5594 3.94609L18.5047 4.03817L17.672 5.61154L18.3885 6.32804L19.9627 5.49377C20.4884 5.21517 20.6887 4.56314 20.4101 4.03744C20.3598 3.94253 20.2956 3.85567 20.2196 3.77976C19.7983 3.35892 19.1157 3.35927 18.6948 3.78052Z" fill="currentColor"/>
</svg>
