<svg width="24" height="24" viewBox="0 0 24 24" fill="none" xmlns="http://www.w3.org/2000/svg">
<path d="M8.08553 18.6107L14.0817 4.60617C14.2991 4.09846 14.8868 3.86311 15.3946 4.08049C15.866 4.28234 16.1026 4.80358 15.96 5.28351L15.9202 5.39337L9.92409 19.3979C9.70671 19.9056 9.11892 20.141 8.61121 19.9236C8.13977 19.7217 7.90316 19.2005 8.04581 18.7205L8.08553 18.6107L14.0817 4.60617L8.08553 18.6107ZM2.29289 11.2927L6.29289 7.29266C6.68342 6.90214 7.31658 6.90214 7.70711 7.29266C8.06759 7.65315 8.09532 8.22038 7.7903 8.61267L7.70711 8.70687L4.41421 11.9998L7.70711 15.2927C8.09763 15.6832 8.09763 16.3164 7.70711 16.7069C7.34662 17.0674 6.77939 17.0951 6.3871 16.7901L6.29289 16.7069L2.29289 12.7069C1.93241 12.3464 1.90468 11.7792 2.2097 11.3869L2.29289 11.2927L6.29289 7.29266L2.29289 11.2927ZM16.2921 7.29142C16.6526 6.93096 17.2198 6.90325 17.6121 7.2083L17.7063 7.29149L21.7071 11.2927C22.0678 11.6534 22.0953 12.2209 21.7899 12.6132L21.7066 12.7073L17.7058 16.7029C17.315 17.0931 16.6818 17.0927 16.2916 16.7019C15.9313 16.3412 15.904 15.774 16.2093 15.3819L16.2925 15.2877L19.5854 11.9993L16.292 8.70564C15.9015 8.31509 15.9015 7.68193 16.2921 7.29142Z" fill="currentColor"/>
</svg>
