<svg width="24" height="24" viewBox="0 0 24 24" fill="none" xmlns="http://www.w3.org/2000/svg">
<path d="M3.8391 5.85764C6.7801 1.94203 12.8687 0.802644 17.203 3.49752C21.4828 6.15853 23.0569 11.2746 21.3039 16.0749C19.6487 20.6075 15.2876 22.4033 12.1443 20.1233C10.9668 19.2692 10.5103 18.1985 10.2897 16.4595L10.1843 15.4715L10.1389 15.0741C10.0163 14.14 9.82786 13.7216 9.43459 13.5024C8.899 13.2038 8.54237 13.1969 7.83911 13.4694L7.488 13.615L7.30926 13.693C6.29549 14.1332 5.6211 14.2879 4.7681 14.1092L4.56785 14.062L4.40432 14.0154C1.61535 13.1512 1.20226 9.36827 3.8391 5.85764ZM4.82332 12.5741L4.94622 12.6105L5.08017 12.6414C5.51925 12.7283 5.8945 12.6558 6.51719 12.3995L7.11936 12.1423C8.32151 11.6494 9.1046 11.6012 10.1649 12.1921C11.0825 12.7036 11.4401 13.4897 11.6225 14.8518L11.6757 15.3109L11.7299 15.8427L11.7771 16.2651C11.9491 17.6263 12.262 18.3556 13.025 18.9091C15.3003 20.5595 18.5595 19.2175 19.8949 15.5604C21.4112 11.4082 20.069 7.04581 16.411 4.77137C12.7368 2.4869 7.51254 3.46453 5.03846 6.75848C2.96368 9.52082 3.21815 12.038 4.82332 12.5741ZM16.0478 10.5797C15.8691 9.91288 16.2649 9.22746 16.9317 9.04878C17.5985 8.87011 18.2839 9.26583 18.4626 9.93267C18.6413 10.5995 18.2456 11.2849 17.5787 11.4636C16.9119 11.6423 16.2265 11.2465 16.0478 10.5797ZM16.5424 14.0684C16.3637 13.4015 16.7594 12.7161 17.4263 12.5374C18.0931 12.3588 18.7785 12.7545 18.9572 13.4213C19.1359 14.0882 18.7402 14.7736 18.0733 14.9523C17.4065 15.1309 16.7211 14.7352 16.5424 14.0684ZM14.0693 7.57703C13.8906 6.9102 14.2863 6.22478 14.9532 6.0461C15.62 5.86742 16.3054 6.26315 16.4841 6.92998C16.6628 7.59681 16.2671 8.28224 15.6002 8.46091C14.9334 8.63959 14.248 8.24386 14.0693 7.57703ZM14.0408 16.5754C13.8621 15.9086 14.2579 15.2232 14.9247 15.0445C15.5915 14.8658 16.277 15.2615 16.4556 15.9284C16.6343 16.5952 16.2386 17.2806 15.5717 17.4593C14.9049 17.638 14.2195 17.2422 14.0408 16.5754ZM10.5439 6.60544C10.3652 5.9386 10.7609 5.25318 11.4278 5.07451C12.0946 4.89583 12.78 5.29156 12.9587 5.95839C13.1374 6.62522 12.7417 7.31064 12.0748 7.48932C11.408 7.668 10.7226 7.27227 10.5439 6.60544Z" fill="currentColor"/>
</svg>
