<svg width="24" height="24" viewBox="0 0 24 24" fill="none" xmlns="http://www.w3.org/2000/svg">
<path d="M18 1.99951C15.7906 1.99951 13.9995 3.79061 13.9995 6.00005C13.9995 8.20948 15.7906 10.0006 18 10.0006C18.8264 10.0006 19.5878 9.75934 20.2217 9.33465C20.4512 9.18097 20.7617 9.24236 20.9154 9.47179C21.0691 9.70121 21.0077 10.0118 20.7783 10.1655C19.9798 10.7004 19.0248 11.0006 18 11.0006C15.2383 11.0006 12.9995 8.76177 12.9995 6.00005C12.9995 3.23833 15.2383 0.999512 18 0.999512C20.7618 0.999512 23.0006 3.23833 23.0006 6.00005L23.0005 6.00986V6.75004C23.0005 7.71653 22.217 8.50004 21.2505 8.50004C20.6484 8.50004 20.1173 8.19596 19.8024 7.73299C19.3476 8.20583 18.7084 8.50006 18.0005 8.50006C16.6198 8.50006 15.5005 7.38077 15.5005 6.00006C15.5005 4.61935 16.6198 3.50006 18.0005 3.50006C18.5633 3.50006 19.0827 3.68603 19.5005 3.99988C19.5006 3.72382 19.7244 3.50006 20.0005 3.50006C20.2766 3.50006 20.5005 3.72392 20.5005 4.00006V6.75004C20.5005 7.16425 20.8363 7.50004 21.2505 7.50004C21.6647 7.50004 22.0005 7.16425 22.0005 6.75004V5.99471L22.0006 5.9862C21.9931 3.78314 20.2049 1.99951 18 1.99951ZM16.5005 6.00006C16.5005 6.82849 17.1721 7.50006 18.0005 7.50006C18.8289 7.50006 19.5005 6.82849 19.5005 6.00006C19.5005 5.17163 18.8289 4.50006 18.0005 4.50006C17.1721 4.50006 16.5005 5.17163 16.5005 6.00006ZM22 14.7501V10.4723C21.5548 10.8707 21.0498 11.2037 20.5 11.456V14.7501C20.5 15.7166 19.7165 16.5001 18.75 16.5001H12.5135L7.49986 20.2506L7.49879 16.5001H5.25C4.2835 16.5001 3.5 15.7166 3.5 14.7501V6.25006C3.5 5.28356 4.2835 4.50006 5.25 4.50006H12.189C12.326 3.9679 12.5341 3.46432 12.8027 3.00006H5.25C3.45507 3.00006 2 4.45514 2 6.25006V14.7501C2 16.545 3.45507 18.0001 5.25 18.0001H5.99921L6 20.75C6 21.0197 6.08736 21.2823 6.24901 21.4984C6.6625 22.0513 7.44585 22.1642 7.99868 21.7507L13.0125 18.0001H18.75C20.5449 18.0001 22 16.545 22 14.7501Z" fill="currentColor"/>
</svg>
