<svg width="24" height="24" viewBox="0 0 24 24" fill="none" xmlns="http://www.w3.org/2000/svg">
<path d="M8.24989 4C8.6641 4 8.99989 4.33579 8.99989 4.75V7.52317L10.8742 10.3383C10.9562 10.4614 10.9999 10.6061 10.9999 10.754V15.25C10.9999 15.6642 10.6641 16 10.2499 16H8.9962L8.99714 19.2536C8.99714 19.6678 8.66135 20.0036 8.24714 20.0036C7.86744 20.0036 7.55365 19.7214 7.50398 19.3553L7.49714 19.2536L7.4962 16L5.5012 15.999L5.50189 19.2566C5.50189 19.6708 5.1661 20.0066 4.75189 20.0066C4.3722 20.0066 4.0584 19.7244 4.00874 19.3584L4.00189 19.2566L4.0012 15.999L2.7522 16C2.33798 16 2.0022 15.6642 2.0022 15.25V10.754C2.0022 10.6061 2.04593 10.4614 2.12791 10.3383L4.0022 7.52317V4.75C4.0022 4.33579 4.33798 4 4.7522 4H8.24989ZM15.2545 4.00139H19.7499C20.1296 4.00139 20.4434 4.28355 20.493 4.64962L20.4999 4.75139L20.4992 8H21.2499C21.6641 8 21.9999 8.33579 21.9999 8.75V13.246C21.9999 13.3939 21.9562 13.5386 21.8742 13.6617L19.9999 16.4768V19.25C19.9999 19.6642 19.6641 20 19.2499 20H15.7522C15.338 20 15.0022 19.6642 15.0022 19.25V16.4768L13.1279 13.6617C13.0459 13.5386 13.0022 13.3939 13.0022 13.246V8.75C13.0022 8.33579 13.338 8 13.7522 8H14.5042L14.5045 4.75139C14.5045 4.3717 14.7866 4.0579 15.1527 4.00824L15.2545 4.00139H19.7499H15.2545ZM18.9999 5.50139H16.0045L16.0042 8H18.9992L18.9999 5.50139Z" fill="#2A2A2A"/>
</svg>
