<svg width="24" height="24" viewBox="0 0 24 24" fill="none" xmlns="http://www.w3.org/2000/svg">
<path d="M6.05 3C5.4701 3 5 3.31811 5 3.71052C5 4.07841 5.41318 4.38099 5.94265 4.41738C5.97795 4.41981 6.01376 4.42105 6.05 4.42105H9.2C10.6961 4.42105 11.993 4.99854 12.6302 5.8421H6.05C5.4701 5.8421 5 6.16021 5 6.55262C5 6.94503 5.4701 7.26314 6.05 7.26314H13.0343C12.8575 8.591 11.2083 9.63156 9.2 9.63156H6.05C5.65669 9.63156 5.29635 9.78031 5.11638 10.017C4.9364 10.2536 4.96697 10.5385 5.19558 10.7551L15.6956 20.7024C16.0326 21.0217 16.6884 21.0957 17.1603 20.8676C17.6322 20.6395 17.7415 20.1958 17.4044 19.8764L8.09035 11.0526H9.2C12.3686 11.0526 14.9587 9.37657 15.1399 7.26314H17.95C18.5299 7.26314 19 6.94503 19 6.55262C19 6.16021 18.5299 5.8421 17.95 5.8421H14.8885C14.6486 5.31389 14.2525 4.83198 13.7367 4.42105H17.95C18.5299 4.42105 19 4.10294 19 3.71052C19 3.31811 18.5299 3 17.95 3H6.05Z" fill="#2A2A2A"/>
</svg>
