<svg width="24" height="24" viewBox="0 0 24 24" fill="none" xmlns="http://www.w3.org/2000/svg">
<path d="M12 2C11.1409 2 10.4445 2.4479 10.4445 3.00042V3.11198C7.32713 3.56689 5 5.35982 5 7.50231V7.88607C5 9.77537 6.69376 11.4953 9.34954 12.3029L10.4445 12.6358V18.7783C9.07153 18.3925 8.11111 17.5114 8.11111 16.4854V15.64C8.11111 15.0874 7.41467 14.6395 6.55556 14.6395C5.69645 14.6395 5 15.0874 5 15.64V16.4854C5 18.629 7.32881 20.4211 10.4445 20.8758V20.9996C10.4445 21.5521 11.1409 22 12 22C12.8591 22 13.5556 21.5521 13.5556 20.9996V20.8757C16.6746 20.4205 19 18.6267 19 16.4854L19 16.1127C19 14.2269 17.3093 12.5101 14.6584 11.704L13.5556 11.3686V5.20938C14.929 5.59532 15.8889 6.47673 15.8889 7.50231V8.3676C15.8889 8.92011 16.5853 9.36802 17.4444 9.36802C18.3035 9.36802 19 8.92011 19 8.3676V7.50231C19 5.35983 16.6729 3.56691 13.5556 3.11198V3.00042C13.5556 2.4479 12.8591 2 12 2ZM8.11111 7.50231C8.11111 6.47672 9.07097 5.59531 10.4445 5.20937V10.4171C9.01203 9.91359 8.11111 8.94486 8.11111 7.88607V7.50231ZM13.5556 18.7783V13.587C14.9877 14.0882 15.8889 15.0554 15.8889 16.1127L15.8889 16.4854C15.8889 17.5105 14.9296 18.3922 13.5556 18.7783Z" fill="currentColor"/>
</svg>
