<svg width="24" height="24" viewBox="0 0 24 24" fill="none" xmlns="http://www.w3.org/2000/svg">
<path d="M6.4 3C5.62681 3 5 3.42415 5 3.94736C5 4.46853 5.62192 4.89141 6.39095 4.89471L6.4 4.89473H9.9C11.0451 4.89473 12.0617 5.26683 12.7003 5.84209H6.4C5.6268 5.84209 5 6.26624 5 6.78946C5 7.31267 5.6268 7.73682 6.4 7.73682H13.33C13.0057 8.81788 11.5933 9.63155 9.9 9.63155H6.4C5.87798 9.63155 5.39931 9.82809 5.15823 10.1414C4.91716 10.4547 4.95372 10.8328 5.25308 11.1222L15.0531 20.5958C15.4965 21.0245 16.3694 21.1287 17.0029 20.8287C17.6363 20.5286 17.7903 19.9379 17.3469 19.5093L9.08892 11.5263H9.9C13.1428 11.5263 15.8133 9.86837 16.1616 7.73682H17.6C18.3732 7.73682 19 7.31267 19 6.78946C19 6.26624 18.3732 5.84209 17.6 5.84209H15.8415C15.6654 5.5048 15.4282 5.187 15.1391 4.89473H17.6C18.3732 4.89473 19 4.47058 19 3.94736C19 3.42415 18.3732 3 17.6 3H6.4Z" fill="#2A2A2A"/>
</svg>
