<svg width="24" height="24" viewBox="0 0 24 24" fill="none" xmlns="http://www.w3.org/2000/svg">
<path d="M20 4.74658C20 3.2278 18.7688 1.99658 17.25 1.99658H4.75C3.23122 1.99658 2 3.2278 2 4.74658V17.2466C2 18.7654 3.23122 19.9966 4.75 19.9966H11.416L11.5209 19.5768C11.617 19.1926 11.7739 18.8281 11.9842 18.4966H4.75C4.05964 18.4966 3.5 17.9369 3.5 17.2466V4.74658C3.5 4.05623 4.05964 3.49658 4.75 3.49658H17.25C17.9404 3.49658 18.5 4.05623 18.5 4.74658V11.8597C18.9371 11.4598 19.4562 11.1994 20 11.0785V4.74658ZM16 14.355V6.7293L15.9932 6.63032C15.9435 6.2743 15.6297 5.99989 15.25 5.99989C14.8358 5.99989 14.5 6.32646 14.5 6.7293V15.2705L14.5068 15.3695C14.5243 15.4947 14.5744 15.6098 14.6486 15.7064L16 14.355ZM7.49315 8.64533C7.44349 8.28083 7.1297 7.99989 6.75 7.99989C6.33579 7.99989 6 8.33423 6 8.74667V15.2531L6.00685 15.3544C6.05651 15.7189 6.3703 15.9999 6.75 15.9999C7.16421 15.9999 7.5 15.6655 7.5 15.2531V8.74667L7.49315 8.64533ZM11.707 11.6173C11.6549 11.2633 11.3458 10.993 10.9751 10.9966C10.5707 11.0006 10.246 11.329 10.25 11.7301L10.2854 15.2775L10.293 15.3759C10.3451 15.73 10.6542 16.0002 11.0249 15.9967C11.4293 15.9926 11.754 15.6642 11.75 15.2631L11.7146 11.7158L11.707 11.6173ZM19.0999 12.6694L13.1974 18.5719C12.8533 18.916 12.6092 19.3472 12.4911 19.8193L12.0334 21.6501C11.8344 22.4462 12.5556 23.1673 13.3517 22.9683L15.1824 22.5106C15.6545 22.3926 16.0857 22.1484 16.4299 21.8043L22.3323 15.9019C23.2249 15.0093 23.2249 13.5621 22.3323 12.6694C21.4397 11.7768 19.9925 11.7768 19.0999 12.6694Z" fill="currentColor"/>
</svg>
