<svg width="24" height="24" viewBox="0 0 24 24" fill="none" xmlns="http://www.w3.org/2000/svg">
<path d="M15 3.51042C15 3.83191 15.2006 4.11672 15.4937 4.249C17.3799 5.1005 18.8996 6.62028 19.7512 8.5065C19.8834 8.79951 20.1682 9.00014 20.4897 9.00014C21.0114 9.00014 21.3823 8.49287 21.1742 8.01448C20.1656 5.69615 18.304 3.83455 15.9857 2.82597C15.5073 2.61785 15 2.98872 15 3.51042ZM8.01436 2.82597C8.49275 2.61785 9.00002 2.98872 9.00002 3.51042C9.00002 3.83191 8.79939 4.11672 8.50637 4.249C6.62015 5.1005 5.10038 6.62028 4.24888 8.5065C4.1166 8.79951 3.83179 9.00014 3.5103 9.00014C2.9886 9.00014 2.61773 8.49287 2.82585 8.01448C3.83443 5.69615 5.69603 3.83455 8.01436 2.82597ZM15 20.4899C15 20.1684 15.2006 19.8835 15.4937 19.7513C17.3799 18.8998 18.8996 17.38 19.7512 15.4938C19.8834 15.2008 20.1682 15.0001 20.4897 15.0001C21.0114 15.0001 21.3823 15.5074 21.1742 15.9858C20.1656 18.3041 18.304 20.1657 15.9857 21.1743C15.5073 21.3824 15 21.0116 15 20.4899ZM4.24888 15.4938C4.1166 15.2008 3.83179 15.0001 3.5103 15.0001C2.9886 15.0001 2.61773 15.5074 2.82585 15.9858C3.83443 18.3041 5.69603 20.1657 8.01436 21.1743C8.49275 21.3824 9.00002 21.0116 9.00002 20.4899C9.00002 20.1684 8.79939 19.8835 8.50637 19.7513C6.62015 18.8998 5.10038 17.38 4.24888 15.4938ZM12.0001 6.50018C11.8066 6.50018 11.6158 6.51013 11.428 6.52951C11.016 6.57202 10.6475 6.27247 10.605 5.86044C10.5625 5.44841 10.862 5.07994 11.274 5.03743C11.5129 5.01278 11.7551 5.00018 12.0001 5.00018C15.3316 5.00018 18.1179 7.32681 18.8261 10.4431C18.9179 10.8471 18.6649 11.2489 18.2609 11.3407C17.857 11.4325 17.4552 11.1795 17.3634 10.7755C16.807 8.32719 14.616 6.50018 12.0001 6.50018ZM9.12107 6.40082C9.35332 6.7438 9.26355 7.21011 8.92058 7.44236C7.45844 8.43244 6.50005 10.1045 6.50005 12.0002C6.50005 13.1424 6.84744 14.2013 7.44224 15.0797C7.67448 15.4226 7.58472 15.8889 7.24174 16.1212C6.89876 16.3534 6.43245 16.2637 6.2002 15.9207C5.4426 14.8019 5.00005 13.4516 5.00005 12.0002C5.00005 9.58593 6.2229 7.45755 8.07953 6.20033C8.42251 5.96808 8.88882 6.05784 9.12107 6.40082ZM18.2306 12.9051C18.6306 13.0128 18.8675 13.4244 18.7598 13.8243C17.9571 16.8053 15.2359 19.0002 12.0001 19.0002C10.8285 19.0002 9.72216 18.7118 8.75021 18.2015C8.38347 18.0089 8.24226 17.5556 8.4348 17.1888C8.62735 16.8221 9.08074 16.6809 9.44748 16.8734C10.2095 17.2735 11.0772 17.5002 12.0001 17.5002C14.5406 17.5002 16.6806 15.777 17.3114 13.4343C17.4191 13.0344 17.8306 12.7974 18.2306 12.9051ZM12.0001 8.00018C9.79091 8.00018 8.00005 9.79104 8.00005 12.0002C8.00005 14.2093 9.79091 16.0002 12.0001 16.0002C14.2092 16.0002 16.0001 14.2093 16.0001 12.0002C16.0001 9.79104 14.2092 8.00018 12.0001 8.00018Z" fill="currentColor"/>
</svg>
