<svg width="24" height="24" viewBox="0 0 24 24" fill="none" xmlns="http://www.w3.org/2000/svg">
<path d="M15.4938 4.249C15.2008 4.11672 15.0001 3.83191 15.0001 3.51042C15.0001 2.98872 15.5074 2.61785 15.9858 2.82597C18.3041 3.83455 20.1657 5.69615 21.1743 8.01448C21.3824 8.49287 21.0116 9.00014 20.4899 9.00014C20.1684 9.00014 19.8835 8.79951 19.7513 8.5065C18.8998 6.62028 17.38 5.1005 15.4938 4.249ZM9.00014 3.51042C9.00014 2.98872 8.49287 2.61785 8.01448 2.82597C5.69615 3.83455 3.83455 5.69615 2.82597 8.01448C2.61785 8.49287 2.98872 9.00014 3.51042 9.00014C3.83191 9.00014 4.11673 8.79951 4.249 8.5065C5.1005 6.62028 6.62028 5.1005 8.5065 4.249C8.79951 4.11672 9.00014 3.83191 9.00014 3.51042ZM15.4938 19.7513C15.2008 19.8835 15.0001 20.1684 15.0001 20.4899C15.0001 21.0116 15.5074 21.3824 15.9858 21.1743C18.3041 20.1657 20.1657 18.3041 21.1743 15.9858C21.3824 15.5074 21.0116 15.0001 20.4899 15.0001C20.1684 15.0001 19.8835 15.2008 19.7513 15.4938C18.8998 17.38 17.38 18.8998 15.4938 19.7513ZM3.51042 15.0001C3.83191 15.0001 4.11672 15.2008 4.249 15.4938C5.1005 17.38 6.62028 18.8998 8.5065 19.7513C8.79951 19.8835 9.00014 20.1684 9.00014 20.4899C9.00014 21.0116 8.49287 21.3824 8.01448 21.1743C5.69615 20.1657 3.83455 18.3041 2.82597 15.9858C2.61785 15.5074 2.98872 15.0001 3.51042 15.0001ZM12.0001 6.50013C11.8067 6.50013 11.6159 6.51008 11.4281 6.52946C11.016 6.57197 10.6476 6.27242 10.605 5.8604C10.5625 5.44837 10.8621 5.07989 11.2741 5.03738C11.513 5.01274 11.7552 5.00013 12.0001 5.00013C15.3316 5.00013 18.118 7.32676 18.8262 10.4431C18.9179 10.847 18.6649 11.2489 18.261 11.3406C17.8571 11.4324 17.4552 11.1794 17.3634 10.7755C16.8071 8.32714 14.6161 6.50013 12.0001 6.50013ZM9.12113 6.40077C9.35338 6.74375 9.26361 7.21006 8.92064 7.44231C7.4585 8.4324 6.50011 10.1045 6.50011 12.0001C6.50011 13.1424 6.8475 14.2012 7.4423 15.0796C7.67454 15.4226 7.58478 15.8889 7.2418 16.1211C6.89882 16.3534 6.43251 16.2636 6.20026 15.9207C5.44266 14.8018 5.00011 13.4515 5.00011 12.0001C5.00011 9.58589 6.22296 7.4575 8.07959 6.20028C8.42257 5.96803 8.88888 6.0578 9.12113 6.40077ZM18.2307 12.9051C18.6306 13.0128 18.8676 13.4243 18.7599 13.8243C17.9572 16.8052 15.2359 19.0001 12.0001 19.0001C10.8286 19.0001 9.72223 18.7117 8.75027 18.2014C8.38353 18.0089 8.24232 17.5555 8.43486 17.1888C8.62741 16.822 9.0808 16.6808 9.44754 16.8734C10.2096 17.2734 11.0773 17.5001 12.0001 17.5001C14.5407 17.5001 16.6807 15.7769 17.3115 13.4343C17.4192 13.0343 17.8307 12.7974 18.2307 12.9051ZM12.0001 8.00013C9.79098 8.00013 8.00011 9.79099 8.00011 12.0001C8.00011 14.2093 9.79098 16.0001 12.0001 16.0001C14.2093 16.0001 16.0001 14.2093 16.0001 12.0001C16.0001 9.79099 14.2093 8.00013 12.0001 8.00013ZM9.50011 12.0001C9.50011 10.6194 10.6194 9.50013 12.0001 9.50013C13.3808 9.50013 14.5001 10.6194 14.5001 12.0001C14.5001 13.3808 13.3808 14.5001 12.0001 14.5001C10.6194 14.5001 9.50011 13.3808 9.50011 12.0001Z" fill="currentColor"/>
</svg>
