<svg width="24" height="24" viewBox="0 0 24 24" fill="none" xmlns="http://www.w3.org/2000/svg">
<path d="M3.00012 3.75C3.00012 3.33579 3.33591 3 3.75012 3C4.16434 3 4.50012 3.33579 4.50012 3.75V10.0077L8.15084 8.08631C8.38062 7.96538 8.65661 7.9719 8.88042 8.10355L12.6998 10.3503L18.3002 6.15C18.5274 5.97955 18.8315 5.95214 19.0856 6.07918C19.3397 6.20622 19.5002 6.46592 19.5002 6.75V19.5H20.2501C20.6643 19.5 21.0001 19.8358 21.0001 20.25C21.0001 20.6642 20.6643 21 20.2501 21H3.75012C3.33591 21 3.00012 20.6642 3.00012 20.25V11.2641C2.99996 11.2551 2.99996 11.2461 3.00012 11.2371V3.75ZM4.50012 11.7028V19.5H18.0002V8.25L13.2002 11.85C12.9581 12.0315 12.6307 12.0499 12.3699 11.8965L8.47987 9.60821L4.50012 11.7028Z" fill="currentColor"/>
</svg>
