<svg width="24" height="24" viewBox="0 0 24 24" fill="none" xmlns="http://www.w3.org/2000/svg">
<path d="M19.2482 7.50374C20.768 7.50374 22.0001 6.27169 22.0001 4.75187C22.0001 3.23205 20.768 2 19.2482 2H4.74967C3.22986 2 1.9978 3.23205 1.9978 4.75187C1.9978 6.27169 3.22986 7.50374 4.74967 7.50374H19.2482ZM17.2482 14.5037C18.768 14.5037 20.0001 13.2717 20.0001 11.7519C20.0001 10.2321 18.768 9 17.2482 9H6.74967C5.22986 9 3.9978 10.2321 3.9978 11.7519C3.9978 13.2717 5.22986 14.5037 6.74967 14.5037H17.2482ZM17.0001 18.7519C17.0001 17.2321 15.768 16 14.2482 16H9.74967C8.22986 16 6.9978 17.2321 6.9978 18.7519C6.9978 20.2717 8.22986 21.5037 9.74967 21.5037H14.2482C15.768 21.5037 17.0001 20.2717 17.0001 18.7519Z" fill="currentColor"/>
</svg>
