<svg width="24" height="24" viewBox="0 0 24 24" fill="none" xmlns="http://www.w3.org/2000/svg">
<path d="M6.75 22C6.33579 22 6 21.6642 6 21.25C6 20.8703 6.28215 20.5565 6.64823 20.5068L6.75 20.5L8.499 20.4995V18.0015L4.25 18.0018C3.05914 18.0018 2.08436 17.0766 2.00519 15.9058L2 15.7518V5.24951C2 4.05865 2.92516 3.08387 4.09595 3.0047L4.25 2.99951H19.7488C20.9397 2.99951 21.9145 3.92467 21.9936 5.09546L21.9988 5.24951V13.9182C21.9556 12.4372 20.7415 11.2499 19.25 11.2499H15.75C14.2312 11.2499 13 12.4812 13 13.9999V14.0499C11.8589 14.2816 11 15.2905 11 16.4999V18.0015H9.998L9.999 20.5H11V21.4999C11 21.6712 11.0172 21.8384 11.05 22H6.75ZM14 14.9999H13.5C12.6716 14.9999 12 15.6715 12 16.4999V17.9999H14.5V17.7499C14.5 17.3357 14.8358 16.9999 15.25 16.9999C15.6642 16.9999 16 17.3357 16 17.7499V17.9999H19V17.7499C19 17.3357 19.3358 16.9999 19.75 16.9999C20.1642 16.9999 20.5 17.3357 20.5 17.7499V17.9999H23V16.4999C23 15.6715 22.3284 14.9999 21.5 14.9999H21V13.9999C21 13.0334 20.2165 12.2499 19.25 12.2499H15.75C14.7835 12.2499 14 13.0334 14 13.9999V14.9999ZM15.5 13.9999C15.5 13.8619 15.6119 13.7499 15.75 13.7499H19.25C19.3881 13.7499 19.5 13.8619 19.5 13.9999V14.9999H15.5V13.9999ZM12 21.4999V19.4999H14.5V20.2499C14.5 20.6642 14.8358 20.9999 15.25 20.9999C15.6642 20.9999 16 20.6642 16 20.2499V19.4999H19V20.2499C19 20.6642 19.3358 20.9999 19.75 20.9999C20.1642 20.9999 20.5 20.6642 20.5 20.2499V19.4999H23V21.4999C23 22.3284 22.3284 22.9999 21.5 22.9999H13.5C12.6716 22.9999 12 22.3284 12 21.4999Z" fill="currentColor"/>
</svg>
