<svg width="24" height="24" viewBox="0 0 24 24" fill="none" xmlns="http://www.w3.org/2000/svg">
<path d="M14.2981 2.98462L21.0156 9.70213C22.2848 10.9713 22.2848 13.0291 21.0156 14.2983L14.2981 21.0158C13.0289 22.285 10.9711 22.285 9.70189 21.0158L2.98437 14.2983C1.71517 13.0291 1.71517 10.9713 2.98437 9.70213L9.70189 2.98462C10.9711 1.71541 13.0289 1.71541 14.2981 2.98462ZM10.7625 4.04528L4.04503 10.7628C3.36162 11.4462 3.36162 12.5542 4.04503 13.2377L10.7625 19.9552C11.446 20.6386 12.554 20.6386 13.2374 19.9552L19.9549 13.2377C20.6384 12.5542 20.6384 11.4462 19.9549 10.7628L13.2374 4.04528C12.554 3.36186 11.446 3.36186 10.7625 4.04528ZM12.4577 7.30468L12.5303 7.22056C12.7966 6.95429 13.2132 6.93009 13.5069 7.14794L13.591 7.22056L15.591 9.22056C15.8572 9.48683 15.8814 9.90349 15.6636 10.1971L15.591 10.2812L13.591 12.2812C13.2981 12.5741 12.8232 12.5741 12.5303 12.2812C12.264 12.015 12.2398 11.5983 12.4577 11.3047L12.5303 11.2206L13.2495 10.4997L11.75 10.5002C11.1028 10.5002 10.5705 10.9921 10.5064 11.6224L10.5 11.7502V15.0002C10.5 15.4144 10.1642 15.7502 9.74999 15.7502C9.37029 15.7502 9.05649 15.4681 9.00683 15.102L8.99999 15.0002V11.7502C8.99999 10.2877 10.1417 9.09183 11.5825 9.00525L11.75 9.00023L13.2485 8.99972L12.5303 8.28122C12.264 8.01495 12.2398 7.59829 12.4577 7.30468L12.5303 7.22056L12.4577 7.30468Z" fill="#2A2A2A"/>
</svg>
