<svg width="24" height="24" viewBox="0 0 24 24" fill="none" xmlns="http://www.w3.org/2000/svg">
<path d="M17.7447 1.99609C18.9356 1.99609 19.9104 2.92126 19.9896 4.09205L19.9947 4.24609V19.7442C19.9947 20.935 19.0696 21.9098 17.8988 21.989L17.7447 21.9942H6.24487C5.05401 21.9942 4.07923 21.069 4.00006 19.8982L3.99487 19.7442V4.24609C3.99487 3.05523 4.92003 2.08045 6.09082 2.00128L6.24487 1.99609H17.7447ZM17.7447 3.49609H6.24487C5.86518 3.49609 5.55138 3.77825 5.50172 4.14432L5.49487 4.24609V19.7442C5.49487 20.1239 5.77703 20.4377 6.1431 20.4873L6.24487 20.4942H17.7447C18.1244 20.4942 18.4382 20.212 18.4879 19.8459L18.4947 19.7442V4.24609C18.4947 3.8664 18.2126 3.5526 17.8465 3.50294L17.7447 3.49609ZM15.019 19.9018C14.6098 19.8371 14.3307 19.4529 14.3955 19.0438L14.5001 18.3829H13.0188L12.877 19.2784C12.8123 19.6875 12.4281 19.9666 12.019 19.9018C11.6098 19.8371 11.3307 19.4529 11.3955 19.0438L11.5001 18.3829H10.7501C10.3359 18.3829 10.0001 18.0472 10.0001 17.6329C10.0001 17.2187 10.3359 16.8829 10.7501 16.8829H11.7376L11.9751 15.3829H11.2501C10.8359 15.3829 10.5001 15.0472 10.5001 14.6329C10.5001 14.2187 10.8359 13.8829 11.2501 13.8829H12.2126L12.412 12.6238C12.4768 12.2146 12.8609 11.9355 13.2701 12.0003C13.6792 12.0651 13.9583 12.4492 13.8935 12.8583L13.7313 13.8829H15.2126L15.412 12.6238C15.4768 12.2146 15.8609 11.9355 16.2701 12.0003C16.6792 12.0651 16.9583 12.4492 16.8935 12.8583L16.7313 13.8829H17.2501C17.6643 13.8829 18.0001 14.2187 18.0001 14.6329C18.0001 15.0472 17.6643 15.3829 17.2501 15.3829H16.4938L16.2563 16.8829H16.7501C17.1643 16.8829 17.5001 17.2187 17.5001 17.6329C17.5001 18.0472 17.1643 18.3829 16.7501 18.3829H16.0188L15.877 19.2784C15.8123 19.6875 15.4281 19.9666 15.019 19.9018ZM13.4938 15.3829L13.2563 16.8829H14.7376L14.9751 15.3829H13.4938Z" fill="currentColor"/>
</svg>
