<svg width="24" height="24" viewBox="0 0 24 24" fill="none" xmlns="http://www.w3.org/2000/svg">
<path d="M16.25 10.9998H7.75C7.34 10.9998 7 11.3398 7 11.7498C7 12.1598 7.34 12.4998 7.75 12.4998H16.25C16.66 12.4998 17 12.1598 17 11.7498C17 11.3398 16.66 10.9998 16.25 10.9998ZM16.25 15.4998H7.75C7.34 15.4998 7 15.8398 7 16.2498C7 16.6598 7.34 16.9998 7.75 16.9998H16.25C16.66 16.9998 17 16.6598 17 16.2498C17 15.8398 16.66 15.4998 16.25 15.4998ZM7 7.24977C7 7.65977 7.34 7.99977 7.75 7.99977H15.2L15.11 7.71977C15.06 7.57977 14.99 7.44977 14.9 7.32977C14.86 7.27977 14.83 7.23977 14.79 7.19977C14.64 7.04977 14.46 6.93977 14.27 6.87977L13.1 6.49977H7.75C7.34 6.49977 7 6.83977 7 7.24977ZM19.8 13.2898L19.54 12.4998L18.74 12.2098C18.65 12.1798 18.58 12.1298 18.5 12.0898V19.7498C18.5 20.1598 18.16 20.4998 17.75 20.4998H6.25C5.84 20.4998 5.5 20.1598 5.5 19.7498V4.24977C5.5 3.83977 5.84 3.49977 6.25 3.49977H11.78C11.81 3.43977 11.83 3.36977 11.87 3.30977C12.11 2.96977 12.45 2.70977 12.86 2.56977L14.27 2.10977C14.34 2.07977 14.42 2.03977 14.49 1.99977H6.25C5.01 1.99977 4 3.00977 4 4.24977V19.7498C4 20.9898 5.01 21.9998 6.25 21.9998H17.75C18.99 21.9998 20 20.9898 20 19.7498V13.6698C19.92 13.5498 19.85 13.4298 19.8 13.2898ZM15.85 6.14977C15.93 6.22977 16.01 6.31977 16.08 6.41977C16.28 6.66977 16.43 6.95977 16.53 7.26977L16.98 8.64977C17.02 8.75976 17.09 8.84976 17.18 8.90977C17.27 8.97976 17.38 9.00977 17.49 9.00977C17.6 9.00977 17.71 8.97976 17.8 8.90977C17.88 8.84976 17.95 8.76977 17.99 8.67977V8.64977L18.45 7.26977C18.59 6.84977 18.82 6.46977 19.14 6.15977C19.45 5.84977 19.83 5.60977 20.25 5.46977L21.63 5.01977C21.74 4.97977 21.83 4.90977 21.89 4.81977C21.96 4.72977 21.99 4.61977 21.99 4.50977C21.99 4.39977 21.96 4.28977 21.89 4.19977C21.82 4.10977 21.73 4.03977 21.63 3.99977H21.6L20.22 3.54977C19.8 3.40977 19.42 3.17977 19.11 2.85977C18.8 2.54977 18.56 2.16977 18.42 1.74977L17.97 0.369766C17.93 0.259766 17.86 0.169766 17.77 0.109766C17.68 0.0497656 17.57 0.00976562 17.46 0.00976562C17.35 0.00976562 17.24 0.0397656 17.15 0.109766C17.06 0.169766 16.99 0.269766 16.95 0.369766L16.5 1.74977V1.77977C16.35 2.17977 16.12 2.54977 15.83 2.84977C15.52 3.15977 15.15 3.39977 14.73 3.53977L13.35 3.98977C13.24 4.02977 13.15 4.09977 13.09 4.18977C13.02 4.27977 12.99 4.38977 12.99 4.49977C12.99 4.60977 13.02 4.71977 13.09 4.80977C13.15 4.89977 13.25 4.96977 13.35 5.00977L14.73 5.45977C15.15 5.59977 15.53 5.83977 15.84 6.14977H15.85ZM23.78 10.2198C23.8438 10.2198 23.9105 10.2804 23.95 10.3298C23.99 10.3798 24 10.4398 24 10.4998C24 10.5598 23.99 10.6198 23.95 10.6698C23.91 10.7198 23.86 10.7598 23.8 10.7798L23.03 11.0298C22.8 11.1098 22.59 11.2398 22.41 11.4098C22.24 11.5798 22.11 11.7898 22.03 12.0298L21.78 12.7898C21.76 12.8498 21.72 12.8998 21.67 12.9398C21.62 12.9798 21.56 12.9998 21.5 12.9998C21.44 12.9998 21.38 12.9798 21.33 12.9398C21.28 12.8998 21.24 12.8498 21.22 12.7898L20.97 12.0298C20.89 11.7998 20.76 11.5798 20.59 11.4098C20.42 11.2398 20.2 11.0998 19.97 11.0298L19.2 10.7798C19.14 10.7598 19.09 10.7198 19.05 10.6698C19.01 10.6198 18.99 10.5598 18.99 10.4998C18.99 10.4398 19.01 10.3798 19.05 10.3298C19.09 10.2798 19.14 10.2398 19.2 10.2198L19.97 9.96977C20.2 9.88977 20.41 9.75977 20.58 9.58977C20.75 9.41977 20.88 9.20976 20.95 8.97976L21.2 8.21977C21.22 8.15977 21.26 8.10977 21.31 8.06977C21.36 8.02977 21.42 8.00977 21.48 8.00977C21.54 8.00977 21.6 8.02977 21.65 8.06977C21.7 8.10977 21.74 8.15977 21.76 8.21977L22.01 8.97976C22.09 9.20976 22.22 9.41977 22.39 9.59977C22.56 9.76977 22.77 9.89977 23.01 9.97976L23.78 10.2198Z" fill="#2A2A2A"/>
</svg>
