<svg width="24" height="24" viewBox="0 0 24 24" fill="none" xmlns="http://www.w3.org/2000/svg">
<path d="M17.7447 1.99609C18.9356 1.99609 19.9104 2.92126 19.9896 4.09205L19.9947 4.24609V19.7442C19.9947 20.935 19.0696 21.9098 17.8988 21.989L17.7447 21.9942H6.24487C5.05401 21.9942 4.07923 21.069 4.00006 19.8982L3.99487 19.7442V4.24609C3.99487 3.05523 4.92003 2.08045 6.09082 2.00128L6.24487 1.99609H17.7447ZM17.7447 3.49609H6.24487C5.86518 3.49609 5.55138 3.77825 5.50172 4.14432L5.49487 4.24609V19.7442C5.49487 20.1239 5.77703 20.4377 6.1431 20.4873L6.24487 20.4942H17.7447C18.1244 20.4942 18.4382 20.212 18.4879 19.8459L18.4947 19.7442V4.24609C18.4947 3.8664 18.2126 3.5526 17.8465 3.50294L17.7447 3.49609ZM13.0189 16.0192C12.6098 15.9544 12.3307 15.5702 12.3954 15.1611L12.5001 14.5003H11.0188L10.877 15.3957C10.8122 15.8048 10.428 16.0839 10.0189 16.0192C9.60979 15.9544 9.33065 15.5702 9.39543 15.1611L9.50006 14.5003H8.75006C8.33585 14.5003 8.00006 14.1645 8.00006 13.7503C8.00006 13.3361 8.33585 13.0003 8.75006 13.0003H9.73757L9.97507 11.5003H9.25006C8.83585 11.5003 8.50006 11.1645 8.50006 10.7503C8.50006 10.3361 8.83585 10.0003 9.25007 10.0003H10.2126L10.4119 8.74108C10.4767 8.33196 10.8609 8.05282 11.27 8.1176C11.6791 8.18238 11.9583 8.56654 11.8935 8.97566L11.7313 10.0003H13.2126L13.4119 8.74108C13.4767 8.33196 13.8609 8.05282 14.27 8.1176C14.6791 8.18238 14.9583 8.56655 14.8935 8.97566L14.7313 10.0003H15.2501C15.6643 10.0003 16.0001 10.3361 16.0001 10.7503C16.0001 11.1645 15.6643 11.5003 15.2501 11.5003H14.4938L14.2563 13.0003H14.7501C15.1643 13.0003 15.5001 13.3361 15.5001 13.7503C15.5001 14.1645 15.1643 14.5003 14.7501 14.5003H14.0188L13.877 15.3957C13.8122 15.8048 13.428 16.0839 13.0189 16.0192ZM11.4938 11.5003L11.2563 13.0003H12.7376L12.9751 11.5003H11.4938Z" fill="currentColor"/>
</svg>
