<svg width="24" height="24" viewBox="0 0 24 24" fill="none" xmlns="http://www.w3.org/2000/svg">
<path d="M18 20.5C18.276 20.5 18.5 20.275 18.5 20V10H14C12.896 10 12 9.104 12 8V3.5H6C5.724 3.5 5.5 3.725 5.5 4V11.3107C5.00728 11.2012 4.49961 11.176 4 11.235V4C4 2.896 4.896 2 6 2H12.172C12.1999 2 12.2271 2.00371 12.2542 2.00741C12.2737 2.01008 12.2933 2.01274 12.313 2.014C12.528 2.029 12.74 2.07 12.937 2.152C12.9944 2.17648 13.0488 2.20797 13.103 2.23933C13.1196 2.2489 13.1364 2.25866 13.153 2.268C13.1685 2.27647 13.1845 2.28426 13.2005 2.29207C13.2281 2.30547 13.2557 2.31894 13.281 2.336C13.359 2.389 13.429 2.452 13.5 2.516C13.5115 2.52619 13.5238 2.53565 13.5362 2.54516C13.5531 2.55804 13.57 2.57105 13.585 2.586L19.414 8.414C19.789 8.789 20 9.298 20 9.828V20C20 21.104 19.104 22 18 22H9.4893L10.9893 20.5H18ZM17.378 8.5L13.5 4.621V8C13.5 8.275 13.724 8.5 14 8.5H17.378ZM6.48398 22.5303C6.6304 22.6768 6.82237 22.75 7.01436 22.75C7.20636 22.75 7.39832 22.6768 7.54475 22.5303L11.953 18.122C13.3069 16.7682 13.3069 14.5732 11.953 13.2194C10.5992 11.8655 8.4042 11.8655 7.05036 13.2194L7.01436 13.2554L6.97837 13.2194C5.62453 11.8655 3.42952 11.8655 2.07568 13.2194C0.721843 14.5732 0.721843 16.7682 2.07568 18.122L6.48398 22.5303Z" fill="#2A2A2A"/>
</svg>
