<svg width="24" height="24" viewBox="0 0 24 24" fill="none" xmlns="http://www.w3.org/2000/svg">
<path d="M17.7447 1.99609C18.9356 1.99609 19.9104 2.92126 19.9896 4.09205L19.9947 4.24609V19.7442C19.9947 20.935 19.0696 21.9098 17.8988 21.989L17.7447 21.9942H6.24487C5.05401 21.9942 4.07923 21.069 4.00006 19.8982L3.99487 19.7442V4.24609C3.99487 3.05523 4.92003 2.08045 6.09082 2.00128L6.24487 1.99609H17.7447ZM17.7447 3.49609H6.24487C5.86518 3.49609 5.55138 3.77825 5.50172 4.14432L5.49487 4.24609V19.7442C5.49487 20.1239 5.77703 20.4377 6.1431 20.4873L6.24487 20.4942H17.7447C18.1244 20.4942 18.4382 20.212 18.4879 19.8459L18.4947 19.7442V4.24609C18.4947 3.8664 18.2126 3.5526 17.8465 3.50294L17.7447 3.49609ZM11.0189 12.0192C10.6098 11.9544 10.3307 11.5702 10.3954 11.1611L10.5001 10.5003H9.01875L8.87697 11.3957C8.8122 11.8048 8.42803 12.0839 8.01891 12.0192C7.60979 11.9544 7.33065 11.5702 7.39543 11.1611L7.50006 10.5003H6.75006C6.33585 10.5003 6.00006 10.1645 6.00006 9.75026C6.00006 9.33605 6.33585 9.00026 6.75006 9.00026H7.73757L7.97507 7.50026H7.25006C6.83585 7.50026 6.50006 7.16448 6.50006 6.75026C6.50006 6.33605 6.83585 6.00026 7.25007 6.00026H8.21257L8.41195 4.74108C8.47673 4.33196 8.86089 4.05282 9.27001 4.1176C9.67913 4.18238 9.95827 4.56654 9.89349 4.97566L9.73126 6.00026H11.2126L11.4119 4.74108C11.4767 4.33196 11.8609 4.05282 12.27 4.1176C12.6791 4.18238 12.9583 4.56655 12.8935 4.97566L12.7313 6.00026H13.2501C13.6643 6.00026 14.0001 6.33605 14.0001 6.75026C14.0001 7.16448 13.6643 7.50026 13.2501 7.50026H12.4938L12.2563 9.00026H12.7501C13.1643 9.00026 13.5001 9.33605 13.5001 9.75026C13.5001 10.1645 13.1643 10.5003 12.7501 10.5003H12.0188L11.877 11.3957C11.8122 11.8048 11.428 12.0839 11.0189 12.0192ZM9.49376 7.50026L9.25625 9.00026H10.7376L10.9751 7.50026H9.49376Z" fill="currentColor"/>
</svg>
