<svg width="24" height="24" viewBox="0 0 24 24" fill="none" xmlns="http://www.w3.org/2000/svg">
<path d="M17.7447 1.99609C18.9356 1.99609 19.9104 2.92126 19.9896 4.09205L19.9947 4.24609V19.7442C19.9947 20.935 19.0696 21.9098 17.8988 21.989L17.7447 21.9942H6.24487C5.05401 21.9942 4.07923 21.069 4.00006 19.8982L3.99487 19.7442V4.24609C3.99487 3.05523 4.92003 2.08045 6.09082 2.00128L6.24487 1.99609H17.7447ZM17.7447 3.49609H6.24487C5.86518 3.49609 5.55138 3.77825 5.50172 4.14432L5.49487 4.24609V19.7442C5.49487 20.1239 5.77703 20.4377 6.1431 20.4873L6.24487 20.4942H17.7447C18.1244 20.4942 18.4382 20.212 18.4879 19.8459L18.4947 19.7442V4.24609C18.4947 3.8664 18.2126 3.5526 17.8465 3.50294L17.7447 3.49609ZM11.019 19.9018C10.6099 19.8371 10.3307 19.4529 10.3955 19.0438L10.5001 18.3829H9.01881L8.87703 19.2784C8.81225 19.6875 8.42809 19.9666 8.01897 19.9018C7.60985 19.8371 7.33071 19.4529 7.39549 19.0438L7.50012 18.3829H6.75012C6.33591 18.3829 6.00012 18.0472 6.00012 17.6329C6.00012 17.2187 6.33591 16.8829 6.75012 16.8829H7.73763L7.97513 15.3829H7.25012C6.83591 15.3829 6.50012 15.0472 6.50012 14.6329C6.50012 14.2187 6.83591 13.8829 7.25012 13.8829H8.21263L8.41201 12.6238C8.47678 12.2146 8.86095 11.9355 9.27007 12.0003C9.67918 12.0651 9.95833 12.4492 9.89355 12.8583L9.73132 13.8829H11.2126L11.412 12.6238C11.4768 12.2146 11.861 11.9355 12.2701 12.0003C12.6792 12.0651 12.9583 12.4492 12.8935 12.8583L12.7313 13.8829H13.2501C13.6643 13.8829 14.0001 14.2187 14.0001 14.6329C14.0001 15.0472 13.6643 15.3829 13.2501 15.3829H12.4938L12.2563 16.8829H12.7501C13.1643 16.8829 13.5001 17.2187 13.5001 17.6329C13.5001 18.0472 13.1643 18.3829 12.7501 18.3829H12.0188L11.877 19.2784C11.8123 19.6875 11.4281 19.9666 11.019 19.9018ZM9.49381 15.3829L9.25631 16.8829H10.7376L10.9751 15.3829H9.49381Z" fill="currentColor"/>
</svg>
