<svg width="24" height="24" viewBox="0 0 24 24" fill="none" xmlns="http://www.w3.org/2000/svg">
<path d="M16.0802 6.62973C16.0102 6.52973 15.9302 6.43973 15.8502 6.35973H15.8402C15.5302 6.04973 15.1502 5.80973 14.7302 5.66973L13.3502 5.21973C13.2502 5.17973 13.1502 5.10973 13.0902 5.01973C13.0202 4.92973 12.9902 4.81973 12.9902 4.70973C12.9902 4.59973 13.0202 4.48973 13.0902 4.39973C13.1502 4.30973 13.2402 4.23973 13.3502 4.19973L14.7302 3.74973C15.1502 3.60973 15.5202 3.36973 15.8302 3.05973C16.1202 2.75973 16.3502 2.38973 16.5002 1.98973V1.95973L16.9502 0.579727C16.9902 0.479727 17.0602 0.379727 17.1502 0.319727C17.2402 0.249727 17.3502 0.219727 17.4602 0.219727C17.5702 0.219727 17.6802 0.259727 17.7702 0.319727C17.8602 0.379727 17.9302 0.469727 17.9702 0.579727L18.4202 1.95973C18.5602 2.37973 18.8002 2.75973 19.1102 3.06973C19.4202 3.38973 19.8002 3.61973 20.2202 3.75973L21.6002 4.20973H21.6302C21.7302 4.24973 21.8202 4.31973 21.8902 4.40973C21.9602 4.49973 21.9902 4.60973 21.9902 4.71973C21.9902 4.82973 21.9602 4.93973 21.8902 5.02973C21.8302 5.11973 21.7402 5.18973 21.6302 5.22973L20.2502 5.67973C19.8302 5.81973 19.4502 6.05973 19.1402 6.36973C18.8202 6.67973 18.5902 7.05973 18.4502 7.47973L17.9902 8.85973V8.88973C17.9502 8.97973 17.8802 9.05973 17.8002 9.11973C17.7102 9.18973 17.6002 9.21973 17.4902 9.21973C17.3802 9.21973 17.2702 9.18973 17.1802 9.11973C17.0902 9.05973 17.0202 8.96973 16.9802 8.85973L16.5302 7.47973C16.4302 7.16973 16.2802 6.87973 16.0802 6.62973ZM23.7802 10.4297L23.0102 10.1897C22.7702 10.1097 22.5602 9.97973 22.3902 9.80973C22.2202 9.62973 22.0902 9.41973 22.0102 9.18973L21.7602 8.42973C21.7402 8.36973 21.7002 8.31973 21.6502 8.27973C21.6002 8.23973 21.5402 8.21973 21.4802 8.21973C21.4202 8.21973 21.3602 8.23973 21.3102 8.27973C21.2602 8.31973 21.2202 8.36973 21.2002 8.42973L20.9502 9.18973C20.8802 9.41973 20.7502 9.62973 20.5802 9.79973C20.4102 9.96973 20.2002 10.0997 19.9702 10.1797L19.2002 10.4297C19.1402 10.4497 19.0902 10.4897 19.0502 10.5397C19.0102 10.5897 18.9902 10.6497 18.9902 10.7097C18.9902 10.7697 19.0102 10.8297 19.0502 10.8797C19.0902 10.9297 19.1402 10.9697 19.2002 10.9897L19.9702 11.2397C20.2002 11.3097 20.4202 11.4497 20.5902 11.6197C20.7602 11.7897 20.8902 12.0097 20.9702 12.2397L21.2202 12.9997C21.2402 13.0597 21.2802 13.1097 21.3302 13.1497C21.3802 13.1897 21.4402 13.2097 21.5002 13.2097C21.5602 13.2097 21.6202 13.1897 21.6702 13.1497C21.7202 13.1097 21.7602 13.0597 21.7802 12.9997L22.0302 12.2397C22.1102 11.9997 22.2402 11.7897 22.4102 11.6197C22.5902 11.4497 22.8002 11.3197 23.0302 11.2397L23.8002 10.9897C23.8602 10.9697 23.9102 10.9297 23.9502 10.8797C23.9902 10.8297 24 10.7697 24 10.7097C24 10.6497 23.9902 10.5897 23.9502 10.5397C23.9107 10.4903 23.8438 10.4607 23.7802 10.4297ZM19.54 12.7097L19.8 13.5097C19.85 13.6497 19.92 13.7597 20 13.8797V19.9597C20 21.1997 18.99 22.2097 17.75 22.2097H6.25C5.01 22.2097 4 21.1997 4 19.9597V4.45972C4 3.21972 5.01 2.20972 6.25 2.20972H14.51C14.44 2.24972 14.36 2.28972 14.29 2.31972L12.87 2.77972C12.47 2.92972 12.12 3.17972 11.88 3.52972C11.63 3.87972 11.5 4.27972 11.5 4.70972C11.5 5.13972 11.63 5.54972 11.87 5.88972C11.9477 6.00201 12.0479 6.09192 12.1446 6.17877C12.1598 6.19247 12.175 6.20609 12.19 6.21972H7.75C7.34 6.21972 7 6.55972 7 6.96972C7 7.37972 7.34 7.71972 7.75 7.71972H14.99C15.0011 7.7391 15.0129 7.75849 15.0249 7.77809C15.0562 7.82926 15.0883 7.88187 15.11 7.93972L15.57 9.34972C15.71 9.74972 15.97 10.0897 16.32 10.3397C16.67 10.5797 17.08 10.7097 17.5 10.7097C17.5 11.0797 17.61 11.4397 17.83 11.7497C18.05 12.0597 18.35 12.2797 18.74 12.4197L19.54 12.7097ZM7.75 17.7097H16.25C16.66 17.7097 17 17.3697 17 16.9597C17 16.5497 16.66 16.2097 16.25 16.2097H7.75C7.34 16.2097 7 16.5497 7 16.9597C7 17.3697 7.34 17.7097 7.75 17.7097ZM7.75 12.7097H16.25C16.66 12.7097 17 12.3697 17 11.9597C17 11.5497 16.66 11.2097 16.25 11.2097H7.75C7.34 11.2097 7 11.5497 7 11.9597C7 12.3697 7.34 12.7097 7.75 12.7097Z" fill="currentColor"/>
</svg>
