<svg width="24" height="24" viewBox="0 0 24 24" fill="none" xmlns="http://www.w3.org/2000/svg">
<path d="M12 2V8C12 9.10457 12.8954 10 14 10H20V20C20 21.1046 19.1046 22 18 22H9.4893L12.6601 18.8292C14.4045 17.0848 14.4045 14.2566 12.6601 12.5123C11.1251 10.9772 8.75083 10.793 7.01436 11.9596C6.11263 11.3538 5.03889 11.1123 4 11.235V4C4 2.89543 4.89543 2 6 2H12ZM13.5 2.5V8C13.5 8.27614 13.7239 8.5 14 8.5H19.5L13.5 2.5ZM7.01436 22.75C6.82237 22.75 6.6304 22.6768 6.48398 22.5303L2.07568 18.122C0.721843 16.7682 0.721843 14.5732 2.07568 13.2194C3.42952 11.8655 5.62453 11.8655 6.97837 13.2194L7.01436 13.2554L7.05036 13.2194C8.4042 11.8655 10.5992 11.8655 11.953 13.2194C13.3069 14.5732 13.3069 16.7682 11.953 18.122L7.54475 22.5303C7.39832 22.6768 7.20636 22.75 7.01436 22.75Z" fill="currentColor"/>
</svg>
