<svg width="24" height="24" viewBox="0 0 24 24" fill="none" xmlns="http://www.w3.org/2000/svg">
<path d="M13.9393 4.99987L19.0003 10.0609L9.0621 19.999C8.78522 20.2758 8.44089 20.4757 8.06312 20.5787L2.94743 21.9739C2.38756 22.1266 1.87383 21.6128 2.02652 21.053L3.42171 15.9373C3.52474 15.5595 3.72456 15.2152 4.00144 14.9383L13.9393 4.99987ZM6.5251 10.9999L5.0251 12.4999L2.7501 12.5003C2.33588 12.5003 2.0001 12.1645 2.0001 11.7503C2.0001 11.3361 2.33588 11.0003 2.7501 11.0003L6.5251 10.9999ZM20.8775 2.82559L21.0304 2.96997L21.1748 3.12294C22.4261 4.52817 22.378 6.68308 21.0304 8.03063L20.0603 8.99988L14.9993 3.93987L15.9698 2.96997C17.3173 1.62242 19.4722 1.57429 20.8775 2.82559ZM10.5251 6.99988L9.0251 8.49988L2.7501 8.5003C2.33588 8.5003 2.0001 8.16452 2.0001 7.7503C2.0001 7.33609 2.33588 7.0003 2.7501 7.0003L10.5251 6.99988ZM14.5251 2.99988L13.0251 4.49987L2.7501 4.5003C2.33588 4.5003 2.0001 4.16452 2.0001 3.7503C2.0001 3.33609 2.33588 3.0003 2.7501 3.0003L14.5251 2.99988Z" fill="#2A2A2A"/>
</svg>
