<svg width="24" height="24" viewBox="0 0 24 24" fill="none" xmlns="http://www.w3.org/2000/svg">
<path d="M20.8775 2.82559L21.0304 2.96997L21.1748 3.12294C22.4261 4.52817 22.378 6.68308 21.0304 8.03063L9.0621 19.999C8.78522 20.2758 8.44089 20.4757 8.06312 20.5787L2.94743 21.9739C2.38756 22.1266 1.87383 21.6128 2.02652 21.053L3.42171 15.9373C3.52474 15.5595 3.72456 15.2152 4.00144 14.9383L15.9698 2.96997C17.3173 1.62242 19.4722 1.57429 20.8775 2.82559ZM15.0003 6.06088L5.0621 15.999C4.96981 16.0913 4.9032 16.206 4.86886 16.332L3.81901 20.1814L7.66845 19.1315C7.79437 19.0972 7.90915 19.0306 8.00144 18.9383L17.9393 8.99988L15.0003 6.06088ZM6.5251 10.9999L5.0251 12.4999L2.7501 12.5003C2.33588 12.5003 2.0001 12.1645 2.0001 11.7503C2.0001 11.3361 2.33588 11.0003 2.7501 11.0003L6.5251 10.9999ZM10.5251 6.99988L9.0251 8.49988L2.7501 8.5003C2.33588 8.5003 2.0001 8.16452 2.0001 7.7503C2.0001 7.33609 2.33588 7.0003 2.7501 7.0003L10.5251 6.99988ZM17.0304 4.03063L16.0603 4.99987L18.9993 7.93988L19.9698 6.96997C20.7814 6.1583 20.7814 4.84231 19.9698 4.03063C19.1581 3.21896 17.8421 3.21896 17.0304 4.03063ZM14.5251 2.99988L13.0251 4.49987L2.7501 4.5003C2.33588 4.5003 2.0001 4.16452 2.0001 3.7503C2.0001 3.33609 2.33588 3.0003 2.7501 3.0003L14.5251 2.99988Z" fill="currentColor"/>
</svg>
