<svg width="24" height="24" viewBox="0 0 24 24" fill="none" xmlns="http://www.w3.org/2000/svg">
<path d="M11.9999 16.0005C12.5128 16.0005 12.9354 16.3865 12.9932 16.8839L12.9999 17.0005V18.5845L13.2928 18.2934C13.6533 17.9329 14.2206 17.9052 14.6128 18.2102L14.707 18.2934C15.0675 18.6539 15.0953 19.2211 14.7902 19.6134L14.707 19.7076L12.707 21.7076L12.6631 21.749L12.5952 21.8042L12.484 21.8758L12.3713 21.9293L12.2659 21.9646L12.1484 21.9895L12.0592 21.9987H11.9406L11.8819 21.9936L11.7664 21.9731L11.6583 21.9406L11.5767 21.9068L11.4792 21.8545L11.3832 21.7877C11.3515 21.7628 11.3213 21.7361 11.2928 21.7076L9.29284 19.7076C8.90231 19.3171 8.90231 18.6839 9.29284 18.2934C9.65332 17.9329 10.2206 17.9052 10.6128 18.2102L10.707 18.2934L10.9999 18.5855V17.0005C10.9999 16.4876 11.386 16.065 11.8833 16.0072L11.9999 16.0005ZM18.2928 9.29338C18.6533 8.93289 19.2206 8.90516 19.6128 9.21019L19.7071 9.29338L21.7071 11.2934L21.7484 11.3373L21.8036 11.4052L21.8753 11.5164L21.9287 11.6291L21.9641 11.7345L21.9889 11.852L21.9982 11.9412V12.0598L21.9931 12.1179L21.9725 12.234L21.94 12.3422L21.9063 12.4237L21.8539 12.5212L21.7803 12.6259L21.7071 12.7076L19.7071 14.7076C19.3165 15.0981 18.6834 15.0981 18.2928 14.7076C17.9324 14.3471 17.9046 13.7799 18.2096 13.3876L18.2928 13.2934L18.5839 13.0005H16.9999C16.4871 13.0005 16.0644 12.6144 16.0067 12.1171L15.9999 12.0005C15.9999 11.4876 16.386 11.065 16.8833 11.0072L16.9999 11.0005H18.5849L18.2928 10.7076C17.9324 10.3471 17.9046 9.77988 18.2096 9.38759L18.2928 9.29338ZM4.29284 9.29338C4.68336 8.90285 5.31652 8.90285 5.70705 9.29338C6.06753 9.65386 6.09526 10.2211 5.79024 10.6134L5.70705 10.7076L5.41394 11.0005H6.99994C7.51278 11.0005 7.93545 11.3865 7.99321 11.8839L7.99994 12.0005C7.99994 12.5133 7.6139 12.936 7.11656 12.9938L6.99994 13.0005H5.41494L5.70705 13.2934C6.06753 13.6539 6.09526 14.2211 5.79024 14.6134L5.70705 14.7076C5.34656 15.0681 4.77933 15.0958 4.38704 14.7908L4.29284 14.7076L2.29283 12.7076L2.19628 12.5958L2.12461 12.4845L2.07117 12.3718L2.03579 12.2665L2.01096 12.149L2.00356 12.0857L2.00012 11.9813L2.00391 11.9112L2.02018 11.7998L2.04968 11.6883L2.09362 11.5773L2.14594 11.4798L2.21273 11.3837C2.23761 11.352 2.26437 11.3218 2.29283 11.2934L4.29284 9.29338ZM11.9999 9.25049C13.5187 9.25049 14.7499 10.4817 14.7499 12.0005C14.7499 13.5193 13.5187 14.7505 11.9999 14.7505C10.4812 14.7505 9.24994 13.5193 9.24994 12.0005C9.24994 10.4817 10.4812 9.25049 11.9999 9.25049ZM11.8515 2.0115L11.9248 2.00327L12.0543 2.00195L12.1746 2.01577L12.3121 2.05022L12.4232 2.09416L12.5207 2.14648L12.6254 2.22017L12.707 2.29338L14.707 4.29338C15.0976 4.6839 15.0976 5.31707 14.707 5.70759C14.3466 6.06808 13.7793 6.09581 13.387 5.79078L13.2928 5.70759L12.9999 5.41549V7.00049C12.9999 7.51332 12.6139 7.93599 12.1166 7.99376L11.9999 8.00049C11.4871 8.00049 11.0644 7.61445 11.0067 7.11711L10.9999 7.00049V5.41449L10.707 5.70759C10.3466 6.06808 9.77933 6.09581 9.38704 5.79078L9.29284 5.70759C8.93235 5.34711 8.90462 4.77988 9.20965 4.38759L9.29284 4.29338L11.2928 2.29338L11.4046 2.19682L11.5159 2.12516L11.6286 2.07171L11.7339 2.03633L11.8515 2.0115Z" fill="#2A2A2A"/>
</svg>
