<svg width="24" height="24" viewBox="0 0 24 24" fill="none" xmlns="http://www.w3.org/2000/svg">
<path d="M20.2522 4.00341C21.2187 4.00341 22.0022 4.78692 22.0022 5.75341V18.2485C22.0022 19.215 21.2187 19.9985 20.2522 19.9985H13.0047C12.9179 19.9985 12.8326 19.9922 12.7492 19.98L12.7491 4.02194C12.8325 4.00974 12.9178 4.00341 13.0047 4.00341H20.2522ZM18.1708 9.41435C18.0438 9.16026 17.7841 8.99976 17.5 8.99976C17.2159 8.99976 16.9562 9.16026 16.8292 9.41435L14.5792 13.9143C14.4629 14.1468 14.4754 14.4229 14.612 14.6441C14.7487 14.8652 14.9901 14.9998 15.25 14.9998H19.75C20.0099 14.9998 20.2513 14.8652 20.388 14.6441C20.5246 14.4229 20.5371 14.1468 20.4208 13.9143L18.1708 9.41435ZM11.0047 4.00098C11.088 4.00098 11.17 4.0068 11.2502 4.01807L11.2499 19.9791C11.1698 19.9903 11.0879 19.9961 11.0047 19.9961H3.75708C2.79058 19.9961 2.00708 19.2126 2.00708 18.2461V5.75098C2.00708 4.78448 2.79058 4.00098 3.75708 4.00098H11.0047ZM7.17082 9.41435C7.04378 9.16026 6.78408 8.99976 6.5 8.99976C6.21592 8.99976 5.95622 9.16026 5.82918 9.41435L3.57918 13.9143C3.46293 14.1468 3.47536 14.4229 3.61201 14.6441C3.74867 14.8652 3.99007 14.9998 4.25 14.9998H8.75C9.00993 14.9998 9.25133 14.8652 9.38799 14.6441C9.52464 14.4229 9.53707 14.1468 9.42082 13.9143L7.17082 9.41435Z" fill="#2A2A2A"/>
</svg>
