<svg width="24" height="24" viewBox="0 0 24 24" fill="none" xmlns="http://www.w3.org/2000/svg">
<path d="M10.9454 2.04712L10.9504 2.05443C11.2953 2.01845 11.6455 2 12 2C17.5228 2 22 6.47715 22 12C22 17.5228 17.5228 22 12 22C8.79072 22 5.93454 20.4882 4.10476 18.1379L4.10219 18.1374L4.10267 18.1353C2.78484 16.4414 2 14.3123 2 12C2 6.83804 5.91116 2.58957 10.9317 2.05639L10.9454 2.04712ZM12 3.5C11.9468 3.5 11.8936 3.50049 11.8406 3.50146C11.9632 3.74566 12.0949 4.0343 12.2144 4.35179C12.5613 5.27352 12.8802 6.6329 12.3143 7.83787C11.7917 8.95068 10.8896 9.23859 10.2242 9.41051L10.1395 9.43235C9.48319 9.60154 9.23081 9.6666 9.04671 9.9461C8.87773 10.2026 8.90333 10.5284 9.10809 11.1957C9.12248 11.2426 9.13805 11.2922 9.15429 11.3439C9.2354 11.6023 9.33316 11.9138 9.38413 12.2067C9.44753 12.5711 9.46544 13.0344 9.23208 13.4822C9.00059 13.9264 8.69375 14.2292 8.3312 14.4267C7.99065 14.6123 7.63794 14.6826 7.37405 14.7294L7.28108 14.7458C6.76621 14.8364 6.51992 14.8798 6.28005 15.1368C6.09385 15.3362 5.97367 15.6885 5.90349 16.2149C5.87492 16.4291 5.85774 16.6415 5.83998 16.8611L5.83044 16.9782C5.81046 17.2205 5.78569 17.4994 5.7312 17.7388L5.73091 17.7402C7.28488 19.4364 9.51823 20.5 12 20.5C13.577 20.5 15.0537 20.0705 16.3195 19.3222C16.2212 19.222 16.1144 19.1044 16.0091 18.9718C15.6696 18.5444 15.2243 17.8081 15.3788 16.939C15.453 16.5211 15.677 16.1712 15.8935 15.9029C16.1141 15.6295 16.3803 15.3769 16.6131 15.1626C16.6684 15.1117 16.7214 15.0633 16.7722 15.0169C16.9504 14.8542 17.1018 14.7159 17.2314 14.5802C17.4042 14.3991 17.4418 14.3175 17.4438 14.3133C17.5117 14.0886 17.4284 13.9294 17.3377 13.8592C17.2921 13.824 17.2309 13.7984 17.1479 13.7978C17.0641 13.7971 16.9282 13.8222 16.7468 13.9372C16.5371 14.07 16.232 14.152 15.911 14.0228C15.6436 13.9151 15.4955 13.709 15.4244 13.5914C15.2805 13.3535 15.1996 13.0452 15.147 12.8191C15.1064 12.6447 15.0676 12.4467 15.0323 12.2661C15.0181 12.1938 15.0045 12.1242 14.9915 12.0601C14.941 11.8103 14.8984 11.6318 14.8574 11.5209C14.8568 11.5195 14.8518 11.5073 14.8382 11.4825C14.8235 11.4555 14.8026 11.421 14.7742 11.3777C14.7162 11.2894 14.6404 11.1857 14.5465 11.0613C14.5124 11.0161 14.4757 10.968 14.4373 10.9176C14.2762 10.7064 14.0842 10.4548 13.921 10.206C13.7252 9.90761 13.5039 9.51768 13.4339 9.10184C13.3968 8.88146 13.3974 8.62694 13.4889 8.36839C13.5825 8.10363 13.7535 7.88589 13.9754 7.7194C14.4588 7.35683 15.169 6.54683 15.7988 5.76036C16.0864 5.40123 16.3434 5.06476 16.5347 4.80938C15.2224 3.98001 13.6672 3.5 12 3.5ZM17.7274 5.71921C17.5298 5.98266 17.2658 6.32814 16.9696 6.69797C16.3679 7.44937 15.5703 8.38281 14.9201 8.88539C14.9455 8.98427 15.0204 9.14727 15.1751 9.38298C15.3062 9.58278 15.456 9.77946 15.6141 9.98695C15.6567 10.0428 15.7002 10.0999 15.7437 10.1576C15.9161 10.386 16.155 10.7047 16.2646 11.0014C16.3508 11.2349 16.4127 11.52 16.4618 11.7628C16.4791 11.8485 16.4951 11.9304 16.5105 12.0092C16.536 12.1396 16.5599 12.2616 16.5853 12.3786C17.187 12.2069 17.7871 12.3106 18.2553 12.6726C18.8639 13.1432 19.118 13.9589 18.8797 14.7472C18.7703 15.1089 18.5157 15.4071 18.3165 15.6159C18.1475 15.7929 17.9449 15.9777 17.7612 16.1452C17.7158 16.1867 17.6712 16.2274 17.6289 16.2663C17.3989 16.478 17.2055 16.6656 17.061 16.8447C16.9124 17.0289 16.8658 17.144 16.8556 17.2014C16.8168 17.4199 16.9232 17.7109 17.1837 18.0388C17.3018 18.1875 17.4276 18.3128 17.5252 18.4015C17.5367 18.4119 17.5478 18.4218 17.5582 18.431C19.36 16.8724 20.5 14.5693 20.5 12C20.5 9.512 19.431 7.27366 17.7274 5.71921ZM3.5 12C3.5 13.3984 3.83767 14.7178 4.43592 15.8814C4.52081 15.324 4.69795 14.6334 5.18354 14.1132C5.78336 13.4706 6.51915 13.3501 6.98167 13.2744C7.02795 13.2668 7.07175 13.2596 7.11215 13.2525C7.35983 13.2085 7.50307 13.1697 7.61358 13.1095C7.70209 13.0613 7.8014 12.9818 7.90187 12.789C7.91674 12.7605 7.94419 12.6815 7.90633 12.4638C7.87391 12.2775 7.81312 12.0826 7.73358 11.8276C7.71482 11.7674 7.69481 11.7033 7.67409 11.6357C7.48894 11.0324 7.19301 10.0335 7.79404 9.12099C8.31568 8.32904 9.1547 8.12658 9.68731 7.99806C9.74506 7.98412 9.7992 7.97106 9.84895 7.9582C10.4119 7.81276 10.7322 7.67794 10.9566 7.20026C11.2519 6.57127 11.1249 5.71532 10.8105 4.88019C10.6615 4.48421 10.4866 4.13625 10.3481 3.88653C10.3046 3.80813 10.2651 3.74015 10.2317 3.68419C6.38597 4.49793 3.5 7.91193 3.5 12Z" fill="#2A2A2A"/>
</svg>
