<svg width="24" height="24" viewBox="0 0 24 24" fill="none" xmlns="http://www.w3.org/2000/svg">
<path d="M16.5 22.9997C19.5376 22.9997 22 20.5372 22 17.4997C22 14.4621 19.5376 11.9997 16.5 11.9997C13.4624 11.9997 11 14.4621 11 17.4997C11 20.5372 13.4624 22.9997 16.5 22.9997ZM15.3536 14.6461C15.5488 14.8414 15.5488 15.158 15.3536 15.3532L14.7071 15.9997H16.75C18.5449 15.9997 20 17.4547 20 19.2497V19.4997C20 19.7758 19.7761 19.9997 19.5 19.9997C19.2239 19.9997 19 19.7758 19 19.4997V19.2497C19 18.007 17.9926 16.9997 16.75 16.9997H14.7071L15.3536 17.6461C15.5488 17.8414 15.5488 18.158 15.3536 18.3532C15.1583 18.5485 14.8417 18.5485 14.6464 18.3532L13.1464 16.8532C12.9512 16.658 12.9512 16.3414 13.1464 16.1461L14.6464 14.6461C14.8417 14.4508 15.1583 14.4508 15.3536 14.6461ZM15.8911 3.04727C17.2885 1.64967 19.5543 1.6496 20.9519 3.04712C22.3493 4.44453 22.3493 6.71015 20.952 8.10763L20.0601 8.99962L14.9995 3.93896L15.8911 3.04727ZM13.9389 4.99969L3.94103 14.9987C3.5347 15.4051 3.2491 15.9162 3.116 16.4753L2.02041 21.0767C1.96009 21.3301 2.03552 21.5966 2.21968 21.7808C2.40385 21.9649 2.67037 22.0404 2.92373 21.98L7.52498 20.8845C8.08418 20.7514 8.59546 20.4656 9.00191 20.0591L10.153 18.9079C10.0528 18.4545 10 17.9832 10 17.4997C10 13.9098 12.9101 10.9997 16.5 10.9997C16.9833 10.9997 17.4543 11.0524 17.9075 11.1525L18.9995 10.0603L13.9389 4.99969Z" fill="currentColor"/>
</svg>
