<svg width="24" height="24" viewBox="0 0 24 24" fill="none" xmlns="http://www.w3.org/2000/svg">
<path d="M17.5001 12.0001C20.5377 12.0001 23.0001 14.4625 23.0001 17.5001C23.0001 20.5376 20.5377 23.0001 17.5001 23.0001C14.4625 23.0001 12.0001 20.5376 12.0001 17.5001C12.0001 14.4625 14.4625 12.0001 17.5001 12.0001ZM12.0001 1.99902C17.5238 1.99902 22.0016 6.47687 22.0016 12.0006C22.0016 12.2638 21.9915 12.5247 21.9715 12.7828C21.5336 12.3672 21.0377 12.0122 20.4973 11.7308C20.3552 7.16063 16.6053 3.49902 12.0001 3.49902C7.30481 3.49902 3.49854 7.3053 3.49854 12.0006C3.49854 16.6061 7.16068 20.3563 11.7318 20.498C12.0126 21.0382 12.3674 21.5338 12.7826 21.9717C12.5248 21.9919 12.2637 22.0021 12.0001 22.0021C6.47638 22.0021 1.99854 17.5243 1.99854 12.0006C1.99854 6.47687 6.47638 1.99902 12.0001 1.99902ZM17.5001 13.9993L17.4102 14.0073C17.2061 14.0444 17.0452 14.2053 17.0081 14.4094L17.0001 14.4993L16.9997 16.9993L14.4977 17.0001L14.4079 17.0081C14.2038 17.0452 14.0428 17.2061 14.0058 17.4102L13.9977 17.5001L14.0058 17.5899C14.0428 17.794 14.2038 17.955 14.4079 17.992L14.4977 18.0001L17.0007 17.9993L17.0012 20.5035L17.0092 20.5934C17.0463 20.7975 17.2072 20.9584 17.4113 20.9955L17.5012 21.0035L17.5911 20.9955C17.7952 20.9584 17.9561 20.7975 17.9931 20.5934L18.0012 20.5035L18.0007 17.9993L20.5047 18.0001L20.5945 17.992C20.7986 17.955 20.9596 17.794 20.9966 17.5899L21.0047 17.5001L20.9966 17.4102C20.9596 17.2061 20.7986 17.0452 20.5945 17.0081L20.5047 17.0001L17.9997 16.9993L18.0001 14.4993L17.992 14.4094C17.955 14.2053 17.7941 14.0444 17.59 14.0073L17.5001 13.9993ZM8.46183 14.7839C9.12318 15.6233 10.0526 16.1975 11.0919 16.4104C11.0313 16.7639 11.0001 17.1283 11.0001 17.5001C11.0001 17.6409 11.0046 17.7808 11.0134 17.9194C9.53821 17.6767 8.21137 16.8897 7.2836 15.7122C7.02725 15.3869 7.08319 14.9153 7.40855 14.6589C7.73391 14.4026 8.20548 14.4585 8.46183 14.7839ZM9.00053 8.75121C9.6905 8.75121 10.2498 9.31054 10.2498 10.0005C10.2498 10.6905 9.6905 11.2498 9.00053 11.2498C8.31057 11.2498 7.75124 10.6905 7.75124 10.0005C7.75124 9.31054 8.31057 8.75121 9.00053 8.75121ZM15.0005 8.75121C15.6905 8.75121 16.2498 9.31054 16.2498 10.0005C16.2498 10.6905 15.6905 11.2498 15.0005 11.2498C14.3106 11.2498 13.7512 10.6905 13.7512 10.0005C13.7512 9.31054 14.3106 8.75121 15.0005 8.75121Z" fill="currentColor"/>
</svg>
