<svg width="24" height="24" viewBox="0 0 24 24" fill="none" xmlns="http://www.w3.org/2000/svg">
<path d="M10.2498 10.0005C10.2498 9.31054 9.6905 8.75121 9.00053 8.75121C8.31057 8.75121 7.75124 9.31054 7.75124 10.0005C7.75124 10.6905 8.31057 11.2498 9.00053 11.2498C9.6905 11.2498 10.2498 10.6905 10.2498 10.0005ZM16.2498 10.0005C16.2498 9.31054 15.6905 8.75121 15.0005 8.75121C14.3106 8.75121 13.7512 9.31054 13.7512 10.0005C13.7512 10.6905 14.3106 11.2498 15.0005 11.2498C15.6905 11.2498 16.2498 10.6905 16.2498 10.0005ZM10.136 15.107C9.78086 14.8939 9.32016 15.0091 9.10705 15.3643C8.89394 15.7194 9.00911 16.1801 9.3643 16.3933C10.1311 16.8534 11.0846 17.0626 12.0002 17.0626C12.9157 17.0627 13.8692 16.8534 14.636 16.3934C14.9912 16.1803 15.1064 15.7197 14.8933 15.3645C14.6802 15.0093 14.2196 14.894 13.8644 15.1071C13.3812 15.397 12.7096 15.5627 12.0002 15.5626C11.2908 15.5626 10.6192 15.3969 10.136 15.107ZM22.0016 12.0006C22.0016 6.47687 17.5238 1.99902 12.0001 1.99902C6.47638 1.99902 1.99854 6.47687 1.99854 12.0006C1.99854 17.5243 6.47638 22.0021 12.0001 22.0021C17.5238 22.0021 22.0016 17.5243 22.0016 12.0006ZM3.49854 12.0006C3.49854 7.3053 7.30481 3.49902 12.0001 3.49902C16.6954 3.49902 20.5016 7.3053 20.5016 12.0006C20.5016 16.6959 16.6954 20.5021 12.0001 20.5021C7.30481 20.5021 3.49854 16.6959 3.49854 12.0006Z" fill="#2A2A2A"/>
</svg>
