<svg width="24" height="24" viewBox="0 0 24 24" fill="none" xmlns="http://www.w3.org/2000/svg">
<path d="M22.0016 12.0006C22.0016 6.47687 17.5238 1.99902 12.0001 1.99902C6.47638 1.99902 1.99854 6.47687 1.99854 12.0006C1.99854 17.5243 6.47638 22.0021 12.0001 22.0021C17.5238 22.0021 22.0016 17.5243 22.0016 12.0006ZM7.75124 10.0005C7.75124 9.31054 8.31057 8.75121 9.00053 8.75121C9.6905 8.75121 10.2498 9.31054 10.2498 10.0005C10.2498 10.6905 9.6905 11.2498 9.00053 11.2498C8.31057 11.2498 7.75124 10.6905 7.75124 10.0005ZM13.7512 10.0005C13.7512 9.31054 14.3106 8.75121 15.0005 8.75121C15.6905 8.75121 16.2498 9.31054 16.2498 10.0005C16.2498 10.6905 15.6905 11.2498 15.0005 11.2498C14.3106 11.2498 13.7512 10.6905 13.7512 10.0005ZM10.1359 15.1069C10.619 15.3968 11.2906 15.5625 12 15.5625C12.7094 15.5625 13.381 15.3968 13.8642 15.107C14.2194 14.8939 14.6801 15.0091 14.8932 15.3643C15.1062 15.7195 14.991 16.1802 14.6358 16.3933C13.869 16.8533 12.9156 17.0625 12 17.0625C11.0844 17.0625 10.131 16.8532 9.36413 16.3931C9.00894 16.18 8.89377 15.7193 9.10688 15.3641C9.31999 15.0089 9.78069 14.8938 10.1359 15.1069Z" fill="#2A2A2A"/>
</svg>
