<svg width="24" height="24" viewBox="0 0 24 24" fill="none" xmlns="http://www.w3.org/2000/svg">
<path d="M12 1.99902C17.5237 1.99902 22.0015 6.47687 22.0015 12.0006C22.0015 17.5243 17.5237 22.0021 12 22.0021C6.47626 22.0021 1.99841 17.5243 1.99841 12.0006C1.99841 6.47687 6.47626 1.99902 12 1.99902ZM12 13.498C10.3651 13.498 8.83293 14.1559 7.71171 15.3008C7.42191 15.5968 7.42689 16.0716 7.72284 16.3614C8.01879 16.6512 8.49363 16.6463 8.78344 16.3503C9.62531 15.4906 10.7726 14.998 12 14.998C13.2247 14.998 14.3696 15.4884 15.2111 16.3448C15.5014 16.6403 15.9762 16.6444 16.2717 16.3541C16.5672 16.0638 16.5713 15.5889 16.281 15.2935C15.1603 14.153 13.6312 13.498 12 13.498ZM9.00041 8.75121C8.31045 8.75121 7.75112 9.31054 7.75112 10.0005C7.75112 10.6905 8.31045 11.2498 9.00041 11.2498C9.69037 11.2498 10.2497 10.6905 10.2497 10.0005C10.2497 9.31054 9.69037 8.75121 9.00041 8.75121ZM15.0004 8.75121C14.3104 8.75121 13.7511 9.31054 13.7511 10.0005C13.7511 10.6905 14.3104 11.2498 15.0004 11.2498C15.6904 11.2498 16.2497 10.6905 16.2497 10.0005C16.2497 9.31054 15.6904 8.75121 15.0004 8.75121Z" fill="currentColor"/>
</svg>
