<svg width="24" height="24" viewBox="0 0 24 24" fill="none" xmlns="http://www.w3.org/2000/svg">
<path d="M12.0001 1.99902C17.5238 1.99902 22.0016 6.47687 22.0016 12.0006C22.0016 17.5243 17.5238 22.0021 12.0001 22.0021C6.47638 22.0021 1.99854 17.5243 1.99854 12.0006C1.99854 6.47687 6.47638 1.99902 12.0001 1.99902ZM12.0001 3.49902C7.30481 3.49902 3.49854 7.3053 3.49854 12.0006C3.49854 16.6959 7.30481 20.5021 12.0001 20.5021C16.6954 20.5021 20.5016 16.6959 20.5016 12.0006C20.5016 7.3053 16.6954 3.49902 12.0001 3.49902ZM12.0001 13.498C13.6313 13.498 15.1605 14.153 16.2811 15.2935C16.5714 15.5889 16.5673 16.0638 16.2718 16.3541C15.9764 16.6444 15.5015 16.6403 15.2112 16.3448C14.3697 15.4884 13.2248 14.998 12.0001 14.998C10.7727 14.998 9.62544 15.4906 8.78356 16.3503C8.49376 16.6463 8.01891 16.6512 7.72296 16.3614C7.42701 16.0716 7.42203 15.5968 7.71184 15.3008C8.83305 14.1559 10.3652 13.498 12.0001 13.498ZM9.00053 8.75121C9.6905 8.75121 10.2498 9.31054 10.2498 10.0005C10.2498 10.6905 9.6905 11.2498 9.00053 11.2498C8.31057 11.2498 7.75124 10.6905 7.75124 10.0005C7.75124 9.31054 8.31057 8.75121 9.00053 8.75121ZM15.0005 8.75121C15.6905 8.75121 16.2498 9.31054 16.2498 10.0005C16.2498 10.6905 15.6905 11.2498 15.0005 11.2498C14.3106 11.2498 13.7512 10.6905 13.7512 10.0005C13.7512 9.31054 14.3106 8.75121 15.0005 8.75121Z" fill="currentColor"/>
</svg>
