<svg width="24" height="24" viewBox="0 0 24 24" fill="none" xmlns="http://www.w3.org/2000/svg">
<path d="M22.0016 12.0006C22.0016 6.47687 17.5238 1.99902 12.0001 1.99902C6.47638 1.99902 1.99854 6.47687 1.99854 12.0006C1.99854 17.5243 6.47638 22.0021 12.0001 22.0021C17.5238 22.0021 22.0016 17.5243 22.0016 12.0006ZM7.75124 10.0005C7.75124 9.31054 8.31057 8.75121 9.00053 8.75121C9.6905 8.75121 10.2498 9.31054 10.2498 10.0005C10.2498 10.6905 9.6905 11.2498 9.00053 11.2498C8.31057 11.2498 7.75124 10.6905 7.75124 10.0005ZM13.7512 10.0005C13.7512 9.31054 14.3106 8.75121 15.0005 8.75121C15.6905 8.75121 16.2498 9.31054 16.2498 10.0005C16.2498 10.6905 15.6905 11.2498 15.0005 11.2498C14.3106 11.2498 13.7512 10.6905 13.7512 10.0005ZM15.75 14H16.35C16.7642 14 17.1 14.3358 17.1 14.75C17.1 15.1642 16.7642 15.5 16.35 15.5H15.75C15.1317 15.5 14.4129 15.6607 13.7525 15.9177C13.0833 16.1781 12.5548 16.5058 12.2803 16.7803C11.9874 17.0732 11.5126 17.0732 11.2197 16.7803C10.9268 16.4874 10.9268 16.0126 11.2197 15.7197C11.6952 15.2442 12.4324 14.8219 13.2085 14.5198C13.9934 14.2143 14.8995 14 15.75 14Z" fill="#2A2A2A"/>
</svg>
