<svg width="24" height="24" viewBox="0 0 24 24" fill="none" xmlns="http://www.w3.org/2000/svg">
<path d="M10.2498 10.0005C10.2498 9.31054 9.6905 8.75121 9.00053 8.75121C8.31057 8.75121 7.75124 9.31054 7.75124 10.0005C7.75124 10.6905 8.31057 11.2498 9.00053 11.2498C9.6905 11.2498 10.2498 10.6905 10.2498 10.0005ZM16.2498 10.0005C16.2498 9.31054 15.6905 8.75121 15.0005 8.75121C14.3106 8.75121 13.7512 9.31054 13.7512 10.0005C13.7512 10.6905 14.3106 11.2498 15.0005 11.2498C15.6905 11.2498 16.2498 10.6905 16.2498 10.0005ZM15.7501 14.0001C14.8996 14.0001 13.9935 14.2144 13.2085 14.5199C12.4324 14.8219 11.6953 15.2442 11.2198 15.7197C10.9269 16.0126 10.9269 16.4875 11.2198 16.7804C11.5126 17.0733 11.9875 17.0733 12.2804 16.7804C12.5549 16.5059 13.0834 16.1782 13.7526 15.9177C14.413 15.6607 15.1318 15.5001 15.7501 15.5001H16.3501C16.7643 15.5001 17.1001 15.1643 17.1001 14.7501C17.1001 14.3358 16.7643 14.0001 16.3501 14.0001H15.7501ZM22.0016 12.0006C22.0016 6.47687 17.5238 1.99902 12.0001 1.99902C6.47638 1.99902 1.99854 6.47687 1.99854 12.0006C1.99854 17.5243 6.47638 22.0021 12.0001 22.0021C17.5238 22.0021 22.0016 17.5243 22.0016 12.0006ZM3.49854 12.0006C3.49854 7.3053 7.30481 3.49902 12.0001 3.49902C16.6954 3.49902 20.5016 7.3053 20.5016 12.0006C20.5016 16.6959 16.6954 20.5021 12.0001 20.5021C7.30481 20.5021 3.49854 16.6959 3.49854 12.0006Z" fill="currentColor"/>
</svg>
