<svg width="24" height="24" viewBox="0 0 24 24" fill="none" xmlns="http://www.w3.org/2000/svg">
<path d="M15.8411 2.66117C14.9679 1.77057 13.5369 1.76012 12.6509 2.63787L3.05249 12.1464C2.16109 13.0295 2.16423 14.4711 3.05948 15.3502L8.15853 20.3577C9.04271 21.226 10.4626 21.2159 11.3343 20.3351L11.549 20.1181C11.3207 19.6 11.1581 19.0464 11.0717 18.468L10.2681 19.2799C9.97755 19.5735 9.50426 19.5769 9.20954 19.2875L4.11048 14.28C3.81207 13.9869 3.81102 13.5064 4.10816 13.2121L5.63714 11.6974L11.0137 17.074C11.0534 16.4606 11.1781 15.8704 11.3762 15.3151L6.70279 10.6417L13.7066 3.70351C14.0019 3.41093 14.4789 3.41441 14.7699 3.71128L19.68 8.71954C19.9669 9.01216 19.9658 9.48088 19.6775 9.77216L18.4015 11.0615C18.9811 11.142 19.5363 11.2988 20.0566 11.5216L20.7437 10.8273C21.6085 9.95347 21.6118 8.54731 20.7511 7.66943L15.8411 2.66117Z" fill="#2A2A2A"/>
<path d="M17.5 11.9995C17.4911 11.9995 17.482 11.9996 17.4731 11.9996L17.5 11.9995Z" fill="#2A2A2A"/>
<path d="M17.5 22.9995C20.5376 22.9995 23 20.5371 23 17.4995C23 14.462 20.5376 11.9995 17.5 11.9995L17.4731 11.9996C14.9257 12.0118 12.7876 13.7558 12.1758 16.1147C12.0611 16.5572 12 17.0212 12 17.4995C12 18.146 12.1115 18.7665 12.3164 19.3426C13.0742 21.4737 15.1089 22.9995 17.5 22.9995Z" fill="#2A2A2A"/>
</svg>
