<svg width="24" height="24" viewBox="0 0 24 24" fill="none" xmlns="http://www.w3.org/2000/svg">
<path fill-rule="evenodd" clip-rule="evenodd" d="M2 5.20365C2 3.43432 3.43432 2 5.20365 2C6.97298 2 8.4073 3.43432 8.4073 5.20365V18.7963C8.4073 19.5979 8.11347 20.3298 7.62703 20.8918C7.03891 21.5712 6.1716 21.9999 5.20365 21.9999C3.43432 21.9999 2 20.5656 2 18.7963V5.20365ZM5.20365 17.4233C4.44537 17.4233 3.83066 18.038 3.83066 18.7963C3.83066 19.5546 4.44537 20.1693 5.20365 20.1693C5.96194 20.1693 6.57664 19.5546 6.57664 18.7963C6.57664 18.038 5.96194 17.4233 5.20365 17.4233Z" fill="currentColor"/>
<path d="M18.7963 22L7.79276 22C7.97859 21.8496 8.15103 21.6835 8.30802 21.5036L14.2189 15.5927H18.7963C20.5657 15.5927 22 17.027 22 18.7964C22 20.5657 20.5657 22 18.7963 22Z" fill="currentColor"/>
<path d="M13.3076 6.14826C14.5587 4.89715 16.5871 4.89715 17.8382 6.14826C19.0893 7.39936 19.0893 9.4278 17.8382 10.6789L9.30151 19.2156C9.31547 19.0777 9.32262 18.9378 9.32262 18.7963V10.1332L13.3076 6.14826Z" fill="currentColor"/>
</svg>
