<svg width="24" height="24" viewBox="0 0 24 24" fill="none" xmlns="http://www.w3.org/2000/svg">
<path fill-rule="evenodd" clip-rule="evenodd" d="M1.25 5.50877C1.25 3.15672 3.15671 1.25 5.50877 1.25C7.86082 1.25 9.76753 3.15671 9.76753 5.50877V8.19672L12.4346 5.52969C14.0977 3.86653 16.7942 3.86653 18.4574 5.52969C20.1205 7.19284 20.1205 9.88934 18.4574 11.5525L15.7774 14.2325H18.4912C20.8433 14.2325 22.75 16.1392 22.75 18.4912C22.75 20.8433 20.8433 22.75 18.4912 22.75L5.50877 22.75C3.15672 22.75 1.25 20.8433 1.25 18.4912V5.50877ZM8.75989 21.25L18.4912 21.25C20.0149 21.25 21.25 20.0149 21.25 18.4912C21.25 16.9676 20.0149 15.7325 18.4912 15.7325H14.2774L8.75989 21.25ZM9.76753 18.121L17.3967 10.4918C18.4741 9.41446 18.4741 7.66771 17.3967 6.59034C16.3193 5.51298 14.5726 5.51298 13.4952 6.59035L9.76753 10.318V18.121ZM5.50877 21.25C6.34223 21.25 7.08873 20.8813 7.59572 20.2956C8.01477 19.8114 8.26753 19.1818 8.26753 18.4912V5.50877C8.26753 3.98514 7.03239 2.75 5.50877 2.75C3.98514 2.75 2.75 3.98514 2.75 5.50877V18.4912C2.75 20.0148 3.98514 21.25 5.50877 21.25ZM5.50877 18.364C5.43852 18.364 5.38157 18.421 5.38157 18.4912C5.38157 18.5614 5.43852 18.6184 5.50877 18.6184C5.57901 18.6184 5.63596 18.5614 5.63596 18.4912C5.63596 18.421 5.57901 18.364 5.50877 18.364ZM3.88157 18.4912C3.88157 17.5925 4.61009 16.864 5.50877 16.864C6.40744 16.864 7.13596 17.5925 7.13596 18.4912C7.13596 19.3899 6.40744 20.1184 5.50877 20.1184C4.61009 20.1184 3.88157 19.3899 3.88157 18.4912Z" fill="#2A2A2A"/>
</svg>
