<svg width="24" height="24" viewBox="0 0 24 24" fill="none" xmlns="http://www.w3.org/2000/svg">
<path d="M2.99756 5.24512C2.99756 4.00247 4.00492 2.99512 5.24756 2.99512H7.75456C8.9972 2.99512 10.0046 4.00248 10.0046 5.24512V7.75239C10.0046 8.99503 8.9972 10.0024 7.75456 10.0024H7.25V13.7085C7.29659 13.7436 7.34129 13.7823 7.3837 13.8247L10.1744 16.616C10.2169 16.6585 10.2557 16.7033 10.2908 16.75H14.0049V16.2495C14.0049 15.0069 15.0122 13.9995 16.2549 13.9995H18.7488C19.9914 13.9995 20.9988 15.0069 20.9988 16.2495V18.7537C20.9988 19.9963 19.9914 21.0037 18.7488 21.0037H16.2549C15.0122 21.0037 14.0049 19.9963 14.0049 18.7537V18.25H10.2904C10.2555 18.2965 10.2168 18.3411 10.1745 18.3835L7.3838 21.1754C6.89569 21.6637 6.10412 21.6638 5.61589 21.1756L2.82368 18.3837C2.33542 17.8955 2.33547 17.1039 2.82378 16.6157L5.61599 13.8245C5.65849 13.782 5.7033 13.7432 5.75 13.7081V10.0024H5.24756C4.00492 10.0024 2.99756 8.99503 2.99756 7.75239L2.99756 5.24512Z" fill="currentColor"/>
</svg>
