<svg width="24" height="24" viewBox="0 0 24 24" fill="none" xmlns="http://www.w3.org/2000/svg">
<path d="M12.5854 2.08211C12.3743 1.97654 12.1257 1.97654 11.9146 2.08211L5.91459 5.08211C5.6605 5.20915 5.5 5.46885 5.5 5.75293V17.4809C5.5 17.7389 5.63258 17.9787 5.85102 18.116L11.851 21.8855C12.0821 22.0307 12.3739 22.0389 12.6128 21.9068C12.8517 21.7748 13 21.5234 13 21.2504V15.2165L18.5854 12.4237C18.8395 12.2967 19 12.037 19 11.7529C19 11.4689 18.8395 11.2092 18.5854 11.0821L13.9271 8.75293L18.5854 6.42375C18.8395 6.29671 19 6.03701 19 5.75293C19 5.46885 18.8395 5.20915 18.5854 5.08211L12.5854 2.08211Z" fill="#2A2A2A"/>
</svg>
