<svg width="24" height="24" viewBox="0 0 24 24" fill="none" xmlns="http://www.w3.org/2000/svg">
<path d="M11.9146 2.08211C12.1257 1.97654 12.3743 1.97654 12.5854 2.08211L18.5854 5.08211C18.8395 5.20915 19 5.46885 19 5.75293C19 6.03701 18.8395 6.29671 18.5854 6.42375L13.9271 8.75293L18.5854 11.0821C18.8395 11.2092 19 11.4689 19 11.7529C19 12.037 18.8395 12.2967 18.5854 12.4237L13 15.2165V21.2504C13 21.5234 12.8517 21.7748 12.6128 21.9068C12.3739 22.0389 12.0821 22.0307 11.851 21.8855L5.85102 18.116C5.63258 17.9787 5.5 17.7389 5.5 17.4809V5.75293C5.5 5.46885 5.6605 5.20915 5.91459 5.08211L11.9146 2.08211ZM7 6.21646V17.0663L11.5 19.8935V14.7529C11.5 14.4689 11.6605 14.2092 11.9146 14.0821L16.5729 11.7529L11.9146 9.42375C11.6605 9.29671 11.5 9.03701 11.5 8.75293C11.5 8.46885 11.6605 8.20915 11.9146 8.08211L16.5729 5.75293L12.25 3.59146L7 6.21646Z" fill="currentColor"/>
</svg>
