<svg width="24" height="24" viewBox="0 0 24 24" fill="none" xmlns="http://www.w3.org/2000/svg">
<path d="M21 5.25C21 3.45507 19.5449 2 17.75 2H8.8382L12.3794 4.04451C13.6943 4.8037 14.5044 6.20674 14.5044 7.72512L14.5044 20H15.25C17.0449 20 18.5 18.5449 18.5 16.75V11.5607L20.341 9.71967C20.7629 9.29771 21 8.72542 21 8.12868V5.25ZM13.0044 7.72512L13.0044 20.7445C13.0044 22.4765 11.1294 23.5591 9.6294 22.6931L4.37061 19.6569C3.51975 19.1657 2.99561 18.2578 2.99561 17.2753V4.25594C2.99561 2.52389 4.8706 1.44136 6.3706 2.30738L11.6294 5.34355C12.4802 5.83479 13.0044 6.74264 13.0044 7.72512Z" fill="#2A2A2A"/>
</svg>
