<svg width="24" height="24" viewBox="0 0 24 24" fill="none" xmlns="http://www.w3.org/2000/svg">
<path d="M9.51428 11.7244C9.51361 10.5939 9.60686 9.32179 9.90051 8.13745C10.1954 6.94819 10.6787 5.90237 11.4175 5.16351C12.2377 4.34337 13.391 3.88395 14.6668 3.66471C15.9382 3.44622 17.2668 3.47776 18.3591 3.58455C19.4664 3.6928 20.3129 4.53921 20.4211 5.64653C20.5279 6.73885 20.5594 8.06743 20.3409 9.33891C20.1217 10.6147 19.6623 11.768 18.8421 12.5881C18.1025 13.3278 17.0556 13.8116 15.8655 14.1069C14.6804 14.4009 13.4077 14.4944 12.2774 14.494C11.2771 14.4937 10.4576 15.3055 10.4528 16.3081C10.4448 18.0032 10.2334 19.9684 9.5167 21.4771C9.49122 21.4556 9.45894 21.415 9.44088 21.3409C9.24198 20.5246 8.97769 19.5478 8.66948 18.678C8.51543 18.2433 8.34608 17.8229 8.16293 17.457C7.98498 17.1015 7.77072 16.7495 7.51104 16.4898C7.25131 16.2302 6.89915 16.0158 6.54345 15.8378C6.17732 15.6545 5.75662 15.485 5.32157 15.3308C4.45114 15.0222 3.47368 14.7575 2.65697 14.5583C2.58317 14.5403 2.54263 14.5082 2.52118 14.4827C4.03183 13.7657 6.00089 13.5559 7.69844 13.5495C8.70192 13.5457 9.51488 12.7255 9.51428 11.7244ZM10.3569 4.10285C9.35528 5.10444 8.77642 6.43816 8.44459 7.77647C8.11155 9.1197 8.01357 10.5232 8.01428 11.7253C8.01439 11.9022 7.86735 12.0488 7.69276 12.0495C5.92143 12.0562 3.67639 12.2686 1.86056 13.1359C1.1781 13.4619 0.893462 14.1338 1.03482 14.7708C1.16714 15.3669 1.64976 15.8565 2.30148 16.0155C3.09633 16.2094 4.0185 16.4603 4.82038 16.7446C5.22148 16.8868 5.58011 17.033 5.87204 17.1791C6.1744 17.3305 6.35906 17.4592 6.45046 17.5506C6.54178 17.6419 6.67039 17.8263 6.82158 18.1284C6.96756 18.42 7.11362 18.7783 7.25562 19.179C7.53951 19.9802 7.78995 20.9016 7.98352 21.696C8.14236 22.3479 8.63199 22.8307 9.22818 22.9632C9.86509 23.1047 10.5372 22.8203 10.8634 22.1378C11.7302 20.3247 11.9444 18.0842 11.9528 16.3152C11.9536 16.1408 12.1002 15.994 12.2769 15.994C13.4788 15.9945 14.8828 15.8962 16.2267 15.5627C17.5658 15.2305 18.9005 14.6511 19.9028 13.6488C21.0221 12.5295 21.5706 11.04 21.8193 9.59295C22.0687 8.14162 22.0281 6.66744 21.914 5.50058C21.736 3.68024 20.3254 2.26963 18.5051 2.09167C17.3382 1.97759 15.864 1.93698 14.4127 2.18638C12.9657 2.43505 11.4761 2.9836 10.3569 4.10285ZM16.0014 5.0001C16.5537 5.0001 17.0014 5.44781 17.0014 6.0001C17.0014 6.55238 16.5537 7.0001 16.0014 7.0001C15.4491 7.0001 15.0014 6.55238 15.0014 6.0001C15.0014 5.44781 15.4491 5.0001 16.0014 5.0001Z" fill="#2A2A2A"/>
</svg>
