<svg width="24" height="24" viewBox="0 0 24 24" fill="none" xmlns="http://www.w3.org/2000/svg">
<path d="M5.47146 3.42023C5.38955 4.80631 5.8618 6.22179 6.88864 7.30265C5.01112 7.84228 3.51795 9.44002 3.22815 11.5186C2.89974 13.8741 3.38387 16.2712 4.60072 18.3146L4.95173 18.9041C4.96474 18.9259 4.97885 18.9471 4.994 18.9675L6.40996 20.8742C7.68641 22.593 10.2013 22.753 11.6853 21.2097C11.857 21.031 12.1429 21.031 12.3147 21.2097C13.7986 22.753 16.3135 22.593 17.59 20.8742L19.0059 18.9675C19.0211 18.9471 19.0352 18.9259 19.0482 18.9041L19.3992 18.3146C20.6161 16.2712 21.1002 13.8741 20.7718 11.5186C20.3631 8.58724 17.5611 6.61219 14.6629 7.21266L12.7608 7.60676L12.7577 7.60739C12.7881 6.82755 12.9097 5.98651 13.149 5.26874C13.4383 4.40078 13.8411 3.879 14.2884 3.69262C14.6708 3.53331 14.8516 3.0942 14.6923 2.71185C14.533 2.3295 14.0939 2.14869 13.7115 2.30801C12.6588 2.74663 12.0616 3.78735 11.726 4.79439C11.7103 4.84142 11.6951 4.88875 11.6803 4.93634C11.4405 4.4719 11.1259 4.03604 10.7366 3.64676C9.64409 2.5542 8.18457 2.05047 6.75636 2.13511C6.06327 2.17618 5.51241 2.72714 5.47146 3.42023ZM8.39688 11.2354C8.05015 11.3048 7.73237 11.5488 7.53295 12.0142C7.32974 12.4884 7.25804 13.1905 7.47731 14.0682C7.57771 14.4701 7.33331 14.8772 6.93145 14.9776C6.52959 15.078 6.12243 14.8336 6.02204 14.4318C5.74168 13.3095 5.79499 12.2616 6.15421 11.4233C6.51724 10.5762 7.19934 9.94521 8.10274 9.76455C8.50891 9.68333 8.90402 9.94675 8.98525 10.3529C9.06647 10.7591 8.80305 11.1542 8.39688 11.2354Z" fill="currentColor"/>
</svg>
