<svg width="24" height="24" viewBox="0 0 24 24" fill="none" xmlns="http://www.w3.org/2000/svg">
<path d="M8.3974 11.2358C8.80357 11.1545 9.06699 10.7594 8.98576 10.3532C8.90454 9.94707 8.50943 9.68365 8.10325 9.76488C7.19986 9.94554 6.51776 10.5765 6.15473 11.4237C5.7955 12.2619 5.7422 13.3098 6.02255 14.4321C6.12294 14.834 6.5301 15.0783 6.93196 14.978C7.33383 14.8776 7.57822 14.4704 7.47783 14.0685C7.25856 13.1908 7.33026 12.4887 7.53347 12.0145C7.73288 11.5491 8.05066 11.3051 8.3974 11.2358ZM5.47146 3.42023C5.38955 4.80631 5.8618 6.22179 6.88864 7.30265C5.01112 7.84228 3.51795 9.44002 3.22815 11.5186C2.89974 13.8741 3.38387 16.2712 4.60072 18.3146L4.95173 18.9041C4.96474 18.9259 4.97885 18.9471 4.994 18.9675L6.40996 20.8742C7.68641 22.593 10.2013 22.753 11.6853 21.2097C11.857 21.031 12.1429 21.031 12.3147 21.2097C13.7986 22.753 16.3135 22.593 17.59 20.8742L19.0059 18.9675C19.0211 18.9471 19.0352 18.9259 19.0482 18.9041L19.3992 18.3146C20.6161 16.2712 21.1002 13.8741 20.7718 11.5186C20.3631 8.58724 17.5611 6.61219 14.6629 7.21266L12.7608 7.60676L12.7577 7.60739C12.7881 6.82755 12.9097 5.98651 13.149 5.26874C13.4383 4.40078 13.8411 3.879 14.2884 3.69262C14.6708 3.53331 14.8516 3.0942 14.6923 2.71185C14.533 2.3295 14.0939 2.14869 13.7115 2.30801C12.6588 2.74663 12.0616 3.78735 11.726 4.79439C11.7103 4.84142 11.6951 4.88875 11.6803 4.93634C11.4405 4.4719 11.1259 4.03604 10.7366 3.64676C9.64409 2.5542 8.18457 2.05047 6.75636 2.13511C6.06327 2.17618 5.51241 2.72714 5.47146 3.42023ZM6.96373 3.62735C7.94351 3.60058 8.92931 3.96075 9.67599 4.70742C10.4225 5.45393 10.7827 6.43947 10.7561 7.41904C10.5747 7.42399 10.3931 7.41569 10.2129 7.39413L9.596 7.26631C9.02771 7.09687 8.49258 6.78772 8.04382 6.33897C7.29731 5.59245 6.93714 4.60691 6.96373 3.62735ZM9.03272 8.68146L9.23508 8.72339C9.47508 8.79138 9.71898 8.84177 9.96471 8.87456L10.9349 9.07556C11.6375 9.22114 12.3625 9.22114 13.0651 9.07556L14.9672 8.68147C17.0162 8.25694 18.9972 9.65329 19.2862 11.7257C19.5675 13.7434 19.1528 15.7968 18.1104 17.5471L17.7789 18.1038L16.3857 19.9799C15.6623 20.9541 14.237 21.0447 13.3959 20.17C12.634 19.3776 11.366 19.3776 10.604 20.17C9.76298 21.0447 8.33765 20.9541 7.61421 19.9799L6.221 18.1038L5.88951 17.5471C4.84717 15.7968 4.43247 13.7434 4.71378 11.7257C5.00273 9.65329 6.98373 8.25694 9.03272 8.68146Z" fill="currentColor"/>
</svg>
