<svg width="24" height="24" viewBox="0 0 24 24" fill="none" xmlns="http://www.w3.org/2000/svg">
<path d="M3.58602 5.25936C3.49888 5.74315 3.03857 6.0692 2.55223 5.98815C2.06194 5.90643 1.73072 5.44273 1.81243 4.95243L1.81278 4.95037L1.81316 4.94814L1.81403 4.94315L1.81621 4.93109L1.8225 4.89896C1.82761 4.87411 1.83465 4.84239 1.84405 4.80476C1.86281 4.72974 1.89132 4.62992 1.93338 4.51346C2.01671 4.2827 2.15799 3.97332 2.39269 3.66039C2.88604 3.00259 3.74418 2.40039 5.10019 2.40039C6.25045 2.40039 7.17759 2.85587 7.76657 3.60378C8.34145 4.33378 8.53852 5.27202 8.38719 6.15279C8.219 7.13172 7.66263 7.72679 7.01047 8.10685C6.57411 8.36114 6.03097 8.54599 5.59101 8.69572C5.46266 8.7394 5.34306 8.7801 5.23748 8.81866C4.69501 9.01677 4.31788 9.21139 4.05923 9.50303C3.92247 9.65722 3.78954 9.87282 3.70222 10.2004H7.50019C7.99725 10.2004 8.40019 10.6033 8.40019 11.1004C8.40019 11.5974 7.99725 12.0004 7.50019 12.0004H2.70019C2.46149 12.0004 2.23258 11.9056 2.06379 11.7368C1.89501 11.568 1.80019 11.3391 1.80019 11.1004C1.80019 9.88587 2.11917 8.97772 2.71257 8.30866C3.28248 7.66608 4.01963 7.34714 4.62001 7.12788C4.81889 7.05525 4.99645 6.99459 5.15769 6.93951C5.54401 6.80753 5.83663 6.70757 6.10416 6.55166C6.39486 6.38225 6.55278 6.19957 6.61319 5.84799C6.68626 5.42266 6.58355 5.01091 6.35243 4.71743C6.13542 4.44186 5.75035 4.20039 5.10019 4.20039C4.3562 4.20039 4.01434 4.49819 3.83269 4.74039C3.72989 4.87746 3.66492 5.01808 3.62638 5.12482C3.60749 5.17711 3.59616 5.21792 3.59031 5.24133C3.5879 5.25098 3.58661 5.2566 3.58602 5.25936ZM3.58643 5.25709L3.58778 5.24931L3.58733 5.25198L3.5868 5.25502L3.58643 5.25709ZM3.58564 5.26139C3.58558 5.26169 3.58557 5.26175 3.58564 5.26139ZM19.8 2.40039C18.1432 2.40039 16.8 3.74354 16.8 5.40039V9.00039C16.8 10.6572 18.1432 12.0004 19.8 12.0004C21.4569 12.0004 22.8 10.6572 22.8 9.00039V5.40039C22.8 3.74354 21.4569 2.40039 19.8 2.40039ZM21 9.00039C21 9.66313 20.4628 10.2004 19.8 10.2004C19.1373 10.2004 18.6 9.66313 18.6 9.00039V5.40039C18.6 4.73765 19.1373 4.20039 19.8 4.20039C20.4628 4.20039 21 4.73765 21 5.40039V9.00039ZM4.20005 14.4004C3.86868 14.4004 3.60005 14.669 3.60005 15.0004V21.0004C3.60005 21.3318 3.86868 21.6004 4.20005 21.6004C4.53142 21.6004 4.80005 21.3318 4.80005 21.0004V19.2004H6.60005C6.93142 19.2004 7.20005 18.9318 7.20005 18.6004C7.20005 18.269 6.93142 18.0004 6.60005 18.0004H4.80005V15.6004H7.80005C8.13142 15.6004 8.40005 15.3318 8.40005 15.0004C8.40005 14.669 8.13142 14.4004 7.80005 14.4004H4.20005ZM10.2 14.4004C9.86868 14.4004 9.60005 14.669 9.60005 15.0004V21.0004C9.60005 21.3318 9.86868 21.6004 10.2 21.6004C10.5314 21.6004 10.8 21.3318 10.8 21.0004V19.2004H12C13.3255 19.2004 14.4 18.1259 14.4 16.8004C14.4 15.4749 13.3255 14.4004 12 14.4004H10.2ZM10.8 18.0004V15.6004H12C12.6628 15.6004 13.2 16.1377 13.2 16.8004C13.2 17.4631 12.6628 18.0004 12 18.0004H10.8ZM15.6 16.5004C15.6 15.3406 16.5403 14.4004 17.7 14.4004H18.6172C19.6018 14.4004 20.4 15.1986 20.4 16.1832V16.2004C20.4 16.5318 20.1314 16.8004 19.8 16.8004C19.4687 16.8004 19.2 16.5318 19.2 16.2004V16.1832C19.2 15.8613 18.9391 15.6004 18.6172 15.6004H17.7C17.203 15.6004 16.8 16.0033 16.8 16.5004C16.8 16.9974 17.203 17.4004 17.7 17.4004H18.3C19.4598 17.4004 20.4 18.3406 20.4 19.5004C20.4 20.6602 19.4598 21.6004 18.3 21.6004H17.3829C16.3983 21.6004 15.6 20.8022 15.6 19.8175V19.8004C15.6 19.469 15.8687 19.2004 16.2 19.2004C16.5314 19.2004 16.8 19.469 16.8 19.8004V19.8175C16.8 20.1394 17.061 20.4004 17.3829 20.4004H18.3C18.7971 20.4004 19.2 19.9974 19.2 19.5004C19.2 19.0033 18.7971 18.6004 18.3 18.6004H17.7C16.5403 18.6004 15.6 17.6602 15.6 16.5004ZM10.5 2.40039C10.9971 2.40039 11.4 2.80333 11.4 3.30039V6.60039H13.2V3.30039C13.2 2.80333 13.603 2.40039 14.1 2.40039C14.5971 2.40039 15 2.80333 15 3.30039V11.4004C15 11.8974 14.5971 12.3004 14.1 12.3004C13.603 12.3004 13.2 11.8974 13.2 11.4004V8.40039H10.5C10.003 8.40039 9.60005 7.99745 9.60005 7.50039V3.30039C9.60005 2.80333 10.003 2.40039 10.5 2.40039ZM3.58643 5.25709L3.58602 5.25936Z" fill="#2A2A2A"/>
</svg>
