<svg width="24" height="24" viewBox="0 0 24 24" fill="none" xmlns="http://www.w3.org/2000/svg">
<path d="M14.998 5C18.864 5 21.998 8.13401 21.998 12C21.998 15.7855 18.9932 18.8691 15.2386 18.9959L14.998 19H9.0022C5.1362 19 2.0022 15.866 2.0022 12C2.0022 8.21455 5.00698 5.1309 8.76155 5.00406L9.0022 5H14.998ZM14.7501 12.5C14.0597 12.5 13.5001 13.0596 13.5001 13.75C13.5001 14.4404 14.0597 15 14.7501 15C15.4404 15 16.0001 14.4404 16.0001 13.75C16.0001 13.0596 15.4404 12.5 14.7501 12.5ZM8.00008 9C7.62039 9 7.30659 9.28215 7.25693 9.64823L7.25008 9.75V11.248L5.75008 11.2487C5.33587 11.2487 5.00008 11.5845 5.00008 11.9987C5.00008 12.3784 5.28223 12.6922 5.64831 12.7419L5.75008 12.7487L7.25008 12.748V14.25C7.25008 14.6642 7.58587 15 8.00008 15C8.37978 15 8.69357 14.7178 8.74323 14.3518L8.75008 14.25V12.748L10.2501 12.7487C10.6643 12.7487 11.0001 12.413 11.0001 11.9987C11.0001 11.6191 10.7179 11.3053 10.3519 11.2556L10.2501 11.2487L8.75008 11.248V9.75C8.75008 9.33579 8.41429 9 8.00008 9ZM16.7501 9C16.0597 9 15.5001 9.55964 15.5001 10.25C15.5001 10.9404 16.0597 11.5 16.7501 11.5C17.4404 11.5 18.0001 10.9404 18.0001 10.25C18.0001 9.55964 17.4404 9 16.7501 9Z" fill="#2A2A2A"/>
</svg>
