<svg width="24" height="24" viewBox="0 0 24 24" fill="none" xmlns="http://www.w3.org/2000/svg">
<path d="M14.998 5C18.864 5 21.998 8.13401 21.998 12C21.998 15.7855 18.9932 18.8691 15.2386 18.9959L14.998 19H9.0022C5.1362 19 2.0022 15.866 2.0022 12C2.0022 8.21455 5.00698 5.1309 8.76155 5.00406L9.0022 5H14.998ZM14.998 6.5H9.0022C5.96463 6.5 3.5022 8.96243 3.5022 12C3.5022 14.9635 5.84598 17.3795 8.78099 17.4956L9.0022 17.5H14.998C18.0355 17.5 20.498 15.0376 20.498 12C20.498 9.03652 18.1542 6.62046 15.2192 6.50437L14.998 6.5ZM8.00008 9C8.41429 9 8.75008 9.33579 8.75008 9.75L8.7492 11.248L10.2501 11.2487C10.6643 11.2487 11.0001 11.5845 11.0001 11.9987C11.0001 12.413 10.6643 12.7487 10.2501 12.7487L8.7492 12.748L8.75008 14.25C8.75008 14.6642 8.41429 15 8.00008 15C7.58587 15 7.25008 14.6642 7.25008 14.25L7.2492 12.748L5.75008 12.7487C5.33587 12.7487 5.00008 12.413 5.00008 11.9987C5.00008 11.5845 5.33587 11.2487 5.75008 11.2487L7.2492 11.248L7.25008 9.75C7.25008 9.33579 7.58587 9 8.00008 9ZM14.7501 12.5C15.4404 12.5 16.0001 13.0596 16.0001 13.75C16.0001 14.4404 15.4404 15 14.7501 15C14.0597 15 13.5001 14.4404 13.5001 13.75C13.5001 13.0596 14.0597 12.5 14.7501 12.5ZM16.7501 9C17.4404 9 18.0001 9.55964 18.0001 10.25C18.0001 10.9404 17.4404 11.5 16.7501 11.5C16.0597 11.5 15.5001 10.9404 15.5001 10.25C15.5001 9.55964 16.0597 9 16.7501 9Z" fill="currentColor"/>
</svg>
