<svg width="24" height="24" viewBox="0 0 24 24" fill="none" xmlns="http://www.w3.org/2000/svg">
<path d="M12.0001 2C13.3189 2 14.6457 4.54175 15.2141 8.18344L15.2609 8.49825H8.73926C9.27868 4.68907 10.6436 2 12.0001 2ZM14.9444 2.57511L14.8365 2.40488C17.8548 3.29586 20.2788 5.57247 21.372 8.49821L16.7811 8.4985C16.4656 6.08157 15.8246 4.00589 14.9444 2.57511ZM7.06862 9.99886L2.1986 9.99825C2.0674 10.6446 1.99854 11.3135 1.99854 11.9985C1.99854 13.0439 2.1589 14.0517 2.45637 14.9989H7.159L7.10188 14.4187C7.03385 13.6377 6.99854 12.8279 6.99854 11.9985C6.99854 11.3171 7.02238 10.6488 7.06862 9.99886ZM21.9714 12.7822C20.8063 11.6776 19.2323 11 17.5001 11C17.3268 11 17.155 11.0068 16.9851 11.0201C16.9809 10.8978 16.976 10.776 16.9703 10.6547L16.9315 9.99886L21.8016 9.99825C21.9328 10.6446 22.0016 11.3135 22.0016 11.9985C22.0016 12.2623 21.9914 12.5236 21.9714 12.7822ZM8.67404 14.999H11.4987C12.2246 13.2591 13.6851 11.9022 15.4928 11.3159C15.4811 10.8676 15.458 10.4278 15.4246 9.99829H8.57558L8.54234 10.4868C8.51361 10.9794 8.49853 11.4842 8.49853 11.9985C8.49853 13.0456 8.56099 14.0532 8.67404 14.999ZM8.90435 16.4989H11.0767C11.0263 16.8252 11.0001 17.1595 11.0001 17.5C11.0001 19.1521 11.6165 20.6603 12.6318 21.8071C12.4231 21.9318 12.2115 21.9971 12.0001 21.9971C10.8031 21.9971 9.59951 19.9032 8.9624 16.7934L8.90435 16.4989ZM3.06589 16.499L7.37153 16.4988C7.7363 18.5811 8.35458 20.3526 9.16372 21.5923C6.60088 20.8354 4.46722 19.0806 3.21224 16.778L3.06589 16.499ZM9.16364 2.40492L9.04186 2.4417C6.08022 3.35741 3.70663 5.61194 2.62816 8.49821L7.21905 8.4985L7.28061 8.05866C7.62827 5.73404 8.28288 3.75443 9.16364 2.40492ZM12 17.5C12 20.5376 14.4624 23 17.5 23C20.5376 23 23 20.5376 23 17.5C23 14.4624 20.5376 12 17.5 12C14.4624 12 12 14.4624 12 17.5ZM18.6464 15.3536C18.4512 15.1583 18.4512 14.8417 18.6464 14.6464C18.8417 14.4512 19.1583 14.4512 19.3536 14.6464L20.8536 16.1464C21.0488 16.3417 21.0488 16.6583 20.8536 16.8536L19.3536 18.3536C19.1583 18.5488 18.8417 18.5488 18.6464 18.3536C18.4512 18.1583 18.4512 17.8417 18.6464 17.6464L19.2929 17H17.25C16.0074 17 15 18.0074 15 19.25V19.5C15 19.7761 14.7761 20 14.5 20C14.2239 20 14 19.7761 14 19.5V19.25C14 17.4551 15.4551 16 17.25 16H19.2929L18.6464 15.3536Z" fill="currentColor"/>
</svg>
