<svg width="24" height="24" viewBox="0 0 24 24" fill="none" xmlns="http://www.w3.org/2000/svg">
<path d="M3.44126 9.95525C1.51763 11.8789 1.51763 14.9977 3.44126 16.9213C5.13601 18.6161 7.75847 18.8177 9.67398 17.5262L13.9304 21.7826C14.2324 22.0846 14.7219 22.0846 15.0239 21.7826C15.2984 21.5081 15.3234 21.0786 15.0988 20.7759L15.0239 20.6891L10.8066 16.4708C12.3202 14.538 12.1871 11.7351 10.4073 9.95525C8.4837 8.03162 5.36488 8.03162 3.44126 9.95525ZM16.6543 16.4998C16.4288 17.7873 16.1063 18.956 15.7017 19.9537L15.7311 19.9821L15.8557 20.1224C16.0759 20.4173 16.2003 20.746 16.2337 21.0742C18.2775 20.1262 19.947 18.5071 20.96 16.5L16.6543 16.4998ZM12.2503 16.499L14.5342 18.7859C14.7364 18.186 14.9153 17.5177 15.0635 16.7943L15.1215 16.4999L12.2503 16.499ZM9.31383 11.0488C10.6335 12.3685 10.6335 14.5081 9.31383 15.8278C7.99412 17.1475 5.85446 17.1475 4.53476 15.8278C3.21506 14.5081 3.21506 12.3685 4.53476 11.0488C5.85446 9.72905 7.99412 9.72905 9.31383 11.0488ZM15.4503 9.99926L11.7503 9.99844C12.7971 11.4646 13.1021 13.3102 12.6422 14.9997L15.3518 15C15.4649 14.0542 15.5273 13.0466 15.5273 11.9995C15.5273 11.4852 15.5123 10.9804 15.4835 10.4877L15.4503 9.99926ZM16.9572 9.99984C17.0035 10.6498 17.0273 11.318 17.0273 11.9995C17.0273 12.8289 16.992 13.6386 16.924 14.4197L16.8669 14.9999H21.5695C21.867 14.0527 22.0273 13.0448 22.0273 11.9995C22.0273 11.3145 21.9585 10.6455 21.8273 9.99923L16.9572 9.99984ZM14.8622 2.4059C15.743 3.75541 16.3976 5.73502 16.7452 8.05964L16.8068 8.49948L21.3977 8.49919C20.3564 5.71245 18.1078 3.51462 15.2882 2.54215L14.984 2.44268L14.8622 2.4059ZM12.0258 2.00098C10.749 2.00098 9.46472 4.38334 8.86841 7.83973C9.33258 7.99996 9.77986 8.21965 10.1994 8.49848L15.2866 8.49923C14.7472 4.69005 13.3822 2.00098 12.0258 2.00098ZM9.18939 2.40586C6.17108 3.29684 3.74706 5.57345 2.65385 8.49919L3.64914 8.49848C4.77322 7.75149 6.09606 7.42896 7.39179 7.53089C7.71444 5.67307 8.23834 4.06163 8.91927 2.85184L9.0815 2.57609L9.18939 2.40586Z" fill="currentColor"/>
</svg>
