<svg width="40" height="40" viewBox="0 0 40 40" fill="none" xmlns="http://www.w3.org/2000/svg">
<path d="M37.5017 20.3887C37.5017 18.9498 37.3826 17.8998 37.1247 16.8109H20.3589V23.3053H30.2001C30.0017 24.9192 28.9303 27.3498 26.5493 28.983L26.5159 29.2005L31.817 33.225L32.1842 33.2609C35.5572 30.2081 37.5017 25.7164 37.5017 20.3887Z" fill="#4285F4"/>
<path d="M20.3578 37.5C25.1791 37.5 29.2267 35.9444 32.1831 33.2611L26.5482 28.9832C25.0403 30.0137 23.0164 30.7332 20.3578 30.7332C15.6356 30.7332 11.6277 27.6805 10.199 23.461L9.98958 23.4784L4.47748 27.659L4.4054 27.8554C7.34186 33.5721 13.3736 37.5 20.3578 37.5Z" fill="#34A853"/>
<path d="M10.2 23.4611C9.82306 22.3722 9.60489 21.2054 9.60489 20C9.60489 18.7943 9.82306 17.6277 10.1802 16.5388L10.1702 16.3069L4.58903 12.0592L4.40642 12.1443C3.19616 14.5166 2.50171 17.1805 2.50171 20C2.50171 22.8194 3.19616 25.4832 4.40642 27.8554L10.2 23.4611Z" fill="#FBBC05"/>
<path d="M20.3578 9.26662C23.711 9.26662 25.9728 10.6861 27.2626 11.8722L32.3022 7.05C29.2071 4.23056 25.1792 2.5 20.3578 2.5C13.3736 2.5 7.34188 6.42775 4.4054 12.1444L10.1792 16.5389C11.6277 12.3194 15.6356 9.26662 20.3578 9.26662Z" fill="#EB4335"/>
</svg>
