<svg width="24" height="24" viewBox="0 0 24 24" fill="none" xmlns="http://www.w3.org/2000/svg">
<path d="M5 6.06096L2.21966 3.28057C1.92677 2.98767 1.92678 2.5128 2.21968 2.21991C2.51257 1.92702 2.98745 1.92702 3.28034 2.21992L21.7801 20.7201C22.073 21.013 22.073 21.4878 21.7801 21.7807C21.4872 22.0736 21.0123 22.0736 20.7194 21.7807L16.4141 17.4753L16.3067 17.5992C15.6904 18.3103 15.1658 19.0959 14.7451 19.9377L14.6118 20.2045C14.0613 21.3059 12.9358 22.0016 11.7046 22.0016H9.53657C8.49409 22.0016 7.47017 21.4971 6.91404 20.5427C6.16842 19.2632 5 16.9333 5 14.7538V6.06096ZM8 9.06102L7 8.061V10.9984C7 11.2746 7.22386 11.4984 7.5 11.4984C7.77614 11.4984 8 11.2746 8 10.9984V9.06102ZM10 6.81835L8 4.81831V4.25024C8 3.69796 8.44772 3.25024 9 3.25024C9.55228 3.25024 10 3.69796 10 4.25024V6.81835ZM13 9.81841L11 7.81837V2.99707C11 2.44479 11.4477 1.99707 12 1.99707C12.5523 1.99707 13 2.44479 13 2.99707V9.81841ZM18.3839 15.2024L13.9326 10.7511C13.9755 10.6773 14 10.5917 14 10.5002V4.25024C14 3.69796 14.4477 3.25024 15 3.25024C15.5523 3.25024 16 3.69796 16 4.25024V12.0184C16.3829 11.808 16.8436 11.6136 17.3571 11.5139C18.0364 11.3821 18.8102 11.3049 19.4464 11.3804C19.7584 11.4175 20.1123 11.4992 20.4084 11.6906C20.7409 11.9054 21 12.2654 21 12.7502C21 12.9816 20.8931 13.2001 20.7105 13.3422L18.5186 15.047L18.3839 15.2024Z" fill="#2A2A2A"/>
</svg>
