<svg width="24" height="24" viewBox="0 0 24 24" fill="none" xmlns="http://www.w3.org/2000/svg">
<path d="M12.8197 5.57912L11.999 6.40163L11.1757 5.57838C9.07663 3.47931 5.67337 3.47931 3.5743 5.57838C2.10291 7.04976 1.66293 9.16198 2.25434 11.0166C2.33461 11.0053 2.41662 10.9995 2.5 10.9995H5.74386L7.16926 7.99866C7.4564 7.39417 8.06314 7.00636 8.73233 6.9996C9.40151 6.99284 10.016 7.36832 10.3152 7.96689L12.2731 11.8825L13.8313 9.7249C14.1435 9.29264 14.6357 9.02629 15.1684 9.00142C15.701 8.97654 16.2159 9.19585 16.567 9.59713L17.7941 10.9995H21.5C21.5842 10.9995 21.667 11.0055 21.7481 11.017C22.341 9.16166 21.9031 7.05192 20.4303 5.57912C18.3274 3.47623 14.9226 3.47623 12.8197 5.57912ZM11.4697 21.0751L4.89404 14.4995H6.85C7.5256 14.4995 8.14086 14.1106 8.43074 13.5004L8.79034 12.7433L10.4348 16.0321C10.7085 16.5796 11.2484 16.9443 11.8585 16.9938C12.4687 17.0433 13.0603 16.7704 13.4187 16.2741L15.3811 13.5569L15.683 13.9019C16.0153 14.2817 16.4954 14.4995 17 14.4995H19.1098L12.5303 21.0751C12.2374 21.368 11.7626 21.368 11.4697 21.0751ZM8.74188 7.99956C9.02887 7.99645 9.29247 8.1574 9.42082 8.4141L12.117 13.8065L14.642 10.3104C14.7758 10.1251 14.9867 10.011 15.215 10.0003C15.4433 9.98967 15.664 10.0837 15.8144 10.2556L17.3403 11.9995H21.25C21.6642 11.9995 22 12.3353 22 12.7495C22 13.1637 21.6642 13.4995 21.25 13.4995H17C16.7837 13.4995 16.578 13.4062 16.4356 13.2434L15.3062 11.9527L12.608 15.6886C12.4544 15.9013 12.2009 16.0183 11.9394 15.9971C11.6779 15.9759 11.4465 15.8196 11.3292 15.5849L8.76856 10.4637L7.53507 13.0703C7.41105 13.3324 7.14708 13.4995 6.85714 13.4995H2.75C2.33579 13.4995 2 13.1637 2 12.7495C2 12.3353 2.33579 11.9995 2.75 11.9995H6.38232L8.07207 8.42871C8.19484 8.16928 8.45489 8.00266 8.74188 7.99956Z" fill="currentColor"/>
</svg>
