<svg width="24" height="24" viewBox="0 0 24 24" fill="none" xmlns="http://www.w3.org/2000/svg">
<path d="M6.15643 4.12536C6.5583 3.429 7.3012 3 8.10519 3H15.895C16.699 3 17.4419 3.429 17.8438 4.12536L21.7393 10.8754C22.1409 11.5713 22.1409 12.4287 21.7393 13.1246L17.8438 19.8746C17.4419 20.571 16.699 21 15.895 21H8.10519C7.3012 21 6.5583 20.571 6.15643 19.8746L2.26095 13.1246C1.8593 12.4287 1.8593 11.5713 2.26095 10.8754L6.15643 4.12536ZM8.10519 4.5C7.83719 4.5 7.58956 4.643 7.4556 4.87512L3.56013 11.6251C3.42625 11.8571 3.42625 12.1429 3.56013 12.3749L7.4556 19.1249C7.58956 19.357 7.83719 19.5 8.10519 19.5H15.895C16.163 19.5 16.4107 19.357 16.5446 19.1249L20.4401 12.3749C20.574 12.1429 20.574 11.8571 20.4401 11.6251L16.5446 4.87512C16.4107 4.643 16.163 4.5 15.895 4.5H8.10519Z" fill="#2A2A2A"/>
</svg>
