<svg width="24" height="24" viewBox="0 0 24 24" fill="none" xmlns="http://www.w3.org/2000/svg">
<path d="M4.8273 2.875C5.1399 2.33355 5.71762 2 6.34284 2H9.51827C10.1435 2 10.7212 2.33355 11.0338 2.875L12.6215 5.625C12.9341 6.16645 12.9341 6.83355 12.6215 7.375L11.0338 10.125C10.7212 10.6665 10.1435 11 9.51827 11H6.34284C5.71763 11 5.1399 10.6665 4.8273 10.125L3.23958 7.375C2.92698 6.83355 2.92698 6.16645 3.23958 5.625L4.8273 2.875ZM6.34284 3.5C6.25352 3.5 6.17099 3.54765 6.12633 3.625L4.53862 6.375C4.49396 6.45235 4.49396 6.54765 4.53862 6.625L6.12633 9.375C6.17099 9.45235 6.25352 9.5 6.34284 9.5H9.51827C9.60758 9.5 9.69011 9.45235 9.73477 9.375L11.3225 6.625C11.3671 6.54765 11.3671 6.45235 11.3225 6.375L9.73477 3.625C9.69011 3.54765 9.60758 3.5 9.51827 3.5H6.34284ZM4.8273 13.875C5.1399 13.3335 5.71762 13 6.34284 13H9.51827C10.1435 13 10.7212 13.3335 11.0338 13.875L12.6215 16.625C12.9341 17.1665 12.9341 17.8335 12.6215 18.375L11.0338 21.125C10.7212 21.6665 10.1435 22 9.51827 22H6.34284C5.71763 22 5.1399 21.6665 4.8273 21.125L3.23958 18.375C2.92698 17.8335 2.92698 17.1665 3.23958 16.625L4.8273 13.875ZM6.34284 14.5C6.25352 14.5 6.17099 14.5476 6.12633 14.625L4.53862 17.375C4.49396 17.4524 4.49396 17.5476 4.53862 17.625L6.12633 20.375C6.17099 20.4524 6.25352 20.5 6.34284 20.5H9.51827C9.60758 20.5 9.69011 20.4524 9.73477 20.375L11.3225 17.625C11.3671 17.5476 11.3671 17.4524 11.3225 17.375L9.73477 14.625C9.69011 14.5476 9.60758 14.5 9.51827 14.5H6.34284ZM15.8428 7.5C15.2176 7.5 14.6399 7.83355 14.3273 8.375L12.7396 11.125C12.427 11.6665 12.427 12.3335 12.7396 12.875L14.3273 15.625C14.6399 16.1665 15.2176 16.5 15.8428 16.5H19.0183C19.6435 16.5 20.2212 16.1665 20.5338 15.625L22.1215 12.875C22.4341 12.3335 22.4341 11.6665 22.1215 11.125L20.5338 8.375C20.2212 7.83355 19.6435 7.5 19.0183 7.5H15.8428ZM15.6263 9.125C15.671 9.04765 15.7535 9 15.8428 9H19.0183C19.1076 9 19.1901 9.04765 19.2348 9.125L20.8225 11.875C20.8671 11.9524 20.8671 12.0476 20.8225 12.125L19.2348 14.875C19.1901 14.9524 19.1076 15 19.0183 15H15.8428C15.7535 15 15.671 14.9524 15.6263 14.875L14.0386 12.125C13.994 12.0476 13.994 11.9524 14.0386 11.875L15.6263 9.125Z" fill="#2A2A2A"/>
</svg>
