<svg width="24" height="24" viewBox="0 0 24 24" fill="none" xmlns="http://www.w3.org/2000/svg">
<path d="M13.4508 2.53415C12.6128 1.82716 11.3872 1.82716 10.5492 2.53415L3.79916 8.22869C3.29241 8.6562 3 9.28545 3 9.94844V19.2536C3 20.2201 3.7835 21.0036 4.75 21.0036H13.3667L11.3039 18.8685C9.82318 17.3359 9.60802 15.0112 10.6358 13.2475C11.0817 12.4824 11.7515 11.8443 12.5604 11.4486C13.9805 10.7537 15.6765 10.8693 16.9998 11.7845C18.1899 10.9613 19.6805 10.7857 21 11.2623V9.94844C21 9.28545 20.7076 8.6562 20.2008 8.22869L13.4508 2.53415ZM21.9768 18.1737C23.3411 16.7615 23.3411 14.472 21.9768 13.0599C21.8276 12.9055 21.6683 12.768 21.5011 12.6473C20.1389 11.6647 18.2514 11.8022 17.0363 13.0599H16.9637C15.8917 11.9503 14.2963 11.7126 13 12.3468C12.3747 12.6527 11.85 13.1504 11.5 13.751C10.6898 15.1412 10.8642 16.974 12.0232 18.1737L16.4655 22.7717C16.7606 23.0772 17.2394 23.0772 17.5345 22.7717L21.9768 18.1737Z" fill="#2A2A2A"/>
</svg>
