<svg width="24" height="24" viewBox="0 0 24 24" fill="none" xmlns="http://www.w3.org/2000/svg">
<path d="M19 4.49121C19 5.87192 17.8807 6.99121 16.5 6.99121C16.3246 6.99121 16.1535 6.97315 15.9883 6.9388L14.7085 9.05626C15.0326 9.35461 15.3072 9.70579 15.5189 10.0961C13.2276 10.5524 11.5008 12.5744 11.5008 14.9998L11.5007 15.9689C10.3864 15.8301 9.41435 15.2331 8.77919 14.3722L6.98453 15.2201C6.99475 15.3119 7 15.4052 7 15.4998C7 16.8805 5.88071 17.9998 4.5 17.9998C3.11929 17.9998 2 16.8805 2 15.4998C2 14.119 3.11929 12.9998 4.5 12.9998C5.24768 12.9998 5.9187 13.328 6.37684 13.8482L8.13113 13.0194C8.04557 12.6939 8 12.3521 8 11.9998C8 11.0321 8.34362 10.1446 8.9155 9.45285L7.92382 8.32352C7.63803 8.43724 7.32632 8.49976 7 8.49976C5.61929 8.49976 4.5 7.38047 4.5 5.99976C4.5 4.61904 5.61929 3.49976 7 3.49976C8.38071 3.49976 9.5 4.61904 9.5 5.99976C9.5 6.50808 9.34829 6.98097 9.08768 7.37561L10.0706 8.49498C10.6427 8.17936 11.3004 7.99976 12 7.99976C12.5055 7.99976 12.9891 8.09352 13.4343 8.2646L14.6794 6.20453C14.2581 5.75706 14 5.15428 14 4.49121C14 3.1105 15.1193 1.99121 16.5 1.99121C17.8807 1.99121 19 3.1105 19 4.49121ZM16.5025 10.9998C14.2934 10.9998 12.5025 12.7906 12.5025 14.9998L12.5023 17.9998L11.5539 18.8001C11.2462 19.0598 11.0923 19.1896 11.0457 19.2911C10.9312 19.5405 11.0391 19.8356 11.2875 19.9523C11.3885 19.9998 11.5898 19.9998 11.9925 19.9998H21.0121C21.4148 19.9998 21.6162 19.9998 21.7172 19.9523C21.9656 19.8356 22.0735 19.5405 21.9589 19.2911C21.9123 19.1896 21.7584 19.0598 21.4507 18.8001L20.5025 17.9998V14.9998C20.5025 12.7906 18.7116 10.9998 16.5025 10.9998ZM18.0025 20.9998C17.7842 21.5824 17.195 21.9998 16.5025 21.9998C15.81 21.9998 15.2208 21.5824 15.0025 20.9998H18.0025Z" fill="#2A2A2A"/>
</svg>
