<svg width="24" height="24" viewBox="0 0 24 24" fill="none" xmlns="http://www.w3.org/2000/svg">
<path d="M19 4.49121C19 5.87192 17.8807 6.99121 16.5 6.99121C16.3246 6.99121 16.1533 6.97314 15.9881 6.93875L14.7084 9.05612C15.0325 9.3545 15.3072 9.70573 15.5189 10.0961C15.0089 10.1977 14.5268 10.3768 14.0856 10.6207C13.638 9.94521 12.871 9.49976 12 9.49976C10.6193 9.49976 9.5 10.619 9.5 11.9998C9.5 13.2198 10.374 14.2358 11.5301 14.4557C11.5107 14.6344 11.5008 14.8159 11.5008 14.9998L11.5007 15.9689C10.3864 15.8301 9.41437 15.2331 8.77921 14.3722L6.98453 15.2201C6.99475 15.3119 7 15.4052 7 15.4998C7 16.8805 5.88071 17.9998 4.5 17.9998C3.11929 17.9998 2 16.8805 2 15.4998C2 14.119 3.11929 12.9998 4.5 12.9998C5.24769 12.9998 5.91872 13.328 6.37685 13.8482L8.13113 13.0194C8.04557 12.6939 8 12.3521 8 11.9998C8 11.0321 8.34357 10.1448 8.91537 9.453L7.92362 8.3236C7.63789 8.43727 7.32624 8.49976 7 8.49976C5.61929 8.49976 4.5 7.38047 4.5 5.99976C4.5 4.61904 5.61929 3.49976 7 3.49976C8.38071 3.49976 9.5 4.61904 9.5 5.99976C9.5 6.50815 9.34825 6.98111 9.08756 7.37579L10.0704 8.49508C10.6426 8.1794 11.3003 7.99976 12 7.99976C12.5054 7.99976 12.9889 8.09349 13.4341 8.26452L14.6793 6.20437C14.2581 5.75692 14 5.1542 14 4.49121C14 3.1105 15.1193 1.99121 16.5 1.99121C17.8807 1.99121 19 3.1105 19 4.49121ZM17.5 4.49121C17.5 3.93893 17.0523 3.49121 16.5 3.49121C15.9477 3.49121 15.5 3.93893 15.5 4.49121C15.5 5.0435 15.9477 5.49121 16.5 5.49121C17.0523 5.49121 17.5 5.0435 17.5 4.49121ZM7 6.99976C7.55228 6.99976 8 6.55204 8 5.99976C8 5.44747 7.55228 4.99976 7 4.99976C6.44772 4.99976 6 5.44747 6 5.99976C6 6.55204 6.44772 6.99976 7 6.99976ZM5.5 15.4998C5.5 14.9475 5.05228 14.4998 4.5 14.4998C3.94772 14.4998 3.5 14.9475 3.5 15.4998C3.5 16.052 3.94772 16.4998 4.5 16.4998C5.05228 16.4998 5.5 16.052 5.5 15.4998ZM16.5025 10.9998C14.2934 10.9998 12.5025 12.7906 12.5025 14.9998L12.5023 17.9998L11.5539 18.8001C11.2462 19.0598 11.0923 19.1896 11.0457 19.2911C10.9312 19.5405 11.0391 19.8356 11.2875 19.9523C11.3885 19.9998 11.5898 19.9998 11.9925 19.9998H21.0121C21.4148 19.9998 21.6162 19.9998 21.7172 19.9523C21.9656 19.8356 22.0735 19.5405 21.9589 19.2911C21.9123 19.1896 21.7584 19.0598 21.4507 18.8001L20.5025 17.9998V14.9998C20.5025 12.7906 18.7116 10.9998 16.5025 10.9998ZM18.0025 20.9998C17.7842 21.5824 17.195 21.9998 16.5025 21.9998C15.81 21.9998 15.2208 21.5824 15.0025 20.9998H18.0025Z" fill="currentColor"/>
</svg>
