<svg width="24" height="24" viewBox="0 0 24 24" fill="none" xmlns="http://www.w3.org/2000/svg">
<path d="M12 5C13.1046 5 14 5.89543 14 7C14 8.10457 13.1046 9 12 9C10.8954 9 10 8.10457 10 7C10 5.89543 10.8954 5 12 5ZM12.5 9.95852C13.9189 9.72048 15 8.4865 15 7C15 5.34315 13.6569 4 12 4C10.3431 4 9 5.34315 9 7C9 8.4865 10.0811 9.72048 11.5 9.95852V13H9.5C8.67157 13 8 13.6716 8 14.5V15H7C5.89543 15 5 15.8954 5 17V19.5C5 19.7761 5.22386 20 5.5 20H18.5C18.7761 20 19 19.7761 19 19.5V17C19 15.8954 18.1046 15 17 15H16V14.5C16 13.6716 15.3284 13 14.5 13H12.5V9.95852ZM9.5 14H14.5C14.7761 14 15 14.2239 15 14.5V15H9V14.5C9 14.2239 9.22386 14 9.5 14ZM7 16H17C17.5523 16 18 16.4477 18 17V19H6V17C6 16.4477 6.44772 16 7 16Z" fill="currentColor"/>
</svg>
