<svg width="24" height="24" viewBox="0 0 24 24" fill="none" xmlns="http://www.w3.org/2000/svg">
<path d="M2.75073 16.4995H21.2495C21.6637 16.4995 21.9995 16.8353 21.9995 17.2495C21.9995 17.6292 21.7173 17.943 21.3513 17.9927L21.2495 17.9995H2.75073C2.33652 17.9995 2.00073 17.6637 2.00073 17.2495C2.00073 16.8698 2.28289 16.556 2.64896 16.5063L2.75073 16.4995H21.2495H2.75073ZM18.2501 5C19.2166 5 20.0001 5.7835 20.0001 6.75V14.2503C20.0001 15.2168 19.2166 16.0003 18.2501 16.0003H5.75011C4.78361 16.0003 4.00011 15.2168 4.00011 14.2503V6.75C4.00011 5.7835 4.78361 5 5.75011 5H18.2501Z" fill="#2A2A2A"/>
</svg>
