<svg width="24" height="24" viewBox="0 0 24 24" fill="none" xmlns="http://www.w3.org/2000/svg">
<path d="M6.51758 6C6.63889 5.15193 7.36824 4.5 8.24986 4.5H18.2499C20.3209 4.5 21.9999 6.17893 21.9999 8.25V13.25C21.9999 14.1316 21.3479 14.861 20.4999 14.9823V8.25C20.4999 7.00736 19.4925 6 18.2499 6H6.51758ZM4 8.75C4 7.7835 4.7835 7 5.75 7H17.75C18.7165 7 19.5 7.7835 19.5 8.75V15.75C19.5 16.7165 18.7165 17.5 17.75 17.5H5.75C4.7835 17.5 4 16.7165 4 15.75V8.75ZM1.96338 18.75C1.96338 18.3358 2.29917 18 2.71338 18H20.311C20.7252 18 21.061 18.3358 21.061 18.75C21.061 19.1642 20.7252 19.5 20.311 19.5H2.71338C2.29917 19.5 1.96338 19.1642 1.96338 18.75Z" fill="#2A2A2A"/>
</svg>
