<svg width="24" height="24" viewBox="0 0 24 24" fill="none" xmlns="http://www.w3.org/2000/svg">
<path d="M13.9229 2.785C12.8541 1.73964 11.1459 1.73964 10.0771 2.785L2.97752 9.72893C2.35238 10.3404 2 11.1779 2 12.0524V18.7504C2 19.993 3.00736 21.0004 4.25 21.0004H10.2905C9.96856 20.5673 9.59934 20.0459 9.25491 19.5004H4.25C3.83579 19.5004 3.5 19.1646 3.5 18.7504V12.0524C3.5 11.5815 3.68974 11.1305 4.02636 10.8013L4.95807 9.89C6.11917 10.6658 7.23257 11.005 8.32755 11.0424C9.52962 11.0834 10.647 10.7574 11.6892 10.3649C12.1273 10.1999 12.5335 10.032 12.9313 9.86747C13.5351 9.61782 14.1195 9.37617 14.7666 9.16512C15.7686 8.83836 16.7785 8.64251 17.8676 8.74144L19.9736 10.8013C20.3103 11.1305 20.5 11.5815 20.5 12.0524V18.7504C20.5 19.1646 20.1642 19.5004 19.75 19.5004H14.7451C14.4007 20.0459 14.0314 20.5673 13.7095 21.0004H19.75C20.9926 21.0004 22 19.993 22 18.7504V12.0524C22 11.1779 21.6476 10.3404 21.0225 9.72893L13.9229 2.785ZM11.126 3.85735C11.6118 3.38219 12.3882 3.38219 12.874 3.85735L16.3633 7.27015C15.6362 7.35397 14.9508 7.52731 14.3016 7.73904C13.6205 7.96113 12.9181 8.25007 12.2612 8.5203C11.874 8.6796 11.5025 8.8324 11.1606 8.96116C10.178 9.3312 9.28284 9.57407 8.37868 9.54323C7.66347 9.51884 6.90187 9.32128 6.05916 8.81306L11.126 3.85735ZM11.264 20.6315C11.4391 20.8623 11.69 20.9852 11.946 21.0004C11.982 21.0025 12.018 21.0025 12.054 21.0004C12.31 20.9852 12.5609 20.8623 12.736 20.6315C12.9829 20.306 13.2675 19.9168 13.5497 19.5004C14.2828 18.4188 15 17.1537 15 16.3435C15 14.6867 13.6569 13.0004 12 13.0004C10.3431 13.0004 9 14.6867 9 16.3435C9 17.1537 9.71723 18.4188 10.4503 19.5004C10.7325 19.9168 11.0171 20.306 11.264 20.6315ZM13.5 16.0004C13.5 16.8288 12.8284 17.5004 12 17.5004C11.1716 17.5004 10.5 16.8288 10.5 16.0004C10.5 15.172 11.1716 14.5004 12 14.5004C12.8284 14.5004 13.5 15.172 13.5 16.0004Z" fill="currentColor"/>
</svg>
