<svg width="24" height="24" viewBox="0 0 24 24" fill="none" xmlns="http://www.w3.org/2000/svg">
<path d="M13.9126 2.85412C12.8464 1.82207 11.1536 1.82206 10.0874 2.85412L2.98964 9.72431C2.35711 10.3366 2 11.1792 2 12.0595V18.7499C2 19.9925 3.00736 20.9999 4.25 20.9999H10.2905C9.86534 20.4279 9.35772 19.702 8.93365 18.9699C8.69137 18.5517 8.46574 18.1135 8.29828 17.6878C8.13627 17.2761 8 16.8055 8 16.3431C8 15.255 8.43546 14.1914 9.12182 13.3966C9.81004 12.5996 10.819 11.9999 12 11.9999C13.181 11.9999 14.19 12.5996 14.8782 13.3966C15.5645 14.1914 16 15.255 16 16.3431C16 16.8055 15.8637 17.2761 15.7017 17.6878C15.5343 18.1135 15.3086 18.5517 15.0664 18.9699C14.6423 19.702 14.1347 20.4279 13.7095 20.9999H19.75C20.9926 20.9999 22 19.9925 22 18.7499V12.0595C22 11.1792 21.6429 10.3366 21.0104 9.72431L13.9126 2.85412ZM11.1306 3.93191C11.6153 3.4628 12.3847 3.4628 12.8694 3.93191L16.3226 7.27446C15.6106 7.35998 14.9387 7.53078 14.3016 7.73855C13.6205 7.96064 12.9181 8.24959 12.2612 8.51982C11.874 8.67912 11.5025 8.83191 11.1606 8.96067C10.178 9.33072 9.28284 9.57358 8.37868 9.54274C7.66856 9.51852 6.91272 9.3236 6.07715 8.82338L11.1306 3.93191ZM11.264 20.631C11.4391 20.8618 11.69 20.9847 11.946 20.9999C11.982 21.002 12.018 21.002 12.054 20.9999C12.31 20.9847 12.5609 20.8618 12.736 20.631C13.6242 19.46 15 17.4651 15 16.3431C15 14.6862 13.6569 12.9999 12 12.9999C10.3431 12.9999 9 14.6862 9 16.3431C9 17.4651 10.3758 19.46 11.264 20.631ZM13.5 15.9999C13.5 16.8283 12.8284 17.4999 12 17.4999C11.1716 17.4999 10.5 16.8283 10.5 15.9999C10.5 15.1715 11.1716 14.4999 12 14.4999C12.8284 14.4999 13.5 15.1715 13.5 15.9999Z" fill="#2A2A2A"/>
</svg>
