<svg width="24" height="24" viewBox="0 0 24 24" fill="none" xmlns="http://www.w3.org/2000/svg">
<path d="M13.9229 2.785C12.8541 1.73964 11.1459 1.73964 10.0771 2.785L2.97752 9.72893C2.35238 10.3404 2 11.1779 2 12.0524V18.7504C2 19.993 3.00736 21.0004 4.25 21.0004H18.5894C18.5961 21.0005 18.6027 21.0005 18.6093 21.0004H19.75C20.9926 21.0004 22 19.993 22 18.7504V12.0524C22 11.1779 21.6476 10.3404 21.0225 9.72893L13.9229 2.785ZM18.643 19.5004L18.5464 19.4886C18.4545 19.4772 18.3187 19.46 18.1455 19.4369C17.799 19.3907 17.3028 19.321 16.7071 19.2276C15.5138 19.0405 13.9286 18.7592 12.3485 18.3818C10.7587 18.0021 9.21547 17.5346 8.08484 16.9863C7.51766 16.7112 7.09607 16.4355 6.82626 16.1718C6.55787 15.9095 6.5 15.7216 6.5 15.6005C6.5 15.2884 6.69957 14.9535 7.52094 14.6144C8.32081 14.2842 9.43325 14.0757 10.658 13.8851C10.8863 13.8496 11.1189 13.8146 11.3528 13.7795C12.3281 13.633 13.3273 13.483 14.1429 13.271C14.6511 13.1389 15.145 12.9695 15.5459 12.7303C15.9465 12.4912 16.341 12.1287 16.4776 11.5824C16.621 11.0086 16.4408 10.496 16.1631 10.0912C15.8957 9.70146 15.5062 9.36029 15.1035 9.06108C14.5902 8.67978 13.9297 8.2815 13.2917 7.89676C12.9572 7.69507 12.6288 7.49708 12.331 7.30715C11.3807 6.70112 10.7007 6.15728 10.4198 5.63897C10.2965 5.41154 10.2668 5.2177 10.3075 5.02285C10.3514 4.81257 10.4958 4.51538 10.8803 4.13081C10.9242 4.08693 10.9615 4.03896 10.9923 3.98813L11.126 3.85735C11.6118 3.38219 12.3882 3.38219 12.874 3.85735L19.9736 10.8013C20.3103 11.1305 20.5 11.5815 20.5 12.0524V18.7504C20.5 19.1646 20.1642 19.5004 19.75 19.5004H18.643ZM8.93866 5.99669C8.98401 6.11954 9.03866 6.23867 9.10103 6.35375C9.58999 7.25587 10.5988 7.98154 11.5245 8.57186C11.9008 8.81188 12.2674 9.03229 12.6172 9.24264C13.206 9.59672 13.7474 9.92233 14.209 10.2652C14.5652 10.5298 14.7985 10.7537 14.9262 10.9398C15.0436 11.1109 15.0308 11.185 15.0224 11.2186C15.0207 11.2252 14.9991 11.3098 14.7772 11.4422C14.5557 11.5744 14.2208 11.7009 13.7656 11.8192C13.0343 12.0093 12.1393 12.144 11.1715 12.2897C10.9276 12.3264 10.679 12.3638 10.4273 12.4029C9.22117 12.5906 7.93728 12.8197 6.94855 13.2279C5.98131 13.6272 5 14.3314 5 15.6005C5 16.2699 5.34364 16.8203 5.7779 17.2446C6.21074 17.6676 6.79293 18.0268 7.4303 18.3359C8.36144 18.7875 9.49968 19.174 10.6762 19.5004H4.25C3.83579 19.5004 3.5 19.1646 3.5 18.7504V12.0524C3.5 11.5815 3.68974 11.1305 4.02636 10.8013L8.93866 5.99669Z" fill="#2A2A2A"/>
</svg>
