<svg width="24" height="24" viewBox="0 0 24 24" fill="none" xmlns="http://www.w3.org/2000/svg">
<path d="M10.0874 2.85412C11.1536 1.82206 12.8464 1.82207 13.9126 2.85412L21.0104 9.72431C21.6429 10.3366 22 11.1792 22 12.0595V18.7499C22 19.9925 20.9926 20.9999 19.75 20.9999H18.6861L18.6297 20.9864C18.5376 20.9642 18.4017 20.9311 18.2283 20.8878C17.8815 20.801 17.385 20.6734 16.7888 20.5103C15.5948 20.1836 14.008 19.7169 12.4255 19.1542C10.835 18.5886 9.28446 17.9385 8.14425 17.2524C7.5727 16.9085 7.13858 16.5757 6.85565 16.2662C6.56848 15.952 6.5 15.7327 6.5 15.6C6.5 15.2879 6.69957 14.953 7.52094 14.6139C8.32081 14.2837 9.43325 14.0752 10.658 13.8846C10.8863 13.8491 11.1188 13.8142 11.3527 13.779C12.3281 13.6326 13.3273 13.4825 14.1429 13.2705C14.6511 13.1384 15.145 12.9691 15.5459 12.7298C15.9465 12.4908 16.341 12.1282 16.4776 11.5819C16.6318 10.9653 16.3867 10.4309 16.0669 10.0353C15.7542 9.64853 15.3056 9.30735 14.8341 9.00386C14.1582 8.56885 13.2952 8.12724 12.4507 7.69508C12.1255 7.52865 11.8029 7.36355 11.4949 7.20084C10.3242 6.58243 9.36305 5.99853 8.85234 5.41671C8.60785 5.13818 8.52602 4.92527 8.51651 4.76675C8.50796 4.62424 8.55032 4.40488 8.82157 4.08561C8.8296 4.07615 8.83736 4.06655 8.84485 4.05682L10.0874 2.85412ZM7.21526 5.63417L2.98964 9.72431C2.35711 10.3366 2 11.1792 2 12.0595V18.7499C2 19.9925 3.00736 20.9999 4.25 20.9999H13.1917C12.7739 20.8632 12.3486 20.7188 11.9229 20.5675C10.3013 19.9908 8.63976 19.3011 7.37089 18.5376C6.7379 18.1568 6.16823 17.7374 5.74851 17.2782C5.33303 16.8237 5 16.2579 5 15.6C5 14.3309 5.98131 13.6267 6.94855 13.2274C7.93728 12.8193 9.22117 12.5901 10.4273 12.4025C10.679 12.3633 10.9276 12.3259 11.1715 12.2892C12.1393 12.1435 13.0343 12.0088 13.7656 11.8187C14.2208 11.7005 14.5557 11.574 14.7772 11.4417C14.9991 11.3093 15.0207 11.2247 15.0224 11.2181C15.0245 11.2096 15.0267 11.2001 15.0183 11.1731C15.0074 11.1385 14.9775 11.0737 14.9004 10.9784C14.7393 10.7791 14.451 10.5412 14.0222 10.2652C13.4128 9.87289 12.6568 9.48606 11.8418 9.06908C11.5008 8.89459 11.1495 8.71481 10.7942 8.52714C9.65287 7.9242 8.44466 7.22608 7.72503 6.40624C7.52369 6.17686 7.34362 5.9193 7.21526 5.63417Z" fill="#2A2A2A"/>
</svg>
