<svg width="24" height="24" viewBox="0 0 24 24" fill="none" xmlns="http://www.w3.org/2000/svg">
<path fill-rule="evenodd" clip-rule="evenodd" d="M6.24976 3C4.45483 3 2.99976 4.45507 2.99976 6.25V17.75C2.99976 19.5449 4.45483 21 6.24976 21H17.7498C19.5447 21 20.9998 19.5449 20.9998 17.75V6.25C20.9998 4.45507 19.5447 3 17.7498 3H6.24976ZM10.0018 7.69697C10.0296 7.30432 10.3563 7 10.7499 7H14.2504C14.6646 7 15.0004 7.33579 15.0004 7.75C15.0004 8.16421 14.6646 8.5 14.2504 8.5H11.4487L11.3073 10.4946L11.3122 10.4945C11.759 10.4838 12.3516 10.4809 12.7369 10.5337L12.7394 10.5341C14.6536 10.8031 15.9872 12.5729 15.7182 14.4871C15.4492 16.4013 13.6794 17.735 11.7652 17.466C10.5403 17.2938 9.55388 16.5067 9.07283 15.4641C8.8993 15.088 9.06353 14.6424 9.43964 14.4689C9.81576 14.2953 10.2613 14.4596 10.4349 14.8357C10.7112 15.4347 11.2753 15.8824 11.9739 15.9806C13.0678 16.1343 14.0791 15.3722 14.2328 14.2784C14.3865 13.185 13.625 12.174 12.5319 12.0197C12.2838 11.9859 11.8097 11.983 11.348 11.994C11.1273 11.9993 10.9252 12.0072 10.7782 12.0138C10.7048 12.0171 10.6455 12.0201 10.6047 12.0222L10.5582 12.0247L10.5465 12.0253L10.5432 12.0255C10.3279 12.038 10.1176 11.9571 9.96616 11.8036C9.81466 11.6502 9.73656 11.4389 9.75181 11.2238L10.0018 7.69697Z" fill="#2A2A2A"/>
</svg>
