<svg width="24" height="24" viewBox="0 0 24 24" fill="none" xmlns="http://www.w3.org/2000/svg">
<path d="M11.12 17.4898C11.17 17.4998 11.25 17.4998 11.25 17.4998V17.5098C11.61 17.5098 11.93 17.2598 11.99 16.8898C12.85 11.7698 15.79 8.27977 15.82 8.24977C16.01 8.02977 16.05 7.71977 15.93 7.44977C15.81 7.17977 15.54 7.00977 15.25 7.00977H8.75C8.34 7.00977 8 7.34977 8 7.75977C8 8.16977 8.34 8.50977 8.75 8.50977H13.76C12.73 10.0398 11.13 12.9198 10.5 16.6298C10.44 17.0298 10.71 17.4198 11.12 17.4898Z" fill="#2A2A2A"/>
<path fill-rule="evenodd" clip-rule="evenodd" d="M3 6.25C3 4.45507 4.45507 3 6.25 3H17.75C19.5449 3 21 4.45507 21 6.25V17.75C21 19.5449 19.5449 21 17.75 21H6.25C4.45507 21 3 19.5449 3 17.75V6.25ZM4.5 6.25C4.5 5.2835 5.2835 4.5 6.25 4.5H17.75C18.7165 4.5 19.5 5.2835 19.5 6.25V17.75C19.5 18.7165 18.7165 19.5 17.75 19.5H6.25C5.2835 19.5 4.5 18.7165 4.5 17.75V6.25Z" fill="#2A2A2A"/>
</svg>
