<svg width="24" height="24" viewBox="0 0 24 24" fill="none" xmlns="http://www.w3.org/2000/svg">
<path fill-rule="evenodd" clip-rule="evenodd" d="M6.25 3C4.45507 3 3 4.45507 3 6.25V17.75C3 19.5449 4.45507 21 6.25 21H17.75C19.5449 21 21 19.5449 21 17.75V6.25C21 4.45507 19.5449 3 17.75 3H6.25ZM15.5 14.25C15.5 13.2005 14.9795 12.301 14.1912 11.7161C14.8335 11.1789 15.25 10.4018 15.25 9.5C15.25 7.77077 13.7186 6.5 12 6.5C10.2814 6.5 8.75 7.77077 8.75 9.5C8.75 10.4018 9.16646 11.1789 9.80877 11.7161C9.02046 12.301 8.5 13.2005 8.5 14.25C8.5 16.1106 10.1359 17.5 12 17.5C13.8641 17.5 15.5 16.1106 15.5 14.25ZM12 8C10.9572 8 10.25 8.74395 10.25 9.5C10.25 10.2561 10.9572 11 12 11C13.0428 11 13.75 10.2561 13.75 9.5C13.75 8.74395 13.0428 8 12 8ZM12 12.5C10.8266 12.5 10 13.3492 10 14.25C10 15.1508 10.8266 16 12 16C13.1734 16 14 15.1508 14 14.25C14 13.3492 13.1734 12.5 12 12.5Z" fill="#2A2A2A"/>
</svg>
