<svg width="24" height="24" viewBox="0 0 24 24" fill="none" xmlns="http://www.w3.org/2000/svg">
<path fill-rule="evenodd" clip-rule="evenodd" d="M6.25 3C4.45507 3 3 4.45507 3 6.25V17.75C3 19.5449 4.45507 21 6.25 21H17.75C19.5449 21 21 19.5449 21 17.75V6.25C21 4.45507 19.5449 3 17.75 3H6.25ZM13.5002 16.25V7.25001C13.5002 6.86442 13.2078 6.54166 12.8241 6.50366C12.4404 6.46567 12.0904 6.72482 12.0148 7.10292C11.9191 7.58119 11.6109 8.22272 11.136 8.80936C10.6617 9.39534 10.0847 9.84794 9.51303 10.0385C9.12008 10.1695 8.90771 10.5942 9.03869 10.9872C9.16968 11.3801 9.59442 11.5925 9.98737 11.4615C10.7655 11.2022 11.452 10.6878 12.0002 10.1003V16.25C12.0002 16.6642 12.336 17 12.7502 17C13.1644 17 13.5002 16.6642 13.5002 16.25Z" fill="#2A2A2A"/>
</svg>
