<svg width="24" height="24" viewBox="0 0 24 24" fill="none" xmlns="http://www.w3.org/2000/svg">
<path d="M12 11.5C10.7574 11.5 9.75 12.5074 9.75 13.75C9.75 14.9926 10.7574 16 12 16C13.2426 16 14.25 14.9926 14.25 13.75C14.25 12.4851 13.3545 11.5 12 11.5ZM12 17.5C10.8254 17.5 9.72931 17.0365 8.94253 16.0661C8.16838 15.1112 7.75 13.7371 7.75 12C7.75 10.6115 8.01167 9.2594 8.68493 8.23057C9.38643 7.15857 10.4978 6.5 12 6.5C13.2479 6.5 14.2419 6.95494 14.9515 7.75383C15.2266 8.06351 15.1985 8.53756 14.8889 8.81263C14.5792 9.08771 14.1051 9.05966 13.8301 8.74997C13.4243 8.29315 12.849 8 12 8C11.0022 8 10.3636 8.40476 9.94007 9.05192C9.59557 9.57837 9.37518 10.2983 9.28996 11.158C9.97266 10.4444 10.9344 10 12 10C14.2268 10 15.75 11.7012 15.75 13.75C15.75 15.8211 14.0711 17.5 12 17.5Z" fill="#2A2A2A"/>
<path fill-rule="evenodd" clip-rule="evenodd" d="M3 6.25C3 4.45507 4.45507 3 6.25 3H17.75C19.5449 3 21 4.45507 21 6.25V17.75C21 19.5449 19.5449 21 17.75 21H6.25C4.45507 21 3 19.5449 3 17.75V6.25ZM4.5 6.25C4.5 5.2835 5.2835 4.5 6.25 4.5H17.75C18.7165 4.5 19.5 5.2835 19.5 6.25V17.75C19.5 18.7165 18.7165 19.5 17.75 19.5H6.25C5.2835 19.5 4.5 18.7165 4.5 17.75V6.25Z" fill="#2A2A2A"/>
</svg>
