<svg width="24" height="24" viewBox="0 0 24 24" fill="none" xmlns="http://www.w3.org/2000/svg">
<path d="M9.75 12C9.75 10.7368 9.93443 9.69765 10.3147 9.00032C10.6636 8.3606 11.1727 8 12 8C12.8273 8 13.3364 8.3606 13.6853 9.00032C14.0656 9.69765 14.25 10.7368 14.25 12C14.25 13.2632 14.0656 14.3023 13.6853 14.9997C13.3364 15.6394 12.8273 16 12 16C11.1727 16 10.6636 15.6394 10.3147 14.9997C9.93443 14.3023 9.75 13.2632 9.75 12ZM12 6.5C10.5773 6.5 9.58644 7.20272 8.99779 8.28217C8.44057 9.304 8.25 10.6399 8.25 12C8.25 13.3601 8.44057 14.696 8.99779 15.7178C9.58644 16.7973 10.5773 17.5 12 17.5C13.4227 17.5 14.4136 16.7973 15.0022 15.7178C15.5594 14.696 15.75 13.3601 15.75 12C15.75 10.6399 15.5594 9.304 15.0022 8.28217C14.4136 7.20272 13.4227 6.5 12 6.5Z" fill="currentColor"/>
<path fill-rule="evenodd" clip-rule="evenodd" d="M3 6.25C3 4.45507 4.45507 3 6.25 3H17.75C19.5449 3 21 4.45507 21 6.25V17.75C21 19.5449 19.5449 21 17.75 21H6.25C4.45507 21 3 19.5449 3 17.75V6.25ZM4.5 6.25C4.5 5.2835 5.2835 4.5 6.25 4.5H17.75C18.7165 4.5 19.5 5.2835 19.5 6.25V17.75C19.5 18.7165 18.7165 19.5 17.75 19.5H6.25C5.2835 19.5 4.5 18.7165 4.5 17.75V6.25Z" fill="currentColor"/>
</svg>
