<svg width="24" height="24" viewBox="0 0 24 24" fill="none" xmlns="http://www.w3.org/2000/svg">
<path fill-rule="evenodd" clip-rule="evenodd" d="M6.25 3C4.45507 3 3 4.45507 3 6.25V17.75C3 19.5449 4.45507 21 6.25 21H17.75C19.5449 21 21 19.5449 21 17.75V6.25C21 4.45507 19.5449 3 17.75 3H6.25ZM12 14C13.0656 14 14.0273 13.5556 14.71 12.842C14.6248 13.7017 14.4044 14.4216 14.0599 14.9481C13.6364 15.5952 12.9978 16 12 16C11.151 16 10.5757 15.7069 10.1699 15.25C9.89487 14.9403 9.42082 14.9123 9.11114 15.1874C8.80145 15.4624 8.7734 15.9365 9.04847 16.2462C9.75808 17.0451 10.7521 17.5 12 17.5C13.5022 17.5 14.6136 16.8414 15.3151 15.7694C15.9883 14.7406 16.25 13.3885 16.25 12C16.25 10.2629 15.8316 8.88883 15.0575 7.93393C14.2707 6.96347 13.1746 6.5 12 6.5C9.92893 6.5 8.25 8.17893 8.25 10.25C8.25 12.2988 9.77318 14 12 14ZM12 12.5C10.6455 12.5 9.75 11.5149 9.75 10.25C9.75 9.00736 10.7574 8 12 8C13.2426 8 14.25 9.00736 14.25 10.25C14.25 11.4926 13.2426 12.5 12 12.5Z" fill="#2A2A2A"/>
</svg>
