<svg width="24" height="24" viewBox="0 0 24 24" fill="none" xmlns="http://www.w3.org/2000/svg">
<path fill-rule="evenodd" clip-rule="evenodd" d="M6.25 3C4.45507 3 3 4.45507 3 6.25V17.75C3 19.5449 4.45507 21 6.25 21H17.75C19.5449 21 21 19.5449 21 17.75V6.25C21 4.45507 19.5449 3 17.75 3H6.25ZM11.25 17.4998C11.25 17.4998 11.17 17.4998 11.12 17.4898C10.71 17.4198 10.44 17.0298 10.5 16.6298C11.13 12.9198 12.73 10.0398 13.76 8.50977H8.75C8.34 8.50977 8 8.16977 8 7.75977C8 7.34977 8.34 7.00977 8.75 7.00977H15.25C15.54 7.00977 15.81 7.17977 15.93 7.44977C16.05 7.71977 16.01 8.02977 15.82 8.24977C15.79 8.27977 12.85 11.7698 11.99 16.8898C11.93 17.2598 11.61 17.5098 11.25 17.5098V17.4998Z" fill="#2A2A2A"/>
</svg>
