<svg width="24" height="24" viewBox="0 0 24 24" fill="none" xmlns="http://www.w3.org/2000/svg">
<path d="M6.74715 3L17.2535 3.00169C19.2573 3.00259 20.8938 4.57474 20.9979 6.55303L21.0031 6.75217V11.2447C21.0031 11.6589 20.6674 11.9947 20.2531 11.9947C19.8734 11.9947 19.5597 11.7126 19.51 11.3465L19.5031 11.2447V6.75239C19.5028 5.5615 18.5777 4.58661 17.407 4.50695L17.253 4.50169L6.74646 4.5C5.56878 4.4991 4.60212 5.404 4.50464 6.55687L4.49679 6.71556L4.4994 17.2517C4.49999 18.4426 5.42528 19.4173 6.5959 19.4969L6.74992 19.5021H11.2463C11.6605 19.5021 11.9963 19.8379 11.9963 20.2521C11.9963 20.6318 11.7141 20.9456 11.348 20.9952L11.2463 21.0021H6.74969C4.74586 21.0015 3.10913 19.4296 3.00469 17.4514L2.9994 17.2522L2.99756 6.75264L3.00178 6.54921C3.10219 4.63646 4.63578 3.10372 6.54803 3.00505L6.74715 3ZM9.75043 8.99958H16.2543C16.6685 8.99958 17.0043 9.33536 17.0043 9.74958C17.0043 10.1293 16.7222 10.4431 16.3561 10.4927L16.2543 10.4996L11.5596 10.499L18.7837 17.7196C19.05 17.9858 19.0743 18.4024 18.8565 18.6961L18.7839 18.7802C18.5177 19.0466 18.101 19.0709 17.8074 18.8531L17.7232 18.7805L10.4996 11.56L10.5004 16.2511C10.5004 16.6308 10.2183 16.9446 9.8522 16.9943L9.75043 17.0011C9.37074 17.0011 9.05694 16.7189 9.00728 16.3529L9.0004 16.2511L9.00058 9.73438C8.99981 9.70891 9.0016 9.68355 9.00468 9.65832L9.02623 9.54991L9.06093 9.4536L9.06616 9.44208C9.10135 9.36099 9.15255 9.28553 9.21869 9.21937L9.26272 9.17865L9.3442 9.1181L9.40357 9.0838L9.49889 9.04243L9.56569 9.0225L9.62759 9.00943L9.72078 9.00011L16.2543 8.99958H9.75043Z" fill="#2A2A2A"/>
</svg>
