<svg width="24" height="24" viewBox="0 0 24 24" fill="none" xmlns="http://www.w3.org/2000/svg">
<path d="M6.74715 3L17.2535 3.00169C19.2573 3.00259 20.8938 4.57474 20.9979 6.55303L21.0031 6.75217V11.2447C21.0031 11.6589 20.6674 11.9947 20.2531 11.9947C19.8734 11.9947 19.5597 11.7126 19.51 11.3465L19.5031 11.2447V6.75239C19.5028 5.5615 18.5777 4.58661 17.407 4.50695L17.253 4.50169L6.74646 4.5C5.56878 4.4991 4.60212 5.404 4.50464 6.55687L4.49679 6.71556L4.4994 17.2517C4.49999 18.4426 5.42528 19.4173 6.5959 19.4969L6.74992 19.5021H11.2463C11.6605 19.5021 11.9963 19.8379 11.9963 20.2521C11.9963 20.6318 11.7141 20.9456 11.348 20.9952L11.2463 21.0021H6.74969C4.74586 21.0015 3.10913 19.4296 3.00469 17.4514L2.9994 17.2522L2.99756 6.75264L3.00178 6.54921C3.10219 4.63646 4.63578 3.10372 6.54803 3.00505L6.74715 3ZM9.94071 9.00177L15.9963 9.0012C16.5486 9.0012 16.9963 9.44892 16.9963 10.0012C16.9963 10.514 16.6103 10.9367 16.1129 10.9945L15.9963 11.0012L12.4166 11.001L18.9604 17.5428C19.321 17.9032 19.3488 18.4704 19.0439 18.8628L18.9607 18.957C18.6003 19.3175 18.0331 19.3454 17.6407 19.0404L17.5465 18.9573L10.9986 12.412L10.9988 16.0024C10.9988 16.5152 10.6127 16.9379 10.1154 16.9957L9.99877 17.0024C9.48593 17.0024 9.06326 16.6164 9.00549 16.119L8.99877 16.0024V10.0012L9.00224 9.91724L9.01775 9.81164L9.02673 9.76595L9.04572 9.70025L9.08207 9.60124L9.14583 9.4795C9.18737 9.41145 9.23666 9.34904 9.29248 9.2933L9.40184 9.19849L9.52358 9.12048L9.62544 9.07252L9.71407 9.04164L9.82533 9.0154L9.94071 9.00177L15.9963 9.0012L9.94071 9.00177Z" fill="#2A2A2A"/>
</svg>
