<svg width="24" height="24" viewBox="0 0 24 24" fill="none" xmlns="http://www.w3.org/2000/svg">
<path d="M15.8911 3.04825C17.2885 1.65064 19.5543 1.65058 20.9519 3.0481C22.3493 4.4455 22.3493 6.71112 20.952 8.10861L17.9075 11.1534C17.4543 11.0534 16.9833 11.0006 16.5 11.0006C16.3021 11.0006 16.1063 11.0095 15.913 11.0268L19.8913 7.04801C20.7029 6.23632 20.7028 4.9204 19.8912 4.10876C19.0795 3.29705 17.7634 3.29709 16.9518 4.10884L5.00175 16.0603C4.79168 16.2704 4.64402 16.5346 4.57521 16.8237L3.76191 20.2395L7.17755 19.4263C7.46668 19.3574 7.73104 19.2097 7.94119 18.9995L10.0261 16.9144C10.0088 17.1075 10 17.303 10 17.5006C10 17.9842 10.0528 18.4555 10.153 18.9089L9.00191 20.0601C8.59546 20.4666 8.08418 20.7523 7.52498 20.8855L2.92373 21.981C2.67037 22.0413 2.40385 21.9659 2.21968 21.7817C2.03552 21.5976 1.96009 21.3311 2.02041 21.0777L3.116 16.4762C3.2491 15.9172 3.5347 15.4061 3.94103 14.9997L15.8911 3.04825ZM22 17.5006C22 14.4631 19.5376 12.0006 16.5 12.0006C13.4624 12.0006 11 14.4631 11 17.5006C11 20.5382 13.4624 23.0006 16.5 23.0006C19.5376 23.0006 22 20.5382 22 17.5006ZM12.5 17.5006C12.5 15.2915 14.2909 13.5006 16.5 13.5006C17.3335 13.5006 18.1075 13.7556 18.7482 14.1918L13.1911 19.7489C12.755 19.1082 12.5 18.3342 12.5 17.5006ZM16.5 21.5006C15.6665 21.5006 14.8925 21.2457 14.2518 20.8095L19.8089 15.2524C20.245 15.8931 20.5 16.6671 20.5 17.5006C20.5 19.7098 18.7091 21.5006 16.5 21.5006Z" fill="currentColor"/>
</svg>
