<svg width="24" height="24" viewBox="0 0 24 24" fill="none" xmlns="http://www.w3.org/2000/svg">
<path d="M8.93934 10.0008L2.21966 3.28097C1.92677 2.98807 1.92678 2.5132 2.21968 2.22031C2.51257 1.92742 2.98745 1.92742 3.28034 2.22032L21.7801 20.7205C22.073 21.0134 22.073 21.4882 21.7801 21.7811C21.4872 22.074 21.0123 22.074 20.7194 21.7811L14 15.0615L9.00191 20.0601C8.59546 20.4666 8.08418 20.7523 7.52498 20.8855L2.92373 21.981C2.67037 22.0413 2.40385 21.9659 2.21968 21.7817C2.03552 21.5976 1.96009 21.3311 2.02041 21.0777L3.116 16.4762C3.2491 15.9172 3.5347 15.4061 3.94103 14.9997L8.93934 10.0008ZM12.9393 14.0008L9.99999 11.0615L5.00175 16.0603C4.79168 16.2704 4.64402 16.5346 4.57521 16.8237L3.76191 20.2395L7.17755 19.4263C7.46668 19.3574 7.73104 19.2097 7.94119 18.9995L12.9393 14.0008ZM19.8913 7.04801L15.0603 11.8795L16.121 12.9402L18.9995 10.0614C19.6777 10.7452 19.676 11.8494 18.9943 12.531L17.353 14.1723L18.4137 15.233L20.055 13.5917C21.3224 12.3242 21.3242 10.2703 20.0601 9.00064L20.952 8.10861C22.3493 6.71112 22.3493 4.4455 20.9519 3.0481C19.5543 1.65058 17.2885 1.65064 15.8911 3.04825L11.0604 7.87951L12.121 8.94018L16.9518 4.10884C17.7634 3.29709 19.0795 3.29705 19.8912 4.10876C20.7028 4.9204 20.7029 6.23632 19.8913 7.04801Z" fill="#2A2A2A"/>
</svg>
