<svg width="24" height="24" viewBox="0 0 24 24" fill="none" xmlns="http://www.w3.org/2000/svg">
<path d="M15.8911 3.04825C17.2885 1.65064 19.5543 1.65058 20.9519 3.0481C22.3493 4.4455 22.3493 6.71112 20.952 8.10861L20.0606 9.00015C21.3252 10.2698 21.3236 12.3241 20.0559 13.5917L18.2725 15.3751C17.9796 15.668 17.5048 15.668 17.2119 15.3751C16.919 15.0822 16.919 14.6073 17.2119 14.3144L18.9953 12.531C19.6771 11.8492 19.6787 10.7447 19 10.0609L9.00191 20.0601C8.59546 20.4666 8.08418 20.7523 7.52498 20.8855L2.92373 21.981C2.67037 22.0413 2.40385 21.9659 2.21968 21.7817C2.03552 21.5976 1.96009 21.3311 2.02041 21.0777L3.116 16.4762C3.2491 15.9172 3.5347 15.4061 3.94103 14.9997L15.8911 3.04825Z" fill="#2A2A2A"/>
</svg>
