<svg width="24" height="24" viewBox="0 0 24 24" fill="none" xmlns="http://www.w3.org/2000/svg">
<path d="M14.0001 21.3716V13.9992H4.25254C3.01052 13.9992 2.00366 15.0061 2.00366 16.2481V17.1681C2.00366 17.7401 2.18207 18.298 2.51403 18.7639C4.05619 20.9282 6.57915 22.0004 10.0001 22.0004C11.5105 22.0004 12.8462 21.7914 14.0001 21.3716ZM10.0001 2.00391C12.7615 2.00391 15.0001 4.24248 15.0001 7.00391C15.0001 9.76533 12.7615 12.0039 10.0001 12.0039C7.2387 12.0039 5.00012 9.76533 5.00012 7.00391C5.00012 4.24248 7.2387 2.00391 10.0001 2.00391ZM21.2545 9.99925C22.221 9.99925 23.0045 10.7828 23.0045 11.7493V21.2494C23.0045 22.2159 22.221 22.9994 21.2545 22.9994H16.7501C15.7836 22.9994 15.0001 22.2159 15.0001 21.2494V11.7493C15.0001 10.7828 15.7836 9.99925 16.7501 9.99925H21.2545ZM19.2523 18.9963H18.7523L18.6505 19.0031C18.2845 19.0528 18.0023 19.3666 18.0023 19.7463C18.0023 20.1605 18.3381 20.4963 18.7523 20.4963H19.2523L19.3541 20.4894C19.7202 20.4397 20.0023 20.1259 20.0023 19.7463C20.0023 19.332 19.6665 18.9963 19.2523 18.9963Z" fill="currentColor"/>
</svg>
