<svg width="24" height="24" viewBox="0 0 24 24" fill="none" xmlns="http://www.w3.org/2000/svg">
<path d="M17.7153 15.9522C17.2152 15.4262 17.0117 14.6949 17.1516 13.9992H6.25278C5.01076 13.9992 4.00391 15.0061 4.00391 16.2481V17.1681C4.00391 17.7401 4.18231 18.298 4.51427 18.7639C6.05643 20.9282 8.5794 22.0004 12.0004 22.0004C12.3894 22.0004 12.7669 21.9865 13.1326 21.9587C12.8777 21.2478 12.9874 20.4281 13.4863 19.7983L14.2863 18.7885C14.8183 18.1169 15.6918 17.8163 16.5244 18.0183L17.3623 18.2215C17.8818 17.7843 18.1916 17.2468 18.3097 16.5774L17.7153 15.9522ZM12.0004 2.00391C14.7618 2.00391 17.0004 4.24248 17.0004 7.00391C17.0004 9.76533 14.7618 12.0039 12.0004 12.0039C9.23894 12.0039 7.00036 9.76533 7.00036 7.00391C7.00036 4.24248 9.23894 2.00391 12.0004 2.00391ZM18.1924 13.9942L18.6679 12.7896C18.9104 12.175 19.5886 11.8561 20.2161 12.0614L20.6472 12.2025C21.3714 12.4395 21.9726 13.0086 21.997 13.7712C22.0962 16.8822 19.5215 21.3538 16.7841 22.8263C16.1109 23.1884 15.3158 22.9489 14.7485 22.435L14.4118 22.13C13.9231 21.6874 13.8611 20.9409 14.2702 20.4243L15.0701 19.4141C15.3603 19.0477 15.8368 18.8836 16.2909 18.9939L17.5822 19.3072C18.6853 18.5772 19.2765 17.551 19.3557 16.2284L18.4395 15.2645C18.117 14.9252 18.0206 14.4294 18.1924 13.9942Z" fill="currentColor"/>
</svg>
