<svg width="24" height="24" viewBox="0 0 24 24" fill="none" xmlns="http://www.w3.org/2000/svg">
<path d="M13 14.0493V13.9992H4.25278C3.01076 13.9992 2.00391 15.0061 2.00391 16.2481V16.8258C2.00391 17.7185 2.32242 18.582 2.90219 19.2609C4.46849 21.0952 6.8545 22.0004 10.0004 22.0004C10.3579 22.0004 10.7055 21.9887 11.0434 21.9653C11.0149 21.8143 11 21.6585 11 21.4993V20.4648C10.679 20.4885 10.3458 20.5004 10.0004 20.5004C7.26206 20.5004 5.29618 19.7546 4.04287 18.2869C3.69502 17.8795 3.50391 17.3614 3.50391 16.8258V16.2481C3.50391 15.8345 3.83919 15.4992 4.25278 15.4992H11.2081C11.5294 14.7638 12.1944 14.2129 13 14.0493ZM10.0004 2.00391C12.7618 2.00391 15.0004 4.24248 15.0004 7.00391C15.0004 9.76533 12.7618 12.0039 10.0004 12.0039C7.23894 12.0039 5.00036 9.76533 5.00036 7.00391C5.00036 4.24248 7.23894 2.00391 10.0004 2.00391ZM10.0004 3.50391C8.06737 3.50391 6.50036 5.07091 6.50036 7.00391C6.50036 8.9369 8.06737 10.5039 10.0004 10.5039C11.9334 10.5039 13.5004 8.9369 13.5004 7.00391C13.5004 5.07091 11.9334 3.50391 10.0004 3.50391ZM14 14.9993H13.5C12.6716 14.9993 12 15.6709 12 16.4993V21.4993C12 22.3277 12.6716 22.9993 13.5 22.9993H21.5C22.3284 22.9993 23 22.3277 23 21.4993V16.4993C23 15.6709 22.3284 14.9993 21.5 14.9993H21V13.7493C21 12.7828 20.2165 11.9993 19.25 11.9993H15.75C14.7835 11.9993 14 12.7828 14 13.7493V14.9993ZM15.5 13.7493C15.5 13.6112 15.6119 13.4993 15.75 13.4993H19.25C19.3881 13.4993 19.5 13.6112 19.5 13.7493V14.9993H15.5V13.7493Z" fill="#2A2A2A"/>
</svg>
