<svg width="24" height="24" viewBox="0 0 24 24" fill="none" xmlns="http://www.w3.org/2000/svg">
<path d="M12.0224 13.9986C11.3753 15.009 11.0001 16.2103 11.0001 17.4993C11.0001 19.1296 11.6003 20.6198 12.5919 21.7608C11.7963 21.9209 10.9314 22.0004 10.0001 22.0004C6.57915 22.0004 4.05619 20.9282 2.51403 18.7639C2.18207 18.298 2.00366 17.7401 2.00366 17.1681V16.2481C2.00366 15.0061 3.01052 13.9992 4.25254 13.9992L12.0224 13.9986ZM17.5001 11.9993C20.5377 11.9993 23.0001 14.4617 23.0001 17.4993C23.0001 20.5368 20.5377 22.9993 17.5001 22.9993C14.4626 22.9993 12.0001 20.5368 12.0001 17.4993C12.0001 14.4617 14.4626 11.9993 17.5001 11.9993ZM17.5001 19.7503C17.1552 19.7503 16.8756 20.0299 16.8756 20.3748C16.8756 20.7197 17.1552 20.9993 17.5001 20.9993C17.845 20.9993 18.1246 20.7197 18.1246 20.3748C18.1246 20.0299 17.845 19.7503 17.5001 19.7503ZM17.5002 13.8734C16.4522 13.8734 15.6359 14.6907 15.6468 15.8276C15.6494 16.1038 15.8754 16.3255 16.1516 16.3228C16.4277 16.3202 16.6494 16.0942 16.6467 15.818C16.6412 15.239 17.0064 14.8734 17.5002 14.8734C17.9725 14.8734 18.3536 15.2652 18.3536 15.8228C18.3536 16.0151 18.2983 16.1652 18.1296 16.3844L18.0356 16.5002L17.9366 16.6135L17.6712 16.9036L17.5348 17.0607C17.1515 17.5175 17.0002 17.8533 17.0002 18.3709C17.0002 18.647 17.224 18.8709 17.5002 18.8709C17.7763 18.8709 18.0002 18.647 18.0002 18.3709C18.0002 18.1676 18.0587 18.0119 18.239 17.7806L18.3239 17.6765L18.4249 17.561L18.6906 17.2705L18.8252 17.1155C19.2035 16.6646 19.3536 16.3323 19.3536 15.8228C19.3536 14.7191 18.5312 13.8734 17.5002 13.8734ZM10.0001 2.00391C12.7615 2.00391 15.0001 4.24248 15.0001 7.00391C15.0001 9.76533 12.7615 12.0039 10.0001 12.0039C7.2387 12.0039 5.00012 9.76533 5.00012 7.00391C5.00012 4.24248 7.2387 2.00391 10.0001 2.00391Z" fill="currentColor"/>
</svg>
