<svg width="24" height="24" viewBox="0 0 24 24" fill="none" xmlns="http://www.w3.org/2000/svg">
<path d="M11 17.4993C11 16.2106 11.375 15.0095 12.0219 13.9992H5.25278C4.01076 13.9992 3.00391 15.0061 3.00391 16.2481V17.1681C3.00391 17.7401 3.18231 18.298 3.51427 18.7639C5.05643 20.9282 7.5794 22.0004 11.0004 22.0004C11.6005 22.0004 12.173 21.9674 12.7174 21.9013C11.6512 20.7434 11 19.1974 11 17.4993ZM11.0004 2.00391C13.7618 2.00391 16.0004 4.24248 16.0004 7.00391C16.0004 9.76533 13.7618 12.0039 11.0004 12.0039C8.23894 12.0039 6.00036 9.76533 6.00036 7.00391C6.00036 4.24248 8.23894 2.00391 11.0004 2.00391ZM23 17.4993C23 20.5368 20.5376 22.9993 17.5 22.9993C14.4624 22.9993 12 20.5368 12 17.4993C12 14.4617 14.4624 11.9993 17.5 11.9993C20.5376 11.9993 23 14.4617 23 17.4993ZM13.5 17.4993C13.5 19.7084 15.2909 21.4993 17.5 21.4993C19.7091 21.4993 21.5 19.7084 21.5 17.4993C21.5 15.2901 19.7091 13.4993 17.5 13.4993C15.2909 13.4993 13.5 15.2901 13.5 17.4993ZM18.5 15.4993C18.5 16.0516 18.0523 16.4993 17.5 16.4993C16.9477 16.4993 16.5 16.0516 16.5 15.4993C16.5 14.947 16.9477 14.4993 17.5 14.4993C18.0523 14.4993 18.5 14.947 18.5 15.4993ZM18.25 17.9993C18.25 17.5851 17.9142 17.2493 17.5 17.2493C17.0858 17.2493 16.75 17.5851 16.75 17.9993V19.7493C16.75 20.1635 17.0858 20.4993 17.5 20.4993C17.9142 20.4993 18.25 20.1635 18.25 19.7493V17.9993Z" fill="#2A2A2A"/>
</svg>
