<svg width="24" height="24" viewBox="0 0 24 24" fill="none" xmlns="http://www.w3.org/2000/svg">
<path d="M17.5001 11.9993C20.5377 11.9993 23.0001 14.4617 23.0001 17.4993C23.0001 20.5368 20.5377 22.9993 17.5001 22.9993C14.4626 22.9993 12.0001 20.5368 12.0001 17.4993C12.0001 14.4617 14.4626 11.9993 17.5001 11.9993ZM14.8537 17.1457C14.6584 16.9505 14.3418 16.9505 14.1466 17.1457C13.9513 17.341 13.9513 17.6576 14.1466 17.8528L16.1466 19.8528C16.3418 20.0481 16.6584 20.0481 16.8537 19.8528L20.8537 15.8528C21.0489 15.6576 21.0489 15.341 20.8537 15.1457C20.6584 14.9505 20.3418 14.9505 20.1466 15.1457L16.5001 18.7922L14.8537 17.1457ZM12.0224 13.9986C11.7257 14.4619 11.4862 14.9653 11.3137 15.4989L4.25254 15.4992C3.83895 15.4992 3.50366 15.8345 3.50366 16.2481V16.8258C3.50366 17.3614 3.69477 17.8795 4.04263 18.2869C5.29594 19.7546 7.26182 20.5004 10.0001 20.5004C10.5966 20.5004 11.1564 20.465 11.6804 20.3944C11.9255 20.8893 12.2331 21.3479 12.5919 21.7608C11.7964 21.921 10.9315 22.0004 10.0001 22.0004C6.85426 22.0004 4.46825 21.0952 2.90194 19.2609C2.32218 18.582 2.00366 17.7185 2.00366 16.8258V16.2481C2.00366 15.0061 3.01052 13.9992 4.25254 13.9992L12.0224 13.9986ZM10.0001 2.00391C12.7615 2.00391 15.0001 4.24248 15.0001 7.00391C15.0001 9.76533 12.7615 12.0039 10.0001 12.0039C7.2387 12.0039 5.00012 9.76533 5.00012 7.00391C5.00012 4.24248 7.2387 2.00391 10.0001 2.00391ZM10.0001 3.50391C8.06712 3.50391 6.50012 5.07091 6.50012 7.00391C6.50012 8.9369 8.06712 10.5039 10.0001 10.5039C11.9331 10.5039 13.5001 8.9369 13.5001 7.00391C13.5001 5.07091 11.9331 3.50391 10.0001 3.50391Z" fill="currentColor"/>
</svg>
