<svg width="24" height="24" viewBox="0 0 24 24" fill="none" xmlns="http://www.w3.org/2000/svg">
<path d="M17.5001 11.9993C20.5377 11.9993 23.0001 14.4617 23.0001 17.4993C23.0001 20.5368 20.5377 22.9993 17.5001 22.9993C14.4626 22.9993 12.0001 20.5368 12.0001 17.4993C12.0001 14.4617 14.4626 11.9993 17.5001 11.9993ZM12.0224 13.9986C11.7257 14.4619 11.4862 14.9653 11.3137 15.4989L4.25366 15.4992C3.83945 15.4992 3.50366 15.835 3.50366 16.2492V17.1565C3.50366 17.8122 3.78965 18.4352 4.28683 18.8626C5.54491 19.9443 7.44092 20.5004 10.0001 20.5004C10.599 20.5004 11.1616 20.4699 11.6883 20.4094C11.9372 20.9096 12.251 21.3733 12.6172 21.7898C11.815 21.9306 10.9421 22.0004 10.0001 22.0004C7.11062 22.0004 4.87181 21.3438 3.30894 20.0001C2.48032 19.2877 2.00366 18.2493 2.00366 17.1565V16.2492C2.00366 15.0066 3.01102 13.9992 4.25366 13.9992L12.0224 13.9986ZM16.7193 14.5879L16.6501 14.6457L14.1345 17.162L14.0938 17.2127L14.0592 17.2701L14.0269 17.3481L14.0154 17.3913L14.0041 17.4777L14.008 17.5651L14.0269 17.6503L14.0589 17.728L14.0835 17.7704L14.1344 17.8364L16.6501 20.3528C16.8454 20.5481 17.1619 20.5481 17.3572 20.3528C17.5308 20.1793 17.5501 19.9098 17.4151 19.715L17.3572 19.6457L15.7111 17.9993H20.5001C20.7456 17.9993 20.9497 17.8224 20.9921 17.5892L21.0001 17.4993C21.0001 17.2538 20.8232 17.0497 20.59 17.0073L20.5001 16.9993H15.7111L17.3572 15.3528C17.5308 15.1793 17.5501 14.9098 17.4151 14.715L17.3572 14.6457C17.1836 14.4722 16.9142 14.4529 16.7193 14.5879ZM10.0001 2.00391C12.7615 2.00391 15.0001 4.24248 15.0001 7.00391C15.0001 9.76533 12.7615 12.0039 10.0001 12.0039C7.2387 12.0039 5.00012 9.76533 5.00012 7.00391C5.00012 4.24248 7.2387 2.00391 10.0001 2.00391ZM10.0001 3.50391C8.06712 3.50391 6.50012 5.07091 6.50012 7.00391C6.50012 8.9369 8.06712 10.5039 10.0001 10.5039C11.9331 10.5039 13.5001 8.9369 13.5001 7.00391C13.5001 5.07091 11.9331 3.50391 10.0001 3.50391Z" fill="currentColor"/>
</svg>
