<svg width="24" height="24" viewBox="0 0 24 24" fill="none" xmlns="http://www.w3.org/2000/svg">
<path d="M14.7543 15C15.9963 15 17.0032 16.0069 17.0032 17.2489V17.8243C17.0032 18.7186 16.6836 19.5834 16.1021 20.2628C14.5327 22.0963 12.1455 23.0011 9.00012 23.0011C5.85426 23.0011 3.46825 22.096 1.90194 20.2617C1.32218 19.5828 1.00366 18.7193 1.00366 17.8266V17.2489C1.00366 16.0069 2.01052 15 3.25254 15H14.7543ZM14.7543 16.5H3.25254C2.83895 16.5 2.50366 16.8353 2.50366 17.2489V17.8266C2.50366 18.3622 2.69477 18.8803 3.04263 19.2877C4.29594 20.7554 6.26182 21.5011 9.00012 21.5011C11.7384 21.5011 13.706 20.7553 14.9625 19.2874C15.3114 18.8798 15.5032 18.3609 15.5032 17.8243V17.2489C15.5032 16.8353 15.1679 16.5 14.7543 16.5ZM19.0541 1.40364C19.4137 1.19813 19.8719 1.32306 20.0774 1.6827C21.168 3.59117 21.7501 5.75412 21.7501 8.00008C21.7501 10.2536 21.1641 12.4235 20.0665 14.3365C19.8603 14.6958 19.402 14.82 19.0427 14.6138C18.6834 14.4077 18.5593 13.9493 18.7654 13.5901C19.7335 11.9027 20.2501 9.98993 20.2501 8.00008C20.2501 6.01691 19.737 4.11023 18.775 2.42693C18.5695 2.0673 18.6945 1.60916 19.0541 1.40364ZM9.00012 3.0047C11.7615 3.0047 14.0001 5.24328 14.0001 8.0047C14.0001 10.7661 11.7615 13.0047 9.00012 13.0047C6.2387 13.0047 4.00012 10.7661 4.00012 8.0047C4.00012 5.24328 6.2387 3.0047 9.00012 3.0047ZM15.5886 3.39951C15.9487 3.19476 16.4066 3.32068 16.6113 3.68076C17.3539 4.98671 17.7501 6.46544 17.7501 8.00008C17.7501 9.53822 17.3521 11.0202 16.6063 12.3282C16.4011 12.6881 15.9431 12.8135 15.5833 12.6083C15.2234 12.4031 15.098 11.9451 15.3032 11.5853C15.9208 10.5021 16.2501 9.27594 16.2501 8.00008C16.2501 6.72712 15.9223 5.50362 15.3074 4.4222C15.1026 4.06212 15.2285 3.60425 15.5886 3.39951ZM9.00012 4.5047C7.06712 4.5047 5.50012 6.0717 5.50012 8.0047C5.50012 9.9377 7.06712 11.5047 9.00012 11.5047C10.9331 11.5047 12.5001 9.9377 12.5001 8.0047C12.5001 6.0717 10.9331 4.5047 9.00012 4.5047Z" fill="#2A2A2A"/>
</svg>
