<svg width="24" height="24" viewBox="0 0 24 24" fill="none" xmlns="http://www.w3.org/2000/svg">
<path d="M14 15.4992V13.9992H4.25229C3.01027 13.9992 2.00342 15.0061 2.00342 16.2481V16.8258C2.00342 17.7185 2.32194 18.582 2.9017 19.2609C4.468 21.0952 6.85401 22.0004 9.99988 22.0004C11.5103 22.0004 12.8459 21.7917 14 21.3718V19.7515C12.9184 20.2492 11.5889 20.5004 9.99988 20.5004C7.26157 20.5004 5.29569 19.7546 4.04239 18.2869C3.69453 17.8795 3.50342 17.3614 3.50342 16.8258V16.2481C3.50342 15.8345 3.8387 15.4992 4.25229 15.4992H14ZM9.99988 2.00391C12.7613 2.00391 14.9999 4.24248 14.9999 7.00391C14.9999 9.76533 12.7613 12.0039 9.99988 12.0039C7.23845 12.0039 4.99988 9.76533 4.99988 7.00391C4.99988 4.24248 7.23845 2.00391 9.99988 2.00391ZM9.99988 3.50391C8.06688 3.50391 6.49988 5.07091 6.49988 7.00391C6.49988 8.9369 8.06688 10.5039 9.99988 10.5039C11.9329 10.5039 13.4999 8.9369 13.4999 7.00391C13.4999 5.07091 11.9329 3.50391 9.99988 3.50391ZM21.2544 9.99927C22.2209 9.99927 23.0044 10.7828 23.0044 11.7493V21.2494C23.0044 22.2159 22.2209 22.9994 21.2544 22.9994H16.75C15.7835 22.9994 15 22.2159 15 21.2494V11.7493C15 10.7828 15.7835 9.99927 16.75 9.99927H21.2544ZM19.2522 18.9963H18.7522L18.6504 19.0031C18.2844 19.0528 18.0022 19.3666 18.0022 19.7463C18.0022 20.1605 18.338 20.4963 18.7522 20.4963H19.2522L19.354 20.4894C19.7201 20.4398 20.0022 20.126 20.0022 19.7463C20.0022 19.3321 19.6664 18.9963 19.2522 18.9963Z" fill="#2A2A2A"/>
</svg>
