<svg width="24" height="24" viewBox="0 0 24 24" fill="none" xmlns="http://www.w3.org/2000/svg">
<path d="M11.3135 15.4992C11.4859 14.9657 11.7253 14.4624 12.0219 13.9992H5.25278C4.01076 13.9992 3.00391 15.0061 3.00391 16.2481V16.8258C3.00391 17.7185 3.32242 18.582 3.90219 19.2609C5.46849 21.0952 7.8545 22.0004 11.0004 22.0004C11.6005 22.0004 12.173 21.9674 12.7175 21.9014C12.3264 21.4766 11.9911 20.9997 11.7233 20.4821C11.4886 20.4943 11.2476 20.5004 11.0004 20.5004C8.26206 20.5004 6.29618 19.7546 5.04287 18.2869C4.69502 17.8795 4.50391 17.3614 4.50391 16.8258V16.2481C4.50391 15.8345 4.83919 15.4992 5.25278 15.4992H11.3135ZM11.0004 2.00391C13.7618 2.00391 16.0004 4.24248 16.0004 7.00391C16.0004 9.76533 13.7618 12.0039 11.0004 12.0039C8.23894 12.0039 6.00036 9.76533 6.00036 7.00391C6.00036 4.24248 8.23894 2.00391 11.0004 2.00391ZM11.0004 3.50391C9.06737 3.50391 7.50036 5.07091 7.50036 7.00391C7.50036 8.9369 9.06737 10.5039 11.0004 10.5039C12.9334 10.5039 14.5004 8.9369 14.5004 7.00391C14.5004 5.07091 12.9334 3.50391 11.0004 3.50391ZM23 17.4993C23 20.5368 20.5376 22.9993 17.5 22.9993C14.4624 22.9993 12 20.5368 12 17.4993C12 14.4617 14.4624 11.9993 17.5 11.9993C20.5376 11.9993 23 14.4617 23 17.4993ZM13.5 17.4993C13.5 19.7084 15.2909 21.4993 17.5 21.4993C19.7091 21.4993 21.5 19.7084 21.5 17.4993C21.5 15.2901 19.7091 13.4993 17.5 13.4993C15.2909 13.4993 13.5 15.2901 13.5 17.4993ZM18.5 15.4993C18.5 16.0516 18.0523 16.4993 17.5 16.4993C16.9477 16.4993 16.5 16.0516 16.5 15.4993C16.5 14.947 16.9477 14.4993 17.5 14.4993C18.0523 14.4993 18.5 14.947 18.5 15.4993ZM18.25 17.9993C18.25 17.5851 17.9142 17.2493 17.5 17.2493C17.0858 17.2493 16.75 17.5851 16.75 17.9993V19.7493C16.75 20.1635 17.0858 20.4993 17.5 20.4993C17.9142 20.4993 18.25 20.1635 18.25 19.7493V17.9993Z" fill="currentColor"/>
</svg>
