<svg width="24" height="24" viewBox="0 0 24 24" fill="none" xmlns="http://www.w3.org/2000/svg">
<path d="M13 14.0493V13.9992H4.25278C3.01076 13.9992 2.00391 15.0061 2.00391 16.2481V17.1681C2.00391 17.7401 2.18231 18.298 2.51427 18.7639C4.05643 20.9282 6.5794 22.0004 10.0004 22.0004C10.3578 22.0004 10.7055 21.9886 11.0433 21.9652C11.0149 21.8143 11 21.6585 11 21.4993V16.4993C11 15.2898 11.8589 14.281 13 14.0493ZM10.0004 2.00391C12.7618 2.00391 15.0004 4.24248 15.0004 7.00391C15.0004 9.76533 12.7618 12.0039 10.0004 12.0039C7.23894 12.0039 5.00036 9.76533 5.00036 7.00391C5.00036 4.24248 7.23894 2.00391 10.0004 2.00391ZM14 14.9993H13.5C12.6716 14.9993 12 15.6709 12 16.4993V21.4993C12 22.3277 12.6716 22.9993 13.5 22.9993H21.5C22.3284 22.9993 23 22.3277 23 21.4993V16.4993C23 15.6709 22.3284 14.9993 21.5 14.9993H21V13.7493C21 12.7828 20.2165 11.9993 19.25 11.9993H15.75C14.7835 11.9993 14 12.7828 14 13.7493V14.9993ZM15.5 13.7493C15.5 13.6112 15.6119 13.4993 15.75 13.4993H19.25C19.3881 13.4993 19.5 13.6112 19.5 13.7493V14.9993H15.5V13.7493Z" fill="currentColor"/>
</svg>
