<svg width="24" height="24" viewBox="0 0 24 24" fill="none" xmlns="http://www.w3.org/2000/svg">
<path d="M11.9091 13.9979L19.7531 13.9992C20.9957 13.9992 22.0031 15.0066 22.0031 16.2492V17.1543C22.0031 18.248 21.5256 19.2871 20.6958 19.9996C19.1303 21.3435 16.89 22.0004 14 22.0004L13.821 21.9992C14.0547 21.5286 14.0634 20.9748 13.8473 20.498L14 20.5004C16.56 20.5004 18.4578 19.9439 19.7187 18.8614C20.2166 18.434 20.5031 17.8105 20.5031 17.1543V16.2492C20.5031 15.835 20.1673 15.4992 19.7531 15.4992L11.9775 15.4992C11.9924 15.334 12 15.1672 12 14.9993C12 14.6573 11.9688 14.3226 11.9091 13.9979ZM6.5 10.4993C8.98528 10.4993 11 12.514 11 14.9993C11 16.0931 10.6097 17.0957 9.96089 17.8756L12.7827 20.6899C13.076 20.9824 13.0766 21.4573 12.784 21.7506C12.5181 22.0171 12.1014 22.0418 11.8076 21.8243L11.7234 21.7518L8.82025 18.8558C8.14274 19.2643 7.34881 19.4993 6.5 19.4993C4.01472 19.4993 2 17.4846 2 14.9993C2 12.514 4.01472 10.4993 6.5 10.4993ZM6.5 11.9993C4.84315 11.9993 3.5 13.3424 3.5 14.9993C3.5 16.6561 4.84315 17.9993 6.5 17.9993C8.15685 17.9993 9.5 16.6561 9.5 14.9993C9.5 13.3424 8.15685 11.9993 6.5 11.9993ZM14 2.00391C16.7614 2.00391 19 4.24248 19 7.00391C19 9.76533 16.7614 12.0039 14 12.0039C11.2386 12.0039 9 9.76533 9 7.00391C9 4.24248 11.2386 2.00391 14 2.00391ZM14 3.50391C12.067 3.50391 10.5 5.07091 10.5 7.00391C10.5 8.9369 12.067 10.5039 14 10.5039C15.933 10.5039 17.5 8.9369 17.5 7.00391C17.5 5.07091 15.933 3.50391 14 3.50391Z" fill="currentColor"/>
</svg>
