<svg width="24" height="24" viewBox="0 0 24 24" fill="none" xmlns="http://www.w3.org/2000/svg">
<path d="M17.7543 13.9992C18.5341 13.9992 19.2213 14.3962 19.6247 14.999H13.5C12.937 14.999 12.4174 15.1851 11.9995 15.4992H6.25254C5.83895 15.4992 5.50366 15.8345 5.50366 16.2481V16.8258C5.50366 17.3614 5.69477 17.8795 6.04263 18.2869C7.13774 19.5693 8.77689 20.3006 11 20.4648V21.499C11 21.6604 11.0153 21.8182 11.0445 21.971C8.36743 21.8023 6.30555 20.9047 4.90194 19.2609C4.32218 18.582 4.00366 17.7185 4.00366 16.8258V16.2481C4.00366 15.0061 5.01052 13.9992 6.25254 13.9992H17.7543ZM12.0001 2.00391C14.7615 2.00391 17.0001 4.24248 17.0001 7.00391C17.0001 9.76533 14.7615 12.0039 12.0001 12.0039C9.2387 12.0039 7.00012 9.76533 7.00012 7.00391C7.00012 4.24248 9.2387 2.00391 12.0001 2.00391ZM12.0001 3.50391C10.0671 3.50391 8.50012 5.07091 8.50012 7.00391C8.50012 8.9369 10.0671 10.5039 12.0001 10.5039C13.9331 10.5039 15.5001 8.9369 15.5001 7.00391C15.5001 5.07091 13.9331 3.50391 12.0001 3.50391ZM12 17.499C12 16.6706 12.6716 15.999 13.5 15.999H21.5C22.3284 15.999 23 16.6706 23 17.499V21.499C23 22.3274 22.3284 22.999 21.5 22.999H13.5C12.6716 22.999 12 22.3274 12 21.499V17.499ZM22 17.999C21.4477 17.999 21 17.5513 21 16.999H20C20 18.1036 20.8954 18.999 22 18.999V17.999ZM22 19.999C20.8954 19.999 20 20.8945 20 21.999H21C21 21.4467 21.4477 20.999 22 20.999V19.999ZM14 16.999C14 17.5513 13.5523 17.999 13 17.999V18.999C14.1046 18.999 15 18.1036 15 16.999H14ZM15 21.999C15 20.8945 14.1046 19.999 13 19.999V20.999C13.5523 20.999 14 21.4467 14 21.999H15ZM19.25 19.499C19.25 18.5325 18.4665 17.749 17.5 17.749C16.5335 17.749 15.75 18.5325 15.75 19.499C15.75 20.4655 16.5335 21.249 17.5 21.249C18.4665 21.249 19.25 20.4655 19.25 19.499Z" fill="currentColor"/>
</svg>
