<svg width="24" height="24" viewBox="0 0 24 24" fill="none" xmlns="http://www.w3.org/2000/svg">
<path d="M11.3134 15.4992C11.4857 14.9657 11.7252 14.4624 12.0217 13.9992H4.25229C3.01027 13.9992 2.00342 15.0061 2.00342 16.2481V16.8258C2.00342 17.7185 2.32194 18.582 2.9017 19.2609C4.468 21.0952 6.85401 22.0004 9.99988 22.0004C10.9311 22.0004 11.7958 21.921 12.5925 21.7618C12.2333 21.3486 11.9254 20.8896 11.6788 20.3946C11.1552 20.465 10.5958 20.5004 9.99988 20.5004C7.26157 20.5004 5.29569 19.7546 4.04239 18.2869C3.69453 17.8795 3.50342 17.3614 3.50342 16.8258V16.2481C3.50342 15.8345 3.8387 15.4992 4.25229 15.4992H11.3134ZM9.99988 2.00391C12.7613 2.00391 14.9999 4.24248 14.9999 7.00391C14.9999 9.76533 12.7613 12.0039 9.99988 12.0039C7.23845 12.0039 4.99988 9.76533 4.99988 7.00391C4.99988 4.24248 7.23845 2.00391 9.99988 2.00391ZM9.99988 3.50391C8.06688 3.50391 6.49988 5.07091 6.49988 7.00391C6.49988 8.9369 8.06688 10.5039 9.99988 10.5039C11.9329 10.5039 13.4999 8.9369 13.4999 7.00391C13.4999 5.07091 11.9329 3.50391 9.99988 3.50391ZM22.9999 17.4993C22.9999 20.5368 20.5374 22.9993 17.4999 22.9993C14.4623 22.9993 11.9999 20.5368 11.9999 17.4993C11.9999 14.4617 14.4623 11.9993 17.4999 11.9993C20.5374 11.9993 22.9999 14.4617 22.9999 17.4993ZM18.3534 14.6458C18.1582 14.4505 17.8416 14.4505 17.6463 14.6458C17.4511 14.841 17.4511 15.1576 17.6463 15.3529L19.2927 16.9993H14.9999C14.7237 16.9993 14.4999 17.2231 14.4999 17.4993C14.4999 17.7754 14.7237 17.9993 14.9999 17.9993H19.2928L17.6463 19.6458C17.4511 19.841 17.4511 20.1576 17.6463 20.3529C17.8416 20.5481 18.1582 20.5481 18.3534 20.3529L20.8534 17.8529C20.9066 17.7997 20.9453 17.7376 20.9695 17.6713C20.9881 17.6204 20.9988 17.5656 20.9998 17.5085L20.9999 17.4993C20.9999 17.4221 20.9824 17.349 20.9512 17.2838C20.9359 17.2517 20.917 17.221 20.8944 17.1921C20.8805 17.1743 20.8655 17.1574 20.8493 17.1416L18.3534 14.6458Z" fill="currentColor"/>
</svg>
