<svg width="24" height="24" viewBox="0 0 24 24" fill="none" xmlns="http://www.w3.org/2000/svg">
<path d="M11 14.9993C11 14.6486 11.0602 14.312 11.1707 13.9992H4.25229C3.01027 13.9992 2.00342 15.0061 2.00342 16.2481V17.1681C2.00342 17.7401 2.18182 18.298 2.51379 18.7639C4.05595 20.9282 6.57891 22.0004 9.99988 22.0004C10.3974 22.0004 10.7829 21.9859 11.1561 21.9569C11.0549 21.6562 11 21.3341 11 20.9993V14.9993ZM9.99988 2.00391C12.7613 2.00391 14.9999 4.24248 14.9999 7.00391C14.9999 9.76533 12.7613 12.0039 9.99988 12.0039C7.23845 12.0039 4.99988 9.76533 4.99988 7.00391C4.99988 4.24248 7.23845 2.00391 9.99988 2.00391ZM12 14.9993C12 13.8947 12.8954 12.9993 14 12.9993H21C22.1046 12.9993 23 13.8947 23 14.9993V20.9993C23 22.1038 22.1046 22.9993 21 22.9993H14C12.8954 22.9993 12 22.1038 12 20.9993V14.9993ZM14.5 15.9993C14.2239 15.9993 14 16.2231 14 16.4993C14 16.7754 14.2239 16.9993 14.5 16.9993H20.5C20.7761 16.9993 21 16.7754 21 16.4993C21 16.2231 20.7761 15.9993 20.5 15.9993H14.5ZM14.5 18.9993C14.2239 18.9993 14 19.2231 14 19.4993C14 19.7754 14.2239 19.9993 14.5 19.9993H20.5C20.7761 19.9993 21 19.7754 21 19.4993C21 19.2231 20.7761 18.9993 20.5 18.9993H14.5Z" fill="#2A2A2A"/>
</svg>
