<svg width="24" height="24" viewBox="0 0 24 24" fill="none" xmlns="http://www.w3.org/2000/svg">
<path d="M11 17.4993C11 16.2106 11.375 15.0095 12.0219 13.9992H4.25278C3.01076 13.9992 2.00391 15.0061 2.00391 16.2481V16.8258C2.00391 17.7185 2.32242 18.582 2.90219 19.2609C4.46849 21.0952 6.8545 22.0004 10.0004 22.0004C10.9314 22.0004 11.7961 21.9211 12.5927 21.7619C11.6006 20.6207 11 19.1301 11 17.4993ZM10.0004 2.00391C12.7618 2.00391 15.0004 4.24248 15.0004 7.00391C15.0004 9.76533 12.7618 12.0039 10.0004 12.0039C7.23894 12.0039 5.00036 9.76533 5.00036 7.00391C5.00036 4.24248 7.23894 2.00391 10.0004 2.00391ZM17.5 11.9993C20.5376 11.9993 23 14.4617 23 17.4993C23 20.5368 20.5376 22.9993 17.5 22.9993C14.4624 22.9993 12 20.5368 12 17.4993C12 14.4617 14.4624 11.9993 17.5 11.9993ZM19.5 17.4993H17.5L17.5 14.9992C17.5 14.7231 17.2761 14.4992 17 14.4992C16.7239 14.4992 16.5 14.7231 16.5 14.9992L16.5 17.9978L16.5 17.9993C16.5 18.2755 16.7239 18.4993 17 18.4993H19.5C19.7761 18.4993 20 18.2755 20 17.9993C20 17.7232 19.7761 17.4993 19.5 17.4993Z" fill="currentColor"/>
</svg>
