<svg width="24" height="24" viewBox="0 0 24 24" fill="none" xmlns="http://www.w3.org/2000/svg">
<path d="M17.5 11.9993C20.5376 11.9993 23 14.4617 23 17.4993C23 20.5368 20.5376 22.9993 17.5 22.9993C14.4624 22.9993 12 20.5368 12 17.4993C12 14.4617 14.4624 11.9993 17.5 11.9993ZM12.0223 13.9986C11.3752 15.009 11 16.2103 11 17.4993C11 19.1296 11.6002 20.6198 12.5917 21.7608C11.7962 21.9209 10.9313 22.0004 10 22.0004C6.57903 22.0004 4.05607 20.9282 2.51391 18.7639C2.18195 18.298 2.00354 17.7401 2.00354 17.1681V16.2481C2.00354 15.0061 3.0104 13.9992 4.25242 13.9992L12.0223 13.9986ZM14.8536 17.1457C14.6583 16.9505 14.3417 16.9505 14.1464 17.1457C13.9512 17.341 13.9512 17.6576 14.1464 17.8528L16.1464 19.8528C16.3417 20.0481 16.6583 20.0481 16.8536 19.8528L20.8536 15.8528C21.0488 15.6576 21.0488 15.341 20.8536 15.1457C20.6583 14.9505 20.3417 14.9505 20.1464 15.1457L16.5 18.7922L14.8536 17.1457ZM10 2.00391C12.7614 2.00391 15 4.24248 15 7.00391C15 9.76533 12.7614 12.0039 10 12.0039C7.23857 12.0039 5 9.76533 5 7.00391C5 4.24248 7.23857 2.00391 10 2.00391Z" fill="#2A2A2A"/>
</svg>
