<svg width="24" height="24" viewBox="0 0 24 24" fill="none" xmlns="http://www.w3.org/2000/svg">
<path d="M17.3833 15.4992C17.132 15.0442 17.0485 14.512 17.1516 13.9992H6.25278C5.01076 13.9992 4.00391 15.0061 4.00391 16.2481V16.8258C4.00391 17.7185 4.32242 18.582 4.90219 19.2609C6.46849 21.0952 8.8545 22.0004 12.0004 22.0004C12.3894 22.0004 12.7669 21.9865 13.1326 21.9588C12.9597 21.4765 12.9546 20.9441 13.1249 20.4549C12.7656 20.4852 12.3908 20.5004 12.0004 20.5004C9.26206 20.5004 7.29618 19.7546 6.04287 18.2869C5.69502 17.8795 5.50391 17.3614 5.50391 16.8258V16.2481C5.50391 15.8345 5.83919 15.4992 6.25278 15.4992H17.3833ZM12.0004 2.00391C14.7618 2.00391 17.0004 4.24248 17.0004 7.00391C17.0004 9.76533 14.7618 12.0039 12.0004 12.0039C9.23894 12.0039 7.00036 9.76533 7.00036 7.00391C7.00036 4.24248 9.23894 2.00391 12.0004 2.00391ZM12.0004 3.50391C10.0674 3.50391 8.50036 5.07091 8.50036 7.00391C8.50036 8.9369 10.0674 10.5039 12.0004 10.5039C13.9334 10.5039 15.5004 8.9369 15.5004 7.00391C15.5004 5.07091 13.9334 3.50391 12.0004 3.50391ZM18.1924 13.9942L18.6679 12.7896C18.9104 12.175 19.5886 11.8561 20.2161 12.0614L20.6472 12.2025C21.3714 12.4395 21.9726 13.0086 21.997 13.7712C22.0962 16.8822 19.5215 21.3538 16.7841 22.8263C16.1109 23.1884 15.3158 22.9489 14.7485 22.435L14.4118 22.13C13.9231 21.6874 13.8611 20.9409 14.2702 20.4243L15.0701 19.4141C15.3603 19.0477 15.8368 18.8836 16.2909 18.9939L17.5822 19.3072C18.6853 18.5772 19.2765 17.551 19.3557 16.2284L18.4395 15.2645C18.117 14.9252 18.0206 14.4294 18.1924 13.9942Z" fill="currentColor"/>
</svg>
