<svg width="24" height="24" viewBox="0 0 24 24" fill="none" xmlns="http://www.w3.org/2000/svg">
<path d="M10.9999 15.4992C10.9999 14.9364 11.1859 14.417 11.4997 13.9992H5.25229C4.01027 13.9992 3.00342 15.0061 3.00342 16.2481V16.8258C3.00342 17.7185 3.32194 18.582 3.9017 19.2609C5.468 21.0952 7.85401 22.0004 10.9999 22.0004L11.0501 22.0003C11.0172 21.8384 10.9999 21.6709 10.9999 21.4993L10.9999 20.5004C8.26157 20.5004 6.29569 19.7546 5.04239 18.2869C4.69453 17.8795 4.50342 17.3614 4.50342 16.8258V16.2481C4.50342 15.8345 4.8387 15.4992 5.25229 15.4992H10.9999ZM10.9999 2.00391C13.7613 2.00391 15.9999 4.24248 15.9999 7.00391C15.9999 9.76533 13.7613 12.0039 10.9999 12.0039C8.23845 12.0039 5.99988 9.76533 5.99988 7.00391C5.99988 4.24248 8.23845 2.00391 10.9999 2.00391ZM10.9999 3.50391C9.06688 3.50391 7.49988 5.07091 7.49988 7.00391C7.49988 8.9369 9.06688 10.5039 10.9999 10.5039C12.9329 10.5039 14.4999 8.9369 14.4999 7.00391C14.4999 5.07091 12.9329 3.50391 10.9999 3.50391ZM17.5098 18.9261L12.0189 15.7231C12.1534 14.7492 12.9891 13.9993 14 13.9993H21C22.0948 13.9993 22.9841 14.8789 22.9998 15.97L17.5098 18.9261ZM17.737 19.9395L23 17.1056V20.9993C23 22.1038 22.1046 22.9993 21 22.9993H14C12.8954 22.9993 12 22.1038 12 20.9993V16.8698L17.2481 19.9312C17.3985 20.0189 17.5837 20.0221 17.737 19.9395Z" fill="currentColor"/>
</svg>
