<svg width="24" height="24" viewBox="0 0 24 24" fill="none" xmlns="http://www.w3.org/2000/svg">
<path d="M13.4888 3.04593C12.9808 1.92219 11.3849 1.92219 10.8769 3.04593C10.5042 3.87039 9.47023 4.14745 8.73523 3.6198C7.73342 2.90061 6.35137 3.69854 6.4733 4.92573C6.56276 5.82608 5.80582 6.58303 4.90546 6.49357C3.67827 6.37163 2.88035 7.75368 3.59954 8.75549C4.12719 9.49049 3.85013 10.5245 3.02567 10.8972C1.90193 11.4052 1.90192 13.001 3.02567 13.509C3.85013 13.8817 4.12719 14.9158 3.59954 15.6508C2.88035 16.6526 3.67827 18.0346 4.90546 17.9127C5.80582 17.8232 6.56276 18.5802 6.4733 19.4805C6.35137 20.7077 7.73342 21.5056 8.73523 20.7864C9.47023 20.2588 10.5042 20.5359 10.8769 21.3603C11.3849 22.4841 12.9808 22.4841 13.4888 21.3603C13.8615 20.5359 14.8955 20.2588 15.6305 20.7864C16.6323 21.5056 18.0144 20.7077 17.8924 19.4805C17.803 18.5802 18.5599 17.8232 19.4603 17.9127C20.6874 18.0346 21.4854 16.6526 20.7662 15.6508C20.2385 14.9158 20.5156 13.8817 21.3401 13.509C22.4638 13.001 22.4638 11.4052 21.3401 10.8972C20.5156 10.5245 20.2385 9.49049 20.7662 8.75549C21.4854 7.75368 20.6874 6.37163 19.4603 6.49357C18.5599 6.58303 17.803 5.82608 17.8924 4.92573C18.0144 3.69854 16.6323 2.90061 15.6305 3.6198C14.8955 4.14745 13.8615 3.87039 13.4888 3.04593ZM9.76882 8.58207C9.76882 7.24885 10.8496 6.16807 12.1828 6.16807C13.516 6.16807 14.5968 7.24885 14.5968 8.58207C14.5968 9.91528 13.516 10.9961 12.1828 10.9961C10.8496 10.9961 9.76882 9.91528 9.76882 8.58207ZM9.1653 12.2031L15.2003 12.2031C16.2002 12.2031 17.0108 13.0137 17.0108 14.0136C17.0108 15.3607 16.4568 16.44 15.5478 17.1696C14.653 17.8878 13.4539 18.2381 12.1828 18.2381C10.9118 18.2381 9.7126 17.8878 8.81789 17.1696C7.9088 16.44 7.35483 15.3607 7.35483 14.0136C7.35483 13.0137 8.1654 12.2031 9.1653 12.2031Z" fill="#2A2A2A"/>
</svg>
