<svg width="24" height="24" viewBox="0 0 24 24" fill="none" xmlns="http://www.w3.org/2000/svg">
<path d="M14.8555 15.4992L16.3555 13.9992H6.25278C5.01076 13.9992 4.00391 15.0061 4.00391 16.2481V16.8258C4.00391 17.7185 4.32242 18.582 4.90219 19.2609C6.29795 20.8955 8.34464 21.7922 10.9999 21.9681C10.9958 21.7853 11.016 21.5972 11.0636 21.4068L11.2946 20.483C8.92119 20.3633 7.18576 19.6253 6.04287 18.2869C5.69502 17.8795 5.50391 17.3614 5.50391 16.8258V16.2481C5.50391 15.8345 5.83919 15.4992 6.25278 15.4992H14.8555ZM12.0004 2.00391C14.7618 2.00391 17.0004 4.24248 17.0004 7.00391C17.0004 9.76533 14.7618 12.0039 12.0004 12.0039C9.23894 12.0039 7.00036 9.76533 7.00036 7.00391C7.00036 4.24248 9.23894 2.00391 12.0004 2.00391ZM12.0004 3.50391C10.0674 3.50391 8.50036 5.07091 8.50036 7.00391C8.50036 8.9369 10.0674 10.5039 12.0004 10.5039C13.9334 10.5039 15.5004 8.9369 15.5004 7.00391C15.5004 5.07091 13.9334 3.50391 12.0004 3.50391ZM19.0999 12.6685L13.1974 18.5709C12.8533 18.915 12.6092 19.3462 12.4911 19.8184L12.0334 21.6491C11.8344 22.4452 12.5556 23.1664 13.3517 22.9673L15.1824 22.5097C15.6545 22.3916 16.0857 22.1475 16.4299 21.8034L22.3323 15.9009C23.2249 15.0083 23.2249 13.5611 22.3323 12.6685C21.4397 11.7759 19.9925 11.7759 19.0999 12.6685Z" fill="currentColor"/>
</svg>
