<svg width="24" height="24" viewBox="0 0 24 24" fill="none" xmlns="http://www.w3.org/2000/svg">
<path d="M17.5 11.9993C20.5376 11.9993 23 14.4617 23 17.4993C23 20.5368 20.5376 22.9993 17.5 22.9993C14.4624 22.9993 12 20.5368 12 17.4993C12 14.4617 14.4624 11.9993 17.5 11.9993ZM12.0223 13.9986C11.3752 15.009 11 16.2103 11 17.4993C11 19.1435 11.6105 20.6451 12.6171 21.7898C11.8149 21.9306 10.942 22.0004 10 22.0004C7.1105 22.0004 4.87168 21.3438 3.30882 20.0001C2.48019 19.2877 2.00354 18.2493 2.00354 17.1565V16.2492C2.00354 15.0066 3.0109 13.9992 4.25354 13.9992L12.0223 13.9986ZM15.093 14.9656L15.0238 15.0234L14.9659 15.0927C14.8478 15.2632 14.8478 15.4908 14.9659 15.6613L15.0238 15.7305L16.7934 17.5L15.0264 19.2668L14.9685 19.336C14.8504 19.5065 14.8504 19.7341 14.9685 19.9046L15.0264 19.9739L15.0956 20.0317C15.2661 20.1499 15.4937 20.1499 15.6642 20.0317L15.7335 19.9739L17.5004 18.207L19.2694 19.9761L19.3386 20.034C19.5091 20.1521 19.7367 20.1521 19.9073 20.034L19.9765 19.9761L20.0344 19.9069C20.1525 19.7364 20.1525 19.5088 20.0344 19.3383L19.9765 19.269L18.2074 17.5L19.9793 15.7306L20.0371 15.6613C20.1552 15.4908 20.1552 15.2632 20.0371 15.0927L19.9793 15.0235L19.91 14.9656C19.7395 14.8475 19.5119 14.8475 19.3414 14.9656L19.2722 15.0235L17.5004 16.793L15.7309 15.0234L15.6617 14.9656C15.5155 14.8643 15.3274 14.8499 15.1693 14.9222L15.093 14.9656ZM10 2.00391C12.7614 2.00391 15 4.24248 15 7.00391C15 9.76533 12.7614 12.0039 10 12.0039C7.23857 12.0039 5 9.76533 5 7.00391C5 4.24248 7.23857 2.00391 10 2.00391Z" fill="currentColor"/>
</svg>
