<svg width="24" height="24" viewBox="0 0 24 24" fill="none" xmlns="http://www.w3.org/2000/svg">
<path d="M10.9999 17.4993C10.9999 16.2106 11.3749 15.0095 12.0217 13.9992H4.25229C3.01027 13.9992 2.00342 15.0061 2.00342 16.2481V17.1681C2.00342 17.7401 2.18182 18.298 2.51379 18.7639C4.05595 20.9282 6.57891 22.0004 9.99988 22.0004C10.931 22.0004 11.7957 21.9209 12.5924 21.7617C11.6004 20.6205 10.9999 19.13 10.9999 17.4993ZM9.99988 2.00391C12.7613 2.00391 14.9999 4.24248 14.9999 7.00391C14.9999 9.76533 12.7613 12.0039 9.99988 12.0039C7.23845 12.0039 4.99988 9.76533 4.99988 7.00391C4.99988 4.24248 7.23845 2.00391 9.99988 2.00391ZM22.9999 17.4993C22.9999 20.5368 20.5374 22.9993 17.4999 22.9993C14.4623 22.9993 11.9999 20.5368 11.9999 17.4993C11.9999 14.4617 14.4623 11.9993 17.4999 11.9993C20.5374 11.9993 22.9999 14.4617 22.9999 17.4993ZM18.3534 14.6458C18.1582 14.4505 17.8416 14.4505 17.6463 14.6458C17.4511 14.841 17.4511 15.1576 17.6463 15.3529L19.2927 16.9993H14.9999C14.7237 16.9993 14.4999 17.2231 14.4999 17.4993C14.4999 17.7754 14.7237 17.9993 14.9999 17.9993H19.2928L17.6463 19.6458C17.4511 19.841 17.4511 20.1576 17.6463 20.3529C17.8416 20.5481 18.1582 20.5481 18.3534 20.3529L20.8534 17.8529C20.9066 17.7997 20.9453 17.7376 20.9695 17.6713C20.9881 17.6204 20.9988 17.5656 20.9998 17.5085L20.9999 17.4993C20.9999 17.4221 20.9824 17.349 20.9512 17.2838C20.9359 17.2517 20.917 17.221 20.8944 17.1921C20.8805 17.1743 20.8655 17.1574 20.8493 17.1416L18.3534 14.6458Z" fill="currentColor"/>
</svg>
