<svg width="24" height="24" viewBox="0 0 24 24" fill="none" xmlns="http://www.w3.org/2000/svg">
<path d="M11.6827 21.9972C10.7849 20.5088 10.9782 18.5466 12.2625 17.2623L15.5256 13.9992H6.25254C5.01052 13.9992 4.00366 15.006 4.00366 16.2481V17.168C4.00366 17.7401 4.18207 18.2979 4.51403 18.7638C6.0081 20.8607 8.42276 21.9324 11.6827 21.9972ZM17.0001 7.00391C17.0001 4.24249 14.7615 2.00391 12.0001 2.00391C9.2387 2.00391 7.00012 4.24249 7.00012 7.00391C7.00012 9.76534 9.2387 12.0039 12.0001 12.0039C14.7615 12.0039 17.0001 9.76534 17.0001 7.00391ZM17.9697 12.9694C19.091 11.8481 20.909 11.8481 22.0303 12.9694C23.1516 14.0907 23.1516 15.9087 22.0303 17.0301L17.0303 22.0301C15.909 23.1514 14.091 23.1514 12.9697 22.0301C11.8483 20.9087 11.8483 19.0907 12.9697 17.9694L17.9697 12.9694ZM20.9697 14.0301C20.4341 13.4945 19.5658 13.4945 19.0303 14.0301L17.0606 15.9997L19 17.9391L20.9697 15.9694C21.5052 15.4339 21.5052 14.5656 20.9697 14.0301ZM17.0303 20.0298C17.3232 19.7369 17.3232 19.2621 17.0303 18.9692C16.7374 18.6763 16.2626 18.6763 15.9697 18.9692L14.9697 19.9692C14.6768 20.2621 14.6768 20.7369 14.9697 21.0298C15.2626 21.3227 15.7374 21.3227 16.0303 21.0298L17.0303 20.0298Z" fill="#2A2A2A"/>
</svg>
