<svg width="24" height="24" viewBox="0 0 24 24" fill="none" xmlns="http://www.w3.org/2000/svg">
<path d="M14 13.9992H4.25278C3.01076 13.9992 2.00391 15.0061 2.00391 16.2481V16.8258C2.00391 17.7185 2.32242 18.582 2.90219 19.2609C4.46849 21.0952 6.8545 22.0004 10.0004 22.0004C10.7149 22.0004 11.3903 21.9537 12.0258 21.86C12.0088 21.7422 12 21.6218 12 21.4993V20.3464C11.3859 20.4489 10.7197 20.5004 10.0004 20.5004C7.26206 20.5004 5.29618 19.7546 4.04287 18.2869C3.69502 17.8795 3.50391 17.3614 3.50391 16.8258V16.2481C3.50391 15.8345 3.83919 15.4992 4.25278 15.4992H12.208C12.5294 14.7638 13.1944 14.2128 14 14.0493V13.9992ZM10.0004 2.00391C12.7618 2.00391 15.0004 4.24248 15.0004 7.00391C15.0004 9.76533 12.7618 12.0039 10.0004 12.0039C7.23894 12.0039 5.00036 9.76533 5.00036 7.00391C5.00036 4.24248 7.23894 2.00391 10.0004 2.00391ZM10.0004 3.50391C8.06737 3.50391 6.50036 5.07091 6.50036 7.00391C6.50036 8.9369 8.06737 10.5039 10.0004 10.5039C11.9334 10.5039 13.5004 8.9369 13.5004 7.00391C13.5004 5.07091 11.9334 3.50391 10.0004 3.50391ZM15 14.9993H14.5C13.6716 14.9993 13 15.6708 13 16.4993V21.4993C13 22.3277 13.6716 22.9993 14.5 22.9993H20.5C21.3284 22.9993 22 22.3277 22 21.4993V16.4993C22 15.6708 21.3284 14.9993 20.5 14.9993H20V13.9993C20 12.6186 18.8807 11.4993 17.5 11.4993C16.1193 11.4993 15 12.6186 15 13.9993V14.9993ZM16.5 13.9993C16.5 13.447 16.9477 12.9993 17.5 12.9993C18.0523 12.9993 18.5 13.447 18.5 13.9993V14.9993H16.5V13.9993ZM18.5 18.9993C18.5 19.5516 18.0523 19.9993 17.5 19.9993C16.9477 19.9993 16.5 19.5516 16.5 18.9993C16.5 18.447 16.9477 17.9993 17.5 17.9993C18.0523 17.9993 18.5 18.447 18.5 18.9993Z" fill="currentColor"/>
</svg>
