<svg width="24" height="24" viewBox="0 0 24 24" fill="none" xmlns="http://www.w3.org/2000/svg">
<path d="M11.9092 13.9989L19.7531 13.9992C20.9957 13.9992 22.0031 15.0066 22.0031 16.2492V17.1543C22.0031 18.248 21.5256 19.2871 20.6958 19.9996C19.1303 21.3435 16.89 22.0004 14 22.0004L13.821 21.9992C14.1231 21.3907 14.0492 20.643 13.5995 20.1028L13.489 19.9819L11.2591 17.758C11.7394 16.9309 12 15.9844 12 14.9993C12 14.6576 11.9689 14.3233 11.9092 13.9989ZM6.5 10.4993C8.98528 10.4993 11 12.514 11 14.9993C11 16.0931 10.6097 17.0957 9.96089 17.8756L12.7827 20.6899C13.076 20.9824 13.0766 21.4573 12.784 21.7506C12.5181 22.0171 12.1014 22.0418 11.8076 21.8243L11.7234 21.7518L8.82025 18.8558C8.14274 19.2643 7.34881 19.4993 6.5 19.4993C4.01472 19.4993 2 17.4846 2 14.9993C2 12.514 4.01472 10.4993 6.5 10.4993ZM6.5 11.9993C4.84315 11.9993 3.5 13.3424 3.5 14.9993C3.5 16.6561 4.84315 17.9993 6.5 17.9993C8.15685 17.9993 9.5 16.6561 9.5 14.9993C9.5 13.3424 8.15685 11.9993 6.5 11.9993ZM14 2.00391C16.7614 2.00391 19 4.24248 19 7.00391C19 9.76533 16.7614 12.0039 14 12.0039C11.2386 12.0039 9 9.76533 9 7.00391C9 4.24248 11.2386 2.00391 14 2.00391Z" fill="#2A2A2A"/>
</svg>
