<svg width="24" height="24" viewBox="0 0 24 24" fill="none" xmlns="http://www.w3.org/2000/svg">
<path d="M13 15.999C13 15.288 13.1484 14.6116 13.416 13.9992H6.25229C5.01027 13.9992 4.00342 15.0061 4.00342 16.2481V17.1681C4.00342 17.7401 4.18182 18.298 4.51379 18.7639C6.05595 20.9282 8.57891 22.0004 11.9999 22.0004C13.1749 22.0004 14.2442 21.8739 15.2044 21.6201L14.8581 19.8887C13.7263 18.9733 13 17.5711 13 15.999ZM16.9999 7.00391C16.9999 4.24248 14.7613 2.00391 11.9999 2.00391C9.23845 2.00391 6.99988 4.24248 6.99988 7.00391C6.99988 9.76533 9.23845 12.0039 11.9999 12.0039C14.7613 12.0039 16.9999 9.76533 16.9999 7.00391ZM22 15.999C22 17.3796 21.3005 18.5969 20.2367 19.3157L20.1 19.999H15.9L15.7633 19.3157C14.6995 18.5969 14 17.3796 14 15.999C14 13.7899 15.7909 11.999 18 11.999C20.2091 11.999 22 13.7899 22 15.999ZM16.1 20.999L16.2588 21.7932C16.3991 22.4943 17.0147 22.999 17.7297 22.999H18.2703C18.9853 22.999 19.6009 22.4943 19.7412 21.7932L19.9 20.999H16.1Z" fill="currentColor"/>
</svg>
