<svg width="24" height="24" viewBox="0 0 24 24" fill="none" xmlns="http://www.w3.org/2000/svg">
<path d="M15.7509 13.9972C16.9929 13.9972 17.9998 15.0041 17.9998 16.2461V17.1646C17.9998 17.4501 17.9553 17.7321 17.8695 18.0008H15.8355C16.1387 17.3528 16.0228 16.5572 15.4878 16.0219C14.8046 15.3383 13.6966 15.3379 13.013 16.0211L10.513 18.5195C10.1844 18.8478 9.9999 19.2932 10 19.7577C10.0001 20.2221 10.1848 20.6675 10.5135 20.9957L11.448 21.9287C10.9838 21.9752 10.4999 21.9984 9.9967 21.9984C6.57573 21.9984 4.05277 20.9262 2.51061 18.7619C2.17865 18.296 2.00024 17.7382 2.00024 17.1661V16.2461C2.00024 15.0041 3.0071 13.9972 4.24912 13.9972H15.7509ZM9.9967 2.00195C12.7581 2.00195 14.9967 4.24053 14.9967 7.00195C14.9967 9.76338 12.7581 12.002 9.9967 12.002C7.23528 12.002 4.9967 9.76338 4.9967 7.00195C4.9967 4.24053 7.23528 2.00195 9.9967 2.00195ZM14.7804 17.7835C15.0733 17.4906 15.0732 17.0157 14.7802 16.7229C14.4873 16.4301 14.0124 16.4302 13.7196 16.7231L11.2196 19.2242C11.0789 19.3649 11 19.5557 11 19.7546C11 19.9535 11.0791 20.1442 11.2198 20.2849L13.7198 22.7838C14.0127 23.0766 14.4876 23.0765 14.7804 22.7835C15.0733 22.4906 15.0732 22.0157 14.7802 21.7229L13.5601 20.5033H20.4401L19.2198 21.7228C18.9269 22.0156 18.9267 22.4905 19.2195 22.7835C19.5123 23.0765 19.9872 23.0766 20.2802 22.7838L22.7802 20.2854C22.9209 20.1448 22.9999 19.9541 23 19.7552C23.0001 19.5563 22.9211 19.3655 22.7805 19.2248L20.2805 16.7232C19.9877 16.4302 19.5128 16.43 19.2198 16.7228C18.9269 17.0156 18.9267 17.4905 19.2195 17.7835L20.4386 19.0033H13.5612L14.7804 17.7835Z" fill="#2A2A2A"/>
</svg>
