<svg width="24" height="24" viewBox="0 0 24 24" fill="none" xmlns="http://www.w3.org/2000/svg">
<path d="M11.0004 17.4993C11.0004 16.2103 11.3755 15.009 12.0226 13.9986L4.25278 13.9992C3.01076 13.9992 2.00391 15.0061 2.00391 16.2481V17.1681C2.00391 17.7401 2.18231 18.298 2.51427 18.7639C4.05643 20.9282 6.5794 22.0004 10.0004 22.0004C10.9317 22.0004 11.7966 21.9209 12.5921 21.7608C11.6006 20.6198 11.0004 19.1296 11.0004 17.4993ZM15.0004 7.00391C15.0004 4.24248 12.7618 2.00391 10.0004 2.00391C7.23894 2.00391 5.00036 4.24248 5.00036 7.00391C5.00036 9.76533 7.23894 12.0039 10.0004 12.0039C12.7618 12.0039 15.0004 9.76533 15.0004 7.00391ZM23.0004 17.4993C23.0004 14.4617 20.5379 11.9993 17.5004 11.9993C14.4628 11.9993 12.0004 14.4617 12.0004 17.4993C12.0004 20.5368 14.4628 22.9993 17.5004 22.9993C20.5379 22.9993 23.0004 20.5368 23.0004 17.4993ZM17.4105 14.0073L17.5004 13.9993L17.5902 14.0073C17.7943 14.0444 17.9553 14.2053 17.9923 14.4094L18.0004 14.4993L17.9994 16.9993H20.5043L20.5942 17.0073C20.7982 17.0444 20.9592 17.2053 20.9962 17.4094L21.0043 17.4993L20.9962 17.5891C20.9592 17.7932 20.7982 17.9542 20.5942 17.9912L20.5043 17.9993H17.9994L18.0004 20.4993L17.9923 20.5891C17.9553 20.7932 17.7943 20.9542 17.5902 20.9912L17.5004 20.9993L17.4105 20.9912C17.2064 20.9542 17.0455 20.7932 17.0084 20.5891L17.0004 20.4993L16.9994 17.9993H14.5043L14.4144 17.9912C14.2103 17.9542 14.0494 17.7932 14.0123 17.5891L14.0043 17.4993L14.0123 17.4094C14.0494 17.2053 14.2103 17.0444 14.4144 17.0073L14.5043 16.9993H16.9994L17.0004 14.4993L17.0084 14.4094C17.0455 14.2053 17.2064 14.0444 17.4105 14.0073Z" fill="#2A2A2A"/>
</svg>
