<svg width="24" height="24" viewBox="0 0 24 24" fill="none" xmlns="http://www.w3.org/2000/svg">
<path d="M14 14.049V13.9992H4.25278C3.01076 13.9992 2.00391 15.0061 2.00391 16.2481V17.1681C2.00391 17.7401 2.18231 18.298 2.51427 18.7639C4.05643 20.9282 6.5794 22.0004 10.0004 22.0004C10.7149 22.0004 11.3903 21.9536 12.0259 21.8599C12.0088 21.742 12 21.6216 12 21.499V16.499C12 15.2895 12.8589 14.2807 14 14.049ZM10.0004 2.00391C12.7618 2.00391 15.0004 4.24248 15.0004 7.00391C15.0004 9.76533 12.7618 12.0039 10.0004 12.0039C7.23894 12.0039 5.00036 9.76533 5.00036 7.00391C5.00036 4.24248 7.23894 2.00391 10.0004 2.00391ZM15 14.999V13.999C15 12.6183 16.1193 11.499 17.5 11.499C18.8807 11.499 20 12.6183 20 13.999V14.999H20.5C21.3284 14.999 22 15.6706 22 16.499V21.499C22 22.3274 21.3284 22.999 20.5 22.999H14.5C13.6716 22.999 13 22.3274 13 21.499V16.499C13 15.6706 13.6716 14.999 14.5 14.999H15ZM16.5 13.999V14.999H18.5V13.999C18.5 13.4467 18.0523 12.999 17.5 12.999C16.9477 12.999 16.5 13.4467 16.5 13.999ZM18.5 18.999C18.5 18.4467 18.0523 17.999 17.5 17.999C16.9477 17.999 16.5 18.4467 16.5 18.999C16.5 19.5513 16.9477 19.999 17.5 19.999C18.0523 19.999 18.5 19.5513 18.5 18.999Z" fill="#2A2A2A"/>
</svg>
