<svg width="24" height="24" viewBox="0 0 24 24" fill="none" xmlns="http://www.w3.org/2000/svg">
<path d="M8.25517 8.99986C9.22167 8.99986 10.0052 9.78336 10.0052 10.7499V20.25C10.0052 21.2165 9.22167 22 8.25517 22H3.75073C2.78423 22 2.00073 21.2165 2.00073 20.25V10.7499C2.00073 9.78336 2.78423 8.99986 3.75073 8.99986H8.25517ZM8.25517 10.4999H3.75073C3.61266 10.4999 3.50073 10.6118 3.50073 10.7499V20.25C3.50073 20.3881 3.61266 20.5 3.75073 20.5H8.25517C8.39324 20.5 8.50517 20.3881 8.50517 20.25V10.7499C8.50517 10.6118 8.39324 10.4999 8.25517 10.4999ZM6.25011 18C6.66432 18 7.00011 18.3358 7.00011 18.75C7.00011 19.1297 6.71795 19.4435 6.35188 19.4932L6.25011 19.5H5.75011C5.33589 19.5 5.00011 19.1642 5.00011 18.75C5.00011 18.3703 5.28226 18.0565 5.64834 18.0068L5.75011 18H6.25011ZM19.7501 2C20.941 2 21.9158 2.92516 21.9949 4.09595L22.0001 4.25V13.25C22.0001 14.4409 21.0749 15.4156 19.9042 15.4948L19.7501 15.5H16.0041V17.5H17.2501C17.6643 17.5 18.0001 17.8358 18.0001 18.25C18.0001 18.6297 17.718 18.9435 17.3519 18.9932L17.2501 19H11.0001V17.5H14.5041V15.5H11.0001V14H19.7501C20.1298 14 20.4436 13.7178 20.4933 13.3518L20.5001 13.25V4.25C20.5001 3.83579 20.1643 3.5 19.7501 3.5H6.25011C5.87041 3.5 5.55662 3.78215 5.50695 4.14823L5.50011 4.25V8H4.00011V4.25C4.00011 3.05914 4.92527 2.08436 6.09606 2.00519L6.25011 2H19.7501Z" fill="currentColor"/>
</svg>
