<svg width="24" height="24" viewBox="0 0 24 24" fill="none" xmlns="http://www.w3.org/2000/svg">
<path d="M8.25517 6.99986C9.22167 6.99986 10.0052 7.78336 10.0052 8.74986V18.25C10.0052 19.2165 9.22167 20 8.25517 20H3.75073C2.78423 20 2.00073 19.2165 2.00073 18.25V8.74986C2.00073 7.78336 2.78423 6.99986 3.75073 6.99986H8.25517ZM8.25517 8.49986H3.75073C3.61266 8.49986 3.50073 8.61179 3.50073 8.74986V18.25C3.50073 18.3881 3.61266 18.5 3.75073 18.5H8.25517C8.39324 18.5 8.50517 18.3881 8.50517 18.25V8.74986C8.50517 8.61179 8.39324 8.49986 8.25517 8.49986ZM6.25295 16C6.66716 16 7.00295 16.3358 7.00295 16.75C7.00295 17.1297 6.7208 17.4435 6.35472 17.4932L6.25295 17.5H5.75295C5.33874 17.5 5.00295 17.1642 5.00295 16.75C5.00295 16.3703 5.2851 16.0565 5.65118 16.0068L5.75295 16H6.25295ZM19.7501 4C20.941 4 21.9158 4.92516 21.9949 6.09595L22.0001 6.25V14.75C22.0001 15.9409 21.0749 16.9156 19.9042 16.9948L19.7501 17H10.9998V15.5H19.7501C20.1298 15.5 20.4436 15.2178 20.4933 14.8518L20.5001 14.75V6.25C20.5001 5.8703 20.218 5.55651 19.8519 5.50685L19.7501 5.5H8.25011C7.92369 5.5 7.64597 5.70853 7.54291 5.99964L6.01379 6.00044C6.13204 4.92882 7.00285 4.08392 8.08609 4.00589L8.25011 4H19.7501ZM15.2501 13C15.6643 13 16.0001 13.3358 16.0001 13.75C16.0001 14.1642 15.6643 14.5 15.2501 14.5H12.7501C12.3359 14.5 12.0001 14.1642 12.0001 13.75C12.0001 13.3358 12.3359 13 12.7501 13H15.2501Z" fill="currentColor"/>
</svg>
