<svg width="24" height="24" viewBox="0 0 24 24" fill="none" xmlns="http://www.w3.org/2000/svg">
<path d="M8.25517 8.99986C9.22167 8.99986 10.0052 9.78336 10.0052 10.7499V20.25C10.0052 21.2165 9.22167 22 8.25517 22H3.75073C2.78423 22 2.00073 21.2165 2.00073 20.25V10.7499C2.00073 9.78336 2.78423 8.99986 3.75073 8.99986H8.25517ZM6.25295 18.4952H5.75295L5.65118 18.502C5.2851 18.5517 5.00295 18.8655 5.00295 19.2452C5.00295 19.6249 5.2851 19.9387 5.65118 19.9883L5.75295 19.9952H6.25295L6.35472 19.9883C6.7208 19.9387 7.00295 19.6249 7.00295 19.2452C7.00295 18.8655 6.7208 18.5517 6.35472 18.502L6.25295 18.4952ZM19.7501 2C20.941 2 21.9158 2.92516 21.9949 4.09595L22.0001 4.25V13.25C22.0001 14.4409 21.0749 15.4156 19.9042 15.4948L19.7501 15.5H16.0041V17.5H17.2501C17.6643 17.5 18.0001 17.8358 18.0001 18.25C18.0001 18.6297 17.718 18.9435 17.3519 18.9932L17.2501 19H11.0001V17.5H14.5041V15.5H11.0001V10.5C11.0001 9.17452 9.96857 8.08996 8.66448 8.00532L8.50011 8H4.00011V4.25C4.00011 3.05914 4.92527 2.08436 6.09606 2.00519L6.25011 2H19.7501Z" fill="currentColor"/>
</svg>
