<svg width="24" height="24" viewBox="0 0 24 24" fill="none" xmlns="http://www.w3.org/2000/svg">
<path d="M10.5304 15.4687C10.8233 15.7616 10.8233 16.2365 10.5304 16.5294L8.53039 18.5294C7.68744 19.3723 6.32214 19.3745 5.47644 18.536C5.33675 18.3998 5.25 18.2095 5.25 17.999C5.25 17.5848 5.58579 17.249 6 17.249C6.20712 17.249 6.39463 17.333 6.53036 17.4687C6.78975 17.7281 7.21033 17.7281 7.46973 17.4687L9.46973 15.4687C9.76262 15.1758 10.2375 15.1758 10.5304 15.4687ZM13.3029 3.52438C15.2833 1.54396 18.4942 1.54395 20.4747 3.52438C22.4551 5.50481 22.4551 8.71573 20.4747 10.6962L10.6969 20.4739C8.71646 22.4544 5.50555 22.4544 3.52512 20.4739C1.54469 18.4935 1.54469 15.2826 3.52512 13.3022L13.3029 3.52438ZM19.414 4.58504C18.0194 3.1904 15.7582 3.1904 14.3636 4.58505L10.005 8.9436L15.0554 13.9941L19.414 9.6355C20.8086 8.24085 20.8086 5.97969 19.414 4.58504ZM13.9948 15.0547L8.94434 10.0043L4.58578 14.3628C3.19113 15.7575 3.19113 18.0186 4.58578 19.4133C5.98042 20.8079 8.24159 20.8079 9.63623 19.4133L13.9948 15.0547Z" fill="#2A2A2A"/>
</svg>
