<svg width="24" height="24" viewBox="0 0 24 24" fill="none" xmlns="http://www.w3.org/2000/svg">
<path d="M21.0682 7.75667L16.2425 2.93091C14.9152 1.60364 12.6777 1.96675 11.8382 3.64562L9.40281 8.5165C9.31512 8.69189 9.16223 8.82596 8.97688 8.88999L4.81061 10.3292C3.93791 10.6307 3.682 11.7417 4.33487 12.3946L7.43936 15.4991L3.00008 19.9385L3 20.9991H4.06074L8.50002 16.5598L11.6045 19.6643C12.2574 20.3171 13.3684 20.0612 13.6699 19.1885L15.1092 15.0223C15.1732 14.8369 15.3073 14.684 15.4826 14.5963L20.3535 12.1609C22.0324 11.3215 22.3955 9.08393 21.0682 7.75667Z" fill="#2A2A2A"/>
</svg>
