<svg width="24" height="24" viewBox="0 0 24 24" fill="none" xmlns="http://www.w3.org/2000/svg">
<path d="M16.2425 2.93091L21.0682 7.75667C22.3955 9.08393 22.0324 11.3215 20.3535 12.1609L15.4826 14.5963C15.3073 14.684 15.1732 14.8369 15.1092 15.0223L13.6699 19.1885C13.3684 20.0612 12.2574 20.3171 11.6045 19.6643L8.50002 16.5598L4.06074 20.9991H3L3.00008 19.9385L7.43936 15.4991L4.33487 12.3946C3.682 11.7417 3.93791 10.6307 4.81061 10.3292L8.97688 8.88999C9.16223 8.82596 9.31512 8.69189 9.40281 8.5165L11.8382 3.64562C12.6777 1.96675 14.9152 1.60364 16.2425 2.93091ZM20.0076 8.81733L15.1818 3.99157C14.5785 3.38827 13.5614 3.55331 13.1799 4.31644L10.7445 9.18732C10.4814 9.71348 10.0227 10.1157 9.46666 10.3078L5.67812 11.6165L12.3826 18.321L13.6914 14.5325C13.8835 13.9765 14.2857 13.5178 14.8118 13.2547L19.6827 10.8192C20.4458 10.4377 20.6109 9.42063 20.0076 8.81733Z" fill="#2A2A2A"/>
</svg>
