<svg width="24" height="24" viewBox="0 0 24 24" fill="none" xmlns="http://www.w3.org/2000/svg">
<path d="M8.31677 3.25884C8.1117 3.02223 7.78123 2.9379 7.48787 3.04733C7.19451 3.15677 7 3.43693 7 3.75003V10.3064C6.62595 9.54293 6.23619 8.95154 5.86172 8.49386C5.3898 7.91706 4.9468 7.55856 4.60072 7.33921C4.4282 7.22987 4.28138 7.15613 4.16918 7.10744C4.11312 7.08311 4.06585 7.0651 4.02848 7.05205C4.0098 7.04552 3.9936 7.04024 3.98003 7.03603L3.96166 7.03051L3.95399 7.02831L3.95053 7.02734L3.9489 7.02689C3.94676 7.0263 3.94734 7.02646 3.94734 7.02646C3.72182 6.96496 3.48052 7.01212 3.29475 7.154C3.10899 7.29589 3 7.51628 3 7.75003V17.75C3 19.545 4.45507 21 6.25 21H17.75C19.5449 21 21 19.545 21 17.75V7.75003C21 7.51628 20.891 7.29589 20.7052 7.154C20.5195 7.01212 20.2782 6.96496 20.0527 7.02646C20.0527 7.02646 20.0533 7.02629 20.0511 7.02689L20.0495 7.02734L20.046 7.02831L20.0383 7.03051L20.02 7.03603C20.0064 7.04024 19.9902 7.04552 19.9715 7.05205C19.9341 7.0651 19.8869 7.08311 19.8308 7.10744C19.7186 7.15613 19.5718 7.22987 19.3993 7.33921C19.0532 7.55856 18.6102 7.91706 18.1383 8.49386C17.7638 8.95154 17.374 9.54293 17 10.3064V3.75003C17 3.43693 16.8055 3.15677 16.5121 3.04733C16.2188 2.9379 15.8883 3.02223 15.6832 3.25884L15.6817 3.26058L15.679 3.2637L15.6702 3.27403L15.639 3.31089C15.6124 3.34256 15.5744 3.38836 15.5262 3.4476C15.43 3.56605 15.2934 3.73842 15.1272 3.95931C14.7951 4.40078 14.3436 5.03782 13.8604 5.82717C13.2347 6.84906 12.548 8.13876 12 9.59957C11.452 8.13876 10.7653 6.84906 10.1396 5.82717C9.65636 5.03782 9.20489 4.40078 8.87278 3.95931C8.7066 3.73842 8.56998 3.56605 8.47376 3.4476C8.42565 3.38836 8.38761 3.34256 8.361 3.31089L8.32981 3.27403L8.32096 3.2637L8.31827 3.26058L8.31677 3.25884Z" fill="#2A2A2A"/>
</svg>
