<svg width="24" height="24" viewBox="0 0 24 24" fill="none" xmlns="http://www.w3.org/2000/svg">
<path d="M22.0001 11.7519C22.0001 13.2717 20.768 14.5037 19.2482 14.5037H4.74967C3.22986 14.5037 1.9978 13.2717 1.9978 11.7519C1.9978 10.2321 3.22986 9 4.74967 9H19.2482C20.768 9 22.0001 10.2321 22.0001 11.7519ZM17.0001 18.7519C17.0001 20.2717 15.768 21.5037 14.2482 21.5037H4.74967C3.22986 21.5037 1.9978 20.2717 1.9978 18.7519C1.9978 17.2321 3.22986 16 4.74967 16H14.2482C15.768 16 17.0001 17.2321 17.0001 18.7519ZM12.0001 4.75187C12.0001 6.27169 10.768 7.50374 9.24821 7.50374H4.74967C3.22986 7.50374 1.9978 6.27169 1.9978 4.75187C1.9978 3.23205 3.22986 2 4.74967 2H9.24821C10.768 2 12.0001 3.23205 12.0001 4.75187ZM20.5001 11.7519C20.5001 11.0605 19.9396 10.5 19.2482 10.5H4.74967C4.05828 10.5 3.4978 11.0605 3.4978 11.7519C3.4978 12.4433 4.05828 13.0037 4.74967 13.0037H19.2482C19.9396 13.0037 20.5001 12.4433 20.5001 11.7519ZM15.5001 18.7519C15.5001 18.0605 14.9396 17.5 14.2482 17.5H4.74967C4.05828 17.5 3.4978 18.0605 3.4978 18.7519C3.4978 19.4433 4.05828 20.0037 4.74967 20.0037H14.2482C14.9396 20.0037 15.5001 19.4433 15.5001 18.7519ZM10.5001 4.75187C10.5001 4.06048 9.9396 3.5 9.24821 3.5H4.74967C4.05828 3.5 3.4978 4.06048 3.4978 4.75187C3.4978 5.44326 4.05828 6.00374 4.74967 6.00374H9.24821C9.9396 6.00374 10.5001 5.44326 10.5001 4.75187Z" fill="currentColor"/>
</svg>
