<svg width="24" height="24" viewBox="0 0 24 24" fill="none" xmlns="http://www.w3.org/2000/svg">
<path d="M8.20514 4.8441C8.70586 4.61106 9.30068 4.82805 9.53372 5.32876C9.76676 5.82947 9.54977 6.42429 9.04906 6.65733C6.59946 7.79742 5 10.2557 5 13.004C5 16.8681 8.13391 20.0007 12 20.0007C15.8661 20.0007 19 16.8681 19 13.004C19 10.2613 17.4072 7.80729 14.9653 6.66402C14.4651 6.42984 14.2495 5.83453 14.4836 5.33435C14.7178 4.83417 15.3131 4.61853 15.8133 4.85271C18.9517 6.32206 21 9.47787 21 13.004C21 17.9729 16.9705 22.0007 12 22.0007C7.02953 22.0007 3 17.9729 3 13.004C3 9.47055 5.05682 6.30939 8.20514 4.8441ZM12 2C12.5128 2 12.9355 2.38604 12.9933 2.88338L13 3V10.0014C13 10.5537 12.5523 11.0014 12 11.0014C11.4872 11.0014 11.0645 10.6154 11.0067 10.118L11 10.0014V3C11 2.44772 11.4477 2 12 2Z" fill="currentColor"/>
</svg>
