<svg width="24" height="24" viewBox="0 0 24 24" fill="none" xmlns="http://www.w3.org/2000/svg">
<path d="M18.4999 3.75C18.4999 3.33579 18.8357 3 19.2499 3C19.6641 3 19.9999 3.33579 19.9999 3.75V20.25C19.9999 20.6642 19.6641 21 19.2499 21C18.8357 21 18.4999 20.6642 18.4999 20.25V3.75ZM12.2608 3.30937C13.4221 2.51363 14.9999 3.34519 14.9999 4.753V19.248C14.9999 20.6613 13.4111 21.4917 12.2507 20.6847L1.75226 13.3831C0.746942 12.6839 0.752136 11.1949 1.76231 10.5028L12.2608 3.30937ZM13.4999 4.753C13.4999 4.55189 13.2745 4.43309 13.1086 4.54677L2.61016 11.7402C2.46585 11.8391 2.4651 12.0518 2.60872 12.1517L13.1072 19.4532C13.2729 19.5685 13.4999 19.4499 13.4999 19.248V4.753Z" fill="#2A2A2A"/>
</svg>
