<svg width="24" height="24" viewBox="0 0 24 24" fill="none" xmlns="http://www.w3.org/2000/svg">
<path d="M13.4823 17.7319L12.7072 16.9567L15.1894 14.4745C16.5563 13.1077 16.5563 10.8916 15.1894 9.52475L12.7072 7.04251L13.4823 6.26739C14.4587 5.29108 16.0416 5.29108 17.0179 6.26739L20.9823 10.2319C21.9587 11.2082 21.9587 12.7911 20.9823 13.7674L17.0179 17.7319C16.0416 18.7082 14.4587 18.7082 13.4823 17.7319ZM14.4823 13.7674C15.4587 12.7911 15.4587 11.2082 14.4823 10.2319L10.5179 6.26739C9.54157 5.29108 7.95865 5.29108 6.98234 6.26739L3.01788 10.2319C2.04157 11.2082 2.04157 12.7911 3.01788 13.7674L6.98234 17.7319C7.95865 18.7082 9.54157 18.7082 10.5179 17.7319L14.4823 13.7674Z" fill="currentColor"/>
</svg>
