<svg width="24" height="24" viewBox="0 0 24 24" fill="none" xmlns="http://www.w3.org/2000/svg">
<path d="M6.00061 17.4024L5.9999 15.258C6.21197 15.3474 6.42978 15.4308 6.65311 15.5083C6.83036 15.5699 7.01525 15.6006 7.20012 15.6004L7.20061 17.4022C7.20061 17.7336 7.46924 18.0022 7.80049 18.0022L11.3979 18.0015L11.4006 18.9004C11.4006 19.7288 12.0722 20.4004 12.9006 20.4004C13.729 20.4004 14.4006 19.7288 14.4006 18.9022L14.3979 18.0015L18.6006 18.0022C18.932 18.0022 19.2006 17.7336 19.2006 17.4024L19.1997 14.698L18.2743 14.6999L18.0777 14.6915C16.6814 14.5781 15.5985 13.4092 15.599 11.9762L15.6074 11.7796C15.7208 10.3833 16.8897 9.30039 18.298 9.30039L19.1997 9.29919L19.2006 6.6022C19.2006 6.30764 18.9884 6.06267 18.7084 6.01186L18.6005 6.0022L14.9985 6.00147V5.10039C14.9985 4.27196 14.3269 3.60039 13.4985 3.60039C13.2393 3.60039 12.9955 3.66613 12.7828 3.78183C12.4934 3.4456 12.0716 3.21872 11.5791 3.20145C12.028 2.74776 12.6366 2.4524 13.3137 2.40662L13.4985 2.40039C14.8654 2.40039 15.9951 3.41614 16.1739 4.73402L16.1805 4.80159L18.6006 4.8022C19.5362 4.8022 20.3052 5.51606 20.3924 6.42898L20.4006 6.60236L20.3996 10.4987L18.2985 10.5004C17.516 10.5004 16.8664 11.1022 16.805 11.8524L16.7985 12.0004C16.7985 12.7829 17.4004 13.4325 18.1505 13.4939L18.298 13.5004L20.3996 13.4987L20.4006 17.4022C20.4006 18.3963 19.5947 19.2022 18.6005 19.2022L15.5817 19.2016L15.576 19.2668C15.4053 20.5247 14.3682 21.5074 13.0855 21.5942L12.9006 21.6004C11.5337 21.6004 10.404 20.5846 10.2253 19.2682L10.2177 19.2016L7.80061 19.2022C6.86498 19.2022 6.09607 18.4883 6.00885 17.5757L6.00061 17.4024ZM9.5999 4.01689C9.98788 4.17991 10.3877 4.29069 10.7999 4.34974C11.0358 4.38354 11.2758 4.40039 11.5199 4.40039C11.7519 4.40039 11.9454 4.57178 11.9902 4.79962L11.9999 4.90039V7.90165C11.9999 11.12 10.4243 13.3079 7.35169 14.3747C7.25316 14.4089 7.14664 14.4089 7.04811 14.3747C6.1778 14.0725 5.42758 13.6804 4.79926 13.2004C4.33746 12.8476 3.94151 12.4473 3.61211 12.0004C2.86016 10.9802 2.45503 9.7168 2.40515 8.22004L2.3999 7.90165V4.90039C2.3999 4.62425 2.61481 4.40039 2.8799 4.40039C4.34796 4.40039 5.6679 3.78941 6.86129 2.54677C7.04887 2.35144 7.35299 2.35162 7.54036 2.54717C8.18763 3.22266 8.87298 3.71146 9.5999 4.01689Z" fill="currentColor"/>
</svg>
