<svg width="24" height="24" viewBox="0 0 24 24" fill="none" xmlns="http://www.w3.org/2000/svg">
<path d="M7.51386 6.25391C7.51386 5.28741 8.29736 4.50391 9.26386 4.50391H10.2639C10.6781 4.50391 11.0139 4.16812 11.0139 3.75391C11.0139 3.33969 10.6781 3.00391 10.2639 3.00391H9.26386C7.46894 3.00391 6.01386 4.45898 6.01386 6.25391L6.01368 6.76013C6.01368 7.17435 6.34947 7.51013 6.76368 7.51013C7.1779 7.51013 7.51368 7.17435 7.51368 6.76013L7.51386 6.25391ZM12.7639 3.00391C12.3496 3.00391 12.0139 3.33969 12.0139 3.75391C12.0139 4.16812 12.3496 4.50391 12.7639 4.50391H15.2639C15.6781 4.50391 16.0139 4.16812 16.0139 3.75391C16.0139 3.33969 15.6781 3.00391 15.2639 3.00391H12.7639ZM12.0139 16.2539C12.0139 15.8397 12.3496 15.5039 12.7639 15.5039H15.2639C15.6781 15.5039 16.0139 15.8397 16.0139 16.2539C16.0139 16.6681 15.6781 17.0039 15.2639 17.0039H12.7639C12.3496 17.0039 12.0139 16.6681 12.0139 16.2539ZM20.5139 13.7539C20.5139 14.7204 19.7304 15.5039 18.7639 15.5039H17.7639C17.3496 15.5039 17.0139 15.8397 17.0139 16.2539C17.0139 16.6681 17.3496 17.0039 17.7639 17.0039H18.7639C20.5588 17.0039 22.0139 15.5488 22.0139 13.7539L22.0137 13.267C22.0137 12.8528 21.6779 12.517 21.2637 12.517C20.8495 12.517 20.5137 12.8528 20.5137 13.267L20.5139 13.7539ZM18.7639 4.50391C19.7304 4.50391 20.5139 5.28741 20.5139 6.25391L20.5137 6.76013C20.5137 7.17435 20.8495 7.51013 21.2637 7.51013C21.6779 7.51013 22.0137 7.17435 22.0137 6.76013L22.0139 6.25391C22.0139 4.45898 20.5588 3.00391 18.7639 3.00391H17.7639C17.3496 3.00391 17.0139 3.33969 17.0139 3.75391C17.0139 4.16812 17.3496 4.50391 17.7639 4.50391H18.7639ZM7.51386 13.7539C7.51386 14.7204 8.29736 15.5039 9.26386 15.5039H10.2639C10.6781 15.5039 11.0139 15.8397 11.0139 16.2539C11.0139 16.6681 10.6781 17.0039 10.2639 17.0039H9.26386C7.46894 17.0039 6.01386 15.5488 6.01386 13.7539L6.01368 13.267C6.01368 12.8528 6.34947 12.517 6.76368 12.517C7.1779 12.517 7.51368 12.8528 7.51368 13.267L7.51386 13.7539ZM1.99976 9.60098C1.99976 7.53295 3.23064 5.75241 4.99976 4.95202L4.99976 13.751C4.99976 16.0982 6.90255 18.001 9.24976 18.001H20.9998L21.0488 18.0007C20.2485 19.77 18.4679 21.001 16.3998 21.001H9.24976C5.24569 21.001 1.99976 17.755 1.99976 13.751V9.60098ZM7.49995 9.26264C7.49995 8.84842 7.16417 8.51264 6.74995 8.51264C6.33574 8.51264 5.99995 8.84842 5.99995 9.26264L6.01411 10.7573C6.01411 11.1715 6.3499 11.5073 6.76411 11.5073C7.17833 11.5073 7.51411 11.1715 7.51411 10.7573L7.49995 9.26264ZM21.25 8.51264C21.6642 8.51264 22 8.84842 22 9.26264L22.0141 10.7573C22.0141 11.1715 21.6783 11.5073 21.2641 11.5073C20.8499 11.5073 20.5141 11.1715 20.5141 10.7573L20.5 9.26264C20.5 8.84842 20.8357 8.51264 21.25 8.51264Z" fill="currentColor"/>
</svg>
