<svg width="24" height="24" viewBox="0 0 24 24" fill="none" xmlns="http://www.w3.org/2000/svg">
<path d="M20.25 2C21.2165 2 22 2.7835 22 3.75V6.79271C22 7.81687 21.4309 8.75618 20.5231 9.23029L14.2413 12.5106C15.8773 13.3324 17 15.0258 17 16.9814C17 19.7428 14.7614 21.9814 12 21.9814C9.23858 21.9814 7 19.7428 7 16.9814C7 15.0258 8.12271 13.3324 9.75875 12.5106L3.47693 9.23029C2.56913 8.75618 2 7.81687 2 6.79271V3.75C2 2.7835 2.7835 2 3.75 2H20.25ZM12 13.4814C10.067 13.4814 8.5 15.0484 8.5 16.9814C8.5 18.9144 10.067 20.4814 12 20.4814C13.933 20.4814 15.5 18.9144 15.5 16.9814C15.5 15.0484 13.933 13.4814 12 13.4814ZM15.5 3.499H8.5V10.161L11.8843 11.9289C11.9568 11.9668 12.0432 11.9668 12.1157 11.9289L15.5 10.16V3.499ZM7 3.499L3.75 3.5C3.61193 3.5 3.5 3.61193 3.5 3.75V6.79271C3.5 7.25824 3.75869 7.68519 4.17133 7.9007L7 9.377V3.499ZM20.25 3.5L17 3.499V9.377L19.8287 7.9007C20.2413 7.68519 20.5 7.25824 20.5 6.79271V3.75C20.5 3.61193 20.3881 3.5 20.25 3.5Z" fill="#2A2A2A"/>
</svg>
