<svg width="24" height="24" viewBox="0 0 24 24" fill="none" xmlns="http://www.w3.org/2000/svg">
<path d="M20.25 2C21.2165 2 22 2.7835 22 3.75V6.79271C22 7.81687 21.4309 8.75618 20.5231 9.23029L14.223 12.5207C15.869 13.3391 17 15.0377 17 17.0006C17 19.762 14.7614 22.0006 12 22.0006C9.23858 22.0006 7 19.762 7 17.0006C7 15.0377 8.13104 13.3391 9.77695 12.5207L3.47693 9.23029C2.56913 8.75618 2 7.81687 2 6.79271V3.75C2 2.7835 2.7835 2 3.75 2H20.25ZM12 13.5006C10.067 13.5006 8.5 15.0676 8.5 17.0006C8.5 18.9336 10.067 20.5006 12 20.5006C13.933 20.5006 15.5 18.9336 15.5 17.0006C15.5 15.0676 13.933 13.5006 12 13.5006ZM16 3.5H7.997V9.898L11.8843 11.9289C11.9568 11.9668 12.0432 11.9668 12.1157 11.9289L16 9.899V3.5Z" fill="currentColor"/>
</svg>
