<svg width="24" height="24" viewBox="0 0 24 24" fill="none" xmlns="http://www.w3.org/2000/svg">
<path d="M13.0572 7.43175C14.0335 6.45543 15.6164 6.45544 16.5927 7.43175C17.569 8.40806 17.569 9.99097 16.5927 10.9673C15.6164 11.9436 14.0335 11.9436 13.0572 10.9673C12.0809 9.99097 12.0809 8.40806 13.0572 7.43175ZM15.532 8.49241C15.1415 8.10188 14.5084 8.10188 14.1178 8.49241C13.7273 8.88293 13.7273 9.51609 14.1178 9.90662C14.5084 10.2971 15.1415 10.2971 15.532 9.90662C15.9226 9.5161 15.9226 8.88293 15.532 8.49241ZM21.5086 4.32314C21.2398 3.45833 20.5625 2.78129 19.6976 2.51287L19.0355 2.3074C16.642 1.56458 14.034 2.209 12.2618 3.98111L11.266 4.97699C9.89622 3.94835 7.94316 4.05719 6.69685 5.3035L5.45432 6.54603C5.16142 6.83893 5.16142 7.3138 5.45432 7.6067L7.04529 9.19767L6.86548 9.37748C6.18206 10.0609 6.18206 11.1689 6.86548 11.8524L7.36083 12.3477L5.96527 13.1437C5.76212 13.2595 5.62465 13.4635 5.59352 13.6953C5.56238 13.9271 5.64115 14.1601 5.80651 14.3255L9.69562 18.2146C9.86086 18.3798 10.0937 18.4586 10.3253 18.4276C10.557 18.3967 10.7609 18.2595 10.877 18.0566L11.6749 16.6618L12.1721 17.1589C12.8555 17.8423 13.9635 17.8423 14.6469 17.1589L14.8237 16.9821L16.4133 18.5717C16.7062 18.8646 17.1811 18.8646 17.474 18.5717L18.7165 17.3292C19.9623 16.0834 20.0716 14.1313 19.0442 12.7617L20.0421 11.7637C21.8149 9.99092 22.4591 7.3816 21.715 4.98744L21.5086 4.32314ZM19.253 3.94547C19.6461 4.06748 19.954 4.37522 20.0762 4.76831L20.2826 5.43262C20.8613 7.29474 20.3603 9.32421 18.9815 10.7031L13.5863 16.0983C13.4886 16.1959 13.3303 16.1959 13.2327 16.0983L7.92614 10.7917C7.82851 10.6941 7.82851 10.5358 7.92614 10.4381L13.3225 5.04177C14.7008 3.66346 16.7293 3.16225 18.5909 3.74L19.253 3.94547ZM17.9641 13.8418C18.4166 14.6075 18.3139 15.6105 17.6558 16.2685L16.9436 16.9807L15.8844 15.9215L17.9641 13.8418ZM7.75751 6.36416C8.41602 5.70565 9.42005 5.60324 10.186 6.05693L8.10595 8.13701L7.04531 7.07636L7.75751 6.36416ZM10.5756 15.5625L10.0623 16.4599L7.56209 13.9597L8.46047 13.4473L10.5756 15.5625ZM6.68987 18.3952C6.98276 18.1023 6.98276 17.6274 6.68987 17.3345C6.39697 17.0416 5.9221 17.0416 5.62921 17.3345L3.15433 19.8094C2.86144 20.1023 2.86144 20.5772 3.15433 20.87C3.44723 21.1629 3.9221 21.1629 4.21499 20.87L6.68987 18.3952ZM4.74529 15.39C5.03818 15.6829 5.03818 16.1577 4.74529 16.4506L3.68463 17.5113C3.39173 17.8042 2.91686 17.8042 2.62397 17.5113C2.33107 17.2184 2.33107 16.7435 2.62397 16.4506L3.68463 15.39C3.97752 15.0971 4.45239 15.0971 4.74529 15.39ZM8.63238 20.3418C8.92528 20.0489 8.92528 19.574 8.63239 19.2812C8.33951 18.9883 7.86463 18.9882 7.57173 19.2811L6.51313 20.3397C6.22023 20.6326 6.22023 21.1075 6.51312 21.4004C6.80601 21.6933 7.28088 21.6933 7.57378 21.4004L8.63238 20.3418Z" fill="currentColor"/>
</svg>
