<svg width="24" height="24" viewBox="0 0 24 24" fill="none" xmlns="http://www.w3.org/2000/svg">
<path d="M17.7832 2.00781C19.0259 2.00781 20 3.00858 20 4.25122V8.2461C19.6807 7.65843 19.1807 7.1262 18.5 6.6494V4.25781C18.5 3.8436 18.1974 3.50781 17.7832 3.50781H6.25709C5.84288 3.50781 5.50709 3.8436 5.50709 4.25781L5.5 19.7581C5.5 20.1723 5.84288 20.5031 6.25709 20.5012L7.61344 20.5011C8.36611 20.5033 9.13308 20.5078 9.99302 20.5064L11.3825 20.5C11.544 20.5002 11.6386 20.5021 11.7929 20.5023L13.3125 20.4994C13.8543 20.7638 14.385 20.8895 14.5005 20.9321C14.4804 21.4157 14.5382 21.772 14.6739 22.0012H11.0866L9.49629 22.008C8.33742 22.0087 7.32978 22.0012 6.25709 22.0012C5.01445 22.0012 4 21.0007 4 19.7581L4.00709 4.25781C4.00709 3.01517 5.01445 2.00781 6.25709 2.00781H17.7832ZM21.25 13.0012C21.6297 13.0012 21.9435 13.2834 21.9932 13.6494L22 13.7512V14.5012C22 17.4225 19.8215 19.7504 17.0004 20.1045L17 21.2512C17 21.6654 16.6642 22.0012 16.25 22.0012C15.8703 22.0012 15.5565 21.7191 15.5068 21.353L15.5 21.2512L15.5006 20.1046C12.7553 19.7605 10.6183 17.5473 10.5047 14.7368L10.5 14.5012V13.7512C10.5 13.337 10.8358 13.0012 11.25 13.0012C11.6297 13.0012 11.9435 13.2834 11.9932 13.6494L12 13.7512V14.5012C12 16.8484 13.9028 18.6512 16.25 18.6512C18.5261 18.6512 20.3843 16.956 20.4948 14.7131L20.5 14.5012V13.7512C20.5 13.337 20.8358 13.0012 21.25 13.0012ZM16.25 7.00122C18.0449 7.00122 19.5 8.45629 19.5 10.2512V14.2512C19.5 16.0461 18.0449 17.5012 16.25 17.5012C14.4551 17.5012 13 16.0461 13 14.2512V10.2512C13 8.45629 14.4551 7.00122 16.25 7.00122ZM16.25 8.50122C15.2835 8.50122 14.5 9.28472 14.5 10.2512V14.2512C14.5 15.2177 15.2835 16.0012 16.25 16.0012C17.2165 16.0012 18 15.2177 18 14.2512V10.2512C18 9.28472 17.2165 8.50122 16.25 8.50122ZM9.66531 13.0012C9.62857 13.0374 9.59013 13.1207 9.55 13.2512C9.5179 13.3556 9.50081 13.5045 9.49874 13.6979L9.49871 14.5012H8.25C7.83579 14.5012 7.5 14.1654 7.5 13.7512C7.5 13.3715 7.78215 13.0577 8.14823 13.0081L8.25 13.0012H9.66531ZM8.25 10.0012H12.0035L11.9959 11.5012H8.25C7.83579 11.5012 7.5 11.1654 7.5 10.7512C7.5 10.3715 7.78215 10.0577 8.14823 10.0081L8.25 10.0012ZM13.5 7.00122C13.1909 7.26524 12.9743 7.4819 12.85 7.65122C12.7612 7.77216 12.6508 7.95127 12.5188 8.18855L12.35 8.50122H8.25C7.83579 8.50122 7.5 8.16543 7.5 7.75122C7.5 7.37152 7.78215 7.05773 8.14823 7.00806L8.25 7.00122H13.5Z" fill="#2A2A2A"/>
</svg>
