<svg width="24" height="24" viewBox="0 0 24 24" fill="none" xmlns="http://www.w3.org/2000/svg">
<path d="M18 11.0887V11.0921L4.4021 4.29317L7.01109 11.0022L13.6387 11.0028C14.0184 11.0028 14.3322 11.2849 14.3818 11.651L14.3887 11.7528C14.3887 12.1325 14.1065 12.4462 13.7404 12.4959L13.6387 12.5028L7.01109 12.5022L4.4021 19.2124L14.1084 14.3592C14.3044 14.8872 14.748 15.2949 15.2981 15.4414L3.33375 21.4236C2.75077 21.7151 2.11746 21.1791 2.2688 20.5765L2.29933 20.4809L5.69362 11.7528L2.29933 3.02459C2.1939 2.75347 2.25351 2.48764 2.40394 2.29473C2.50368 2.16389 2.64161 2.07267 2.7936 2.02912C2.84963 2.01283 2.90801 2.00307 2.96778 2.00072C3.091 1.99531 3.21727 2.02027 3.33541 2.07934L21.3354 11.0793C21.6957 11.2595 21.8476 11.6905 21.6853 12.0549C21.546 12.0191 21.4 12.0002 21.2495 12.0002H19.8229L18 11.0887ZM15.75 14.5002H16.5V17.1952C16.5 17.5429 16.4094 17.8846 16.237 18.1865L15.7727 19.0002H21.2261L20.763 18.1888C20.5906 17.8868 20.5 17.5451 20.5 17.1974V14.5002H21.25C21.6642 14.5002 22 14.1644 22 13.7502C22 13.336 21.6642 13.0002 21.25 13.0002H15.75C15.3358 13.0002 15 13.336 15 13.7502C15 14.1644 15.3358 14.5002 15.75 14.5002ZM15.2019 20.0002L14.1994 21.7567C13.6287 22.7567 14.3508 24.0003 15.5022 24.0003H21.4965C22.6479 24.0003 23.37 22.7567 22.7993 21.7567L21.7968 20.0002H15.2019Z" fill="#2A2A2A"/>
</svg>
