<svg width="24" height="24" viewBox="0 0 24 24" fill="none" xmlns="http://www.w3.org/2000/svg">
<path d="M5.69362 12.0006L2.29933 3.27248C2.0631 2.665 2.65544 2.08407 3.2414 2.29056L3.33375 2.32982L21.3337 11.3298C21.7769 11.5514 21.8648 12.1023 21.5975 12.4545C20.4793 11.5455 19.0533 11.0006 17.5 11.0006C17.4418 11.0006 17.3837 11.0014 17.3259 11.0029L4.4021 4.54105L7.01109 11.25L13.6387 11.2506C13.9856 11.2506 14.2776 11.4863 14.3632 11.8062C13.8908 12.067 13.4543 12.3849 13.063 12.7506L7.01109 12.75L4.4021 19.4602L11.1549 16.0839C11.0535 16.5399 11 17.014 11 17.5006C11 17.6125 11.0028 17.7237 11.0084 17.8341L3.33375 21.6715C2.75077 21.963 2.11746 21.427 2.2688 20.8244L2.29933 20.7288L5.69362 12.0006Z" fill="currentColor"/>
<path d="M23 17.5006C23 14.4631 20.5376 12.0006 17.5 12.0006C14.4624 12.0006 12 14.4631 12 17.5006C12 20.5382 14.4624 23.0006 17.5 23.0006C20.5376 23.0006 23 20.5382 23 17.5006ZM17.5 17.5007H19.5C19.7761 17.5007 20 17.7246 20 18.0007C20 18.2768 19.7761 18.5007 19.5 18.5007H17C16.7239 18.5007 16.5 18.2768 16.5 18.0007L16.5 17.9992L16.5 15.0006C16.5 14.7244 16.7239 14.5006 17 14.5006C17.2761 14.5006 17.5 14.7244 17.5 15.0006L17.5 17.5007Z" fill="currentColor"/>
</svg>
