<svg width="24" height="24" viewBox="0 0 24 24" fill="none" xmlns="http://www.w3.org/2000/svg">
<path d="M5.69362 12.0006L2.29933 3.27248C2.0631 2.665 2.65544 2.08407 3.2414 2.29056L3.33375 2.32982L21.3337 11.3298C21.852 11.5889 21.8844 12.2985 21.4309 12.6139L21.3337 12.6715L3.33375 21.6715C2.75077 21.963 2.11746 21.427 2.2688 20.8244L2.29933 20.7288L5.69362 12.0006L2.29933 3.27248L5.69362 12.0006ZM4.4021 4.54105L7.01109 11.25L13.6387 11.2506C14.0184 11.2506 14.3322 11.5328 14.3818 11.8989L14.3887 12.0006C14.3887 12.3803 14.1065 12.6941 13.7404 12.7438L13.6387 12.7506L7.01109 12.75L4.4021 19.4602L19.3213 12.0006L4.4021 4.54105Z" fill="#2A2A2A"/>
</svg>
