<svg width="24" height="24" viewBox="0 0 24 24" fill="none" xmlns="http://www.w3.org/2000/svg">
<path d="M12.8147 12.196L5.28344 13.4512C5.10705 13.4806 4.95979 13.6019 4.89723 13.7695L2.29933 20.7269C2.05066 21.3663 2.72008 21.9763 3.33375 21.6695L11.0084 17.8322C11.0028 17.7218 11 17.6108 11 17.499C11 13.9092 13.9101 10.999 17.5 10.999C19.0532 10.999 20.4792 11.5438 21.5973 12.4527C21.8648 12.1005 21.777 11.5495 21.3337 11.3279L3.33375 2.32787C2.72008 2.02104 2.05066 2.63108 2.29933 3.27052L4.89723 10.2279C4.95979 10.3954 5.10705 10.5168 5.28344 10.5462L12.8147 11.8014C12.9236 11.8196 12.9972 11.9226 12.9791 12.0316C12.965 12.1159 12.899 12.1819 12.8147 12.196ZM17.5 11.999C20.5376 11.999 23 14.4615 23 17.499C23 20.5366 20.5376 22.999 17.5 22.999C14.4624 22.999 12 20.5366 12 17.499C12 14.4615 14.4624 11.999 17.5 11.999ZM19.5 17.4991H17.5L17.5 14.999C17.5 14.7228 17.2761 14.499 17 14.499C16.7239 14.499 16.5 14.7228 16.5 14.999L16.5 17.9976L16.5 17.9991C16.5 18.2752 16.7239 18.4991 17 18.4991H19.5C19.7761 18.4991 20 18.2752 20 17.9991C20 17.7229 19.7761 17.4991 19.5 17.4991Z" fill="#2A2A2A"/>
</svg>
