<svg width="24" height="24" viewBox="0 0 24 24" fill="none" xmlns="http://www.w3.org/2000/svg">
<path d="M6.99998 11.5007C7.4142 11.5007 7.74998 11.1649 7.74998 10.7507C7.74998 10.3365 7.4142 10.0007 6.99998 10.0007C6.58577 10.0007 6.24998 10.3365 6.24998 10.7507C6.24998 11.1649 6.58577 11.5007 6.99998 11.5007ZM10.25 10.7507C10.25 11.1649 9.9142 11.5007 9.49998 11.5007C9.08577 11.5007 8.74998 11.1649 8.74998 10.7507C8.74998 10.3365 9.08577 10.0007 9.49998 10.0007C9.9142 10.0007 10.25 10.3365 10.25 10.7507ZM8.24998 14.0007C8.6642 14.0007 8.99998 13.6649 8.99998 13.2507C8.99998 12.8365 8.6642 12.5007 8.24998 12.5007C7.83577 12.5007 7.49998 12.8365 7.49998 13.2507C7.49998 13.6649 7.83577 14.0007 8.24998 14.0007ZM11.5 13.2507C11.5 13.6649 11.1642 14.0007 10.75 14.0007C10.3358 14.0007 9.99998 13.6649 9.99998 13.2507C9.99998 12.8365 10.3358 12.5007 10.75 12.5007C11.1642 12.5007 11.5 12.8365 11.5 13.2507ZM13.25 14.0007C13.6642 14.0007 14 13.6649 14 13.2507C14 12.8365 13.6642 12.5007 13.25 12.5007C12.8358 12.5007 12.5 12.8365 12.5 13.2507C12.5 13.6649 12.8358 14.0007 13.25 14.0007ZM16.5 13.2507C16.5 13.6649 16.1642 14.0007 15.75 14.0007C15.3358 14.0007 15 13.6649 15 13.2507C15 12.8365 15.3358 12.5007 15.75 12.5007C16.1642 12.5007 16.5 12.8365 16.5 13.2507ZM12 11.5007C12.4142 11.5007 12.75 11.1649 12.75 10.7507C12.75 10.3365 12.4142 10.0007 12 10.0007C11.5858 10.0007 11.25 10.3365 11.25 10.7507C11.25 11.1649 11.5858 11.5007 12 11.5007ZM15.25 10.7507C15.25 11.1649 14.9142 11.5007 14.5 11.5007C14.0858 11.5007 13.75 11.1649 13.75 10.7507C13.75 10.3365 14.0858 10.0007 14.5 10.0007C14.9142 10.0007 15.25 10.3365 15.25 10.7507ZM17 11.5007C17.4142 11.5007 17.75 11.1649 17.75 10.7507C17.75 10.3365 17.4142 10.0007 17 10.0007C16.5858 10.0007 16.25 10.3365 16.25 10.7507C16.25 11.1649 16.5858 11.5007 17 11.5007ZM4.90701 7C3.13073 7 1.82042 8.65883 2.23177 10.3868L3.30329 14.8882C3.5982 16.127 4.70507 17.0013 5.97854 17.0013H18.0172C19.2901 17.0013 20.3966 16.1278 20.6921 14.8897L21.7664 10.3884C22.1789 8.65999 20.8685 7 19.0915 7H4.90701ZM3.69099 10.0395C3.50402 9.25402 4.09961 8.5 4.90701 8.5H19.0915C19.8992 8.5 20.4949 9.25454 20.3074 10.0402L19.2331 14.5415C19.0988 15.1043 18.5958 15.5013 18.0172 15.5013H5.97854C5.39969 15.5013 4.89657 15.1039 4.76252 14.5408L3.69099 10.0395Z" fill="#2A2A2A"/>
</svg>
