<svg width="24" height="24" viewBox="0 0 24 24" fill="none" xmlns="http://www.w3.org/2000/svg">
<path d="M16.8514 8.94568C16.5024 8.65876 16 7.98364 16 6.35C16 5.27845 15.6587 4.43207 15.1196 3.78757C14.5917 3.15648 13.9077 2.75767 13.2694 2.50329C12.6294 2.24823 12 2.12417 11.5379 2.06278C11.3049 2.03183 11.1095 2.01618 10.9701 2.00824C10.8601 2.00198 10.798 2.00015 10.7348 2L10.7334 2C8.4674 2 6.74487 2.62091 5.45499 3.59732C4.17332 4.56752 3.37035 5.84929 2.86762 7.09416C2.36558 8.33733 2.15232 9.56897 2.0628 10.4815C1.73439 13.8289 2.4644 17.7522 5.25087 19.9172C7.25937 21.4778 9.95529 22 12.75 22C15.3253 22 17.6263 21.4251 19.3035 20.1846C21.0106 18.922 21.9996 17.0202 22 14.56C22 12.2402 20.912 10.8792 19.7934 10.1275C19.2488 9.76157 18.7091 9.54643 18.3076 9.42225C17.8268 9.27353 17.2519 9.27505 16.8514 8.94568ZM6.1712 18.7328C3.77551 16.8714 3.27543 13.484 3.55563 10.6279C3.63627 9.80603 3.82665 8.72517 4.25848 7.65584C4.68964 6.58821 5.35081 5.55748 6.36032 4.7933C7.62191 3.8383 9.31551 3.41648 10.8848 3.50582C10.9924 3.51194 11.1499 3.52442 11.3403 3.54972C11.7251 3.60083 12.2249 3.70177 12.714 3.89671C13.2049 4.09233 13.65 4.36852 13.969 4.74993C14.2768 5.11793 14.5 5.62155 14.5 6.35C14.5 8.31636 15.1227 9.46624 15.8987 10.1043C16.2733 10.4123 16.6511 10.5729 16.9403 10.6565C17.2441 10.7442 17.5613 10.7615 17.8643 10.8553C18.166 10.9486 18.5637 11.1084 18.9567 11.3725C21.5616 13.123 20.6364 17.3331 18.4115 18.9787C17.0774 19.9654 15.1288 20.5 12.75 20.5C10.0998 20.5 7.79857 19.9972 6.1712 18.7328Z" fill="currentColor"/>
</svg>
