<svg width="24" height="24" viewBox="0 0 24 24" fill="none" xmlns="http://www.w3.org/2000/svg">
<path d="M14.7501 16.5003C16.0586 16.5003 16.5683 17.0828 16.9554 18.3746L17.0232 18.6118C17.2057 19.2691 17.3148 19.466 17.5359 19.5571C17.795 19.6639 17.9677 19.6487 18.2393 19.5091L18.3862 19.4268C18.4391 19.395 18.4967 19.3584 18.5619 19.3154L19.2251 18.864C19.841 18.4589 20.3944 18.1912 21.0682 18.0227C21.47 17.9222 21.8772 18.1666 21.9777 18.5684C22.0782 18.9702 21.8338 19.3774 21.432 19.4779C21.025 19.5797 20.6738 19.7337 20.2867 19.9673L19.9881 20.1581L19.5091 20.4861C19.2793 20.6424 19.1058 20.7502 18.9251 20.8431C18.2823 21.1736 17.6553 21.2287 16.9643 20.9439C16.2195 20.637 15.9191 20.164 15.638 19.2223L15.4822 18.6805C15.3008 18.0911 15.1772 18.0003 14.7501 18.0003C14.4407 18.0003 14.1205 18.1551 13.6817 18.5233L13.497 18.6842L12.5761 19.5595C11.168 20.8831 9.9675 21.5258 8.24874 21.5258C6.56245 21.5258 5.10405 21.2718 3.87979 20.757L6.82738 19.9527C7.27465 20.0014 7.74836 20.0258 8.24874 20.0258C9.43148 20.0258 10.2805 19.6109 11.335 18.6632L11.5932 18.4245L12.125 17.9134C12.3617 17.6866 12.539 17.5241 12.7175 17.3742C13.4011 16.8006 14.0224 16.5003 14.7501 16.5003ZM19.0304 2.96997C20.4279 4.36743 20.4279 6.63317 19.0304 8.03063L18.7422 8.31934C19.8937 9.72069 19.8521 11.2058 18.7812 12.2799L16.78 14.2811C16.4868 14.5737 16.0119 14.5733 15.7193 14.2802C15.4267 13.987 15.4271 13.5121 15.7202 13.2195L17.719 11.2207C18.204 10.7343 18.2601 10.1304 17.6792 9.38239L9.0621 17.999C8.78522 18.2758 8.44089 18.4757 8.06312 18.5787L2.94743 19.9739C2.38756 20.1266 1.87383 19.6128 2.02652 19.053L3.42171 13.9373C3.52474 13.5595 3.72456 13.2152 4.00144 12.9383L13.9698 2.96997C15.3672 1.57251 17.633 1.57251 19.0304 2.96997Z" fill="currentColor"/>
</svg>
