<svg width="24" height="24" viewBox="0 0 24 24" fill="none" xmlns="http://www.w3.org/2000/svg">
<path d="M8.24459 13.0028C8.82277 13.0028 9.17016 13.6212 8.90616 14.107L8.84941 14.1963L4.22708 20.4983L8.24459 20.4986C8.62429 20.4986 8.93808 20.7808 8.98775 21.1469L8.99459 21.2486C8.99459 21.6283 8.71244 21.9421 8.34636 21.9918L8.24459 21.9986H2.74793C2.16975 21.9986 1.82236 21.3802 2.08635 20.8945L2.14311 20.8051L6.76408 14.5023L2.74888 14.5028C2.36918 14.5028 2.05539 14.2206 2.00572 13.8546L1.99888 13.7528C1.99888 13.3731 2.28103 13.0593 2.64711 13.0096L2.74888 13.0028H8.24459ZM21.2522 2C21.8515 2 22.195 2.65904 21.8908 3.14423L21.8303 3.22788L13.3391 13.4963L21.2522 13.4964C21.6319 13.4964 21.9457 13.7785 21.9954 14.1446L22.0022 14.2464C22.0022 14.6261 21.7201 14.9399 21.354 14.9895L21.2522 14.9964H11.7479C11.1487 14.9964 10.8051 14.3373 11.1094 13.8521L11.1699 13.7685L19.6591 3.49931L11.7479 3.5C11.3682 3.5 11.0544 3.21785 11.0048 2.85177L10.9979 2.75C10.9979 2.3703 11.2801 2.05651 11.6462 2.00685L11.7479 2H21.2522Z" fill="currentColor"/>
</svg>
