<svg width="24" height="24" viewBox="0 0 24 24" fill="none" xmlns="http://www.w3.org/2000/svg">
<path d="M2.35267 12.5732C1.66865 14.4716 1.57813 16.4471 2.79143 17.6722L2.79069 17.6729L3.02485 17.91C3.17753 18.0644 3.40139 18.2906 3.68634 18.5779C4.25624 19.1524 5.07055 19.9713 6.04851 20.9493C7.32831 22.2291 9.35325 22.2501 11.337 21.6093C13.3636 20.9547 15.5873 19.5482 17.5631 17.5724C19.539 15.5965 20.9454 13.3728 21.6 11.3462C22.2408 9.36249 22.2199 7.33755 20.9401 6.05775C20.4225 5.54024 19.6094 4.72101 18.9248 4.0303C18.5827 3.68513 18.2729 3.37236 18.0488 3.14589L17.686 2.77934L17.6838 2.78154C16.4588 1.56735 14.4827 1.65774 12.5839 2.34193C10.6188 3.05001 8.43521 4.48489 6.46542 6.45468C4.49564 8.42447 3.06075 10.608 2.35267 12.5732ZM17.4901 6.87145L17.4899 6.87269L17.4896 6.87422L17.489 6.87819L17.487 6.88968L17.4802 6.92657C17.4745 6.95723 17.466 6.99992 17.4544 7.05376C17.4313 7.16141 17.3955 7.31382 17.3432 7.50401C17.2386 7.8842 17.0677 8.4167 16.7989 9.04535C16.2614 10.3022 15.3296 11.9502 13.749 13.5308C12.1698 15.11 10.4707 16.0941 9.16867 16.6837C8.51665 16.9789 7.96081 17.1768 7.56409 17.3018C7.3656 17.3643 7.20657 17.4086 7.09478 17.4379C7.03888 17.4526 6.99475 17.4634 6.96337 17.4709L6.92598 17.4796L6.91467 17.4821L6.91091 17.483L6.90841 17.4835C6.90841 17.4835 6.15923 17.5675 6.01685 16.909C5.9294 16.5045 6.18607 16.1057 6.59028 16.0176L6.59141 16.0174L6.59393 16.0168L6.61583 16.0117C6.63673 16.0067 6.67006 15.9986 6.71486 15.9868C6.80449 15.9634 6.93988 15.9257 7.11347 15.871C7.46089 15.7616 7.95973 15.5845 8.54991 15.3172C9.73222 14.7819 11.2675 13.891 12.6883 12.4701C14.1078 11.0507 14.9415 9.57376 15.4197 8.45557C15.6587 7.89671 15.8081 7.42922 15.8969 7.10628C15.9413 6.94491 15.9704 6.81997 15.988 6.73817C15.9968 6.69729 16.0027 6.66722 16.0062 6.64881C16.0803 6.24404 16.453 5.94197 16.8709 6.01028C17.2797 6.0771 17.5569 6.46266 17.4901 6.87145Z" fill="currentColor"/>
</svg>
