<svg width="24" height="24" viewBox="0 0 24 24" fill="none" xmlns="http://www.w3.org/2000/svg">
<path d="M10.7878 3.10409C11.283 2.10072 12.7138 2.10071 13.209 3.10409L15.567 7.88182L20.8395 8.64796C21.9468 8.80886 22.3889 10.1697 21.5877 10.9507L20.6828 11.8327C19.7421 11.3034 18.6563 11.0015 17.5 11.0015C13.9101 11.0015 11 13.9116 11 17.5015C11 18.1119 11.0841 18.7026 11.2414 19.2627L7.28252 21.344C6.29213 21.8647 5.13459 21.0237 5.32374 19.9208L6.2244 14.6696L2.40916 10.9507C1.60791 10.1697 2.05005 8.80886 3.15735 8.64796L8.42988 7.88182L10.7878 3.10409ZM23 17.5015C23 20.5391 20.5376 23.0015 17.5 23.0015C14.4624 23.0015 12 20.5391 12 17.5015C12 14.4639 14.4624 12.0015 17.5 12.0015C20.5376 12.0015 23 14.4639 23 17.5015ZM15.8536 15.1479C15.6583 14.9527 15.3417 14.9527 15.1464 15.1479C14.9512 15.3432 14.9512 15.6598 15.1464 15.8551L16.7929 17.5015L15.1464 19.1479C14.9512 19.3432 14.9512 19.6598 15.1464 19.8551C15.3417 20.0503 15.6583 20.0503 15.8536 19.8551L17.5 18.2086L19.1464 19.8551C19.3417 20.0503 19.6583 20.0503 19.8536 19.8551C20.0488 19.6598 20.0488 19.3432 19.8536 19.1479L18.2071 17.5015L19.8536 15.8551C20.0488 15.6598 20.0488 15.3432 19.8536 15.1479C19.6583 14.9527 19.3417 14.9527 19.1464 15.1479L17.5 16.7944L15.8536 15.1479Z" fill="currentColor"/>
</svg>
