<svg width="24" height="24" viewBox="0 0 24 24" fill="none" xmlns="http://www.w3.org/2000/svg">
<path d="M13.209 3.10409C12.7138 2.10071 11.283 2.10072 10.7878 3.10409L8.42988 7.88182L3.15735 8.64796C2.05005 8.80886 1.60791 10.1697 2.40916 10.9507L6.2244 14.6696L5.32374 19.9208C5.13459 21.0237 6.29213 21.8647 7.28252 21.344L11.2414 19.2627C11.0841 18.7026 11 18.1119 11 17.5015C11 13.9116 13.9101 11.0015 17.5 11.0015C18.6563 11.0015 19.7421 11.3034 20.6828 11.8327L21.5877 10.9507C22.3889 10.1697 21.9468 8.80886 20.8395 8.64796L15.567 7.88182L13.209 3.10409ZM23 17.501C23 20.5385 20.5376 23.001 17.5 23.001C14.4624 23.001 12 20.5385 12 17.501C12 14.4634 14.4624 12.001 17.5 12.001C20.5376 12.001 23 14.4634 23 17.501ZM20.8536 15.1474C20.6583 14.9522 20.3417 14.9522 20.1464 15.1474L16.5 18.7939L14.8536 17.1474C14.6583 16.9522 14.3417 16.9522 14.1464 17.1474C13.9512 17.3427 13.9512 17.6593 14.1464 17.8545L16.1464 19.8545C16.3417 20.0498 16.6583 20.0498 16.8536 19.8545L20.8536 15.8545C21.0488 15.6593 21.0488 15.3427 20.8536 15.1474Z" fill="#2A2A2A"/>
</svg>
