<svg width="24" height="24" viewBox="0 0 24 24" fill="none" xmlns="http://www.w3.org/2000/svg">
<path d="M10.7878 3.10409C11.283 2.10072 12.7138 2.10071 13.209 3.10409L15.567 7.88182L20.8395 8.64796C21.9468 8.80886 22.3889 10.1697 21.5877 10.9507L20.6827 11.8328C20.2104 11.567 19.7016 11.3586 19.1656 11.2169L20.323 10.0887L15.2732 9.35489C14.8335 9.29099 14.4534 9.01482 14.2568 8.61638L11.9984 4.04049L9.74008 8.61638C9.54344 9.01482 9.16332 9.29099 8.72361 9.35489L3.67382 10.0887L7.32788 13.6505C7.64606 13.9607 7.79125 14.4075 7.71614 14.8455L6.85353 19.8749L11.0028 17.6935C11.0185 18.2358 11.1007 18.7615 11.2414 19.2627L7.28252 21.344C6.29213 21.8647 5.13459 21.0237 5.32374 19.9208L6.2244 14.6696L2.40916 10.9507C1.60791 10.1697 2.05005 8.80886 3.15735 8.64796L8.42988 7.88182L10.7878 3.10409ZM23 17.5015C23 20.5391 20.5376 23.0015 17.5 23.0015C14.4624 23.0015 12 20.5391 12 17.5015C12 14.4639 14.4624 12.0015 17.5 12.0015C20.5376 12.0015 23 14.4639 23 17.5015ZM15.8536 15.1479C15.6583 14.9527 15.3417 14.9527 15.1464 15.1479C14.9512 15.3432 14.9512 15.6598 15.1464 15.8551L16.7929 17.5015L15.1464 19.1479C14.9512 19.3432 14.9512 19.6598 15.1464 19.8551C15.3417 20.0503 15.6583 20.0503 15.8536 19.8551L17.5 18.2086L19.1464 19.8551C19.3417 20.0503 19.6583 20.0503 19.8536 19.8551C20.0488 19.6598 20.0488 19.3432 19.8536 19.1479L18.2071 17.5015L19.8536 15.8551C20.0488 15.6598 20.0488 15.3432 19.8536 15.1479C19.6583 14.9527 19.3417 14.9527 19.1464 15.1479L17.5 16.7944L15.8536 15.1479Z" fill="currentColor"/>
</svg>
