<svg width="24" height="24" viewBox="0 0 24 24" fill="none" xmlns="http://www.w3.org/2000/svg">
<path d="M10.7878 3.10215C11.283 2.09877 12.7138 2.09876 13.209 3.10215L15.567 7.87987L20.8395 8.64601C21.9468 8.80691 22.3889 10.1677 21.5877 10.9487L20.6828 11.8307C19.7421 11.3014 18.6563 10.9995 17.5 10.9995C13.9101 10.9995 11 13.9097 11 17.4995C11 18.1099 11.0841 18.7006 11.2414 19.2607L7.28252 21.342C6.29213 21.8627 5.13459 21.0217 5.32374 19.9189L6.2244 14.6676L2.40916 10.9487C1.60791 10.1677 2.05005 8.80691 3.15735 8.64601L8.42988 7.87987L10.7878 3.10215ZM23 17.4995C23 20.5371 20.5376 22.9995 17.5 22.9995C14.4624 22.9995 12 20.5371 12 17.4995C12 14.4619 14.4624 11.9995 17.5 11.9995C20.5376 11.9995 23 14.4619 23 17.4995ZM16.3536 15.3531C16.5488 15.1578 16.5488 14.8412 16.3536 14.646C16.1583 14.4507 15.8417 14.4507 15.6464 14.646L14.1464 16.146C13.9512 16.3412 13.9512 16.6578 14.1464 16.8531L15.6464 18.3531C15.8417 18.5483 16.1583 18.5483 16.3536 18.3531C16.5488 18.1578 16.5488 17.8412 16.3536 17.646L15.7071 16.9995H17.75C18.9926 16.9995 20 18.0069 20 19.2495V19.4995C20 19.7757 20.2239 19.9995 20.5 19.9995C20.7761 19.9995 21 19.7757 21 19.4995V19.2495C21 17.4546 19.5449 15.9995 17.75 15.9995H15.7071L16.3536 15.3531Z" fill="currentColor"/>
</svg>
