<svg width="24" height="24" viewBox="0 0 24 24" fill="none" xmlns="http://www.w3.org/2000/svg">
<path d="M12 3.0009C13.1135 3.0009 14.1797 3.20311 15.164 3.5728L13.9808 4.76525C13.3498 4.59291 12.6856 4.50091 12 4.50091C7.85786 4.50091 4.5 7.85877 4.5 12.0009C4.5 13.4258 4.89727 14.7902 5.63583 15.9713C5.93764 16.4539 6.29368 16.9011 6.69639 17.3039C7.09848 17.706 7.5449 18.0617 8.02668 18.3632C9.20844 19.103 10.5739 19.5009 12 19.5009C16.1421 19.5009 19.5 16.143 19.5 12.0009C19.5 11.3443 19.4156 10.7073 19.2571 10.1004L20.4505 8.8971C20.8059 9.86462 21 10.9101 21 12.0009C21 16.9715 16.9706 21.0009 12 21.0009C10.2904 21.0009 8.64945 20.5227 7.23081 19.6347C6.65294 19.273 6.1177 18.8466 5.63566 18.3645C5.1529 17.8817 4.72601 17.3455 4.36401 16.7666C3.4774 15.3487 3 13.7091 3 12.0009C3 7.03034 7.02944 3.0009 12 3.0009ZM21.0602 2.67285L21.2062 2.80881C22.2817 3.88496 22.285 5.62806 21.2135 6.70818L14.9096 13.0626C14.7291 13.2446 14.5049 13.3773 14.2585 13.448L10.0461 14.6569C9.78064 14.733 9.50371 14.5796 9.42754 14.3142C9.40169 14.2241 9.40168 14.1285 9.42752 14.0384L10.6378 9.8188C10.7074 9.57623 10.837 9.35513 11.0147 9.17597L17.3236 2.81606C18.3448 1.78667 19.9803 1.73737 21.0602 2.67285ZM18.3886 3.87244L12.0796 10.2324L11.3669 12.7173L13.8447 12.0062L20.1486 5.65177C20.6057 5.19091 20.6349 4.46602 20.2371 3.97144L20.1415 3.86538C19.6555 3.38328 18.8707 3.38644 18.3886 3.87244Z" fill="currentColor"/>
</svg>
