<svg width="24" height="24" viewBox="0 0 24 24" fill="none" xmlns="http://www.w3.org/2000/svg">
<path d="M14.0358 2.77798C15.5028 2.38489 17.0107 3.25549 17.4038 4.72252L20.1214 14.8647C20.5145 16.3318 19.6439 17.8397 18.1769 18.2328L11.8984 19.9151C10.4313 20.3082 8.92342 19.4376 8.53033 17.9706L5.81273 7.82835C5.41964 6.36132 6.29024 4.85339 7.75727 4.4603L14.0358 2.77798ZM5.80272 11.6585L7.5644 18.2294C7.74537 18.9048 8.09961 19.4875 8.56649 19.9424L8.12364 19.9186C6.60694 19.8391 5.44184 18.5452 5.52133 17.0285L5.80272 11.6585ZM14.424 4.22687L8.1455 5.90919C7.47867 6.08787 7.08294 6.77329 7.26162 7.44012L9.97922 17.5823C10.1579 18.2492 10.8433 18.6449 11.5101 18.4662L17.7887 16.7839C18.4555 16.6052 18.8512 15.9198 18.6725 15.253L15.9549 5.11075C15.7763 4.44392 15.0908 4.04819 14.424 4.22687ZM4.87813 10.1803L4.5227 16.9761C4.48608 17.6748 4.64315 18.3389 4.94696 18.9161L4.53256 18.7555C3.11466 18.2112 2.40645 16.6205 2.95073 15.2026L4.87813 10.1803ZM9.74114 7.03456C10.2746 6.89162 10.8229 7.2082 10.9659 7.74166C11.1088 8.27513 10.7922 8.82347 10.2588 8.96641C9.72531 9.10935 9.17697 8.79277 9.03403 8.2593C8.89109 7.72584 9.20767 7.1775 9.74114 7.03456Z" fill="#2A2A2A"/>
</svg>
