<svg width="24" height="24" viewBox="0 0 24 24" fill="none" xmlns="http://www.w3.org/2000/svg">
<path d="M19.25 2C19.661 2 19.9885 2.32863 19.9998 2.72749L19.9959 2.82851L18.9959 12.3285C18.9594 12.6755 18.69 12.9466 18.353 12.993L18.25 13H17.5212L18.9881 21.1182L18.9994 21.2196C19.0156 21.5887 18.757 21.9221 18.3833 21.9896C18.0097 22.0571 17.6507 21.8352 17.5368 21.4838L17.512 21.3848L16.9002 18H14.1032L13.4958 21.3842C13.4226 21.7919 13.0327 22.063 12.625 21.9897C12.2513 21.9225 11.9923 21.5893 12.0082 21.2202L12.0195 21.1188L12.5792 18H8.10324L7.49584 21.3842C7.42256 21.7919 7.03266 22.063 6.62498 21.9897C6.25128 21.9225 5.99235 21.5893 6.00824 21.2202L6.0195 21.1188L7.47824 13H4.75002C4.339 13 4.01153 12.6714 4.00024 12.2725L4.00414 12.1715L5.00414 2.67149C5.04067 2.32448 5.31001 2.05345 5.64705 2.00704L5.75002 2H19.25ZM13.4782 13H9.00224L8.37324 16.5H12.8492L13.4782 13ZM15.9962 13H15.0022L14.3732 16.5H16.6282L15.9962 13ZM18.417 3.5H6.42402L5.58202 11.5H17.575L18.417 3.5Z" fill="currentColor"/>
</svg>
