<svg width="24" height="24" viewBox="0 0 24 24" fill="none" xmlns="http://www.w3.org/2000/svg">
<path d="M19.7501 2C20.9927 2 22.0001 3.00736 22.0001 4.25V9.71196C22.0001 10.5738 21.6578 11.4003 21.0484 12.0098L21.0222 12.036C20.5797 11.7502 20.1003 11.5167 19.5928 11.3442L19.9876 10.9492C20.3157 10.6211 20.5001 10.176 20.5001 9.71196V4.25C20.5001 3.83579 20.1643 3.5 19.7501 3.5H14.2847C13.8202 3.5 13.3748 3.68467 13.0465 4.01333L4.53436 12.5358C3.86414 13.2207 3.86923 14.3191 4.54908 14.9977L9.0103 19.4522C9.6482 20.0877 10.6535 20.1309 11.3408 19.5825C11.5052 20.0689 11.7256 20.5295 11.9944 20.9566C10.7374 21.7569 9.05065 21.6098 7.95104 20.5143L3.48934 16.0592C2.21887 14.7913 2.21724 12.7334 3.48556 11.4632L11.9852 2.95334C12.5948 2.34297 13.4221 2 14.2847 2H19.7501ZM17 5.50218C17.8284 5.50218 18.5 6.17374 18.5 7.00216C18.5 7.83057 17.8284 8.50213 17 8.50213C16.1716 8.50213 15.5001 7.83057 15.5001 7.00216C15.5001 6.17374 16.1716 5.50218 17 5.50218ZM23.0001 17.5C23.0001 20.5376 20.5376 23 17.5001 23C14.4625 23 12.0001 20.5376 12.0001 17.5C12.0001 14.4624 14.4625 12 17.5001 12C20.5376 12 23.0001 14.4624 23.0001 17.5ZM17.5001 14C17.2239 14 17.0001 14.2239 17.0001 14.5V18.5C17.0001 18.7761 17.2239 19 17.5001 19C17.7762 19 18.0001 18.7761 18.0001 18.5V14.5C18.0001 14.2239 17.7762 14 17.5001 14ZM17.5001 21.125C17.8452 21.125 18.1251 20.8452 18.1251 20.5C18.1251 20.1548 17.8452 19.875 17.5001 19.875C17.1549 19.875 16.8751 20.1548 16.8751 20.5C16.8751 20.8452 17.1549 21.125 17.5001 21.125Z" fill="currentColor"/>
</svg>
