<svg width="24" height="24" viewBox="0 0 24 24" fill="none" xmlns="http://www.w3.org/2000/svg">
<path d="M19.7501 2C20.9927 2 22.0001 3.00736 22.0001 4.25V9.71196C22.0001 10.5738 21.6578 11.4003 21.0484 12.0098L21.0222 12.036C20.0073 11.3805 18.7981 11 17.5001 11C13.9102 11 11.0001 13.9101 11.0001 17.5C11.0001 18.7703 11.3644 19.9554 11.9944 20.9566C10.7374 21.7569 9.05065 21.6098 7.95104 20.5143L3.48934 16.0592C2.21887 14.7913 2.21724 12.7334 3.48556 11.4632L11.9852 2.95334C12.5948 2.34297 13.4221 2 14.2847 2H19.7501ZM17 5.50218C16.1716 5.50218 15.5001 6.17374 15.5001 7.00216C15.5001 7.83057 16.1716 8.50213 17 8.50213C17.8284 8.50213 18.5 7.83057 18.5 7.00216C18.5 6.17374 17.8284 5.50218 17 5.50218ZM23.0001 17.5C23.0001 20.5376 20.5376 23 17.5001 23C14.4625 23 12.0001 20.5376 12.0001 17.5C12.0001 14.4624 14.4625 12 17.5001 12C20.5376 12 23.0001 14.4624 23.0001 17.5ZM17.5001 14C17.2239 14 17.0001 14.2239 17.0001 14.5V18.5C17.0001 18.7761 17.2239 19 17.5001 19C17.7762 19 18.0001 18.7761 18.0001 18.5V14.5C18.0001 14.2239 17.7762 14 17.5001 14ZM17.5001 21.125C17.8452 21.125 18.1251 20.8452 18.1251 20.5C18.1251 20.1548 17.8452 19.875 17.5001 19.875C17.1549 19.875 16.8751 20.1548 16.8751 20.5C16.8751 20.8452 17.1549 21.125 17.5001 21.125Z" fill="#2A2A2A"/>
</svg>
