<svg width="24" height="24" viewBox="0 0 24 24" fill="none" xmlns="http://www.w3.org/2000/svg">
<path d="M17.8128 2.50001C18.1608 2.50054 18.4944 2.68508 18.7405 3.01316C18.9865 3.34123 19.1249 3.78604 19.1253 4.25001V9.71201C19.1266 10.0728 19.0742 10.4304 18.9712 10.764C18.8682 11.0977 18.7167 11.4009 18.5253 11.656L18.2745 11.9905C17.7996 11.0891 17.0139 10.5 16.125 10.5C14.6753 10.5 13.5 12.067 13.5 14V14.05C12.6442 14.2817 12 15.2905 12 16.5V20.3374C11.6326 20.7387 11.1707 20.9607 10.6916 20.9607C10.1446 20.9607 9.61994 20.6713 9.23283 20.156L5.88183 15.705C5.69034 15.4497 5.53844 15.1467 5.43481 14.8131C5.33117 14.4796 5.27783 14.1221 5.27783 13.761C5.27783 13.4 5.33117 13.0425 5.43481 12.7089C5.53844 12.3753 5.69034 12.0723 5.88183 11.817L12.2568 3.30701C12.4475 3.05053 12.6746 2.84712 12.9247 2.70858C13.1749 2.57005 13.4432 2.49915 13.7141 2.50001H17.8128Z" fill="currentColor"/>
</svg>
