<svg width="24" height="24" viewBox="0 0 24 24" fill="none" xmlns="http://www.w3.org/2000/svg">
<path d="M3.49609 12.0001C3.49609 16.6064 7.15912 20.3571 11.7311 20.4981C12.0124 21.0383 12.3673 21.534 12.7826 21.9719C12.5238 21.992 12.2622 22.0022 11.9982 22.0022C6.47419 22.0022 1.99609 17.5242 1.99609 12.0001C1.99609 6.47614 6.47419 1.99805 11.9982 1.99805C17.5222 1.99805 22.0003 6.47614 22.0003 12.0001C22.0003 12.2631 21.9902 12.5236 21.9702 12.7814C21.5322 12.3663 21.0364 12.0115 20.4961 11.7304C20.3537 7.15966 16.6035 3.49805 11.9982 3.49805C7.30261 3.49805 3.49609 7.30457 3.49609 12.0001ZM11.0913 16.4087C9.04068 15.9891 7.49817 14.1748 7.49817 12.0002C7.49817 9.51487 9.51289 7.50015 11.9982 7.50015C14.1723 7.50015 15.9863 9.04197 16.4065 11.0918C16.762 11.0316 17.1273 11.0002 17.5 11.0002C17.6402 11.0002 17.7794 11.0047 17.9174 11.0134C17.4468 8.16919 14.9758 6.00015 11.9982 6.00015C8.68446 6.00015 5.99817 8.68644 5.99817 12.0002C5.99817 14.9784 8.16816 17.4499 11.0133 17.9197C11.0045 17.781 11 17.6412 11 17.5002C11 17.1283 11.0312 16.7636 11.0913 16.4087ZM12.022 14L11.9982 14.0002C10.8936 14.0002 9.99817 13.1047 9.99817 12.0002C9.99817 10.8956 10.8936 10.0002 11.9982 10.0002C13.1027 10.0002 13.9982 10.8956 13.9982 12.0002L13.998 12.0233C13.2051 12.5314 12.5298 13.2069 12.022 14ZM17.5 12.0002C20.5376 12.0002 23 14.4627 23 17.5002C23 20.5378 20.5376 23.0002 17.5 23.0002C14.4624 23.0002 12 20.5378 12 17.5002C12 14.4627 14.4624 12.0002 17.5 12.0002ZM18.0011 20.5038L18.0006 18.0003H20.503C20.7792 18.0003 21.003 17.7764 21.003 17.5003C21.003 17.2241 20.7792 17.0003 20.503 17.0003H18.0005L18 14.4995C18 14.2234 17.7761 13.9995 17.5 13.9995C17.2239 13.9995 17 14.2234 17 14.4995L17.0005 17.0003H14.4961C14.22 17.0003 13.9961 17.2241 13.9961 17.5003C13.9961 17.7764 14.22 18.0003 14.4961 18.0003H17.0006L17.0011 20.5038C17.0011 20.7799 17.225 21.0038 17.5011 21.0038C17.7773 21.0038 18.0011 20.7799 18.0011 20.5038Z" fill="currentColor"/>
</svg>
