<svg width="24" height="24" viewBox="0 0 24 24" fill="none" xmlns="http://www.w3.org/2000/svg">
<path d="M3.49609 12.0001C3.49609 16.6064 7.15912 20.3571 11.7311 20.4981C12.0124 21.0383 12.3673 21.534 12.7826 21.9719C12.5238 21.992 12.2622 22.0022 11.9982 22.0022C6.47419 22.0022 1.99609 17.5242 1.99609 12.0001C1.99609 6.47614 6.47419 1.99805 11.9982 1.99805C17.5222 1.99805 22.0003 6.47614 22.0003 12.0001C22.0003 12.2631 21.9902 12.5236 21.9702 12.7814C21.5322 12.3663 21.0364 12.0115 20.4961 11.7304C20.3537 7.15966 16.6035 3.49805 11.9982 3.49805C7.30261 3.49805 3.49609 7.30457 3.49609 12.0001ZM11.0913 16.4087C9.04068 15.9891 7.49817 14.1748 7.49817 12.0002C7.49817 9.51487 9.51289 7.50015 11.9982 7.50015C14.1723 7.50015 15.9863 9.04197 16.4065 11.0918C16.762 11.0316 17.1273 11.0002 17.5 11.0002C17.6402 11.0002 17.7794 11.0047 17.9174 11.0134C17.4468 8.16919 14.9758 6.00015 11.9982 6.00015C8.68446 6.00015 5.99817 8.68644 5.99817 12.0002C5.99817 14.9784 8.16816 17.4499 11.0133 17.9197C11.0045 17.781 11 17.6412 11 17.5002C11 17.1283 11.0312 16.7636 11.0913 16.4087ZM12.022 14L11.9982 14.0002C10.8936 14.0002 9.99817 13.1047 9.99817 12.0002C9.99817 10.8956 10.8936 10.0002 11.9982 10.0002C13.1027 10.0002 13.9982 10.8956 13.9982 12.0002L13.998 12.0233C13.2051 12.5314 12.5298 13.2069 12.022 14ZM23 17.5002C23 14.4627 20.5376 12.0002 17.5 12.0002C14.4624 12.0002 12 14.4627 12 17.5002C12 20.5378 14.4624 23.0002 17.5 23.0002C20.5376 23.0002 23 20.5378 23 17.5002ZM15.0238 15.0244L15.093 14.9665L15.1693 14.9231C15.3274 14.8508 15.5155 14.8653 15.6617 14.9665L15.7309 15.0244L17.5004 16.7939L19.2722 15.0244L19.3414 14.9666C19.5119 14.8485 19.7395 14.8485 19.91 14.9666L19.9793 15.0244L20.0371 15.0937C20.1552 15.2642 20.1552 15.4918 20.0371 15.6623L19.9793 15.7315L18.2074 17.5009L19.9765 19.27L20.0344 19.3392C20.1525 19.5097 20.1525 19.7373 20.0344 19.9078L19.9765 19.9771L19.9073 20.0349C19.7367 20.1531 19.5092 20.1531 19.3386 20.0349L19.2694 19.9771L17.5004 18.2079L15.7335 19.9748L15.6642 20.0327C15.4937 20.1508 15.2661 20.1508 15.0956 20.0327L15.0264 19.9748L14.9685 19.9056C14.8504 19.7351 14.8504 19.5075 14.9685 19.337L15.0264 19.2677L16.7934 17.5009L15.0238 15.7315L14.9659 15.6622C14.8478 15.4917 14.8478 15.2641 14.9659 15.0936L15.0238 15.0244Z" fill="#2A2A2A"/>
</svg>
