<svg width="24" height="24" viewBox="0 0 24 24" fill="none" xmlns="http://www.w3.org/2000/svg">
<path d="M17.7499 2C18.9407 2 19.9155 2.92516 19.9947 4.09595L19.9999 4.25V14.3776C19.8794 14.4582 19.7651 14.5517 19.6587 14.658L16.2504 18.0664L15.3417 17.1569C14.9254 16.7403 14.3865 16.521 13.8411 16.499H16.2499C16.6642 16.499 16.9999 16.1632 16.9999 15.749C16.9999 15.3348 16.6642 14.999 16.2499 14.999H11.2461C10.8319 14.999 10.4961 15.3348 10.4961 15.749C10.4961 16.1632 10.8319 16.499 11.2461 16.499H13.6589C13.1141 16.521 12.5758 16.7398 12.1597 17.1555C11.2806 18.0338 11.28 19.4584 12.1583 20.3375L13.8175 21.9981H6.25C5.05914 21.9981 4.08436 21.0729 4.00519 19.9021L4 19.7481V4.25C4 3.05914 4.92516 2.08436 6.09595 2.00519L6.25 2H17.7499ZM9 7.75064C9 7.19836 8.55228 6.75064 8 6.75064C7.44772 6.75064 7 7.19836 7 7.75064C7 8.30293 7.44772 8.75064 8 8.75064C8.55228 8.75064 9 8.30293 9 7.75064ZM11.2461 6.99902C10.8319 6.99902 10.4961 7.33481 10.4961 7.74902C10.4961 8.16324 10.8319 8.49902 11.2461 8.49902H16.2499C16.6642 8.49902 16.9999 8.16324 16.9999 7.74902C16.9999 7.33481 16.6642 6.99902 16.2499 6.99902H11.2461ZM10.4961 11.749C10.4961 12.1632 10.8319 12.499 11.2461 12.499H16.2499C16.6642 12.499 16.9999 12.1632 16.9999 11.749C16.9999 11.3348 16.6642 10.999 16.2499 10.999H11.2461C10.8319 10.999 10.4961 11.3348 10.4961 11.749ZM9 11.749C9 11.1967 8.55228 10.749 8 10.749C7.44772 10.749 7 11.1967 7 11.749C7 12.3013 7.44772 12.749 8 12.749C8.55228 12.749 9 12.3013 9 11.749ZM9 15.747C9 15.1947 8.55228 14.747 8 14.747C7.44772 14.747 7 15.1947 7 15.747C7 16.2993 7.44772 16.747 8 16.747C8.55228 16.747 9 16.2993 9 15.747ZM16.2499 20.1881L20.7194 15.7187C21.0122 15.4258 21.4871 15.4258 21.78 15.7187C22.0729 16.0116 22.0729 16.4865 21.78 16.7794L16.78 21.7794C16.7636 21.7958 16.7464 21.8114 16.7286 21.8262C16.6043 21.9294 16.4496 21.9899 16.2876 21.9981C16.2749 21.9987 16.2622 21.999 16.2495 21.999C16.2369 21.999 16.2243 21.9987 16.2118 21.9981C16.0266 21.9887 15.8508 21.911 15.7191 21.7791L13.2198 19.2777C12.927 18.9846 12.9269 18.5094 13.2199 18.2166C13.5129 17.9239 13.9878 17.9241 14.2806 18.2171L16.2499 20.1881Z" fill="currentColor"/>
</svg>
