<svg width="24" height="24" viewBox="0 0 24 24" fill="none" xmlns="http://www.w3.org/2000/svg">
<path d="M14.1988 3.80893C13.7651 3.63592 13.1505 3.87808 12.9112 4.40659C12.6833 4.90969 12.0908 5.13283 11.5877 4.90499C11.0846 4.67715 10.8615 4.0846 11.0893 3.58151C11.7002 2.23257 13.3639 1.32259 14.9399 1.95131C16.6243 2.62331 17.3858 4.73589 16.3919 6.32266C16.0756 6.82753 15.6497 7.25066 15.247 7.60608C15.0155 7.81034 14.7377 8.03666 14.4835 8.24379C14.3272 8.37117 14.1796 8.49142 14.0572 8.59473C13.8818 8.74291 13.7325 8.87749 13.6063 9.00086H16.2502C16.8025 9.00086 17.2502 9.44857 17.2502 10.0009C17.2502 10.5531 16.8025 11.0009 16.2502 11.0009H12.0002C11.448 11.0009 11.0002 10.5531 11.0002 10.0009C11.0002 8.62923 12.0353 7.68456 12.7667 7.06678C12.9558 6.90708 13.1244 6.77034 13.2851 6.64007C13.5021 6.46402 13.7047 6.29969 13.9236 6.10656C14.2755 5.79598 14.5328 5.52308 14.697 5.26095C15.0029 4.77256 14.7693 4.03653 14.1988 3.80893ZM4 3.00085C4 2.44857 3.55229 2.00085 3 2.00085C2.44772 2.00085 2 2.44857 2 3.00085V10.0009C2 10.5531 2.44772 11.0009 3 11.0009C3.55228 11.0009 4 10.5531 4 10.0009L4 7.50085H7V9.99565C7 10.5479 7.44772 10.9956 8 10.9956C8.55228 10.9956 9 10.5479 9 9.99565L9 3.00239C9 2.45011 8.55229 2.00239 8 2.00239C7.44772 2.00239 7 2.45011 7 3.00239V5.50085L4 5.50085L4 3.00085ZM3 19.0009C2.44772 19.0009 2 19.4486 2 20.0009C2 20.5531 2.44772 21.0009 3 21.0009H21C21.5523 21.0009 22 20.5531 22 20.0009C22 19.4486 21.5523 19.0009 21 19.0009H3ZM2 15.0009C2 14.4486 2.44772 14.0009 3 14.0009H21C21.5523 14.0009 22 14.4486 22 15.0009C22 15.5531 21.5523 16.0009 21 16.0009H3C2.44772 16.0009 2 15.5531 2 15.0009Z" fill="#2A2A2A"/>
</svg>
