<svg width="24" height="24" viewBox="0 0 24 24" fill="none" xmlns="http://www.w3.org/2000/svg">
<path d="M18 3H15C14.4477 3 14 3.44772 14 4V19.25C14 19.8023 14.4477 20.25 15 20.25H18.875C21.5674 20.25 23.75 18.0674 23.75 15.375C23.75 13.5711 22.7703 11.9961 21.3139 11.153C22.1998 10.2902 22.75 9.08434 22.75 7.75C22.75 5.12665 20.6234 3 18 3ZM18 10.5H16V5H18C19.5188 5 20.75 6.23122 20.75 7.75C20.75 9.26878 19.5188 10.5 18 10.5ZM16 18.25V12.5H18.875C20.4628 12.5 21.75 13.7872 21.75 15.375C21.75 16.9628 20.4628 18.25 18.875 18.25H16ZM7.25724 3.00003C7.67606 3.00305 8.04862 3.26675 8.19072 3.66073L13.6907 18.9107C13.8781 19.4303 13.6088 20.0033 13.0893 20.1907C12.5698 20.3781 11.9967 20.1088 11.8093 19.5893L10.5148 16H3.79416L2.43572 19.6028C2.24088 20.1196 1.66399 20.3805 1.14722 20.1857C0.630451 19.9909 0.369481 19.414 0.564329 18.8972L6.31433 3.6472C6.46209 3.2553 6.83842 2.997 7.25724 3.00003ZM4.54826 14H9.79354L7.22918 6.88973L4.54826 14Z" fill="currentColor"/>
</svg>
