<svg width="24" height="24" viewBox="0 0 24 24" fill="none" xmlns="http://www.w3.org/2000/svg">
<path d="M11.5159 4.04895C11.9032 4.19586 12.0981 4.6289 11.9512 5.01619L10.1471 9.77257L18.8412 4.12136C19.1885 3.89562 19.6531 3.99416 19.8788 4.34145C20.1045 4.68875 20.006 5.15329 19.6587 5.37903L10.3842 11.4075L16.5573 18.4625C16.7093 18.0957 17.1241 17.9089 17.5022 18.0439C17.8923 18.1832 18.0956 18.6124 17.9563 19.0025L16.7063 22.5025C16.567 22.8925 16.1378 23.0958 15.7477 22.9565C15.3576 22.8172 15.1544 22.388 15.2937 21.998L16.02 19.9642C15.8948 19.924 15.7785 19.8503 15.6855 19.7441L9.18342 12.3131L6.45121 19.5162C6.3043 19.9035 5.87126 20.0984 5.48397 19.9515C5.09668 19.8045 4.90181 19.3715 5.04871 18.9842L10.5487 4.48421C10.6956 4.09692 11.1287 3.90205 11.5159 4.04895Z" fill="currentColor"/>
</svg>
