<svg width="24" height="24" viewBox="0 0 24 24" fill="none" xmlns="http://www.w3.org/2000/svg">
<path d="M11.9305 4.35118C12.2354 3.69328 13.0485 3.32914 13.6978 3.58222C14.4801 3.88713 14.7869 4.8425 14.3713 5.49071C14.1753 5.79643 13.8779 6.10053 13.4973 6.42874C13.2639 6.63002 13.0393 6.80808 12.8036 6.99502C12.6333 7.13008 12.457 7.26986 12.2674 7.42629C11.8525 7.76873 11.42 8.15635 11.0909 8.59988C10.7551 9.05263 10.5 9.59991 10.5 10.2497C10.5 10.6639 10.8358 10.9997 11.25 10.9997H15.75C16.1642 10.9997 16.5 10.6639 16.5 10.2497C16.5 9.8355 16.1642 9.49971 15.75 9.49971H12.2911L12.2956 9.49358C12.5112 9.20292 12.8261 8.91002 13.2221 8.58325C13.3614 8.46834 13.5217 8.34082 13.6889 8.20778C13.9528 7.99786 14.2339 7.77421 14.4768 7.56474C14.8952 7.20398 15.3213 6.78805 15.634 6.30031C16.5948 4.80183 15.8479 2.81035 14.2426 2.18463C12.764 1.60835 11.1649 2.43608 10.5695 3.72036C10.3954 4.09616 10.5588 4.54203 10.9346 4.71622C11.3104 4.89042 11.7563 4.72699 11.9305 4.35118ZM2.75 1.99971C3.16421 1.99971 3.5 2.3355 3.5 2.74971L3.5 5.49971H7.5L7.5 2.75136C7.5 2.33714 7.83579 2.00136 8.25 2.00136C8.66421 2.00136 9 2.33714 9 2.75136L9 10.2441C9 10.6583 8.66421 10.9941 8.25 10.9941C7.83579 10.9941 7.5 10.6583 7.5 10.2441V6.99971H3.5L3.5 10.2497C3.5 10.6639 3.16421 10.9997 2.75 10.9997C2.33579 10.9997 2 10.6639 2 10.2497V2.74971C2 2.3355 2.33579 1.99971 2.75 1.99971ZM17.5571 5.46162C17.6733 5.18124 17.9469 4.99843 18.2503 4.99843H21.2517C21.5551 4.99843 21.8287 5.18124 21.9449 5.46162C22.061 5.742 21.9968 6.06473 21.7822 6.27932L20.2816 7.77997C19.9885 8.073 19.5135 8.073 19.2204 7.77997L17.7198 6.27932C17.5052 6.06473 17.441 5.742 17.5571 5.46162ZM2.75 18.9997C2.33579 18.9997 2 19.3355 2 19.7497C2 20.1639 2.33579 20.4997 2.75 20.4997H21.25C21.6642 20.4997 22 20.1639 22 19.7497C22 19.3355 21.6642 18.9997 21.25 18.9997H2.75ZM2 14.7497C2 14.3355 2.33579 13.9997 2.75 13.9997H21.25C21.6642 13.9997 22 14.3355 22 14.7497C22 15.1639 21.6642 15.4997 21.25 15.4997H2.75C2.33579 15.4997 2 15.1639 2 14.7497Z" fill="currentColor"/>
</svg>
