<svg width="24" height="24" viewBox="0 0 24 24" fill="none" xmlns="http://www.w3.org/2000/svg">
<path d="M19.5159 4.04895C19.9032 4.19586 20.0981 4.6289 19.9512 5.01619L17.4917 11.5002H19.2499C19.6641 11.5002 19.9999 11.836 19.9999 12.2502C19.9999 12.6644 19.6641 13.0002 19.2499 13.0002H16.9227L14.4512 19.5162C14.3043 19.9035 13.8712 20.0984 13.4839 19.9515C13.0966 19.8045 12.9018 19.3715 13.0487 18.9842L18.5487 4.48421C18.6956 4.09692 19.1286 3.90205 19.5159 4.04895ZM6.7499 6.00021C6.33569 6.00021 5.9999 6.33599 5.9999 6.75021C5.9999 7.16442 6.33569 7.50021 6.7499 7.50021H12.288C11.7334 9.38682 10.7265 11.1179 9.47573 12.4962C8.02278 14.0974 6.2822 15.1789 4.60281 15.5148C4.19664 15.596 3.93323 15.9911 4.01446 16.3973C4.0957 16.8035 4.49082 17.0669 4.89699 16.9856C6.9676 16.5715 8.97702 15.278 10.5866 13.5042C12.2009 11.7252 13.4545 9.41903 13.9838 6.90471C14.0304 6.68354 13.9747 6.45316 13.8323 6.27765C13.6899 6.10214 13.4759 6.00021 13.2499 6.00021H6.7499Z" fill="#2A2A2A"/>
</svg>
