<svg width="24" height="24" viewBox="0 0 24 24" fill="none" xmlns="http://www.w3.org/2000/svg">
<path d="M11.6337 5.18651C11.1362 5.53275 10.7499 6.14108 10.7499 7.2499C10.7499 7.79543 10.9474 8.14677 11.3168 8.47779C11.7392 8.85626 12.3302 9.1596 13.118 9.56401L13.1538 9.58237C14.6415 10.346 16.7177 11.4118 17.2316 14.0593C17.7627 16.7956 15.6406 20.2499 11.4999 20.2499C8.6006 20.2499 7.06918 18.0083 6.57486 17.1292C6.49677 16.9904 6.43775 16.8738 6.39689 16.7887C6.37643 16.7461 6.36044 16.7112 6.34882 16.6852L6.33461 16.6529L6.32992 16.6419L6.32817 16.6377L6.32744 16.636L6.32696 16.6349C6.11455 16.1251 6.35547 15.5392 6.86528 15.3268C7.37369 15.115 7.95738 15.3542 8.17123 15.8611L8.17501 15.8697C8.17947 15.8797 8.1877 15.8978 8.19977 15.9229C8.22396 15.9733 8.26324 16.0513 8.31814 16.1489C8.73678 16.8934 9.75282 18.2499 11.4999 18.2499C14.3592 18.2499 15.5643 15.9658 15.2682 14.4404C14.9579 12.8418 13.7895 12.1568 12.2339 11.3583C12.1888 11.3351 12.1432 11.3118 12.097 11.2882C11.4063 10.9347 10.603 10.5236 9.98218 9.96731C9.26174 9.32177 8.74989 8.45437 8.74989 7.2499C8.74989 5.60866 9.36353 4.32986 10.4911 3.54501C11.5715 2.79299 12.9689 2.60332 14.3589 2.75578C16.3125 2.97005 17.3379 4.15005 17.8173 5.01508C17.9654 5.28219 18.0639 5.52189 18.1267 5.69968C18.1582 5.78896 18.1811 5.86376 18.197 5.92C18.205 5.94817 18.2112 5.97179 18.2159 5.99038L18.2218 6.01447L18.224 6.0236L18.2248 6.02742L18.2255 6.03034C18.3465 6.5692 18.0079 7.10454 17.4691 7.22559C16.9333 7.34593 16.4015 7.01185 16.2764 6.47845M16.2764 6.47845L16.2754 6.47428L16.2748 6.4719L16.2745 6.47054M16.2764 6.47845C16.2758 6.4763 16.2745 6.47132 16.2724 6.46376C16.2671 6.44512 16.2569 6.41131 16.2408 6.36568C16.2083 6.27365 16.1533 6.13833 16.0681 5.98461C15.8011 5.50288 15.2643 4.86707 14.1409 4.74385C13.0309 4.62211 12.1783 4.80746 11.6337 5.18651" fill="#2A2A2A"/>
</svg>
