<svg width="24" height="24" viewBox="0 0 24 24" fill="none" xmlns="http://www.w3.org/2000/svg">
<path d="M8.8374 4.41694C9.80544 3.83605 11.0175 3.5 12.4995 3.5C14.1887 3.5 15.4054 4.18714 16.1837 4.87878C16.5665 5.21901 16.8436 5.55939 17.0285 5.82029C17.1215 5.95155 17.1929 6.06522 17.2443 6.1523C17.27 6.19593 17.2908 6.23315 17.3069 6.26288C17.315 6.27775 17.3219 6.29078 17.3276 6.30182L17.3354 6.3169L17.3387 6.3233L17.3401 6.32621L17.3408 6.3276C17.3408 6.3276 17.1896 6.06219 17.3354 6.3169L17.3415 6.32893C17.7121 7.06983 17.4119 7.9709 16.671 8.34152C15.9364 8.70899 15.0444 8.41702 14.668 7.68984C14.6665 7.68722 14.6639 7.68249 14.6599 7.67582C14.6468 7.65353 14.6205 7.61095 14.5807 7.55471C14.4998 7.44061 14.3706 7.28099 14.1908 7.12122C13.8438 6.81286 13.3103 6.5 12.4995 6.5C11.4819 6.5 10.8191 6.72646 10.381 6.98934C9.94071 7.25356 9.64373 7.60493 9.43623 7.97846C9.22392 8.36066 9.11084 8.75797 9.05304 9.07009C9.02472 9.22302 9.0113 9.34665 9.00504 9.42543C9.00194 9.46456 9.00066 9.4918 9.00017 9.50511C9.00008 9.50746 8.99998 9.51081 8.99998 9.51081V14.5001C8.99998 16.157 10.3431 17.5001 12 17.5001C13.6568 17.5001 15 16.157 15 14.5001V14.0001H13.5C12.6715 14.0001 12 13.3285 12 12.5001C12 11.6717 12.6715 11.0001 13.5 11.0001H16.5C17.3284 11.0001 18 11.6717 18 12.5001V14.5001C18 17.8138 15.3137 20.5001 12 20.5001C8.68627 20.5001 5.99998 17.8138 5.99998 14.5001V9.50009C5.99948 11 5.99998 9.49836 5.99998 9.49836L5.99998 9.49657L5.99999 9.49266L6.00005 9.48356L6.00037 9.46026C6.00069 9.44251 6.00125 9.42032 6.00223 9.394C6.00418 9.34139 6.00779 9.27194 6.01445 9.18802C6.02773 9.02071 6.05338 8.79277 6.10319 8.52381C6.20165 7.99217 6.40106 7.26445 6.81371 6.52163C7.23117 5.77013 7.87161 4.99649 8.8374 4.41694Z" fill="#2A2A2A"/>
</svg>
