<svg width="24" height="24" viewBox="0 0 24 24" fill="none" xmlns="http://www.w3.org/2000/svg">
<path d="M12.4109 4.40659C12.6503 3.87808 13.2649 3.63592 13.6985 3.80893C14.269 4.03653 14.5026 4.77256 14.1967 5.26095C14.0325 5.52308 13.7752 5.79598 13.4233 6.10656C13.2045 6.29969 13.002 6.46393 12.7849 6.63998C12.6243 6.77028 12.4556 6.90705 12.2665 7.06678C11.535 7.68456 10.5 8.62923 10.5 10.0009C10.5 10.5531 10.9477 11.0009 11.5 11.0009H15.75C16.3023 11.0009 16.75 10.5531 16.75 10.0009C16.75 9.44857 16.3023 9.00086 15.75 9.00086H13.106C13.2322 8.87749 13.3815 8.74291 13.557 8.59473C13.6793 8.49139 13.8269 8.37121 13.9833 8.24379C14.2375 8.03666 14.5153 7.81034 14.7467 7.60608C15.1494 7.25066 15.5754 6.82753 15.8916 6.32266C16.8856 4.73589 16.1241 2.62331 14.4396 1.95131C12.8637 1.32259 11.2 2.23257 10.5891 3.58151C10.3612 4.0846 10.5844 4.67715 11.0875 4.90499C11.5906 5.13283 12.1831 4.90969 12.4109 4.40659ZM3 2.00086C3.55229 2.00086 4 2.44857 4 3.00086L4 5.50086L7 5.50086V3.0024C7 2.45011 7.44772 2.0024 8 2.0024C8.55229 2.0024 9 2.45011 9 3.0024L9 9.99565C9 10.5479 8.55228 10.9957 8 10.9957C7.44772 10.9957 7 10.5479 7 9.99565V7.50086H4L4 10.0009C4 10.5531 3.55228 11.0009 3 11.0009C2.44772 11.0009 2 10.5531 2 10.0009V3.00086C2 2.44857 2.44772 2.00086 3 2.00086ZM17.5571 5.46277C17.6733 5.18239 17.9469 4.99958 18.2503 4.99958H21.2517C21.5551 4.99958 21.8287 5.18239 21.9449 5.46277C22.061 5.74315 21.9968 6.06588 21.7822 6.28047L20.2816 7.78112C19.9885 8.07414 19.5135 8.07414 19.2204 7.78112L17.7198 6.28047C17.5052 6.06588 17.441 5.74315 17.5571 5.46277ZM2 20.0009C2 19.4486 2.44772 19.0009 3 19.0009H21C21.5523 19.0009 22 19.4486 22 20.0009C22 20.5531 21.5523 21.0009 21 21.0009H3C2.44772 21.0009 2 20.5531 2 20.0009ZM3 14.0009C2.44772 14.0009 2 14.4486 2 15.0009C2 15.5531 2.44772 16.0009 3 16.0009H21C21.5523 16.0009 22 15.5531 22 15.0009C22 14.4486 21.5523 14.0009 21 14.0009H3Z" fill="#2A2A2A"/>
</svg>
