<svg width="24" height="24" viewBox="0 0 24 24" fill="none" xmlns="http://www.w3.org/2000/svg">
<path d="M14.7499 4.75L14.7499 16.25C14.7499 16.6642 15.0857 17 15.4999 17C15.9142 17 16.2499 16.6642 16.2499 16.25V11H18.2499C18.6642 11 18.9999 10.6642 18.9999 10.25C18.9999 9.83579 18.6642 9.5 18.2499 9.5H16.2499V4.75C16.2499 4.33579 15.9142 4 15.4999 4C15.0857 4 14.7499 4.33579 14.7499 4.75ZM4.99995 6.75C4.99995 6.33579 5.33574 6 5.74995 6H12.25C12.6642 6 13 6.33579 13 6.75C13 10.3958 10.4659 13.6447 5.96158 14.9695C5.56419 15.0864 5.1473 14.859 5.03043 14.4616C4.91355 14.0642 5.14094 13.6474 5.53833 13.5305C9.18248 12.4587 11.1383 10.0761 11.4543 7.5H5.74995C5.33574 7.5 4.99995 7.16421 4.99995 6.75ZM5.74994 18.5C5.33573 18.5 4.99994 18.8358 4.99994 19.25C4.99994 19.6642 5.33573 20 5.74994 20H18.2499C18.6642 20 18.9999 19.6642 18.9999 19.25C18.9999 18.8358 18.6642 18.5 18.2499 18.5H5.74994Z" fill="#2A2A2A"/>
</svg>
