<svg width="24" height="24" viewBox="0 0 24 24" fill="none" xmlns="http://www.w3.org/2000/svg">
<path d="M14.198 3.58222C13.5487 3.32914 12.7356 3.69328 12.4306 4.35118C12.2564 4.72699 11.8106 4.89042 11.4348 4.71622C11.059 4.54203 10.8955 4.09616 11.0697 3.72036C11.665 2.43608 13.2642 1.60835 14.7427 2.18463C16.3481 2.81035 17.095 4.80183 16.1342 6.30031C15.8215 6.78805 15.3954 7.20398 14.977 7.56474C14.7341 7.77421 14.453 7.99786 14.1891 8.20778C14.0219 8.34082 13.8616 8.46834 13.7223 8.58325C13.3263 8.91002 13.0114 9.20292 12.7958 9.49358L12.7913 9.49971H16.2502C16.6644 9.49971 17.0002 9.8355 17.0002 10.2497C17.0002 10.6639 16.6644 10.9997 16.2502 10.9997H11.7502C11.336 10.9997 11.0002 10.6639 11.0002 10.2497C11.0002 9.59991 11.2552 9.05263 11.5911 8.59988C11.9201 8.15635 12.3526 7.76873 12.7676 7.42629C12.9572 7.2699 13.1334 7.13016 13.3036 6.99512C13.5394 6.8082 13.7641 6.63 13.9975 6.42874C14.3781 6.10053 14.6755 5.79643 14.8715 5.49071C15.2871 4.8425 14.9803 3.88713 14.198 3.58222ZM3.5 2.74973C3.5 2.33551 3.16421 1.99973 2.75 1.99973C2.33579 1.99973 2 2.33551 2 2.74973V10.2497C2 10.6639 2.33579 10.9997 2.75 10.9997C3.16421 10.9997 3.5 10.6639 3.5 10.2497L3.5 6.99973H7.5V10.2441C7.5 10.6584 7.83579 10.9941 8.25 10.9941C8.66421 10.9941 9 10.6584 9 10.2441L9 2.75137C9 2.33716 8.66421 2.00137 8.25 2.00137C7.83579 2.00137 7.5 2.33716 7.5 2.75137L7.5 5.49973H3.5L3.5 2.74973ZM2 19.7497C2 19.3355 2.33579 18.9997 2.75 18.9997H21.25C21.6642 18.9997 22 19.3355 22 19.7497C22 20.1639 21.6642 20.4997 21.25 20.4997H2.75C2.33579 20.4997 2 20.1639 2 19.7497ZM2.75 13.9997C2.33579 13.9997 2 14.3355 2 14.7497C2 15.1639 2.33579 15.4997 2.75 15.4997H21.25C21.6642 15.4997 22 15.1639 22 14.7497C22 14.3355 21.6642 13.9997 21.25 13.9997H2.75Z" fill="currentColor"/>
</svg>
