<svg width="24" height="24" viewBox="0 0 24 24" fill="none" xmlns="http://www.w3.org/2000/svg">
<path d="M9.96976 16.167L14.5598 3.65559C14.8659 2.8212 16.0063 2.78327 16.3882 3.54181L16.4375 3.65559L21.939 18.6523C22.1292 19.1708 21.8631 19.7453 21.3446 19.9355C20.8631 20.1122 20.3334 19.8953 20.1078 19.4483L20.0614 19.3411L18.6508 15.498H12.3458L10.9041 19.4178L10.8632 19.4967L10.7911 19.6049L10.7135 19.6947L10.6286 19.7724L10.5462 19.8327L10.4957 19.8636L10.4116 19.9067L10.3076 19.9473L10.203 19.9754L10.0697 19.9943L9.96239 19.9964L9.89178 19.9914L9.78923 19.975L9.63925 19.9305L9.56992 19.9009L9.4699 19.8465L9.35834 19.7665L9.26667 19.68L9.20271 19.6044L9.14146 19.5144L9.08738 19.4119L8.34176 17.499H4.65476L3.93203 19.3592C3.74615 19.8371 3.23316 20.0911 2.74871 19.9647L2.63758 19.9287C2.15961 19.7428 1.9056 19.2299 2.03202 18.7454L2.06802 18.6343L5.56656 9.63808C5.8814 8.82849 6.9874 8.78993 7.37759 9.52242L7.43057 9.63808L9.96976 16.167L14.5598 3.65559L9.96976 16.167ZM6.49856 12.7595L5.43276 15.499H7.56376L6.49856 12.7595ZM15.4986 6.90355L13.0788 13.498H17.9168L15.4986 6.90355Z" fill="currentColor"/>
</svg>
