<svg width="24" height="24" viewBox="0 0 24 24" fill="none" xmlns="http://www.w3.org/2000/svg">
<path d="M14.5735 3.81126C14.0536 3.64476 13.2069 3.82571 12.7418 4.34438C12.3733 4.75532 11.7419 4.78934 11.3315 4.42036C10.9211 4.05138 10.8871 3.41913 11.2556 3.00819C12.2567 1.89183 13.9279 1.50472 15.182 1.90631C16.8564 2.44252 17.9169 4.42233 16.7707 6.12887C16.6783 6.26645 16.5796 6.39027 16.476 6.50172C16.5796 6.61316 16.6783 6.73699 16.7707 6.87456C17.9169 8.58111 16.8564 10.5609 15.182 11.0971C13.9279 11.4987 12.2567 11.1116 11.2556 9.99525C10.8871 9.58431 10.9211 8.95206 11.3315 8.58308C11.7419 8.2141 12.3733 8.24811 12.7418 8.65905C13.2069 9.17772 14.0536 9.35868 14.5735 9.19218C14.8887 9.09125 15.0985 8.87648 15.1898 8.65681C15.2745 8.45268 15.2697 8.22365 15.1133 7.99071C14.8333 7.57391 14.3732 7.50829 13.6457 7.50222L13.5994 7.50201L13.5127 7.50171C12.9611 7.50171 12.5139 7.05399 12.5139 6.50171C12.5139 5.94942 12.9611 5.50171 13.5127 5.50171L13.5993 5.50141L13.6457 5.5012C14.3732 5.49513 14.8333 5.42952 15.1133 5.01272C15.2697 4.77978 15.2745 4.55075 15.1898 4.34662C15.0985 4.12695 14.8887 3.91219 14.5735 3.81126ZM4 2.99963C4 2.44735 3.55229 1.99963 3 1.99963C2.44772 1.99963 2 2.44735 2 2.99963V9.99963C2 10.5519 2.44772 10.9996 3 10.9996C3.55228 10.9996 4 10.5519 4 9.99963L4 7.49963L7 7.49963V9.99443C7 10.5467 7.44772 10.9944 8 10.9944C8.55228 10.9944 9 10.5467 9 9.99443L9 3.00117C9 2.44889 8.55229 2.00117 8 2.00117C7.44772 2.00117 7 2.44889 7 3.00117V5.49963H4L4 2.99963ZM3 18.9996C2.44772 18.9996 2 19.4473 2 19.9996C2 20.5519 2.44772 20.9996 3 20.9996H21C21.5523 20.9996 22 20.5519 22 19.9996C22 19.4473 21.5523 18.9996 21 18.9996H3ZM2 14.9996C2 14.4473 2.44772 13.9996 3 13.9996H21C21.5523 13.9996 22 14.4473 22 14.9996C22 15.5519 21.5523 15.9996 21 15.9996H3C2.44772 15.9996 2 15.5519 2 14.9996Z" fill="#2A2A2A"/>
</svg>
