<svg width="24" height="24" viewBox="0 0 24 24" fill="none" xmlns="http://www.w3.org/2000/svg">
<path d="M11.9512 5.01619C12.0981 4.6289 11.9032 4.19586 11.5159 4.04895C11.1287 3.90205 10.6956 4.09692 10.5487 4.48421L5.04871 18.9842C4.90181 19.3715 5.09668 19.8045 5.48397 19.9515C5.87126 20.0984 6.3043 19.9035 6.45121 19.5162L9.18342 12.3131L15.6855 19.7441C15.9583 20.0558 16.4321 20.0874 16.7439 19.8146C17.0556 19.5419 17.0872 19.068 16.8144 18.7563L10.3842 11.4075L19.6587 5.37903C20.006 5.15329 20.1045 4.68875 19.8788 4.34145C19.6531 3.99416 19.1885 3.89562 18.8412 4.12136L10.1471 9.77257L11.9512 5.01619Z" fill="#2A2A2A"/>
</svg>
