<svg width="24" height="24" viewBox="0 0 24 24" fill="none" xmlns="http://www.w3.org/2000/svg">
<path d="M7.00057 2C7.42107 2.00002 7.79664 2.2631 7.94033 2.65829L10.822 10.5839L9.71128 13.382L9.2088 12H4.79147L3.93981 14.3418C3.75105 14.8608 3.17727 15.1285 2.65825 14.9398C2.13922 14.751 1.87149 14.1772 2.06025 13.6582L6.06075 2.65822C6.20447 2.26304 6.58006 1.99998 7.00057 2ZM5.51883 10H8.48162L7.00041 5.92618L5.51883 10ZM15.3675 6.52794C15.2165 6.1467 14.8482 5.89624 14.4381 5.89606C14.0281 5.89587 13.6595 6.14601 13.5082 6.52711L8.15081 20.0233L7.99999 20.0233C7.44771 20.0233 7 20.471 7 21.0233C7 21.5756 7.44772 22.0233 8.00001 22.0233L8.8095 22.0233C8.82286 22.0236 8.8362 22.0236 8.84951 22.0233L11 22.0233C11.5523 22.0233 12 21.5756 12 21.0233C12 20.471 11.5523 20.0233 11 20.0233L10.3026 20.0233L11.1058 17.9999H17.7584L18.5595 20.0233L18 20.0233C17.4477 20.0233 17 20.471 17 21.0233C17 21.5756 17.4477 22.0233 17.9999 22.0233L20.014 22.0234C20.0255 22.0236 20.0369 22.0236 20.0484 22.0234L21.0086 22.0234C21.5609 22.0234 22.0086 21.5757 22.0086 21.0234C22.0086 20.4711 21.5609 20.0234 21.0086 20.0234L20.7106 20.0234L15.3675 6.52794ZM16.9666 15.9999H11.8997L14.4365 9.6095L16.9666 15.9999Z" fill="#2A2A2A"/>
</svg>
