<svg width="24" height="24" viewBox="0 0 24 24" fill="none" xmlns="http://www.w3.org/2000/svg">
<path d="M11.9941 4.34438C12.4598 3.82571 13.3076 3.64476 13.8282 3.81126C14.1437 3.91219 14.3539 4.12695 14.4452 4.34662C14.5301 4.55075 14.5252 4.77978 14.3686 5.01272C14.0883 5.42952 13.6276 5.49513 12.8991 5.5012L12.8527 5.50141L12.7659 5.50171C12.2136 5.50171 11.7659 5.94942 11.7659 6.50171C11.7659 7.05399 12.2136 7.50171 12.7659 7.50171L12.8527 7.50201L12.8991 7.50222C13.6276 7.50829 14.0883 7.57391 14.3686 7.99071C14.5252 8.22365 14.5301 8.45268 14.4452 8.65681C14.3539 8.87648 14.1437 9.09125 13.8282 9.19218C13.3076 9.35868 12.4598 9.17772 11.9941 8.65905C11.6251 8.24811 10.9928 8.2141 10.5819 8.58308C10.171 8.95206 10.1369 9.58431 10.5059 9.99525C11.5083 11.1116 13.1817 11.4987 14.4374 11.0971C16.114 10.5609 17.1759 8.58111 16.0282 6.87456C15.9356 6.73699 15.8368 6.61316 15.7331 6.50172C15.8368 6.39027 15.9356 6.26645 16.0282 6.12887C17.1759 4.42233 16.114 2.44252 14.4374 1.90631C13.1817 1.50472 11.5083 1.89183 10.5059 3.00819C10.1369 3.41913 10.171 4.05138 10.5819 4.42036C10.9928 4.78934 11.6251 4.75532 11.9941 4.34438ZM3 1.99964C3.55229 1.99964 4 2.44736 4 2.99964L4 5.49964H7V3.00118C7 2.44889 7.44772 2.00118 8 2.00118C8.55229 2.00118 9 2.44889 9 3.00118L9 9.99444C9 10.5467 8.55228 10.9944 8 10.9944C7.44772 10.9944 7 10.5467 7 9.99443V7.49964L4 7.49964L4 9.99964C4 10.5519 3.55228 10.9996 3 10.9996C2.44772 10.9996 2 10.5519 2 9.99964V2.99964C2 2.44736 2.44772 1.99964 3 1.99964ZM17.5571 5.46155C17.6733 5.18117 17.9469 4.99836 18.2503 4.99836H21.2517C21.5551 4.99836 21.8287 5.18117 21.9449 5.46155C22.061 5.74193 21.9968 6.06466 21.7822 6.27925L20.2816 7.77991C19.9885 8.07293 19.5135 8.07293 19.2204 7.77991L17.7198 6.27925C17.5052 6.06466 17.441 5.74193 17.5571 5.46155ZM2 19.9996C2 19.4474 2.44772 18.9996 3 18.9996H21C21.5523 18.9996 22 19.4474 22 19.9996C22 20.5519 21.5523 20.9996 21 20.9996H3C2.44772 20.9996 2 20.5519 2 19.9996ZM3 13.9996C2.44772 13.9996 2 14.4474 2 14.9996C2 15.5519 2.44772 15.9996 3 15.9996H21C21.5523 15.9996 22 15.5519 22 14.9996C22 14.4474 21.5523 13.9996 21 13.9996H3Z" fill="currentColor"/>
</svg>
