<svg width="24" height="24" viewBox="0 0 24 24" fill="none" xmlns="http://www.w3.org/2000/svg">
<path d="M15.0556 9.00459C15.5164 7.57756 15.7491 6.3284 15.7491 5.25132C15.7491 2.85265 14.81 1.00391 13.2491 1.00391C12.4023 1.00391 12.1402 1.50815 11.8123 2.75073C11.8295 2.6858 11.6494 3.38469 11.5968 3.57194C11.4958 3.93068 11.32 4.54143 11.0697 5.40295C11.063 5.42603 11.0532 5.44778 11.0403 5.46785L8.17359 9.95352C7.49554 11.0145 6.49507 11.83 5.31919 12.2802L4.06196 12.7615C3.26859 13.0653 2.80797 13.895 2.96968 14.729L3.65584 18.2676C3.82298 19.1296 4.47629 19.8156 5.32909 20.0247L13.5786 22.0466C16.1098 22.667 18.6682 21.132 19.3121 18.6067L20.886 12.434C21.2612 10.9623 20.3723 9.46509 18.9007 9.08984C18.6786 9.03323 18.4504 9.00459 18.2212 9.00459H15.0556Z" fill="currentColor"/>
</svg>
