<svg width="24" height="24" viewBox="0 0 24 24" fill="none" xmlns="http://www.w3.org/2000/svg">
<path d="M15.2498 12.9994C16.2162 12.9994 16.9998 13.7829 16.9998 14.7494V19.2526C16.9998 20.2191 16.2162 21.0026 15.2498 21.0026H3.74975C2.78325 21.0026 1.99975 20.2191 1.99975 19.2526V14.7494C1.99975 13.7829 2.78325 12.9994 3.74975 12.9994H15.2498ZM21.0003 14.8949L20.9998 20.2494C20.9998 20.6636 20.664 20.9994 20.2498 20.9994C19.8701 20.9994 19.5563 20.7172 19.5066 20.3511L19.4998 20.2494L19.4996 14.9056C19.7331 14.964 19.9775 14.9949 20.229 14.9949C20.4957 14.9949 20.7542 14.9602 21.0003 14.8949ZM20.25 10.0913C21.3038 10.0913 22.1581 10.9456 22.1581 11.9994C22.1581 13.0532 21.3038 13.9074 20.25 13.9074C19.1962 13.9074 18.3419 13.0532 18.3419 11.9994C18.3419 10.9456 19.1962 10.0913 20.25 10.0913ZM15.2454 2.99609C16.2119 2.99609 16.9954 3.7796 16.9954 4.74609V9.24936C16.9954 10.2159 16.2119 10.9994 15.2454 10.9994H3.74536C2.77886 10.9994 1.99536 10.2159 1.99536 9.24936V4.74609C1.99536 3.82792 2.70247 3.0749 3.60183 3.00189L3.74536 2.99609H15.2454ZM20.2504 2.99936C20.6301 2.99936 20.9439 3.28152 20.9935 3.64759L21.0004 3.74936L21.0003 9.09501C20.7542 9.02973 20.4957 8.99494 20.229 8.99494C19.9775 8.99494 19.7331 9.02591 19.4996 9.08424L19.5004 3.74936C19.5004 3.33515 19.8362 2.99936 20.2504 2.99936Z" fill="currentColor"/>
</svg>
