<svg width="24" height="24" viewBox="0 0 24 24" fill="none" xmlns="http://www.w3.org/2000/svg">
<path d="M15.2498 13C16.2162 13 16.9998 13.7835 16.9998 14.75V19.25C16.9998 20.2165 16.2162 21 15.2498 21H3.74975C2.78325 21 1.99975 20.2165 1.99975 19.25V14.75C1.99975 13.7835 2.78325 13 3.74975 13H15.2498ZM21 14.8989L20.9998 20.25C20.9998 20.6642 20.664 21 20.2498 21C19.8701 21 19.5563 20.7178 19.5066 20.3518L19.4998 20.25L19.4994 14.9117C19.7317 14.9694 19.9746 15 20.2248 15C20.4929 15 20.7527 14.9648 21 14.8989ZM15.2498 14.5H3.74975C3.61168 14.5 3.49975 14.6119 3.49975 14.75V19.25C3.49975 19.3881 3.61168 19.5 3.74975 19.5H15.2498C15.3878 19.5 15.4998 19.3881 15.4998 19.25V14.75C15.4998 14.6119 15.3878 14.5 15.2498 14.5ZM20.2495 10.0919C21.3033 10.0919 22.1576 10.9462 22.1576 12C22.1576 13.0538 21.3033 13.9081 20.2495 13.9081C19.1957 13.9081 18.3415 13.0538 18.3415 12C18.3415 10.9462 19.1957 10.0919 20.2495 10.0919ZM15.2454 3C16.2119 3 16.9954 3.7835 16.9954 4.75V9.25C16.9954 10.2165 16.2119 11 15.2454 11H3.74536C2.77886 11 1.99536 10.2165 1.99536 9.25V4.75C1.99536 3.83183 2.70247 3.07881 3.60183 3.0058L3.74536 3H15.2454ZM15.2454 4.5H3.74536L3.68804 4.5066C3.57759 4.53251 3.49536 4.63165 3.49536 4.75V9.25C3.49536 9.38807 3.60729 9.5 3.74536 9.5H15.2454C15.3834 9.5 15.4954 9.38807 15.4954 9.25V4.75C15.4954 4.61193 15.3834 4.5 15.2454 4.5ZM20.2498 3C20.6295 3 20.9433 3.28215 20.9929 3.64823L20.9998 3.75L21 9.10113C20.7527 9.03516 20.4929 9 20.2248 9C19.9746 9 19.7317 9.03061 19.4994 9.08829L19.4998 3.75C19.4998 3.33579 19.8356 3 20.2498 3Z" fill="currentColor"/>
</svg>
