<svg width="24" height="24" viewBox="0 0 24 24" fill="none" xmlns="http://www.w3.org/2000/svg">
<path d="M7 6.25195V6.99933H4.25C3.00736 6.99933 2 8.00669 2 9.24933V11.4993H6.5V10.7493C6.5 10.3351 6.83579 9.99933 7.25 9.99933C7.66421 9.99933 8 10.3351 8 10.7493V11.4993H16V10.7493C16 10.3351 16.3358 9.99933 16.75 9.99933C17.1642 9.99933 17.5 10.3351 17.5 10.7493V11.4993H22V9.24933C22 8.00669 20.9926 6.99933 19.75 6.99933H17V6.25195C17 5.00931 15.9926 4.00195 14.75 4.00195H9.25C8.00736 4.00195 7 5.00931 7 6.25195ZM9.25 5.50195H14.75C15.1642 5.50195 15.5 5.83774 15.5 6.25195V6.99933H8.5V6.25195C8.5 5.83774 8.83579 5.50195 9.25 5.50195ZM22 12.9993H17.5V14.2493C17.5 14.6635 17.1642 14.9993 16.75 14.9993C16.3358 14.9993 16 14.6635 16 14.2493V12.9993H8V14.2493C8 14.6635 7.66421 14.9993 7.25 14.9993C6.83579 14.9993 6.5 14.6635 6.5 14.2493V12.9993H2V17.7461C2 18.9888 3.00736 19.9961 4.25 19.9961H19.75C20.9926 19.9961 22 18.9888 22 17.7461V12.9993Z" fill="#2A2A2A"/>
</svg>
