<svg width="24" height="24" viewBox="0 0 24 24" fill="none" xmlns="http://www.w3.org/2000/svg">
<path d="M11 21.2492C11 21.6635 10.6642 21.9992 10.25 21.9992C9.87032 21.9992 9.55652 21.7171 9.50686 21.351L9.50001 21.2492L9.49915 17L8.75415 17.0008C7.56329 17.0008 6.58851 16.0756 6.50934 14.9048L6.50415 14.7508V9.25076C6.50415 8.26627 7.13644 7.42946 8.01709 7.12426L8.01648 2.74805C8.01648 2.36835 8.29864 2.05456 8.66471 2.00489L8.76648 1.99805H15.2673C15.647 1.99805 15.9608 2.2802 16.0104 2.64628L16.0173 2.74805L16.0176 7.1336C16.8335 7.42786 17.4304 8.1803 17.4978 9.08035L17.5042 9.25076V14.7508C17.5042 15.9416 16.579 16.9164 15.4082 16.9956L15.2542 17.0008L14.4992 17L14.5001 21.2462C14.5001 21.6605 14.1643 21.9962 13.7501 21.9962C13.3704 21.9962 13.0566 21.7141 13.007 21.348L13.0001 21.2462L12.9992 17H10.9992L11 21.2492ZM14.517 3.49776H9.51601V6.99976H14.517V3.49776Z" fill="currentColor"/>
</svg>
