<svg width="24" height="24" viewBox="0 0 24 24" fill="none" xmlns="http://www.w3.org/2000/svg">
<path d="M11.9999 3C15.1685 3 16.9659 5.09729 17.2273 7.63013L17.3073 7.63012C19.3464 7.63012 20.9994 9.27885 20.9994 11.3127C20.9994 13.3465 19.3464 14.9952 17.3073 14.9952L16.7245 14.995L16.7219 14.9993H16.4581C16.4378 15.0567 16.4101 15.1126 16.3748 15.1656L15.3752 16.6656C15.1455 17.0103 14.6798 17.1035 14.3351 16.8738C13.9905 16.6441 13.8972 16.1785 14.1269 15.8338L14.6859 14.995H12.8565L12.8539 14.9993H12.4574C12.4371 15.0567 12.4095 15.1125 12.3741 15.1655L11.3745 16.6655C11.1448 17.0102 10.6792 17.1034 10.3345 16.8737C9.98981 16.644 9.8966 16.1784 10.1263 15.8337L10.6852 14.995H8.98749L8.98493 14.9993H8.45764C8.43733 15.0567 8.40963 15.1126 8.3743 15.1656L7.37468 16.6656C7.14497 17.0103 6.67934 17.1035 6.33465 16.8738C5.98996 16.6441 5.89675 16.1785 6.12646 15.8338L6.68532 14.9952C4.64957 14.9913 3.00049 13.344 3.00049 11.3127C3.00049 9.27885 4.65349 7.63012 6.69259 7.63012L6.77253 7.63013C7.03547 5.08064 8.8314 3 11.9999 3ZM11.9999 4.49759C9.92861 4.49759 8.12322 6.13083 8.12322 8.38681C8.12322 8.74426 7.80427 9.02476 7.43906 9.02474L6.74851 9.02472C5.48751 9.02472 4.46528 10.026 4.46528 11.2612C4.46528 12.4963 5.48751 13.4976 6.74851 13.4976H17.2514C18.5124 13.4976 19.5346 12.4963 19.5346 11.2612C19.5346 10.026 18.5124 9.02472 17.2514 9.02472L16.5608 9.02474C16.1956 9.02476 15.8766 8.74426 15.8766 8.38681C15.8766 6.10189 14.0713 4.49759 11.9999 4.49759ZM7.12609 18.8335C6.89638 19.1782 6.98959 19.6438 7.33428 19.8735C7.67896 20.1032 8.1446 20.01 8.3743 19.6653L9.37392 18.1653C9.60363 17.8206 9.51042 17.355 9.16573 17.1253C8.82104 16.8956 8.35541 16.9888 8.1257 17.3335L7.12609 18.8335ZM11.3343 19.8733C10.9896 19.6436 10.8964 19.1779 11.1261 18.8332L12.1257 17.3332C12.3554 16.9886 12.821 16.8954 13.1657 17.1251C13.5104 17.3548 13.6036 17.8204 13.3739 18.1651L12.3743 19.6651C12.1446 20.0098 11.679 20.103 11.3343 19.8733Z" fill="currentColor"/>
</svg>
