<svg width="24" height="24" viewBox="0 0 24 24" fill="none" xmlns="http://www.w3.org/2000/svg">
<path d="M12.0001 4C15.1686 4 16.966 6.09729 17.2275 8.63013L17.3074 8.63012C19.3465 8.63012 20.9995 10.2788 20.9995 12.3127C20.9995 14.3465 19.3465 15.9952 17.3074 15.9952L16.7246 15.995L15.1423 18.6317C14.9352 18.9904 14.4765 19.1133 14.1178 18.9062C13.7889 18.7164 13.6583 18.3151 13.7983 17.9733L13.8432 17.8817L14.9926 15.995H12.8566L11.2741 18.6317C11.067 18.9904 10.6083 19.1133 10.2496 18.9062C9.92073 18.7164 9.79005 18.3151 9.93008 17.9733L9.97503 17.8817L11.1246 15.995H8.98761L7.40587 18.6317C7.19876 18.9904 6.74007 19.1133 6.38135 18.9062C6.05252 18.7164 5.92184 18.3151 6.06187 17.9733L6.10683 17.8817L7.25561 15.995L6.69269 15.9952C4.65361 15.9952 3.00061 14.3465 3.00061 12.3127C3.00061 10.2788 4.65361 8.63012 6.69271 8.63012L6.77266 8.63013C7.03559 6.08064 8.83152 4 12.0001 4Z" fill="#2A2A2A"/>
</svg>
