<svg width="24" height="24" viewBox="0 0 24 24" fill="none" xmlns="http://www.w3.org/2000/svg">
<path d="M14.5339 17.5522C14.9481 17.5522 15.2839 17.8879 15.2839 18.3022C15.2839 18.7164 14.9481 19.0522 14.5339 19.0522C14.1197 19.0522 13.7839 18.7164 13.7839 18.3022C13.7839 17.8879 14.1197 17.5522 14.5339 17.5522ZM12.0001 4C15.1686 4 16.966 6.09729 17.2275 8.63013L17.3074 8.63012C19.3465 8.63012 20.9995 10.2788 20.9995 12.3127C20.9995 14.3465 19.3465 15.9952 17.3074 15.9952L16.0003 15.9962C15.9054 16.3016 15.6206 16.5234 15.2839 16.5234C14.9473 16.5234 14.6624 16.3016 14.5676 15.9962L8.98761 15.995L7.40528 18.6238C7.19818 18.9825 6.73948 19.1054 6.38076 18.8983C6.05194 18.7084 5.92126 18.3072 6.06129 17.9653L6.10625 17.8738L7.25561 15.995L6.69269 15.9952C4.65361 15.9952 3.00061 14.3465 3.00061 12.3127C3.00061 10.2788 4.65361 8.63012 6.69271 8.63012L6.77266 8.63013C7.03559 6.08064 8.83152 4 12.0001 4ZM11.5778 16.7039C11.9066 16.8937 12.0373 17.295 11.8973 17.6368L11.8523 17.7284L11.2956 18.6243C11.0885 18.983 10.6298 19.1059 10.2711 18.8988C9.94224 18.709 9.81156 18.3077 9.95159 17.9659L9.99655 17.8743L10.5533 16.9784C10.7604 16.6197 11.2191 16.4968 11.5778 16.7039ZM17.0334 16.8022C17.4476 16.8022 17.7834 17.1379 17.7834 17.5522C17.7834 17.9664 17.4476 18.3022 17.0334 18.3022C16.6191 18.3022 16.2834 17.9664 16.2834 17.5522C16.2834 17.1379 16.6191 16.8022 17.0334 16.8022Z" fill="currentColor"/>
</svg>
