<svg width="24" height="24" viewBox="0 0 24 24" fill="none" xmlns="http://www.w3.org/2000/svg">
<path d="M9.74993 18.1506C10.1641 18.1506 10.4999 18.4864 10.4999 18.9006C10.4999 19.3148 10.1641 19.6506 9.74993 19.6506C9.33572 19.6506 8.99993 19.3148 8.99993 18.9006C8.99993 18.4864 9.33572 18.1506 9.74993 18.1506ZM14.2499 18.1506C14.6641 18.1506 14.9999 18.4864 14.9999 18.9006C14.9999 19.3148 14.6641 19.6506 14.2499 19.6506C13.8357 19.6506 13.4999 19.3148 13.4999 18.9006C13.4999 18.4864 13.8357 18.1506 14.2499 18.1506ZM7.49993 17.1506C7.91415 17.1506 8.24993 17.4864 8.24993 17.9006C8.24993 18.3148 7.91415 18.6506 7.49993 18.6506C7.08572 18.6506 6.74993 18.3148 6.74993 17.9006C6.74993 17.4864 7.08572 17.1506 7.49993 17.1506ZM11.9999 17.1506C12.4141 17.1506 12.7499 17.4864 12.7499 17.9006C12.7499 18.3148 12.4141 18.6506 11.9999 18.6506C11.5857 18.6506 11.2499 18.3148 11.2499 17.9006C11.2499 17.4864 11.5857 17.1506 11.9999 17.1506ZM16.4999 17.1506C16.9141 17.1506 17.2499 17.4864 17.2499 17.9006C17.2499 18.3148 16.9141 18.6506 16.4999 18.6506C16.0857 18.6506 15.7499 18.3148 15.7499 17.9006C15.7499 17.4864 16.0857 17.1506 16.4999 17.1506ZM11.9999 4C15.1685 4 16.9659 6.09729 17.2273 8.63013L17.3073 8.63012C19.3464 8.63012 20.9994 10.2788 20.9994 12.3127C20.9994 14.3465 19.3464 15.9952 17.3073 15.9952H6.69257C4.65349 15.9952 3.00049 14.3465 3.00049 12.3127C3.00049 10.2788 4.65349 8.63012 6.69259 8.63012L6.77253 8.63013C7.03547 6.08064 8.8314 4 11.9999 4ZM11.9999 5.49759C9.92861 5.49759 8.12322 7.13083 8.12322 9.38681C8.12322 9.74426 7.80427 10.0248 7.43906 10.0247L6.74851 10.0247C5.48751 10.0247 4.46528 11.026 4.46528 12.2612C4.46528 13.4963 5.48751 14.4976 6.74851 14.4976H17.2514C18.5124 14.4976 19.5346 13.4963 19.5346 12.2612C19.5346 11.026 18.5124 10.0247 17.2514 10.0247L16.5608 10.0247C16.1956 10.0248 15.8766 9.74426 15.8766 9.38681C15.8766 7.10189 14.0713 5.49759 11.9999 5.49759Z" fill="#2A2A2A"/>
</svg>
