<svg width="24" height="24" viewBox="0 0 24 24" fill="none" xmlns="http://www.w3.org/2000/svg">
<path d="M11.9999 4C15.1685 4 16.9659 6.09729 17.2273 8.63013L17.3073 8.63012C19.3464 8.63012 20.9994 10.2788 20.9994 12.3127C20.9994 14.3465 19.3464 15.9952 17.3073 15.9952L16.7245 15.995L15.1428 18.6295C14.9357 18.9882 14.477 19.1111 14.1183 18.904C13.7894 18.7142 13.6588 18.3129 13.7988 17.971L13.8437 17.8795L14.9925 15.995H12.8565L11.2746 18.6295C11.0675 18.9882 10.6088 19.1111 10.2501 18.904C9.92123 18.7142 9.79055 18.3129 9.93058 17.971L9.97554 17.8795L11.1245 15.995H8.98749L7.40637 18.6295C7.19926 18.9882 6.74057 19.1111 6.38185 18.904C6.05303 18.7142 5.92235 18.3129 6.06238 17.971L6.10733 17.8795L7.25549 15.995L6.69257 15.9952C4.65349 15.9952 3.00049 14.3465 3.00049 12.3127C3.00049 10.2788 4.65349 8.63012 6.69259 8.63012L6.77253 8.63013C7.03547 6.08064 8.8314 4 11.9999 4ZM11.9999 5.49759C9.92861 5.49759 8.12322 7.13083 8.12322 9.38681C8.12322 9.74426 7.80427 10.0248 7.43906 10.0247L6.74851 10.0247C5.48751 10.0247 4.46528 11.026 4.46528 12.2612C4.46528 13.4963 5.48751 14.4976 6.74851 14.4976H17.2514C18.5124 14.4976 19.5346 13.4963 19.5346 12.2612C19.5346 11.026 18.5124 10.0247 17.2514 10.0247L16.5608 10.0247C16.1956 10.0248 15.8766 9.74426 15.8766 9.38681C15.8766 7.10189 14.0713 5.49759 11.9999 5.49759Z" fill="#2A2A2A"/>
</svg>
