<svg width="24" height="24" viewBox="0 0 24 24" fill="none" xmlns="http://www.w3.org/2000/svg">
<path d="M13.002 6.01086C16.1706 6.01086 17.968 8.10815 18.2294 10.641L18.3094 10.641C20.3485 10.641 22.0015 12.2897 22.0015 14.3235C22.0015 16.3573 20.3485 18.006 18.3094 18.006L17.7943 18.006L16.1492 20.6329C15.9421 20.9916 15.4834 21.1145 15.1247 20.9074C14.7958 20.7175 14.6652 20.3163 14.8052 19.9744L14.8501 19.8829L16.0623 18.006H13.9263L12.281 20.6329C12.0739 20.9916 11.6152 21.1145 11.2565 20.9074C10.9276 20.7175 10.7969 20.3163 10.937 19.9744L10.9819 19.8829L12.1943 18.006H10.0583L8.41277 20.6329C8.20566 20.9916 7.74697 21.1145 7.38825 20.9074C7.05942 20.7175 6.92874 20.3163 7.06877 19.9744L7.11373 19.8829L8.32629 18.006L7.69467 18.006C5.65559 18.006 4.00259 16.3573 4.00259 14.3235C4.00259 12.2897 5.65559 10.641 7.69469 10.641L7.77464 10.641C8.03757 8.0915 9.83351 6.01086 13.002 6.01086ZM4.36766 10.1663C4.51297 10.5171 4.37237 10.915 4.05317 11.1009L3.96177 11.1462L3.0355 11.5299C2.65282 11.6884 2.21409 11.5067 2.05558 11.124C1.91027 10.7732 2.05087 10.3753 2.37007 10.1893L2.46147 10.1441L3.38774 9.7604C3.77042 9.60189 4.20915 9.78361 4.36766 10.1663ZM10.8547 5.33308L10.6831 5.39067C8.89869 6.02104 7.62067 7.39612 7.06814 9.21362L6.99731 9.46418L6.93961 9.70201L6.73353 9.74047C6.12524 9.86829 5.56002 10.115 5.06348 10.4555C4.97466 10.3053 4.89547 10.1458 4.8264 9.97904C3.99335 7.96788 4.9484 5.6622 6.95956 4.82915C8.30185 4.27315 9.77535 4.51367 10.8547 5.33308ZM2.94091 5.36417L3.04642 5.39907L3.97269 5.78274C4.35537 5.94125 4.53709 6.37998 4.37858 6.76266C4.23448 7.11056 3.8588 7.29237 3.50417 7.20346L3.39866 7.16856L2.47239 6.78489C2.08971 6.62638 1.90798 6.18765 2.0665 5.80497C2.2106 5.45707 2.58628 5.27526 2.94091 5.36417ZM6.75614 2.37775L6.80141 2.46915L7.18508 3.39541C7.34359 3.7781 7.16187 4.21682 6.77918 4.37534C6.42839 4.52064 6.03051 4.38005 5.84453 4.06084L5.79926 3.96944L5.41559 3.04317C5.25708 2.66049 5.4388 2.22176 5.82149 2.06325C6.17228 1.91795 6.57017 2.05854 6.75614 2.37775ZM11.1095 2.05924C11.4574 2.20334 11.6392 2.57903 11.5503 2.93366L11.5154 3.03916L11.1317 3.96543C10.9732 4.34811 10.5345 4.52984 10.1518 4.37133C9.80389 4.22722 9.62208 3.85154 9.71099 3.49691L9.74589 3.3914L10.1296 2.46514C10.2881 2.08245 10.7268 1.90073 11.1095 2.05924Z" fill="currentColor"/>
</svg>
