<svg width="24" height="24" viewBox="0 0 24 24" fill="none" xmlns="http://www.w3.org/2000/svg">
<path d="M6.8417 13.985C7.37625 13.91 7.89994 13.913 8.42284 13.9862C8.46699 13.9924 8.51112 13.9991 8.55526 14.0063C9.8482 14.2164 11.0768 14.8439 12.3781 15.6029C14.7353 16.9778 17.324 16.705 18.8143 15.6405C19.1514 15.3997 19.6198 15.4778 19.8605 15.8148C20.1013 16.1519 20.0233 16.6203 19.6862 16.861C17.6765 18.2966 14.4469 18.5461 11.6224 16.8986C10.3328 16.1464 9.31147 15.6489 8.31462 15.4868C7.35766 15.3313 6.36045 15.4769 5.10943 16.1593C4.7458 16.3577 4.29022 16.2237 4.09185 15.8601C3.89349 15.4964 4.02746 15.0409 4.39109 14.8425C5.25243 14.3726 6.0587 14.095 6.8417 13.985ZM9.64012 11.278C9.28102 11.158 8.91987 11.0649 8.55356 11.0054C7.89549 10.8984 7.23753 10.9016 6.55958 11.0307C6.55955 11.0308 6.55961 11.0305 6.55958 11.0307C5.86473 11.163 5.14878 11.4281 4.39024 11.8419C4.02661 12.0403 3.89264 12.4958 4.091 12.8595C4.28937 13.2231 4.74495 13.3571 5.10858 13.1587C6.3596 12.4763 7.35681 12.3307 8.31377 12.4862C8.59205 12.5315 8.87224 12.6028 9.15964 12.6986C9.90151 12.9459 10.6915 13.3557 11.6207 13.8977C11.681 13.9329 11.7416 13.9673 11.8023 14.0007C14.5828 15.5344 17.7185 15.2655 19.6854 13.8604C20.0224 13.6197 20.1005 13.1513 19.8597 12.8142C19.6189 12.4771 19.1505 12.3991 18.8135 12.6399C18.4046 12.9319 17.9131 13.1644 17.3663 13.3196C17.3663 13.3198 17.3664 13.3194 17.3663 13.3196C16.2852 13.6267 14.9884 13.6311 13.6877 13.1973C13.2486 13.0507 12.8091 12.8542 12.3773 12.6023C11.4444 12.0581 10.5488 11.5816 9.64012 11.278ZM17.5247 12.0007C17.5247 12.0709 17.5234 12.1408 17.5208 12.2104C16.3122 12.699 14.5571 12.7163 12.8803 11.7382C11.5707 10.9743 10.2041 10.2605 8.71399 10.0183C8.09393 9.91756 7.47812 9.90146 6.85839 9.97369C7.66671 7.92518 9.66393 6.47574 11.9997 6.47574C15.0511 6.47574 17.5247 8.94937 17.5247 12.0007ZM12.1218 22.0007C12.0808 22.0077 12.0388 22.0113 11.9959 22.0113C11.953 22.0113 11.9109 22.0077 11.87 22.0007H12.1218ZM5.97369 4.94173L5.88957 4.86911C5.59596 4.65126 5.1793 4.67546 4.91303 4.94173C4.62014 5.23462 4.62014 5.7095 4.91303 6.00239L5.97369 7.06305L6.05781 7.13567C6.35142 7.35352 6.76808 7.32932 7.03435 7.06305C7.32724 6.77016 7.32724 6.29528 7.03435 6.00239L5.97369 4.94173ZM19.1509 5.91827C19.3687 5.62466 19.3445 5.208 19.0782 4.94173C18.7853 4.64884 18.3105 4.64884 18.0176 4.94173L16.9569 6.00239L16.8843 6.08651C16.6664 6.38012 16.6907 6.79678 16.9569 7.06305C17.2498 7.35594 17.7247 7.35594 18.0176 7.06305L19.0782 6.00239L19.1509 5.91827ZM12.7431 2.63846C12.6934 2.27239 12.3796 1.99023 11.9999 1.99023C11.5857 1.99023 11.2499 2.32602 11.2499 2.74023V4.24023L11.2568 4.34201C11.3064 4.70808 11.6202 4.99023 11.9999 4.99023C12.4142 4.99023 12.7499 4.65445 12.7499 4.24023V2.74023L12.7431 2.63846ZM5.10943 19.1593C6.36045 18.4769 7.35766 18.3313 8.31462 18.4868C9.31147 18.6489 10.3328 19.1464 11.6224 19.8986C14.4469 21.5461 17.6765 21.2966 19.6862 19.861C20.0233 19.6203 20.1013 19.1519 19.8605 18.8148C19.6198 18.4778 19.1514 18.3997 18.8143 18.6405C17.324 19.705 14.7353 19.9778 12.3781 18.6029C11.0768 17.8439 9.8482 17.2164 8.55526 17.0063C7.22244 16.7896 5.89007 17.0248 4.39109 17.8425C4.02746 18.0409 3.89349 18.4964 4.09185 18.8601C4.29022 19.2237 4.7458 19.3577 5.10943 19.1593Z" fill="#2A2A2A"/>
</svg>
