<svg width="24" height="24" viewBox="0 0 24 24" fill="none" xmlns="http://www.w3.org/2000/svg">
<path d="M7.74482 19.4991H16.2462C16.66 19.4991 16.9955 19.8349 16.9955 20.2491C16.9955 20.6288 16.7136 20.9426 16.3478 20.9922L16.2462 20.9991H7.74482C7.33097 20.9991 6.99549 20.6633 6.99549 20.2491C6.99549 19.8694 7.27739 19.5556 7.64314 19.5059L7.74482 19.4991H16.2462H7.74482ZM4.74993 16.5183H19.2499C19.6641 16.5183 19.9999 16.8541 19.9999 17.2683C19.9999 17.648 19.7178 17.9618 19.3517 18.0115L19.2499 18.0183H4.74993C4.33572 18.0183 3.99993 17.6825 3.99993 17.2683C3.99993 16.8886 4.28209 16.5748 4.64816 16.5252L4.74993 16.5183ZM11.9999 3.00391C15.1685 3.00391 16.9659 5.1012 17.2273 7.63403L17.3073 7.63403C19.3464 7.63403 20.9994 9.28275 20.9994 11.3166C20.9994 13.3504 19.3464 14.9991 17.3073 14.9991H6.69257C4.65349 14.9991 3.00049 13.3504 3.00049 11.3166C3.00049 9.28275 4.65349 7.63403 6.69259 7.63403L6.77253 7.63403C7.03547 5.08455 8.8314 3.00391 11.9999 3.00391ZM11.9999 4.5015C9.92861 4.5015 8.12322 6.13474 8.12322 8.39071C8.12322 8.74817 7.80427 9.02866 7.43906 9.02865L6.74851 9.02863C5.48751 9.02863 4.46528 10.0299 4.46528 11.2651C4.46528 12.5002 5.48751 13.5015 6.74851 13.5015H17.2514C18.5124 13.5015 19.5346 12.5002 19.5346 11.2651C19.5346 10.0299 18.5124 9.02863 17.2514 9.02863L16.5608 9.02865C16.1956 9.02866 15.8766 8.74817 15.8766 8.39071C15.8766 6.1058 14.0713 4.5015 11.9999 4.5015Z" fill="#2A2A2A"/>
</svg>
