<svg width="24" height="24" viewBox="0 0 24 24" fill="none" xmlns="http://www.w3.org/2000/svg">
<path d="M17.7451 10.75C18.3359 11.3408 18.8473 12.0574 19.237 12.8193C19.4257 13.1881 19.2796 13.6399 18.9108 13.8286C18.5421 14.0172 18.0902 13.8711 17.9016 13.5024C17.5812 12.876 17.161 12.2872 16.6844 11.8107C14.1218 9.24801 9.9669 9.24801 7.40425 11.8107C6.90643 12.3085 6.50202 12.8682 6.19066 13.4838C6.0037 13.8534 5.5525 14.0015 5.18288 13.8145C4.81326 13.6276 4.66519 13.1764 4.85214 12.8068C5.23495 12.0499 5.73299 11.3606 6.34359 10.75C9.49203 7.60156 14.5967 7.60156 17.7451 10.75ZM15.6432 13.8188C16.0909 14.2665 16.4591 14.8161 16.7154 15.401C16.8816 15.7804 16.7088 16.2227 16.3294 16.389C15.95 16.5552 15.5077 16.3824 15.3415 16.003C15.1584 15.5852 14.8948 15.1917 14.5826 14.8795C13.1798 13.4768 10.9056 13.4768 9.50282 14.8795C9.1923 15.19 8.9402 15.5682 8.75562 15.99C8.58957 16.3695 8.14734 16.5425 7.76787 16.3765C7.38839 16.2105 7.21537 15.7682 7.38141 15.3887C7.63886 14.8004 7.99525 14.2658 8.44216 13.8188C10.4307 11.8303 13.6547 11.8303 15.6432 13.8188ZM13.0608 16.4385C13.6467 17.0244 13.6467 17.9742 13.0608 18.5601C12.4749 19.146 11.5251 19.146 10.9392 18.5601C10.3534 17.9742 10.3534 17.0244 10.9392 16.4385C11.5251 15.8527 12.4749 15.8527 13.0608 16.4385Z" fill="currentColor"/>
</svg>
