<svg width="24" height="24" viewBox="0 0 24 24" fill="none" xmlns="http://www.w3.org/2000/svg">
<path d="M17.784 10.7082C18.3804 11.3046 18.8953 12.0261 19.2877 12.7931C19.5391 13.2848 19.3444 13.8873 18.8527 14.1388C18.361 14.3903 17.7585 14.1956 17.507 13.7039C17.2072 13.1176 16.8139 12.5665 16.3698 12.1225C13.9767 9.72933 10.0967 9.72933 7.70356 12.1225C7.23849 12.5875 6.86105 13.1099 6.57034 13.6847C6.32106 14.1775 5.71947 14.3749 5.22664 14.1257C4.73381 13.8764 4.53638 13.2748 4.78565 12.782C5.17163 12.0189 5.67391 11.3237 6.28935 10.7082C9.46352 7.53407 14.6099 7.53407 17.784 10.7082ZM15.7351 13.6998C16.1957 14.1604 16.5734 14.7243 16.8363 15.3243C17.058 15.8302 16.8276 16.4199 16.3218 16.6416C15.8159 16.8633 15.2262 16.6329 15.0045 16.127C14.8392 15.7497 14.6009 15.3941 14.3209 15.114C13.0585 13.8516 11.0117 13.8516 9.74928 15.114C9.47103 15.3923 9.24397 15.7329 9.07709 16.1142C8.8557 16.6202 8.26606 16.8509 7.76009 16.6295C7.25412 16.4081 7.02343 15.8185 7.24482 15.3125C7.50885 14.7091 7.87495 14.1599 8.33506 13.6998C10.3785 11.6563 13.6916 11.6563 15.7351 13.6998ZM20.4192 8.29861C20.9272 8.80661 21.4061 9.38608 21.823 9.99016C22.1367 10.4447 22.0225 11.0675 21.568 11.3812C21.1135 11.6949 20.4907 11.5807 20.177 11.1262C19.8273 10.6195 19.4254 10.1333 19.0049 9.71283C15.1326 5.84052 8.85438 5.84052 4.98207 9.71283C4.5829 10.112 4.18505 10.5985 3.82161 11.1224C3.50681 11.5761 2.88374 11.6888 2.42996 11.374C1.97618 11.0592 1.86352 10.4361 2.17833 9.98235C2.60633 9.36539 3.07884 8.78763 3.56786 8.29861C8.22121 3.64525 15.7658 3.64525 20.4192 8.29861ZM13.0614 16.4412C13.6476 17.0274 13.6476 17.9778 13.0614 18.564C12.4752 19.1502 11.5248 19.1502 10.9386 18.564C10.3524 17.9778 10.3524 17.0274 10.9386 16.4412C11.5248 15.855 12.4752 15.855 13.0614 16.4412Z" fill="currentColor"/>
</svg>
