<svg width="24" height="24" viewBox="0 0 24 24" fill="none" xmlns="http://www.w3.org/2000/svg">
<path d="M16.75 2.00195C13.8505 2.00195 11.5 4.35246 11.5 7.25195C11.5 7.8048 11.5857 8.33874 11.7449 8.84056L2.67746 18.2206C1.7176 19.2136 1.82004 20.817 2.89846 21.6798C3.84289 22.4353 5.20713 22.3482 6.04773 21.4786L15.0105 12.2067C15.5556 12.398 16.1413 12.502 16.75 12.502C19.6495 12.502 22 10.1514 22 7.25195C22 6.74929 21.9292 6.26191 21.7964 5.79988C21.7231 5.54466 21.5203 5.34724 21.2632 5.28082C21.0061 5.21439 20.733 5.28888 20.5453 5.47664L17.3612 8.6607L15.3005 6.60004L18.4616 3.43893C18.6508 3.24976 18.7249 2.97415 18.6561 2.71563C18.5872 2.45711 18.3859 2.25483 18.1277 2.18477C17.6878 2.06542 17.2258 2.00195 16.75 2.00195Z" fill="currentColor"/>
</svg>
