<svg width="24" height="24" viewBox="0 0 24 24" fill="none" xmlns="http://www.w3.org/2000/svg">
<path d="M9.80813 5.50769C9.27918 5.24329 8.6984 5.20153 8.16967 5.30227L6.98705 5.52759C6.12526 5.69179 5.38353 6.24525 4.98319 7.02794C3.6162 9.70048 2.58257 11.8895 2.18387 13.7567C1.77266 15.6826 2.02406 17.3319 3.26308 18.8331C4.08469 19.8286 5.49272 19.6274 6.22656 18.797C6.78534 18.1647 7.4216 17.4325 8.04389 16.7109C8.45369 16.2357 9.04854 15.9623 9.6736 15.9623H14.3293C14.9543 15.9623 15.5492 16.2357 15.959 16.7109C16.5813 17.4325 17.2175 18.1647 17.7763 18.797C18.5102 19.6274 19.9182 19.8286 20.7398 18.8331C21.9788 17.3319 22.2302 15.6826 21.819 13.7567C21.4203 11.8895 20.3867 9.70048 19.0197 7.02794C18.6194 6.24525 17.8776 5.69179 17.0158 5.52759L15.8332 5.30227C15.3045 5.20153 14.7237 5.24329 14.1948 5.50769C14.0511 5.57949 13.9038 5.65667 13.7553 5.73714C13.4001 5.92964 13.019 6.03382 12.6423 6.03382H11.3606C10.9839 6.03382 10.6028 5.92964 10.2476 5.73714C10.0991 5.65667 9.95177 5.57949 9.80813 5.50769ZM8.43703 6.70549C8.71237 6.65303 8.96625 6.68386 9.16945 6.78543C9.29664 6.84901 9.42982 6.91871 9.56697 6.99304C10.1065 7.28543 10.7197 7.46228 11.3606 7.46228H12.6423C13.2832 7.46228 13.8964 7.28543 14.4359 6.99304C14.5731 6.91871 14.7062 6.84901 14.8334 6.78543C15.0366 6.68386 15.2905 6.65303 15.5659 6.70549L16.7485 6.93082C17.1791 7.01286 17.5492 7.28983 17.7479 7.67844C19.1282 10.3769 20.069 12.4017 20.422 14.055C20.7625 15.6497 20.5429 16.8276 19.6381 17.9239C19.5508 18.0297 19.4316 18.0792 19.29 18.0728C19.1403 18.066 18.9729 17.9939 18.8467 17.8511C18.2933 17.2248 17.6612 16.4974 17.0407 15.778C16.3612 14.99 15.3723 14.5338 14.3293 14.5338H9.6736C8.63063 14.5338 7.64171 14.99 6.96214 15.778C6.3417 16.4974 5.70959 17.2248 5.15616 17.8511C5.03001 17.9939 4.86264 18.066 4.71288 18.0728C4.57126 18.0792 4.45213 18.0297 4.36478 17.9239C3.45999 16.8276 3.24035 15.6497 3.58085 14.055C3.93387 12.4017 4.87471 10.3769 6.25495 7.67844C6.45372 7.28983 6.82381 7.01286 7.25441 6.93082L8.43703 6.70549ZM12.0012 11.0004C12.5535 11.0004 13.0012 10.5527 13.0012 10.0004C13.0012 9.44814 12.5535 9.00043 12.0012 9.00043C11.4489 9.00043 11.0012 9.44814 11.0012 10.0004C11.0012 10.5527 11.4489 11.0004 12.0012 11.0004Z" fill="#2A2A2A"/>
</svg>
