<svg width="24" height="24" viewBox="0 0 24 24" fill="none" xmlns="http://www.w3.org/2000/svg">
<path d="M11.4891 2.70795C11.7785 2.4353 12.2305 2.43597 12.5192 2.70949L14.7263 4.80087C15.027 5.08577 15.5017 5.07298 15.7866 4.77231C16.0715 4.47163 16.0587 3.99693 15.758 3.71203L13.5509 1.62065C12.6849 0.800104 11.329 0.798086 10.4606 1.61605L8.23696 3.7105C7.93544 3.9945 7.92124 4.46917 8.20524 4.77069C8.48925 5.07221 8.96391 5.08641 9.26543 4.8024L11.4891 2.70795ZM4.80338 9.26445C5.08738 8.96293 5.07318 8.48827 4.77166 8.20427C4.47014 7.92026 3.99548 7.93446 3.71148 8.23599L1.61703 10.4596C0.799063 11.328 0.80108 12.6839 1.62163 13.5499L3.71301 15.7571C3.99791 16.0577 4.47261 16.0705 4.77329 15.7856C5.07396 15.5007 5.08675 15.026 4.80185 14.7254L2.71046 12.5182C2.43695 12.2295 2.43628 11.7776 2.70893 11.4881L4.80338 9.26445ZM20.288 8.2439C20.003 7.94334 19.5282 7.93074 19.2277 8.21576C18.9271 8.50078 18.9145 8.97548 19.1995 9.27604L21.2984 11.4893C21.5728 11.7787 21.5728 12.2321 21.2984 12.5215L19.1995 14.7349C18.9145 15.0355 18.9271 15.5102 19.2277 15.7952C19.5283 16.0802 20.003 16.0676 20.288 15.767L22.3869 13.5536C23.21 12.6856 23.21 11.3252 22.3868 10.4572L20.288 8.2439ZM15.766 20.289C16.0666 20.004 16.0792 19.5293 15.7942 19.2287C15.5092 18.9281 15.0345 18.9155 14.7339 19.2005L12.5218 21.2981C12.2326 21.5723 11.7794 21.5724 11.49 21.2984L9.27474 19.2002C8.974 18.9154 8.4993 18.9283 8.21447 19.229C7.92963 19.5297 7.94252 20.0044 8.24326 20.2893L10.4586 22.3874C11.3267 23.2096 12.6863 23.2093 13.5539 22.3865L15.766 20.289ZM9.74996 7.00094C8.23118 7.00094 6.99996 8.23216 6.99996 9.75094V14.2509C6.99996 15.7697 8.23118 17.0009 9.74996 17.0009H14.25C15.7687 17.0009 17 15.7697 17 14.2509V9.75094C17 8.23216 15.7687 7.00094 14.25 7.00094H9.74996ZM8.49996 9.75094C8.49996 9.06058 9.05961 8.50094 9.74996 8.50094H14.25C14.9403 8.50094 15.5 9.06058 15.5 9.75094V14.2509C15.5 14.9413 14.9403 15.5009 14.25 15.5009H9.74996C9.05961 15.5009 8.49996 14.9413 8.49996 14.2509V9.75094Z" fill="#2A2A2A"/>
</svg>
