<svg width="24" height="24" viewBox="0 0 24 24" fill="none" xmlns="http://www.w3.org/2000/svg">
<path d="M12.5192 2.70949C12.2305 2.43597 11.7785 2.4353 11.4891 2.70795L9.26543 4.8024C8.96391 5.08641 8.48925 5.07221 8.20524 4.77069C7.92124 4.46917 7.93544 3.9945 8.23696 3.7105L10.4606 1.61605C11.329 0.798086 12.6849 0.800104 13.5509 1.62065L15.758 3.71203C16.0587 3.99693 16.0715 4.47163 15.7866 4.77231C15.5017 5.07298 15.027 5.08577 14.7263 4.80087L12.5192 2.70949ZM4.77166 8.20427C5.07318 8.48827 5.08738 8.96293 4.80338 9.26445L2.70893 11.4881C2.43628 11.7776 2.43695 12.2295 2.71046 12.5182L4.80185 14.7254C5.08675 15.026 5.07396 15.5007 4.77329 15.7856C4.47261 16.0705 3.99791 16.0577 3.71301 15.7571L1.62163 13.5499C0.80108 12.6839 0.799063 11.328 1.61703 10.4596L3.71148 8.23599C3.99548 7.93446 4.47014 7.92026 4.77166 8.20427ZM19.2277 8.21576C19.5282 7.93074 20.003 7.94334 20.288 8.2439L22.3868 10.4572C23.21 11.3252 23.21 12.6856 22.3869 13.5536L20.288 15.767C20.003 16.0676 19.5283 16.0802 19.2277 15.7952C18.9271 15.5102 18.9145 15.0355 19.1995 14.7349L21.2984 12.5215C21.5728 12.2321 21.5728 11.7787 21.2984 11.4893L19.1995 9.27604C18.9145 8.97548 18.9271 8.50078 19.2277 8.21576ZM15.7942 19.2287C16.0792 19.5293 16.0666 20.004 15.766 20.289L13.5539 22.3865C12.6863 23.2093 11.3267 23.2096 10.4586 22.3874L8.24326 20.2893C7.94252 20.0044 7.92963 19.5297 8.21447 19.229C8.4993 18.9283 8.974 18.9154 9.27474 19.2002L11.49 21.2984C11.7794 21.5724 12.2326 21.5723 12.5218 21.2981L14.7339 19.2005C15.0345 18.9155 15.5092 18.9281 15.7942 19.2287ZM9.75 7.00095C8.23122 7.00095 7 8.23216 7 9.75095V14.2509C7 15.7697 8.23122 17.0009 9.75 17.0009H14.25C15.7688 17.0009 17 15.7697 17 14.2509V9.75095C17 8.23216 15.7688 7.00095 14.25 7.00095H9.75Z" fill="currentColor"/>
</svg>
