<svg width="100" height="100" viewBox="0 0 100 100" fill="none" xmlns="http://www.w3.org/2000/svg">
<circle cx="50" cy="50" r="47" fill="#336879"/>
<path d="M59.4819 27.0933C54.0252 27.0933 50.0482 28.6226 45.8897 33.0767C41.9157 37.3333 40.2892 43.8773 40.2892 50C40.2892 56.1939 42.0783 62.5745 46.3149 66.9233C50.5515 71.272 54.8573 72.5 59.4819 72.5C62.5019 72.5 65.9879 72 69.5663 70C71.482 68.9293 73.393 67.2354 75.0964 65.3333C76.3011 66.3301 77.2992 67.6383 77.937 69.0622C78.6457 70.4149 79 72.0168 79 73.8678C79 76.7868 77.3701 79.2786 74.1102 81.3432C70.9213 83.3366 66.0725 85 59.4819 85C54.7339 85 50.8789 84.3237 46.6978 82.971C42.5167 81.6183 38.2165 78.887 35.0984 76.1104C31.9803 73.2627 29.5 69.7029 27.6575 65.4313C25.8858 61.0885 25 55.9803 25 50C25 44.4469 25.8504 39.5167 27.5512 35.3162C29.3228 31.0446 31.6969 27.4493 34.6732 24.5303C37.7205 21.6114 41.9144 18.7377 45.9538 17.2426C49.9931 15.7475 54.8756 15 59.4819 15C66.0016 15 69.8228 16.7346 73.3661 18.8704C76.9803 21.0062 78.7874 23.7472 78.7874 27.0933C78.7874 28.9444 78.3268 30.5462 77.4055 31.8989C76.4843 33.2516 76.0723 33.6667 75.0964 34.6667C73.3072 32.6667 70.6997 30.6724 69.5663 30C66.4759 28.1667 64.5958 27.0933 59.4819 27.0933Z" fill="white"/>
<path d="M27.2925 64.916C26.3868 64.8039 25.6226 64.6919 25 64.5798V35.3361C25.8491 35.2241 26.6698 35.1401 27.4623 35.084C28.3113 35.028 29.1321 35 29.9245 35C33.8868 35 37.0566 36.2885 39.434 38.8655C41.8113 41.3866 43 45.1681 43 50.2101C43 52.8431 42.6604 55.112 41.9811 57.0168C41.3585 58.8655 40.4528 60.3782 39.2642 61.5546C38.1321 62.7311 36.7453 63.5994 35.1038 64.1597C33.5189 64.7199 31.7641 65 29.8396 65C29.0472 65 28.1981 64.972 27.2925 64.916Z" fill="#336879"/>
<path d="M25.8339 63.5759C26.417 63.6802 27.1325 63.7846 27.9806 63.8889C28.8286 63.9411 29.6237 63.9671 30.3657 63.9671C32.1678 63.9671 33.811 63.7063 35.2951 63.1847C36.8322 62.663 38.1307 61.8545 39.1908 60.759C40.3039 59.6635 41.1519 58.2551 41.735 56.5336C42.371 54.76 42.689 52.6474 42.689 50.1956C42.689 45.5008 41.576 41.9797 39.3498 39.6322C37.1237 37.2327 34.1555 36.0329 30.4452 36.0329C29.7032 36.0329 28.9346 36.0589 28.1396 36.1111C27.3975 36.1633 26.629 36.2415 25.8339 36.3459V63.5759ZM30.2862 75C29.3852 75 28.3516 74.9739 27.1855 74.9218C26.0194 74.8696 24.8004 74.7653 23.5283 74.6088C22.3092 74.4523 21.0636 74.2436 19.7915 73.9828C18.5724 73.7741 17.4329 73.4611 16.3728 73.0438C13.4576 71.9484 12 70.0443 12 67.3318V30.7903C12 29.6948 12.2915 28.8602 12.8746 28.2864C13.5106 27.6604 14.3587 27.1648 15.4187 26.7997C17.6979 26.0694 20.1095 25.5999 22.6537 25.3912C25.1979 25.1304 27.477 25 29.4912 25C33.6254 25 37.3622 25.4956 40.7014 26.4867C44.0936 27.4778 46.9823 29.0167 49.3675 31.1033C51.8057 33.1377 53.6873 35.7199 55.0124 38.8498C56.3375 41.9797 57 45.6834 57 49.9609C57 54.1341 56.364 57.7856 55.0919 60.9155C53.8198 63.9932 51.9912 66.6015 49.606 68.7402C47.2739 70.8268 44.4647 72.3918 41.1784 73.4351C37.8922 74.4784 34.2615 75 30.2862 75Z" fill="#FFCC00"/>
</svg>
