<svg width="40" height="40" viewBox="0 0 40 40" fill="none" xmlns="http://www.w3.org/2000/svg">
<g clip-path="url(#clip0_17544_60213)">
<path d="M20 0H40V40H20V0Z" fill="white"/>
<path d="M0 0H20V40H0V0Z" fill="#006233"/>
<path d="M28.6719 15C27.5712 13.0936 25.8722 11.6036 23.8385 10.7612C21.8047 9.91879 19.5498 9.77099 17.4234 10.3407C15.2971 10.9105 13.4182 12.1659 12.0781 13.9124C10.738 15.6588 10.0116 17.7987 10.0116 20C10.0116 22.2013 10.738 24.3412 12.0781 26.0876C13.4182 27.8341 15.2971 29.0895 17.4234 29.6593C19.5498 30.229 21.8047 30.0812 23.8385 29.2388C25.8722 28.3964 27.5712 26.9064 28.6719 25C27.636 26.2939 26.2238 27.234 24.6304 27.6905C23.0371 28.1471 21.3413 28.0974 19.7773 27.5485C18.2134 26.9996 16.8586 25.9784 15.9002 24.6262C14.9417 23.274 14.4269 21.6575 14.4269 20C14.4269 18.3425 14.9417 16.726 15.9002 15.3738C16.8586 14.0216 18.2134 13.0004 19.7773 12.4515C21.3413 11.9026 23.0371 11.8529 24.6304 12.3095C26.2238 12.766 27.636 13.7061 28.6719 15ZM29 20L20 17.0625L25.6016 24.7344V15.2656L20 22.9375L29 20Z" fill="#D21034"/>
</g>
<defs>
<clipPath id="clip0_17544_60213">
<path d="M0 20C0 8.95431 8.95431 0 20 0C31.0457 0 40 8.95431 40 20C40 31.0457 31.0457 40 20 40C8.95431 40 0 31.0457 0 20Z" fill="white"/>
</clipPath>
</defs>
</svg>
