<svg width="40" height="40" viewBox="0 0 40 40" fill="none" xmlns="http://www.w3.org/2000/svg">
<g clip-path="url(#clip0_17522_60542)">
<path d="M0 0H40V40H0V0Z" fill="black"/>
<path d="M0 0V40H60V0H0Z" fill="#3399CC"/>
<path d="M0 26.6641V28.8906H60V26.6641H0ZM0 33.3359H60V31.1094H0V33.3359Z" fill="#FFFF00"/>
<path d="M9.53125 2.1875L9.71875 2.38281L9.53906 2.19531L9.53125 2.1875ZM9.71875 2.5625L9.90625 2.75L9.72656 2.5625H9.71875Z" fill="#99CCCC"/>
<path d="M9.71875 2.75L9.90625 2.9375L9.72656 2.75H9.71875Z" fill="#CCCCFF"/>
<path d="M9.53125 3.125L9.71875 3.30469L9.53906 3.125H9.53125Z" fill="#CC6666"/>
<path d="M9.71875 3.49219L9.90625 3.67969L9.72656 3.49219H9.71875Z" fill="#FFCCCC"/>
<path d="M8.98438 3.67969L9.16406 3.86719L8.97656 3.67969H8.98438Z" fill="#66CCCC"/>
<path d="M9.50781 2.57031L8.20312 7.51562L3.24219 8.85938L8.1875 10.1484L9.50781 15.0937L10.8281 10.1484L15.7656 8.82812L10.8203 7.51562L9.50781 2.57031Z" fill="#CC0000"/>
<path fill-rule="evenodd" clip-rule="evenodd" d="M9.50747 2.11221L10.9161 7.41981L16.2209 8.8277L10.9239 10.2441L9.50781 15.5481L8.09189 10.2446L2.78593 8.86155L8.1071 7.42023L9.50747 2.11221ZM9.50815 3.02842L8.29915 7.61102L3.69844 8.8572L8.28311 10.0523L9.50781 14.6394L10.7324 10.0527L15.3104 8.82855L10.7245 7.61144L9.50815 3.02842Z" fill="white"/>
<path d="M8.98438 3.86719L9.16406 4.05469L8.97656 3.86719" fill="#99CCFF"/>
<path d="M8.98438 4.60938L9.16406 4.79688L8.97656 4.60938" fill="#FFCCCC"/>
<path d="M8.42188 5.54688L8.60938 5.72656L8.42188 5.53906V5.54688Z" fill="#99CCCC"/>
<path d="M10.6484 5.54688L10.8359 5.72656L10.6562 5.53906L10.6484 5.54688Z" fill="#99CCCC"/>
<path d="M8.23438 6.09375L8.42188 6.28125L8.23438 6.10156V6.09375Z" fill="#99CCCC"/>
<path d="M10.8359 6.09375L11.0234 6.28125L10.8359 6.10156V6.09375Z" fill="#99CCCC"/>
<path d="M7.42188 7.83594L7.55469 7.89844L7.42969 7.83594" fill="#CC3333"/>
<path d="M5.07812 8.14062L5.25781 8.32812L5.07031 8.14062H5.07812Z" fill="#99CCFF"/>
<path d="M3.95312 8.51562L4.14062 8.70312L3.96094 8.51562H3.95312Z" fill="#CCCCFF"/>
<path d="M3.95312 9.25781L4.14062 9.45312L3.96094 9.26562L3.95312 9.25781Z" fill="#CCCCFF"/>
<path d="M4.88281 9.63281L5.07031 9.82031L4.89062 9.63281H4.88281Z" fill="#6699CC"/>
<path d="M5.07812 9.63281L5.25781 9.82031L5.07031 9.63281H5.07812Z" fill="#99CCFF"/>
<path d="M6.3125 9.6875L6.4375 9.75781L6.3125 9.69531" fill="#CC3333"/>
<path d="M7.42188 10.0625L7.55469 10.125L7.42969 10.0625" fill="#CC3333"/>
<path d="M8.98438 13.1641L9.16406 13.3516L8.97656 13.1641" fill="#FFCCCC"/>
<path d="M8.98438 13.9062L9.16406 14.0938L8.97656 13.9062H8.98438Z" fill="#99CCFF"/>
<path d="M8.98438 14.0938L9.16406 14.2813L8.97656 14.0938" fill="#66CCCC"/>
<path d="M9.71875 14.2812L9.90625 14.4688L9.72656 14.2812H9.71875Z" fill="#FFCCCC"/>
<path d="M9.53125 14.6562L9.71875 14.8359L9.53906 14.6562H9.53125Z" fill="#CC6666"/>
<path d="M9.71875 15.0234L9.90625 15.2109L9.72656 15.0234H9.71875Z" fill="#CCCCFF"/>
<path d="M9.71875 15.2109L9.90625 15.3984L9.72656 15.2109" fill="#99CCCC"/>
</g>
<defs>
<clipPath id="clip0_17522_60542">
<path d="M0 4C0 1.79086 1.79086 0 4 0H36C38.2091 0 40 1.79086 40 4V36C40 38.2091 38.2091 40 36 40H4C1.79086 40 0 38.2091 0 36V4Z" fill="white"/>
</clipPath>
</defs>
</svg>
