<svg width="40" height="40" viewBox="0 0 40 40" fill="none" xmlns="http://www.w3.org/2000/svg">
<g clip-path="url(#clip0_17522_60544)">
<path d="M0 0H40V40H0V0Z" fill="#3F9C35"/>
<path d="M0 0H40V26.6641H0V0Z" fill="#ED2939"/>
<path d="M0 0H40V13.3359H0V0Z" fill="#00B9E4"/>
<path d="M18.6562 26C21.97 26 24.6562 23.3137 24.6562 20C24.6562 16.6863 21.97 14 18.6562 14C15.3425 14 12.6562 16.6863 12.6562 20C12.6562 23.3137 15.3425 26 18.6562 26Z" fill="white"/>
<path d="M19.9922 25C22.7536 25 24.9922 22.7614 24.9922 20C24.9922 17.2386 22.7536 15 19.9922 15C17.2308 15 14.9922 17.2386 14.9922 20C14.9922 22.7614 17.2308 25 19.9922 25Z" fill="#ED2939"/>
<path d="M25.3281 16.6641L25.9609 18.4609L27.6797 17.6406L26.8672 19.3594L28.6641 20L26.8672 20.6406L27.6797 22.3594L25.9609 21.5391L25.3281 23.3359L24.6875 21.5391L22.9688 22.3594L23.7891 20.6406L21.9922 20L23.7891 19.3594L22.9688 17.6406L24.6875 18.4609L25.3281 16.6641Z" fill="white"/>
</g>
<defs>
<clipPath id="clip0_17522_60544">
<path d="M0 4C0 1.79086 1.79086 0 4 0H36C38.2091 0 40 1.79086 40 4V36C40 38.2091 38.2091 40 36 40H4C1.79086 40 0 38.2091 0 36V4Z" fill="white"/>
</clipPath>
</defs>
</svg>
