<svg width="40" height="40" viewBox="0 0 40 40" fill="none" xmlns="http://www.w3.org/2000/svg">
<g clip-path="url(#clip0_17522_60547)">
<path d="M0 0H40V40H0V0Z" fill="#006A4E"/>
<path d="M20.3359 33.6719C27.7012 33.6719 33.6719 27.7012 33.6719 20.3359C33.6719 12.9707 27.7012 7 20.3359 7C12.9707 7 7 12.9707 7 20.3359C7 27.7012 12.9707 33.6719 20.3359 33.6719Z" fill="#F42A41"/>
</g>
<defs>
<clipPath id="clip0_17522_60547">
<path d="M0 4C0 1.79086 1.79086 0 4 0H36C38.2091 0 40 1.79086 40 4V36C40 38.2091 38.2091 40 36 40H4C1.79086 40 0 38.2091 0 36V4Z" fill="white"/>
</clipPath>
</defs>
</svg>
