<svg width="40" height="40" viewBox="0 0 40 40" fill="none" xmlns="http://www.w3.org/2000/svg">
<g clip-path="url(#clip0_17544_60691)">
<path d="M0 0H40V40H0V0Z" fill="#D52B1E"/>
<path d="M0 0H3.32031L20 16.6719L36.6797 0H40V3.32031L23.3281 20L40 36.6797V40H36.6797L20 23.3281L3.32031 40H0V36.6797L16.6719 20L0 3.32031V0Z" fill="#009B48"/>
<path d="M17.3359 0H22.6641V17.3359H40V22.6641H22.6641V40H17.3359V22.6641H0V17.3359H17.3359V0Z" fill="white"/>
</g>
<defs>
<clipPath id="clip0_17544_60691">
<path d="M0 20C0 8.95431 8.95431 0 20 0C31.0457 0 40 8.95431 40 20C40 31.0457 31.0457 40 20 40C8.95431 40 0 31.0457 0 20Z" fill="white"/>
</clipPath>
</defs>
</svg>
