<svg width="40" height="40" viewBox="0 0 40 40" fill="none" xmlns="http://www.w3.org/2000/svg">
<g clip-path="url(#clip0_17522_60563)">
<path d="M0 0H39.99V39.99H0V0Z" fill="black"/>
<path fill-rule="evenodd" clip-rule="evenodd" d="M0 0H79.9881V26.5659H0V0Z" fill="#B20000"/>
<path fill-rule="evenodd" clip-rule="evenodd" d="M0 26.5659H79.9881V39.9981H0V26.5659Z" fill="#429F00"/>
<path fill-rule="evenodd" clip-rule="evenodd" d="M0 0H8.85263V39.99H0V0Z" fill="white"/>
<path fill-rule="evenodd" clip-rule="evenodd" d="M0.41925 0.67725H0.846563V1.3545H0.41925V0.67725ZM1.68506 0.67725H2.95088V1.3545H1.69313L1.68506 0.67725ZM2.10431 0H2.53163V0.67725H2.09625L2.10431 0ZM4.21669 0H4.63594V0.67725H4.21669V0ZM5.90981 0.67725H7.16756V1.3545H5.90175L5.90981 0.67725ZM6.321 0H6.74025V0.67725H6.321V0ZM1.26581 1.3545H2.11238V2.03175H1.26581V1.3545ZM2.53163 1.3545H3.37819V2.03175H2.53163V1.3545ZM5.4825 1.3545H6.32906V2.03175H5.4825V1.3545ZM6.74831 1.3545H7.57875V2.03175H6.75638L6.74831 1.3545ZM0.846563 2.03175H1.68506V2.709H0.846563V2.03175ZM2.95088 2.03175H3.79744V2.709H2.95088V2.03175ZM5.06325 2.03175H5.90175V2.709H5.06325V2.03175ZM7.16756 2.03175H8.01413V2.709H7.16756V2.03175ZM8.01413 0.67725H8.43338V1.3545H8.01413V0.67725ZM0.41925 2.709H1.26581V3.38625H0.41925V2.709ZM3.37013 2.709H4.21669V3.38625H3.37013V2.709ZM7.59488 2.709H8.43338V3.38625H7.59488V2.709ZM0.846563 4.75688H1.68506V5.43413H0.846563V4.75688ZM1.26581 5.43413H2.11238V6.11138H1.26581V5.43413ZM2.95894 4.75688H3.78938V5.43413H2.95088L2.95894 4.75688ZM2.53163 5.43413H3.37013V6.11138H2.53163V5.43413ZM1.68506 6.11138H2.95088V6.7725H1.69313L1.68506 6.11138ZM2.10431 6.7725H2.53163V7.45781H2.09625L2.10431 6.7725ZM5.06325 4.74075H5.90175V5.42606H5.06325V4.74075ZM5.4825 5.42606H6.32906V6.10331H5.4825V5.42606ZM7.17563 4.74881H8.01413V5.42606H7.16756L7.17563 4.74881ZM6.74831 5.42606H7.57875V6.10331H6.75638L6.74831 5.42606ZM5.90175 6.10331H7.17563V6.7725H5.90175V6.10331ZM6.32906 6.7725H6.74831V7.45781H6.32906V6.7725ZM4.21669 6.10331H4.63594V6.7725H4.21669V6.10331ZM0 6.10331H0.41925V6.7725H0V6.10331ZM8.43338 6.10331H8.85263V6.7725H8.43338V6.10331ZM2.10431 9.48956H2.53163V10.1668H2.09625L2.10431 9.48956ZM1.68506 10.1668H2.95088V10.8441H1.69313L1.68506 10.1668ZM1.26581 10.8441H3.37819V11.5213H1.26581V10.8441ZM6.32906 9.48956H6.74831V10.1668H6.32906V9.48956Z" fill="#B20000"/>
<path fill-rule="evenodd" clip-rule="evenodd" d="M5.90175 10.1668H7.17563V10.8441H5.90175V10.1668ZM5.4825 10.8441H7.58681V11.5213H5.4825V10.8441ZM5.90175 14.2303H8.01413V14.9156H5.90175V14.2303ZM5.06325 11.5294H8.01413V12.2066H5.06325V11.5294ZM0.846563 11.5294H3.78938V12.2066H0.846563V11.5294ZM1.26581 14.9156H2.53163V15.6009H1.26581V14.9156ZM0.846563 14.2464H2.95088V14.9237H0.846563V14.2464ZM6.74831 12.8839H8.85263V13.5692H6.75638L6.74831 12.8839ZM6.32906 14.9156H7.59488V15.5929H6.32906V14.9156ZM1.68506 15.5929H2.11238V16.2701H1.68506V15.5929ZM6.74831 15.5929H7.16756V16.2701H6.74831V15.5929ZM0 12.8758H2.11238V13.5611H0V12.8758ZM3.78938 14.2384H5.06325V14.9156H3.78938V14.2384ZM4.21669 14.9156H4.63594V15.5929H4.21669V14.9156ZM2.95088 12.8758H5.90175V13.5611H2.95088V12.8758ZM4.644 2.71706H5.4825V3.38625H4.63594L4.644 2.71706ZM3.78938 3.38625H5.05519V4.0635H3.78938V3.38625ZM3.36206 4.0635H4.20863V4.74075H3.37013L3.36206 4.0635ZM4.62788 4.0635H5.4825V4.74075H4.63594L4.62788 4.0635ZM0 3.38625H0.846563V4.0635H0V3.38625ZM0.41925 4.0635H1.26581V4.74075H0.41925V4.0635ZM8.01413 3.38625H8.85263V4.0635H8.01413V3.38625ZM7.57875 4.0635H8.42531V4.74075H7.59488L7.57875 4.0635ZM0 10.1668H0.41925V10.8441H0V10.1668ZM8.43338 10.1668H8.85263V10.8441H8.43338V10.1668ZM3.79744 15.5929H5.06325V16.2701H3.78938L3.79744 15.5929ZM3.37013 16.2701H4.21669V16.9474H3.37013V16.2701ZM4.63594 16.2701H5.4825V16.9474H4.63594V16.2701ZM2.95088 16.9474H3.79744V17.6246H2.95088V16.9474ZM5.06325 16.9474H5.90175V17.6246H5.06325V16.9474ZM2.53163 17.6246H3.37819V18.3019H2.53163V17.6246ZM5.4825 17.6246H6.32906V18.3019H5.4825V17.6246ZM2.10431 18.3019H2.95088V18.9791H2.10431V18.3019ZM5.90175 18.3019H6.74831V18.9791H5.90175V18.3019ZM1.26581 18.9791H2.53163V19.6564H1.26581V18.9791ZM6.32906 18.9791H7.59488V19.6564H6.32906V18.9791ZM7.16756 18.3019H8.01413V18.9791H7.16756V18.3019ZM7.59488 17.6246H8.43338V18.3019H7.59488V17.6246ZM8.01413 16.9474H8.85263V17.6246H8.01413V16.9474ZM0.8385 18.3019H1.69313V18.9791H0.846563L0.8385 18.3019ZM0.41925 17.6246H1.26581V18.3019H0.41925V17.6246Z" fill="#B20000"/>
<path fill-rule="evenodd" clip-rule="evenodd" d="M0 16.9474H0.846563V17.6246H0V16.9474ZM1.69313 19.6564H2.11238V20.3336H1.68506L1.69313 19.6564ZM6.74831 19.6564H7.16756V20.3336H6.74831V19.6564ZM4.21669 17.6246H4.63594V18.3019H4.21669V17.6246ZM2.95088 19.6564H3.37013V20.3336H2.95088V19.6564ZM5.4825 19.6564H5.90175V20.3336H5.4825V19.6564ZM4.21669 19.6564H4.63594V20.3336H4.21669V19.6564ZM0 19.6564H0.41925V20.3336H0V19.6564ZM8.43338 19.6564H8.85263V20.3336H8.43338V19.6564ZM4.21669 10.1668H4.63594V10.8441H4.21669V10.1668ZM2.11238 3.39431H2.53163V4.0635H2.11238V3.39431ZM6.32906 3.39431H6.74831V4.0635H6.32906V3.39431ZM3.78938 8.127H5.05519V8.80425H3.78938V8.127ZM2.95088 8.81231H4.21669V9.48956H2.95088V8.81231Z" fill="#B20000"/>
<path fill-rule="evenodd" clip-rule="evenodd" d="M3.37012 9.48956H3.79744V10.1668H3.37012V9.48956ZM2.53163 8.13506H3.37819V8.81231H2.53163V8.13506ZM2.95087 7.45781H4.21669V8.13506H2.95087V7.45781ZM3.37012 6.78056H3.79744V7.45781H3.37012V6.78056ZM4.63594 7.45781H5.90175V8.13506H4.63594V7.45781ZM5.06325 6.78056H5.4825V7.45781H5.06325V6.78056ZM5.4825 8.13506H6.32906V8.81231H5.4825V8.13506ZM4.63594 8.81231H5.90175V9.48956H4.63594V8.81231ZM5.06325 9.48956H5.4825V10.1668H5.06325V9.48956ZM6.74831 8.13506H7.59487V8.81231H6.74831V8.13506ZM7.16756 7.45781H8.43337V8.13506H7.17562L7.16756 7.45781ZM8.01412 8.13506H8.85262V8.81231H8.01412V8.13506Z" fill="#B20000"/>
<path fill-rule="evenodd" clip-rule="evenodd" d="M7.17562 8.81231H8.43337V9.48956H7.17562V8.81231ZM7.59487 9.48956H8.01412V10.1668H7.59487V9.48956ZM7.59487 6.78056H8.01412V7.45781H7.59487V6.78056ZM0 8.13506H0.846562V8.81231H0V8.13506ZM0.41925 7.45781H1.69312V8.13506H0.41925V7.45781ZM1.26581 8.13506H2.11237V8.81231H1.26581V8.13506Z" fill="#B20000"/>
<path fill-rule="evenodd" clip-rule="evenodd" d="M0.41925 8.81231H1.69313V9.48956H0.41925V8.81231ZM0.846563 9.48956H1.26581V10.1668H0.846563V9.48956ZM0.846563 6.78056H1.26581V7.45781H0.846563V6.78056ZM0.41925 12.1986H2.11238V12.8758H0.41925V12.1986ZM2.53163 12.1986H4.22475V12.8758H2.53163V12.1986ZM4.63594 12.1986H6.32906V12.8758H4.63594V12.1986ZM6.74831 12.1986H8.44144V12.8758H6.74831V12.1986ZM3.37013 13.5531H5.4825V14.2384H3.37013V13.5531ZM0.41925 13.5531H2.53163V14.2384H0.41925V13.5531ZM6.32906 13.5531H8.43338V14.2384H6.32906V13.5531ZM8.43338 16.2701H8.85263V16.9474L8.43338 16.9474V16.2701ZM0 16.2701H0.41925V16.9474L0 16.9474V16.2701ZM0.41925 39.3208H0.846563V38.6355H0.41925V39.3208ZM1.68506 39.3208H2.95088V38.6355H1.69313L1.68506 39.3208ZM2.10431 39.99H2.53163V39.3208H2.09625L2.10431 39.99ZM4.21669 39.99H4.63594V39.3208H4.21669V39.99ZM5.90981 39.3208H7.16756V38.6436H5.90175L5.90981 39.3208ZM6.32906 39.99H6.74831V39.3208H6.32906V39.99ZM1.26581 38.6355H2.11238V37.9582H1.26581V38.6355ZM2.53163 38.6355H3.37819V37.9582H2.53163V38.6355ZM5.4825 38.6355H6.32906V37.9582H5.4825V38.6355ZM6.74831 38.6355H7.57875V37.9582H6.75638L6.74831 38.6355ZM2.95894 37.9582H3.78938V37.281H2.95088L2.95894 37.9582ZM5.05519 37.9582H5.90175V37.281H5.06325L5.05519 37.9582ZM7.16756 37.9582H8.01413V37.281H7.16756V37.9582ZM8.01413 39.3208H8.43338V38.6355H8.01413V39.3208ZM0.41925 37.281H1.26581V36.6037H0.41925V37.281ZM3.37013 37.281H4.21669V36.6037H3.37013V37.281ZM7.59488 37.281H8.43338V36.6037H7.59488V37.281ZM0.846563 35.2492H1.68506V34.572H0.846563V35.2492ZM1.26581 34.572H2.11238V33.8947H1.26581V34.572ZM2.95894 35.2492H3.78938V34.572H2.95088L2.95894 35.2492ZM2.53163 34.572H3.37013V33.8947H2.53163V34.572ZM1.68506 33.8947H2.95088V33.2175H1.69313L1.68506 33.8947ZM2.10431 33.2175H2.53163V32.5402H2.09625L2.10431 33.2175ZM5.06325 35.2492H5.90175V34.572H5.06325V35.2492ZM5.4825 34.572H6.32906V33.8947H5.4825V34.572ZM7.17563 35.2492H8.01413V34.572H7.16756L7.17563 35.2492ZM6.74831 34.572H7.57875V33.8947H6.75638L6.74831 34.572ZM5.90175 33.8947H7.17563V33.2175H5.90175V33.8947ZM6.32906 33.2175H6.74831V32.5402H6.32906V33.2175ZM4.21669 33.8947H4.63594V33.2175H4.21669V33.8947ZM0 33.8947H0.41925V33.2175H0V33.8947ZM8.43338 33.8947H8.85263V33.2175H8.43338V33.8947ZM2.11238 30.5085H2.53163V29.8232H2.11238V30.5085Z" fill="#B20000"/>
<path fill-rule="evenodd" clip-rule="evenodd" d="M1.69313 29.8312H2.95088V29.1459H1.69313V29.8312ZM1.26581 29.1459H3.37819V28.4687H1.26581V29.1459ZM6.32906 30.5004H6.74831V29.8312H6.32906V30.5004ZM5.90175 29.8312H7.17563V29.1459H5.90175V29.8312ZM5.4825 29.1459H7.58681V28.4687H5.4825V29.1459ZM5.90175 25.7597H8.01413V25.0824H5.90175V25.7597ZM5.06325 28.4687H8.01413V27.7914H5.06325V28.4687ZM0.846563 28.4687H3.78938V27.7914H0.846563V28.4687ZM1.26581 25.0824H2.53163V24.4052H1.26581V25.0824ZM0.846563 25.7597H2.95088V25.0824H0.846563V25.7597ZM6.74831 27.1142H8.85263V26.445H6.75638L6.74831 27.1142ZM6.32906 25.0824H7.59488V24.4052H6.32906V25.0824ZM0 27.1142H2.11238V26.445H0V27.1142ZM3.78938 25.7597H5.06325V25.0824H3.78938V25.7597ZM4.21669 25.0824H4.63594V24.4052H4.21669V25.0824ZM2.95088 27.1142H5.90175V26.445H2.95088V27.1142ZM4.644 37.281H5.4825V36.6038H4.63594L4.644 37.281ZM3.78938 36.6038H5.05519V35.9265H3.78938V36.6038ZM3.36206 35.9265H4.20863V35.2492H3.37013L3.36206 35.9265ZM4.62788 35.9265H5.4825V35.2492H4.63594L4.62788 35.9265ZM0 36.6038H0.846563V35.9265H0V36.6038ZM0.41925 35.9265H1.26581V35.2492H0.41925V35.9265ZM8.01413 36.6038H8.85263V35.9265H8.01413V36.6038ZM7.58681 35.9265H8.43338V35.2492H7.59488L7.58681 35.9265ZM0 29.8312H0.41925V29.154H0V29.8312ZM8.43338 29.8312H8.85263V29.154H8.43338V29.8312ZM3.37013 23.736H4.21669V23.0588H3.37013V23.736ZM4.63594 23.736H5.4825V23.0588H4.63594V23.736ZM2.95088 23.0588H3.79744V22.3815H2.95088V23.0588ZM5.06325 23.0588H5.90175V22.3815H5.06325V23.0588ZM2.53163 22.3734H3.37013V21.6881H2.53163V22.3734ZM5.4825 22.3734H6.32906V21.6881H5.4825V22.3734ZM2.10431 21.6881H2.95088V21.0189H2.10431V21.6881ZM5.90175 21.6881H6.74831V21.0189H5.90175V21.6881ZM1.26581 21.0189H2.53163V20.3336H1.26581V21.0189ZM6.32906 21.0189H7.59488V20.3336H6.32906V21.0189ZM7.16756 21.6962H8.01413V21.0109H7.16756V21.6962ZM7.59488 22.3654H8.43338V21.6962H7.59488V22.3654ZM8.01413 23.0507H8.85263V22.3734H8.01413V23.0507ZM0.8385 21.6962H1.69313V21.0109H0.846563L0.8385 21.6962ZM0.41925 22.3654H1.26581V21.6962H0.41925V22.3654ZM0 23.0588H0.846563V22.3815H0V23.0588ZM1.69313 20.3417H2.11238V19.6644H1.68506L1.69313 20.3417ZM4.21669 22.3815H4.63594V21.6881H4.21669V22.3815ZM4.21669 29.8393H4.63594V29.154H4.21669V29.8393ZM2.11238 36.6118H2.53163V35.9346H2.11238V36.6118ZM6.32906 36.6118H6.74831V35.9346H6.32906V36.6118ZM3.78938 31.863H5.05519V31.1857H3.78938V31.863ZM2.94281 31.1857H4.20863V30.5085H2.95088L2.94281 31.1857ZM3.36206 30.5004H3.78938V29.8312H3.36206V30.5004ZM2.52356 31.863H3.36206V31.1857H2.53163L2.52356 31.863ZM2.95088 32.5402H4.21669V31.863H2.95088V32.5402ZM3.37013 33.2175H3.79744V32.5402H3.37013V33.2175ZM4.63594 32.5402H5.90175V31.863H4.63594V32.5402ZM5.06325 33.2175H5.4825V32.5402H5.06325V33.2175ZM5.4825 31.863H6.32906V31.1857H5.4825V31.863ZM4.63594 31.1857H5.90175V30.5085H4.63594V31.1857ZM5.06325 30.5004H5.4825V29.8312H5.06325V30.5004ZM6.74831 31.863H7.57875V31.1857H6.75638L6.74831 31.863ZM7.16756 32.5402H8.43338V31.863H7.17563L7.16756 32.5402ZM8.01413 31.863H8.85263V31.1857H8.01413V31.863ZM7.16756 31.1857H8.43338V30.5085H7.17563L7.16756 31.1857ZM7.59488 30.5004H8.01413V29.8312H7.59488V30.5004ZM7.59488 33.2175H8.01413V32.5402H7.59488V33.2175ZM0 31.863H0.846563V31.1857H0V31.863Z" fill="#B20000"/>
<path fill-rule="evenodd" clip-rule="evenodd" d="M0.41925 32.5403H1.69313V31.863H0.41925V32.5403ZM1.26581 31.863H2.11238V31.1858H1.26581V31.863ZM0.41925 31.1858H1.69313V30.5085H0.41925V31.1858ZM0.846563 30.5004H1.26581V29.8313H0.846563V30.5004ZM0.846563 33.2175H1.26581V32.5403H0.846563V33.2175ZM0.41925 27.7914H2.11238V27.1142L0.41925 27.1142V27.7914ZM2.53163 27.7914H4.22475V27.1142H2.53163V27.7914ZM4.63594 27.7914H6.32906V27.1142H4.63594V27.7914ZM6.74831 27.7914H8.44144V27.1142L6.74831 27.1142V27.7914ZM3.37013 26.445H5.4825V25.7678H3.37013V26.445ZM0.41925 26.445H2.53163V25.7678H0.41925V26.445ZM6.32906 26.445H8.43338V25.7678H6.32906V26.445ZM8.43338 23.736H8.85263V23.0588H8.43338V23.736ZM0 23.7279H0.41925V23.0507H0V23.7279ZM3.78938 20.3417H4.21669V21.0109H3.79744L3.78938 20.3417ZM4.63594 20.3417H5.06325V21.0109H4.63594V20.3417ZM4.63594 18.9791H5.06325V19.6564H4.63594V18.9791ZM3.79744 18.9791H4.21669V19.6564H3.79744V18.9791ZM0.846563 37.281H1.68506V37.9583H0.846563V37.281ZM6.74831 24.4052H7.16756V23.7279H6.74831V24.4052ZM1.68506 24.4052H2.10431V23.7279H1.69313L1.68506 24.4052ZM3.79744 23.7279H5.06325V24.4052H3.78938L3.79744 23.7279Z" fill="#B20000"/>
</g>
<defs>
<clipPath id="clip0_17522_60563">
<path d="M0 4C0 1.79086 1.79086 0 4 0H36C38.2091 0 40 1.79086 40 4V36C40 38.2091 38.2091 40 36 40H4C1.79086 40 0 38.2091 0 36V4Z" fill="white"/>
</clipPath>
</defs>
</svg>
