<svg width="40" height="40" viewBox="0 0 40 40" fill="none" xmlns="http://www.w3.org/2000/svg">
<g clip-path="url(#clip0_17544_58093)">
<path d="M0 0H40V40H0V0Z" fill="black"/>
<path fill-rule="evenodd" clip-rule="evenodd" d="M0 0H40V40H0V0Z" fill="#000099"/>
<path fill-rule="evenodd" clip-rule="evenodd" d="M6.01562 0L40.1562 34.1406V0H6.01562Z" fill="#FFCC00"/>
<path fill-rule="evenodd" clip-rule="evenodd" d="M36.0469 36.75L34.0078 35.2578L31.9062 36.7422L32.7031 34.3047L30.6406 32.8047H33.1953L33.9922 30.3828L34.7734 32.8125L37.3359 32.8203L35.2891 34.3359L36.0469 36.75ZM42.0391 37.5625H39.4844L38.7031 35.125L37.9063 37.5547H35.3438L37.4062 39.0547L36.6172 41.4922L38.7109 40.0078L40.7578 41.4922L39.9922 39.0781L42.0391 37.5625ZM30.6094 29.6562L32.6562 28.1406H30.1016L29.3125 25.7031L28.5156 28.125H25.9609L28.0234 29.6328L27.2344 32.0625L29.3281 30.5781L31.3672 32.0703L30.6094 29.6562ZM25.8984 24.9375L27.9453 23.4219L25.3828 23.4141L24.6016 20.9766L23.8047 23.4141L21.25 23.4062L23.3125 24.9062L22.5156 27.3438L24.6172 25.8594L26.6562 27.3516L25.8984 24.9375ZM21.2344 20.2734L23.2812 18.7578H20.7266L19.9375 16.3203L19.1406 18.75H16.5859L18.6484 20.25L17.8594 22.6875L19.9531 21.2031L21.9922 22.6875L21.2344 20.2734ZM16.5156 15.5625L18.5625 14.0547L16 14.0469L15.2188 11.6094L14.4219 14.0469L11.8672 14.0391L13.9297 15.5391L13.1328 17.9766L15.2344 16.4922L17.2734 17.9766L16.5156 15.5703V15.5625ZM11.8516 10.8828L13.9062 9.375L11.3516 9.36719L10.5703 6.92969L9.76562 9.35938H7.20312L9.26562 10.8594L8.47656 13.2969L10.5703 11.8125L12.6094 13.2969L11.8516 10.8828ZM7.16406 6.19531L9.21875 4.6875L6.66406 4.67969L5.88281 2.24219L5.07812 4.67188H2.51562L4.57812 6.17188L3.78906 8.60938L5.88281 7.125L7.92969 8.60938L7.16406 6.19531ZM2.47656 1.50781L4.53125 0L1.96875 -0.0078125L1.1875 -2.44531L0.375 -0.015625H-2.17969L-0.109375 1.48438L-0.898438 3.92188L1.19531 2.4375L3.23438 3.92188L2.47656 1.50781Z" fill="white"/>
</g>
<defs>
<clipPath id="clip0_17544_58093">
<path d="M0 20C0 8.95431 8.95431 0 20 0C31.0457 0 40 8.95431 40 20C40 31.0457 31.0457 40 20 40C8.95431 40 0 31.0457 0 20Z" fill="white"/>
</clipPath>
</defs>
</svg>
