<svg width="40" height="40" viewBox="0 0 40 40" fill="none" xmlns="http://www.w3.org/2000/svg">
<g clip-path="url(#clip0_17522_60573)">
<path d="M0 0H13.3359V40H0V0Z" fill="#007A5E"/>
<path d="M13.3359 0H26.6641V40H13.3359V0Z" fill="#CE1126"/>
<path d="M26.6641 0H40V40H26.6641V0Z" fill="#FCD116"/>
<path d="M20 16.4444L18.8889 19.8222L20.5778 20.4L20 16.4444Z" fill="#FCD116"/>
<path d="M20 16.4444L21.1111 19.8222L19.4222 20.4L20 16.4444Z" fill="#FCD116"/>
<path d="M23.3815 18.9013L19.8257 18.8883L19.7981 20.6731L23.3815 18.9013Z" fill="#FCD116"/>
<path d="M23.3815 18.9013L20.5124 21.0018L19.441 19.5741L23.3815 18.9013Z" fill="#FCD116"/>
<path d="M22.0899 22.8765L21.0034 19.4907L19.2975 20.016L22.0899 22.8765Z" fill="#FCD116"/>
<path d="M22.0899 22.8765L19.2056 20.7969L20.2323 19.3368L22.0899 22.8765Z" fill="#FCD116"/>
<path d="M17.9101 22.8765L20.7944 20.7969L19.7677 19.3368L17.9101 22.8765Z" fill="#FCD116"/>
<path d="M17.9101 22.8765L18.9966 19.4907L20.7025 20.016L17.9101 22.8765Z" fill="#FCD116"/>
<path d="M16.6185 18.9013L19.4876 21.0018L20.559 19.5741L16.6185 18.9013Z" fill="#FCD116"/>
<path d="M16.6185 18.9013L20.1743 18.8883L20.2019 20.6731L16.6185 18.9013Z" fill="#FCD116"/>
</g>
<defs>
<clipPath id="clip0_17522_60573">
<path d="M0 4C0 1.79086 1.79086 0 4 0H36C38.2091 0 40 1.79086 40 4V36C40 38.2091 38.2091 40 36 40H4C1.79086 40 0 38.2091 0 36V4Z" fill="white"/>
</clipPath>
</defs>
</svg>
