<svg width="40" height="40" viewBox="0 0 40 40" fill="none" xmlns="http://www.w3.org/2000/svg">
<g clip-path="url(#clip0_17544_59686)">
<path d="M6.33594 0H34.6406V40H6.33594V0Z" fill="white"/>
<path d="M-7.8125 0H6.33594V40H-7.8125V0ZM34.6406 0H48.7891V40H34.6406V0ZM10.5703 19.3281L9.47656 19.7031L14.5859 24.1953C14.9766 25.3516 14.4531 25.6875 14.1172 26.2969L19.6641 25.5938L19.5234 31.1797L20.6797 31.1406L20.4219 25.6016L25.9844 26.2578C25.6406 25.5312 25.3359 25.1484 25.6484 23.9922L30.7578 19.7344L29.8672 19.4141C29.1328 18.8438 30.1797 16.6953 30.3359 15.3359C30.3359 15.3359 27.3594 16.3594 27.1641 15.8203L26.3906 14.375L23.6875 17.3438C23.3906 17.4219 23.2656 17.2969 23.1953 17.0469L24.4453 10.8203L22.4609 11.9375C22.2969 12.0078 22.1328 11.9375 22.0234 11.75L20.1094 7.92188L18.1406 11.8984C17.9922 12.0391 17.8438 12.0547 17.7188 11.9609L15.8281 10.8984L16.9609 17.0859C16.875 17.3203 16.6562 17.3984 16.4062 17.2656L13.8047 14.3125C13.4688 14.8594 13.2344 15.75 12.7891 15.9531C12.3438 16.1328 10.8359 15.5703 9.82812 15.3516C10.1719 16.5938 11.25 18.6562 10.5703 19.3359V19.3281Z" fill="#D52B1E"/>
</g>
<defs>
<clipPath id="clip0_17544_59686">
<path d="M0 20C0 8.95431 8.95431 0 20 0C31.0457 0 40 8.95431 40 20C40 31.0457 31.0457 40 20 40C8.95431 40 0 31.0457 0 20Z" fill="white"/>
</clipPath>
</defs>
</svg>
