<svg width="40" height="40" viewBox="0 0 40 40" fill="none" xmlns="http://www.w3.org/2000/svg">
<g clip-path="url(#clip0_17544_59689)">
<path d="M0 0H40V40H0V0Z" fill="#008000"/>
<path d="M20.9531 24.3438C23.5937 24.3438 25.7344 22.2031 25.7344 19.5625C25.7344 16.9219 23.5937 14.7812 20.9531 14.7812C18.3125 14.7812 16.1719 16.9219 16.1719 19.5625C16.1719 22.2031 18.3125 24.3438 20.9531 24.3438Z" fill="#FFE000"/>
<path d="M22.4453 23.5C24.6199 23.5 26.3828 21.7371 26.3828 19.5625C26.3828 17.3879 24.6199 15.625 22.4453 15.625C20.2707 15.625 18.5078 17.3879 18.5078 19.5625C18.5078 21.7371 20.2707 23.5 22.4453 23.5Z" fill="#008000"/>
<path d="M5.875 19.7969C8.64505 19.7969 10.8906 17.5513 10.8906 14.7812C10.8906 12.0112 8.64505 9.76562 5.875 9.76562C3.10495 9.76562 0.859375 12.0112 0.859375 14.7812C0.859375 17.5513 3.10495 19.7969 5.875 19.7969Z" fill="#FFE000"/>
<path d="M5.52344 18.5625H6.77344C6.77344 18.5625 6.83594 18.4453 6.76562 18.3906C6.69531 18.3281 6.42969 18.3125 6.5 18.1172C6.65625 17.6953 6.67188 17.8281 6.76562 16.8359C6.85938 15.8438 6.89844 14.2891 6.89844 14.2891H6.71875C6.71875 14.2891 6.75781 14.7734 6.64844 15.4062C6.54688 16.0312 6.51563 16.0859 6.39844 16.5781C6.28906 17.0547 6.26563 17.0938 6.16406 17.3828C6.0625 17.6641 6.04688 17.6719 5.89063 17.9297L5.69531 18.2578C5.64844 18.3359 5.59375 18.3125 5.5625 18.3672C5.53125 18.4297 5.52344 18.5625 5.52344 18.5625Z" fill="#802000"/>
<path fill-rule="evenodd" clip-rule="evenodd" d="M6.65947 14.2344H6.95452L6.95311 14.2904L6.89844 14.2891C6.95311 14.2904 6.95311 14.2904 6.95311 14.2904L6.95264 14.3082C6.95233 14.3199 6.95187 14.3371 6.95124 14.3593C6.94999 14.4039 6.94809 14.4685 6.94553 14.5492C6.9404 14.7106 6.93258 14.9361 6.92183 15.1927C6.90034 15.7056 6.86709 16.3435 6.82007 16.8411C6.7733 17.3361 6.74566 17.5552 6.70937 17.7034C6.69095 17.7786 6.67043 17.8352 6.64503 17.8988C6.63819 17.9159 6.63105 17.9335 6.62351 17.952C6.60306 18.0022 6.57965 18.0596 6.55137 18.1359C6.53804 18.1731 6.5428 18.194 6.5501 18.2076C6.55882 18.2238 6.57671 18.2396 6.60622 18.2557C6.63167 18.2695 6.66011 18.2807 6.69026 18.2925C6.69502 18.2943 6.69982 18.2962 6.70466 18.2981C6.7354 18.3103 6.77435 18.3259 6.80057 18.3485C6.85931 18.3953 6.85757 18.4653 6.84963 18.5072C6.84535 18.5299 6.83846 18.5498 6.83284 18.5637C6.82999 18.5708 6.82737 18.5766 6.82539 18.5808C6.8244 18.5829 6.82356 18.5846 6.82293 18.5858L6.82214 18.5874C6.82213 18.5874 6.82169 18.5882 6.77344 18.5625L6.82214 18.5874L6.80625 18.6172H5.46544L5.46884 18.5593L5.52344 18.5625C5.46884 18.5593 5.46884 18.5593 5.46884 18.5593L5.46896 18.5574L5.46929 18.5527C5.46959 18.5486 5.47004 18.5429 5.47068 18.5358C5.47197 18.5217 5.47402 18.5022 5.47711 18.4805C5.48297 18.4395 5.4936 18.3827 5.51359 18.3427L5.51426 18.3414L5.51502 18.3401C5.53855 18.2989 5.57341 18.2835 5.59446 18.2742C5.59654 18.2732 5.59848 18.2724 5.60026 18.2716C5.61833 18.2633 5.63279 18.2557 5.64836 18.2298C5.64834 18.2298 5.64838 18.2297 5.64836 18.2298L5.84363 17.9017C5.86502 17.8664 5.88387 17.8356 5.90034 17.8088C5.94491 17.736 5.97377 17.6889 5.99935 17.6398C6.03368 17.5739 6.06194 17.5046 6.11255 17.3645C6.12636 17.3251 6.13871 17.2905 6.15002 17.2588C6.22156 17.0582 6.25129 16.9748 6.34514 16.5659C6.37391 16.445 6.39757 16.3502 6.41823 16.2675C6.48196 16.0122 6.51807 15.8675 6.59446 15.3975C6.64858 15.0844 6.66607 14.8074 6.66993 14.6093C6.67186 14.5103 6.67041 14.431 6.66849 14.3766C6.66753 14.3494 6.66645 14.3284 6.66562 14.3143C6.66521 14.3073 6.66485 14.302 6.66461 14.2985L6.66433 14.2946L6.66424 14.2935L6.65947 14.2344ZM6.77665 14.3438C6.77703 14.3525 6.77743 14.3622 6.7778 14.3727C6.77978 14.4289 6.78126 14.5102 6.77929 14.6114C6.77534 14.8137 6.75759 15.0957 6.70237 15.4153C6.62526 15.8898 6.58819 16.0383 6.52414 16.2948C6.50353 16.3774 6.48012 16.4712 6.45169 16.5906C6.35653 17.0052 6.32557 17.092 6.25303 17.2955C6.24172 17.3273 6.2294 17.3618 6.21566 17.4009C6.16475 17.5419 6.13427 17.6175 6.09635 17.6903C6.06888 17.743 6.03731 17.7946 5.99171 17.869C5.97555 17.8954 5.95763 17.9246 5.93751 17.9578C5.93754 17.9578 5.93747 17.9579 5.93751 17.9578L5.74231 18.2858C5.71102 18.3379 5.67461 18.3578 5.64583 18.371L5.64492 18.3714C5.61997 18.3829 5.61569 18.3848 5.61072 18.3931C5.59979 18.4158 5.59112 18.4559 5.58539 18.496C5.58481 18.5 5.58428 18.504 5.58378 18.5078H6.73681C6.73888 18.5013 6.74078 18.4942 6.74216 18.4869C6.74783 18.4569 6.74223 18.4417 6.73205 18.4338L6.73063 18.4327L6.72929 18.4315C6.72036 18.4236 6.70058 18.4141 6.66448 18.3999C6.66022 18.3982 6.65578 18.3964 6.6512 18.3947C6.62153 18.3831 6.58594 18.3692 6.55394 18.3517C6.51703 18.3317 6.47731 18.3031 6.45381 18.2595C6.4289 18.2132 6.42682 18.159 6.44854 18.0987C6.47753 18.0204 6.50213 17.96 6.52274 17.9094C6.53012 17.8913 6.53701 17.8744 6.54345 17.8583C6.56785 17.7971 6.58639 17.7458 6.60313 17.6774C6.63715 17.5385 6.6642 17.3279 6.71118 16.8308C6.75791 16.3362 6.79107 15.7007 6.81255 15.1881C6.82328 14.932 6.83109 14.7069 6.83621 14.5457C6.83877 14.4652 6.84066 14.4007 6.84191 14.3563C6.84203 14.3519 6.84215 14.3477 6.84226 14.3438H6.77665Z" fill="#7B3100"/>
<path d="M6.48438 11.1328C6.48438 11.3281 6.46875 11.5781 6.39063 11.7891C6.3125 12.0234 6.21875 12.2578 6.22656 12.4922C6.09375 12.5469 5.96094 12.2188 5.83594 12.4141C5.92969 12.6719 6.14844 12.8828 6.29688 13.1172C6.32031 13.1953 6.53125 13.3906 6.41406 13.4297C6.10156 13.3281 6.02344 12.9297 5.82812 12.6875C5.7171 12.4866 5.55728 12.3169 5.3634 12.194C5.16952 12.0711 4.94782 11.999 4.71875 11.9844C4.53906 11.9844 3.96875 11.9375 4.11719 12.2344C4.33594 12.3906 4.60938 12.4844 4.82031 12.6484C4.98438 12.6641 5.27344 12.9297 5.25781 13.0391C4.97656 12.9219 4.84375 12.7813 4.53906 12.6641C4.125 12.5078 3.55469 12.5938 3.32812 13.0078C3.28125 13.1172 3.21875 13.4219 3.35156 13.4531C3.50781 13.2109 3.74219 12.9375 4.07031 13.0078C4.32812 13.0312 3.77344 13.5 3.99219 13.3984C4.05469 13.375 4.21094 13.2734 4.3125 13.2656C4.42188 13.25 4.48438 13.3281 4.5625 13.3438C4.72656 13.3672 4.77344 13.4297 4.75781 13.4688C4.74219 13.5156 4.67969 13.4766 4.52344 13.5312C4.44531 13.5547 4.39844 13.6328 4.29688 13.6641C4.20312 13.6953 4 13.6953 3.92969 13.6641C3.66406 13.5547 3.23438 13.5781 3.14844 13.8984C3.14844 14.0547 3.02344 13.8906 2.96875 13.9531C2.92188 14.1094 2.90625 14.2656 2.67188 14.2578C2.53125 14.4062 2.39063 14.5625 2.20312 14.6641C2.3125 14.9062 2.73438 14.4219 2.71094 14.625C2.53125 14.875 2.80469 14.9297 2.92969 14.7344C3.13281 14.5156 3.39062 14.2578 3.69531 14.4766C3.84375 14.6094 3.92969 14.3984 4.03125 14.4141C4.10156 14.5859 4.1875 14.4141 4.26562 14.375C4.38281 14.3594 4.34375 14.5313 4.5 14.4219C4.78906 14.2266 5.14844 14.3906 5.4375 14.2031C5.73438 14.0625 5.47656 14.3125 5.39062 14.4141C5.25781 14.6719 5.375 15.0156 5.07812 15.1719C4.96875 15.4844 5.21875 15.8906 4.96094 16.1172C4.92188 16.2656 5.29688 16.25 5.39844 16.3047C5.58594 16.3125 5.39844 15.8906 5.57031 15.8359C5.8125 15.9844 5.80469 15.5625 5.75781 15.4297C5.78125 15.1406 5.79688 14.8203 5.9375 14.5469C6.09375 14.2266 6.24219 14.6797 6.0625 14.8125C5.96875 15.1094 5.82813 15.4922 6.04688 15.7656C6.11719 15.7813 6.16406 15.9375 6.25 15.9844C6.32813 16.0391 6.44531 15.9766 6.46875 15.8281C6.57813 15.4063 6.52344 14.9375 6.67969 14.5234C6.78125 14.3906 6.9375 14.5 7 14.6172C7.21875 14.8672 7.36719 15.1797 7.625 15.3906C7.86963 15.4913 8.06948 15.6773 8.1875 15.9141C8.1875 16.1016 8.71875 16.125 8.5625 15.9141C8.40625 15.7188 8.50781 15.5078 8.66406 15.375C8.74219 15.3984 8.71875 15.25 8.66406 15.3047C8.55469 15.2812 8.54688 15.0859 8.6875 15.1797C8.9375 15.2578 8.67188 15 8.58594 14.9922C8.375 14.8672 8.14062 14.7188 8.03906 14.4922C8.30469 14.4922 8.58594 14.6484 8.85938 14.5547C9.08594 14.4375 9.30469 14.5625 9.38281 14.7578C9.55469 14.7266 9.48438 14.5625 9.38281 14.5C9.50781 14.4531 9.59375 14.3438 9.44531 14.25C9.36719 14.1406 9.55469 13.9688 9.32031 13.9766C9.32813 13.7969 9.25781 13.6406 9.07031 13.5781C8.875 13.4141 8.3125 13.8125 8.32812 13.4453C8.27344 13.25 8.5625 13.4219 8.64062 13.3203C8.71875 13.1094 8.25 13.1328 8.40625 12.9688C8.5 12.9062 8.98438 12.8125 8.60938 12.7344C8.52542 12.759 8.43707 12.7648 8.35064 12.7512C8.2642 12.7377 8.18182 12.7053 8.10938 12.6562C7.97656 12.8906 7.58594 12.5313 7.65625 12.9375C7.60156 13.0938 7.26562 13.4844 7.16406 13.1797C7.24219 12.9453 7.65625 12.8672 7.52344 12.5547C7.50781 12.3516 7.34375 12.5859 7.26563 12.5703C7.22656 12.4453 7.38281 12.2969 7.5 12.2656C7.71094 12.4375 7.71875 12.0547 7.92969 12.0859C8.08594 12.0547 7.875 11.9922 7.83594 11.9609C7.875 11.8516 8.10938 11.7891 7.88281 11.6953C7.67969 11.5391 7.53125 11.8516 7.36719 11.8594C7.21094 11.6797 7.50781 11.5938 7.59375 11.5C7.59375 11.4219 7.41406 11.4766 7.46875 11.4219C7.51562 11.3281 7.84375 11.3203 7.6875 11.1953C7.46094 11.1172 7.17188 11.1406 6.95313 11.2344C6.8125 11.2813 6.77344 11.5938 6.65625 11.5781C6.59375 11.4453 6.67188 11.1719 6.48438 11.125V11.1328ZM7.55469 14.1719C7.73438 14.1406 7.55469 14.4297 7.47656 14.4297C7.48438 14.3281 7.22656 14.3359 7.39062 14.2422C7.44034 14.2068 7.49586 14.1803 7.55469 14.1641V14.1719Z" fill="#008000"/>
<path d="M32.4355 25.5849L32.7518 26.5683L33.7179 26.2024L33.1464 27.0632L34.035 27.5905L33.0052 27.6803L33.1469 28.7038L32.4355 27.9546L31.7237 28.7033L31.8654 27.6803L30.836 27.59L31.7246 27.0628L31.1527 26.202L32.1188 26.5679L32.4355 25.5849Z" fill="#FFE000"/>
<path d="M26.6937 16.4937L27.0099 17.4771L27.976 17.1111L27.4046 17.972L28.2932 18.4992L27.2633 18.589L27.405 19.6125L26.6937 18.8633L25.9819 19.612L26.1236 18.589L25.0942 18.4988L25.9828 17.9715L25.4109 17.1107L26.377 17.4766L26.6937 16.4937Z" fill="#FFE000"/>
<path d="M32.4355 10.2733L32.7518 11.2567L33.7179 10.8908L33.1464 11.7516L34.035 12.2789L33.0052 12.3686L33.1469 13.3921L32.4355 12.643L31.7237 13.3917L31.8654 12.3686L30.836 12.2784L31.7246 11.7512L31.1527 10.8903L32.1188 11.2563L32.4355 10.2733Z" fill="#FFE000"/>
<path d="M37.5394 14.9625L37.8557 15.9459L38.8218 15.58L38.2503 16.4408L39.1389 16.968L38.109 17.0578L38.2508 18.0813L37.5394 17.3322L36.8276 18.0809L36.9693 17.0578L35.9399 16.9676L36.8285 16.4403L36.2566 15.5795L37.2227 15.9454L37.5394 14.9625Z" fill="#FFE000"/>
<path d="M34.7323 19.5697L34.9825 20.1826L35.6423 20.2309L35.1365 20.6583L35.2946 21.3009L34.7323 20.9518L34.1699 21.3013L34.3276 20.6588L33.8218 20.2313L34.4826 20.183L34.7323 19.5697Z" fill="#FFE000"/>
</g>
<defs>
<clipPath id="clip0_17544_59689">
<path d="M0 20C0 8.95431 8.95431 0 20 0C31.0457 0 40 8.95431 40 20C40 31.0457 31.0457 40 20 40C8.95431 40 0 31.0457 0 20Z" fill="white"/>
</clipPath>
</defs>
</svg>
