<svg width="40" height="40" viewBox="0 0 40 40" fill="none" xmlns="http://www.w3.org/2000/svg">
<g clip-path="url(#clip0_17544_59739)">
<path d="M0 0H40V40H0V0Z" fill="#000066"/>
<path fill-rule="evenodd" clip-rule="evenodd" d="M26.9375 19.5391L27.3828 18.1094L26.1797 17.1953L27.6953 17.1797L28.2031 15.7656L28.6953 17.1797L30.2109 17.2266L28.9922 18.1172L29.4297 19.5547L28.1875 18.6953M30.5078 19.8203L31.3984 18.625L30.5703 17.3516L32.0078 17.8516L32.9453 16.6953V18.2031L34.3516 18.7578L32.9141 19.1875L32.8438 20.6875L31.9609 19.4531M23.5234 20.7422L23.4609 19.2422L22.0234 18.7969L23.4453 18.25V16.7578L24.3828 17.9219L25.8203 17.4375L24.9766 18.6953L25.8672 19.8984L24.4141 19.5078M21.0078 23.0234L20.3828 21.6641L18.8828 21.8203L19.9766 20.7656L19.4141 19.3828L20.7188 20.0859L21.8594 19.0703L21.5703 20.5625L22.8438 21.3203L21.3594 21.5391M19.8594 26.3047L18.7188 25.3594L17.4297 26.1406L17.9766 24.7109L16.8828 23.7109L18.3594 23.7812L18.9609 22.375L19.3281 23.8438L20.8047 23.9766L19.5547 24.8203M19.8281 30L18.4062 29.5859L17.5469 30.8359L17.4844 29.2969L16.0781 28.8281L17.4609 28.2891V26.75L18.375 27.9609L19.7812 27.4844L18.9609 28.7578M21.4922 33.125L20.0312 33.3281L19.7344 34.8203L19.0625 33.4375L17.5938 33.5781L18.6484 32.5234L18.0312 31.1172L19.3516 31.8438L20.4453 30.8281L20.2109 32.3359M24.0703 35.5938L22.7656 36.2969L23 37.8047L21.8984 36.7422L20.5703 37.3906L21.1953 36.0312L20.1406 34.9297L21.625 35.1484L22.3047 33.8203L22.5938 35.3047M27.2109 36.0859L26.5078 37.3984L27.5078 38.5312L26.0156 38.25L25.25 39.5312L25.0391 38.0469L23.5625 37.7031L24.9219 37.0625L24.7734 35.5781L25.8281 36.6641M30.75 35.5391L30.6953 37.0391L32.1016 37.5859L30.6484 38.0234L30.5469 39.5156L29.6875 38.2891L28.2188 38.6719L29.1484 37.4688L28.3438 36.2109L29.7734 36.6953M34.4453 19.2578L35.4688 20.3438L36.8359 19.7109L36.1328 21.0703L37.1094 22.1875L35.6484 21.9531L34.8828 23.2812L34.6875 21.7734L33.2344 21.4609L34.5781 20.7812M37.5156 22.5859L37.9844 24.0156L39.4766 24.0391L38.2656 24.9531L38.6719 26.4062L37.4531 25.5469L36.2031 26.4141L36.6719 24.9688L35.4844 24.0625L36.9922 24.0234M38.6641 26.875L38.4922 28.3594L39.8438 29.0312L38.3594 29.3438L38.125 30.8281L37.3828 29.5234L35.8906 29.7734L36.9062 28.6562L36.2188 27.3281L37.6016 27.9453M37.8516 31.3594L37.1875 32.6953L38.2266 33.7891L36.7344 33.5703L36.0078 34.875L35.75 33.3984L34.2656 33.1094L35.5938 32.4219L35.3984 30.9375L36.4922 31.9922M35.6406 35.3516L34.3828 36.1328L34.7031 37.6172L33.5469 36.6328L32.2578 37.3672L32.8047 35.9609L31.6797 34.9297L33.1719 35.0547L33.7734 33.6797L34.1562 35.1641" fill="white"/>
<path d="M0 -0.0390625H20V19.9609H0V-0.0390625Z" fill="#000066"/>
<path d="M20 -0.0390625V2.46094L12.5781 9.96094L20 17.2656V19.9609H17.3828L9.92188 12.6172L2.65625 19.9609H0V17.3047L7.26562 10L0 2.85156V-0.0390625H2.42188L9.92188 7.30469L17.1875 -0.0390625H20Z" fill="white"/>
<path d="M7.1875 12.6172L7.61719 13.9453L1.64062 19.9609H0V19.8438L7.1875 12.6172ZM12.0312 12.1484L14.1406 12.4609L20 18.2031V19.9609L12.0312 12.1484ZM20 -0.0390625L12.5 7.61719L12.3438 5.89844L18.2031 -0.0390625H20ZM0 0L7.53906 7.38281L5.23438 7.07031L0 1.875V0Z" fill="#C8102E"/>
<path d="M6.875 -0.0390625V19.9609H13.125V-0.0390625H6.875ZM0 6.83594V13.0859H20V6.83594H0Z" fill="white"/>
<path d="M0 8.08594V11.8359H20V8.08594H0ZM8.125 -0.0390625V19.9609H11.875V-0.0390625H8.125Z" fill="#C8102E"/>
</g>
<defs>
<clipPath id="clip0_17544_59739">
<path d="M0 20C0 8.95431 8.95431 0 20 0C31.0457 0 40 8.95431 40 20C40 31.0457 31.0457 40 20 40C8.95431 40 0 31.0457 0 20Z" fill="white"/>
</clipPath>
</defs>
</svg>
