<svg width="40" height="40" viewBox="0 0 40 40" fill="none" xmlns="http://www.w3.org/2000/svg">
<g clip-path="url(#clip0_17522_60579)">
<path d="M0 0H40.0781V40.0781H0V0Z" fill="black"/>
<path d="M0 0H60.1172V40.0781H0V0Z" fill="#002B7F"/>
<path d="M0 25.0488H60.1172V30.0586H0V25.0488Z" fill="#F9E814"/>
<path d="M6.67969 3.33984L7.34766 5.67773H10.0195L7.68164 6.67969L8.34961 9.01758L6.67969 8.01562L4.67578 9.35156L5.34375 7.01367L3.67383 5.67773H6.01172L6.67969 3.33984Z" fill="white"/>
<path d="M13.3594 8.90625L14.25 12.0234H17.8125L14.6953 13.3594L15.5859 16.4766L13.3594 15.1406L10.6875 16.9219L11.5781 13.8047L9.35156 12.0234H12.4688L13.3594 8.90625Z" fill="white"/>
</g>
<defs>
<clipPath id="clip0_17522_60579">
<path d="M0 4C0 1.79086 1.79086 0 4 0H36C38.2091 0 40 1.79086 40 4V36C40 38.2091 38.2091 40 36 40H4C1.79086 40 0 38.2091 0 36V4Z" fill="white"/>
</clipPath>
</defs>
</svg>
