<svg width="40" height="40" viewBox="0 0 40 40" fill="none" xmlns="http://www.w3.org/2000/svg">
<g clip-path="url(#clip0_17544_59833)">
<path d="M0 0H40V40H0V0Z" fill="white"/>
<path d="M18.9844 33.2188C18.9756 33.2152 18.9676 33.2099 18.9609 33.2031V33.1953L18.8516 33.0859C18.7421 32.9627 18.6379 32.835 18.5391 32.7031L18.125 32.1875L18.0703 32.1172L17.5547 31.9609L17.1797 31.7812L17.375 31.5547L18.0781 31.8516L18.5938 31.9609L19.5469 32.6641C19.3635 32.8239 19.1863 32.9907 19.0156 33.1641C19.0094 33.1739 19.0041 33.1844 19 33.1953L19.0625 33.1562L19.125 33.2109L18.9922 33.2188H18.9844ZM15.4297 32.1484C14.9766 32.1484 14.5312 32.0234 14.1016 31.7734C13.6719 31.5234 14.1641 31.6719 14.2969 31.5703C14.4219 31.4766 14.6562 31.3594 15.0391 31.3594C15.4922 31.3594 16.0391 31.5156 16.6719 31.8125C16.6484 31.8281 16.1484 32.1484 15.4297 32.1484ZM13.4766 31.7188C13.3906 31.7188 13.3203 31.6797 13.2578 31.625C13.2104 31.569 13.1781 31.5017 13.1641 31.4297C13.1434 31.3401 13.1355 31.248 13.1406 31.1562C13.1747 31.1387 13.2118 31.1281 13.25 31.125C13.4219 31.125 13.5547 31.2812 13.6094 31.4219C13.6406 31.5 13.6484 31.5703 13.6328 31.625C13.6172 31.6797 13.5469 31.7109 13.4766 31.7109V31.7188ZM16.9141 31.3125C15.7578 31.1562 15.2734 30.7344 15.0625 30.4062C14.9295 30.2115 14.8662 29.9775 14.8828 29.7422C14.8828 29.7422 14.9609 29.7266 15.0625 29.7266C15.375 29.7266 16.1562 29.8828 16.9141 31.3125ZM14.5469 31.0859C14.0547 31.0859 13.6719 31.0078 13.4297 30.8359C13.3218 30.7673 13.2352 30.6699 13.1797 30.5547C13.1599 30.5127 13.1468 30.4679 13.1406 30.4219C13.3292 30.346 13.5311 30.3088 13.7344 30.3125C14.125 30.3125 14.7031 30.4375 15.3125 31.0312C15.0584 31.0631 14.8029 31.0814 14.5469 31.0859ZM12.1562 30.9922C11.6328 30.9922 10.9141 30.8359 10.4688 30.3906C10.8401 30.3025 11.22 30.2554 11.6016 30.25C12.0938 30.25 12.4609 30.3438 12.7109 30.5312C12.8047 30.5938 12.8516 30.6562 12.8594 30.7188C12.8672 30.7656 12.8438 30.8203 12.7891 30.8594C12.6797 30.9375 12.4766 30.9922 12.1953 30.9922H12.1562ZM10.4609 30.1328C10.4308 30.1317 10.4013 30.1242 10.3743 30.1107C10.3474 30.0972 10.3236 30.0781 10.3047 30.0547C10.265 30.0046 10.2382 29.9456 10.2266 29.8828C10.1953 29.7578 10.2031 29.6406 10.2031 29.6406C10.2266 29.626 10.2536 29.6179 10.2813 29.6172C10.3594 29.6172 10.4219 29.6562 10.4609 29.6953C10.5096 29.7439 10.5469 29.8026 10.5703 29.8672C10.5938 29.9453 10.6016 30 10.5859 30.0469C10.5703 30.0859 10.5234 30.125 10.4609 30.125V30.1328ZM14.3672 30.0391C14.2812 30.0391 14.2109 30.0078 14.1562 29.9531C14.1088 29.8971 14.0766 29.8299 14.0625 29.7578C14.0411 29.6657 14.0332 29.571 14.0391 29.4766C14.0712 29.4627 14.1056 29.4547 14.1406 29.4531C14.3125 29.4531 14.4531 29.6016 14.5 29.7422C14.5313 29.8203 14.5391 29.8984 14.5234 29.9453C14.5 30 14.4375 30.0391 14.3672 30.0391ZM12.4609 29.9609C11.4141 29.9219 10.8672 29.625 10.6016 29.3828C10.4826 29.2801 10.3844 29.1554 10.3125 29.0156C10.2888 28.9656 10.2705 28.9132 10.2578 28.8594C10.2578 28.8594 10.3516 28.8203 10.5156 28.8203H10.5391C10.8906 28.8203 11.6172 28.9688 12.4609 29.9609ZM13.6016 29.8516C13.0032 29.7874 12.4469 29.5134 12.0312 29.0781C11.8744 28.9125 11.7546 28.7154 11.6797 28.5C11.6797 28.5 11.7891 28.4766 11.9453 28.4688C11.9687 28.4681 11.9922 28.4681 12.0156 28.4688C12.4375 28.4766 13.2109 28.6719 13.6016 29.8516ZM9.27344 29.4453C8.99219 29.4453 8.72656 29.4219 8.47656 29.3516C8.03125 29.2422 7.84375 29.0781 7.75781 28.9531C7.72466 28.9011 7.70333 28.8424 7.69531 28.7812C7.69237 28.7579 7.69237 28.7343 7.69531 28.7109C7.69531 28.7109 7.98438 28.6328 8.39062 28.625C8.59771 28.6213 8.8046 28.6396 9.00781 28.6797C9.43363 28.768 9.81351 29.0065 10.0781 29.3516C10.0781 29.3516 9.74219 29.4453 9.27344 29.4453ZM11.2266 28.7422C11.1484 28.7422 11.0703 28.7031 11.0156 28.6484C10.9682 28.5924 10.9359 28.5252 10.9219 28.4531C10.901 28.3636 10.8931 28.2715 10.8984 28.1797C10.9306 28.1658 10.965 28.1578 11 28.1562H11.0078C11.1797 28.1562 11.3125 28.2969 11.3672 28.4453C11.3984 28.5234 11.4062 28.5859 11.3828 28.6484C11.3594 28.7031 11.3047 28.7344 11.2266 28.7344V28.7422ZM9.75781 28.5312C9.75 28.5312 9.35938 28.4375 8.96094 28.1875C8.58594 27.9531 8.14062 27.5625 8.07812 26.9375C8.01562 26.3125 8.11719 26.9219 8.17188 26.9219H8.1875C8.29688 26.9219 8.52344 26.9531 8.79688 27.1562C9.14844 27.4219 9.46875 27.8906 9.75781 28.5391V28.5312ZM10.7188 28.5C10.7188 28.5 10.4375 28.3906 10.0938 28.0938C9.59861 27.6741 9.21259 27.1406 8.96875 26.5391C8.96875 26.5391 9.04688 26.5 9.16406 26.4922C9.17187 26.4919 9.17969 26.4919 9.1875 26.4922H9.21875C9.375 26.4922 9.61719 26.5625 9.89062 26.8594C10.2818 27.3401 10.5643 27.8998 10.7188 28.5ZM8.21875 28.4219C7.90625 28.4219 7.79688 28.25 7.75781 28.1797C7.7272 28.1001 7.71647 28.0143 7.72656 27.9297C7.7776 27.916 7.83001 27.9082 7.88281 27.9062H7.89844C8.14844 27.9062 8.35156 28.0391 8.4375 28.1641C8.45312 28.1875 8.50781 28.2812 8.46094 28.3438C8.42969 28.3984 8.35156 28.4219 8.22656 28.4219H8.21875ZM7.51562 27.5312C7.33594 27.5312 7.0625 27.5156 6.77344 27.4688C6.48438 27.4141 6.32031 27.1719 6.23438 26.9766C6.17677 26.8445 6.13735 26.7052 6.11719 26.5625C7 26.5859 7.42188 26.8438 7.61719 27.0547C7.73836 27.1827 7.8127 27.3479 7.82812 27.5234L7.51562 27.5312ZM8.4375 26.6094C8.36526 26.519 8.29748 26.4251 8.23438 26.3281C8.125 26.1641 8.03125 25.9922 8.03125 25.8594C8.02405 25.6661 8.00841 25.4732 7.98438 25.2812L7.92969 24.8906C7.95313 24.9062 8.48438 25.1016 8.48438 25.6016C8.48438 26.1016 8.4375 26.6016 8.4375 26.6094ZM7.75 26.5625H7.72656C7.57031 26.5312 7.29688 26.4062 6.99219 26.2344C6.70302 26.0807 6.43946 25.883 6.21094 25.6484C6.07031 25.4844 5.97656 25.2188 5.96094 24.8672C5.94825 24.7112 5.94825 24.5544 5.96094 24.3984C5.99055 24.3851 6.02229 24.3772 6.05469 24.375C6.17188 24.375 6.28906 24.4297 6.46094 24.5469C6.61707 24.6564 6.76345 24.7793 6.89844 24.9141C7.06675 25.0824 7.22584 25.2598 7.375 25.4453C7.54106 25.7549 7.68465 26.0761 7.80469 26.4062V26.5234C7.79842 26.5373 7.78731 26.5484 7.77344 26.5547C7.76313 26.5568 7.7525 26.5568 7.74219 26.5547L7.75 26.5625Z" fill="#435125"/>
<path d="M17.1641 33.2188C17.1728 33.2152 17.1808 33.2099 17.1875 33.2031V33.1953L17.2969 33.0859C17.4063 32.9627 17.5106 32.835 17.6094 32.7031L18.0234 32.1875L18.0781 32.1172L18.5938 31.9609L18.9688 31.7812L18.7734 31.5547L18.0703 31.8516L17.5547 31.9609L16.6016 32.6641C16.785 32.8239 16.9622 32.9907 17.1328 33.1641C17.1391 33.1739 17.1443 33.1844 17.1484 33.1953L17.0859 33.1562L17.0234 33.2109L17.1562 33.2188H17.1641ZM20.7188 32.1484C21.1719 32.1484 21.6172 32.0234 22.0469 31.7734C22.4766 31.5234 21.9844 31.6719 21.8516 31.5703C21.7266 31.4766 21.4922 31.3594 21.1094 31.3594C20.6562 31.3594 20.1094 31.5156 19.4766 31.8125C19.5 31.8281 20 32.1484 20.7188 32.1484ZM22.6719 31.7188C22.7578 31.7188 22.8281 31.6797 22.8906 31.625C22.938 31.569 22.9703 31.5017 22.9844 31.4297C23.005 31.3401 23.0129 31.248 23.0078 31.1562C22.9738 31.1387 22.9366 31.1281 22.8984 31.125C22.7266 31.125 22.5938 31.2812 22.5391 31.4219C22.5078 31.5 22.5 31.5703 22.5156 31.625C22.5312 31.6797 22.6016 31.7109 22.6719 31.7109V31.7188ZM19.2344 31.3125C20.3906 31.1562 20.875 30.7344 21.0859 30.4062C21.2189 30.2115 21.2822 29.9775 21.2656 29.7422C21.2656 29.7422 21.1875 29.7266 21.0859 29.7266C20.7734 29.7266 19.9922 29.8828 19.2344 31.3125ZM21.6016 31.0859C22.0938 31.0859 22.4766 31.0078 22.7188 30.8359C22.8266 30.7673 22.9132 30.6699 22.9688 30.5547C22.9885 30.5127 23.0017 30.4679 23.0078 30.4219C22.8192 30.346 22.6173 30.3088 22.4141 30.3125C22.0234 30.3125 21.4453 30.4375 20.8359 31.0312C21.09 31.0631 21.3456 31.0814 21.6016 31.0859ZM23.9922 30.9922C24.5156 30.9922 25.2344 30.8359 25.6797 30.3906C25.3084 30.3025 24.9285 30.2554 24.5469 30.25C24.0547 30.25 23.6875 30.3438 23.4375 30.5312C23.3438 30.5938 23.2969 30.6562 23.2891 30.7188C23.2812 30.7656 23.3047 30.8203 23.3594 30.8594C23.4688 30.9375 23.6719 30.9922 23.9531 30.9922H23.9922ZM25.6875 30.1328C25.7176 30.1317 25.7471 30.1242 25.7741 30.1107C25.801 30.0972 25.8248 30.0781 25.8438 30.0547C25.8835 30.0046 25.9103 29.9456 25.9219 29.8828C25.9531 29.7578 25.9453 29.6406 25.9453 29.6406C25.9218 29.626 25.8948 29.6179 25.8672 29.6172C25.7891 29.6172 25.7266 29.6562 25.6875 29.6953C25.6389 29.7439 25.6015 29.8026 25.5781 29.8672C25.5547 29.9453 25.5469 30 25.5625 30.0469C25.5781 30.0859 25.625 30.125 25.6875 30.125V30.1328ZM21.7812 30.0391C21.8672 30.0391 21.9375 30.0078 21.9922 29.9531C22.0396 29.8971 22.0719 29.8299 22.0859 29.7578C22.1073 29.6657 22.1152 29.571 22.1094 29.4766C22.0772 29.4627 22.0428 29.4547 22.0078 29.4531C21.8359 29.4531 21.6953 29.6016 21.6484 29.7422C21.6172 29.8203 21.6094 29.8984 21.625 29.9453C21.6484 30 21.7109 30.0391 21.7812 30.0391ZM23.6875 29.9609C24.7344 29.9219 25.2812 29.625 25.5469 29.3828C25.6659 29.2801 25.764 29.1554 25.8359 29.0156C25.8596 28.9656 25.878 28.9132 25.8906 28.8594C25.8906 28.8594 25.7969 28.8203 25.6328 28.8203H25.6094C25.2578 28.8203 24.5312 28.9688 23.6875 29.9609ZM22.5469 29.8516C23.1453 29.7874 23.7016 29.5134 24.1172 29.0781C24.274 28.9125 24.3939 28.7154 24.4688 28.5C24.4688 28.5 24.3594 28.4766 24.2031 28.4688C24.1797 28.4681 24.1562 28.4681 24.1328 28.4688C23.7109 28.4766 22.9375 28.6719 22.5469 29.8516ZM26.875 29.4453C27.1562 29.4453 27.4219 29.4219 27.6719 29.3516C28.1172 29.2422 28.3047 29.0781 28.3906 28.9531C28.4238 28.9011 28.4451 28.8424 28.4531 28.7812C28.4561 28.7579 28.4561 28.7343 28.4531 28.7109C28.4531 28.7109 28.1641 28.6328 27.7578 28.625C27.5507 28.6213 27.3438 28.6396 27.1406 28.6797C26.7148 28.768 26.3349 29.0065 26.0703 29.3516C26.0703 29.3516 26.4062 29.4453 26.875 29.4453ZM24.9219 28.7422C25 28.7422 25.0781 28.7031 25.1328 28.6484C25.1802 28.5924 25.2125 28.5252 25.2266 28.4531C25.2474 28.3636 25.2553 28.2715 25.25 28.1797C25.2178 28.1658 25.1834 28.1578 25.1484 28.1562H25.1406C24.9688 28.1562 24.8359 28.2969 24.7812 28.4453C24.75 28.5234 24.7422 28.5859 24.7656 28.6484C24.7891 28.7031 24.8438 28.7344 24.9219 28.7344V28.7422ZM26.3906 28.5312C26.3984 28.5312 26.7891 28.4375 27.1875 28.1875C27.5625 27.9531 28.0078 27.5625 28.0703 26.9375C28.1328 26.3125 28.0312 26.9219 27.9766 26.9219H27.9609C27.8516 26.9219 27.625 26.9531 27.3516 27.1562C27 27.4219 26.6797 27.8906 26.3906 28.5391V28.5312ZM25.4297 28.5C25.4297 28.5 25.7109 28.3906 26.0547 28.0938C26.5498 27.6741 26.9358 27.1406 27.1797 26.5391C27.1797 26.5391 27.1016 26.5 26.9844 26.4922C26.9766 26.4919 26.9687 26.4919 26.9609 26.4922H26.9297C26.7734 26.4922 26.5312 26.5625 26.2578 26.8594C25.8667 27.3401 25.5842 27.8998 25.4297 28.5ZM27.9297 28.4219C28.2422 28.4219 28.3516 28.25 28.3906 28.1797C28.4212 28.1001 28.432 28.0143 28.4219 27.9297C28.3708 27.916 28.3184 27.9082 28.2656 27.9062H28.25C28 27.9062 27.7969 28.0391 27.7109 28.1641C27.6953 28.1875 27.6406 28.2812 27.6875 28.3438C27.7188 28.3984 27.7969 28.4219 27.9219 28.4219H27.9297ZM28.6328 27.5312C28.8125 27.5312 29.0859 27.5156 29.375 27.4688C29.6641 27.4141 29.8281 27.1719 29.9141 26.9766C29.9717 26.8445 30.0111 26.7052 30.0312 26.5625C29.1484 26.5859 28.7266 26.8438 28.5312 27.0547C28.4101 27.1827 28.3357 27.3479 28.3203 27.5234L28.6328 27.5312ZM27.7109 26.6094C27.7832 26.519 27.851 26.4251 27.9141 26.3281C28.0234 26.1641 28.1172 25.9922 28.1172 25.8594C28.1244 25.6661 28.14 25.4732 28.1641 25.2812L28.2188 24.8906C28.1953 24.9062 27.6641 25.1016 27.6641 25.6016C27.6641 26.1016 27.7109 26.6016 27.7109 26.6094ZM28.3984 26.5625H28.4219C28.5781 26.5312 28.8516 26.4062 29.1562 26.2344C29.4454 26.0807 29.709 25.883 29.9375 25.6484C30.0781 25.4844 30.1719 25.2188 30.1875 24.8672C30.2002 24.7112 30.2002 24.5544 30.1875 24.3984C30.1579 24.3851 30.1261 24.3772 30.0938 24.375C29.9766 24.375 29.8594 24.4297 29.6875 24.5469C29.5314 24.6564 29.385 24.7793 29.25 24.9141C29.0817 25.0824 28.9226 25.2598 28.7734 25.4453C28.6074 25.7549 28.4638 26.0761 28.3438 26.4062V26.5234C28.35 26.5373 28.3611 26.5484 28.375 26.5547C28.3853 26.5568 28.3959 26.5568 28.4062 26.5547L28.3984 26.5625Z" fill="#435125"/>
<path d="M36.5859 6.36719L36.4297 6.42969L36.3672 6.45312L36.1797 6.4375L36 6.52344L35.6875 6.74219L35.6719 6.75L35.5547 6.78125L35.4453 6.73437L35.3828 6.76562L35.3594 6.89062L35.3047 6.98438L35.2266 7.03906L34.9766 7.0625L34.7656 7.17188L34.4844 7.09375L34.3594 7.14844L34.0859 7.39062L33.9453 7.46094H33.8984L33.7109 7.44531L33.6328 7.47656L33.5156 7.57812L33.2969 7.59375L33.2266 7.64062L33.1172 7.85938L33 7.98437L32.9375 7.99219L32.8594 7.96875L32.8047 7.97656L32.7812 8.11719L32.7344 8.17969L32.5781 8.22656L32.4688 8.32812L32.3594 8.375H32.1875L32.0547 8.45312L31.7891 8.47656L31.6875 8.57812L31.6563 8.60156L31.6094 8.63281L31.5312 8.67969L31.5078 8.69531L31.4062 8.67188L31.2891 8.71875L31.2422 8.64062L31.1641 8.69531H31.0547L30.9219 8.64062L30.8203 8.59375L30.7422 8.60938L30.7188 8.73438V8.75L30.6406 8.85156L30.4922 8.9375L30.4766 8.96875L30.3125 9.17969L30 9.51562L29.7266 9.64844L29.4531 9.72656L29.2578 9.88281L28.75 10.1406L27.9531 10.5391L27.7891 10.5938L27.5547 10.625L27.1406 10.7812L26.7656 10.8906L26.6719 10.9219L26.1562 11.0781L25.9141 11.0547L25.7656 11.1094L25.3906 11.0625L25.1328 11.0703L24.9766 11.1016L24.6641 11.2578L24.1406 11.5L23.9688 11.6562L23.6953 11.8047L23.3828 11.8984V11.7656L23.2734 11.7969L23.1953 11.8203L22.9375 11.8594H22.7969L22.7109 11.8359H22.6953L22.1719 12.0156L21.5938 12.0703L21.3047 12.1641H21.0859L20.9453 12.1953L20.6797 12.2344L20.5859 12.2031H20.5625L19.7812 12.2344L19.4219 12.1953L19.25 12.2344L18.9688 12.1328L18.5469 12.0859L18.4531 12.0547L18.2344 11.9922L18.1328 12.0469L18.0547 12.0547L17.8828 11.9922H17.8125L17.6719 12.0469L17.5859 12.0234L17.5078 11.9609L17.3203 11.9375L17.2109 11.8359L16.5859 11.9219L16.4141 11.875L15.8438 11.7031L15.75 11.7109L15.6406 11.7891L15.4688 11.8594L15.3203 11.8984H15.1172L14.8828 11.8438L14.6484 11.7266L14.5547 11.7031L14.3594 11.7266H14.2969L13.9375 11.5312L13.4687 11.2422L13.1484 11.0859L13.0234 11.0703L13.0078 11.125L13.0703 11.3125L13.0938 11.5L13.0859 11.6641V11.7734L13.1094 11.8672L13.2266 11.9922L13.2734 12.125L13.3125 12.4766V12.8359L13.25 13.4062L13.2344 13.4844L13.1641 13.7891L13.1094 14.0547L12.875 14.7812L12.8047 14.8672L12.6484 14.9766L12.2812 15.2266L12.0156 15.3828L11.9375 15.4141L11.7188 15.4297L11.5859 15.4219L11.4141 15.3281L11.2578 15.2891L11.0391 15.1328L10.7969 15.0859L10.5312 14.9297L10.4688 14.8516L10.3203 14.8359L10.125 14.7734L10.0469 14.7578L10 14.7422L9.75 14.7344L9.51562 14.625L9.39062 14.5937L9.21875 14.5859L9.03906 14.6641L8.95312 14.7109L8.83594 14.6641H8.75781L8.65625 14.8125L8.64844 14.8359L8.58594 14.8672H8.4375L8.375 14.8906L8.28125 14.9297L8.20312 14.9688L8.16406 14.9844H8.13281L8.09375 15H8.03906L7.94531 14.9531L7.89844 14.9219L7.8125 14.9062L7.76562 14.9375V15.0937L7.71875 15.1797L7.57812 15.3125L7.44531 15.4297L7.35156 15.5703L7.10938 16.125L6.95312 16.3594L6.90625 16.4062L6.75 16.5859L6.60156 16.6953L6.27344 16.9453L5.96094 17.0625L5.69531 17.1172H5.57031L5.32031 17.0859L5.10156 17.0156L4.85938 16.8594L4.58594 16.6484L4.20312 16.2656L4.14844 16.2344H4.14062L4.02344 16.1562H3.92969L3.89844 16.2109L3.875 16.2891L3.85938 16.3672L3.82031 16.7969V16.8203L3.84375 16.9922L4.14062 17.4062L4.22656 17.625L4.24219 17.6484L4.30469 17.75L4.35156 17.8281L4.45312 18.125L4.38281 18.2969L4.42188 18.4062L4.32812 18.4766L4.3125 18.5703L4.57812 18.9062L4.63281 19.0469L4.57031 19.25L4.46875 19.3594L4.4375 19.3906L4.45312 19.4766L4.57812 19.5859L4.78125 19.7734L4.89062 20.0469L4.96875 20.1172L5.07031 20.0938L5.125 20.1406H5.20312L5.28125 20.2187L5.33594 20.2422L5.42188 20.2812L5.48437 20.3672L5.5 20.625L5.625 20.9531V21.1562L5.70312 21.2812L5.72656 21.3828L5.6875 21.6562L5.78125 21.7422L5.88281 21.7187L5.95312 21.7344L6.0625 21.8203L6.19531 22.0234L6.32031 22.0078L6.39844 22.0469L6.78906 22.3984L6.88281 22.4453L6.96094 22.4766L7.03906 22.5547L7.15625 22.4766H7.17188L7.30469 22.4609L7.36719 22.5L7.47656 22.5781H7.63281L7.94531 22.6797L8.09375 22.7109L8.375 22.8906L8.5 22.9687L8.57031 23.0234L8.66406 23.1016L8.85156 23.1797L9.10156 23.2422L9.17188 23.2656L9.52344 23.4062L9.71094 23.4453L9.89062 23.5156L10.0156 23.5625H10.1094L10.2422 23.4453H10.375L10.4844 23.4687L10.5859 23.4531L10.75 23.3516L10.7891 23.2969L10.9062 23.2422L11.2969 23.1953L11.4141 23.2344L11.7109 23.1016L11.9141 23.1562L12.0859 23.0937L12.4766 23.1797L12.5781 23.2578L12.6875 23.3828H12.8281L12.7812 23.4766L12.9453 23.6562L13.1016 23.8906V23.9141L13.2188 24.2344L13.2969 24.3516L13.3594 24.5078V24.6172L13.2734 24.6875L13.2578 24.7266V24.7422L13.2734 24.7812L13.3047 24.7656L13.3672 24.7266L13.4453 24.7187L13.5859 24.7344H13.6719L13.8203 24.6719L13.9141 24.625L14.0703 24.6875H14.2344L14.3047 24.7187L14.5078 24.8047L14.6094 24.8203L14.6484 24.7891L14.6719 24.7344L14.6563 24.6719L14.5781 24.5781L14.4141 24.3828L14.3359 24.2812L14.2891 24.1406L14.2734 23.9531L14.2578 23.8281L14.2812 23.6641L14.3281 23.6016L14.3594 23.4687L14.3672 23.4375L14.4609 23.3125L14.7109 23.1562L14.9766 22.9219L15.1875 22.7734L15.4062 22.6797V22.6562L15.4375 22.6641L15.9844 22.4766H16L16.2422 22.4297L17.9062 22.5469L17.9688 22.5312L18.0234 22.375L18.0703 22.3281L18.2578 22.25L18.3359 22.2344L18.5703 22.2969L18.6719 22.3203L18.8281 22.2344H18.9375L19.1719 22.1094H19.3125L19.3594 22.0937L19.6328 21.8906L19.8984 21.8125L19.9766 21.7812L19.9922 21.7656L20.2656 21.625L20.4375 21.4922L20.5859 21.4141L20.7422 21.375L21.1719 21.3438L21.2578 21.2031L21.4375 21.1719L21.5547 21.0469L21.6797 21L21.7656 20.8672L21.8438 20.7578L21.9531 20.6953L22.2891 20.6797L22.6953 20.7266L22.75 20.6953L22.8359 20.3672L22.9297 20.3047L23.1875 19.9375V19.6875L23.2344 19.5234L23.2031 19.2266L23.2422 18.9297L23.3984 18.5547L23.5391 18.3984L23.7656 18.25L23.8828 18.2031L24.0391 18.1719H24.0703L24.1094 18.1641L24.6719 18.1562H24.875L25.0625 18.1484L25.5312 18.2266L25.5703 18.2422L25.7266 18.2891L25.9141 18.4375L26.1094 18.625L26.1484 18.6641L26.2734 18.7109L26.3125 18.7344L26.4219 18.7109L26.5703 18.6328L26.6797 18.5391L26.8359 18.4609V18.4531L26.9219 18.3203L26.9609 18.2656L27.2578 18.1484L27.6094 18.1328L27.6484 18.1094L27.6719 18.1016L27.7578 17.9922H27.8438L28.0547 18.0703L28.2031 18.0391L28.3203 18.0859L28.4062 18.0703L28.5781 18.0547L28.7656 18.1797L28.875 18.1953L29.25 18.4141H29.2812L29.2969 18.4219L29.3438 18.4141L29.4141 18.3906L29.4297 18.3984L29.4688 18.4609L29.5312 18.4687L29.6016 18.375L29.5703 18.3359L29.5625 18.3203L29.4297 18.2891L29.3047 18.0859L29.4219 17.9609L29.2422 17.7422L29.2109 17.7031L29.2031 17.6875L29.1406 17.5938L28.8281 17.1094L28.4062 16.7812L28.2656 16.6641L28.2109 16.625L27.9922 16.3984L27.8359 16.1953L27.8125 16.1484L27.7812 16.0703L27.6875 15.875L27.5312 15.7422L27.3906 15.6016V15.5938L27.0625 15.1562L27 15.1172H26.8594L26.8438 15.1016V15.0937L26.9062 15.0156L26.9844 15L27.0156 14.9297L26.875 14.5234V14.5078L26.8594 14.3828L26.9766 13.7891L26.9922 13.7109L27.1875 13.3203L27.3125 13.2187L27.4375 12.9609L27.5547 12.7969L27.6641 12.6875L27.6797 12.6797L27.875 12.5625L28.0391 12.5391L28.1953 12.5156L28.4688 12.5937H28.7812L28.8984 12.5781L29.0938 12.5156L29.1875 12.4609L29.2344 12.3828L29.3281 12.0547L29.3672 11.9453L29.4219 11.8359L29.7813 11.4219L30.0469 11.1797L30.6484 10.7344L30.9453 10.5625L31.0938 10.4688L32.4375 9.875L32.7812 9.52344L32.9609 9.33594L33.2891 9.125L33.6641 8.96875L33.9844 8.71094L34.0547 8.625L34.1484 8.33594L34.2188 8.32031L34.2891 8.17188L34.3047 8.13281L34.5703 7.94531L34.6016 7.92969L35.625 7.42188L35.7812 7.4375L35.8594 7.32031L36.1562 7.27344L36.2031 7.25781L36.2812 7.22656L36.3438 7.11719V7.09375L36.3516 6.8125L36.4141 6.73437L36.4531 6.54688L36.4844 6.5L36.5156 6.46094L36.6016 6.39844L36.5859 6.36719Z" fill="#D47600"/>
</g>
<defs>
<clipPath id="clip0_17544_59833">
<path d="M0 20C0 8.95431 8.95431 0 20 0C31.0457 0 40 8.95431 40 20C40 31.0457 31.0457 40 20 40C8.95431 40 0 31.0457 0 20Z" fill="white"/>
</clipPath>
</defs>
</svg>
