<svg width="40" height="40" viewBox="0 0 40 40" fill="none" xmlns="http://www.w3.org/2000/svg">
<g clip-path="url(#clip0_17544_59703)">
<path d="M0 0.00280762H39.9844V39.9872H0V0.00280762Z" fill="black"/>
<path d="M0 0.00280762H53.3125V39.9872H0V0.00280762Z" fill="#007FFF"/>
<path d="M2.39906 7.99968H7.99688L9.72953 2.40187L11.4622 7.99968H17.06L12.5284 11.465L14.2611 17.0628L9.72953 13.5975L5.19797 17.0628L6.93063 11.465L2.39906 7.99968ZM49.9805 0.00280762L0 29.9911V39.9872H3.33203L53.3125 9.9989V0.00280762H49.9805Z" fill="#F7D618"/>
<path d="M53.3125 0.00280762L0 31.9903V39.9872L53.3125 7.99968V0.00280762Z" fill="#CE1021"/>
</g>
<defs>
<clipPath id="clip0_17544_59703">
<path d="M0 20C0 8.95431 8.95431 0 20 0C31.0457 0 40 8.95431 40 20C40 31.0457 31.0457 40 20 40C8.95431 40 0 31.0457 0 20Z" fill="white"/>
</clipPath>
</defs>
</svg>
