<svg width="40" height="40" viewBox="0 0 40 40" fill="none" xmlns="http://www.w3.org/2000/svg">
<g clip-path="url(#clip0_17544_59859)">
<path d="M0 0H40V40H0V0Z" fill="black"/>
<path fill-rule="evenodd" clip-rule="evenodd" d="M-20.1797 0H60.0938V40H-20.1797V0Z" fill="#108C00"/>
<path fill-rule="evenodd" clip-rule="evenodd" d="M-20.3125 13.9219H60.3594V17.8359H-20.3125V13.9219Z" fill="#FFD600"/>
<path fill-rule="evenodd" clip-rule="evenodd" d="M14.1406 0H17.9297V40H14.1484L14.1406 0Z" fill="#FFD600"/>
<path fill-rule="evenodd" clip-rule="evenodd" d="M17.7969 0H21.5781V40H17.7969V0Z" fill="#000001"/>
<path fill-rule="evenodd" clip-rule="evenodd" d="M-20.3125 17.7031H60.3594V21.625H-20.3125V17.7031Z" fill="#000001"/>
<path fill-rule="evenodd" clip-rule="evenodd" d="M-20.3125 21.625H60.3594V25.5391H-20.3125V21.625Z" fill="white"/>
<path fill-rule="evenodd" clip-rule="evenodd" d="M21.5781 0H25.3672V40H21.5781V0Z" fill="white"/>
<path d="M9.4375 20.0312C9.4375 25.964 14.226 30.7734 20.1328 30.7734C26.0397 30.7734 30.8281 25.964 30.8281 20.0312C30.8281 14.0985 26.0397 9.28906 20.1328 9.28906C14.226 9.28906 9.4375 14.0985 9.4375 20.0312Z" fill="#E72910"/>
<path fill-rule="evenodd" clip-rule="evenodd" d="M19.5703 10.7031L20.0078 9.45312L20.4062 10.6797C20.4062 10.6797 21.7422 10.7188 21.7422 10.6953C21.7422 10.6719 20.6875 11.5 20.6875 11.5L21.1641 12.875C21.1484 12.8359 20.0078 12.0234 20.0078 12.0234C20.0078 12.0234 18.8516 12.8359 18.875 12.8359C18.8984 12.8359 19.3125 11.5078 19.3125 11.5078L18.2734 10.7188L19.5703 10.6953V10.7031Z" fill="black"/>
<path fill-rule="evenodd" clip-rule="evenodd" d="M19.6328 10.7578L20 9.6875L20.3438 10.75C20.3438 10.75 21.5078 10.7812 21.5078 10.7656C21.5078 10.75 20.5938 11.4688 20.5938 11.4688L21 12.6562C20.9844 12.6172 20 11.9219 20 11.9219C20 11.9219 19 12.625 19.0156 12.625C19.0312 12.625 19.4062 11.4688 19.4062 11.4688L18.5 10.7812L19.625 10.7656L19.6328 10.7578Z" fill="#FFE700"/>
<path fill-rule="evenodd" clip-rule="evenodd" d="M19.7891 10.9375L20.0078 10.3125L20.2109 10.9297C20.2109 10.9297 20.875 10.9453 20.875 10.9297C20.875 10.9141 20.3516 11.3359 20.3516 11.3359L20.5859 12.0234C20.5781 12 20.0078 11.6016 20.0078 11.6016L19.4453 12.0078C19.4609 12.0078 19.6641 11.3438 19.6641 11.3438L19.1484 10.9531L19.7891 10.9375Z" fill="#108C00"/>
<path fill-rule="evenodd" clip-rule="evenodd" d="M27.8828 16.5469L28.3203 15.2969L28.7109 16.5234C28.7109 16.5234 30.0547 16.5703 30.0547 16.5469C30.0547 16.5234 29 17.3516 29 17.3516L29.4688 18.7266C29.4531 18.6875 28.3203 17.875 28.3203 17.875C28.3203 17.875 27.1641 18.6875 27.1875 18.6875C27.2109 18.6875 27.625 17.3594 27.625 17.3594L26.5859 16.5625L27.8828 16.5391V16.5469Z" fill="black"/>
<path fill-rule="evenodd" clip-rule="evenodd" d="M27.9375 16.6094L28.3203 15.5234L28.6641 16.5938C28.6641 16.5938 29.8203 16.625 29.8203 16.6094C29.8203 16.5938 28.9062 17.3125 28.9062 17.3125L29.3203 18.4922C29.3047 18.4609 28.3203 17.7578 28.3203 17.7578C28.3203 17.7578 27.3203 18.4609 27.3359 18.4609C27.3516 18.4609 27.7188 17.3047 27.7188 17.3047L26.8203 16.625L27.9375 16.6094Z" fill="#FFE700"/>
<path fill-rule="evenodd" clip-rule="evenodd" d="M28.1016 16.7891L28.3203 16.1641L28.5156 16.7734L29.1875 16.7891L28.6562 17.1875C28.6562 17.1875 28.9062 17.8906 28.8906 17.875C28.8906 17.8516 28.3203 17.4531 28.3203 17.4531L27.75 17.8516L27.9688 17.1875L27.4531 16.7969L28.1016 16.7891Z" fill="#108C00"/>
<path fill-rule="evenodd" clip-rule="evenodd" d="M25.4609 25.8281L25.8984 24.5781L26.2891 25.8125C26.2891 25.8125 27.6328 25.8516 27.6328 25.8359C27.6328 25.8203 26.5781 26.6406 26.5781 26.6406L27.0469 28.0078C27.0312 27.9688 25.8984 27.1641 25.8984 27.1641C25.8984 27.1641 24.7422 27.9688 24.7578 27.9688C24.7734 27.9688 25.2031 26.6406 25.2031 26.6406L24.1641 25.8594L25.4609 25.8281Z" fill="black"/>
<path fill-rule="evenodd" clip-rule="evenodd" d="M25.5156 25.8906L25.8984 24.8125L26.2422 25.875C26.2422 25.875 27.3984 25.9141 27.3984 25.8906C27.3984 25.8672 26.4844 26.5938 26.4844 26.5938L26.8984 27.7812C26.8828 27.7422 25.8984 27.0469 25.8984 27.0469C25.8984 27.0469 24.8984 27.75 24.9141 27.75C24.9297 27.75 25.2969 26.5938 25.2969 26.5938L24.3984 25.9141L25.5156 25.8906Z" fill="#FFE700"/>
<path fill-rule="evenodd" clip-rule="evenodd" d="M25.6797 26.0703L25.8984 25.4453L26.0938 26.0625C26.0938 26.0625 26.7656 26.0859 26.7656 26.0703C26.7656 26.0547 26.2344 26.4766 26.2344 26.4766L26.4688 27.1562C26.4688 27.1406 25.8984 26.7344 25.8984 26.7344L25.3281 27.1406L25.5469 26.4766L25.0312 26.0859L25.6797 26.0703Z" fill="#108C00"/>
<path fill-rule="evenodd" clip-rule="evenodd" d="M13.8438 25.8281L14.2812 24.5781L14.6719 25.8125C14.6719 25.8125 16.0078 25.8516 16.0078 25.8359C16.0078 25.8203 14.9531 26.6406 14.9531 26.6406L15.4375 28.0078C15.4141 27.9688 14.2812 27.1641 14.2812 27.1641C14.2812 27.1641 13.125 27.9688 13.1406 27.9688C13.1562 27.9688 13.5859 26.6406 13.5859 26.6406L12.5469 25.8594L13.8438 25.8281Z" fill="black"/>
<path fill-rule="evenodd" clip-rule="evenodd" d="M13.9062 25.8906L14.2812 24.8125L14.625 25.875C14.625 25.875 15.7812 25.9141 15.7812 25.8906C15.7812 25.8672 14.8672 26.5938 14.8672 26.5938L15.2812 27.7812C15.2656 27.7422 14.2812 27.0469 14.2812 27.0469C14.2812 27.0469 13.2812 27.75 13.2969 27.75C13.3125 27.75 13.6797 26.5938 13.6797 26.5938L12.7812 25.9141L13.9062 25.8906Z" fill="#FFE700"/>
<path fill-rule="evenodd" clip-rule="evenodd" d="M14.0625 26.0703L14.2812 25.4453L14.4766 26.0625C14.4766 26.0625 15.1484 26.0859 15.1484 26.0703C15.1484 26.0547 14.6172 26.4766 14.6172 26.4766L14.8516 27.1562C14.8516 27.1406 14.2812 26.7344 14.2812 26.7344L13.7109 27.1406L13.9297 26.4766L13.4141 26.0859L14.0625 26.0703Z" fill="#108C00"/>
<path fill-rule="evenodd" clip-rule="evenodd" d="M11.7188 16.3047L12.1562 15.0547L12.5547 16.2891C12.5547 16.2891 13.8906 16.3281 13.8906 16.3047C13.8906 16.2812 12.8359 17.1172 12.8359 17.1172L13.3125 18.4844C13.2891 18.4453 12.1562 17.6406 12.1562 17.6406C12.1562 17.6406 11 18.4375 11.0234 18.4375C11.0469 18.4375 11.4609 17.1094 11.4609 17.1094L10.4219 16.3281L11.7188 16.3047Z" fill="black"/>
<path fill-rule="evenodd" clip-rule="evenodd" d="M11.7812 16.3672L12.1562 15.2891L12.5078 16.3516C12.5078 16.3516 13.6562 16.3906 13.6562 16.3672C13.6562 16.3438 12.7422 17.0703 12.7422 17.0703L13.1562 18.2578C13.1406 18.2188 12.1562 17.5234 12.1562 17.5234C12.1562 17.5234 11.1562 18.2266 11.1797 18.2266C11.2031 18.2266 11.5547 17.0703 11.5547 17.0703L10.6562 16.3906L11.7812 16.3672Z" fill="#FFE700"/>
<path fill-rule="evenodd" clip-rule="evenodd" d="M11.9375 16.5469L12.1562 15.9219L12.3594 16.5391L13.0234 16.5469L12.5 16.9531L12.7344 17.6328C12.7266 17.6172 12.1562 17.2109 12.1562 17.2109L11.5938 17.6172C11.6094 17.6172 11.8125 16.9531 11.8125 16.9531L11.2969 16.5625L11.9375 16.5469Z" fill="#108C00"/>
<path fill-rule="evenodd" clip-rule="evenodd" d="M25.3594 13.6016L24.9219 14.8516L24.5312 13.625C24.5312 13.625 23.1875 13.5859 23.1875 13.6016C23.1875 13.6172 24.2422 12.7969 24.2422 12.7969L23.7734 11.4297C23.7891 11.4688 24.9219 12.2734 24.9219 12.2734C24.9219 12.2734 26.0781 11.4688 26.0547 11.4688C26.0312 11.4688 25.6172 12.7969 25.6172 12.7969L26.6562 13.5781L25.3594 13.6016Z" fill="black"/>
<path fill-rule="evenodd" clip-rule="evenodd" d="M25.3047 13.5391C25.3047 13.5625 24.9141 14.625 24.9141 14.625L24.5781 13.5625C24.5781 13.5625 23.4219 13.5234 23.4219 13.5391C23.4219 13.5547 24.3359 12.8438 24.3359 12.8438L23.9219 11.6562C23.9375 11.6953 24.9219 12.3906 24.9219 12.3906C24.9219 12.3906 25.9219 11.6875 25.9062 11.6875C25.8906 11.6875 25.5234 12.8438 25.5234 12.8438L26.4219 13.5234L25.3047 13.5391Z" fill="#FFE700"/>
<path fill-rule="evenodd" clip-rule="evenodd" d="M25.1406 13.3594L24.9219 13.9844L24.7266 13.375C24.7266 13.375 24.0547 13.3516 24.0547 13.3672C24.0547 13.3828 24.5859 12.9609 24.5859 12.9609L24.3516 12.2812C24.3516 12.2969 24.9219 12.7031 24.9219 12.7031L25.4922 12.2969C25.4766 12.2969 25.2656 12.9609 25.2656 12.9609L25.7891 13.3516L25.1406 13.3672V13.3594Z" fill="#108C00"/>
<path fill-rule="evenodd" clip-rule="evenodd" d="M28.6953 22.6797L28.2578 23.9297L27.8672 22.6953C27.8672 22.6953 26.5234 22.6562 26.5234 22.6797C26.5234 22.7031 27.5781 21.875 27.5781 21.875L27.1094 20.5C27.125 20.5391 28.2578 21.3438 28.2578 21.3438C28.2578 21.3438 29.4141 20.5391 29.3906 20.5391C29.3672 20.5391 28.9531 21.8672 28.9531 21.8672L30 22.6562L28.6953 22.6797Z" fill="black"/>
<path fill-rule="evenodd" clip-rule="evenodd" d="M28.6406 22.6172L28.2578 23.6953L27.9141 22.6328C27.9141 22.6328 26.7578 22.6016 26.7578 22.6172C26.7578 22.6328 27.6719 21.9141 27.6719 21.9141L27.2578 20.7266C27.2734 20.7656 28.2578 21.4609 28.2578 21.4609C28.2578 21.4609 29.2578 20.7578 29.2422 20.7578C29.2266 20.7578 28.8594 21.9141 28.8594 21.9141L29.7578 22.6016L28.6406 22.6172Z" fill="#FFE700"/>
<path fill-rule="evenodd" clip-rule="evenodd" d="M28.4766 22.4375L28.2578 23.0625L28.0625 22.4453C28.0625 22.4453 27.3906 22.4297 27.3906 22.4453C27.3906 22.4609 27.9219 22.0391 27.9219 22.0391L27.6875 21.3516C27.6875 21.375 28.2578 21.7734 28.2578 21.7734L28.8281 21.3672C28.8125 21.3672 28.6016 22.0391 28.6016 22.0391L29.125 22.4297L28.4766 22.4375Z" fill="#108C00"/>
<path fill-rule="evenodd" clip-rule="evenodd" d="M20.4219 29.3203L19.9844 30.5703L19.5938 29.3359C19.5938 29.3359 18.25 29.2969 18.25 29.3125C18.25 29.3281 19.3047 28.5078 19.3047 28.5078L18.8359 27.1406C18.8516 27.1797 19.9844 27.9844 19.9844 27.9844C19.9844 27.9844 21.1406 27.1797 21.1172 27.1797C21.0938 27.1797 20.6797 28.5078 20.6797 28.5078L21.7188 29.2969L20.4219 29.3203Z" fill="black"/>
<path fill-rule="evenodd" clip-rule="evenodd" d="M20.3672 29.25L19.9844 30.3438L19.6406 29.2734C19.6406 29.2734 18.4844 29.2344 18.4844 29.2578C18.4844 29.2812 19.3984 28.5547 19.3984 28.5547L18.9844 27.3672C19 27.4062 19.9844 28.1016 19.9844 28.1016C19.9844 28.1016 20.9844 27.3984 20.9688 27.3984C20.9531 27.3984 20.5859 28.5547 20.5859 28.5547L21.4844 29.2344L20.3672 29.2578V29.25Z" fill="#FFE700"/>
<path fill-rule="evenodd" clip-rule="evenodd" d="M20.2031 29.0781L19.9844 29.7031L19.7891 29.0859C19.7891 29.0859 19.1172 29.0625 19.1172 29.0781C19.1172 29.0938 19.6484 28.6719 19.6484 28.6719L19.4141 27.9922C19.4141 28.0078 19.9844 28.4141 19.9844 28.4141L20.5547 28.0078L20.3359 28.6719L20.8516 29.0625L20.2031 29.0781Z" fill="#108C00"/>
<path fill-rule="evenodd" clip-rule="evenodd" d="M12.6562 22.6797L12.2109 23.9297L11.8203 22.6953C11.8203 22.6953 10.4766 22.6562 10.4766 22.6797C10.4766 22.7031 11.5312 21.875 11.5312 21.875L11.0625 20.5C11.0781 20.5391 12.2109 21.3438 12.2109 21.3438L13.3594 20.5469L12.9141 21.875L13.9531 22.6641L12.6562 22.6875V22.6797Z" fill="black"/>
<path fill-rule="evenodd" clip-rule="evenodd" d="M12.5938 22.6172L12.2109 23.6953L11.8672 22.6328C11.8672 22.6328 10.7109 22.6016 10.7109 22.6172C10.7109 22.6328 11.625 21.9141 11.625 21.9141L11.2109 20.7266C11.2266 20.7656 12.2109 21.4609 12.2109 21.4609C12.2109 21.4609 13.2109 20.7578 13.1953 20.7578C13.1797 20.7578 12.8125 21.9141 12.8125 21.9141L13.7109 22.6016L12.5938 22.6172Z" fill="#FFE700"/>
<path fill-rule="evenodd" clip-rule="evenodd" d="M12.4297 22.4375L12.2109 23.0625L12.0156 22.4453C12.0156 22.4453 11.3438 22.4297 11.3438 22.4453C11.3438 22.4609 11.875 22.0391 11.875 22.0391L11.6406 21.3516C11.6406 21.375 12.2109 21.7734 12.2109 21.7734L12.7812 21.3672L12.5625 22.0391L13.0781 22.4297L12.4297 22.4375Z" fill="#108C00"/>
<path fill-rule="evenodd" clip-rule="evenodd" d="M15.5234 13.7344L15.0859 14.9844L14.6797 13.7578C14.6797 13.7578 13.3516 13.7188 13.3516 13.7344C13.3516 13.75 14.4062 12.9297 14.4062 12.9297L13.9297 11.5625C13.9453 11.6016 15.0781 12.4062 15.0781 12.4062C15.0781 12.4062 16.2344 11.6016 16.2188 11.6016C16.2031 11.6016 15.7812 12.9297 15.7812 12.9297L16.8125 13.7109L15.5234 13.7344Z" fill="black"/>
<path fill-rule="evenodd" clip-rule="evenodd" d="M15.4609 13.6719L15.0781 14.7656L14.7344 13.6953C14.7344 13.6953 13.5781 13.6562 13.5781 13.6797C13.5781 13.7031 14.4922 12.9766 14.4922 12.9766L14.0781 11.7891C14.0938 11.8281 15.0781 12.5234 15.0781 12.5234C15.0781 12.5234 16.0781 11.8203 16.0625 11.8203C16.0469 11.8203 15.6875 12.9766 15.6875 12.9766L16.5781 13.6562L15.4609 13.6797V13.6719Z" fill="#FFE700"/>
<path fill-rule="evenodd" clip-rule="evenodd" d="M15.2969 13.5L15.0781 14.125L14.8828 13.5078C14.8828 13.5078 14.2188 13.4844 14.2188 13.5C14.2188 13.5156 14.7422 13.0938 14.7422 13.0938L14.5078 12.4141C14.5078 12.4297 15.0781 12.8359 15.0781 12.8359L15.6484 12.4297L15.4297 13.0938L15.9453 13.4844L15.2969 13.5Z" fill="#108C00"/>
<path d="M21.8903 25.4957C22.2074 25.4633 22.3729 24.1723 22.26 22.6123C22.147 21.0523 21.7984 19.814 21.4813 19.8465C21.1641 19.8789 20.9986 21.1699 21.1115 22.7299C21.2245 24.2899 21.5731 25.5282 21.8903 25.4957Z" fill="#009200"/>
<path fill-rule="evenodd" clip-rule="evenodd" d="M21.1558 20.7174C21.0891 21.2375 21.0759 21.9487 21.1323 22.7278C21.1887 23.5068 21.304 24.2049 21.4444 24.7037C21.5147 24.9533 21.591 25.1519 21.6688 25.2857C21.7077 25.3526 21.7464 25.4022 21.784 25.434C21.8217 25.4657 21.8565 25.4782 21.8888 25.4749C21.921 25.4716 21.9535 25.4522 21.986 25.4133C22.0186 25.3744 22.0496 25.3176 22.0783 25.2438C22.1357 25.0962 22.1824 24.885 22.2157 24.6248C22.2824 24.1048 22.2956 23.3935 22.2392 22.6144C22.1828 21.8354 22.0676 21.1373 21.9271 20.6385C21.8569 20.3889 21.7806 20.1903 21.7028 20.0565C21.6638 19.9896 21.6251 19.94 21.5875 19.9082C21.5499 19.8765 21.515 19.864 21.4828 19.8673C21.4506 19.8706 21.418 19.89 21.3855 19.9289C21.353 19.9678 21.3219 20.0246 21.2932 20.0985C21.2358 20.2461 21.1892 20.4573 21.1558 20.7174ZM21.3539 19.9025C21.3907 19.8585 21.4327 19.8305 21.4798 19.8256C21.5268 19.8208 21.5722 19.8399 21.6148 19.8758C21.6574 19.9117 21.6988 19.9656 21.7389 20.0346C21.8192 20.1726 21.8966 20.375 21.9673 20.626C22.1087 21.1282 22.2242 21.8292 22.2808 22.6102C22.3373 23.3911 22.3242 24.1054 22.2571 24.6289C22.2235 24.8905 22.1764 25.1057 22.1171 25.258C22.0875 25.3341 22.0544 25.3957 22.0176 25.4397C21.9808 25.4837 21.9388 25.5118 21.8918 25.5166C21.8447 25.5214 21.7993 25.5023 21.7567 25.4664C21.7142 25.4306 21.6727 25.3766 21.6326 25.3076C21.5523 25.1696 21.4749 24.9672 21.4042 24.7162C21.2628 24.214 21.1473 23.513 21.0907 22.732C21.0342 21.9511 21.0473 21.2369 21.1144 20.7133C21.148 20.4517 21.1952 20.2365 21.2544 20.0842C21.284 20.0081 21.3171 19.9465 21.3539 19.9025Z" fill="black"/>
<path d="M22.4742 25.4882C22.8096 25.454 22.9877 24.1618 22.872 22.6021C22.7562 21.0423 22.3905 19.8057 22.0551 19.84C21.7197 19.8742 21.5416 21.1664 21.6573 22.7261C21.773 24.2858 22.1387 25.5225 22.4742 25.4882Z" fill="#009200"/>
<path fill-rule="evenodd" clip-rule="evenodd" d="M21.7083 20.7134C21.6365 21.2337 21.6209 21.9451 21.6787 22.7239C21.7365 23.5027 21.8566 24.2003 22.0039 24.6983C22.0776 24.9474 22.1578 25.1455 22.2396 25.2788C22.2806 25.3454 22.3214 25.3948 22.3611 25.4263C22.4007 25.4577 22.4378 25.4703 22.4726 25.4668C22.5073 25.4632 22.542 25.4433 22.5764 25.4043C22.6109 25.3652 22.6438 25.3083 22.6743 25.2344C22.7353 25.0866 22.7851 24.8752 22.821 24.6148C22.8927 24.0945 22.9084 23.3831 22.8506 22.6043C22.7928 21.8254 22.6726 21.1279 22.5253 20.6299C22.4517 20.3807 22.3715 20.1826 22.2896 20.0494C22.2487 19.9828 22.2079 19.9334 22.1682 19.9019C22.1285 19.8704 22.0914 19.8578 22.0567 19.8614C22.022 19.8649 21.9872 19.8849 21.9528 19.9239C21.9183 19.963 21.8855 20.0199 21.8549 20.0938C21.7939 20.2416 21.7441 20.453 21.7083 20.7134ZM21.9211 19.8958C21.9602 19.8515 22.0044 19.8235 22.0535 19.8185C22.1026 19.8135 22.1503 19.8321 22.1953 19.8678C22.2403 19.9034 22.284 19.9572 22.3263 20.0261C22.411 20.1638 22.4924 20.3659 22.5665 20.6166C22.7149 21.1183 22.8354 21.819 22.8934 22.5999C22.9513 23.3808 22.9357 24.0954 22.8635 24.6196C22.8274 24.8815 22.777 25.0971 22.7139 25.2499C22.6824 25.3263 22.6472 25.3882 22.6082 25.4324C22.5691 25.4767 22.5249 25.5046 22.4758 25.5097C22.4266 25.5147 22.379 25.4961 22.3339 25.4604C22.289 25.4248 22.2453 25.371 22.203 25.3021C22.1183 25.1644 22.0369 24.9622 21.9628 24.7116C21.8144 24.2099 21.6938 23.5092 21.6359 22.7283C21.578 21.9474 21.5935 21.2328 21.6658 20.7086C21.7019 20.4467 21.7523 20.2311 21.8154 20.0782C21.8469 20.0019 21.8821 19.94 21.9211 19.8958Z" fill="black"/>
<path d="M22.217 25.9415C22.4856 25.9138 22.6042 24.4937 22.482 22.7696C22.3597 21.0456 22.0429 19.6704 21.7743 19.6982C21.5057 19.7259 21.3871 21.146 21.5093 22.87C21.6315 24.5941 21.9484 25.9692 22.217 25.9415Z" fill="#009200"/>
<path fill-rule="evenodd" clip-rule="evenodd" d="M21.5153 20.649C21.4675 21.2217 21.4684 22.0067 21.5294 22.868C21.5905 23.7293 21.7001 24.503 21.8279 25.0575C21.8918 25.3349 21.9601 25.5566 22.0287 25.7068C22.063 25.782 22.0969 25.8381 22.1296 25.8743C22.1626 25.9109 22.1913 25.9238 22.2155 25.9213C22.2398 25.9188 22.2662 25.9002 22.2936 25.8574C22.3207 25.815 22.3463 25.7527 22.3695 25.6716C22.4159 25.5095 22.452 25.2771 22.4759 24.9906C22.5238 24.418 22.5229 23.633 22.4618 22.7717C22.4008 21.9104 22.2911 21.1367 22.1634 20.5821C22.0994 20.3047 22.0312 20.083 21.9626 19.9329C21.9283 19.8577 21.8944 19.8015 21.8617 19.7654C21.8286 19.7288 21.7999 19.7158 21.7757 19.7183C21.7515 19.7208 21.7251 19.7395 21.6976 19.7823C21.6705 19.8247 21.645 19.8869 21.6218 19.9681C21.5753 20.1301 21.5393 20.3626 21.5153 20.649ZM21.6639 19.7611C21.6939 19.7142 21.7299 19.6824 21.7729 19.678C21.8158 19.6736 21.8558 19.6975 21.8919 19.7376C21.9285 19.778 21.9643 19.8382 21.9994 19.915C22.0696 20.0687 22.1385 20.2934 22.2027 20.5718C22.331 21.1289 22.4409 21.9048 22.5021 22.7675C22.5633 23.6303 22.5642 24.4174 22.5161 24.9927C22.4921 25.2802 22.4558 25.5158 22.4082 25.6817C22.3845 25.7645 22.3576 25.8312 22.3273 25.8785C22.2973 25.9254 22.2613 25.9572 22.2184 25.9617C22.1755 25.9661 22.1355 25.9421 22.0993 25.9021C22.0628 25.8616 22.0269 25.8014 21.9919 25.7247C21.9217 25.5709 21.8527 25.3463 21.7886 25.0679C21.6602 24.5107 21.5504 23.7349 21.4892 22.8721C21.428 22.0094 21.4271 21.2223 21.4751 20.6469C21.4992 20.3594 21.5355 20.1239 21.583 19.958C21.6068 19.8752 21.6336 19.8085 21.6639 19.7611Z" fill="black"/>
<path fill-rule="evenodd" clip-rule="evenodd" d="M17.4953 24.1591C17.9863 24.137 17.7737 23.8739 18.0216 23.7338C18.2695 23.5937 18.6211 23.6856 18.7274 23.8604C18.832 24.0352 18.7471 24.2072 18.8844 24.2092C19.0201 24.2112 22.7224 24.0462 22.8554 24.192C22.9901 24.3378 23.0108 24.6274 22.873 24.7397C22.7352 24.852 18.0535 24.9176 17.8921 24.7991C17.7308 24.6824 17.4947 24.1869 17.4953 24.1591Z" fill="#A95600"/>
<path fill-rule="evenodd" clip-rule="evenodd" d="M18.4233 23.6996C18.295 23.6731 18.1505 23.6851 18.0319 23.7521C17.9427 23.8026 17.9191 23.867 17.8938 23.9361C17.8862 23.9569 17.8785 23.978 17.8687 23.9994C17.8479 24.0452 17.818 24.0886 17.7601 24.1213C17.7073 24.1512 17.6328 24.1713 17.5237 24.1786C17.5241 24.1796 17.5246 24.1807 17.525 24.1818C17.5315 24.1978 17.5412 24.2195 17.5534 24.2454C17.5778 24.2971 17.6121 24.3649 17.6514 24.4355C17.6907 24.506 17.7349 24.5791 17.7792 24.6416C17.8237 24.7046 17.8671 24.755 17.9045 24.7821C17.9059 24.7831 17.9118 24.786 17.9253 24.7893C17.9379 24.7924 17.9549 24.7954 17.9761 24.7984C18.0186 24.8043 18.0766 24.8096 18.1483 24.8142C18.2915 24.8235 18.4878 24.8302 18.7196 24.8346C19.183 24.8434 19.7874 24.8427 20.3912 24.8349C20.995 24.8271 21.5979 24.8121 22.0584 24.792C22.2888 24.782 22.4832 24.7707 22.6243 24.7584C22.6949 24.7523 22.7517 24.7459 22.7929 24.7394C22.8136 24.7362 22.8298 24.7329 22.8417 24.7298C22.8477 24.7282 22.8522 24.7267 22.8555 24.7254C22.8587 24.7241 22.8598 24.7234 22.8598 24.7234C22.8598 24.7234 22.8598 24.7234 22.8598 24.7234C22.9214 24.6732 22.95 24.5807 22.9454 24.4794C22.9408 24.3787 22.9033 24.2749 22.84 24.2063C22.84 24.2063 22.8397 24.2059 22.839 24.2055C22.8384 24.205 22.8375 24.2044 22.8363 24.2037C22.8338 24.2023 22.8302 24.2007 22.8255 24.199C22.816 24.1955 22.803 24.1921 22.7863 24.1888C22.753 24.1822 22.7072 24.1766 22.6504 24.1719C22.5369 24.1625 22.3814 24.157 22.1976 24.1545C21.8301 24.1494 21.3509 24.1563 20.8713 24.1677C20.252 24.1824 19.6313 24.2047 19.2515 24.2183C19.0438 24.2258 18.9081 24.2306 18.884 24.2303C18.8445 24.2297 18.8169 24.2163 18.7992 24.1903C18.7831 24.1666 18.7772 24.1347 18.7728 24.1026C18.7716 24.0941 18.7705 24.0854 18.7694 24.0765C18.7617 24.0151 18.7527 23.9437 18.7093 23.8713C18.6603 23.7906 18.5521 23.7262 18.4233 23.6996ZM17.5161 24.1572C17.5161 24.1571 17.5161 24.1572 17.5161 24.1572ZM18.4319 23.6584C18.5674 23.6864 18.6881 23.7553 18.7454 23.8494C18.7936 23.9299 18.8036 24.0104 18.8113 24.0717C18.8124 24.0804 18.8134 24.0888 18.8145 24.0966C18.819 24.1296 18.8242 24.152 18.8341 24.1666C18.8424 24.1788 18.8556 24.1878 18.8848 24.1882C18.9085 24.1885 19.042 24.1837 19.2469 24.1764C19.6254 24.1628 20.2474 24.1405 20.8705 24.1257C21.3502 24.1143 21.83 24.1073 22.1983 24.1124C22.3824 24.1149 22.539 24.1205 22.654 24.13C22.7114 24.1347 22.759 24.1405 22.7946 24.1475C22.8123 24.151 22.8277 24.1549 22.84 24.1594C22.8516 24.1636 22.8632 24.1693 22.8709 24.1777C22.9422 24.2549 22.9825 24.3688 22.9874 24.4774C22.9924 24.5855 22.9625 24.6939 22.8863 24.756C22.878 24.7627 22.8651 24.7671 22.8524 24.7704C22.8385 24.7741 22.8206 24.7776 22.7993 24.781C22.7567 24.7877 22.6987 24.7942 22.6278 24.8003C22.4858 24.8127 22.2906 24.824 22.0601 24.8341C21.599 24.8542 20.9956 24.8692 20.3916 24.877C19.7875 24.8848 19.1826 24.8854 18.7186 24.8767C18.4866 24.8723 18.2896 24.8656 18.1454 24.8562C18.0733 24.8515 18.0141 24.8462 17.9702 24.8401C17.9482 24.837 17.9297 24.8337 17.9151 24.8301C17.9015 24.8268 17.8884 24.8225 17.8797 24.8162" fill="black"/>
<path fill-rule="evenodd" clip-rule="evenodd" d="M20.1188 24.5324C20.1091 24.9047 20.6583 24.7985 20.6646 25.1096C20.6476 25.439 19.745 25.1298 19.7379 24.5272C19.7764 23.9244 20.6601 23.6272 20.6715 23.9719C20.6784 24.2569 20.1273 24.1601 20.1176 24.5324L20.1188 24.5324Z" fill="#FFFF00"/>
<path fill-rule="evenodd" clip-rule="evenodd" d="M19.7585 24.5275C19.7623 24.8176 19.9819 25.0398 20.2067 25.1494C20.3191 25.2041 20.4299 25.2293 20.512 25.2218C20.553 25.2181 20.5851 25.2064 20.6071 25.1881C20.6284 25.1704 20.642 25.1451 20.644 25.1095C20.6423 25.0397 20.6109 24.9936 20.5627 24.957C20.5178 24.9229 20.4597 24.8981 20.3976 24.8716C20.3909 24.8687 20.3842 24.8658 20.3774 24.8629C20.3092 24.8336 20.2381 24.801 20.1849 24.751C20.1345 24.7035 20.1007 24.6408 20.0982 24.5527L20.0965 24.5527L20.097 24.5321C20.0996 24.433 20.1386 24.3639 20.1955 24.3126C20.2514 24.2622 20.3241 24.2293 20.393 24.2004C20.4016 24.1968 20.4102 24.1933 20.4186 24.1898C20.4792 24.1646 20.5349 24.1415 20.5773 24.1107C20.624 24.0769 20.6524 24.0355 20.6509 23.9727C20.6496 23.9345 20.6365 23.9068 20.6155 23.8872C20.5942 23.8672 20.563 23.8541 20.5233 23.8489C20.4435 23.8384 20.3349 23.8606 20.2234 23.9129C20.0005 24.0174 19.7774 24.2368 19.7585 24.5275ZM20.1394 24.5121C20.146 24.4363 20.178 24.3836 20.2229 24.343C20.2729 24.298 20.3394 24.2674 20.4086 24.2384C20.4169 24.2349 20.4254 24.2314 20.4338 24.2279C20.4937 24.203 20.5544 24.1778 20.6012 24.144C20.6561 24.1042 20.694 24.0509 20.6921 23.9711C20.6905 23.9232 20.6735 23.8847 20.6439 23.8569C20.6146 23.8295 20.5745 23.814 20.5292 23.8081C20.4388 23.7962 20.322 23.8214 20.2063 23.8756C19.9751 23.9841 19.7372 24.2145 19.7173 24.5262L19.7173 24.5277C19.721 24.8398 19.956 25.0732 20.1883 25.1864C20.3046 25.2431 20.4231 25.2712 20.5152 25.2628C20.5614 25.2586 20.6026 25.2451 20.6332 25.2196C20.6644 25.1937 20.6828 25.1568 20.6851 25.1104L20.6852 25.1089C20.6835 25.0236 20.6439 24.9666 20.5879 24.9241C20.5387 24.8868 20.4757 24.8599 20.4146 24.8338C20.4077 24.8309 20.4009 24.828 20.3941 24.825C20.3253 24.7955 20.2606 24.7653 20.2133 24.7208C20.1672 24.6774 20.1371 24.6197 20.1394 24.5327L20.1394 24.5121Z" fill="black"/>
<path fill-rule="evenodd" clip-rule="evenodd" d="M20.4426 24.5405C20.4329 24.9128 20.9821 24.8066 20.9883 25.1177C20.9713 25.4471 20.0687 25.1379 20.0617 24.5353C20.1001 23.9325 20.9839 23.6353 20.9952 23.98C21.0022 24.265 20.4511 24.1682 20.4414 24.5405L20.4426 24.5405Z" fill="#FFFF00"/>
<path fill-rule="evenodd" clip-rule="evenodd" d="M20.0823 24.5356C20.086 24.8257 20.3056 25.0479 20.5305 25.1575C20.6428 25.2122 20.7536 25.2373 20.8358 25.2299C20.8767 25.2262 20.9088 25.2145 20.9309 25.1962C20.9522 25.1785 20.9657 25.1531 20.9677 25.1176C20.9661 25.0478 20.9347 25.0017 20.8865 24.9651C20.8416 24.931 20.7834 24.9062 20.7214 24.8797C20.7147 24.8768 20.7079 24.8739 20.7011 24.871C20.633 24.8417 20.5618 24.8091 20.5087 24.7591C20.4582 24.7116 20.4244 24.6489 20.422 24.5608L20.4202 24.5608L20.4208 24.5402C20.4234 24.4411 20.4624 24.372 20.5193 24.3207C20.5752 24.2703 20.6479 24.2374 20.7168 24.2085C20.7254 24.2049 20.7339 24.2014 20.7423 24.1979C20.8029 24.1727 20.8586 24.1496 20.901 24.1188C20.9478 24.085 20.9761 24.0435 20.9746 23.9808C20.9734 23.9426 20.9602 23.9149 20.9393 23.8953C20.9179 23.8753 20.8867 23.8622 20.847 23.857C20.7673 23.8465 20.6587 23.8687 20.5472 23.921C20.3243 24.0255 20.1012 24.2449 20.0823 24.5356ZM20.4631 24.5202C20.4698 24.4443 20.5017 24.3917 20.5467 24.3511C20.5967 24.306 20.6631 24.2755 20.7323 24.2465C20.7407 24.2429 20.7491 24.2395 20.7576 24.2359C20.8175 24.2111 20.8782 24.1859 20.9249 24.1521C20.9799 24.1123 21.0178 24.059 21.0158 23.9792C21.0143 23.9313 20.9973 23.8928 20.9676 23.865C20.9383 23.8376 20.8983 23.8221 20.8529 23.8162C20.7626 23.8043 20.6457 23.8295 20.5301 23.8837C20.2988 23.9922 20.061 24.2226 20.0411 24.5343L20.0411 24.5358C20.0447 24.8479 20.2798 25.0813 20.5121 25.1945C20.6284 25.2512 20.7468 25.2793 20.839 25.2709C20.8851 25.2667 20.9264 25.2532 20.957 25.2277C20.9882 25.2018 21.0065 25.1649 21.0089 25.1185L21.0089 25.117C21.0072 25.0317 20.9677 24.9747 20.9116 24.9322C20.8625 24.8949 20.7995 24.868 20.7384 24.8419C20.7315 24.839 20.7246 24.8361 20.7178 24.8331C20.6491 24.8036 20.5844 24.7734 20.5371 24.7289C20.4909 24.6855 20.4609 24.6278 20.4632 24.5408L20.4631 24.5202Z" fill="black"/>
<path fill-rule="evenodd" clip-rule="evenodd" d="M20.7906 24.5243C20.7809 24.8966 21.3301 24.7904 21.3364 25.1015C21.3194 25.4309 20.4167 25.1217 20.4097 24.5191C20.4482 23.9163 21.3319 23.6191 21.3433 23.9638C21.3502 24.2488 20.7991 24.152 20.7894 24.5243L20.7906 24.5243Z" fill="#FFFF00"/>
<path fill-rule="evenodd" clip-rule="evenodd" d="M20.4303 24.5194C20.4341 24.8095 20.6537 25.0317 20.8785 25.1413C20.9909 25.196 21.1017 25.2212 21.1838 25.2137C21.2247 25.21 21.2569 25.1983 21.2789 25.18C21.3002 25.1623 21.3137 25.137 21.3157 25.1014C21.3141 25.0316 21.2827 24.9855 21.2345 24.9489C21.1896 24.9148 21.1315 24.89 21.0694 24.8635C21.0627 24.8606 21.0559 24.8577 21.0491 24.8548C20.981 24.8255 20.9098 24.7929 20.8567 24.7429C20.8062 24.6954 20.7725 24.6327 20.77 24.5446L20.7683 24.5446L20.7688 24.524C20.7714 24.4249 20.8104 24.3558 20.8673 24.3045C20.9232 24.2541 20.9959 24.2212 21.0648 24.1923C21.0734 24.1887 21.0819 24.1852 21.0904 24.1817C21.151 24.1565 21.2066 24.1334 21.2491 24.1026C21.2958 24.0688 21.3242 24.0274 21.3227 23.9646C21.3214 23.9264 21.3082 23.8987 21.2873 23.8791C21.2659 23.8591 21.2348 23.846 21.1951 23.8408C21.1153 23.8303 21.0067 23.8525 20.8952 23.9048C20.6723 24.0094 20.4492 24.2287 20.4303 24.5194ZM20.8112 24.504C20.8178 24.4282 20.8497 24.3755 20.8947 24.3349C20.9447 24.2899 21.0111 24.2593 21.0804 24.2303C21.0887 24.2268 21.0971 24.2233 21.1056 24.2198C21.1655 24.1949 21.2262 24.1697 21.273 24.1359C21.3279 24.0961 21.3658 24.0428 21.3639 23.963C21.3623 23.9152 21.3453 23.8766 21.3156 23.8489C21.2863 23.8215 21.2463 23.8059 21.2009 23.8C21.1106 23.7881 20.9938 23.8133 20.8781 23.8675C20.6469 23.976 20.409 24.2064 20.3891 24.5181L20.3891 24.5196C20.3927 24.8317 20.6278 25.0651 20.8601 25.1783C20.9764 25.235 21.0949 25.2631 21.187 25.2547C21.2332 25.2505 21.2744 25.237 21.305 25.2115C21.3362 25.1856 21.3545 25.1488 21.3569 25.1023L21.357 25.1008C21.3552 25.0156 21.3157 24.9585 21.2597 24.916C21.2105 24.8787 21.1475 24.8518 21.0864 24.8257C21.0795 24.8228 21.0727 24.8199 21.0658 24.8169C20.9971 24.7874 20.9324 24.7572 20.8851 24.7127C20.839 24.6693 20.8089 24.6116 20.8112 24.5246L20.8112 24.504Z" fill="black"/>
<path fill-rule="evenodd" clip-rule="evenodd" d="M21.1144 24.5243C21.1046 24.8966 21.6538 24.7904 21.6601 25.1015C21.6431 25.4309 20.7405 25.1217 20.7334 24.5191C20.7719 23.9163 21.6556 23.6191 21.667 23.9638C21.674 24.2488 21.1229 24.152 21.1132 24.5243L21.1144 24.5243Z" fill="#FFFF00"/>
<path fill-rule="evenodd" clip-rule="evenodd" d="M20.754 24.5194C20.7578 24.8095 20.9774 25.0317 21.2023 25.1413C21.3146 25.196 21.4254 25.2212 21.5075 25.2137C21.5485 25.21 21.5806 25.1983 21.6026 25.18C21.6239 25.1623 21.6375 25.137 21.6395 25.1014C21.6379 25.0316 21.6065 24.9855 21.5582 24.9489C21.5134 24.9148 21.4552 24.89 21.3932 24.8635C21.3864 24.8606 21.3797 24.8577 21.3729 24.8548C21.3047 24.8255 21.2336 24.7929 21.1804 24.7429C21.13 24.6954 21.0962 24.6327 21.0938 24.5446L21.092 24.5446L21.0926 24.524C21.0952 24.4249 21.1342 24.3558 21.1911 24.3045C21.247 24.2541 21.3197 24.2212 21.3886 24.1923C21.3972 24.1887 21.4057 24.1852 21.4141 24.1817C21.4747 24.1565 21.5304 24.1334 21.5728 24.1026C21.6196 24.0688 21.6479 24.0274 21.6464 23.9646C21.6451 23.9264 21.632 23.8987 21.611 23.8791C21.5897 23.8591 21.5585 23.846 21.5188 23.8408C21.4391 23.8303 21.3305 23.8525 21.219 23.9048C20.996 24.0094 20.773 24.2287 20.754 24.5194ZM21.1349 24.504C21.1416 24.4282 21.1735 24.3755 21.2185 24.3349C21.2684 24.2899 21.3349 24.2593 21.4041 24.2303C21.4125 24.2268 21.4209 24.2233 21.4293 24.2198C21.4892 24.1949 21.55 24.1697 21.5967 24.1359C21.6516 24.0961 21.6896 24.0428 21.6876 23.963C21.686 23.9152 21.6691 23.8766 21.6394 23.8489C21.6101 23.8215 21.57 23.8059 21.5247 23.8C21.4344 23.7881 21.3175 23.8133 21.2018 23.8675C20.9706 23.976 20.7328 24.2064 20.7129 24.5181L20.7128 24.5196C20.7165 24.8317 20.9515 25.0651 21.1838 25.1783C21.3001 25.235 21.4186 25.2631 21.5108 25.2547C21.5569 25.2505 21.5981 25.237 21.6288 25.2115C21.66 25.1856 21.6783 25.1488 21.6807 25.1023L21.6807 25.1008C21.679 25.0156 21.6394 24.9585 21.5834 24.916C21.5343 24.8787 21.4713 24.8518 21.4102 24.8257C21.4033 24.8228 21.3964 24.8199 21.3896 24.8169C21.3209 24.7874 21.2562 24.7572 21.2089 24.7127C21.1627 24.6693 21.1327 24.6116 21.135 24.5246L21.1349 24.504Z" fill="black"/>
<path d="M22.6755 24.7636C22.8468 24.7661 22.9887 24.626 22.9923 24.4506C22.996 24.2752 22.86 24.131 22.6887 24.1285C22.5174 24.126 22.3756 24.2661 22.3719 24.4415C22.3683 24.6169 22.5042 24.7611 22.6755 24.7636Z" fill="#A95600"/>
<path fill-rule="evenodd" clip-rule="evenodd" d="M22.6884 24.1467C22.5275 24.1443 22.3936 24.276 22.3901 24.4418C22.3867 24.6075 22.515 24.7431 22.6759 24.7454C22.8368 24.7478 22.9707 24.6161 22.9741 24.4503C22.9776 24.2846 22.8492 24.149 22.6884 24.1467ZM22.3537 24.4413C22.3576 24.2562 22.5073 24.1076 22.6891 24.1103C22.8709 24.113 23.0144 24.2658 23.0105 24.4509C23.0067 24.6359 22.8569 24.7845 22.6751 24.7818C22.4934 24.7792 22.3499 24.6263 22.3537 24.4413Z" fill="black"/>
<path d="M20.8651 24.004C21.0179 23.981 21.1122 23.6889 21.0758 23.3515C21.0393 23.0141 20.8859 22.7592 20.7331 22.7822C20.5803 22.8052 20.486 23.0974 20.5224 23.4348C20.5589 23.7721 20.7123 24.027 20.8651 24.004Z" fill="#009200"/>
<path fill-rule="evenodd" clip-rule="evenodd" d="M20.5787 22.997C20.5418 23.1112 20.5274 23.2651 20.5453 23.4313C20.5633 23.5975 20.6099 23.7422 20.6699 23.8419C20.731 23.9434 20.8007 23.9903 20.8626 23.981C20.9245 23.9717 20.9819 23.9057 21.0195 23.7892C21.0564 23.675 21.0708 23.5211 21.0529 23.3549C21.0349 23.1887 20.9882 23.044 20.9283 22.9444C20.8671 22.8428 20.7975 22.7959 20.7356 22.8052C20.6737 22.8146 20.6163 22.8806 20.5787 22.997ZM20.535 22.9842C20.5736 22.8644 20.6398 22.7729 20.7306 22.7592C20.8215 22.7455 20.905 22.8146 20.9679 22.919C21.0319 23.0254 21.0802 23.1768 21.0987 23.348C21.1171 23.5192 21.1026 23.6801 21.0632 23.802C21.0246 23.9218 20.9584 24.0134 20.8676 24.027C20.7767 24.0407 20.6932 23.9717 20.6303 23.8672C20.5663 23.7608 20.518 23.6094 20.4995 23.4382C20.481 23.267 20.4956 23.1062 20.535 22.9842Z" fill="black"/>
<path d="M20.389 23.9629C20.5418 23.9399 20.6362 23.6477 20.5997 23.3103C20.5633 22.973 20.4099 22.7181 20.2571 22.7411C20.1043 22.7641 20.01 23.0562 20.0464 23.3936C20.0828 23.731 20.2362 23.9859 20.389 23.9629Z" fill="#009200"/>
<path fill-rule="evenodd" clip-rule="evenodd" d="M20.1026 22.9559C20.0658 23.0701 20.0513 23.224 20.0693 23.3902C20.0872 23.5564 20.1339 23.7011 20.1939 23.8007C20.255 23.9023 20.3246 23.9492 20.3866 23.9399C20.4485 23.9305 20.5059 23.8645 20.5435 23.7481C20.5804 23.6339 20.5948 23.48 20.5768 23.3138C20.5589 23.1476 20.5122 23.0029 20.4522 22.9032C20.3911 22.8017 20.3215 22.7548 20.2596 22.7641C20.1977 22.7734 20.1402 22.8394 20.1026 22.9559ZM20.0589 22.9431C20.0976 22.8233 20.1637 22.7318 20.2546 22.7181C20.3455 22.7044 20.429 22.7734 20.4919 22.8779C20.5559 22.9843 20.6041 23.1357 20.6226 23.3069C20.6411 23.4781 20.6266 23.639 20.5872 23.7609C20.5485 23.8807 20.4824 23.9722 20.3915 23.9859C20.3007 23.9996 20.2172 23.9305 20.1543 23.8261C20.0902 23.7197 20.042 23.5683 20.0235 23.3971C20.005 23.2259 20.0195 23.065 20.0589 22.9431Z" fill="black"/>
<path d="M20.0506 23.3546C20.2034 23.3316 20.2978 23.0394 20.2613 22.702C20.2249 22.3646 20.0715 22.1098 19.9187 22.1328C19.7659 22.1558 19.6716 22.4479 19.708 22.7853C19.7444 23.1227 19.8978 23.3776 20.0506 23.3546Z" fill="#009200"/>
<path fill-rule="evenodd" clip-rule="evenodd" d="M19.7642 22.3475C19.7274 22.4617 19.7129 22.6157 19.7309 22.7819C19.7488 22.948 19.7955 23.0928 19.8555 23.1924C19.9166 23.294 19.9862 23.3409 20.0482 23.3315C20.1101 23.3222 20.1675 23.2562 20.2051 23.1398C20.242 23.0256 20.2564 22.8716 20.2384 22.7055C20.2205 22.5393 20.1738 22.3946 20.1139 22.2949C20.0527 22.1934 19.9831 22.1465 19.9212 22.1558C19.8593 22.1651 19.8018 22.2311 19.7642 22.3475ZM19.7205 22.3347C19.7592 22.215 19.8253 22.1234 19.9162 22.1097C20.0071 22.0961 20.0906 22.1651 20.1535 22.2696C20.2175 22.376 20.2657 22.5274 20.2842 22.6986C20.3027 22.8698 20.2882 23.0306 20.2488 23.1526C20.2101 23.2723 20.144 23.3639 20.0531 23.3776C19.9623 23.3912 19.8788 23.3222 19.8159 23.2177C19.7518 23.1114 19.7036 22.96 19.6851 22.7887C19.6666 22.6175 19.6811 22.4567 19.7205 22.3347Z" fill="black"/>
<path d="M20.5531 23.3854C20.7001 23.3611 20.7869 23.0392 20.7469 22.6665C20.7069 22.2937 20.5552 22.0112 20.4081 22.0355C20.2611 22.0598 20.1743 22.3816 20.2143 22.7544C20.2543 23.1272 20.406 23.4097 20.5531 23.3854Z" fill="#009200"/>
<path fill-rule="evenodd" clip-rule="evenodd" d="M20.2639 22.2694C20.2298 22.3959 20.2181 22.5664 20.2379 22.7505C20.2577 22.9347 20.3049 23.0954 20.3645 23.2064C20.3944 23.2619 20.4267 23.3039 20.4592 23.3303C20.4916 23.3567 20.5224 23.3663 20.5505 23.3616C20.5787 23.357 20.6064 23.3378 20.6321 23.3018C20.6579 23.2657 20.6802 23.2147 20.6973 23.1514C20.7314 23.025 20.7431 22.8545 20.7233 22.6704C20.7035 22.4862 20.6562 22.3255 20.5967 22.2145C20.5668 22.1589 20.5345 22.117 20.502 22.0905C20.4696 22.0641 20.4388 22.0546 20.4107 22.0593C20.3825 22.0639 20.3548 22.0831 20.3291 22.1191C20.3033 22.1551 20.281 22.2061 20.2639 22.2694ZM20.2912 22.0922C20.3219 22.0494 20.3602 22.0192 20.4056 22.0117C20.451 22.0042 20.4943 22.0209 20.5329 22.0523C20.5715 22.0837 20.6071 22.1311 20.6386 22.1897C20.7016 22.3071 20.7502 22.474 20.7705 22.6626C20.7907 22.8512 20.779 23.028 20.743 23.1618C20.725 23.2286 20.7006 23.2859 20.67 23.3287C20.6393 23.3715 20.601 23.4016 20.5556 23.4091C20.5102 23.4166 20.4669 23.4 20.4283 23.3686C20.3897 23.3372 20.3541 23.2898 20.3226 23.2312C20.2596 23.1138 20.211 22.9469 20.1907 22.7583C20.1705 22.5697 20.1822 22.3929 20.2182 22.2591C20.2362 22.1923 20.2606 22.135 20.2912 22.0922Z" fill="black"/>
<path d="M21.212 23.3847C21.3592 23.3622 21.4481 23.061 21.4104 22.7118C21.3728 22.3626 21.2229 22.0977 21.0757 22.1202C20.9284 22.1426 20.8396 22.4439 20.8772 22.793C20.9148 23.1422 21.0647 23.4071 21.212 23.3847Z" fill="#009200"/>
<path fill-rule="evenodd" clip-rule="evenodd" d="M20.9291 22.3399C20.8943 22.4579 20.8815 22.6173 20.9001 22.7896C20.9186 22.9618 20.9648 23.1122 21.0236 23.216C21.053 23.268 21.0849 23.3073 21.1172 23.3321C21.1494 23.3568 21.1805 23.3661 21.2095 23.3617C21.2385 23.3573 21.2666 23.3389 21.2925 23.3054C21.3185 23.2717 21.3411 23.2241 21.3585 23.165C21.3934 23.0469 21.4062 22.8876 21.3876 22.7153C21.369 22.543 21.3228 22.3926 21.2641 22.2888C21.2347 22.2369 21.2027 22.1976 21.1704 22.1728C21.1382 22.1481 21.1072 22.1387 21.0782 22.1432C21.0492 22.1476 21.0211 22.1659 20.9952 22.1995C20.9692 22.2332 20.9466 22.2808 20.9291 22.3399ZM20.9594 22.1719C20.9904 22.1317 21.0286 22.104 21.0732 22.0972C21.1178 22.0904 21.1607 22.1058 21.1992 22.1353C21.2376 22.1648 21.2731 22.2093 21.3043 22.2645C21.3667 22.3748 21.4142 22.5314 21.4333 22.7083C21.4524 22.8852 21.4396 23.0511 21.4026 23.1765C21.3841 23.2392 21.3592 23.293 21.3283 23.333C21.2973 23.3731 21.2591 23.4009 21.2145 23.4077C21.1698 23.4145 21.127 23.3991 21.0885 23.3695C21.05 23.34 21.0146 23.2955 20.9834 23.2404C20.921 23.1301 20.8734 22.9734 20.8544 22.7965C20.8353 22.6196 20.8481 22.4538 20.8851 22.3283C20.9036 22.2656 20.9285 22.2119 20.9594 22.1719Z" fill="black"/>
<path d="M20.8476 23.1613C20.9949 23.1389 21.0837 22.8377 21.0461 22.4885C21.0084 22.1393 20.8586 21.8744 20.7113 21.8969C20.5641 21.9193 20.4752 22.2205 20.5128 22.5697C20.5505 22.9189 20.7004 23.1838 20.8476 23.1613Z" fill="#009200"/>
<path fill-rule="evenodd" clip-rule="evenodd" d="M20.5648 22.1165C20.5299 22.2346 20.5171 22.394 20.5357 22.5662C20.5543 22.7385 20.6004 22.8889 20.6592 22.9927C20.6886 23.0447 20.7206 23.0839 20.7529 23.1087C20.785 23.1334 20.8161 23.1428 20.8451 23.1384C20.8741 23.1339 20.9022 23.1156 20.9281 23.082C20.9541 23.0484 20.9767 23.0008 20.9942 22.9417C21.029 22.8236 21.0418 22.6642 21.0232 22.492C21.0047 22.3197 20.9585 22.1693 20.8997 22.0655C20.8703 22.0135 20.8384 21.9743 20.8061 21.9495C20.7739 21.9248 20.7428 21.9154 20.7138 21.9198C20.6848 21.9243 20.6567 21.9426 20.6308 21.9762C20.6048 22.0098 20.5822 22.0574 20.5648 22.1165ZM20.595 21.9485C20.626 21.9084 20.6642 21.8807 20.7088 21.8739C20.7535 21.8671 20.7963 21.8824 20.8348 21.912C20.8732 21.9415 20.9087 21.986 20.9399 22.0411C21.0023 22.1514 21.0499 22.3081 21.0689 22.485C21.088 22.6619 21.0752 22.8278 21.0382 22.9532C21.0197 23.0159 20.9948 23.0696 20.9639 23.1097C20.9329 23.1498 20.8947 23.1775 20.8501 23.1843C20.8055 23.1911 20.7626 23.1758 20.7241 23.1462C20.6857 23.1167 20.6502 23.0722 20.619 23.0171C20.5566 22.9068 20.509 22.7501 20.49 22.5732C20.4709 22.3963 20.4837 22.2304 20.5207 22.105C20.5392 22.0423 20.5641 21.9886 20.595 21.9485Z" fill="black"/>
<path d="M20.3921 22.8415C20.5393 22.8191 20.6282 22.5178 20.5906 22.1687C20.5529 21.8195 20.403 21.5546 20.2558 21.577C20.1085 21.5995 20.0197 21.9007 20.0573 22.2499C20.0949 22.5991 20.2448 22.864 20.3921 22.8415Z" fill="#009200"/>
<path fill-rule="evenodd" clip-rule="evenodd" d="M20.1092 21.7967C20.0744 21.9148 20.0616 22.0741 20.0802 22.2464C20.0987 22.4187 20.1449 22.5691 20.2037 22.6729C20.2331 22.7248 20.265 22.7641 20.2973 22.7889C20.3295 22.8136 20.3606 22.823 20.3896 22.8185C20.4186 22.8141 20.4467 22.7958 20.4726 22.7622C20.4986 22.7285 20.5212 22.6809 20.5386 22.6218C20.5735 22.5038 20.5863 22.3444 20.5677 22.1721C20.5491 21.9999 20.5029 21.8495 20.4442 21.7457C20.4148 21.6937 20.3828 21.6544 20.3505 21.6296C20.3184 21.6049 20.2873 21.5956 20.2583 21.6C20.2293 21.6044 20.2012 21.6228 20.1753 21.6563C20.1493 21.69 20.1267 21.7376 20.1092 21.7967ZM20.1395 21.6287C20.1705 21.5886 20.2087 21.5608 20.2533 21.554C20.2979 21.5472 20.3408 21.5626 20.3793 21.5922C20.4177 21.6217 20.4532 21.6662 20.4844 21.7213C20.5468 21.8316 20.5943 21.9883 20.6134 22.1652C20.6325 22.3421 20.6197 22.5079 20.5827 22.6334C20.5642 22.6961 20.5393 22.7498 20.5084 22.7898C20.4774 22.83 20.4392 22.8577 20.3946 22.8645C20.3499 22.8713 20.3071 22.8559 20.2686 22.8264C20.2302 22.7969 20.1947 22.7524 20.1635 22.6972C20.1011 22.5869 20.0535 22.4303 20.0345 22.2534C20.0154 22.0765 20.0282 21.9106 20.0652 21.7852C20.0837 21.7225 20.1086 21.6688 20.1395 21.6287Z" fill="black"/>
<path d="M19.9666 22.657C20.1138 22.6345 20.2027 22.3333 20.165 21.9841C20.1274 21.6349 19.9775 21.37 19.8303 21.3925C19.683 21.4149 19.5942 21.7161 19.6318 22.0653C19.6694 22.4145 19.8193 22.6794 19.9666 22.657Z" fill="#009200"/>
<path fill-rule="evenodd" clip-rule="evenodd" d="M19.6837 21.6121C19.6489 21.7302 19.6361 21.8896 19.6547 22.0618C19.6732 22.2341 19.7194 22.3845 19.7781 22.4883C19.8075 22.5403 19.8395 22.5796 19.8718 22.6043C19.904 22.6291 19.9351 22.6384 19.9641 22.634C19.9931 22.6295 20.0212 22.6112 20.0471 22.5776C20.0731 22.544 20.0957 22.4964 20.1131 22.4373C20.1479 22.3192 20.1607 22.1598 20.1422 21.9876C20.1236 21.8153 20.0774 21.6649 20.0187 21.5611C19.9893 21.5092 19.9573 21.4699 19.925 21.4451C19.8928 21.4204 19.8617 21.411 19.8328 21.4155C19.8038 21.4199 19.7756 21.4382 19.7497 21.4718C19.7238 21.5054 19.7011 21.5531 19.6837 21.6121ZM19.714 21.4441C19.7449 21.404 19.7832 21.3763 19.8278 21.3695C19.8724 21.3627 19.9153 21.378 19.9538 21.4076C19.9922 21.4371 20.0277 21.4816 20.0588 21.5367C20.1212 21.647 20.1688 21.8037 20.1879 21.9806C20.207 22.1575 20.1941 22.3234 20.1571 22.4488C20.1387 22.5115 20.1138 22.5652 20.0829 22.6053C20.0519 22.6454 20.0137 22.6731 19.969 22.6799C19.9244 22.6867 19.8815 22.6714 19.843 22.6418C19.8046 22.6123 19.7692 22.5678 19.738 22.5127C19.6756 22.4024 19.628 22.2457 19.6089 22.0688C19.5899 21.8919 19.6027 21.7261 19.6397 21.6006C19.6582 21.5379 19.683 21.4842 19.714 21.4441Z" fill="black"/>
<path fill-rule="evenodd" clip-rule="evenodd" d="M19.439 16.7458C19.439 16.7458 18.5049 17.5615 18.6268 19.7664C18.7642 21.9848 20.7317 23.0262 20.7317 23.0262C20.7317 23.0262 21.2267 22.3951 21.1543 20.6147C20.9941 18.0069 20.0607 16.8582 20.0607 16.8582L19.439 16.7458Z" fill="#804BFF"/>
<path fill-rule="evenodd" clip-rule="evenodd" d="M19.4333 16.7261L20.0705 16.8413L20.0749 16.8467L20.0607 16.8582C20.0749 16.8467 20.0749 16.8467 20.0749 16.8467L20.0756 16.8476L20.0778 16.8503C20.0796 16.8526 20.0823 16.8561 20.0858 16.8607C20.0928 16.8699 20.103 16.8837 20.1161 16.9021C20.1421 16.939 20.1795 16.9944 20.2247 17.069C20.3152 17.2183 20.4373 17.4442 20.5644 17.7517C20.8185 18.3667 21.0924 19.3079 21.1727 20.6139C21.2089 21.5059 21.1031 22.1112 20.9878 22.4937C20.9301 22.6849 20.8701 22.8205 20.8243 22.9085C20.8014 22.9525 20.782 22.9846 20.7683 23.0058C20.7615 23.0164 20.756 23.0243 20.7523 23.0296C20.7504 23.0322 20.7489 23.0342 20.7479 23.0355L20.7467 23.0371C20.7467 23.0371 20.7462 23.0377 20.7317 23.0262C20.7234 23.0425 20.7234 23.0425 20.7233 23.0425L20.7218 23.0417L20.7175 23.0393C20.7137 23.0372 20.7081 23.0341 20.7008 23.03C20.6862 23.0217 20.6648 23.0094 20.6376 22.9929C20.5832 22.9599 20.5054 22.9103 20.4117 22.8438C20.2244 22.711 19.9731 22.5107 19.7176 22.2408C19.2065 21.701 18.6775 20.8821 18.6085 19.7673C18.5474 18.662 18.7509 17.9037 18.9704 17.4214C19.0802 17.1803 19.1939 17.0082 19.2803 16.8963C19.3236 16.8403 19.36 16.7994 19.3857 16.7723C19.3985 16.7588 19.4087 16.7488 19.4157 16.7421C19.4192 16.7387 19.422 16.7362 19.4238 16.7345L19.426 16.7325C19.426 16.7325 19.4268 16.7318 19.439 16.7458L19.4268 16.7318L19.4333 16.7261ZM19.4448 16.7656C19.4438 16.7666 19.4426 16.7678 19.4413 16.769C19.4347 16.7753 19.4249 16.785 19.4124 16.7981C19.3875 16.8242 19.3519 16.8642 19.3095 16.9192C19.2246 17.0291 19.1124 17.1988 19.0039 17.4372C18.7869 17.9139 18.5844 18.666 18.6452 19.7656C18.7135 20.8691 19.237 21.6801 19.744 22.2156C19.9976 22.4833 20.2468 22.682 20.4326 22.8137C20.5255 22.8796 20.6025 22.9287 20.6563 22.9613C20.6831 22.9776 20.7042 22.9898 20.7184 22.9979C20.7213 22.9995 20.7239 23.0009 20.7262 23.0022C20.7292 22.9978 20.733 22.9922 20.7374 22.9854C20.7505 22.9651 20.7693 22.934 20.7916 22.891C20.8364 22.805 20.8956 22.6716 20.9526 22.4825C21.0666 22.1044 21.1721 21.5037 21.136 20.6154C21.0559 19.3137 20.783 18.3767 20.5305 17.7654C20.4042 17.4598 20.2829 17.2356 20.1934 17.0879C20.1486 17.0141 20.1118 16.9594 20.0862 16.9233C20.0734 16.9052 20.0634 16.8917 20.0567 16.8829C20.0543 16.8797 20.0523 16.8772 20.0508 16.8752L19.4448 16.7656ZM20.7317 23.0262L20.7233 23.0425L20.7369 23.0497L20.7467 23.0371L20.7317 23.0262Z" fill="black"/>
<path d="M21.5246 24.0934C21.679 24.0981 21.8241 23.8275 21.8486 23.489C21.873 23.1506 21.7677 22.8724 21.6132 22.8677C21.4588 22.863 21.3137 23.1336 21.2892 23.472C21.2648 23.8105 21.3701 24.0887 21.5246 24.0934Z" fill="#009200"/>
<path fill-rule="evenodd" clip-rule="evenodd" d="M21.4229 23.0514C21.3662 23.1572 21.3244 23.306 21.3124 23.4727C21.3003 23.6394 21.3204 23.7902 21.3616 23.8989C21.4036 24.0098 21.4637 24.0684 21.5263 24.0703C21.5889 24.0722 21.6572 24.0175 21.715 23.9097C21.7717 23.8039 21.8134 23.655 21.8254 23.4883C21.8375 23.3216 21.8174 23.1709 21.7762 23.0621C21.7343 22.9513 21.6742 22.8927 21.6116 22.8908C21.549 22.8889 21.4807 22.9436 21.4229 23.0514ZM21.3821 23.031C21.4416 22.92 21.523 22.8418 21.6149 22.8446C21.7068 22.8474 21.7766 22.9302 21.8197 23.0443C21.8637 23.1604 21.8841 23.318 21.8717 23.4897C21.8593 23.6615 21.8162 23.8171 21.7557 23.9301C21.6962 24.041 21.6148 24.1193 21.5229 24.1165C21.4311 24.1137 21.3613 24.0308 21.3181 23.9168C21.2741 23.8007 21.2537 23.6431 21.2661 23.4713C21.2785 23.2996 21.3216 23.1439 21.3821 23.031Z" fill="black"/>
<path d="M21.0636 23.9678C21.218 23.9725 21.3631 23.7019 21.3876 23.3634C21.412 23.025 21.3067 22.7468 21.1522 22.7421C20.9978 22.7374 20.8527 23.008 20.8282 23.3464C20.8038 23.6849 20.9091 23.9631 21.0636 23.9678Z" fill="#009200"/>
<path fill-rule="evenodd" clip-rule="evenodd" d="M20.9619 22.9258C20.9052 23.0316 20.8634 23.1804 20.8514 23.3471C20.8393 23.5139 20.8594 23.6646 20.9006 23.7734C20.9426 23.8842 21.0027 23.9428 21.0653 23.9447C21.1278 23.9466 21.1961 23.8919 21.2539 23.7841C21.3106 23.6783 21.3524 23.5294 21.3644 23.3627C21.3765 23.196 21.3564 23.0453 21.3152 22.9365C21.2733 22.8257 21.2131 22.7671 21.1506 22.7652C21.088 22.7633 21.0197 22.818 20.9619 22.9258ZM20.9211 22.9054C20.9806 22.7945 21.062 22.7162 21.1539 22.719C21.2457 22.7218 21.3155 22.8046 21.3587 22.9187C21.4027 23.0348 21.4231 23.1924 21.4107 23.3641C21.3983 23.5359 21.3552 23.6916 21.2947 23.8045C21.2352 23.9154 21.1538 23.9937 21.0619 23.9909C20.9701 23.9881 20.9003 23.9052 20.8571 23.7912C20.8131 23.6751 20.7927 23.5175 20.8051 23.3457C20.8175 23.174 20.8606 23.0183 20.9211 22.9054Z" fill="black"/>
<path d="M20.8394 23.3088C20.9939 23.3135 21.1389 23.0429 21.1634 22.7044C21.1879 22.3659 21.0825 22.0878 20.928 22.0831C20.7736 22.0784 20.6285 22.3489 20.6041 22.6874C20.5796 23.0259 20.685 23.3041 20.8394 23.3088Z" fill="#009200"/>
<path fill-rule="evenodd" clip-rule="evenodd" d="M20.7377 22.2668C20.681 22.3725 20.6393 22.5214 20.6272 22.6881C20.6152 22.8548 20.6352 23.0056 20.6764 23.1143C20.7184 23.2252 20.7785 23.2838 20.8411 23.2857C20.9037 23.2876 20.972 23.2329 21.0298 23.1251C21.0865 23.0193 21.1282 22.8704 21.1402 22.7037C21.1523 22.537 21.1323 22.3863 21.0911 22.2775C21.0491 22.1667 20.989 22.1081 20.9264 22.1062C20.8638 22.1043 20.7955 22.1589 20.7377 22.2668ZM20.697 22.2463C20.7564 22.1354 20.8379 22.0572 20.9297 22.06C21.0216 22.0628 21.0914 22.1456 21.1346 22.2596C21.1785 22.3758 21.1989 22.5334 21.1865 22.7051C21.1741 22.8769 21.1311 23.0325 21.0705 23.1455C21.011 23.2564 20.9296 23.3346 20.8377 23.3319C20.7459 23.3291 20.6761 23.2462 20.6329 23.1322C20.5889 23.0161 20.5685 22.8585 20.5809 22.6867C20.5934 22.515 20.6364 22.3593 20.697 22.2463Z" fill="black"/>
<path d="M21.3282 23.4289C21.4773 23.4313 21.6202 23.1302 21.6475 22.7562C21.6747 22.3823 21.576 22.0773 21.427 22.0749C21.2779 22.0725 21.135 22.3736 21.1078 22.7475C21.0805 23.1215 21.1792 23.4265 21.3282 23.4289Z" fill="#009200"/>
<path fill-rule="evenodd" clip-rule="evenodd" d="M21.2433 22.2793C21.1871 22.3976 21.1451 22.5632 21.1316 22.7479C21.1182 22.9326 21.1359 23.0993 21.1747 23.2191C21.1941 23.2791 21.2184 23.3262 21.2457 23.358C21.2729 23.3897 21.3015 23.4046 21.33 23.4051C21.3585 23.4055 21.3892 23.3916 21.4209 23.3608C21.4527 23.3299 21.4838 23.2838 21.5119 23.2245C21.5681 23.1062 21.6101 22.9406 21.6236 22.7559C21.637 22.5711 21.6193 22.4045 21.5805 22.2847C21.5611 22.2247 21.5368 22.1776 21.5095 22.1458C21.4823 22.114 21.4538 22.0992 21.4252 22.0987C21.3967 22.0983 21.366 22.1122 21.3343 22.143C21.3025 22.1739 21.2714 22.22 21.2433 22.2793ZM21.3018 22.1098C21.3396 22.0731 21.3827 22.0503 21.4287 22.051C21.4747 22.0518 21.5144 22.0759 21.5467 22.1137C21.5791 22.1515 21.6057 22.2045 21.6262 22.2678C21.6672 22.3946 21.6851 22.5674 21.6713 22.7566C21.6576 22.9458 21.6145 23.1177 21.5551 23.2429C21.5254 23.3054 21.4911 23.3574 21.4534 23.394C21.4156 23.4307 21.3725 23.4535 21.3265 23.4527C21.2805 23.452 21.2408 23.4279 21.2085 23.3901C21.1761 23.3523 21.1495 23.2993 21.129 23.236C21.088 23.1092 21.0701 22.9364 21.0839 22.7472C21.0977 22.558 21.1407 22.3861 21.2001 22.2609C21.2298 22.1984 21.2641 22.1464 21.3018 22.1098Z" fill="black"/>
<path d="M21.9766 23.546C22.1255 23.5503 22.2668 23.2698 22.2922 22.9195C22.3176 22.5692 22.2175 22.2818 22.0686 22.2776C21.9198 22.2733 21.7785 22.5538 21.7531 22.9041C21.7276 23.2544 21.8278 23.5418 21.9766 23.546Z" fill="#009200"/>
<path fill-rule="evenodd" clip-rule="evenodd" d="M21.8852 22.4675C21.8298 22.5774 21.7887 22.7319 21.7762 22.9047C21.7636 23.0776 21.7822 23.2338 21.8214 23.3464C21.8411 23.4028 21.8655 23.4472 21.8928 23.4773C21.9201 23.5074 21.949 23.5221 21.9783 23.523C22.0076 23.5238 22.0386 23.5108 22.0701 23.4824C22.1016 23.4539 22.1324 23.4111 22.1601 23.3561C22.2155 23.2462 22.2566 23.0917 22.2691 22.9188C22.2817 22.746 22.2631 22.5898 22.2239 22.4772C22.2042 22.4208 22.1798 22.3764 22.1525 22.3463C22.1252 22.3162 22.0963 22.3015 22.067 22.3006C22.0377 22.2998 22.0067 22.3128 21.9752 22.3412C21.9436 22.3697 21.9129 22.4125 21.8852 22.4675ZM21.945 22.3076C21.9826 22.2736 22.0252 22.2532 22.0703 22.2545C22.1154 22.2558 22.1549 22.2786 22.1875 22.3145C22.22 22.3504 22.2469 22.4006 22.2677 22.4604C22.3094 22.5801 22.3282 22.7427 22.3153 22.9202C22.3025 23.0976 22.2602 23.2585 22.2014 23.3753C22.172 23.4337 22.1379 23.4821 22.1003 23.516C22.0627 23.5499 22.0201 23.5704 21.975 23.5691C21.9298 23.5678 21.8904 23.545 21.8578 23.5091C21.8253 23.4732 21.7984 23.423 21.7776 23.3632C21.7359 23.2435 21.7171 23.0809 21.7299 22.9034C21.7428 22.726 21.7851 22.5651 21.8439 22.4483C21.8733 22.3899 21.9074 22.3415 21.945 22.3076Z" fill="black"/>
<path d="M21.6581 23.2612C21.807 23.2654 21.9483 22.9849 21.9737 22.6346C21.9991 22.2843 21.899 21.9969 21.7501 21.9927C21.6012 21.9884 21.4599 22.2689 21.4345 22.6192C21.4091 22.9695 21.5092 23.2569 21.6581 23.2612Z" fill="#009200"/>
<path fill-rule="evenodd" clip-rule="evenodd" d="M21.5666 22.1826C21.5112 22.2926 21.4701 22.4471 21.4576 22.6199C21.4451 22.7927 21.4636 22.9489 21.5028 23.0616C21.5225 23.1179 21.5469 23.1623 21.5743 23.1925C21.6015 23.2225 21.6304 23.2373 21.6597 23.2381C21.6891 23.2389 21.72 23.2259 21.7515 23.1975C21.7831 23.169 21.8138 23.1263 21.8415 23.0712C21.8969 22.9613 21.938 22.8068 21.9505 22.634C21.9631 22.4612 21.9445 22.3049 21.9053 22.1923C21.8857 22.1359 21.8612 22.0915 21.8339 22.0614C21.8066 22.0313 21.7777 22.0166 21.7484 22.0157C21.7191 22.0149 21.6882 22.0279 21.6567 22.0563C21.6251 22.0848 21.5943 22.1276 21.5666 22.1826ZM21.6264 22.0227C21.6641 21.9888 21.7066 21.9683 21.7517 21.9696C21.7969 21.9709 21.8363 21.9937 21.8689 22.0297C21.9014 22.0655 21.9283 22.1157 21.9492 22.1755C21.9908 22.2952 22.0096 22.4578 21.9968 22.6353C21.9839 22.8128 21.9416 22.9736 21.8828 23.0905C21.8534 23.1488 21.8193 23.1972 21.7818 23.2311C21.7441 23.2651 21.7015 23.2855 21.6564 23.2842C21.6113 23.2829 21.5718 23.2601 21.5392 23.2242C21.5067 23.1883 21.4798 23.1381 21.459 23.0783C21.4173 22.9587 21.3985 22.796 21.4114 22.6186C21.4242 22.4411 21.4665 22.2802 21.5253 22.1634C21.5547 22.105 21.5888 22.0566 21.6264 22.0227Z" fill="black"/>
<path d="M21.2671 22.865C21.416 22.8693 21.5573 22.5888 21.5827 22.2385C21.6081 21.8882 21.508 21.6008 21.3591 21.5966C21.2102 21.5923 21.0689 21.8728 21.0435 22.2231C21.0181 22.5734 21.1182 22.8608 21.2671 22.865Z" fill="#009200"/>
<path fill-rule="evenodd" clip-rule="evenodd" d="M21.1756 21.7865C21.1202 21.8964 21.0791 22.0509 21.0666 22.2238C21.0541 22.3966 21.0726 22.5528 21.1118 22.6654C21.1315 22.7218 21.1559 22.7662 21.1833 22.7963C21.2105 22.8264 21.2394 22.8411 21.2687 22.842C21.2981 22.8428 21.329 22.8298 21.3605 22.8014C21.3921 22.7729 21.4228 22.7301 21.4505 22.6751C21.5059 22.5652 21.547 22.4107 21.5595 22.2379C21.5721 22.065 21.5535 21.9088 21.5143 21.7962C21.4947 21.7398 21.4702 21.6954 21.4429 21.6653C21.4156 21.6352 21.3867 21.6205 21.3574 21.6196C21.3281 21.6188 21.2972 21.6318 21.2657 21.6602C21.2341 21.6887 21.2033 21.7315 21.1756 21.7865ZM21.2354 21.6266C21.2731 21.5927 21.3156 21.5722 21.3607 21.5735C21.4059 21.5748 21.4453 21.5976 21.4779 21.6335C21.5104 21.6694 21.5373 21.7196 21.5582 21.7794C21.5998 21.8991 21.6186 22.0617 21.6058 22.2392C21.5929 22.4166 21.5506 22.5775 21.4918 22.6943C21.4624 22.7527 21.4283 22.8011 21.3908 22.835C21.3531 22.869 21.3105 22.8894 21.2654 22.8881C21.2203 22.8868 21.1808 22.864 21.1482 22.8281C21.1157 22.7922 21.0888 22.742 21.068 22.6822C21.0263 22.5625 21.0075 22.3999 21.0204 22.2224C21.0332 22.045 21.0755 21.8841 21.1343 21.7673C21.1637 21.7089 21.1978 21.6605 21.2354 21.6266Z" fill="black"/>
<path d="M20.8814 22.6074C21.0303 22.6116 21.1716 22.3311 21.197 21.9808C21.2224 21.6306 21.1223 21.3431 20.9734 21.3389C20.8245 21.3346 20.6832 21.6151 20.6578 21.9654C20.6324 22.3157 20.7325 22.6031 20.8814 22.6074Z" fill="#009200"/>
<path fill-rule="evenodd" clip-rule="evenodd" d="M20.7899 21.5288C20.7346 21.6388 20.6935 21.7933 20.6809 21.9661C20.6684 22.1389 20.6869 22.2951 20.7262 22.4078C20.7458 22.4641 20.7703 22.5085 20.7976 22.5387C20.8248 22.5687 20.8538 22.5835 20.8831 22.5843C20.9124 22.5851 20.9433 22.5721 20.9748 22.5437C21.0064 22.5153 21.0372 22.4725 21.0649 22.4174C21.1203 22.3075 21.1614 22.153 21.1739 21.9802C21.1864 21.8074 21.1679 21.6511 21.1286 21.5385C21.109 21.4821 21.0846 21.4378 21.0572 21.4076C21.03 21.3775 21.0011 21.3628 20.9717 21.3619C20.9424 21.3611 20.9115 21.3741 20.88 21.4025C20.8484 21.431 20.8176 21.4738 20.7899 21.5288ZM20.8497 21.3689C20.8874 21.335 20.93 21.3145 20.9751 21.3158C21.0202 21.3171 21.0596 21.3399 21.0922 21.3759C21.1248 21.4117 21.1517 21.4619 21.1725 21.5217C21.2142 21.6414 21.233 21.804 21.2201 21.9815C21.2072 22.159 21.165 22.3199 21.1061 22.4367C21.0767 22.495 21.0427 22.5435 21.0051 22.5773C20.9674 22.6113 20.9249 22.6317 20.8797 22.6304C20.8346 22.6291 20.7952 22.6064 20.7626 22.5704C20.7301 22.5345 20.7032 22.4843 20.6823 22.4245C20.6406 22.3049 20.6218 22.1422 20.6347 21.9648C20.6476 21.7873 20.6899 21.6264 20.7487 21.5096C20.7781 21.4512 20.8122 21.4028 20.8497 21.3689Z" fill="black"/>
<path d="M22.3764 22.8043C22.7856 22.6479 22.6847 21.521 22.1512 20.2871C21.6176 19.0533 20.8534 18.1799 20.4443 18.3362C20.0351 18.4926 20.136 19.6196 20.6695 20.8534C21.2031 22.0872 21.9673 22.9607 22.3764 22.8043Z" fill="#C90000"/>
<path fill-rule="evenodd" clip-rule="evenodd" d="M20.2124 19.1903C20.253 19.6446 20.4113 20.2339 20.6778 20.8502C20.9443 21.4665 21.2683 21.9925 21.5764 22.3446C21.7305 22.5207 21.8803 22.653 22.0165 22.7315C22.153 22.81 22.2743 22.8338 22.3729 22.7962C22.4715 22.7585 22.5407 22.6618 22.5801 22.5161C22.6195 22.3705 22.6287 22.1775 22.6083 21.9503C22.5677 21.4959 22.4094 20.9066 22.1429 20.2903C21.8764 19.674 21.5524 19.1481 21.2443 18.7959C21.0902 18.6198 20.9404 18.4875 20.8041 18.4091C20.6677 18.3305 20.5464 18.3067 20.4478 18.3444C20.3492 18.3821 20.28 18.4787 20.2406 18.6245C20.2012 18.7701 20.192 18.963 20.2124 19.1903ZM20.2231 18.6195C20.2632 18.4714 20.3347 18.3686 20.4407 18.3281C20.5467 18.2876 20.6744 18.3143 20.813 18.3941C20.9517 18.474 21.1031 18.6079 21.2579 18.7848C21.5675 19.1388 21.8924 19.6664 22.1595 20.284C22.4265 20.9015 22.5854 21.4926 22.6263 21.9493C22.6467 22.1776 22.6377 22.3728 22.5976 22.521C22.5575 22.6691 22.4859 22.7719 22.3799 22.8125C22.2739 22.853 22.1463 22.8262 22.0077 22.7464C21.8689 22.6665 21.7176 22.5326 21.5628 22.3557C21.2531 22.0018 20.9283 21.4741 20.6612 20.8566C20.3942 20.239 20.2353 19.6479 20.1944 19.1912C20.174 18.963 20.183 18.7678 20.2231 18.6195Z" fill="black"/>
<path d="M20.8153 18.5746C21.006 18.5779 21.1629 18.4437 21.1659 18.2748C21.1688 18.1058 21.0167 17.9662 20.826 17.9629C20.6353 17.9595 20.4784 18.0938 20.4754 18.2627C20.4725 18.4316 20.6247 18.5713 20.8153 18.5746Z" fill="#009200"/>
<path fill-rule="evenodd" clip-rule="evenodd" d="M20.8256 17.9835C20.644 17.9803 20.4988 18.1078 20.4961 18.2631C20.4934 18.4183 20.634 18.5508 20.8157 18.554C20.9974 18.5571 21.1425 18.4296 21.1452 18.2744C21.1479 18.1191 21.0073 17.9867 20.8256 17.9835ZM20.4548 18.2623C20.458 18.0797 20.6267 17.9387 20.8264 17.9422C21.026 17.9457 21.1897 18.0925 21.1865 18.2751C21.1833 18.4577 21.0146 18.5987 20.815 18.5952C20.6153 18.5918 20.4516 18.4449 20.4548 18.2623Z" fill="black"/>
<path d="M21.0867 18.1341C21.2576 18.1371 21.3985 18.0026 21.4015 17.8336C21.4044 17.6647 21.2683 17.5253 21.0974 17.5224C20.9265 17.5194 20.7856 17.6539 20.7827 17.8228C20.7797 17.9918 20.9159 18.1311 21.0867 18.1341Z" fill="#009200"/>
<path fill-rule="evenodd" clip-rule="evenodd" d="M21.097 17.5432C20.9375 17.5404 20.8063 17.666 20.8035 17.8232C20.8008 17.9804 20.9275 18.1105 21.0871 18.1133C21.2467 18.116 21.3779 17.9905 21.3806 17.8333C21.3834 17.6761 21.2566 17.546 21.097 17.5432ZM20.7618 17.8225C20.765 17.6418 20.9156 17.4983 21.0978 17.5015C21.2799 17.5047 21.4255 17.6533 21.4223 17.834C21.4192 18.0147 21.2685 18.1581 21.0864 18.155C20.9042 18.1518 20.7587 18.0031 20.7618 17.8225Z" fill="black"/>
<path d="M20.6659 18.1268C20.8368 18.1297 20.9777 17.9952 20.9806 17.8263C20.9836 17.6574 20.8475 17.518 20.6766 17.515C20.5057 17.512 20.3648 17.6466 20.3619 17.8155C20.3589 17.9844 20.495 18.1238 20.6659 18.1268Z" fill="#009200"/>
<path fill-rule="evenodd" clip-rule="evenodd" d="M20.6762 17.5359C20.5166 17.5331 20.3855 17.6587 20.3827 17.8159C20.38 17.973 20.5067 18.1031 20.6663 18.1059C20.8259 18.1087 20.9571 17.9831 20.9598 17.8259C20.9625 17.6687 20.8358 17.5387 20.6762 17.5359ZM20.341 17.8151C20.3442 17.6345 20.4948 17.491 20.677 17.4942C20.8591 17.4973 21.0047 17.646 21.0015 17.8267C20.9983 18.0073 20.8477 18.1508 20.6656 18.1476C20.4834 18.1444 20.3379 17.9958 20.341 17.8151Z" fill="black"/>
<path d="M20.7519 17.792C20.9305 17.7951 21.0775 17.6691 21.0803 17.5105C21.083 17.352 20.9405 17.2209 20.7619 17.2178C20.5833 17.2147 20.4363 17.3407 20.4335 17.4992C20.4307 17.6578 20.5733 17.7888 20.7519 17.792Z" fill="#009200"/>
<path fill-rule="evenodd" clip-rule="evenodd" d="M20.7615 17.2384C20.592 17.2355 20.4567 17.3547 20.4542 17.4996C20.4516 17.6445 20.5827 17.7683 20.7522 17.7713C20.9218 17.7743 21.0571 17.6551 21.0596 17.5102C21.0621 17.3652 20.9311 17.2414 20.7615 17.2384ZM20.4129 17.4989C20.4159 17.3267 20.5746 17.1939 20.7623 17.1971C20.9499 17.2004 21.1039 17.3387 21.1009 17.5109C21.0979 17.6831 20.9391 17.8159 20.7515 17.8126C20.5639 17.8093 20.4098 17.6711 20.4129 17.4989Z" fill="black"/>
<path d="M20.7178 17.4271C20.8964 17.4302 21.0434 17.3042 21.0462 17.1456C21.0489 16.9871 20.9064 16.856 20.7278 16.8529C20.5492 16.8498 20.4022 16.9758 20.3994 17.1344C20.3966 17.2929 20.5392 17.424 20.7178 17.4271Z" fill="#009200"/>
<path fill-rule="evenodd" clip-rule="evenodd" d="M20.7274 16.8736C20.5579 16.8706 20.4226 16.9898 20.42 17.1347C20.4175 17.2796 20.5485 17.4035 20.7181 17.4064C20.8877 17.4094 21.023 17.2902 21.0255 17.1453C21.028 17.0004 20.897 16.8765 20.7274 16.8736ZM20.3787 17.134C20.3818 16.9618 20.5405 16.829 20.7281 16.8323C20.9158 16.8355 21.0698 16.9738 21.0668 17.146C21.0638 17.3182 20.905 17.451 20.7174 17.4477C20.5298 17.4445 20.3757 17.3062 20.3787 17.134Z" fill="black"/>
<path d="M20.2652 17.8931C20.4361 17.8961 20.577 17.7616 20.58 17.5926C20.5829 17.4237 20.4468 17.2843 20.2759 17.2814C20.1051 17.2784 19.9641 17.4129 19.9612 17.5818C19.9582 17.7508 20.0944 17.8901 20.2652 17.8931Z" fill="#009200"/>
<path fill-rule="evenodd" clip-rule="evenodd" d="M20.2756 17.3022C20.116 17.2994 19.9848 17.425 19.982 17.5822C19.9793 17.7394 20.106 17.8695 20.2656 17.8723C20.4252 17.875 20.5564 17.7495 20.5591 17.5923C20.5619 17.4351 20.4351 17.305 20.2756 17.3022ZM19.9403 17.5815C19.9435 17.4008 20.0941 17.2573 20.2763 17.2605C20.4585 17.2637 20.604 17.4123 20.6008 17.593C20.5977 17.7737 20.447 17.9171 20.2649 17.914C20.0827 17.9108 19.9372 17.7621 19.9403 17.5815Z" fill="black"/>
<path d="M20.3533 17.4884C20.5241 17.4914 20.665 17.3597 20.6679 17.1942C20.6708 17.0287 20.5346 16.8922 20.3637 16.8892C20.1928 16.8862 20.052 17.0179 20.0491 17.1834C20.0462 17.3489 20.1824 17.4854 20.3533 17.4884Z" fill="#009200"/>
<path fill-rule="evenodd" clip-rule="evenodd" d="M20.3634 16.9098C20.2033 16.9071 20.0724 17.0303 20.0697 17.1838C20.0671 17.3372 20.1935 17.465 20.3536 17.4678C20.5137 17.4706 20.6446 17.3473 20.6472 17.1939C20.6499 17.0404 20.5235 16.9126 20.3634 16.9098ZM20.0285 17.1831C20.0316 17.0056 20.1824 16.8654 20.3641 16.8686C20.5457 16.8717 20.6916 17.0171 20.6885 17.1946C20.6854 17.3721 20.5345 17.5122 20.3529 17.5091C20.1713 17.5059 20.0254 17.3605 20.0285 17.1831Z" fill="black"/>
<path d="M19.8464 17.5053C20.0371 17.5087 20.194 17.3744 20.197 17.2055C20.1999 17.0366 20.0477 16.8969 19.8571 16.8936C19.6664 16.8903 19.5094 17.0245 19.5065 17.1934C19.5036 17.3624 19.6557 17.502 19.8464 17.5053Z" fill="#009200"/>
<path fill-rule="evenodd" clip-rule="evenodd" d="M19.8567 16.9142C19.675 16.9111 19.5299 17.0386 19.5271 17.1938C19.5244 17.349 19.6651 17.4815 19.8467 17.4847C20.0284 17.4879 20.1736 17.3604 20.1763 17.2051C20.179 17.0499 20.0384 16.9174 19.8567 16.9142ZM19.4859 17.1931C19.489 17.0105 19.6578 16.8695 19.8574 16.8729C20.0571 16.8764 20.2208 17.0232 20.2176 17.2059C20.2144 17.3885 20.0457 17.5295 19.846 17.526C19.6464 17.5225 19.4827 17.3757 19.4859 17.1931Z" fill="black"/>
<path d="M20.4828 16.9778C20.6614 16.9809 20.8084 16.8549 20.8111 16.6963C20.8139 16.5378 20.6714 16.4067 20.4928 16.4036C20.3142 16.4005 20.1672 16.5265 20.1644 16.685C20.1616 16.8436 20.3042 16.9746 20.4828 16.9778Z" fill="#009200"/>
<path fill-rule="evenodd" clip-rule="evenodd" d="M20.4924 16.4242C20.3228 16.4213 20.1876 16.5405 20.185 16.6854C20.1825 16.8303 20.3135 16.9541 20.4831 16.9571C20.6527 16.9601 20.788 16.8409 20.7905 16.696C20.793 16.5511 20.662 16.4272 20.4924 16.4242ZM20.1437 16.6847C20.1467 16.5125 20.3055 16.3797 20.4931 16.3829C20.6808 16.3862 20.8348 16.5245 20.8318 16.6967C20.8288 16.8689 20.67 17.0017 20.4824 16.9984C20.2948 16.9951 20.1407 16.8569 20.1437 16.6847Z" fill="black"/>
<path d="M20.0534 17.0461C20.2242 17.049 20.3651 16.9173 20.368 16.7519C20.3709 16.5864 20.2347 16.4498 20.0638 16.4468C19.893 16.4439 19.7521 16.5756 19.7492 16.7411C19.7463 16.9065 19.8825 17.0431 20.0534 17.0461Z" fill="#009200"/>
<path fill-rule="evenodd" clip-rule="evenodd" d="M20.0635 16.4675C19.9034 16.4647 19.7725 16.588 19.7698 16.7414C19.7672 16.8949 19.8936 17.0226 20.0537 17.0254C20.2138 17.0282 20.3447 16.9049 20.3474 16.7515C20.35 16.598 20.2236 16.4703 20.0635 16.4675ZM19.7286 16.7407C19.7317 16.5632 19.8826 16.423 20.0642 16.4262C20.2458 16.4294 20.3917 16.5747 20.3886 16.7522C20.3855 16.9297 20.2347 17.0699 20.053 17.0667C19.8714 17.0635 19.7255 16.9182 19.7286 16.7407Z" fill="black"/>
<path d="M19.3894 17.5216C19.5603 17.5246 19.7012 17.3901 19.7041 17.2212C19.7071 17.0522 19.5709 16.9129 19.4001 16.9099C19.2292 16.9069 19.0883 17.0414 19.0853 17.2104C19.0824 17.3793 19.2185 17.5187 19.3894 17.5216Z" fill="#009200"/>
<path fill-rule="evenodd" clip-rule="evenodd" d="M19.3997 16.9307C19.2401 16.928 19.1089 17.0535 19.1062 17.2107C19.1034 17.3679 19.2302 17.498 19.3897 17.5008C19.5493 17.5036 19.6805 17.378 19.6833 17.2208C19.686 17.0636 19.5593 16.9335 19.3997 16.9307ZM19.0645 17.21C19.0676 17.0293 19.2183 16.8859 19.4004 16.889C19.5826 16.8922 19.7281 17.0409 19.725 17.2215C19.7218 17.4022 19.5712 17.5457 19.389 17.5425C19.2068 17.5393 19.0613 17.3907 19.0645 17.21Z" fill="black"/>
<path d="M19.4987 17.2873C19.6696 17.2903 19.8104 17.1586 19.8133 16.9931C19.8162 16.8276 19.68 16.6911 19.5092 16.6881C19.3383 16.6851 19.1974 16.8168 19.1945 16.9823C19.1917 17.1478 19.3278 17.2843 19.4987 17.2873Z" fill="#009200"/>
<path fill-rule="evenodd" clip-rule="evenodd" d="M19.5088 16.7087C19.3487 16.7059 19.2179 16.8292 19.2152 16.9827C19.2125 17.1361 19.339 17.2639 19.4991 17.2667C19.6592 17.2695 19.79 17.1462 19.7927 16.9928C19.7954 16.8393 19.6689 16.7115 19.5088 16.7087ZM19.1739 16.982C19.177 16.8045 19.3279 16.6643 19.5095 16.6675C19.6912 16.6706 19.8371 16.816 19.834 16.9935C19.8309 17.171 19.68 17.3111 19.4983 17.308C19.3167 17.3048 19.1708 17.1594 19.1739 16.982Z" fill="black"/>
<path d="M19.6326 17.0387C19.8034 17.0417 19.9443 16.91 19.9472 16.7445C19.9501 16.579 19.8139 16.4425 19.643 16.4395C19.4722 16.4365 19.3313 16.5682 19.3284 16.7337C19.3255 16.8992 19.4617 17.0357 19.6326 17.0387Z" fill="#009200"/>
<path fill-rule="evenodd" clip-rule="evenodd" d="M19.6427 16.4601C19.4826 16.4573 19.3517 16.5806 19.349 16.7341C19.3464 16.8875 19.4728 17.0153 19.6329 17.0181C19.793 17.0209 19.9239 16.8976 19.9266 16.7442C19.9292 16.5907 19.8028 16.4629 19.6427 16.4601ZM19.3078 16.7333C19.3109 16.5559 19.4617 16.4157 19.6434 16.4189C19.825 16.422 19.9709 16.5674 19.9678 16.7449C19.9647 16.9224 19.8138 17.0625 19.6322 17.0594C19.4506 17.0562 19.3047 16.9108 19.3078 16.7333Z" fill="black"/>
<path d="M22.7761 22.8056C23.3016 22.6193 23.2149 21.2771 22.5822 19.8077C21.9496 18.3384 21.0107 17.2984 20.4851 17.4848C19.9595 17.6711 20.0463 19.0133 20.6789 20.4827C21.3116 21.952 22.2505 22.992 22.7761 22.8056Z" fill="#009200"/>
<path fill-rule="evenodd" clip-rule="evenodd" d="M20.1662 18.5023C20.2011 19.0424 20.3803 19.7433 20.6961 20.4766C21.0118 21.2099 21.4037 21.8354 21.7815 22.2538C21.9704 22.4631 22.1552 22.6199 22.3243 22.7127C22.4936 22.8055 22.6447 22.833 22.7689 22.789C22.8931 22.745 22.9836 22.6318 23.0387 22.4594C23.0937 22.2871 23.1124 22.0582 23.0949 21.7881C23.06 21.248 22.8808 20.5471 22.5651 19.8138C22.2493 19.0805 21.8574 18.455 21.4797 18.0366C21.2907 17.8273 21.106 17.6705 20.9368 17.5777C20.7675 17.4849 20.6164 17.4574 20.4923 17.5014C20.3681 17.5454 20.2776 17.6586 20.2225 17.831C20.1675 18.0033 20.1488 18.2322 20.1662 18.5023ZM20.1869 17.8193C20.2436 17.6418 20.3393 17.5173 20.4779 17.4681C20.6165 17.419 20.7799 17.4516 20.9542 17.5472C21.1287 17.6429 21.3168 17.8031 21.5074 18.0142C21.8886 18.4364 22.2825 19.0657 22.5994 19.8017C22.9163 20.5377 23.0968 21.2425 23.132 21.7875C23.1496 22.0599 23.131 22.2934 23.0743 22.4711C23.0176 22.6486 22.9218 22.7731 22.7832 22.8223C22.6446 22.8714 22.4812 22.8388 22.3069 22.7432C22.1324 22.6475 21.9443 22.4873 21.7538 22.2762C21.3726 21.854 20.9787 21.2248 20.6618 20.4887C20.3449 19.7527 20.1644 19.0479 20.1291 18.5029C20.1115 18.2305 20.1301 17.997 20.1869 17.8193Z" fill="black"/>
<path d="M22.7063 21.168C22.8035 21.1215 22.7713 20.8358 22.6342 20.5298C22.4971 20.2238 22.3071 20.0133 22.2099 20.0597C22.1126 20.1061 22.1449 20.3918 22.2819 20.6979C22.419 21.0039 22.609 21.2144 22.7063 21.168Z" fill="#009200"/>
<path fill-rule="evenodd" clip-rule="evenodd" d="M22.1762 20.279C22.189 20.3921 22.2307 20.5381 22.2987 20.6899C22.3666 20.8417 22.4474 20.969 22.5226 21.0524C22.5603 21.0941 22.5959 21.124 22.627 21.1406C22.6584 21.1574 22.682 21.1591 22.6987 21.1511C22.7154 21.1432 22.7295 21.1235 22.7374 21.0879C22.7453 21.0527 22.7463 21.0054 22.7399 20.9487C22.7271 20.8356 22.6855 20.6895 22.6175 20.5378C22.5495 20.386 22.4687 20.2586 22.3935 20.1753C22.3558 20.1336 22.3203 20.1037 22.2892 20.0871C22.2577 20.0703 22.2341 20.0686 22.2174 20.0765C22.2007 20.0845 22.1867 20.1042 22.1787 20.1398C22.1708 20.175 22.1698 20.2223 22.1762 20.279ZM22.143 20.1322C22.152 20.0916 22.1704 20.0581 22.2023 20.0429C22.2343 20.0277 22.2709 20.0349 22.3067 20.0541C22.3429 20.0734 22.3816 20.1066 22.4207 20.1499C22.4991 20.2367 22.5818 20.3676 22.6509 20.5218C22.72 20.6761 22.763 20.8259 22.7763 20.9438C22.7829 21.0026 22.7823 21.0545 22.7732 21.0955C22.7641 21.1361 22.7457 21.1695 22.7138 21.1848C22.6819 21.2 22.6452 21.1928 22.6094 21.1736C22.5733 21.1543 22.5345 21.1211 22.4954 21.0778C22.417 20.991 22.3343 20.8601 22.2652 20.7058C22.1961 20.5516 22.1531 20.4018 22.1398 20.2839C22.1332 20.2251 22.1338 20.1731 22.143 20.1322Z" fill="black"/>
<path fill-rule="evenodd" clip-rule="evenodd" d="M22.3657 20.6114C23.1889 21.6104 23.0825 22.2465 22.9953 22.7836C22.7362 22.164 22.5995 21.7743 21.7764 20.7754C20.9532 19.7764 21.3643 19.0747 21.4208 18.7036C21.5444 19.0246 21.5425 19.6125 22.3657 20.6114Z" fill="#009200"/>
<path fill-rule="evenodd" clip-rule="evenodd" d="M21.3913 18.9254C21.2826 19.3261 21.1147 19.9452 21.7946 20.7703C22.5715 21.7131 22.7386 22.1151 22.972 22.6769C22.9763 22.6872 22.9806 22.6975 22.9849 22.7079C23.0247 22.4586 23.0596 22.1877 23.0003 21.8689C22.9353 21.5203 22.7573 21.1138 22.3475 20.6165C21.6963 19.8263 21.5589 19.2906 21.4698 18.9436C21.4551 18.8859 21.4416 18.8335 21.4273 18.786C21.4174 18.829 21.4048 18.8755 21.3913 18.9254ZM21.3486 18.9105C21.3704 18.8304 21.3897 18.7596 21.399 18.6983L21.4418 18.7031C21.4685 18.7724 21.4893 18.8534 21.5135 18.9477C21.6028 19.2952 21.7384 19.823 22.384 20.6063C22.7973 21.108 22.9777 21.5191 23.0436 21.8725C23.1089 22.2232 23.0612 22.5166 23.0179 22.7836L23.017 22.789L22.9744 22.7845C22.9593 22.7483 22.9446 22.7129 22.9301 22.6781C22.6974 22.118 22.5316 21.7191 21.7581 20.7804C21.0676 19.9425 21.2397 19.3105 21.3486 18.9105Z" fill="black"/>
<path fill-rule="evenodd" clip-rule="evenodd" d="M22.44 21.4184C23.2632 22.4174 23.1568 23.0535 23.0696 23.5906C22.8105 22.971 22.6738 22.5813 21.8507 21.5823C21.0275 20.5834 21.4386 19.8816 21.4951 19.5105C21.6187 19.8316 21.6168 20.4194 22.44 21.4184Z" fill="#009200"/>
<path fill-rule="evenodd" clip-rule="evenodd" d="M21.4656 19.7324C21.3569 20.1331 21.189 20.7522 21.8689 21.5773C22.6458 22.52 22.8129 22.922 23.0463 23.4838C23.0506 23.4941 23.0549 23.5045 23.0592 23.5149C23.099 23.2656 23.1339 22.9946 23.0746 22.6759C23.0096 22.3272 22.8316 21.9208 22.4218 21.4235C21.7706 20.6333 21.6332 20.0976 21.5441 19.7506C21.5294 19.6929 21.5159 19.6405 21.5016 19.593C21.4917 19.636 21.4791 19.6825 21.4656 19.7324ZM21.4229 19.7174C21.4447 19.6374 21.464 19.5666 21.4733 19.5053L21.5161 19.5101C21.5427 19.5793 21.5636 19.6604 21.5878 19.7547C21.6771 20.1021 21.8127 20.63 22.4583 21.4133C22.8716 21.9149 23.052 22.326 23.1179 22.6795C23.1832 23.0302 23.1355 23.3236 23.0922 23.5906L23.0913 23.596L23.0487 23.5914C23.0336 23.5553 23.0189 23.5199 23.0044 23.4851C22.7717 22.925 22.6059 22.5261 21.8324 21.5874C21.1419 20.7495 21.314 20.1175 21.4229 19.7174Z" fill="black"/>
<path fill-rule="evenodd" clip-rule="evenodd" d="M22.4701 22.0688C23.314 23.0499 23.2208 23.688 23.1446 24.2269C22.8728 23.613 22.728 23.2263 21.8842 22.2452C21.0404 21.2641 21.437 20.5538 21.4857 20.1816C21.616 20.4999 21.6263 21.0877 22.4701 22.0688Z" fill="#009200"/>
<path fill-rule="evenodd" clip-rule="evenodd" d="M21.4608 20.4041C21.3605 20.8069 21.2054 21.4294 21.9023 22.2398C22.6987 23.1657 22.8741 23.564 23.1192 24.1207C23.1236 24.1309 23.1282 24.1411 23.1327 24.1514C23.1673 23.9014 23.1967 23.6297 23.1307 23.3124C23.0585 22.9652 22.8721 22.5627 22.452 22.0742C21.7845 21.2982 21.636 20.7655 21.5398 20.4206C21.5238 20.3632 21.5092 20.3111 21.494 20.2639C21.485 20.3072 21.4733 20.3539 21.4608 20.4041ZM21.4179 20.39C21.438 20.3095 21.4558 20.2383 21.4639 20.1769L21.5067 20.1807C21.5348 20.2494 21.5573 20.33 21.5835 20.4237C21.68 20.7692 21.8266 21.2939 22.4883 22.0633C22.912 22.5559 23.1009 22.9631 23.1741 23.315C23.2467 23.6642 23.2051 23.9585 23.1672 24.2264L23.1664 24.2318L23.1238 24.2282C23.1079 24.1923 23.0924 24.1572 23.0773 24.1228C22.833 23.5678 22.659 23.1726 21.866 22.2507C21.1583 21.4278 21.3172 20.7923 21.4179 20.39Z" fill="black"/>
<path d="M22.3276 20.6602C22.5204 20.6109 22.4806 20.1288 22.2389 19.5835C21.9972 19.0383 21.645 18.6363 21.4523 18.6857C21.2595 18.735 21.2992 19.2171 21.5409 19.7623C21.7827 20.3076 22.1349 20.7096 22.3276 20.6602Z" fill="#009200"/>
<path fill-rule="evenodd" clip-rule="evenodd" d="M21.3533 19.039C21.3692 19.2315 21.4389 19.4864 21.5591 19.7577C21.6794 20.029 21.8269 20.2639 21.9675 20.4245C22.0379 20.5048 22.1058 20.5656 22.167 20.6032C22.2284 20.641 22.2798 20.6534 22.32 20.6431C22.3602 20.6328 22.3912 20.5992 22.4101 20.5409C22.4288 20.4829 22.4345 20.4032 22.4265 20.3069C22.4107 20.1144 22.341 19.8595 22.2207 19.5882C22.1005 19.3169 21.953 19.0819 21.8124 18.9214C21.742 18.8411 21.674 18.7803 21.6129 18.7427C21.5515 18.7049 21.5 18.6925 21.4598 18.7028C21.4196 18.7131 21.3886 18.7467 21.3698 18.8049C21.351 18.863 21.3454 18.9427 21.3533 19.039ZM21.3318 18.7911C21.3522 18.7281 21.3885 18.6829 21.4447 18.6685C21.5008 18.6542 21.5657 18.6734 21.6321 18.7142C21.6987 18.7552 21.7701 18.8196 21.8421 18.9018C21.9862 19.0662 22.1357 19.3049 22.2571 19.5789C22.3786 19.8528 22.4496 20.1116 22.4658 20.3088C22.474 20.4073 22.4685 20.4915 22.448 20.5548C22.4277 20.6178 22.3914 20.663 22.3352 20.6773C22.279 20.6917 22.2141 20.6725 22.1478 20.6317C22.0811 20.5907 22.0097 20.5262 21.9378 20.4441C21.7937 20.2796 21.6442 20.041 21.5228 19.767C21.4013 19.493 21.3303 19.2343 21.314 19.0371C21.3059 18.9386 21.3114 18.8544 21.3318 18.7911Z" fill="black"/>
<path d="M21.903 21.0522C22.0764 21.0221 22.0648 20.6316 21.877 20.18C21.6892 19.7284 21.3964 19.3868 21.2229 19.4169C21.0494 19.4471 21.0611 19.8376 21.2489 20.2891C21.4367 20.7407 21.7295 21.0823 21.903 21.0522Z" fill="#009200"/>
<path fill-rule="evenodd" clip-rule="evenodd" d="M21.1197 19.6977C21.1243 19.8532 21.1736 20.0616 21.2669 20.286C21.3602 20.5104 21.4793 20.7067 21.5959 20.8427C21.6542 20.9107 21.7112 20.9628 21.7632 20.9959C21.8153 21.029 21.8599 21.0416 21.896 21.0354C21.932 21.0291 21.9609 21.0037 21.9802 20.9582C21.9996 20.9127 22.0085 20.8492 22.0062 20.7714C22.0015 20.616 21.9523 20.4075 21.859 20.1831C21.7657 19.9588 21.6466 19.7624 21.53 19.6265C21.4717 19.5584 21.4147 19.5063 21.3627 19.4732C21.3106 19.4401 21.2659 19.4275 21.2299 19.4338C21.1938 19.44 21.165 19.4654 21.1456 19.5109C21.1263 19.5564 21.1174 19.6199 21.1197 19.6977ZM21.1091 19.4939C21.1305 19.4437 21.1652 19.4089 21.2159 19.4001C21.2666 19.3913 21.3236 19.4101 21.3811 19.4467C21.4386 19.4833 21.4991 19.5392 21.5592 19.6092C21.6793 19.7494 21.8005 19.9497 21.895 20.1769C21.9895 20.4041 22.04 20.6166 22.0448 20.7769C22.0472 20.8569 22.0382 20.9249 22.0168 20.9752C21.9954 21.0254 21.9607 21.0602 21.91 21.069C21.8593 21.0778 21.8023 21.059 21.7448 21.0224C21.6872 20.9858 21.6267 20.9299 21.5667 20.8599C21.4465 20.7197 21.3253 20.5194 21.2309 20.2922C21.1364 20.0651 21.0859 19.8525 21.0811 19.6923C21.0787 19.6122 21.0877 19.5443 21.1091 19.4939Z" fill="black"/>
<path d="M21.4897 21.428C21.6637 21.4015 21.6601 21.011 21.4818 20.5558C21.3034 20.1006 21.0178 19.753 20.8439 19.7796C20.6699 19.8061 20.6735 20.1966 20.8518 20.6518C21.0302 21.107 21.3158 21.4545 21.4897 21.428Z" fill="#009200"/>
<path fill-rule="evenodd" clip-rule="evenodd" d="M20.735 20.058C20.7364 20.2135 20.7812 20.4228 20.8699 20.649C20.9585 20.8752 21.0735 21.0739 21.1872 21.2122C21.2441 21.2814 21.2999 21.3347 21.3512 21.3688C21.4026 21.403 21.4469 21.4165 21.4831 21.411C21.5192 21.4055 21.5486 21.3808 21.5689 21.3356C21.5892 21.2906 21.5993 21.2273 21.5986 21.1495C21.5972 20.9941 21.5523 20.7847 21.4637 20.5585C21.3751 20.3323 21.2601 20.1337 21.1464 19.9953C21.0895 19.9261 21.0337 19.8729 20.9824 19.8387C20.931 19.8045 20.8867 19.791 20.8505 19.7965C20.8144 19.802 20.785 19.8268 20.7647 19.8719C20.7444 19.9169 20.7342 19.9803 20.735 20.058ZM20.7286 19.8541C20.751 19.8044 20.7864 19.7703 20.8372 19.7626C20.888 19.7549 20.9446 19.7748 21.0013 19.8126C21.0581 19.8504 21.1174 19.9075 21.1759 19.9787C21.2931 20.1213 21.4101 20.324 21.4998 20.553C21.5896 20.782 21.6357 20.9955 21.6371 21.1558C21.6378 21.2358 21.6275 21.3035 21.605 21.3534C21.5826 21.4032 21.5472 21.4372 21.4964 21.4449C21.4455 21.4527 21.389 21.4327 21.3323 21.395C21.2755 21.3572 21.2162 21.3001 21.1577 21.2288C21.0405 21.0862 20.9235 20.8835 20.8338 20.6545C20.744 20.4255 20.6979 20.212 20.6965 20.0518C20.6958 19.9717 20.7061 19.904 20.7286 19.8541Z" fill="black"/>
<path d="M21.7908 19.8515C21.931 19.8256 21.9135 19.5318 21.7519 19.1954C21.5902 18.8589 21.3456 18.6071 21.2054 18.633C21.0653 18.6589 21.0827 18.9527 21.2444 19.2892C21.406 19.6256 21.6507 19.8774 21.7908 19.8515Z" fill="#009200"/>
<path fill-rule="evenodd" clip-rule="evenodd" d="M21.132 18.8474C21.1389 18.9636 21.1828 19.119 21.2629 19.2857C21.343 19.4525 21.4434 19.5974 21.5401 19.697C21.5886 19.7469 21.6353 19.7845 21.6774 19.808C21.7195 19.8315 21.7548 19.8397 21.7827 19.8346C21.8106 19.8294 21.8329 19.8106 21.8474 19.7766C21.8619 19.7426 21.8678 19.6952 21.8643 19.6371C21.8574 19.5209 21.8134 19.3655 21.7333 19.1988C21.6532 19.0321 21.5529 18.8871 21.4561 18.7875C21.4077 18.7377 21.3609 18.7 21.3189 18.6765C21.2767 18.653 21.2415 18.6448 21.2136 18.6499C21.1856 18.6551 21.1634 18.6739 21.1489 18.7079C21.1344 18.7419 21.1285 18.7893 21.132 18.8474ZM21.1104 18.6903C21.127 18.6514 21.1551 18.6238 21.1973 18.6161C21.2394 18.6083 21.2873 18.6218 21.3355 18.6487C21.3838 18.6757 21.4346 18.7171 21.485 18.7691C21.586 18.873 21.6889 19.0222 21.7704 19.1919C21.852 19.3617 21.8976 19.5214 21.9048 19.6427C21.9084 19.7033 21.9024 19.7552 21.8858 19.7942C21.8692 19.8331 21.8411 19.8607 21.799 19.8685C21.7568 19.8763 21.709 19.8627 21.6607 19.8358C21.6125 19.8088 21.5617 19.7674 21.5112 19.7155C21.4102 19.6115 21.3074 19.4623 21.2258 19.2926C21.1443 19.1228 21.0987 18.9631 21.0915 18.8418C21.0879 18.7812 21.0938 18.7293 21.1104 18.6903Z" fill="black"/>
<path d="M21.4093 20.1229C21.5509 20.1047 21.5523 19.8103 21.4125 19.4655C21.2726 19.1206 21.0445 18.8558 20.9029 18.8741C20.7613 18.8923 20.7599 19.1867 20.8997 19.5315C21.0395 19.8764 21.2677 20.1412 21.4093 20.1229Z" fill="#009200"/>
<path fill-rule="evenodd" clip-rule="evenodd" d="M20.8157 19.0843C20.8152 19.2007 20.8491 19.3583 20.9184 19.5291C20.9877 19.7 21.0785 19.8502 21.1688 19.9549C21.2139 20.0073 21.2582 20.0475 21.2987 20.0733C21.3392 20.099 21.3739 20.1092 21.4022 20.1055C21.4305 20.1019 21.4539 20.0842 21.4706 20.0511C21.4872 20.018 21.4961 19.971 21.4964 19.9127C21.497 19.7963 21.4631 19.6388 21.3938 19.4679C21.3245 19.297 21.2336 19.1468 21.1434 19.0421C21.0982 18.9897 21.054 18.9495 21.0135 18.9238C20.9729 18.898 20.9382 18.8879 20.91 18.8915C20.8817 18.8951 20.8582 18.9128 20.8416 18.9459C20.8249 18.979 20.816 19.026 20.8157 19.0843ZM20.8044 18.9261C20.8235 18.8881 20.8533 18.8622 20.8958 18.8567C20.9383 18.8512 20.9853 18.8673 21.0317 18.8968C21.0781 18.9264 21.1262 18.9705 21.1733 19.0252C21.2675 19.1345 21.3606 19.2891 21.4311 19.4631C21.5017 19.6371 21.537 19.7991 21.5364 19.9207C21.5361 19.9814 21.5268 20.0329 21.5078 20.0709C21.4887 20.1089 21.4588 20.1349 21.4163 20.1403C21.3738 20.1458 21.3269 20.1297 21.2805 20.1002C21.234 20.0707 21.186 20.0265 21.1389 19.9719C21.0447 19.8625 20.9516 19.7079 20.881 19.5339C20.8105 19.3599 20.7752 19.1979 20.7758 19.0764C20.7761 19.0156 20.7853 18.9641 20.8044 18.9261Z" fill="black"/>
<path fill-rule="evenodd" clip-rule="evenodd" d="M20.8976 19.1024C21.1404 19.6952 21.2385 20.2287 21.1159 20.2934C20.9933 20.3581 20.6972 19.9291 20.4544 19.3363" fill="#009200"/>
<path fill-rule="evenodd" clip-rule="evenodd" d="M21.0685 20.2767C21.0861 20.2825 21.0991 20.2813 21.1088 20.2762C21.1186 20.271 21.1278 20.2605 21.1352 20.2415C21.1426 20.2224 21.1477 20.1963 21.1497 20.1633C21.1538 20.0974 21.1458 20.0079 21.1261 19.9008C21.0869 19.6869 21.0021 19.4067 20.8811 19.1111L20.9141 19.0937C21.0359 19.3909 21.1215 19.6738 21.1614 19.891C21.1813 19.9995 21.19 20.0926 21.1856 20.1634C21.1834 20.1987 21.1778 20.2296 21.1682 20.2544C21.1584 20.2793 21.1438 20.2996 21.1229 20.3106C21.102 20.3216 21.079 20.3212 21.0559 20.3136C21.033 20.3061 21.0086 20.2909 20.9834 20.2701C20.9329 20.2283 20.8758 20.1607 20.8155 20.0735C20.6949 19.8989 20.5596 19.6422 20.4379 19.345L20.4709 19.3276C20.592 19.6231 20.7261 19.8774 20.8449 20.0493C20.9043 20.1354 20.9594 20.2 21.0065 20.2389C21.03 20.2584 21.0508 20.2709 21.0685 20.2767Z" fill="black"/>
<path d="M21.3709 19.4258C21.5125 19.4076 21.5139 19.1132 21.3741 18.7684C21.2342 18.4235 21.0061 18.1587 20.8645 18.177C20.7229 18.1952 20.7215 18.4896 20.8613 18.8344C21.0011 19.1793 21.2293 19.4441 21.3709 19.4258Z" fill="#009200"/>
<path fill-rule="evenodd" clip-rule="evenodd" d="M20.7773 18.3872C20.7768 18.5036 20.8107 18.6612 20.88 18.832C20.9493 19.0029 21.0401 19.1531 21.1304 19.2578C21.1755 19.3102 21.2198 19.3504 21.2603 19.3761C21.3008 19.4019 21.3355 19.4121 21.3638 19.4084C21.3921 19.4048 21.4155 19.3871 21.4322 19.354C21.4488 19.3209 21.4577 19.2739 21.458 19.2156C21.4586 19.0992 21.4247 18.9416 21.3554 18.7708C21.2861 18.5999 21.1952 18.4497 21.105 18.345C21.0599 18.2926 21.0156 18.2524 20.9751 18.2267C20.9345 18.2009 20.8998 18.1907 20.8716 18.1944C20.8433 18.198 20.8198 18.2157 20.8032 18.2488C20.7865 18.2819 20.7776 18.3289 20.7773 18.3872ZM20.766 18.229C20.7851 18.191 20.8149 18.165 20.8574 18.1596C20.8999 18.1541 20.9469 18.1702 20.9933 18.1997C21.0398 18.2293 21.0878 18.2734 21.1349 18.328C21.2291 18.4374 21.3222 18.592 21.3927 18.766C21.4633 18.94 21.4986 19.102 21.498 19.2235C21.4977 19.2843 21.4884 19.3358 21.4694 19.3738C21.4503 19.4118 21.4204 19.4378 21.3779 19.4432C21.3354 19.4487 21.2885 19.4326 21.2421 19.4031C21.1956 19.3735 21.1476 19.3294 21.1005 19.2747C21.0063 19.1654 20.9132 19.0108 20.8426 18.8368C20.7721 18.6628 20.7368 18.5008 20.7374 18.3792C20.7377 18.3185 20.7469 18.267 20.766 18.229Z" fill="black"/>
<path d="M20.9643 19.6218C21.1063 19.6063 21.1142 19.3121 20.9819 18.9646C20.8496 18.6172 20.6271 18.3481 20.485 18.3636C20.343 18.3791 20.3351 18.6733 20.4674 19.0208C20.5997 19.3682 20.8222 19.6373 20.9643 19.6218Z" fill="#009200"/>
<path fill-rule="evenodd" clip-rule="evenodd" d="M20.3932 18.5721C20.3901 18.6884 20.4206 18.8466 20.4861 19.0187C20.5517 19.1909 20.6393 19.3428 20.7273 19.4492C20.7713 19.5024 20.8147 19.5434 20.8547 19.57C20.8946 19.5965 20.9292 19.6073 20.9576 19.6042C20.986 19.6011 21.0098 19.5839 21.0272 19.5511C21.0446 19.5183 21.0545 19.4715 21.0561 19.4133C21.0592 19.297 21.0287 19.1388 20.9632 18.9667C20.8976 18.7945 20.81 18.6426 20.722 18.5362C20.678 18.483 20.6346 18.442 20.5946 18.4154C20.5546 18.3889 20.5201 18.3781 20.4917 18.3812C20.4633 18.3843 20.4395 18.4015 20.4221 18.4343C20.4047 18.4671 20.3948 18.5139 20.3932 18.5721ZM20.3854 18.4137C20.4053 18.3761 20.4357 18.3507 20.4784 18.3461C20.521 18.3414 20.5676 18.3584 20.6134 18.3888C20.6592 18.4192 20.7063 18.4643 20.7522 18.5198C20.8441 18.631 20.9339 18.7873 21.0006 18.9626C21.0674 19.1379 21.0991 19.3006 21.0959 19.4221C21.0942 19.4828 21.0839 19.5341 21.0639 19.5717C21.044 19.6093 21.0136 19.6347 20.971 19.6393C20.9283 19.644 20.8817 19.627 20.8359 19.5966C20.7901 19.5662 20.743 19.5211 20.6971 19.4656C20.6052 19.3544 20.5154 19.1981 20.4487 19.0228C20.3819 18.8475 20.3502 18.6849 20.3534 18.5633C20.3551 18.5027 20.3654 18.4513 20.3854 18.4137Z" fill="black"/>
<path fill-rule="evenodd" clip-rule="evenodd" d="M20.4867 18.3071C20.7233 18.7081 20.8509 19.0827 20.7709 19.1436C20.6909 19.2045 20.4342 18.9282 20.1975 18.5273" fill="#009200"/>
<path fill-rule="evenodd" clip-rule="evenodd" d="M20.7364 19.1316C20.7487 19.1337 20.7565 19.1314 20.7614 19.1276C20.7664 19.1238 20.7712 19.1166 20.7742 19.1029C20.7772 19.089 20.778 19.0703 20.7759 19.0465C20.7717 18.999 20.7565 18.9357 20.731 18.8606C20.68 18.7108 20.5896 18.5182 20.4718 18.3185L20.5016 18.2958C20.6204 18.497 20.712 18.6921 20.7641 18.8451C20.79 18.9215 20.8064 18.9884 20.8111 19.0407C20.8134 19.0669 20.8128 19.0905 20.8085 19.1104C20.8041 19.1304 20.7954 19.1482 20.7803 19.1597C20.7653 19.1711 20.7475 19.1735 20.7295 19.1705C20.7117 19.1676 20.6922 19.1591 20.6718 19.1468C20.6309 19.122 20.5827 19.0794 20.5304 19.0231C20.4255 18.9103 20.3014 18.7399 20.1826 18.5386L20.2124 18.5159C20.3303 18.7156 20.4529 18.8838 20.5555 18.9942C20.607 19.0495 20.6527 19.0896 20.6898 19.112C20.7084 19.1233 20.724 19.1296 20.7364 19.1316Z" fill="black"/>
<path fill-rule="evenodd" clip-rule="evenodd" d="M20.65 18.0404C20.8867 18.4413 21.0142 18.816 20.9342 18.8769C20.8542 18.9378 20.5975 18.6615 20.3609 18.2606" fill="#009200"/>
<path fill-rule="evenodd" clip-rule="evenodd" d="M20.8998 18.8649C20.9121 18.867 20.9198 18.8646 20.9247 18.8609C20.9297 18.8571 20.9345 18.8499 20.9375 18.8361C20.9406 18.8223 20.9414 18.8036 20.9393 18.7798C20.9351 18.7322 20.9198 18.6689 20.8943 18.5939C20.8434 18.4441 20.753 18.2514 20.6351 18.0517L20.6649 18.029C20.7837 18.2303 20.8754 18.4254 20.9274 18.5784C20.9534 18.6548 20.9698 18.7216 20.9744 18.774C20.9767 18.8002 20.9762 18.8238 20.9718 18.8437C20.9674 18.8637 20.9587 18.8815 20.9437 18.8929C20.9286 18.9044 20.9108 18.9068 20.8929 18.9038C20.875 18.9008 20.8556 18.8924 20.8351 18.88C20.7942 18.8553 20.746 18.8127 20.6937 18.7564C20.5888 18.6436 20.4648 18.4732 20.346 18.2719L20.3758 18.2492C20.4936 18.4489 20.6162 18.6171 20.7189 18.7275C20.7703 18.7828 20.8161 18.8229 20.8532 18.8453C20.8718 18.8566 20.8873 18.8629 20.8998 18.8649Z" fill="black"/>
<path fill-rule="evenodd" clip-rule="evenodd" d="M21.3773 18.0889C21.7063 18.636 21.8834 19.1474 21.7718 19.2307C21.6602 19.314 21.3031 18.9372 20.974 18.39" fill="#009200"/>
<path fill-rule="evenodd" clip-rule="evenodd" d="M21.7223 19.2217C21.7406 19.2247 21.7533 19.2215 21.7622 19.2148C21.7712 19.2081 21.7786 19.1962 21.7831 19.1763C21.7877 19.1563 21.7887 19.1298 21.7858 19.0968C21.78 19.031 21.7586 18.944 21.7231 18.8413C21.6522 18.6363 21.5264 18.3729 21.3623 18.1001L21.3923 18.0777C21.5573 18.3521 21.6844 18.6179 21.7564 18.8262C21.7924 18.9302 21.8149 19.0208 21.8212 19.0914C21.8243 19.1267 21.8235 19.1581 21.8176 19.1841C21.8117 19.2102 21.8003 19.2325 21.7814 19.2467C21.7624 19.2608 21.7396 19.2641 21.7157 19.2602C21.6918 19.2564 21.6655 19.2453 21.6374 19.2287C21.5811 19.1954 21.5145 19.1377 21.4419 19.0611C21.2964 18.9077 21.1241 18.6756 20.9591 18.4012L20.989 18.3789C21.1531 18.6516 21.3239 18.8815 21.4671 19.0325C21.5388 19.1081 21.6029 19.1632 21.6553 19.1943C21.6815 19.2098 21.704 19.2188 21.7223 19.2217Z" fill="black"/>
<path fill-rule="evenodd" clip-rule="evenodd" d="M20.8998 17.7932C21.1373 18.2349 21.2657 18.6474 21.1858 18.7143C21.1059 18.7812 20.8486 18.4766 20.6111 18.035" fill="#009200"/>
<path fill-rule="evenodd" clip-rule="evenodd" d="M21.1517 18.7027C21.1643 18.705 21.1721 18.7024 21.1771 18.6982C21.1821 18.694 21.187 18.6859 21.1901 18.6705C21.1931 18.6551 21.1939 18.6342 21.1917 18.6078C21.1874 18.5553 21.1719 18.4854 21.1462 18.4026C21.0949 18.2375 21.004 18.0251 20.8856 17.805L20.9139 17.7814C21.0331 18.003 21.1251 18.2177 21.1774 18.386C21.2035 18.47 21.22 18.5433 21.2247 18.6007C21.227 18.6294 21.2266 18.6551 21.2223 18.6768C21.218 18.6985 21.2094 18.7179 21.1945 18.7304C21.1795 18.743 21.1619 18.7455 21.1441 18.7422C21.1265 18.739 21.1072 18.7298 21.0868 18.7162C21.0461 18.689 20.9979 18.6421 20.9455 18.5802C20.8405 18.456 20.7162 18.2684 20.597 18.0468L20.6252 18.0231C20.7436 18.2432 20.8666 18.4287 20.9697 18.5505C21.0213 18.6115 21.0672 18.6559 21.1046 18.6808C21.1233 18.6933 21.1391 18.7003 21.1517 18.7027Z" fill="black"/>
<path fill-rule="evenodd" clip-rule="evenodd" d="M20.8681 17.1798C20.7098 17.3404 20.865 17.639 21.0096 17.7457C21.1713 17.8933 22.0842 18.8546 22.7267 18.0414C22.2113 18.0329 21.2484 16.8233 20.8681 17.1798Z" fill="#804BFF"/>
<path fill-rule="evenodd" clip-rule="evenodd" d="M22.2823 17.8372C22.451 17.9462 22.6037 18.0204 22.7265 18.0225L22.7657 18.0231L22.7417 18.0535C22.5785 18.2601 22.3968 18.3553 22.2129 18.3779C22.0296 18.4004 21.8464 18.3505 21.6801 18.271C21.3886 18.1316 21.1439 17.8989 21.0346 17.7949C21.0198 17.7808 21.0075 17.7691 20.9978 17.7602C20.9222 17.7041 20.8454 17.5997 20.8073 17.4887C20.7691 17.3773 20.7682 17.2537 20.8544 17.1663C20.9577 17.0694 21.0995 17.0811 21.2533 17.1453C21.4076 17.2097 21.5815 17.3292 21.7577 17.4585C21.8046 17.493 21.8518 17.5282 21.8988 17.5633C22.0292 17.6606 22.1588 17.7574 22.2823 17.8372ZM20.8815 17.1936C20.8096 17.2667 20.8072 17.3726 20.8431 17.4772C20.8791 17.5819 20.9518 17.6798 21.0206 17.7305L21.0214 17.7311L21.0222 17.7318C21.0323 17.7411 21.0453 17.7534 21.0608 17.7682C21.1709 17.8728 21.4105 18.1005 21.6956 18.2368C21.8581 18.3144 22.0337 18.3615 22.2073 18.3402C22.3719 18.32 22.5369 18.238 22.6886 18.0578C22.562 18.043 22.4153 17.9678 22.2624 17.8689C22.1377 17.7884 22.0064 17.6903 21.8757 17.5928C21.8289 17.5578 21.7821 17.5229 21.7358 17.4889C21.5593 17.3594 21.389 17.2427 21.2396 17.1803C21.09 17.1178 20.9683 17.1124 20.8815 17.1936Z" fill="black"/>
<path fill-rule="evenodd" clip-rule="evenodd" d="M20.7547 16.7023C20.5965 16.8629 20.7516 17.1614 20.8963 17.2682C21.058 17.4157 21.9709 18.3771 22.6134 17.5639C22.098 17.5554 21.1351 16.3457 20.7547 16.7023Z" fill="#804BFF"/>
<path fill-rule="evenodd" clip-rule="evenodd" d="M22.169 17.3597C22.3377 17.4687 22.4903 17.5429 22.6132 17.5449L22.6524 17.5456L22.6284 17.5759C22.4652 17.7825 22.2835 17.8778 22.0996 17.9004C21.9163 17.9229 21.7331 17.8729 21.5668 17.7934C21.2753 17.6541 21.0306 17.4214 20.9213 17.3174C20.9065 17.3033 20.8941 17.2915 20.8845 17.2827C20.8089 17.2266 20.7321 17.1222 20.694 17.0111C20.6558 16.8997 20.6549 16.7762 20.7411 16.6888C20.8444 16.5919 20.9861 16.6035 21.14 16.6678C21.2943 16.7322 21.4681 16.8516 21.6444 16.981C21.6913 17.0155 21.7385 17.0506 21.7855 17.0858C21.9158 17.1831 22.0455 17.2799 22.169 17.3597ZM20.7682 16.7161C20.6963 16.7892 20.6939 16.8951 20.7298 16.9997C20.7658 17.1044 20.8385 17.2022 20.9073 17.253L20.9081 17.2536L20.9089 17.2543C20.919 17.2636 20.932 17.2759 20.9475 17.2906C21.0576 17.3953 21.2971 17.6229 21.5823 17.7592C21.7448 17.8369 21.9204 17.884 22.094 17.8627C22.2586 17.8425 22.4235 17.7604 22.5753 17.5803C22.4487 17.5655 22.302 17.4903 22.1491 17.3914C22.0244 17.3108 21.8931 17.2128 21.7624 17.1152C21.7156 17.0803 21.6688 17.0454 21.6225 17.0114C21.446 16.8818 21.2756 16.7652 21.1263 16.7028C20.9767 16.6403 20.855 16.6349 20.7682 16.7161Z" fill="black"/>
<path fill-rule="evenodd" clip-rule="evenodd" d="M20.6091 16.249C20.4508 16.4096 20.6059 16.7082 20.7506 16.8149C20.9123 16.9625 21.8252 17.9239 22.4677 17.1107C21.9523 17.1021 20.9894 15.8925 20.6091 16.249Z" fill="#804BFF"/>
<path fill-rule="evenodd" clip-rule="evenodd" d="M22.0233 16.9064C22.192 17.0155 22.3447 17.0896 22.4675 17.0917L22.5067 17.0923L22.4827 17.1227C22.3195 17.3293 22.1378 17.4245 21.9539 17.4471C21.7706 17.4696 21.5874 17.4197 21.4211 17.3402C21.1296 17.2008 20.8849 16.9681 20.7756 16.8641C20.7608 16.85 20.7484 16.8383 20.7388 16.8295C20.6632 16.7733 20.5864 16.6689 20.5483 16.5579C20.5101 16.4465 20.5092 16.3229 20.5954 16.2355C20.6987 16.1387 20.8405 16.1503 20.9943 16.2146C21.1486 16.279 21.3225 16.3984 21.4987 16.5277C21.5456 16.5622 21.5928 16.5974 21.6398 16.6325C21.7702 16.7298 21.8998 16.8266 22.0233 16.9064ZM20.6225 16.2628C20.5506 16.336 20.5482 16.4418 20.5841 16.5464C20.6201 16.6511 20.6928 16.749 20.7616 16.7997L20.7624 16.8003L20.7632 16.801C20.7733 16.8103 20.7863 16.8226 20.8018 16.8374C20.9119 16.942 21.1515 17.1697 21.4366 17.306C21.5991 17.3836 21.7747 17.4308 21.9483 17.4094C22.1129 17.3892 22.2779 17.3072 22.4296 17.127C22.303 17.1122 22.1563 17.037 22.0034 16.9382C21.8787 16.8576 21.7474 16.7596 21.6167 16.662C21.5699 16.627 21.5231 16.5922 21.4768 16.5581C21.3003 16.4286 21.13 16.3119 20.9806 16.2495C20.831 16.1871 20.7093 16.1817 20.6225 16.2628Z" fill="black"/>
<path fill-rule="evenodd" clip-rule="evenodd" d="M20.2934 15.731C20.1351 15.8916 20.2903 16.1902 20.435 16.2969C20.5966 16.4445 21.5096 17.4059 22.1521 16.5927C21.6366 16.5841 20.6738 15.3745 20.2934 15.731Z" fill="#804BFF"/>
<path fill-rule="evenodd" clip-rule="evenodd" d="M21.7077 16.3884C21.8764 16.4975 22.029 16.5716 22.1519 16.5737L22.191 16.5743L22.167 16.6047C22.0038 16.8113 21.8221 16.9065 21.6382 16.9291C21.455 16.9516 21.2717 16.9017 21.1054 16.8222C20.8139 16.6828 20.5693 16.4501 20.46 16.3461C20.4451 16.332 20.4328 16.3203 20.4232 16.3115C20.3476 16.2553 20.2708 16.1509 20.2327 16.0399C20.1944 15.9285 20.1936 15.8049 20.2797 15.7175C20.3831 15.6207 20.5248 15.6323 20.6787 15.6966C20.8329 15.761 21.0068 15.8804 21.183 16.0097C21.23 16.0442 21.2771 16.0794 21.3242 16.1145C21.4545 16.2118 21.5842 16.3086 21.7077 16.3884ZM20.3068 15.7448C20.2349 15.818 20.2326 15.9238 20.2685 16.0284C20.3044 16.1331 20.3771 16.231 20.4459 16.2817L20.4468 16.2823L20.4475 16.283C20.4577 16.2923 20.4706 16.3046 20.4862 16.3194C20.5963 16.424 20.8358 16.6517 21.121 16.788C21.2834 16.8656 21.459 16.9128 21.6326 16.8914C21.7973 16.8712 21.9622 16.7892 22.1139 16.609C21.9873 16.5942 21.8407 16.519 21.6877 16.4202C21.563 16.3396 21.4317 16.2416 21.3011 16.144C21.2542 16.109 21.2075 16.0742 21.1612 16.0401C20.9847 15.9106 20.8143 15.7939 20.6649 15.7315C20.5153 15.6691 20.3936 15.6637 20.3068 15.7448Z" fill="black"/>
<path fill-rule="evenodd" clip-rule="evenodd" d="M19.1593 15.2075C19.4867 14.9681 20.0896 14.8977 20.558 15.137C20.9491 15.3288 21.5973 16.1042 22.086 16.2883C21.9563 16.3169 21.821 16.323 21.6882 16.3061C21.5553 16.2892 21.4276 16.2497 21.3125 16.1899C20.8765 16.5014 20.7221 16.5463 20.277 16.6079C19.6616 16.6926 19.1502 16.5323 18.9734 16.2137C18.7886 15.9132 18.8689 15.4314 19.1593 15.2075Z" fill="#804BFF"/>
<path fill-rule="evenodd" clip-rule="evenodd" d="M19.1724 15.2235C19.0316 15.3322 18.9409 15.5041 18.9083 15.6865C18.8757 15.869 18.9017 16.0593 18.9908 16.2043C19.0756 16.3571 19.2423 16.4748 19.4657 16.5431C19.689 16.6113 19.9675 16.6302 20.2729 16.5881C20.4954 16.5574 20.6432 16.531 20.7896 16.4741C20.936 16.4171 21.0821 16.3291 21.2998 16.1736L21.3097 16.1665L21.3212 16.1725C21.4339 16.231 21.5592 16.2698 21.6896 16.2864C21.7988 16.3002 21.9097 16.2983 22.0177 16.2808C21.9107 16.2316 21.7982 16.1586 21.6842 16.0732C21.5478 15.971 21.4082 15.8503 21.2721 15.7299C21.24 15.7015 21.2081 15.673 21.1765 15.6449C21.0739 15.5535 20.9743 15.4649 20.8803 15.3867C20.757 15.2843 20.6449 15.2014 20.5497 15.1547C20.3196 15.0372 20.0555 14.9952 19.8085 15.0126C19.5614 15.03 19.3326 15.1064 19.1724 15.2235ZM20.5664 15.1195C20.3281 14.9977 20.0563 14.9551 19.803 14.9729C19.5498 14.9907 19.3135 15.0691 19.1464 15.1913C18.9969 15.3066 18.9019 15.4877 18.868 15.6773C18.8342 15.8666 18.8603 16.0672 18.9558 16.2227C19.0479 16.3883 19.2256 16.5107 19.4557 16.581C19.6862 16.6514 19.9711 16.6703 20.2811 16.6276C20.5038 16.5968 20.6557 16.5699 20.8067 16.5112C20.9555 16.4533 21.1024 16.365 21.3153 16.2133C21.4298 16.271 21.5559 16.3092 21.6868 16.3258C21.822 16.343 21.9597 16.3368 22.0917 16.3077L22.1556 16.2936L22.0923 16.2698C21.9731 16.2248 21.8429 16.1433 21.7079 16.0422C21.5731 15.9412 21.4346 15.8216 21.2986 15.7012C21.2667 15.673 21.235 15.6447 21.2035 15.6166C21.1008 15.5252 21.0004 15.4358 20.9057 15.3571C20.7822 15.2545 20.6667 15.1686 20.5664 15.1195Z" fill="black"/>
<path d="M19.8274 15.8365C19.9829 15.8392 20.1102 15.7686 20.1117 15.6787C20.1133 15.5889 19.9885 15.5139 19.833 15.5112C19.6775 15.5085 19.5502 15.5791 19.5487 15.6689C19.5471 15.7588 19.6719 15.8338 19.8274 15.8365Z" fill="#FF0000"/>
<path fill-rule="evenodd" clip-rule="evenodd" d="M19.642 15.5714C19.5934 15.5984 19.5676 15.6336 19.567 15.6692C19.5664 15.7048 19.5909 15.741 19.6386 15.7697C19.6858 15.7981 19.7526 15.8169 19.8277 15.8182C19.9028 15.8195 19.9702 15.803 20.0184 15.7763C20.067 15.7493 20.0928 15.714 20.0934 15.6784C20.094 15.6428 20.0695 15.6067 20.0218 15.578C19.9746 15.5496 19.9078 15.5308 19.8327 15.5295C19.7576 15.5282 19.6902 15.5446 19.642 15.5714ZM19.6242 15.5393C19.679 15.5089 19.753 15.4914 19.8334 15.4928C19.9137 15.4942 19.9871 15.5143 20.0407 15.5466C20.0939 15.5786 20.131 15.6248 20.1301 15.6791C20.1291 15.7333 20.0904 15.7783 20.0362 15.8084C19.9814 15.8387 19.9074 15.8562 19.827 15.8548C19.7467 15.8534 19.6733 15.8333 19.6197 15.8011C19.5665 15.7691 19.5294 15.7228 19.5303 15.6686C19.5313 15.6144 19.57 15.5694 19.6242 15.5393Z" fill="black"/>
<path d="M19.0853 16.5816C19.2887 16.506 19.4162 16.3444 19.37 16.2206C19.3238 16.0968 19.1215 16.0578 18.9181 16.1334C18.7147 16.209 18.5872 16.3706 18.6334 16.4944C18.6796 16.6182 18.8819 16.6572 19.0853 16.5816Z" fill="#FFFF00"/>
<path fill-rule="evenodd" clip-rule="evenodd" d="M18.6978 16.3082C18.6486 16.3705 18.6323 16.4346 18.6521 16.4875C18.6718 16.5404 18.7261 16.5782 18.8042 16.5933C18.8818 16.6082 18.9795 16.5997 19.0784 16.563C19.1772 16.5262 19.2567 16.4689 19.3056 16.4068C19.3548 16.3445 19.3711 16.2804 19.3513 16.2275C19.3316 16.1746 19.2773 16.1368 19.1993 16.1217C19.1216 16.1068 19.0239 16.1153 18.9251 16.152C18.8262 16.1888 18.7467 16.2461 18.6978 16.3082ZM18.6665 16.2835C18.7206 16.2149 18.8066 16.1536 18.9111 16.1147C19.0157 16.0759 19.1209 16.0661 19.2068 16.0827C19.2923 16.0992 19.3622 16.1428 19.3887 16.2136C19.4151 16.2845 19.3908 16.3632 19.3369 16.4315C19.2828 16.5001 19.1968 16.5614 19.0923 16.6003C18.9877 16.6392 18.8826 16.6489 18.7966 16.6323C18.7111 16.6158 18.6412 16.5722 18.6147 16.5014C18.5883 16.4305 18.6126 16.3518 18.6665 16.2835Z" fill="black"/>
<path d="M19.8198 15.7597C19.8753 15.7606 19.921 15.7225 19.9218 15.6746C19.9226 15.6266 19.8784 15.587 19.8229 15.586C19.7674 15.585 19.7218 15.6231 19.7209 15.6711C19.7201 15.719 19.7644 15.7587 19.8198 15.7597Z" fill="black"/>
<path fill-rule="evenodd" clip-rule="evenodd" d="M19.2197 15.8691C19.246 15.9934 19.1542 16.1638 18.9542 16.2264C18.7499 16.3136 18.5958 16.5077 18.5076 16.8241C18.1936 16.1085 18.3902 15.8016 18.7191 15.7248C19.0028 15.6307 19.1737 15.6405 19.2197 15.8691Z" fill="#FFFF00"/>
<path fill-rule="evenodd" clip-rule="evenodd" d="M19.0525 15.6989C18.9754 15.6812 18.8674 15.7002 18.7259 15.7471L18.7248 15.7475L18.7237 15.7477C18.5658 15.7846 18.4429 15.8754 18.395 16.0407C18.349 16.199 18.3703 16.43 18.504 16.7546C18.596 16.4707 18.7466 16.2897 18.9455 16.2047L18.9467 16.2042L18.9479 16.2039C19.1384 16.1443 19.2198 15.9846 19.1966 15.8747C19.1856 15.8201 19.1675 15.7804 19.1437 15.7525C19.1202 15.7249 19.0901 15.7076 19.0525 15.6989ZM19.2429 15.8635C19.2309 15.8039 19.2103 15.7565 19.1802 15.7212C19.1498 15.6856 19.1109 15.6635 19.0646 15.6529C18.974 15.6321 18.8551 15.6551 18.7134 15.7021C18.5429 15.7422 18.4035 15.8433 18.3495 16.0291C18.2962 16.2128 18.3281 16.4746 18.4859 16.8342L18.5123 16.8944L18.5304 16.8296C18.6172 16.5183 18.7671 16.3321 18.9618 16.2485C19.1704 16.1826 19.272 16.002 19.2429 15.8635Z" fill="black"/>
<path d="M18.9252 15.9883C18.9646 15.9863 18.9946 15.9522 18.9924 15.9122C18.9901 15.8723 18.9564 15.8415 18.9171 15.8436C18.8778 15.8456 18.8477 15.8797 18.85 15.9197C18.8522 15.9596 18.8859 15.9904 18.9252 15.9883Z" fill="black"/>
</g>
<defs>
<clipPath id="clip0_17544_59859">
<path d="M0 20C0 8.95431 8.95431 0 20 0C31.0457 0 40 8.95431 40 20C40 31.0457 31.0457 40 20 40C8.95431 40 0 31.0457 0 20Z" fill="white"/>
</clipPath>
</defs>
</svg>
