<svg width="40" height="40" viewBox="0 0 40 40" fill="none" xmlns="http://www.w3.org/2000/svg">
<g clip-path="url(#clip0_17522_60590)">
<path d="M0 26.6641H40V40H0V26.6641Z" fill="#000001"/>
<path d="M0 13.3359H40V26.6641H0V13.3359Z" fill="white"/>
<path d="M0 0H40V13.3359H0V0Z" fill="#CE1126"/>
<path d="M20.0532 20.1599L24.6199 24.3999L24.2932 16.6999C24.2465 15.5333 23.2332 15.7999 22.4932 16.2199C21.7532 16.6999 20.8932 16.6999 19.9999 16.3866C19.0999 16.6999 18.2466 16.6999 17.5066 16.2199C16.7732 15.7999 15.7532 15.5333 15.7066 16.6999L15.3799 24.3999L20.0532 20.1599Z" fill="white"/>
<path fill-rule="evenodd" clip-rule="evenodd" d="M16.3458 15.8217C16.7118 15.794 17.1598 15.9714 17.5281 16.1823C17.5288 16.1827 17.5295 16.1831 17.5301 16.1836C18.2554 16.654 19.0937 16.6562 19.9856 16.3457C19.9949 16.3425 20.005 16.3425 20.0142 16.3457C20.8994 16.6562 21.7444 16.654 22.4696 16.1836C22.4701 16.1833 22.4705 16.183 22.471 16.1827C22.4707 16.1829 22.4713 16.1826 22.471 16.1827C22.8425 15.9719 23.2913 15.794 23.6565 15.8217C23.841 15.8357 24.007 15.9023 24.1293 16.0455C24.2509 16.1879 24.3246 16.4007 24.3365 16.6981M24.3365 16.6981L24.6632 24.3981C24.6639 24.4156 24.654 24.4319 24.638 24.4392C24.6221 24.4466 24.6033 24.4436 24.5904 24.4317L20.0529 20.2187L15.409 24.432C15.3961 24.4437 15.3773 24.4466 15.3615 24.4391C15.3457 24.4317 15.3359 24.4155 15.3366 24.3981L15.6633 16.6982C15.6633 16.6982 15.6633 16.6982 15.6633 16.6982C15.6752 16.4007 15.7493 16.1879 15.8715 16.0455C15.9943 15.9023 16.1609 15.8357 16.3458 15.8217M15.9373 16.1019C15.8321 16.2245 15.7613 16.4158 15.7499 16.7017L15.4276 24.2981L20.0241 20.1278C20.0408 20.1127 20.0662 20.1129 20.0827 20.1282L24.5721 24.2964L24.2499 16.7018C24.2385 16.4159 24.168 16.2244 24.0634 16.1018C23.9594 15.98 23.8171 15.9208 23.6499 15.9081C23.3121 15.8825 22.8839 16.0482 22.5157 16.257C21.7652 16.7433 20.8958 16.7435 19.9998 16.4325C19.0974 16.7435 18.2345 16.7433 17.484 16.2569C17.1192 16.0482 16.691 15.8825 16.3523 15.9081C16.1847 15.9208 16.0418 15.9801 15.9373 16.1019Z" fill="#C09300"/>
<path d="M16.2332 16.4333L15.9132 23.9199L15.3799 24.3999L15.7066 16.6999C15.8641 16.5791 16.0427 16.4887 16.2332 16.4333ZM16.8732 16.9666L16.6066 23.2332L16.0732 23.7799L16.3932 16.5466C16.4999 16.6533 16.8132 16.9133 16.8732 16.9666ZM17.4532 17.4466L17.2466 22.6732L16.8132 23.0932L17.0799 17.1333C17.1866 17.2333 17.3999 17.3866 17.4532 17.4466ZM18.0866 17.7133L17.8799 22.1666L17.4599 22.5066L17.6666 17.5533C17.7732 17.5999 17.9799 17.7133 18.0866 17.7133ZM18.6732 17.7133L18.5199 21.4266L18.0866 21.8466L18.2532 17.7599C18.3532 17.7599 18.6266 17.7599 18.6732 17.7133Z" fill="#C09300"/>
<path d="M23.7665 16.4333L24.0865 23.9199L24.6199 24.3999L24.2932 16.6999C24.1357 16.5791 23.9571 16.4887 23.7665 16.4333ZM23.1265 16.9666L23.3932 23.2332L23.9265 23.7799L23.6065 16.5466C23.4999 16.6533 23.1865 16.9133 23.1265 16.9666ZM22.5465 17.4466L22.7532 22.6732L23.1865 23.0932L22.9199 17.1333C22.8132 17.2333 22.5999 17.3866 22.5465 17.4466ZM21.9132 17.7133L22.1199 22.1666L22.5399 22.5066L22.3332 17.5533C22.2265 17.5999 22.0199 17.7133 21.9132 17.7133ZM21.3265 17.7133L21.4799 21.4266L21.9132 21.8466L21.7465 17.7599C21.6465 17.7599 21.3732 17.7599 21.3265 17.7133Z" fill="#C09300"/>
<path d="M20.2132 20.9999L20.8532 23.9199L20.6399 24.1332L20.4199 23.9666L20.0599 21.3666L20.2132 23.9666L19.9999 24.2332L19.7932 23.9666L19.9466 21.3666L19.5799 23.9666L19.3599 24.1332L19.1466 23.9199L19.7866 21.0066H20.2132V20.9999Z" fill="#C09300"/>
<path fill-rule="evenodd" clip-rule="evenodd" d="M19.7571 20.9699H20.2132V20.9959L20.249 20.9921L20.8933 23.9316L20.6432 24.1818L20.3856 23.9866L20.1513 22.2944L20.2506 23.9785L19.9994 24.2925L19.7558 23.9782L19.8568 22.2655L19.6141 23.9867L19.3566 24.1818L19.1064 23.9316L19.7571 20.9699ZM20.1852 21.0433H19.816L19.1867 23.9082L19.3632 24.0847L19.5457 23.9465L19.9102 21.3615L19.9832 21.3687L19.8306 23.955L20.0003 24.174L20.1758 23.9547L20.0233 21.3687L20.0962 21.3616L20.4541 23.9465L20.6366 24.0847L20.8131 23.9082L20.1852 21.0433Z" fill="#C09300"/>
<path d="M18.5666 19.7199L17.2932 24.2332L19.0466 24.4999L19.7865 21.1066L18.5666 19.7199Z" fill="white"/>
<path fill-rule="evenodd" clip-rule="evenodd" d="M18.5577 19.6809C18.572 19.6777 18.5869 19.6825 18.5966 19.6935L19.8166 21.0802C19.825 21.0897 19.8283 21.1027 19.8256 21.1151L19.0856 24.5084C19.0811 24.529 19.0614 24.5426 19.0405 24.5394L17.2872 24.2728C17.2759 24.2711 17.2658 24.2645 17.2596 24.2549C17.2534 24.2453 17.2516 24.2334 17.2547 24.2224L18.5281 19.7091C18.532 19.695 18.5434 19.6842 18.5577 19.6809ZM18.5851 19.8015L17.344 24.2005L19.0155 24.4547L19.7432 21.1178L18.5851 19.8015Z" fill="#C09300"/>
<path fill-rule="evenodd" clip-rule="evenodd" d="M19.1564 20.878L18.3298 21.6646C18.3194 21.6745 18.3049 21.6786 18.291 21.6757C18.277 21.6727 18.2654 21.6631 18.2599 21.65L18.1066 21.2833L18.1865 21.2499L18.3156 21.5585L19.0967 20.8152L19.1564 20.878Z" fill="#C09300"/>
<path fill-rule="evenodd" clip-rule="evenodd" d="M18.8501 21.9579L18.6768 20.3379L18.763 20.3286L18.9247 21.8402L19.3854 21.2337L19.4544 21.2861L19.2571 21.5458L19.47 22.2883L19.5704 22.1361L19.6427 22.1838L19.5015 22.3981L19.5349 22.5146L19.4516 22.5385L19.4386 22.4934L19.0677 23.0563L19.2489 23.9109L19.1642 23.9289L18.9992 23.151L18.6562 23.6769C18.6471 23.6909 18.6307 23.6984 18.6142 23.6962C18.5976 23.694 18.5838 23.6825 18.5787 23.6666L18.4008 23.1159L18.0634 23.6627C18.0544 23.6774 18.0374 23.6853 18.0203 23.6828C18.0032 23.6803 17.9892 23.6679 17.9847 23.6512L17.7114 22.6379C17.7074 22.6231 17.7115 22.6073 17.7222 22.5963L18.2689 22.0363C18.2797 22.0252 18.2957 22.0207 18.3107 22.0246C18.3258 22.0285 18.3376 22.0401 18.3417 22.0551L18.4849 22.5763L18.8252 22.1207C18.8355 22.1068 18.8531 22.1004 18.8699 22.1044C18.8867 22.1084 18.8995 22.1219 18.9025 22.1389L19.0448 22.9334L19.4072 22.3837L19.1917 21.632L18.9277 21.9795C18.917 21.9936 18.8987 21.9998 18.8816 21.995C18.8645 21.9902 18.852 21.9755 18.8501 21.9579ZM18.9742 23.0306L18.8348 22.2525L18.5013 22.6992C18.4914 22.7124 18.4748 22.7189 18.4585 22.7158C18.4422 22.7128 18.4292 22.7007 18.4248 22.6847L18.2781 22.1509L17.8015 22.6392L18.0423 23.5319L18.3763 22.9905C18.3852 22.9761 18.4016 22.9682 18.4184 22.9702C18.4352 22.9723 18.4493 22.9838 18.4545 22.9999L18.6332 23.5535L18.9742 23.0306Z" fill="#C09300"/>
<path fill-rule="evenodd" clip-rule="evenodd" d="M18.027 23.5905C18.0433 23.5932 18.0567 23.605 18.0614 23.621L18.2601 24.293L18.5294 23.8443C18.5381 23.8297 18.5546 23.8216 18.5715 23.8235C18.5884 23.8255 18.6026 23.8371 18.6078 23.8533L18.8145 24.4933L18.732 24.5199L18.5546 23.9707L18.2837 24.4222C18.2749 24.4369 18.2581 24.4451 18.2411 24.4429C18.224 24.4407 18.2099 24.4287 18.205 24.4122L18.0037 23.7313L17.7019 24.1582L17.6312 24.1082L17.9845 23.6082C17.9941 23.5947 18.0106 23.5878 18.027 23.5905Z" fill="#C09300"/>
<path d="M21.4332 19.7199L22.7065 24.2332L20.9532 24.4999L20.2132 21.1066L21.4332 19.7199Z" fill="white"/>
<path fill-rule="evenodd" clip-rule="evenodd" d="M21.4421 19.6809C21.4278 19.6777 21.4129 19.6825 21.4032 19.6935L20.1832 21.0802C20.1748 21.0897 20.1714 21.1027 20.1741 21.1151L20.9141 24.5084C20.9186 24.529 20.9384 24.5426 20.9592 24.5394L22.7126 24.2728C22.7239 24.2711 22.7339 24.2645 22.7402 24.2549C22.7464 24.2453 22.7482 24.2334 22.745 24.2224L21.4717 19.7091C21.4677 19.695 21.4564 19.6842 21.4421 19.6809ZM21.4147 19.8015L22.6557 24.2005L20.9843 24.4547L20.2566 21.1178L21.4147 19.8015Z" fill="#C09300"/>
<path fill-rule="evenodd" clip-rule="evenodd" d="M20.8433 20.878L21.67 21.6646C21.6803 21.6745 21.6948 21.6786 21.7088 21.6757C21.7227 21.6727 21.7344 21.6631 21.7399 21.65L21.8932 21.2833L21.8132 21.2499L21.6842 21.5585L20.9031 20.8152L20.8433 20.878Z" fill="#C09300"/>
<path fill-rule="evenodd" clip-rule="evenodd" d="M21.1496 21.9579L21.323 20.3379L21.2368 20.3286L21.0751 21.8402L20.6144 21.2337L20.5454 21.2861L20.7426 21.5458L20.5298 22.2883L20.4294 22.1361L20.357 22.1838L20.4983 22.3981L20.4649 22.5146L20.5482 22.5385L20.5611 22.4934L20.9321 23.0563L20.7508 23.9109L20.8356 23.9289L21.0006 23.151L21.3436 23.6769C21.3527 23.6909 21.3691 23.6984 21.3856 23.6962C21.4022 23.694 21.416 23.6825 21.4211 23.6666L21.5989 23.1159L21.9363 23.6627C21.9454 23.6774 21.9624 23.6853 21.9795 23.6828C21.9966 23.6803 22.0105 23.6679 22.015 23.6512L22.2884 22.6379C22.2924 22.6231 22.2883 22.6073 22.2775 22.5963L21.7309 22.0363C21.72 22.0252 21.7041 22.0207 21.689 22.0246C21.674 22.0285 21.6622 22.0401 21.6581 22.0551L21.5149 22.5763L21.1746 22.1207C21.1643 22.1068 21.1467 22.1004 21.1299 22.1044C21.1131 22.1084 21.1003 22.1219 21.0972 22.1389L20.9549 22.9334L20.5926 22.3837L20.8081 21.632L21.072 21.9795C21.0828 21.9936 21.1011 21.9998 21.1182 21.995C21.1353 21.9902 21.1477 21.9755 21.1496 21.9579ZM21.0256 23.0306L21.1649 22.2525L21.4985 22.6992C21.5084 22.7124 21.525 22.7189 21.5413 22.7158C21.5575 22.7128 21.5706 22.7007 21.575 22.6847L21.7216 22.1509L22.1983 22.6392L21.9575 23.5319L21.6234 22.9905C21.6145 22.9761 21.5981 22.9682 21.5813 22.9702C21.5646 22.9723 21.5505 22.9838 21.5453 22.9999L21.3666 23.5535L21.0256 23.0306Z" fill="#C09300"/>
<path fill-rule="evenodd" clip-rule="evenodd" d="M21.9728 23.5905C21.9564 23.5932 21.943 23.605 21.9383 23.621L21.7396 24.293L21.4704 23.8443C21.4616 23.8297 21.4452 23.8216 21.4283 23.8235C21.4114 23.8255 21.3972 23.8371 21.392 23.8533L21.1853 24.4933L21.2678 24.5199L21.4451 23.9707L21.716 24.4222C21.7249 24.4369 21.7416 24.4451 21.7587 24.4429C21.7757 24.4407 21.7899 24.4287 21.7948 24.4122L21.9961 23.7313L22.2978 24.1582L22.3686 24.1082L22.0153 23.6082C22.0057 23.5947 21.9892 23.5878 21.9728 23.5905Z" fill="#C09300"/>
<path d="M19.9999 26.2532C21.3332 26.2532 22.5999 26.1466 23.3465 25.9399C23.6599 25.8799 23.6599 25.7199 23.6599 25.5066C23.9799 25.3999 23.8199 25.0266 24.0399 25.0266C23.8132 25.0932 23.7732 24.6599 23.5065 24.7132C23.5065 24.3399 23.1265 24.2932 22.8132 24.3999C22.1799 24.6066 21.0599 24.6599 19.9999 24.6599C18.9332 24.6066 17.8266 24.6066 17.1866 24.3932C16.8732 24.2932 16.4999 24.3399 16.4999 24.7132C16.2332 24.6599 16.1866 25.0866 15.9666 25.0266C16.1866 25.0266 16.0199 25.4066 16.3399 25.5066C16.3399 25.7199 16.3399 25.8799 16.6599 25.9399C17.3932 26.1466 18.6732 26.2532 19.9999 26.2532Z" fill="white"/>
<path fill-rule="evenodd" clip-rule="evenodd" d="M16.6996 24.3001C16.8543 24.2466 17.0449 24.264 17.2109 24.317L17.2119 24.3173C17.5214 24.4205 17.9491 24.4735 18.4387 24.5068C18.7403 24.5273 19.0607 24.5401 19.3877 24.5532C19.5909 24.5614 19.7965 24.5696 20.0019 24.5799C21.0631 24.5798 22.1689 24.5258 22.7879 24.324C22.9544 24.2674 23.1465 24.2483 23.3028 24.3007C23.3824 24.3274 23.4547 24.3735 23.5068 24.4444C23.5449 24.4965 23.5699 24.5587 23.5806 24.6302C23.6327 24.6359 23.678 24.656 23.7171 24.684C23.773 24.7241 23.8169 24.7809 23.8517 24.8262L23.8529 24.8278C23.8906 24.8769 23.9179 24.9124 23.947 24.9347C23.9603 24.9448 23.9721 24.9509 23.9848 24.9529C24.0023 24.9486 24.0208 24.9466 24.0399 24.9466C24.0796 24.9466 24.1134 24.9758 24.119 25.0152C24.1247 25.0545 24.1006 25.0921 24.0624 25.1033C24.0453 25.1084 24.0287 25.1114 24.0127 25.1128C24.01 25.1149 24.0065 25.1187 24.0022 25.1262C23.9901 25.1474 23.9828 25.1762 23.9711 25.2222C23.9691 25.2298 23.9671 25.2379 23.9648 25.2465C23.9509 25.3007 23.9314 25.3689 23.8898 25.431C23.8553 25.4827 23.8072 25.5278 23.7398 25.5604C23.7389 25.6469 23.733 25.7394 23.6914 25.8181C23.6367 25.9217 23.5319 25.9853 23.3648 26.0178C22.607 26.2269 21.3331 26.3332 19.9999 26.3332C18.6738 26.3332 17.3865 26.227 16.6416 26.0179C16.4719 25.9854 16.3653 25.9222 16.3095 25.8187C16.2671 25.7401 16.2609 25.6476 16.26 25.5613C16.1928 25.5298 16.1449 25.4851 16.1107 25.4335C16.0696 25.3712 16.0511 25.3023 16.0379 25.2478C16.0357 25.2385 16.0337 25.2298 16.0317 25.2216C16.021 25.176 16.0141 25.1472 16.0025 25.1259C15.9978 25.1172 15.994 25.1136 15.9916 25.1118C15.9767 25.1107 15.9614 25.1081 15.9455 25.1037C15.9068 25.0932 15.882 25.0557 15.8873 25.0159C15.8926 24.9762 15.9265 24.9466 15.9666 24.9466C15.9838 24.9466 16.0004 24.9482 16.0164 24.9517C16.0292 24.9498 16.0416 24.9435 16.0561 24.9323C16.0846 24.9101 16.1113 24.8759 16.1476 24.8296C16.1493 24.8275 16.151 24.8253 16.1528 24.8231C16.1882 24.7779 16.2327 24.7219 16.2893 24.6825C16.3286 24.6551 16.3739 24.6355 16.4258 24.6301C16.4363 24.5588 16.4608 24.4968 16.4982 24.4449C16.5495 24.3738 16.6208 24.3274 16.6996 24.3001ZM16.1496 25.0622C16.1685 25.1021 16.1795 25.15 16.1886 25.1894C16.1903 25.1967 16.1919 25.2037 16.1935 25.2104C16.2062 25.2633 16.2198 25.3082 16.2443 25.3453C16.267 25.3797 16.3014 25.4107 16.3638 25.4302C16.3972 25.4406 16.4199 25.4716 16.4199 25.5066C16.4199 25.6194 16.4218 25.69 16.4503 25.7428C16.4741 25.7869 16.5264 25.8335 16.6746 25.8613C16.677 25.8617 16.6793 25.8623 16.6816 25.8629C17.4038 26.0664 18.6747 26.1732 19.9999 26.1732C21.3315 26.1732 22.5893 26.0665 23.3252 25.8628C23.3273 25.8622 23.3294 25.8617 23.3315 25.8613C23.4759 25.8337 23.5267 25.7874 23.55 25.7434C23.578 25.6903 23.5799 25.6193 23.5799 25.5066C23.5799 25.4721 23.6019 25.4416 23.6346 25.4307C23.6976 25.4097 23.7331 25.3775 23.7568 25.3421C23.7821 25.3042 23.7964 25.2591 23.8099 25.2066C23.8116 25.2002 23.8132 25.1934 23.815 25.1864C23.8244 25.1488 23.8356 25.1035 23.8539 25.0648C23.8525 25.0638 23.8512 25.0628 23.8498 25.0618C23.8032 25.0262 23.764 24.9749 23.7319 24.9329C23.7295 24.9298 23.7271 24.9267 23.7248 24.9236C23.6878 24.8756 23.6575 24.8382 23.6239 24.8141C23.5944 24.793 23.5641 24.7833 23.5222 24.7917C23.4987 24.7964 23.4744 24.7903 23.4558 24.7751C23.4373 24.7599 23.4265 24.7372 23.4265 24.7132C23.4265 24.6339 23.4066 24.5783 23.3778 24.5391C23.3488 24.4997 23.3065 24.4707 23.2519 24.4524C23.14 24.4149 22.9857 24.4257 22.839 24.4756L22.838 24.476C22.1906 24.6872 21.0578 24.7399 19.9999 24.7399C19.9985 24.7399 19.9972 24.7399 19.9959 24.7398C19.7935 24.7297 19.5886 24.7215 19.3852 24.7133C19.056 24.7001 18.731 24.687 18.4278 24.6664C17.9376 24.633 17.4922 24.5793 17.1618 24.4693C17.0146 24.4224 16.8621 24.4132 16.7519 24.4513C16.6981 24.4699 16.6565 24.4989 16.628 24.5385C16.5996 24.5778 16.5799 24.6336 16.5799 24.7132C16.5799 24.7372 16.5692 24.7599 16.5506 24.7751C16.5321 24.7903 16.5077 24.7964 16.4842 24.7917C16.4419 24.7832 16.4108 24.7928 16.3807 24.8138C16.3467 24.8375 16.3158 24.8744 16.2787 24.9218C16.2758 24.9254 16.2729 24.9292 16.2699 24.933C16.2379 24.974 16.1993 25.0236 16.1543 25.0586C16.1528 25.0598 16.1512 25.061 16.1496 25.0622Z" fill="#C09300"/>
<path d="M18.1932 24.2332C18.6199 24.2932 19.0999 24.3399 19.4732 24.2932C19.6865 24.2932 19.8399 24.6599 19.4132 24.7132C19.0466 24.7599 18.4599 24.7132 18.1466 24.6599C17.7342 24.5877 17.325 24.4988 16.9199 24.3932C16.5466 24.2332 16.8132 23.9266 17.0266 23.9666C17.4071 24.0885 17.7975 24.1777 18.1932 24.2332ZM21.8065 24.2332C21.3799 24.2932 20.8999 24.3399 20.5399 24.2932C20.3132 24.2932 20.1599 24.6599 20.5865 24.7132C20.9599 24.7599 21.5399 24.7132 21.8532 24.6599C22.1199 24.6066 22.7065 24.5066 23.0799 24.3932C23.4532 24.2332 23.1865 23.9266 22.9732 23.9666C22.5926 24.0885 22.2023 24.1778 21.8065 24.2332Z" fill="white"/>
<path fill-rule="evenodd" clip-rule="evenodd" d="M16.934 24.3521C16.8483 24.3149 16.806 24.2722 16.7882 24.2348C16.7707 24.1982 16.7736 24.1603 16.7918 24.1246C16.8105 24.0879 16.845 24.0544 16.8874 24.0323C16.9289 24.0107 16.9747 24.0016 17.0161 24.0087C17.3981 24.131 17.7899 24.2204 18.1872 24.2761M16.934 24.3521C17.3369 24.457 17.7439 24.5454 18.1539 24.6172C18.4652 24.6702 19.047 24.7162 19.4077 24.6702C19.5086 24.6576 19.5689 24.6272 19.6021 24.5943C19.6344 24.5624 19.6445 24.525 19.6402 24.4883C19.631 24.4107 19.5575 24.3381 19.4757 24.3366C19.0966 24.3834 18.6129 24.336 18.1872 24.2761M16.8474 23.9554C16.9034 23.9262 16.9699 23.9119 17.0345 23.924C17.0363 23.9243 17.0381 23.9248 17.0398 23.9253C17.418 24.0465 17.8059 24.1351 18.1992 24.1903C18.6258 24.2503 19.1007 24.2961 19.4678 24.2502C19.4696 24.25 19.4714 24.2499 19.4732 24.2499C19.6037 24.2499 19.7122 24.3599 19.7262 24.4781C19.7336 24.5398 19.7154 24.6041 19.6631 24.6559C19.6117 24.7067 19.531 24.7422 19.4186 24.7562C19.046 24.8036 18.4547 24.7563 18.1393 24.7026C17.7258 24.6302 17.3152 24.541 16.909 24.4352C16.9069 24.4346 16.9048 24.4339 16.9028 24.4331C16.8038 24.3906 16.7402 24.3355 16.71 24.2721C16.6791 24.2075 16.6862 24.1411 16.7146 24.0852C16.7426 24.0302 16.7914 23.9846 16.8474 23.9554ZM23.2898 24.2721C23.2595 24.3355 23.196 24.3906 23.0969 24.4331C23.0955 24.4337 23.094 24.4342 23.0925 24.4347C22.7933 24.5255 22.3584 24.6078 22.0601 24.6643C21.9834 24.6788 21.9157 24.6916 21.8617 24.7024L21.8605 24.7026C21.545 24.7563 20.9604 24.8036 20.5812 24.7562C20.4688 24.7422 20.388 24.7068 20.3368 24.6558C20.2846 24.6039 20.2669 24.5393 20.2753 24.4774C20.2914 24.3583 20.4042 24.2499 20.5399 24.2499C20.5417 24.2499 20.5436 24.25 20.5455 24.2503C20.899 24.2961 21.3738 24.2503 21.8005 24.1903C22.1938 24.1352 22.5818 24.0465 22.96 23.9253C22.9617 23.9248 22.9634 23.9243 22.9652 23.924C23.0299 23.9119 23.0964 23.9262 23.1524 23.9554C23.2084 23.9846 23.2571 24.0302 23.2852 24.0852C23.3136 24.1411 23.3207 24.2075 23.2898 24.2721ZM22.9837 24.0087C23.0251 24.0016 23.0709 24.0107 23.1123 24.0323C23.1547 24.0544 23.1893 24.0879 23.2079 24.1246C23.2261 24.1603 23.2291 24.1982 23.2116 24.2348C23.1937 24.2723 23.1512 24.3151 23.065 24.3525C22.771 24.4415 22.345 24.5221 22.0472 24.5785C21.9697 24.5932 21.9009 24.6062 21.8453 24.6173C21.534 24.6702 20.9592 24.7161 20.5919 24.6702C20.491 24.6576 20.4309 24.6272 20.3979 24.5944C20.366 24.5626 20.3562 24.5255 20.3612 24.4891C20.3716 24.4123 20.4474 24.338 20.5373 24.3366C20.9033 24.3835 21.3871 24.336 21.8126 24.2762C22.2098 24.2205 22.6016 24.131 22.9837 24.0087Z" fill="#C09300"/>
<path d="M16.8666 24.0266C16.5466 23.9666 16.3999 24.3399 16.4999 24.5532C16.5466 24.4466 16.7666 24.4466 16.8132 24.3399C16.8732 24.1799 16.7666 24.1799 16.8732 24.0266H16.8666ZM18.1466 25.0066C18.1466 24.7932 18.3532 24.8199 18.3532 24.6066C18.3532 24.5066 18.2999 24.3399 18.1932 24.3399C18.1377 24.3431 18.0852 24.3666 18.0459 24.4059C18.0066 24.4453 17.9831 24.4977 17.9799 24.5532C17.9332 24.7599 18.1466 24.7932 18.1466 25.0066ZM19.6599 24.3999C19.9732 24.3999 19.9399 24.8199 19.7932 25.0332C19.7932 24.8799 19.5265 24.8199 19.5265 24.7132C19.5265 24.5532 19.7665 24.5532 19.6599 24.3999ZM23.1265 24.0266C23.4532 23.9666 23.6065 24.3399 23.4999 24.5532C23.4532 24.4466 23.2332 24.4466 23.1865 24.3399C23.1265 24.1799 23.2332 24.1799 23.1265 24.0266ZM21.8665 24.9999C21.8665 24.7866 21.6532 24.8132 21.6532 24.5999C21.6532 24.4999 21.7065 24.3332 21.8132 24.3332C21.8688 24.3364 21.9212 24.3599 21.9605 24.3993C21.9999 24.4386 22.0234 24.491 22.0265 24.5466C22.0732 24.7532 21.8599 24.7866 21.8599 24.9999H21.8665ZM20.3332 24.3999C20.0199 24.3999 20.0532 24.8199 20.1999 25.0332C20.1999 24.8799 20.4665 24.8199 20.4665 24.7132C20.4665 24.5532 20.2265 24.5532 20.3332 24.3999Z" fill="white"/>
<path fill-rule="evenodd" clip-rule="evenodd" d="M16.8705 23.9832C16.6912 23.9513 16.5591 24.0414 16.4881 24.1659C16.418 24.2887 16.4038 24.4503 16.4607 24.5716C16.4679 24.587 16.4834 24.5968 16.5005 24.5966C16.5175 24.5963 16.5328 24.5862 16.5396 24.5706C16.5461 24.5557 16.56 24.5416 16.5842 24.5271C16.6086 24.5125 16.6385 24.5004 16.6727 24.4868L16.6743 24.4861C16.7065 24.4733 16.7425 24.4589 16.7734 24.4404C16.805 24.4216 16.8361 24.3957 16.8529 24.3573C16.8532 24.3566 16.8535 24.3558 16.8538 24.3551C16.8704 24.3109 16.8761 24.2758 16.8762 24.2452C16.8763 24.2215 16.8729 24.2005 16.8702 24.1847C16.8696 24.1809 16.8691 24.1775 16.8686 24.1744C16.8661 24.1574 16.8653 24.1444 16.8694 24.1281C16.8736 24.111 16.8839 24.0871 16.9088 24.0513C16.918 24.0381 16.9191 24.0208 16.9116 24.0065C16.9042 23.9922 16.8894 23.9832 16.8732 23.9832H16.8705ZM16.8011 24.0635C16.6921 24.0629 16.612 24.1237 16.5634 24.2089C16.5183 24.288 16.5026 24.3848 16.5178 24.4671C16.525 24.4619 16.5324 24.4571 16.5398 24.4527C16.5706 24.4343 16.6066 24.4199 16.6388 24.407L16.6405 24.4063C16.6746 24.3927 16.7045 24.3806 16.7289 24.366C16.7526 24.3519 16.7664 24.338 16.7731 24.3235C16.7861 24.2883 16.7895 24.2638 16.7896 24.2448C16.7896 24.2291 16.7877 24.217 16.7852 24.202C16.7845 24.1974 16.7837 24.1925 16.7829 24.1871C16.7796 24.1649 16.7774 24.1392 16.7852 24.1073C16.7887 24.0934 16.7939 24.0789 16.8011 24.0635ZM23.1986 24.0635C23.2059 24.0789 23.2111 24.0934 23.2145 24.1073C23.2224 24.1392 23.2202 24.1649 23.2169 24.1871C23.2161 24.1925 23.2153 24.1974 23.2145 24.202C23.2121 24.217 23.2101 24.2291 23.2102 24.2448C23.2103 24.2638 23.2136 24.2883 23.2267 24.3235C23.2333 24.338 23.2471 24.3519 23.2708 24.366C23.2952 24.3806 23.3252 24.3927 23.3593 24.4063L23.361 24.407C23.3931 24.4199 23.4291 24.4343 23.46 24.4527C23.4679 24.4574 23.4758 24.4626 23.4834 24.4683C23.5005 24.386 23.4848 24.2888 23.4383 24.2093C23.3893 24.1255 23.3083 24.0648 23.1986 24.0635ZM23.5131 24.1655C23.5851 24.2885 23.5996 24.4508 23.5386 24.5726C23.5311 24.5877 23.5156 24.597 23.4988 24.5966C23.4819 24.5961 23.4669 24.586 23.4602 24.5706C23.4536 24.5557 23.4398 24.5416 23.4156 24.5271C23.3912 24.5125 23.3612 24.5004 23.3271 24.4868L23.3254 24.4861C23.2933 24.4733 23.2573 24.4589 23.2264 24.4404C23.1948 24.4216 23.1636 24.3957 23.1468 24.3573C23.1465 24.3566 23.1462 24.3558 23.146 24.3551C23.1294 24.3109 23.1236 24.2758 23.1235 24.2452C23.1234 24.2215 23.1269 24.2005 23.1295 24.1847C23.1301 24.1809 23.1307 24.1775 23.1312 24.1744C23.1337 24.1574 23.1344 24.1444 23.1304 24.1281C23.1262 24.111 23.1159 24.0871 23.091 24.0513C23.0826 24.0392 23.0809 24.0237 23.0865 24.0101C23.0921 23.9964 23.1042 23.9866 23.1187 23.984C23.3028 23.9501 23.4396 24.0399 23.5131 24.1655ZM21.7321 24.4482C21.7086 24.496 21.6965 24.5561 21.6965 24.5999C21.6965 24.6452 21.7076 24.6753 21.7229 24.6988C21.7391 24.7238 21.7611 24.7434 21.7884 24.7673L21.79 24.7687C21.812 24.7879 21.8376 24.8103 21.8591 24.8389C21.8772 24.8067 21.8986 24.7796 21.9179 24.755C21.9209 24.7513 21.9237 24.7477 21.9265 24.7441C21.9503 24.7136 21.9688 24.688 21.9797 24.6593C21.99 24.632 21.9941 24.5998 21.9843 24.5561C21.9837 24.5538 21.9834 24.5514 21.9833 24.549C21.9807 24.5041 21.9617 24.4617 21.9299 24.4299C21.8984 24.3984 21.8565 24.3795 21.8121 24.3766C21.7847 24.3772 21.7563 24.3991 21.7321 24.4482ZM21.907 24.956C21.9178 24.8957 21.9507 24.8538 21.9881 24.806C21.9904 24.8032 21.9926 24.8003 21.9949 24.7974C22.0186 24.767 22.0447 24.7322 22.0607 24.6899C22.0769 24.647 22.0821 24.5986 22.0696 24.5405C22.065 24.4757 22.0372 24.4146 21.9912 24.3686C21.9443 24.3218 21.8818 24.2938 21.8157 24.29C21.8149 24.2899 21.814 24.2899 21.8132 24.2899C21.7343 24.2899 21.6831 24.3514 21.6543 24.4099C21.6245 24.4705 21.6099 24.5437 21.6099 24.5999C21.6099 24.6613 21.6255 24.7079 21.6502 24.746C21.6735 24.7819 21.704 24.8086 21.7297 24.8311L21.7313 24.8325C21.7587 24.8564 21.7807 24.876 21.7969 24.901C21.8067 24.9161 21.8147 24.9339 21.8193 24.9567C21.8175 24.9704 21.8165 24.9848 21.8165 24.9999C21.8165 25.0238 21.8359 25.0432 21.8599 25.0432H21.8665C21.8905 25.0432 21.9099 25.0238 21.9099 24.9999C21.9099 24.9844 21.9089 24.9698 21.907 24.956ZM18.1907 24.2966C18.1916 24.2966 18.1924 24.2966 18.1932 24.2966C18.2722 24.2966 18.3233 24.3581 18.3521 24.4166C18.3819 24.4771 18.3966 24.5504 18.3966 24.6066C18.3966 24.6677 18.3815 24.7141 18.3576 24.7521C18.335 24.7881 18.3054 24.8148 18.2805 24.8373L18.2789 24.8387C18.2525 24.8626 18.2312 24.8822 18.2155 24.9071C18.2007 24.9307 18.1899 24.961 18.1899 25.0066C18.1899 25.0305 18.1705 25.0499 18.1466 25.0499C18.1226 25.0499 18.1032 25.0305 18.1032 25.0066C18.1032 24.9211 18.0642 24.8712 18.0183 24.8127C18.0161 24.8098 18.0138 24.807 18.0116 24.8041C17.9878 24.7737 17.9617 24.7389 17.9457 24.6966C17.9295 24.6537 17.9244 24.6053 17.9369 24.5471C17.9414 24.4823 17.9693 24.4213 18.0153 24.3753C18.0621 24.3284 18.1246 24.3004 18.1907 24.2966ZM18.1497 24.8497C18.1311 24.8158 18.1087 24.7873 18.0885 24.7617C18.0856 24.758 18.0827 24.7543 18.0799 24.7507C18.0561 24.7203 18.0376 24.6947 18.0268 24.6659C18.0164 24.6386 18.0123 24.6065 18.0222 24.5628C18.0227 24.5605 18.023 24.5581 18.0232 24.5557C18.0257 24.5108 18.0447 24.4684 18.0765 24.4366C18.108 24.4051 18.1499 24.3861 18.1943 24.3832C18.2217 24.3838 18.2501 24.4057 18.2743 24.4549C18.2979 24.5027 18.3099 24.5627 18.3099 24.6066C18.3099 24.6521 18.2991 24.6824 18.2842 24.706C18.2686 24.731 18.2473 24.7505 18.2208 24.7744L18.2193 24.7758C18.1971 24.7959 18.1711 24.8194 18.1497 24.8497ZM19.6215 24.3798C19.6289 24.3655 19.6437 24.3566 19.6599 24.3566C19.7488 24.3566 19.8177 24.3868 19.8657 24.4398C19.9125 24.4916 19.9354 24.5608 19.9422 24.6325C19.9557 24.775 19.9076 24.9433 19.8289 25.0578C19.8182 25.0734 19.7985 25.0802 19.7804 25.0746C19.7622 25.069 19.7499 25.0522 19.7499 25.0332C19.7499 25.0087 19.7395 24.9858 19.7188 24.9619C19.6975 24.9374 19.668 24.9148 19.6347 24.891C19.6292 24.8871 19.6236 24.8831 19.6178 24.8791C19.5907 24.86 19.5616 24.8395 19.5389 24.8186C19.5117 24.7935 19.4832 24.7589 19.4832 24.7132C19.4832 24.6194 19.549 24.5664 19.5917 24.532C19.5966 24.5281 19.6012 24.5244 19.6054 24.5209C19.6292 24.5009 19.6394 24.4887 19.6427 24.4782C19.6447 24.4717 19.6468 24.4569 19.6243 24.4247C19.6151 24.4114 19.614 24.3941 19.6215 24.3798ZM19.7293 24.4528C19.7601 24.4622 19.7835 24.4782 19.8014 24.4979C19.8318 24.5316 19.8502 24.5807 19.8559 24.6407C19.8646 24.732 19.8428 24.8389 19.8023 24.9284C19.7967 24.9202 19.7907 24.9125 19.7843 24.9052C19.7556 24.872 19.7184 24.8442 19.685 24.8204C19.6784 24.8157 19.672 24.8112 19.6658 24.8069C19.6389 24.7879 19.6158 24.7716 19.5976 24.7548C19.5747 24.7338 19.5699 24.7209 19.5699 24.7132C19.5699 24.6629 19.6015 24.6367 19.647 24.599C19.6516 24.5952 19.6563 24.5913 19.6611 24.5873C19.6839 24.5681 19.7137 24.5415 19.7254 24.5039C19.7307 24.4871 19.7318 24.47 19.7293 24.4528ZM20.1274 24.4398C20.1754 24.3868 20.2443 24.3566 20.3332 24.3566C20.3493 24.3566 20.3641 24.3655 20.3716 24.3798C20.3791 24.3941 20.378 24.4114 20.3688 24.4247C20.3463 24.4569 20.3484 24.4717 20.3504 24.4782C20.3537 24.4887 20.3639 24.5009 20.3877 24.5209C20.3919 24.5244 20.3965 24.5281 20.4014 24.532C20.4441 24.5664 20.5099 24.6194 20.5099 24.7132C20.5099 24.7589 20.4814 24.7935 20.4542 24.8186C20.4315 24.8395 20.4024 24.86 20.3753 24.8791C20.3695 24.8831 20.3639 24.8871 20.3584 24.891C20.3251 24.9148 20.2956 24.9374 20.2743 24.9619C20.2536 24.9858 20.2432 25.0087 20.2432 25.0332C20.2432 25.0522 20.2309 25.069 20.2127 25.0746C20.1946 25.0802 20.1749 25.0734 20.1642 25.0578C20.0855 24.9433 20.0374 24.775 20.0509 24.6325C20.0577 24.5608 20.0806 24.4916 20.1274 24.4398ZM20.1908 24.9284C20.1503 24.8389 20.1285 24.732 20.1372 24.6407C20.1429 24.5807 20.1613 24.5316 20.1917 24.4979C20.2096 24.4782 20.233 24.4622 20.2638 24.4528C20.2613 24.47 20.2624 24.4871 20.2677 24.5039C20.2794 24.5415 20.3092 24.5681 20.332 24.5873C20.3368 24.5913 20.3415 24.5952 20.3461 24.599C20.3916 24.6367 20.4232 24.6629 20.4232 24.7132C20.4232 24.7209 20.4184 24.7338 20.3955 24.7548C20.3773 24.7716 20.3542 24.7879 20.3273 24.8069C20.3211 24.8112 20.3147 24.8157 20.3081 24.8204C20.2747 24.8442 20.2375 24.872 20.2088 24.9052C20.2024 24.9125 20.1964 24.9202 20.1908 24.9284Z" fill="#C09300"/>
<path d="M16.9799 24.1332C17.0866 24.1332 17.2466 24.1799 17.2932 24.2399L16.9799 24.1332ZM17.5066 24.2932C17.5599 24.2932 17.7732 24.3399 17.8732 24.3999L17.5066 24.2932ZM19.4132 24.5066C19.3132 24.5066 19.0999 24.5066 19.0466 24.5532L19.4132 24.4999V24.5066ZM18.8332 24.5066C18.7732 24.4466 18.5666 24.4466 18.4599 24.5066H18.8332ZM23.0199 24.1332C22.9068 24.1347 22.797 24.172 22.7065 24.2399L23.0199 24.1332ZM22.4999 24.2932C22.4332 24.2932 22.2332 24.3399 22.1265 24.3999L22.4999 24.2932ZM20.5865 24.5066C20.6865 24.5066 20.8999 24.5066 20.9599 24.5532L20.5865 24.4999V24.5066ZM21.1665 24.5066C21.2265 24.4466 21.4332 24.4466 21.5399 24.5066H21.1665Z" fill="white"/>
<path fill-rule="evenodd" clip-rule="evenodd" d="M23.0494 24.1282C23.0519 24.1427 23.0435 24.1569 23.0295 24.1616L22.7162 24.2683C22.7022 24.2731 22.6869 24.267 22.68 24.2539C22.6731 24.2409 22.6767 24.2248 22.6885 24.2159C22.7841 24.1442 22.9 24.1047 23.0195 24.1032C23.0342 24.1031 23.0469 24.1136 23.0494 24.1282ZM16.9503 24.1283C16.9527 24.1139 16.9652 24.1032 16.9799 24.1032C17.0369 24.1032 17.1067 24.1156 17.1683 24.1355C17.1992 24.1455 17.2288 24.1577 17.2541 24.1717C17.279 24.1854 17.3017 24.2019 17.3169 24.2215C17.325 24.232 17.3253 24.2465 17.3177 24.2573C17.31 24.2681 17.2961 24.2726 17.2836 24.2683L16.9702 24.1616C16.9563 24.1569 16.9479 24.1428 16.9503 24.1283ZM17.4769 24.289C17.479 24.2742 17.4916 24.2632 17.5066 24.2632C17.5375 24.2632 17.6075 24.2759 17.6801 24.2951C17.7531 24.3144 17.8349 24.3419 17.8887 24.3742C17.9016 24.3819 17.9068 24.3981 17.9007 24.4119C17.8947 24.4257 17.8793 24.4329 17.8648 24.4287L17.4982 24.322C17.4838 24.3179 17.4748 24.3038 17.4769 24.289ZM22.3205 24.2951C22.3926 24.2758 22.4624 24.2632 22.4999 24.2632C22.5148 24.2632 22.5275 24.2743 22.5296 24.2891C22.5317 24.3039 22.5225 24.318 22.5081 24.3221L22.1348 24.4287C22.1202 24.4329 22.1047 24.4255 22.0989 24.4115C22.093 24.3974 22.0986 24.3812 22.1118 24.3738C22.1684 24.3419 22.2479 24.3145 22.3205 24.2951ZM18.772 24.4437C18.8037 24.4518 18.8339 24.4648 18.8544 24.4854C18.863 24.4939 18.8656 24.5068 18.8609 24.5181C18.8563 24.5293 18.8454 24.5366 18.8332 24.5366H18.4599C18.4462 24.5366 18.4343 24.5274 18.4309 24.5142C18.4274 24.501 18.4333 24.4871 18.4452 24.4804C18.5045 24.447 18.5885 24.4316 18.6641 24.4316C18.7022 24.4316 18.7396 24.4355 18.772 24.4437ZM21.3357 24.4316C21.4112 24.4316 21.4952 24.447 21.5546 24.4804C21.5665 24.4871 21.5724 24.501 21.5689 24.5142C21.5654 24.5274 21.5535 24.5366 21.5399 24.5366H21.1665C21.1544 24.5366 21.1435 24.5293 21.1388 24.5181C21.1342 24.5068 21.1368 24.4939 21.1453 24.4854C21.1658 24.4648 21.196 24.4518 21.2278 24.4437C21.2602 24.4355 21.2976 24.4316 21.3357 24.4316ZM19.4328 24.4772C19.4394 24.4829 19.4432 24.4912 19.4432 24.4999V24.5066C19.4432 24.5231 19.4298 24.5366 19.4132 24.5366C19.4001 24.5366 19.3851 24.5366 19.3688 24.5367L19.0509 24.5829C19.0377 24.5848 19.0249 24.5779 19.0193 24.5658C19.0137 24.5537 19.0168 24.5394 19.0268 24.5307C19.0462 24.5137 19.0759 24.5037 19.1057 24.497C19.1367 24.49 19.1731 24.4855 19.21 24.4825C19.2628 24.4782 19.3186 24.477 19.3643 24.4767L19.4089 24.4702C19.4175 24.469 19.4263 24.4715 19.4328 24.4772ZM20.5669 24.4772C20.5735 24.4715 20.5822 24.469 20.5908 24.4702L20.6363 24.4767C20.6819 24.4771 20.7375 24.4783 20.7906 24.4825C20.8279 24.4855 20.8648 24.49 20.8967 24.497C20.9275 24.5037 20.9577 24.5136 20.9783 24.5296C20.989 24.5379 20.9928 24.5524 20.9875 24.565C20.9822 24.5775 20.9691 24.5849 20.9556 24.5829L20.6319 24.5367C20.6152 24.5366 20.5999 24.5366 20.5865 24.5366C20.57 24.5366 20.5565 24.5231 20.5565 24.5066V24.4999C20.5565 24.4912 20.5603 24.4829 20.5669 24.4772Z" fill="#C09300"/>
<path d="M16.8866 24.9732C16.8532 24.9666 16.8332 24.9332 16.8466 24.9066C16.8532 24.8599 16.8866 24.8399 16.9132 24.8532C16.9399 24.8532 16.9732 24.8932 16.9732 24.9066L16.9466 24.9532L16.9332 24.9599C16.9332 24.9732 16.9066 24.9732 16.8866 24.9732ZM20.5532 25.2332C20.5399 25.2332 20.5132 25.1999 20.5132 25.1866C20.5132 25.1599 20.5532 25.1199 20.5799 25.1199L20.6332 25.1466C20.6532 25.1666 20.6532 25.2066 20.6265 25.2266C20.6132 25.2399 20.5732 25.2399 20.5532 25.2266V25.2332ZM20.5732 25.3999C20.5465 25.3866 20.5399 25.3732 20.5332 25.3466C20.5332 25.3132 20.5332 25.3066 20.5665 25.2866L20.5932 25.2732L20.6199 25.2866C20.6465 25.2999 20.6665 25.3132 20.6665 25.3399C20.6665 25.3599 20.6465 25.3799 20.6199 25.3932C20.5999 25.4066 20.5932 25.4066 20.5732 25.3932V25.3999Z" fill="#C09300"/>
<path d="M17.1866 24.6666C17.1599 24.6666 17.1266 24.6932 17.1066 24.7066C17.0666 24.7132 17.0132 24.7399 16.9732 24.7066C16.9332 24.6999 16.8799 24.7066 16.8732 24.7599C16.8799 24.8066 16.9399 24.8266 16.9799 24.7999C17.0066 24.7666 17.0799 24.7399 17.0932 24.7999C17.0599 24.8532 17.0666 24.9132 17.0399 24.9599C17.0399 24.9932 17.0199 25.0199 17.0066 25.0466C16.9732 25.0466 16.9399 25.0466 16.9132 25.0666C16.8925 25.0666 16.8721 25.0714 16.8536 25.0806C16.8351 25.0899 16.819 25.1033 16.8066 25.1199C16.7799 25.1599 16.7532 25.1999 16.7466 25.2532C16.7532 25.2932 16.8132 25.3066 16.8532 25.3132L16.9866 25.3532L17.1999 25.4132C17.3066 25.4466 17.4132 25.4599 17.5199 25.4866L17.5532 25.4932C17.5999 25.5066 17.6199 25.4599 17.6199 25.4266L17.6866 25.1866C17.6999 25.1532 17.7199 25.0866 17.6599 25.0999C17.6266 25.1199 17.5932 25.1532 17.5532 25.1532C17.4932 25.1532 17.5266 25.2199 17.5532 25.2399C17.5532 25.2799 17.5399 25.3266 17.5199 25.3599C17.4799 25.3799 17.4399 25.3599 17.3999 25.3466C17.3666 25.3466 17.2866 25.3266 17.3199 25.2799L17.3532 25.1599C17.3732 25.1199 17.3732 25.0732 17.3866 25.0266C17.3599 24.9799 17.3199 25.0466 17.2866 25.0532C17.2599 25.0666 17.1799 25.0732 17.2199 25.1199C17.2599 25.1466 17.2332 25.1932 17.2199 25.2332C17.2199 25.2799 17.1666 25.2999 17.1266 25.2799C17.0866 25.2799 17.0266 25.2466 17.0599 25.2066L17.0932 25.0866L17.1399 24.9532C17.1399 24.9066 17.1599 24.8732 17.1799 24.8332C17.1799 24.7866 17.2132 24.7466 17.2132 24.6999C17.2132 24.6799 17.1999 24.6732 17.1866 24.6732V24.6666ZM16.9399 25.1532C16.9429 25.1515 16.9464 25.1506 16.9499 25.1506C16.9534 25.1506 16.9569 25.1515 16.9599 25.1532C16.9732 25.1666 16.9732 25.1799 16.9599 25.1932L16.9399 25.2066C16.9066 25.2066 16.8999 25.1999 16.8999 25.1866C16.8999 25.1799 16.8999 25.1732 16.9199 25.1666C16.928 25.1607 16.937 25.1562 16.9466 25.1532H16.9399ZM16.8732 25.4866C16.8399 25.4599 16.8466 25.4399 16.8932 25.3999C16.9199 25.3866 16.9266 25.3866 16.9532 25.4066C16.9932 25.4399 16.9932 25.4599 16.9532 25.4932C16.9399 25.5066 16.9332 25.5066 16.9199 25.5066C16.8999 25.5066 16.8932 25.5066 16.8732 25.4932V25.4866ZM17.0732 25.5532C17.0583 25.5486 17.0458 25.5384 17.0384 25.5247C17.0309 25.511 17.0291 25.4949 17.0332 25.4799C17.0466 25.4532 17.0532 25.4466 17.0932 25.4466C17.1399 25.4466 17.1466 25.4532 17.1532 25.4932C17.1532 25.5199 17.1532 25.5266 17.1332 25.5399C17.1258 25.5458 17.1172 25.55 17.108 25.5523C17.0988 25.5546 17.0892 25.5549 17.0799 25.5532H17.0732ZM23.0199 25.5532C23.0065 25.5466 22.9999 25.5399 22.9999 25.5199C22.9999 25.4932 23.0132 25.4732 23.0532 25.4599C23.0932 25.4399 23.1199 25.4399 23.1332 25.4732C23.1532 25.5132 23.1532 25.5266 23.1265 25.5532C23.1132 25.5732 23.1065 25.5732 23.0732 25.5732C23.0399 25.5732 23.0332 25.5732 23.0199 25.5599V25.5532ZM17.3532 25.6332C17.3266 25.6332 17.3132 25.6066 17.3132 25.5799C17.3132 25.5599 17.3132 25.5532 17.3266 25.5399L17.3666 25.5266L17.4066 25.5332C17.4399 25.5599 17.4466 25.5866 17.4266 25.6132C17.4066 25.6399 17.3866 25.6399 17.3466 25.6332H17.3532ZM18.8066 25.6999L18.7932 25.6799C18.7932 25.6399 18.7932 25.6066 18.8066 25.5666C18.8132 25.5332 18.8066 25.4999 18.8199 25.4666L18.8466 25.2799C18.8466 25.2466 18.8466 25.2132 18.8599 25.1866C18.8666 25.1332 18.8599 25.0866 18.8732 25.0399C18.8732 25.0199 18.8932 24.9732 18.9132 24.9999C18.9399 25.0399 18.9732 25.0666 19.0066 25.0999C19.0332 25.1199 19.0066 25.1466 18.9866 25.1532C18.9599 25.1599 18.9532 25.1932 18.9532 25.2199L18.9399 25.2999C18.9399 25.3466 18.9399 25.3866 18.9266 25.4332L18.9199 25.5532L18.9066 25.6332C18.9066 25.6599 18.9066 25.6932 18.8799 25.7066C18.8599 25.7199 18.8266 25.7199 18.8132 25.6999H18.8066ZM20.7865 25.0466L20.6999 25.1266C20.6599 25.1599 20.7332 25.1732 20.7399 25.1999C20.7532 25.2399 20.7532 25.2799 20.7532 25.3199C20.7665 25.3599 20.7732 25.3932 20.7665 25.4332C20.7665 25.4799 20.7132 25.4666 20.6865 25.4932C20.6532 25.5066 20.6399 25.5399 20.6199 25.5599C20.604 25.5933 20.595 25.6296 20.5932 25.6666C20.5932 25.6999 20.5732 25.7332 20.5932 25.7599L20.5999 25.7732H20.6332L20.7332 25.7666C20.8132 25.7532 20.8999 25.7532 20.9799 25.7466L21.1265 25.7332C21.1665 25.7399 21.1865 25.6999 21.1865 25.6666C21.1599 25.6199 21.1799 25.5732 21.1599 25.5332C21.1465 25.4799 21.1532 25.4332 21.1465 25.3866C21.1465 25.3466 21.0999 25.3332 21.0799 25.3599C21.0532 25.3866 21.0132 25.3932 20.9999 25.4199C20.9799 25.4599 21.0399 25.4599 21.0532 25.4866L21.0599 25.5866C21.0665 25.6266 21.0265 25.6266 20.9932 25.6332C20.9599 25.6466 20.9132 25.6532 20.8932 25.6132C20.8799 25.5799 20.8799 25.5466 20.8799 25.5132C20.8799 25.4466 20.8599 25.3932 20.8599 25.3332C20.8599 25.2666 20.8399 25.1932 20.8399 25.1199C20.8399 25.0866 20.8332 25.0399 20.7865 25.0466ZM20.7465 25.5932H20.7665V25.6466L20.7465 25.6532C20.7378 25.656 20.7289 25.6582 20.7199 25.6599C20.7154 25.6601 20.711 25.6601 20.7065 25.6599C20.6932 25.6466 20.6932 25.6266 20.7132 25.6066L20.7465 25.5932ZM18.7466 24.9799C18.7266 24.9799 18.6932 25.0266 18.6666 25.0199C18.6066 25.0266 18.6132 25.0866 18.6599 25.1066V25.1599C18.6666 25.2132 18.6332 25.2599 18.6399 25.3132C18.6399 25.3666 18.6199 25.4266 18.6199 25.4866C18.5999 25.5466 18.5999 25.6066 18.5932 25.6666C18.5866 25.7199 18.5466 25.6999 18.5132 25.6866V25.6199C18.5199 25.5599 18.4799 25.5466 18.4332 25.5399C18.3866 25.5399 18.3666 25.5066 18.3799 25.4666C18.3999 25.4399 18.4466 25.4466 18.4799 25.4466C18.5466 25.4599 18.5399 25.3732 18.5066 25.3399C18.4799 25.2999 18.4266 25.2732 18.4132 25.2332C18.4132 25.1799 18.3799 25.1199 18.3332 25.0932C18.2599 25.0866 18.1999 25.1466 18.1799 25.2132C18.1466 25.2132 18.1132 25.2266 18.0866 25.2399C18.0399 25.2532 17.9732 25.3332 18.0399 25.3666C18.0732 25.3732 18.1866 25.3999 18.1332 25.4466C18.1066 25.4999 18.0532 25.4999 18.0066 25.4866C17.9599 25.4866 17.9066 25.4599 17.9066 25.4066C17.8999 25.3532 17.8999 25.2999 17.8799 25.2532C17.8666 25.1999 17.8066 25.2132 17.7999 25.2666C17.7532 25.2999 17.7599 25.3599 17.7932 25.3999C17.8132 25.4466 17.7932 25.5066 17.7732 25.5466C17.7599 25.6132 17.6932 25.6132 17.6466 25.6266C17.6266 25.6399 17.5399 25.6266 17.5732 25.6732C17.6232 25.6963 17.6791 25.7032 17.7332 25.6932C17.7866 25.6932 17.8332 25.6466 17.8666 25.5999C17.8999 25.5666 17.9599 25.5866 18.0132 25.5866C18.0599 25.5866 18.1132 25.6199 18.1666 25.5932C18.1799 25.5599 18.2466 25.4932 18.2666 25.5599C18.2666 25.6199 18.3132 25.6466 18.3666 25.6399C18.4266 25.6399 18.3999 25.6799 18.3999 25.7199C18.3999 25.7799 18.4466 25.8132 18.4999 25.8399H18.5532C18.5999 25.8199 18.6532 25.7999 18.6732 25.7466C18.6932 25.6999 18.6932 25.6466 18.7066 25.5999C18.7199 25.5266 18.7332 25.4466 18.7332 25.3732C18.7532 25.3066 18.7466 25.2332 18.7599 25.1599L18.7799 25.0066C18.7799 24.9732 18.7666 24.9732 18.7466 24.9799ZM18.2999 25.2532C18.3066 25.2532 18.3132 25.2666 18.3132 25.2866C18.3132 25.3132 18.3266 25.3332 18.3466 25.3399V25.3599L18.2932 25.3732C18.2599 25.3732 18.2332 25.3599 18.2132 25.3399L18.1999 25.3266L18.2199 25.3132L18.2532 25.2799C18.2732 25.2599 18.2866 25.2532 18.2999 25.2532ZM22.6999 24.7266C22.6615 24.7293 22.6235 24.736 22.5865 24.7466C22.5199 24.7466 22.4865 24.8132 22.5532 24.8532C22.5932 24.9532 22.6532 24.8266 22.7199 24.8399C22.8132 24.8532 22.8199 24.9599 22.8399 25.0399C22.8399 25.1132 22.8665 25.1866 22.8865 25.2599C22.9532 25.3332 22.8399 25.3799 22.7932 25.3266C22.7532 25.2799 22.6599 25.2266 22.6132 25.2866C22.5532 25.3132 22.5465 25.3932 22.4999 25.4199C22.4199 25.4399 22.4132 25.3399 22.3665 25.2999C22.3265 25.2399 22.2532 25.2332 22.1932 25.2199C22.1665 25.1599 22.1799 25.0599 22.1265 25.0199C22.0732 25.0399 21.9799 25.1332 22.0599 25.1799C22.1265 25.2466 22.0265 25.2732 21.9932 25.3132C21.9399 25.3732 21.9265 25.4466 21.9265 25.5132C21.8399 25.5599 21.8265 25.4599 21.8132 25.3999C21.8132 25.3266 21.7465 25.3466 21.6999 25.3732C21.6332 25.3999 21.6065 25.4599 21.5665 25.5066V25.6399C21.5799 25.6999 21.6465 25.6732 21.6865 25.6666C21.7532 25.6399 21.7799 25.7132 21.7265 25.7532C21.6865 25.7932 21.5799 25.7732 21.5932 25.8466H21.6999C21.7665 25.8266 21.8465 25.7732 21.8532 25.6932C21.8665 25.6266 21.9665 25.6332 22.0199 25.6199C22.0865 25.5999 22.1732 25.5932 22.1932 25.6866C22.2399 25.7332 22.3399 25.7866 22.3932 25.7199C22.4186 25.7038 22.4389 25.6809 22.4519 25.6538C22.4649 25.6267 22.47 25.5964 22.4665 25.5666C22.4599 25.5132 22.5532 25.5132 22.5799 25.5466C22.6132 25.5999 22.7199 25.5866 22.7732 25.5466C22.8265 25.5132 22.8399 25.4399 22.9199 25.4399L23.2799 25.3399C23.3732 25.3199 23.2665 25.2599 23.2399 25.2199C23.1732 25.1866 23.1065 25.3332 23.0265 25.2599C22.9599 25.2132 22.9665 25.1266 22.9465 25.0532C22.9265 24.9599 22.9332 24.8532 22.8665 24.7866C22.8265 24.7399 22.7599 24.7266 22.6999 24.7266ZM22.2465 25.3599C22.2532 25.3599 22.2665 25.3599 22.2799 25.3732C22.3065 25.3866 22.3265 25.4132 22.3265 25.4399C22.3265 25.4532 22.3265 25.4532 22.3065 25.4599L22.2732 25.4732C22.2599 25.4732 22.2265 25.4532 22.2265 25.4399V25.4132C22.2132 25.3866 22.2132 25.3866 22.2265 25.3732L22.2465 25.3599ZM22.6799 25.3866C22.7065 25.3866 22.7199 25.3866 22.7332 25.4066C22.7399 25.4332 22.7332 25.4466 22.7065 25.4599L22.6732 25.4732L22.6465 25.4532C22.6332 25.4466 22.6265 25.4399 22.6265 25.4266C22.6265 25.4066 22.6532 25.3866 22.6799 25.3799V25.3866ZM22.0799 25.3866C22.0932 25.3866 22.0999 25.3866 22.1065 25.3999C22.1199 25.4132 22.1265 25.4199 22.1265 25.4399V25.4799C22.1265 25.4999 22.1265 25.4932 22.0865 25.4932C22.0465 25.4932 22.0399 25.4932 22.0399 25.4532C22.0399 25.4266 22.0399 25.4199 22.0599 25.4066C22.0665 25.3932 22.0799 25.3932 22.0865 25.3932L22.0799 25.3866ZM21.7199 25.4866C21.7262 25.4885 21.7319 25.4919 21.7366 25.4966C21.7412 25.5012 21.7446 25.5069 21.7465 25.5132C21.7465 25.5332 21.7465 25.5466 21.7332 25.5532C21.7132 25.5599 21.6799 25.5666 21.6665 25.5532C21.6664 25.551 21.6664 25.5488 21.6665 25.5466C21.6532 25.5399 21.6532 25.5332 21.6665 25.5266V25.5199L21.6799 25.4999C21.684 25.4934 21.6902 25.4885 21.6975 25.4861C21.7048 25.4837 21.7127 25.4838 21.7199 25.4866ZM22.3332 25.5666L22.3665 25.5732V25.6132H22.2865L22.2799 25.5999C22.2799 25.5866 22.2799 25.5799 22.2932 25.5732L22.3332 25.5666ZM21.1932 25.8866C21.1865 25.8866 21.1732 25.8799 21.1865 25.8732C21.1932 25.8532 21.2199 25.8466 21.2399 25.8332C21.2762 25.8194 21.3083 25.7964 21.3332 25.7666C21.3332 25.7399 21.3599 25.7266 21.3599 25.6999L21.3532 25.6066C21.3442 25.5786 21.3252 25.5548 21.2999 25.5399C21.2799 25.5332 21.2532 25.5266 21.2465 25.4999C21.2465 25.4799 21.2665 25.4599 21.2732 25.4399L21.3132 25.3599C21.3332 25.3399 21.3599 25.3599 21.3665 25.3732L21.3999 25.4399C21.4199 25.4599 21.4332 25.4799 21.4399 25.5066C21.4532 25.5332 21.4665 25.5532 21.4665 25.5732L21.4799 25.6599C21.4799 25.6932 21.4799 25.7332 21.4665 25.7666L21.4265 25.8199C21.4065 25.8399 21.3865 25.8599 21.3599 25.8666C21.3399 25.8732 21.3265 25.8932 21.2999 25.8932H21.1999L21.1932 25.8866ZM20.7332 25.9132C20.7199 25.8999 20.7132 25.8932 20.7132 25.8732C20.7132 25.8532 20.7132 25.8532 20.7332 25.8332C20.7599 25.8066 20.7732 25.8066 20.8265 25.8332C20.8732 25.8599 20.8932 25.8599 20.8932 25.8399C20.8999 25.8266 20.9265 25.8066 20.9599 25.8066C20.9722 25.807 20.984 25.8117 20.9932 25.8199C21.0065 25.8332 21.0132 25.8399 21.0132 25.8666C21.0132 25.8999 21.0132 25.8999 20.9932 25.9199C20.9732 25.9332 20.9732 25.9332 20.9465 25.9332C20.9347 25.9326 20.9233 25.9284 20.9138 25.9213C20.9043 25.9142 20.8972 25.9044 20.8932 25.8932C20.8932 25.8799 20.8932 25.8732 20.8799 25.8866L20.8665 25.8932C20.8532 25.8932 20.8265 25.9132 20.8132 25.9266L20.7799 25.9332C20.7532 25.9332 20.7532 25.9332 20.7332 25.9132ZM19.4132 25.3199C19.3666 25.3199 19.3199 25.3599 19.3132 25.4066C19.3266 25.4532 19.3666 25.5066 19.3399 25.5532C19.3599 25.6199 19.2866 25.6466 19.2399 25.6132C19.2132 25.5466 19.1999 25.4799 19.1532 25.4132C19.0999 25.3999 19.0799 25.4866 19.0399 25.5199C19.0599 25.5666 19.1132 25.6132 19.1199 25.6732C19.1332 25.7399 19.0932 25.8066 19.0466 25.8332C18.9999 25.8799 18.9332 25.8666 18.8799 25.8732C18.8132 25.9132 18.9266 25.9266 18.9599 25.9266C19.0266 25.9332 19.0999 25.9266 19.1599 25.8732C19.2066 25.8532 19.1999 25.7599 19.2599 25.7532L19.5799 25.7732C19.6332 25.7866 19.7199 25.7666 19.7599 25.8066C19.7599 25.8732 19.8265 25.9266 19.8865 25.9532C19.9199 25.9666 19.9532 25.9199 19.9865 25.9132C20.0532 25.8932 20.0332 25.8132 20.0732 25.7799H20.4065C20.4199 25.7799 20.4265 25.7466 20.4465 25.7332L20.4332 25.6066C20.4132 25.5532 20.4332 25.4866 20.3999 25.4399C20.3399 25.4266 20.2932 25.4732 20.2399 25.4799C20.1732 25.5066 20.1265 25.5666 20.1199 25.6332C20.0865 25.6932 20.0265 25.6199 20.0532 25.5666L20.0466 25.4999C20.0132 25.4666 19.9532 25.4799 19.9066 25.4732L19.7066 25.4599C19.6399 25.4599 19.5799 25.4666 19.5266 25.4532C19.4599 25.4532 19.4599 25.3866 19.4599 25.3332C19.4466 25.3231 19.4299 25.3183 19.4132 25.3199ZM19.5466 25.5666L19.6132 25.5732H19.6999C19.7666 25.5866 19.8332 25.5866 19.8999 25.5866C19.9132 25.5866 19.9266 25.5999 19.9399 25.6132V25.7466C19.9399 25.7666 19.9399 25.7932 19.9265 25.7999C19.9231 25.8052 19.9185 25.8097 19.9132 25.8132C19.9034 25.8115 19.8942 25.8076 19.8861 25.8018C19.878 25.7961 19.8714 25.7886 19.8666 25.7799V25.6866C19.8533 25.6754 19.8371 25.6684 19.8199 25.6666L19.6466 25.6599L19.5132 25.6532C19.4932 25.6466 19.4666 25.6532 19.4532 25.6266C19.4399 25.6132 19.4599 25.5866 19.4799 25.5799C19.5008 25.5705 19.5236 25.566 19.5466 25.5666ZM20.2999 25.5866C20.3065 25.5866 20.3132 25.5866 20.3132 25.6066L20.3265 25.6399C20.3265 25.6466 20.3266 25.6532 20.3132 25.6532C20.2799 25.6666 20.2465 25.6666 20.2332 25.6532C20.2332 25.6466 20.2332 25.6199 20.2465 25.6132L20.2999 25.5866Z" fill="#C09300"/>
<path d="M19.9999 21.8132C22.1732 20.1466 21.9865 17.6933 21.9865 17.6933L21.8199 17.7066C21.3599 17.7066 20.2732 17.4399 20.0199 17.1133C19.7532 17.4133 18.6332 17.7133 18.1799 17.7133L18.0132 17.6933C18.0132 17.6933 17.8199 20.1399 19.9999 21.8132Z" fill="white"/>
<path fill-rule="evenodd" clip-rule="evenodd" d="M20.0218 17.0559L20.0489 17.0908C20.1069 17.1657 20.2161 17.2406 20.3595 17.3109C20.5018 17.3806 20.6737 17.4439 20.8528 17.4973C21.2111 17.604 21.5931 17.6696 21.8184 17.6699L22.0203 17.6538L22.0231 17.6905L21.9865 17.6933C22.0231 17.6905 22.0231 17.6904 22.0231 17.6905L22.0232 17.6925C22.0233 17.6938 22.0235 17.6957 22.0236 17.6981C22.0239 17.703 22.0243 17.7102 22.0247 17.7196C22.0256 17.7383 22.0265 17.7659 22.027 17.8015C22.0278 17.8727 22.0266 17.976 22.0183 18.105C22.0018 18.363 21.9568 18.7243 21.8436 19.1379C21.617 19.9654 21.1166 21.0031 20.0222 21.8423L19.9999 21.8595L19.9776 21.8423C18.8798 20.9997 18.3794 19.9621 18.1537 19.1354C18.0408 18.7222 17.9965 18.3615 17.9805 18.104C17.9724 17.9752 17.9715 17.8721 17.9725 17.8011C17.973 17.7656 17.9741 17.7381 17.975 17.7194C17.9754 17.71 17.9758 17.7029 17.9761 17.698C17.9763 17.6956 17.9764 17.6937 17.9765 17.6924L17.9766 17.691C17.9766 17.6909 17.9767 17.6904 18.0132 17.6933L17.9766 17.691L17.9797 17.6523L18.1821 17.6766C18.4038 17.6761 18.7917 17.6024 19.1592 17.4907C19.3431 17.4348 19.5205 17.3697 19.668 17.3004C19.8167 17.2305 19.931 17.1581 19.9925 17.0889L20.0218 17.0559ZM18.0477 17.7343C18.047 17.7515 18.0462 17.7743 18.0458 17.8022C18.0448 17.8715 18.0458 17.9727 18.0537 18.0994C18.0695 18.3529 18.1131 18.7085 18.2244 19.1161C18.4455 19.9255 18.9332 20.9393 19.9999 21.7669C21.0633 20.9426 21.551 19.9288 21.7728 19.1186C21.8846 18.7106 21.9288 18.3543 21.9452 18.1003C21.9533 17.9733 21.9545 17.8719 21.9537 17.8024C21.9533 17.7735 21.9526 17.7502 21.9519 17.7328L21.8213 17.7433H21.8199C21.585 17.7433 21.1946 17.6756 20.8319 17.5676C20.6502 17.5134 20.4742 17.4488 20.3272 17.3767C20.1988 17.3138 20.0893 17.2437 20.0181 17.1675C19.9439 17.2376 19.8311 17.3048 19.6992 17.3668C19.5476 17.438 19.3667 17.5043 19.1806 17.5608C18.8092 17.6737 18.4119 17.7499 18.1799 17.7499H18.1777L18.0477 17.7343Z" fill="#C09300"/>
<path d="M21.8132 17.8666H21.7599C21.3465 17.8666 20.3865 17.6599 20.0132 17.3399C19.6266 17.6333 18.6466 17.8733 18.2399 17.8733C18.222 17.8726 18.2041 17.8703 18.1866 17.8666C18.1902 18.2879 18.2485 18.7069 18.3599 19.1133C18.6273 20.0922 19.2022 20.9593 19.9999 21.5866C20.798 20.9569 21.3729 20.0876 21.6399 19.1066C21.7507 18.7024 21.809 18.2857 21.8132 17.8666Z" fill="white"/>
<path fill-rule="evenodd" clip-rule="evenodd" d="M20.0144 17.3014L20.0327 17.3172C20.214 17.4725 20.5417 17.6028 20.8794 17.6943C21.2162 17.7856 21.5568 17.8366 21.7599 17.8366H21.8435L21.8432 17.8669C21.839 18.2885 21.7804 18.7078 21.6688 19.1145C21.4002 20.1016 20.8216 20.9764 20.0185 21.6101L19.9999 21.6248L19.9813 21.6102C19.1786 20.9789 18.6 20.1063 18.3309 19.1212C18.2188 18.7124 18.1602 18.2907 18.1566 17.8669L18.1562 17.8295L18.1928 17.8373C18.2085 17.8406 18.2244 17.8426 18.2405 17.8433C18.4399 17.8431 18.7832 17.784 19.1259 17.6877C19.4695 17.5912 19.8065 17.4591 19.9951 17.316L20.0144 17.3014ZM19.1422 17.7455C18.7969 17.8424 18.4472 17.9033 18.2399 17.9033L18.2387 17.9032C18.2315 17.903 18.2242 17.9025 18.217 17.9017C18.2235 18.3085 18.2812 18.7129 18.3888 19.1053C18.6524 20.0704 19.2169 20.9262 19.9999 21.5483C20.7833 20.9238 21.3477 20.0659 21.6109 19.0987C21.7184 18.7068 21.7762 18.3029 21.7828 17.8966H21.7599C21.5497 17.8966 21.2035 17.8443 20.8637 17.7522C20.5353 17.6632 20.2069 17.5356 20.0121 17.378C19.8114 17.5226 19.476 17.6517 19.1422 17.7455Z" fill="#C09300"/>
<path d="M19.2932 17.6666C18.9351 17.7832 18.5628 17.8505 18.1866 17.8666L18.1932 18.1399C18.216 18.467 18.2718 18.7908 18.3599 19.1066C18.5391 19.7623 18.8574 20.3716 19.2932 20.8933V17.6666ZM20.6665 20.9466C21.1233 20.413 21.4558 19.7845 21.6399 19.1066C21.7278 18.7908 21.7837 18.4669 21.8065 18.1399L21.8132 17.8733H21.7599C21.5065 17.8733 21.0665 17.7933 20.6665 17.6599V20.9466Z" fill="#C09300"/>
<path d="M20.8199 16.8666C20.8665 16.8733 20.7599 16.6333 20.7599 16.6333C20.8799 16.7533 21.3199 16.7866 21.3199 16.7866C21.0532 16.6666 20.7865 15.7799 20.8199 15.0666C20.8465 14.3599 20.7199 14.0799 20.6199 13.9733C20.4865 13.8399 20.0532 13.7199 19.7732 13.7066C19.6066 13.6999 19.6399 13.8266 19.6399 13.8266C19.3399 13.7533 19.0399 13.7199 18.9066 13.8133C18.7866 13.8933 18.7599 14.3133 18.8532 14.2399C19.0732 14.0599 19.2666 14.2266 19.3999 14.4199C19.5199 14.5866 19.5132 15.0666 19.3399 15.6333C19.1864 16.0617 18.9609 16.4607 18.6732 16.8133C18.9399 16.8133 19.3132 16.5799 19.3132 16.5799L19.2266 16.9466C19.5066 16.8133 19.7266 16.6066 19.7266 16.6066L19.9932 16.8866C20.0799 16.7666 20.2599 16.6066 20.2599 16.6066C20.2599 16.6066 20.4799 16.8399 20.8199 16.8733V16.8666Z" fill="white"/>
<path fill-rule="evenodd" clip-rule="evenodd" d="M19.6631 13.6873C19.6916 13.672 19.7284 13.6648 19.7748 13.6666C19.9187 13.6735 20.1007 13.7076 20.2631 13.7567C20.3445 13.7812 20.4218 13.8098 20.4878 13.8411C20.5532 13.8721 20.6101 13.9069 20.6482 13.945L20.6491 13.9459C20.7605 14.0648 20.8866 14.359 20.8598 15.0681C20.8434 15.4197 20.901 15.8156 20.9958 16.1378C21.0431 16.2989 21.0994 16.4403 21.1595 16.5481C21.2206 16.6577 21.282 16.7257 21.3363 16.7501L21.3169 16.8265L21.3199 16.7866C21.3169 16.8265 21.3169 16.8265 21.3169 16.8265L21.3154 16.8264L21.3116 16.8261C21.3082 16.8258 21.3033 16.8253 21.297 16.8248C21.2845 16.8236 21.2665 16.8218 21.2446 16.8193C21.2009 16.8142 21.1412 16.8061 21.0775 16.7943C21.014 16.7824 20.9457 16.7666 20.885 16.7457C20.8703 16.7406 20.8557 16.7352 20.8416 16.7293C20.8428 16.7325 20.8439 16.7358 20.8451 16.7391C20.8556 16.769 20.8656 16.8013 20.8697 16.8267C20.8715 16.8383 20.8732 16.8541 20.8694 16.8686C20.868 16.8741 20.8653 16.8813 20.8599 16.8882V16.9174L20.816 16.9131C20.6378 16.8956 20.4918 16.8259 20.3908 16.7611C20.3402 16.7287 20.3005 16.6973 20.2734 16.6739C20.2682 16.6694 20.2635 16.6652 20.2592 16.6613C20.2587 16.6618 20.2581 16.6623 20.2576 16.6628C20.2396 16.6795 20.2147 16.703 20.1871 16.7301C20.1315 16.7849 20.0669 16.8529 20.0256 16.91L19.9975 16.9491L19.7243 16.6623C19.7211 16.6651 19.7176 16.6681 19.7139 16.6713C19.6883 16.6932 19.6515 16.7237 19.6057 16.7585C19.5145 16.8278 19.3871 16.9145 19.2437 16.9827L19.1684 17.0186L19.253 16.6608C19.2149 16.6817 19.1656 16.7073 19.11 16.7329C18.9825 16.7916 18.8158 16.8533 18.6732 16.8533H18.5889L18.6422 16.788C18.9269 16.4392 19.15 16.0444 19.3019 15.6207C19.3876 15.3403 19.4318 15.0824 19.4399 14.875C19.444 14.7712 19.439 14.6808 19.4261 14.6071C19.4131 14.5327 19.3925 14.4781 19.3674 14.4433C19.302 14.3484 19.2248 14.2649 19.1421 14.2262C19.1015 14.2072 19.0602 14.1991 19.0179 14.2046C18.9754 14.2101 18.9289 14.2297 18.8785 14.2709C18.8605 14.2851 18.8318 14.2969 18.8037 14.2805C18.7816 14.2677 18.7718 14.2437 18.7669 14.2266C18.756 14.189 18.7549 14.1349 18.7601 14.0803C18.7653 14.0247 18.7776 13.9636 18.7969 13.9104C18.8154 13.8592 18.8431 13.8077 18.884 13.7803C18.9622 13.7257 19.0821 13.7116 19.2125 13.7175C19.3307 13.7228 19.4647 13.745 19.5994 13.7759C19.6009 13.7673 19.6033 13.7583 19.607 13.7491C19.6164 13.7258 19.6339 13.7031 19.6631 13.6873ZM19.292 16.546L19.3745 16.4944L19.2853 16.8718C19.3912 16.8144 19.4854 16.7493 19.5574 16.6947C19.6016 16.6611 19.6373 16.6316 19.6617 16.6106C19.674 16.6001 19.6834 16.5917 19.6898 16.586C19.693 16.5832 19.6953 16.581 19.6969 16.5795L19.6987 16.5779M19.6987 16.5779L19.7281 16.5502L19.99 16.8252C20.0327 16.7726 20.0859 16.7175 20.131 16.6731C20.1593 16.6453 20.1848 16.6212 20.2032 16.6041C20.2125 16.5956 20.2199 16.5888 20.2251 16.5841L20.2311 16.5786L20.2327 16.5772C20.2327 16.5772 20.2333 16.5767 20.2599 16.6066L20.2327 16.5772L20.2623 16.5509L20.2889 16.5791L20.2909 16.5811C20.2924 16.5826 20.2947 16.5849 20.2978 16.5879C20.304 16.5939 20.3133 16.6026 20.3257 16.6133C20.3505 16.6347 20.3871 16.6637 20.434 16.6938C20.5193 16.7485 20.6376 16.8059 20.7799 16.8279V16.8205L20.787 16.8215C20.783 16.8057 20.7769 16.7864 20.7696 16.7657C20.7596 16.7371 20.748 16.708 20.7389 16.686C20.7343 16.675 20.7304 16.6658 20.7276 16.6594C20.7263 16.6562 20.7252 16.6537 20.7244 16.652L20.7236 16.6501L20.7882 16.605C20.8115 16.6283 20.8543 16.6505 20.911 16.67C20.9666 16.6891 21.0307 16.7041 21.0922 16.7156C21.1259 16.7219 21.1585 16.7271 21.1881 16.7313C21.1533 16.6913 21.1204 16.6421 21.0896 16.587C21.0258 16.4725 20.9675 16.3252 20.919 16.1604C20.8221 15.831 20.763 15.4266 20.7799 15.0649C20.8064 14.362 20.6796 14.0959 20.5911 14.0011C20.5625 13.9727 20.5154 13.9427 20.4536 13.9134C20.3921 13.8842 20.3186 13.857 20.24 13.8332C20.0825 13.7857 19.9075 13.7531 19.7715 13.7466C19.7346 13.7451 19.7132 13.7512 19.701 13.7578C19.6896 13.7639 19.6842 13.7716 19.6811 13.7791C19.6777 13.7875 19.6769 13.7969 19.6772 13.8052C19.6774 13.8091 19.6779 13.8124 19.6782 13.8145C19.6784 13.8155 19.6785 13.8163 19.6786 13.8166L19.6957 13.8814L19.6304 13.8655C19.4817 13.8291 19.3345 13.8031 19.2089 13.7974C19.0812 13.7916 18.9846 13.8075 18.9295 13.846C18.9106 13.8587 18.8893 13.8901 18.8721 13.9376C18.8555 13.9834 18.8445 14.0377 18.8397 14.0879C18.8353 14.1346 18.8367 14.1738 18.8421 14.1978C18.8375 14.2013 18.8329 14.2049 18.8282 14.2087C18.8311 14.2079 18.8372 14.2075 18.8439 14.2113C18.8465 14.2129 18.8476 14.2143 18.8476 14.2142C18.8476 14.2142 18.8459 14.2118 18.8437 14.2044C18.8431 14.2023 18.8426 14.2001 18.8421 14.1978C18.8971 14.156 18.9524 14.1325 19.0075 14.1253C19.0675 14.1175 19.1241 14.1294 19.176 14.1537C19.2782 14.2016 19.3648 14.2986 19.4326 14.3969C19.4674 14.4454 19.4909 14.5132 19.5049 14.5932C19.5191 14.6741 19.5241 14.7704 19.5199 14.8782C19.5114 15.0939 19.4656 15.359 19.3781 15.645L19.3775 15.6468C19.2331 16.05 19.0255 16.4275 18.7627 16.7652C18.8663 16.7478 18.9795 16.7049 19.0765 16.6603C19.1387 16.6316 19.1927 16.603 19.2312 16.5815C19.2504 16.5707 19.2658 16.5618 19.2762 16.5556C19.2814 16.5525 19.2854 16.55 19.2881 16.5484L19.2911 16.5466L19.292 16.546" fill="#C09300"/>
<path fill-rule="evenodd" clip-rule="evenodd" d="M19.9366 15.1374L19.9799 15.1399C20.0231 15.1425 20.0231 15.1425 20.0231 15.1426L20.0229 15.1458L20.0223 15.1553C20.0218 15.1636 20.021 15.1759 20.0199 15.1915C20.0177 15.2228 20.0143 15.2679 20.0097 15.323C20.0005 15.4333 19.9863 15.5841 19.9662 15.7461C19.9461 15.908 19.9201 16.0816 19.8873 16.2373C19.8547 16.392 19.8145 16.5328 19.7649 16.6268L19.6882 16.5864C19.7319 16.5037 19.7701 16.3729 19.8025 16.2194C19.8346 16.067 19.8603 15.8961 19.8802 15.7354C19.9001 15.5749 19.9142 15.4253 19.9234 15.3158C19.9279 15.2611 19.9312 15.2164 19.9334 15.1854C19.9345 15.1699 19.9353 15.1579 19.9358 15.1497L19.9364 15.1405L19.9366 15.1374ZM19.6969 15.1675L19.7399 15.1733C19.7828 15.179 19.7828 15.179 19.7828 15.1791L19.7824 15.1823L19.7811 15.1917C19.7799 15.1999 19.7782 15.2119 19.7759 15.2273C19.7713 15.258 19.7644 15.3022 19.7553 15.3561C19.7371 15.464 19.7099 15.6111 19.6738 15.768C19.6377 15.9247 19.5927 16.092 19.5387 16.24C19.4852 16.3867 19.4212 16.5193 19.3452 16.6025L19.2812 16.5441C19.3452 16.4739 19.4046 16.3548 19.4573 16.2103C19.5096 16.067 19.5537 15.9035 19.5893 15.7486C19.6249 15.5938 19.6518 15.4484 19.6699 15.3417C19.6789 15.2883 19.6857 15.2447 19.6902 15.2144C19.6924 15.1993 19.6941 15.1875 19.6953 15.1796L19.6965 15.1705L19.6969 15.1675ZM20.1432 15.1866C20.1432 15.1866 20.1432 15.1866 20.1865 15.1866C20.2299 15.1866 20.2299 15.1866 20.2299 15.1866L20.2299 15.2002C20.2299 15.2091 20.2299 15.2222 20.23 15.239C20.2301 15.2725 20.2304 15.3206 20.2309 15.379C20.232 15.4959 20.234 15.6537 20.2382 15.818C20.2424 15.9824 20.2486 16.1527 20.2579 16.2947C20.2626 16.3657 20.268 16.4292 20.2742 16.4811C20.2806 16.5338 20.2875 16.5718 20.2945 16.5933L20.212 16.6199C20.2023 16.5898 20.1946 16.5446 20.1882 16.4914C20.1817 16.4374 20.1761 16.3722 20.1714 16.3004C20.162 16.1567 20.1557 15.985 20.1516 15.8202C20.1474 15.6553 20.1453 15.4969 20.1443 15.3798C20.1437 15.3212 20.1435 15.273 20.1433 15.2393C20.1433 15.2225 20.1432 15.2093 20.1432 15.2004L20.1432 15.1866ZM20.4099 15.2489C20.4099 15.2489 20.4099 15.2489 20.4532 15.2466L20.4965 15.2443L20.4966 15.2471L20.4971 15.2556C20.4976 15.263 20.4983 15.274 20.4992 15.2882C20.5012 15.3166 20.5042 15.3575 20.5087 15.4079C20.5176 15.5087 20.5321 15.6467 20.5544 15.796C20.5768 15.9455 20.6069 16.1055 20.6469 16.2504C20.6871 16.3961 20.7364 16.523 20.7955 16.6086L20.7242 16.6579C20.6567 16.5602 20.6043 16.4221 20.5633 16.2734C20.5221 16.124 20.4913 15.9602 20.4687 15.8088C20.446 15.6573 20.4313 15.5175 20.4223 15.4155C20.4178 15.3645 20.4147 15.323 20.4128 15.2941C20.4118 15.2797 20.4111 15.2684 20.4106 15.2607L20.4101 15.252L20.4099 15.2489Z" fill="#C09300"/>
<path d="M19.4666 14.6399C19.4606 14.5626 19.4378 14.4876 19.3999 14.4199C19.2666 14.2199 19.0732 14.0599 18.8532 14.2399C18.8532 14.2399 18.9266 14.0066 19.0932 13.9999C19.2132 13.9933 19.4999 14.0933 19.7532 14.5199C19.7532 14.5199 19.5666 14.4799 19.5199 14.5199C19.4399 14.5866 19.4732 14.6399 19.4732 14.6399H19.4666Z" fill="#C09300"/>
<path fill-rule="evenodd" clip-rule="evenodd" d="M19.7331 14.5059C19.4838 14.0974 19.207 14.0036 19.0938 14.0099C19.0154 14.0131 18.9577 14.0696 18.9191 14.128C18.8999 14.1569 18.8858 14.1857 18.8765 14.2073C18.8759 14.2086 18.8754 14.2098 18.8749 14.2109C18.9214 14.1785 18.9669 14.1603 19.0113 14.1541C19.0646 14.1466 19.1155 14.1564 19.1632 14.1784C19.2583 14.222 19.3412 14.3139 19.4082 14.4144C19.4352 14.4626 19.4551 14.5151 19.4665 14.5689C19.4749 14.5515 19.4895 14.5323 19.5134 14.5123C19.5277 14.5001 19.551 14.495 19.5753 14.4931C19.6001 14.4912 19.6285 14.4925 19.655 14.495C19.6816 14.4975 19.7066 14.5013 19.725 14.5045C19.7279 14.505 19.7306 14.5054 19.7331 14.5059ZM19.4817 14.6347C19.4816 14.6344 19.4813 14.6338 19.481 14.6332C19.4804 14.632 19.4796 14.6301 19.4788 14.6276C19.4772 14.6226 19.4758 14.6151 19.4765 14.6057C19.4779 14.5873 19.4879 14.5596 19.5263 14.5276C19.5353 14.5199 19.553 14.5149 19.5768 14.513C19.6 14.5112 19.6271 14.5124 19.6531 14.5149C19.679 14.5174 19.7036 14.5211 19.7216 14.5242C19.7307 14.5257 19.7381 14.5271 19.7432 14.5281C19.7458 14.5286 19.7477 14.529 19.7491 14.5293L19.7506 14.5296L19.7735 14.5345L19.7618 14.5148C19.5074 14.0864 19.2178 13.9831 19.0927 13.99C19.0045 13.9935 18.9421 14.057 18.9024 14.1169C18.8824 14.1471 18.8677 14.1771 18.8581 14.1994C18.8533 14.2106 18.8497 14.2199 18.8473 14.2265C18.8461 14.2298 18.8452 14.2323 18.8446 14.2341L18.8439 14.2362C18.8439 14.2362 18.8437 14.2369 18.8532 14.2399L18.8439 14.2362L18.8336 14.2689L18.8596 14.2477C18.9134 14.2036 18.9651 14.1808 19.0141 14.1739C19.0631 14.167 19.1101 14.176 19.1549 14.1965C19.2447 14.2378 19.3251 14.3258 19.3914 14.4252C19.4285 14.4914 19.4507 14.565 19.4566 14.6407L19.4573 14.6499H19.4913L19.4817 14.6347Z" fill="#C09300"/>
<path d="M18.8266 13.9533C18.8466 13.8866 18.8732 13.8333 18.9132 13.8133C19.0466 13.7199 19.3399 13.7466 19.6399 13.8266C19.6399 13.8266 19.6132 13.6999 19.7732 13.7066C20.0532 13.7199 20.4799 13.8399 20.6132 13.9733C20.6559 14.0202 20.6898 14.0744 20.7132 14.1333C20.6465 14.0399 20.4599 14.0466 20.4132 14.0533C20.3465 14.0599 20.2999 14.0533 20.2065 14.0799C20.1599 14.0933 20.0932 14.1066 20.0532 14.1333C20.0265 14.1599 19.9999 14.2399 19.9599 14.2399C19.8932 14.2399 19.8932 14.2266 19.8732 14.2066C19.8532 14.1733 19.8399 14.1333 19.8132 14.1399C19.7466 14.1466 19.6266 14.0933 19.4799 13.9733C19.3266 13.8533 19.2666 13.8266 19.0799 13.8399C18.8799 13.8533 18.8266 13.9666 18.8266 13.9666V13.9533Z" fill="#C09300"/>
<path fill-rule="evenodd" clip-rule="evenodd" d="M19.6497 13.8246L19.6495 13.8235C19.6494 13.8227 19.6492 13.8215 19.649 13.82C19.6486 13.8169 19.6482 13.8123 19.6482 13.8069C19.6482 13.796 19.6498 13.7818 19.6557 13.7681C19.6616 13.7545 19.6718 13.7411 19.6897 13.7313C19.7077 13.7215 19.734 13.715 19.7728 13.7166C19.9118 13.7232 20.0876 13.7564 20.2453 13.8045C20.3241 13.8286 20.3982 13.8563 20.4608 13.8863C20.5234 13.9162 20.5738 13.9481 20.606 13.9802C20.6362 14.0134 20.6619 14.0503 20.6825 14.09C20.6465 14.0654 20.6005 14.0524 20.5572 14.0459C20.4955 14.0366 20.4363 14.0399 20.412 14.0433C20.3939 14.0452 20.377 14.046 20.36 14.0468C20.3162 14.0488 20.2717 14.0509 20.2038 14.0703C20.1947 14.0729 20.1844 14.0756 20.1736 14.0785C20.1577 14.0826 20.1407 14.0871 20.1245 14.092C20.0968 14.1004 20.0689 14.1108 20.0477 14.125L20.0461 14.1262C20.0385 14.1338 20.0313 14.1448 20.0245 14.156C20.0218 14.1604 20.0192 14.1648 20.0165 14.1692C20.0122 14.1766 20.0078 14.184 20.0031 14.1912C19.9958 14.2027 19.9884 14.2127 19.9808 14.2197C19.9732 14.2267 19.9664 14.2299 19.9599 14.2299C19.9268 14.2299 19.9123 14.2266 19.9038 14.222C19.8997 14.2197 19.8965 14.217 19.8931 14.2134C19.892 14.2122 19.8907 14.2108 19.8892 14.2091C19.8868 14.2064 19.884 14.2033 19.8812 14.2004C19.8773 14.194 19.8737 14.1872 19.8701 14.1805C19.8694 14.1791 19.8687 14.1778 19.868 14.1765C19.8635 14.1681 19.8589 14.1598 19.854 14.1526C19.8491 14.1455 19.8434 14.1388 19.8363 14.1344C19.8291 14.1299 19.8208 14.128 19.8116 14.1301C19.781 14.1329 19.7366 14.1221 19.6809 14.0951C19.6251 14.068 19.5591 14.0252 19.4862 13.9655C19.4095 13.9055 19.3549 13.8678 19.2957 13.8472C19.2362 13.8265 19.173 13.8233 19.0792 13.83C18.9773 13.8368 18.912 13.8691 18.8721 13.9004C18.8623 13.908 18.8541 13.9156 18.8472 13.9226C18.8544 13.9033 18.8622 13.8858 18.871 13.8708C18.8846 13.8476 18.9001 13.831 18.9177 13.8222L18.919 13.8215C18.9828 13.7768 19.0867 13.76 19.2137 13.7649C19.3402 13.7699 19.4877 13.7964 19.6373 13.8363L19.653 13.8405L19.6497 13.8246ZM18.8356 13.9709L18.8166 13.9666V13.9518L18.817 13.9504C18.8271 13.9167 18.839 13.8859 18.8538 13.8607C18.8683 13.8359 18.886 13.8159 18.9081 13.8047C18.9776 13.7564 19.0868 13.7399 19.2144 13.745C19.3389 13.7498 19.4827 13.7752 19.6284 13.8132C19.6283 13.8113 19.6282 13.8092 19.6282 13.8069C19.6282 13.7943 19.63 13.7772 19.6374 13.7601C19.6448 13.7429 19.6579 13.7259 19.6801 13.7138C19.7021 13.7017 19.7324 13.6949 19.7736 13.6966C19.9146 13.7033 20.0922 13.7369 20.2511 13.7854C20.3306 13.8097 20.4057 13.8377 20.4694 13.8682C20.5329 13.8986 20.5858 13.9317 20.6203 13.9662C20.6638 14.014 20.6986 14.0695 20.7225 14.1296L20.7051 14.1391C20.6742 14.0959 20.6145 14.0747 20.5542 14.0657C20.4945 14.0567 20.4371 14.06 20.4146 14.0632C20.3949 14.0652 20.3767 14.066 20.3592 14.0669C20.3162 14.0689 20.2749 14.0708 20.2093 14.0896C20.1992 14.0924 20.1887 14.0952 20.1778 14.0981C20.1625 14.1021 20.1465 14.1063 20.1303 14.1112C20.1034 14.1193 20.0783 14.1288 20.0596 14.141C20.0541 14.1468 20.0482 14.1556 20.0415 14.1664C20.0391 14.1703 20.0366 14.1745 20.0341 14.1789C20.0295 14.1865 20.0248 14.1945 20.02 14.202C20.0123 14.2139 20.0039 14.2256 19.9944 14.2344C19.9849 14.2432 19.9734 14.2499 19.9599 14.2499C19.9263 14.2499 19.9075 14.2467 19.8943 14.2396C19.8876 14.236 19.8828 14.2316 19.8786 14.2271C19.8766 14.225 19.875 14.2232 19.8734 14.2215C19.8712 14.219 19.8691 14.2167 19.8661 14.2137L19.8653 14.2128L19.8646 14.2118C19.8603 14.2045 19.8562 14.1969 19.8524 14.1898C19.8517 14.1885 19.851 14.1872 19.8503 14.1859C19.8459 14.1776 19.8417 14.1701 19.8375 14.1639C19.8332 14.1577 19.8293 14.1536 19.8257 14.1513C19.8225 14.1493 19.8194 14.1487 19.8156 14.1496L19.8142 14.1499C19.7781 14.1535 19.7294 14.1409 19.6722 14.1131C19.6147 14.0852 19.5474 14.0414 19.4736 13.9811C19.397 13.9211 19.3449 13.8854 19.2891 13.8661C19.2335 13.8467 19.1735 13.8433 19.0806 13.8499C18.9825 13.8565 18.9211 13.8874 18.8844 13.9162C18.866 13.9306 18.8537 13.9445 18.846 13.9547C18.8422 13.9598 18.8395 13.964 18.8378 13.9668C18.837 13.9682 18.8359 13.9702 18.8356 13.9709C18.8356 13.9709 18.8356 13.9709 18.8356 13.9709Z" fill="#C09300"/>
<path d="M19.9199 14.1266C19.9641 14.1266 19.9999 14.0908 19.9999 14.0466C19.9999 14.0024 19.9641 13.9666 19.9199 13.9666C19.8757 13.9666 19.8399 14.0024 19.8399 14.0466C19.8399 14.0908 19.8757 14.1266 19.9199 14.1266Z" fill="white"/>
</g>
<defs>
<clipPath id="clip0_17522_60590">
<path d="M0 4C0 1.79086 1.79086 0 4 0H36C38.2091 0 40 1.79086 40 4V36C40 38.2091 38.2091 40 36 40H4C1.79086 40 0 38.2091 0 36V4Z" fill="white"/>
</clipPath>
</defs>
</svg>
