<svg width="40" height="40" viewBox="0 0 40 40" fill="none" xmlns="http://www.w3.org/2000/svg">
<g clip-path="url(#clip0_17544_62220)">
<path d="M0 0H40V40H0V0Z" fill="#E32118"/>
<path d="M0 0H40V26.6641H0V0Z" fill="white"/>
<path d="M0 0H40V13.3359H0V0Z" fill="#3E9A00"/>
<path d="M0 0V40L12.5 20L0 0Z" fill="#0073CE"/>
<path d="M16.7969 15.9766H23.1797V22.6641C23.1797 24.9141 20.25 23.1797 20 24.3828C19.5625 23.1484 16.8125 24.9297 16.8125 22.5312L16.7969 15.9766Z" fill="white"/>
<path fill-rule="evenodd" clip-rule="evenodd" d="M16.7577 15.9375H23.2188V22.6641C23.2188 23.2359 23.0318 23.5642 22.7386 23.7459C22.4497 23.9248 22.0655 23.9561 21.6835 23.9551C21.5657 23.9548 21.4464 23.9514 21.3295 23.948C21.2568 23.9459 21.1851 23.9439 21.1152 23.9426C20.9317 23.9393 20.7593 23.9414 20.6075 23.9618C20.4555 23.9823 20.3275 24.0208 20.2307 24.0879C20.1352 24.1541 20.0675 24.2498 20.0382 24.3908L20.0098 24.5275L19.9632 24.3959C19.8609 24.1072 19.6248 23.9919 19.312 23.9487C19.1554 23.9271 18.9817 23.924 18.7996 23.926C18.7368 23.9266 18.6727 23.9279 18.6081 23.9292C18.4867 23.9316 18.3631 23.9341 18.2417 23.9326C17.8701 23.9282 17.5016 23.8878 17.2263 23.6906C16.9478 23.4911 16.7734 23.1383 16.7734 22.5312L16.7577 15.9375ZM16.836 16.0156L16.8516 22.5312C16.8516 23.1234 17.0209 23.4474 17.2718 23.6271C17.5257 23.809 17.8721 23.8501 18.2426 23.8545C18.363 23.8559 18.4841 23.8535 18.6047 23.8511C18.6696 23.8498 18.7344 23.8485 18.7988 23.8479C18.9816 23.8459 19.1601 23.8489 19.3227 23.8713C19.6128 23.9114 19.86 24.0148 19.993 24.2687C20.0342 24.1632 20.1003 24.0832 20.1862 24.0237C20.2974 23.9466 20.4393 23.9056 20.5971 23.8844C20.7551 23.8631 20.9324 23.8611 21.1166 23.8645C21.1883 23.8658 21.2608 23.8679 21.3337 23.87C21.4495 23.8733 21.5666 23.8767 21.6837 23.877C22.0654 23.8779 22.4292 23.8457 22.6974 23.6794C22.9614 23.5159 23.1406 23.2172 23.1406 22.6641V16.0156H16.836Z" fill="black"/>
<path d="M20.4453 23.3125C20.4453 23.3125 20.3672 23.3984 20.2109 23.3359C20.0625 23.2656 20.0469 19.0469 20.0469 19.0469C20.3828 18.6797 20.6484 18.5703 20.6484 18.5703L20.8438 18.7266C20.0938 19.1172 20.1641 19.6641 20.2266 20.6172C20.25 20.9688 20.25 21.4141 20.3281 21.8516C20.4453 22.3984 20.6797 22.8672 20.6953 23.2188C20.7109 23.4375 20.4453 23.3203 20.4453 23.3203V23.3125Z" fill="#73452B"/>
<path fill-rule="evenodd" clip-rule="evenodd" d="M20.6497 18.5613L20.858 18.728L20.8474 18.7335C20.4741 18.9279 20.3059 19.1605 20.2381 19.4626C20.1757 19.7409 20.1983 20.0782 20.2266 20.5004C20.2292 20.5385 20.2318 20.5772 20.2344 20.6167C20.2405 20.7088 20.245 20.8072 20.2498 20.9102C20.2632 21.2008 20.2782 21.5274 20.3358 21.8501C20.3876 22.0916 20.4622 22.3179 20.5309 22.5259C20.5398 22.5529 20.5486 22.5796 20.5572 22.606C20.6323 22.8352 20.6952 23.0413 20.7031 23.2183C20.7071 23.2744 20.6931 23.3109 20.668 23.3328C20.6431 23.3545 20.609 23.3604 20.5759 23.3594C20.5427 23.3584 20.5093 23.3503 20.4843 23.3427C20.4718 23.3388 20.4613 23.335 20.4539 23.3322C20.4502 23.3308 20.4473 23.3296 20.4453 23.3288L20.443 23.3278C20.443 23.3278 20.4422 23.3275 20.4432 23.3251L20.443 23.3278L20.441 23.3269C20.4393 23.3283 20.4374 23.3297 20.4353 23.3313C20.425 23.3387 20.4097 23.3479 20.3893 23.355C20.3484 23.3693 20.2879 23.3751 20.208 23.3432C20.2041 23.3413 20.2004 23.3379 20.1978 23.3342C20.1951 23.3305 20.1926 23.3259 20.1902 23.3206C20.1856 23.3099 20.1812 23.2956 20.177 23.278C20.1687 23.2428 20.1608 23.1935 20.1535 23.1324C20.1389 23.01 20.1261 22.8393 20.1149 22.6365C20.0925 22.231 20.0767 21.697 20.0654 21.1652C20.0542 20.6334 20.0476 20.1039 20.0438 19.7072C20.0419 19.5089 20.0407 19.3438 20.04 19.2283C20.0397 19.1706 20.0394 19.1252 20.0393 19.0943L20.0391 19.047C20.0391 19.0469 20.0391 19.0469 20.0469 19.0469L20.0391 19.047L20.0391 19.0439L20.0411 19.0416C20.2095 18.8575 20.3604 18.738 20.4693 18.6644C20.5237 18.6276 20.5676 18.6024 20.598 18.5862C20.6132 18.5782 20.625 18.5724 20.6331 18.5687C20.6371 18.5668 20.6401 18.5654 20.6422 18.5645L20.6446 18.5634C20.6446 18.5634 20.6455 18.5631 20.6484 18.5703L20.6446 18.5634L20.6497 18.5613ZM20.6472 18.5794C20.6453 18.5802 20.6428 18.5813 20.6397 18.5828C20.6319 18.5865 20.6203 18.5921 20.6053 18.6C20.5754 18.6159 20.532 18.6409 20.478 18.6774C20.3705 18.75 20.2214 18.8681 20.0547 19.0499L20.0549 19.0942C20.055 19.1251 20.0553 19.1705 20.0556 19.2282C20.0564 19.3437 20.0576 19.5088 20.0594 19.7071C20.0632 20.1037 20.0698 20.6332 20.0811 21.1649C20.0923 21.6966 20.1082 22.2304 20.1305 22.6357C20.1416 22.8383 20.1544 23.0087 20.169 23.1305C20.1763 23.1915 20.1841 23.2401 20.1922 23.2744C20.1963 23.2916 20.2005 23.3049 20.2046 23.3143C20.2066 23.319 20.2086 23.3226 20.2104 23.325C20.2121 23.3274 20.2134 23.3284 20.2141 23.3288C20.2904 23.3592 20.3469 23.3533 20.3841 23.3403C20.4028 23.3337 20.4168 23.3253 20.4261 23.3186C20.4307 23.3153 20.4341 23.3123 20.4364 23.3103C20.4375 23.3093 20.4383 23.3085 20.4389 23.3079L20.4531 23.2923V23.3151C20.4548 23.3158 20.457 23.3167 20.4595 23.3176C20.4666 23.3204 20.4767 23.324 20.4889 23.3277C20.5132 23.3352 20.5452 23.3428 20.5764 23.3438C20.6078 23.3447 20.6372 23.3389 20.6577 23.321C20.6779 23.3034 20.6913 23.2725 20.6875 23.2193C20.6798 23.0448 20.6176 22.8405 20.5424 22.6108C20.5337 22.5845 20.5249 22.5578 20.516 22.5308C20.4474 22.3228 20.3724 22.0957 20.3205 21.8532C20.2627 21.5294 20.2475 21.2009 20.2341 20.91C20.2294 20.8073 20.2249 20.7093 20.2188 20.6177C20.2162 20.578 20.2135 20.539 20.211 20.5007C20.1827 20.0795 20.1599 19.7398 20.2228 19.4592C20.2911 19.1549 20.4601 18.9203 20.8295 18.7252L20.6472 18.5794Z" fill="black"/>
<path d="M19.9297 18.4688H20.2344C19.9766 20.8906 20.1953 22.3203 20.1953 23.0156C20.1953 23.25 20.3281 23.3281 20.3125 23.3281C20.0156 23.6641 19.8594 23.3125 19.8594 23.3125L19.9297 18.4688Z" fill="#73452B"/>
<path fill-rule="evenodd" clip-rule="evenodd" d="M19.922 18.4609H20.2431L20.2421 18.4696C20.0474 20.2985 20.1246 21.5607 20.174 22.3691C20.19 22.631 20.2031 22.8452 20.2031 23.0156C20.2031 23.1312 20.2358 23.2079 20.2663 23.2556C20.2816 23.2794 20.2964 23.2961 20.3065 23.3069C20.308 23.3085 20.3094 23.31 20.3107 23.3114C20.3138 23.3147 20.3164 23.3174 20.318 23.3193C20.3186 23.3201 20.3193 23.3209 20.3198 23.3218C20.3203 23.3225 20.3211 23.324 20.3214 23.3258C20.3216 23.3268 20.3217 23.3283 20.3212 23.3299C20.3207 23.3317 20.3196 23.3331 20.3182 23.3341C20.3178 23.3345 20.3173 23.3348 20.3169 23.335C20.2427 23.4185 20.1764 23.4603 20.1184 23.475C20.0597 23.4899 20.0102 23.4768 19.9706 23.453C19.9312 23.4292 19.9016 23.3948 19.882 23.3666C19.8722 23.3525 19.8648 23.3398 19.8598 23.3307C19.8573 23.3261 19.8554 23.3224 19.8542 23.3198C19.8536 23.3185 19.8531 23.3175 19.8527 23.3168L19.8523 23.3158C19.8523 23.3158 19.8522 23.3157 19.8594 23.3125L19.8523 23.3158L19.8515 23.3141L19.922 18.4609ZM19.8672 23.3108C19.8675 23.3114 19.8678 23.3121 19.8682 23.3129C19.8694 23.3153 19.8712 23.3189 19.8735 23.3232C19.8783 23.332 19.8854 23.3441 19.8948 23.3577C19.9138 23.385 19.9419 23.4174 19.9786 23.4396C20.0152 23.4616 20.0605 23.4735 20.1145 23.4598C20.1681 23.4463 20.2312 23.4074 20.3035 23.3265C20.3025 23.3254 20.3013 23.3242 20.2999 23.3228C20.2985 23.3213 20.2969 23.3196 20.2951 23.3176C20.2846 23.3064 20.2692 23.2889 20.2532 23.264C20.2212 23.214 20.1875 23.1344 20.1875 23.0156C20.1875 22.8461 20.1744 22.6325 20.1585 22.3712C20.1091 21.5643 20.032 20.3024 20.2257 18.4766H19.9374L19.8672 23.3108ZM20.3066 23.3302C20.3067 23.3303 20.3066 23.3302 20.3066 23.3302Z" fill="black"/>
<path d="M19.4609 23.3125C19.1797 23.4531 19.1484 23.1875 19.1641 23.1562C19.7812 21.9062 20.0469 19.1484 19.4766 18.8516L19.5156 18.5859C19.7266 18.6484 19.9297 18.9297 19.9297 18.9297C20.0078 22.0156 19.9297 23.2812 19.8828 23.3359C19.5781 23.6484 19.4609 23.2812 19.4453 23.25" fill="#A36629"/>
<path fill-rule="evenodd" clip-rule="evenodd" d="M19.5092 18.5759L19.5178 18.5784C19.6253 18.6103 19.73 18.6975 19.8073 18.7758C19.8461 18.815 19.8783 18.8523 19.9007 18.8798C19.9119 18.8936 19.9207 18.9049 19.9268 18.9127C19.9298 18.9167 19.9321 18.9198 19.9336 18.9219L19.9354 18.9243L19.9374 18.9271L19.9375 18.9295C19.9766 20.4725 19.9766 21.5606 19.9609 22.2697C19.9531 22.6243 19.9414 22.8842 19.9287 23.0589C19.9223 23.1463 19.9157 23.2125 19.9092 23.2586C19.906 23.2816 19.9027 23.2998 19.8995 23.3132C19.8979 23.3199 19.8963 23.3255 19.8946 23.33C19.893 23.3343 19.8911 23.3382 19.8887 23.341C19.812 23.4198 19.7458 23.457 19.6894 23.4664C19.6327 23.4759 19.5868 23.4574 19.5507 23.4279C19.5149 23.3987 19.4887 23.3586 19.4705 23.3242C19.4614 23.307 19.4543 23.2911 19.4489 23.2785C19.4465 23.273 19.4446 23.2683 19.443 23.2644C19.4409 23.2592 19.4394 23.2556 19.4383 23.2535L19.4523 23.2465C19.4536 23.249 19.4555 23.2536 19.4579 23.2595C19.4595 23.2633 19.4613 23.2677 19.4633 23.2724C19.4685 23.2847 19.4755 23.3002 19.4843 23.3169C19.5021 23.3504 19.5271 23.3885 19.5606 23.4158C19.5939 23.443 19.6354 23.4596 19.6868 23.451C19.7386 23.4424 19.8015 23.4081 19.877 23.3307C19.8776 23.33 19.8786 23.3281 19.88 23.3245C19.8813 23.3208 19.8828 23.3159 19.8843 23.3095C19.8874 23.2968 19.8905 23.2792 19.8938 23.2564C19.9002 23.2108 19.9068 23.145 19.9131 23.0578C19.9258 22.8834 19.9375 22.6238 19.9453 22.2694C19.9609 21.5609 19.9609 20.4739 19.9219 18.9323L19.9211 18.9312C19.9196 18.9291 19.9173 18.9261 19.9143 18.9222C19.9084 18.9145 19.8997 18.9033 19.8886 18.8897C19.8664 18.8625 19.8346 18.8256 19.7962 18.7867C19.7214 18.711 19.6225 18.6288 19.522 18.5961L19.4851 18.8473C19.5564 18.8864 19.614 18.9628 19.6594 19.0674C19.7058 19.1745 19.74 19.3122 19.7629 19.4725C19.8086 19.7931 19.8096 20.2054 19.7734 20.6471C19.7011 21.5304 19.4803 22.5335 19.1711 23.1597C19.17 23.1619 19.1687 23.1679 19.1686 23.1778C19.1685 23.1872 19.1695 23.1991 19.172 23.2122C19.177 23.2384 19.1878 23.2689 19.2073 23.294C19.2268 23.319 19.2548 23.3388 19.2947 23.3441C19.3349 23.3494 19.388 23.3402 19.4574 23.3055L19.4644 23.3195C19.3933 23.3551 19.337 23.3654 19.2927 23.3596C19.2482 23.3536 19.2166 23.3314 19.195 23.3036C19.1735 23.276 19.1619 23.243 19.1566 23.2151C19.154 23.2011 19.1529 23.1882 19.153 23.1776C19.1531 23.1675 19.1543 23.1584 19.1571 23.1528C19.465 22.529 19.6856 21.5281 19.7578 20.6458C19.7939 20.2048 19.7929 19.7938 19.7474 19.4747C19.7246 19.3152 19.6908 19.179 19.645 19.0736C19.5992 18.9681 19.542 18.8944 19.473 18.8585L19.468 18.8559L19.5092 18.5759Z" fill="black"/>
<path fill-rule="evenodd" clip-rule="evenodd" d="M19.504 22.996C19.4669 23.109 19.4476 23.1999 19.4608 23.264L19.4455 23.2672C19.4313 23.1985 19.4521 23.1039 19.4892 22.9911C19.5137 22.9165 19.5457 22.833 19.5803 22.7428C19.5981 22.6962 19.6167 22.6478 19.6353 22.5979C19.7446 22.304 19.8554 21.9557 19.8359 21.602L19.8515 21.6011C19.8712 21.9583 19.7593 22.3093 19.6499 22.6033C19.6312 22.6536 19.6126 22.7022 19.5947 22.7489C19.5602 22.8389 19.5284 22.9217 19.504 22.996ZM20.4375 23.3195C20.4764 22.9695 20.4065 22.6036 20.2583 22.1901L20.273 22.1849C20.4216 22.5995 20.4923 22.968 20.4531 23.3212L20.4375 23.3195Z" fill="black"/>
<path d="M20.9141 17.3359C21.0156 17.2188 21.0156 17.2188 21.1953 17.2188C21.2266 16.9688 21.6484 16.9688 21.6797 17.2812C22.0156 17.2188 22.0781 17.4141 21.9453 17.6172C22.2578 17.5391 22.5469 17.6172 22.4609 17.9844C23.0312 18.1406 22.8125 18.5312 22.5625 18.6094C22.5312 18.8672 22.2969 18.9531 21.9766 18.8438C21.5859 19.1328 21.3516 19.0312 21.1641 18.75C20.7109 18.8125 20.6797 18.7188 20.4844 18.4688C20.1328 18.6172 20.0625 18.6172 19.7656 18.4297C19.75 18.6641 19.6641 18.6016 19.5156 18.5859C19.5312 18.8828 19.4141 19.0156 19.1484 18.9141C19.3438 19.3359 18.8359 19.5156 18.5781 19.1641C18.3437 19.1797 18.3281 19.1172 18.2109 19.0312C18.1172 19.3672 17.7422 19.3203 17.6797 19.1328C17.2109 19.0625 17.2656 18.8203 17.6484 18.7969C17.6797 18.5312 17.9141 18.5859 18.0625 18.6172C18.0781 18.4531 18.1797 18.4844 18.2656 18.5156C18.2109 18.3984 18.25 18.3359 18.3984 18.2969C18.1797 18.0156 18.3203 17.9141 18.5312 17.8125C18.4141 17.5469 18.6094 17.5625 18.7656 17.5469C18.75 17.2656 18.8281 17.2188 19.1328 17.1797C19.0937 17.0859 19.1484 17 19.3125 17C19.2109 16.7188 19.3438 16.6484 19.6484 16.7031C19.6953 16.2891 20.5859 16.4844 20.5078 17.0469C20.7656 17.0859 20.8438 17.1328 20.9141 17.3359Z" fill="#009A3B"/>
<path fill-rule="evenodd" clip-rule="evenodd" d="M19.8161 16.5104C19.7295 16.5407 19.6675 16.6039 19.6562 16.704L19.6553 16.7123L19.6471 16.7108C19.5712 16.6972 19.5064 16.6914 19.4536 16.6947C19.4007 16.6979 19.3605 16.7102 19.3329 16.7317C19.3057 16.7531 19.2899 16.7843 19.2871 16.8278C19.2843 16.8715 19.2946 16.9275 19.3198 16.9973L19.3236 17.0078H19.3125C19.2316 17.0078 19.1795 17.029 19.1523 17.0599C19.1255 17.0903 19.1213 17.1318 19.14 17.1767L19.144 17.1861L19.1338 17.1874C19.0577 17.1972 18.9962 17.2074 18.9468 17.2215C18.8975 17.2356 18.861 17.2535 18.8344 17.2782C18.7816 17.3273 18.7656 17.4059 18.7734 17.5464L18.7738 17.5539L18.7664 17.5546C18.7502 17.5563 18.7339 17.5575 18.7177 17.5588C18.694 17.5606 18.6704 17.5625 18.6476 17.5654C18.6094 17.5702 18.5753 17.5779 18.5498 17.5927C18.5249 17.6072 18.5082 17.6286 18.5042 17.6621C18.5002 17.6961 18.5093 17.7434 18.5384 17.8093L18.5414 17.8163L18.5346 17.8195C18.482 17.8449 18.4341 17.87 18.3953 17.8978C18.3564 17.9256 18.3271 17.9557 18.3108 17.9906C18.2786 18.0596 18.2957 18.152 18.4046 18.2921L18.4119 18.3014L18.4004 18.3044C18.3265 18.3239 18.2823 18.3486 18.2625 18.381C18.2431 18.4128 18.2457 18.4545 18.2727 18.5123L18.2807 18.5294L18.263 18.523C18.2415 18.5152 18.2195 18.5075 18.1982 18.5029C18.1768 18.4982 18.1569 18.4968 18.1395 18.5008C18.1223 18.5047 18.1072 18.5141 18.0953 18.532C18.0832 18.5502 18.0741 18.5776 18.0703 18.6179L18.0694 18.6266L18.0609 18.6248C18.0583 18.6243 18.0557 18.6237 18.053 18.6232C17.9796 18.6077 17.8894 18.5886 17.813 18.6034C17.7737 18.6109 17.7385 18.6274 17.7112 18.6576C17.6839 18.6878 17.6639 18.7325 17.6562 18.7978L17.6554 18.8043L17.6489 18.8047C17.5539 18.8105 17.4799 18.8299 17.4295 18.8563C17.3789 18.8829 17.3538 18.9156 17.3525 18.9476C17.3512 18.9795 17.3734 19.0149 17.4272 19.0473C17.4808 19.0795 17.5642 19.1076 17.6808 19.1251L17.6856 19.1258L17.6871 19.1303C17.7169 19.2198 17.8222 19.2772 17.9331 19.2705C18.0431 19.2639 18.1574 19.1939 18.2034 19.0292L18.2064 19.0183L18.2156 19.025C18.2381 19.0414 18.2569 19.0572 18.2741 19.0715C18.2795 19.0759 18.2847 19.0802 18.2897 19.0844C18.3112 19.102 18.331 19.117 18.3541 19.1288C18.4002 19.1523 18.461 19.164 18.5776 19.1563L18.5819 19.156L18.5844 19.1594C18.7115 19.3327 18.8992 19.3741 19.0303 19.3218C19.0958 19.2957 19.1472 19.2463 19.1706 19.178C19.194 19.1097 19.1896 19.0215 19.1413 18.9173L19.1333 18.8999L19.1512 18.9068C19.283 18.9571 19.3749 18.9482 19.4321 18.8938C19.49 18.8386 19.5156 18.7343 19.5078 18.5863L19.5073 18.5772L19.5164 18.5782C19.5416 18.5808 19.5653 18.5848 19.5868 18.5885C19.5971 18.5903 19.607 18.5919 19.6163 18.5933C19.6454 18.5977 19.6691 18.5994 19.6883 18.594C19.7069 18.5889 19.722 18.5769 19.7338 18.5519C19.7457 18.5263 19.7539 18.4875 19.7578 18.4292L19.7587 18.4161L19.7698 18.4231C19.9184 18.5169 20.0085 18.5626 20.1049 18.5674C20.2014 18.5722 20.3053 18.5359 20.4813 18.4616L20.4868 18.4592L20.4905 18.4639C20.5053 18.4829 20.5192 18.5009 20.5323 18.518C20.5626 18.5575 20.5891 18.592 20.6151 18.6218C20.6523 18.6644 20.6879 18.6968 20.7312 18.7197C20.8177 18.7653 20.9365 18.7735 21.163 18.7423L21.1678 18.7416L21.1706 18.7457C21.2639 18.8856 21.3678 18.9792 21.4956 19.0031C21.6233 19.0269 21.7774 18.9814 21.9719 18.8375L21.9752 18.835L21.9791 18.8364C22.1383 18.8907 22.2749 18.8961 22.3751 18.857C22.4747 18.8181 22.5394 18.7348 22.5547 18.6084L22.5553 18.6034L22.5602 18.6019C22.6213 18.5828 22.6807 18.5445 22.7266 18.4954C22.7725 18.4463 22.8045 18.3867 22.8116 18.3253C22.8186 18.2641 22.8011 18.2005 22.7468 18.1423C22.6924 18.0839 22.6006 18.0308 22.4589 17.9919L22.4516 17.9899L22.4533 17.9826C22.4746 17.8917 22.4725 17.8196 22.4532 17.7637C22.434 17.7079 22.3975 17.6676 22.3488 17.6406C22.2508 17.5864 22.1028 17.5859 21.9472 17.6248L21.9279 17.6296L21.9388 17.6129C22.0047 17.5122 22.0202 17.4162 21.9816 17.3537C21.9433 17.2917 21.8483 17.2578 21.6811 17.2889L21.6728 17.2905L21.6719 17.282C21.6567 17.1301 21.547 17.0544 21.437 17.0469C21.3265 17.0392 21.218 17.1001 21.2031 17.2197L21.2022 17.2266H21.1953C21.1503 17.2266 21.1169 17.2266 21.0904 17.2284C21.0639 17.2302 21.0449 17.2338 21.0284 17.2406C20.9953 17.2544 20.9712 17.2819 20.92 17.3411L20.9111 17.3513L20.9067 17.3385C20.8717 17.2375 20.8353 17.1769 20.7768 17.1363C20.7179 17.0954 20.6356 17.0741 20.5066 17.0546L20.499 17.0534L20.5001 17.0458C20.5384 16.7697 20.3393 16.583 20.1227 16.5163C20.0145 16.4829 19.903 16.48 19.8161 16.5104ZM20.5166 17.0403C20.5516 16.7581 20.3462 16.5688 20.1273 16.5013C20.0168 16.4673 19.9017 16.4639 19.8109 16.4957C19.722 16.5268 19.6563 16.5918 19.6417 16.694C19.5687 16.6813 19.5053 16.6759 19.4526 16.6791C19.3981 16.6824 19.3544 16.6951 19.3233 16.7194C19.292 16.744 19.2745 16.7797 19.2715 16.8268C19.2686 16.8713 19.2785 16.9262 19.3015 16.9923C19.2243 16.9942 19.1706 17.0155 19.1406 17.0495C19.1109 17.0832 19.1058 17.1276 19.122 17.1732C19.0502 17.1826 18.9909 17.1927 18.9426 17.2065C18.892 17.2209 18.8529 17.2397 18.8238 17.2667C18.7663 17.3202 18.7506 17.4035 18.7574 17.5398C18.7443 17.541 18.7309 17.5421 18.7173 17.5431C18.6931 17.545 18.6686 17.5469 18.6456 17.5499C18.607 17.5548 18.5702 17.5627 18.542 17.5792C18.5132 17.5959 18.4933 17.6214 18.4887 17.6602C18.4843 17.6971 18.4939 17.7453 18.5211 17.8087C18.4709 17.8331 18.4245 17.8577 18.3862 17.8851C18.3462 17.9137 18.3145 17.9457 18.2966 17.984C18.2613 18.0597 18.2815 18.1561 18.3851 18.2924C18.3169 18.3116 18.2712 18.3369 18.2492 18.3729C18.2279 18.4077 18.2301 18.4504 18.2512 18.5022C18.2349 18.4965 18.2181 18.4912 18.2015 18.4876C18.1791 18.4827 18.1566 18.4808 18.1359 18.4856C18.115 18.4904 18.0964 18.502 18.0822 18.5234C18.0692 18.543 18.0601 18.5705 18.0556 18.6078C18.0558 18.6078 18.0555 18.6077 18.0556 18.6078C17.9831 18.5924 17.8897 18.5727 17.81 18.588C17.7683 18.5961 17.7297 18.6138 17.6996 18.6471C17.6706 18.6793 17.65 18.7253 17.6415 18.7895C17.5481 18.7959 17.474 18.8153 17.4223 18.8424C17.3696 18.8701 17.3386 18.9067 17.3369 18.9469C17.3353 18.9873 17.3634 19.0271 17.4192 19.0606C17.4745 19.0939 17.5585 19.1221 17.6739 19.1398C17.7085 19.2352 17.8202 19.293 17.9341 19.2861C18.0482 19.2792 18.1655 19.2077 18.2153 19.0442C18.2335 19.058 18.2491 19.071 18.2639 19.0833C18.2693 19.0878 18.2746 19.0922 18.2798 19.0965C18.3015 19.1143 18.3223 19.1301 18.347 19.1427C18.3961 19.1677 18.4593 19.1794 18.5744 19.1721C18.7051 19.3476 18.8985 19.3912 19.0361 19.3364C19.1054 19.3088 19.1604 19.2561 19.1854 19.1831C19.209 19.1139 19.2055 19.0274 19.1631 18.9278C19.2882 18.9718 19.3819 18.9632 19.4429 18.9051C19.5047 18.8462 19.5302 18.739 19.5239 18.5947C19.5451 18.5973 19.5648 18.6006 19.5834 18.6038C19.594 18.6056 19.6041 18.6073 19.6139 18.6088C19.6431 18.6132 19.6698 18.6154 19.6925 18.6091C19.716 18.6025 19.7345 18.5871 19.7479 18.5585C19.7601 18.5324 19.7682 18.4952 19.7725 18.4432C19.9144 18.5323 20.0057 18.5781 20.1041 18.583C20.2038 18.5879 20.3097 18.5508 20.4819 18.4783C20.4951 18.4952 20.5076 18.5115 20.5195 18.527C20.55 18.5667 20.577 18.6019 20.6034 18.6321C20.6412 18.6754 20.6783 18.7094 20.7239 18.7335C20.8145 18.7813 20.9367 18.7889 21.1603 18.7584C21.2538 18.8975 21.3601 18.9937 21.4927 19.0184C21.6259 19.0433 21.7834 18.9957 21.9779 18.8525C22.1374 18.9062 22.2767 18.9122 22.3808 18.8715C22.4849 18.8309 22.5526 18.744 22.5696 18.6153C22.6318 18.5949 22.6916 18.5558 22.738 18.5061C22.7856 18.4551 22.8195 18.3926 22.8271 18.3271C22.8347 18.2613 22.8156 18.1931 22.7583 18.1316C22.7021 18.0714 22.6096 18.018 22.4702 17.9788C22.4901 17.8894 22.4879 17.8165 22.468 17.7586C22.4474 17.6989 22.4082 17.6556 22.3563 17.627C22.2573 17.5721 22.1124 17.5704 21.9621 17.6051C22.0207 17.5082 22.0361 17.4121 21.9949 17.3455C21.9519 17.2759 21.8504 17.2433 21.6865 17.2721C21.6673 17.1171 21.5526 17.0392 21.438 17.0313C21.324 17.0234 21.208 17.0852 21.1885 17.2109C21.147 17.2109 21.1151 17.211 21.0893 17.2128C21.0621 17.2146 21.0411 17.2184 21.0224 17.2262C20.9874 17.2408 20.9617 17.2691 20.917 17.3207C20.8829 17.2259 20.8456 17.165 20.7857 17.1235C20.7247 17.0812 20.6412 17.0595 20.5166 17.0403Z" fill="black"/>
<path fill-rule="evenodd" clip-rule="evenodd" d="M20.4336 17.103C20.4658 17.0846 20.4927 17.0662 20.5092 17.0424L20.522 17.0513C20.5034 17.0783 20.4737 17.0981 20.4414 17.1165C20.4318 17.122 20.4219 17.1274 20.412 17.1328C20.3881 17.1459 20.3636 17.1593 20.3404 17.1754C20.3078 17.1979 20.2786 17.2251 20.2589 17.2626C20.2392 17.2999 20.2286 17.3482 20.2343 17.4134L20.2201 17.4184C20.1822 17.3616 20.1236 17.3258 20.0664 17.3183C20.0095 17.3108 19.9541 17.3313 19.9208 17.3868L19.9074 17.3788C19.9443 17.3172 20.0062 17.2946 20.0684 17.3028C20.1227 17.3099 20.1775 17.3404 20.2173 17.3885C20.2159 17.3336 20.2266 17.2904 20.245 17.2553C20.2663 17.2148 20.2977 17.1859 20.3315 17.1625C20.3554 17.146 20.3811 17.132 20.4053 17.1187C20.415 17.1134 20.4245 17.1082 20.4336 17.103ZM19.1766 17.21C19.161 17.2062 19.1445 17.2021 19.1293 17.1945L19.1363 17.1805C19.1499 17.1873 19.1647 17.191 19.1806 17.1949C19.1819 17.1953 19.1832 17.1956 19.1845 17.1959C19.2016 17.2002 19.2197 17.205 19.2364 17.215C19.2677 17.2335 19.292 17.2684 19.3021 17.3432C19.3322 17.2955 19.3641 17.2648 19.3959 17.2495C19.4324 17.232 19.4683 17.2351 19.4993 17.2551C19.53 17.2749 19.5555 17.3108 19.5733 17.3578C19.5912 17.405 19.6016 17.4641 19.6016 17.5312H19.5859C19.5859 17.4656 19.5758 17.4085 19.5587 17.3634C19.5416 17.3181 19.5178 17.2856 19.4909 17.2683C19.4644 17.2512 19.4343 17.2485 19.4027 17.2636C19.3706 17.279 19.3365 17.3132 19.3037 17.371L19.2913 17.3929L19.2891 17.3679C19.2814 17.2792 19.2566 17.2451 19.2284 17.2284C19.2139 17.2198 19.1978 17.2153 19.1807 17.2111C19.1793 17.2107 19.178 17.2104 19.1766 17.21ZM20.8907 17.5036C20.9024 17.4327 20.9062 17.3667 20.9062 17.3359H20.9219C20.9219 17.3676 20.9179 17.4345 20.9061 17.5061C20.8944 17.5776 20.8747 17.6551 20.8426 17.7072L20.8293 17.699C20.8597 17.6496 20.879 17.5747 20.8907 17.5036ZM21.9382 17.6182C21.9381 17.621 21.9396 17.6225 21.9398 17.6227L21.9508 17.6117C21.952 17.6128 21.954 17.6153 21.9538 17.6189C21.9537 17.6226 21.9514 17.6249 21.95 17.626C21.9474 17.6279 21.9439 17.6289 21.9412 17.6295C21.935 17.6308 21.9256 17.6318 21.9141 17.6328C21.9066 17.6334 21.8982 17.634 21.8889 17.6347C21.8691 17.6362 21.8457 17.6379 21.8201 17.6406C21.7449 17.6484 21.6549 17.6639 21.5981 17.7018L21.5894 17.6888C21.6498 17.6486 21.7434 17.6328 21.8185 17.625C21.8443 17.6224 21.8682 17.6206 21.8881 17.6191C21.8973 17.6184 21.9056 17.6178 21.9128 17.6172C21.9244 17.6162 21.9328 17.6153 21.9378 17.6142C21.94 17.6137 21.9407 17.6134 21.9407 17.6134C21.9408 17.6133 21.9407 17.6134 21.9407 17.6134C21.9403 17.6137 21.9383 17.6154 21.9382 17.6182ZM19.9569 17.8573C19.8658 17.8021 19.7767 17.782 19.7135 17.8042L19.7083 17.7895C19.778 17.7649 19.8724 17.7878 19.965 17.8439C20.0543 17.8981 20.1434 17.9841 20.2098 18.0922C20.2445 18.0148 20.2867 17.9808 20.3335 17.9652C20.3578 17.9571 20.383 17.9541 20.4081 17.9522C20.4146 17.9517 20.4212 17.9512 20.4277 17.9508C20.4463 17.9495 20.4647 17.9483 20.4832 17.9454L20.4856 17.9608C20.4663 17.9638 20.447 17.9651 20.4282 17.9664C20.4218 17.9668 20.4155 17.9673 20.4093 17.9678C20.3845 17.9697 20.3609 17.9726 20.3384 17.9801C20.2942 17.9948 20.2527 18.028 20.2182 18.1123L20.2122 18.127L20.2042 18.1133C20.1384 18.0011 20.0476 17.9122 19.9569 17.8573ZM19.2621 17.8014C19.2042 17.8192 19.1273 17.8797 19.0378 18.0198L19.0288 18.0339L19.0238 18.018C19.0125 17.9822 18.9948 17.9583 18.9738 17.9421C18.9526 17.9259 18.9276 17.9172 18.9011 17.913C18.8746 17.9087 18.8469 17.9089 18.8207 17.9103C18.8113 17.9107 18.802 17.9114 18.793 17.912C18.7773 17.9131 18.7626 17.9141 18.75 17.9141V17.8984C18.7621 17.8984 18.7759 17.8975 18.7911 17.8965C18.8002 17.8958 18.8098 17.8952 18.8199 17.8947C18.8465 17.8933 18.8754 17.893 18.9036 17.8976C18.9318 17.9021 18.9595 17.9115 18.9833 17.9297C19.0039 17.9455 19.0211 17.9676 19.0333 17.9981C19.1199 17.8662 19.1963 17.8052 19.2575 17.7865C19.3216 17.7668 19.3683 17.7938 19.3896 17.8321L19.376 17.8397C19.3582 17.8078 19.319 17.784 19.2621 17.8014ZM21.3715 18.1451C21.3038 18.0974 21.2188 18.071 21.1125 18.1166L21.1063 18.1022C21.2187 18.054 21.3095 18.0823 21.3805 18.1323C21.4352 18.1708 21.4787 18.2227 21.5116 18.2619C21.5185 18.2701 21.5249 18.2778 21.5309 18.2846C21.5799 18.2224 21.6242 18.1899 21.6692 18.1733C21.7154 18.1562 21.7615 18.1562 21.8118 18.1562L21.8125 18.1719C21.7615 18.1719 21.718 18.172 21.6746 18.188C21.6314 18.2039 21.5876 18.236 21.5375 18.3016L21.5317 18.3091L21.5254 18.3021C21.5173 18.293 21.5084 18.2824 21.4987 18.271C21.466 18.2319 21.4243 18.1823 21.3715 18.1451ZM20.4646 18.4179C20.4667 18.4363 20.4688 18.4539 20.4688 18.4688H20.4531C20.4531 18.4549 20.4512 18.4384 20.4491 18.4201C20.4486 18.416 20.4482 18.4118 20.4477 18.4075C20.4451 18.3844 20.4428 18.3591 20.4443 18.3345C20.4459 18.3098 20.4512 18.2853 20.4641 18.2637C20.4772 18.242 20.4976 18.2238 20.5283 18.2115L20.5342 18.226C20.5063 18.2371 20.4887 18.2532 20.4775 18.2717C20.4663 18.2904 20.4614 18.3123 20.4599 18.3354C20.4585 18.3586 20.4607 18.3827 20.4632 18.4058C20.4637 18.4098 20.4641 18.4139 20.4646 18.4179ZM18.5701 18.2637C18.5082 18.2617 18.4521 18.2735 18.4193 18.3027L18.4089 18.291C18.4463 18.2578 18.5074 18.2461 18.5706 18.2481C18.634 18.25 18.7015 18.2659 18.7533 18.2898L18.7467 18.304C18.6969 18.281 18.6316 18.2656 18.5701 18.2637ZM19.3951 18.3103C19.365 18.3395 19.3439 18.3916 19.3515 18.468L19.3532 18.4849L19.3393 18.4751C19.2649 18.4231 19.1525 18.4453 19.1001 18.5201L19.0873 18.5111C19.1413 18.434 19.2535 18.4079 19.3348 18.4539C19.331 18.3821 19.3522 18.3302 19.3842 18.2991C19.4185 18.2658 19.4648 18.2571 19.5032 18.2741L19.4968 18.2884C19.4649 18.2742 19.4253 18.281 19.3951 18.3103ZM22.2733 18.6103C22.2726 18.5741 22.269 18.5234 22.2493 18.4783C22.2372 18.4504 22.2188 18.4245 22.1909 18.4055C22.163 18.3866 22.1263 18.375 22.0781 18.375V18.3906C22.1237 18.3906 22.1573 18.4015 22.1821 18.4184C22.207 18.4354 22.2238 18.4587 22.235 18.4846C22.2577 18.5366 22.2578 18.5975 22.2578 18.6328V18.6574L22.272 18.6373C22.2946 18.6052 22.3198 18.5868 22.3455 18.5773C22.3713 18.5677 22.3982 18.5669 22.4245 18.5712C22.4703 18.5786 22.5133 18.6007 22.5448 18.6169C22.5498 18.6195 22.5546 18.622 22.559 18.6242L22.566 18.6102C22.5618 18.6081 22.5572 18.6057 22.5523 18.6032C22.521 18.5871 22.4755 18.5636 22.427 18.5558C22.3987 18.5512 22.369 18.5519 22.3401 18.5626C22.3165 18.5713 22.2939 18.5866 22.2733 18.6103ZM21.3352 18.5752C21.3693 18.5742 21.4056 18.5845 21.4421 18.6109L21.4329 18.6235C21.399 18.5991 21.366 18.5899 21.3357 18.5908C21.3052 18.5917 21.2769 18.6028 21.2525 18.6197C21.2281 18.6366 21.2078 18.6592 21.1937 18.6827C21.1795 18.7064 21.1719 18.7304 21.1719 18.75H21.1562C21.1562 18.7267 21.1652 18.6999 21.1803 18.6747C21.1955 18.6494 21.2172 18.6251 21.2436 18.6069C21.27 18.5886 21.3012 18.5762 21.3352 18.5752ZM21.9673 18.6691C21.9824 18.7094 21.9922 18.7651 21.9922 18.8516H21.9766C21.9766 18.7662 21.9668 18.7125 21.9526 18.6746C21.9385 18.6369 21.9197 18.6143 21.9002 18.5909L21.9123 18.5809C21.9318 18.6044 21.9522 18.6288 21.9673 18.6691ZM18.7018 18.904C18.6912 18.8387 18.6496 18.778 18.5866 18.7553C18.5202 18.7315 18.4332 18.7511 18.3382 18.846L18.3493 18.8571C18.4418 18.7646 18.5227 18.749 18.5813 18.77C18.6405 18.7913 18.68 18.8508 18.6876 18.915L18.6878 18.9161C18.6931 18.9355 18.69 18.9494 18.6822 18.9622C18.6748 18.9744 18.6632 18.9856 18.6489 18.9994C18.6473 19.0009 18.6457 19.0025 18.644 19.0042C18.6113 19.0359 18.5709 19.0783 18.5548 19.1626L18.5702 19.1655C18.5854 19.0858 18.6231 19.0462 18.6549 19.0154C18.6565 19.0137 18.6582 19.0121 18.6599 19.0105C18.6738 18.9971 18.687 18.9844 18.6955 18.9704C18.7044 18.9557 18.7084 18.9395 18.7046 18.9195C18.752 18.9059 18.7989 18.9028 18.8376 18.9091C18.8785 18.9157 18.9089 18.9326 18.9229 18.957L18.9365 18.9492C18.9192 18.919 18.8832 18.9007 18.8401 18.8937C18.7992 18.887 18.7506 18.8902 18.7018 18.904Z" fill="black"/>
<path d="M19.7812 15.0469L19.4141 15.0625L19.2344 15.3906L19.0312 15.0781L18.6641 15.0938L18.8281 14.7578L18.6328 14.4453L19.0156 14.4297L19.1797 14.1016L19.3828 14.4141L19.75 14.3984L19.5781 14.7266L19.7812 15.0469ZM18.2188 15.1641L17.8438 15.2578L17.75 15.6094L17.4844 15.3438L17.1328 15.4297L17.2266 15.0781L16.9844 14.8047L17.3281 14.7188L17.4297 14.3594L17.6953 14.625L18.0625 14.5469L17.9453 14.8984L18.2188 15.1641ZM16.6953 15.4766L16.3672 15.6406L16.3438 16.0156L16.0312 15.8125L15.6953 15.9688L15.7266 15.6016L15.4141 15.3984L15.75 15.2266L15.7812 14.8594L16.0781 15.0625L16.4141 14.9062L16.3984 15.2734L16.6953 15.4766ZM20.2656 15.0469L20.6328 15.0625L20.7969 15.3906L21 15.0781L21.3672 15.0938L21.1953 14.7578L21.3984 14.4453L21.0312 14.4297L20.8438 14.1016L20.6484 14.4141L20.2812 14.3984L20.4453 14.7266L20.2656 15.0469ZM21.8281 15.1641L22.1797 15.2578L22.2812 15.6094L22.5469 15.3438L22.8984 15.4297L22.7969 15.0781L23.0625 14.8047L22.6953 14.7188L22.5938 14.3594L22.3281 14.625L21.9844 14.5469L22.0781 14.8984L21.8281 15.1641ZM23.3281 15.4766L23.6641 15.6406L23.6797 16.0156L23.9922 15.8125L24.3281 15.9688L24.3125 15.6016L24.6094 15.3984L24.2812 15.2266L24.2656 14.8594L23.9531 15.0625L23.6094 14.9062L23.6484 15.2734L23.3281 15.4766Z" fill="#FFD700"/>
<path fill-rule="evenodd" clip-rule="evenodd" d="M19.1761 14.0388L19.3993 14.3821L19.8028 14.3649L19.6142 14.7251L19.8366 15.0758L19.433 15.093L19.2367 15.4515L19.0148 15.1101L18.6129 15.1272L18.7924 14.7597L18.5778 14.4163L18.9959 14.3992L19.1761 14.0388ZM20.8449 14.0407L21.0498 14.3992L21.4545 14.4164L21.2314 14.7597L21.4194 15.1273L21.0165 15.1101L20.7933 15.4534L20.6131 15.0929L20.2135 15.0759L20.41 14.7257L20.2296 14.365L20.6316 14.3821L20.8449 14.0407ZM19.1832 14.1644L19.0353 14.4602L18.6878 14.4743L18.8638 14.7559L18.7152 15.0603L19.0477 15.0461L19.2321 15.3298L19.3951 15.032L19.7259 15.018L19.5421 14.7281L19.6972 14.432L19.3663 14.446L19.1832 14.1644ZM20.8425 14.1624L20.6653 14.4461L20.3329 14.4319L20.4807 14.7274L20.3178 15.0178L20.6525 15.0321L20.8004 15.3278L20.9835 15.0461L21.3149 15.0602L21.1593 14.7559L21.3424 14.4742L21.0127 14.4602L20.8425 14.1624ZM17.4141 14.2996L17.7054 14.5909L18.1094 14.5049L17.9812 14.8897L18.2808 15.1808L17.8692 15.2837L17.7662 15.6698L17.4747 15.3783L17.089 15.4726L17.192 15.0863L16.9268 14.7869L17.303 14.6928L17.4141 14.2996ZM22.6093 14.2996L22.7204 14.6925L23.1234 14.7868L22.8319 15.0869L22.9434 15.4729L22.5565 15.3783L22.2659 15.6689L22.1546 15.2835L21.7695 15.1808L22.0434 14.8897L21.9408 14.5049L22.3182 14.5907L22.6093 14.2996ZM22.5782 14.4192L22.338 14.6593L22.0279 14.5888L22.1128 14.9072L21.8868 15.1474L22.2048 15.2322L22.2966 15.5498L22.5372 15.3092L22.8534 15.3865L22.7618 15.0694L23.0016 14.8225L22.6702 14.745L22.5782 14.4192ZM17.4453 14.4192L17.3533 14.7447L17.0419 14.8225L17.2611 15.07L17.1766 15.3868L17.494 15.3092L17.7338 15.549L17.8183 15.232L18.1567 15.1474L17.9095 14.9072L18.0156 14.5888L17.6852 14.6591L17.4453 14.4192ZM15.7547 14.8033L16.0811 15.0267L16.4475 14.8562L16.4304 15.2574L16.7568 15.4808L16.3973 15.6605L16.3716 16.071L16.0287 15.8481L15.6596 16.0198L15.6938 15.6176L15.3518 15.3952L15.7203 15.2066L15.7547 14.8033ZM24.2945 14.8033L24.3117 15.2072L24.6699 15.3949L24.3445 15.6176L24.3615 16.0188L23.9947 15.8481L23.6507 16.0717L23.6336 15.6605L23.2642 15.4801L23.6153 15.2574L23.5725 14.8552L23.9505 15.027L24.2945 14.8033ZM24.2367 14.9154L23.9558 15.098L23.6462 14.9573L23.6816 15.2894L23.3921 15.473L23.6945 15.6207L23.7086 15.9595L23.9897 15.7769L24.2947 15.9187L24.2805 15.5856L24.5488 15.402L24.2508 15.2459L24.2367 14.9154ZM15.8078 14.9154L15.7797 15.2465L15.4764 15.4017L15.7593 15.5856L15.731 15.9177L16.0338 15.7769L16.3159 15.9603L16.3371 15.6207L16.6338 15.4724L16.3665 15.2894L16.3807 14.9563L16.0752 15.0983L15.8078 14.9154Z" fill="black"/>
<path d="M23.7812 22.5312L24.1953 23.1328L24.5859 22.5625L24.3125 22.0859L23.7812 22.5312ZM21.125 24.2812L21.1641 24.8828C21.1641 24.8828 21.3281 24.8828 21.4766 24.8359C21.6172 24.7812 21.7344 24.6797 21.7344 24.6797L21.7109 24.3672L21.125 24.2812ZM18.8984 24.2812L18.8594 24.8672C18.8594 24.8672 18.7109 24.8672 18.5625 24.8359C18.4734 24.8106 18.389 24.771 18.3125 24.7188L18.1484 24.3125L18.8984 24.2812ZM16.2109 22.5312L15.7812 23.1328L15.3125 22.3672L15.6641 22L16.2109 22.5312Z" fill="white"/>
<path fill-rule="evenodd" clip-rule="evenodd" d="M15.6633 21.9557L16.252 22.5276L15.7792 23.1894L15.2733 22.363L15.6633 21.9557ZM15.6649 22.0443L15.3517 22.3714L15.7833 23.0762L16.1699 22.5349L15.6649 22.0443ZM24.321 22.038L24.6228 22.564L24.1954 23.188L23.7394 22.5256L24.321 22.038ZM23.8231 22.5369L24.1953 23.0776L24.5491 22.561L24.304 22.1339L23.8231 22.5369ZM21.0913 24.2447L21.7402 24.3399L21.7667 24.693L21.7548 24.7033L21.7344 24.6797C21.7548 24.7033 21.7548 24.7033 21.7548 24.7033L21.7532 24.7047C21.7523 24.7055 21.7508 24.7067 21.749 24.7082C21.7453 24.7113 21.74 24.7156 21.7332 24.721C21.7196 24.7317 21.7 24.7465 21.6759 24.7631C21.6279 24.796 21.5613 24.8365 21.4879 24.8651L21.4869 24.8654L21.486 24.8657C21.4089 24.8901 21.3284 24.9021 21.2677 24.9081C21.2372 24.911 21.2115 24.9126 21.1933 24.9133C21.1842 24.9137 21.177 24.9139 21.172 24.914C21.1695 24.914 21.1676 24.914 21.1662 24.914L21.1647 24.9141C21.1647 24.9141 21.1641 24.9141 21.1641 24.8828L21.1647 24.9141L21.1348 24.9141L21.0913 24.2447ZM21.1933 24.8507C21.2103 24.85 21.2339 24.8486 21.2616 24.8459C21.3198 24.8401 21.3951 24.8288 21.4662 24.8064C21.5331 24.7803 21.5949 24.7429 21.6405 24.7116C21.6633 24.6959 21.6818 24.6819 21.6945 24.6719C21.6973 24.6697 21.6998 24.6677 21.702 24.6659L21.6816 24.3945L21.1587 24.3178L21.1933 24.8507ZM18.9319 24.2486L18.8886 24.8984H18.8594V24.8672C18.8594 24.8857 18.8594 24.8932 18.8594 24.8963C18.8594 24.8984 18.8594 24.8984 18.8594 24.8984L18.8575 24.8984L18.8523 24.8984C18.8478 24.8983 18.8412 24.8982 18.8329 24.8979C18.8163 24.8974 18.7927 24.8964 18.7644 24.8945C18.7079 24.8905 18.6322 24.8825 18.5561 24.8665L18.555 24.8663L18.554 24.866C18.4616 24.8397 18.3741 24.7987 18.2949 24.7445L18.2871 24.7392L18.1029 24.2831L18.9319 24.2486ZM18.8302 24.8353C18.8146 24.8348 18.7936 24.8338 18.7688 24.8321C18.7142 24.8283 18.642 24.8207 18.57 24.8056C18.4875 24.782 18.4092 24.7458 18.3379 24.6982L18.194 24.3419L18.8649 24.3139L18.8302 24.8353Z" fill="black"/>
<path d="M18.2969 25.4844C18.2969 26.0469 21.7344 26.0469 21.7344 25.4844V24.6875C21.7344 25.1016 18.2969 25.0156 18.2969 24.6875V25.4844Z" fill="white"/>
<path fill-rule="evenodd" clip-rule="evenodd" d="M21.6752 24.7358C21.6963 24.7174 21.7031 24.7013 21.7031 24.6875H21.7656V25.4844C21.7656 25.5725 21.6984 25.6421 21.602 25.6962C21.504 25.7511 21.3663 25.7959 21.2039 25.8313C20.8787 25.9023 20.4466 25.9375 20.0156 25.9375C19.5846 25.9375 19.1525 25.9023 18.8273 25.8313C18.665 25.7959 18.5272 25.7511 18.4293 25.6962C18.3329 25.6421 18.2656 25.5725 18.2656 25.4844V24.6875H18.3281C18.3281 24.6932 18.3318 24.7046 18.354 24.721C18.3756 24.7368 18.4091 24.7532 18.4549 24.7692C18.5461 24.8012 18.6781 24.8295 18.8386 24.8532C19.159 24.9007 19.5872 24.9292 20.016 24.9346C20.4449 24.9399 20.8728 24.9221 21.1929 24.8774C21.3533 24.855 21.4847 24.826 21.5753 24.7907C21.6207 24.773 21.6539 24.7545 21.6752 24.7358ZM21.7031 24.7936C21.6754 24.8145 21.6396 24.8327 21.598 24.849C21.5006 24.8869 21.3635 24.9166 21.2016 24.9393C20.8772 24.9846 20.4457 25.0024 20.0152 24.9971C19.5847 24.9917 19.1535 24.9631 18.8294 24.9151C18.6676 24.8911 18.531 24.8621 18.4342 24.8282C18.392 24.8134 18.3558 24.7971 18.3281 24.779V25.4844C18.3281 25.5369 18.3683 25.5903 18.4599 25.6417C18.5499 25.6922 18.6807 25.7354 18.8406 25.7703C19.16 25.8399 19.5872 25.875 20.0156 25.875C20.444 25.875 20.8713 25.8399 21.1906 25.7703C21.3505 25.7354 21.4813 25.6922 21.5714 25.6417C21.6629 25.5903 21.7031 25.5369 21.7031 25.4844V24.7936Z" fill="black"/>
<path d="M15.2344 23.6328C15.5313 25.1641 18.2969 25.1953 18.2969 25.1953V24.6875C18.2344 24.4844 18.3438 24.4141 18.7969 24.3516C18.9844 24.3359 18.8984 24.0703 18.8984 24.0703C18.8984 24.0703 17.6953 24.2812 16.8438 23.9531C15.6953 23.4844 15.5312 22.5859 15.5312 22.5859C15.5312 22.5859 15.4531 23.2891 15.2266 23.6328H15.2344ZM24.7813 23.6328C24.5 25.1641 21.7344 25.1953 21.7344 25.1953L21.7344 24.6875C21.7812 24.4844 21.6562 24.4141 21.2109 24.3516C21.0312 24.3359 21.1328 24.0703 21.1328 24.0703C21.1328 24.0703 22.3281 24.2812 23.1797 23.9531C24.3125 23.4844 24.4453 22.5859 24.4453 22.5859C24.4453 22.5859 24.5625 23.2891 24.7813 23.6328Z" fill="white"/>
<path fill-rule="evenodd" clip-rule="evenodd" d="M16.8553 23.9241C17.2752 24.0858 17.7838 24.1152 18.1895 24.1035C18.3921 24.0977 18.5681 24.0817 18.6935 24.0671C18.7562 24.0598 18.8062 24.0529 18.8405 24.0478C18.8576 24.0453 18.8708 24.0432 18.8797 24.0418C18.8841 24.041 18.8875 24.0405 18.8898 24.0401L18.8923 24.0397L18.8984 24.0703C18.9282 24.0607 18.9282 24.0607 18.9282 24.0607L18.9285 24.0618L18.9293 24.0643C18.9299 24.0665 18.9309 24.0696 18.9319 24.0736C18.934 24.0814 18.9368 24.0925 18.9396 24.1058C18.9449 24.1323 18.9503 24.1685 18.9492 24.206C18.9481 24.243 18.9408 24.2845 18.9177 24.3185C18.8938 24.354 18.8553 24.3778 18.8003 24.3826C18.6879 24.3982 18.5977 24.4141 18.5265 24.4321C18.4548 24.4504 18.4046 24.4703 18.3708 24.4928C18.338 24.5147 18.3217 24.5383 18.3153 24.5653C18.3086 24.5936 18.3118 24.6299 18.3267 24.6783L18.3281 24.6828V25.2269L18.2965 25.2266L18.2969 25.1953C18.2965 25.2266 18.2966 25.2266 18.2965 25.2266L18.2944 25.2265L18.2883 25.2264C18.283 25.2263 18.2751 25.2261 18.2648 25.2258C18.2443 25.2252 18.2142 25.2241 18.1759 25.2222C18.0992 25.2183 17.9895 25.2111 17.8569 25.1976C17.5919 25.1706 17.2351 25.1186 16.8687 25.0184C16.1473 24.8211 15.3728 24.4325 15.2088 23.6641H15.1685L15.2005 23.6156C15.3103 23.4489 15.3856 23.1922 15.4333 22.9738C15.4571 22.8652 15.4738 22.7673 15.4846 22.6965C15.49 22.6611 15.4939 22.6325 15.4965 22.6128C15.4977 22.603 15.4987 22.5953 15.4993 22.5902L15.5 22.5844L15.5001 22.5829L15.5619 22.5803C15.5619 22.5803 15.562 22.5803 15.5619 22.5803L15.5624 22.5824C15.5627 22.5839 15.5632 22.5862 15.5639 22.5894C15.5653 22.5957 15.5675 22.6052 15.5708 22.6175C15.5773 22.6421 15.5879 22.6781 15.6042 22.723C15.6368 22.8126 15.6925 22.9369 15.7833 23.0762C15.9647 23.3546 16.2877 23.6923 16.8553 23.9241ZM15.5419 22.7345C15.531 22.8031 15.5154 22.891 15.4944 22.9871C15.4483 23.1981 15.3751 23.453 15.2656 23.6297C15.4116 24.3739 16.1584 24.7594 16.8852 24.9581C17.2473 25.0572 17.6004 25.1087 17.8633 25.1354C17.9946 25.1488 18.1033 25.1559 18.179 25.1598C18.2163 25.1616 18.2455 25.1627 18.2656 25.1633V24.6921C18.2503 24.6408 18.2444 24.5936 18.2545 24.5509C18.2652 24.5056 18.2929 24.4697 18.3362 24.4408C18.3786 24.4125 18.4368 24.3905 18.5111 24.3716C18.5858 24.3526 18.6789 24.3363 18.7926 24.3206L18.7943 24.3204C18.8326 24.3172 18.8534 24.3021 18.866 24.2835C18.8796 24.2634 18.8858 24.2355 18.8867 24.2042C18.8876 24.1733 18.8832 24.1421 18.8783 24.1183C18.8774 24.1138 18.8765 24.1096 18.8756 24.1057C18.8683 24.1068 18.8596 24.1082 18.8497 24.1096C18.8148 24.1148 18.7642 24.1218 18.7007 24.1292C18.574 24.1439 18.396 24.1601 18.1913 24.166C17.7827 24.1778 17.2641 24.1486 16.8325 23.9823C16.2519 23.7453 15.9184 23.3988 15.7307 23.1108C15.6369 22.9669 15.5795 22.8378 15.5455 22.7443C15.5443 22.741 15.5431 22.7378 15.5419 22.7345ZM18.8984 24.0703L18.9282 24.0607L18.9198 24.0348L18.8923 24.0397L18.8984 24.0703ZM24.4761 22.5808L24.4765 22.5827L24.4775 22.5886C24.4784 22.5937 24.4797 22.6013 24.4815 22.6112C24.4851 22.6309 24.4905 22.6596 24.4977 22.695C24.512 22.7659 24.5334 22.8639 24.5615 22.9726C24.6181 23.1911 24.7011 23.4486 24.8076 23.616L24.8142 23.6264L24.812 23.6385C24.6677 24.4239 23.888 24.819 23.1606 25.0184C22.7951 25.1186 22.4388 25.1706 22.1741 25.1976C22.0416 25.2111 21.932 25.2183 21.8553 25.2222C21.817 25.2241 21.787 25.2252 21.7664 25.2258C21.7562 25.2261 21.7483 25.2263 21.7429 25.2264L21.7369 25.2265L21.7353 25.2266C21.7353 25.2266 21.7347 25.2266 21.7344 25.1953L21.7353 25.2266L21.7031 25.2269V24.6839L21.7039 24.6805C21.715 24.6326 21.7149 24.5966 21.7053 24.568C21.6961 24.5402 21.6765 24.5157 21.6406 24.4933C21.6041 24.4704 21.5518 24.4504 21.4795 24.4322C21.4077 24.414 21.3179 24.3981 21.2074 24.3826C21.1537 24.3777 21.1171 24.3532 21.0959 24.3167C21.0758 24.2821 21.0717 24.2405 21.0733 24.2037C21.0749 24.1664 21.0825 24.1303 21.0896 24.104C21.0931 24.0907 21.0966 24.0797 21.0991 24.0719C21.1004 24.068 21.1015 24.0649 21.1023 24.0627L21.1032 24.0602L21.1036 24.0592C21.1036 24.0592 21.1036 24.0592 21.1328 24.0703L21.1382 24.0395L21.1415 24.0401C21.1425 24.0403 21.1437 24.0405 21.1451 24.0407C21.1469 24.041 21.149 24.0414 21.1515 24.0418C21.1603 24.0432 21.1734 24.0453 21.1905 24.0478C21.2245 24.0529 21.2742 24.0598 21.3365 24.0671C21.4612 24.0817 21.6363 24.0977 21.8378 24.1035C22.2416 24.1152 22.7482 24.0858 23.1681 23.9241C23.7277 23.6925 24.0391 23.3554 24.2107 23.0773C24.2966 22.9381 24.3477 22.8135 24.3772 22.7239C24.3919 22.6791 24.4013 22.6431 24.4069 22.6185C24.4098 22.6062 24.4116 22.5967 24.4128 22.5904C24.4134 22.5873 24.4138 22.5849 24.4141 22.5834L24.4143 22.5817C24.4142 22.5817 24.4143 22.5817 24.4143 22.5817L24.4761 22.5808ZM21.1328 24.0703L21.1382 24.0395L21.1128 24.0351L21.1036 24.0592L21.1328 24.0703ZM21.1541 24.1055C21.1528 24.1099 21.1514 24.1148 21.1499 24.1201C21.1435 24.1441 21.137 24.1754 21.1357 24.2064C21.1344 24.2381 21.1385 24.2657 21.1499 24.2853C21.1601 24.3028 21.1779 24.3173 21.2136 24.3204L21.2153 24.3206C21.327 24.3363 21.4196 24.3526 21.4948 24.3716C21.5698 24.3904 21.6293 24.4124 21.6738 24.4403C21.719 24.4686 21.7497 24.5037 21.7646 24.5482C21.7789 24.5909 21.7773 24.6386 21.7656 24.691V25.1633C21.7857 25.1627 21.815 25.1616 21.8522 25.1598C21.9279 25.1559 22.0365 25.1488 22.1677 25.1354C22.4303 25.1087 22.783 25.0572 23.1441 24.9581C23.866 24.7602 24.6056 24.3771 24.7483 23.639C24.6393 23.4628 24.5566 23.203 24.501 22.9883C24.4754 22.8893 24.4553 22.799 24.441 22.7297C24.4396 22.7342 24.4381 22.7388 24.4365 22.7434C24.4057 22.8369 24.3528 22.9662 24.2639 23.1102C24.086 23.3985 23.7646 23.7449 23.1916 23.982C22.7601 24.1483 22.2427 24.1778 21.836 24.166C21.6323 24.1601 21.4553 24.1439 21.3293 24.1292C21.2662 24.1218 21.2159 24.1148 21.1812 24.1096C21.1707 24.1081 21.1616 24.1067 21.1541 24.1055Z" fill="black"/>
<path d="M15.4453 23.0469C14.6797 22.6328 15.2812 22.2031 15.3437 20.9688C15.4609 21.7188 16.3125 22.0312 16.2109 22.5156C15.8594 22.5312 15.6953 22 15.5312 22.5859L15.4453 23.0469ZM24.5625 23.0469C25.3281 22.6172 24.6953 22.2031 24.6328 20.9688C24.5156 21.7188 23.6797 22.0312 23.7734 22.5156C24.1172 22.5312 24.2812 22 24.4453 22.5859L24.5625 23.0312V23.0469Z" fill="white"/>
<path fill-rule="evenodd" clip-rule="evenodd" d="M15.3125 20.9672L15.3746 20.9639C15.4316 21.3283 15.6668 21.5874 15.8823 21.8206C15.8853 21.8238 15.8882 21.827 15.8912 21.8302C15.9947 21.9422 16.094 22.0495 16.1614 22.1586C16.2312 22.2718 16.2691 22.3904 16.2415 22.522L16.2365 22.5458L16.2123 22.5468C16.1161 22.5511 16.0339 22.5178 15.964 22.4779C15.9291 22.458 15.8967 22.4361 15.8671 22.4161C15.8371 22.3958 15.8106 22.3779 15.7858 22.3643C15.7609 22.3507 15.7404 22.3431 15.7228 22.3414C15.7065 22.3399 15.6915 22.3434 15.6759 22.355C15.6594 22.3674 15.6408 22.39 15.6211 22.4293C15.6016 22.4682 15.5818 22.5215 15.5617 22.593L15.4682 23.0948L15.4304 23.0744C15.2359 22.9692 15.1231 22.8603 15.0689 22.7333C15.0149 22.6067 15.0217 22.4679 15.0533 22.3093C15.0718 22.2166 15.0987 22.1166 15.1284 22.0064C15.2011 21.7359 15.2904 21.4038 15.3125 20.9672ZM15.3603 21.1649C15.325 21.5164 15.2491 21.7989 15.187 22.0298C15.158 22.1377 15.132 22.2344 15.1146 22.3215C15.0838 22.4764 15.0799 22.5998 15.1264 22.7088C15.1696 22.81 15.2585 22.9037 15.4226 22.9984L15.5008 22.5788L15.5012 22.5775C15.522 22.5032 15.5431 22.4454 15.5652 22.4013C15.5872 22.3575 15.6111 22.3254 15.6385 22.3049C15.6669 22.2837 15.6974 22.2763 15.7286 22.2792C15.7586 22.282 15.7879 22.2943 15.8158 22.3095C15.8432 22.3245 15.8718 22.3438 15.9006 22.3633L15.9022 22.3644C15.9319 22.3845 15.9625 22.4051 15.995 22.4237C16.053 22.4568 16.1152 22.4821 16.1847 22.4845C16.1988 22.3833 16.1682 22.2887 16.1082 22.1915C16.044 22.0876 15.9484 21.9841 15.8428 21.8699C15.8407 21.8676 15.8386 21.8653 15.8364 21.863C15.6595 21.6717 15.4587 21.4527 15.3603 21.1649ZM24.1009 21.8207C24.3135 21.5876 24.545 21.3284 24.6019 20.9639L24.664 20.9672C24.6867 21.4144 24.7841 21.7503 24.863 22.0225C24.8924 22.1239 24.9192 22.2165 24.9387 22.3027C24.9742 22.4602 24.9853 22.5985 24.9343 22.7261C24.8832 22.854 24.7723 22.965 24.5778 23.0741L24.5312 23.1002V23.0353L24.4152 22.5944C24.4152 22.5944 24.4152 22.5943 24.4152 22.5944C24.395 22.5223 24.3751 22.4684 24.3555 22.4293C24.3358 22.39 24.3172 22.3673 24.3007 22.355C24.2852 22.3433 24.2704 22.3399 24.2542 22.3414C24.2368 22.3431 24.2165 22.3507 24.1918 22.3643C24.1673 22.3778 24.1411 22.3957 24.1115 22.416C24.0825 22.4359 24.0502 22.458 24.016 22.4778C23.9473 22.5177 23.8665 22.5511 23.772 22.5468L23.7474 22.5457L23.7428 22.5216C23.7173 22.3902 23.7556 22.2718 23.8251 22.1587C23.8917 22.0501 23.9892 21.9433 24.0908 21.8318L24.1009 21.8207ZM24.5859 22.9972C24.749 22.8995 24.8357 22.8043 24.8763 22.7029C24.92 22.5934 24.9125 22.4705 24.8777 22.3165C24.8593 22.235 24.8334 22.1454 24.8046 22.0461C24.737 21.8131 24.6539 21.5264 24.6166 21.165C24.5191 21.4526 24.3216 21.6715 24.1471 21.8629L24.1393 21.8714C24.0357 21.985 23.9418 22.0879 23.8783 22.1914C23.8187 22.2886 23.7876 22.3833 23.8001 22.4845C23.8673 22.4818 23.9279 22.4567 23.9847 22.4238C24.0167 22.4052 24.0467 22.3846 24.0762 22.3645C24.1049 22.3448 24.1342 22.3247 24.1617 22.3095C24.1893 22.2943 24.2184 22.282 24.2483 22.2792C24.2795 22.2763 24.3099 22.2837 24.3382 22.3049C24.3655 22.3254 24.3894 22.3575 24.4114 22.4013C24.4335 22.4454 24.4546 22.5032 24.4754 22.5775L24.5859 22.9972Z" fill="black"/>
<path d="M15.9141 23.6172L15.9922 23.6797L15.8125 23.8828C15.7344 23.9609 15.7187 24.0156 15.7734 24.0625C15.8359 24.125 15.8828 24.1016 15.9453 24.0312L16.1484 23.8203L16.2109 23.8828L16.0156 24.1172C15.9062 24.2422 15.8047 24.2109 15.7187 24.1328C15.6406 24.0703 15.6016 23.9688 15.7187 23.8438L15.9141 23.6172ZM16.25 23.8984L16.3281 23.9531L16.3125 24.3438L16.5 24.0625L16.5781 24.1172L16.3125 24.5469L16.2109 24.5L16.2266 24.1016L16.0469 24.3828L15.9687 24.3359L16.25 23.8984ZM16.3984 24.6016L16.6328 24.1328L16.7109 24.1797L16.5 24.6328L16.3984 24.6016ZM16.7656 24.2031L16.5781 24.6797L16.7656 24.75C16.9375 24.8125 17.0156 24.7344 17.0703 24.5937C17.125 24.4375 17.1016 24.3359 16.9297 24.2656L16.7656 24.2031ZM16.8281 24.3203C17 24.375 17.0156 24.4453 16.9688 24.5547C16.9219 24.6719 16.875 24.7109 16.7109 24.6328L16.8281 24.3203ZM17.3125 24.3828L17.0156 24.8359L17.1328 24.8672L17.1953 24.75L17.3984 24.7969L17.4141 24.9141L17.5312 24.9297L17.4141 24.3984L17.3125 24.3828ZM17.3438 24.5L17.3828 24.7031L17.25 24.6875L17.3438 24.5ZM17.6016 24.4219L17.5781 24.9453H17.7734C17.9609 24.9453 18.0078 24.8516 18.0156 24.6953C18.0156 24.5391 17.9609 24.4453 17.7812 24.4375L17.6016 24.4219ZM17.6953 24.5156C17.8828 24.5156 17.9141 24.5781 17.9062 24.7031C17.9062 24.8281 17.875 24.8828 17.6875 24.8594L17.6953 24.5156ZM19.3438 25.1484V25.6797H19.4609V25.4844C19.4609 25.4844 19.5625 25.4844 19.6484 25.4688C19.7109 25.4531 19.7578 25.4062 19.7578 25.3047C19.7578 25.2031 19.7031 25.1484 19.6016 25.1484H19.3438ZM19.4609 25.2266L19.5781 25.2344C19.6797 25.2344 19.6562 25.3828 19.5781 25.3828H19.4609V25.2266ZM19.9453 25.1484L19.7266 25.6797H19.8438L19.8984 25.5469H20.1172L20.1641 25.6797H20.2812L20.0625 25.1484H19.9453ZM20 25.2656L20.0781 25.4688H19.9297L20 25.2656ZM20.2812 25.5781L20.5625 25.2344H20.3125V25.1562H20.7109V25.2344L20.4141 25.5859H20.7109V25.6875H20.2812V25.5781ZM21.9609 24.5469L22.0625 24.5312L22.1094 24.8359C22.1328 24.9375 22.0781 25.0156 22.0078 25.0391C21.9219 25.0703 21.8125 25.0391 21.7969 24.8984L21.875 24.8828C21.8984 24.9688 21.9375 24.9766 21.9766 24.9609C22.0078 24.9531 22.0234 24.8984 22.0156 24.8516L21.9609 24.5469ZM22.1328 24.5234L22.2266 24.5L22.2734 24.75C22.2969 24.8594 22.3281 24.9062 22.3984 24.8906C22.4766 24.875 22.4922 24.8281 22.4766 24.7344L22.4141 24.4688L22.5156 24.4531L22.5781 24.7266C22.6172 24.8828 22.5391 24.9609 22.4219 24.9766C22.3203 24.9922 22.2188 24.9688 22.1875 24.8125L22.1328 24.5234ZM22.6484 24.75L22.7266 24.7188C22.7734 24.7969 22.8359 24.7891 22.8828 24.7656C22.9531 24.7344 22.9609 24.6719 22.9297 24.6562C22.875 24.625 22.7656 24.6641 22.6953 24.6406C22.625 24.6172 22.5938 24.5703 22.5938 24.5078C22.6016 24.4297 22.6719 24.3906 22.75 24.3672C22.8281 24.3438 22.9062 24.3516 22.9609 24.4453L22.8672 24.4844C22.8281 24.4297 22.7891 24.4297 22.75 24.4453C22.7188 24.4609 22.6719 24.4922 22.6953 24.5391C22.7188 24.5703 22.8438 24.5469 22.9062 24.5469C22.9766 24.5469 23.0312 24.6016 23.0391 24.6641C23.0469 24.75 23.0156 24.7969 22.9141 24.8438C22.7812 24.8906 22.6719 24.8359 22.6484 24.75ZM23.0938 24.3359L22.9609 24.3984L22.9297 24.3203L23.2969 24.1641L23.3281 24.2344L23.1953 24.2969L23.3516 24.6641L23.2656 24.7188L23.0938 24.3359ZM23.3125 24.1484L23.3906 24.1016L23.625 24.5312L23.5469 24.5859L23.3125 24.1484ZM23.8828 24.1797L23.9766 24.1484C23.988 24.1795 23.9917 24.2129 23.9873 24.2458C23.9829 24.2786 23.9706 24.3099 23.9513 24.3369C23.932 24.3638 23.9065 24.3857 23.8768 24.4005C23.8472 24.4153 23.8144 24.4227 23.7812 24.4219C23.5312 24.4219 23.5 24.1406 23.5469 24.0469C23.6094 23.8906 23.7969 23.8984 23.8828 23.9844L23.7969 24.0469C23.7422 23.9844 23.625 24.0234 23.6172 24.0859C23.6102 24.1343 23.6185 24.1836 23.6409 24.2271C23.6633 24.2705 23.6987 24.3058 23.7422 24.3281C23.8203 24.3672 23.9375 24.2734 23.8828 24.1797ZM23.8281 23.8359L23.9062 23.7656L24.2187 24.1641L24.1328 24.2344L23.8281 23.8359ZM24.1406 23.5859L24.0625 23.6484L24.25 24.1484L24.3281 24.0703L24.2812 23.9687L24.4297 23.8359L24.5312 23.8828L24.6094 23.8203L24.1406 23.5859ZM24.1797 23.7031L24.3438 23.7812L24.25 23.8828L24.1797 23.7031Z" fill="black"/>
</g>
<defs>
<clipPath id="clip0_17544_62220">
<path d="M0 20C0 8.95431 8.95431 0 20 0C31.0457 0 40 8.95431 40 20C40 31.0457 31.0457 40 20 40C8.95431 40 0 31.0457 0 20Z" fill="white"/>
</clipPath>
</defs>
</svg>
