<svg width="40" height="40" viewBox="0 0 40 40" fill="none" xmlns="http://www.w3.org/2000/svg">
<g clip-path="url(#clip0_17522_60594)">
<path d="M0 0H40V40H0V0Z" fill="black"/>
<path fill-rule="evenodd" clip-rule="evenodd" d="M-3.75 0H42.4609V40H-3.75V0Z" fill="#BE0027"/>
<path fill-rule="evenodd" clip-rule="evenodd" d="M-3.75 40L42.4609 39.9766V20L-3.75 40Z" fill="#B4D7F4"/>
<path fill-rule="evenodd" clip-rule="evenodd" d="M-3.75 0L42.4609 0.0234375V20L-3.75 0Z" fill="#239E46"/>
<path fill-rule="evenodd" clip-rule="evenodd" d="M11.625 27.4531C10.9453 27.6406 10.5547 28.1719 10.5625 28.6719L13.9062 28.6562C13.9375 28.1172 13.5 27.625 12.8281 27.4297C16.1094 27.3672 18.9531 26.1328 19.4687 25.3516C18.9609 25.125 18.3672 25.4844 17.9453 25.3984C18.9453 24.9375 21.9453 22.9922 21.4609 20.9141C21.0659 21.9023 20.3579 22.7338 19.4453 23.2812C20.5625 21.5781 22.1016 19.8047 20.7734 18.4375C20.8359 19.2344 20.2578 20.1094 20.0078 20.1719C20.6562 18.375 21.2812 16.1094 19.8672 14.625C20.0547 15.1641 19.9844 16.6797 19.7266 16.75C19.6484 15.5234 19.4375 12.9531 18.1484 12.9922C18.5625 13.3516 18.7344 14.3516 18.75 15.3516C18.4531 14.6641 18.125 14.1484 17.4062 13.6328C16.7699 12.5309 15.8639 11.6088 14.7734 10.9531C14.7928 11.4136 14.9247 11.8623 15.1576 12.26C15.3905 12.6577 15.7173 12.9922 16.1094 13.2344C15.5234 13.1953 14.9375 12.0859 14.3125 12.0547C13.8125 12.0312 13.4219 12.5078 12.6016 12.2344C12.6953 12.5 13.0703 12.625 13.1484 12.8203C12.9844 12.9375 12.5625 12.8047 12.2187 12.625C12.6953 13.2656 13.4297 13.6406 14.0547 13.5156C14.7969 13.375 15.5938 13.4531 16.3516 13.8828C15.8786 13.9819 15.3917 13.9951 14.9141 13.9219C15.3594 14.3672 15.6484 14.6641 16.4141 14.6563C17.1016 14.6563 17.4609 14.2969 17.6328 14.5156C18.0625 15.0234 18.3516 15.5312 18.7109 16.125C17.9141 16.2188 18.1562 15.2344 17.2734 14.7266C16.7812 15.7578 17.8437 16.9688 18.5703 17.4766C18.5703 18.25 18.6875 18.8828 19.0156 19.4766C19.2344 19.8906 19.5234 20.3125 19.4141 21.25C18.9844 20.9375 18.5547 19.8672 18.7109 19.0234C18.1641 19.1719 17.9609 20.1172 18.2109 20.6016C18.4062 20.9688 18.5312 21.6719 18.3125 21.9844C18.0937 22.2734 18.0781 22.2422 18.0781 22.8672C18.0781 23.2422 17.875 23.6875 17.5312 23.9922C17.6094 23.7344 17.6875 23.2734 17.6094 22.9922C17.3359 23.4531 16.6641 23.9219 16.4531 24.4141C16.2422 24.9062 16.1875 25.7578 15.1797 25.9531C13.875 26.2109 13.4219 26.4375 12.5859 26.7812C12.4922 26.1484 12.7734 24.8203 13.3047 24.8984C13.8281 24.9922 15.3984 24.3516 14.8359 23.0234C14.7266 23.4453 14.3516 23.8516 13.9531 23.875C14.3828 23.3125 15.1562 22.7266 14.7812 21.7891C14.5547 22.2653 14.1934 22.6646 13.7422 22.9375C14.2812 21.9141 13.8047 21.6094 13.1719 22.4453C12.9375 22.7734 12.7812 23.4297 12.6328 24.2578C12.3828 23.5859 12.3984 22.6953 12.1016 21.9766C11.7891 21.1953 12.5156 20.9844 12.8516 21.0469C13.6797 21.2734 15.0703 21.2734 14.9609 19.8984C14.6094 20.3672 13.9766 20.5078 13.2969 20.3438C14.0625 19.7812 14.6641 18.7422 13.8125 18.1953C13.7736 18.5178 13.6556 18.8257 13.4688 19.0915C13.2821 19.3574 13.0324 19.5728 12.7422 19.7188C12.6042 19.2054 12.5961 18.6657 12.7188 18.1484C12.3828 18.5 12.1406 19.2266 11.9453 20.0625C11.9393 19.4334 12.0261 18.8068 12.2031 18.2031C12.375 17.5547 12.8125 17.9766 13.4766 18.0234C14.1172 18.0625 15 17.7109 14.8359 16.8359C14.6172 17.1797 14.1641 17.3125 13.7031 17.2812C14.2578 16.9453 15.2188 16.3438 14.6953 15.4375C14.4688 15.7813 14.3984 16.0781 13.7578 16.1875C13.9219 15.7969 13.9531 15.25 14.4531 15.0391C13.5625 14.8594 13.0547 15.4453 12.7969 16.3516C12.6875 15.7266 12.5625 15.4922 12.5391 15.0234C13.0234 14.4922 13.0703 13.4453 12.0312 13.2188C11.9687 13.75 11.9922 13.8828 12.1094 14.3125C11.6172 14.0312 10.9375 13.8672 10.4688 14.2812C10.7812 14.6172 11.2656 14.9062 12.0078 14.5469C11.8281 15.1172 11.375 15.0156 10.75 14.7969C11.1328 15.5156 11.6094 15.6484 12.1484 15.5625C12.4219 16.2969 12.4375 16.8516 11.625 17.9219C11.6562 17.2578 11.6094 16.7656 11.0781 16.2266C10.6328 15.7812 10.2656 16.25 10.9687 17.2344C10.4542 16.8259 10.0867 16.2609 9.92188 15.625C9.78125 16.4141 9.90625 17.3438 10.3437 17.875C10.1328 18.0938 9.89844 17.8516 9.55469 17.3125C9.67969 19.0469 10.4219 19.375 11.4219 18.9922C11.4453 19.9453 11.4453 20.8281 11.5 21.9766C11.0699 21.3054 10.4792 20.7523 9.78125 20.3672C9.64844 20.8359 10.1328 21.4375 10.4062 21.7734C9.99219 21.6953 9.10156 21.0156 9.10156 21.0156C9.00781 21.7891 10.0078 22.5 10.6562 22.8203C9.89844 22.7891 9.5625 22.5078 9.07031 22.0391C9.07812 24.1797 11.3906 23.8047 11.8281 23.4766L12.0234 26.8047C11.3672 26.6953 11.4219 26.4922 10.8594 26.4453C9.30469 26.3828 8.07031 24.5781 7.66406 23.25C7.54688 23.4688 7.64062 23.6953 7.53125 23.9688C7.28125 23.3125 6.96094 22.4766 6.52344 22.0859C6.63281 22.4609 6.64844 22.8516 6.60938 23.5547C6.46094 23.0938 6.32031 22.9531 6.3125 22.4141C6.32031 22 6.71094 21.6953 6.69531 21.1094C6.67969 20.6875 6.28906 19.7656 6.22656 19.0469C6.03906 19.7891 5.92188 20.5625 5.63281 21.0156C5.78125 20.2344 5.73438 19.6875 5.97656 19.1641C6.25781 18.6016 6.49219 18.1094 6.30469 17.5469C6.125 17.7656 6.1875 17.9609 5.74219 18.4844C5.64062 17.9141 6.32031 17 6.97656 16.625C7.44531 16.3906 8.02344 15.5078 7.64844 14.9062C7.21094 15.2188 7.01562 15.6484 6.39844 16.3672C6.83594 14.6484 7.97656 14.2031 9.34375 14.1953C9.65625 14.1953 10.2578 14.0859 10.4375 13.6875C10.0469 13.8359 9.58594 13.8516 9.1875 13.7656C9.47656 13.3438 10.1016 13.3984 10.6797 13.3906C11.1328 13.3906 11.8438 13.3281 12.1328 12.6875C11.5041 12.9275 10.8168 12.9684 10.1641 12.8047C11.0312 12.3516 12.3906 12.3047 13.0859 11.7109C12.2891 11.125 10.3047 11.8594 9.05469 12.7188C9.40625 12.3984 9.96094 11.8281 10.2656 11.3672C9.57812 11.0391 7.84375 12.9609 7.25 14.1016C6.6875 14.4141 6.46094 14.9219 6.23438 15.2734C6.54688 14.25 6.57031 13.5078 6.82031 12.6719C4.88281 13.3359 5.6875 16.9297 5.26562 17.7891C5.3125 16.8359 5.27344 15.6172 4.88281 14.9922C4.28906 15.4453 4.23438 18.1328 4.80469 20.375C4.59375 19.7734 4.21094 19.2109 4.09375 18.4844C3.20313 20.1016 4.60938 22 5.78125 23.5078C4.84688 22.9279 4.05195 22.1489 3.45312 21.2266C3.60937 24.1172 6.63281 24.7188 7.10156 25.4297C6.46094 25.1328 5.25 24.5469 4.72656 25.1641C5.45164 25.2989 6.14721 25.5608 6.78125 25.9375C7.5625 26.9141 9.04688 27.3438 11.625 27.4531Z" fill="#F3E295"/>
</g>
<defs>
<clipPath id="clip0_17522_60594">
<path d="M0 4C0 1.79086 1.79086 0 4 0H36C38.2091 0 40 1.79086 40 4V36C40 38.2091 38.2091 40 36 40H4C1.79086 40 0 38.2091 0 36V4Z" fill="white"/>
</clipPath>
</defs>
</svg>
