<svg width="40" height="40" viewBox="0 0 40 40" fill="none" xmlns="http://www.w3.org/2000/svg">
<g clip-path="url(#clip0_17544_61288)">
<path d="M-0.0118904 -0.000793457H39.9731V39.9842H-0.0118904V-0.000793457Z" fill="black"/>
<path fill-rule="evenodd" clip-rule="evenodd" d="M-18.5866 0.27705H62.4621V39.167H-18.5947L-18.5866 0.27705Z" fill="#FFC621"/>
<path fill-rule="evenodd" clip-rule="evenodd" d="M-18.75 26.7458H62.4131V39.9842H-18.75V26.7458Z" fill="#EF2118"/>
<path fill-rule="evenodd" clip-rule="evenodd" d="M-18.5866 -0.000793457H62.4621V14.0548H-18.5866V-0.000793457Z" fill="#298C08"/>
<path d="M20.4597 29.0372C25.1013 29.0372 28.8641 25.2744 28.8641 20.6328C28.8641 15.9912 25.1013 12.2284 20.4597 12.2284C15.8181 12.2284 12.0553 15.9912 12.0553 20.6328C12.0553 25.2744 15.8181 29.0372 20.4597 29.0372Z" fill="#006BC6"/>
<path fill-rule="evenodd" clip-rule="evenodd" d="M16.7159 14.7004L16.2256 15.0518L18.0561 17.6341L18.5464 17.3154L16.7159 14.7004ZM19.0204 20.7885L18.2686 20.2573L18.5791 19.2767L14.8201 19.3257L13.7332 18.4922L18.857 18.435L19.8131 15.5503L20.3116 16.727L19.0041 20.7966L19.0204 20.7885ZM24.994 15.2643L24.5037 14.8965L22.5997 17.4298L23.0491 17.7976L24.994 15.2643ZM19.8866 19.293L20.1563 18.4186H21.1941L20.0092 14.8475L20.475 13.5563L22.0767 18.435L25.1166 18.4676L24.1605 19.3093L19.8866 19.293ZM26.9635 23.2972L27.1678 22.7088L24.1769 21.6792L23.9644 22.2104L26.9635 23.289V23.2972ZM21.57 19.6689L22.4853 19.6526L22.8122 20.6414L25.8357 18.4186L27.2005 18.4676L23.0573 21.4912L23.9562 24.3923L22.8612 23.7385L21.5619 19.6689H21.57ZM20.0174 27.6365L20.6384 27.6447L20.663 24.4821L20.0909 24.4495L20.0255 27.6365H20.0174ZM21.7335 21.3605L22.0358 22.2267L21.2105 22.8559L24.2831 25.0215L24.6753 26.329L20.4913 23.3708L18.0316 25.1441L18.3013 23.9019L21.7416 21.3687L21.7335 21.3605ZM13.6678 22.3738L13.8558 22.9622L16.8712 22.0061L16.7241 21.4504L13.6678 22.3738ZM20.1726 22.0633L19.4372 22.619L18.5873 22.0142L17.4841 25.6099L16.3564 26.3862L17.8845 21.4831L15.433 19.7016L16.6996 19.5708L20.1726 22.0633Z" fill="#FFC621"/>
</g>
<defs>
<clipPath id="clip0_17544_61288">
<path d="M0 20C0 8.95431 8.95431 0 20 0C31.0457 0 40 8.95431 40 20C40 31.0457 31.0457 40 20 40C8.95431 40 0 31.0457 0 20Z" fill="white"/>
</clipPath>
</defs>
</svg>
