<svg width="40" height="40" viewBox="0 0 40 40" fill="none" xmlns="http://www.w3.org/2000/svg">
<g clip-path="url(#clip0_17544_61298)">
<path d="M0 0H40V40H0V0Z" fill="#003399"/>
<path d="M20 6.36034L19.4074 8.33565L20.3951 8.53318L20 6.36034Z" fill="#FFCC00"/>
<path d="M20 6.36034L20.5926 8.33565L19.6049 8.53318L20 6.36034Z" fill="#FFCC00"/>
<path d="M21.8786 7.72524L19.8169 7.77206L19.9342 8.77242L21.8786 7.72524Z" fill="#FFCC00"/>
<path d="M21.8786 7.72524L20.1831 8.89924L19.6901 8.02096L21.8786 7.72524Z" fill="#FFCC00"/>
<path d="M21.1611 9.93371L20.4794 7.98733L19.5643 8.40805L21.1611 9.93371Z" fill="#FFCC00"/>
<path d="M21.1611 9.93371L19.5206 8.68397L20.2035 7.94363L21.1611 9.93371Z" fill="#FFCC00"/>
<path d="M18.1214 7.72524L20.1831 7.77206L20.0658 8.77242L18.1214 7.72524Z" fill="#FFCC00"/>
<path d="M18.1214 7.72524L19.8169 8.89924L20.3099 8.02096L18.1214 7.72524Z" fill="#FFCC00"/>
<path d="M18.8389 9.93371L19.5206 7.98733L20.4357 8.40805L18.8389 9.93371Z" fill="#FFCC00"/>
<path d="M18.8389 9.93371L20.4794 8.68397L19.7965 7.94363L18.8389 9.93371Z" fill="#FFCC00"/>
<path d="M20 30.064L19.4074 32.0394L20.3951 32.2369L20 30.064Z" fill="#FFCC00"/>
<path d="M20 30.064L20.5926 32.0394L19.6049 32.2369L20 30.064Z" fill="#FFCC00"/>
<path d="M21.8786 31.4289L19.8169 31.4758L19.9342 32.4761L21.8786 31.4289Z" fill="#FFCC00"/>
<path d="M21.8786 31.4289L20.1831 32.6029L19.6901 31.7247L21.8786 31.4289Z" fill="#FFCC00"/>
<path d="M21.1611 33.6374L20.4794 31.691L19.5643 32.1118L21.1611 33.6374Z" fill="#FFCC00"/>
<path d="M21.1611 33.6374L19.5206 32.3877L20.2035 31.6473L21.1611 33.6374Z" fill="#FFCC00"/>
<path d="M18.1214 31.4289L20.1831 31.4758L20.0658 32.4761L18.1214 31.4289Z" fill="#FFCC00"/>
<path d="M18.1214 31.4289L19.8169 32.6029L20.3099 31.7247L18.1214 31.4289Z" fill="#FFCC00"/>
<path d="M18.8389 33.6374L19.5206 31.691L20.4357 32.1118L18.8389 33.6374Z" fill="#FFCC00"/>
<path d="M18.8389 33.6374L20.4794 32.3877L19.7965 31.6473L18.8389 33.6374Z" fill="#FFCC00"/>
<path d="M8.14815 18.2122L7.55556 20.1875L8.54321 20.385L8.14815 18.2122Z" fill="#FFCC00"/>
<path d="M8.14815 18.2122L8.74074 20.1875L7.75309 20.385L8.14815 18.2122Z" fill="#FFCC00"/>
<path d="M10.0268 19.5771L7.96502 19.6239L8.08236 20.6243L10.0268 19.5771Z" fill="#FFCC00"/>
<path d="M10.0268 19.5771L8.33127 20.7511L7.8382 19.8728L10.0268 19.5771Z" fill="#FFCC00"/>
<path d="M9.30921 21.7856L8.62757 19.8392L7.71243 20.2599L9.30921 21.7856Z" fill="#FFCC00"/>
<path d="M9.30921 21.7856L7.66873 20.5358L8.35165 19.7955L9.30921 21.7856Z" fill="#FFCC00"/>
<path d="M6.26953 19.5771L8.33128 19.6239L8.21394 20.6243L6.26953 19.5771Z" fill="#FFCC00"/>
<path d="M6.26953 19.5771L7.96503 20.7511L8.45809 19.8728L6.26953 19.5771Z" fill="#FFCC00"/>
<path d="M6.98709 21.7856L7.66873 19.8392L8.58387 20.2599L6.98709 21.7856Z" fill="#FFCC00"/>
<path d="M6.98709 21.7856L8.62757 20.5358L7.94464 19.7955L6.98709 21.7856Z" fill="#FFCC00"/>
<path d="M13.0584 11.6111L14.6989 10.3613L14.016 9.62098L13.0584 11.6111Z" fill="#FFCC00"/>
<path d="M13.0584 11.6111L13.7401 9.66468L14.6552 10.0854L13.0584 11.6111Z" fill="#FFCC00"/>
<path d="M12.3408 9.40259L14.0364 10.5766L14.5294 9.69831L12.3408 9.40259Z" fill="#FFCC00"/>
<path d="M12.3408 9.40259L14.4026 9.44941L14.2853 10.4498L12.3408 9.40259Z" fill="#FFCC00"/>
<path d="M14.2195 8.03769L13.6269 10.013L14.6145 10.2105L14.2195 8.03769Z" fill="#FFCC00"/>
<path d="M14.2195 8.03769L14.8121 10.013L13.8244 10.2105L14.2195 8.03769Z" fill="#FFCC00"/>
<path d="M15.3805 11.6111L13.7401 10.3613L14.423 9.62098L15.3805 11.6111Z" fill="#FFCC00"/>
<path d="M15.3805 11.6111L14.6989 9.66468L13.7838 10.0854L15.3805 11.6111Z" fill="#FFCC00"/>
<path d="M16.0981 9.40259L14.4026 10.5766L13.9095 9.69831L16.0981 9.40259Z" fill="#FFCC00"/>
<path d="M16.0981 9.40259L14.0364 9.44941L14.1537 10.4498L16.0981 9.40259Z" fill="#FFCC00"/>
<path d="M10.9866 16.005L10.3049 14.0587L9.38978 14.4794L10.9866 16.005Z" fill="#FFCC00"/>
<path d="M10.9866 16.005L9.34608 14.7553L10.029 14.015L10.9866 16.005Z" fill="#FFCC00"/>
<path d="M8.66444 16.005L10.3049 14.7553L9.62199 14.015L8.66444 16.005Z" fill="#FFCC00"/>
<path d="M8.66444 16.005L9.34608 14.0587L10.2612 14.4794L8.66444 16.005Z" fill="#FFCC00"/>
<path d="M7.94687 13.7966L9.64238 14.9706L10.1354 14.0923L7.94687 13.7966Z" fill="#FFCC00"/>
<path d="M7.94687 13.7966L10.0086 13.8434L9.89128 14.8437L7.94687 13.7966Z" fill="#FFCC00"/>
<path d="M11.7041 13.7966L10.0086 14.9706L9.51555 14.0923L11.7041 13.7966Z" fill="#FFCC00"/>
<path d="M11.7041 13.7966L9.64238 13.8434L9.75972 14.8437L11.7041 13.7966Z" fill="#FFCC00"/>
<path d="M9.8255 12.4317L10.4181 14.407L9.43044 14.6045L9.8255 12.4317Z" fill="#FFCC00"/>
<path d="M9.8255 12.4317L9.23291 14.407L10.2206 14.6045L9.8255 12.4317Z" fill="#FFCC00"/>
<path d="M11.7063 25.6768L9.64456 25.7237L9.7619 26.724L11.7063 25.6768Z" fill="#FFCC00"/>
<path d="M11.7063 25.6768L10.0108 26.8508L9.51774 25.9726L11.7063 25.6768Z" fill="#FFCC00"/>
<path d="M10.9887 27.8853L10.3071 25.9389L9.39197 26.3597L10.9887 27.8853Z" fill="#FFCC00"/>
<path d="M10.9887 27.8853L9.34827 26.6356L10.0312 25.8952L10.9887 27.8853Z" fill="#FFCC00"/>
<path d="M8.66663 27.8853L10.3071 26.6356L9.62418 25.8952L8.66663 27.8853Z" fill="#FFCC00"/>
<path d="M8.66663 27.8853L9.34827 25.9389L10.2634 26.3597L8.66663 27.8853Z" fill="#FFCC00"/>
<path d="M9.82769 24.3119L10.4203 26.2873L9.43263 26.4848L9.82769 24.3119Z" fill="#FFCC00"/>
<path d="M9.82769 24.3119L9.2351 26.2873L10.2227 26.4848L9.82769 24.3119Z" fill="#FFCC00"/>
<path d="M7.94906 25.6768L10.0108 25.7237L9.89348 26.724L7.94906 25.6768Z" fill="#FFCC00"/>
<path d="M7.94906 25.6768L9.64457 26.8508L10.1376 25.9726L7.94906 25.6768Z" fill="#FFCC00"/>
<path d="M15.9934 29.6527L13.9317 29.6995L14.049 30.6999L15.9934 29.6527Z" fill="#FFCC00"/>
<path d="M15.9934 29.6527L14.2979 30.8267L13.8048 29.9484L15.9934 29.6527Z" fill="#FFCC00"/>
<path d="M15.2758 31.8612L14.5942 29.9148L13.6791 30.3355L15.2758 31.8612Z" fill="#FFCC00"/>
<path d="M15.2758 31.8612L13.6354 30.6114L14.3183 29.8711L15.2758 31.8612Z" fill="#FFCC00"/>
<path d="M12.9537 31.8612L14.5942 30.6114L13.9113 29.8711L12.9537 31.8612Z" fill="#FFCC00"/>
<path d="M12.9537 31.8612L13.6354 29.9148L14.5505 30.3355L12.9537 31.8612Z" fill="#FFCC00"/>
<path d="M14.1148 28.2878L14.7074 30.2631L13.7197 30.4606L14.1148 28.2878Z" fill="#FFCC00"/>
<path d="M14.1148 28.2878L13.5222 30.2631L14.5099 30.4606L14.1148 28.2878Z" fill="#FFCC00"/>
<path d="M12.2362 29.6527L14.2979 29.6995L14.1806 30.6999L12.2362 29.6527Z" fill="#FFCC00"/>
<path d="M12.2362 29.6527L13.9317 30.8267L14.4247 29.9484L12.2362 29.6527Z" fill="#FFCC00"/>
<path d="M31.8519 18.2122L32.4444 20.1875L31.4568 20.385L31.8519 18.2122Z" fill="#FFCC00"/>
<path d="M31.8519 18.2122L31.2593 20.1875L32.2469 20.385L31.8519 18.2122Z" fill="#FFCC00"/>
<path d="M29.9732 19.5771L32.035 19.6239L31.9176 20.6243L29.9732 19.5771Z" fill="#FFCC00"/>
<path d="M29.9732 19.5771L31.6687 20.7511L32.1618 19.8728L29.9732 19.5771Z" fill="#FFCC00"/>
<path d="M30.6908 21.7856L31.3724 19.8392L32.2876 20.2599L30.6908 21.7856Z" fill="#FFCC00"/>
<path d="M30.6908 21.7856L32.3313 20.5358L31.6483 19.7955L30.6908 21.7856Z" fill="#FFCC00"/>
<path d="M33.7305 19.5771L31.6687 19.6239L31.7861 20.6243L33.7305 19.5771Z" fill="#FFCC00"/>
<path d="M33.7305 19.5771L32.035 20.7511L31.5419 19.8728L33.7305 19.5771Z" fill="#FFCC00"/>
<path d="M33.0129 21.7856L32.3313 19.8392L31.4161 20.2599L33.0129 21.7856Z" fill="#FFCC00"/>
<path d="M33.0129 21.7856L31.3724 20.5358L32.0554 19.7955L33.0129 21.7856Z" fill="#FFCC00"/>
<path d="M26.9416 11.6111L25.3011 10.3613L25.984 9.62098L26.9416 11.6111Z" fill="#FFCC00"/>
<path d="M26.9416 11.6111L26.2599 9.66468L25.3448 10.0854L26.9416 11.6111Z" fill="#FFCC00"/>
<path d="M27.6592 9.40259L25.9636 10.5766L25.4706 9.69831L27.6592 9.40259Z" fill="#FFCC00"/>
<path d="M27.6592 9.40259L25.5974 9.44941L25.7147 10.4498L27.6592 9.40259Z" fill="#FFCC00"/>
<path d="M25.7805 8.03769L26.3731 10.013L25.3855 10.2105L25.7805 8.03769Z" fill="#FFCC00"/>
<path d="M25.7805 8.03769L25.1879 10.013L26.1756 10.2105L25.7805 8.03769Z" fill="#FFCC00"/>
<path d="M24.6195 11.6111L26.2599 10.3613L25.577 9.62098L24.6195 11.6111Z" fill="#FFCC00"/>
<path d="M24.6195 11.6111L25.3011 9.66468L26.2162 10.0854L24.6195 11.6111Z" fill="#FFCC00"/>
<path d="M23.9019 9.40259L25.5974 10.5766L26.0905 9.69831L23.9019 9.40259Z" fill="#FFCC00"/>
<path d="M23.9019 9.40259L25.9636 9.44941L25.8463 10.4498L23.9019 9.40259Z" fill="#FFCC00"/>
<path d="M29.0134 16.005L29.6951 14.0587L30.6102 14.4794L29.0134 16.005Z" fill="#FFCC00"/>
<path d="M29.0134 16.005L30.6539 14.7553L29.971 14.015L29.0134 16.005Z" fill="#FFCC00"/>
<path d="M31.3356 16.005L29.6951 14.7553L30.378 14.015L31.3356 16.005Z" fill="#FFCC00"/>
<path d="M31.3356 16.005L30.6539 14.0587L29.7388 14.4794L31.3356 16.005Z" fill="#FFCC00"/>
<path d="M32.0531 13.7966L30.3576 14.9706L29.8646 14.0923L32.0531 13.7966Z" fill="#FFCC00"/>
<path d="M32.0531 13.7966L29.9914 13.8434L30.1087 14.8437L32.0531 13.7966Z" fill="#FFCC00"/>
<path d="M28.2959 13.7966L29.9914 14.9706L30.4844 14.0923L28.2959 13.7966Z" fill="#FFCC00"/>
<path d="M28.2959 13.7966L30.3576 13.8434L30.2403 14.8437L28.2959 13.7966Z" fill="#FFCC00"/>
<path d="M30.1745 12.4317L29.5819 14.407L30.5696 14.6045L30.1745 12.4317Z" fill="#FFCC00"/>
<path d="M30.1745 12.4317L30.7671 14.407L29.7794 14.6045L30.1745 12.4317Z" fill="#FFCC00"/>
<path d="M28.2937 25.6768L30.3554 25.7237L30.2381 26.724L28.2937 25.6768Z" fill="#FFCC00"/>
<path d="M28.2937 25.6768L29.9892 26.8508L30.4823 25.9726L28.2937 25.6768Z" fill="#FFCC00"/>
<path d="M29.0113 27.8853L29.6929 25.9389L30.608 26.3597L29.0113 27.8853Z" fill="#FFCC00"/>
<path d="M29.0113 27.8853L30.6517 26.6356L29.9688 25.8952L29.0113 27.8853Z" fill="#FFCC00"/>
<path d="M31.3334 27.8853L29.6929 26.6356L30.3758 25.8952L31.3334 27.8853Z" fill="#FFCC00"/>
<path d="M31.3334 27.8853L30.6517 25.9389L29.7366 26.3597L31.3334 27.8853Z" fill="#FFCC00"/>
<path d="M30.1723 24.3119L29.5797 26.2873L30.5674 26.4848L30.1723 24.3119Z" fill="#FFCC00"/>
<path d="M30.1723 24.3119L30.7649 26.2873L29.7773 26.4848L30.1723 24.3119Z" fill="#FFCC00"/>
<path d="M32.0509 25.6768L29.9892 25.7237L30.1065 26.724L32.0509 25.6768Z" fill="#FFCC00"/>
<path d="M32.0509 25.6768L30.3554 26.8508L29.8624 25.9726L32.0509 25.6768Z" fill="#FFCC00"/>
<path d="M24.0066 29.6527L26.0683 29.6995L25.951 30.6999L24.0066 29.6527Z" fill="#FFCC00"/>
<path d="M24.0066 29.6527L25.7021 30.8267L26.1952 29.9484L24.0066 29.6527Z" fill="#FFCC00"/>
<path d="M24.7242 31.8612L25.4058 29.9148L26.3209 30.3355L24.7242 31.8612Z" fill="#FFCC00"/>
<path d="M24.7242 31.8612L26.3646 30.6114L25.6817 29.8711L24.7242 31.8612Z" fill="#FFCC00"/>
<path d="M27.0463 31.8612L25.4058 30.6114L26.0887 29.8711L27.0463 31.8612Z" fill="#FFCC00"/>
<path d="M27.0463 31.8612L26.3646 29.9148L25.4495 30.3355L27.0463 31.8612Z" fill="#FFCC00"/>
<path d="M25.8852 28.2878L25.2926 30.2631L26.2803 30.4606L25.8852 28.2878Z" fill="#FFCC00"/>
<path d="M25.8852 28.2878L26.4778 30.2631L25.4901 30.4606L25.8852 28.2878Z" fill="#FFCC00"/>
<path d="M27.7638 29.6527L25.7021 29.6995L25.8194 30.6999L27.7638 29.6527Z" fill="#FFCC00"/>
<path d="M27.7638 29.6527L26.0683 30.8267L25.5753 29.9484L27.7638 29.6527Z" fill="#FFCC00"/>
</g>
<defs>
<clipPath id="clip0_17544_61298">
<path d="M0 20C0 8.95431 8.95431 0 20 0C31.0457 0 40 8.95431 40 20C40 31.0457 31.0457 40 20 40C8.95431 40 0 31.0457 0 20Z" fill="white"/>
</clipPath>
</defs>
</svg>
