<svg width="40" height="40" viewBox="0 0 40 40" fill="none" xmlns="http://www.w3.org/2000/svg">
<g clip-path="url(#clip0_17522_60601)">
<path d="M0.00112534 0H39.9911V39.99H0.00112534V0Z" fill="black"/>
<path fill-rule="evenodd" clip-rule="evenodd" d="M-19.6875 0H60.3006V39.99H-19.6875V0Z" fill="#6797D6"/>
<path fill-rule="evenodd" clip-rule="evenodd" d="M21.2619 6.81281H24.3902L21.8505 8.53819L22.818 11.3439L20.2944 9.6105L17.7547 11.3439L18.7223 8.53819L16.1906 6.80475H19.335L20.3025 4.00706M21.27 33.2739H24.3982L21.8586 31.5405L22.8261 28.7347L20.3025 30.4682L17.7628 28.7347L18.7303 31.5405L16.1987 33.2739H19.335L20.3025 36.0716M8.20875 18.5518L11.208 17.6327L9.28106 20.0353L11.0306 22.4299L8.10394 21.5107L6.18506 23.9134L6.29794 20.9464L3.36319 20.0273L6.36244 19.1162L6.46725 16.1492M32.3479 18.5518L29.3567 17.6327L31.2756 20.0273L29.526 22.4299L32.4607 21.5107L34.3716 23.9134L34.2668 20.9464L37.2015 20.0273L34.2023 19.1162L34.0974 16.1492" fill="white"/>
</g>
<defs>
<clipPath id="clip0_17522_60601">
<path d="M0 4C0 1.79086 1.79086 0 4 0H36C38.2091 0 40 1.79086 40 4V36C40 38.2091 38.2091 40 36 40H4C1.79086 40 0 38.2091 0 36V4Z" fill="white"/>
</clipPath>
</defs>
</svg>
