<svg width="40" height="40" viewBox="0 0 40 40" fill="none" xmlns="http://www.w3.org/2000/svg">
<g clip-path="url(#clip0_17544_69886)">
<path d="M0 0H40V40H0V0Z" fill="#002395"/>
<path d="M0 0H24.3984V16.4062H0V0Z" fill="white"/>
<path d="M0 0H8V16H0V0Z" fill="#002395"/>
<path d="M16 0H24V16H16V0Z" fill="#ED2939"/>
<path d="M22.0625 18.2969L23.3516 20.3516H27.0156V27.5L24.2578 23.2031L20.5625 29.1016H22.3594L24.2656 25.7031L28.1641 32.7031L32.0625 25.7031L33.9609 29.1016H35.7578L32.0703 23.2031L29.3203 27.5V23.5469H30.9687L32.1953 21.5938H29.3203V20.3438H32.9844L34.2734 18.2969H22.0625ZM26.3594 27.0469H22.3594V28.4531H26.3594V27.0469ZM33.9609 27.0469H29.9609V28.4531H33.9609V27.0469Z" fill="white"/>
<path d="M28.1625 34.1L29.3925 37.9L26.1625 35.55H30.1625L26.9325 37.9L28.1625 34.1Z" fill="white"/>
<path d="M23.6625 30.7L24.8925 34.5L21.6625 32.15H25.6625L22.4325 34.5L23.6625 30.7Z" fill="white"/>
<path d="M32.6625 30.7L33.8925 34.5L30.6625 32.15H34.6625L31.4325 34.5L32.6625 30.7Z" fill="white"/>
<path d="M19.8625 20.6L21.0925 24.4L17.8625 22.05H21.8625L18.6325 24.4L19.8625 20.6Z" fill="white"/>
<path d="M36.4625 20.6L37.6925 24.4L34.4625 22.05H38.4625L35.2325 24.4L36.4625 20.6Z" fill="white"/>
</g>
<defs>
<clipPath id="clip0_17544_69886">
<path d="M0 20C0 8.95431 8.95431 0 20 0C31.0457 0 40 8.95431 40 20C40 31.0457 31.0457 40 20 40C8.95431 40 0 31.0457 0 20Z" fill="white"/>
</clipPath>
</defs>
</svg>
