<svg width="40" height="40" viewBox="0 0 40 40" fill="none" xmlns="http://www.w3.org/2000/svg">
<g clip-path="url(#clip0_17522_60614)">
<path d="M0 0H40V40H0V0Z" fill="#006B3F"/>
<path d="M0 0H40V26.6641H0V0Z" fill="#FCD116"/>
<path d="M0 0H40V13.3359H0V0Z" fill="#CE1126"/>
<path d="M20 13.3359L24.3359 26.6641L12.9922 18.4375H27.0078L15.6719 26.6641L20 13.3359Z" fill="#000001"/>
</g>
<defs>
<clipPath id="clip0_17522_60614">
<path d="M0 4C0 1.79086 1.79086 0 4 0H36C38.2091 0 40 1.79086 40 4V36C40 38.2091 38.2091 40 36 40H4C1.79086 40 0 38.2091 0 36V4Z" fill="white"/>
</clipPath>
</defs>
</svg>
