<svg width="40" height="40" viewBox="0 0 40 40" fill="none" xmlns="http://www.w3.org/2000/svg">
<g clip-path="url(#clip0_17544_62700)">
<path fill-rule="evenodd" clip-rule="evenodd" d="M0 0H40V40H0V0Z" fill="#BE0027"/>
<path fill-rule="evenodd" clip-rule="evenodd" d="M1.60156 1.60156H38.3203V38.3984H1.60156V1.60156Z" fill="#3B5AA3"/>
<path fill-rule="evenodd" clip-rule="evenodd" d="M19.6797 30.9453C19.8203 31.0234 20.0469 31.0234 20.1719 30.9531C28.2422 26.6563 28.25 14.875 20.1797 10.6406C20.0988 10.6025 20.0103 10.5834 19.921 10.5848C19.8316 10.5861 19.7437 10.6079 19.6641 10.6484C11.7969 14.9531 11.7734 26.6016 19.6797 30.9453Z" fill="#CBE0E5"/>
<path fill-rule="evenodd" clip-rule="evenodd" d="M19.6797 31.1641C19.8047 31.2656 20.0547 31.25 20.1719 31.1641C26.1172 26.7109 26.1562 23.9375 25.8906 23.9375H14.1172C13.9375 23.9375 14.2187 26.7578 19.6797 31.1562V31.1641Z" fill="#ADD2D9"/>
<path fill-rule="evenodd" clip-rule="evenodd" d="M15.0469 26.1406C15.5851 25.9722 16.1665 26.0084 16.6797 26.2422C17.125 26.4766 17.3828 26.4766 17.8594 26.4766C18.3672 26.4844 18.7578 26.8594 19.3047 26.8672C20.3047 26.8984 20.7344 27.3906 19.9531 27.3984C19.5859 27.3984 18.7969 27.1484 18.4141 27.2031C17.6172 27.2812 17.1094 27.4609 16.3594 28.2969L17.2266 28.8906C17.9766 28.5781 18.1016 28.2422 18.5156 28.2266C18.9844 28.2109 19.1406 27.9141 19.6875 27.9141C20.3047 28.0312 21.1328 27.8359 21.625 27.7344C22.4922 27.5313 22.0781 26.9297 21.5547 26.7031C21.1328 26.5234 20.3359 26.7031 19.8359 26.5234C19.4688 26.375 19.7734 26.1406 19.9766 26.0938C20.1797 26.0547 20.3984 26.125 20.6484 26.1641C21.1016 26.2031 21.6641 26.1641 22.0547 26.0938C22.875 25.9688 22.8359 25.7266 23.2344 25.7266C23.4879 25.719 23.7331 25.6346 23.9375 25.4844C24.1719 25.3281 24.4062 25.0156 24.6875 25.0234L25.4375 25.0547L24.375 27.4219L21.4062 30.4531L19.8594 31.0391L16.4844 28.8281L14.7656 26.2109L15.0469 26.1406Z" fill="#FDF9A1"/>
<path fill-rule="evenodd" clip-rule="evenodd" d="M18.9375 23.8359L25.7344 23.8047L25.8594 23.2031L25.4219 23.1562C25.1719 23.1406 24.7578 23.4141 24.4766 23.4141C24.2734 23.4141 24.0469 23.0547 23.8516 23.0625C23.5078 23.0625 23.4766 23.375 23.1484 23.375C22.8828 23.375 22.7734 23.1719 22.4297 23.1875C22.0703 23.2109 22.1016 23.4062 21.6484 23.3984C21.0469 23.3828 20.8125 22.8594 20.3359 22.8516C19.5312 22.8516 19.5078 23.6172 18.9375 23.8359Z" fill="#179A3B"/>
<path fill-rule="evenodd" clip-rule="evenodd" d="M18.9375 23.9844L25.9375 23.9453V23.7578L18.7812 23.7969L18.9375 23.9844Z" fill="#FDF9A1"/>
<path fill-rule="evenodd" clip-rule="evenodd" d="M21.8125 26.0938C21.9219 26.5 22.0391 26.6406 22.4688 26.75C22.8984 26.8516 23.5547 26.4375 23.1484 26.0313C22.7578 25.6563 22.3516 25.5625 22.0078 25.2188C21.2734 24.5 20.1719 22.7266 20.1719 21.4844C20.1719 20.4062 20.0703 18.2109 20.0703 16.1328C20.0703 15.9922 19.6641 16.5078 19.6641 16.6406C19.6797 18.4844 19.6797 19.8672 19.75 21.7188C19.8672 23.0781 20.5156 23.9844 21.0781 24.8125C21.3359 25.2031 21.7031 25.6328 21.8125 26.0859V26.0938Z" fill="#A79270"/>
<path d="M17.483 20.3984C17.4673 20.3506 17.4467 20.3078 17.4212 20.2699C17.3961 20.2315 17.366 20.1989 17.331 20.1719C17.2964 20.1449 17.2571 20.1243 17.2131 20.1101C17.169 20.0959 17.1207 20.0888 17.0682 20.0888C16.982 20.0888 16.9036 20.111 16.8331 20.1555C16.7625 20.2 16.7064 20.2656 16.6648 20.3523C16.6231 20.4389 16.6023 20.5452 16.6023 20.6712C16.6023 20.7971 16.6233 20.9034 16.6655 20.9901C16.7076 21.0767 16.7647 21.1423 16.8366 21.1868C16.9086 21.2313 16.9896 21.2536 17.0795 21.2536C17.1629 21.2536 17.2363 21.2358 17.2997 21.2003C17.3636 21.1643 17.4134 21.1136 17.4489 21.0483C17.4848 20.9825 17.5028 20.9051 17.5028 20.8161L17.5568 20.8274H17.1193V20.6712H17.6733V20.8274C17.6733 20.9472 17.6477 21.0514 17.5966 21.1399C17.5459 21.2285 17.4759 21.2971 17.3864 21.3459C17.2973 21.3942 17.1951 21.4183 17.0795 21.4183C16.9508 21.4183 16.8376 21.388 16.7401 21.3274C16.643 21.2668 16.5672 21.1806 16.5128 21.0689C16.4588 20.9571 16.4318 20.8246 16.4318 20.6712C16.4318 20.5561 16.4472 20.4527 16.478 20.3608C16.5092 20.2685 16.5533 20.1899 16.6101 20.125C16.6669 20.0601 16.7341 20.0104 16.8118 19.9759C16.8894 19.9413 16.9749 19.924 17.0682 19.924C17.1449 19.924 17.2164 19.9356 17.2827 19.9588C17.3494 19.9815 17.4089 20.014 17.4609 20.0561C17.5135 20.0978 17.5573 20.1477 17.5923 20.206C17.6274 20.2637 17.6515 20.3279 17.6648 20.3984H17.483Z" fill="#BD0728"/>
<path fill-rule="evenodd" clip-rule="evenodd" d="M17.0682 19.9865C16.9828 19.9865 16.9061 20.0023 16.8372 20.033C16.7679 20.0638 16.708 20.108 16.6571 20.1662C16.6064 20.2241 16.5662 20.2952 16.5372 20.3807C16.509 20.4651 16.4943 20.5617 16.4943 20.6712C16.4943 20.8173 16.52 20.9401 16.569 21.0416C16.6188 21.1437 16.6869 21.2205 16.7731 21.2744C16.8596 21.3281 16.961 21.3558 17.0795 21.3558C17.1861 21.3558 17.2779 21.3336 17.3566 21.2909M16.7864 19.9188C16.8728 19.8803 16.967 19.8615 17.0682 19.8615C17.1512 19.8615 17.2296 19.8741 17.3031 19.8997C17.3762 19.9247 17.442 19.9605 17.5 20.0073C17.5584 20.0536 17.607 20.1092 17.6458 20.1736C17.685 20.2382 17.7117 20.3095 17.7262 20.3869L17.7401 20.4609H17.4376L17.4235 20.4178C17.4095 20.375 17.3914 20.3375 17.3694 20.3049C17.348 20.2721 17.3221 20.244 17.2928 20.2214C17.2644 20.1992 17.2313 20.1816 17.1939 20.1696C17.1568 20.1576 17.1151 20.1513 17.0682 20.1513C16.9934 20.1513 16.9267 20.1704 16.8664 20.2084C16.8073 20.2457 16.7585 20.3016 16.7211 20.3794C16.6846 20.4554 16.6648 20.5518 16.6648 20.6712C16.6648 20.7904 16.6848 20.8868 16.7217 20.9627C16.7594 21.0402 16.809 21.0962 16.8695 21.1336C16.931 21.1716 17.0004 21.1911 17.0795 21.1911C17.1537 21.1911 17.2163 21.1753 17.2691 21.1458C17.3226 21.1157 17.364 21.0736 17.394 21.0185C17.4143 20.9812 17.4284 20.9385 17.4353 20.8899H17.0568V20.6087H17.7358V20.8274C17.7358 20.9562 17.7082 21.0715 17.6508 21.1711C17.5944 21.2696 17.5159 21.3465 17.4163 21.4008C17.3169 21.4547 17.204 21.4808 17.0795 21.4808C16.9406 21.4808 16.8157 21.448 16.7071 21.3805C16.5992 21.3132 16.5157 21.2176 16.4566 21.0963C16.3977 20.9743 16.3693 20.8318 16.3693 20.6712C16.3693 20.5506 16.3854 20.4403 16.4187 20.3409C16.4523 20.2418 16.5002 20.1556 16.5631 20.0838C16.6258 20.0122 16.7003 19.9571 16.7864 19.9188ZM17.4403 20.7649H17.1818V20.7337H17.6108V20.8274C17.6108 20.9381 17.5872 21.0311 17.5425 21.1087C17.4976 21.1871 17.4358 21.2477 17.3566 21.2909M17.5645 20.8161L17.5697 20.7663L17.4403 20.739V20.7649M17.5645 20.8161C17.5645 20.9136 17.5456 21.0016 17.5037 21.0782C17.4627 21.1537 17.4047 21.2129 17.3304 21.2547C17.2563 21.2962 17.172 21.3161 17.0795 21.3161C16.9787 21.3161 16.8863 21.291 16.8038 21.2399C16.7204 21.1884 16.6559 21.1132 16.6093 21.0174C16.5619 20.92 16.5398 20.8038 16.5398 20.6712C16.5398 20.5386 16.5617 20.4225 16.6084 20.3252C16.6544 20.2296 16.7178 20.1544 16.7998 20.1027C16.8806 20.0517 16.9706 20.0263 17.0682 20.0263C17.1264 20.0263 17.1812 20.0341 17.2323 20.0506C17.2828 20.0669 17.3286 20.0908 17.3693 20.1225C17.4099 20.1538 17.4445 20.1915 17.4732 20.2353C17.4941 20.2663 17.5119 20.2999 17.5266 20.3359H17.5841C17.5724 20.3012 17.5573 20.2687 17.5389 20.2384C17.5077 20.1865 17.4687 20.142 17.4221 20.1051C17.376 20.0678 17.3227 20.0385 17.2625 20.018C17.2035 19.9973 17.1385 19.9865 17.0682 19.9865" fill="white"/>
<path d="M19.2401 19.9517H19.4162V20.9148C19.4162 21.0142 19.3928 21.103 19.3459 21.1811C19.2995 21.2588 19.2339 21.3201 19.1491 21.3651C19.0644 21.4096 18.965 21.4318 18.8509 21.4318C18.7367 21.4318 18.6373 21.4096 18.5526 21.3651C18.4678 21.3201 18.402 21.2588 18.3551 21.1811C18.3087 21.103 18.2855 21.0142 18.2855 20.9148V19.9517H18.4616V20.9006C18.4616 20.9716 18.4773 21.0348 18.5085 21.0902C18.5398 21.1451 18.5843 21.1884 18.642 21.2202C18.7003 21.2514 18.7699 21.267 18.8509 21.267C18.9318 21.267 19.0014 21.2514 19.0597 21.2202C19.1179 21.1884 19.1624 21.1451 19.1932 21.0902C19.2244 21.0348 19.2401 20.9716 19.2401 20.9006V19.9517Z" fill="#BD0728"/>
<path fill-rule="evenodd" clip-rule="evenodd" d="M18.223 19.8892H18.5241V20.9006C18.5241 20.9621 18.5376 21.0144 18.5629 21.0594C18.5881 21.1037 18.6239 21.1389 18.6719 21.1652C18.7191 21.1905 18.778 21.2045 18.8509 21.2045C18.9237 21.2045 18.9826 21.1905 19.0299 21.1652C19.0783 21.1388 19.114 21.1037 19.1387 21.0596C19.164 21.0147 19.1776 20.9621 19.1776 20.9006V19.8892H19.4787V20.9148C19.4787 21.0245 19.4527 21.1245 19.3995 21.2133C19.3469 21.3013 19.2726 21.3703 19.1784 21.4203C19.0832 21.4703 18.9731 21.4943 18.8509 21.4943C18.7286 21.4943 18.6188 21.4704 18.5235 21.4204C18.4294 21.3704 18.3547 21.3013 18.3016 21.2134C18.2489 21.1247 18.223 21.0243 18.223 20.9148V19.8892ZM18.348 20.0142V20.9148C18.348 21.004 18.3687 21.0815 18.4087 21.149C18.4494 21.2163 18.5065 21.2698 18.5817 21.3098C18.6559 21.3487 18.745 21.3693 18.8509 21.3693C18.9567 21.3693 19.0458 21.3487 19.12 21.3098C19.1952 21.2698 19.2521 21.2163 19.2922 21.149C19.3327 21.0815 19.3537 21.0039 19.3537 20.9148V20.0142H19.3026V20.9006C19.3026 20.9811 19.2847 21.0551 19.2476 21.1209C19.2108 21.1866 19.1575 21.238 19.0896 21.2751C19.0204 21.3122 18.9398 21.3295 18.8509 21.3295C18.7619 21.3295 18.6816 21.3123 18.6125 21.2752C18.5451 21.2382 18.4914 21.1865 18.4542 21.1211C18.4171 21.0553 18.3991 20.9811 18.3991 20.9006V20.0142H18.348Z" fill="white"/>
<path d="M20.5249 21.4062H20.3402L20.8743 19.9517H21.0561L21.5902 21.4062H21.4055L20.9709 20.1818H20.9595L20.5249 21.4062ZM20.593 20.8381H21.3374V20.9943H20.593V20.8381Z" fill="#BD0728"/>
<path fill-rule="evenodd" clip-rule="evenodd" d="M20.8307 19.8892H21.0997L21.6797 21.4688H21.3614L21.2152 21.0568H20.7152L20.569 21.4688H20.2507L20.8307 19.8892ZM20.7596 20.9318H21.1708L21.1597 20.9006H20.7707L20.7596 20.9318ZM20.8151 20.7756H21.1153L20.9652 20.3526L20.8151 20.7756ZM21.248 20.7756L21.015 20.1193H20.9154L20.6824 20.7756H20.6384L20.9179 20.0142H21.0125L21.292 20.7756H21.248ZM21.3478 21.0568L21.4497 21.3438H21.5007L21.3953 21.0568H21.3478ZM20.5351 21.0568H20.5826L20.4807 21.3438H20.4297L20.5351 21.0568Z" fill="white"/>
<path d="M22.3011 19.9439H22.5114L23.0057 21.1513H23.0227L23.517 19.9439H23.7273V21.3984H23.5625V20.2933H23.5483L23.0938 21.3984H22.9347L22.4801 20.2933H22.4659V21.3984H22.3011V19.9439Z" fill="#BD0728"/>
<path fill-rule="evenodd" clip-rule="evenodd" d="M22.2386 19.8814H22.5533L23.0142 21.0071L23.4751 19.8814H23.7898V21.4609H23.5V20.575L23.1356 21.4609H22.8928L22.5284 20.575V21.4609H22.2386V19.8814ZM22.3636 20.0064V21.3359H22.4034V20.2308H22.522L22.9765 21.3359H23.0519L23.5064 20.2308H23.625V21.3359H23.6648V20.0064H23.559L23.0647 21.2138H22.9637L22.4694 20.0064H22.3636Z" fill="white"/>
<path fill-rule="evenodd" clip-rule="evenodd" d="M16.5547 16.1953C16.4609 16.3672 16.7656 16.1484 16.8359 16.1172C17.2266 15.9844 17.3828 15.4922 18.0547 15.7812C18.5859 16.0156 19.3047 15.8828 18.9297 16.1094C18.4609 16.3906 17.5469 16.6953 17.5234 18.0625C17.6016 18.1953 17.6172 18.1719 17.6797 18.0312C17.8125 17.7188 18.4844 16.8438 18.8125 16.9219C18.9453 16.9531 19.3281 16.5312 19.3438 16.6484C19.375 16.9922 18.8125 17.6797 18.8203 18.6016C18.8203 18.8203 19.0859 18.8906 19.2109 18.7422C19.3359 18.6094 19.4062 18.4687 19.6328 18.2969C20.0234 17.9766 19.9141 16.6172 19.9609 16.6797C20.2344 17.0391 20.2734 18.0469 20.6953 18.4609C21.0313 18.8047 21.3125 18.6406 21.2422 18.1641C21.0859 17.2031 20.6328 17.4766 20.4219 16.4844C20.375 16.2891 20.3672 16.1172 20.6172 16.1953C20.9297 16.2891 21.1172 16.4297 21.3516 16.7891C21.5859 17.125 22.0156 17.4453 22.2734 17.6484C22.7109 17.9844 22.8672 17.6875 22.6562 17.2578C22.3879 16.7616 21.9497 16.3788 21.4219 16.1797C21.0625 16.0547 20.9297 16.0469 20.6094 15.9844C20.5312 15.9688 20.4297 15.7813 20.5859 15.6875C20.9271 15.4416 21.3248 15.2858 21.7422 15.2344C22.1328 15.2266 22.4453 15.5391 22.7188 15.625C23.2734 15.7656 23.2656 15.4141 23.0312 15.1562C22.8281 14.9375 22.4062 14.5703 22.0156 14.6094C21.2188 14.7109 21.2656 14.6875 20.7812 15.0156C20.6016 15.1172 20.4063 15.2344 20.4766 15.1094C20.6563 14.7891 20.4844 14.8438 20.7656 14.5156C20.9766 14.2813 21.1328 14.1016 21.3516 14.0469C21.5547 13.9922 21.8203 13.7813 21.8984 13.6719C22.1016 13.3984 21.9297 13.2422 21.625 13.3359C21.3594 13.4141 21.2109 13.5859 21.0313 13.6328C20.6016 13.7656 20.25 14.75 20.2031 14.8828C20.1328 15.0547 20.0625 14.9688 20.0703 14.8281C20.1328 14.1406 20.1953 12.9766 19.9531 12.5C19.5859 11.7969 19.6172 12.125 19.4766 12.4609C19.3027 12.9619 19.3027 13.5068 19.4766 14.0078C19.5312 14.2656 19.7422 14.5547 19.7891 14.7656C19.8125 14.9219 19.6875 14.7109 19.625 14.6172C19.3906 14.2656 19.2188 14.0234 18.8438 13.8359C18.4677 13.6825 18.0551 13.6418 17.6562 13.7188C17.5547 13.75 17.7734 13.9062 17.8672 13.9766C18.1172 14.1797 18.5938 14.2422 18.9141 14.4453C19.1953 14.6016 19.4062 14.7188 19.4922 14.9531C19.5312 15.125 19.5859 15.3828 19.4766 15.375C19.1719 15.3594 18.7031 15.1016 17.7422 15.2031C17.25 15.2734 16.8281 15.6953 16.5547 16.1953Z" fill="#239E46"/>
<path fill-rule="evenodd" clip-rule="evenodd" d="M18.6484 24.9844H18.9297V25.4531H18.6484V24.9844Z" fill="black"/>
<path fill-rule="evenodd" clip-rule="evenodd" d="M17.2656 21.8906C18.3672 23.4219 20.1406 24.3125 20.1797 25.0156L16.7188 25C17.5078 24.0469 17.9922 23.3984 17.2578 21.8828L17.2656 21.8906Z" fill="#FDF9FF"/>
<path fill-rule="evenodd" clip-rule="evenodd" d="M16.2578 25.0469C17.7656 25.3828 19.5547 25.5625 20.7031 25C20.7031 25.3359 20.3281 25.8125 20.0156 25.8125H17.1328C17.4688 25.7656 17.6562 25.6641 18.2031 25.6328L16.6719 25.6562C16.5078 25.6562 16.2031 25.2109 16.2578 25.0469Z" fill="#A68861"/>
<path fill-rule="evenodd" clip-rule="evenodd" d="M19.6641 31.7188C19.7472 31.7578 19.8379 31.778 19.9297 31.778C20.0215 31.778 20.1122 31.7578 20.1953 31.7188C28.875 27.1016 28.8828 14.4297 20.2109 9.875C20.1247 9.83231 20.0298 9.81009 19.9336 9.81009C19.8374 9.81009 19.7425 9.83231 19.6562 9.875C11.1953 14.5078 11.1719 27.0391 19.6641 31.7109V31.7188ZM19.7109 30.6719C19.7831 30.7054 19.8618 30.7228 19.9414 30.7228C20.021 30.7228 20.0997 30.7054 20.1719 30.6719C27.4375 26.3984 27.5234 15.1016 20.1797 11.0547C20.0391 10.9531 19.8359 10.9844 19.6953 11.0547C12.7422 15.1719 12.3516 26.0078 19.7109 30.6641V30.6719Z" fill="#BE0027"/>
<path d="M17.0859 19.9766C17.2214 19.9766 17.3385 20.0026 17.4375 20.0547C17.5781 20.1276 17.6641 20.2578 17.6953 20.4453H17.5078C17.4818 20.3411 17.4297 20.263 17.3516 20.2109C17.2839 20.1641 17.1927 20.1406 17.0781 20.1406C16.9479 20.1406 16.8359 20.1927 16.7422 20.2969C16.6536 20.3958 16.6094 20.5443 16.6094 20.7422C16.6094 20.9089 16.6458 21.0469 16.7188 21.1562C16.7969 21.2604 16.9193 21.3125 17.0859 21.3125C17.2161 21.3125 17.3229 21.276 17.4062 21.2031C17.4948 21.1302 17.5391 21.0078 17.5391 20.8359H17.0938V20.6797H17.7188V21.4453H17.5938L17.5469 21.2578C17.4844 21.3307 17.4271 21.3828 17.375 21.4141C17.2865 21.4609 17.1771 21.4844 17.0469 21.4844C16.8802 21.4844 16.7344 21.4297 16.6094 21.3203C16.474 21.1797 16.4062 20.9896 16.4062 20.75C16.4062 20.5104 16.4714 20.3203 16.6016 20.1797C16.7266 20.0443 16.888 19.9766 17.0859 19.9766Z" fill="#BD0728"/>
<path d="M18.4766 20.0156V20.9062C18.4766 21.0104 18.4948 21.0964 18.5312 21.1641C18.5885 21.2682 18.6875 21.3203 18.8281 21.3203C18.9896 21.3203 19.1016 21.2656 19.1641 21.1562C19.1953 21.0937 19.2109 21.0104 19.2109 20.9062V20.0156H19.4062V20.8281C19.4062 21 19.3802 21.1354 19.3281 21.2344C19.2448 21.4062 19.0833 21.4922 18.8438 21.4922C18.599 21.4922 18.4323 21.4062 18.3438 21.2344C18.2969 21.1354 18.2734 21 18.2734 20.8281V20.0156H18.4766Z" fill="#BD0728"/>
<path d="M21.1797 20.8594L20.9609 20.2344L20.7266 20.8594H21.1797ZM20.8594 20.0156H21.0781L21.6016 21.4531H21.3828L21.2422 21.0234H20.6719L20.5156 21.4531H20.3203L20.8594 20.0156Z" fill="#BD0728"/>
<path d="M22.2734 20.0078H22.5547L22.9609 21.2266L23.375 20.0078H23.6484V21.4453H23.4609V20.2344L23.0547 21.4453H22.8672L22.4531 20.2344V21.4453H22.2734V20.0078Z" fill="#BD0728"/>
</g>
<defs>
<clipPath id="clip0_17544_62700">
<path d="M0 20C0 8.95431 8.95431 0 20 0C31.0457 0 40 8.95431 40 20C40 31.0457 31.0457 40 20 40C8.95431 40 0 31.0457 0 20Z" fill="white"/>
</clipPath>
</defs>
</svg>
