<svg width="40" height="40" viewBox="0 0 40 40" fill="none" xmlns="http://www.w3.org/2000/svg">
<g clip-path="url(#clip0_17544_62726)">
<path d="M0 0H12.5V40H0V0Z" fill="#CE1126"/>
<path d="M12.5 0H40V20H12.5V0Z" fill="#FCD116"/>
<path d="M12.5 20H40V40H12.5V20Z" fill="#009E49"/>
<path d="M6.24813 15.545L4.72506 20.2325L7.06882 20.9941" fill="#000001"/>
<path d="M6.24813 15.545L7.77119 20.2325L5.42743 20.9941" fill="#000001"/>
<path d="M10.9356 18.9507H6.0069V21.4151" fill="#000001"/>
<path d="M10.9356 18.9507L6.9482 21.8477L5.49968 19.854" fill="#000001"/>
<path d="M9.14517 24.4612L7.62211 19.7737L5.27835 20.5352" fill="#000001"/>
<path d="M9.14517 24.4612L5.15773 21.5641L6.60625 19.5704" fill="#000001"/>
<path d="M3.35108 24.4612L7.33852 21.5641L5.89 19.5704" fill="#000001"/>
<path d="M3.35108 24.4612L4.87415 19.7737L7.21791 20.5352" fill="#000001"/>
<path d="M1.56061 18.9507L5.54805 21.8477L6.99657 19.854" fill="#000001"/>
<path d="M1.56061 18.9507H6.48936V21.4151" fill="#000001"/>
</g>
<defs>
<clipPath id="clip0_17544_62726">
<path d="M0 20C0 8.95431 8.95431 0 20 0C31.0457 0 40 8.95431 40 20C40 31.0457 31.0457 40 20 40C8.95431 40 0 31.0457 0 20Z" fill="white"/>
</clipPath>
</defs>
</svg>
