<svg width="40" height="40" viewBox="0 0 40 40" fill="none" xmlns="http://www.w3.org/2000/svg">
<g clip-path="url(#clip0_17522_60626)">
<path fill-rule="evenodd" clip-rule="evenodd" d="M0.15625 0H40V40H0.15625V0Z" fill="#399408"/>
<path fill-rule="evenodd" clip-rule="evenodd" d="M0.0078125 0C-0.0390625 0 38.7344 20.125 38.7344 20.125L0 39.9766L0.0078125 0Z" fill="white"/>
<path fill-rule="evenodd" clip-rule="evenodd" d="M0.015625 1.67969C0.234375 1.67969 34.9609 19.8438 34.7656 20.0156L0.117188 38.6094L0.015625 1.67188V1.67969Z" fill="#FFDE08"/>
<path fill-rule="evenodd" clip-rule="evenodd" d="M0.117188 0.0625C0.234375 0.0625 18.3047 20.1406 18.3047 20.1406L0.117188 39.75V0.0625Z" fill="#000001"/>
<path fill-rule="evenodd" clip-rule="evenodd" d="M0.015625 2.82813C0.125 1.57813 16.3281 20.1953 16.3281 20.1953L0.015625 37.6406V2.82813Z" fill="#DE2110"/>
</g>
<defs>
<clipPath id="clip0_17522_60626">
<path d="M0 4C0 1.79086 1.79086 0 4 0H36C38.2091 0 40 1.79086 40 4V36C40 38.2091 38.2091 40 36 40H4C1.79086 40 0 38.2091 0 36V4Z" fill="white"/>
</clipPath>
</defs>
</svg>
