<svg width="40" height="40" viewBox="0 0 40 40" fill="none" xmlns="http://www.w3.org/2000/svg">
<g clip-path="url(#clip0_17544_62767)">
<path d="M0 0H40V40H0V0Z" fill="#18C3DF"/>
<path d="M0 13.3359H40V26.6641H0V13.3359Z" fill="white"/>
<path d="M20 17.7778L19.3333 20L20.4444 20.2222L20 17.7778Z" fill="#18C3DF"/>
<path d="M20 17.7778L20.6667 20L19.5556 20.2222L20 17.7778Z" fill="#18C3DF"/>
<path d="M22.1135 19.3133L19.794 19.366L19.926 20.4914L22.1135 19.3133Z" fill="#18C3DF"/>
<path d="M22.1135 19.3133L20.206 20.634L19.6513 19.646L22.1135 19.3133Z" fill="#18C3DF"/>
<path d="M17.8865 19.3133L19.794 20.634L20.3487 19.646L17.8865 19.3133Z" fill="#18C3DF"/>
<path d="M17.8865 19.3133L20.206 19.366L20.074 20.4914L17.8865 19.3133Z" fill="#18C3DF"/>
<path d="M21.3062 21.7978L20.5393 19.6081L19.5098 20.0815L21.3062 21.7978Z" fill="#18C3DF"/>
<path d="M21.3062 21.7978L19.4607 20.3919L20.2289 19.559L21.3062 21.7978Z" fill="#18C3DF"/>
<path d="M18.6938 21.7978L20.5393 20.3919L19.7711 19.559L18.6938 21.7978Z" fill="#18C3DF"/>
<path d="M18.6938 21.7978L19.4607 19.6081L20.4902 20.0815L18.6938 21.7978Z" fill="#18C3DF"/>
<path d="M31.1094 14.2231L30.4427 16.4453L31.5538 16.6675L31.1094 14.2231Z" fill="#18C3DF"/>
<path d="M31.1094 14.2231L31.776 16.4453L30.6649 16.6675L31.1094 14.2231Z" fill="#18C3DF"/>
<path d="M33.2228 15.7586L30.9034 15.8113L31.0354 16.9367L33.2228 15.7586Z" fill="#18C3DF"/>
<path d="M33.2228 15.7586L31.3154 17.0794L30.7607 16.0913L33.2228 15.7586Z" fill="#18C3DF"/>
<path d="M28.9959 15.7586L30.9034 17.0794L31.4581 16.0913L28.9959 15.7586Z" fill="#18C3DF"/>
<path d="M28.9959 15.7586L31.3154 15.8113L31.1834 16.9367L28.9959 15.7586Z" fill="#18C3DF"/>
<path d="M32.4156 18.2431L31.6487 16.0535L30.6192 16.5268L32.4156 18.2431Z" fill="#18C3DF"/>
<path d="M32.4156 18.2431L30.57 16.8372L31.3383 16.0043L32.4156 18.2431Z" fill="#18C3DF"/>
<path d="M29.8032 18.2431L31.6487 16.8372L30.8804 16.0043L29.8032 18.2431Z" fill="#18C3DF"/>
<path d="M29.8032 18.2431L30.57 16.0535L31.5996 16.5268L29.8032 18.2431Z" fill="#18C3DF"/>
<path d="M31.1094 20.8871L30.4427 23.1094L31.5538 23.3316L31.1094 20.8871Z" fill="#18C3DF"/>
<path d="M31.1094 20.8871L31.776 23.1094L30.6649 23.3316L31.1094 20.8871Z" fill="#18C3DF"/>
<path d="M33.2228 22.4227L30.9034 22.4753L31.0354 23.6007L33.2228 22.4227Z" fill="#18C3DF"/>
<path d="M33.2228 22.4227L31.3154 23.7434L30.7607 22.7554L33.2228 22.4227Z" fill="#18C3DF"/>
<path d="M28.9959 22.4227L30.9034 23.7434L31.4581 22.7554L28.9959 22.4227Z" fill="#18C3DF"/>
<path d="M28.9959 22.4227L31.3154 22.4753L31.1834 23.6007L28.9959 22.4227Z" fill="#18C3DF"/>
<path d="M32.4156 24.9072L31.6487 22.7175L30.6192 23.1908L32.4156 24.9072Z" fill="#18C3DF"/>
<path d="M32.4156 24.9072L30.57 23.5012L31.3383 22.6684L32.4156 24.9072Z" fill="#18C3DF"/>
<path d="M29.8032 24.9072L31.6487 23.5012L30.8804 22.6684L29.8032 24.9072Z" fill="#18C3DF"/>
<path d="M29.8032 24.9072L30.57 22.7175L31.5996 23.1908L29.8032 24.9072Z" fill="#18C3DF"/>
<path d="M8.89062 14.2231L8.22396 16.4453L9.33507 16.6675L8.89062 14.2231Z" fill="#18C3DF"/>
<path d="M8.89062 14.2231L9.55729 16.4453L8.44618 16.6675L8.89062 14.2231Z" fill="#18C3DF"/>
<path d="M11.0041 15.7586L8.68461 15.8113L8.81662 16.9367L11.0041 15.7586Z" fill="#18C3DF"/>
<path d="M11.0041 15.7586L9.09664 17.0794L8.54194 16.0913L11.0041 15.7586Z" fill="#18C3DF"/>
<path d="M6.77716 15.7586L8.68461 17.0794L9.23931 16.0913L6.77716 15.7586Z" fill="#18C3DF"/>
<path d="M6.77716 15.7586L9.09664 15.8113L8.96463 16.9367L6.77716 15.7586Z" fill="#18C3DF"/>
<path d="M10.1968 18.2431L9.42997 16.0535L8.40044 16.5268L10.1968 18.2431Z" fill="#18C3DF"/>
<path d="M10.1968 18.2431L8.35128 16.8372L9.11957 16.0043L10.1968 18.2431Z" fill="#18C3DF"/>
<path d="M7.58443 18.2431L9.42997 16.8372L8.66168 16.0043L7.58443 18.2431Z" fill="#18C3DF"/>
<path d="M7.58443 18.2431L8.35128 16.0535L9.38081 16.5268L7.58443 18.2431Z" fill="#18C3DF"/>
<path d="M8.89062 20.8871L8.22396 23.1094L9.33507 23.3316L8.89062 20.8871Z" fill="#18C3DF"/>
<path d="M8.89062 20.8871L9.55729 23.1094L8.44618 23.3316L8.89062 20.8871Z" fill="#18C3DF"/>
<path d="M11.0041 22.4227L8.68461 22.4753L8.81662 23.6007L11.0041 22.4227Z" fill="#18C3DF"/>
<path d="M11.0041 22.4227L9.09664 23.7434L8.54194 22.7554L11.0041 22.4227Z" fill="#18C3DF"/>
<path d="M6.77716 22.4227L8.68461 23.7434L9.23931 22.7554L6.77716 22.4227Z" fill="#18C3DF"/>
<path d="M6.77716 22.4227L9.09664 22.4753L8.96463 23.6007L6.77716 22.4227Z" fill="#18C3DF"/>
<path d="M10.1968 24.9072L9.42997 22.7175L8.40044 23.1908L10.1968 24.9072Z" fill="#18C3DF"/>
<path d="M10.1968 24.9072L8.35128 23.5012L9.11957 22.6684L10.1968 24.9072Z" fill="#18C3DF"/>
<path d="M7.58443 24.9072L9.42997 23.5012L8.66168 22.6684L7.58443 24.9072Z" fill="#18C3DF"/>
<path d="M7.58443 24.9072L8.35128 22.7175L9.38081 23.1908L7.58443 24.9072Z" fill="#18C3DF"/>
</g>
<defs>
<clipPath id="clip0_17544_62767">
<path d="M0 20C0 8.95431 8.95431 0 20 0C31.0457 0 40 8.95431 40 20C40 31.0457 31.0457 40 20 40C8.95431 40 0 31.0457 0 20Z" fill="white"/>
</clipPath>
</defs>
</svg>
