<svg width="40" height="40" viewBox="0 0 40 40" fill="none" xmlns="http://www.w3.org/2000/svg">
<g clip-path="url(#clip0_17544_63614)">
<path d="M-0.0022974 0H39.9916V39.9939H-0.0022974V0Z" fill="black"/>
<path fill-rule="evenodd" clip-rule="evenodd" d="M-15 0H54.9973V39.9939H-15V0Z" fill="white"/>
<path fill-rule="evenodd" clip-rule="evenodd" d="M-15 26.8588H54.9973V40.0019H-15V26.8588Z" fill="#DA0000"/>
<path fill-rule="evenodd" clip-rule="evenodd" d="M-1.69559 27.4152H2.14254V27.6812H-1.69559V27.4152ZM-1.12309 28.7375H-0.857006V28.9956H-1.13116L-1.12309 28.7375ZM2.1506 28.7295V28.9956H1.38459V28.7295H2.1506ZM2.56183 27.4152H2.82792V28.9956H2.56183V27.4152Z" fill="white"/>
<path fill-rule="evenodd" clip-rule="evenodd" d="M4.08579 28.7295V28.9956H2.6344V28.7295H4.08579ZM1.38459 28.1167H1.65068V28.9956L1.38459 28.9956V28.1167Z" fill="white"/>
<path fill-rule="evenodd" clip-rule="evenodd" d="M3.86808 27.4152H4.13417V28.9956H3.87614L3.86808 27.4152ZM3.21495 27.4152H3.47298V28.9956H3.22301L3.21495 27.4152ZM-0.284513 28.0441V28.3102H-1.69559V28.0441H-0.284513ZM2.77954 28.0441V28.3102H1.38459V28.0441H2.77954Z" fill="white"/>
<path fill-rule="evenodd" clip-rule="evenodd" d="M1.38459 28.1086H1.65068V28.9956L1.38459 28.9956V28.1086Z" fill="white"/>
<path fill-rule="evenodd" clip-rule="evenodd" d="M1.38459 28.1086H1.65068V28.9956L1.38459 28.9956V28.1086Z" fill="white"/>
<path fill-rule="evenodd" clip-rule="evenodd" d="M1.38459 28.1086H1.65068V28.9956L1.38459 28.9956V28.1086ZM-1.67946 28.1086H-1.42144V28.9956H-1.69559L-1.67946 28.1086ZM0.562132 28.1086H0.82822V28.9956H0.562132V28.1086ZM-0.550601 28.1086H-0.284513V28.9956H-0.550601V28.1086Z" fill="white"/>
<path fill-rule="evenodd" clip-rule="evenodd" d="M0.747588 28.7295V28.9956H-0.437714V28.7295H0.747588ZM0.828221 28.0441V28.3102H0.0783358V28.0441H0.828221Z" fill="white"/>
<path fill-rule="evenodd" clip-rule="evenodd" d="M-7.98495 27.4152H-4.15489V27.6812H-7.99301L-7.98495 27.4152ZM-7.42052 28.7375H-7.15443V28.9956H-7.42052V28.7375ZM-4.14682 28.7295V28.9956H-4.91284V28.7295H-4.14682ZM-3.7356 27.4152H-3.46951V28.9956H-3.7356V27.4152Z" fill="white"/>
<path fill-rule="evenodd" clip-rule="evenodd" d="M-2.21164 28.7295V28.9956H-3.66303V28.7295H-2.21164ZM-4.91284 28.1167H-4.64675V28.9956H-4.9209L-4.91284 28.1167Z" fill="white"/>
<path fill-rule="evenodd" clip-rule="evenodd" d="M-2.42128 27.4152H-2.16326V28.9956H-2.42128V27.4152ZM-3.08247 27.4152H-2.81638V28.9956H-3.08247V27.4152ZM-6.58193 28.0441V28.3102H-7.98495V28.0441H-6.58193ZM-3.51789 28.0441V28.3102H-4.91284V28.0441H-3.51789Z" fill="white"/>
<path fill-rule="evenodd" clip-rule="evenodd" d="M-4.91284 28.1086H-4.64675V28.9956H-4.9209L-4.91284 28.1086Z" fill="white"/>
<path fill-rule="evenodd" clip-rule="evenodd" d="M-4.91284 28.1086H-4.64675V28.9956H-4.9209L-4.91284 28.1086Z" fill="white"/>
<path fill-rule="evenodd" clip-rule="evenodd" d="M-4.91284 28.1086H-4.64675V28.9956H-4.9209L-4.91284 28.1086ZM-7.97688 28.1086H-7.71886V28.9956H-7.98495L-7.97688 28.1086ZM-5.73529 28.1086H-5.4692V28.9956H-5.72723L-5.73529 28.1086ZM-6.84802 28.1086H-6.58193V28.9956H-6.85609L-6.84802 28.1086Z" fill="white"/>
<path fill-rule="evenodd" clip-rule="evenodd" d="M-5.54984 28.7295V28.9956H-6.72707V28.7295H-5.54984ZM-5.4692 28.0441V28.3102H-6.21102V28.0441H-5.4692Z" fill="white"/>
<path fill-rule="evenodd" clip-rule="evenodd" d="M4.55346 27.4152H8.38352V27.6812H4.55346V27.4152ZM5.11789 28.7375H5.38398V28.9956H5.12595L5.11789 28.7375ZM8.39158 28.7295V28.9956H7.62557V28.7295H8.39158ZM8.80281 27.4152H9.0689V28.9956H8.80281V27.4152Z" fill="white"/>
<path fill-rule="evenodd" clip-rule="evenodd" d="M10.3348 28.7295V28.9956H8.88344V28.7295H10.3348ZM7.62557 28.1167H7.89165V28.9956L7.62557 28.9956V28.1167Z" fill="white"/>
<path fill-rule="evenodd" clip-rule="evenodd" d="M10.1171 27.4152H10.3832V28.9956H10.1171V27.4152ZM9.45593 27.4152H9.72202V28.9956H9.45593V27.4152ZM5.95647 28.0441V28.3102H4.56152V28.0441H5.95647ZM9.02051 28.0441V28.3102H7.62557V28.0441H9.02051Z" fill="white"/>
<path fill-rule="evenodd" clip-rule="evenodd" d="M7.62557 28.1086H7.89165V28.9956L7.62557 28.9956V28.1086Z" fill="white"/>
<path fill-rule="evenodd" clip-rule="evenodd" d="M7.62557 28.1086H7.89165V28.9956L7.62557 28.9956V28.1086Z" fill="white"/>
<path fill-rule="evenodd" clip-rule="evenodd" d="M7.62557 28.1086H7.89165V28.9956L7.62557 28.9956V28.1086ZM4.56152 28.1086H4.81955V28.9956H4.56152V28.1086ZM6.81118 28.1086H7.0692V28.9956H6.81118V28.1086ZM5.69038 28.1086H5.95647V28.9956H5.69038V28.1086Z" fill="white"/>
<path fill-rule="evenodd" clip-rule="evenodd" d="M6.99663 28.7295V28.9956H5.80326V28.7295H6.99663ZM7.07726 28.0441V28.3102H6.31931V28.0441H7.07726Z" fill="white"/>
<path fill-rule="evenodd" clip-rule="evenodd" d="M48.6435 27.4152H52.4735V27.6812H48.6435V27.4152ZM49.2079 28.7375H49.474V28.9956H49.216L49.2079 28.7375ZM52.4816 28.7295V28.9956H51.7156V28.7295H52.4816ZM52.9009 27.4152H53.1589V28.9956H52.9009V27.4152Z" fill="white"/>
<path fill-rule="evenodd" clip-rule="evenodd" d="M54.4249 28.7295V28.9956H52.9735V28.7295H54.4249ZM51.7156 28.1167H51.9817V28.9956L51.7156 28.9956V28.1167Z" fill="white"/>
<path fill-rule="evenodd" clip-rule="evenodd" d="M54.2071 27.4152H54.4732V28.9956H54.2071V27.4152ZM53.546 27.4152H53.812V28.9956H53.5379L53.546 27.4152ZM50.0465 28.0441V28.3102H48.6515V28.0441H50.0465ZM53.1105 28.0441V28.3102H51.7156V28.0441H53.1105Z" fill="white"/>
<path fill-rule="evenodd" clip-rule="evenodd" d="M51.7156 28.1086H51.9817V28.9956L51.7156 28.9956V28.1086Z" fill="white"/>
<path fill-rule="evenodd" clip-rule="evenodd" d="M51.7156 28.1086H51.9817V28.9956L51.7156 28.9956V28.1086Z" fill="white"/>
<path fill-rule="evenodd" clip-rule="evenodd" d="M51.7156 28.1086H51.9817V28.9956L51.7156 28.9956V28.1086ZM48.6515 28.1086H48.9096V28.9956H48.6515V28.1086ZM50.9012 28.1086H51.1673V28.9956H50.9012V28.1086ZM49.7885 28.1086H50.0465V28.9956H49.7804L49.7885 28.1086Z" fill="white"/>
<path fill-rule="evenodd" clip-rule="evenodd" d="M51.0866 28.7295V28.9956H49.9014V28.7295H51.0866ZM51.1673 28.0441V28.3102H50.4093V28.0441H51.1673Z" fill="white"/>
<path fill-rule="evenodd" clip-rule="evenodd" d="M10.8348 27.4152H14.6648V27.6812H10.8348V27.4152ZM11.4072 28.7375H11.6733V28.9956H11.4072V28.7375ZM14.6809 28.7295V28.9956H13.9149V28.7295H14.6809ZM15.0841 27.4152H15.3502V28.9956H15.0922L15.0841 27.4152Z" fill="white"/>
<path fill-rule="evenodd" clip-rule="evenodd" d="M16.6161 28.7295V28.9956H15.1647V28.7295H16.6161ZM13.9149 28.1167H14.1729V28.9956L13.9149 28.9956L13.9149 28.1167Z" fill="white"/>
<path fill-rule="evenodd" clip-rule="evenodd" d="M16.3984 27.4152H16.6645V28.9956H16.3984V27.4152ZM15.7453 27.4152H16.0033V28.9956H15.7372L15.7453 27.4152ZM12.2378 28.0441V28.3102H10.8428V28.0441H12.2378ZM15.3099 28.0441V28.3102H13.9149V28.0441H15.3099Z" fill="white"/>
<path fill-rule="evenodd" clip-rule="evenodd" d="M13.9149 28.1086H14.1729V28.9956L13.9149 28.9956L13.9149 28.1086Z" fill="white"/>
<path fill-rule="evenodd" clip-rule="evenodd" d="M13.9149 28.1086H14.1729V28.9956L13.9149 28.9956L13.9149 28.1086Z" fill="white"/>
<path fill-rule="evenodd" clip-rule="evenodd" d="M13.9149 28.1086H14.1729V28.9956L13.9149 28.9956L13.9149 28.1086ZM10.8428 28.1086H11.1089V28.9956H10.8428V28.1086ZM13.0925 28.1086H13.3586V28.9956H13.0925V28.1086ZM11.9797 28.1086H12.2458V28.9956H11.9797V28.1086Z" fill="white"/>
<path fill-rule="evenodd" clip-rule="evenodd" d="M13.2779 28.7295V28.9956H12.0926V28.7295H13.2779ZM13.3586 28.0441V28.3102H12.6087V28.0441H13.3586Z" fill="white"/>
<path fill-rule="evenodd" clip-rule="evenodd" d="M17.1402 27.4152H20.9784V27.6812H17.1402V27.4152ZM17.7127 28.7375H17.9788V28.9956H17.7127V28.7375ZM20.9864 28.7295V28.9956H20.2204V28.7295H20.9864ZM21.3977 27.4152H21.6637V28.9956H21.3977V27.4152Z" fill="white"/>
<path fill-rule="evenodd" clip-rule="evenodd" d="M22.9216 28.7295V28.9956H21.4702V28.7295H22.9216ZM20.2204 28.1167H20.4865V28.9956L20.2204 28.9956L20.2204 28.1167Z" fill="white"/>
<path fill-rule="evenodd" clip-rule="evenodd" d="M22.7039 27.4152H22.97V28.9956H22.7039V27.4152ZM22.0508 27.4152H22.3088V28.9956H22.0508V27.4152ZM18.5513 28.0441V28.3102H17.1483V28.0441H18.5513ZM21.6154 28.0441V28.3102H20.2204V28.0441H21.6154Z" fill="white"/>
<path fill-rule="evenodd" clip-rule="evenodd" d="M20.2204 28.1086H20.4865V28.9956L20.2204 28.9956L20.2204 28.1086Z" fill="white"/>
<path fill-rule="evenodd" clip-rule="evenodd" d="M20.2204 28.1086H20.4865V28.9956L20.2204 28.9956L20.2204 28.1086Z" fill="white"/>
<path fill-rule="evenodd" clip-rule="evenodd" d="M20.2204 28.1086H20.4865V28.9956L20.2204 28.9956L20.2204 28.1086ZM17.1564 28.1086H17.4144V28.9956H17.1483L17.1564 28.1086ZM19.398 28.1086H19.664V28.9956H19.398V28.1086ZM18.2852 28.1086H18.5513V28.9956H18.2852V28.1086Z" fill="white"/>
<path fill-rule="evenodd" clip-rule="evenodd" d="M19.5915 28.7295V28.9956H18.4062V28.7295H19.5915ZM19.664 28.0441V28.3102H18.9142V28.0441H19.664Z" fill="white"/>
<path fill-rule="evenodd" clip-rule="evenodd" d="M-15 0H54.9973V13.1431H-15V0Z" fill="#239F40"/>
<path fill-rule="evenodd" clip-rule="evenodd" d="M23.486 27.4152H27.3161V27.6812H23.486V27.4152ZM24.0585 28.7375H24.3246V28.9956H24.0585V28.7375ZM27.3322 28.7295V28.9956H26.5662V28.7295H27.3322ZM27.7354 27.4152H28.0095V28.9956H27.7354V27.4152Z" fill="white"/>
<path fill-rule="evenodd" clip-rule="evenodd" d="M29.2674 28.7295V28.9956H27.816V28.7295H29.2674ZM26.5662 28.1167H26.8242V28.9956L26.5662 28.9956L26.5662 28.1167Z" fill="white"/>
<path fill-rule="evenodd" clip-rule="evenodd" d="M29.0497 27.4152H29.3158V28.9956H29.0497V27.4152ZM28.3966 27.4152H28.6546V28.9956H28.3966V27.4152ZM24.8971 28.0441V28.3102H23.4941V28.0441H24.8971ZM27.9612 28.0441V28.3102H26.5662V28.0441H27.9612Z" fill="white"/>
<path fill-rule="evenodd" clip-rule="evenodd" d="M26.5662 28.1086H26.8242V28.9956L26.5662 28.9956L26.5662 28.1086Z" fill="white"/>
<path fill-rule="evenodd" clip-rule="evenodd" d="M26.5662 28.1086H26.8242V28.9956L26.5662 28.9956L26.5662 28.1086Z" fill="white"/>
<path fill-rule="evenodd" clip-rule="evenodd" d="M26.5662 28.1086H26.8242V28.9956L26.5662 28.9956L26.5662 28.1086ZM23.4941 28.1086H23.7602V28.9956H23.4941V28.1086ZM25.7438 28.1086H26.0098V28.9956H25.7438V28.1086ZM24.631 28.1086H24.8971V28.9956H24.631V28.1086Z" fill="white"/>
<path fill-rule="evenodd" clip-rule="evenodd" d="M25.9292 28.7295V28.9956H24.7439V28.7295H25.9292ZM26.0098 28.0441V28.3102H25.26V28.0441H26.0098Z" fill="white"/>
<path fill-rule="evenodd" clip-rule="evenodd" d="M29.7915 27.4152H33.6296V27.6812H29.7915V27.4152ZM30.364 28.7375H30.6301V28.9956H30.364V28.7375ZM33.6377 28.7295V28.9956H32.8717V28.7295H33.6377ZM34.0489 27.4152H34.315V28.9956H34.0489V27.4152Z" fill="white"/>
<path fill-rule="evenodd" clip-rule="evenodd" d="M35.5729 28.7295V28.9956H34.1215V28.7295H35.5729ZM32.8717 28.1167H33.1378V28.9956L32.8717 28.9956L32.8717 28.1167Z" fill="white"/>
<path fill-rule="evenodd" clip-rule="evenodd" d="M35.3633 27.4152H35.6213V28.9956H35.3633V27.4152ZM34.7021 27.4152H34.9682V28.9956H34.7021V27.4152ZM31.2026 28.0441V28.3102H29.7996V28.0441H31.2026ZM34.2667 28.0441V28.3102H32.8717V28.0441H34.2667Z" fill="white"/>
<path fill-rule="evenodd" clip-rule="evenodd" d="M32.8717 28.1086H33.1378V28.9956L32.8717 28.9956L32.8717 28.1086Z" fill="white"/>
<path fill-rule="evenodd" clip-rule="evenodd" d="M32.8717 28.1086H33.1378V28.9956L32.8717 28.9956L32.8717 28.1086Z" fill="white"/>
<path fill-rule="evenodd" clip-rule="evenodd" d="M32.8717 28.1086H33.1378V28.9956L32.8717 28.9956L32.8717 28.1086ZM29.8077 28.1086H30.0657V28.9956H29.7996L29.8077 28.1086ZM32.0492 28.1086H32.3153V28.9956H32.0492V28.1086ZM30.9365 28.1086H31.2026V28.9956H30.9365V28.1086Z" fill="white"/>
<path fill-rule="evenodd" clip-rule="evenodd" d="M32.2347 28.7295V28.9956H31.0575V28.7295H32.2347ZM32.3153 28.0441V28.3102H31.5654V28.0441H32.3153Z" fill="white"/>
<path fill-rule="evenodd" clip-rule="evenodd" d="M36.1051 27.4152H39.9351V27.6812H36.1051V27.4152ZM36.6695 28.7375H36.9356V28.9956H36.6695V28.7375ZM39.9432 28.7295V28.9956H39.1852V28.7295H39.9432ZM40.3544 27.4152H40.6205V28.9956H40.3544V27.4152Z" fill="white"/>
<path fill-rule="evenodd" clip-rule="evenodd" d="M41.8864 28.7295V28.9956H40.4351V28.7295H41.8864ZM39.1772 28.1167H39.4433V28.9956H39.1772V28.1167Z" fill="white"/>
<path fill-rule="evenodd" clip-rule="evenodd" d="M41.6687 27.4152H41.9348V28.9956H41.6687V27.4152ZM41.0075 27.4152H41.2736V28.9956H41.0075V27.4152ZM37.5081 28.0441V28.3102H36.1051V28.0441H37.5081ZM40.5721 28.0441V28.3102H39.1852V28.0441H40.5721Z" fill="white"/>
<path fill-rule="evenodd" clip-rule="evenodd" d="M39.1852 28.1086H39.4433V28.9956H39.1772L39.1852 28.1086Z" fill="white"/>
<path fill-rule="evenodd" clip-rule="evenodd" d="M39.1852 28.1086H39.4433V28.9956H39.1772L39.1852 28.1086Z" fill="white"/>
<path fill-rule="evenodd" clip-rule="evenodd" d="M39.1852 28.1086H39.4433V28.9956H39.1772L39.1852 28.1086ZM36.1051 28.1086H36.3712V28.9956H36.1051V28.1086ZM38.3628 28.1086H38.6208V28.9956H38.3547L38.3628 28.1086ZM37.242 28.1086H37.5081V28.9956H37.242V28.1086Z" fill="white"/>
<path fill-rule="evenodd" clip-rule="evenodd" d="M38.5402 28.7295V28.9956H37.363V28.7295H38.5402ZM38.6208 28.0441V28.3102H37.8709V28.0441H38.6208Z" fill="white"/>
<path fill-rule="evenodd" clip-rule="evenodd" d="M42.4428 27.4152H46.2809V27.6812H42.4428V27.4152ZM43.0153 28.7375H43.2814V28.9956H43.0153V28.7375ZM46.289 28.7295V28.9956H45.523V28.7295H46.289ZM46.7002 27.4152H46.9663V28.9956H46.7002V27.4152Z" fill="white"/>
<path fill-rule="evenodd" clip-rule="evenodd" d="M48.2242 28.7295V28.9956H46.7728V28.7295H48.2242ZM45.523 28.1167H45.7891V28.9956L45.523 28.9956V28.1167Z" fill="white"/>
<path fill-rule="evenodd" clip-rule="evenodd" d="M48.0145 27.4152H48.2726V28.9956H48.0145V27.4152ZM47.3534 27.4152H47.6194V28.9956H47.3534V27.4152ZM43.8539 28.0441V28.3102H42.4509V28.0441H43.8539ZM46.9179 28.0441V28.3102H45.523V28.0441H46.9179Z" fill="white"/>
<path fill-rule="evenodd" clip-rule="evenodd" d="M45.523 28.1086H45.7891V28.9956L45.523 28.9956V28.1086Z" fill="white"/>
<path fill-rule="evenodd" clip-rule="evenodd" d="M45.523 28.1086H45.7891V28.9956L45.523 28.9956V28.1086Z" fill="white"/>
<path fill-rule="evenodd" clip-rule="evenodd" d="M45.523 28.1086H45.7891V28.9956L45.523 28.9956V28.1086ZM42.4589 28.1086H42.717V28.9956H42.4509L42.4589 28.1086ZM44.7005 28.1086H44.9666V28.9956H44.7005V28.1086ZM43.5878 28.1086H43.8539V28.9956H43.5878V28.1086Z" fill="white"/>
<path fill-rule="evenodd" clip-rule="evenodd" d="M44.886 28.7295V28.9956H43.7087V28.7295H44.886ZM44.9666 28.0441V28.3102H44.2167V28.0441H44.9666Z" fill="white"/>
<path fill-rule="evenodd" clip-rule="evenodd" d="M-14.3549 27.4152H-10.5249V27.6812H-14.363L-14.3549 27.4152ZM-13.7905 28.7375H-13.5244V28.9956H-13.7905V28.7375ZM-10.5168 28.7295V28.9956H-11.2909V28.7295H-10.5168ZM-10.1056 27.4152H-9.8395V28.9956H-10.1056V27.4152Z" fill="white"/>
<path fill-rule="evenodd" clip-rule="evenodd" d="M-8.58163 28.7295V28.9956H-10.033V28.7295H-8.58163ZM-11.2828 28.1167H-11.0167V28.9956L-11.2909 28.9956L-11.2828 28.1167Z" fill="white"/>
<path fill-rule="evenodd" clip-rule="evenodd" d="M-8.79127 27.4152H-8.53325V28.9956H-8.79127V27.4152ZM-9.45246 27.4152H-9.19444V28.9956H-9.45246V27.4152ZM-12.9519 28.0441V28.3102H-14.3549V28.0441H-12.9519ZM-9.88788 28.0441V28.3102H-11.2828V28.0441H-9.88788Z" fill="white"/>
<path fill-rule="evenodd" clip-rule="evenodd" d="M-11.2909 28.1086H-11.0167V28.9956L-11.2909 28.9956L-11.2909 28.1086Z" fill="white"/>
<path fill-rule="evenodd" clip-rule="evenodd" d="M-11.2909 28.1086H-11.0167V28.9956L-11.2909 28.9956L-11.2909 28.1086Z" fill="white"/>
<path fill-rule="evenodd" clip-rule="evenodd" d="M-11.2909 28.1086H-11.0167V28.9956L-11.2909 28.9956L-11.2909 28.1086ZM-14.3549 28.1086H-14.0888V28.9956H-14.3549V28.1086ZM-12.0972 28.1086H-11.8392V28.9956H-12.1053L-12.0972 28.1086ZM-13.2261 28.1086H-12.9519V28.9956H-13.2261V28.1086Z" fill="white"/>
<path fill-rule="evenodd" clip-rule="evenodd" d="M-11.9198 28.7295V28.9956H-13.1051V28.7295H-11.9198ZM-11.8392 28.0441V28.3102H-12.5891V28.0441H-11.8392Z" fill="white"/>
<path fill-rule="evenodd" clip-rule="evenodd" d="M-1.69559 11.208H2.14254V11.466H-1.69559V11.208ZM-1.12309 12.5223H-0.857006V12.7803H-1.13116L-1.12309 12.5223ZM2.1506 12.5223V12.7803H1.38459V12.5142L2.1506 12.5223ZM2.56183 11.208H2.82792V12.7803H2.56183V11.208Z" fill="white"/>
<path fill-rule="evenodd" clip-rule="evenodd" d="M4.08579 12.5142V12.7803H2.6344V12.5142H4.08579ZM1.38459 11.9014H1.65068V12.7884H1.38459V11.9014Z" fill="white"/>
<path fill-rule="evenodd" clip-rule="evenodd" d="M3.86808 11.208H4.13417V12.7803H3.87614L3.86808 11.208ZM3.21495 11.208H3.47298V12.7803H3.22301L3.21495 11.208ZM-0.284513 11.8288V12.0949H-1.69559V11.8369L-0.284513 11.8288ZM2.77954 11.8288V12.0949H1.38459V11.8369L2.77954 11.8288Z" fill="white"/>
<path fill-rule="evenodd" clip-rule="evenodd" d="M1.38459 11.9014H1.65068V12.7884H1.38459V11.9014Z" fill="white"/>
<path fill-rule="evenodd" clip-rule="evenodd" d="M1.38459 11.9014H1.65068V12.7884H1.38459V11.9014Z" fill="white"/>
<path fill-rule="evenodd" clip-rule="evenodd" d="M1.38459 11.9014H1.65068V12.7884H1.38459V11.9014ZM-1.67946 11.9014H-1.42144V12.7884H-1.69559L-1.67946 11.9014ZM0.562132 11.9014H0.82822V12.7884H0.562132V11.9014ZM-0.550601 11.9014H-0.284513V12.7884H-0.550601V11.9014Z" fill="white"/>
<path fill-rule="evenodd" clip-rule="evenodd" d="M0.747588 12.5142V12.7803H-0.437714V12.5142H0.747588ZM0.828221 11.8369V12.0949H0.0783358V11.8369H0.828221Z" fill="white"/>
<path fill-rule="evenodd" clip-rule="evenodd" d="M-7.98495 11.208H-4.15489V11.466H-7.99301L-7.98495 11.208ZM-7.42052 12.5223H-7.15443V12.7803H-7.42052V12.5223ZM-4.14682 12.5223V12.7803H-4.91284V12.5142L-4.14682 12.5223ZM-3.7356 11.208H-3.46951V12.7803H-3.7356V11.208Z" fill="white"/>
<path fill-rule="evenodd" clip-rule="evenodd" d="M-2.21164 12.5142V12.7803H-3.66303V12.5142H-2.21164ZM-4.91284 11.9014H-4.64675V12.7884H-4.9209L-4.91284 11.9014Z" fill="white"/>
<path fill-rule="evenodd" clip-rule="evenodd" d="M-2.42128 11.208H-2.16326V12.7803H-2.42128V11.208ZM-3.08247 11.208H-2.81638V12.7803H-3.08247V11.208ZM-6.58193 11.8288V12.0949H-7.98495V11.8369L-6.58193 11.8288ZM-3.51789 11.8288V12.0949H-4.91284V11.8369L-3.51789 11.8288Z" fill="white"/>
<path fill-rule="evenodd" clip-rule="evenodd" d="M-4.91284 11.9014H-4.64675V12.7884H-4.9209L-4.91284 11.9014Z" fill="white"/>
<path fill-rule="evenodd" clip-rule="evenodd" d="M-4.91284 11.9014H-4.64675V12.7884H-4.9209L-4.91284 11.9014Z" fill="white"/>
<path fill-rule="evenodd" clip-rule="evenodd" d="M-4.91284 11.9014H-4.64675V12.7884H-4.9209L-4.91284 11.9014ZM-7.97688 11.9014H-7.71886V12.7884H-7.98495L-7.97688 11.9014ZM-5.73529 11.9014H-5.4692V12.7884H-5.72723L-5.73529 11.9014ZM-6.84802 11.9014H-6.58193V12.7884H-6.85609L-6.84802 11.9014Z" fill="white"/>
<path fill-rule="evenodd" clip-rule="evenodd" d="M-5.54984 12.5142V12.7803H-6.72707V12.5142H-5.54984ZM-5.4692 11.8369V12.0949H-6.21102V11.8369H-5.4692Z" fill="white"/>
<path fill-rule="evenodd" clip-rule="evenodd" d="M4.55346 11.208H8.38352V11.466H4.55346V11.208ZM5.11789 12.5223H5.38398V12.7803H5.12595L5.11789 12.5223ZM8.39158 12.5223V12.7803H7.62557V12.5142L8.39158 12.5223ZM8.80281 11.208H9.0689V12.7803H8.80281V11.208Z" fill="white"/>
<path fill-rule="evenodd" clip-rule="evenodd" d="M10.3348 12.5142V12.7803H8.88344V12.5142H10.3348ZM7.62557 11.9014H7.89165V12.7884H7.62557V11.9014Z" fill="white"/>
<path fill-rule="evenodd" clip-rule="evenodd" d="M10.1171 11.208H10.3832V12.7803H10.1171V11.208ZM9.45593 11.208H9.72202V12.7803H9.45593V11.208ZM5.95647 11.8288V12.0949H4.56152V11.8369L5.95647 11.8288ZM9.02051 11.8288V12.0949H7.62557V11.8369L9.02051 11.8288Z" fill="white"/>
<path fill-rule="evenodd" clip-rule="evenodd" d="M7.62557 11.9014H7.89165V12.7884H7.62557V11.9014Z" fill="white"/>
<path fill-rule="evenodd" clip-rule="evenodd" d="M7.62557 11.9014H7.89165V12.7884H7.62557V11.9014Z" fill="white"/>
<path fill-rule="evenodd" clip-rule="evenodd" d="M7.62557 11.9014H7.89165V12.7884H7.62557V11.9014ZM4.56152 11.9014H4.81955V12.7884H4.56152V11.9014ZM6.81118 11.9014H7.0692V12.7884H6.81118V11.9014ZM5.69038 11.9014H5.95647V12.7884H5.69038V11.9014Z" fill="white"/>
<path fill-rule="evenodd" clip-rule="evenodd" d="M6.99663 12.5142V12.7803H5.80326V12.5142H6.99663ZM7.07726 11.8369V12.0949H6.31931V11.8369H7.07726Z" fill="white"/>
<path fill-rule="evenodd" clip-rule="evenodd" d="M48.6435 11.208H52.4735V11.466H48.6435V11.208ZM49.2079 12.5223H49.474V12.7803H49.216L49.2079 12.5223ZM52.4816 12.5223V12.7803H51.7156V12.5142L52.4816 12.5223ZM52.9009 11.208H53.1589V12.7803H52.9009V11.208Z" fill="white"/>
<path fill-rule="evenodd" clip-rule="evenodd" d="M54.4249 12.5142V12.7803H52.9735V12.5142H54.4249ZM51.7156 11.9014H51.9817V12.7884H51.7156V11.9014Z" fill="white"/>
<path fill-rule="evenodd" clip-rule="evenodd" d="M54.2071 11.208H54.4732V12.7803H54.2071V11.208ZM53.546 11.208H53.812V12.7803H53.5379L53.546 11.208ZM50.0465 11.8288V12.0949H48.6515V11.8369L50.0465 11.8288ZM53.1105 11.8288V12.0949H51.7156V11.8369L53.1105 11.8288Z" fill="white"/>
<path fill-rule="evenodd" clip-rule="evenodd" d="M51.7156 11.9014H51.9817V12.7884H51.7156V11.9014Z" fill="white"/>
<path fill-rule="evenodd" clip-rule="evenodd" d="M51.7156 11.9014H51.9817V12.7884H51.7156V11.9014Z" fill="white"/>
<path fill-rule="evenodd" clip-rule="evenodd" d="M51.7156 11.9014H51.9817V12.7884H51.7156V11.9014ZM48.6515 11.9014H48.9096V12.7884H48.6515V11.9014ZM50.9012 11.9014H51.1673V12.7884H50.9012V11.9014ZM49.7885 11.9014H50.0465V12.7884H49.7804L49.7885 11.9014Z" fill="white"/>
<path fill-rule="evenodd" clip-rule="evenodd" d="M51.0866 12.5142V12.7803H49.9014V12.5142H51.0866ZM51.1673 11.8369V12.0949H50.4093V11.8369H51.1673Z" fill="white"/>
<path fill-rule="evenodd" clip-rule="evenodd" d="M10.8348 11.208H14.6648V11.466H10.8348V11.208ZM11.4072 12.5223H11.6733V12.7803H11.4072V12.5223ZM14.6809 12.5223V12.7803H13.9149V12.5142L14.6809 12.5223ZM15.0841 11.208H15.3502V12.7803H15.0922L15.0841 11.208Z" fill="white"/>
<path fill-rule="evenodd" clip-rule="evenodd" d="M16.6161 12.5142V12.7803H15.1647V12.5142H16.6161ZM13.9149 11.9014H14.1729V12.7884H13.9149V11.9014Z" fill="white"/>
<path fill-rule="evenodd" clip-rule="evenodd" d="M16.3984 11.208H16.6645V12.7803H16.3984V11.208ZM15.7453 11.208H16.0033V12.7803H15.7372L15.7453 11.208ZM12.2378 11.8288V12.0949H10.8428V11.8369L12.2378 11.8288ZM15.3099 11.8288V12.0949H13.9149V11.8369L15.3099 11.8288Z" fill="white"/>
<path fill-rule="evenodd" clip-rule="evenodd" d="M13.9149 11.9014H14.1729V12.7884H13.9149V11.9014Z" fill="white"/>
<path fill-rule="evenodd" clip-rule="evenodd" d="M13.9149 11.9014H14.1729V12.7884H13.9149V11.9014Z" fill="white"/>
<path fill-rule="evenodd" clip-rule="evenodd" d="M13.9149 11.9014H14.1729V12.7884H13.9149V11.9014ZM10.8428 11.9014H11.1089V12.7884H10.8428V11.9014ZM13.0925 11.9014H13.3586V12.7884H13.0925V11.9014ZM11.9797 11.9014H12.2458V12.7884H11.9797V11.9014Z" fill="white"/>
<path fill-rule="evenodd" clip-rule="evenodd" d="M13.2779 12.5142V12.7803H12.0926V12.5142H13.2779ZM13.3586 11.8369V12.0949H12.6087V11.8369H13.3586Z" fill="white"/>
<path fill-rule="evenodd" clip-rule="evenodd" d="M17.1402 11.208H20.9784V11.466H17.1402V11.208ZM17.7127 12.5223H17.9788V12.7803H17.7127V12.5223ZM20.9864 12.5223V12.7803H20.2204V12.5142L20.9864 12.5223ZM21.3977 11.208H21.6637V12.7803H21.3977V11.208Z" fill="white"/>
<path fill-rule="evenodd" clip-rule="evenodd" d="M22.9216 12.5142V12.7803H21.4702V12.5142H22.9216ZM20.2204 11.9014H20.4865V12.7884H20.2204V11.9014Z" fill="white"/>
<path fill-rule="evenodd" clip-rule="evenodd" d="M22.7039 11.208H22.97V12.7803H22.7039V11.208ZM22.0508 11.208H22.3088V12.7803H22.0508V11.208ZM18.5513 11.8288V12.0949H17.1483V11.8369L18.5513 11.8288ZM21.6154 11.8288V12.0949H20.2204V11.8369L21.6154 11.8288Z" fill="white"/>
<path fill-rule="evenodd" clip-rule="evenodd" d="M20.2204 11.9014H20.4865V12.7884H20.2204V11.9014Z" fill="white"/>
<path fill-rule="evenodd" clip-rule="evenodd" d="M20.2204 11.9014H20.4865V12.7884H20.2204V11.9014Z" fill="white"/>
<path fill-rule="evenodd" clip-rule="evenodd" d="M20.2204 11.9014H20.4865V12.7884H20.2204V11.9014ZM17.1564 11.9014H17.4144V12.7884H17.1483L17.1564 11.9014ZM19.398 11.9014H19.664V12.7884H19.398V11.9014ZM18.2852 11.9014H18.5513V12.7884H18.2852V11.9014Z" fill="white"/>
<path fill-rule="evenodd" clip-rule="evenodd" d="M19.5915 12.5142V12.7803H18.4062V12.5142H19.5915ZM19.664 11.8369V12.0949H18.9142V11.8369H19.664Z" fill="white"/>
<path fill-rule="evenodd" clip-rule="evenodd" d="M23.486 11.208H27.3161V11.466H23.486V11.208ZM24.0585 12.5223H24.3246V12.7803H24.0585V12.5223ZM27.3322 12.5223V12.7803H26.5662V12.5142L27.3322 12.5223ZM27.7354 11.208H28.0095V12.7803H27.7354V11.208Z" fill="white"/>
<path fill-rule="evenodd" clip-rule="evenodd" d="M29.2674 12.5142V12.7803H27.816V12.5142H29.2674ZM26.5662 11.9014H26.8242V12.7884H26.5662V11.9014Z" fill="white"/>
<path fill-rule="evenodd" clip-rule="evenodd" d="M29.0497 11.208H29.3158V12.7803H29.0497V11.208ZM28.3966 11.208H28.6546V12.7803H28.3966V11.208ZM24.8971 11.8288V12.0949H23.4941V11.8369L24.8971 11.8288ZM27.9612 11.8288V12.0949H26.5662V11.8369L27.9612 11.8288Z" fill="white"/>
<path fill-rule="evenodd" clip-rule="evenodd" d="M26.5662 11.9014H26.8242V12.7884H26.5662V11.9014Z" fill="white"/>
<path fill-rule="evenodd" clip-rule="evenodd" d="M26.5662 11.9014H26.8242V12.7884H26.5662V11.9014Z" fill="white"/>
<path fill-rule="evenodd" clip-rule="evenodd" d="M26.5662 11.9014H26.8242V12.7884H26.5662V11.9014ZM23.4941 11.9014H23.7602V12.7884H23.4941V11.9014ZM25.7438 11.9014H26.0098V12.7884H25.7438V11.9014ZM24.631 11.9014H24.8971V12.7884H24.631V11.9014Z" fill="white"/>
<path fill-rule="evenodd" clip-rule="evenodd" d="M25.9292 12.5142V12.7803H24.7439V12.5142H25.9292ZM26.0098 11.8369V12.0949H25.26V11.8369H26.0098Z" fill="white"/>
<path fill-rule="evenodd" clip-rule="evenodd" d="M29.7915 11.208H33.6296V11.466H29.7915V11.208ZM30.364 12.5223H30.6301V12.7803H30.364V12.5223ZM33.6377 12.5223V12.7803H32.8717V12.5142L33.6377 12.5223ZM34.0489 11.208H34.315V12.7803H34.0489V11.208Z" fill="white"/>
<path fill-rule="evenodd" clip-rule="evenodd" d="M35.5729 12.5142V12.7803H34.1215V12.5142H35.5729ZM32.8717 11.9014H33.1378V12.7884H32.8717V11.9014Z" fill="white"/>
<path fill-rule="evenodd" clip-rule="evenodd" d="M35.3633 11.208H35.6213V12.7803H35.3633V11.208ZM34.7021 11.208H34.9682V12.7803H34.7021V11.208ZM31.2026 11.8288V12.0949H29.7996V11.8369L31.2026 11.8288ZM34.2667 11.8288V12.0949H32.8717V11.8369L34.2667 11.8288Z" fill="white"/>
<path fill-rule="evenodd" clip-rule="evenodd" d="M32.8717 11.9014H33.1378V12.7884H32.8717V11.9014Z" fill="white"/>
<path fill-rule="evenodd" clip-rule="evenodd" d="M32.8717 11.9014H33.1378V12.7884H32.8717V11.9014Z" fill="white"/>
<path fill-rule="evenodd" clip-rule="evenodd" d="M32.8717 11.9014H33.1378V12.7884H32.8717V11.9014ZM29.8077 11.9014H30.0657V12.7884H29.7996L29.8077 11.9014ZM32.0492 11.9014H32.3153V12.7884H32.0492V11.9014ZM30.9365 11.9014H31.2026V12.7884H30.9365V11.9014Z" fill="white"/>
<path fill-rule="evenodd" clip-rule="evenodd" d="M32.2347 12.5142V12.7803H31.0575V12.5142H32.2347ZM32.3153 11.8369V12.0949H31.5654V11.8369H32.3153Z" fill="white"/>
<path fill-rule="evenodd" clip-rule="evenodd" d="M36.1051 11.208H39.9351V11.466H36.1051V11.208ZM36.6695 12.5223H36.9356V12.7803H36.6695V12.5223ZM39.9432 12.5223V12.7803H39.1852V12.5142L39.9432 12.5223ZM40.3544 11.208H40.6205V12.7803H40.3544V11.208Z" fill="white"/>
<path fill-rule="evenodd" clip-rule="evenodd" d="M41.8864 12.5142V12.7803H40.4351V12.5142H41.8864ZM39.1772 11.9014H39.4433V12.7884H39.1772V11.9014Z" fill="white"/>
<path fill-rule="evenodd" clip-rule="evenodd" d="M41.6687 11.208H41.9348V12.7803H41.6687V11.208ZM41.0075 11.208H41.2736V12.7803H41.0075V11.208ZM37.5081 11.8288V12.0949H36.1051V11.8369L37.5081 11.8288ZM40.5721 11.8288V12.0949H39.1852V11.8369L40.5721 11.8288Z" fill="white"/>
<path fill-rule="evenodd" clip-rule="evenodd" d="M39.1852 11.9014H39.4433V12.7884H39.1772L39.1852 11.9014Z" fill="white"/>
<path fill-rule="evenodd" clip-rule="evenodd" d="M39.1852 11.9014H39.4433V12.7884H39.1772L39.1852 11.9014Z" fill="white"/>
<path fill-rule="evenodd" clip-rule="evenodd" d="M39.1852 11.9014H39.4433V12.7884H39.1772L39.1852 11.9014ZM36.1051 11.9014H36.3712V12.7884H36.1051V11.9014ZM38.3628 11.9014H38.6208V12.7884H38.3547L38.3628 11.9014ZM37.242 11.9014H37.5081V12.7884H37.242V11.9014Z" fill="white"/>
<path fill-rule="evenodd" clip-rule="evenodd" d="M38.5402 12.5142V12.7803H37.363V12.5142H38.5402ZM38.6208 11.8369V12.0949H37.8709V11.8369H38.6208Z" fill="white"/>
<path fill-rule="evenodd" clip-rule="evenodd" d="M42.4428 11.208H46.2809V11.466H42.4428V11.208ZM43.0153 12.5223H43.2814V12.7803H43.0153V12.5223ZM46.289 12.5223V12.7803H45.523V12.5142L46.289 12.5223ZM46.7002 11.208H46.9663V12.7803H46.7002V11.208Z" fill="white"/>
<path fill-rule="evenodd" clip-rule="evenodd" d="M48.2242 12.5142V12.7803H46.7728V12.5142H48.2242ZM45.523 11.9014H45.7891V12.7884H45.523V11.9014Z" fill="white"/>
<path fill-rule="evenodd" clip-rule="evenodd" d="M48.0145 11.208H48.2726V12.7803H48.0145V11.208ZM47.3534 11.208H47.6194V12.7803H47.3534V11.208ZM43.8539 11.8288V12.0949H42.4509V11.8369L43.8539 11.8288ZM46.9179 11.8288V12.0949H45.523V11.8369L46.9179 11.8288Z" fill="white"/>
<path fill-rule="evenodd" clip-rule="evenodd" d="M45.523 11.9014H45.7891V12.7884H45.523V11.9014Z" fill="white"/>
<path fill-rule="evenodd" clip-rule="evenodd" d="M45.523 11.9014H45.7891V12.7884H45.523V11.9014Z" fill="white"/>
<path fill-rule="evenodd" clip-rule="evenodd" d="M45.523 11.9014H45.7891V12.7884H45.523V11.9014ZM42.4589 11.9014H42.717V12.7884H42.4509L42.4589 11.9014ZM44.7005 11.9014H44.9666V12.7884H44.7005V11.9014ZM43.5878 11.9014H43.8539V12.7884H43.5878V11.9014Z" fill="white"/>
<path fill-rule="evenodd" clip-rule="evenodd" d="M44.886 12.5142V12.7803H43.7087V12.5142H44.886ZM44.9666 11.8369V12.0949H44.2167V11.8369H44.9666Z" fill="white"/>
<path fill-rule="evenodd" clip-rule="evenodd" d="M-14.3549 11.208H-10.5249V11.466H-14.363L-14.3549 11.208ZM-13.7905 12.5223H-13.5244V12.7803H-13.7905V12.5223ZM-10.5168 12.5223V12.7803H-11.2909V12.5142L-10.5168 12.5223ZM-10.1056 11.208H-9.8395V12.7803H-10.1056V11.208Z" fill="white"/>
<path fill-rule="evenodd" clip-rule="evenodd" d="M-8.58163 12.5142V12.7803H-10.033V12.5142H-8.58163ZM-11.2828 11.9014H-11.0167V12.7884H-11.2909L-11.2828 11.9014Z" fill="white"/>
<path fill-rule="evenodd" clip-rule="evenodd" d="M-8.79127 11.208H-8.53325V12.7803H-8.79127V11.208ZM-9.45246 11.208H-9.19444V12.7803H-9.45246V11.208ZM-12.9519 11.8288V12.0949H-14.3549V11.8369L-12.9519 11.8288ZM-9.88788 11.8288V12.0949H-11.2828V11.8369L-9.88788 11.8288Z" fill="white"/>
<path fill-rule="evenodd" clip-rule="evenodd" d="M-11.2909 11.9014H-11.0167V12.7884H-11.2909V11.9014Z" fill="white"/>
<path fill-rule="evenodd" clip-rule="evenodd" d="M-11.2909 11.9014H-11.0167V12.7884H-11.2909V11.9014Z" fill="white"/>
<path fill-rule="evenodd" clip-rule="evenodd" d="M-11.2909 11.9014H-11.0167V12.7884H-11.2909V11.9014ZM-14.3549 11.9014H-14.0888V12.7884H-14.3549V11.9014ZM-12.0972 11.9014H-11.8392V12.7884H-12.1053L-12.0972 11.9014ZM-13.2261 11.9014H-12.9519V12.7884H-13.2261V11.9014Z" fill="white"/>
<path fill-rule="evenodd" clip-rule="evenodd" d="M-11.9198 12.5142V12.7803H-13.1051V12.5142H-11.9198ZM-11.8392 11.8369V12.0949H-12.5891V11.8369H-11.8392Z" fill="white"/>
<path fill-rule="evenodd" clip-rule="evenodd" d="M-5.38051 26.5282H-4.90477V27.3345H-5.38051V26.5282ZM7.1579 26.5282H7.63363V27.3345H7.1579V26.5282ZM-15 26.5282H-14.5323V27.3345H-15V26.5282ZM-8.63807 26.5282H-8.16234V27.3345H-8.63807V26.5282ZM-2.31646 26.5282H-1.84879V27.3345H-2.31646V26.5282ZM0.812094 26.5282H1.27976V27.3345H0.812094V26.5282ZM3.99709 26.5282H4.48089V27.3345H3.99709V26.5282ZM10.2864 26.5282H10.7622V27.3345H10.2864V26.5282ZM26.155 26.5282H26.6227V27.3345H26.155V26.5282ZM13.4795 26.5282H13.9552V27.3345H13.4795V26.5282ZM16.6081 26.5282H17.0838V27.3345H16.6081V26.5282ZM19.7689 26.5282H20.2365V27.3345H19.7689V26.5282ZM22.9297 26.5282H23.3973V27.3345H22.9297V26.5282ZM48.1677 26.5282H48.6515V27.3345H48.1677V26.5282ZM29.219 26.5282H29.6867V27.3345H29.211L29.219 26.5282ZM32.404 26.5282H32.8798V27.3345H32.404V26.5282ZM35.6293 26.5282H36.1051V27.3345H35.6293V26.5282ZM38.6611 26.5282H39.1369V27.3345H38.6611V26.5282ZM41.8864 26.5282H42.3622V27.3345H41.8784L41.8864 26.5282ZM45.0473 26.5282H45.5149V27.3345H45.0473V26.5282ZM54.4007 26.5282H54.8683V27.3345H54.3926L54.4007 26.5282ZM51.3689 26.5282H51.8365V27.3345H51.3689V26.5282ZM-11.8311 26.5282H-11.3554V27.3345H-11.8311V26.5282Z" fill="#D90000"/>
<path fill-rule="evenodd" clip-rule="evenodd" d="M-5.38051 12.7077H-4.90477V13.5221H-5.38051V12.7077ZM7.1579 12.7077H7.63363V13.5221H7.1579V12.7077ZM-15 12.7077H-14.5323V13.5221H-15V12.7077ZM-8.63807 12.7077H-8.16234V13.5221H-8.63807V12.7077ZM-2.31646 12.7077H-1.84879V13.5221H-2.31646V12.7077ZM0.812094 12.7077H1.27976V13.5221H0.812094V12.7077ZM3.99709 12.7077H4.48089V13.5221H3.99709V12.7077ZM10.2864 12.7077H10.7622V13.5221H10.2864V12.7077ZM26.155 12.7077H26.6227V13.5221H26.155V12.7077ZM13.4795 12.7077H13.9552V13.5221H13.4795V12.7077ZM16.6081 12.7077H17.0838V13.5221H16.6081V12.7077ZM19.7689 12.7077H20.2365V13.5221H19.7689V12.7077ZM22.9297 12.7077H23.3973V13.5221H22.9297V12.7077ZM48.1677 12.7077H48.6515V13.5221H48.1677V12.7077ZM29.219 12.7077H29.6867V13.5221H29.211L29.219 12.7077ZM32.404 12.7077H32.8798V13.5221H32.404V12.7077ZM35.6293 12.7077H36.1051V13.5221H35.6293V12.7077ZM38.6611 12.7077H39.1369V13.5221H38.6611V12.7077ZM41.8864 12.7077H42.3622V13.5221H41.8784L41.8864 12.7077ZM45.0473 12.7077H45.5149V13.5221H45.0473V12.7077ZM54.4007 12.7077H54.8683V13.5221H54.3926L54.4007 12.7077ZM51.3689 12.7077H51.8365V13.5221H51.3689V12.7077ZM-11.8311 12.7077H-11.3554V13.5221H-11.8311V12.7077Z" fill="#239E3F"/>
<path fill-rule="evenodd" clip-rule="evenodd" d="M21.8492 15.4331C22.5184 16.2394 24.5504 20.7146 20.6236 23.6496C18.7771 25.0365 19.9221 25.101 19.9785 25.3429C22.9458 23.7625 23.9134 21.6338 23.8892 19.7147C23.865 17.8037 22.8571 16.1185 21.8573 15.4331H21.8492Z" fill="#DA0000"/>
<path fill-rule="evenodd" clip-rule="evenodd" d="M22.2524 15.2235C22.9748 15.6659 23.59 16.2632 24.0537 16.9723C24.5173 17.6813 24.8179 18.4844 24.9336 19.3236C25.0493 20.1629 24.9773 21.0173 24.7228 21.8253C24.4683 22.6334 24.0376 23.3749 23.4619 23.9963C25.5906 23.5287 28.2998 17.2474 22.2362 15.2235H22.2524ZM17.745 15.2235C17.0225 15.6659 16.4073 16.2632 15.9437 16.9723C15.48 17.6813 15.1795 18.4844 15.0638 19.3236C14.9481 20.1629 15.0201 21.0173 15.2746 21.8253C15.5291 22.6334 15.9597 23.3749 16.5355 23.9963C14.3987 23.5287 11.6895 17.2474 17.745 15.2235Z" fill="#DA0000"/>
<path fill-rule="evenodd" clip-rule="evenodd" d="M18.1401 15.4331C17.4789 16.2394 15.4389 20.7146 19.3657 23.6496C21.2122 25.0365 20.0672 25.101 20.0108 25.3429C17.0515 23.7625 16.0759 21.6338 16.1001 19.7147C16.1243 17.8037 17.1402 16.1185 18.1401 15.4331Z" fill="#DA0000"/>
<path fill-rule="evenodd" clip-rule="evenodd" d="M23.7602 24.9317C22.4843 24.981 21.2144 24.7325 20.0511 24.206C20.2285 24.5527 20.3736 24.7704 20.5591 25.1252C21.5912 25.2139 23.0184 25.3348 23.7602 24.9317ZM16.342 24.9317C17.5031 24.9478 18.9706 24.7704 20.0511 24.206C19.8737 24.5527 19.7286 24.7704 19.5431 25.1252C18.511 25.2139 17.0838 25.3348 16.342 24.9317ZM18.4707 14.0946C18.7126 14.7155 19.3254 14.8122 19.9866 14.4413C20.4704 14.7316 21.2122 14.7477 21.4702 14.1188C21.6637 15.667 20.035 15.3041 19.9785 15.0058C19.3738 15.5863 18.2449 15.2477 18.4707 14.0946Z" fill="#DA0000"/>
<path fill-rule="evenodd" clip-rule="evenodd" d="M20.0269 25.9073L20.6397 25.2058L20.7203 15.8202L19.9946 15.1751L19.2689 15.7879L19.4141 25.2381L20.0269 25.9073Z" fill="#DA0000"/>
</g>
<defs>
<clipPath id="clip0_17544_63614">
<path d="M0 20C0 8.95431 8.95431 0 20 0C31.0457 0 40 8.95431 40 20C40 31.0457 31.0457 40 20 40C8.95431 40 0 31.0457 0 20Z" fill="white"/>
</clipPath>
</defs>
</svg>
