<svg width="40" height="40" viewBox="0 0 40 40" fill="none" xmlns="http://www.w3.org/2000/svg">
<g clip-path="url(#clip0_17522_60636)">
<path d="M0 0H40V40H0V0Z" fill="black"/>
<path fill-rule="evenodd" clip-rule="evenodd" d="M48.3906 40H-8.75V0H48.3906V40Z" fill="white"/>
<path fill-rule="evenodd" clip-rule="evenodd" d="M48.3906 9H-8.75V3.75H48.3906V9ZM48.3906 36.3828H-8.75V31.1328H48.3906V36.3828ZM10.6562 14.8984L19.2578 29.8672L28.0469 14.9688L10.6562 14.8984Z" fill="#0038B8"/>
<path fill-rule="evenodd" clip-rule="evenodd" d="M17.6406 24.8281L19.2734 27.6016L20.9453 24.8438L17.6406 24.8281Z" fill="white"/>
<path fill-rule="evenodd" clip-rule="evenodd" d="M10.625 25.0469L19.2344 10.0781L28.0156 24.9844L10.625 25.0469Z" fill="#0038B8"/>
<path fill-rule="evenodd" clip-rule="evenodd" d="M17.6406 14.9688L19.2734 12.1953L20.9453 14.9609L17.6406 14.9688ZM14.2188 21.1797L12.5234 23.9922L15.7266 23.9844L14.2188 21.1719V21.1797ZM12.5547 15.9844L15.7734 16.0078L14.2266 18.8438L12.5547 15.9844ZM24.3672 21.2188L26 23.9922L22.7422 23.9531L24.3672 21.2188ZM25.9688 15.9844L22.75 16.0078L24.2969 18.8438L25.9688 15.9844ZM17.0391 15.9844L14.8203 20L17.0703 23.9297L21.1953 24.0234L23.6953 20L21.3828 15.9375L17.0391 15.9844Z" fill="white"/>
</g>
<defs>
<clipPath id="clip0_17522_60636">
<path d="M0 4C0 1.79086 1.79086 0 4 0H36C38.2091 0 40 1.79086 40 4V36C40 38.2091 38.2091 40 36 40H4C1.79086 40 0 38.2091 0 36V4Z" fill="white"/>
</clipPath>
</defs>
</svg>
