<svg width="40" height="40" viewBox="0 0 40 40" fill="none" xmlns="http://www.w3.org/2000/svg">
<g clip-path="url(#clip0_17544_63901)">
<path fill-rule="evenodd" clip-rule="evenodd" d="M0 0L20 20L0 40V0ZM40 0L20 20L40 40V0Z" fill="#000001"/>
<path fill-rule="evenodd" clip-rule="evenodd" d="M0 0L20 20L40 0H0ZM0 40L20 20L40 40H0Z" fill="#009900"/>
<path fill-rule="evenodd" clip-rule="evenodd" d="M40 0H36.2734L0 36.2734V40H3.72656L40 3.72656V0Z" fill="#FFCC00"/>
<path fill-rule="evenodd" clip-rule="evenodd" d="M0 0V3.72656L36.2734 40H40V36.2734L3.72656 0H0Z" fill="#FFCC00"/>
</g>
<defs>
<clipPath id="clip0_17544_63901">
<path d="M0 20C0 8.95431 8.95431 0 20 0C31.0457 0 40 8.95431 40 20C40 31.0457 31.0457 40 20 40C8.95431 40 0 31.0457 0 20Z" fill="white"/>
</clipPath>
</defs>
</svg>
