<svg width="40" height="40" viewBox="0 0 40 40" fill="none" xmlns="http://www.w3.org/2000/svg">
<g clip-path="url(#clip0_17522_60647)">
<path fill-rule="evenodd" clip-rule="evenodd" d="M0 0L20 20L0 40V0ZM40 0L20 20L40 40V0Z" fill="#000001"/>
<path fill-rule="evenodd" clip-rule="evenodd" d="M0 0L20 20L40 0H0ZM0 40L20 20L40 40H0Z" fill="#009900"/>
<path fill-rule="evenodd" clip-rule="evenodd" d="M40 0H36.2734L0 36.2734V40H3.72656L40 3.72656V0Z" fill="#FFCC00"/>
<path fill-rule="evenodd" clip-rule="evenodd" d="M0 0V3.72656L36.2734 40H40V36.2734L3.72656 0H0Z" fill="#FFCC00"/>
</g>
<defs>
<clipPath id="clip0_17522_60647">
<path d="M0 4C0 1.79086 1.79086 0 4 0H36C38.2091 0 40 1.79086 40 4V36C40 38.2091 38.2091 40 36 40H4C1.79086 40 0 38.2091 0 36V4Z" fill="white"/>
</clipPath>
</defs>
</svg>
