<svg width="40" height="40" viewBox="0 0 40 40" fill="none" xmlns="http://www.w3.org/2000/svg">
<g clip-path="url(#clip0_17522_60650)">
<path d="M0 0H40V40H0V0Z" fill="white"/>
<path d="M0 0H40V12H0V0Z" fill="#000001"/>
<path d="M0 28H40V40H0V28Z" fill="#006600"/>
<path d="M12.8344 31.875L13.2844 32.125L24.9594 11.875C25.6344 11.725 26.0094 11.075 26.3844 10.425C26.6344 9.975 27.6344 8.25 28.0594 6C26.8733 7.05398 25.8683 8.29548 25.0844 9.675C24.7094 10.325 24.3344 10.975 24.5094 11.65L12.8344 31.875Z" fill="black"/>
<path fill-rule="evenodd" clip-rule="evenodd" d="M28.2502 5.6632L28.1822 6.0232C27.7709 8.20087 26.8264 9.89037 26.5285 10.4233C26.5156 10.4462 26.504 10.4671 26.4936 10.4857L26.4932 10.4866L26.4893 10.4932C26.3042 10.8141 26.1119 11.1475 25.8793 11.4188C25.6552 11.6803 25.387 11.8924 25.0409 11.9838L13.3312 32.294L12.6626 31.9226L24.3762 11.6307C24.2978 11.2787 24.3547 10.9376 24.4731 10.6106C24.5956 10.2721 24.7877 9.9391 24.973 9.6179L24.9757 9.61324C24.9756 9.61337 24.9758 9.61311 24.9757 9.61324C25.7663 8.22198 26.7802 6.96953 27.9763 5.90656L28.2502 5.6632ZM27.8595 6.35169C26.8062 7.33916 25.9071 8.48021 25.1931 9.73676C25.0043 10.0639 24.8225 10.3798 24.7082 10.6957C24.5947 11.0093 24.5513 11.3136 24.6304 11.6186L24.6432 11.6682L13.0062 31.8274L13.2375 31.956L24.8786 11.7649L24.9323 11.753C25.2346 11.6858 25.4752 11.5061 25.6895 11.2562C25.9053 11.0043 26.0869 10.6904 26.2756 10.3634C26.2857 10.3452 26.2971 10.3249 26.3095 10.3026C26.5876 9.80499 27.4251 8.3066 27.8595 6.35169Z" fill="black"/>
<path d="M12.8344 31.875L13.2844 32.125L24.9594 11.875C25.6344 11.725 26.0094 11.075 26.3844 10.425C26.6344 9.975 27.6344 8.25 28.0594 6C26.8733 7.05398 25.8683 8.29548 25.0844 9.675C24.7094 10.325 24.3344 10.975 24.5094 11.65L12.8344 31.875Z" fill="white"/>
<path d="M27.1422 31.875L26.6922 32.125L15.0172 11.875C14.3422 11.725 13.9672 11.075 13.5922 10.425C13.3422 9.975 12.3422 8.25 11.9172 6C13.1032 7.05398 14.1083 8.29548 14.8922 9.675C15.2672 10.325 15.6422 10.975 15.4672 11.65L27.1422 31.875Z" fill="black"/>
<path fill-rule="evenodd" clip-rule="evenodd" d="M11.7264 5.6632L11.7944 6.0232C12.2057 8.20087 13.1502 9.89037 13.4481 10.4233C13.4609 10.4462 13.4726 10.4671 13.4829 10.4857L13.4834 10.4866L13.4872 10.4932C13.6724 10.8141 13.8647 11.1475 14.0973 11.4188C14.3214 11.6803 14.5895 11.8924 14.9356 11.9838L26.6453 32.294L27.314 31.9226L15.6004 11.6307C15.6788 11.2787 15.6218 10.9376 15.5035 10.6106C15.381 10.2721 15.1889 9.9391 15.0036 9.6179L15.0009 9.61324C15.0009 9.61337 15.0008 9.61311 15.0009 9.61324C14.2102 8.22198 13.1964 6.96953 12.0002 5.90656L11.7264 5.6632ZM12.1171 6.35169C13.1704 7.33916 14.0695 8.48021 14.7835 9.73676C14.9722 10.0639 15.1541 10.3798 15.2684 10.6957C15.3819 11.0093 15.4253 11.3136 15.3462 11.6186L15.3333 11.6682L26.9704 31.8274L26.739 31.956L15.098 11.7649L15.0443 11.753C14.7419 11.6858 14.5014 11.5061 14.2871 11.2562C14.0713 11.0043 13.8896 10.6904 13.701 10.3634C13.6908 10.3452 13.6795 10.3249 13.6671 10.3026C13.3889 9.80499 12.5514 8.3066 12.1171 6.35169Z" fill="black"/>
<path d="M27.1422 31.875L26.6922 32.125L15.0172 11.875C14.3422 11.725 13.9672 11.075 13.5922 10.425C13.3422 9.975 12.3422 8.25 11.9172 6C13.1032 7.05398 14.1083 8.29548 14.8922 9.675C15.2672 10.325 15.6422 10.975 15.4672 11.65L27.1422 31.875Z" fill="white"/>
<path d="M19.9844 8C18.4844 8 15.9844 12 15.2344 14H0V26H15.2344C15.9922 28 18.4922 32 19.9922 32C21.4922 32 23.9922 28 24.7422 26H40V14H24.7344C23.9844 12 21.4844 8 19.9844 8Z" fill="#BB0000"/>
<path d="M24.7344 26C25.5071 24.091 25.9305 22.0587 25.9844 20C25.9305 17.9413 25.5071 15.909 24.7344 14C23.9616 15.909 23.5382 17.9413 23.4844 20C23.5382 22.0587 23.9616 24.091 24.7344 26Z" fill="black"/>
<path d="M15.2422 26C14.4694 24.091 14.046 22.0587 13.9922 20C14.046 17.9413 14.4694 15.909 15.2422 14C16.015 15.909 16.4384 17.9413 16.4922 20C16.4384 22.0587 16.015 24.091 15.2422 26Z" fill="black"/>
<path d="M19.9844 21.5C20.5367 21.5 20.9844 20.8284 20.9844 20C20.9844 19.1716 20.5367 18.5 19.9844 18.5C19.4321 18.5 18.9844 19.1716 18.9844 20C18.9844 20.8284 19.4321 21.5 19.9844 21.5Z" fill="white"/>
<path d="M20.2344 21.45C20.2344 21.45 21.2344 23.45 21.2344 26.7C21.2344 29.95 20.2344 31.95 20.2344 31.95V21.45Z" fill="white"/>
<path d="M19.7344 18.55C19.7344 18.55 18.7344 16.55 18.7344 13.3C18.7344 10.05 19.7344 8.05 19.7344 8.05V18.55Z" fill="white"/>
<path d="M19.7344 21.45C19.7344 21.45 18.7344 23.45 18.7344 26.7C18.7344 29.95 19.7344 31.95 19.7344 31.95V21.45Z" fill="white"/>
<path d="M20.2344 18.55C20.2344 18.55 21.2344 16.55 21.2344 13.3C21.2344 10.05 20.2344 8.05 20.2344 8.05V18.55Z" fill="white"/>
</g>
<defs>
<clipPath id="clip0_17522_60650">
<path d="M0 4C0 1.79086 1.79086 0 4 0H36C38.2091 0 40 1.79086 40 4V36C40 38.2091 38.2091 40 36 40H4C1.79086 40 0 38.2091 0 36V4Z" fill="white"/>
</clipPath>
</defs>
</svg>
