<svg width="40" height="40" viewBox="0 0 40 40" fill="none" xmlns="http://www.w3.org/2000/svg">
<g clip-path="url(#clip0_17522_60653)">
<path d="M-0.00131035 0.00305176H39.9993V39.9955H-0.00131035V0.00305176Z" fill="black"/>
<path fill-rule="evenodd" clip-rule="evenodd" d="M-12.8386 0.00305176H52.4542V23.9367H-12.8386V0.00305176Z" fill="#E73E2D"/>
<path fill-rule="evenodd" clip-rule="evenodd" d="M15.9599 22.0331C14.4386 20.8535 11.6076 21.2521 11.1439 18.0306C13.3078 19.7064 12.9173 17.9329 16.1551 19.5356L15.9599 22.0331Z" fill="#FEC74A"/>
<path fill-rule="evenodd" clip-rule="evenodd" d="M11.0565 17.8806L11.1837 17.9791C11.7216 18.3957 12.0956 18.5937 12.403 18.6849C12.7092 18.7758 12.9542 18.7623 13.243 18.7455L13.2463 18.7454C13.5353 18.7286 13.8635 18.7095 14.3225 18.796C14.7824 18.8827 15.3708 19.0748 16.184 19.4772L16.2234 19.4968L16.0153 22.1584L15.92 22.0845C15.5481 21.7961 15.094 21.6027 14.6083 21.4241C14.4852 21.3789 14.3598 21.3345 14.2333 21.2898C13.8642 21.1592 13.4861 21.0254 13.1275 20.8564C12.6443 20.6287 12.1902 20.3344 11.8276 19.8903C11.4647 19.4458 11.1968 18.8551 11.0794 18.0398L11.0565 17.8806ZM11.2337 18.1806C11.3586 18.8934 11.6062 19.4132 11.9285 19.808C12.2747 20.232 12.7103 20.5159 13.183 20.7387C13.5351 20.9046 13.9043 21.0352 14.2717 21.1652C14.3993 21.2104 14.5268 21.2555 14.6532 21.302C15.1014 21.4667 15.535 21.6482 15.9042 21.9107L16.0868 19.5744C15.3016 19.1889 14.7362 19.0064 14.2984 18.9239C13.8551 18.8404 13.5398 18.8587 13.2525 18.8754L13.2501 18.8755C12.9616 18.8923 12.6961 18.9077 12.366 18.8097C12.0635 18.72 11.7109 18.5366 11.2337 18.1806Z" fill="#D8AA3F"/>
<path fill-rule="evenodd" clip-rule="evenodd" d="M16.3666 20.5687C15.2765 18.9742 12.4617 18.4943 13.0068 15.2809C14.5525 17.5424 14.7233 15.7364 17.3184 18.2502L16.3585 20.5687H16.3666Z" fill="#FEC74A"/>
<path fill-rule="evenodd" clip-rule="evenodd" d="M12.9696 15.1111L13.0605 15.2442C13.4448 15.8063 13.7399 16.1102 14.0045 16.2918C14.268 16.4727 14.5053 16.5353 14.7854 16.608L14.7906 16.6093C15.0704 16.6819 15.3884 16.7645 15.7983 16.9866C16.21 17.2097 16.712 17.5722 17.3637 18.2035L17.3955 18.2342L16.4352 20.5537L16.49 20.6338H16.2611L16.2878 20.5694C16.0232 20.1956 15.6603 19.8819 15.265 19.573C15.161 19.4917 15.0545 19.4105 14.9472 19.3288C14.6363 19.0919 14.318 18.8494 14.0291 18.5794C13.6389 18.215 13.2969 17.7961 13.0879 17.2622C12.8787 16.7279 12.8047 16.0832 12.9426 15.27L12.9696 15.1111ZM16.3461 20.4285L17.2414 18.2663C16.6111 17.6597 16.1282 17.3134 15.7363 17.101C15.3404 16.8865 15.0349 16.8072 14.7567 16.735L14.7527 16.734C14.4726 16.6613 14.2151 16.5942 13.9308 16.3991C13.6706 16.2205 13.3913 15.9372 13.0463 15.4515C12.947 16.1692 13.0234 16.7403 13.2091 17.2148C13.4087 17.7245 13.7363 18.1278 14.118 18.4843C14.4017 18.7494 14.7124 18.9861 15.0218 19.2219C15.1301 19.3045 15.2383 19.3869 15.3452 19.4704C15.7194 19.7629 16.075 20.0672 16.3461 20.4285Z" fill="#D8AA3F"/>
<path fill-rule="evenodd" clip-rule="evenodd" d="M16.8547 19.5274C16.4642 17.6482 14.0481 16.1188 15.7809 13.361C16.3504 16.0456 17.1883 14.4348 18.6282 17.754L16.8547 19.5274Z" fill="#FEC74A"/>
<path fill-rule="evenodd" clip-rule="evenodd" d="M15.8112 13.1904L15.8446 13.3475C15.9861 14.0149 16.1431 14.4088 16.3181 14.6777C16.4924 14.9456 16.687 15.0937 16.9173 15.2676L16.9213 15.2706C17.1514 15.4443 17.413 15.6418 17.7065 16.0038C18.0011 16.3673 18.3263 16.8945 18.6879 17.7281L18.7055 17.7687L16.8155 19.6587L16.791 19.5407C16.6956 19.0814 16.4757 18.6408 16.2219 18.1909C16.1573 18.0765 16.0904 17.9613 16.023 17.8451C15.8268 17.5073 15.6258 17.1611 15.4623 16.8006C15.2418 16.3143 15.0864 15.7959 15.0977 15.2224C15.109 14.6483 15.2873 14.0243 15.7258 13.3264L15.8112 13.1904ZM16.8918 19.3983L18.5508 17.7393C18.1996 16.9369 17.8859 16.4319 17.6054 16.0858C17.3219 15.7361 17.0706 15.5464 16.8419 15.3737L16.8389 15.3715C16.6086 15.1976 16.397 15.0376 16.209 14.7487C16.0368 14.4841 15.8867 14.1152 15.7524 13.5333C15.3858 14.158 15.2379 14.715 15.2278 15.225C15.217 15.7726 15.3651 16.2711 15.5809 16.7468C15.7414 17.1008 15.9376 17.4388 16.1328 17.7751C16.2009 17.8924 16.2689 18.0095 16.3352 18.127C16.5695 18.5421 16.7816 18.9604 16.8918 19.3983Z" fill="#D8AA3F"/>
<path fill-rule="evenodd" clip-rule="evenodd" d="M17.9937 18.5675C18.197 16.6476 16.3666 14.4592 18.856 12.3604C18.5712 15.0856 19.8729 13.8247 20.2227 17.4042L17.9855 18.5675H17.9937Z" fill="#FEC74A"/>
<path fill-rule="evenodd" clip-rule="evenodd" d="M18.9375 12.2065L18.9207 12.3671C18.8499 13.0446 18.8785 13.4677 18.963 13.7777C19.0472 14.0865 19.1878 14.288 19.3546 14.5244L19.3586 14.5301C19.5249 14.7659 19.7137 15.0336 19.8822 15.4656C20.0517 15.9003 20.1996 16.4988 20.2875 17.3978L20.2917 17.4416L18.0552 18.6046L18.0522 18.6326H17.9855L17.969 18.5649L17.9289 18.5606C17.9787 18.0913 17.9043 17.6029 17.8004 17.0959C17.7738 16.966 17.7452 16.8348 17.7163 16.7025C17.6332 16.3212 17.5482 15.9308 17.5029 15.5385C17.4418 15.008 17.4522 14.4672 17.6381 13.9246C17.8241 13.3815 18.1841 12.8418 18.814 12.3106L18.9375 12.2065ZM18.0687 18.4508L20.1536 17.3667C20.0661 16.5005 19.9222 15.9266 19.7609 15.5129C19.5982 15.0956 19.4168 14.8385 19.2515 14.6041L19.2482 14.5994C19.0814 14.363 18.9282 14.145 18.8374 13.8119C18.7544 13.5071 18.7245 13.11 18.7757 12.5164C18.2369 12.9995 17.9264 13.4846 17.7612 13.9668C17.5838 14.4849 17.5724 15.0046 17.6322 15.5236C17.6767 15.9089 17.7597 16.2899 17.8424 16.6694C17.8715 16.803 17.9006 16.9364 17.9279 17.0697C18.0235 17.5361 18.0971 17.9992 18.0687 18.4508Z" fill="#D8AA3F"/>
<path fill-rule="evenodd" clip-rule="evenodd" d="M19.0024 17.7865C19.9786 16.1269 19.1977 13.3772 22.3297 12.4824C20.9549 14.8497 22.6551 14.2233 21.508 17.6482L19.0024 17.7865Z" fill="#FEC74A"/>
<path fill-rule="evenodd" clip-rule="evenodd" d="M22.4671 12.3755L22.386 12.5151C22.0442 13.1036 21.897 13.5003 21.8469 13.8168C21.797 14.1321 21.8424 14.3726 21.8973 14.6563L21.8985 14.6624C21.9533 14.9455 22.0156 15.2675 21.992 15.7324C21.9682 16.1997 21.8578 16.8088 21.5698 17.6689L21.5557 17.7108L18.8847 17.8582L18.9463 17.7535C19.1849 17.3479 19.3174 16.8734 19.4302 16.3692C19.4595 16.238 19.4876 16.1046 19.5159 15.97C19.5956 15.5907 19.6773 15.2022 19.7956 14.8281C19.9565 14.3192 20.1869 13.8299 20.5782 13.4109C20.9699 12.9915 21.5192 12.6463 22.3118 12.4198L22.4671 12.3755ZM19.117 17.715L21.4603 17.5857C21.7353 16.7556 21.8394 16.1707 21.862 15.7258C21.8848 15.2767 21.825 14.9674 21.7705 14.6858L21.7696 14.6811C21.7146 14.3973 21.6645 14.1366 21.7183 13.7965C21.7676 13.4852 21.903 13.1117 22.1926 12.5918C21.5029 12.8119 21.0211 13.1273 20.6733 13.4997C20.2997 13.8998 20.0771 14.3695 19.9197 14.8673C19.8035 15.2348 19.7238 15.6139 19.6445 15.9913C19.6159 16.1272 19.5874 16.2628 19.5572 16.3977C19.4532 16.8627 19.3299 17.3155 19.117 17.715Z" fill="#D8AA3F"/>
<path fill-rule="evenodd" clip-rule="evenodd" d="M20.4749 17.9899C21.9229 16.7208 22.0612 13.8735 25.3153 14.0199C23.2571 15.8259 25.0712 15.7771 22.8992 18.657L20.4749 17.9899Z" fill="#FEC74A"/>
<path fill-rule="evenodd" clip-rule="evenodd" d="M20.6058 17.9584L22.8737 18.5825C23.3973 17.8836 23.6809 17.3624 23.843 16.9478C24.0064 16.5297 24.0473 16.2174 24.0846 15.9331L24.0854 15.9273C24.123 15.6405 24.1581 15.3769 24.3172 15.0713C24.4628 14.7917 24.7101 14.4807 25.1502 14.0801C24.4264 14.0696 23.8691 14.2153 23.4207 14.4573C22.9389 14.7173 22.5781 15.0911 22.2704 15.5125C22.0416 15.8257 21.8443 16.162 21.6478 16.4968C21.5789 16.6141 21.5102 16.7313 21.4402 16.8472C21.1939 17.2553 20.9336 17.646 20.6058 17.9584ZM23.3589 14.3427C23.8639 14.0702 24.4947 13.9179 25.3182 13.9549L25.4798 13.9622L25.3582 14.0688C24.8466 14.5178 24.5807 14.8472 24.4326 15.1315C24.2852 15.4146 24.2521 15.6575 24.2145 15.9442L24.2135 15.9513C24.176 16.2372 24.1334 16.5623 23.9642 16.9952C23.7939 17.4308 23.4966 17.9729 22.9511 18.6962L22.9245 18.7314L20.3411 18.0206L20.432 17.9409C20.786 17.6307 21.0618 17.2222 21.3288 16.78C21.3969 16.6671 21.4645 16.5518 21.5327 16.4356C21.7301 16.0992 21.9323 15.7547 22.1653 15.4357C22.4799 15.0049 22.8543 14.615 23.3589 14.3427Z" fill="#D8AA3F"/>
<path fill-rule="evenodd" clip-rule="evenodd" d="M21.7684 18.7302C23.5256 17.9492 24.4936 15.2646 27.5606 16.3629C25.0631 17.4855 26.8122 17.9736 23.8835 20.0806L21.7684 18.7383V18.7302Z" fill="#FEC74A"/>
<path fill-rule="evenodd" clip-rule="evenodd" d="M21.896 18.7422L23.8812 20.002C24.5886 19.4896 25.0139 19.076 25.2915 18.7281C25.572 18.3766 25.7033 18.09 25.823 17.8289L25.8246 17.8255C25.9451 17.5626 26.0561 17.3209 26.2979 17.0754C26.5192 16.8507 26.8469 16.6257 27.3854 16.3718C26.6966 16.1486 26.1212 16.1239 25.6215 16.2234C25.0847 16.3303 24.6301 16.5817 24.2123 16.8939C23.9028 17.1252 23.6165 17.3874 23.3314 17.6484C23.23 17.7412 23.1288 17.8339 23.0268 17.9249C22.6695 18.2438 22.3039 18.5414 21.896 18.7422ZM25.5961 16.0958C26.1588 15.9837 26.8064 16.0236 27.5825 16.3016L27.7345 16.356L27.5873 16.4222C26.9665 16.7013 26.6156 16.9383 26.3906 17.1667C26.1665 17.3943 26.0634 17.6168 25.9429 17.8797L25.9408 17.8843C25.8204 18.1469 25.6836 18.4453 25.3932 18.8093C25.1017 19.1748 24.657 19.6043 23.9215 20.1334L23.8858 20.1591L21.7033 18.7741V18.6879L21.7419 18.6707C22.1714 18.4798 22.555 18.1715 22.9401 17.8278C23.0394 17.7392 23.139 17.648 23.2394 17.5561C23.5258 17.2938 23.8193 17.0251 24.1344 16.7897C24.5615 16.4705 25.0339 16.2077 25.5961 16.0958Z" fill="#D8AA3F"/>
<path fill-rule="evenodd" clip-rule="evenodd" d="M22.8422 19.9179C24.754 19.6576 26.4379 17.3472 29.0737 19.2671C26.3566 19.6413 27.9023 20.6013 24.5018 21.8053L22.8422 19.9179Z" fill="#FEC74A"/>
<path fill-rule="evenodd" clip-rule="evenodd" d="M22.9692 19.9638L24.5215 21.7292C25.3438 21.435 25.8676 21.1567 26.2311 20.9002C26.5976 20.6416 26.8035 20.4035 26.9911 20.1867L26.9948 20.1824C27.184 19.9638 27.3583 19.7629 27.6596 19.5954C27.9355 19.442 28.3139 19.3184 28.9031 19.2264C28.3045 18.8177 27.759 18.6319 27.2512 18.5871C26.7057 18.5389 26.1985 18.6528 25.7093 18.8359C25.3467 18.9715 24.9976 19.1435 24.6499 19.3148C24.5265 19.3755 24.4033 19.4362 24.2798 19.4952C23.8489 19.7007 23.4158 19.8838 22.9692 19.9638ZM27.2627 18.4574C27.8345 18.5079 28.445 18.7286 29.1121 19.2145L29.2425 19.3095L29.0826 19.3316C28.4072 19.4246 28.0033 19.5532 27.7229 19.7091C27.4436 19.8644 27.2823 20.049 27.0932 20.2676L27.0887 20.2729C26.9001 20.4909 26.6857 20.7387 26.3062 21.0065C25.9243 21.276 25.3775 21.5642 24.5235 21.8666L24.482 21.8813L22.7132 19.8698L22.8334 19.8534C23.3007 19.7898 23.7567 19.6005 24.2237 19.3777C24.344 19.3203 24.4652 19.2606 24.5874 19.2004C24.9368 19.0283 25.2945 18.8521 25.6637 18.714C26.1638 18.5269 26.6913 18.4069 27.2627 18.4574Z" fill="#D8AA3F"/>
<path fill-rule="evenodd" clip-rule="evenodd" d="M29.6432 20.2759L20.8898 20.4711L21.2559 22.8303L29.6432 20.2759Z" fill="#FEC74A"/>
<path fill-rule="evenodd" clip-rule="evenodd" d="M29.6418 20.2108L29.6622 20.3381L21.203 22.9144L20.8141 20.4077L29.6418 20.2108ZM20.9655 20.5345L21.3087 22.7462L29.1715 20.3515L20.9655 20.5345Z" fill="#D8AA3F"/>
<path fill-rule="evenodd" clip-rule="evenodd" d="M28.3578 17.0625L20.2471 20.1782L21.6057 22.7815L28.3578 17.0625Z" fill="#FEC74A"/>
<path fill-rule="evenodd" clip-rule="evenodd" d="M28.3345 17.0017L28.3999 17.1121L21.5856 22.8838L20.1556 20.1437L28.3345 17.0017ZM20.3386 20.2128L21.6257 22.6792L28.0229 17.2608L20.3386 20.2128Z" fill="#D8AA3F"/>
<path fill-rule="evenodd" clip-rule="evenodd" d="M21.9148 21.9273L26.1125 14.3047L19.6776 20.2921L21.9148 21.9273Z" fill="#FEC74A"/>
<path fill-rule="evenodd" clip-rule="evenodd" d="M26.0682 14.257L26.1695 14.3361L21.9361 22.0235L19.5756 20.2982L26.0682 14.257ZM19.7797 20.2861L21.8935 21.8311L25.8598 14.6288L19.7797 20.2861Z" fill="#D8AA3F"/>
<path fill-rule="evenodd" clip-rule="evenodd" d="M21.8387 21.2962L23.1889 12.7442L18.9833 20.3512L21.8387 21.2962Z" fill="#FEC74A"/>
<path fill-rule="evenodd" clip-rule="evenodd" d="M23.1299 12.7115L23.2555 12.7547L21.8929 21.3851L18.885 20.3897L23.1299 12.7115ZM19.0816 20.3128L21.7845 21.2072L23.0625 13.1121L19.0816 20.3128Z" fill="#D8AA3F"/>
<path fill-rule="evenodd" clip-rule="evenodd" d="M21.3291 20.6013L19.9136 11.9861L18.3516 20.6419L21.3291 20.6013Z" fill="#FEC74A"/>
<path fill-rule="evenodd" clip-rule="evenodd" d="M19.8495 11.9746L19.9778 11.9756L21.4055 20.6653L18.2735 20.7081L19.8495 11.9746ZM18.4297 20.5758L21.2526 20.5372L19.9105 12.3693L18.4297 20.5758Z" fill="#D8AA3F"/>
<path fill-rule="evenodd" clip-rule="evenodd" d="M20.591 19.8709L16.5031 12.6825L18.0727 21.4204L20.591 19.8709Z" fill="#FEC74A"/>
<path fill-rule="evenodd" clip-rule="evenodd" d="M16.4368 12.6947L16.5617 12.6489L20.6819 19.8942L18.0238 21.5297L16.4368 12.6947ZM18.1216 21.3111L20.5001 19.8477L16.6392 13.0583L18.1216 21.3111Z" fill="#D8AA3F"/>
<path fill-rule="evenodd" clip-rule="evenodd" d="M19.9624 19.8122L13.6251 14.4592L18.132 22.1144L19.9624 19.8122Z" fill="#FEC74A"/>
<path fill-rule="evenodd" clip-rule="evenodd" d="M13.569 14.4922L13.6671 14.4095L20.0526 19.8032L18.1239 22.2291L13.569 14.4922ZM13.8751 14.7556L18.14 21.9997L19.8721 19.8211L13.8751 14.7556Z" fill="#D8AA3F"/>
<path fill-rule="evenodd" clip-rule="evenodd" d="M11.4042 17.1031L18.197 22.7164L19.2465 19.7796L11.396 17.095L11.4042 17.1031Z" fill="#FEC74A"/>
<path fill-rule="evenodd" clip-rule="evenodd" d="M11.35 17.141L11.4171 17.0334L19.33 19.7394L18.2271 22.8257L11.3603 17.1514L11.35 17.141ZM11.7094 17.271L18.167 22.6071L19.163 19.8198L11.7094 17.271Z" fill="#D8AA3F"/>
<path fill-rule="evenodd" clip-rule="evenodd" d="M18.132 20.3816L10.1351 20.2677L18.0994 22.9198L18.1238 20.3816H18.132Z" fill="#FEC74A"/>
<path fill-rule="evenodd" clip-rule="evenodd" d="M10.1145 20.3295L10.136 20.2027L18.132 20.3165L18.132 20.3816L18.1889 20.3822L18.1636 23.0098L10.1145 20.3295ZM18.0581 20.4457L10.5545 20.3388L18.0352 22.8298L18.0581 20.4457Z" fill="#D8AA3F"/>
<path fill-rule="evenodd" clip-rule="evenodd" d="M24.6157 21.8215C24.6423 22.4679 24.538 23.113 24.309 23.7181C24.08 24.3232 23.731 24.8757 23.2831 25.3424C22.8351 25.8092 22.2974 26.1806 21.7023 26.4343C21.1072 26.6881 20.4669 26.8188 19.82 26.8188C19.1731 26.8188 18.5328 26.6881 17.9377 26.4343C17.3426 26.1806 16.8049 25.8092 16.3569 25.3424C15.909 24.8757 15.56 24.3232 15.331 23.7181C15.102 23.113 14.9977 22.4679 15.0243 21.8215C15.0243 20.5486 15.53 19.3277 16.4301 18.4276C17.3303 17.5275 18.5511 17.0218 19.8241 17.0218C21.097 17.0218 22.3179 17.5275 23.218 18.4276C24.1181 19.3277 24.6238 20.5486 24.6238 21.8215H24.6157Z" fill="#FEC74A"/>
<path fill-rule="evenodd" clip-rule="evenodd" d="M19.8241 17.0869C18.5684 17.0869 17.3641 17.5857 16.4762 18.4736C15.5882 19.3616 15.0894 20.5658 15.0894 21.8215V21.8229L15.0894 21.8242C15.0631 22.4619 15.166 23.0982 15.3919 23.6951C15.6178 24.2919 15.962 24.8369 16.4039 25.2974C16.8458 25.7578 17.3761 26.1242 17.9632 26.3745C18.5502 26.6248 19.1818 26.7538 19.82 26.7538C20.4582 26.7538 21.0898 26.6248 21.6768 26.3745C22.2639 26.1242 22.7942 25.7578 23.2361 25.2974C23.678 24.8369 24.0222 24.2919 24.2481 23.6951C24.474 23.0982 24.5769 22.4619 24.5506 21.8242L24.5479 21.7565H24.5583C24.5414 20.5243 24.0445 19.3462 23.172 18.4736C22.2841 17.5857 21.0798 17.0869 19.8241 17.0869ZM24.683 21.8866H24.6889V21.8215C24.6889 20.5313 24.1763 19.2939 23.264 18.3816C22.3517 17.4693 21.1143 16.9567 19.8241 16.9567C18.5338 16.9567 17.2964 17.4693 16.3841 18.3816C15.4721 19.2936 14.9596 20.5305 14.9592 21.8202C14.9325 22.4749 15.0382 23.1283 15.2702 23.7411C15.5023 24.3544 15.856 24.9144 16.31 25.3875C16.764 25.8606 17.309 26.2371 17.9121 26.4942C18.5153 26.7514 19.1643 26.8839 19.82 26.8839C20.4757 26.8839 21.1247 26.7514 21.7278 26.4942C22.331 26.2371 22.876 25.8606 23.33 25.3875C23.784 24.9144 24.1377 24.3544 24.3698 23.7411C24.594 23.149 24.7002 22.5191 24.683 21.8866Z" fill="#D8AA3F"/>
<path fill-rule="evenodd" clip-rule="evenodd" d="M-12.9037 23.7008H52.7145V39.9955H-12.9037V23.7008Z" fill="#005989"/>
<path fill-rule="evenodd" clip-rule="evenodd" d="M-12.9362 35.4642C-11.7159 36.0337 -9.97501 37.441 -8.10393 37.441C-4.97189 37.4248 -4.89054 35.3015 -1.71783 35.4072C1.45488 35.4886 0.885422 37.7176 5.17265 37.7014C8.71144 37.7014 9.8585 34.9924 12.9173 35.3178C15.1789 35.2039 16.1063 37.8722 19.5882 37.9047C23.192 37.9861 24.5099 34.9924 26.7715 35.2445C29.1876 35.2445 29.9767 37.6526 33.361 37.6688C37.6726 37.6932 38.421 35.1632 41.1138 35.3259C43.0337 35.2852 44.5468 37.1807 47.3616 37.2214C49.5987 37.2621 51.478 35.57 52.747 34.9598L52.8121 32.08C51.478 32.5762 49.5011 34.1951 47.5161 34.2195C44.6688 34.3253 42.9035 32.3484 40.9185 32.3647C38.5431 32.3891 37.5994 34.8052 33.5725 34.8052C29.8873 34.8052 29.0412 32.3647 26.6657 32.3647C24.3472 32.381 23.6395 35.0249 19.6207 34.968C16.3422 34.9354 15.065 32.4461 12.7383 32.4705C10.2815 32.4705 7.73522 34.8866 5.00995 34.7646C1.2515 34.6019 0.437988 32.4705 -2.02696 32.4705C-3.86551 32.4705 -5.85049 34.4717 -8.06325 34.5042C-10.2597 34.5449 -12.741 32.5111 -12.9688 32.4705L-12.9362 35.4642ZM-12.9362 29.7696C-11.7159 30.339 -9.97501 31.7464 -8.10393 31.7464C-4.97189 31.722 -4.89054 29.5987 -1.71783 29.7045C1.45488 29.7859 0.885422 32.0149 5.17265 32.0068C8.71144 31.9986 9.8585 29.2977 12.9173 29.6232C15.1789 29.5011 16.1063 32.1776 19.5882 32.2101C23.192 32.2915 24.5099 29.2977 26.7715 29.5418C29.1876 29.5418 29.9767 31.9498 33.361 31.9742C37.6726 31.9905 38.421 29.4686 41.1138 29.6232C43.0337 29.5825 44.5468 31.478 47.3616 31.5268C49.5987 31.5675 51.478 29.8672 52.747 29.2652L52.8121 26.3854C51.478 26.8735 49.5011 28.5005 47.5161 28.5168C44.6688 28.6225 42.9035 26.6457 40.9185 26.662C38.5431 26.6864 37.5994 29.1025 33.5725 29.1025C29.8873 29.1025 29.0412 26.662 26.6657 26.662C24.3472 26.6864 23.6395 29.3222 19.6207 29.2733C16.3422 29.2327 15.065 26.7514 12.7383 26.7758C10.2815 26.7758 7.73522 29.1839 5.00995 29.07C1.2515 28.9073 0.437988 26.7758 -2.02696 26.7758C-3.86551 26.7758 -5.85049 28.7771 -8.06325 28.8096C-10.2597 28.8422 -12.741 26.8165 -12.9688 26.7758L-12.9362 29.7696Z" fill="white"/>
<path fill-rule="evenodd" clip-rule="evenodd" d="M-12.9362 24.1319C-11.7159 24.7014 -9.97501 26.1088 -8.10393 26.1088C-4.98003 26.0844 -4.89867 23.9692 -1.7341 24.0668C1.43861 24.1482 0.869152 26.3772 5.15638 26.3691C8.69517 26.3691 9.84223 23.6601 12.8848 23.9855C15.1545 23.8716 16.0738 26.5399 19.5556 26.5725C23.1513 26.6538 24.4774 23.6601 26.7389 23.9123C29.147 23.9123 29.9361 26.3203 33.3122 26.3366C37.6238 26.3528 38.3722 23.8309 41.065 23.9936C42.9849 23.953 44.4899 25.8403 47.3046 25.8891C49.5418 25.9298 51.421 24.2295 52.682 23.6275L52.747 20.7477C51.421 21.2439 49.436 22.8628 47.4592 22.8791C44.6119 22.9849 42.8466 21.008 40.8697 21.0324C38.4942 21.0487 37.5506 23.473 33.5237 23.473C29.8466 23.473 29.0005 21.0324 26.6332 21.0324C24.3147 21.0487 23.5988 23.6845 19.5881 23.6357C16.3097 23.6031 15.0325 21.1138 12.7139 21.1382C10.2571 21.1382 7.71895 23.5462 4.99368 23.4323C1.23523 23.2696 0.421718 21.1382 -2.0351 21.1382C-3.87364 21.1382 -5.85862 23.1394 -8.07139 23.172C-10.2679 23.2045 -12.741 21.1789 -12.9688 21.1382L-12.9362 24.1319Z" fill="white"/>
<path fill-rule="evenodd" clip-rule="evenodd" d="M10.6883 5.93358C15.4555 5.60817 14.585 5.20142 16.5049 4.89228C18.9211 5.21769 19.1977 6.68201 20.5481 7.58502C20.5481 7.58502 20.0437 9.2934 18.3841 9.05748C18.1645 8.37413 19.1895 8.16261 16.2365 6.35661C14.5199 6.25899 11.453 6.65761 10.6883 5.93358ZM25.4699 8.58564L22.0368 8.72394V9.57813C24.3553 9.65135 24.7702 9.33408 25.4699 8.58564Z" fill="#FFC84B"/>
<path fill-rule="evenodd" clip-rule="evenodd" d="M16.504 4.82239L16.5142 4.82375C17.7388 4.98868 18.4251 5.44388 18.9741 5.97223C19.1562 6.14744 19.3245 6.33219 19.4912 6.51509C19.573 6.60485 19.6543 6.69416 19.7367 6.78168C19.9889 7.04947 20.2552 7.306 20.5865 7.52754L20.6288 7.55581L20.6144 7.6046L20.5481 7.58502C20.6144 7.6046 20.6144 7.60455 20.6144 7.6046L20.6139 7.60632L20.6126 7.61048C20.6115 7.61405 20.6099 7.61918 20.6077 7.62576C20.6034 7.63894 20.5969 7.65793 20.5881 7.68186C20.5705 7.7297 20.5435 7.79734 20.506 7.87757C20.431 8.03781 20.3131 8.24952 20.1414 8.45416C19.7968 8.86504 19.2337 9.24809 18.3744 9.12594L18.3316 9.11985L18.3183 9.07864C18.2612 8.90091 18.2813 8.7511 18.2995 8.61522C18.3006 8.60746 18.3016 8.59975 18.3026 8.59208C18.3214 8.45006 18.3344 8.31786 18.2708 8.15291C18.2063 7.98561 18.0599 7.77728 17.7412 7.4963C17.4251 7.2175 16.9436 6.87086 16.2152 6.42468C15.7927 6.40159 15.2882 6.40811 14.7545 6.42027C14.6406 6.42287 14.5254 6.42572 14.4094 6.4286C13.9755 6.43934 13.531 6.45035 13.1052 6.44915C12.5658 6.44762 12.0529 6.42652 11.6257 6.35972C11.2019 6.29344 10.8483 6.18027 10.6407 5.98379L10.5262 5.87534L10.6836 5.86459C13.0658 5.70198 14.034 5.51932 14.6449 5.34047C14.8332 5.28534 14.9898 5.22961 15.1453 5.17431C15.4901 5.05164 15.8289 4.93109 16.4939 4.82401L16.504 4.82239ZM20.466 7.61284C20.4637 7.61932 20.4611 7.62641 20.4583 7.63407C20.4418 7.67874 20.4164 7.74272 20.3807 7.81896C20.3093 7.97167 20.1974 8.17231 20.0355 8.36528C19.7191 8.74248 19.2134 9.08968 18.4381 8.99487C18.4057 8.8656 18.4206 8.75391 18.4373 8.62849C18.4381 8.62243 18.4389 8.61634 18.4397 8.61022C18.4591 8.46395 18.4766 8.30227 18.3999 8.10317C18.324 7.90642 18.1593 7.68053 17.8327 7.39257C17.5058 7.1043 17.0123 6.75006 16.2725 6.29762L16.2577 6.28856L16.2404 6.28757C15.8082 6.26299 15.2921 6.26969 14.7514 6.28201C14.6368 6.28462 14.5212 6.28749 14.4049 6.29037C13.9713 6.3011 13.5293 6.31205 13.1056 6.31085C12.5682 6.30933 12.0637 6.28823 11.6471 6.22308C11.3246 6.17265 11.0631 6.09695 10.8799 5.98956C13.1297 5.83004 14.0747 5.65149 14.6838 5.47319C14.8835 5.41473 15.0446 5.35731 15.202 5.30124C15.5398 5.1809 15.86 5.06682 16.5058 4.96218C17.691 5.12378 18.3488 5.5624 18.8782 6.07188C19.0571 6.24406 19.22 6.42286 19.3848 6.60373C19.4673 6.69432 19.5503 6.78543 19.6361 6.87648C19.8802 7.13583 20.1423 7.38987 20.466 7.61284ZM25.6354 8.50977L25.5204 8.63286C25.1691 9.00863 24.8807 9.28595 24.3827 9.45547C23.8891 9.62349 23.195 9.68389 22.0346 9.64725L21.9677 9.64513V8.65752L25.6354 8.50977ZM22.106 8.79036V9.51104C23.2233 9.54316 23.8789 9.48087 24.3382 9.32454C24.7491 9.18466 25.007 8.96819 25.3027 8.66158L22.106 8.79036Z" fill="#D8AA3F"/>
<path fill-rule="evenodd" clip-rule="evenodd" d="M13.6576 8.43921C14.2596 8.13007 14.5525 8.26023 15.0731 8.23583C15.4311 8.88664 15.7646 8.94359 16.5456 9.02494C16.8913 9.5367 17.3546 9.95815 17.8967 10.254C18.4388 10.5498 19.0439 10.7114 19.6614 10.7252C21.9962 10.6601 22.7365 9.02494 24.3065 8.84597H25.9661C25.6895 8.37413 25.478 8.10567 24.876 8.08126C23.4599 7.98378 22.0371 8.07681 20.6457 8.35786L18.6933 8.84597C18.1238 8.56937 16.7164 7.09691 15.8216 7.12945C15.2928 7.26775 15.2928 7.45485 15.0325 7.6501C14.5281 7.86975 14.0237 7.76399 13.6495 8.43921H13.6576Z" fill="#FFC84B"/>
<path fill-rule="evenodd" clip-rule="evenodd" d="M18.7009 8.77697L20.6299 8.29472C20.6309 8.29448 20.6319 8.29426 20.6328 8.29406C22.0296 8.01192 23.4579 7.91849 24.8796 8.01627C25.1903 8.029 25.4078 8.10532 25.5835 8.24485C25.7568 8.38235 25.884 8.57727 26.0223 8.81305C26.0341 8.83318 26.0342 8.85808 26.0226 8.87832C26.011 8.89856 25.9894 8.91105 25.9661 8.91105H24.3103C23.6494 8.98741 23.1404 9.32724 22.5754 9.70447C22.4873 9.76329 22.3979 9.82301 22.3063 9.88279C21.629 10.3248 20.8481 10.7572 19.6632 10.7902C19.6621 10.7903 19.661 10.7903 19.6599 10.7903C19.0321 10.7762 18.4168 10.6119 17.8655 10.3111C17.3232 10.0152 16.8584 9.59557 16.5088 9.08653C16.1359 9.04739 15.8545 9.01126 15.6231 8.90287C15.3894 8.7934 15.2122 8.61341 15.0358 8.30247C14.906 8.30688 14.792 8.30276 14.685 8.2989C14.369 8.28749 14.1135 8.27826 13.6873 8.4971C13.6782 8.50183 13.668 8.50429 13.6576 8.50429H13.6495C13.6264 8.50429 13.6051 8.4921 13.5934 8.47224C13.5817 8.45238 13.5814 8.42782 13.5926 8.40766C13.7881 8.05481 14.021 7.90279 14.27 7.81262C14.3745 7.77479 14.4822 7.74775 14.5879 7.72122C14.6054 7.71683 14.6228 7.71244 14.6402 7.70803C14.7614 7.67724 14.8808 7.6444 14.9995 7.59347C15.0574 7.54933 15.1017 7.50546 15.1441 7.46097C15.1533 7.45122 15.1627 7.44129 15.1721 7.43124C15.2064 7.39465 15.2422 7.35646 15.2829 7.31997C15.3906 7.22336 15.5326 7.13775 15.8051 7.06648C15.8097 7.06528 15.8144 7.06458 15.8192 7.06441C16.0597 7.05567 16.3275 7.14765 16.5976 7.28721C16.869 7.42742 17.1499 7.61953 17.4183 7.8196C17.6048 7.95853 17.7868 8.10257 17.9559 8.23638C18.0301 8.29504 18.1018 8.35175 18.1702 8.40519C18.386 8.57367 18.5675 8.70773 18.7009 8.77697ZM15.831 7.19426C15.5795 7.26086 15.4585 7.33727 15.3698 7.41687C15.3337 7.44924 15.3029 7.48208 15.2692 7.51796C15.2593 7.52858 15.249 7.53947 15.2384 7.55069C15.1924 7.59897 15.1408 7.65022 15.0715 7.70216C15.0675 7.7052 15.0631 7.70775 15.0584 7.70977C14.9272 7.76692 14.7968 7.80254 14.6722 7.83419C14.6542 7.83877 14.6363 7.84326 14.6186 7.84771C14.5126 7.87434 14.4121 7.89961 14.3143 7.93501C14.1382 7.99877 13.9723 8.09505 13.8223 8.2918C14.1749 8.14916 14.4305 8.15843 14.7081 8.16849C14.8223 8.17263 14.9402 8.17691 15.0701 8.17082C15.0949 8.16966 15.1182 8.18271 15.1302 8.20446C15.3051 8.52255 15.4692 8.68703 15.6783 8.785C15.8923 8.88522 16.1592 8.91926 16.5523 8.96021C16.5715 8.9622 16.5888 8.97256 16.5995 8.98851C16.9394 9.49165 17.3949 9.906 17.9279 10.1968C18.4604 10.4874 19.0547 10.6463 19.6612 10.6601C20.8101 10.6277 21.5664 10.2102 22.2351 9.77378C22.3246 9.71541 22.4127 9.65647 22.5003 9.59795C23.0645 9.22065 23.6028 8.86068 24.2992 8.7813C24.3007 8.78113 24.3022 8.78101 24.3037 8.78095C24.3046 8.78091 24.3056 8.78088 24.3065 8.78088H25.8515C25.7373 8.5936 25.6329 8.45024 25.5026 8.3468C25.3532 8.22818 25.1641 8.15808 24.8734 8.14629C24.8728 8.14626 24.8721 8.14623 24.8715 8.14619C23.4617 8.04914 22.0453 8.14169 20.6601 8.42136L18.7091 8.9091C18.6942 8.91281 18.6786 8.91118 18.6648 8.90451C18.5151 8.83179 18.3149 8.68326 18.0901 8.5078C18.0204 8.45333 17.9479 8.39604 17.8734 8.33704C17.7049 8.20375 17.5254 8.06175 17.3406 7.92396C17.0741 7.72541 16.7998 7.53822 16.5378 7.40285C16.2776 7.26837 16.0364 7.18878 15.831 7.19426Z" fill="#D8AA3F"/>
<path fill-rule="evenodd" clip-rule="evenodd" d="M16.0168 7.72331C16.0168 7.78804 15.9911 7.85012 15.9453 7.89589C15.8996 7.94166 15.8375 7.96737 15.7728 7.96737C15.708 7.96737 15.646 7.94166 15.6002 7.89589C15.5544 7.85012 15.5287 7.78804 15.5287 7.72331C15.5287 7.65859 15.5544 7.59651 15.6002 7.55074C15.646 7.50497 15.708 7.47926 15.7728 7.47926C15.8375 7.47926 15.8996 7.50497 15.9453 7.55074C15.9911 7.59651 16.0168 7.65859 16.0168 7.72331Z" fill="#FFC84B"/>
<path fill-rule="evenodd" clip-rule="evenodd" d="M15.7728 7.54434C15.7253 7.54434 15.6798 7.5632 15.6462 7.59676C15.6126 7.63033 15.5938 7.67585 15.5938 7.72331C15.5938 7.77078 15.6126 7.81631 15.6462 7.84987C15.6798 7.88343 15.7253 7.90229 15.7728 7.90229C15.8202 7.90229 15.8657 7.88343 15.8993 7.84987C15.9329 7.8163 15.9517 7.77078 15.9517 7.72331C15.9517 7.67585 15.9329 7.63033 15.8993 7.59676C15.8657 7.5632 15.8202 7.54434 15.7728 7.54434ZM15.5542 7.50472C15.6121 7.44675 15.6908 7.41418 15.7728 7.41418C15.8547 7.41418 15.9334 7.44675 15.9913 7.50472C16.0493 7.5627 16.0819 7.64133 16.0819 7.72331C16.0819 7.8053 16.0493 7.88393 15.9913 7.94191C15.9334 7.99988 15.8547 8.03245 15.7728 8.03245C15.6908 8.03245 15.6121 7.99988 15.5542 7.94191C15.4962 7.88393 15.4636 7.8053 15.4636 7.72331C15.4636 7.64133 15.4962 7.5627 15.5542 7.50472Z" fill="#D8AA3F"/>
<path fill-rule="evenodd" clip-rule="evenodd" d="M17.6194 8.42294C21.1257 4.19266 24.1926 4.70517 28.1951 4.42044C28.3253 4.90855 28.2765 5.64072 26.3729 6.29153C23.7696 6.68202 19.0919 9.4317 19.0756 9.4317C18.2052 9.39102 17.595 8.47989 17.6113 8.42294H17.6194Z" fill="#FFC84B"/>
<path fill-rule="evenodd" clip-rule="evenodd" d="M28.2472 4.34741L28.262 4.40262C28.3303 4.65893 28.3528 4.98752 28.1028 5.33533C27.8565 5.67806 27.3521 6.02983 26.3952 6.35696L26.3893 6.35898L26.3831 6.35991C25.0934 6.55337 23.282 7.33362 21.7846 8.0701C21.0374 8.43763 20.3707 8.79304 19.8898 9.0566C19.6494 9.18836 19.4554 9.29715 19.3211 9.373C19.2775 9.39762 19.2402 9.4187 19.2097 9.43603C19.193 9.44544 19.1784 9.45375 19.1657 9.46092C19.1478 9.47103 19.1338 9.4789 19.1241 9.48428C19.1193 9.48693 19.1152 9.48918 19.1121 9.49084C19.1106 9.49163 19.1087 9.49261 19.1068 9.49352C19.106 9.49392 19.1042 9.49475 19.1021 9.49562C19.1009 9.49608 19.0981 9.49712 19.0963 9.49769C19.0932 9.4986 19.0829 9.50047 19.0756 9.50085H19.074L19.0724 9.50077C18.6141 9.47936 18.2291 9.22953 17.964 8.98417C17.8308 8.86093 17.7259 8.73702 17.6549 8.63957C17.6195 8.59094 17.5919 8.54805 17.5733 8.51442C17.5641 8.49778 17.5564 8.48201 17.551 8.46811C17.5483 8.46125 17.5456 8.45321 17.5439 8.44476C17.5426 8.43852 17.5396 8.42231 17.5448 8.40394L17.5591 8.35379H17.587C19.3407 6.24616 20.99 5.31359 22.7041 4.87512C23.9467 4.55723 25.225 4.49953 26.5935 4.43776C27.1118 4.41437 27.6431 4.39039 28.1902 4.35147L28.2472 4.34741ZM17.6922 8.44355C17.6929 8.44483 17.6936 8.44615 17.6944 8.44752C17.7094 8.47477 17.7336 8.51272 17.7667 8.55815C17.8328 8.64883 17.9318 8.76592 18.0579 8.88267C18.3076 9.11373 18.6559 9.33651 19.0602 9.36161C19.0691 9.3566 19.0816 9.34957 19.0976 9.34053C19.1101 9.3335 19.1246 9.32527 19.1411 9.31593C19.1718 9.29854 19.2093 9.27726 19.2531 9.25257C19.3878 9.17652 19.5823 9.06744 19.8234 8.93532C20.3055 8.6711 20.974 8.31469 21.7236 7.946C23.2176 7.21117 25.0433 6.42267 26.3564 6.22408C27.2992 5.901 27.7696 5.56206 27.9905 5.25461C28.1913 4.97528 28.1915 4.71419 28.1419 4.4935C27.6065 4.53067 27.0892 4.55402 26.5863 4.57672C25.2235 4.63824 23.9662 4.695 22.7383 5.0091C21.0548 5.43978 19.4296 6.3552 17.6922 8.44355Z" fill="#D8AA3F"/>
<path fill-rule="evenodd" clip-rule="evenodd" d="M24.7581 5.66208C24.7598 5.62393 24.7921 5.59436 24.8302 5.59604L27.4172 5.70993C27.4554 5.71161 27.4849 5.7439 27.4832 5.78205C27.4816 5.82021 27.4493 5.84977 27.4111 5.84809L24.8241 5.7342C24.786 5.73252 24.7564 5.70023 24.7581 5.66208ZM24.4817 6.0825C24.4848 6.04444 24.5182 6.01611 24.5562 6.01923L26.4436 6.1738C26.4817 6.17692 26.51 6.2103 26.5069 6.24836C26.5037 6.28642 26.4704 6.31475 26.4323 6.31163L24.5449 6.15707C24.5069 6.15395 24.4786 6.12057 24.4817 6.0825Z" fill="#D9A43E"/>
</g>
<defs>
<clipPath id="clip0_17522_60653">
<path d="M0 4C0 1.79086 1.79086 0 4 0H36C38.2091 0 40 1.79086 40 4V36C40 38.2091 38.2091 40 36 40H4C1.79086 40 0 38.2091 0 36V4Z" fill="white"/>
</clipPath>
</defs>
</svg>
