<svg width="40" height="40" viewBox="0 0 40 40" fill="none" xmlns="http://www.w3.org/2000/svg">
<g clip-path="url(#clip0_17544_71382)">
<path d="M0 0H40V40H0V0Z" fill="#244AA5"/>
<path d="M15.8047 19.1953L15.9062 19.1406L16.0312 19.1016C16.0312 19.1016 16.0938 19.0703 16.125 19.0703C16.1562 19.0703 16.2266 19.1094 16.2422 19.1406C16.2656 19.1719 16.375 19.2188 16.375 19.2188C16.375 19.2188 16.4531 19.25 16.4609 19.2188C16.4766 19.2031 16.5078 19.1797 16.5391 19.1797C16.5703 19.1797 16.5859 19.1484 16.5859 19.125C16.5859 19.1016 16.6016 19.0703 16.625 19.0391C16.6484 19.0078 16.7031 18.9922 16.7031 18.9922C16.7031 18.9922 16.7812 18.9609 16.7812 18.9141C16.7812 18.8672 16.8672 18.8359 16.9141 18.8359C16.9531 18.8281 16.9141 18.8047 17.0156 18.8203C17.125 18.8281 17.1406 18.7969 17.1484 18.7656C17.1484 18.7266 17.1484 18.6953 17.2188 18.7031C17.2813 18.7109 17.3203 18.7109 17.3203 18.6719C17.3203 18.6406 17.3828 18.6172 17.2734 18.5938C17.1641 18.5547 17.1719 18.5781 17.1641 18.5312C17.1562 18.4766 17.1641 18.4844 17.0859 18.4766C17.0078 18.4766 17.0547 18.4375 17.0469 18.3984C17.0469 18.3594 17.0234 18.3438 17.0078 18.3203C16.9922 18.2891 16.9531 18.2891 16.9531 18.2578C16.9531 18.2188 16.9531 18.1953 16.9062 18.1953C16.8594 18.1953 16.8516 18.1953 16.8516 18.1641C16.8516 18.125 16.8594 18.0938 16.8984 18.0938C16.9375 18.0938 16.9609 18.0625 16.9531 18.0234V17.9062L17 17.8438L17.1797 17.6875C17.1953 17.6641 17.25 17.6406 17.2734 17.6875C17.2969 17.7422 17.3125 17.7578 17.3359 17.7812C17.3516 17.8047 17.4141 17.7812 17.4297 17.7656C17.4453 17.7344 17.4453 17.6484 17.4844 17.5938C17.5234 17.5469 17.5469 17.5156 17.5547 17.4844C17.5625 17.4531 17.5781 17.4062 17.625 17.4062C17.6719 17.4062 17.6953 17.3516 17.6953 17.3203C17.6953 17.2891 17.7109 17.25 17.7734 17.2422C17.8203 17.2422 17.8516 17.2031 17.8672 17.25C17.8828 17.3047 17.8984 17.3047 17.9375 17.3203C17.9688 17.3359 18.0156 17.3594 18.0469 17.3359C18.0781 17.3125 18.0859 17.2734 18.125 17.2969C18.1641 17.3203 18.1953 17.2969 18.2031 17.25L18.2188 17.1328C18.2188 17.1328 18.2266 17.1016 18.2969 17.1016C18.3672 17.1016 18.3125 17.0625 18.3438 17.0391C18.3828 17.0078 18.3828 16.9844 18.4219 17C18.4688 17.0156 18.5391 16.9844 18.5 16.9453C18.4688 16.8984 18.3906 16.8359 18.4297 16.7891C18.4766 16.7422 18.4922 16.6562 18.4531 16.6484C18.4062 16.6406 18.3438 16.6562 18.3359 16.6094C18.3281 16.5625 18.3125 16.5312 18.3594 16.5156C18.4141 16.5156 18.5078 16.5156 18.5312 16.4844C18.5547 16.4531 18.6484 16.4453 18.6484 16.375C18.6484 16.2969 18.6719 16.2969 18.6797 16.25C18.6875 16.2109 18.6875 16.125 18.6562 16.0859C18.618 16.0481 18.5839 16.0062 18.5547 15.9609C18.5451 15.9423 18.5319 15.9258 18.5158 15.9123C18.4996 15.8989 18.481 15.8889 18.4609 15.8828C18.4062 15.8672 18.3594 15.8594 18.3594 15.8203C18.3594 15.7734 18.3984 15.8203 18.3984 15.7188C18.3984 15.6172 18.3203 15.5938 18.3203 15.5938L18.2188 15.5312C18.2188 15.5312 18.0312 15.4844 17.9844 15.4844C17.9375 15.4844 17.875 15.4297 17.9297 15.3984C17.9922 15.3594 18.0078 15.3047 17.9844 15.2578C17.9609 15.2109 17.9453 15.1797 17.8672 15.1562C17.7891 15.1328 17.7656 15.1172 17.7969 15.0703C17.8359 15.0234 17.8437 14.9922 17.8906 15.0234C17.9297 15.0547 18 15.0703 18.0625 15.0391C18.1172 15.0156 18.1406 14.9922 18.1719 15.0234C18.1953 15.0469 18.2344 15.0781 18.2812 15.0391C18.3203 14.9922 18.3984 14.9922 18.4375 15.0078C18.4766 15.0313 18.5625 15.0234 18.5938 15.0078C18.6172 14.9922 18.6719 14.9453 18.6719 14.9219C18.6719 14.8984 18.7109 14.8438 18.75 14.8281C18.7812 14.8047 18.8281 14.7422 18.8672 14.7422C18.9062 14.7422 18.9141 14.7031 18.9141 14.6719C18.9141 14.6406 18.9453 14.5938 18.9531 14.5781C18.9531 14.5547 19.0312 14.5234 19.0781 14.5703C19.1328 14.6094 19.1953 14.625 19.1953 14.625H19.3047C19.3438 14.6094 19.3906 14.5938 19.4453 14.625C19.4922 14.6641 19.5703 14.6641 19.5703 14.6641L19.5781 14.5859C19.5781 14.5547 19.5938 14.5078 19.5703 14.4922C19.5391 14.4688 19.5 14.4453 19.5625 14.3984C19.6172 14.3594 19.6172 14.3672 19.6719 14.3672L19.8125 14.375C19.8594 14.375 19.9297 14.4141 19.9297 14.4531C19.9297 14.4922 19.9609 14.5234 19.9922 14.5391C20.0312 14.5625 20.0703 14.5781 20.0625 14.6172C20.0469 14.6484 20.0469 14.6719 20.0859 14.6719C20.1328 14.6641 20.1484 14.6875 20.1484 14.7188C20.1484 14.75 20.1562 14.7734 20.2031 14.7891C20.25 14.8047 20.2656 14.8281 20.2656 14.8672L20.2734 14.9453C20.2812 14.9766 20.3359 15.0312 20.3359 15.0312C20.3359 15.0312 20.4141 15.125 20.3125 15.0781C20.2109 15.0312 20.1875 15.0156 20.1562 15.0234C20.1172 15.0234 20.0938 15.0469 20.0938 15.0469L20.0156 15.0625C19.9687 15.0625 19.9375 15.1406 19.9922 15.1484C20.0547 15.1641 20.0703 15.1719 20.0703 15.2266C20.0703 15.2812 20.0547 15.2578 20.0234 15.2891C19.9922 15.3203 19.9688 15.3047 19.9219 15.3047C19.8672 15.3047 19.8594 15.3438 19.8594 15.3828C19.8594 15.4219 19.875 15.4141 19.8984 15.4453C19.9219 15.4844 19.9609 15.4844 19.9922 15.4531C20.0312 15.4219 20.0625 15.3984 20.0781 15.4609C20.0938 15.5234 20.1328 15.5234 20.1719 15.5234C20.2188 15.5234 20.2344 15.5234 20.2656 15.5C20.3047 15.4844 20.3438 15.5 20.3594 15.5547C20.3594 15.6094 20.3984 15.6172 20.4375 15.6328C20.4688 15.6563 20.4922 15.6719 20.5 15.7031C20.5078 15.7344 20.5312 15.75 20.5625 15.7266C20.6016 15.7109 20.6562 15.6953 20.6797 15.7266L20.7422 15.8047V15.8672L20.8828 15.9141L20.8984 15.9766C20.8984 16.0078 20.9219 16.0156 20.9531 16.0078H21.0547C21.0547 16.0078 21.1094 15.9844 21.1094 15.9453C21.1094 15.9063 21.1328 15.8984 21.1641 15.8984C21.2031 15.8984 21.2812 15.9219 21.3047 15.8828C21.3281 15.8438 21.3906 15.8281 21.4375 15.8516L21.625 15.9219C21.625 15.9219 21.6094 15.9219 21.6484 16C21.6953 16.0625 21.7734 16.0625 21.7734 16.0625L21.7969 16.1484C21.8125 16.1719 21.875 16.1875 21.9141 16.1641C21.9453 16.1328 21.9922 16.1016 22.0391 16.1016C22.0859 16.1016 22.1172 16.1016 22.1172 16.0781C22.1172 16.0547 22.0703 16.0313 22.0703 15.9844C22.0703 15.9453 22.1172 15.9453 22.125 15.9063C22.125 15.8672 22.1719 15.9062 22.2031 15.9297C22.2266 15.9453 22.2656 15.9844 22.2656 16.0078C22.2656 16.0312 22.3281 16.125 22.3594 16.1406C22.3984 16.1562 22.4922 16.1641 22.5156 16.125C22.5469 16.0938 22.6172 16.0781 22.6172 16.1641C22.6094 16.2422 22.5938 16.2422 22.6406 16.2734C22.6953 16.3047 22.7031 16.3984 22.6562 16.4219C22.6172 16.4453 22.6016 16.4531 22.6016 16.5C22.6016 16.5469 22.5859 16.6016 22.6172 16.625C22.6562 16.6562 22.6797 16.6719 22.6797 16.7031C22.6797 16.7344 22.7188 16.8516 22.7188 16.8516C22.7188 16.8516 22.7422 16.9688 22.7344 16.9922C22.7266 17.0156 22.7188 17.0703 22.7812 17.0625C22.8438 17.0547 22.8594 17.0547 22.8594 17.1094C22.8594 17.1641 22.8828 17.1875 22.8438 17.2031C22.8125 17.2188 22.7891 17.2812 22.8203 17.3047C22.8594 17.3125 22.8906 17.3359 22.8984 17.3594C22.8984 17.3906 22.9609 17.4375 23 17.4062C23.0312 17.3828 23.0391 17.3672 23.0703 17.3594C23.1016 17.3594 23.1172 17.3359 23.0938 17.3047C23.0625 17.2656 23.0547 17.2344 23.0859 17.2109C23.1172 17.1953 23.125 17.1328 23.125 17.1328C23.125 17.1328 23.1719 17.0703 23.2188 17.1328C23.2734 17.1875 23.2812 17.1641 23.3125 17.1641C23.3516 17.1641 23.3672 17.2031 23.3672 17.2344C23.3672 17.2656 23.4453 17.2578 23.4453 17.3125L23.4531 17.4922C23.4531 17.4922 23.4531 17.5703 23.5 17.5938C23.5391 17.625 23.5312 17.625 23.5078 17.6641C23.4922 17.6953 23.5 17.7422 23.5 17.7734C23.5 17.8047 23.5078 17.8125 23.4766 17.8438C23.4375 17.8672 23.4219 17.8984 23.4453 17.9375C23.4688 17.9844 23.4609 18.0078 23.5234 18.0547C23.5781 18.1016 23.5703 18.125 23.5703 18.1562C23.5703 18.1875 23.625 18.2344 23.625 18.2656C23.625 18.3047 23.6719 18.3438 23.7031 18.3438C23.7344 18.3438 23.7812 18.4141 23.7812 18.4453L23.7969 18.5703C23.7969 18.5703 23.7891 18.5859 23.8281 18.5859C23.875 18.5859 23.9062 18.6328 23.9141 18.5859C23.9297 18.5312 23.9766 18.5234 24 18.5078C24.0312 18.4922 24.0938 18.4688 24.1172 18.4844C24.1484 18.5078 24.1875 18.5078 24.2109 18.5078H24.3828C24.3828 18.5078 24.4141 18.5078 24.4375 18.5625C24.4609 18.6172 24.5234 18.6719 24.4922 18.7031C24.4531 18.7266 24.4531 18.7812 24.4922 18.7812C24.5391 18.7812 24.5859 18.7812 24.5859 18.8125C24.5859 18.8516 24.5859 18.875 24.625 18.8516C24.6641 18.8281 24.6875 18.8281 24.7031 18.8516C24.7109 18.8828 24.7422 18.8828 24.7812 18.8984C24.8125 18.9219 24.8281 18.9062 24.8516 18.8828C24.875 18.8516 24.9609 18.8281 24.9609 18.8281C24.9609 18.8281 25.0781 18.8047 25.1172 18.8125L25.2188 18.8516C25.2188 18.8516 25.25 18.9219 25.2344 18.9609C25.2188 19 25.2031 18.9922 25.2188 19.0547C25.2344 19.1172 25.2031 19.125 25.1797 19.1172C25.1484 19.1094 25.1172 19.1094 25.1172 19.1641C25.1172 19.2188 25.0859 19.2266 25.0859 19.2734C25.0859 19.3203 25.0859 19.3125 25.0625 19.3359C25.0312 19.3516 25.0234 19.3906 25.0625 19.3984C25.1094 19.3984 25.0938 19.4453 25.0938 19.4766V19.5547C25.0938 19.5547 25.0938 19.5938 25.0469 19.5938C24.9922 19.5938 24.9531 19.5938 24.9453 19.625C24.9375 19.6562 24.8828 19.7031 24.9297 19.7422C24.9844 19.7734 24.9688 19.7969 24.9375 19.8047C24.9062 19.8203 24.8906 19.8828 24.9375 19.9062C25 19.9297 24.9922 19.9453 24.9609 19.9766C24.9219 20 24.8516 20.0234 24.8516 20.0547C24.8516 20.1016 24.8359 20.1016 24.7891 20.1094C24.7422 20.1172 24.7266 20.1641 24.7812 20.2344C24.8281 20.3047 24.8438 20.2891 24.8828 20.2891C24.9141 20.2891 24.9141 20.2344 24.9141 20.2344H25.0703C25.1094 20.2344 25.1641 20.2344 25.1875 20.2188C25.2188 20.2031 25.2969 20.1641 25.2969 20.2266C25.2969 20.2891 25.3125 20.2812 25.3516 20.3047C25.3828 20.3359 25.3906 20.3125 25.4297 20.3516C25.4531 20.3906 25.4609 20.3594 25.4766 20.3125C25.5 20.2656 25.5469 20.2188 25.5781 20.2734C25.6094 20.3281 25.6172 20.3125 25.6562 20.3125C25.7031 20.3125 25.7188 20.3359 25.7188 20.3672C25.7188 20.3984 25.7656 20.3984 25.8125 20.3906C25.8594 20.3828 25.8672 20.4219 25.8906 20.4531C25.9141 20.4844 25.9219 20.4844 25.9531 20.4844C25.9766 20.4844 26.0078 20.4844 26.0312 20.4531C26.0547 20.4297 26.0781 20.3906 26.1094 20.4375C26.1406 20.4844 26.1953 20.4688 26.2109 20.4219C26.2266 20.375 26.2891 20.3359 26.3281 20.3906C26.3594 20.4375 26.3906 20.4375 26.4297 20.4453C26.4609 20.4531 26.5156 20.4531 26.5391 20.4844C26.5625 20.5234 26.6328 20.5781 26.5781 20.6172C26.5312 20.6562 26.4688 20.7109 26.5156 20.7188C26.5625 20.7344 26.5938 20.75 26.6172 20.7812C26.6484 20.8125 26.7422 20.8281 26.7812 20.8359C26.8281 20.8359 26.8594 20.8516 26.9141 20.8047C26.9609 20.7656 27.0156 20.7656 27.0078 20.8203C27 20.875 27.0312 20.9375 27.0312 20.9375C27.0312 20.9375 27.0625 21.0156 27.0625 21.0547C27.0625 21.0859 27.0625 21.0938 27.125 21.1328C27.1875 21.1719 27.1797 21.2031 27.2344 21.1641C27.2812 21.1172 27.2969 21.1016 27.2969 21.0703V20.9609C27.2969 20.9609 27.375 20.9453 27.3984 20.9297C27.4219 20.9141 27.5469 20.8516 27.5703 20.875C27.5938 20.8984 27.6406 20.8906 27.6641 20.875H27.7812C27.8125 20.875 27.8594 20.875 27.9219 20.8281C27.9766 20.7812 27.9766 20.7969 28.0156 20.8281C28.0547 20.8594 28.0469 20.9062 28.0312 20.9297C28.0078 20.9531 28.0312 21.0078 28.0781 21.0078C28.1328 21.0078 28.1406 21.0391 28.1406 21.0781L28.1562 21.1797C28.1641 21.2109 28.1641 21.2187 28.2422 21.2422C28.3203 21.2578 28.3125 21.3047 28.3203 21.3438C28.3359 21.375 28.3359 21.3984 28.2969 21.3984C28.25 21.3984 28.2344 21.4219 28.2344 21.4531C28.2266 21.4844 28.1562 21.5 28.1562 21.5L28.0938 21.4844C28.0938 21.4844 28.0469 21.4844 28.0312 21.5156C28.0078 21.5391 27.9609 21.5938 27.9922 21.6406C28.0234 21.6875 28.0234 21.7188 27.9922 21.7344C27.9609 21.7578 27.9453 21.8516 27.9141 21.8359C27.8828 21.8203 27.8516 21.8359 27.8281 21.8516C27.7969 21.8672 27.8047 21.9609 27.8594 21.9922C27.9219 22.0312 27.9375 22.0703 27.9375 22.0703L28 22.1719L27.9609 22.2266C27.9453 22.2578 27.9062 22.3281 27.9453 22.3438C27.9844 22.3594 27.9688 22.4219 27.9297 22.4219C27.8828 22.4219 27.8359 22.4062 27.8281 22.4609C27.8203 22.5156 27.7969 22.5 27.75 22.4922C27.7109 22.4922 27.5938 22.4609 27.5703 22.5156C27.5469 22.5703 27.5391 22.5938 27.4922 22.5781C27.4375 22.5781 27.4531 22.6562 27.4688 22.6953C27.4844 22.7266 27.5391 22.7734 27.5391 22.7734C27.5391 22.7734 27.5781 22.8047 27.5781 22.875C27.5781 22.9453 27.5469 22.9375 27.5234 22.8906C27.5 22.8438 27.4375 22.8516 27.4297 22.8984C27.4219 22.9531 27.4141 23.0312 27.3594 23.0312C27.3125 23.0312 27.2891 23.0469 27.2656 23.0781C27.25 23.1016 27.2109 23.1484 27.2109 23.1719C27.2109 23.1953 27.2031 23.2266 27.1641 23.2344C27.1328 23.2344 27.125 23.3125 27.125 23.3125C27.125 23.3125 27.0391 23.3281 27.0312 23.3594C27.0234 23.3906 27.0312 23.4453 26.9609 23.4531C26.8906 23.4609 26.8516 23.5078 26.8281 23.5391C26.8047 23.5781 26.7969 23.6016 26.8281 23.6328C26.8594 23.6641 26.875 23.7734 26.9062 23.7891C26.9531 23.8125 26.9844 23.8203 26.9688 23.8672C26.9688 23.9297 26.9219 23.9688 26.9766 23.9688C27.0391 23.9688 27.0703 23.9844 27.0547 24.0312C27.0312 24.0781 27.0312 24.0781 26.9844 24.1016C26.9453 24.125 26.9219 24.125 26.9219 24.1797C26.9219 24.2344 26.9375 24.2266 26.8984 24.25C26.8594 24.2656 26.8594 24.2969 26.8594 24.3281C26.8594 24.375 26.8516 24.3594 26.8047 24.4062C26.7578 24.4531 26.7031 24.4531 26.6641 24.4375C26.6328 24.4297 26.625 24.4297 26.6172 24.3906C26.6094 24.3438 26.5391 24.3438 26.5078 24.3516C26.4688 24.3594 26.4219 24.3984 26.4219 24.3984C26.4219 24.3984 26.3594 24.4375 26.3828 24.4766C26.4141 24.5078 26.3984 24.5547 26.3516 24.5547C26.2969 24.5547 26.1797 24.6094 26.1484 24.5547C26.1094 24.4844 26.0078 24.4453 25.9922 24.5312C25.9766 24.6094 26.0391 24.6016 26.0312 24.6875C26.0234 24.7656 26.0078 24.7656 25.9766 24.7891C25.9531 24.8125 25.9531 24.8359 25.9453 24.8672C25.9375 24.8984 25.9297 24.9766 25.9766 25C26.0312 25.0312 26.0547 25.1016 26.0547 25.1406C26.0547 25.1797 26.0547 25.2188 26.1016 25.2188C26.1562 25.2188 26.1953 25.2188 26.2031 25.1641C26.2109 25.1172 26.3125 25.0938 26.3203 25.1875C26.3281 25.2812 26.3203 25.3281 26.3672 25.3672C26.3984 25.4062 26.4297 25.4609 26.4609 25.4844C26.4922 25.5078 26.5391 25.6719 26.5391 25.6719C26.4609 25.6875 26.4453 25.7812 26.3984 25.7969C26.375 25.8047 26.3516 25.7969 26.3203 25.8125C26.3047 25.8281 26.3047 25.8516 26.2812 25.8672C26.2266 25.8906 26.2422 25.8047 26.1719 25.8359C26.1172 25.8594 26.1094 25.9297 26.0312 25.8984C25.9844 25.8828 25.9531 25.7188 25.9453 25.6797C25.9453 25.6562 25.8906 25.5859 25.875 25.5625C25.8281 25.4844 25.7344 25.5625 25.7031 25.5391C25.6484 25.5078 25.6719 25.4453 25.6016 25.4453C25.4453 25.4297 25.5547 25.5312 25.4922 25.5547C25.375 25.6016 25.375 25.4453 25.2812 25.5156C25.25 25.5391 25.3359 25.5625 25.3125 25.6094C25.2969 25.6406 25.2031 25.7031 25.2109 25.75C25.2188 25.8125 25.2891 25.8281 25.3047 25.8828C25.3594 26.0156 25.2734 26.1172 25.1328 26.0078C25.0547 25.9453 25.0469 25.8359 24.9297 25.8438C24.8984 25.8438 24.8906 25.8672 24.8594 25.875C24.8359 25.875 24.8125 25.8516 24.7812 25.8594C24.7422 25.875 24.7812 25.9062 24.7734 25.9297L24.7031 25.9922C24.6719 26.0312 24.6797 26.0703 24.6328 26.1094C24.5938 26.1328 24.5625 26.1172 24.5234 26.1641C24.4766 26.2109 24.4688 26.2812 24.4141 26.3281C24.3828 26.3516 24.3672 26.2578 24.3359 26.3281C24.3203 26.3281 24.3203 26.3359 24.3125 26.3438V26.3906C24.3906 26.5469 24.2344 26.5938 24.1797 26.7031C24.1562 26.7422 24.2188 26.7812 24.1953 26.8125C24.1797 26.8438 24.1094 26.9062 24.1016 26.9219C24.1016 26.9375 24.0938 26.9688 24.0781 26.9844C24.0625 27 24.0234 26.9844 24.0156 27.0078C24.0156 27.0312 24.0625 27.0547 24.0781 27.0703C24.0938 27.0859 24.0703 27.1094 24.0781 27.1172C24.1562 27.1953 24.1094 27.1719 24.1484 27.2422C24.1484 27.2578 24.1797 27.2422 24.1875 27.2656C24.1953 27.2891 24.1719 27.2891 24.1797 27.3125L24.2422 27.3984C24.2422 27.4219 24.125 27.4766 24.1016 27.4766C24.0312 27.4766 24.1641 27.3359 24.0469 27.3359C24 27.3359 24 27.4453 23.9844 27.4609H23.9219C23.8516 27.4609 23.8047 27.5469 23.7734 27.5547H23.6875C23.6562 27.5547 23.625 27.5859 23.5938 27.5859C23.5781 27.5859 23.5703 27.5703 23.5547 27.5625L23.4297 27.5234C23.4062 27.5234 23.3672 27.5547 23.3516 27.5391C23.3359 27.5312 23.375 27.4844 23.3203 27.4609L23.2734 27.3516C23.2891 27.2891 23.3125 27.2188 23.3047 27.1562C23.2891 27.0781 23.1875 27.0234 23.1484 26.9688C23.1328 26.9297 23.1172 26.8125 23.0703 26.7891C23.0244 26.7535 22.9871 26.7081 22.9609 26.6562C22.9609 26.6406 22.9766 26.6172 22.9609 26.5938C22.9453 26.5703 22.9062 26.5625 22.8984 26.5312C22.8906 26.5 22.8984 26.4141 22.8672 26.3984C22.8359 26.375 22.6094 26.3516 22.5547 26.3438C22.5312 26.3438 22.5078 26.3438 22.4844 26.3203L22.4531 26.2812L22.3828 26.2891H22.3281C22.25 26.3359 22.2422 26.3984 22.1719 26.4453C22.1016 26.5078 22.0312 26.5 21.9609 26.5625C21.9141 26.6016 21.8828 26.6953 21.8438 26.7344C21.8281 26.7578 21.7969 26.7344 21.7891 26.7422L21.6641 26.8594C21.6641 26.8594 21.6641 26.8828 21.6484 26.8906L21.5703 26.9062H21.4922C21.4609 26.9219 21.4609 26.9609 21.3359 26.9844L21.3125 27L21.2656 27.0391H21.2188C21.1875 27.0391 21.1641 27.0625 21.1406 27.0703C21.0703 27.0703 20.9688 27.0391 20.9219 27.0625C20.8906 27.0703 20.8047 27.1641 20.7656 27.1719H20.7188C20.7031 27.1719 20.6797 27.2812 20.6719 27.3047L20.5156 27.4375L20.4766 27.5C20.4609 27.5156 20.4375 27.5312 20.4141 27.5312C20.3828 27.5312 20.3359 27.5078 20.3125 27.5C20.2578 27.5 20.1016 27.4844 20.0547 27.5C20.0078 27.5 20.0234 27.6484 19.8984 27.6562L19.6875 27.6875C19.6875 27.6875 19.6406 27.6562 19.5938 27.6719C19.5781 27.6719 19.5312 27.7266 19.5312 27.75V27.7734L19.5391 27.7969C19.5156 27.8359 19.4531 27.875 19.4297 27.9219L19.4141 27.9453C19.3984 27.9609 19.3125 27.9922 19.3047 28.0078C19.2812 28.0547 19.3594 28.1016 19.3516 28.125C19.3359 28.1875 19.2422 28.25 19.2188 28.3125C19.2109 28.3359 19.25 28.4141 19.2422 28.4453C19.2422 28.5234 19.2109 28.625 19.2109 28.7031L19.2266 28.8047L19.2734 28.8359C19.2812 28.8516 19.3828 29.0391 19.3828 29.0625C19.3984 29.1953 19.2031 29.1484 19.3203 29.2891L19.3672 29.3516L19.5469 29.4922C19.5469 29.5156 19.4219 29.5391 19.4062 29.5547C19.3438 29.6172 19.2969 29.7188 19.2422 29.7812C19.2031 29.8125 19.1719 29.7812 19.1328 29.8594C19.1172 29.8906 19.1328 29.9609 19.1094 29.9844C19.0781 30.0156 19.0547 29.9688 19.0312 29.9844C19.0156 29.9844 19.0078 30.0312 19 30.0391C18.9609 30.0625 18.6719 30.2188 18.6484 30.2031C18.6328 30.2031 18.6172 30.1484 18.6172 30.1328C18.6093 30.1092 18.5959 30.0877 18.5781 30.0703C18.5 30.0078 18.3906 29.9922 18.3203 30.0703C18.2969 30.0938 18.2969 30.125 18.2734 30.1484L18.1484 30.2422C18.1484 30.2422 18.125 30.2734 18.1094 30.2656C18.0859 30.2656 18.0156 30.1875 17.9922 30.1641C17.9609 30.125 17.8672 30.0312 17.8594 29.9922C17.8594 29.8359 17.7422 29.6875 17.6953 29.5391H17.7734C17.8516 29.4922 17.8281 29.3516 17.9688 29.4062C17.9922 29.3828 17.9844 29.3594 18.0234 29.3359C18.0391 29.3359 18.0625 29.3203 18.0625 29.3125C18.1172 29.2344 18.1719 28.9531 18.125 28.875C18.0781 28.8125 18.0312 28.8125 17.9922 28.7031V28.6094C17.9922 28.5781 17.9375 28.4219 17.9297 28.4062C17.9219 28.3984 17.8906 28.3828 17.8906 28.3672C17.8906 28.3594 17.875 28.1875 17.8828 28.1719C17.8359 28.0391 17.6641 27.9531 17.6562 27.9375L17.5938 27.8281C17.5703 27.7891 17.5703 27.7656 17.5547 27.7266C17.5547 27.7109 17.5234 27.6953 17.5234 27.6719C17.5234 27.6406 17.6172 27.5625 17.6172 27.5078C17.6172 27.4844 17.5547 27.4297 17.5625 27.3906C17.5781 27.3594 17.6406 27.2812 17.6406 27.2344C17.6406 27.1875 17.5391 27.0781 17.5234 27.0234C17.5234 26.9922 17.5625 26.9688 17.5547 26.9531L17.4219 26.8125C17.4141 26.7891 17.4609 26.7656 17.4219 26.7344C17.3906 26.6953 17.4219 26.7109 17.4141 26.6797L17.3516 26.5859L17.25 26.2266C17.2344 26.2031 17.2109 26.1875 17.2031 26.1641L17.1719 26.0859C17.1719 26.0859 17.0703 26.0547 17.0547 26.0234C17.0391 26 17.0391 25.9297 17.0078 25.8906C17 25.8672 16.9766 25.875 16.9609 25.8594L16.9453 25.8203C16.9141 25.7812 16.8594 25.8203 16.8203 25.6641L16.6641 25.5547L16.6484 25.5312C16.6094 25.5156 16.5547 25.5156 16.5234 25.4844L16.3984 25.4766L16.3672 25.4297C16.3203 25.4141 16.2344 25.4219 16.1953 25.3828C16.1562 25.3516 16.1484 25.2109 16.0938 25.2266H16.0625C16.0234 25.1719 15.8906 25.1641 15.8281 25.1328C15.8125 25.125 15.7656 25.1328 15.7656 25.1172L15.7734 25.0391L15.6953 24.9531C15.6484 24.9375 15.6719 24.9297 15.6328 24.9141C15.5469 24.9062 15.5391 24.9141 15.4766 24.9766L15.4141 25C15.3828 25.0156 15.375 25.0781 15.3359 25.0469L15.2969 25.0156C15.2734 24.9922 15.2578 25.0078 15.25 24.9688C15.1719 24.9297 14.9688 25.0625 14.9219 24.9688C14.8828 24.9453 14.8594 24.9688 14.8281 24.9453C14.8125 24.9297 14.8672 24.7578 14.7187 24.6953L14.8281 24.6172V24.5547C14.8281 24.5312 14.8437 24.4766 14.8359 24.4531L14.8047 24.3906C14.7891 24.3672 14.8047 24.3438 14.7891 24.3125L14.7422 24.2891C14.7031 24.2578 14.6641 24.2422 14.6328 24.2031L14.6094 24.1719C14.5859 24.1562 14.4922 24.125 14.5 24.0859C14.5 24.0703 14.5156 24.0703 14.5234 24.0547C14.5234 24.0391 14.5234 24.0156 14.5391 24C14.5781 23.9453 14.6719 23.9688 14.6562 23.8672C14.6562 23.8203 14.6172 23.7812 14.6094 23.7266L14.5781 23.6875C14.4844 23.6797 14.5 23.5859 14.4688 23.5625C14.3672 23.5 14.2969 23.5391 14.4062 23.4062C14.4219 23.3672 14.3125 23.2969 14.2891 23.2812C14.25 23.2422 14.2734 23.1641 14.2578 23.125C14.25 23.1016 14.1797 23.0703 14.1641 23.0469L14.1328 22.9844V22.9688C14.1562 22.9531 14.1484 22.9297 14.1328 22.9062C14.1328 22.8906 14.1016 22.8984 14.0937 22.8906C14 22.8125 13.8984 22.7734 13.7812 22.7344C13.75 22.7188 13.7656 22.6953 13.7344 22.6797L13.5547 22.6016C13.5312 22.6016 13.5234 22.5312 13.5078 22.5156C13.4934 22.4917 13.4749 22.4705 13.4531 22.4531C13.4531 22.3906 13.4141 22.3828 13.375 22.3516L13.3594 22.3125L13.3984 22.1797C13.4062 22.1562 13.4375 22.1328 13.4375 22.1016L13.4062 21.9609C13.3594 21.8359 13.3047 21.8516 13.3281 21.6797C13.3359 21.6406 13.3281 21.625 13.3516 21.5938L13.3672 21.5703L13.4453 21.5156C13.4688 21.4844 13.4844 21.3984 13.5234 21.375C13.5391 21.3516 13.6172 21.3125 13.625 21.2969C13.6406 21.2812 13.6562 21.2422 13.6484 21.2188H13.5703C13.5625 21.2188 13.5312 21.1875 13.5 21.1875L13.4844 21.1562L13.4687 21.1406L13.3906 21.1172C13.3516 21.1016 13.3125 21.1016 13.2734 21.0781C13.2187 21.0469 13.1562 20.9531 13.0938 20.9453C13.0156 20.9297 12.9688 20.9453 12.8984 20.9453C12.8516 20.9531 12.8516 20.9297 12.8203 20.9141C12.7656 20.8984 12.8047 20.9453 12.6875 20.9062C12.6719 20.8906 12.6875 20.8516 12.6953 20.8359C12.6797 20.8359 12.6562 20.8438 12.6328 20.8359C12.5391 20.8125 12.5703 20.7266 12.5547 20.6797C12.5391 20.6562 12.5 20.6641 12.4766 20.6641V20.6406C12.5 20.6172 12.4453 20.5547 12.4453 20.5469C12.4453 20.5234 12.5625 20.5078 12.5781 20.5078C12.5859 20.4922 12.5703 20.4766 12.5703 20.4609L12.5938 20.3516L12.5156 20.2734C12.5234 20.2656 12.5469 20.25 12.5469 20.2344C12.6016 20.0781 12.6875 20.2031 12.7656 20.0625L12.8047 19.9844H12.8203L12.8672 20C12.875 19.9844 12.8984 19.9766 12.9141 19.9688L12.9453 19.9766C13.0859 19.9453 13.0547 19.8984 13.1328 19.8359C13.1562 19.8203 13.2188 19.8203 13.25 19.8047C13.2812 19.8203 13.3281 19.8672 13.3828 19.8906C13.4219 19.9062 13.5625 19.9375 13.5859 19.9531C13.6172 19.9688 13.625 20.0078 13.6562 20.0234C13.7344 20.0625 13.6875 19.9922 13.7656 20.0078C13.8438 20.0234 13.9062 20.0859 13.9844 20.1172H14.0391C14.0625 20.1172 14.1953 20.0859 14.2031 20.0938L14.2578 20.1172C14.2734 20.1172 14.2891 20.0781 14.2969 20.0781C14.3516 20.0859 14.3594 20.1094 14.4297 20.1016C14.4297 20.1016 14.4688 19.8984 14.5078 19.8906C14.5234 19.8906 14.5781 19.9375 14.5859 19.9453C14.6172 19.9453 14.5859 19.8984 14.5859 19.8984C14.5859 19.8828 14.5391 19.7578 14.5469 19.7422C14.5469 19.7422 14.5781 19.7578 14.5938 19.7422C14.6406 19.7422 14.6875 19.7266 14.7187 19.6953L14.7891 19.6016C14.7891 19.5859 14.7734 19.5469 14.7812 19.5391L14.8359 19.5C14.8594 19.4766 14.8672 19.4375 14.8984 19.4219C15.0312 19.4062 15.0703 19.3047 15.1875 19.2891H15.2266L15.25 19.3281C15.2578 19.3359 15.3281 19.3828 15.3516 19.3828L15.375 19.3594C15.3984 19.3594 15.4609 19.3203 15.4688 19.2969C15.4688 19.2969 15.4531 19.2812 15.4688 19.2656C15.4688 19.2578 15.5469 19.1875 15.5625 19.1875H15.6484L15.6875 19.2266H15.7578C15.7734 19.2266 15.7812 19.1953 15.7969 19.1875L15.8047 19.1953Z" fill="#D0A650"/>
<path d="M21.9844 9.72656L22.9922 12.8281L20.3516 10.9141H23.6094L20.9766 12.8281L21.9844 9.72656ZM25.9062 10.4219L26.9141 13.5234L24.2734 11.6094H27.5391L24.8984 13.5156L25.9062 10.4219ZM29.6484 11.7812L30.6641 14.8828L28.0234 12.9688H31.2812L28.6406 14.8828L29.6484 11.7812ZM18 9.72656L16.9844 12.8281L19.625 10.9141H16.3672L19.0078 12.8281L17.9922 9.72656H18ZM14.0781 10.4219L13.0625 13.5234L15.7031 11.6094H12.4453L15.0781 13.5156L14.0625 10.4141L14.0781 10.4219ZM10.3516 11.7812L11.3594 14.8828L8.71875 12.9688H11.9766L9.34375 14.8828L10.3516 11.7812Z" fill="white"/>
</g>
<defs>
<clipPath id="clip0_17544_71382">
<path d="M0 20C0 8.95431 8.95431 0 20 0C31.0457 0 40 8.95431 40 20C40 31.0457 31.0457 40 20 40C8.95431 40 0 31.0457 0 20Z" fill="white"/>
</clipPath>
</defs>
</svg>
