<svg width="40" height="40" viewBox="0 0 40 40" fill="none" xmlns="http://www.w3.org/2000/svg">
<g clip-path="url(#clip0_17544_63946)">
<path d="M-0.00625038 0H39.9976V40.0038H0.00335884L-0.00625038 0Z" fill="black"/>
<path fill-rule="evenodd" clip-rule="evenodd" d="M-10 0H50.0586V40.0038H-10V0Z" fill="#FF0000"/>
<path fill-rule="evenodd" clip-rule="evenodd" d="M8.23859 20.4007C9.30523 19.1034 11.5154 20.3719 13.322 19.4398C11.1791 19.5551 10.0163 18.4116 8.32508 18.5749C10.074 17.4987 11.5634 18.9209 13.5237 18.3443C10.9292 18.1329 11.0445 16.9702 8.69023 16.8068C10.7851 15.9131 11.8133 17.7293 13.8697 17.3161C11.4481 16.7587 11.131 15.3366 9.33406 15.0291C11.9574 14.6351 11.7845 16.1822 14.3598 16.3744C11.746 15.2597 12.4379 14.2795 10.247 13.4339C12.6973 13.3763 12.534 15.0675 15.0036 15.5095C12.8895 14.1642 13.149 12.9342 11.4001 11.9733C13.4757 12.0117 13.6775 14.1354 15.7916 14.7888C13.9081 13.2994 14.3982 12.0309 12.7742 10.6952C14.8306 11.1757 14.5327 13.0111 16.6756 14.1738C15.0901 12.4153 15.6955 11.1469 14.3117 9.69586C16.2912 10.3397 15.5417 12.079 17.5981 13.7318C16.4162 11.7907 17.1465 10.5511 15.9837 8.90789C17.8287 9.86883 16.9351 11.637 18.6455 13.4051C17.8384 11.4159 18.6455 10.1763 17.8191 8.4082C19.3951 9.59016 18.463 11.4832 19.7314 13.2994C19.2702 10.8009 20.3464 10.3877 20.0101 8.20641C21.2016 9.67664 19.8659 11.1469 20.7788 13.2994C20.6827 10.849 21.98 10.2724 21.7494 8.3025C22.9409 10.0706 21.0863 11.6081 21.8647 13.5012C22.0569 11.1661 23.5944 10.5703 23.6232 8.75414C24.5553 10.4166 22.5181 11.6177 22.8545 13.8279C23.5175 11.3871 25.1511 11.0892 25.3529 9.44602C25.9102 11.3679 23.6809 12.2712 23.8154 14.4045C24.4784 12.2423 26.5156 11.9829 26.9384 10.3877C27.1883 12.4249 25.1799 12.7901 24.6226 15.0387C25.6796 13.2129 27.5246 13.0495 28.351 11.5985C28.2837 13.6165 26.0159 13.8759 25.3241 15.769C26.6309 14.1642 28.2645 14.4429 29.5714 13.0207C29.4369 14.8465 27.1306 14.7408 25.9006 16.6242C27.3228 15.3173 29.4561 15.7113 30.542 14.587C30.4843 16.1918 27.6591 16.0765 26.3138 17.5083C27.9666 16.6146 30.0519 17.1431 31.2626 16.2975C31.032 17.7101 28.0531 17.393 26.6117 18.4884C28.5816 17.9407 30.0999 18.7767 31.7047 18.1713C30.9263 19.5455 28.2165 18.6806 26.7751 19.5743C28.4855 19.286 30.3017 20.3142 31.8584 19.9875C31.3491 21.1695 28.3798 19.9106 26.7655 20.6602C28.6873 20.6313 29.9366 21.8613 31.7047 21.7748C30.7437 22.8511 28.13 21.3713 26.6117 21.6211C28.4663 22.0055 29.8789 23.543 31.2915 23.6198C30.1384 24.5039 27.9762 22.4859 26.2177 22.7454C28.0243 23.2259 29.5426 25.2823 30.5804 25.3303C29.4657 26.0991 27.2555 23.5718 25.7469 23.6583C27.5727 24.4943 28.4183 26.5891 29.6291 26.887C28.1396 27.3675 26.6694 24.6096 25.0646 24.5135C26.9192 25.6859 27.0249 27.4732 28.4567 28.2612C26.9577 28.6455 25.8814 25.5225 24.2959 25.263C25.8237 26.3777 26.0448 28.7705 27.0634 29.5296C25.5259 29.6065 24.9781 26.3489 23.4118 25.878C24.7571 27.0023 24.4304 29.4335 25.4682 30.4809C23.8827 30.1542 24.0844 27.3098 22.422 26.3489C23.6136 27.8672 22.9986 30.0101 23.7866 31.2209C22.2298 30.5963 22.9121 28.0498 21.4227 26.6084C22.2298 28.2227 21.365 30.0966 21.9992 31.6533C20.5866 30.9614 21.538 27.9537 20.4521 26.7525C20.9518 28.6167 20.0293 30.1542 20.4041 31.8166C18.953 30.135 20.6251 28.4534 19.3662 26.7237C19.693 28.7032 18.3188 30.0677 18.5398 31.7205C17.3867 30.3752 19.1548 28.2131 18.2612 26.5219C18.4534 28.4534 16.6756 30.1446 16.8005 31.365C15.8684 29.8083 17.8384 27.9633 17.3098 26.1855C17.1945 28.0305 15.4072 29.0299 15.0709 30.702C14.4655 28.857 16.5987 27.5212 16.4162 25.7051C15.8012 27.4348 14.0715 28.1266 13.4565 29.7987C12.9568 27.9537 15.4841 26.9735 15.5513 25.0324C14.773 26.8582 12.6973 27.2522 12.0151 28.6455C11.7556 26.8198 14.6577 25.9934 14.7634 24.2541C13.8312 25.9261 11.5634 25.9838 10.7755 27.3195C10.6602 25.4937 13.7159 25.263 14.1964 23.3508C13.2643 24.773 10.7755 24.6 9.74726 25.7531C9.91062 24.0523 13.2066 23.9466 13.7352 22.4283C12.5052 23.6102 10.2277 23.1202 8.93047 24.0619C9.65117 22.3898 12.755 22.7454 13.4469 21.5346C12.0823 22.2553 9.65117 21.5634 8.45 22.2745C9.54547 20.6986 11.9574 21.6403 13.322 20.5448C11.1022 20.8716 9.76648 19.9875 8.22898 20.4007H8.23859Z" fill="#FFFF00"/>
<path fill-rule="evenodd" clip-rule="evenodd" d="M27.8033 20.0067C27.8399 21.0474 27.6666 22.0848 27.2936 23.0571C26.9207 24.0294 26.3557 24.9166 25.6324 25.6657C24.9092 26.4149 24.0424 27.0108 23.0839 27.4177C22.1253 27.8247 21.0947 28.0344 20.0533 28.0344C19.012 28.0344 17.9813 27.8247 17.0228 27.4177C16.0642 27.0108 15.1975 26.4149 14.4742 25.6657C13.7509 24.9166 13.186 24.0294 12.813 23.0571C12.44 22.0848 12.2667 21.0474 12.3034 20.0067C12.3741 17.9985 13.2216 16.0962 14.6672 14.7005C16.1129 13.3049 18.0439 12.5249 20.0533 12.5249C22.0628 12.5249 23.9937 13.3049 25.4394 14.7005C26.8851 16.0962 27.7326 17.9985 27.8033 20.0067Z" fill="#FFFF00"/>
<path fill-rule="evenodd" clip-rule="evenodd" d="M26.8039 20.0259C26.8039 20.9105 26.6297 21.7865 26.2911 22.6038C25.9526 23.421 25.4564 24.1636 24.8309 24.7891C24.2054 25.4146 23.4628 25.9108 22.6456 26.2494C21.8283 26.5879 20.9523 26.7621 20.0677 26.7621C19.1831 26.7621 18.3072 26.5879 17.4899 26.2494C16.6726 25.9108 15.9301 25.4146 15.3045 24.7891C14.679 24.1636 14.1828 23.421 13.8443 22.6038C13.5058 21.7865 13.3316 20.9105 13.3316 20.0259C13.3316 18.2381 14.0418 16.5235 15.306 15.2593C16.5701 13.9952 18.2847 13.285 20.0725 13.285C21.8604 13.285 23.575 13.9952 24.8391 15.2593C26.1033 16.5235 26.8135 18.2381 26.8135 20.0259H26.8039Z" fill="#FF0000"/>
<path fill-rule="evenodd" clip-rule="evenodd" d="M25.8718 20.0355C25.8718 21.5711 25.2618 23.0437 24.176 24.1294C23.0903 25.2152 21.6177 25.8252 20.0821 25.8252C18.5466 25.8252 17.074 25.2152 15.9882 24.1294C14.9025 23.0437 14.2925 21.5711 14.2925 20.0355C14.2925 18.5 14.9025 17.0274 15.9882 15.9416C17.074 14.8559 18.5466 14.2459 20.0821 14.2459C21.6177 14.2459 23.0903 14.8559 24.176 15.9416C25.2618 17.0274 25.8718 18.5 25.8718 20.0355Z" fill="#FFFF00"/>
<path fill-rule="evenodd" clip-rule="evenodd" d="M15.1573 16.2398C16.7621 16.211 18.7512 16.3552 20.0677 17.4122C21.4779 16.5295 23.139 16.1345 24.7955 16.2879L25.6604 17.8638C24.4112 17.7389 23.1908 17.9119 21.7494 18.498C22.6255 19.1444 23.3298 19.9957 23.8005 20.9774C24.2713 21.9591 24.4941 23.0413 24.4496 24.1291C24.2382 24.3982 23.9115 24.6865 23.7001 24.9459C24.0076 22.7262 22.8352 20.2373 21.1248 18.9305C22.5085 20.9388 23.3349 22.7358 23.1043 25.2246L22.3163 25.7147C22.6815 23.5238 22.1722 20.958 20.5482 19.4686C21.1686 20.3858 21.6018 21.4166 21.8227 22.5016C22.0437 23.5867 22.0482 24.7048 21.8359 25.7916C21.586 25.8684 21.2016 26.0798 20.9422 26.1567C21.2487 25.1307 21.3319 24.0509 21.186 22.9901C21.0401 21.9292 20.6687 20.9119 20.0966 20.0067C19.5352 20.9058 19.1721 21.9143 19.0312 22.9648C18.8904 24.0154 18.9751 25.0839 19.2798 26.0991L18.4534 25.8588C18.0113 23.5045 18.6263 20.862 19.693 19.4782C18.6071 20.1124 17.5789 22.8127 17.8672 25.5705L17.1369 25.2342C16.7813 23.1778 17.7134 20.4968 19.0587 18.9497C17.5405 19.9106 16.3009 22.2553 16.5219 24.7826C16.2912 24.5808 16.0702 24.4751 15.8396 24.2733C15.5705 22.0631 16.8486 19.8434 18.338 18.5077C17.1071 17.9863 15.7698 17.7656 14.4366 17.8638C14.6769 17.3545 14.9171 16.7588 15.1573 16.2495V16.2398Z" fill="#FF0000"/>
</g>
<defs>
<clipPath id="clip0_17544_63946">
<path d="M0 20C0 8.95431 8.95431 0 20 0C31.0457 0 40 8.95431 40 20C40 31.0457 31.0457 40 20 40C8.95431 40 0 31.0457 0 20Z" fill="white"/>
</clipPath>
</defs>
</svg>
