<svg width="40" height="40" viewBox="0 0 40 40" fill="none" xmlns="http://www.w3.org/2000/svg">
<g clip-path="url(#clip0_17544_64458)">
<path d="M0.00197029 0H39.9986V40.0022H0.00197029V0Z" fill="black"/>
<path fill-rule="evenodd" clip-rule="evenodd" d="M-10 0H50.0005V40.0022H-10V0Z" fill="#CE1126"/>
<path fill-rule="evenodd" clip-rule="evenodd" d="M-10 9.93424H50.0005V30.0624H-10V9.93424Z" fill="#002868"/>
<path fill-rule="evenodd" clip-rule="evenodd" d="M28.6194 19.9983C28.6194 22.2842 27.7113 24.4765 26.0949 26.0929C24.4785 27.7093 22.2862 28.6174 20.0003 28.6174C17.7143 28.6174 15.522 27.7093 13.9057 26.0929C12.2893 24.4765 11.3812 22.2842 11.3812 19.9983C11.3812 17.7124 12.2893 15.5201 13.9057 13.9037C15.522 12.2873 17.7143 11.3792 20.0003 11.3792C22.2862 11.3792 24.4785 12.2873 26.0949 13.9037C27.7113 15.5201 28.6194 17.7124 28.6194 19.9983Z" fill="white"/>
</g>
<defs>
<clipPath id="clip0_17544_64458">
<path d="M0 20C0 8.95431 8.95431 0 20 0C31.0457 0 40 8.95431 40 20C40 31.0457 31.0457 40 20 40C8.95431 40 0 31.0457 0 20Z" fill="white"/>
</clipPath>
</defs>
</svg>
