<svg width="40" height="40" viewBox="0 0 40 40" fill="none" xmlns="http://www.w3.org/2000/svg">
<g clip-path="url(#clip0_17522_60662)">
<path d="M-0.0015316 0H39.9923V39.9939H-0.0015316V0Z" fill="black"/>
<path fill-rule="evenodd" clip-rule="evenodd" d="M-10 29.9954H49.9908V39.9939H-10V29.9954ZM-10 0H49.9908V9.99847H-10V0Z" fill="#EE161F"/>
<path fill-rule="evenodd" clip-rule="evenodd" d="M-10 9.99847H49.9908V29.9954H-10V9.99847Z" fill="white"/>
<path d="M19.6971 10.1517C19.0843 11.3692 18.673 11.3692 17.6571 12.1836C17.2539 12.5868 16.6411 12.7884 17.4555 13.1996C16.6491 13.6028 16.2379 13.8043 15.8267 14.6187L16.0363 14.8203C16.0363 14.8203 16.8023 14.4413 16.8427 14.6187C16.9797 14.78 15.8267 15.4009 15.6815 15.5057C15.5364 15.6105 14.8107 16.0379 14.8107 16.0379C13.7947 16.8523 13.1819 16.6507 12.5772 17.8682L14.6091 17.6667C15.0123 19.0858 13.5932 19.2874 12.5772 19.9002L10.9484 20.9162C11.3516 22.3353 12.5772 21.5209 13.5932 21.1177L13.7947 21.3193V21.7225L11.7709 22.7385C11.7709 22.7385 9.368 24.1092 9.32768 24.1576C9.31156 24.2382 9.32768 24.5608 9.32768 24.5608C10.1421 24.7704 11.3596 24.972 12.174 24.5608C13.19 24.1576 13.3996 23.7544 14.6172 23.7544C13.4421 24.673 12.0297 25.238 10.5452 25.3832V26.1895C11.7709 26.1895 12.5852 26.1895 13.6012 25.988L16.246 25.1816C16.8507 25.1816 17.4635 25.7864 17.262 26.3911C16.6491 28.6247 14.214 28.2215 13.3916 30.0519L16.6491 28.8343C17.4635 28.4311 18.2779 28.0199 19.2939 28.2215C20.5115 28.6247 20.5115 29.439 22.1402 29.8422L21.7371 28.8343C22.1402 29.0359 22.5434 29.0359 22.9546 29.2375C23.9706 29.6406 24.1722 30.0438 25.3978 29.8422C24.3818 28.6327 24.1722 28.8343 23.3659 28.0199C22.5515 26.8023 22.1402 24.972 23.3659 24.7704L24.785 25.1736C26.2122 25.3832 26.2122 24.972 28.2441 25.7864C29.4617 26.1895 29.8729 26.8023 31.2921 26.3911C30.6873 24.972 28.4457 23.956 27.0185 23.5528C28.6473 22.5369 28.2441 23.956 30.4857 23.3513V22.9481C28.857 21.7225 28.2441 20.7065 26.0025 20.7065L29.4698 20.3033V19.9002C29.4698 19.9002 26.0429 19.0052 25.9622 18.9729C25.9834 18.8909 26.0247 18.8155 26.0825 18.7535C26.1402 18.6915 26.2125 18.645 26.2928 18.6181C26.9379 19.0374 28.8973 18.989 29.0102 18.981C28.9537 18.481 28.0264 18.0698 27.212 17.6667C27.212 17.6667 23.7287 15.5138 23.7126 15.3283C23.7771 14.78 25.1398 15.4089 26.5992 15.8363C26.1961 15.03 25.3817 14.6187 24.5673 14.4171L25.7848 14.2156C24.9785 12.3852 22.9385 12.5868 21.7209 11.7724C20.9066 11.1676 20.9066 10.7564 19.689 10.1517H19.6971Z" fill="#00A850"/>
<path fill-rule="evenodd" clip-rule="evenodd" d="M17.4958 23.6738C17.649 23.19 17.8425 22.7626 16.9394 22.3514C16.0363 21.9402 17.391 24.0044 17.5039 23.6738H17.4958ZM18.5682 22.7062C18.3827 22.7304 18.2941 23.3996 18.6488 23.577C19.0601 23.6415 18.7295 22.7143 18.5682 22.7062ZM19.6245 22.6336C19.439 22.6901 19.431 23.6335 20.0922 23.4641C20.7614 23.3029 20.0922 22.5611 19.6245 22.6417V22.6336ZM20.8582 20.2308C21.0033 20.005 20.8501 19.0616 20.2776 19.4567C19.7051 19.8599 20.6808 20.2953 20.8582 20.2308ZM19.6084 19.4486C19.7858 19.3841 19.8019 18.8036 19.302 18.9648C18.802 19.11 19.4794 19.5696 19.6084 19.4486ZM18.4795 19.6825C18.4795 19.6825 18.1328 19.1987 17.8586 19.2954C17.52 19.618 18.5037 19.6905 18.4795 19.6825ZM14.6091 21.2226C14.7543 21.2387 15.8589 21.0452 16.2379 20.6178C16.625 20.1905 14.2785 20.7952 14.2785 20.8033C14.2785 20.8113 14.4962 21.1822 14.6011 21.2226H14.6091ZM25.6316 18.4972C25.6881 18.3923 25.043 17.9327 24.664 18.1182C24.5673 18.4569 25.6316 18.5617 25.6316 18.4972ZM23.4626 17.4006C23.5836 17.2312 23.1804 16.5136 22.3902 16.9168C21.6 17.3199 23.2207 17.6828 23.4626 17.4006ZM20.9549 16.9813C20.9549 16.9813 21.1485 16.3362 21.6323 16.4652C22.1644 16.8764 20.9791 17.0055 20.9549 16.9813ZM20.4873 16.4975C20.4066 16.3201 19.9148 16.4249 19.3423 16.8039C18.7698 17.1748 20.6566 16.9087 20.4873 16.4975ZM21.9387 14.7719C21.9387 14.7719 22.4547 14.5381 22.6079 14.7719C22.8176 15.1106 21.9387 14.7719 21.9467 14.7719H21.9387ZM21.5194 14.5462C21.4145 14.3446 20.8501 14.3204 20.8662 14.6268C20.7695 14.8526 21.5919 14.8122 21.5113 14.5462H21.5194ZM20.1728 14.5462C20.1164 14.4252 19.3181 14.5462 19.0762 15.03C19.4632 15.2154 20.3502 14.8526 20.1728 14.5462ZM18.4553 15.038C18.4553 15.038 17.4071 15.6831 17.3345 16.1588C17.3668 16.562 18.6488 15.417 18.6488 15.417C18.6488 15.417 18.7617 14.9655 18.4553 15.038ZM17.2861 14.4494C17.3184 14.3204 17.8103 14.014 17.8506 14.0462C17.8909 14.1752 17.4474 14.53 17.2861 14.4494ZM17.6248 16.9168C17.649 16.7313 16.3669 16.7474 16.8507 17.328C17.2539 17.8199 17.7135 17.0055 17.6248 16.9248V16.9168ZM16.4476 17.7634C16.3831 17.6344 16.2863 17.2877 16.1089 17.2554C15.9718 17.2554 15.1978 17.4167 15.1413 17.5376C15.1091 17.6425 15.4638 18.2795 15.5767 18.2956C15.7138 18.344 16.4234 17.8279 16.4476 17.7634ZM23.3497 22.0692C23.39 21.9321 24.6963 21.4806 25.1478 21.9079C25.68 22.6336 23.3175 22.295 23.3497 22.0692ZM26.946 22.9239C27.2282 22.4401 26.059 21.8596 25.5752 22.4159C25.7365 23.0771 26.7121 23.319 26.946 22.9239Z" fill="white"/>
<path fill-rule="evenodd" clip-rule="evenodd" d="M17.8272 13.9195C17.8393 13.9185 17.8864 13.9148 17.9286 13.9486C17.9481 13.9642 17.9624 13.9852 17.9699 14.009C17.9869 14.0636 17.9745 14.1148 17.9609 14.1495C17.9465 14.186 17.9246 14.2205 17.9013 14.251C17.8542 14.3124 17.7886 14.3741 17.7191 14.4263C17.6496 14.4786 17.5698 14.5263 17.492 14.5555C17.4219 14.5819 17.32 14.6061 17.2302 14.5612C17.1779 14.535 17.1507 14.4759 17.1649 14.4191C17.1755 14.3765 17.2003 14.3406 17.2206 14.3154C17.2428 14.2878 17.27 14.2605 17.2985 14.2347C17.3556 14.1831 17.4265 14.13 17.4956 14.0836C17.5648 14.0371 17.6357 13.9949 17.6939 13.9657C17.7224 13.9515 17.7517 13.9384 17.7781 13.9299C17.7908 13.9259 17.8081 13.9212 17.8272 13.9195ZM21.4155 14.3139C21.4972 14.3452 21.5842 14.3999 21.6303 14.4885C21.6438 14.5146 21.6475 14.5441 21.6416 14.572C21.6435 14.6158 21.6332 14.658 21.6119 14.6962C21.5828 14.7484 21.5377 14.785 21.4941 14.8106C21.4078 14.8612 21.295 14.8871 21.193 14.8955C21.0915 14.9039 20.9794 14.8967 20.8929 14.8636C20.8504 14.8473 20.7985 14.8189 20.7649 14.7675C20.7321 14.7173 20.7263 14.6604 20.741 14.6071C20.7431 14.4977 20.7955 14.4115 20.8737 14.3552C20.9521 14.2987 21.0508 14.2753 21.1417 14.2711C21.2339 14.2669 21.3311 14.2816 21.4155 14.3139ZM21.3877 14.5808C21.3745 14.5702 21.3547 14.5583 21.3261 14.5473C21.2757 14.528 21.2132 14.5181 21.1532 14.5208C21.0919 14.5237 21.0459 14.5392 21.0198 14.558C20.9996 14.5726 20.9894 14.589 20.991 14.6202C20.9913 14.6246 20.9913 14.6289 20.9911 14.6332C21.0306 14.6458 21.0965 14.6526 21.1725 14.6464C21.2539 14.6397 21.3256 14.6196 21.3677 14.5949C21.3769 14.5895 21.3834 14.5847 21.3877 14.5808ZM20.2831 14.4873C20.2502 14.4237 20.186 14.4007 20.1513 14.3915C20.1081 14.3801 20.0586 14.3767 20.0089 14.3777C19.9083 14.3799 19.7837 14.4015 19.656 14.4422C19.4049 14.5224 19.1071 14.6886 18.9644 14.9741C18.9494 15.004 18.9471 15.0388 18.958 15.0705C18.9688 15.1022 18.992 15.1282 19.0222 15.1427C19.1475 15.2027 19.3012 15.2139 19.4475 15.2001C19.596 15.1861 19.7502 15.1451 19.8852 15.0875C20.0182 15.0307 20.1437 14.9531 20.2252 14.8589C20.2665 14.8112 20.3012 14.7538 20.3149 14.6878C20.3289 14.6201 20.3189 14.5511 20.2831 14.4873ZM19.2796 14.9532C19.3233 14.9567 19.3718 14.9562 19.424 14.9513C19.5451 14.9398 19.6742 14.9058 19.7871 14.8576C19.902 14.8085 19.9893 14.7495 20.0362 14.6953C20.0592 14.6687 20.0677 14.649 20.0701 14.6372C20.0706 14.6348 20.0709 14.6325 20.071 14.6301C20.0576 14.6283 20.0388 14.6271 20.0144 14.6276C19.9419 14.6292 19.8412 14.6455 19.732 14.6803C19.5632 14.7342 19.3945 14.8256 19.2796 14.9532ZM21.89 14.6645L21.8871 14.6581C21.8335 14.6824 21.8041 14.7408 21.8165 14.7983C21.8274 14.8487 21.8678 14.8865 21.9172 14.8951C21.923 14.8973 21.9298 14.8999 21.9374 14.9028C21.9615 14.9119 21.9956 14.9242 22.036 14.9379C22.116 14.9651 22.2234 14.9984 22.3261 15.021C22.3773 15.0323 22.4299 15.0414 22.4787 15.0453C22.525 15.0491 22.5791 15.0492 22.6279 15.0345C22.6802 15.0187 22.7477 14.9773 22.7626 14.8902C22.7745 14.8202 22.7443 14.7548 22.7142 14.7061C22.714 14.7058 22.7138 14.7055 22.7135 14.7051C22.7132 14.7046 22.7128 14.704 22.7124 14.7034C22.6487 14.6061 22.5501 14.5642 22.4581 14.5498C22.3676 14.5356 22.2725 14.5457 22.1916 14.5616C22.1094 14.5778 22.0338 14.6019 21.9794 14.6214C21.952 14.6313 21.9294 14.6402 21.9135 14.6468C21.9056 14.6501 21.8992 14.6528 21.8948 14.6547C21.8925 14.6557 21.8907 14.6565 21.8895 14.657L21.8871 14.6581C21.8871 14.6581 21.8871 14.6581 21.89 14.6645C21.89 14.6645 21.89 14.6645 21.89 14.6645ZM18.7701 15.4472C18.7701 15.4473 18.7701 15.4473 18.6488 15.417C18.7321 15.5102 18.7321 15.5102 18.7321 15.5102L18.731 15.5112L18.7281 15.5137C18.7256 15.516 18.7219 15.5193 18.7171 15.5235C18.7075 15.532 18.6935 15.5443 18.6757 15.5597C18.6401 15.5907 18.5893 15.6343 18.5282 15.6854C18.4064 15.7874 18.2427 15.9199 18.0772 16.0402C17.9143 16.1586 17.7405 16.272 17.6005 16.3288C17.5345 16.3556 17.4527 16.3799 17.3768 16.3655C17.3341 16.3573 17.2904 16.3362 17.2575 16.2957C17.2259 16.2567 17.2133 16.2108 17.2099 16.1688C17.2092 16.1592 17.2095 16.1495 17.211 16.14C17.2345 15.9857 17.3325 15.8342 17.4451 15.702C17.5605 15.5665 17.7047 15.4359 17.8432 15.3231C17.9823 15.2099 18.1186 15.1123 18.2199 15.043C18.2706 15.0084 18.3128 14.9807 18.3424 14.9616C18.3572 14.9521 18.3689 14.9447 18.377 14.9396C18.381 14.9371 18.3841 14.9351 18.3863 14.9338L18.3888 14.9322L18.3897 14.9316C18.3897 14.9316 18.3898 14.9316 18.4553 15.038L18.3897 14.9316C18.4011 14.9247 18.4136 14.9195 18.4265 14.9164C18.5312 14.8916 18.6306 14.9065 18.7027 14.9777C18.7663 15.0406 18.7853 15.1261 18.7914 15.1882C18.7978 15.254 18.7919 15.3191 18.7854 15.365C18.7821 15.3886 18.7785 15.4085 18.7756 15.4227C18.7741 15.4298 18.7728 15.4356 18.7719 15.4398C18.7714 15.4419 18.771 15.4436 18.7707 15.4448L18.7701 15.4472ZM18.5021 15.1562C18.4955 15.1604 18.4874 15.1655 18.4779 15.1717C18.4499 15.1898 18.4096 15.2162 18.3609 15.2494C18.2634 15.3161 18.1331 15.4094 18.001 15.5169C17.8685 15.6249 17.737 15.7447 17.6354 15.864C17.5581 15.9548 17.505 16.0373 17.4775 16.108C17.4863 16.1051 17.4959 16.1015 17.5065 16.0972C17.616 16.0527 17.7687 15.9554 17.9303 15.838C18.0894 15.7224 18.2482 15.5939 18.3678 15.4938C18.4274 15.4438 18.4771 15.4012 18.5117 15.3711C18.5203 15.3636 18.528 15.3569 18.5347 15.351C18.5358 15.3447 18.5369 15.3377 18.5379 15.3302C18.5431 15.2937 18.5463 15.2504 18.5426 15.2124C18.5389 15.1743 18.53 15.1594 18.5275 15.1561C18.5272 15.1561 18.5269 15.156 18.5264 15.1559C18.5234 15.1553 18.5158 15.1543 18.5021 15.1562ZM18.6488 15.417L18.7321 15.5102C18.7507 15.4936 18.764 15.4715 18.7701 15.4472L18.6488 15.417ZM20.372 16.2934C20.4602 16.3056 20.556 16.3466 20.601 16.4458C20.6017 16.4471 20.6023 16.4485 20.6028 16.4499C20.6443 16.5507 20.6177 16.6459 20.5634 16.7187C20.5131 16.786 20.4369 16.8392 20.3582 16.8812C20.1985 16.9665 19.9828 17.0298 19.7868 17.0668C19.6878 17.0855 19.5908 17.098 19.505 17.1031C19.4215 17.1081 19.3402 17.1065 19.2764 17.0923C19.2457 17.0855 19.2063 17.0732 19.1729 17.047C19.1336 17.0163 19.1016 16.9642 19.1101 16.8981C19.117 16.8448 19.1482 16.8047 19.1727 16.7793C19.1994 16.7516 19.2341 16.7251 19.2738 16.6993C19.5678 16.5048 19.8467 16.3766 20.0688 16.3208C20.1789 16.2931 20.2834 16.2811 20.372 16.2934ZM19.4968 16.8532C19.5688 16.8486 19.6526 16.8377 19.7404 16.8212C19.9234 16.7866 20.1118 16.7295 20.2404 16.6608C20.3058 16.6258 20.3448 16.5936 20.363 16.5692C20.3702 16.5596 20.3725 16.5541 20.373 16.5507C20.3684 16.548 20.3582 16.5439 20.3377 16.541C20.2935 16.5349 20.2241 16.5395 20.1297 16.5633C19.962 16.6054 19.7412 16.7011 19.4968 16.8532ZM20.9549 16.9813L20.8352 16.9454C20.822 16.9894 20.8341 17.0371 20.8666 17.0696C20.8884 17.0914 20.9122 17.0992 20.9184 17.1012C20.9281 17.1043 20.9365 17.1058 20.9415 17.1066C20.9518 17.1082 20.9616 17.1087 20.9688 17.1089C20.9839 17.1093 21.0017 17.1088 21.0203 17.1077C21.0581 17.1054 21.1077 17.1003 21.1634 17.0924C21.2741 17.0766 21.4165 17.0485 21.5431 17.0046C21.6064 16.9827 21.6696 16.9556 21.724 16.9218C21.7771 16.8889 21.8319 16.8436 21.8649 16.781C21.9012 16.7121 21.9048 16.6337 21.8717 16.557C21.8413 16.4866 21.7832 16.4239 21.7087 16.3663C21.6955 16.3562 21.6805 16.3487 21.6645 16.3445C21.3516 16.261 21.1354 16.4355 21.0122 16.5999C20.9502 16.6825 20.9064 16.7682 20.8783 16.8322C20.8641 16.8645 20.8536 16.8919 20.8466 16.9116C20.843 16.9215 20.8403 16.9295 20.8384 16.9352C20.8375 16.9381 20.8368 16.9404 20.8362 16.9421L20.8356 16.9442L20.8352 16.9454C20.8352 16.9454 20.8352 16.9454 20.9549 16.9813ZM21.2122 16.7499C21.1896 16.7799 21.1699 16.8111 21.1528 16.8413C21.2497 16.8264 21.3636 16.8023 21.4613 16.7684C21.5145 16.75 21.559 16.73 21.5923 16.7094C21.6271 16.6878 21.6401 16.6714 21.6438 16.6645C21.6437 16.6645 21.6438 16.6644 21.6438 16.6645C21.6443 16.6641 21.6454 16.6634 21.6422 16.6559C21.6364 16.6426 21.6194 16.6169 21.576 16.5803C21.4175 16.5484 21.3021 16.6299 21.2122 16.7499ZM23.6086 17.3111C23.6101 17.3622 23.6007 17.4222 23.5643 17.4732C23.5622 17.4762 23.5599 17.4791 23.5575 17.4819C23.5024 17.5463 23.4205 17.5799 23.3447 17.5987C23.2656 17.6182 23.1746 17.626 23.0814 17.6257C22.895 17.625 22.682 17.5915 22.5019 17.5349C22.4118 17.5066 22.3261 17.4713 22.2547 17.4289C22.1858 17.388 22.1173 17.333 22.0794 17.2595C22.036 17.1757 22.0399 17.082 22.0944 16.9973C22.1428 16.9219 22.227 16.8597 22.3334 16.8054C22.7697 16.5828 23.1217 16.6636 23.347 16.8471C23.4558 16.9356 23.5325 17.0463 23.5736 17.1513C23.5941 17.2038 23.6071 17.2585 23.6086 17.3111ZM23.1892 17.0409C23.0456 16.924 22.8009 16.8475 22.447 17.0281C22.3559 17.0746 22.3178 17.1119 22.3046 17.1325C22.2988 17.1416 22.2994 17.1423 22.3006 17.1436C22.3009 17.1439 22.3012 17.1443 22.3014 17.1448C22.308 17.1576 22.3299 17.1829 22.3823 17.2139C22.4321 17.2435 22.4987 17.2719 22.5769 17.2965C22.7334 17.3457 22.9215 17.3752 23.0823 17.3757C23.1628 17.376 23.2319 17.3691 23.2847 17.356C23.3245 17.3462 23.347 17.3348 23.3586 17.3269C23.3588 17.3246 23.3588 17.3217 23.3587 17.3182C23.3582 17.3006 23.3534 17.2746 23.3408 17.2423C23.3156 17.1778 23.2649 17.1025 23.1892 17.0409ZM17.7494 16.8927C17.7547 16.9069 17.7575 16.9202 17.759 16.9311C17.7627 16.9582 17.7604 16.9844 17.7568 17.0061C17.7495 17.05 17.7326 17.0976 17.7114 17.1434C17.6688 17.2358 17.5987 17.3425 17.51 17.43C17.4228 17.5161 17.3044 17.5964 17.1649 17.6084C17.0165 17.6211 16.8749 17.5544 16.7544 17.4076C16.6864 17.3259 16.6404 17.2437 16.6236 17.1609C16.606 17.074 16.622 16.9931 16.666 16.925C16.7466 16.8 16.9052 16.7408 17.04 16.7128C17.1826 16.6831 17.34 16.6799 17.4636 16.6974C17.5242 16.706 17.5859 16.7208 17.6353 16.746C17.6701 16.7637 17.7407 16.8097 17.7494 16.8927ZM16.8686 17.1112C16.8743 17.1395 16.894 17.1847 16.9467 17.248L16.9474 17.2488C17.0284 17.3476 17.0953 17.3635 17.1436 17.3593C17.2008 17.3544 17.2674 17.3182 17.3344 17.2521C17.3999 17.1875 17.4533 17.1063 17.4845 17.0386C17.498 17.0094 17.5055 16.9865 17.5089 16.9716C17.5076 16.9685 17.5065 16.9653 17.5055 16.962C17.4885 16.9561 17.463 16.9498 17.4285 16.9449C17.3335 16.9314 17.2052 16.9337 17.0908 16.9575C16.9686 16.9829 16.8989 17.025 16.876 17.0605C16.8682 17.0726 16.8636 17.0868 16.8686 17.1112ZM15.8853 17.1596C15.9766 17.1428 16.0615 17.1304 16.1089 17.1304C16.1164 17.1304 16.1239 17.1311 16.1313 17.1325C16.2132 17.1474 16.2756 17.1966 16.3206 17.2468C16.366 17.2974 16.4025 17.3586 16.4319 17.4164C16.4617 17.4748 16.487 17.5354 16.5081 17.5868C16.5114 17.595 16.5146 17.6029 16.5177 17.6104C16.535 17.6529 16.548 17.6848 16.5593 17.7075C16.5749 17.7386 16.5768 17.7748 16.5646 17.8073C16.5541 17.8353 16.5352 17.8564 16.5285 17.8638C16.5182 17.8753 16.5058 17.8874 16.4934 17.8988C16.4681 17.922 16.4351 17.9495 16.3978 17.9788C16.3229 18.0378 16.2249 18.1088 16.1236 18.176C16.0227 18.2429 15.9155 18.3081 15.8226 18.354C15.7765 18.3768 15.7302 18.3966 15.6879 18.4091C15.6551 18.4188 15.6004 18.4319 15.5464 18.417C15.5208 18.4112 15.5001 18.4001 15.4859 18.3911C15.4684 18.38 15.4526 18.3668 15.4388 18.3539C15.4113 18.3281 15.3836 18.2955 15.3572 18.261C15.304 18.1914 15.247 18.1018 15.1958 18.0115C15.1446 17.9211 15.0972 17.8262 15.0641 17.7452C15.0477 17.705 15.0337 17.6654 15.0248 17.6298C15.0204 17.612 15.0167 17.5928 15.0151 17.5735C15.0136 17.5557 15.0132 17.5291 15.0219 17.5009C15.0235 17.4954 15.0256 17.49 15.0281 17.4848C15.0523 17.4328 15.1003 17.4008 15.1295 17.3834C15.1648 17.3624 15.2073 17.3433 15.2517 17.326C15.3412 17.2913 15.453 17.2583 15.564 17.2301C15.6757 17.2016 15.7898 17.1771 15.8853 17.1596ZM15.2731 17.5895C15.2906 17.5804 15.3136 17.5702 15.3423 17.559C15.4182 17.5295 15.519 17.4995 15.6257 17.4723C15.7317 17.4453 15.8403 17.422 15.9304 17.4054C16.0087 17.3911 16.0656 17.3833 16.0947 17.3811C16.1033 17.385 16.1167 17.3938 16.1345 17.4137C16.1592 17.4412 16.1842 17.4808 16.2092 17.5299C16.2339 17.5783 16.2559 17.6306 16.2767 17.6814C16.2796 17.6885 16.2825 17.6956 16.2854 17.7028C16.29 17.7141 16.2946 17.7255 16.2993 17.7368C16.2836 17.7501 16.2649 17.7654 16.2433 17.7824C16.1741 17.8368 16.0816 17.9039 15.9854 17.9677C15.8887 18.0318 15.7913 18.0906 15.7119 18.1299C15.6718 18.1497 15.64 18.1627 15.6172 18.1694C15.6143 18.1702 15.6119 18.1709 15.6097 18.1714C15.5963 18.1589 15.578 18.1382 15.5558 18.1092C15.5118 18.0515 15.461 17.9723 15.4133 17.8883C15.3658 17.8043 15.3235 17.7193 15.2956 17.6508C15.2858 17.6268 15.2784 17.6063 15.2731 17.5895ZM25.7502 18.5379C25.7765 18.4692 25.7446 18.4057 25.7298 18.3802C25.7082 18.3433 25.6766 18.308 25.6431 18.2766C25.5748 18.2124 25.4778 18.1446 25.3688 18.0879C25.2596 18.0312 25.1326 17.9824 25.0034 17.9611C24.8749 17.9399 24.7349 17.9444 24.6091 18.0059C24.5773 18.0215 24.5536 18.0498 24.5439 18.0839C24.5221 18.16 24.5336 18.2331 24.569 18.2958C24.6022 18.3547 24.6535 18.3996 24.7059 18.4339C24.8102 18.5022 24.9508 18.5491 25.0826 18.5805C25.2168 18.6124 25.3539 18.6311 25.4592 18.6375C25.5111 18.6407 25.5595 18.6412 25.5975 18.6378C25.6152 18.6361 25.6385 18.633 25.6606 18.6254C25.6712 18.6217 25.6902 18.6141 25.7088 18.5986C25.7229 18.5867 25.7408 18.5665 25.7502 18.5379ZM24.8135 18.203C24.8214 18.2097 24.831 18.217 24.8429 18.2248C24.911 18.2694 25.0184 18.3082 25.1405 18.3373C25.2185 18.3559 25.2978 18.3694 25.3689 18.3781C25.3344 18.3549 25.2955 18.3316 25.2535 18.3097C25.161 18.2617 25.0593 18.2237 24.9627 18.2077C24.9081 18.1987 24.8582 18.1972 24.8135 18.203ZM19.6726 19.557C19.7573 19.5162 19.8035 19.4304 19.8251 19.3597C19.8503 19.2776 19.8545 19.1799 19.8297 19.0892C19.8046 18.997 19.7466 18.9036 19.6412 18.8514C19.5372 18.7997 19.4092 18.7993 19.2653 18.8453C19.1244 18.8867 19.0071 18.9686 18.9962 19.109C18.9868 19.2296 19.0654 19.3321 19.1328 19.3967C19.2064 19.4673 19.3017 19.5269 19.391 19.5612C19.4355 19.5782 19.4844 19.5913 19.5323 19.5934C19.5717 19.5951 19.6256 19.5897 19.6726 19.557ZM19.5301 19.0753C19.5026 19.0616 19.4458 19.0498 19.3403 19.0838C19.3392 19.0842 19.338 19.0845 19.3368 19.0849C19.2709 19.104 19.2509 19.1225 19.2456 19.1301C19.2461 19.1333 19.2479 19.1409 19.2547 19.1533C19.2645 19.1712 19.2814 19.1929 19.3058 19.2163C19.3552 19.2637 19.4222 19.3054 19.4806 19.3278C19.5081 19.3384 19.5285 19.3426 19.5407 19.3435C19.5477 19.3391 19.555 19.3353 19.5627 19.3323C19.5627 19.3323 19.5627 19.3323 19.5627 19.3323C19.5624 19.3319 19.575 19.3228 19.5861 19.2866C19.5983 19.2468 19.6001 19.1973 19.5886 19.155C19.5774 19.1141 19.5569 19.0885 19.5301 19.0753ZM18.5763 19.6032C18.5765 19.6033 18.5762 19.603 18.5763 19.6032C18.5733 19.5991 18.5687 19.5929 18.5632 19.5857C18.5522 19.5715 18.5365 19.5515 18.5168 19.5281C18.4776 19.4814 18.4216 19.4193 18.3555 19.3598C18.2902 19.301 18.21 19.2402 18.1223 19.201C18.0345 19.1617 17.9266 19.1389 17.817 19.1776C17.8004 19.1834 17.7852 19.1928 17.7724 19.2049C17.7204 19.2545 17.6777 19.3139 17.6658 19.3841C17.6529 19.4607 17.6802 19.5261 17.7209 19.574C17.7589 19.6187 17.8098 19.6506 17.8578 19.6741C17.9072 19.6982 17.9624 19.7175 18.0167 19.7331C18.1255 19.7642 18.2425 19.7836 18.3292 19.7947C18.3729 19.8003 18.4101 19.804 18.4363 19.806C18.4491 19.807 18.4605 19.8077 18.4692 19.8079C18.4721 19.808 18.4802 19.8082 18.4886 19.8076C18.491 19.8074 18.4965 19.8069 18.5032 19.8056C18.5065 19.805 18.5126 19.8037 18.5199 19.8012C18.5253 19.7994 18.5418 19.7936 18.559 19.7796C18.5777 19.7643 18.6123 19.7248 18.6036 19.6649C18.5996 19.637 18.5874 19.6166 18.5763 19.6032ZM18.1442 19.5081C18.1026 19.4747 18.0605 19.4471 18.0203 19.4292C17.9802 19.4113 17.9488 19.4058 17.924 19.4082C17.921 19.412 17.9187 19.4152 17.917 19.4178C17.9256 19.4256 17.9413 19.4367 17.9675 19.4494C17.9994 19.465 18.0397 19.4796 18.0856 19.4928C18.1047 19.4983 18.1244 19.5034 18.1442 19.5081ZM18.44 19.801C18.4398 19.801 18.436 19.7998 18.4301 19.7973C18.4333 19.7987 18.4366 19.7999 18.44 19.801ZM21.0341 19.9558C21.0372 20.0767 21.0204 20.2095 20.9633 20.2984C20.9485 20.3214 20.9266 20.3389 20.9009 20.3482C20.8478 20.3675 20.7868 20.3633 20.7399 20.3561C20.6877 20.3481 20.6295 20.3325 20.5704 20.3115C20.4528 20.2699 20.3197 20.203 20.21 20.1178C20.1043 20.0357 19.9988 19.9195 19.9781 19.7744C19.9554 19.6144 20.0406 19.4707 20.2057 19.3545L20.2066 19.3538C20.3706 19.2406 20.5317 19.2062 20.676 19.2629C20.8131 19.3168 20.9 19.4401 20.9519 19.5618C21.005 19.6861 21.0309 19.8288 21.0341 19.9558ZM20.3491 19.5592C20.2283 19.6444 20.2209 19.7063 20.2256 19.7392C20.2324 19.7871 20.2745 19.8514 20.3634 19.9204C20.4482 19.9864 20.5565 20.0415 20.6538 20.0759C20.6997 20.0922 20.7405 20.1028 20.7726 20.1082C20.7804 20.0729 20.7858 20.0237 20.7843 19.9622C20.7817 19.8612 20.7607 19.7504 20.7221 19.66C20.6823 19.567 20.6326 19.5144 20.5845 19.4955C20.5437 19.4795 20.471 19.4752 20.3491 19.5592ZM16.4019 20.5755C16.391 20.6264 16.3604 20.6687 16.331 20.7012C16.2209 20.8251 16.0647 20.9258 15.899 21.0071C15.7315 21.0891 15.5462 21.1553 15.3709 21.2065C15.1953 21.2577 15.0272 21.2948 14.8929 21.3181C14.8259 21.3298 14.7664 21.3381 14.718 21.3431C14.6767 21.3473 14.6354 21.3499 14.6036 21.3475H14.6011C14.5857 21.3475 14.5705 21.3447 14.5562 21.3392C14.5229 21.3264 14.4949 21.305 14.4747 21.2873C14.453 21.2682 14.4318 21.2458 14.412 21.223C14.3724 21.1773 14.3323 21.1226 14.2973 21.0714C14.262 21.0197 14.2302 20.9693 14.2072 20.9311C14.1957 20.912 14.1861 20.8955 14.1791 20.883C14.1756 20.8769 14.1724 20.871 14.1697 20.8657C14.1685 20.8633 14.1667 20.8597 14.1648 20.8556C14.164 20.8537 14.1624 20.8499 14.1607 20.8451C14.1599 20.8428 14.1585 20.8387 14.1572 20.8335C14.1563 20.8298 14.1536 20.8183 14.1536 20.8033C14.1569 20.7747 14.1748 20.7336 14.1848 20.7206C14.1912 20.7139 14.2026 20.704 14.2073 20.7006C14.2157 20.6947 14.2231 20.6911 14.2253 20.6901C14.231 20.6874 14.2358 20.6856 14.2374 20.6851C14.2415 20.6835 14.2456 20.6822 14.2484 20.6814C14.2545 20.6795 14.2623 20.6773 14.2712 20.6748C14.2893 20.6697 14.3151 20.6628 14.3472 20.6545C14.4114 20.6378 14.5024 20.615 14.6101 20.5892C14.8252 20.5378 15.1087 20.4743 15.3808 20.4243C15.6497 20.375 15.918 20.3369 16.0975 20.3404C16.1431 20.3413 16.1874 20.3449 16.2268 20.3533C16.2632 20.361 16.3105 20.3758 16.3483 20.4098C16.3951 20.4517 16.4154 20.5126 16.4019 20.5755ZM14.4707 20.8809C14.5256 20.867 14.5926 20.8504 14.6682 20.8323C14.8809 20.7815 15.1598 20.719 15.4259 20.6702C15.6931 20.6212 15.9371 20.5879 16.0889 20.5903C16.012 20.659 15.9094 20.7236 15.7889 20.7826C15.6381 20.8565 15.4671 20.9179 15.3008 20.9665C15.1347 21.015 14.9758 21.05 14.8502 21.0718C14.7874 21.0827 14.7338 21.0902 14.6925 21.0944C14.6719 21.0965 14.6551 21.0977 14.6423 21.0982C14.6409 21.0983 14.6396 21.0983 14.6384 21.0984C14.6284 21.0894 14.6158 21.0765 14.6009 21.0593C14.5702 21.0239 14.5362 20.9778 14.5037 20.9303C14.4922 20.9136 14.4812 20.8969 14.4707 20.8809ZM23.5613 22.0722C23.5822 22.0625 23.6055 22.0523 23.6312 22.0419C23.7587 21.9901 23.9322 21.9363 24.1188 21.8995C24.3058 21.8626 24.5004 21.8438 24.6716 21.8581C24.8395 21.8722 24.9699 21.9167 25.0538 21.9913C25.1046 22.0635 25.1019 22.0972 25.1002 22.1047C25.099 22.11 25.0915 22.1315 25.0349 22.1574C24.918 22.2108 24.7001 22.2315 24.4416 22.2205C24.1895 22.2098 23.9222 22.1701 23.7222 22.1201C23.6591 22.1043 23.605 22.088 23.5613 22.0722ZM24.6925 21.609C24.8923 21.6258 25.0915 21.6825 25.2338 21.8172C25.2392 21.8223 25.2442 21.828 25.2486 21.834C25.3239 21.9367 25.3693 22.0486 25.3439 22.1602C25.3179 22.2744 25.2284 22.3438 25.1388 22.3847C24.9634 22.4649 24.6925 22.4814 24.4309 22.4702C24.1629 22.4588 23.8789 22.4169 23.6616 22.3626C23.5539 22.3356 23.4567 22.3042 23.3848 22.2692C23.3497 22.2521 23.3131 22.2306 23.2841 22.203C23.2573 22.1774 23.2155 22.1249 23.226 22.0515C23.2269 22.0456 23.2281 22.0397 23.2298 22.0339C23.2424 21.9912 23.2714 21.9622 23.2879 21.9473C23.3077 21.9294 23.3311 21.9132 23.3551 21.8986C23.4033 21.8693 23.4661 21.8392 23.5371 21.8103C23.68 21.7522 23.8689 21.6941 24.0704 21.6543C24.2714 21.6146 24.4905 21.5921 24.6925 21.609ZM27.0222 22.4918C27.1196 22.6349 27.1545 22.8144 27.0539 22.9869C26.9716 23.126 26.8286 23.2004 26.6777 23.2272C26.5269 23.254 26.3572 23.2368 26.1953 23.1851C25.8744 23.0825 25.5478 22.8309 25.4538 22.4455C25.4442 22.4061 25.4543 22.3645 25.4809 22.3339C25.7746 21.9962 26.2568 22.0191 26.5971 22.165C26.7707 22.2394 26.9276 22.3529 27.0222 22.4918ZM25.7161 22.4511C25.9123 22.2784 26.2266 22.2782 26.4986 22.3947C26.6424 22.4564 26.7552 22.5439 26.8156 22.6325C26.873 22.7169 26.8785 22.7913 26.8382 22.8606C26.8036 22.9188 26.7366 22.9629 26.6339 22.9811C26.5309 22.9995 26.4028 22.989 26.2714 22.947C26.027 22.8689 25.8028 22.6934 25.7161 22.4511ZM16.8191 22.1794C16.8717 22.1894 16.9292 22.2094 16.9912 22.2377C17.4571 22.4498 17.6787 22.6835 17.7361 22.96C17.7638 23.0935 17.7501 23.2246 17.7225 23.3481C17.7007 23.4456 17.6683 23.5458 17.6374 23.6415C17.6345 23.6505 17.6316 23.6595 17.6287 23.6684C17.6294 23.6838 17.6272 23.6993 17.6221 23.7142C17.6048 23.7649 17.5642 23.8175 17.4932 23.8315C17.4355 23.8429 17.3842 23.8224 17.3524 23.8059C17.2858 23.7712 17.2149 23.7053 17.1489 23.6332C17.0124 23.4842 16.8554 23.2618 16.7319 23.044C16.67 22.9347 16.615 22.824 16.575 22.7219C16.536 22.6224 16.507 22.5207 16.5058 22.4327C16.5052 22.3881 16.5115 22.3378 16.5356 22.2915C16.5615 22.2416 16.6042 22.2039 16.6601 22.1852C16.712 22.1678 16.7672 22.1695 16.8191 22.1794ZM17.4078 23.5391C17.3865 23.52 17.3615 23.4953 17.3332 23.4644C17.2122 23.3323 17.0658 23.1262 16.9494 22.9208C16.8914 22.8184 16.8422 22.7187 16.8077 22.6307C16.7722 22.54 16.7563 22.4719 16.7557 22.4294C16.7557 22.4268 16.7557 22.4245 16.7558 22.4225C16.7603 22.4229 16.7657 22.4237 16.7723 22.4249C16.799 22.43 16.8367 22.442 16.8876 22.4652C17.3249 22.6643 17.458 22.8499 17.4913 23.0108C17.509 23.096 17.5021 23.1882 17.4785 23.2937C17.4609 23.3726 17.4357 23.4524 17.4078 23.5391ZM19.6542 22.5122C19.6327 22.507 19.6099 22.5074 19.5881 22.5141C19.5191 22.5351 19.4776 22.5898 19.4543 22.6331C19.4293 22.6793 19.413 22.734 19.4033 22.7894C19.3837 22.9004 19.3866 23.0365 19.4199 23.1649C19.453 23.2927 19.5199 23.4263 19.6402 23.5145C19.7648 23.606 19.9281 23.635 20.1223 23.5854C20.3126 23.5394 20.4476 23.4411 20.488 23.2882C20.526 23.1447 20.4666 23 20.3858 22.8887C20.3024 22.774 20.1803 22.6714 20.0462 22.6024C19.9278 22.5415 19.7902 22.5019 19.6542 22.5122ZM19.6694 22.7618C19.7466 22.755 19.8386 22.7767 19.9318 22.8246C20.0338 22.8771 20.1249 22.9549 20.1836 23.0357C20.2448 23.12 20.2565 23.1859 20.2464 23.2243C20.2387 23.2531 20.2068 23.308 20.0629 23.3426L20.0612 23.3431C19.9251 23.3779 19.8418 23.3524 19.788 23.313C19.7296 23.2702 19.6862 23.1962 19.6618 23.1022C19.6377 23.0089 19.636 22.9091 19.6494 22.8327C19.6549 22.8015 19.6623 22.7779 19.6694 22.7618ZM18.552 22.5823C18.5595 22.5813 18.567 22.581 18.5744 22.5814C18.6475 22.585 18.6999 22.6344 18.7273 22.6644C18.7602 22.7006 18.7902 22.7467 18.8165 22.7951C18.8695 22.8927 18.9169 23.0181 18.945 23.141C18.9721 23.2594 18.9861 23.3962 18.9517 23.5065C18.9336 23.5646 18.8991 23.6242 18.8374 23.6637C18.7751 23.7036 18.7023 23.7119 18.6295 23.7005C18.6168 23.6985 18.6044 23.6946 18.5929 23.6888C18.3517 23.5682 18.2799 23.2938 18.281 23.0835C18.2815 22.9742 18.3011 22.8661 18.3374 22.7793C18.3555 22.7359 18.3799 22.6931 18.4123 22.6582C18.4449 22.6232 18.4914 22.5902 18.552 22.5823ZM18.5705 22.87C18.5787 22.8825 18.5876 22.8973 18.5968 22.9144C18.6384 22.9909 18.6781 23.0948 18.7014 23.1967C18.7257 23.303 18.7273 23.3864 18.7131 23.4321C18.71 23.442 18.7069 23.4477 18.7049 23.4505C18.705 23.4504 18.7048 23.4507 18.7049 23.4505C18.7041 23.4516 18.7033 23.4527 18.703 23.4529C18.703 23.4529 18.7029 23.4531 18.703 23.4529C18.7029 23.453 18.7023 23.4534 18.7019 23.4535C18.7013 23.4538 18.6999 23.4542 18.6975 23.4546C18.6951 23.455 18.6916 23.4553 18.6868 23.4553C18.5848 23.3923 18.53 23.2501 18.5309 23.0848C18.5313 23.0016 18.5466 22.9268 18.568 22.8758C18.5688 22.8738 18.5696 22.8718 18.5705 22.87Z" fill="white"/>
</g>
<defs>
<clipPath id="clip0_17522_60662">
<path d="M0 4C0 1.79086 1.79086 0 4 0H36C38.2091 0 40 1.79086 40 4V36C40 38.2091 38.2091 40 36 40H4C1.79086 40 0 38.2091 0 36V4Z" fill="white"/>
</clipPath>
</defs>
</svg>
