<svg width="40" height="40" viewBox="0 0 40 40" fill="none" xmlns="http://www.w3.org/2000/svg">
<g clip-path="url(#clip0_17522_60667)">
<path d="M0 0H40V40H0V0Z" fill="white"/>
<path d="M0 28H40V40H0V28Z" fill="#009543"/>
<path d="M0 0H40V12H0V0Z" fill="#00209F"/>
<path d="M20.125 12.7422C19.8906 12.7422 19.6719 13 19.6719 13L19.6953 15.6953L18.8359 16.5938H19.5391L19.5234 18.1328L15.4453 23.6328L14.8438 23.4219L13.7891 25.6719C13.7891 25.6719 16.3984 27.3047 20.1797 27.2578C24.3359 27.2031 26.5859 25.5938 26.5859 25.5938L25.5 23.375L24.9688 23.6094L20.8281 18.1406V16.5469H21.5156L20.5781 15.6641L20.5859 12.9766C20.5859 12.9766 20.3516 12.7422 20.125 12.7422Z" fill="black"/>
<path fill-rule="evenodd" clip-rule="evenodd" d="M19.7701 12.8184C19.8575 12.7514 19.9854 12.6758 20.125 12.6758C20.2587 12.6758 20.3877 12.7437 20.4776 12.8043C20.5237 12.8354 20.5621 12.8664 20.5891 12.8896C20.6026 12.9013 20.6133 12.911 20.6208 12.918C20.6245 12.9215 20.6274 12.9243 20.6295 12.9262L20.6319 12.9286L20.6328 12.9296C20.6329 12.9296 20.6329 12.9296 20.5859 12.9766L20.6328 12.9296L20.6524 12.9491L20.6446 15.6355L21.683 16.6133H20.8945V18.1183L24.99 23.5274L25.5316 23.2885L26.6703 25.6151L26.6246 25.6478L26.5859 25.5938C26.6246 25.6478 26.6246 25.6477 26.6246 25.6478L26.6226 25.6492C26.6213 25.65 26.6196 25.6513 26.6173 25.6529C26.6126 25.6561 26.6058 25.6608 26.5968 25.6669C26.5788 25.679 26.552 25.6967 26.5167 25.7191C26.4459 25.7639 26.3406 25.8277 26.2014 25.9043C25.9231 26.0574 25.5091 26.2616 24.9649 26.4674C23.8764 26.879 22.2672 27.2968 20.1806 27.3242C18.2803 27.3478 16.6746 26.9493 15.544 26.545C14.9787 26.3428 14.5319 26.139 14.2261 25.9856C14.0732 25.9089 13.9555 25.8448 13.8759 25.7997C13.836 25.7772 13.8057 25.7594 13.7853 25.7472C13.7751 25.7411 13.7673 25.7364 13.762 25.7332L13.756 25.7295L13.7545 25.7286C13.7544 25.7285 13.7538 25.7282 13.7891 25.6719L13.7545 25.7286L13.704 25.697L14.8091 23.3394L15.4211 23.554L19.4573 18.1106L19.472 16.6602H18.6805L19.6287 15.6689L19.6053 12.9759L19.6212 12.957L19.6719 13C19.6212 12.957 19.6212 12.9571 19.6212 12.957L19.6222 12.9559L19.6245 12.9533C19.6264 12.9511 19.6292 12.948 19.6327 12.9441C19.6397 12.9364 19.6499 12.9256 19.6628 12.9128C19.6884 12.8871 19.7253 12.8528 19.7701 12.8184ZM19.7385 13.0254L19.762 15.7217L18.9914 16.5273H19.6061L19.5896 18.155L15.4695 23.7117L14.8784 23.5044L13.8746 25.6458C13.8923 25.6562 13.9146 25.669 13.9413 25.6841C14.0191 25.7282 14.1348 25.7913 14.2856 25.8669C14.5873 26.0182 15.0291 26.2197 15.5888 26.4199C16.7082 26.8202 18.2979 27.2147 20.1788 27.1914C22.2484 27.1642 23.8423 26.7499 24.9179 26.3432C25.4558 26.1398 25.8641 25.9382 26.1374 25.7879C26.2741 25.7127 26.3771 25.6503 26.4456 25.6069C26.4676 25.593 26.4861 25.581 26.5009 25.5712L25.4684 23.4615L24.9475 23.6913L20.7617 18.1629V16.4805H21.3482L20.5116 15.6927L20.5194 13.0052C20.5146 13.0009 20.5089 12.9958 20.5024 12.9903C20.4784 12.9695 20.4441 12.9419 20.4033 12.9144C20.3194 12.8578 20.2179 12.8086 20.125 12.8086C20.0302 12.8086 19.9316 12.8619 19.851 12.9238C19.8118 12.9538 19.7794 12.984 19.7567 13.0067C19.7496 13.0138 19.7435 13.0201 19.7385 13.0254Z" fill="black"/>
<path fill-rule="evenodd" clip-rule="evenodd" d="M21.446 14.0248C21.1493 13.7403 20.7218 13.5869 20.0916 13.5976L20.0899 13.5976L20.0882 13.5976C19.5725 13.6011 19.1477 13.7608 18.8324 14.0658C18.515 14.3728 18.277 14.8576 18.1972 15.5676C18.1233 16.2522 18.3188 17.1137 18.5513 17.8335C18.6657 18.1874 18.7852 18.4959 18.876 18.7157C18.9002 18.7741 18.9223 18.8262 18.9417 18.8711H21.3337C21.3545 18.8239 21.3784 18.7687 21.4046 18.7063C21.4989 18.4823 21.6223 18.1684 21.7388 17.8088C21.9763 17.0761 22.1677 16.206 22.0698 15.5238C21.9657 14.7912 21.7496 14.3159 21.446 14.0248ZM21.5469 19.2031L21.8455 19.3482L21.7547 19.5352H18.5166L18.4266 19.3455L18.7266 19.2031C18.4266 19.3455 18.4266 19.3456 18.4266 19.3455L18.4255 19.3431L18.4229 19.3377C18.4207 19.333 18.4176 19.3263 18.4136 19.3176C18.4056 19.3003 18.3942 19.2752 18.3798 19.243C18.351 19.1785 18.3104 19.0855 18.2624 18.9694C18.1665 18.7375 18.0404 18.4122 17.9194 18.0376C17.6813 17.3005 17.4471 16.3265 17.5371 15.4955L17.5372 15.4942C17.6294 14.6733 17.9148 14.0294 18.3707 13.5885C18.8284 13.1458 19.4264 12.9383 20.082 12.9336C20.826 12.9212 21.4448 13.1037 21.9056 13.5455C22.3598 13.981 22.6125 14.6232 22.7271 15.4296C22.8478 16.2707 22.6135 17.2638 22.3705 18.0135C22.2469 18.3951 22.1163 18.7271 22.0167 18.9639C21.9669 19.0824 21.9246 19.1774 21.8945 19.2433C21.8795 19.2762 21.8675 19.3019 21.8591 19.3196C21.855 19.3285 21.8517 19.3354 21.8494 19.3402L21.8467 19.3458L21.8455 19.3482C21.8455 19.3483 21.8455 19.3482 21.5469 19.2031Z" fill="black"/>
<path d="M15.1953 24.3438C15.1484 24.4062 14.8047 25.0781 14.8047 25.0781L15.3906 24.9531L15.1953 24.3438ZM15.5312 25.2187L14.9141 25.4219L15.6562 25.7109L15.5312 25.2187ZM15.8125 24.3594L16.1172 25.2656L16.8672 25.0469L16.6719 24.6172L15.8125 24.3594ZM16.2812 25.5859L16.3906 25.9531L17.3906 26.2031L17 25.3594L16.2891 25.5938L16.2812 25.5859ZM17.3906 24.8203L17.7422 25.6641L18.5 25.375L18.25 25L17.3906 24.8203ZM17.8828 25.9688L18.0078 26.2969L19.1797 26.4609L18.6797 25.6953L17.8828 25.9688ZM19.0078 25.0625L19.4375 25.8203L20.5312 25.4219L20.4062 25.125L19 25.0625H19.0078ZM19.6328 26.0938L19.8672 26.4922L21.2188 26.4453L20.7109 25.6953L19.6328 26.0938ZM21.0625 25.0938L21.4375 25.7188L22.2969 25.3125L22.0625 24.9766L21.0625 25.0938ZM22.4766 25.5703L21.6172 26L21.8516 26.375L23 26.1875L22.4766 25.5703ZM22.7578 24.9141L23.2031 25.4609L23.9219 24.8984L23.6797 24.6328L22.7578 24.9141ZM24.0781 25.2031L23.3828 25.7266L23.5703 26.0469L24.5234 25.8047L24.0781 25.2031ZM25.0312 24.1094L25.2031 24.3594L24.7266 25.0625L24.2344 24.4375L25.0312 24.1094ZM25.3516 24.7266L25.6484 25.3125L25.0625 25.5078L25.0156 25.2344L25.3516 24.7266Z" fill="white"/>
</g>
<defs>
<clipPath id="clip0_17522_60667">
<path d="M0 4C0 1.79086 1.79086 0 4 0H36C38.2091 0 40 1.79086 40 4V36C40 38.2091 38.2091 40 36 40H4C1.79086 40 0 38.2091 0 36V4Z" fill="white"/>
</clipPath>
</defs>
</svg>
