<svg width="40" height="40" viewBox="0 0 40 40" fill="none" xmlns="http://www.w3.org/2000/svg">
<g clip-path="url(#clip0_17544_64483)">
<path d="M0 0H40.0078V20H0V0Z" fill="#002B7F"/>
<path d="M0 20H40.0078V40H0V20Z" fill="#CE1126"/>
<path d="M10.2079 8.1533L10.0812 12.32H5.85454C5.33455 11.3066 4.90788 10.4533 4.90788 9.28663C4.90788 8.3133 5.67454 7.53997 6.77454 7.53997C7.9412 7.53997 9.22786 7.9333 10.2079 8.1533Z" fill="#FFD83D"/>
<path fill-rule="evenodd" clip-rule="evenodd" d="M7.10787 7.67664C7.13549 7.67664 7.15787 7.69902 7.15787 7.72664V10.86C7.15787 10.8876 7.13549 10.91 7.10787 10.91C7.08026 10.91 7.05787 10.8876 7.05787 10.86V7.72664C7.05787 7.69902 7.08026 7.67664 7.10787 7.67664ZM7.44787 7.67664C7.47549 7.67664 7.49787 7.69902 7.49787 7.72664V10.86C7.49787 10.8876 7.47549 10.91 7.44787 10.91C7.42026 10.91 7.39787 10.8876 7.39787 10.86V7.72664C7.39787 7.69902 7.42026 7.67664 7.44787 7.67664ZM7.78787 7.70997C7.81548 7.70997 7.83787 7.73236 7.83787 7.75997V10.8933C7.83787 10.9209 7.81548 10.9433 7.78787 10.9433C7.76026 10.9433 7.73787 10.9209 7.73787 10.8933V7.75997C7.73787 7.73236 7.76026 7.70997 7.78787 7.70997ZM8.12787 7.7433C8.15548 7.7433 8.17787 7.76569 8.17787 7.7933V10.92C8.17787 10.9476 8.15548 10.97 8.12787 10.97C8.10025 10.97 8.07787 10.9476 8.07787 10.92V7.7933C8.07787 7.76569 8.10025 7.7433 8.12787 7.7433ZM6.76787 7.78997C6.79549 7.78997 6.81787 7.81236 6.81787 7.83997V10.86C6.81787 10.8876 6.79549 10.91 6.76787 10.91C6.74026 10.91 6.71787 10.8876 6.71787 10.86V7.83997C6.71787 7.81236 6.74026 7.78997 6.76787 7.78997ZM6.42787 7.8033C6.45549 7.8033 6.47787 7.82569 6.47787 7.8533V10.8466C6.47787 10.8742 6.45549 10.8966 6.42787 10.8966C6.40026 10.8966 6.37787 10.8742 6.37787 10.8466V7.8533C6.37787 7.82569 6.40026 7.8033 6.42787 7.8033ZM6.09454 7.8833C6.12216 7.8833 6.14454 7.90569 6.14454 7.9333V11.7466C6.14454 11.7742 6.12216 11.7966 6.09454 11.7966C6.06693 11.7966 6.04454 11.7742 6.04454 11.7466V7.9333C6.04454 7.90569 6.06693 7.8833 6.09454 7.8833ZM8.46787 7.93664C8.49548 7.93664 8.51787 7.95902 8.51787 7.98664V11.12C8.51787 11.1476 8.49548 11.17 8.46787 11.17C8.44025 11.17 8.41787 11.1476 8.41787 11.12V7.98664C8.41787 7.95902 8.44025 7.93664 8.46787 7.93664ZM8.8012 7.96997C8.82881 7.96997 8.8512 7.99235 8.8512 8.01997V11.5466C8.8512 11.5742 8.82881 11.5966 8.8012 11.5966C8.77359 11.5966 8.7512 11.5742 8.7512 11.5466V8.01997C8.7512 7.99235 8.77359 7.96997 8.8012 7.96997ZM9.14786 7.96997C9.17548 7.96997 9.19786 7.99235 9.19786 8.01997V11.1533C9.19786 11.1809 9.17548 11.2033 9.14786 11.2033C9.12025 11.2033 9.09787 11.1809 9.09787 11.1533V8.01997C9.09787 7.99235 9.12025 7.96997 9.14786 7.96997ZM9.4812 7.96997C9.50881 7.96997 9.5312 7.99235 9.5312 8.01997V11.1533C9.5312 11.1809 9.50881 11.2033 9.4812 11.2033C9.45358 11.2033 9.4312 11.1809 9.4312 11.1533V8.01997C9.4312 7.99235 9.45358 7.96997 9.4812 7.96997ZM5.74788 8.04997C5.77549 8.04997 5.79788 8.07235 5.79788 8.09997V11.3C5.79788 11.3276 5.77549 11.35 5.74788 11.35C5.72026 11.35 5.69788 11.3276 5.69788 11.3V8.09997C5.69788 8.07235 5.72026 8.04997 5.74788 8.04997ZM5.41455 8.29663C5.44216 8.29663 5.46455 8.31902 5.46455 8.34663V10.7466C5.46455 10.7742 5.44216 10.7966 5.41455 10.7966C5.38693 10.7966 5.36455 10.7742 5.36455 10.7466V8.34663C5.36455 8.31902 5.38693 8.29663 5.41455 8.29663Z" fill="black"/>
<path d="M7.5412 7.86664C8.2612 7.97997 9.83453 8.71997 9.65453 9.71329C9.4012 11.1266 8.57453 10.56 7.4812 10.36L6.65454 10.6333C6.35454 10.9333 5.92121 11.2133 5.62788 10.8466H5.13455V12.7666H10.5612V8.1333L7.5412 7.86664Z" fill="#000001"/>
<path fill-rule="evenodd" clip-rule="evenodd" d="M7.49158 7.86055C7.49486 7.83379 7.51875 7.81446 7.5456 7.81683L10.5656 8.0835C10.5914 8.08577 10.6112 8.10739 10.6112 8.1333V12.7666C10.6112 12.7942 10.5888 12.8166 10.5612 12.8166H5.13455C5.10693 12.8166 5.08455 12.7942 5.08455 12.7666V10.8466C5.08455 10.819 5.10693 10.7966 5.13455 10.7966H5.62788C5.64307 10.7966 5.65743 10.8035 5.66692 10.8154C5.73422 10.8995 5.80707 10.9438 5.88144 10.9615C5.95649 10.9794 6.03771 10.9713 6.1227 10.9426C6.29421 10.8846 6.47094 10.7462 6.61919 10.5979C6.6247 10.5924 6.63144 10.5883 6.63884 10.5858L7.46551 10.3125C7.47346 10.3099 7.48196 10.3093 7.4902 10.3108C7.7024 10.3496 7.90517 10.4022 8.09378 10.4512C8.15002 10.4658 8.20501 10.4801 8.25861 10.4936C8.49407 10.5528 8.70171 10.5964 8.88153 10.5916C9.05889 10.5869 9.20595 10.5352 9.32491 10.405C9.44589 10.2726 9.54269 10.0538 9.60531 9.70447C9.68972 9.23866 9.36429 8.822 8.90665 8.5009C8.45177 8.18174 7.88555 7.97145 7.53343 7.91603C7.5068 7.91184 7.48829 7.8873 7.49158 7.86055ZM8.08557 7.9649C8.37327 8.07104 8.68848 8.22567 8.96408 8.41904C9.42807 8.74458 9.79927 9.19464 9.70374 9.72212C9.6397 10.0794 9.53817 10.3198 9.39873 10.4724C9.25728 10.6272 9.08184 10.6863 8.8842 10.6916C8.68903 10.6968 8.46916 10.6496 8.23421 10.5905C8.17918 10.5767 8.12324 10.5622 8.06641 10.5474C7.88216 10.4996 7.68839 10.4493 7.48474 10.4115L6.68145 10.6771C6.53113 10.826 6.34464 10.9732 6.15472 11.0373C6.05721 11.0703 5.95634 11.0822 5.85827 11.0588C5.76591 11.0368 5.68006 10.9845 5.60441 10.8966H5.18455V12.7166H10.5112V8.17908L8.08557 7.9649Z" fill="black"/>
<path d="M9.96786 7.85997C10.1483 7.85997 10.2945 7.71372 10.2945 7.5333C10.2945 7.35289 10.1483 7.20664 9.96786 7.20664C9.78745 7.20664 9.6412 7.35289 9.6412 7.5333C9.6412 7.71372 9.78745 7.85997 9.96786 7.85997Z" fill="#FFD83D"/>
<path fill-rule="evenodd" clip-rule="evenodd" d="M9.96786 7.2733C9.82427 7.2733 9.70786 7.38971 9.70786 7.5333C9.70786 7.6769 9.82427 7.7933 9.96786 7.7933C10.1115 7.7933 10.2279 7.6769 10.2279 7.5333C10.2279 7.38971 10.1115 7.2733 9.96786 7.2733ZM9.57453 7.5333C9.57453 7.31607 9.75063 7.13997 9.96786 7.13997C10.1851 7.13997 10.3612 7.31607 10.3612 7.5333C10.3612 7.75054 10.1851 7.92664 9.96786 7.92664C9.75063 7.92664 9.57453 7.75054 9.57453 7.5333Z" fill="black"/>
<path d="M9.22786 7.67997C9.40828 7.67997 9.55453 7.53372 9.55453 7.35331C9.55453 7.17289 9.40828 7.02664 9.22786 7.02664C9.04745 7.02664 8.9012 7.17289 8.9012 7.35331C8.9012 7.53372 9.04745 7.67997 9.22786 7.67997Z" fill="#FFD83D"/>
<path fill-rule="evenodd" clip-rule="evenodd" d="M9.22786 7.09331C9.08427 7.09331 8.96787 7.20971 8.96787 7.35331C8.96787 7.4969 9.08427 7.6133 9.22786 7.6133C9.37146 7.6133 9.48786 7.4969 9.48786 7.35331C9.48786 7.20971 9.37146 7.09331 9.22786 7.09331ZM8.83453 7.35331C8.83453 7.13607 9.01063 6.95997 9.22786 6.95997C9.4451 6.95997 9.6212 7.13607 9.6212 7.35331C9.6212 7.57054 9.4451 7.74664 9.22786 7.74664C9.01063 7.74664 8.83453 7.57054 8.83453 7.35331Z" fill="black"/>
<path d="M8.47453 7.4933C8.65495 7.4933 8.8012 7.34705 8.8012 7.16664C8.8012 6.98623 8.65495 6.83997 8.47453 6.83997C8.29412 6.83997 8.14787 6.98623 8.14787 7.16664C8.14787 7.34705 8.29412 7.4933 8.47453 7.4933Z" fill="#FFD83D"/>
<path fill-rule="evenodd" clip-rule="evenodd" d="M8.47453 6.90664C8.33094 6.90664 8.21453 7.02305 8.21453 7.16664C8.21453 7.31023 8.33094 7.42664 8.47453 7.42664C8.61813 7.42664 8.73453 7.31023 8.73453 7.16664C8.73453 7.02305 8.61813 6.90664 8.47453 6.90664ZM8.0812 7.16664C8.0812 6.94941 8.2573 6.77331 8.47453 6.77331C8.69176 6.77331 8.86787 6.94941 8.86787 7.16664C8.86787 7.38387 8.69176 7.55997 8.47453 7.55997C8.2573 7.55997 8.0812 7.38387 8.0812 7.16664Z" fill="black"/>
<path d="M7.7212 7.36664C7.90162 7.36664 8.04787 7.22038 8.04787 7.03997C8.04787 6.85956 7.90162 6.71331 7.7212 6.71331C7.54079 6.71331 7.39454 6.85956 7.39454 7.03997C7.39454 7.22038 7.54079 7.36664 7.7212 7.36664Z" fill="#FFD83D"/>
<path fill-rule="evenodd" clip-rule="evenodd" d="M7.7212 6.77997C7.57761 6.77997 7.4612 6.89638 7.4612 7.03997C7.4612 7.18357 7.57761 7.29997 7.7212 7.29997C7.8648 7.29997 7.9812 7.18357 7.9812 7.03997C7.9812 6.89638 7.8648 6.77997 7.7212 6.77997ZM7.32787 7.03997C7.32787 6.82274 7.50397 6.64664 7.7212 6.64664C7.93844 6.64664 8.11454 6.82274 8.11454 7.03997C8.11454 7.2572 7.93844 7.4333 7.7212 7.4333C7.50397 7.4333 7.32787 7.2572 7.32787 7.03997Z" fill="black"/>
<path d="M6.96787 7.29331C7.14828 7.29331 7.29454 7.14705 7.29454 6.96664C7.29454 6.78623 7.14828 6.63997 6.96787 6.63997C6.78746 6.63997 6.64121 6.78623 6.64121 6.96664C6.64121 7.14705 6.78746 7.29331 6.96787 7.29331Z" fill="#FFD83D"/>
<path fill-rule="evenodd" clip-rule="evenodd" d="M6.96787 6.70664C6.82428 6.70664 6.70787 6.82305 6.70787 6.96664C6.70787 7.11023 6.82428 7.22664 6.96787 7.22664C7.11147 7.22664 7.22787 7.11023 7.22787 6.96664C7.22787 6.82305 7.11147 6.70664 6.96787 6.70664ZM6.57454 6.96664C6.57454 6.74941 6.75064 6.57331 6.96787 6.57331C7.1851 6.57331 7.3612 6.74941 7.3612 6.96664C7.3612 7.18387 7.1851 7.35997 6.96787 7.35997C6.75064 7.35997 6.57454 7.18387 6.57454 6.96664Z" fill="black"/>
<path d="M6.23454 7.3333C6.41496 7.3333 6.56121 7.18705 6.56121 7.00664C6.56121 6.82623 6.41496 6.67997 6.23454 6.67997C6.05413 6.67997 5.90788 6.82623 5.90788 7.00664C5.90788 7.18705 6.05413 7.3333 6.23454 7.3333Z" fill="#FFD83D"/>
<path fill-rule="evenodd" clip-rule="evenodd" d="M6.23454 6.74664C6.09095 6.74664 5.97454 6.86305 5.97454 7.00664C5.97454 7.15023 6.09095 7.26664 6.23454 7.26664C6.37814 7.26664 6.49454 7.15023 6.49454 7.00664C6.49454 6.86305 6.37814 6.74664 6.23454 6.74664ZM5.84121 7.00664C5.84121 6.78941 6.01731 6.61331 6.23454 6.61331C6.45177 6.61331 6.62787 6.78941 6.62787 7.00664C6.62787 7.22387 6.45177 7.39997 6.23454 7.39997C6.01731 7.39997 5.84121 7.22387 5.84121 7.00664Z" fill="black"/>
<path d="M5.52788 7.5733C5.70829 7.5733 5.85454 7.42705 5.85454 7.24664C5.85454 7.06623 5.70829 6.91997 5.52788 6.91997C5.34747 6.91997 5.20121 7.06623 5.20121 7.24664C5.20121 7.42705 5.34747 7.5733 5.52788 7.5733Z" fill="#FFD83D"/>
<path fill-rule="evenodd" clip-rule="evenodd" d="M5.52788 6.98664C5.38428 6.98664 5.26788 7.10304 5.26788 7.24664C5.26788 7.39023 5.38428 7.50664 5.52788 7.50664C5.67147 7.50664 5.78788 7.39023 5.78788 7.24664C5.78788 7.10304 5.67147 6.98664 5.52788 6.98664ZM5.13455 7.24664C5.13455 7.02941 5.31065 6.85331 5.52788 6.85331C5.74511 6.85331 5.92121 7.02941 5.92121 7.24664C5.92121 7.46387 5.74511 7.63997 5.52788 7.63997C5.31065 7.63997 5.13455 7.46387 5.13455 7.24664Z" fill="black"/>
<path d="M4.93455 8.0133C5.11496 8.0133 5.26121 7.86705 5.26121 7.68664C5.26121 7.50622 5.11496 7.35997 4.93455 7.35997C4.75414 7.35997 4.60788 7.50622 4.60788 7.68664C4.60788 7.86705 4.75414 8.0133 4.93455 8.0133Z" fill="#FFD83D"/>
<path fill-rule="evenodd" clip-rule="evenodd" d="M4.93455 7.42664C4.79095 7.42664 4.67455 7.54304 4.67455 7.68664C4.67455 7.83023 4.79095 7.94664 4.93455 7.94664C5.07814 7.94664 5.19455 7.83023 5.19455 7.68664C5.19455 7.54304 5.07814 7.42664 4.93455 7.42664ZM4.54122 7.68664C4.54122 7.46941 4.71732 7.2933 4.93455 7.2933C5.15178 7.2933 5.32788 7.46941 5.32788 7.68664C5.32788 7.90387 5.15178 8.07997 4.93455 8.07997C4.71732 8.07997 4.54122 7.90387 4.54122 7.68664Z" fill="black"/>
<path d="M4.51455 8.61997C4.69496 8.61997 4.84121 8.47371 4.84121 8.2933C4.84121 8.11289 4.69496 7.96664 4.51455 7.96664C4.33414 7.96664 4.18788 8.11289 4.18788 8.2933C4.18788 8.47371 4.33414 8.61997 4.51455 8.61997Z" fill="#FFD83D"/>
<path fill-rule="evenodd" clip-rule="evenodd" d="M4.51455 8.0333C4.37096 8.0333 4.25455 8.14971 4.25455 8.2933C4.25455 8.4369 4.37096 8.5533 4.51455 8.5533C4.65814 8.5533 4.77455 8.4369 4.77455 8.2933C4.77455 8.14971 4.65814 8.0333 4.51455 8.0333ZM4.12122 8.2933C4.12122 8.07607 4.29732 7.89997 4.51455 7.89997C4.73178 7.89997 4.90788 8.07607 4.90788 8.2933C4.90788 8.51053 4.73178 8.68663 4.51455 8.68663C4.29732 8.68663 4.12122 8.51053 4.12122 8.2933Z" fill="black"/>
<path d="M4.30788 9.33996C4.4883 9.33996 4.63455 9.19371 4.63455 9.0133C4.63455 8.83289 4.4883 8.68663 4.30788 8.68663C4.12747 8.68663 3.98122 8.83289 3.98122 9.0133C3.98122 9.19371 4.12747 9.33996 4.30788 9.33996Z" fill="#FFD83D"/>
<path fill-rule="evenodd" clip-rule="evenodd" d="M4.30788 8.7533C4.16429 8.7533 4.04788 8.8697 4.04788 9.0133C4.04788 9.15689 4.16429 9.2733 4.30788 9.2733C4.45148 9.2733 4.56788 9.15689 4.56788 9.0133C4.56788 8.8697 4.45148 8.7533 4.30788 8.7533ZM3.91455 9.0133C3.91455 8.79607 4.09065 8.61997 4.30788 8.61997C4.52511 8.61997 4.70122 8.79607 4.70122 9.0133C4.70122 9.23053 4.52511 9.40663 4.30788 9.40663C4.09065 9.40663 3.91455 9.23053 3.91455 9.0133Z" fill="black"/>
<path d="M4.31455 10.08C4.49496 10.08 4.64121 9.93371 4.64121 9.7533C4.64121 9.57288 4.49496 9.42663 4.31455 9.42663C4.13414 9.42663 3.98788 9.57288 3.98788 9.7533C3.98788 9.93371 4.13414 10.08 4.31455 10.08Z" fill="#FFD83D"/>
<path fill-rule="evenodd" clip-rule="evenodd" d="M4.31455 9.4933C4.17096 9.4933 4.05455 9.6097 4.05455 9.7533C4.05455 9.89689 4.17096 10.0133 4.31455 10.0133C4.45814 10.0133 4.57455 9.89689 4.57455 9.7533C4.57455 9.6097 4.45814 9.4933 4.31455 9.4933ZM3.92122 9.7533C3.92122 9.53606 4.09732 9.35996 4.31455 9.35996C4.53178 9.35996 4.70788 9.53607 4.70788 9.7533C4.70788 9.97053 4.53178 10.1466 4.31455 10.1466C4.09732 10.1466 3.92122 9.97053 3.92122 9.7533Z" fill="black"/>
<path d="M4.46122 10.8066C4.64163 10.8066 4.78788 10.6604 4.78788 10.48C4.78788 10.2995 4.64163 10.1533 4.46122 10.1533C4.2808 10.1533 4.13455 10.2995 4.13455 10.48C4.13455 10.6604 4.2808 10.8066 4.46122 10.8066Z" fill="#FFD83D"/>
<path fill-rule="evenodd" clip-rule="evenodd" d="M4.46122 10.22C4.31762 10.22 4.20122 10.3364 4.20122 10.48C4.20122 10.6236 4.31762 10.74 4.46122 10.74C4.60481 10.74 4.72122 10.6236 4.72122 10.48C4.72122 10.3364 4.60481 10.22 4.46122 10.22ZM4.06788 10.48C4.06788 10.2627 4.24398 10.0866 4.46122 10.0866C4.67845 10.0866 4.85455 10.2627 4.85455 10.48C4.85455 10.6972 4.67845 10.8733 4.46122 10.8733C4.24398 10.8733 4.06788 10.6972 4.06788 10.48Z" fill="black"/>
<path d="M10.1145 7.96664L10.0812 8.39997C9.2612 8.26663 8.1012 7.8133 7.01454 7.8133C6.01454 7.8133 5.24121 8.2133 5.24121 9.22663C5.24121 10.22 5.66121 11.1266 6.22121 12.0466L5.64121 12.3133C5.12121 11.3133 4.68788 10.4466 4.68788 9.28663C4.68788 8.3133 5.45455 7.3533 6.77454 7.3533C7.9412 7.3533 9.13453 7.7533 10.1145 7.96664Z" fill="#FFD83D"/>
<path fill-rule="evenodd" clip-rule="evenodd" d="M6.77454 7.41997C5.49224 7.41997 4.75455 8.34924 4.75455 9.28663C4.75455 10.407 5.16421 11.2498 5.67108 12.2262L6.1255 12.0172C5.58308 11.116 5.17455 10.2155 5.17455 9.22663C5.17455 8.70052 5.37665 8.32601 5.71421 8.08566C6.04822 7.84783 6.50727 7.74664 7.01454 7.74664C7.56626 7.74664 8.13435 7.86163 8.66379 7.9919C8.82734 8.03214 8.98668 8.07368 9.14073 8.11384C9.45975 8.19701 9.75613 8.27428 10.0203 8.32189L10.0436 8.01928C9.81437 7.96817 9.57422 7.90774 9.32699 7.84545L9.319 7.84344C9.05343 7.77653 8.7795 7.70751 8.49999 7.64503C7.9352 7.51878 7.3507 7.41997 6.77454 7.41997ZM4.62122 9.28663C4.62122 8.27736 5.41685 7.28664 6.77454 7.28664C7.36504 7.28664 7.96054 7.38782 8.52908 7.51491C8.81034 7.57778 9.08575 7.64717 9.35084 7.71396L9.35957 7.71616C9.62769 7.78371 9.88495 7.84843 10.1287 7.90149C10.1612 7.90857 10.1836 7.93856 10.181 7.97175L10.1477 8.40508C10.1462 8.42368 10.1371 8.44084 10.1224 8.45237C10.1077 8.4639 10.0889 8.46876 10.0705 8.46577C9.78224 8.4189 9.45113 8.33259 9.09963 8.24096C8.94696 8.20117 8.79045 8.16037 8.63194 8.12137C8.10472 7.99164 7.54949 7.87997 7.01454 7.87997C6.52182 7.87997 6.0942 7.97877 5.79155 8.19427C5.49244 8.40725 5.30788 8.73942 5.30788 9.22663C5.30788 10.201 5.71976 11.0946 6.27816 12.012C6.28805 12.0282 6.29053 12.0479 6.28497 12.0661C6.27941 12.0843 6.26634 12.0992 6.24906 12.1072L5.66906 12.3739C5.63675 12.3887 5.59847 12.3756 5.58206 12.344C5.06235 11.3446 4.62122 10.4647 4.62122 9.28663Z" fill="black"/>
<path d="M10.9545 8.1533L11.0812 12.32H15.3078C15.8278 11.3066 16.2545 10.4533 16.2545 9.28663C16.2545 8.3133 15.4878 7.53997 14.3878 7.53997C13.2212 7.53997 11.9345 7.9333 10.9545 8.1533Z" fill="#FFD83D"/>
<path fill-rule="evenodd" clip-rule="evenodd" d="M14.0545 7.67664C14.0269 7.67664 14.0045 7.69902 14.0045 7.72664V10.86C14.0045 10.8876 14.0269 10.91 14.0545 10.91C14.0821 10.91 14.1045 10.8876 14.1045 10.86V7.72664C14.1045 7.69902 14.0821 7.67664 14.0545 7.67664ZM13.7145 7.67664C13.6869 7.67664 13.6645 7.69902 13.6645 7.72664V10.86C13.6645 10.8876 13.6869 10.91 13.7145 10.91C13.7421 10.91 13.7645 10.8876 13.7645 10.86V7.72664C13.7645 7.69902 13.7421 7.67664 13.7145 7.67664ZM13.3745 7.70997C13.3469 7.70997 13.3245 7.73236 13.3245 7.75997V10.8933C13.3245 10.9209 13.3469 10.9433 13.3745 10.9433C13.4021 10.9433 13.4245 10.9209 13.4245 10.8933V7.75997C13.4245 7.73236 13.4021 7.70997 13.3745 7.70997ZM13.0345 7.7433C13.0069 7.7433 12.9845 7.76569 12.9845 7.7933V10.92C12.9845 10.9476 13.0069 10.97 13.0345 10.97C13.0621 10.97 13.0845 10.9476 13.0845 10.92V7.7933C13.0845 7.76569 13.0621 7.7433 13.0345 7.7433ZM14.3945 7.78997C14.3669 7.78997 14.3445 7.81236 14.3445 7.83997V10.86C14.3445 10.8876 14.3669 10.91 14.3945 10.91C14.4221 10.91 14.4445 10.8876 14.4445 10.86V7.83997C14.4445 7.81236 14.4221 7.78997 14.3945 7.78997ZM14.7345 7.8033C14.7069 7.8033 14.6845 7.82569 14.6845 7.8533V10.8466C14.6845 10.8742 14.7069 10.8966 14.7345 10.8966C14.7621 10.8966 14.7845 10.8742 14.7845 10.8466V7.8533C14.7845 7.82569 14.7621 7.8033 14.7345 7.8033ZM15.0678 7.8833C15.0402 7.8833 15.0178 7.90569 15.0178 7.9333V11.7466C15.0178 11.7742 15.0402 11.7966 15.0678 11.7966C15.0955 11.7966 15.1178 11.7742 15.1178 11.7466V7.9333C15.1178 7.90569 15.0955 7.8833 15.0678 7.8833ZM12.6945 7.93664C12.6669 7.93664 12.6445 7.95902 12.6445 7.98664V11.12C12.6445 11.1476 12.6669 11.17 12.6945 11.17C12.7221 11.17 12.7445 11.1476 12.7445 11.12V7.98664C12.7445 7.95902 12.7221 7.93664 12.6945 7.93664ZM12.3612 7.96997C12.3336 7.96997 12.3112 7.99235 12.3112 8.01997V11.5466C12.3112 11.5742 12.3336 11.5966 12.3612 11.5966C12.3888 11.5966 12.4112 11.5742 12.4112 11.5466V8.01997C12.4112 7.99235 12.3888 7.96997 12.3612 7.96997ZM12.0145 7.96997C11.9869 7.96997 11.9645 7.99235 11.9645 8.01997V11.1533C11.9645 11.1809 11.9869 11.2033 12.0145 11.2033C12.0421 11.2033 12.0645 11.1809 12.0645 11.1533V8.01997C12.0645 7.99235 12.0421 7.96997 12.0145 7.96997ZM11.6812 7.96997C11.6536 7.96997 11.6312 7.99235 11.6312 8.01997V11.1533C11.6312 11.1809 11.6536 11.2033 11.6812 11.2033C11.7088 11.2033 11.7312 11.1809 11.7312 11.1533V8.01997C11.7312 7.99235 11.7088 7.96997 11.6812 7.96997ZM15.4145 8.04997C15.3869 8.04997 15.3645 8.07235 15.3645 8.09997V11.3C15.3645 11.3276 15.3869 11.35 15.4145 11.35C15.4421 11.35 15.4645 11.3276 15.4645 11.3V8.09997C15.4645 8.07235 15.4421 8.04997 15.4145 8.04997ZM15.7478 8.29663C15.7202 8.29663 15.6978 8.31902 15.6978 8.34663V10.7466C15.6978 10.7742 15.7202 10.7966 15.7478 10.7966C15.7755 10.7966 15.7978 10.7742 15.7978 10.7466V8.34663C15.7978 8.31902 15.7755 8.29663 15.7478 8.29663Z" fill="black"/>
<path d="M13.6212 7.86664C12.9012 7.97997 11.3279 8.71997 11.5079 9.71329C11.7612 11.1266 12.5879 10.56 13.6812 10.36L14.5078 10.6333C14.8078 10.9333 15.2412 11.2133 15.5345 10.8466H16.0278V12.7666H10.6012V8.1333L13.6212 7.86664Z" fill="#000001"/>
<path fill-rule="evenodd" clip-rule="evenodd" d="M13.6708 7.86055C13.6675 7.83379 13.6436 7.81446 13.6168 7.81683L10.5968 8.0835C10.571 8.08577 10.5512 8.10739 10.5512 8.1333V12.7666C10.5512 12.7942 10.5736 12.8166 10.6012 12.8166H16.0278C16.0555 12.8166 16.0778 12.7942 16.0778 12.7666V10.8466C16.0778 10.819 16.0555 10.7966 16.0278 10.7966H15.5345C15.5193 10.7966 15.505 10.8035 15.4955 10.8154C15.4282 10.8995 15.3553 10.9438 15.2809 10.9615C15.2059 10.9794 15.1247 10.9713 15.0397 10.9426C14.8682 10.8846 14.6915 10.7462 14.5432 10.5979C14.5377 10.5924 14.531 10.5883 14.5235 10.5858L13.6969 10.3125C13.6889 10.3099 13.6804 10.3093 13.6722 10.3108C13.46 10.3496 13.2572 10.4022 13.0686 10.4512C13.0124 10.4658 12.9574 10.4801 12.9038 10.4936C12.6683 10.5528 12.4607 10.5964 12.2809 10.5916C12.1035 10.5869 11.9564 10.5352 11.8375 10.405C11.7165 10.2726 11.6197 10.0538 11.5571 9.70447C11.4727 9.23866 11.7981 8.822 12.2557 8.5009C12.7106 8.18174 13.2768 7.97145 13.629 7.91603C13.6556 7.91184 13.6741 7.8873 13.6708 7.86055ZM13.0768 7.9649C12.7891 8.07104 12.4739 8.22567 12.1983 8.41904C11.7343 8.74458 11.3631 9.19464 11.4586 9.72212C11.5227 10.0794 11.6242 10.3198 11.7637 10.4724C11.9051 10.6272 12.0805 10.6863 12.2782 10.6916C12.4734 10.6968 12.6932 10.6496 12.9282 10.5905C12.9832 10.5767 13.0391 10.5622 13.096 10.5474C13.2802 10.4996 13.474 10.4493 13.6777 10.4115L14.4809 10.6771C14.6313 10.826 14.8178 10.9732 15.0077 11.0373C15.1052 11.0703 15.206 11.0822 15.3041 11.0588C15.3965 11.0368 15.4823 10.9845 15.558 10.8966H15.9778V12.7166H10.6512V8.17908L13.0768 7.9649Z" fill="black"/>
<path d="M11.1945 7.85997C11.0141 7.85997 10.8679 7.71372 10.8679 7.5333C10.8679 7.35289 11.0141 7.20664 11.1945 7.20664C11.3749 7.20664 11.5212 7.35289 11.5212 7.5333C11.5212 7.71372 11.3749 7.85997 11.1945 7.85997Z" fill="#FFD83D"/>
<path fill-rule="evenodd" clip-rule="evenodd" d="M11.1945 7.2733C11.3381 7.2733 11.4545 7.38971 11.4545 7.5333C11.4545 7.6769 11.3381 7.7933 11.1945 7.7933C11.0509 7.7933 10.9345 7.6769 10.9345 7.5333C10.9345 7.38971 11.0509 7.2733 11.1945 7.2733ZM11.5879 7.5333C11.5879 7.31607 11.4118 7.13997 11.1945 7.13997C10.9773 7.13997 10.8012 7.31607 10.8012 7.5333C10.8012 7.75054 10.9773 7.92664 11.1945 7.92664C11.4118 7.92664 11.5879 7.75054 11.5879 7.5333Z" fill="black"/>
<path d="M11.9345 7.67997C11.7541 7.67997 11.6079 7.53372 11.6079 7.35331C11.6079 7.17289 11.7541 7.02664 11.9345 7.02664C12.1149 7.02664 12.2612 7.17289 12.2612 7.35331C12.2612 7.53372 12.1149 7.67997 11.9345 7.67997Z" fill="#FFD83D"/>
<path fill-rule="evenodd" clip-rule="evenodd" d="M11.9345 7.09331C12.0781 7.09331 12.1945 7.20971 12.1945 7.35331C12.1945 7.4969 12.0781 7.6133 11.9345 7.6133C11.7909 7.6133 11.6745 7.4969 11.6745 7.35331C11.6745 7.20971 11.7909 7.09331 11.9345 7.09331ZM12.3279 7.35331C12.3279 7.13607 12.1518 6.95997 11.9345 6.95997C11.7173 6.95997 11.5412 7.13607 11.5412 7.35331C11.5412 7.57054 11.7173 7.74664 11.9345 7.74664C12.1518 7.74664 12.3279 7.57054 12.3279 7.35331Z" fill="black"/>
<path d="M12.6879 7.4933C12.5074 7.4933 12.3612 7.34705 12.3612 7.16664C12.3612 6.98623 12.5074 6.83997 12.6879 6.83997C12.8683 6.83997 13.0145 6.98623 13.0145 7.16664C13.0145 7.34705 12.8683 7.4933 12.6879 7.4933Z" fill="#FFD83D"/>
<path fill-rule="evenodd" clip-rule="evenodd" d="M12.6879 6.90664C12.8314 6.90664 12.9479 7.02305 12.9479 7.16664C12.9479 7.31023 12.8314 7.42664 12.6879 7.42664C12.5443 7.42664 12.4279 7.31023 12.4279 7.16664C12.4279 7.02305 12.5443 6.90664 12.6879 6.90664ZM13.0812 7.16664C13.0812 6.94941 12.9051 6.77331 12.6879 6.77331C12.4706 6.77331 12.2945 6.94941 12.2945 7.16664C12.2945 7.38387 12.4706 7.55997 12.6879 7.55997C12.9051 7.55997 13.0812 7.38387 13.0812 7.16664Z" fill="black"/>
<path d="M13.4412 7.36664C13.2608 7.36664 13.1145 7.22038 13.1145 7.03997C13.1145 6.85956 13.2608 6.71331 13.4412 6.71331C13.6216 6.71331 13.7678 6.85956 13.7678 7.03997C13.7678 7.22038 13.6216 7.36664 13.4412 7.36664Z" fill="#FFD83D"/>
<path fill-rule="evenodd" clip-rule="evenodd" d="M13.4412 6.77997C13.5848 6.77997 13.7012 6.89638 13.7012 7.03997C13.7012 7.18357 13.5848 7.29997 13.4412 7.29997C13.2976 7.29997 13.1812 7.18357 13.1812 7.03997C13.1812 6.89638 13.2976 6.77997 13.4412 6.77997ZM13.8345 7.03997C13.8345 6.82274 13.6584 6.64664 13.4412 6.64664C13.2239 6.64664 13.0478 6.82274 13.0478 7.03997C13.0478 7.2572 13.2239 7.4333 13.4412 7.4333C13.6584 7.4333 13.8345 7.2572 13.8345 7.03997Z" fill="black"/>
<path d="M14.1945 7.29331C14.0141 7.29331 13.8678 7.14705 13.8678 6.96664C13.8678 6.78623 14.0141 6.63997 14.1945 6.63997C14.3749 6.63997 14.5212 6.78623 14.5212 6.96664C14.5212 7.14705 14.3749 7.29331 14.1945 7.29331Z" fill="#FFD83D"/>
<path fill-rule="evenodd" clip-rule="evenodd" d="M14.1945 6.70664C14.3381 6.70664 14.4545 6.82305 14.4545 6.96664C14.4545 7.11023 14.3381 7.22664 14.1945 7.22664C14.0509 7.22664 13.9345 7.11023 13.9345 6.96664C13.9345 6.82305 14.0509 6.70664 14.1945 6.70664ZM14.5878 6.96664C14.5878 6.74941 14.4117 6.57331 14.1945 6.57331C13.9773 6.57331 13.8012 6.74941 13.8012 6.96664C13.8012 7.18387 13.9773 7.35997 14.1945 7.35997C14.4117 7.35997 14.5878 7.18387 14.5878 6.96664Z" fill="black"/>
<path d="M14.9278 7.3333C14.7474 7.3333 14.6012 7.18705 14.6012 7.00664C14.6012 6.82623 14.7474 6.67997 14.9278 6.67997C15.1083 6.67997 15.2545 6.82623 15.2545 7.00664C15.2545 7.18705 15.1083 7.3333 14.9278 7.3333Z" fill="#FFD83D"/>
<path fill-rule="evenodd" clip-rule="evenodd" d="M14.9278 6.74664C15.0714 6.74664 15.1878 6.86305 15.1878 7.00664C15.1878 7.15023 15.0714 7.26664 14.9278 7.26664C14.7843 7.26664 14.6678 7.15023 14.6678 7.00664C14.6678 6.86305 14.7843 6.74664 14.9278 6.74664ZM15.3212 7.00664C15.3212 6.78941 15.1451 6.61331 14.9278 6.61331C14.7106 6.61331 14.5345 6.78941 14.5345 7.00664C14.5345 7.22387 14.7106 7.39997 14.9278 7.39997C15.1451 7.39997 15.3212 7.22387 15.3212 7.00664Z" fill="black"/>
<path d="M15.6345 7.5733C15.4541 7.5733 15.3078 7.42705 15.3078 7.24664C15.3078 7.06623 15.4541 6.91997 15.6345 6.91997C15.8149 6.91997 15.9612 7.06623 15.9612 7.24664C15.9612 7.42705 15.8149 7.5733 15.6345 7.5733Z" fill="#FFD83D"/>
<path fill-rule="evenodd" clip-rule="evenodd" d="M15.6345 6.98664C15.7781 6.98664 15.8945 7.10304 15.8945 7.24664C15.8945 7.39023 15.7781 7.50664 15.6345 7.50664C15.4909 7.50664 15.3745 7.39023 15.3745 7.24664C15.3745 7.10304 15.4909 6.98664 15.6345 6.98664ZM16.0278 7.24664C16.0278 7.02941 15.8517 6.85331 15.6345 6.85331C15.4173 6.85331 15.2412 7.02941 15.2412 7.24664C15.2412 7.46387 15.4173 7.63997 15.6345 7.63997C15.8517 7.63997 16.0278 7.46387 16.0278 7.24664Z" fill="black"/>
<path d="M16.2278 8.0133C16.0474 8.0133 15.9012 7.86705 15.9012 7.68664C15.9012 7.50622 16.0474 7.35997 16.2278 7.35997C16.4083 7.35997 16.5545 7.50622 16.5545 7.68664C16.5545 7.86705 16.4083 8.0133 16.2278 8.0133Z" fill="#FFD83D"/>
<path fill-rule="evenodd" clip-rule="evenodd" d="M16.2278 7.42664C16.3714 7.42664 16.4878 7.54304 16.4878 7.68664C16.4878 7.83023 16.3714 7.94664 16.2278 7.94664C16.0842 7.94664 15.9678 7.83023 15.9678 7.68664C15.9678 7.54304 16.0842 7.42664 16.2278 7.42664ZM16.6212 7.68664C16.6212 7.46941 16.4451 7.2933 16.2278 7.2933C16.0106 7.2933 15.8345 7.46941 15.8345 7.68664C15.8345 7.90387 16.0106 8.07997 16.2278 8.07997C16.4451 8.07997 16.6212 7.90387 16.6212 7.68664Z" fill="black"/>
<path d="M16.6478 8.61997C16.4674 8.61997 16.3212 8.47371 16.3212 8.2933C16.3212 8.11289 16.4674 7.96664 16.6478 7.96664C16.8282 7.96664 16.9745 8.11289 16.9745 8.2933C16.9745 8.47371 16.8282 8.61997 16.6478 8.61997Z" fill="#FFD83D"/>
<path fill-rule="evenodd" clip-rule="evenodd" d="M16.6478 8.0333C16.7914 8.0333 16.9078 8.14971 16.9078 8.2933C16.9078 8.4369 16.7914 8.5533 16.6478 8.5533C16.5042 8.5533 16.3878 8.4369 16.3878 8.2933C16.3878 8.14971 16.5042 8.0333 16.6478 8.0333ZM17.0412 8.2933C17.0412 8.07607 16.8651 7.89997 16.6478 7.89997C16.4306 7.89997 16.2545 8.07607 16.2545 8.2933C16.2545 8.51053 16.4306 8.68663 16.6478 8.68663C16.8651 8.68663 17.0412 8.51053 17.0412 8.2933Z" fill="black"/>
<path d="M16.8545 9.33996C16.6741 9.33996 16.5278 9.19371 16.5278 9.0133C16.5278 8.83289 16.6741 8.68663 16.8545 8.68663C17.0349 8.68663 17.1812 8.83289 17.1812 9.0133C17.1812 9.19371 17.0349 9.33996 16.8545 9.33996Z" fill="#FFD83D"/>
<path fill-rule="evenodd" clip-rule="evenodd" d="M16.8545 8.7533C16.9981 8.7533 17.1145 8.8697 17.1145 9.0133C17.1145 9.15689 16.9981 9.2733 16.8545 9.2733C16.7109 9.2733 16.5945 9.15689 16.5945 9.0133C16.5945 8.8697 16.7109 8.7533 16.8545 8.7533ZM17.2478 9.0133C17.2478 8.79607 17.0717 8.61997 16.8545 8.61997C16.6373 8.61997 16.4612 8.79607 16.4612 9.0133C16.4612 9.23053 16.6373 9.40663 16.8545 9.40663C17.0717 9.40663 17.2478 9.23053 17.2478 9.0133Z" fill="black"/>
<path d="M16.8478 10.08C16.6674 10.08 16.5212 9.93371 16.5212 9.7533C16.5212 9.57288 16.6674 9.42663 16.8478 9.42663C17.0282 9.42663 17.1745 9.57288 17.1745 9.7533C17.1745 9.93371 17.0282 10.08 16.8478 10.08Z" fill="#FFD83D"/>
<path fill-rule="evenodd" clip-rule="evenodd" d="M16.8478 9.4933C16.9914 9.4933 17.1078 9.6097 17.1078 9.7533C17.1078 9.89689 16.9914 10.0133 16.8478 10.0133C16.7042 10.0133 16.5878 9.89689 16.5878 9.7533C16.5878 9.6097 16.7042 9.4933 16.8478 9.4933ZM17.2412 9.7533C17.2412 9.53606 17.0651 9.35996 16.8478 9.35996C16.6306 9.35996 16.4545 9.53607 16.4545 9.7533C16.4545 9.97053 16.6306 10.1466 16.8478 10.1466C17.0651 10.1466 17.2412 9.97053 17.2412 9.7533Z" fill="black"/>
<path d="M16.7012 10.8066C16.5208 10.8066 16.3745 10.6604 16.3745 10.48C16.3745 10.2995 16.5208 10.1533 16.7012 10.1533C16.8816 10.1533 17.0278 10.2995 17.0278 10.48C17.0278 10.6604 16.8816 10.8066 16.7012 10.8066Z" fill="#FFD83D"/>
<path fill-rule="evenodd" clip-rule="evenodd" d="M16.7012 10.22C16.8448 10.22 16.9612 10.3364 16.9612 10.48C16.9612 10.6236 16.8448 10.74 16.7012 10.74C16.5576 10.74 16.4412 10.6236 16.4412 10.48C16.4412 10.3364 16.5576 10.22 16.7012 10.22ZM17.0945 10.48C17.0945 10.2627 16.9184 10.0866 16.7012 10.0866C16.4839 10.0866 16.3078 10.2627 16.3078 10.48C16.3078 10.6972 16.4839 10.8733 16.7012 10.8733C16.9184 10.8733 17.0945 10.6972 17.0945 10.48Z" fill="black"/>
<path d="M11.0479 7.96664L11.0812 8.39997C11.9012 8.26663 13.0612 7.8133 14.1478 7.8133C15.1478 7.8133 15.9212 8.2133 15.9212 9.22663C15.9212 10.22 15.5012 11.1266 14.9412 12.0466L15.5212 12.3133C16.0412 11.3133 16.4745 10.4466 16.4745 9.28663C16.4745 8.3133 15.7078 7.3533 14.3878 7.3533C13.2212 7.3533 12.0279 7.7533 11.0479 7.96664Z" fill="#FFD83D"/>
<path fill-rule="evenodd" clip-rule="evenodd" d="M14.3878 7.41997C15.6701 7.41997 16.4078 8.34924 16.4078 9.28663C16.4078 10.407 15.9982 11.2498 15.4913 12.2262L15.0369 12.0172C15.5793 11.116 15.9878 10.2155 15.9878 9.22663C15.9878 8.70052 15.7857 8.32601 15.4482 8.08566C15.1142 7.84783 14.6551 7.74664 14.1478 7.74664C13.5961 7.74664 13.028 7.86163 12.4986 7.9919C12.335 8.03214 12.1757 8.07368 12.0217 8.11384C11.7026 8.19701 11.4063 8.27428 11.142 8.32189L11.1188 8.01928C11.348 7.96817 11.5882 7.90774 11.8354 7.84545L11.8434 7.84344C12.109 7.77653 12.3829 7.70751 12.6624 7.64503C13.2272 7.51878 13.8117 7.41997 14.3878 7.41997ZM16.5412 9.28663C16.5412 8.27736 15.7455 7.28664 14.3878 7.28664C13.7973 7.28664 13.2018 7.38782 12.6333 7.51491C12.352 7.57778 12.0766 7.64717 11.8115 7.71396L11.8028 7.71616C11.5347 7.78371 11.2774 7.84843 11.0337 7.90149C11.0012 7.90857 10.9788 7.93856 10.9814 7.97175L11.0147 8.40508C11.0162 8.42368 11.0253 8.44084 11.04 8.45237C11.0546 8.4639 11.0735 8.46876 11.0919 8.46577C11.3801 8.4189 11.7113 8.33259 12.0628 8.24096C12.2154 8.20117 12.3719 8.16037 12.5304 8.12137C13.0577 7.99164 13.6129 7.87997 14.1478 7.87997C14.6406 7.87997 15.0682 7.97877 15.3708 8.19427C15.67 8.40725 15.8545 8.73942 15.8545 9.22663C15.8545 10.201 15.4426 11.0946 14.8842 12.012C14.8743 12.0282 14.8719 12.0479 14.8774 12.0661C14.883 12.0843 14.896 12.0992 14.9133 12.1072L15.4933 12.3739C15.5256 12.3887 15.5639 12.3756 15.5803 12.344C16.1 11.3446 16.5412 10.4647 16.5412 9.28663Z" fill="black"/>
<path d="M10.5812 3.53999L10.2345 4.18665L10.5812 4.82665L10.9212 4.18665L10.5812 3.53332V3.53999ZM10.5812 5.16665L10.2345 5.80664L10.5812 6.45331L10.9145 5.79998L10.5812 5.16665ZM9.35453 4.99998L9.89453 5.33998L10.4345 4.99998L9.9012 4.65332L9.35453 4.99998ZM10.7212 4.99998L11.2612 5.33998L11.8079 4.99998L11.2612 4.65332L10.7212 4.99998Z" fill="#FFD83D"/>
<path fill-rule="evenodd" clip-rule="evenodd" d="M10.5654 3.46856C10.5952 3.46126 10.6262 3.4753 10.6403 3.50254L10.9803 4.15587C10.9905 4.17534 10.9904 4.19855 10.9801 4.21793L10.6401 4.85792C10.6285 4.87962 10.606 4.89321 10.5815 4.89331C10.5569 4.89341 10.5343 4.88 10.5226 4.8584L10.1759 4.2184C10.1652 4.19868 10.1652 4.17492 10.1758 4.15515L10.5156 3.52117C10.5203 3.49576 10.5395 3.47488 10.5654 3.46856ZM10.5821 3.67943L10.3103 4.18649L10.5806 4.68562L10.8459 4.18633L10.5821 3.67943ZM9.86549 4.59701C9.88752 4.58305 9.91566 4.58321 9.93753 4.59742L10.4709 4.94408C10.4899 4.95648 10.5014 4.97773 10.5012 5.00046C10.501 5.0232 10.4893 5.04428 10.47 5.0564L9.93005 5.39639C9.90834 5.41006 9.88072 5.41006 9.85901 5.39639L9.31901 5.0564C9.29966 5.04421 9.2879 5.02296 9.28786 5.00009C9.28783 4.97722 9.29952 4.95593 9.31883 4.94368L9.86549 4.59701ZM11.2252 4.59721C11.247 4.5832 11.275 4.58312 11.2969 4.59701L11.8436 4.94368C11.8629 4.95596 11.8746 4.97734 11.8745 5.00027C11.8744 5.02321 11.8625 5.04448 11.8431 5.05659L11.2964 5.39659C11.2747 5.41007 11.2473 5.40999 11.2257 5.39639L10.6857 5.0564C10.6664 5.04425 10.6546 5.02308 10.6545 5.00027C10.6544 4.97747 10.666 4.9562 10.6852 4.94388L11.2252 4.59721ZM9.47933 4.99978L9.89453 5.2612L10.3108 4.99909L9.90075 4.73254L9.47933 4.99978ZM11.2614 4.7324L10.8454 4.99943L11.2614 5.26134L11.6825 4.99943L11.2614 4.7324ZM10.5816 5.09998C10.6062 5.10013 10.6287 5.11382 10.6402 5.1356L10.9735 5.76893C10.9836 5.7881 10.9838 5.81098 10.9739 5.83028L10.6406 6.48361C10.6293 6.50571 10.6067 6.51972 10.5819 6.51997C10.5571 6.52022 10.5342 6.50668 10.5224 6.48481L10.1758 5.83814C10.1652 5.81838 10.1652 5.79461 10.1759 5.77489L10.5226 5.13489C10.5343 5.11326 10.557 5.09983 10.5816 5.09998ZM10.3103 5.80681L10.5797 6.30948L10.8394 5.80045L10.5803 5.30818L10.3103 5.80681Z" fill="black"/>
<path d="M10.5812 5.26665C10.7248 5.26665 10.8412 5.15024 10.8412 5.00665C10.8412 4.86305 10.7248 4.74665 10.5812 4.74665C10.4376 4.74665 10.3212 4.86305 10.3212 5.00665C10.3212 5.15024 10.4376 5.26665 10.5812 5.26665Z" fill="#FFD83D"/>
<path fill-rule="evenodd" clip-rule="evenodd" d="M10.5812 4.81331C10.4744 4.81331 10.3879 4.89987 10.3879 5.00665C10.3879 5.11342 10.4744 5.19998 10.5812 5.19998C10.688 5.19998 10.7745 5.11342 10.7745 5.00665C10.7745 4.89987 10.688 4.81331 10.5812 4.81331ZM10.2545 5.00665C10.2545 4.82623 10.4008 4.67998 10.5812 4.67998C10.7616 4.67998 10.9079 4.82623 10.9079 5.00665C10.9079 5.18706 10.7616 5.33331 10.5812 5.33331C10.4008 5.33331 10.2545 5.18706 10.2545 5.00665Z" fill="black"/>
<path d="M10.5812 7.36664C10.9678 7.36664 11.2812 7.05324 11.2812 6.66664C11.2812 6.28004 10.9678 5.96664 10.5812 5.96664C10.1946 5.96664 9.8812 6.28004 9.8812 6.66664C9.8812 7.05324 10.1946 7.36664 10.5812 7.36664Z" fill="#FFD83D"/>
<path fill-rule="evenodd" clip-rule="evenodd" d="M10.5812 6.03331C10.2314 6.03331 9.94786 6.31686 9.94786 6.66664C9.94786 7.01642 10.2314 7.29997 10.5812 7.29997C10.931 7.29997 11.2145 7.01642 11.2145 6.66664C11.2145 6.31686 10.931 6.03331 10.5812 6.03331ZM9.81453 6.66664C9.81453 6.24322 10.1578 5.89998 10.5812 5.89998C11.0046 5.89998 11.3479 6.24322 11.3479 6.66664C11.3479 7.09006 11.0046 7.4333 10.5812 7.4333C10.1578 7.4333 9.81453 7.09006 9.81453 6.66664Z" fill="black"/>
<path fill-rule="evenodd" clip-rule="evenodd" d="M10.4012 5.94331C10.4288 5.94331 10.4512 5.9657 10.4512 5.99331V6.43331C10.4512 6.45999 10.4302 6.48197 10.4036 6.48325C10.2402 6.49112 10.0775 6.50871 9.91619 6.53594C9.88896 6.54054 9.86316 6.5222 9.85856 6.49497C9.85396 6.46774 9.87231 6.44194 9.89954 6.43734C10.0491 6.41209 10.1998 6.39493 10.3512 6.38593V5.99331C10.3512 5.9657 10.3736 5.94331 10.4012 5.94331ZM10.7545 5.94331C10.7821 5.94331 10.8045 5.9657 10.8045 5.99331V6.38581C10.9581 6.39456 11.1111 6.41176 11.2628 6.43734C11.2901 6.44193 11.3084 6.46772 11.3038 6.49495C11.2992 6.52218 11.2734 6.54054 11.2462 6.53595C11.0828 6.50839 10.9178 6.49079 10.7523 6.48326C10.7255 6.48204 10.7045 6.46004 10.7045 6.43331V5.99331C10.7045 5.9657 10.7269 5.94331 10.7545 5.94331ZM10.581 6.72997C10.8105 6.72997 11.0405 6.75022 11.2571 6.79083C11.2842 6.79592 11.3021 6.82205 11.297 6.84919C11.2919 6.87633 11.2658 6.89421 11.2386 6.88912C11.0286 6.84973 10.8051 6.82998 10.5813 6.82997C10.3562 6.831 10.1315 6.85082 9.90973 6.88924C9.88252 6.89395 9.85664 6.87572 9.85193 6.84851C9.84722 6.8213 9.86545 6.79542 9.89266 6.79071C10.12 6.75133 10.3502 6.73102 10.581 6.72997Z" fill="black"/>
<path d="M9.9012 7.84664C9.83453 8.97996 9.7012 10.1466 9.25453 10.9866L9.97453 10.6933C10.2279 9.73996 10.2812 8.50663 10.3545 7.91997L9.9012 7.84664ZM11.2612 7.84664L10.8012 7.91997C10.8812 8.50663 10.9345 9.73996 11.1812 10.6933L11.9012 10.9866C11.4612 10.1466 11.3279 8.98663 11.2612 7.84664Z" fill="#FFD83D"/>
<path fill-rule="evenodd" clip-rule="evenodd" d="M9.85949 7.79462C9.8742 7.78283 9.89322 7.77781 9.91184 7.78082L10.3652 7.85416C10.4006 7.85989 10.4251 7.89263 10.4207 7.92824C10.4022 8.07628 10.3848 8.26821 10.3649 8.48795C10.3073 9.12552 10.2285 9.99724 10.039 10.7104C10.0336 10.7306 10.019 10.7471 9.99968 10.755L9.27968 11.0484C9.2537 11.059 9.22386 11.0521 9.20505 11.0313C9.18625 11.0105 9.18249 10.9801 9.19567 10.9553C9.63467 10.1297 9.76793 8.97691 9.83464 7.84272C9.83575 7.8239 9.84478 7.80642 9.85949 7.79462ZM11.303 7.79468C11.3176 7.80648 11.3266 7.82394 11.3277 7.84274C11.3945 8.98348 11.5277 10.1299 11.9602 10.9557C11.9732 10.9805 11.9693 11.0107 11.9505 11.0315C11.9317 11.0522 11.902 11.0589 11.876 11.0484L11.156 10.755C11.1365 10.7471 11.1219 10.7304 11.1166 10.71C10.9921 10.2285 10.9167 9.67791 10.8624 9.1763C10.8388 8.95798 10.8193 8.75003 10.8015 8.56063C10.7781 8.31189 10.7578 8.09515 10.7351 7.92898C10.7302 7.89308 10.7549 7.85984 10.7907 7.85413L11.2507 7.7808C11.2693 7.77784 11.2883 7.78288 11.303 7.79468ZM10.8756 7.97561C10.8953 8.13417 10.9139 8.33213 10.9347 8.55315C10.9525 8.74258 10.9719 8.94894 10.995 9.16196C11.0478 9.65062 11.1203 10.1801 11.2375 10.6442L11.7642 10.8588C11.3876 10.0404 11.2629 8.97098 11.199 7.92405L10.8756 7.97561ZM9.96332 7.92422L10.2807 7.97557C10.2642 8.11962 10.2484 8.29398 10.2309 8.48831C10.1742 9.11506 10.0987 9.94943 9.91851 10.6441L9.39289 10.8583C9.77471 10.0392 9.89944 8.96493 9.96332 7.92422Z" fill="black"/>
<path d="M10.5812 10.3133C9.71453 10.3133 9.0812 10.7133 9.04787 11.7533C8.83453 11.38 7.94787 10.22 7.11454 10.3733C6.62121 10.4666 6.18121 11.1533 6.26121 11.9333C5.84788 10.76 4.65455 10.5666 3.77455 11.2666C4.55455 11.9 4.90122 13.7866 5.55455 14.5999H15.6012C16.2545 13.7866 16.6012 11.9 17.3812 11.2666C16.5078 10.5666 15.3078 10.76 14.9012 11.9333C14.9678 11.1533 14.5345 10.4666 14.0345 10.3733C13.2078 10.22 12.3212 11.38 12.1079 11.7533C12.0745 10.72 11.4412 10.3133 10.5745 10.3133H10.5812Z" fill="#FFD83D"/>
<path fill-rule="evenodd" clip-rule="evenodd" d="M10.5733 10.2466C10.5737 10.2466 10.5741 10.2466 10.5745 10.2466H10.5812M10.5824 10.2466C11.0219 10.2479 11.4116 10.3519 11.6969 10.5951C11.9471 10.8083 12.1097 11.1222 12.1596 11.5478C12.301 11.3417 12.5265 11.0601 12.7965 10.8163C13.1505 10.4967 13.6003 10.2249 14.0467 10.3077C14.3219 10.3591 14.5694 10.571 14.738 10.8624C14.861 11.0749 14.9446 11.3336 14.968 11.6138C15.1979 11.1861 15.5521 10.9258 15.951 10.8325C16.4335 10.7198 16.9724 10.8536 17.4229 11.2146C17.4386 11.2272 17.4478 11.2463 17.4478 11.2664C17.4479 11.2866 17.4388 11.3057 17.4232 11.3184C17.238 11.4687 17.0751 11.6966 16.9243 11.9723C16.7739 12.2473 16.6383 12.5649 16.5054 12.8909C16.4741 12.9678 16.4429 13.0453 16.4117 13.1227C16.3112 13.3722 16.2107 13.6215 16.1059 13.8526C15.9687 14.1552 15.8218 14.4317 15.6531 14.6417C15.6405 14.6574 15.6214 14.6666 15.6012 14.6666H5.55455C5.53434 14.6666 5.51523 14.6574 5.50257 14.6417C5.3339 14.4317 5.18699 14.1552 5.04977 13.8526C4.94499 13.6215 4.84454 13.3722 4.74401 13.1227C4.71283 13.0452 4.68164 12.9678 4.65031 12.8909C4.51747 12.5649 4.3818 12.2473 4.23137 11.9723C4.08064 11.6966 3.9177 11.4687 3.73253 11.3184C3.71685 11.3056 3.70779 11.2865 3.70789 11.2663C3.70799 11.2461 3.71724 11.227 3.73305 11.2144C4.18665 10.8536 4.72546 10.7198 5.20805 10.8325C5.60552 10.9254 5.95851 11.1842 6.19032 11.609C6.21122 11.3306 6.29352 11.0737 6.4151 10.8625C6.58284 10.5711 6.83024 10.3592 7.10215 10.3078C7.5517 10.2251 8.00339 10.4966 8.35832 10.8163C8.62892 11.06 8.85451 11.3416 8.99603 11.5476C9.04579 11.1194 9.20835 10.8052 9.45888 10.5925C9.7443 10.3501 10.134 10.2478 10.5733 10.2466M10.5778 10.38C10.1551 10.3805 9.79905 10.4785 9.54518 10.6941C9.29218 10.909 9.13072 11.2491 9.1145 11.7554C9.11354 11.7852 9.09289 11.8108 9.06394 11.818C9.03499 11.8252 9.00478 11.8123 8.98998 11.7864C8.8865 11.6053 8.61584 11.2277 8.26908 10.9153C7.91906 10.6001 7.51049 10.3683 7.12676 10.4388C6.9054 10.4808 6.6862 10.6588 6.53065 10.9291C6.37589 11.1979 6.28897 11.5506 6.32753 11.9265C6.33097 11.9601 6.30875 11.991 6.27579 11.9983C6.24283 12.0057 6.20955 11.9873 6.19833 11.9554C5.99847 11.3881 5.61341 11.0642 5.17771 10.9624C4.76203 10.8652 4.29176 10.9683 3.88011 11.2699C4.05754 11.4332 4.21049 11.6562 4.34835 11.9083C4.50272 12.1905 4.6408 12.5142 4.77379 12.8406C4.8056 12.9187 4.8371 12.9969 4.86847 13.0748C4.96876 13.3237 5.06772 13.5693 5.1712 13.7975C5.30145 14.0847 5.43676 14.3394 5.58687 14.5333H15.5688C15.719 14.3394 15.8543 14.0847 15.9845 13.7975C16.088 13.5693 16.187 13.3237 16.2873 13.0747C16.3186 12.9969 16.3501 12.9187 16.3819 12.8406C16.5149 12.5142 16.653 12.1905 16.8074 11.9083C16.9453 11.6561 17.0983 11.433 17.2758 11.2697C16.8672 10.9683 16.397 10.8652 15.9813 10.9624C15.5456 11.0642 15.1607 11.388 14.9642 11.9551C14.9532 11.9869 14.9202 12.0055 14.8873 11.9985C14.8544 11.9915 14.8319 11.9611 14.8348 11.9276C14.8669 11.5512 14.7783 11.1981 14.6226 10.9292C14.4662 10.6589 14.247 10.4808 14.0223 10.4388M10.5778 10.38C11.0003 10.3805 11.3565 10.4801 11.6104 10.6965C11.8636 10.9123 12.025 11.2526 12.0412 11.7554C12.0422 11.7853 12.0628 11.8108 12.0918 11.818C12.1207 11.8252 12.1509 11.8123 12.1657 11.7864C12.2692 11.6053 12.5399 11.2276 12.8859 10.9153C13.2352 10.5999 13.6421 10.3683 14.0223 10.4388" fill="black"/>
<path d="M15.5878 14.5999C15.5878 14.9733 13.3478 15.3799 10.5812 15.3799C7.81454 15.3799 5.56788 14.9799 5.56788 14.5999C5.56788 14.2333 7.81454 14.0333 10.5812 14.0333C13.3412 14.0333 15.5878 14.2333 15.5878 14.5999Z" fill="#000001"/>
<path fill-rule="evenodd" clip-rule="evenodd" d="M5.69576 14.5131C5.63215 14.5517 5.61788 14.5819 5.61788 14.5999C5.61788 14.6218 5.63491 14.6566 5.6987 14.7017C5.76016 14.7452 5.85385 14.7902 5.97901 14.8351C6.22869 14.9245 6.59255 15.0095 7.04506 15.0831C7.94939 15.2301 9.19997 15.3299 10.5812 15.3299C11.9624 15.3299 13.2113 15.2284 14.1139 15.0806C14.5656 15.0066 14.9287 14.9214 15.1778 14.8322C15.3026 14.7876 15.3961 14.7428 15.4574 14.6997C15.5213 14.6549 15.5378 14.6207 15.5378 14.5999C15.5378 14.5819 15.5236 14.5517 15.46 14.5131C15.399 14.476 15.3056 14.4396 15.1803 14.4049C14.9306 14.3357 14.5668 14.2767 14.1143 14.2288C13.21 14.1333 11.9603 14.0833 10.5812 14.0833C9.19874 14.0833 7.94735 14.1333 7.04229 14.2288C6.58938 14.2767 6.22534 14.3357 5.97549 14.4049C5.85019 14.4396 5.75678 14.476 5.69576 14.5131ZM7.03179 14.1294C7.94173 14.0333 9.19699 13.9833 10.5812 13.9833C11.9621 13.9833 13.2157 14.0333 14.1248 14.1294C14.5789 14.1774 14.9493 14.2371 15.207 14.3085C15.3355 14.3441 15.4392 14.3835 15.5119 14.4276C15.5819 14.4701 15.6378 14.5263 15.6378 14.5999C15.6378 14.6725 15.5844 14.7327 15.5149 14.7816C15.4429 14.8322 15.3398 14.8805 15.2115 14.9264C14.9541 15.0185 14.5843 15.1049 14.1301 15.1793C13.2211 15.3281 11.9667 15.4299 10.5812 15.4299C9.19576 15.4299 7.93968 15.3298 7.02902 15.1818C6.57403 15.1078 6.20331 15.0216 5.94529 14.9292C5.81659 14.8831 5.71315 14.8345 5.64093 14.7834C5.57106 14.7339 5.51788 14.6731 5.51788 14.5999C5.51788 14.5263 5.57382 14.4701 5.64388 14.4276C5.71653 14.3835 5.82026 14.3441 5.9488 14.3085C6.20667 14.2371 6.5772 14.1774 7.03179 14.1294Z" fill="black"/>
<path d="M10.5812 7.85997C10.7101 7.85997 10.8145 7.7555 10.8145 7.62664C10.8145 7.49777 10.7101 7.3933 10.5812 7.3933C10.4523 7.3933 10.3479 7.49777 10.3479 7.62664C10.3479 7.7555 10.4523 7.85997 10.5812 7.85997Z" fill="#FFD83D"/>
<path fill-rule="evenodd" clip-rule="evenodd" d="M10.5812 7.4433C10.4799 7.4433 10.3979 7.52539 10.3979 7.62664C10.3979 7.72789 10.4799 7.80997 10.5812 7.80997C10.6824 7.80997 10.7645 7.72789 10.7645 7.62664C10.7645 7.52539 10.6824 7.4433 10.5812 7.4433ZM10.2979 7.62664C10.2979 7.47016 10.4247 7.34331 10.5812 7.34331C10.7377 7.34331 10.8645 7.47016 10.8645 7.62664C10.8645 7.78312 10.7377 7.90997 10.5812 7.90997C10.4247 7.90997 10.2979 7.78312 10.2979 7.62664Z" fill="black"/>
<path d="M10.5812 8.37997C10.7174 8.37997 10.8279 8.26953 10.8279 8.1333C10.8279 7.99707 10.7174 7.88664 10.5812 7.88664C10.445 7.88664 10.3345 7.99707 10.3345 8.1333C10.3345 8.26953 10.445 8.37997 10.5812 8.37997Z" fill="#FFD83D"/>
<path fill-rule="evenodd" clip-rule="evenodd" d="M10.5812 7.93664C10.4726 7.93664 10.3845 8.02469 10.3845 8.1333C10.3845 8.24192 10.4726 8.32997 10.5812 8.32997C10.6898 8.32997 10.7779 8.24192 10.7779 8.1333C10.7779 8.02469 10.6898 7.93664 10.5812 7.93664ZM10.2845 8.1333C10.2845 7.96946 10.4173 7.83664 10.5812 7.83664C10.745 7.83664 10.8779 7.96946 10.8779 8.1333C10.8779 8.29715 10.745 8.42997 10.5812 8.42997C10.4173 8.42997 10.2845 8.29715 10.2845 8.1333Z" fill="black"/>
<path d="M10.5812 8.9533C10.7321 8.9533 10.8545 8.83092 10.8545 8.67997C10.8545 8.52901 10.7321 8.40663 10.5812 8.40663C10.4302 8.40663 10.3079 8.52901 10.3079 8.67997C10.3079 8.83092 10.4302 8.9533 10.5812 8.9533Z" fill="#FFD83D"/>
<path fill-rule="evenodd" clip-rule="evenodd" d="M10.5812 8.45663C10.4578 8.45663 10.3579 8.55662 10.3579 8.67997C10.3579 8.80331 10.4578 8.9033 10.5812 8.9033C10.7045 8.9033 10.8045 8.80331 10.8045 8.67997C10.8045 8.55662 10.7045 8.45663 10.5812 8.45663ZM10.2579 8.67997C10.2579 8.50139 10.4026 8.35663 10.5812 8.35663C10.7598 8.35663 10.9045 8.50139 10.9045 8.67997C10.9045 8.85854 10.7598 9.0033 10.5812 9.0033C10.4026 9.0033 10.2579 8.85854 10.2579 8.67997Z" fill="black"/>
<path d="M10.5812 9.59996C10.7542 9.59996 10.8945 9.45968 10.8945 9.28663C10.8945 9.11358 10.7542 8.9733 10.5812 8.9733C10.4081 8.9733 10.2679 9.11358 10.2679 9.28663C10.2679 9.45968 10.4081 9.59996 10.5812 9.59996Z" fill="#FFD83D"/>
<path fill-rule="evenodd" clip-rule="evenodd" d="M10.5812 9.0233C10.4358 9.0233 10.3179 9.1412 10.3179 9.28663C10.3179 9.43207 10.4358 9.54996 10.5812 9.54996C10.7266 9.54996 10.8445 9.43207 10.8445 9.28663C10.8445 9.1412 10.7266 9.0233 10.5812 9.0233ZM10.2179 9.28663C10.2179 9.08597 10.3805 8.9233 10.5812 8.9233C10.7819 8.9233 10.9445 9.08597 10.9445 9.28663C10.9445 9.48729 10.7819 9.64996 10.5812 9.64996C10.3805 9.64996 10.2179 9.48729 10.2179 9.28663Z" fill="black"/>
<path d="M10.5812 10.3C10.769 10.3 10.9212 10.1477 10.9212 9.95996C10.9212 9.77218 10.769 9.61996 10.5812 9.61996C10.3934 9.61996 10.2412 9.77218 10.2412 9.95996C10.2412 10.1477 10.3934 10.3 10.5812 10.3Z" fill="#FFD83D"/>
<path fill-rule="evenodd" clip-rule="evenodd" d="M10.5812 9.66996C10.421 9.66996 10.2912 9.7998 10.2912 9.95996C10.2912 10.1201 10.421 10.25 10.5812 10.25C10.7414 10.25 10.8712 10.1201 10.8712 9.95996C10.8712 9.7998 10.7414 9.66996 10.5812 9.66996ZM10.1912 9.95996C10.1912 9.74457 10.3658 9.56996 10.5812 9.56996C10.7966 9.56996 10.9712 9.74457 10.9712 9.95996C10.9712 10.1754 10.7966 10.35 10.5812 10.35C10.3658 10.35 10.1912 10.1754 10.1912 9.95996Z" fill="black"/>
<path d="M10.4479 10.6133C10.4079 10.6133 10.3745 10.6466 10.3812 10.7066L10.4212 10.9933C10.4345 11.0933 10.4879 11.06 10.5079 10.9933C10.5212 10.9133 10.5145 10.86 10.5212 10.72C10.5212 10.6466 10.4812 10.6133 10.4412 10.6133H10.4479ZM10.7145 10.6133C10.6745 10.6133 10.6412 10.6466 10.6412 10.72C10.6412 10.86 10.6412 10.9133 10.6545 10.9866C10.6679 11.0666 10.7212 11.0933 10.7412 10.9866L10.7745 10.7066C10.7879 10.64 10.7479 10.6133 10.7145 10.6133ZM10.2012 10.6533C10.1835 10.6533 10.1666 10.6603 10.1541 10.6728C10.1416 10.6853 10.1345 10.7023 10.1345 10.72C10.1345 10.7866 10.1545 10.8733 10.1612 10.9733C10.1745 11.0733 10.2479 11.04 10.2545 10.9733C10.2545 10.92 10.2679 10.8266 10.2545 10.7133C10.2545 10.6733 10.2412 10.6533 10.2145 10.6466C10.2101 10.6461 10.2056 10.6461 10.2012 10.6466V10.6533ZM10.9412 10.6533C10.9212 10.6533 10.9012 10.6733 10.8945 10.72C10.8909 10.8046 10.8954 10.8895 10.9079 10.9733C10.9079 11.04 10.9879 11.0733 10.9945 10.9733C10.9945 10.8733 11.0212 10.7933 11.0212 10.7266C11.0212 10.6866 10.9879 10.66 10.9545 10.6533C10.9501 10.6527 10.9456 10.6527 10.9412 10.6533ZM9.91453 10.7666C9.88119 10.7733 9.84786 10.8133 9.86119 10.8533C9.88119 10.94 9.90119 11.0333 9.90119 11.12C9.90119 11.1933 9.96119 11.1666 9.96786 11.12C9.97306 11.0312 9.97528 10.9422 9.97453 10.8533C9.97453 10.7866 9.94119 10.76 9.90786 10.7666H9.91453ZM11.2212 10.7666C11.2012 10.7733 11.1812 10.8 11.1812 10.8533L11.1945 11.12C11.1945 11.1666 11.2612 11.1933 11.2612 11.12C11.2612 11.0333 11.2745 10.94 11.2945 10.8533C11.3079 10.8133 11.2745 10.7733 11.2479 10.7666C11.2413 10.7649 11.2344 10.7649 11.2279 10.7666H11.2212ZM7.28787 10.78C7.24787 10.78 7.22121 10.8266 7.24787 10.88C7.28787 10.9733 7.33454 11.0266 7.37454 11.12C7.40787 11.2066 7.46787 11.1533 7.44787 11.0933L7.35454 10.8466C7.33454 10.8 7.30787 10.78 7.28787 10.78ZM13.8745 10.78C13.8478 10.78 13.8278 10.8 13.8078 10.8466C13.7478 10.9733 13.7278 11.0333 13.7078 11.0933C13.6945 11.16 13.7478 11.2066 13.7878 11.12L13.9078 10.88C13.9345 10.8266 13.9078 10.78 13.8745 10.78ZM7.55454 10.78C7.5212 10.7933 7.50787 10.8266 7.5212 10.8666C7.5612 10.9466 7.60787 11.0333 7.6412 11.12C7.66787 11.1933 7.73454 11.1733 7.70787 11.1066L7.6412 10.86C7.61454 10.7933 7.57454 10.7733 7.55454 10.78ZM13.5878 10.78C13.5612 10.7866 13.5345 10.8133 13.5212 10.86C13.4745 10.9933 13.4678 11.0333 13.4478 11.1066C13.4212 11.1733 13.4878 11.1933 13.5145 11.12L13.6345 10.8666C13.6478 10.8266 13.6345 10.7933 13.6078 10.78C13.6013 10.7783 13.5944 10.7783 13.5878 10.78ZM7.88787 10.8466C7.84787 10.8533 7.8212 10.9066 7.84787 10.9733C7.87454 11.0533 7.91454 11.1266 7.95454 11.22C7.99454 11.3133 8.05453 11.2933 8.0412 11.2333C8.0212 11.1733 8.00787 11.08 7.9612 10.9333C7.9412 10.8666 7.91454 10.84 7.88787 10.8466ZM13.2745 10.8466C13.2478 10.8466 13.2145 10.8666 13.1945 10.9333C13.1545 11.08 13.1278 11.1733 13.1212 11.2333C13.1012 11.3 13.1678 11.3133 13.2012 11.22C13.2412 11.1266 13.2812 11.0533 13.3078 10.9733C13.3345 10.9066 13.3078 10.8533 13.2745 10.8466ZM7.06121 10.8933C7.02121 10.8933 6.99454 10.96 7.01454 11.0066C7.04787 11.0733 7.07454 11.1 7.10787 11.18C7.14787 11.26 7.18787 11.2 7.17454 11.1466C7.15454 11.0933 7.13454 11.0333 7.12121 10.96C7.10787 10.9066 7.08121 10.8933 7.05454 10.8933H7.06121ZM14.1012 10.8933C14.0745 10.8933 14.0545 10.9066 14.0345 10.96L13.9878 11.1466C13.9745 11.2 14.0145 11.26 14.0545 11.18C14.0878 11.1 14.1078 11.08 14.1478 11.0066C14.1678 10.96 14.1345 10.9 14.1012 10.8933ZM9.63453 11.08C9.58786 11.08 9.54786 11.1333 9.56786 11.18C9.5812 11.26 9.6212 11.3266 9.6412 11.4266C9.66786 11.5133 9.72786 11.4733 9.7212 11.4133C9.71635 11.3237 9.70521 11.2346 9.68786 11.1466C9.67453 11.1 9.65453 11.08 9.62786 11.08H9.63453ZM11.5279 11.08C11.5079 11.08 11.4812 11.1 11.4745 11.1466C11.4549 11.2345 11.4416 11.3236 11.4345 11.4133C11.4345 11.4733 11.4945 11.5133 11.5145 11.4266L11.5945 11.18C11.6079 11.1333 11.5679 11.08 11.5279 11.08ZM10.5812 11.16C10.5279 11.16 10.5212 11.2266 10.5212 11.2733C10.5171 11.4251 10.471 11.5728 10.3879 11.7C10.3212 11.78 10.2345 11.76 10.1545 11.7133C10.077 11.671 10.0034 11.6219 9.93453 11.5666C9.8412 11.5 9.77453 11.54 9.8812 11.6933C10.1879 12.1333 10.5212 12.5066 10.5212 13.2266C10.5212 13.3133 10.5412 13.3399 10.5812 13.3399C10.6212 13.3399 10.6345 13.3133 10.6345 13.2199C10.6345 12.5066 10.9679 12.1333 11.2745 11.6866C11.3812 11.54 11.3145 11.5 11.2279 11.5666C11.1593 11.6223 11.0857 11.6714 11.0079 11.7133C10.9212 11.76 10.8345 11.78 10.7745 11.7C10.6914 11.5728 10.6453 11.4251 10.6412 11.2733C10.6345 11.2266 10.6279 11.16 10.5745 11.16H10.5812ZM8.22787 11.0533C8.22345 11.0525 8.21895 11.0525 8.21453 11.0533C8.19453 11.06 8.18787 11.08 8.19453 11.12L8.26787 11.38C8.28787 11.4466 8.3612 11.4266 8.34787 11.3466L8.30787 11.14C8.29453 11.0866 8.25453 11.0533 8.22787 11.0533ZM12.9345 11.0533C12.9012 11.0533 12.8679 11.0866 12.8545 11.14C12.8279 11.2333 12.8279 11.26 12.8145 11.34C12.7945 11.4266 12.8745 11.44 12.8878 11.38L12.9678 11.1133C12.9678 11.08 12.9612 11.06 12.9412 11.0533C12.9368 11.0525 12.9323 11.0525 12.9278 11.0533H12.9345ZM6.82787 11.08C6.78787 11.08 6.76121 11.1333 6.80121 11.2C6.84121 11.28 6.91454 11.3733 6.94787 11.4333C6.98121 11.4866 7.04121 11.4466 7.00121 11.38C6.96121 11.3133 6.94787 11.2266 6.89454 11.1266C6.89014 11.1126 6.88121 11.1004 6.86915 11.0919C6.85709 11.0835 6.84258 11.0793 6.82787 11.08ZM14.3278 11.08C14.3078 11.08 14.2812 11.0933 14.2612 11.1266C14.2145 11.2266 14.1945 11.3066 14.1612 11.38C14.1212 11.4466 14.1745 11.4866 14.2078 11.4333C14.2412 11.3733 14.3145 11.28 14.3545 11.2C14.3945 11.1333 14.3678 11.08 14.3278 11.08ZM4.71455 11.3C4.67455 11.3 4.66122 11.38 4.70122 11.4333C4.75298 11.4988 4.81104 11.5591 4.87455 11.6133C4.92788 11.6666 4.94121 11.6 4.91455 11.5466L4.79455 11.3666C4.76121 11.32 4.73455 11.3 4.71455 11.3ZM16.4412 11.3C16.4212 11.3 16.3945 11.32 16.3678 11.3666L16.2412 11.5466C16.2145 11.6 16.2278 11.6666 16.2878 11.6133C16.3514 11.5591 16.4095 11.4989 16.4612 11.4333C16.5012 11.38 16.4878 11.3 16.4412 11.3ZM5.05455 11.3666C5.01455 11.3666 4.98788 11.3933 5.02121 11.4533L5.14788 11.7066C5.18121 11.7733 5.28121 11.7933 5.24121 11.6933L5.15455 11.44C5.13455 11.3933 5.08788 11.3733 5.05455 11.3733V11.3666ZM16.1078 11.3666C16.0678 11.3666 16.0212 11.3933 16.0012 11.44L15.9212 11.6933C15.8812 11.7933 15.9812 11.7733 16.0145 11.7066C16.0478 11.64 16.1012 11.54 16.1345 11.4533C16.1678 11.3933 16.1412 11.3666 16.1078 11.3666ZM4.40122 11.3933C4.34788 11.3933 4.34788 11.44 4.39455 11.4733C4.45455 11.52 4.52788 11.5666 4.59455 11.6266C4.68122 11.6933 4.70788 11.6266 4.66122 11.5733C4.62122 11.52 4.58122 11.4666 4.46788 11.4066C4.44122 11.3933 4.42122 11.3933 4.40122 11.3933ZM16.7545 11.3933C16.7412 11.3933 16.7145 11.3933 16.6878 11.4066C16.5812 11.4666 16.5345 11.52 16.4878 11.5733C16.4478 11.6333 16.4812 11.6933 16.5612 11.6266C16.6278 11.5666 16.7078 11.52 16.7612 11.4733C16.8145 11.44 16.8078 11.3933 16.7612 11.3933H16.7545ZM9.44786 11.44C9.41453 11.44 9.39453 11.4733 9.4012 11.52L9.46786 11.76C9.4812 11.8333 9.56786 11.8333 9.55453 11.76C9.5412 11.6933 9.53453 11.6066 9.50786 11.5C9.5012 11.46 9.4812 11.44 9.45453 11.4333C9.45231 11.4331 9.45008 11.4331 9.44786 11.4333V11.44ZM11.7012 11.44C11.6812 11.44 11.6612 11.46 11.6479 11.5066C11.6212 11.6066 11.6145 11.6933 11.6012 11.7666C11.5879 11.8333 11.6745 11.8333 11.6879 11.76L11.7545 11.52C11.7679 11.4733 11.7412 11.44 11.7145 11.44C11.7101 11.4392 11.7056 11.4392 11.7012 11.44ZM7.43454 11.3066C7.41454 11.3066 7.40121 11.3533 7.42121 11.42C7.49192 11.6121 7.52803 11.8152 7.52787 12.02C7.50787 12.1 7.4612 12.1066 7.4012 12.0866C7.3358 12.0543 7.27334 12.0164 7.21454 11.9733C7.16121 11.94 7.10121 11.98 7.18121 12.0466C7.5812 12.38 7.86787 12.7599 7.9812 13.2199C7.99454 13.3133 8.05453 13.3266 8.0412 13.2199C7.94787 12.64 7.92787 12.16 8.06787 11.8666C8.1212 11.7533 8.06787 11.6466 7.98787 11.8266C7.92787 11.9466 7.8412 11.9933 7.76787 11.8933C7.66363 11.7306 7.57438 11.5588 7.5012 11.38C7.48787 11.3333 7.46787 11.3133 7.44787 11.3066C7.44566 11.3062 7.44341 11.3062 7.4412 11.3066H7.43454ZM13.7078 11.3066C13.6878 11.3066 13.6678 11.3333 13.6545 11.3733C13.6078 11.5066 13.4612 11.7866 13.3878 11.8933C13.3145 12 13.2278 11.9466 13.1745 11.8266C13.0878 11.6466 13.0412 11.7533 13.0878 11.8666C13.2278 12.16 13.2078 12.64 13.1212 13.2199C13.1012 13.3266 13.1612 13.3133 13.1878 13.2199C13.3112 12.7517 13.5882 12.3385 13.9745 12.0466C14.0545 11.98 13.9945 11.94 13.9412 11.98C13.882 12.0187 13.8196 12.0522 13.7545 12.08C13.6878 12.1066 13.6478 12.1 13.6278 12.0133C13.6145 11.9333 13.6412 11.7533 13.7412 11.4133C13.7545 11.36 13.7412 11.3133 13.7212 11.3066C13.7169 11.3051 13.7122 11.3051 13.7078 11.3066ZM5.40788 11.4666C5.37455 11.4666 5.34121 11.4933 5.36121 11.5466C5.38788 11.64 5.44121 11.7333 5.46121 11.7866C5.48121 11.8466 5.54121 11.82 5.52788 11.74L5.49455 11.5333C5.49455 11.4933 5.44788 11.4666 5.40788 11.4666ZM15.7478 11.4666C15.7078 11.4666 15.6678 11.4933 15.6612 11.5333L15.6345 11.74C15.6212 11.82 15.6812 11.8466 15.7012 11.7866C15.7145 11.7333 15.7678 11.64 15.7945 11.5466C15.8145 11.4933 15.7878 11.4666 15.7478 11.4666ZM6.66121 11.3533C6.62121 11.3466 6.61454 11.4533 6.64787 11.5L6.83454 11.7066C6.88787 11.7733 6.92121 11.7133 6.88787 11.66L6.71454 11.4066C6.69454 11.3733 6.67454 11.3533 6.66121 11.3533ZM14.4945 11.3533C14.4812 11.3533 14.4612 11.3733 14.4412 11.4066L14.2678 11.66C14.2345 11.7133 14.2678 11.7733 14.3278 11.7066L14.5078 11.5C14.5412 11.4533 14.5412 11.3466 14.4945 11.3533ZM5.69454 11.62C5.66788 11.62 5.64788 11.6333 5.66121 11.6866C5.67454 11.7666 5.69454 11.82 5.71454 11.8933C5.73454 11.96 5.78121 11.9533 5.78121 11.8866L5.76121 11.6733C5.75831 11.6573 5.75018 11.6428 5.73812 11.6319C5.72606 11.621 5.71073 11.6145 5.69454 11.6133V11.62ZM15.4612 11.62C15.4456 11.6196 15.4304 11.6248 15.4182 11.6345C15.406 11.6443 15.3976 11.658 15.3945 11.6733L15.3745 11.8866C15.3745 11.9533 15.4278 11.9666 15.4412 11.8933L15.5012 11.6933C15.5145 11.6333 15.4878 11.6133 15.4612 11.6133V11.62ZM6.56787 11.7133C6.52787 11.7133 6.49454 11.76 6.54121 11.82C6.61454 11.92 6.70121 11.9866 6.73454 12.02C6.76121 12.06 6.83454 12.0466 6.78787 11.9733L6.63454 11.74C6.62121 11.7133 6.59454 11.7066 6.56787 11.7133ZM14.5678 11.7133C14.5545 11.7133 14.5345 11.72 14.5278 11.74L14.3678 11.9733C14.3212 12.0466 14.3945 12.06 14.4278 12.0266C14.4545 11.9866 14.5412 11.92 14.6212 11.82C14.6678 11.7533 14.6278 11.7133 14.5878 11.7133C14.5834 11.7128 14.5789 11.7128 14.5745 11.7133H14.5678ZM5.18788 11.9866C5.16121 11.9866 5.14788 12.0133 5.18788 12.0733C5.29084 12.1982 5.36585 12.3437 5.40788 12.5C5.41455 12.5933 5.37455 12.5933 5.33455 12.5933C5.20788 12.5933 5.14788 12.5 5.04121 12.4733C4.92788 12.4533 4.90788 12.5066 4.98788 12.5666C5.37 12.8083 5.7026 13.1205 5.96788 13.4866C6.03454 13.6133 6.12121 13.6533 6.07454 13.5399C5.94501 13.28 5.88965 12.9893 5.91454 12.7C5.94788 12.5133 5.99454 12.3933 5.98788 12.2866C5.98788 12.1866 5.92121 12.1933 5.90121 12.2866L5.83454 12.4733C5.80788 12.5066 5.71455 12.5266 5.63455 12.4133C5.52117 12.2742 5.39628 12.1448 5.26121 12.0266C5.24121 12.0066 5.21455 11.9933 5.19455 11.9866H5.18788ZM15.9678 11.9866C15.9478 11.9866 15.9212 12 15.8945 12.0266C15.7618 12.1451 15.6391 12.2745 15.5278 12.4133C15.4412 12.5266 15.3478 12.5066 15.3278 12.48C15.2974 12.4186 15.275 12.3537 15.2612 12.2866C15.2345 12.1933 15.1745 12.1866 15.1678 12.2866C15.1678 12.3933 15.2078 12.5133 15.2412 12.7C15.2745 12.8866 15.2412 13.1799 15.0878 13.5399C15.0345 13.6533 15.1278 13.6066 15.1945 13.4866C15.4573 13.1207 15.7877 12.8084 16.1678 12.5666C16.2478 12.5066 16.2345 12.4533 16.1212 12.4733C16.0078 12.5 15.9478 12.5933 15.8278 12.5933C15.7878 12.5933 15.7412 12.5933 15.7478 12.5C15.7545 12.4133 15.8678 12.2066 15.9678 12.0733C16.0078 12.0066 16.0012 11.9866 15.9678 11.9866Z" fill="#000001"/>
<path fill-rule="evenodd" clip-rule="evenodd" d="M10.5812 13.6499C10.6088 13.6499 10.6312 13.6723 10.6312 13.6999V14.1799C10.6312 14.2076 10.6088 14.2299 10.5812 14.2299C10.5536 14.2299 10.5312 14.2076 10.5312 14.1799V13.6999C10.5312 13.6723 10.5536 13.6499 10.5812 13.6499ZM10.0789 13.6833C10.1065 13.6821 10.1299 13.7034 10.1311 13.731L10.1511 14.1643C10.1524 14.1919 10.1311 14.2153 10.1035 14.2166C10.0759 14.2178 10.0525 14.1965 10.0512 14.1689L10.0312 13.7356C10.03 13.708 10.0513 13.6846 10.0789 13.6833ZM11.0761 13.6833C11.1037 13.6842 11.1253 13.7072 11.1245 13.7348L11.1112 14.1681C11.1103 14.1958 11.0873 14.2174 11.0597 14.2166C11.0321 14.2157 11.0104 14.1927 11.0112 14.1651L11.0245 13.7317C11.0254 13.7041 11.0485 13.6825 11.0761 13.6833ZM9.67885 13.6967C9.70644 13.6954 9.72985 13.7167 9.73114 13.7443L9.75114 14.1709C9.75243 14.1985 9.73112 14.2219 9.70354 14.2232C9.67595 14.2245 9.65254 14.2032 9.65125 14.1756L9.63125 13.749C9.62996 13.7214 9.65127 13.698 9.67885 13.6967ZM11.4761 13.6966C11.5037 13.6975 11.5254 13.7206 11.5245 13.7482L11.5112 14.1748C11.5103 14.2024 11.4872 14.2241 11.4596 14.2233C11.432 14.2224 11.4104 14.1993 11.4112 14.1717L11.4245 13.7451C11.4254 13.7175 11.4485 13.6958 11.4761 13.6966ZM9.33223 13.7167C9.35981 13.7154 9.3832 13.7367 9.38448 13.7643L9.40448 14.1976C9.40575 14.2252 9.38442 14.2486 9.35684 14.2499C9.32925 14.2512 9.30586 14.2298 9.30458 14.2022L9.28458 13.7689C9.28331 13.7413 9.30464 13.7179 9.33223 13.7167ZM11.8302 13.7167C11.8577 13.7179 11.8791 13.7413 11.8778 13.7689L11.8578 14.2022C11.8565 14.2298 11.8331 14.2512 11.8055 14.2499C11.778 14.2486 11.7566 14.2252 11.7579 14.1976L11.7779 13.7643C11.7792 13.7367 11.8026 13.7154 11.8302 13.7167ZM8.65736 13.7368C8.6849 13.7346 8.70893 13.7552 8.71105 13.7828L8.74439 14.2161C8.7465 14.2436 8.7259 14.2677 8.69837 14.2698C8.67084 14.2719 8.6468 14.2513 8.64468 14.2238L8.61135 13.7904C8.60923 13.7629 8.62983 13.7389 8.65736 13.7368ZM12.4984 13.7368C12.5259 13.7389 12.5465 13.7629 12.5444 13.7904L12.511 14.2238C12.5089 14.2513 12.4849 14.2719 12.4573 14.2698C12.4298 14.2677 12.4092 14.2436 12.4113 14.2161L12.4447 13.7828C12.4468 13.7552 12.4708 13.7346 12.4984 13.7368ZM9.01146 13.7367C9.03902 13.735 9.06274 13.756 9.06444 13.7835L9.0911 14.2169C9.0928 14.2444 9.07183 14.2682 9.04427 14.2698C9.01671 14.2715 8.99299 14.2506 8.99129 14.223L8.96463 13.7897C8.96293 13.7621 8.9839 13.7384 9.01146 13.7367ZM12.1443 13.7367C12.1718 13.7384 12.1928 13.7621 12.1911 13.7897L12.1644 14.223C12.1627 14.2506 12.139 14.2715 12.1114 14.2698C12.0839 14.2682 12.0629 14.2444 12.0646 14.2169L12.0913 13.7835C12.093 13.756 12.1167 13.735 12.1443 13.7367ZM12.8281 13.7771C12.8555 13.7809 12.8745 13.8062 12.8707 13.8336L12.8107 14.2602C12.8069 14.2876 12.7816 14.3066 12.7542 14.3028C12.7269 14.2989 12.7078 14.2737 12.7117 14.2463L12.7717 13.8196C12.7755 13.7923 12.8008 13.7733 12.8281 13.7771ZM8.335 13.777C8.3624 13.7736 8.38739 13.793 8.39081 13.8204L8.44415 14.2471C8.44757 14.2745 8.42814 14.2995 8.40074 14.3029C8.37333 14.3063 8.34835 14.2869 8.34492 14.2595L8.29159 13.8328C8.28816 13.8054 8.3076 13.7804 8.335 13.777ZM7.675 13.797C7.7024 13.7936 7.72739 13.813 7.73082 13.8404L7.78415 14.2671C7.78758 14.2945 7.76814 14.3195 7.74074 14.3229C7.71334 14.3263 7.68835 14.3069 7.68492 14.2795L7.63159 13.8528C7.62816 13.8254 7.6476 13.8004 7.675 13.797ZM13.4874 13.797C13.5148 13.8004 13.5342 13.8254 13.5308 13.8528L13.4775 14.2795C13.474 14.3069 13.449 14.3263 13.4216 14.3229C13.3942 14.3195 13.3748 14.2945 13.3782 14.2671L13.4316 13.8404C13.435 13.813 13.46 13.7936 13.4874 13.797ZM13.1474 13.817C13.1748 13.8204 13.1942 13.8454 13.1908 13.8728L13.1375 14.2995C13.134 14.3269 13.109 14.3463 13.0816 14.3429C13.0542 14.3395 13.0348 14.3145 13.0382 14.2871L13.0916 13.8604C13.095 13.833 13.12 13.8136 13.1474 13.817ZM8.00833 13.817C8.03574 13.8136 8.06072 13.833 8.06415 13.8604L8.11748 14.2871C8.12091 14.3145 8.10147 14.3395 8.07407 14.3429C8.04667 14.3463 8.02168 14.3269 8.01826 14.2995L7.96492 13.8728C7.9615 13.8454 7.98093 13.8204 8.00833 13.817ZM7.31261 13.9174C7.33981 13.9126 7.36571 13.9308 7.37046 13.958L7.44379 14.378C7.44854 14.4052 7.43034 14.4311 7.40314 14.4359C7.37594 14.4406 7.35003 14.4224 7.34528 14.3952L7.27195 13.9752C7.2672 13.948 7.2854 13.9221 7.31261 13.9174ZM13.843 13.9173C13.8702 13.922 13.8885 13.9479 13.8838 13.9751L13.8105 14.4017C13.8058 14.429 13.7799 14.4472 13.7527 14.4426C13.7255 14.4379 13.7072 14.412 13.7119 14.3848L13.7852 13.9581C13.7899 13.9309 13.8158 13.9127 13.843 13.9173ZM6.94682 13.9172C6.9741 13.9129 6.99968 13.9316 7.00394 13.9589L7.07061 14.3856C7.07487 14.4128 7.05621 14.4384 7.02893 14.4427C7.00164 14.4469 6.97607 14.4283 6.97181 14.401L6.90514 13.9743C6.90088 13.947 6.91954 13.9215 6.94682 13.9172ZM14.2022 13.9172C14.2295 13.9215 14.2482 13.947 14.2439 13.9743L14.1772 14.401C14.173 14.4283 14.1474 14.4469 14.1201 14.4427C14.0928 14.4384 14.0742 14.4128 14.0784 14.3856L14.1451 13.9589C14.1494 13.9316 14.1749 13.9129 14.2022 13.9172ZM6.60444 13.951C6.63148 13.9454 6.65793 13.9628 6.66351 13.9898L6.75018 14.4098C6.75576 14.4369 6.73836 14.4633 6.71131 14.4689C6.68427 14.4745 6.65782 14.4571 6.65224 14.43L6.56557 14.01C6.55999 13.983 6.57739 13.9566 6.60444 13.951ZM14.5579 13.951C14.585 13.9566 14.6024 13.983 14.5968 14.01L14.5101 14.43C14.5046 14.4571 14.4781 14.4745 14.4511 14.4689C14.424 14.4633 14.4066 14.4369 14.4122 14.4098L14.4989 13.9898C14.5045 13.9628 14.5309 13.9454 14.5579 13.951ZM6.33866 13.9975C6.3658 13.9924 6.39193 14.0103 6.39702 14.0374L6.47702 14.4641C6.48211 14.4912 6.46423 14.5173 6.43709 14.5224C6.40995 14.5275 6.38382 14.5096 6.37873 14.4825L6.29873 14.0558C6.29364 14.0287 6.31152 14.0026 6.33866 13.9975ZM14.8237 13.9975C14.8509 14.0026 14.8687 14.0287 14.8637 14.0558L14.7837 14.4825C14.7786 14.5096 14.7524 14.5275 14.7253 14.5224C14.6982 14.5173 14.6803 14.4912 14.6854 14.4641L14.7654 14.0374C14.7705 14.0103 14.7966 13.9924 14.8237 13.9975ZM6.0406 14.0519C6.06712 14.0442 6.09486 14.0595 6.10256 14.086L6.22256 14.4993C6.23026 14.5259 6.215 14.5536 6.18848 14.5613C6.16196 14.569 6.13422 14.5537 6.12653 14.5272L6.00653 14.1139C5.99883 14.0874 6.01408 14.0596 6.0406 14.0519ZM15.1144 14.0517C15.141 14.059 15.1567 14.0865 15.1494 14.1132L15.0361 14.5265C15.0288 14.5531 15.0013 14.5688 14.9746 14.5615C14.948 14.5542 14.9323 14.5267 14.9396 14.5001L15.053 14.0867C15.0603 14.0601 15.0878 14.0444 15.1144 14.0517ZM5.7723 14.1324C5.79854 14.1238 5.82679 14.1381 5.83539 14.1644L5.96872 14.571C5.97733 14.5973 5.96303 14.6255 5.93679 14.6341C5.91055 14.6427 5.8823 14.6284 5.8737 14.6022L5.74037 14.1955C5.73176 14.1693 5.74606 14.141 5.7723 14.1324ZM15.3834 14.1324C15.4097 14.141 15.424 14.1693 15.4153 14.1955L15.282 14.6022C15.2734 14.6284 15.2452 14.6427 15.2189 14.6341C15.1927 14.6255 15.1784 14.5973 15.187 14.571L15.3203 14.1644C15.3289 14.1381 15.3572 14.1238 15.3834 14.1324Z" fill="black"/>
</g>
<defs>
<clipPath id="clip0_17544_64483">
<path d="M0 20C0 8.95431 8.95431 0 20 0C31.0457 0 40 8.95431 40 20C40 31.0457 31.0457 40 20 40C8.95431 40 0 31.0457 0 20Z" fill="white"/>
</clipPath>
</defs>
</svg>
