<svg width="40" height="40" viewBox="0 0 40 40" fill="none" xmlns="http://www.w3.org/2000/svg">
<g clip-path="url(#clip0_17522_60693)">
<path d="M0 0H40V2.85938H0V0Z" fill="#CC0000"/>
<path d="M0 2.85938H40V5.70312H0V2.85938Z" fill="white"/>
<path d="M0 5.71094H40V8.57031H0V5.71094Z" fill="#CC0000"/>
<path d="M0 8.57031H40V11.4297H0V8.57031Z" fill="white"/>
<path d="M0 11.4297H40V14.2891H0V11.4297Z" fill="#CC0000"/>
<path d="M0 14.2891H40V17.1406H0V14.2891Z" fill="white"/>
<path d="M0 17.1406H40V20H0V17.1406Z" fill="#CC0000"/>
<path d="M0 20H40V22.8594H0V20Z" fill="white"/>
<path d="M0 22.8594H40V25.7031H0V22.8594Z" fill="#CC0000"/>
<path d="M0 25.7109H40V28.5703H0V25.7109Z" fill="white"/>
<path d="M0 28.5703H40V31.4297H0V28.5703Z" fill="#CC0000"/>
<path d="M0 31.4297H40V34.2891H0V31.4297Z" fill="white"/>
<path d="M0 34.2891H40V37.1406H0V34.2891Z" fill="#CC0000"/>
<path d="M0 37.1406H40V40H0V37.1406Z" fill="white"/>
<path d="M0 0H20V22.8594H0V0Z" fill="#000066"/>
<path d="M12.9688 7.26562L13.3438 9.80469L14.7812 7.67969L14 10.125L16.2266 8.82812L14.4688 10.7031L17.0312 10.5L14.6328 11.4297L17.0312 12.3438L14.4688 12.1484L16.2266 14.0234L14.0078 12.7188L14.7734 15.1797L13.3359 13.0469L12.9609 15.5859L12.5938 13.0469L11.1562 15.1719L11.9297 12.7188L9.71094 14.0234L11.4609 12.1484L8.89844 12.3438L11.2969 11.4219L8.90625 10.4922L11.4688 10.6953L9.71094 8.82031L11.9297 10.1172L11.1484 7.66406L12.5938 9.79688L12.9688 7.25V7.26562ZM10.8828 7.36719C9.8616 6.91603 8.70801 6.86566 7.65135 7.22608C6.59469 7.5865 5.71234 8.33132 5.17969 9.3125C4.82755 9.96318 4.6434 10.6915 4.6439 11.4313C4.64441 12.1712 4.82958 12.8992 5.18261 13.5494C5.53563 14.1996 6.04536 14.7514 6.66558 15.1547C7.2858 15.5581 7.99688 15.8003 8.73438 15.8594C9.4699 15.9172 10.2082 15.791 10.8828 15.4922C10.1356 16.0283 9.25512 16.3479 8.33805 16.416C7.42099 16.484 6.50292 16.2979 5.68481 15.8779C4.8667 15.458 4.18024 14.8206 3.70092 14.0358C3.22161 13.251 2.96801 12.3493 2.96801 11.4297C2.96801 10.5101 3.22161 9.60833 3.70092 8.82354C4.18024 8.03875 4.8667 7.40135 5.68481 6.98143C6.50292 6.56151 7.42099 6.37534 8.33805 6.4434C9.25512 6.51146 10.1356 6.83111 10.8828 7.36719Z" fill="#FFCC00"/>
</g>
<defs>
<clipPath id="clip0_17522_60693">
<path d="M0 4C0 1.79086 1.79086 0 4 0H36C38.2091 0 40 1.79086 40 4V36C40 38.2091 38.2091 40 36 40H4C1.79086 40 0 38.2091 0 36V4Z" fill="white"/>
</clipPath>
</defs>
</svg>
