<svg width="40" height="40" viewBox="0 0 40 40" fill="none" xmlns="http://www.w3.org/2000/svg">
<g clip-path="url(#clip0_17522_60690)">
<path d="M0 0H40V40H0V0Z" fill="#D21034"/>
<path d="M10 10H30V30H10V10Z" fill="#007E3A"/>
<path d="M22.5 26.6641C26.1805 26.6641 29.1641 23.6805 29.1641 20C29.1641 16.3195 26.1805 13.3359 22.5 13.3359C18.8195 13.3359 15.8359 16.3195 15.8359 20C15.8359 23.6805 18.8195 26.6641 22.5 26.6641Z" fill="white"/>
<path d="M24.1094 26.6641C27.298 26.6641 29.8828 23.6805 29.8828 20C29.8828 16.3195 27.298 13.3359 24.1094 13.3359C20.9208 13.3359 18.3359 16.3195 18.3359 20C18.3359 23.6805 20.9208 26.6641 24.1094 26.6641Z" fill="#007E3A"/>
</g>
<defs>
<clipPath id="clip0_17522_60690">
<path d="M0 4C0 1.79086 1.79086 0 4 0H36C38.2091 0 40 1.79086 40 4V36C40 38.2091 38.2091 40 36 40H4C1.79086 40 0 38.2091 0 36V4Z" fill="white"/>
</clipPath>
</defs>
</svg>
