<svg width="40" height="40" viewBox="0 0 40 40" fill="none" xmlns="http://www.w3.org/2000/svg">
<g clip-path="url(#clip0_17522_60686)">
<path d="M0 0H40V40H0V0Z" fill="#CD2A3E"/>
<path d="M0 6H40V34H0V6Z" fill="#006233"/>
<path d="M32.5 12.8828C32.5 16.198 31.183 19.3774 28.8388 21.7216C26.4946 24.0659 23.3152 25.3828 20 25.3828C16.6848 25.3828 13.5054 24.0659 11.1612 21.7216C8.81696 19.3774 7.5 16.198 7.5 12.8828C7.22052 13.9489 7.07874 15.0463 7.07812 16.1484C7.0757 17.9855 7.46501 19.8019 8.22008 21.4766C8.97514 23.1513 10.0786 24.6458 11.4569 25.8603C12.8352 27.0749 14.4566 27.9816 16.213 28.52C17.9694 29.0583 19.8203 29.216 21.6425 28.9825C23.4646 28.749 25.2161 28.1297 26.7799 27.1658C28.3438 26.2019 29.6842 24.9157 30.7117 23.3928C31.7392 21.87 32.4301 20.1456 32.7385 18.3346C33.0469 16.5236 32.9656 14.6677 32.5 12.8906V12.8828Z" fill="#FFC400"/>
<path d="M20 7.8125L18.875 11.2734H15.2422L18.1797 13.4062L17.0625 16.8594L20 14.7266L22.9375 16.8594L21.8125 13.4062L24.7578 11.2734H21.125L20 7.8125Z" fill="#FFC400"/>
</g>
<defs>
<clipPath id="clip0_17522_60686">
<path d="M0 4C0 1.79086 1.79086 0 4 0H36C38.2091 0 40 1.79086 40 4V36C40 38.2091 38.2091 40 36 40H4C1.79086 40 0 38.2091 0 36V4Z" fill="white"/>
</clipPath>
</defs>
</svg>
