<svg width="40" height="40" viewBox="0 0 40 40" fill="none" xmlns="http://www.w3.org/2000/svg">
<g clip-path="url(#clip0_17522_60687)">
<path d="M0.015625 0H40.0156V40H0.015625V0Z" fill="#012169"/>
<path d="M38.0469 9.92188L38.0234 21.3516C38.1562 25.9375 35.2891 28.7891 30.0312 30.0781C26.2891 29.1406 21.9766 27.2266 21.9688 21.4844L21.9922 9.92188H38.0469Z" fill="white"/>
<path d="M22.3516 10.2656H37.6953L37.6797 21.2188C37.8047 25.6172 35.0703 28.3438 30.0391 29.5781C26.4609 28.6875 22.3359 26.8438 22.3359 21.3438L22.3516 10.2656Z" fill="#00A2BD"/>
<path fill-rule="evenodd" clip-rule="evenodd" d="M22.2813 10.1953H37.7657L37.75 21.2178C37.8127 23.4329 37.155 25.2325 35.8443 26.633C34.5349 28.0321 32.5793 29.0273 30.0558 29.6464L30.0389 29.6506L30.0221 29.6464C28.2297 29.2002 26.2911 28.5134 24.8001 27.243C23.3059 25.9698 22.2656 24.1143 22.2656 21.3438L22.2813 10.1953ZM22.4218 10.3359L22.4062 21.3438C22.4062 24.0732 23.4285 25.8896 24.8913 27.1359C26.3527 28.3811 28.2583 29.0611 30.0392 29.5057C32.5387 28.8902 34.4601 27.9062 35.7416 26.5369C37.0245 25.1662 37.6714 23.4036 37.6094 21.2207L37.6094 21.2197L37.6249 10.3359H22.4218Z" fill="black"/>
<path d="M37.5781 22.5156C37.0156 26.7109 33.7812 28.5469 30.0312 29.5234C26.7188 28.6328 23.1562 27.2109 22.4531 22.5312L37.5781 22.5156Z" fill="#A53D08"/>
<path d="M29.4297 12.3047L29.4062 10.9297L30.5 10.9375L30.5078 12.3047H33.4922L33.5 13.375L30.5078 13.3906L30.4844 26L29.4219 26.0078L29.4062 13.375L26.4375 13.3906V12.2969L29.4297 12.3047Z" fill="black"/>
<path fill-rule="evenodd" clip-rule="evenodd" d="M27.0156 23.0312L29.75 25.8672C30.6875 24.8281 30.0312 20.9453 28.7891 20.2344C28.6406 20.6953 28.3906 21.25 28.1172 21.4219C27.5234 21.8281 26.0781 22.2969 26.5547 22.5938C26.6719 22.4453 26.9609 22.3047 27.1016 22.6406C27.2578 23.1797 26.4922 23.2109 26.4922 23.2109C26.4922 23.2109 26.0078 23.1484 25.9219 22.6641C25.8437 22.1641 26.6484 21.7109 26.7109 21.6797C26.7891 21.6562 27.8359 21.3672 28.0156 20.4375C28.2344 19.5156 28.4688 19.6562 28.5078 19.6406C29.8906 19.7734 30.7891 22.2422 30.8437 23.9766C30.8906 25.7109 30.1406 26.8672 30 26.9453C29.8594 27.0156 26.7188 23.2031 26.7188 23.2031L27.0156 23.0312Z" fill="#FF9A08"/>
<path fill-rule="evenodd" clip-rule="evenodd" d="M28.5032 19.6088L28.5108 19.6095C28.8658 19.6436 29.1875 19.8275 29.4705 20.1081C29.7534 20.3886 29.9989 20.7672 30.2021 21.1946C30.6083 22.0492 30.8475 23.1043 30.875 23.9756C30.8985 24.8475 30.7218 25.5744 30.5213 26.0933C30.4211 26.3527 30.3148 26.5605 30.2244 26.7087C30.1793 26.7827 30.1379 26.8422 30.103 26.8859C30.0856 26.9078 30.0695 26.926 30.0552 26.9403C30.0413 26.9541 30.0277 26.9656 30.0152 26.9726L30.014 26.9733C30.0029 26.9788 29.9918 26.9779 29.9848 26.9764C29.9774 26.9748 29.9703 26.9718 29.964 26.9686C29.9513 26.9621 29.9366 26.9519 29.9207 26.9395C29.8886 26.9143 29.8466 26.876 29.7967 26.827C29.6967 26.7288 29.562 26.5851 29.4048 26.4112C29.0903 26.0633 28.6842 25.593 28.2828 25.1208C27.8814 24.6485 27.4843 24.1741 27.1877 23.8177C27.0393 23.6395 26.9161 23.4909 26.8299 23.3867C26.7868 23.3347 26.753 23.2937 26.73 23.2658L26.6947 23.223C26.6946 23.223 26.6946 23.223 26.7122 23.2085L26.6947 23.223L26.6875 23.2143C26.6614 23.2202 26.6368 23.2248 26.6144 23.2285C26.5789 23.2343 26.5489 23.2377 26.5277 23.2397C26.517 23.2406 26.5086 23.2413 26.5028 23.2416C26.4998 23.2418 26.4976 23.242 26.496 23.242L26.4942 23.2421C26.4942 23.2421 26.4935 23.2422 26.4922 23.2109C26.4882 23.2419 26.4882 23.2419 26.4882 23.2419L26.4863 23.2417C26.4852 23.2415 26.4837 23.2413 26.4817 23.241C26.4778 23.2403 26.4722 23.2394 26.4651 23.238C26.451 23.2352 26.4309 23.2306 26.4065 23.2236C26.358 23.2097 26.2923 23.1859 26.2236 23.1462C26.0859 23.0666 25.9361 22.9229 25.8911 22.6695C25.8701 22.5353 25.9086 22.4053 25.9764 22.2881C26.044 22.1709 26.1418 22.0639 26.2427 21.9729C26.4445 21.7909 26.6638 21.6683 26.697 21.6517L26.6994 21.6505L26.702 21.6498C26.7036 21.6493 26.7057 21.6486 26.7083 21.6479C26.7646 21.6313 27.0307 21.5529 27.3081 21.3722C27.5981 21.1835 27.8973 20.8851 27.9849 20.4316L27.9852 20.4303C28.0948 19.9684 28.2098 19.7649 28.3082 19.676C28.3585 19.6306 28.4044 19.6152 28.4418 19.611C28.4599 19.609 28.4753 19.6098 28.486 19.6103C28.4917 19.6106 28.4952 19.6108 28.4978 19.6108C28.4977 19.6108 28.498 19.6108 28.4978 19.6108L28.5032 19.6088ZM28.4995 19.6107C28.4995 19.6107 28.4995 19.6107 28.4995 19.6107ZM26.4922 23.2109L26.4882 23.2419L26.4908 23.2423L26.4942 23.2421L26.4922 23.2109ZM26.4937 23.1796C26.4949 23.1795 26.4966 23.1794 26.4987 23.1793C26.504 23.1789 26.5119 23.1783 26.5219 23.1774C26.5419 23.1756 26.5705 23.1723 26.6043 23.1668C26.6653 23.1568 26.7424 23.1395 26.8173 23.11L26.9799 23.0158C27.0056 22.9936 27.028 22.9686 27.0459 22.9404C27.09 22.8706 27.1083 22.7776 27.072 22.651C27.0387 22.5722 26.9981 22.5242 26.9562 22.4969C26.9143 22.4696 26.8688 22.4614 26.8228 22.4666C26.7289 22.4771 26.6343 22.5434 26.5792 22.6131L26.5619 22.6351L26.5382 22.6203C26.4747 22.5807 26.4361 22.5339 26.4296 22.4785C26.4232 22.4238 26.4493 22.3711 26.4904 22.3224C26.5725 22.2252 26.7321 22.1237 26.9196 22.0214C27.059 21.9453 27.217 21.8673 27.375 21.7893C27.4308 21.7617 27.4866 21.7341 27.5416 21.7067C27.7532 21.6009 27.9531 21.4963 28.0995 21.3961L28.1006 21.3954C28.2299 21.3141 28.3575 21.1389 28.4724 20.9219C28.5865 20.7062 28.6855 20.4541 28.7593 20.2248L28.7711 20.1881L28.8046 20.2073C29.1236 20.3899 29.401 20.7731 29.6235 21.2552C29.8464 21.7384 30.0163 22.3257 30.1177 22.9225C30.2192 23.5193 30.2524 24.1272 30.2011 24.6517C30.15 25.175 30.0144 25.6208 29.7732 25.8881L29.7508 25.913L27.0109 23.0714C26.9675 23.1069 26.918 23.1347 26.868 23.1566C26.8602 23.1599 26.8525 23.1632 26.8447 23.1663L26.7663 23.2117L26.7782 23.226C26.8012 23.2539 26.835 23.2948 26.878 23.3469C26.9642 23.451 27.0874 23.5996 27.2357 23.7777C27.5323 24.134 27.9292 24.6083 28.3305 25.0803C28.7318 25.5525 29.1373 26.0221 29.4512 26.3693C29.6082 26.543 29.7419 26.6856 29.8405 26.7824C29.89 26.8309 29.9299 26.8673 29.9592 26.8903C29.974 26.9018 29.9849 26.9091 29.9923 26.9129C29.9972 26.9092 30.0034 26.9037 30.0111 26.896C30.0232 26.8839 30.0377 26.8676 30.0541 26.847C30.087 26.8058 30.1269 26.7485 30.1711 26.6761C30.2594 26.5313 30.3641 26.3269 30.463 26.0708C30.661 25.5585 30.8358 24.84 30.8125 23.9775C30.7853 23.1145 30.548 22.068 30.1456 21.2214C29.9444 20.7982 29.7027 20.4263 29.4265 20.1524C29.1518 19.88 28.8445 19.7059 28.5102 19.6723C28.5056 19.6731 28.5016 19.6732 28.4987 19.6733C28.4939 19.6733 28.4886 19.6731 28.4841 19.6728L28.4828 19.6727C28.4724 19.6722 28.4614 19.6717 28.4486 19.6731C28.4242 19.6759 28.3906 19.6858 28.35 19.7224C28.2668 19.7976 28.1553 19.9845 28.0462 20.4441C27.954 20.9199 27.6401 21.2307 27.3422 21.4246C27.0571 21.6103 26.7839 21.6908 26.7264 21.7077C26.725 21.7081 26.7237 21.7085 26.7226 21.7088C26.6856 21.7279 26.4767 21.846 26.2846 22.0193C26.1863 22.1079 26.0937 22.2099 26.0305 22.3193C25.9674 22.4286 25.9347 22.5433 25.9527 22.6589C25.9937 22.8897 26.129 23.0194 26.2549 23.0921C26.3181 23.1286 26.3788 23.1507 26.4238 23.1636C26.4462 23.17 26.4646 23.1741 26.4773 23.1767C26.4836 23.1779 26.4885 23.1787 26.4917 23.1793C26.4924 23.1794 26.4931 23.1795 26.4937 23.1796ZM27.0565 23.0286L29.7488 25.8209C29.963 25.5659 30.0899 25.1478 30.1389 24.6456C30.1895 24.1277 30.1568 23.5256 30.0561 22.933C29.9554 22.3404 29.7869 21.7586 29.5667 21.2814C29.3541 20.8206 29.0953 20.4615 28.8066 20.2813C28.7334 20.5028 28.6377 20.7431 28.5276 20.9511C28.4121 21.1694 28.2783 21.3573 28.1343 21.448C27.984 21.5508 27.7807 21.657 27.5695 21.7626C27.5139 21.7904 27.4577 21.8181 27.4016 21.8458C27.244 21.9237 27.0878 22.0009 26.9495 22.0763C26.7611 22.1791 26.6116 22.2757 26.5382 22.3627C26.5015 22.406 26.4882 22.4418 26.4917 22.4712C26.4945 22.4956 26.5099 22.5231 26.549 22.5521C26.6129 22.4815 26.7117 22.4162 26.8159 22.4045C26.8743 22.3979 26.9348 22.4083 26.9903 22.4445C27.0456 22.4805 27.0935 22.5404 27.1304 22.6286L27.1311 22.6302L27.1316 22.6319C27.1728 22.774 27.1539 22.8865 27.0987 22.9739C27.0862 22.9936 27.072 23.0118 27.0565 23.0286Z" fill="black"/>
<path fill-rule="evenodd" clip-rule="evenodd" d="M28.9922 25.508L28.9688 20.3908L29.0313 20.3905L29.0547 25.5077L28.9922 25.508ZM28.6797 25.1329L28.6641 20.4923L28.7266 20.4921L28.7422 25.1327L28.6797 25.1329ZM28.3516 24.8518L28.3281 21.1643L28.3906 21.1639L28.4141 24.8514L28.3516 24.8518ZM28.0781 24.4767L28.0625 21.422L28.125 21.4217L28.1406 24.4764L28.0781 24.4767ZM27.7734 24.1406V21.5625H27.8359V24.1406H27.7734ZM27.4609 23.8047V21.7656H27.5234V23.8047H27.4609ZM27.1875 23.4922V21.9297H27.25V23.4922H27.1875Z" fill="black"/>
<path fill-rule="evenodd" clip-rule="evenodd" d="M26.943 23.33C26.9593 23.3158 26.984 23.3174 26.9982 23.3337L29.8107 26.5524C29.8249 26.5687 29.8232 26.5933 29.807 26.6075C29.7907 26.6217 29.766 26.6201 29.7518 26.6038L26.9393 23.3851C26.9251 23.3688 26.9268 23.3442 26.943 23.33Z" fill="#FFDF00"/>
<path fill-rule="evenodd" clip-rule="evenodd" d="M29.8992 21.2784C29.9266 21.2658 29.9591 21.2779 29.9716 21.3054L29.9219 21.3281C29.9716 21.3054 29.9716 21.3054 29.9716 21.3054L29.9727 21.3077L29.9755 21.314C29.9779 21.3195 29.9815 21.3277 29.9861 21.3384C29.9953 21.3597 30.0086 21.3912 30.025 21.432C30.0579 21.5136 30.1034 21.6324 30.1542 21.7821C30.2558 22.0814 30.379 22.5043 30.465 22.9994C30.6369 23.9885 30.6618 25.2718 30.0642 26.4313C30.0504 26.4582 30.0174 26.4687 29.9906 26.4549C29.9637 26.441 29.9532 26.408 29.967 26.3812C30.5491 25.2517 30.5272 23.9959 30.3573 23.0182C30.2724 22.5298 30.1509 22.1125 30.0506 21.8173C30.0005 21.6697 29.9557 21.5528 29.9236 21.4729C29.9075 21.4329 29.8945 21.4022 29.8857 21.3816C29.8812 21.3713 29.8778 21.3636 29.8755 21.3584L29.8729 21.3526L29.8723 21.3512C29.8598 21.3237 29.8717 21.2909 29.8992 21.2784ZM26.4549 22.0183C26.475 22.0408 26.473 22.0754 26.4505 22.0955L26.4494 22.0965C26.4486 22.0972 26.4473 22.0984 26.4456 22.0999C26.4422 22.1031 26.4372 22.1078 26.4309 22.114C26.4181 22.1263 26.4001 22.1444 26.3792 22.1671C26.3372 22.2126 26.2847 22.2754 26.2408 22.3462C26.1965 22.4176 26.1632 22.4933 26.1553 22.5649C26.1477 22.6343 26.1635 22.7002 26.2194 22.7593C26.2402 22.7812 26.2392 22.8158 26.2173 22.8366C26.1953 22.8574 26.1607 22.8564 26.14 22.8345C26.0591 22.749 26.0359 22.6499 26.0466 22.553C26.057 22.4584 26.0994 22.3666 26.1479 22.2885C26.1967 22.2099 26.2541 22.1414 26.2988 22.0929C26.3212 22.0686 26.3407 22.049 26.3547 22.0355C26.3617 22.0287 26.3673 22.0234 26.3712 22.0198C26.3732 22.0179 26.3747 22.0165 26.3758 22.0155L26.3771 22.0144C26.3771 22.0144 26.3777 22.0139 26.4129 22.0533L26.3771 22.0144C26.3996 21.9943 26.4348 21.9957 26.4549 22.0183ZM26.6916 22.7854L26.6923 22.7836C26.6929 22.7822 26.6938 22.78 26.695 22.7772C26.6975 22.7716 26.7012 22.7634 26.706 22.7539C26.7157 22.7346 26.7291 22.7111 26.7449 22.6913C26.7616 22.6704 26.7761 22.6594 26.7865 22.656C26.7915 22.6543 26.7994 22.6522 26.8157 22.6663C26.8386 22.6861 26.8731 22.6836 26.8929 22.6608C26.9127 22.638 26.9102 22.6035 26.8874 22.5837C26.8451 22.547 26.7974 22.5371 26.7519 22.5522C26.7116 22.5657 26.6808 22.5962 26.6594 22.6232C26.6371 22.6512 26.6197 22.6819 26.6082 22.7048C26.6024 22.7164 26.5979 22.7264 26.5947 22.7336C26.5932 22.7372 26.5919 22.7401 26.5911 22.7422L26.5901 22.7447L26.5897 22.7457C26.5897 22.7457 26.5896 22.7459 26.6406 22.7656L26.5897 22.7457C26.5788 22.7739 26.5927 22.8057 26.6209 22.8166C26.649 22.8275 26.6807 22.8135 26.6916 22.7854Z" fill="#FFDF00"/>
<path d="M30.5156 14.9531C30.7031 14.7969 30.8047 14.6953 30.9219 14.7188C31.0391 14.7344 31.1953 14.7188 31.3125 14.6875C31.62 14.6161 31.9384 14.6055 32.25 14.6563C32.3281 14.6719 32.4375 14.7109 32.6094 14.8516C32.7734 14.9922 33.0156 15.2422 32.9375 15.9141C32.8594 16.5859 32.8828 16.875 32.8438 17.2578C32.7812 17.9219 32.6328 18.4688 32.375 18.4297C32.7266 19.0547 32.7656 19.6016 33 20.0312C33.2344 20.4609 33.375 21.3438 33.2891 22.2969C33.1953 23.2578 32.9453 25.3984 33.7031 26.8438C33.5781 26.9297 33.2734 26.8438 33 26.5547C32.7266 26.2656 32.6094 26.2734 32.3828 26.4453C31.7031 26.9688 31.0547 27.6016 30.1172 26.9688C29.8984 26.8281 29.8281 26.6562 29.9922 26.2109C30.3828 25.1172 30.5781 23.6016 30.5156 22.8984V14.9531Z" fill="#008021"/>
<path fill-rule="evenodd" clip-rule="evenodd" d="M31.3153 14.6989C31.197 14.7304 31.0393 14.7462 30.9203 14.7304C30.8662 14.7195 30.814 14.737 30.7516 14.7783C30.7033 14.8103 30.6498 14.8554 30.5848 14.9103C30.5666 14.9257 30.5475 14.9418 30.5273 14.9586V22.8979C30.5586 23.2508 30.5253 23.8063 30.4354 24.4099C30.3455 25.014 30.1989 25.6671 30.0032 26.2149C29.9214 26.437 29.8989 26.5888 29.9226 26.7017C29.9461 26.8137 30.0156 26.8895 30.1235 26.9589C30.3566 27.1162 30.5713 27.1946 30.7724 27.2159C30.9734 27.2371 31.1616 27.2014 31.3424 27.1297C31.6449 27.0097 31.9251 26.7894 32.2077 26.5672C32.2635 26.5233 32.3195 26.4793 32.3757 26.436C32.489 26.35 32.5785 26.3021 32.6754 26.3155C32.7717 26.3289 32.8718 26.4021 33.0085 26.5466C33.1442 26.6901 33.2873 26.7827 33.4113 26.8289C33.5301 26.8731 33.6288 26.8738 33.6877 26.8396C33.3115 26.1163 33.1855 25.2219 33.165 24.389C33.1462 23.6193 33.2174 22.901 33.2654 22.417C33.2696 22.3747 33.2736 22.3343 33.2774 22.2958C33.3203 21.8201 33.3066 21.362 33.253 20.9694C33.1994 20.5765 33.1059 20.2499 32.9897 20.0369C32.8849 19.8446 32.8189 19.6291 32.7473 19.3952C32.7384 19.3662 32.7294 19.3368 32.7202 19.3072C32.6373 19.0388 32.5399 18.7468 32.3648 18.4354L32.353 18.4145L32.3768 18.4181C32.4362 18.4271 32.4902 18.4028 32.5396 18.3486C32.5892 18.2941 32.6332 18.2103 32.6716 18.1035C32.7482 17.89 32.8009 17.5884 32.8321 17.2567C32.8479 17.102 32.8534 16.9627 32.8596 16.8067C32.8611 16.7702 32.8626 16.7327 32.8643 16.6938C32.8731 16.4895 32.8868 16.249 32.9259 15.9127C32.9647 15.5783 32.9238 15.35 32.8535 15.1883C32.7833 15.0266 32.6833 14.9304 32.6019 14.8605C32.4314 14.7211 32.3238 14.683 32.2479 14.6678C31.938 14.6173 31.6212 14.6279 31.3153 14.6989ZM31.3098 14.6761C31.6188 14.6043 31.9388 14.5937 32.2519 14.6447C32.3322 14.6608 32.4437 14.7009 32.6168 14.8425C32.6994 14.9133 32.8027 15.0125 32.875 15.1789C32.9473 15.3453 32.9884 15.5779 32.9491 15.9154C32.9101 16.251 32.8965 16.4909 32.8877 16.6948C32.886 16.7335 32.8845 16.7709 32.8831 16.8074C32.8769 16.9634 32.8713 17.1035 32.8554 17.2589C32.8241 17.5913 32.7713 17.8952 32.6936 18.1114C32.6549 18.2194 32.6095 18.3065 32.5569 18.3643C32.5098 18.416 32.4562 18.4449 32.396 18.4433C32.5657 18.7497 32.6613 19.0371 32.7426 19.3003C32.7518 19.3299 32.7608 19.3593 32.7697 19.3883C32.8414 19.6225 32.9066 19.8356 33.0103 20.0256C33.1284 20.2422 33.2225 20.5719 33.2763 20.9662C33.3301 21.3606 33.3438 21.8205 33.3007 22.2979C33.297 22.3365 33.293 22.377 33.2888 22.4192C33.2407 22.9033 33.1696 23.6203 33.1885 24.3884C33.209 25.2236 33.3358 26.118 33.7135 26.8383L33.7183 26.8475L33.7098 26.8534C33.6424 26.8997 33.5302 26.8981 33.4031 26.8508C33.2752 26.8032 33.1292 26.7084 32.9915 26.5627C32.8547 26.4182 32.7596 26.3508 32.6722 26.3388C32.5856 26.3268 32.5031 26.3688 32.3899 26.4546C32.3342 26.4975 32.2786 26.5412 32.223 26.585C31.9404 26.8072 31.657 27.0301 31.351 27.1515C31.1675 27.2243 30.9754 27.2609 30.7699 27.2392C30.5644 27.2175 30.3464 27.1376 30.1107 26.9785C30 26.9073 29.925 26.8269 29.8997 26.7065C29.8746 26.587 29.899 26.4301 29.9812 26.2069C30.1761 25.661 30.3225 25.0095 30.4122 24.4065C30.502 23.8033 30.5351 23.2497 30.504 22.8995L30.5039 22.8984L30.5039 14.9476L30.5081 14.9441C30.5294 14.9264 30.5495 14.9094 30.5688 14.8931C30.6342 14.8379 30.6891 14.7916 30.7387 14.7588C30.803 14.7162 30.8609 14.6947 30.9238 14.7072C31.0391 14.7225 31.1939 14.707 31.3098 14.6761Z" fill="black"/>
<path d="M31.1719 14.2812C31.2188 14.4375 31.2422 14.6328 31.1641 14.8125C31.0859 14.9922 31.0625 15.2031 31.1953 15.4688C31.4141 15.1641 31.7188 15.2344 31.8984 15.0469C32.0781 14.8672 32.1172 14.6953 32.25 14.6563C32.1172 14.5391 31.9062 14.4219 31.9531 14.0703C32 13.7344 32.4766 13.4453 32.0469 12.9297C31.9444 12.8056 31.7985 12.7252 31.6388 12.7049C31.4792 12.6846 31.3178 12.7258 31.1875 12.8203C31.1106 12.8732 31.0466 12.9426 31 13.0234C30.9766 13.0859 31.0078 13.2188 30.9453 13.2969L30.7891 13.4531C30.7422 13.4766 30.7109 13.5156 30.7578 13.5703C30.7734 13.5859 30.8125 13.5938 30.8438 13.6016C30.8267 13.6425 30.8057 13.6817 30.7812 13.7188C30.7578 13.7422 30.7656 13.7656 30.7891 13.7969C30.7578 13.8984 30.8203 13.9141 30.7812 13.9922C30.7422 14.0625 30.6875 14.1484 30.8281 14.2266C30.875 14.25 31.0625 14.2969 31.1641 14.2812H31.1719ZM29.4141 16.0703C29.1641 16.1406 28.7578 16.0312 28.4453 16.0703C28.3125 16.0781 28.2109 16.0078 28.2266 15.875C28.2422 15.7422 28.2578 15.5312 28.2266 15.3437C28.1875 15.0469 28.3281 14.6406 28.5313 14.1875C28.6857 13.9065 28.7864 13.5992 28.8281 13.2812C28.8281 13.1406 28.8438 12.9844 28.9688 12.9062C29.0625 12.8438 29.0781 12.7891 29.1094 12.7422C29.1875 12.625 29.2656 12.6016 29.2656 12.6641C29.2734 12.7031 29.2656 12.7422 29.2266 12.7969C29.3047 12.7266 29.4453 12.6484 29.4766 12.625C29.5078 12.6094 29.6641 12.4922 29.6719 12.6016C29.7344 12.5703 29.7812 12.5703 29.7969 12.6016C29.8125 12.6406 29.7969 12.6562 29.7734 12.6797C29.8125 12.6797 29.8672 12.7578 29.7734 12.8203C29.8281 12.8047 29.875 12.8828 29.7891 12.9609C29.7031 13.0312 29.6016 13.0859 29.5703 13.1406C29.5391 13.2031 29.3281 13.3672 29.2422 13.3984C29.1562 13.4375 29.1484 13.4844 29.1484 13.6094C29.1484 15 28.9844 14.8906 28.9844 15.2188C28.9844 15.3125 28.9688 15.3906 29.0625 15.3672C29.1406 15.3359 29.2812 15.2969 29.4141 15.2969V16.0781V16.0703ZM29.4688 19.0625C29.875 18.8594 30.3438 18.7891 30.5859 18.7266C30.8203 18.6641 31.2109 18.4688 31.4062 18.375C31.5938 18.2734 31.75 18.1406 31.8516 18.1016C31.9609 18.0625 32.0859 17.9922 32.1484 17.8594C32.5 17.1719 32.6953 16.625 32.6953 16.1406C32.6953 15.8281 32.6172 15.4766 32.3047 15.7344C32.0156 15.9687 31.7031 16.4297 31.6172 16.7578C31.4922 17.2656 31.3828 17.375 31.3594 17.4688C31.3281 17.5703 31.2266 17.5703 31.1094 17.5938C30.7174 17.6567 30.3515 17.8301 30.0547 18.0938C29.6976 18.3564 29.3245 18.5965 28.9375 18.8125C28.6484 18.9688 28.5938 18.9922 28.5313 19.125C28.4848 19.2291 28.4244 19.3264 28.3516 19.4141C28.3284 19.4404 28.3115 19.4717 28.302 19.5055C28.2925 19.5393 28.2908 19.5748 28.2969 19.6094L28.2734 20.0312C28.2734 20.1172 28.2891 20.1406 28.3281 20.1484C28.3594 20.1484 28.4062 20.1328 28.4297 20.0234C28.4141 20.1328 28.5625 20.1016 28.5703 20.0234C28.5703 20.1328 28.7266 20.0625 28.7266 19.9609C28.7266 20.0391 28.8516 19.9844 28.8594 19.9453L28.9453 19.6797C29 19.5781 29.0547 19.4453 29.1641 19.3672C29.2812 19.2891 29.2266 19.1875 29.4688 19.0625ZM32.3828 26.4453L32.4844 26.7266C32.5 26.7969 32.4688 26.8125 32.4531 26.8516C32.3482 27.0693 32.2745 27.3007 32.2344 27.5391C32.2344 27.6328 32.1562 27.7344 32.1328 27.7891C32.0938 27.8516 32.1094 27.9062 32.1875 27.9688C32.2266 27.9922 32.3438 27.9531 32.3672 27.8906C32.4062 27.9375 32.4922 27.9219 32.5234 27.8516C32.5703 27.8906 32.6328 27.8672 32.6797 27.7969C32.7188 27.8281 32.7812 27.7734 32.8047 27.7344C32.8672 27.7656 32.9297 27.7344 32.9375 27.6016L32.9688 27.5078C32.9844 27.4766 32.9922 27.4219 32.9922 27.375C32.9922 27.3203 33.0234 27.2188 33.0625 27.1562C33.1016 27.0781 33.1797 26.9609 33.1406 26.8438C33.1172 26.7344 33.0703 26.7422 33.0312 26.5859C32.9297 26.4844 32.7969 26.3359 32.6562 26.3281C32.5156 26.3203 32.4375 26.4141 32.3828 26.4453ZM29.8203 27.2188C29.9453 27.3438 30.2344 27.3516 30.4297 27.1406C30.3516 27.1094 30.1953 27.0391 30.1328 26.9844C30.0312 27.0781 29.9141 27.1875 29.8203 27.2188Z" fill="#FFE1CF"/>
<path fill-rule="evenodd" clip-rule="evenodd" d="M29.4828 12.635C29.4743 12.6412 29.4595 12.6506 29.4415 12.6618C29.4377 12.6642 29.4337 12.6666 29.4296 12.6692C29.4134 12.6793 29.3949 12.6908 29.3755 12.7032C29.3267 12.7345 29.2727 12.7711 29.2344 12.8056L29.217 12.7901C29.2548 12.7372 29.2611 12.7014 29.2541 12.6664L29.2539 12.6652V12.6641C29.2539 12.6505 29.2497 12.6455 29.2465 12.6437C29.2427 12.6415 29.2348 12.6407 29.2215 12.6465C29.1952 12.6579 29.1577 12.6909 29.1191 12.7487C29.1128 12.7581 29.1071 12.7682 29.101 12.7787C29.0783 12.8184 29.0514 12.8653 28.9753 12.916C28.9158 12.9531 28.8818 13.0091 28.8628 13.0736C28.8438 13.1384 28.8398 13.2112 28.8398 13.2812L28.8397 13.2828C28.7978 13.602 28.6968 13.9106 28.5418 14.1927C28.4404 14.4189 28.3548 14.633 28.2994 14.8274C28.2439 15.022 28.219 15.1959 28.2382 15.342C28.2696 15.5312 28.2539 15.7433 28.2382 15.8764C28.2308 15.9392 28.2511 15.986 28.2878 16.0164C28.3248 16.0471 28.38 16.0623 28.4443 16.0586C28.5884 16.0407 28.752 16.054 28.9099 16.0668C28.9247 16.068 28.9394 16.0692 28.9541 16.0703C29.1225 16.0837 29.2808 16.0931 29.4023 16.0613V15.3087C29.2749 15.3109 29.1417 15.3481 29.0669 15.3781L29.0653 15.3786C29.0409 15.3847 29.0211 15.3849 29.0058 15.3777C28.9899 15.3702 28.9814 15.3561 28.977 15.34C28.9726 15.3242 28.9717 15.305 28.9717 15.2848C28.9717 15.275 28.9719 15.2646 28.9721 15.2541L28.9722 15.2527C28.9724 15.2417 28.9727 15.2303 28.9727 15.2188C28.9727 15.1355 28.9831 15.0798 28.9987 15.0214C29.0035 15.0033 29.0088 14.9851 29.0144 14.9658C29.0268 14.9228 29.0408 14.8745 29.055 14.81C29.0957 14.6237 29.1367 14.3043 29.1367 13.6094C29.1367 13.5473 29.1385 13.502 29.1522 13.4674C29.1664 13.4314 29.1927 13.4081 29.2373 13.3878C29.2784 13.3728 29.3522 13.3247 29.4195 13.272C29.453 13.2458 29.4847 13.2188 29.5098 13.1945C29.5353 13.1698 29.553 13.149 29.5598 13.1354C29.5769 13.1055 29.6125 13.0763 29.6523 13.0472C29.6647 13.0381 29.6776 13.029 29.6907 13.0196C29.7206 12.9984 29.7518 12.9762 29.7814 12.9521C29.8221 12.915 29.8289 12.8803 29.8227 12.8587C29.8165 12.837 29.7972 12.8257 29.7767 12.8316L29.7669 12.8106C29.8108 12.7814 29.8172 12.7508 29.8119 12.7294C29.8091 12.7181 29.8028 12.7084 29.7952 12.7016C29.7875 12.6946 29.7795 12.6914 29.7734 12.6914H29.7451L29.7652 12.6714C29.7774 12.6592 29.7852 12.6511 29.789 12.642C29.7923 12.634 29.793 12.6237 29.7862 12.6064C29.7809 12.5962 29.7703 12.5898 29.752 12.5898C29.733 12.5898 29.7076 12.5968 29.6771 12.612L29.6614 12.6199L29.6602 12.6024C29.6593 12.5901 29.6564 12.5822 29.6529 12.5773C29.6496 12.5725 29.6452 12.5697 29.6396 12.5682C29.6272 12.5651 29.609 12.5686 29.5874 12.5773C29.5663 12.5857 29.5442 12.598 29.5252 12.6094C29.5178 12.6138 29.511 12.6181 29.5048 12.6219C29.5031 12.6229 29.5014 12.624 29.4998 12.625C29.4931 12.6291 29.4872 12.6327 29.4828 12.635ZM29.4258 16.0781H29.4163L29.4172 16.0816C29.2898 16.1174 29.1236 16.1073 28.9522 16.0937C28.9376 16.0926 28.923 16.0914 28.9084 16.0902C28.7498 16.0773 28.5885 16.0642 28.4468 16.0819C28.3783 16.086 28.3158 16.07 28.2728 16.0344C28.2294 15.9984 28.2067 15.9436 28.2149 15.8736C28.2305 15.7411 28.246 15.5315 28.215 15.3457C28.1952 15.1949 28.221 15.017 28.2768 14.821C28.3327 14.6249 28.4189 14.4095 28.5206 14.1827C28.6742 13.9032 28.7748 13.5967 28.8164 13.2805C28.8164 13.2101 28.8204 13.1348 28.8403 13.067C28.8604 12.9987 28.8969 12.9374 28.9624 12.8964C29.0335 12.849 29.0574 12.8073 29.08 12.7682C29.0863 12.7572 29.0925 12.7464 29.0996 12.7357C29.1392 12.6763 29.1798 12.639 29.2121 12.625C29.2281 12.6181 29.2446 12.6158 29.2579 12.6232C29.2714 12.6307 29.2771 12.6457 29.2773 12.6629C29.2826 12.6903 29.2806 12.7175 29.2679 12.7483C29.2984 12.7256 29.3319 12.7033 29.3628 12.6835C29.3824 12.671 29.401 12.6594 29.4173 12.6493C29.4214 12.6467 29.4253 12.6443 29.4291 12.6419C29.4481 12.6301 29.4622 12.6211 29.4695 12.6156L29.4704 12.615L29.4713 12.6145C29.4747 12.6128 29.48 12.6096 29.4875 12.605C29.489 12.6041 29.4907 12.603 29.4924 12.602C29.4986 12.5982 29.5056 12.5938 29.5131 12.5893C29.5324 12.5778 29.5558 12.5647 29.5787 12.5555C29.6009 12.5466 29.6252 12.5404 29.6454 12.5455C29.6559 12.5482 29.6653 12.5541 29.6721 12.5638C29.6762 12.5696 29.6791 12.5764 29.6811 12.5843C29.7075 12.5726 29.7316 12.5664 29.752 12.5664C29.7764 12.5664 29.797 12.5755 29.8074 12.5963C29.8159 12.6177 29.817 12.6356 29.8106 12.651C29.8072 12.6593 29.8017 12.6667 29.7956 12.6736C29.8011 12.6763 29.8063 12.68 29.811 12.6842C29.8217 12.694 29.8306 12.7077 29.8346 12.7237C29.8413 12.7503 29.8342 12.7811 29.8056 12.8094C29.8244 12.8156 29.8393 12.8313 29.8453 12.8522C29.8547 12.8853 29.842 12.9287 29.7969 12.9696C29.7667 12.9944 29.7338 13.0178 29.7035 13.0393C29.6905 13.0485 29.6779 13.0574 29.6661 13.0661C29.6259 13.0955 29.5949 13.1214 29.5806 13.1462C29.5718 13.1637 29.5514 13.1868 29.5261 13.2113C29.5002 13.2363 29.4679 13.2639 29.434 13.2905C29.3668 13.3431 29.2916 13.3928 29.2466 13.4093C29.2056 13.428 29.1852 13.4476 29.174 13.476C29.1623 13.5058 29.1602 13.5464 29.1602 13.6094C29.1602 14.305 29.1191 14.6263 29.0779 14.815C29.0636 14.8803 29.0492 14.9299 29.0366 14.9732C29.0311 14.9923 29.026 15.0101 29.0213 15.0274C29.0062 15.0843 28.9961 15.1379 28.9961 15.2188C28.9961 15.2306 28.9958 15.2422 28.9956 15.2533L28.9956 15.2545C28.9953 15.2651 28.9951 15.2752 28.9951 15.2848C28.9951 15.3048 28.9961 15.3213 28.9996 15.3338C29.003 15.346 29.0082 15.3529 29.0157 15.3565C29.0238 15.3602 29.037 15.3614 29.0589 15.356C29.1381 15.3244 29.2798 15.2852 29.4141 15.2852H29.4258V16.0781ZM31.1807 12.8107C31.3134 12.7146 31.4778 12.6726 31.6403 12.6933C31.8029 12.714 31.9515 12.7958 32.0559 12.9222C32.1643 13.0523 32.2163 13.169 32.2317 13.2765C32.2471 13.384 32.2257 13.4811 32.1896 13.5717C32.1617 13.6417 32.1246 13.7085 32.0888 13.773C32.0784 13.7917 32.0682 13.8101 32.0583 13.8285C32.0138 13.9107 31.9762 13.9902 31.9647 14.0719C31.9417 14.2448 31.982 14.3589 32.0437 14.4443C32.0902 14.5087 32.1486 14.5567 32.2034 14.6018C32.2221 14.6172 32.2405 14.6322 32.2578 14.6475L32.2737 14.6615L32.2533 14.6675C32.1913 14.6857 32.1504 14.735 32.1014 14.8055C32.094 14.8162 32.0865 14.8273 32.0786 14.8388C32.0352 14.9025 31.9837 14.9782 31.9068 15.0551C31.8281 15.1371 31.7258 15.1712 31.6203 15.2063C31.6021 15.2124 31.5837 15.2185 31.5654 15.2249C31.4403 15.2686 31.3121 15.3261 31.2048 15.4756L31.1935 15.4914L31.1848 15.474C31.0503 15.205 31.0739 14.9904 31.1533 14.8078C31.2285 14.635 31.208 14.4467 31.1632 14.2932C31.1105 14.3007 31.0379 14.2926 30.9734 14.2801C30.9077 14.2673 30.8478 14.2495 30.8229 14.237C30.7867 14.217 30.7617 14.1956 30.7464 14.1736C30.7309 14.1513 30.725 14.1286 30.7256 14.1062C30.7261 14.084 30.7329 14.0626 30.7416 14.0428C30.7491 14.0257 30.7584 14.0091 30.7669 13.9938C30.7683 13.9914 30.7696 13.989 30.7709 13.9867C30.7799 13.9687 30.7827 13.9548 30.7828 13.9429C30.7829 13.9306 30.7802 13.9196 30.7767 13.9063C30.7734 13.8934 30.7694 13.8778 30.7684 13.8598C30.7676 13.8427 30.7694 13.8231 30.7762 13.7991C30.766 13.7849 30.7582 13.7708 30.756 13.7567C30.7534 13.74 30.7588 13.725 30.7721 13.7113C30.7934 13.679 30.8119 13.645 30.8275 13.6097C30.8157 13.6068 30.803 13.6037 30.7914 13.6001C30.7758 13.5952 30.7596 13.5886 30.7495 13.5786C30.7243 13.5491 30.7175 13.5205 30.7274 13.4956C30.7366 13.4727 30.7584 13.4556 30.7821 13.4435L30.9366 13.2891C30.965 13.2531 30.9727 13.204 30.9756 13.1536C30.9763 13.1411 30.9768 13.1287 30.9772 13.1164C30.9776 13.1044 30.978 13.0921 30.9787 13.0808C30.98 13.0583 30.9825 13.0367 30.989 13.0193L30.9898 13.0176C31.0372 12.9353 31.1025 12.8646 31.1807 12.8107ZM31.6374 12.7165C31.4807 12.6966 31.3223 12.7371 31.1944 12.8298C31.1192 12.8815 31.0563 12.9495 31.0107 13.0284C31.0057 13.0422 31.0034 13.0604 31.0021 13.0822C31.0014 13.0932 31.001 13.1048 31.0006 13.117C31.0002 13.1292 30.9997 13.1421 30.999 13.155C30.9961 13.2059 30.9882 13.262 30.9545 13.3042L30.796 13.4628L30.7943 13.4636C30.7717 13.4749 30.7554 13.4888 30.7492 13.5044C30.7435 13.5185 30.7451 13.5373 30.7664 13.5623C30.7721 13.5678 30.7831 13.5729 30.7984 13.5777C30.8098 13.5812 30.8222 13.5842 30.8344 13.5872C30.8385 13.5882 30.8426 13.5892 30.8466 13.5902L30.8598 13.5935L30.8546 13.6061C30.8372 13.6477 30.8159 13.6876 30.791 13.7252L30.7904 13.7262L30.7895 13.727C30.78 13.7366 30.7779 13.7447 30.7792 13.7531C30.7806 13.7628 30.7869 13.7745 30.7984 13.7898L30.802 13.7946L30.8003 13.8003C30.7928 13.8245 30.7911 13.8432 30.7919 13.8587C30.7926 13.8742 30.7959 13.8869 30.7994 13.9001C30.8027 13.9131 30.8064 13.9273 30.8063 13.9431C30.8061 13.9592 30.8022 13.9765 30.7917 13.9974C30.7903 13.9999 30.7887 14.0029 30.7873 14.0054C30.7787 14.0208 30.7701 14.0363 30.7631 14.0522C30.7549 14.0707 30.7495 14.0888 30.749 14.1067C30.7486 14.1243 30.753 14.1421 30.7656 14.1602C30.7783 14.1784 30.7996 14.1973 30.8336 14.2162C30.8557 14.2272 30.9128 14.2444 30.9778 14.2571C31.043 14.2697 31.1136 14.2772 31.1623 14.2697L31.1806 14.2695L31.1831 14.2779C31.2303 14.4354 31.2545 14.6339 31.1748 14.8172C31.0996 14.9901 31.0757 15.1921 31.1974 15.4463C31.3064 15.3026 31.4351 15.2455 31.5577 15.2028C31.5767 15.1962 31.5954 15.1899 31.6139 15.1837C31.7195 15.1485 31.8156 15.1164 31.89 15.0388C31.9652 14.9635 32.0156 14.8896 32.0591 14.8258C32.067 14.8143 32.0746 14.803 32.0822 14.7921C32.1262 14.7287 32.1673 14.6767 32.2271 14.6519C32.2153 14.6419 32.203 14.6318 32.1903 14.6214C32.135 14.5759 32.0732 14.5252 32.0247 14.458C31.9594 14.3676 31.9177 14.2474 31.9415 14.0688C31.9535 13.9825 31.9931 13.8998 32.0377 13.8173C32.0478 13.7985 32.0583 13.7797 32.0687 13.7608C32.1045 13.6965 32.1405 13.6315 32.1678 13.563C32.203 13.4749 32.2231 13.3821 32.2085 13.2799C32.1939 13.1776 32.1443 13.0648 32.0379 12.9372C31.9373 12.8154 31.7941 12.7365 31.6374 12.7165ZM32.6898 15.9071C32.7021 15.9808 32.707 16.0621 32.707 16.1406C32.707 16.6279 32.5106 17.1768 32.159 17.8645C32.0945 18.0013 31.9661 18.0731 31.8557 18.1125C31.8064 18.1315 31.7433 18.1735 31.6677 18.2246L31.6583 18.2309C31.5855 18.2801 31.5023 18.3363 31.4118 18.3853C31.3905 18.3956 31.3663 18.4073 31.3406 18.4197C31.1326 18.5204 30.7988 18.6819 30.589 18.7379C30.5345 18.7519 30.4689 18.7664 30.3954 18.7825C30.1399 18.8386 29.7884 18.9158 29.4741 19.0729C29.3549 19.1345 29.3096 19.1897 29.2795 19.2386C29.2733 19.2486 29.2677 19.2586 29.2621 19.2685C29.2404 19.307 29.2194 19.3443 29.1707 19.3768C29.1179 19.4146 29.0779 19.4658 29.0442 19.5208C29.0213 19.558 29.0017 19.5962 28.9829 19.6329C28.9739 19.6505 28.9651 19.6677 28.9561 19.6843L28.8707 19.9483C28.8691 19.9555 28.8652 19.9621 28.8605 19.9678C28.8556 19.9739 28.8492 19.9795 28.8423 19.9847C28.8283 19.9949 28.8107 20.0036 28.7931 20.0084C28.7759 20.0131 28.7569 20.0145 28.7415 20.0077C28.7377 20.006 28.7341 20.0038 28.7309 20.0011C28.7169 20.039 28.6847 20.0686 28.653 20.0821C28.6319 20.091 28.6085 20.0939 28.5896 20.0846C28.58 20.0799 28.5724 20.0726 28.5672 20.0628C28.5624 20.0696 28.5566 20.0756 28.5503 20.0808C28.5338 20.0945 28.5128 20.1032 28.4925 20.1054C28.4722 20.1076 28.451 20.1034 28.4359 20.0891C28.4322 20.0855 28.429 20.0815 28.4263 20.0771C28.4159 20.1039 28.4035 20.1226 28.3899 20.1355C28.3686 20.1556 28.3459 20.1602 28.3281 20.1602H28.327L28.3258 20.1599C28.3152 20.1578 28.3053 20.1544 28.2966 20.1487C28.2878 20.1428 28.2809 20.1348 28.2757 20.1244C28.2655 20.1041 28.2617 20.0743 28.2617 20.0312L28.2851 19.6101C28.279 19.5742 28.2809 19.5374 28.2907 19.5023C28.3006 19.4669 28.3184 19.4341 28.3426 19.4065C28.4147 19.3196 28.4746 19.2233 28.5205 19.1202C28.5525 19.0524 28.583 19.0114 28.6425 18.9681C28.6942 18.9304 28.7681 18.8905 28.8841 18.828C28.8993 18.8198 28.9152 18.8112 28.9319 18.8022C29.3183 18.5865 29.6908 18.3468 30.0473 18.0846C30.3457 17.8198 30.7134 17.6455 31.1073 17.5822C31.1254 17.5786 31.1434 17.5755 31.1606 17.5725C31.1712 17.5707 31.1815 17.5689 31.1914 17.5671C31.2177 17.5622 31.2416 17.557 31.2627 17.5495C31.3041 17.5348 31.3338 17.5117 31.3481 17.4656C31.3543 17.4409 31.3661 17.4155 31.3815 17.3843C31.3845 17.3781 31.3877 17.3717 31.3911 17.3649C31.4049 17.3374 31.4212 17.3048 31.4395 17.2638C31.4851 17.1619 31.5435 17.0083 31.6058 16.755C31.6492 16.5892 31.7496 16.3905 31.875 16.2044C32.0005 16.0182 32.1516 15.8434 32.2973 15.7253C32.3762 15.6602 32.4424 15.6317 32.4979 15.6334C32.5543 15.6352 32.5965 15.668 32.6272 15.7175C32.6576 15.7667 32.6775 15.8336 32.6898 15.9071ZM28.7148 19.9609H28.7383C28.7383 19.9692 28.7399 19.9747 28.7421 19.9784C28.7442 19.982 28.7471 19.9845 28.751 19.9862C28.7592 19.9899 28.7719 19.9899 28.787 19.9858C28.8017 19.9818 28.8167 19.9743 28.8284 19.9658C28.8342 19.9615 28.839 19.9571 28.8424 19.953C28.8458 19.9487 28.8474 19.9453 28.8479 19.943L28.9345 19.6751L28.935 19.6741C28.9436 19.6581 28.9524 19.641 28.9615 19.6233C28.9805 19.5862 29.0009 19.5465 29.0242 19.5085C29.0588 19.4522 29.1008 19.398 29.1573 19.3577C29.201 19.3285 29.2192 19.2966 29.2406 19.2588C29.2464 19.2485 29.2526 19.2376 29.2596 19.2263C29.292 19.1736 29.3404 19.1155 29.4634 19.0521C29.7807 18.8934 30.1367 18.8152 30.3923 18.7591C30.465 18.7432 30.5297 18.729 30.583 18.7152C30.7904 18.6599 31.1218 18.4996 31.3303 18.3987C31.3558 18.3863 31.3795 18.3748 31.4009 18.3646C31.4902 18.3162 31.5725 18.2606 31.6455 18.2113L31.6546 18.2051C31.7293 18.1547 31.795 18.1107 31.8474 18.0906C31.9556 18.052 32.0773 17.983 32.1378 17.8544C32.4892 17.1672 32.6836 16.6221 32.6836 16.1406C32.6836 16.0629 32.6787 15.983 32.6667 15.911C32.6546 15.8388 32.6354 15.7753 32.6072 15.7298C32.5793 15.6846 32.5433 15.6583 32.4972 15.6569C32.4501 15.6554 32.3894 15.6796 32.3121 15.7434C32.1688 15.8597 32.019 16.0326 31.8945 16.2175C31.7699 16.4024 31.6711 16.5984 31.6285 16.7607C31.5659 17.0152 31.5071 17.1701 31.4609 17.2733C31.4423 17.3148 31.4258 17.348 31.412 17.3756C31.4087 17.3823 31.4055 17.3886 31.4025 17.3947C31.3869 17.4262 31.3763 17.4495 31.3707 17.4716C31.3538 17.5268 31.317 17.5551 31.2705 17.5716C31.2476 17.5797 31.2222 17.5852 31.1956 17.5901C31.1852 17.5921 31.1747 17.5939 31.164 17.5957C31.147 17.5986 31.1297 17.6016 31.1117 17.6052C30.7219 17.6678 30.3576 17.8404 30.0625 18.1025L30.0617 18.1032C29.7042 18.3662 29.3307 18.6064 28.9432 18.8227C28.9266 18.8317 28.9107 18.8403 28.8956 18.8484C28.779 18.9113 28.7066 18.9504 28.6563 18.987C28.6006 19.0276 28.5725 19.065 28.5419 19.1299C28.495 19.2349 28.434 19.333 28.3606 19.4215C28.3386 19.4466 28.3223 19.4765 28.3133 19.5087C28.3043 19.5408 28.3026 19.5745 28.3084 19.6073L28.3087 19.6087L28.2852 20.0316C28.2852 20.0742 28.2892 20.099 28.2966 20.1139C28.3002 20.121 28.3045 20.1257 28.3096 20.1292C28.3146 20.1325 28.321 20.135 28.3293 20.1367C28.3425 20.1365 28.3584 20.133 28.3738 20.1184C28.39 20.1031 28.4068 20.0744 28.4182 20.021L28.4413 20.0251C28.4377 20.05 28.4438 20.0642 28.452 20.0721C28.4606 20.0802 28.4741 20.0838 28.49 20.0821C28.5057 20.0804 28.5224 20.0735 28.5354 20.0627C28.5483 20.052 28.5571 20.0381 28.5587 20.0223L28.582 20.0234C28.582 20.048 28.5905 20.059 28.5999 20.0636C28.6103 20.0687 28.6259 20.0681 28.6439 20.0605C28.6798 20.0452 28.7148 20.0058 28.7148 19.9609ZM32.4813 26.362C32.5266 26.3348 32.5836 26.3124 32.6569 26.3164C32.7309 26.3205 32.8017 26.3615 32.8657 26.4127C32.918 26.4546 32.9671 26.5043 33.0107 26.5486C33.0206 26.5586 33.0302 26.5683 33.0395 26.5777L33.0418 26.5799L33.0426 26.5831C33.0618 26.6598 33.0827 26.6957 33.1017 26.7262C33.103 26.7283 33.1043 26.7303 33.1056 26.7324C33.1237 26.7611 33.1406 26.788 33.152 26.8407C33.1724 26.9026 33.1618 26.9639 33.1419 27.0187C33.1273 27.0587 33.1072 27.0965 33.0901 27.1287C33.0839 27.1404 33.078 27.1514 33.073 27.1615L33.0724 27.1625C33.0536 27.1926 33.0364 27.2327 33.0239 27.2721C33.0113 27.3116 33.0039 27.3494 33.0039 27.375C33.0039 27.4221 32.9962 27.4785 32.9796 27.5123L32.9491 27.6038C32.9449 27.6705 32.927 27.715 32.8991 27.7385C32.8728 27.7606 32.8403 27.7619 32.809 27.7492C32.7959 27.768 32.776 27.7884 32.7543 27.8019C32.733 27.8152 32.7064 27.824 32.6829 27.8127C32.66 27.8442 32.6333 27.8663 32.6055 27.8763C32.5789 27.8858 32.5517 27.8838 32.5277 27.869C32.5095 27.9002 32.4808 27.9197 32.4508 27.9265C32.4227 27.9328 32.3929 27.928 32.3705 27.9102C32.3531 27.9385 32.32 27.96 32.2875 27.9728C32.2681 27.9805 32.2479 27.9855 32.2297 27.9869C32.2119 27.9883 32.1943 27.9865 32.1815 27.9788L32.1802 27.9779C32.1404 27.9461 32.1148 27.9149 32.105 27.8823C32.0951 27.8492 32.102 27.8167 32.1224 27.7836C32.1286 27.7694 32.138 27.7525 32.1484 27.7343L32.1516 27.7286C32.1614 27.7114 32.172 27.6929 32.1819 27.6734C32.2042 27.6298 32.2227 27.583 32.2227 27.5391L32.2228 27.5371C32.2631 27.2978 32.337 27.0654 32.4424 26.8468C32.4467 26.8363 32.4519 26.8274 32.4568 26.8194C32.4618 26.8111 32.4662 26.804 32.4698 26.796C32.4764 26.7811 32.4802 26.7624 32.4731 26.7298L32.3684 26.44L32.377 26.4351C32.3889 26.4283 32.4022 26.4183 32.418 26.4062L32.4217 26.4034C32.439 26.3903 32.4587 26.3756 32.4813 26.362ZM32.3971 26.4503L32.4957 26.7233C32.5039 26.7606 32.5001 26.7854 32.4912 26.8055C32.4873 26.8143 32.4825 26.8221 32.4781 26.8294L32.4768 26.8315C32.472 26.8395 32.4675 26.8471 32.464 26.8559C32.3597 27.0723 32.2861 27.3031 32.2461 27.5401C32.2458 27.5895 32.2253 27.6401 32.2028 27.684C32.1926 27.704 32.1818 27.723 32.172 27.7402L32.1688 27.7459C32.1581 27.7647 32.1491 27.7807 32.1436 27.7937L32.1427 27.7953C32.1245 27.8245 32.1199 27.8503 32.1274 27.8755C32.1352 27.9013 32.1562 27.9286 32.1941 27.9591C32.2009 27.9628 32.2124 27.9648 32.2278 27.9635C32.2433 27.9623 32.2612 27.958 32.2789 27.951C32.3149 27.9368 32.3462 27.9131 32.3562 27.8865L32.3633 27.8676L32.3762 27.8831C32.3924 27.9025 32.4188 27.9097 32.4457 27.9036C32.4724 27.8976 32.4986 27.8785 32.5127 27.8468L32.519 27.8326L32.5309 27.8426C32.551 27.8593 32.574 27.8626 32.5976 27.8542C32.6218 27.8456 32.6474 27.8242 32.6699 27.7904L32.677 27.7797L32.687 27.7877C32.7004 27.7984 32.7195 27.796 32.7418 27.7821C32.7636 27.7685 32.7838 27.7464 32.7946 27.7283L32.8002 27.719L32.8099 27.7239C32.8383 27.7381 32.8643 27.7372 32.8841 27.7205C32.9048 27.7031 32.922 27.6661 32.9258 27.6009L32.9259 27.5993L32.9579 27.5033C32.9723 27.4745 32.9805 27.4213 32.9805 27.375C32.9805 27.3459 32.9887 27.3055 33.0015 27.265C33.0144 27.2245 33.0322 27.1828 33.0523 27.1505C33.0577 27.1396 33.0638 27.1282 33.0701 27.1164C33.0871 27.0845 33.1059 27.049 33.1199 27.0106C33.1389 26.9582 33.1479 26.9025 33.1295 26.8475L33.1292 26.8462C33.1187 26.7972 33.1035 26.7731 33.0857 26.7448C33.0844 26.7428 33.0832 26.7407 33.0819 26.7386C33.0621 26.707 33.0404 26.6694 33.0207 26.5919C33.0119 26.5831 33.0028 26.574 32.9936 26.5646C32.95 26.5204 32.9022 26.4719 32.8511 26.431C32.7882 26.3807 32.7222 26.3435 32.6556 26.3398C32.5883 26.3361 32.5359 26.3566 32.4933 26.3821C32.472 26.3949 32.4531 26.409 32.4359 26.4221L32.4318 26.4252C32.4196 26.4344 32.408 26.4433 32.3971 26.4503ZM30.1326 26.9686L30.1405 26.9756C30.1705 27.0018 30.224 27.0325 30.2806 27.0608C30.3369 27.089 30.3952 27.1142 30.434 27.1297L30.4499 27.1361L30.4383 27.1486C30.2394 27.3634 29.9426 27.3576 29.812 27.227L29.7986 27.2136L29.8166 27.2076C29.8614 27.1927 29.9128 27.1587 29.9663 27.1158C30.0175 27.0749 30.0696 27.0268 30.1186 26.9815L30.1326 26.9686ZM30.1332 27C30.0846 27.0448 30.0324 27.093 29.981 27.1342C29.9336 27.172 29.8862 27.2046 29.8422 27.223C29.9656 27.328 30.2251 27.3321 30.4093 27.145C30.371 27.1292 30.3198 27.1066 30.2702 27.0818C30.218 27.0557 30.1664 27.0266 30.1332 27Z" fill="black"/>
<path d="M31.0938 12.8906C31.1484 12.5781 31.375 12.5781 31.5156 12.6172C31.5781 12.625 31.7188 12.6406 31.8516 12.6016C32.125 12.5312 32.3203 12.625 32.2969 12.8828C32.375 12.9375 32.4453 13.0625 32.4297 13.1719C32.4141 13.2813 32.4375 13.3281 32.5391 13.3359C32.6406 13.3516 32.8516 13.4766 32.7109 13.6484C32.8438 13.7266 32.9453 13.9375 32.875 14.0703C32.8047 14.2109 32.5859 14.2344 32.5 14.1094C32.3984 14.1563 32.2344 14.1641 32.1406 14.0625C32.0703 14.1406 31.9062 14.1328 31.8672 14.0625C31.8359 13.9844 31.7891 13.9531 31.7188 13.9297C31.6406 13.9062 31.6406 13.7109 31.75 13.6875C31.7344 13.625 31.7422 13.5625 31.7656 13.5312C31.7969 13.5 31.7734 13.4375 31.7109 13.3906C31.6484 13.3359 31.5938 13.1562 31.6562 13.0469C31.5469 13.0859 31.3125 12.9766 31.2656 12.9062C31.2109 12.8281 31.1406 12.8281 31.1016 12.8906H31.0938Z" fill="#870F00"/>
<path fill-rule="evenodd" clip-rule="evenodd" d="M31.8547 12.6129C31.7194 12.6526 31.5767 12.6366 31.5142 12.6288L31.5125 12.6285C31.4433 12.6093 31.3546 12.6002 31.277 12.6329C31.2062 12.6627 31.1425 12.7284 31.1121 12.8592C31.1309 12.8414 31.1538 12.8324 31.1785 12.834C31.2126 12.8363 31.2467 12.8588 31.2752 12.8995C31.2856 12.9151 31.3075 12.9342 31.3374 12.9535C31.367 12.9726 31.4034 12.9913 31.4419 13.0067C31.4803 13.0221 31.5204 13.034 31.5574 13.0397C31.5947 13.0454 31.6276 13.0447 31.6523 13.0358L31.6821 13.0252L31.6664 13.0527C31.6372 13.1039 31.6348 13.1729 31.6482 13.2369C31.6616 13.3008 31.6899 13.3564 31.7183 13.3815C31.7507 13.4059 31.7737 13.4348 31.7844 13.4626C31.795 13.4902 31.794 13.5188 31.7746 13.5389C31.7648 13.5523 31.7576 13.5732 31.7548 13.5989C31.752 13.6248 31.7539 13.6547 31.7614 13.6847L31.7643 13.6964L31.7525 13.699C31.7053 13.7091 31.6795 13.7569 31.6758 13.8094C31.6739 13.8353 31.6776 13.8607 31.6861 13.8807C31.6946 13.9008 31.7071 13.914 31.7221 13.9185C31.7579 13.9304 31.7891 13.9448 31.8152 13.9666C31.8411 13.9884 31.8616 14.0173 31.8778 14.0574C31.886 14.0718 31.901 14.0838 31.9211 14.0924C31.9415 14.1011 31.9663 14.106 31.9924 14.1064C32.045 14.1074 32.0998 14.0904 32.1319 14.0547L32.1405 14.0451L32.1492 14.0546C32.1936 14.1026 32.2549 14.1252 32.3183 14.1299C32.3816 14.1346 32.4461 14.1214 32.4951 14.0987L32.5041 14.0946L32.5097 14.1027C32.5496 14.1609 32.6211 14.1853 32.6921 14.1778C32.7632 14.1703 32.8315 14.1311 32.8645 14.0651C32.8974 14.003 32.8908 13.9208 32.8583 13.8434C32.8259 13.7662 32.7688 13.6961 32.705 13.6585L32.6932 13.6516L32.7019 13.641C32.7356 13.5997 32.7474 13.5624 32.746 13.5298C32.7445 13.497 32.7297 13.4673 32.707 13.4413C32.6613 13.3891 32.5862 13.3552 32.5377 13.3476C32.4859 13.3435 32.4501 13.3293 32.4305 13.2982C32.4115 13.268 32.4102 13.2251 32.4181 13.1702C32.4255 13.1185 32.4126 13.0623 32.3879 13.012C32.3632 12.9617 32.3273 12.9184 32.2902 12.8924L32.2846 12.8885L32.2852 12.8818C32.2966 12.7562 32.2548 12.6733 32.1796 12.6293C32.1034 12.5846 31.9899 12.5781 31.8547 12.6129ZM32.3091 12.8772C32.3191 12.7485 32.275 12.6579 32.1915 12.609C32.1076 12.5599 31.9868 12.5547 31.8486 12.5902C31.719 12.6284 31.5808 12.6135 31.5179 12.6057C31.4466 12.586 31.3521 12.5758 31.2679 12.6113C31.1824 12.6473 31.1101 12.7293 31.0822 12.8886L31.0798 12.9023H31.1081L31.1115 12.8968C31.1293 12.8683 31.1529 12.8558 31.177 12.8574C31.2014 12.859 31.2298 12.8756 31.256 12.9129C31.2691 12.9325 31.2941 12.9535 31.3247 12.9732C31.3557 12.9932 31.3935 13.0126 31.4331 13.0285C31.4728 13.0443 31.5147 13.0568 31.5539 13.0629C31.5825 13.0672 31.6102 13.0683 31.6348 13.0643C31.6127 13.1185 31.6131 13.1834 31.6252 13.2417C31.6392 13.3083 31.6693 13.3697 31.7032 13.3994C31.7332 13.4219 31.7537 13.4482 31.7625 13.471C31.7713 13.4939 31.7685 13.5118 31.7573 13.523L31.7563 13.5242C31.7428 13.5421 31.7346 13.5678 31.7315 13.5964C31.7288 13.6219 31.7301 13.6504 31.7361 13.6792C31.6817 13.6972 31.6562 13.7545 31.6524 13.8078C31.6503 13.8366 31.6544 13.8659 31.6645 13.8898C31.6745 13.9136 31.6912 13.9336 31.7152 13.9409C31.7496 13.9523 31.7773 13.9654 31.8001 13.9846C31.8228 14.0036 31.8413 14.0293 31.8563 14.0669L31.8569 14.0682C31.8684 14.0887 31.8884 14.1039 31.9119 14.1139C31.9355 14.124 31.9634 14.1294 31.992 14.1299C32.0446 14.1308 32.1021 14.1153 32.1406 14.0793C32.1891 14.1267 32.2528 14.1485 32.3165 14.1533C32.3803 14.158 32.4448 14.1458 32.4961 14.1239C32.5429 14.185 32.6203 14.2089 32.6946 14.2011C32.7719 14.193 32.8481 14.1502 32.8854 14.0757C32.9228 14.005 32.9138 13.9151 32.8799 13.8343C32.8478 13.7578 32.7924 13.6871 32.7282 13.6454C32.7587 13.6045 32.771 13.5653 32.7694 13.5288C32.7677 13.4893 32.7498 13.4546 32.7246 13.4259C32.6747 13.3688 32.594 13.3325 32.5408 13.3244C32.4913 13.3205 32.464 13.3074 32.4503 13.2857C32.4362 13.2632 32.4335 13.228 32.4413 13.1735C32.4495 13.1159 32.4351 13.0549 32.409 13.0017C32.384 12.9508 32.348 12.9061 32.3091 12.8772Z" fill="black"/>
<path fill-rule="evenodd" clip-rule="evenodd" d="M31.2408 12.8503C31.2419 12.8611 31.2471 12.872 31.2579 12.882L31.2421 12.8992C31.2275 12.8858 31.2193 12.8698 31.2175 12.8527C31.2157 12.8358 31.2204 12.8188 31.2297 12.8032C31.2482 12.7722 31.2858 12.7456 31.3347 12.7319C31.4332 12.7042 31.5799 12.7275 31.7267 12.8742C31.7514 12.8951 31.797 12.9084 31.8433 12.9142C31.8661 12.917 31.8884 12.9179 31.9073 12.9172C31.9265 12.9165 31.9409 12.9141 31.9488 12.911L31.9575 12.9328C31.9458 12.9374 31.928 12.9399 31.9082 12.9407C31.8879 12.9414 31.8644 12.9404 31.8403 12.9374C31.793 12.9315 31.7412 12.9175 31.7111 12.8917C31.569 12.7496 31.43 12.7294 31.3411 12.7544C31.2962 12.7671 31.2645 12.7908 31.2498 12.8152C31.2425 12.8274 31.2396 12.8393 31.2408 12.8503ZM31.8786 13.0496C31.8065 13.0354 31.7243 13.0429 31.6589 13.0583L31.6536 13.0355C31.721 13.0196 31.8068 13.0115 31.8831 13.0266C31.9596 13.0417 32.0285 13.0805 32.0578 13.1599C32.0727 13.1971 32.0905 13.2181 32.1096 13.2318C32.1284 13.2453 32.1492 13.2524 32.1729 13.2604C32.1738 13.2607 32.1747 13.261 32.1757 13.2614C32.2001 13.2697 32.227 13.2792 32.2537 13.2985C32.2805 13.3179 32.3066 13.3467 32.3307 13.393C32.3774 13.4864 32.4391 13.5824 32.5055 13.6375C32.5387 13.6649 32.572 13.6814 32.6045 13.6834C32.6364 13.6853 32.6694 13.6734 32.7027 13.6402L32.7192 13.6567C32.6822 13.6938 32.6429 13.7092 32.603 13.7068C32.5637 13.7044 32.5258 13.6847 32.4906 13.6555C32.4203 13.5973 32.3569 13.4979 32.3099 13.4038C32.2872 13.3603 32.2634 13.3344 32.24 13.3175C32.2164 13.3004 32.1925 13.2918 32.1681 13.2836C32.1669 13.2831 32.1656 13.2827 32.1644 13.2823C32.1415 13.2745 32.1177 13.2665 32.0959 13.2508C32.0726 13.2341 32.0523 13.2092 32.036 13.1684C32.0106 13.0994 31.9505 13.0638 31.8786 13.0496ZM32.0888 13.6804C32.086 13.7261 32.0939 13.7692 32.1182 13.797L32.1225 13.8019L32.1205 13.8082C32.1075 13.8493 32.1034 13.8928 32.1086 13.9356C32.1138 13.9784 32.1281 14.0196 32.1506 14.0564L32.1306 14.0686C32.1064 14.029 32.0909 13.9846 32.0853 13.9384C32.08 13.8944 32.0837 13.8498 32.0963 13.8073C32.0695 13.7728 32.0626 13.7247 32.0655 13.679C32.0685 13.6305 32.0826 13.5821 32.0989 13.5494L32.1199 13.5599C32.105 13.5897 32.0917 13.6351 32.0888 13.6804ZM30.9158 13.6585L30.8377 13.6116L30.8498 13.5915L30.9279 13.6384L30.9158 13.6585ZM31.7535 13.7406C31.744 13.7222 31.7383 13.7037 31.7383 13.6875H31.7617C31.7617 13.6986 31.7658 13.7133 31.7743 13.7298C31.7828 13.7462 31.7953 13.7636 31.8111 13.7799C31.843 13.8127 31.8876 13.8404 31.9392 13.8478L31.9358 13.871C31.878 13.8627 31.8289 13.8319 31.7943 13.7963C31.777 13.7784 31.7631 13.7592 31.7535 13.7406ZM30.7826 13.7988L30.7956 13.7793L30.8418 13.8101C30.871 13.8245 30.9155 13.832 30.9453 13.832V13.8555C30.9128 13.8555 30.864 13.8475 30.8307 13.8308L30.7826 13.7988ZM32.4725 13.8613C32.4569 13.9549 32.4506 14.029 32.5097 14.1027L32.4909 14.1167C32.4249 14.0342 32.4337 13.9513 32.4494 13.8574L32.4725 13.8613ZM31.3718 14.219C31.3198 14.2479 31.2601 14.281 31.1735 14.2929L31.1703 14.2696C31.2525 14.2584 31.3089 14.2271 31.361 14.1981L31.3635 14.1968C31.4159 14.1676 31.4656 14.1404 31.532 14.1446L31.5305 14.1679C31.4719 14.1643 31.4278 14.1878 31.3748 14.2173C31.3738 14.2178 31.3728 14.2184 31.3718 14.219Z" fill="black"/>
<path fill-rule="evenodd" clip-rule="evenodd" d="M31.885 12.676C32.041 12.7051 32.1861 12.7763 32.3047 12.8819L32.2891 12.8994C32.1737 12.7966 32.0325 12.7273 31.8807 12.699L31.885 12.676ZM31.8634 13.3449C31.8422 13.3004 31.832 13.2518 31.832 13.2109H31.8555C31.8555 13.2482 31.8648 13.2934 31.8846 13.3348C31.9044 13.3762 31.9341 13.4131 31.9744 13.435L31.9772 13.4366L31.9788 13.4393C32.0016 13.4773 32.0841 13.5971 32.2568 13.5821L32.2588 13.6054C32.0762 13.6213 31.9866 13.497 31.9603 13.454C31.9161 13.429 31.8843 13.3885 31.8634 13.3449ZM31.0041 16.377C30.9332 15.9677 31.0277 15.6754 31.1859 15.4618L31.2048 15.4756C31.0506 15.6838 30.9574 15.9697 31.0272 16.3729C31.0662 16.572 31.1133 16.823 31.1133 17.0576C31.1133 17.2919 31.0664 17.5131 30.9141 17.6494L30.8984 17.6319C31.043 17.5025 31.0898 17.2901 31.0898 17.0576C31.0898 16.8255 31.0432 16.5763 31.0041 16.377ZM32.0197 18.3916C32.141 18.3828 32.2672 18.3946 32.3698 18.4183L32.3646 18.4411C32.2641 18.4179 32.1403 18.4063 32.0214 18.415C31.9023 18.4237 31.7895 18.4527 31.7099 18.5095C31.6164 18.5674 31.509 18.6011 31.3991 18.6067C31.2893 18.6122 31.1798 18.5899 31.0808 18.5418L31.0911 18.5207C31.1865 18.5671 31.292 18.5886 31.398 18.5833C31.5038 18.5779 31.6065 18.5459 31.6966 18.4902C31.7811 18.43 31.8987 18.4005 32.0197 18.3916Z" fill="black"/>
<path fill-rule="evenodd" clip-rule="evenodd" d="M32.0776 18.4101L32.0781 18.3867C32.0855 18.3867 32.0927 18.3871 32.0998 18.3878C32.1352 18.39 32.1693 18.3941 32.2012 18.4067C32.24 18.422 32.2748 18.4494 32.3058 18.4986C32.367 18.596 32.414 18.7802 32.4492 19.1316C32.4889 19.5063 32.5574 19.7064 32.6402 19.9482C32.671 20.0382 32.7038 20.1339 32.7378 20.2466C32.9023 20.7795 32.9434 21.4568 32.9639 22.0719C32.9674 22.1789 32.9704 22.284 32.9732 22.3862C32.9786 22.578 32.9837 22.7593 32.9921 22.9235C33.0049 23.1752 33.0254 23.3849 33.066 23.5281L33.0434 23.5345C33.002 23.3885 32.9815 23.1763 32.9686 22.9247C32.9603 22.7603 32.9552 22.5784 32.9498 22.3865C32.9469 22.2844 32.944 22.1794 32.9404 22.0727C32.9199 21.4573 32.8789 20.783 32.7154 20.2535C32.6818 20.1421 32.6492 20.0469 32.6185 19.9572C32.5354 19.7146 32.4659 19.5116 32.4258 19.134C32.3907 18.7823 32.3439 18.6032 32.286 18.5111C32.2578 18.4664 32.2273 18.4425 32.1942 18.4291C32.2158 18.4484 32.2345 18.4747 32.2499 18.5088C32.2892 18.5954 32.3086 18.7343 32.3008 18.9457L32.2774 18.9449C32.2851 18.7344 32.2655 18.5999 32.2286 18.5185C32.2102 18.478 32.1878 18.4511 32.1628 18.4343C32.1432 18.4211 32.1215 18.4138 32.098 18.4112C32.0913 18.4108 32.0845 18.4105 32.0776 18.4101ZM31.7193 18.5401C31.7653 18.4593 31.8351 18.4186 31.9277 18.4025L31.9317 18.4256C31.8445 18.4408 31.7815 18.4782 31.7397 18.5517C31.6973 18.6261 31.6758 18.7389 31.6758 18.9062C31.6758 19.01 31.6688 19.1304 31.6611 19.2611C31.6567 19.3375 31.652 19.4174 31.6484 19.4995C31.6387 19.7229 31.6368 19.9643 31.6679 20.2016L31.6446 20.2046C31.6133 19.9654 31.6152 19.7224 31.625 19.4985C31.6286 19.4154 31.6333 19.3352 31.6378 19.2587C31.6454 19.1285 31.6523 19.0094 31.6523 18.9062C31.6523 18.7377 31.6738 18.6199 31.7193 18.5401ZM31.5709 18.5503C31.5803 18.548 31.5895 18.5458 31.5985 18.5434L31.6046 18.566C31.5945 18.5687 31.5847 18.5711 31.5751 18.5734C31.5558 18.5782 31.5374 18.5827 31.5196 18.5888C31.4934 18.5979 31.4701 18.61 31.4509 18.6302C31.4124 18.6705 31.3867 18.7462 31.3945 18.9057L31.3711 18.9068C31.3633 18.7459 31.3884 18.6616 31.4339 18.614C31.4566 18.5902 31.4837 18.5764 31.5119 18.5667C31.5308 18.5602 31.551 18.5552 31.5709 18.5503ZM31.0572 18.6619C31.0232 18.7241 31.0039 18.8138 31.0039 18.9062H30.9805C30.9805 18.8112 31.0002 18.7173 31.0366 18.6506C31.0548 18.6173 31.0775 18.5901 31.1047 18.5733C31.1322 18.5563 31.1637 18.5503 31.1982 18.5589L31.1925 18.5817C31.1644 18.5747 31.1393 18.5794 31.117 18.5932C31.0944 18.6072 31.0741 18.6308 31.0572 18.6619ZM31.9969 22.9255C32.4644 21.6894 32.4783 20.3274 32.0358 19.082L32.0579 19.0742C32.5017 20.3235 32.4884 21.6895 32.0203 22.9298C32.1746 23.3602 32.3301 23.7415 32.4646 24.0714C32.4931 24.1412 32.5206 24.2087 32.547 24.2739C32.6982 24.6476 32.8121 24.9458 32.8475 25.1622L32.8244 25.166C32.7895 24.9527 32.6768 24.6571 32.5253 24.2827C32.4989 24.2176 32.4714 24.1502 32.443 24.0804C32.308 23.7494 32.1517 23.3662 31.9968 22.9336L31.9953 22.9296L31.9969 22.9255ZM31.0849 19.959C31.0761 20.0682 31.0505 20.2056 31.0114 20.3776C30.914 20.7711 30.9201 20.9747 30.9422 21.1065C30.9478 21.1395 30.9543 21.1682 30.9607 21.1945C30.9617 21.199 30.9628 21.2034 30.9639 21.2078C30.969 21.2289 30.9738 21.2489 30.9775 21.2682C30.9864 21.3155 30.9885 21.3604 30.9722 21.4173L30.9497 21.4108C30.9647 21.3583 30.9628 21.3173 30.9544 21.2726C30.9509 21.2538 30.9462 21.2346 30.9411 21.2135C30.9401 21.2091 30.939 21.2046 30.9379 21.2C30.9315 21.1735 30.9248 21.1442 30.9191 21.1103C30.8963 20.9746 30.8907 20.7678 30.9886 20.3723C31.0276 20.2006 31.0528 20.0646 31.0616 19.9571C31.0703 19.8493 31.0623 19.7717 31.0363 19.7159L31.0575 19.706C31.0861 19.7673 31.0938 19.8499 31.0849 19.959Z" fill="black"/>
<path fill-rule="evenodd" clip-rule="evenodd" d="M31.0399 20.4958C31.0221 20.3764 31.0154 20.2672 31.0354 20.1771L31.0583 20.1822C31.0393 20.2679 31.0453 20.3736 31.0631 20.4923C31.0757 20.5767 31.0942 20.6669 31.1133 20.7605C31.121 20.7984 31.1289 20.8368 31.1365 20.8757C31.1892 21.1439 31.231 21.4302 31.1438 21.6681L31.1218 21.66C31.2065 21.4291 31.1663 21.1491 31.1135 20.8802C31.106 20.8418 31.0982 20.8036 31.0904 20.7658C31.0713 20.672 31.0527 20.5809 31.0399 20.4958ZM30.7233 22.214C30.7073 22.0561 30.6914 21.8991 30.6914 21.7578H30.7148C30.7148 21.8978 30.7306 22.0536 30.7466 22.2117C30.7484 22.2293 30.7501 22.2469 30.7519 22.2645C30.7695 22.4401 30.7852 22.6168 30.7773 22.774C30.7653 23.0087 30.8373 23.1434 30.9368 23.3298C30.9648 23.3822 30.995 23.4387 31.0261 23.5026C31.5493 24.549 31.9103 25.3016 31.8555 26.2816C31.8555 26.3112 31.857 26.3462 31.8586 26.3848C31.8595 26.4044 31.8603 26.425 31.8611 26.4462C31.8633 26.5092 31.8643 26.5779 31.8593 26.6444C31.8544 26.7109 31.8435 26.7759 31.8217 26.8316C31.7998 26.8872 31.7667 26.9342 31.7168 26.9632L31.705 26.943C31.749 26.9174 31.7793 26.8754 31.7999 26.823C31.8205 26.7704 31.8311 26.708 31.836 26.6427C31.8408 26.5774 31.8398 26.5098 31.8377 26.4471C31.8369 26.4263 31.8361 26.406 31.8352 26.3865C31.8336 26.3474 31.832 26.3114 31.832 26.2812C31.8865 25.3082 31.5287 24.5603 31.0051 23.5131C30.9749 23.4509 30.9452 23.3953 30.9174 23.3433C30.817 23.1557 30.7415 23.0145 30.7539 22.7728C30.7617 22.6176 30.7462 22.4427 30.7286 22.2668C30.7268 22.2492 30.725 22.2316 30.7233 22.214ZM31.0712 26.325C31.0194 26.6718 30.9489 26.9561 30.9171 27.0356C30.8817 27.1182 30.8496 27.1672 30.8184 27.1952C30.7865 27.2239 30.7562 27.2305 30.7266 27.2305V27.207C30.7517 27.207 30.776 27.2019 30.8027 27.1778C30.8301 27.1532 30.8605 27.1082 30.8954 27.0268C30.9262 26.9498 30.9963 26.6679 31.048 26.3215C31.0997 25.9752 31.1327 25.5663 31.0899 25.2359L31.1132 25.2329C31.1564 25.5665 31.123 25.9779 31.0712 26.325ZM31.0905 26.9492C31.1989 26.6404 31.2335 26.3105 31.1915 25.9859L31.2147 25.9829C31.2572 26.3111 31.2222 26.6447 31.1126 26.957L31.0905 26.9492Z" fill="black"/>
<path fill-rule="evenodd" clip-rule="evenodd" d="M29.3055 12.85L29.6649 12.5843L29.6788 12.6032L29.3195 12.8688L29.3055 12.85ZM29.7147 12.6852C29.7345 12.672 29.751 12.6629 29.7633 12.6604L29.7679 12.6834C29.7607 12.6848 29.7479 12.6913 29.7277 12.7047C29.708 12.7178 29.6829 12.7364 29.6517 12.7603C29.6283 12.7781 29.6016 12.799 29.5713 12.8226C29.5208 12.8619 29.4606 12.9089 29.3899 12.9625L29.3757 12.9438C29.4464 12.8902 29.5062 12.8436 29.5565 12.8044C29.5868 12.7808 29.6137 12.7598 29.6374 12.7417C29.6687 12.7177 29.6943 12.6987 29.7147 12.6852ZM29.0855 12.9058L29.2105 12.7808L29.2266 12.7969L29.102 12.9223L29.0855 12.9058ZM29.6273 12.905C29.6836 12.8584 29.7358 12.8181 29.7769 12.8016L29.7856 12.8234C29.7486 12.8382 29.6992 12.8759 29.6422 12.9231C29.6271 12.9356 29.6115 12.9487 29.5956 12.9621C29.5521 12.9987 29.5061 13.0374 29.4602 13.0719L29.4461 13.0531C29.4915 13.0191 29.5367 12.981 29.58 12.9446C29.5961 12.9311 29.6119 12.9178 29.6273 12.905ZM28.4463 19.8821C28.4477 19.9231 28.4492 19.9694 28.4492 20.0234H28.4258C28.4258 19.9698 28.4242 19.9239 28.4229 19.8829C28.4227 19.8778 28.4225 19.8728 28.4224 19.8678C28.4209 19.8232 28.4199 19.7841 28.4219 19.7474C28.4259 19.6733 28.442 19.6091 28.4898 19.5254L28.5102 19.5371C28.4642 19.6175 28.4491 19.6782 28.4453 19.7487C28.4434 19.7842 28.4443 19.8223 28.4458 19.867C28.446 19.872 28.4461 19.877 28.4463 19.8821ZM28.5856 19.934C28.5845 19.9592 28.5834 19.9865 28.582 20.0162L28.5586 20.0151C28.5599 19.9858 28.5611 19.9587 28.5622 19.9336C28.5674 19.8124 28.5706 19.7379 28.5813 19.6852C28.5879 19.6528 28.5974 19.6279 28.6121 19.605C28.6267 19.5822 28.6461 19.5619 28.6717 19.5383L28.6876 19.5555C28.6625 19.5787 28.6448 19.5975 28.6318 19.6177C28.619 19.6377 28.6104 19.6597 28.6043 19.6898C28.5939 19.7406 28.5908 19.8126 28.5856 19.934ZM28.7457 19.9265C28.7459 19.9378 28.7461 19.9492 28.7461 19.9609H28.7227C28.7227 19.95 28.7225 19.9391 28.7223 19.9281C28.7216 19.8888 28.7209 19.8481 28.7287 19.8036C28.7388 19.7461 28.763 19.682 28.8185 19.6027L28.8377 19.6161C28.7839 19.693 28.7612 19.7539 28.7518 19.8077C28.7444 19.8498 28.745 19.8875 28.7457 19.9265ZM32.4716 25.4766C32.3353 25.0701 32.1931 24.6459 32.0369 24.3969L32.0568 24.3844C32.2145 24.6359 32.3575 25.0625 32.4932 25.4674C32.4995 25.4862 32.5058 25.5049 32.5121 25.5236C32.5829 25.7346 32.6519 25.9374 32.7202 26.1045C32.7887 26.2721 32.8559 26.4018 32.9223 26.4683L32.9058 26.4848C32.8355 26.4146 32.7669 26.2807 32.6985 26.1133C32.6299 25.9454 32.5606 25.742 32.4899 25.5311C32.4838 25.5129 32.4777 25.4948 32.4716 25.4766ZM31.5433 26.4815C31.6131 26.2024 31.6133 25.8058 31.5353 25.3692L31.5584 25.3651C31.6367 25.8036 31.6369 26.2038 31.5661 26.4872L31.5433 26.4815ZM32.3411 26.2004C32.3433 26.2227 32.3454 26.2443 32.3476 26.2643L32.3243 26.2669C32.322 26.2462 32.3199 26.2243 32.3177 26.2016C32.3124 26.1468 32.3067 26.088 32.297 26.0323C32.2834 25.9533 32.2623 25.8841 32.2257 25.8438L32.243 25.8281C32.2846 25.8737 32.3065 25.9491 32.3201 26.0283C32.3299 26.0849 32.3358 26.1452 32.3411 26.2004ZM31.3684 26.6318C31.3625 26.5753 31.3572 26.5239 31.3555 26.4849L31.3789 26.4839C31.3806 26.5221 31.3858 26.5726 31.3917 26.6292C31.3926 26.6384 31.3936 26.6478 31.3946 26.6572C31.4016 26.7249 31.4087 26.799 31.4111 26.8687C31.4136 26.9383 31.4114 27.0045 31.3995 27.0561C31.3877 27.107 31.3652 27.1481 31.3235 27.1597L31.3172 27.1371C31.3457 27.1292 31.3652 27.1 31.3766 27.0508C31.3879 27.0023 31.3901 26.9386 31.3877 26.8696C31.3853 26.8007 31.3782 26.7273 31.3713 26.6596C31.3703 26.6502 31.3693 26.6409 31.3684 26.6318ZM32.8001 27.7201C32.8015 27.7221 32.8027 27.7227 32.8047 27.7227V27.7461C32.795 27.7461 32.7864 27.7418 32.7807 27.7332C32.7754 27.7254 32.773 27.7149 32.7725 27.7027C32.7714 27.6781 32.7778 27.6414 32.7935 27.5903L32.8159 27.5972C32.8004 27.6476 32.795 27.6812 32.7959 27.7016C32.7963 27.7119 32.7983 27.7175 32.8001 27.7201ZM32.665 27.7418C32.6659 27.7672 32.6749 27.7814 32.6849 27.7864L32.6744 27.8074C32.6533 27.7968 32.6427 27.7719 32.6416 27.7426C32.6405 27.7128 32.649 27.6757 32.6692 27.6354L32.6902 27.6459C32.6713 27.6836 32.6641 27.7169 32.665 27.7418ZM32.528 27.8358C32.5293 27.84 32.5307 27.8422 32.5317 27.8433L32.5152 27.8598C32.5103 27.855 32.5074 27.8487 32.5055 27.8422C32.5036 27.8357 32.5027 27.8282 32.5023 27.8203C32.5017 27.8045 32.5035 27.7855 32.507 27.7656C32.514 27.7256 32.528 27.6797 32.544 27.6437L32.5654 27.6532C32.5502 27.6875 32.5368 27.7315 32.5301 27.7696C32.5268 27.7887 32.5252 27.8058 32.5257 27.8193C32.526 27.8261 32.5268 27.8316 32.528 27.8358ZM32.3657 27.861C32.3681 27.8718 32.3718 27.8787 32.3755 27.8823L32.3589 27.8989C32.3509 27.8909 32.3458 27.8792 32.3428 27.8661C32.3398 27.8528 32.3388 27.837 32.3399 27.8196C32.3419 27.7848 32.3521 27.7424 32.3721 27.6983L32.3935 27.708C32.3745 27.7498 32.3651 27.7894 32.3633 27.821C32.3623 27.8368 32.3633 27.8503 32.3657 27.861Z" fill="black"/>
<path d="M31.0312 13.1797C31.0938 13.2578 31.1641 13.2578 31.1719 13.3125L31.2031 13.3906H31.1562L31.0469 13.3828C31.0156 13.3828 30.9766 13.3438 31 13.3359C31.0234 13.3359 31.0234 13.3281 31.0156 13.3125L31.0391 13.2656C31.0547 13.2578 31.0391 13.2656 31.0391 13.2344C31.0234 13.2109 31.0156 13.1562 31.0312 13.1797ZM31.0703 13.1016C31.169 13.1115 31.262 13.1526 31.3359 13.2188C31.3906 13.2812 31.3438 13.2656 31.3203 13.2656C31.2891 13.2656 31.2422 13.25 31.2109 13.2188C31.1875 13.1875 31.1016 13.1406 31.0547 13.1328C31.0391 13.125 31.0156 13.0938 31.0703 13.1016Z" fill="black"/>
<path d="M0.015625 0H20.0156V20H0.015625V0Z" fill="#012169"/>
<path d="M20.0156 0V2.5L12.5938 10L20.0156 17.3047V20H17.3984L9.9375 12.6562L2.67188 20H0.015625V17.3438L7.28125 10.0391L0.015625 2.89062V0H2.4375L9.9375 7.34375L17.2031 0H20.0156Z" fill="white"/>
<path d="M7.20312 12.6562L7.63281 13.9844L1.65625 20H0.015625V19.8828L7.20312 12.6562ZM12.0469 12.1875L14.1562 12.5L20.0156 18.2422V20L12.0469 12.1875ZM20.0156 0L12.5156 7.65625L12.3594 5.9375L18.2188 0H20.0156ZM0.015625 0.0390625L7.55469 7.42188L5.25 7.10938L0.015625 1.91406V0.0390625Z" fill="#C8102E"/>
<path d="M6.89062 0V20H13.1406V0H6.89062ZM0.015625 6.875V13.125H20.0156V6.875H0.015625Z" fill="white"/>
<path d="M0.015625 8.125V11.875H20.0156V8.125H0.015625ZM8.14062 0V20H11.8906V0H8.14062Z" fill="#C8102E"/>
</g>
<defs>
<clipPath id="clip0_17522_60687">
<path d="M0 4C0 1.79086 1.79086 0 4 0H36C38.2091 0 40 1.79086 40 4V36C40 38.2091 38.2091 40 36 40H4C1.79086 40 0 38.2091 0 36V4Z" fill="white"/>
</clipPath>
</defs>
</svg>
