<svg width="40" height="40" viewBox="0 0 40 40" fill="none" xmlns="http://www.w3.org/2000/svg">
<g clip-path="url(#clip0_17522_60672)">
<path d="M40 0H0V40H40V0Z" fill="#C1272D"/>
<path fill-rule="evenodd" clip-rule="evenodd" d="M20.0006 13.373L21.4855 17.9492H26.3L22.4038 20.7792L23.8892 25.3567L19.9974 22.5271L16.1018 25.3567L17.5915 20.7778L13.7013 17.9492H18.5118L20.0006 13.373ZM18.1941 18.9258H16.705L17.9092 19.8013L18.1941 18.9258ZM18.7397 20.4052L19.221 18.9258H20.7757L21.256 20.4059L19.9977 21.3199L18.7397 20.4052ZM18.422 21.3816L17.9607 22.7995L19.167 21.9233L18.422 21.3816ZM20.8282 21.9237L22.0327 22.7995L21.573 21.3827L20.8282 21.9237ZM22.0869 19.8024L23.2938 18.9258H21.8024L22.0869 19.8024ZM20.4588 17.9492H19.5387L19.9994 16.5333L20.4588 17.9492Z" fill="#006233"/>
</g>
<defs>
<clipPath id="clip0_17522_60672">
<path d="M0 4C0 1.79086 1.79086 0 4 0H36C38.2091 0 40 1.79086 40 4V36C40 38.2091 38.2091 40 36 40H4C1.79086 40 0 38.2091 0 36V4Z" fill="white"/>
</clipPath>
</defs>
</svg>
