<svg width="40" height="40" viewBox="0 0 40 40" fill="none" xmlns="http://www.w3.org/2000/svg">
<g clip-path="url(#clip0_17522_60694)">
<path d="M0 0H39.9939V39.9939H0V0Z" fill="black"/>
<path fill-rule="evenodd" clip-rule="evenodd" d="M0 0H59.9908V12.4981H0V0Z" fill="#009A00"/>
<path fill-rule="evenodd" clip-rule="evenodd" d="M0 12.4981H59.9908V13.7479H0V12.4981Z" fill="white"/>
<path fill-rule="evenodd" clip-rule="evenodd" d="M0 13.7479H59.9908V26.246H0V13.7479Z" fill="#000001"/>
<path fill-rule="evenodd" clip-rule="evenodd" d="M0 26.246H59.9908V27.4958H0V26.246Z" fill="white"/>
<path fill-rule="evenodd" clip-rule="evenodd" d="M0 27.4958H59.9908V39.9939H0V27.4958Z" fill="#FFCA00"/>
<path fill-rule="evenodd" clip-rule="evenodd" d="M0 0V39.9939L26.254 19.9969L0 0Z" fill="#FF0000"/>
<path fill-rule="evenodd" clip-rule="evenodd" d="M15.5057 26.0121L11.5063 23.0852L7.51498 26.0121L9.06313 21.3032L5.03149 18.4004L9.99847 18.4246L11.5063 13.7076L13.0222 18.4246L17.9811 18.4004L13.9495 21.3032L15.5057 26.0121Z" fill="#FFCA00"/>
<path fill-rule="evenodd" clip-rule="evenodd" d="M8.03103 22.7304H10.9177C11.1515 22.9884 11.6676 23.0932 12.1594 22.7304C13.0625 22.2305 14.8122 22.7304 14.8122 22.7304L15.159 22.3595L14.3204 19.6099L14.014 19.2874C14.014 19.2874 13.3689 18.9003 12.1433 19.0293C10.9177 19.1584 10.4903 18.981 10.4903 18.981C10.4903 18.981 9.40985 19.11 9.11151 19.2712L8.76479 19.618L8.03909 22.7385L8.03103 22.7304Z" fill="white"/>
<path fill-rule="evenodd" clip-rule="evenodd" d="M10.5072 18.94C10.5072 18.9399 10.5073 18.94 10.5072 18.94L10.4903 18.981C10.5073 18.94 10.5072 18.94 10.5072 18.94C10.5078 18.9402 10.5094 18.9408 10.5108 18.9413C10.5137 18.9424 10.5183 18.9441 10.5249 18.9462C10.5379 18.9504 10.5583 18.9566 10.5869 18.9636C10.644 18.9777 10.7338 18.9955 10.862 19.0094C11.1184 19.0373 11.5284 19.0495 12.1387 18.9852C12.757 18.9202 13.23 18.9851 13.5493 19.067C13.7089 19.1079 13.83 19.1531 13.9116 19.1882C13.9524 19.2057 13.9833 19.2208 14.0042 19.2316C14.0147 19.237 14.0226 19.2413 14.028 19.2443C14.0308 19.2458 14.0329 19.247 14.0343 19.2479L14.036 19.2489C14.0361 19.2489 14.0368 19.2493 14.014 19.2874L13.9818 19.3179L13.9863 19.3226C13.9858 19.3223 13.9853 19.3221 13.9848 19.3218C13.9802 19.3192 13.9731 19.3153 13.9635 19.3104C13.9444 19.3005 13.9153 19.2864 13.8765 19.2696C13.7989 19.2362 13.6821 19.1926 13.5272 19.1529C13.2176 19.0735 12.7552 19.0095 12.1479 19.0734C11.5325 19.1382 11.1161 19.1262 10.8524 19.0976C10.7206 19.0833 10.6269 19.0648 10.5656 19.0497C10.535 19.0422 10.5125 19.0354 10.4973 19.0305C10.4924 19.0289 10.4883 19.0275 10.485 19.0263L10.4926 19.0254L10.4955 19.025L10.4903 18.981L10.4851 18.9369C10.4926 18.936 10.5002 18.9371 10.5072 18.94ZM9.13817 19.3073C9.20794 19.271 9.32394 19.2348 9.46327 19.2009C9.60513 19.1665 9.76704 19.1355 9.92025 19.1093C10.0734 19.0832 10.2173 19.0621 10.3229 19.0476C10.3757 19.0403 10.4189 19.0346 10.4489 19.0308C10.4639 19.0289 10.4756 19.0274 10.4835 19.0265L10.485 19.0263M9.13817 19.3073L8.80511 19.6404L8.09681 22.686H10.9177C10.9302 22.686 10.9421 22.6913 10.9505 22.7006C11.167 22.9395 11.6569 23.046 12.1331 22.6947C12.1338 22.6942 12.1346 22.6937 12.1353 22.6932C12.1362 22.6926 12.1371 22.6921 12.1379 22.6916C12.6027 22.4343 13.2784 22.4363 13.8295 22.4989C14.1066 22.5303 14.355 22.5775 14.5342 22.6168C14.6239 22.6364 14.6962 22.6541 14.7463 22.6669C14.7679 22.6724 14.7853 22.6771 14.7982 22.6805L15.1091 22.3479L14.281 19.6329L13.9863 19.3226C13.9879 19.3235 13.989 19.3242 13.9899 19.3246L13.991 19.3253C13.991 19.3253 13.9912 19.3254 14.014 19.2874L14.036 19.2489C14.0395 19.2509 14.0434 19.2539 14.0461 19.2568L14.3525 19.5794C14.3573 19.5843 14.3608 19.5904 14.3628 19.597L15.2014 22.3465C15.206 22.3617 15.2022 22.3782 15.1914 22.3898L14.8446 22.7607C14.8333 22.7728 14.8161 22.7776 14.8001 22.773L14.7989 22.7727L14.7953 22.7717C14.792 22.7708 14.7872 22.7694 14.7808 22.7677C14.7679 22.7642 14.7489 22.7591 14.7243 22.7528C14.6751 22.7403 14.6038 22.7228 14.5152 22.7034C14.3381 22.6646 14.0928 22.618 13.8195 22.587C13.2709 22.5247 12.6217 22.5265 12.1834 22.7678C11.6855 23.1336 11.1548 23.0405 10.8984 22.7747H8.06459C8.0606 22.7775 8.05612 22.7797 8.05128 22.7811C8.03579 22.7855 8.01912 22.7812 8.00773 22.7698L7.99967 22.7617C7.98699 22.7491 7.98319 22.73 7.99006 22.7134C7.99302 22.7063 7.99771 22.7002 8.00353 22.6956L8.72159 19.6079C8.72347 19.5998 8.72757 19.5925 8.73343 19.5866L9.08015 19.2399C9.08318 19.2368 9.08664 19.2343 9.09042 19.2322C9.17052 19.1889 9.29896 19.1496 9.44235 19.1148C9.587 19.0796 9.75114 19.0482 9.90534 19.0219C10.0596 18.9956 10.2045 18.9744 10.3108 18.9597C10.3639 18.9524 10.4075 18.9467 10.4377 18.9428C10.4528 18.9409 10.4647 18.9394 10.4727 18.9384L10.4819 18.9373L10.4851 18.9369C10.4851 18.9369 10.4851 18.9369 10.4903 18.981" fill="black"/>
<path fill-rule="evenodd" clip-rule="evenodd" d="M10.9576 22.7371C11.1514 22.8677 11.3358 22.9275 11.5196 22.9239C11.704 22.9203 11.8928 22.8528 12.0951 22.7202C11.9602 22.5555 11.7724 22.4265 11.5515 22.3262C11.2142 22.4877 11.026 22.6602 10.9576 22.7371ZM11.4438 22.2806C11.0733 22.4703 10.891 22.6684 10.8562 22.7225C10.8434 22.7424 10.8485 22.7688 10.8677 22.7826C11.087 22.9399 11.3018 23.0169 11.5213 23.0126C11.7403 23.0083 11.9583 22.9233 12.1846 22.7669C12.1946 22.76 12.2013 22.7494 12.2032 22.7375C12.2051 22.7256 12.2022 22.7135 12.1949 22.7038C12.0612 22.525 11.8744 22.3861 11.6572 22.2782C12.1787 22.0538 13.0066 21.873 14.2257 22.0406C14.2499 22.0439 14.2723 22.0269 14.2756 22.0027C14.279 21.9784 14.262 21.956 14.2377 21.9527C12.9483 21.7755 12.0834 21.9828 11.5504 22.2287C11.4653 22.1919 11.3765 22.1592 11.2851 22.1304C10.9106 22.012 10.4879 21.955 10.0918 21.9312C9.69553 21.9074 9.32433 21.9168 9.05232 21.9321C8.91627 21.9397 8.80491 21.9489 8.72749 21.9561C8.68878 21.9597 8.65854 21.9629 8.63794 21.9651C8.62764 21.9662 8.61975 21.9671 8.61441 21.9678L8.60833 21.9685L8.60675 21.9687C8.60672 21.9687 8.60618 21.9687 8.61158 22.0128L8.60675 21.9687C8.58244 21.9717 8.56458 21.9939 8.56757 22.0182C8.57055 22.0425 8.59268 22.0598 8.61699 22.0568L8.61158 22.0128C8.61699 22.0568 8.61698 22.0568 8.61699 22.0568L8.61885 22.0566L8.62463 22.0559C8.62978 22.0553 8.63746 22.0544 8.64755 22.0533C8.66773 22.0511 8.69751 22.048 8.73575 22.0444C8.81223 22.0373 8.92248 22.0282 9.05731 22.0206C9.32705 22.0054 9.69464 21.9962 10.0865 22.0197C10.4787 22.0433 10.8935 22.0996 11.2584 22.2149C11.3219 22.235 11.3839 22.2569 11.4438 22.2806Z" fill="black"/>
<path fill-rule="evenodd" clip-rule="evenodd" d="M11.4942 22.2946L11.5184 19.2628L11.6071 19.2635L11.5829 22.2953L11.4942 22.2946ZM14.4867 21.7237L13.9706 19.3209L14.0573 19.3022L14.5734 21.7051L14.4867 21.7237Z" fill="black"/>
<path fill-rule="evenodd" clip-rule="evenodd" d="M9.14553 19.228C9.16941 19.2334 9.18437 19.2572 9.17894 19.2811L8.89673 20.5228C8.8913 20.5467 8.86754 20.5617 8.84366 20.5562C8.81977 20.5508 8.80481 20.527 8.81024 20.5032L9.09245 19.2614C9.09788 19.2375 9.12164 19.2226 9.14553 19.228Z" fill="black"/>
<path fill-rule="evenodd" clip-rule="evenodd" d="M6.16035 23.061L6.83766 23.8512C6.9183 23.8996 6.99086 23.8996 7.06343 23.8512L8.49064 22.1256C8.51942 22.0927 8.54137 22.0543 8.55521 22.0128C8.56905 21.9713 8.57451 21.9274 8.57127 21.8837L9.3776 21.1581C9.4421 21.1742 9.48242 21.1822 9.53886 21.1822C9.46629 21.158 9.40985 21.1258 9.47436 21.0371L9.65175 20.9L9.79689 21.0774C9.79689 21.0774 9.59531 21.3435 9.57112 21.3435H9.35341L8.92605 21.7225L9.11151 21.8837L9.39372 22.6498L9.73238 22.4079L9.51467 21.6257L9.99847 21.1016L9.81301 20.8194L9.93396 20.6581C9.93396 20.6581 11.6031 21.7064 12.2481 21.4241C12.2643 21.4322 12.2884 20.6743 12.2884 20.6743C12.2884 20.6743 10.5548 20.4969 10.5145 20.1582C10.4742 19.8115 10.9016 19.7712 10.9016 19.7712L10.7161 19.5131L10.7564 19.368L11.0628 19.755L11.7401 19.1664L15.7637 23.7544C15.9814 23.6657 16.0298 23.6093 16.0459 23.3916L12.0949 18.8681L12.4013 18.5455C12.4578 18.481 12.482 18.4488 12.482 18.344L12.9416 17.9408C13.0659 17.9847 13.1713 18.0701 13.2399 18.1827L14.5139 17.1103C14.5462 17.1425 14.651 17.1748 14.7155 17.1345L16.8119 15.1187L14.53 16.7313L14.4494 16.6749C14.4494 16.6104 14.53 16.5942 14.4494 16.4733C14.3607 16.3685 14.2236 16.5781 14.2075 16.5781C14.1914 16.5781 13.8769 16.4652 13.8043 16.3281L13.7882 16.6991L13.1996 17.2393L12.7561 17.2232L12.111 17.844L12.0304 18.0859L12.1352 18.2875C12.1352 18.2875 11.7966 18.5859 11.7966 18.5697C11.7966 18.5455 11.724 18.481 11.7159 18.4649L12.0143 18.2069L12.0546 18.0214L11.9578 17.8682C11.9256 17.8924 11.5547 18.2875 11.5305 18.2472L10.4581 17.0135L10.5145 16.7878L9.82914 16.0459C9.58724 15.9653 9.18408 15.9492 9.10345 16.4894C9.047 16.6184 8.52289 16.5055 8.52289 16.5055L8.24874 16.57L6.66027 18.8197L7.54723 19.8841L9.35341 17.5941L9.40179 16.949L9.78076 17.3683C9.90977 17.3844 10.0307 17.3844 10.1436 17.328L11.216 18.5214L11.0386 18.6987L11.1999 18.8761L11.3773 18.7471L11.4579 18.852C11.3612 18.9003 11.2967 18.9648 11.216 19.0132C11.0628 18.9245 10.9257 18.8036 10.9419 18.6181L10.3371 19.118L10.3129 19.2229L8.52289 20.7065L8.36162 20.7307L8.32131 21.1903L9.49048 20.2227V20.0856L9.61143 20.1824L10.5145 19.4567C10.5145 19.4567 10.579 19.5373 10.5548 19.5373C10.5306 19.5373 9.74851 20.263 9.74851 20.263L9.73238 20.3437L9.5953 20.4646L9.51467 20.4082L8.42613 21.3758H8.26486L7.66012 21.9724C7.50691 21.9886 7.36984 22.0047 7.24083 22.0934L6.16035 23.061Z" fill="black"/>
<path fill-rule="evenodd" clip-rule="evenodd" d="M16.8461 15.0904C16.8609 15.1083 16.8594 15.1345 16.8427 15.1506L14.7462 17.1664C14.744 17.1686 14.7416 17.1705 14.739 17.1721C14.6936 17.2005 14.6384 17.2013 14.5946 17.1932C14.5672 17.1882 14.5394 17.1787 14.5164 17.1662L13.2685 18.2166C13.2586 18.225 13.2455 18.2286 13.2328 18.2265C13.22 18.2244 13.2088 18.2168 13.202 18.2058C13.1432 18.1092 13.055 18.0343 12.9508 17.9917L12.526 18.3643C12.5245 18.41 12.5178 18.4456 12.5033 18.478C12.4871 18.5142 12.4625 18.543 12.4347 18.5748C12.4343 18.5752 12.4339 18.5757 12.4335 18.5761L12.1549 18.8693L16.0793 23.3624C16.0871 23.3713 16.091 23.383 16.0902 23.3949C16.082 23.5051 16.0653 23.5853 16.0152 23.6488C15.966 23.7113 15.8892 23.7512 15.7804 23.7955C15.7629 23.8026 15.7428 23.7979 15.7304 23.7837L11.7359 19.2289L11.0919 19.7885C11.0828 19.7965 11.0708 19.8003 11.0587 19.7992C11.0466 19.7981 11.0356 19.7921 11.0281 19.7826L10.7758 19.4639L10.7645 19.5045L10.9376 19.7453C10.9468 19.7582 10.9485 19.7751 10.9419 19.7895C10.9354 19.804 10.9216 19.8138 10.9058 19.8153L10.9016 19.7712L10.8655 19.797L10.8245 19.7399L10.6801 19.539C10.6722 19.5281 10.6698 19.5142 10.6734 19.5013L10.7137 19.3561C10.7182 19.34 10.7313 19.3278 10.7476 19.3245C10.764 19.3212 10.7808 19.3274 10.7912 19.3405L11.0688 19.6911L11.711 19.1329C11.7295 19.1169 11.7574 19.1188 11.7735 19.1372L15.7761 23.7012C15.8662 23.6628 15.9153 23.6323 15.9456 23.5939C15.9762 23.555 15.9919 23.5024 16.0002 23.4067L12.0615 18.8973C12.0465 18.88 12.047 18.8541 12.0628 18.8375L12.3685 18.5157C12.3968 18.4833 12.4124 18.4639 12.4223 18.4417C12.4319 18.4204 12.4376 18.3931 12.4376 18.344C12.4376 18.3312 12.4431 18.319 12.4527 18.3106L12.9123 17.9075C12.9244 17.8969 12.9412 17.8936 12.9563 17.899C13.0741 17.9405 13.1761 18.0167 13.2492 18.1169L14.4853 17.0764C14.503 17.0615 14.529 17.0626 14.5453 17.0789C14.5527 17.0863 14.5772 17.0998 14.6106 17.106C14.6415 17.1117 14.6694 17.1091 14.6885 17.0989L16.3574 15.4942L14.5556 16.7675C14.5403 16.7783 14.5199 16.7784 14.5046 16.7676L14.424 16.7112C14.4121 16.7029 14.4051 16.6893 14.4051 16.6749C14.4051 16.6488 14.4135 16.6284 14.4212 16.6132C14.4247 16.6061 14.4275 16.601 14.4298 16.5969C14.4333 16.5906 14.4357 16.5863 14.4381 16.5798C14.4406 16.5729 14.4419 16.5658 14.4399 16.5552C14.4377 16.5437 14.4311 16.5263 14.414 16.5002C14.4079 16.4934 14.403 16.4907 14.3995 16.4895C14.3958 16.4882 14.3912 16.4878 14.3848 16.489C14.3704 16.4918 14.3515 16.5023 14.3296 16.5205C14.3084 16.538 14.2888 16.559 14.2723 16.5769C14.271 16.5784 14.2697 16.5798 14.2684 16.5813C14.2619 16.5883 14.2556 16.5952 14.2504 16.6005C14.2473 16.6036 14.2435 16.6073 14.2394 16.6106C14.2374 16.6122 14.2342 16.6145 14.2303 16.6166C14.2272 16.6183 14.2188 16.6225 14.2075 16.6225C14.2023 16.6225 14.1978 16.6215 14.1963 16.6212C14.1941 16.6208 14.1917 16.6202 14.1896 16.6196C14.1854 16.6185 14.1803 16.617 14.1748 16.6152C14.1636 16.6115 14.1489 16.6063 14.1319 16.5997C14.0979 16.5865 14.0534 16.5675 14.0071 16.5441C13.9609 16.5207 13.9118 16.4925 13.8691 16.4605C13.8605 16.4541 13.8521 16.4475 13.8438 16.4406L13.8325 16.701C13.832 16.7127 13.8269 16.7238 13.8182 16.7317L13.2296 17.272C13.221 17.2799 13.2096 17.284 13.198 17.2836L12.7733 17.2682L12.1497 17.8684L12.0989 18.0206C12.099 18.024 12.0987 18.0275 12.0979 18.0309L12.0843 18.0935L12.1746 18.2671C12.184 18.2852 12.1799 18.3073 12.1646 18.3208L12.1499 18.3336C12.1407 18.3418 12.1274 18.3534 12.1115 18.3673C12.0797 18.3951 12.0372 18.4319 11.9948 18.4683C11.9524 18.5047 11.9097 18.5408 11.8774 18.5669C11.8614 18.5799 11.8473 18.5909 11.8369 18.5983C11.8321 18.6018 11.8263 18.6057 11.821 18.6085C11.8192 18.6095 11.8124 18.613 11.8038 18.6142C11.7999 18.6148 11.7869 18.6163 11.7735 18.608C11.76 18.5996 11.7545 18.5871 11.7529 18.577C11.7521 18.5757 11.7509 18.5738 11.749 18.5712C11.7436 18.5637 11.7357 18.5544 11.7264 18.5441C11.7207 18.5378 11.7159 18.5326 11.7111 18.5275C11.7073 18.5234 11.7035 18.5193 11.6992 18.5146C11.6951 18.5101 11.691 18.5055 11.6875 18.5012C11.6846 18.4977 11.6797 18.4916 11.6763 18.4847C11.6672 18.4666 11.6716 18.4446 11.6869 18.4314L11.9741 18.183L11.9908 18.106C11.9855 18.0954 11.9846 18.0832 11.9883 18.0719L12.0041 18.0246L11.9492 17.9377C11.9385 17.9483 11.9261 17.9608 11.9123 17.9746L11.9062 17.9807C11.8676 18.0194 11.8197 18.0675 11.772 18.1137C11.722 18.1622 11.6713 18.2097 11.6311 18.2427C11.6113 18.2589 11.5922 18.2732 11.5761 18.2822C11.5686 18.2864 11.558 18.2916 11.5463 18.2936C11.5353 18.2955 11.511 18.2956 11.4954 18.2745L10.4246 17.0426C10.4151 17.0317 10.4115 17.0168 10.4151 17.0028L10.4657 16.8002L9.80441 16.0845C9.68947 16.0479 9.54504 16.0296 9.42152 16.0763C9.29865 16.1228 9.18581 16.238 9.14731 16.496C9.14673 16.4998 9.14564 16.5036 9.14407 16.5072C9.13121 16.5366 9.10659 16.5553 9.08113 16.5673C9.05569 16.5792 9.02563 16.5862 8.99474 16.5903C8.93286 16.5985 8.85826 16.5962 8.78813 16.59C8.71746 16.5838 8.6489 16.5736 8.59818 16.5649C8.57276 16.5605 8.55172 16.5565 8.53698 16.5537C8.53162 16.5526 8.52709 16.5517 8.52348 16.551L8.27526 16.6094L6.71614 18.8175L7.54628 19.8136L9.3102 17.5773L9.35756 16.9457C9.35889 16.928 9.37063 16.9128 9.38741 16.9071C9.4042 16.9013 9.42279 16.9061 9.43469 16.9193L9.80252 17.3262C9.92213 17.3399 10.0272 17.3366 10.1238 17.2883C10.1416 17.2794 10.1633 17.2835 10.1766 17.2983L11.249 18.4917C11.2648 18.5092 11.2641 18.536 11.2474 18.5527L11.0999 18.7002L11.206 18.8169L11.3512 18.7113C11.3706 18.6971 11.3978 18.701 11.4124 18.7201L11.4931 18.8249C11.5012 18.8354 11.5041 18.849 11.5011 18.8619C11.4982 18.8748 11.4896 18.8857 11.4778 18.8916C11.4329 18.9141 11.395 18.9404 11.3572 18.9683C11.3508 18.973 11.3444 18.9778 11.3379 18.9826C11.3067 19.0058 11.2741 19.0301 11.2388 19.0512C11.225 19.0595 11.2078 19.0597 11.1938 19.0516C11.0634 18.9761 10.9291 18.8691 10.9014 18.7091L10.377 19.1427L10.3561 19.2328C10.354 19.2423 10.3487 19.2508 10.3412 19.257L8.55119 20.7407C8.54497 20.7458 8.53746 20.7492 8.52947 20.7504L8.40275 20.7694L8.37475 21.0885L9.44613 20.2018V20.0856C9.44613 20.0686 9.45591 20.053 9.47127 20.0457C9.48664 20.0383 9.50487 20.0404 9.51819 20.051L9.61137 20.1256L10.4867 19.4221C10.4959 19.4148 10.5077 19.4113 10.5194 19.4126C10.5311 19.4139 10.5418 19.4198 10.5491 19.429L10.5185 19.4535C10.5399 19.4364 10.5464 19.4312 10.5483 19.4297C10.5492 19.429 10.5491 19.429 10.5491 19.429L10.55 19.4301L10.5522 19.4329C10.5541 19.4353 10.5567 19.4387 10.5597 19.4427C10.5657 19.4506 10.5736 19.4616 10.5809 19.4728C10.5876 19.4831 10.596 19.4971 10.6006 19.5101C10.6023 19.515 10.607 19.5289 10.6031 19.5446C10.6007 19.5543 10.5948 19.5652 10.5835 19.5729C10.5792 19.5759 10.5749 19.5779 10.5707 19.5792C10.5701 19.5797 10.5693 19.5803 10.5685 19.5809C10.5623 19.5855 10.5534 19.5927 10.5417 19.6025C10.5185 19.6219 10.4863 19.65 10.4481 19.6839C10.3716 19.7517 10.2718 19.8422 10.1725 19.9329C10.0733 20.0236 9.97485 20.1142 9.90117 20.1822C9.86434 20.2162 9.83371 20.2446 9.81229 20.2644L9.78918 20.2858L9.77587 20.3524C9.77396 20.3619 9.769 20.3705 9.76172 20.3769L9.62465 20.4979C9.60929 20.5114 9.58665 20.5127 9.56987 20.5009L9.51795 20.4646L8.45559 21.4089C8.44747 21.4161 8.43699 21.4201 8.42613 21.4201H8.28306L7.69126 22.004C7.68411 22.0111 7.67476 22.0155 7.66476 22.0165C7.51163 22.0327 7.38613 22.0482 7.26825 22.1284L6.22226 23.0651L6.86649 23.8167C6.89926 23.8353 6.92782 23.8431 6.95357 23.8431C6.97903 23.8431 7.00524 23.8355 7.03359 23.8177L8.45648 22.0974L8.45723 22.0965C8.48215 22.0679 8.50115 22.0347 8.51314 21.9988C8.52512 21.9628 8.52985 21.9248 8.52704 21.887C8.52603 21.8733 8.5314 21.86 8.5416 21.8508L9.34793 21.1251C9.35889 21.1152 9.37404 21.1114 9.38835 21.115C9.39332 21.1163 9.39813 21.1175 9.40278 21.1186C9.40129 21.1084 9.40142 21.0976 9.40327 21.0865C9.40748 21.0613 9.42019 21.0362 9.43849 21.011C9.44096 21.0076 9.44391 21.0046 9.44724 21.002L9.62463 20.8649C9.64363 20.8503 9.67087 20.8534 9.68607 20.8719L9.83121 21.0493C9.84418 21.0652 9.84461 21.0879 9.83224 21.1042L9.82992 21.1073L9.82342 21.1158C9.81782 21.1231 9.8098 21.1336 9.8001 21.1461C9.78073 21.1712 9.75459 21.2047 9.72765 21.2382C9.70081 21.2717 9.67276 21.3056 9.64966 21.3315C9.63821 21.3443 9.62728 21.3559 9.61796 21.3646C9.61338 21.3688 9.60823 21.3733 9.60294 21.3769C9.6003 21.3788 9.59672 21.381 9.59247 21.383C9.58884 21.3847 9.58112 21.3879 9.57111 21.3879H9.37024L8.99326 21.7222L9.14061 21.8503C9.14624 21.8552 9.15054 21.8614 9.15312 21.8684L9.41524 22.5799L9.68133 22.3898L9.47195 21.6376C9.46783 21.6228 9.47166 21.6069 9.48208 21.5956L9.94237 21.097L9.77595 20.8438C9.76568 20.8281 9.76632 20.8077 9.77753 20.7928L9.89848 20.6315C9.91233 20.6131 9.93801 20.6083 9.95755 20.6206L9.93396 20.6581C9.95755 20.6206 9.95754 20.6206 9.95755 20.6206L9.95867 20.6213L9.96218 20.6235C9.96529 20.6254 9.96996 20.6283 9.97608 20.632C9.98833 20.6396 10.0064 20.6506 10.0297 20.6646C10.0763 20.6925 10.1437 20.7322 10.2266 20.7789C10.3925 20.8723 10.6201 20.9939 10.8675 21.1066C11.1152 21.2194 11.3814 21.3227 11.6246 21.3804C11.8588 21.4359 12.0638 21.447 12.2101 21.3917C12.2102 21.391 12.2103 21.3902 12.2104 21.3894C12.2125 21.3705 12.2147 21.3423 12.217 21.3075C12.2215 21.2381 12.226 21.1445 12.23 21.0503C12.234 20.9562 12.2376 20.8619 12.2401 20.791C12.2412 20.7602 12.2421 20.7338 12.2428 20.7139C12.233 20.7128 12.2216 20.7115 12.2088 20.71C12.1611 20.7045 12.0929 20.6962 12.011 20.6852C11.8473 20.6632 11.6284 20.6303 11.408 20.5867C11.188 20.5432 10.9646 20.4887 10.7929 20.4231C10.7072 20.3904 10.632 20.354 10.5762 20.3135C10.5216 20.2738 10.4777 20.2243 10.4705 20.1634C10.4593 20.0669 10.4805 19.9888 10.5209 19.9272C10.5607 19.8664 10.6171 19.8244 10.6723 19.7954C10.7272 19.7666 10.7828 19.7497 10.8245 19.7399M12.2884 20.6743C12.3328 20.6757 12.3328 20.6757 12.3328 20.6757L12.3317 20.7083C12.331 20.729 12.33 20.7586 12.3287 20.7941C12.3262 20.8651 12.3227 20.9597 12.3186 21.0541C12.3146 21.1484 12.3101 21.2428 12.3055 21.3132C12.3032 21.3483 12.3009 21.3781 12.2986 21.3991C12.2974 21.4093 12.2962 21.4188 12.2947 21.4261C12.294 21.4292 12.2928 21.4348 12.2904 21.4403C12.2894 21.4424 12.2863 21.4496 12.2794 21.4562C12.276 21.4594 12.2703 21.4638 12.2622 21.4664C12.0874 21.5412 11.8516 21.5253 11.6042 21.4667C11.353 21.4071 11.0809 21.3013 10.8308 21.1873C10.5803 21.0732 10.3503 20.9504 10.1831 20.8561C10.0994 20.809 10.0313 20.7689 9.98414 20.7407C9.96892 20.7315 9.95587 20.7236 9.94516 20.7171L9.86719 20.8211L10.0355 21.0773C10.0467 21.0943 10.0449 21.1167 10.0311 21.1317L9.56402 21.6376L9.7751 22.396C9.78011 22.4139 9.77333 22.4331 9.75816 22.4439L9.4195 22.6858C9.40825 22.6939 9.39389 22.6962 9.38067 22.6921C9.36745 22.6881 9.35689 22.6781 9.35211 22.6651L9.07383 21.9097L8.89695 21.7559C8.88732 21.7476 8.88177 21.7355 8.8817 21.7227C8.88164 21.7099 8.88708 21.6978 8.89663 21.6893L9.32398 21.3103C9.3321 21.3031 9.34256 21.2992 9.35341 21.2992H9.55803C9.56432 21.2933 9.57295 21.2842 9.58353 21.2724C9.60504 21.2483 9.63192 21.2158 9.65849 21.1827C9.68497 21.1497 9.71074 21.1167 9.72992 21.0919C9.73366 21.087 9.73716 21.0825 9.74035 21.0783L9.64474 20.9615L9.50672 21.0681C9.49551 21.0845 9.49175 21.0952 9.49076 21.1011C9.48995 21.106 9.49088 21.1075 9.49185 21.1089C9.4938 21.1117 9.49878 21.1167 9.51014 21.1228C9.52126 21.1288 9.53556 21.1344 9.55289 21.1402C9.57352 21.147 9.58612 21.1679 9.58264 21.1893C9.57915 21.2108 9.56061 21.2266 9.53886 21.2266C9.48445 21.2266 9.4435 21.2196 9.38982 21.2067L8.61648 21.9027C8.6171 21.9448 8.61063 21.9868 8.59728 22.0268C8.58165 22.0737 8.55689 22.1171 8.52443 22.1544L7.09762 23.8794C7.09486 23.8828 7.09163 23.8857 7.08803 23.8881C7.04584 23.9162 7.00114 23.9318 6.95357 23.9318C6.9063 23.9318 6.86017 23.9164 6.81485 23.8892C6.81076 23.8868 6.80709 23.8837 6.80399 23.88L6.12668 23.0898C6.11098 23.0715 6.1128 23.044 6.13076 23.0279L7.21124 22.0604C7.21265 22.0591 7.21414 22.0579 7.2157 22.0568C7.35046 21.9642 7.49319 21.9456 7.64002 21.93L8.23372 21.3442C8.24201 21.336 8.2532 21.3314 8.26486 21.3314H8.40927L9.48521 20.375C9.50056 20.3614 9.52328 20.3601 9.5401 20.3718L9.59214 20.4083L9.69183 20.3203L9.70502 20.2543C9.70685 20.2452 9.71151 20.2369 9.71834 20.2305L9.74851 20.263C9.71834 20.2305 9.71834 20.2305 9.71834 20.2305L9.75203 20.1993C9.77348 20.1794 9.80414 20.1511 9.84101 20.1171C9.91475 20.049 10.0133 19.9582 10.1127 19.8674C10.212 19.7767 10.3122 19.6858 10.3892 19.6175C10.4041 19.6043 10.4182 19.5919 10.4313 19.5805L9.63921 20.217C9.62301 20.23 9.59995 20.23 9.58373 20.217L9.53483 20.1779V20.2227C9.53483 20.2359 9.52894 20.2485 9.51876 20.2569L8.34958 21.2245C8.3358 21.2359 8.31652 21.2379 8.30069 21.2296C8.28486 21.2213 8.27556 21.2042 8.27713 21.1864L8.31744 20.7268C8.31923 20.7064 8.33478 20.6899 8.35504 20.6868L8.5041 20.6645L10.2731 19.1983L10.2939 19.1081C10.2961 19.0986 10.3014 19.0901 10.3089 19.0839L10.9136 18.5839C10.9274 18.5725 10.9467 18.5705 10.9625 18.5788C10.9783 18.5872 10.9876 18.6042 10.9861 18.622C10.9731 18.7709 11.0752 18.8759 11.2154 18.9612C11.2382 18.9462 11.2603 18.9298 11.2838 18.9123C11.2906 18.9072 11.2975 18.9021 11.3046 18.8969C11.3311 18.8774 11.3595 18.8572 11.3913 18.8381L11.3685 18.8084L11.226 18.912C11.2077 18.9253 11.1823 18.9227 11.1671 18.906L11.0058 18.7286C10.9899 18.7111 10.9905 18.6841 11.0073 18.6674L11.1549 18.5197L10.1324 17.3818C10.0169 17.4297 9.89603 17.4274 9.77526 17.4123C9.76471 17.411 9.75499 17.4059 9.74786 17.398L9.43827 17.0555L9.39763 17.5974C9.39697 17.6062 9.3937 17.6146 9.38823 17.6215L7.58205 19.9115C7.57377 19.922 7.5612 19.9282 7.54783 19.9284C7.53446 19.9286 7.52172 19.9227 7.51316 19.9124L6.6262 18.8481C6.61335 18.8327 6.61246 18.8105 6.62404 18.7941L8.21251 16.5445C8.21876 16.5356 8.22803 16.5294 8.23858 16.5269L8.51273 16.4624C8.51913 16.4609 8.52579 16.4608 8.53223 16.4622L8.53355 16.4625L8.53775 16.4633C8.54148 16.4641 8.54699 16.4652 8.55406 16.4666C8.56821 16.4694 8.58854 16.4732 8.61315 16.4774C8.66246 16.4859 8.72845 16.4958 8.79587 16.5017C8.86382 16.5076 8.93083 16.5093 8.9831 16.5024C9.00929 16.4989 9.02943 16.4936 9.04345 16.487C9.05336 16.4824 9.05831 16.478 9.0608 16.4749C9.10416 16.1978 9.23228 16.0531 9.39012 15.9934C9.54495 15.9348 9.71785 15.9621 9.84316 16.0039C9.85026 16.0062 9.85664 16.0103 9.86171 16.0158L10.5471 16.7577C10.5572 16.7686 10.5612 16.784 10.5575 16.7985L10.5067 17.0019L11.5454 18.1967C11.5533 18.1912 11.5631 18.1837 11.5748 18.1741C11.612 18.1436 11.6605 18.0983 11.7103 18.0501C11.7574 18.0043 11.8049 17.9568 11.8436 17.9179L11.8495 17.912C11.8693 17.8921 11.8867 17.8747 11.9001 17.8615C11.9124 17.8494 11.9243 17.838 11.9312 17.8328C11.9411 17.8253 11.9537 17.8224 11.9659 17.8246C11.978 17.8269 11.9887 17.8341 11.9953 17.8446L12.0404 17.9158L12.069 17.83C12.0712 17.8232 12.0751 17.8171 12.0803 17.8121L12.7254 17.1912C12.734 17.1829 12.7457 17.1784 12.7577 17.1789L13.183 17.1943L13.7447 16.6788L13.76 16.3262C13.7609 16.3062 13.7751 16.2893 13.7946 16.2849C13.8141 16.2805 13.8342 16.2897 13.8435 16.3074C13.8572 16.3332 13.8844 16.3612 13.9222 16.3895C13.9594 16.4173 14.0036 16.443 14.0471 16.465C14.0904 16.4869 14.1322 16.5047 14.1639 16.517C14.1766 16.5219 14.1875 16.5258 14.1962 16.5288C14.1981 16.5267 14.2002 16.5244 14.2025 16.5219C14.2039 16.5204 14.2054 16.5187 14.2069 16.517C14.2235 16.499 14.2467 16.474 14.2729 16.4523C14.2984 16.4311 14.3314 16.4089 14.3681 16.4019C14.3873 16.3982 14.408 16.3985 14.4289 16.4058C14.4497 16.4131 14.4679 16.4265 14.4833 16.4446C14.4843 16.4459 14.4854 16.4473 14.4863 16.4487C14.5084 16.4818 14.5217 16.511 14.527 16.5383C14.5325 16.5668 14.5287 16.5904 14.5212 16.6106C14.5166 16.6232 14.5089 16.6372 14.504 16.6463C14.5025 16.6491 14.5012 16.6515 14.5003 16.6532C14.4999 16.654 14.4995 16.6548 14.4991 16.6556L14.5299 16.6771L16.7863 15.0824C16.8053 15.069 16.8314 15.0725 16.8461 15.0904M12.2884 20.6743L12.293 20.6301C12.3161 20.6325 12.3335 20.6524 12.3328 20.6757L12.2884 20.6743ZM12.2884 20.6743C12.293 20.6301 12.293 20.6301 12.293 20.6301L12.2918 20.63L12.2881 20.6296C12.2849 20.6293 12.2801 20.6288 12.2738 20.6281C12.2611 20.6267 12.2426 20.6247 12.219 20.6219C12.1717 20.6164 12.1041 20.6082 12.0228 20.5973C11.8602 20.5754 11.6432 20.5428 11.4252 20.4997C11.2067 20.4565 10.9892 20.4032 10.8245 20.3403C10.742 20.3088 10.6751 20.2757 10.6284 20.2417C10.5806 20.207 10.5614 20.1768 10.5586 20.153C10.5496 20.0762 10.5666 20.0192 10.5951 19.9757C10.6241 19.9314 10.6669 19.8984 10.7135 19.8739C10.76 19.8495 10.8083 19.8347 10.8455 19.8261C10.8639 19.8218 10.8793 19.819 10.89 19.8174C10.8953 19.8166 10.8994 19.8161 10.9021 19.8157C10.9035 19.8156 10.9051 19.8154 10.9058 19.8153M12.0538 18.227C12.0512 18.2321 12.0477 18.2367 12.0433 18.2404L11.7784 18.4696C11.7831 18.4746 11.788 18.4799 11.7922 18.4845C11.7984 18.4914 11.8049 18.4989 11.8111 18.5064C11.8144 18.5038 11.8179 18.501 11.8216 18.498C11.8528 18.4727 11.8948 18.4372 11.937 18.401C11.9792 18.3648 12.0215 18.3281 12.0532 18.3005C12.0632 18.2917 12.0723 18.2838 12.0799 18.2771L12.0538 18.227Z" fill="black"/>
</g>
<defs>
<clipPath id="clip0_17522_60694">
<path d="M0 4C0 1.79086 1.79086 0 4 0H36C38.2091 0 40 1.79086 40 4V36C40 38.2091 38.2091 40 36 40H4C1.79086 40 0 38.2091 0 36V4Z" fill="white"/>
</clipPath>
</defs>
</svg>
