<svg width="40" height="40" viewBox="0 0 40 40" fill="none" xmlns="http://www.w3.org/2000/svg">
<g clip-path="url(#clip0_17522_60681)">
<path d="M0 0H40V40H0V0Z" fill="#FECB00"/>
<path d="M0 13.3359H40V40H0V13.3359Z" fill="#34B233"/>
<path d="M0 26.6641H40V40H0V26.6641Z" fill="#EA2839"/>
<path d="M24.4219 21.4062H15.5781L20 6.66406L24.4219 21.4062Z" fill="white"/>
<path d="M16.4226 18.8071L23.5774 24.0054L11.3348 33.3329L16.4226 18.8071Z" fill="white"/>
<path d="M21.3664 17.2008L18.6336 25.6117L5.97935 16.8507L21.3664 17.2008Z" fill="white"/>
<path d="M21.3664 25.6117L18.6336 17.2008L34.0207 16.8507L21.3664 25.6117Z" fill="white"/>
<path d="M16.4226 24.0054L23.5774 18.8071L28.6652 33.3329L16.4226 24.0054Z" fill="white"/>
</g>
<defs>
<clipPath id="clip0_17522_60681">
<path d="M0 4C0 1.79086 1.79086 0 4 0H36C38.2091 0 40 1.79086 40 4V36C40 38.2091 38.2091 40 36 40H4C1.79086 40 0 38.2091 0 36V4Z" fill="white"/>
</clipPath>
</defs>
</svg>
