<svg width="40" height="40" viewBox="0 0 40 40" fill="none" xmlns="http://www.w3.org/2000/svg">
<g clip-path="url(#clip0_17544_64888)">
<path d="M0 0H40V40H0V0Z" fill="#D20000"/>
<path d="M0 0H6.78125L20 19.2891L33.2188 0H40L0 40H6.78125L20 20.7109L33.2188 40H40L0 0ZM40 16V24L0 16V24L40 16ZM16 0L20 17.1406L24 0H16ZM16 40L20 22.8594L24 40H16Z" fill="#FFE600"/>
<path d="M20 26.4297C23.551 26.4297 26.4297 23.551 26.4297 20C26.4297 16.449 23.551 13.5703 20 13.5703C16.449 13.5703 13.5703 16.449 13.5703 20C13.5703 23.551 16.449 26.4297 20 26.4297Z" fill="#FFE600"/>
<path fill-rule="evenodd" clip-rule="evenodd" d="M20 14.2852C16.8438 14.2852 14.2852 16.8438 14.2852 20C14.2852 23.1562 16.8438 25.7148 20 25.7148C23.1562 25.7148 25.7148 23.1562 25.7148 20C25.7148 16.8438 23.1562 14.2852 20 14.2852ZM12.8555 20C12.8555 16.0542 16.0542 12.8555 20 12.8555C23.9458 12.8555 27.1445 16.0542 27.1445 20C27.1445 23.9458 23.9458 27.1445 20 27.1445C16.0542 27.1445 12.8555 23.9458 12.8555 20Z" fill="#D20000"/>
</g>
<defs>
<clipPath id="clip0_17544_64888">
<path d="M0 20C0 8.95431 8.95431 0 20 0C31.0457 0 40 8.95431 40 20C40 31.0457 31.0457 40 20 40C8.95431 40 0 31.0457 0 20Z" fill="white"/>
</clipPath>
</defs>
</svg>
