<svg width="40" height="40" viewBox="0 0 40 40" fill="none" xmlns="http://www.w3.org/2000/svg">
<g clip-path="url(#clip0_17522_60656)">
<path d="M0.00194931 -0.00585938H40.0022V39.9948H0.00194931V-0.00585938Z" fill="black"/>
<path fill-rule="evenodd" clip-rule="evenodd" d="M60.6223 39.9618H-5.92801V0.0435749H60.6223V39.9618Z" fill="white"/>
<path fill-rule="evenodd" clip-rule="evenodd" d="M-5.96899 0.00259358H60.6633V40.0028H-5.96899V0.00259358ZM-5.88703 0.0845563V39.9209H60.5814V0.0845563H-5.88703Z" fill="black"/>
<path fill-rule="evenodd" clip-rule="evenodd" d="M60.6223 32.7362H-5.92801V39.9701H60.6223V32.7362Z" fill="#3E5698"/>
<path fill-rule="evenodd" clip-rule="evenodd" d="M60.6223 31.0636H-5.92801V8.94176H60.6223V31.0636Z" fill="#C60000"/>
<path fill-rule="evenodd" clip-rule="evenodd" d="M60.6223 0.0435749H-5.92801V7.26099H60.6223V0.0435749Z" fill="#3E5698"/>
<path fill-rule="evenodd" clip-rule="evenodd" d="M25.6625 20.0068C25.6625 24.9585 21.5183 28.9792 16.4037 28.9792C11.2824 28.9792 7.13138 24.9585 7.13138 19.9986C7.13138 15.0469 11.2824 11.0262 16.4037 11.0262C21.525 11.0262 25.6625 15.0469 25.6625 20.0068Z" fill="white"/>
<path fill-rule="evenodd" clip-rule="evenodd" d="M20.9388 26.2767L16.4846 23.0965L11.963 26.3097L13.7352 21.1356L9.28099 17.9635L14.8336 17.9388L16.5991 12.7482L18.2501 17.9223L23.8027 17.8894L19.2743 21.1026L20.9388 26.2767Z" fill="#C40000"/>
</g>
<defs>
<clipPath id="clip0_17522_60656">
<path d="M0 4C0 1.79086 1.79086 0 4 0H36C38.2091 0 40 1.79086 40 4V36C40 38.2091 38.2091 40 36 40H4C1.79086 40 0 38.2091 0 36V4Z" fill="white"/>
</clipPath>
</defs>
</svg>
