<svg width="40" height="40" viewBox="0 0 40 40" fill="none" xmlns="http://www.w3.org/2000/svg">
<g clip-path="url(#clip0_17544_66329)">
<path d="M0 0H40V40H0V0Z" fill="#003DA5"/>
<path d="M5.89561 22.1613L6.52904 21.8452L6.42151 21.1451L6.92156 21.6538L7.56251 21.3356L7.22822 21.9652L7.72827 22.4739L7.02909 22.3539L6.69691 22.991L6.5969 22.2887L5.89561 22.1613Z" fill="white"/>
<path d="M32.7344 21.8984L32.0391 22.0312L31.9531 22.7344L31.6094 22.1094L30.9062 22.2422L31.3984 21.7266L31.0547 21.1016L31.6953 21.4062L32.1875 20.8828L32.0938 21.5859L32.7344 21.8984Z" fill="white"/>
<path d="M32.8251 19.4681L32.1648 19.7231L32.206 20.4302L31.756 19.8768L31.0879 20.1332L31.48 19.5378L31.03 18.9844L31.7148 19.1696L32.1055 18.5666L32.139 19.2752L32.8251 19.4681Z" fill="white"/>
<path d="M31.7098 14.7538L31.1814 15.2248L31.4687 15.8723L30.8528 15.5125L30.3177 15.9876L30.4752 15.2924L29.8593 14.9326L30.5654 14.865L30.719 14.1631L30.9996 14.8146L31.7098 14.7538Z" fill="white"/>
<path d="M32.4799 17.0607L31.8758 17.4296L32.0427 18.118L31.5011 17.6539L30.8896 18.0257L31.1689 17.3698L30.6272 16.9057L31.3341 16.9655L31.6107 16.3024L31.7703 16.9935L32.4799 17.0607Z" fill="white"/>
<path d="M29.007 10.7333L28.6781 11.3602L29.1749 11.8651L28.4718 11.7451L28.138 12.378L28.0409 11.6719L27.3378 11.5518L27.975 11.2401L27.8717 10.5291L28.3637 11.0402L29.007 10.7333Z" fill="white"/>
<path d="M25.0625 7.92091L24.9752 8.62338L25.6179 8.92127L24.9175 9.05628L24.8278 9.76619L24.4884 9.13935L23.788 9.27436L24.2748 8.7584L23.928 8.12915L24.5683 8.43447L25.0625 7.92091Z" fill="white"/>
<path d="M27.1615 9.14937L26.95 9.82491L27.5291 10.2329L26.8158 10.2405L26.6006 10.9229L26.3787 10.2455L25.6655 10.2531L26.2367 9.83251L26.008 9.1514L26.5834 9.56628L27.1615 9.14937Z" fill="white"/>
<path d="M30.5396 12.6218L30.1039 13.1797L30.5024 13.7653L29.832 13.5215L29.3905 14.0846L29.4212 13.3724L28.7509 13.1286L29.4336 12.9358L29.4591 12.2178L29.8517 12.8086L30.5396 12.6218Z" fill="white"/>
<path d="M20.3807 6.67614L20.5461 7.36442L21.2525 7.41715L20.6444 7.78996L20.8102 8.48604L20.272 8.01869L19.6639 8.3915L19.938 7.73723L19.392 7.27025L20.0987 7.33078L20.3807 6.67614Z" fill="white"/>
<path d="M15.5603 7.15822L15.9573 7.74429L16.6371 7.54511L16.199 8.10804L16.5991 8.70129L15.9309 8.45319L15.4928 9.01612L15.5193 8.30723L14.8438 8.06222L15.5267 7.87021L15.5603 7.15822Z" fill="white"/>
<path d="M17.9488 6.69996L18.2346 7.34757L18.939 7.27314L18.4074 7.74867L18.695 8.4039L18.0818 8.04032L17.5502 8.51585L17.703 7.8231L17.0822 7.46128L17.7884 7.39446L17.9488 6.69996Z" fill="white"/>
<path d="M11.2177 9.3055L11.7956 9.71441L12.3618 9.28879L12.1498 9.96985L12.7331 10.3844L12.0202 10.3873L11.8082 11.0684L11.5836 10.3955L10.8651 10.4038L11.4368 9.98379L11.2177 9.3055Z" fill="white"/>
<path d="M7.90833 12.8434L8.59308 13.0228L8.97335 12.4252L9.01455 13.1373L9.70635 13.3201L9.04013 13.5736L9.08132 14.2857L8.63428 13.7349L7.96469 13.9955L8.35201 13.4012L7.90833 12.8434Z" fill="white"/>
<path d="M9.4036 10.9253L10.0452 11.2243L10.5262 10.7043L10.4394 11.4123L11.0874 11.7159L10.3866 11.8462L10.2998 12.5542L9.95844 11.9323L9.25305 12.0689L9.74039 11.5535L9.4036 10.9253Z" fill="white"/>
<path d="M13.2923 8.03617L13.7877 8.54181L14.4209 8.22429L14.0905 8.85647L14.5902 9.36862L13.8884 9.24401L13.5581 9.8762L13.4573 9.174L12.749 9.05371L13.3865 8.74269L13.2923 8.03617Z" fill="white"/>
<path d="M22.7777 7.08754L22.8174 7.79431L23.503 7.97249L22.838 8.23056L22.8767 8.94507L22.4307 8.38902L21.7657 8.64708L22.1524 8.05238L21.6987 7.49529L22.3832 7.68121L22.7777 7.08754Z" fill="white"/>
<path d="M6.0553 17.3194L6.75941 17.2465L6.90509 16.5533L7.1942 17.2054L7.9061 17.1331L7.37167 17.6048L7.66078 18.2569L7.04852 17.8986L6.51342 18.3781L6.66689 17.6855L6.0553 17.3194Z" fill="white"/>
<path d="M5.75726 19.7331L6.43699 19.5355L6.45638 18.8274L6.85742 19.4173L7.54492 19.2189L7.10345 19.7785L7.50449 20.3684L6.83803 20.1254L6.39729 20.6928L6.42445 19.984L5.75726 19.7331Z" fill="white"/>
<path d="M7.44969 26.7497L7.93144 26.231L7.58444 25.6135L8.23148 25.9137L8.71952 25.3904L8.62811 26.0973L9.27516 26.3975L8.57848 26.5312L8.4917 27.2444L8.15099 26.6223L7.44969 26.7497Z" fill="white"/>
<path d="M10.5188 30.4979L10.7873 29.8429L10.2452 29.3869L10.9565 29.4403L11.2292 28.7787L11.3923 29.4726L12.1036 29.526L11.4985 29.8963L11.6683 30.5944L11.1304 30.1319L10.5188 30.4979Z" fill="white"/>
<path d="M8.81534 28.7621L9.19658 28.1657L8.74475 27.6201L9.43505 27.7998L9.82166 27.1976L9.85812 27.9095L10.5484 28.0892L9.88687 28.3453L9.92902 29.0626L9.48256 28.5114L8.81534 28.7621Z" fill="white"/>
<path d="M6.46588 24.5255L7.0326 24.1013L6.80161 23.4317L7.38455 23.8427L7.9583 23.4151L7.74196 24.0943L8.3249 24.5054L7.61554 24.5124L7.40263 25.1986L7.17866 24.5255L6.46588 24.5255Z" fill="white"/>
<path d="M6.7801 14.9979L7.48591 15.052L7.7532 14.396L7.92105 15.0893L8.6344 15.1455L8.02424 15.514L8.1921 16.2073L7.65377 15.7453L7.04156 16.1214L7.31638 15.4674L6.7801 14.9979Z" fill="white"/>
<path d="M12.5052 31.9012L12.6522 31.2087L12.0373 30.857L12.7467 30.7823L12.8967 30.0827L13.1813 30.7362L13.8907 30.6615L13.3616 31.134L13.6534 31.7906L13.0415 31.4317L12.5052 31.9012Z" fill="white"/>
<path d="M14.7105 32.9267L14.7313 32.2191L14.0634 31.983L14.748 31.7827L14.7705 31.0675L15.1674 31.6596L15.852 31.4593L15.4159 32.0188L15.8204 32.6126L15.1542 32.3689L14.7105 32.9267Z" fill="white"/>
<path fill-rule="evenodd" clip-rule="evenodd" d="M24.8409 30.8419C26.9968 29.7207 28.7618 27.9717 29.9027 25.826L30.9098 26.3615C29.6606 28.711 27.7279 30.6261 25.3672 31.8539C23.0064 33.0816 20.3287 33.5642 17.6879 33.2379L17.8278 32.1059C20.2395 32.4039 22.6849 31.9632 24.8409 30.8419Z" fill="#00AEC7"/>
<path d="M32.8594 24.0391C32.8594 24.0391 30.7578 23.1016 26.5078 23.0859C22.2578 23.0703 17.7422 24.2422 15.25 24.2109C12.75 24.1797 12.0156 24.1797 10.5234 23.8984C10.5234 23.8984 12.7812 24.6484 15.1719 24.8672C17.5703 25.0938 23.1094 24 25.875 23.8203C28.7031 23.6484 30.9062 23.6484 32.8594 24.0391Z" fill="white"/>
<path d="M16.25 25.2656C16.25 25.2656 17.8516 25.3438 20.9219 25.0156C23.9922 24.6875 26.1719 24.2344 28.5938 24.1719C31.0156 24.1094 33.6953 24.5312 34.2578 24.6797C34.2578 24.6797 30.2188 24.5703 28.5234 24.8125C26.8281 25.0469 22.4453 25.6016 20.1328 25.6562C17.8203 25.7109 17.0312 25.3984 16.25 25.2656ZM9.53906 22.9531C9.53906 22.9531 13.7891 24.0859 17.6484 23.3438C22 22.4922 24.5625 22.5078 26.5078 22.5C28.4609 22.4922 30.4922 22.9844 30.4922 22.9844C30.4922 22.9844 22.5 14.6328 14.1328 10.2109C14.1328 10.2109 13.5078 17.25 9.54688 22.9453" fill="#00AEC7"/>
<path d="M16.1875 16.4609C16.1875 16.4609 16.0703 16.0156 15.4844 16.0781C15.4844 16.0781 15.8594 15.9219 16.0312 16C16.1875 16.0937 16.2266 16.1172 16.1875 16.4609ZM14.7891 15.6797C14.7891 15.6797 14.9219 15.6328 14.9688 15.6562C14.9688 15.6562 15.0625 15.9219 15.2422 16.0234C15.2422 16.0234 14.9297 16 14.7891 15.6719M16.6406 16.0938C16.5533 15.981 16.4438 15.8875 16.3188 15.819C16.1938 15.7504 16.056 15.7083 15.9141 15.6953C15.7734 15.6953 15.4219 15.9766 15.4219 15.9766C15.3359 15.8203 15.375 15.6953 15.375 15.6953C15.5469 15.7187 15.6875 15.7734 15.6875 15.7734C15.6568 15.659 15.5977 15.5542 15.5156 15.4688C15.8516 15.3828 16.25 15.6719 16.25 15.6719C16.1423 15.5199 16.0053 15.3912 15.8469 15.2932C15.6886 15.1952 15.5121 15.1301 15.3281 15.1016C15.2344 15.1016 15.1094 15.2422 15.1094 15.2422C14.4609 15.2422 14.2891 15.6016 14.2891 15.6016C14.5547 16.0234 15.1172 16.125 15.1172 16.125C14.1328 16.0156 14.1562 16.7812 14.1562 16.7812L15.0625 16.3125C14.7188 18.3281 13.3125 19.2266 13.1953 19.3438C13.0859 19.4609 13.1562 19.5859 13.3281 19.6016C13.4141 19.6172 13.5312 19.6875 13.8437 19.3281C14.5886 18.5053 15.0654 17.4753 15.2109 16.375L15.2266 16.3906C15.3203 16.625 15.2578 16.8438 15.2734 17C15.2969 17.1562 15.6406 17.4922 15.6406 17.4922C15.6406 17.4922 15.8281 17.125 15.7969 16.9062C15.7734 16.6875 15.3437 16.2734 15.3437 16.2734C16 16.1562 16.0391 17.2422 16.0391 17.2422C16.2891 16.9453 16.2344 16.6328 16.2344 16.6328C16.2344 16.6328 16.7578 16.25 16.6406 16.0938Z" fill="white"/>
</g>
<defs>
<clipPath id="clip0_17544_66329">
<path d="M0 20C0 8.95431 8.95431 0 20 0C31.0457 0 40 8.95431 40 20C40 31.0457 31.0457 40 20 40C8.95431 40 0 31.0457 0 20Z" fill="white"/>
</clipPath>
</defs>
</svg>
