<svg width="40" height="40" viewBox="0 0 40 40" fill="none" xmlns="http://www.w3.org/2000/svg">
<g clip-path="url(#clip0_17522_60721)">
<path d="M-0.00520229 0.00683594H39.99V40.0021H-0.00520229V0.00683594Z" fill="black"/>
<path fill-rule="evenodd" clip-rule="evenodd" d="M-14.4531 0.00683594H56.0771V40.0021H-14.4531V0.00683594Z" fill="#4AADD6"/>
<path fill-rule="evenodd" clip-rule="evenodd" d="M29.078 19.3488C29.0042 22.5702 27.6566 25.631 25.3304 27.8607C23.0041 30.0904 19.8889 31.3071 16.6673 31.2443C15.0681 31.2817 13.4773 31.0035 11.9856 30.4258C10.494 29.8482 9.13082 28.9823 7.97394 27.8776C6.81707 26.7729 5.88918 25.4511 5.24331 23.9877C4.59744 22.5243 4.24623 20.948 4.20975 19.3488C4.20975 12.7922 9.78286 7.45325 16.6439 7.45325C23.5049 7.45325 29.0546 12.7688 29.0546 19.3488H29.078Z" fill="#FFDE00"/>
</g>
<defs>
<clipPath id="clip0_17522_60721">
<path d="M0 4C0 1.79086 1.79086 0 4 0H36C38.2091 0 40 1.79086 40 4V36C40 38.2091 38.2091 40 36 40H4C1.79086 40 0 38.2091 0 36V4Z" fill="white"/>
</clipPath>
</defs>
</svg>
