<svg width="40" height="40" viewBox="0 0 40 40" fill="none" xmlns="http://www.w3.org/2000/svg">
<g clip-path="url(#clip0_17522_60719)">
<path d="M-0.000682831 0H39.9998V40.0005H-0.000682831V0Z" fill="black"/>
<path fill-rule="evenodd" clip-rule="evenodd" d="M-19.2188 0H60.7822V13.3335H-19.2188V0Z" fill="#000001"/>
<path fill-rule="evenodd" clip-rule="evenodd" d="M-19.2188 13.3335H60.7822V26.667H-19.2187L-19.2188 13.3335Z" fill="white"/>
<path fill-rule="evenodd" clip-rule="evenodd" d="M-19.2187 26.667H60.7822V40.0005H-19.2187V26.667Z" fill="#009900"/>
<path fill-rule="evenodd" clip-rule="evenodd" d="M-19.2187 40.0005L20.7817 19.9962L-19.2188 0L-19.2187 40.0005Z" fill="#FF0000"/>
</g>
<defs>
<clipPath id="clip0_17522_60719">
<path d="M0 4C0 1.79086 1.79086 0 4 0H36C38.2091 0 40 1.79086 40 4V36C40 38.2091 38.2091 40 36 40H4C1.79086 40 0 38.2091 0 36V4Z" fill="white"/>
</clipPath>
</defs>
</svg>
