<svg width="40" height="40" viewBox="0 0 40 40" fill="none" xmlns="http://www.w3.org/2000/svg">
<g clip-path="url(#clip0_17522_60723)">
<path d="M0 0H40V40H0V0Z" fill="#8D1B3D"/>
<path d="M0 0V40H8.82812L16.9688 37.7812L8.82812 35.5469L16.9688 33.3281L8.82812 31.1094L16.9688 28.8906L8.82812 26.6641L16.9688 24.4531L8.82812 22.2188L16.9688 20L8.82812 17.7812L16.9688 15.5469L8.82812 13.3359L16.9688 11.1094L8.82812 8.89062L16.9688 6.66406L8.82812 4.45312L16.9688 2.23438L8.82812 0H0Z" fill="white"/>
</g>
<defs>
<clipPath id="clip0_17522_60723">
<path d="M0 4C0 1.79086 1.79086 0 4 0H36C38.2091 0 40 1.79086 40 4V36C40 38.2091 38.2091 40 36 40H4C1.79086 40 0 38.2091 0 36V4Z" fill="white"/>
</clipPath>
</defs>
</svg>
