<svg width="40" height="40" viewBox="0 0 40 40" fill="none" xmlns="http://www.w3.org/2000/svg">
<g clip-path="url(#clip0_17522_60655)">
<path d="M0.00313854 -0.000491094H40.0022V39.9932H0.00313854V-0.000491094Z" fill="black"/>
<path fill-rule="evenodd" clip-rule="evenodd" d="M-8.42506 0.0156137H49.2034V39.9556H-8.42506V0.0156137Z" fill="#FFE900"/>
<path fill-rule="evenodd" clip-rule="evenodd" d="M-8.4519 0.0156137L-8.38748 28.8111L36.4538 -0.00585938L-8.4519 0.0156137Z" fill="#35A100"/>
<path fill-rule="evenodd" clip-rule="evenodd" d="M49.2732 39.9556L49.1712 10.0167L3.93809 39.9825L49.2732 39.961V39.9556Z" fill="#C70000"/>
<path fill-rule="evenodd" clip-rule="evenodd" d="M-8.42506 30.9852L-8.38748 39.9986L1.39889 39.9825L49.1927 7.9392L49.139 0.101506L39.4707 0.0156137L-8.42506 30.9852Z" fill="#000001"/>
<path fill-rule="evenodd" clip-rule="evenodd" d="M35.772 14.4563L32.3256 14.3382L30.9674 17.5699L30.1997 14.2684L26.7533 14.1503L29.7273 12.2338L28.9543 8.92696L31.5579 11.0421L34.5266 9.11485L33.163 12.3466L35.772 14.4563ZM14.272 28.446L10.8202 28.3226L9.46742 31.5543L8.69975 28.2528L5.24795 28.1347L8.22198 26.2128L7.44895 22.9167L10.0526 25.0318L13.0212 23.1046L11.663 26.3309L14.272 28.446Z" fill="white"/>
</g>
<defs>
<clipPath id="clip0_17522_60655">
<path d="M0 4C0 1.79086 1.79086 0 4 0H36C38.2091 0 40 1.79086 40 4V36C40 38.2091 38.2091 40 36 40H4C1.79086 40 0 38.2091 0 36V4Z" fill="white"/>
</clipPath>
</defs>
</svg>
