<svg width="40" height="40" viewBox="0 0 40 40" fill="none" xmlns="http://www.w3.org/2000/svg">
<g clip-path="url(#clip0_17522_60776)">
<path fill-rule="evenodd" clip-rule="evenodd" d="M0 0H39.875V40H0V0Z" fill="#F4F100"/>
<path fill-rule="evenodd" clip-rule="evenodd" d="M30.125 0H40V40H30.125V0Z" fill="#199A00"/>
<path fill-rule="evenodd" clip-rule="evenodd" d="M0 0H9.875V40H0V0Z" fill="#0058AA"/>
<path fill-rule="evenodd" clip-rule="evenodd" d="M14.9375 10.8281L11.0703 16.7812L14.8047 22.9766L18.4531 16.8359L14.9375 10.8281ZM25.0469 10.8281L21.1719 16.7812L24.8984 22.9766L28.5547 16.8359L25.0391 10.8281H25.0469ZM19.9375 18.9453L16.0781 24.8906L19.8047 31.0938L23.4531 24.9453L19.9375 18.9453Z" fill="#199A00"/>
</g>
<defs>
<clipPath id="clip0_17522_60776">
<path d="M0 4C0 1.79086 1.79086 0 4 0H36C38.2091 0 40 1.79086 40 4V36C40 38.2091 38.2091 40 36 40H4C1.79086 40 0 38.2091 0 36V4Z" fill="white"/>
</clipPath>
</defs>
</svg>
