<svg width="40" height="40" viewBox="0 0 40 40" fill="none" xmlns="http://www.w3.org/2000/svg">
<g clip-path="url(#clip0_17522_60748)">
<path d="M0 0H40V40H0V0Z" fill="#12AD2B"/>
<path d="M0 11.4297H40V28.5703H0V11.4297Z" fill="#FFCE00"/>
<path d="M0 0V40L15 20" fill="#D21034"/>
<path d="M21.6328 15.2473L20.0314 20.176L22.4957 20.9768" fill="#000001"/>
<path d="M21.6328 15.2473L23.2342 20.176L20.7699 20.9768" fill="#000001"/>
<path d="M26.5615 18.8283H21.3792V21.4194" fill="#000001"/>
<path d="M26.5615 18.8283L22.3689 21.8744L20.8459 19.7781" fill="#000001"/>
<path d="M24.6789 24.6223L23.0775 19.6936L20.6131 20.4943" fill="#000001"/>
<path d="M24.6789 24.6223L20.4863 21.5762L22.0094 19.4799" fill="#000001"/>
<path d="M18.5867 24.6223L22.7793 21.5762L21.2563 19.4799" fill="#000001"/>
<path d="M18.5867 24.6223L20.1881 19.6936L22.6525 20.4943" fill="#000001"/>
<path d="M16.7041 18.8283L20.8967 21.8744L22.4198 19.7781" fill="#000001"/>
<path d="M16.7041 18.8283H21.8865V21.4194" fill="#000001"/>
<path d="M33.2812 15.2473L31.6798 20.176L34.1442 20.9768" fill="#000001"/>
<path d="M33.2812 15.2473L34.8827 20.176L32.4183 20.9768" fill="#000001"/>
<path d="M38.21 18.8283H33.0276V21.4194" fill="#000001"/>
<path d="M38.21 18.8283L34.0173 21.8744L32.4943 19.7781" fill="#000001"/>
<path d="M36.3274 24.6223L34.7259 19.6936L32.2616 20.4943" fill="#000001"/>
<path d="M36.3274 24.6223L32.1348 21.5762L33.6578 19.4799" fill="#000001"/>
<path d="M30.2351 24.6223L34.4277 21.5762L32.9047 19.4799" fill="#000001"/>
<path d="M30.2351 24.6223L31.8366 19.6936L34.3009 20.4943" fill="#000001"/>
<path d="M28.3526 18.8283L32.5452 21.8744L34.0682 19.7781" fill="#000001"/>
<path d="M28.3526 18.8283H33.5349V21.4194" fill="#000001"/>
</g>
<defs>
<clipPath id="clip0_17522_60748">
<path d="M0 4C0 1.79086 1.79086 0 4 0H36C38.2091 0 40 1.79086 40 4V36C40 38.2091 38.2091 40 36 40H4C1.79086 40 0 38.2091 0 36V4Z" fill="white"/>
</clipPath>
</defs>
</svg>
