<svg width="40" height="40" viewBox="0 0 40 40" fill="none" xmlns="http://www.w3.org/2000/svg">
<g clip-path="url(#clip0_17522_60608)">
<path d="M-2.76566e-05 -2.76566e-05H40V40H-2.76566e-05V-2.76566e-05Z" fill="#0065BD"/>
<path fill-rule="evenodd" clip-rule="evenodd" d="M15.6182 20L-2.19092 2.19086L2.19086 -2.19092L20 15.6182L37.8091 -2.19092L42.1909 2.19086L24.3818 20L42.1909 37.8091L37.8091 42.1909L20 24.3818L2.19086 42.1909L-2.19092 37.8091L15.6182 20Z" fill="white"/>
</g>
<defs>
<clipPath id="clip0_17522_60608">
<path d="M0 4C0 1.79086 1.79086 0 4 0H36C38.2091 0 40 1.79086 40 4V36C40 38.2091 38.2091 40 36 40H4C1.79086 40 0 38.2091 0 36V4Z" fill="white"/>
</clipPath>
</defs>
</svg>
