<svg width="40" height="40" viewBox="0 0 40 40" fill="none" xmlns="http://www.w3.org/2000/svg">
<g clip-path="url(#clip0_17544_68525)">
<path d="M39.5207 0H0.479165C0.21453 0 0 0.265831 0 0.59375V39.4062C0 39.7342 0.21453 40 0.479165 40H39.5207C39.7854 40 39.9999 39.7342 39.9999 39.4062V0.59375C39.9999 0.265831 39.7854 0 39.5207 0Z" fill="black"/>
<path fill-rule="evenodd" clip-rule="evenodd" d="M0 26.6953H53.3332V40H0V26.6953Z" fill="#0000CD"/>
<path fill-rule="evenodd" clip-rule="evenodd" d="M0 13.3906H53.3332V26.6953H0V13.3906Z" fill="white"/>
<path fill-rule="evenodd" clip-rule="evenodd" d="M0 0H53.3332V13.3906H0V0Z" fill="#00CD00"/>
</g>
<defs>
<clipPath id="clip0_17544_68525">
<path d="M0 20C0 8.95431 8.95431 0 20 0C31.0457 0 40 8.95431 40 20C40 31.0457 31.0457 40 20 40C8.95431 40 0 31.0457 0 20Z" fill="white"/>
</clipPath>
</defs>
</svg>
