<svg width="40" height="40" viewBox="0 0 40 40" fill="none" xmlns="http://www.w3.org/2000/svg">
<g clip-path="url(#clip0_17522_60734)">
<path d="M0.00101352 0H39.9976V40.0022H0.00101352V0Z" fill="black"/>
<path fill-rule="evenodd" clip-rule="evenodd" d="M-1.5625 0H58.438V40.0022H-1.5625V0Z" fill="white"/>
<path fill-rule="evenodd" clip-rule="evenodd" d="M-1.5625 0H58.438V19.9983H-1.5625V0Z" fill="#DF0000"/>
<path fill-rule="evenodd" clip-rule="evenodd" d="M12.2777 3.35281C10.6987 3.69112 9.2843 4.56247 8.27194 5.82051C7.25958 7.07856 6.71097 8.64665 6.71825 10.2614C6.72553 11.8762 7.28826 13.4393 8.31193 14.6882C9.3356 15.937 10.7578 16.7956 12.3398 17.1196C11.2747 17.4313 10.1517 17.4913 9.05939 17.2947C7.96712 17.0982 6.93546 16.6505 6.04582 15.987C5.15617 15.3235 4.43286 14.4624 3.93296 13.4716C3.43305 12.4807 3.17023 11.3873 3.16523 10.2775C3.16022 9.16765 3.41317 8.07187 3.90412 7.07655C4.39506 6.08124 5.11057 5.21362 5.9942 4.54214C6.87783 3.87066 7.9054 3.4137 8.99585 3.2073C10.0863 3.0009 11.2098 3.05071 12.2777 3.35281Z" fill="white"/>
<path fill-rule="evenodd" clip-rule="evenodd" d="M9.83929 9.16659L8.77249 8.38766L10.0989 8.37637L10.5053 7.11766L10.9287 8.37637H12.2495L11.1883 9.16659L11.5947 10.4253L10.5166 9.65202L9.44418 10.431L9.83929 9.16659ZM11.3069 13.5072L10.2344 12.7282L11.5609 12.717L11.9729 11.4582L12.3906 12.7113H13.717L12.6446 13.5015L13.0566 14.7602L11.9842 13.9926L10.9117 14.7715L11.3069 13.5072ZM16.178 13.4733L15.1056 12.6944L16.4264 12.6831L16.8384 11.4244L17.2561 12.6831H18.5882L17.5214 13.4733L17.9334 14.732L16.8553 13.9587L15.7829 14.7377L16.178 13.4733ZM17.6286 9.17224L16.5562 8.3933L17.8826 8.38201L18.289 7.1233L18.7124 8.37637H20.0332L18.972 9.16659L19.3784 10.4253L18.3003 9.65766L17.2279 10.4366L17.6286 9.17224ZM13.7735 6.32179L12.701 5.54285L14.0275 5.53156L14.4395 4.27285L14.8572 5.53156H16.1837L15.1112 6.32179L15.5233 7.57486L14.4508 6.80721L13.3784 7.58614L13.7735 6.32179Z" fill="white"/>
</g>
<defs>
<clipPath id="clip0_17522_60734">
<path d="M0 4C0 1.79086 1.79086 0 4 0H36C38.2091 0 40 1.79086 40 4V36C40 38.2091 38.2091 40 36 40H4C1.79086 40 0 38.2091 0 36V4Z" fill="white"/>
</clipPath>
</defs>
</svg>
