<svg width="40" height="40" viewBox="0 0 40 40" fill="none" xmlns="http://www.w3.org/2000/svg">
<g clip-path="url(#clip0_17522_60750)">
<path d="M0 0H40.0008V40.0008H0V0Z" fill="black"/>
<path fill-rule="evenodd" clip-rule="evenodd" d="M0 0H60.0012V20.0004H26.6672L0 0Z" fill="#ED2939"/>
<path fill-rule="evenodd" clip-rule="evenodd" d="M0 40.0008H60.0012V20.0004H26.6672L0 40.0008Z" fill="#002395"/>
<path fill-rule="evenodd" clip-rule="evenodd" d="M0 0L26.6672 20.0004L0 40.0008V0Z" fill="white"/>
<path d="M13.458 15.0936L13.4669 14.7914C13.4669 14.7914 13.298 14.5247 13.4936 14.2403C13.4936 14.2403 13.0847 14.0181 13.1825 13.6803C13.1825 13.6803 12.8091 13.5914 12.8358 13.1825C12.8358 13.1825 12.4358 13.1558 12.3914 12.8091C12.3914 12.8091 11.9913 12.8803 11.8225 12.5425C11.8225 12.5425 11.4313 12.6225 11.3158 12.3469C11.3158 12.3469 10.9424 12.4802 10.7113 12.1602C10.7113 12.1602 10.3113 12.3202 10.1424 12.018C9.98242 12.3202 9.58241 12.1602 9.58241 12.1602C9.36018 12.4802 8.97795 12.338 8.97795 12.338C8.87128 12.6225 8.48017 12.5425 8.48017 12.5425C8.30238 12.8714 7.90238 12.8091 7.90238 12.8091C7.86682 13.1469 7.45792 13.1736 7.45792 13.1736C7.47116 13.2832 7.44548 13.394 7.38537 13.4866C7.32525 13.5792 7.23453 13.6477 7.12903 13.6803C7.21792 14.0181 6.81791 14.2314 6.81791 14.2314C7.01347 14.5158 6.84458 14.7825 6.84458 14.7825V15.067L13.458 15.0936Z" fill="#FFFF00"/>
<path fill-rule="evenodd" clip-rule="evenodd" d="M10.1473 11.9885L10.1589 12.0103C10.2362 12.1563 10.3711 12.1912 10.4893 12.189C10.5484 12.1879 10.6027 12.1775 10.6424 12.1673C10.6622 12.1622 10.6782 12.1572 10.6893 12.1535C10.6948 12.1516 10.6991 12.1501 10.702 12.149C10.7034 12.1485 10.7045 12.1481 10.7052 12.1478L10.7062 12.1474L10.7161 12.1435L10.7222 12.1522C10.8312 12.3091 10.979 12.3548 11.1004 12.3614C11.1612 12.3647 11.2152 12.3581 11.254 12.3507C11.2734 12.347 11.289 12.3431 11.2996 12.3402C11.3049 12.3387 11.309 12.3374 11.3118 12.3366C11.3132 12.3361 11.3142 12.3358 11.3149 12.3356M9.57882 12.1474L9.57982 12.1478C9.58053 12.1481 9.58162 12.1485 9.58305 12.149C9.58593 12.1501 9.59022 12.1516 9.59576 12.1535C9.60684 12.1572 9.62293 12.1622 9.64279 12.1673C9.68256 12.1775 9.73718 12.1879 9.79685 12.189C9.91616 12.1912 10.0535 12.1563 10.1353 12.0101L10.1473 11.9885" fill="black"/>
<path d="M13.3069 14.7114C12.2669 14.6047 11.0669 14.3558 10.1424 14.8803C9.52019 14.5158 8.65795 14.5336 7.92015 14.6136C7.52904 14.6758 7.05791 14.6758 6.64013 14.747L6.57791 14.7558C5.81345 14.8092 5.12899 14.5781 4.4712 14.2936C4.68454 15.4759 4.91565 16.6937 5.03121 17.9381C5.2801 19.7693 4.16008 21.316 4.61342 23.1293C4.88898 24.0005 5.849 24.5071 6.72902 24.6049C7.57236 24.6601 8.41031 24.779 9.23573 24.9605C9.38529 24.9973 9.5311 25.0479 9.6713 25.1116C9.86255 25.1946 10.0349 25.3155 10.178 25.4672C10.658 24.9783 11.3513 24.8449 12.0447 24.7738C13.2714 24.6227 14.8003 24.7027 15.5559 23.5827V23.5205C15.9648 22.8982 15.9114 21.956 15.7336 21.2537C15.7159 21.0137 15.6536 20.8004 15.6181 20.5604C14.8625 18.5693 15.5114 16.3292 15.8314 14.3203C15.4403 14.5336 14.9958 14.6403 14.5514 14.747C14.1958 14.7914 13.8136 14.7736 13.4492 14.747L13.3069 14.7114Z" fill="#FF0000"/>
<path d="M14.8625 20.436C14.8536 20.5693 14.9247 20.6671 14.9514 20.7915C15.0936 21.6626 15.2359 22.8182 14.3292 23.3605C13.3514 23.9827 12.0447 23.716 10.898 24.0538C10.6669 24.116 10.3469 24.3205 10.1869 24.4716C10.0802 24.4094 9.98242 24.3027 9.84908 24.2405C8.89795 23.7427 7.67126 23.9027 6.60457 23.636C6.07123 23.4582 5.51122 23.0493 5.36899 22.4982C5.02232 21.0582 5.85789 19.8315 5.76011 18.4092C5.69187 17.3413 5.52523 16.282 5.26232 15.2447C6.12377 15.6209 7.08231 15.7143 8.00016 15.5114C8.6935 15.4225 9.5113 15.4225 10.1513 15.707C10.5254 15.565 10.9172 15.4753 11.3158 15.4403C12.0536 15.5114 12.8447 15.6448 13.6003 15.6448C14.0876 15.6091 14.564 15.4825 15.0047 15.2714C14.7381 16.9603 14.2403 18.7381 14.8536 20.4271" fill="#80CFE1"/>
<path d="M13.3603 20.7737L13.3514 19.1826H13.5469L11.1113 17.6092V16.8003H11.3424L10.1246 15.9292L8.91573 16.8003H9.14684V17.6092L6.7468 19.1826H6.92458L6.94236 20.7649H13.3425" fill="white"/>
<path fill-rule="evenodd" clip-rule="evenodd" d="M10.1291 15.8637L11.5136 16.8612H11.1685L11.1766 17.584L13.7229 19.2342H13.4069V20.8283L6.88712 20.8192V19.2342H6.56212L9.10782 17.5844L9.09977 16.8522H8.75319L10.1291 15.8637ZM9.08694 16.7448H9.20606L9.21592 17.6424L6.92553 19.1268H6.99458V20.7118L13.2994 20.7207V19.1268H13.3595L11.0698 17.6428L11.0599 16.7537H11.1806L10.129 15.9961L9.08694 16.7448Z" fill="black"/>
<path d="M14.1069 22.8538V23.3516H6.28457V22.8449H14.1069" fill="white"/>
<path fill-rule="evenodd" clip-rule="evenodd" d="M6.22439 22.7983H14.1592V23.4072H6.22439V22.7983ZM6.33185 22.9057V23.2997H14.0517V22.9057H6.33185Z" fill="black"/>
<path d="M6.80013 22.8271V21.1382H7.11125L7.09347 22.8449L7.11125 21.156L6.6668 21.1471V20.7915H13.6536V21.1471H13.218H13.538V22.836" fill="white"/>
<path fill-rule="evenodd" clip-rule="evenodd" d="M6.60949 20.7296L13.7024 20.7387V21.2043H13.5863L13.595 22.8338L13.4875 22.8344L13.4788 21.2043H13.2728L13.2815 22.8514L13.174 22.8525L13.1556 21.0968H13.595V20.846L6.71695 20.8372V21.09L6.74382 21.0911V21.0879H7.16531L7.14682 22.8436L7.03937 22.8425L7.05654 21.2111L6.85129 21.2029V22.8251H6.74382V21.1986L6.60949 21.1932V20.7296Z" fill="black"/>
<path fill-rule="evenodd" clip-rule="evenodd" d="M7.29908 21.1864H8.35585V22.4132H8.29316L8.29265 22.4669L7.29908 22.4575V21.1864ZM8.24839 22.359V21.2938H7.40654V22.351L8.24839 22.359Z" fill="black"/>
<path fill-rule="evenodd" clip-rule="evenodd" d="M11.9023 21.1953H12.9408L12.9506 22.4669H11.9023V21.1953ZM12.0098 21.3028V22.3595H12.8423L12.8341 21.3028H12.0098ZM7.61253 21.4282H8.10509V22.2162H7.56775V21.4819H7.61253V21.4282ZM7.67521 21.5356V22.1087H7.99762V21.5356H7.67521Z" fill="black"/>
<path fill-rule="evenodd" clip-rule="evenodd" d="M11.8934 19.288H12.9412V20.5595H11.8934V19.288ZM12.0008 19.3954V20.4521H12.8337V19.3954H12.0008ZM12.1531 21.4371H12.6904V22.2251H12.1531V21.4371ZM12.2605 21.5446V22.1177H12.583V21.5446H12.2605Z" fill="black"/>
<path fill-rule="evenodd" clip-rule="evenodd" d="M7.29908 19.279H8.34689V20.5058H8.29316V20.5506H7.29908V19.279ZM8.23943 20.4431V19.3865H7.40654V20.4431H8.23943ZM12.1441 19.5297H12.6815V20.3178H12.1441V19.5297ZM12.2516 19.6372V20.2103H12.574V19.6372H12.2516Z" fill="black"/>
<path fill-rule="evenodd" clip-rule="evenodd" d="M9.00067 19.279H10.0485V20.5058H9.99475V20.5506H9.00067V19.279ZM9.94102 20.4431V19.3865H9.10813V20.4431H9.94102ZM7.55879 19.5208H8.09613V20.3088H7.55879V19.5208ZM7.66626 19.6282V20.2013H7.98867V19.6282H7.66626Z" fill="black"/>
<path fill-rule="evenodd" clip-rule="evenodd" d="M10.3082 19.2785L11.356 19.2885V20.5601L10.3082 20.5501V19.2785ZM10.4157 19.387V20.4436L11.2486 20.4516V19.3949L10.4157 19.387ZM9.25143 19.5208H9.78877V20.3088H9.25143V19.5208ZM9.35889 19.6282V20.2013H9.6813V19.6282H9.35889Z" fill="black"/>
<path fill-rule="evenodd" clip-rule="evenodd" d="M10.559 19.5208H11.1053V20.3088H10.559V19.5208ZM10.6664 19.6282V20.2013H10.9978V19.6282H10.6664Z" fill="black"/>
<path d="M11.538 20.1515L11.5469 22.8538H8.83573L8.82684 20.1426H11.538" fill="white"/>
<path fill-rule="evenodd" clip-rule="evenodd" d="M9.3589 16.897H10.9172V17.685H9.3589V16.897ZM9.46636 17.0045V17.5776H10.8097V17.0045H9.46636ZM9.26078 17.8283H11.0243L12.6941 19.0462H7.59096L9.26078 17.8283ZM9.2958 17.9358L7.92067 18.9387H12.3644L10.9892 17.9358H9.2958ZM8.76764 20.0939H11.5887L11.598 22.9057H8.77695L8.76764 20.0939ZM8.87546 20.2014L8.87765 20.864H11.4838L11.4816 20.2014H8.87546ZM11.4841 20.9715H11.2665V22.7983H11.4902L11.4841 20.9715ZM11.159 22.7983V20.9715H9.19769V22.7983H11.159ZM9.09022 22.7983V20.9715H8.87801L8.88406 22.7983H9.09022Z" fill="black"/>
<path fill-rule="evenodd" clip-rule="evenodd" d="M9.50032 16.6821H10.7668L10.1336 16.2318L9.50032 16.6821ZM10.1336 16.1564L10.1069 16.1189L9.16374 16.7896H11.1034L10.1602 16.1189L10.1336 16.1564ZM9.75295 17.0672H10.5231V17.5149H9.75295V17.0672ZM9.86041 17.1746V17.4074H10.4157V17.1746H9.86041Z" fill="black"/>
<path d="M13.3869 15.787C13.618 15.787 13.6714 16.7292 13.6714 17.2003C13.9892 17.3241 14.2726 17.5222 14.4981 17.7781H12.2936C12.5139 17.5245 12.7911 17.3266 13.1025 17.2003C13.1025 16.7292 13.1558 15.7781 13.3869 15.787Z" fill="white"/>
<path d="M10.1958 26.3116C11.1676 26.3371 12.1348 26.1678 13.0403 25.8138L14.3381 25.6983L14.3558 27.2628C13.2714 27.8672 10.7558 28.0005 10.1958 27.9917C9.64463 27.9917 7.09347 27.8672 6.00012 27.2628L6.0179 25.6894L7.30681 25.8049C8.228 26.1598 9.20868 26.3348 10.1958 26.3205" fill="#FFFF00"/>
<path fill-rule="evenodd" clip-rule="evenodd" d="M5.99618 25.676L7.3029 25.7939L7.30523 25.7951C7.5989 25.9464 8.06744 26.0737 8.58985 26.1632C9.11195 26.2527 9.6866 26.3041 10.1918 26.3041C10.7014 26.3041 11.2671 26.2527 11.7791 26.1632C12.2914 26.0738 12.7488 25.9464 13.0425 25.7951L13.0449 25.7939L14.3425 25.685L14.3698 27.2746L14.3627 27.2785C13.8184 27.5798 12.9138 27.7636 12.0787 27.8711C11.2431 27.9786 10.4746 28.01 10.2006 28.0055C9.92233 28.0055 9.14494 27.9741 8.2993 27.8666C7.45413 27.7591 6.5383 27.5754 5.98504 27.2695L5.97801 27.2656L5.99618 25.676ZM6.02272 25.7054L6.00506 27.2499C6.55409 27.5507 7.46107 27.7329 8.30269 27.8399C9.14733 27.9473 9.92367 27.9786 10.2007 27.9786C10.4731 27.9831 11.2406 27.9518 12.0752 27.8444C12.9067 27.7374 13.8025 27.5552 14.3426 27.2589L14.3161 25.7142L13.0524 25.8202C12.755 25.9729 12.2955 26.1003 11.7837 26.1897C11.2703 26.2794 10.7031 26.3309 10.1918 26.3309C9.68496 26.3309 9.10879 26.2794 8.58531 26.1897C8.06351 26.1003 7.5928 25.9729 7.29526 25.8202L6.02272 25.7054Z" fill="black"/>
<path d="M2.6845 19.6182L3.8223 19.9737L3.47562 21.8138L2.40894 21.9827C2.40894 21.9827 2.23115 21.0137 2.6845 19.6182Z" fill="#FFFF00"/>
<path fill-rule="evenodd" clip-rule="evenodd" d="M2.67832 19.6025L3.83067 19.9683L3.48646 21.825L2.38947 21.9987L2.38708 21.9858L2.40029 21.9834C2.38708 21.9858 2.38709 21.9858 2.38708 21.9858L2.38656 21.9828C2.38622 21.9809 2.38574 21.9781 2.38513 21.9743C2.38392 21.9668 2.3822 21.9556 2.3802 21.9409C2.37618 21.9115 2.37097 21.868 2.3662 21.8116C2.35664 21.6986 2.34879 21.5335 2.35552 21.3247C2.36899 20.9072 2.44082 20.3149 2.67413 19.615L2.67832 19.6025ZM2.41133 21.968L3.4635 21.8014L3.79993 19.9867L2.69544 19.6361C2.46637 20.3277 2.39569 20.9128 2.38237 21.3256C2.37567 21.5332 2.38349 21.6973 2.39297 21.8093C2.3977 21.8653 2.40286 21.9083 2.40681 21.9373C2.40862 21.9505 2.41018 21.9608 2.41133 21.968Z" fill="black"/>
<path d="M3.47562 21.796L2.40894 21.9827L3.0845 21.0137L3.47562 21.796Z" fill="#7E7E7E"/>
<path fill-rule="evenodd" clip-rule="evenodd" d="M3.08287 20.9903L3.49522 21.8056L2.37063 21.993L3.08287 20.9903ZM2.42995 21.9558L3.45474 21.7851L3.07899 21.0422L2.42995 21.9558Z" fill="black"/>
<path d="M2.00893 20.9426L3.10228 21.0226C3.12895 21.9471 3.23562 25.4761 7.45792 25.6716L7.32459 26.9605C2.18671 27.0139 1.80448 22.6227 2.00893 20.9426Z" fill="#FFFF00"/>
<path fill-rule="evenodd" clip-rule="evenodd" d="M1.99445 20.9304L3.11191 21.0036L3.11227 21.0159C3.1257 21.4815 3.15933 22.5934 3.71626 23.6134C4.27257 24.6323 5.35191 25.561 7.46091 25.6593L7.47511 25.66L7.33806 26.9756L7.32609 26.9757C7.29186 26.976 7.25784 26.9762 7.22403 26.9762L6.02123 27.2351L6.01558 27.2088L7.10096 26.9752C5.92273 26.9573 5.00382 26.6991 4.29044 26.2931C3.53223 25.8616 3.00693 25.2636 2.64935 24.6113C1.93444 23.3074 1.88971 21.7864 1.99291 20.943L1.99445 20.9304ZM7.30903 26.949L7.30521 26.9312L7.22118 26.9493C5.98887 26.9477 5.03649 26.6867 4.30373 26.2697C3.55039 25.841 3.02842 25.2469 2.67291 24.5984C1.96516 23.3075 1.91725 21.8014 2.01805 20.9588L3.08576 21.0288C3.09946 21.5016 3.13723 22.609 3.69268 23.6263C4.25235 24.6513 5.33668 25.5833 7.44545 25.6855L7.31383 26.9489C7.31223 26.949 7.31063 26.949 7.30903 26.949Z" fill="black"/>
<path d="M17.6092 19.6271L16.4803 19.9826L16.8359 21.8226L17.9115 22.0004C17.9115 22.0004 18.0892 21.0226 17.6092 19.6271Z" fill="#FFFF00"/>
<path fill-rule="evenodd" clip-rule="evenodd" d="M17.6156 19.6115L17.6198 19.6239C17.8621 20.3282 17.9384 20.9228 17.9541 21.3415C17.962 21.5508 17.9547 21.7162 17.9454 21.8293C17.9408 21.8859 17.9357 21.9294 17.9317 21.9588C17.9297 21.9735 17.928 21.9847 17.9268 21.9922C17.9262 21.996 17.9257 21.9988 17.9254 22.0007L17.925 22.0029C17.925 22.0029 17.9248 22.0037 17.9206 22.0029C17.9187 22.0026 17.9155 22.0012 17.9115 22.0004L17.925 22.0029L17.9224 22.0167L16.8255 21.8339L16.4632 19.9773L17.6156 19.6115ZM16.4942 19.9956L16.8483 21.8105L17.9006 21.9858C17.9017 21.9786 17.9033 21.9683 17.9051 21.9552C17.909 21.9262 17.9141 21.8832 17.9187 21.8271C17.9279 21.7149 17.9351 21.5507 17.9273 21.3425C17.9118 20.9286 17.8366 20.3412 17.5987 19.645L16.4942 19.9956Z" fill="black"/>
<path d="M16.8359 21.8049L17.9115 21.9915L17.227 21.0315L16.8359 21.8049Z" fill="#7E7E7E"/>
<path fill-rule="evenodd" clip-rule="evenodd" d="M17.2199 21.0083L17.9418 22.0112L16.8168 21.8144L17.2199 21.0083ZM17.2241 21.06L16.857 21.7941L17.8815 21.9734L17.2241 21.06Z" fill="black"/>
<path d="M18.3026 20.9515L17.2092 21.0315C17.1914 21.956 17.1114 25.4938 12.8891 25.6805L13.0314 26.9605C18.1692 27.0227 18.5248 22.6316 18.3026 20.9515Z" fill="#FFFF00"/>
<path fill-rule="evenodd" clip-rule="evenodd" d="M18.3101 20.9392V20.9616C18.4222 21.8008 18.3907 23.3189 17.6872 24.6202C17.3352 25.2714 16.815 25.8683 16.0604 26.2984C15.3439 26.7068 14.4168 26.9644 13.2232 26.9759L14.341 27.2088L14.3355 27.2351L13.0929 26.9762C13.0722 26.9761 13.0514 26.9759 13.0306 26.9757L13.0187 26.9755L12.8725 25.6689L12.8869 25.6683C14.9958 25.5745 16.0662 24.6457 16.6124 23.6258C17.1593 22.6047 17.1817 21.4906 17.1907 21.0249L17.1909 21.0126L18.3101 20.9392ZM13.0957 26.9494L13.0514 26.9401L13.0495 26.949C13.0473 26.949 13.045 26.949 13.0428 26.949L12.9024 25.6945C15.0111 25.5967 16.0865 24.6647 16.6361 23.6385C17.1815 22.6202 17.2082 21.5107 17.2173 21.0378L18.2839 20.9679C18.395 21.8042 18.3627 23.3142 17.6636 24.6075C17.3137 25.2548 16.7968 25.8477 16.0471 26.2751C15.31 26.6952 14.3473 26.9556 13.0957 26.9494Z" fill="black"/>
<path d="M9.5113 27.0939C9.48463 27.1116 9.44018 27.1116 9.39574 27.1116L9.19129 27.1027L9.20907 26.845L9.41352 26.8539C9.44907 26.8539 9.48463 26.8716 9.50241 26.8805C9.54685 26.8983 9.56463 26.9427 9.55574 26.9961C9.55574 27.0405 9.53796 27.0761 9.5113 27.085M9.16462 27.4939L9.19129 27.1828L9.42241 27.2005C9.48614 27.2046 9.54923 27.1857 9.60019 27.1472C9.63574 27.1027 9.66241 27.0583 9.66241 26.9961C9.66602 26.9671 9.66311 26.9377 9.65388 26.91C9.64465 26.8823 9.62934 26.8571 9.60908 26.8361C9.56481 26.797 9.5081 26.775 9.44907 26.7739L9.11129 26.7561L9.06684 27.485L9.16462 27.4939ZM9.9113 26.8894H10.1602L10.2491 26.9072C10.2758 26.925 10.2935 26.9605 10.2935 27.0139C10.2935 27.0672 10.2846 27.1028 10.258 27.1205C10.2313 27.1383 10.1869 27.1472 10.1424 27.1472H9.90242V26.8894M9.90242 27.5383V27.2272H10.1335C10.178 27.2272 10.2135 27.2272 10.2313 27.245C10.2669 27.2539 10.2846 27.2894 10.2846 27.3339V27.4583L10.2935 27.5205L10.3024 27.5472H10.4269V27.5294C10.4178 27.5254 10.4099 27.5192 10.4037 27.5115C10.3975 27.5038 10.3933 27.4947 10.3913 27.485V27.325C10.3913 27.2805 10.3735 27.245 10.3558 27.2361C10.3411 27.2122 10.3194 27.1936 10.2935 27.1828L10.3824 27.1205L10.4002 27.005C10.4002 26.925 10.3646 26.8627 10.2935 26.8361C10.2484 26.8178 10.2 26.8087 10.1513 26.8094H9.80464V27.5383H9.90242ZM10.6847 27.3872C10.6371 27.3292 10.6091 27.2576 10.6047 27.1828C10.6047 27.0761 10.6224 27.005 10.6669 26.9516C10.7113 26.8894 10.7735 26.8627 10.8535 26.8627C10.9424 26.8627 10.9958 26.8805 11.0491 26.9339C11.0935 26.9783 11.1291 27.0494 11.138 27.1383C11.138 27.2183 11.1202 27.2894 11.0847 27.3516C11.0402 27.4139 10.9869 27.4494 10.8891 27.4583C10.8002 27.4583 10.7291 27.4405 10.6847 27.3872ZM10.5602 26.925C10.512 27.0019 10.4902 27.0923 10.498 27.1828C10.5009 27.2815 10.5387 27.3759 10.6047 27.4494C10.6418 27.4827 10.6855 27.5079 10.733 27.5232C10.7804 27.5385 10.8306 27.5437 10.8802 27.5383C10.9348 27.5401 10.989 27.5289 11.0384 27.5057C11.0878 27.4825 11.1311 27.448 11.1647 27.405C11.2179 27.3234 11.2429 27.2266 11.2358 27.1294C11.2359 27.0387 11.2045 26.9507 11.1469 26.8805C11.0758 26.8005 10.9691 26.765 10.8447 26.7739C10.7113 26.7739 10.6224 26.8272 10.5602 26.925ZM14.0003 25.8672C14.0622 25.8543 14.1265 25.8573 14.1869 25.8761C14.2758 25.9027 14.3292 25.9649 14.3647 26.0538L14.2581 26.0716C14.2512 26.0488 14.2397 26.0276 14.2245 26.0092C14.2092 25.9909 14.1904 25.9759 14.1692 25.965C14.1206 25.9479 14.0683 25.9449 14.0181 25.9561C13.9845 25.9591 13.952 25.9694 13.9228 25.9863C13.8936 26.0031 13.8685 26.0262 13.8492 26.0538C13.8136 26.1161 13.8047 26.1872 13.8225 26.2938C13.8314 26.3827 13.8669 26.445 13.9114 26.4894C13.9647 26.5427 14.0269 26.5605 14.1158 26.5427C14.1785 26.5345 14.2357 26.5027 14.2758 26.4538C14.3114 26.4183 14.3292 26.3472 14.3114 26.2672L14.0803 26.3027L14.0625 26.2227L14.3914 26.1694L14.4536 26.5605H14.3914L14.3558 26.4716C14.3317 26.5063 14.3016 26.5364 14.2669 26.5605C14.2208 26.5979 14.1656 26.6224 14.1069 26.6316C14.0231 26.6446 13.9374 26.6256 13.8669 26.5783C13.8255 26.546 13.7908 26.5058 13.7648 26.46C13.7389 26.4142 13.7222 26.3638 13.7158 26.3116C13.7044 26.2602 13.7032 26.2071 13.7124 26.1552C13.7215 26.1033 13.7408 26.0538 13.7692 26.0094C13.7949 25.9702 13.829 25.9371 13.8689 25.9126C13.9088 25.888 13.9537 25.8725 14.0003 25.8672ZM14.747 25.8138L14.9781 25.7249C15.0065 25.7145 15.0371 25.7114 15.067 25.7161C15.1025 25.7161 15.1381 25.7427 15.1559 25.7961C15.1736 25.8405 15.1736 25.8761 15.1559 25.9027L15.0581 25.965L14.8358 26.0538L14.747 25.8138ZM14.9781 26.4183L14.8625 26.125L15.0847 26.045C15.1131 26.034 15.1432 26.028 15.1736 26.0272C15.2092 26.0272 15.2359 26.0538 15.2625 26.0983L15.307 26.2138L15.3336 26.2672L15.3514 26.285L15.467 26.2405V26.2316C15.4492 26.2316 15.4314 26.2138 15.4136 26.1961L15.387 26.1427L15.3514 26.0538C15.3336 26.0094 15.3159 25.9827 15.2892 25.965C15.2642 25.9532 15.2368 25.9471 15.2092 25.9472C15.2359 25.9205 15.2536 25.8938 15.2625 25.8583C15.2695 25.8226 15.2665 25.7857 15.2536 25.7516C15.2181 25.6716 15.1647 25.6272 15.0847 25.6272C15.0492 25.6272 14.9959 25.6272 14.9425 25.6449L14.6136 25.7694L14.8803 26.4538L14.9781 26.4183ZM15.8314 26.0627L15.4136 25.4405L15.8759 25.1472L15.9292 25.2272L15.547 25.4672L15.6803 25.6449L16.027 25.4316L16.0714 25.5027L15.7248 25.7249L15.867 25.9294L16.2492 25.6805L16.3025 25.7516L15.8314 26.0538M16.2048 24.9783L16.3203 24.8449C16.3737 24.7827 16.4359 24.756 16.4981 24.7649C16.5751 24.7743 16.6469 24.8087 16.7025 24.8627C16.7535 24.9077 16.7905 24.9663 16.8092 25.0316C16.827 25.076 16.8181 25.1205 16.8092 25.156L16.7559 25.2183L16.6314 25.3516L16.2048 24.9783ZM16.827 25.2627C16.9159 25.1738 16.9426 25.0672 16.8892 24.9516C16.858 24.8835 16.8125 24.8229 16.7559 24.7738C16.6898 24.7128 16.6054 24.6753 16.5159 24.6671C16.4688 24.6628 16.4214 24.6703 16.3779 24.689C16.3345 24.7076 16.2963 24.7368 16.267 24.7738L16.0625 24.9872L16.6314 25.4849L16.827 25.2627ZM17.2626 24.6938L16.6137 24.3116L16.667 24.2227L17.3159 24.6049L17.2626 24.6938ZM17.5203 24.2494L16.8092 23.9738L17.0226 23.476L17.1114 23.5116L16.9337 23.9205L17.147 24.0005L17.307 23.6271L17.3959 23.6627L17.2359 24.036L17.467 24.1249L17.6448 23.716L17.7337 23.7516L17.5203 24.2494ZM17.8403 23.3871L17.1026 23.2271L17.1292 23.1116L17.8048 22.8804L17.2092 22.756L17.227 22.6671L17.9648 22.8182L17.947 22.9338L17.2626 23.1649L17.8581 23.2982L17.8403 23.3871ZM17.7781 22.4538L17.787 22.3649C17.8315 22.3649 17.8759 22.3649 17.8937 22.3382C17.947 22.3115 17.9826 22.2582 17.9826 22.1782V22.0715C17.9648 22.0093 17.9292 21.9826 17.8759 21.9738C17.8315 21.9738 17.8048 21.9738 17.787 22.0004C17.7692 22.0271 17.7426 22.0627 17.7337 22.116L17.6981 22.2049L17.6359 22.3471C17.6003 22.3915 17.547 22.4093 17.4848 22.4004C17.4533 22.3978 17.4228 22.3886 17.3952 22.3732C17.3676 22.3579 17.3436 22.3369 17.3248 22.3115C17.2803 22.2671 17.2714 22.2049 17.2803 22.116C17.2803 22.0449 17.307 21.9826 17.3514 21.9293C17.3959 21.8849 17.4581 21.8582 17.5381 21.8671V21.956C17.4937 21.956 17.4581 21.9649 17.4403 21.9827C17.3959 22.0093 17.3692 22.0538 17.3692 22.1338C17.3603 22.1871 17.3692 22.2227 17.387 22.2582C17.4137 22.2849 17.4403 22.3027 17.4759 22.3027C17.5115 22.3027 17.5381 22.3027 17.5648 22.2671L17.6181 22.1427L17.6448 22.0449C17.6626 21.9915 17.6803 21.956 17.707 21.9293C17.728 21.9091 17.7533 21.8937 17.781 21.8845C17.8087 21.8753 17.8381 21.8724 17.867 21.876C17.9559 21.8849 18.0092 21.9204 18.0448 21.9827C18.0715 22.0449 18.0804 22.116 18.0715 22.196C18.0723 22.2345 18.0648 22.2727 18.0494 22.3079C18.0341 22.3432 18.0113 22.3748 17.9826 22.4004C17.9539 22.4228 17.921 22.439 17.8859 22.4482C17.8507 22.4574 17.814 22.4593 17.7781 22.4538ZM2.50672 22.4004L2.52449 22.4893C2.48894 22.4982 2.45338 22.516 2.4356 22.5427C2.38227 22.5782 2.37338 22.6316 2.38227 22.7204L2.41783 22.8182C2.45338 22.8716 2.49783 22.8982 2.55116 22.8893C2.58672 22.8804 2.61338 22.8627 2.63116 22.836L2.64894 22.7116V22.6049L2.6845 22.4627C2.70228 22.4182 2.74672 22.3827 2.80894 22.3738C2.84003 22.3681 2.87197 22.3691 2.90263 22.3768C2.93329 22.3845 2.96196 22.3986 2.98672 22.4182C3.04006 22.4538 3.07562 22.5071 3.07562 22.596C3.0863 22.6296 3.09023 22.6649 3.08718 22.7C3.08413 22.7351 3.07416 22.7692 3.05784 22.8004C3.03117 22.8538 2.97784 22.8893 2.89783 22.9071L2.88006 22.8182C2.91561 22.8004 2.94228 22.7916 2.96895 22.7649C2.99561 22.7293 3.0045 22.676 2.99561 22.6049C2.98672 22.5516 2.96895 22.516 2.93339 22.4893C2.92122 22.479 2.90704 22.4713 2.89174 22.4667C2.87644 22.4621 2.86036 22.4607 2.8445 22.4627C2.828 22.4653 2.81257 22.4725 2.79999 22.4835C2.78741 22.4945 2.77819 22.5089 2.77339 22.5249C2.75903 22.5678 2.753 22.613 2.75561 22.6582V22.7649C2.75416 22.8087 2.74194 22.8514 2.72005 22.8893C2.70634 22.9136 2.68713 22.9342 2.66397 22.9497C2.64081 22.9651 2.61435 22.9749 2.58672 22.9782C2.49783 22.996 2.4356 22.9782 2.39116 22.9249C2.34344 22.8695 2.31259 22.8017 2.30227 22.7293C2.28239 22.6546 2.29193 22.575 2.32893 22.5071C2.34871 22.4772 2.37495 22.452 2.40571 22.4336C2.43648 22.4151 2.47099 22.4038 2.50672 22.4004ZM2.46227 23.3693L3.18228 23.1471L3.36007 23.6538L3.27117 23.6894L3.12895 23.2716L2.90672 23.3338L3.03117 23.716L2.94228 23.7427L2.82672 23.3605L2.57783 23.4316L2.72005 23.8582L2.63116 23.8849L2.46227 23.3693ZM2.78228 24.2494L3.44896 23.8938L3.52007 24.0182L3.05784 24.4983L3.72452 24.3916L3.79563 24.5071L3.12895 24.8627L3.0845 24.7738L3.47562 24.5694L3.54674 24.5338L3.64452 24.4805L2.97784 24.596L2.93339 24.5071L3.38673 24.0271L3.36007 24.0449L3.28895 24.0805C3.26643 24.0971 3.24266 24.112 3.21784 24.1249L2.82672 24.3294L2.78228 24.2405M4.01786 25.2183C3.9823 25.2183 3.95563 25.2005 3.92008 25.1649L3.77785 25.0227L3.96452 24.8449L4.10675 24.9872L4.16008 25.0672C4.17786 25.1116 4.16008 25.156 4.12453 25.1827C4.08897 25.2183 4.05341 25.236 4.01786 25.2272M3.48451 25.2894L3.71563 25.076L3.87563 25.2538C3.92176 25.2967 3.98159 25.3219 4.04452 25.3249C4.102 25.3209 4.15589 25.2955 4.19564 25.2538C4.24008 25.2094 4.26675 25.1649 4.26675 25.1027C4.26675 25.0494 4.24008 25.0049 4.19564 24.9516L3.96452 24.7116L3.4134 25.2183L3.48451 25.2894ZM4.15119 25.8761L4.54231 25.2538L5.01343 25.5383L4.96899 25.6183L4.57787 25.3872L4.46231 25.5738L4.81787 25.7872L4.76454 25.8583L4.40898 25.6449L4.27564 25.8583L4.66676 26.0894L4.62231 26.1694L4.1423 25.8761M5.32455 25.7605L5.56455 25.8316L5.63567 25.8761C5.66233 25.9027 5.67122 25.9472 5.65344 25.9916C5.64455 26.0361 5.61789 26.0627 5.58233 26.0805L5.46677 26.0716L5.24455 26.0005L5.32455 25.7605ZM5.1201 26.3738L5.20899 26.0716L5.44011 26.1427L5.529 26.1872C5.54678 26.2138 5.55566 26.2494 5.53789 26.2938L5.51122 26.4005L5.49344 26.4627V26.4805L5.61789 26.525V26.5072L5.60011 26.4538C5.60011 26.445 5.60011 26.4183 5.61789 26.3916L5.64455 26.3027C5.65344 26.2583 5.66233 26.2316 5.64455 26.2138C5.63674 26.1864 5.62134 26.1618 5.60011 26.1427C5.63567 26.1338 5.67122 26.125 5.69789 26.0983C5.72456 26.0805 5.74233 26.045 5.76011 26.0094C5.78678 25.9205 5.769 25.8583 5.71567 25.8049C5.68011 25.7872 5.64455 25.7605 5.58233 25.7427L5.25344 25.6361L5.02232 26.3294L5.11121 26.365" fill="#009FC5"/>
<path d="M6.13345 13.7247C6.22234 13.5114 7.01347 12.9514 9.63574 13.1914C9.63574 13.1914 10.0802 13.4669 10.338 13.4314C10.4802 13.4136 10.2491 13.4403 10.0535 13.2803C9.85797 13.1203 9.81353 12.7914 10.2669 12.8003C10.7113 12.8091 12.4002 12.9069 12.4269 13.058C12.4536 13.2091 11.538 13.2714 11.2002 13.2625C10.8535 13.2625 10.898 13.4314 11.2358 13.4136C12.3025 13.378 13.458 13.0047 14.7025 13.8758C14.8447 13.9736 14.3203 13.9914 13.9203 13.8225C13.9203 13.8225 12.8358 13.8847 12.3736 13.8047C12.3736 13.8047 12.018 14.0981 11.538 14.0714C11.6002 14.2225 11.3602 14.7825 9.89353 14.3647C9.64463 14.4358 8.76462 14.587 8.85351 14.3203C8.62239 14.3203 8.21349 14.3914 8.15127 14.2581C8.09794 14.1336 8.87128 13.9292 9.01351 13.7869C9.01351 13.7869 7.36014 13.8047 7.04903 13.698C7.04903 13.698 6.07123 13.9114 6.13345 13.7247Z" fill="#BC715F"/>
<path d="M6.6668 16.0359C6.69346 15.9914 6.71124 15.9025 6.78236 15.9025C6.95125 15.947 7.05792 16.2492 7.26236 16.0536C7.33348 16.0359 7.35126 16.1336 7.41348 16.1425C7.45792 16.3114 7.59126 16.1159 7.68015 16.1248C7.91342 16.0278 8.17044 16.003 8.41794 16.0536C8.41794 16.2137 8.2935 16.3914 8.13349 16.4892C8.13349 16.6492 8.28461 16.7559 8.28461 16.9248C8.25794 16.987 8.28461 17.0848 8.19572 17.1026C8.07127 17.0759 7.95571 17.067 7.85793 17.0048C7.84015 16.987 7.83126 16.9692 7.81349 16.9692C7.79571 17.0314 7.8846 17.0848 7.92016 17.147C7.85793 17.2359 7.76015 17.147 7.68015 17.147C7.65348 17.2092 7.68015 17.2803 7.61793 17.3248C7.51126 17.3159 7.48459 17.2003 7.42237 17.147C7.36014 17.2181 7.4757 17.2626 7.48459 17.3159C7.44903 17.5292 7.44904 17.7426 7.2357 17.8848L7.09347 17.9559C7.05792 17.8403 7.07569 17.6803 7.04903 17.5648C6.96014 17.707 6.89791 17.8315 6.78236 17.947C6.63124 17.8937 6.54235 17.7248 6.51568 17.5826C6.48352 17.4996 6.47648 17.409 6.49545 17.3221C6.51442 17.2351 6.55855 17.1557 6.62235 17.0937C6.57791 17.0048 6.4179 17.0314 6.40013 16.907C6.16901 16.7559 6.04456 17.1737 5.89345 16.9514C5.86976 16.8473 5.87111 16.739 5.89738 16.6355C5.92365 16.532 5.97409 16.4361 6.04456 16.3559C6.0179 16.267 5.91123 16.2937 5.849 16.2492C5.69789 16.1248 5.49344 16.0003 5.50233 15.7781C5.69936 15.7056 5.91311 15.6913 6.11803 15.737C6.32295 15.7827 6.51038 15.8865 6.65791 16.0359" fill="#008737"/>
<path d="M6.86236 16.0181C6.86236 16.1959 6.9868 16.0625 7.08458 16.1692C7.00458 16.1425 6.95125 16.3025 6.88013 16.2136L6.8268 16.2581C6.85347 16.3203 6.91569 16.3292 6.85347 16.3914C6.77347 16.427 6.76458 16.3203 6.72013 16.2848C6.72013 16.267 6.72902 16.2314 6.70235 16.2225C6.65791 16.2581 6.61346 16.2759 6.54235 16.267C6.52457 16.2314 6.48902 16.1781 6.52457 16.1603C6.5868 16.0714 6.68457 16.187 6.72902 16.1336C6.73791 16.0803 6.69346 16.0181 6.75569 15.9736C6.79124 15.9825 6.84458 15.9648 6.86236 16.0092M7.35125 16.1603C7.35125 16.1959 7.33348 16.2492 7.37792 16.267C7.44015 16.2403 7.50237 16.267 7.53793 16.3203C7.53793 16.3559 7.54681 16.3914 7.50237 16.4092L7.41348 16.3914C7.41348 16.3737 7.38681 16.3648 7.37792 16.347C7.33348 16.3292 7.3157 16.3648 7.28903 16.3825C7.30681 16.4181 7.36014 16.4448 7.34237 16.4892C7.28903 16.5425 7.26236 16.4359 7.20014 16.4625C7.16458 16.4448 7.21792 16.3648 7.1557 16.3381C7.07569 16.3381 7.12903 16.4625 7.03125 16.4181C6.99569 16.3737 6.96014 16.3292 7.00458 16.2759C7.02723 16.2638 7.05305 16.259 7.07851 16.2622C7.10397 16.2654 7.12782 16.2764 7.14681 16.2937C7.20903 16.2314 7.20903 15.9736 7.35125 16.1603ZM6.7468 16.427C6.78235 16.4803 6.73791 16.5603 6.78236 16.6225C6.87125 16.4714 6.94236 16.6581 7.04014 16.6403C7.0668 16.6759 7.04014 16.7292 7.04903 16.7648C6.93347 16.8003 6.79124 16.8359 6.69346 16.7381L6.65791 16.7737C6.72013 16.827 6.78235 16.8981 6.72902 16.9959C6.64013 17.0137 6.50679 17.0137 6.46235 16.9248C6.44457 16.8448 6.51568 16.7914 6.43568 16.7381C6.38235 16.8092 6.38235 16.907 6.2579 16.8359C6.2407 16.8274 6.22538 16.8156 6.21287 16.8011C6.20036 16.7865 6.19092 16.7696 6.18511 16.7514C6.17929 16.7331 6.17723 16.7138 6.17905 16.6948C6.18087 16.6757 6.18652 16.6572 6.19568 16.6403C6.28457 16.5159 6.4179 16.6403 6.4979 16.5781C6.51568 16.4714 6.47124 16.3825 6.56902 16.3203C6.65791 16.3114 6.69346 16.3737 6.7468 16.427Z" fill="#FFFF00"/>
<path d="M7.07569 16.4892C7.04014 16.667 6.89791 16.4803 6.83569 16.4714C6.92458 16.3203 6.97791 16.5248 7.07569 16.4892ZM7.50237 16.6848C7.41348 16.7114 7.41348 16.5959 7.36903 16.5514L7.41348 16.5159L7.50237 16.6848Z" fill="white"/>
<path d="M7.37792 16.6492C7.3957 16.7114 7.30681 16.7648 7.38681 16.8092L7.44903 16.747C7.52015 16.7648 7.59126 16.7825 7.6357 16.8359C7.68904 16.9781 7.54681 16.9781 7.4757 17.0137H7.40459C7.42237 16.9692 7.36903 16.9514 7.35125 16.9248C7.33586 16.9209 7.31963 16.9223 7.30513 16.9288C7.29064 16.9352 7.27871 16.9463 7.27125 16.9603C7.28903 17.0492 7.3957 17.1114 7.28014 17.1826C7.19125 17.1826 7.05792 17.2181 7.0668 17.0937C7.03125 17.0226 7.1557 16.9159 7.02236 16.9159C6.97791 17.0048 6.93347 17.0937 6.81791 17.0048L6.8268 16.8714C6.93347 16.8714 7.0668 16.8892 7.12014 16.7648C7.14681 16.6759 7.06681 16.5959 7.13792 16.5248C7.25348 16.4981 7.3157 16.5781 7.36903 16.6492" fill="#FFFF00"/>
<path d="M7.28903 16.8537C7.32459 16.9248 7.24459 16.9248 7.20014 16.9603C7.1557 16.9603 7.12903 16.9426 7.09347 16.907C7.07569 16.827 7.13792 16.8181 7.18236 16.7914C7.2357 16.7648 7.25348 16.827 7.28903 16.8537Z" fill="black"/>
<path d="M7.22681 16.8892C7.21792 16.9159 7.20014 16.907 7.18236 16.9159L7.16458 16.827C7.20014 16.827 7.24459 16.8448 7.22681 16.8981" fill="white"/>
</g>
<defs>
<clipPath id="clip0_17522_60750">
<path d="M0 4C0 1.79086 1.79086 0 4 0H36C38.2091 0 40 1.79086 40 4V36C40 38.2091 38.2091 40 36 40H4C1.79086 40 0 38.2091 0 36V4Z" fill="white"/>
</clipPath>
</defs>
</svg>
