<svg width="40" height="40" viewBox="0 0 40 40" fill="none" xmlns="http://www.w3.org/2000/svg">
<g clip-path="url(#clip0_17544_64180)">
<path fill-rule="evenodd" clip-rule="evenodd" d="M0 0H40V40H0V0Z" fill="white"/>
<path fill-rule="evenodd" clip-rule="evenodd" d="M1.71685 13.0896L6.59341 5.77746L7.81209 6.59022L2.93553 13.9023L1.71685 13.0896ZM3.54487 14.3087L8.42143 6.9966L9.64011 7.80936L4.76355 15.1215L3.54487 14.3087ZM5.37289 15.5278L10.2495 8.21574L11.4681 9.0285L6.59158 16.3406L5.37289 15.5278Z" fill="#000001"/>
<path fill-rule="evenodd" clip-rule="evenodd" d="M28.5279 30.9703L33.4044 23.6582L34.6231 24.471L29.7465 31.783L28.5279 30.9703ZM30.3559 32.1894L35.2325 24.8773L36.4511 25.6901L31.5746 33.0022L30.3559 32.1894ZM32.1839 33.4086L37.0605 26.0965L38.2792 26.9092L33.4026 34.2213L32.1839 33.4086Z" fill="#000001"/>
<path fill-rule="evenodd" clip-rule="evenodd" d="M36.247 31.2763L30.1536 27.2125L30.56 26.6032L36.6534 30.667L36.247 31.2763Z" fill="white"/>
<path fill-rule="evenodd" clip-rule="evenodd" d="M12.6859 15.1228C13.9793 13.1835 15.99 11.8375 18.2758 11.3807C20.5616 10.924 22.9353 11.394 24.8746 12.6873C26.8139 13.9806 28.1599 15.9914 28.6167 18.2772C29.0734 20.563 28.6034 22.9367 27.3101 24.876L12.6859 15.1228Z" fill="#CD2E3A"/>
<path fill-rule="evenodd" clip-rule="evenodd" d="M12.6859 15.1228C11.3926 17.0621 10.9226 19.4358 11.3793 21.7216C11.8361 24.0074 13.1822 26.0181 15.1214 27.3115C17.0607 28.6048 19.4344 29.0748 21.7202 28.6181C24.006 28.1613 26.0168 26.8152 27.3101 24.876C27.9568 23.9063 28.1918 22.7195 27.9634 21.5766C27.735 20.4337 27.062 19.4283 26.0923 18.7816C25.1227 18.135 23.9359 17.9 22.793 18.1283C21.6501 18.3567 20.6447 19.0298 19.998 19.9994L12.6859 15.1228Z" fill="#0047A0"/>
<path d="M19.998 19.9994C21.3446 17.9802 20.7994 15.2517 18.7802 13.9051C16.7611 12.5584 14.0325 13.1037 12.6859 15.1228C11.3393 17.142 11.8845 19.8705 13.9037 21.2172C15.9229 22.5638 18.6514 22.0186 19.998 19.9994Z" fill="#CD2E3A"/>
<path fill-rule="evenodd" clip-rule="evenodd" d="M6.59741 34.2213L1.72084 26.9092L2.93953 26.0965L7.81609 33.4086L6.59741 34.2213ZM8.42543 33.0022L3.54887 25.6901L4.76755 24.8773L9.64411 32.1894L8.42543 33.0022ZM10.2535 31.783L5.37689 24.4709L6.59558 23.6582L11.4721 30.9703L10.2535 31.783Z" fill="#000001"/>
<path fill-rule="evenodd" clip-rule="evenodd" d="M33.4084 16.3406L28.5319 9.0285L29.7506 8.21574L34.6271 15.5278L33.4084 16.3406ZM35.2365 15.1215L30.3599 7.80936L31.5786 6.9966L36.4551 14.3087L35.2365 15.1215ZM37.0645 13.9023L32.1879 6.59022L33.4066 5.77746L38.2832 13.0896L37.0645 13.9023Z" fill="#000001"/>
<path fill-rule="evenodd" clip-rule="evenodd" d="M7.7137 28.6349L5.88567 29.854L5.47929 29.2447L7.30732 28.0255L7.7137 28.6349ZM32.6967 11.9733L30.564 13.3956L30.1576 12.7863L32.2903 11.3639L32.6967 11.9733ZM36.3527 9.53499L34.5247 10.7541L34.1183 10.1448L35.9464 8.92565L36.3527 9.53499Z" fill="white"/>
</g>
<defs>
<clipPath id="clip0_17544_64180">
<path d="M0 20C0 8.95431 8.95431 0 20 0C31.0457 0 40 8.95431 40 20C40 31.0457 31.0457 40 20 40C8.95431 40 0 31.0457 0 20Z" fill="white"/>
</clipPath>
</defs>
</svg>
