<svg width="40" height="40" viewBox="0 0 40 40" fill="none" xmlns="http://www.w3.org/2000/svg">
<g clip-path="url(#clip0_17544_69742)">
<path d="M0 0H40V40H0V0Z" fill="#000001"/>
<path d="M0 0H40V26.6641H0V0Z" fill="white"/>
<path d="M0 0H40V13.3359H0V0Z" fill="#CE1126"/>
<path d="M6.75 25L10 15L13.25 25L4.74219 18.8203H15.2578M26.75 25L30 15L33.25 25L24.7422 18.8203H35.2578" fill="#007A3D"/>
</g>
<defs>
<clipPath id="clip0_17544_69742">
<path d="M0 20C0 8.95431 8.95431 0 20 0C31.0457 0 40 8.95431 40 20C40 31.0457 31.0457 40 20 40C8.95431 40 0 31.0457 0 20Z" fill="white"/>
</clipPath>
</defs>
</svg>
