<svg width="40" height="40" viewBox="0 0 40 40" fill="none" xmlns="http://www.w3.org/2000/svg">
<g clip-path="url(#clip0_17544_69936)">
<path d="M0 0H40V40H0V0Z" fill="#00247D"/>
<path d="M7.08594 30.0156C6.67188 30.0156 10.9922 27.7109 14.6172 24.7656C19.3594 20.8984 29.5781 14.7109 32.5859 13.7109C32.8984 13.6094 31.9453 14.2422 31.8203 14.4531C28.6094 18.25 31.1719 25.4141 35.1797 29.0156C36.3828 29.9375 36.3203 29.9844 38.5547 30.0781V30.2891L7.08594 30.0156ZM6.82812 30.4375C6.82812 30.4375 6.52344 30.6562 6.52344 30.8203C6.52344 31 6.86719 31.2422 6.86719 31.2422L37.9062 31.5859L38.4766 31.2031L37.6797 30.7109L6.82812 30.4375Z" fill="#FED100"/>
<path d="M8.24219 9.10938L7.92969 10.0547L8.74219 9.46875L9.54688 10.0547L9.23438 9.10938L10.0469 8.52344H9.04688L8.74219 7.57031L8.42969 8.52344H7.4375L8.24219 9.10938ZM14.3203 13.5703L14.9922 13.0859H14.1641L13.9062 12.2969L13.6484 13.0859H12.8203L13.4922 13.5703L13.2344 14.3594L13.9062 13.875L14.5781 14.3594L14.3203 13.5703ZM3.01562 14.5859L2.71094 13.6406L2.39844 14.5859H1.40625L2.21094 15.1719L1.89844 16.1172L2.71094 15.5312L3.51562 16.1172L3.21094 15.1719L4.01562 14.5859H3.01562ZM9.10156 24.1094L8.74219 23L8.38281 24.1094H7.21875L8.15625 24.7891L7.79688 25.8984L8.74219 25.2109L9.67969 25.8984L9.32031 24.7891L10.2578 24.1094H9.10156Z" fill="white"/>
</g>
<defs>
<clipPath id="clip0_17544_69936">
<path d="M0 20C0 8.95431 8.95431 0 20 0C31.0457 0 40 8.95431 40 20C40 31.0457 31.0457 40 20 40C8.95431 40 0 31.0457 0 20Z" fill="white"/>
</clipPath>
</defs>
</svg>
