<svg width="40" height="40" viewBox="0 0 40 40" fill="none" xmlns="http://www.w3.org/2000/svg">
<g clip-path="url(#clip0_17522_60762)">
<path d="M0 0H40V40H0V0Z" fill="#E70013"/>
<path d="M20 10.5469C17.5136 10.5365 15.1249 11.5143 13.3594 13.2651C11.594 15.016 10.5963 17.3964 10.5859 19.8828C10.5756 22.3692 11.5534 24.7579 13.3042 26.5234C15.055 28.2889 17.4355 29.2865 19.9219 29.2969C22.4186 29.2969 24.8131 28.305 26.5786 26.5396C28.3441 24.7741 29.3359 22.3796 29.3359 19.8828C29.3359 17.386 28.3441 14.9915 26.5786 13.2261C24.8131 11.4606 22.4186 10.4688 19.9219 10.4688L20 10.5469ZM25.625 24.1406C24.7453 25.3307 23.5125 26.2128 22.1022 26.6614C20.692 27.11 19.1761 27.1021 17.7706 26.639C16.365 26.1759 15.1414 25.2811 14.274 24.0821C13.4066 22.883 12.9397 21.4408 12.9397 19.9609C12.9397 18.481 13.4066 17.0389 14.274 15.8398C15.1414 14.6408 16.365 13.746 17.7706 13.2828C19.1761 12.8197 20.692 12.8119 22.1022 13.2605C23.5125 13.7091 24.7453 14.5912 25.625 15.7812C24.8169 15.0535 23.8152 14.5755 22.7411 14.4053C21.667 14.235 20.5666 14.3798 19.573 14.8221C18.5795 15.2644 17.7355 15.9851 17.1432 16.8972C16.5508 17.8092 16.2356 18.8734 16.2356 19.9609C16.2356 21.0484 16.5508 22.1126 17.1432 23.0247C17.7355 23.9367 18.5795 24.6575 19.573 25.0998C20.5666 25.542 21.667 25.6868 22.7411 25.5166C23.8152 25.3464 24.8169 24.8684 25.625 24.1406ZM25.2578 22.4453L22.3359 21.5L20.5312 23.9844V20.9141L17.6172 19.9609L20.5312 19.0078V15.9297L22.3359 18.4219L25.2578 17.4766L23.4531 19.9609L25.2578 22.4453Z" fill="white"/>
</g>
<defs>
<clipPath id="clip0_17522_60762">
<path d="M0 4C0 1.79086 1.79086 0 4 0H36C38.2091 0 40 1.79086 40 4V36C40 38.2091 38.2091 40 36 40H4C1.79086 40 0 38.2091 0 36V4Z" fill="white"/>
</clipPath>
</defs>
</svg>
