<svg width="40" height="40" viewBox="0 0 40 40" fill="none" xmlns="http://www.w3.org/2000/svg">
<g clip-path="url(#clip0_17544_70153)">
<path d="M0 0H40V40H0V0Z" fill="#009FCA"/>
<path fill-rule="evenodd" clip-rule="evenodd" d="M37.3438 17.6797L37.8984 19.2734L36.4609 18.2891L35.0156 19.2734L35.5703 17.6797L34.125 16.6953H35.9141L36.4609 15.1016L37.0078 16.6953H38.7891L37.3438 17.6797ZM32.875 30.3984L33.4219 31.9922L31.9844 31L30.5469 31.9922L31.0938 30.3984L29.6562 29.4062H31.4375L31.9844 27.8125L32.5312 29.4141H34.3203L32.875 30.3984ZM37.3516 27.5156L37.8984 29.1094L36.4609 28.125L35.0156 29.1094L35.5703 27.5156L34.125 26.5312H35.9141L36.4609 24.9375L37.0078 26.5312H38.7891L37.3516 27.5156ZM18.1172 36.7344L18.6719 38.3359L17.2344 37.3438L15.7891 38.3359L16.3438 36.7422L14.8984 35.7578H16.6797L17.2266 34.1641L17.7812 35.7578H19.5625L18.1172 36.7344ZM21.4844 29.8281L20.9375 28.2344L22.375 29.2188L23.8125 28.2344L23.2656 29.8281L24.7031 30.8125H22.9219L22.375 32.4062L21.8281 30.8125H20.0469L21.4844 29.8281ZM26.7422 22.5625L26.1875 20.9688L27.625 21.9531L29.0703 20.9688L28.5234 22.5625L29.9609 23.5469H28.1797L27.6328 25.1406L27.0859 23.5469H25.2969L26.7422 22.5625ZM31.1562 21.0547L30.6094 19.4609L32.0469 20.4453L33.4844 19.4609L32.9375 21.0547L34.375 22.0391H32.5938L32.0469 23.6328L31.5 22.0391H29.7109L31.1562 21.0547ZM26.7422 33.6328L26.1875 32.0391L27.625 33.0234L29.0703 32.0391L28.5234 33.6328L29.9609 34.6172H28.1797L27.6328 36.2109L27.0859 34.6172H25.2969L26.7422 33.6328ZM21.4844 34.9141L20.9375 33.3203L22.375 34.3047L23.8125 33.3203L23.2656 34.9141L24.7031 35.8984H22.9219L22.375 37.4922L21.8281 35.8984H20.0469L21.4844 34.9141Z" fill="#FFF40D"/>
<path d="M0 0H20V20H0V0Z" fill="#012169"/>
<path d="M20 0V2.5L12.5781 10L20 17.3047V20H17.3828L9.92188 12.6562L2.65625 20H0V17.3438L7.26562 10.0391L0 2.89062V0H2.42188L9.92188 7.34375L17.1875 0H20Z" fill="white"/>
<path d="M7.1875 12.6562L7.61719 13.9844L1.64062 20H0V19.8828L7.1875 12.6562ZM12.0312 12.1875L14.1406 12.5L20 18.2422V20L12.0312 12.1875ZM20 0L12.5 7.65625L12.3438 5.9375L18.2031 0H20ZM0 0.0390625L7.53906 7.42188L5.23438 7.10938L0 1.91406V0.0390625Z" fill="#C8102E"/>
<path d="M6.875 0V20H13.125V0H6.875ZM0 6.875V13.125H20V6.875H0Z" fill="white"/>
<path d="M0 8.125V11.875H20V8.125H0ZM8.125 0V20H11.875V0H8.125Z" fill="#C8102E"/>
</g>
<defs>
<clipPath id="clip0_17544_70153">
<path d="M0 20C0 8.95431 8.95431 0 20 0C31.0457 0 40 8.95431 40 20C40 31.0457 31.0457 40 20 40C8.95431 40 0 31.0457 0 20Z" fill="white"/>
</clipPath>
</defs>
</svg>
