<svg width="40" height="40" viewBox="0 0 40 40" fill="none" xmlns="http://www.w3.org/2000/svg">
<g clip-path="url(#clip0_17544_70243)">
<path fill-rule="evenodd" clip-rule="evenodd" d="M0 0H40V40H0V0Z" fill="#4B92DB"/>
<path d="M23.1403 29.35C22.9953 29.5074 22.8363 29.6513 22.6653 29.78C21.6053 28.68 20.3553 27.47 19.1703 27.47C18.4353 27.47 17.9103 28.03 17.2903 28.42C16.4353 28.97 15.2603 29.28 14.2553 28.875C13.6869 28.6803 13.1822 28.3347 12.7953 27.875C13.2209 28.1404 13.7032 28.3015 14.2028 28.3449C14.7025 28.3884 15.2053 28.313 15.6703 28.125C16.6553 27.715 17.6653 27.17 18.7903 27.17C20.4503 27.17 22.0303 28.295 23.1403 29.35ZM10.8603 25.9C11.9603 27.15 13.7553 26.75 15.2203 27.06C15.4253 27.11 15.6203 27.175 15.8403 27.14C15.6653 27.03 15.4303 27.015 15.2303 26.94C14.0903 26.51 13.9153 25.29 13.2903 24.455C14.0903 24.985 14.7453 25.705 15.4903 26.39C16.0155 26.8243 16.6506 27.1046 17.3253 27.2C17.1653 27.26 16.9553 27.25 16.7753 27.29C15.5753 27.59 14.2453 28.06 12.9653 27.64C12.0727 27.3424 11.3237 26.7217 10.8653 25.9H10.8603ZM9.10031 23C9.78531 24.555 11.5103 24.68 12.6503 25.63C12.8547 25.8115 13.0816 25.9661 13.3253 26.09L13.3403 26.08C13.0584 25.8342 12.8052 25.5575 12.5853 25.255C11.9303 24.305 12.1453 23.005 11.6403 21.995C12.1094 22.5164 12.4986 23.1045 12.7953 23.74C13.2203 24.75 13.3653 25.905 14.3203 26.675C13.2853 26.335 12.0953 26.4 11.1703 25.795C10.1903 25.155 9.28531 24.145 9.10031 23.005V23ZM8.36531 19.86C8.46531 21.23 9.91531 21.96 10.6153 23.085C10.7653 23.325 10.9153 23.575 11.1303 23.765C11.0953 23.62 10.9803 23.49 10.9103 23.35C10.6808 22.8446 10.5893 22.2873 10.6453 21.735C10.7103 21.035 11.0003 20.385 10.8903 19.65C11.4903 20.945 11.2953 22.56 11.6403 23.955C11.7203 24.265 11.9053 24.535 12.0203 24.83C11.4353 24.38 10.6653 23.98 10.0203 23.48C9.37726 23.0177 8.87527 22.3859 8.57031 21.655C8.37397 21.0783 8.30405 20.4661 8.36531 19.86ZM8.40531 17.34C8.47531 17.035 8.53031 16.72 8.66031 16.44C8.41031 17.73 9.27031 18.66 9.56031 19.78C9.67031 20.2 9.71031 20.645 9.88031 21.04C9.89531 21.045 9.91031 21.03 9.92031 21.02C9.49531 19.83 10.1203 18.73 10.7203 17.795C10.8673 17.5385 10.972 17.2599 11.0303 16.97C11.0953 17.51 10.9803 18.13 10.8803 18.685C10.7553 19.4 10.5103 20.07 10.3153 20.76C10.2097 21.2097 10.2012 21.6767 10.2903 22.13L10.2253 22.08C9.77531 21.25 8.88531 20.6 8.62031 19.69C8.367 18.934 8.29339 18.1294 8.40531 17.34ZM8.88031 15.95C8.89665 15.0316 9.23259 14.1475 9.83031 13.45C9.84531 13.44 9.86031 13.425 9.88031 13.43C9.25031 14.38 9.82531 15.59 9.74031 16.675L9.66031 17.785C9.67031 17.795 9.67031 17.83 9.70031 17.815C9.74031 17.69 9.75031 17.56 9.77031 17.43C9.92031 16.53 10.7103 15.91 11.3753 15.28C11.5291 15.1348 11.6487 14.9572 11.7253 14.76C11.6703 15.21 11.5453 15.665 11.3453 16.07C10.8303 17.11 9.84031 17.95 9.66031 19.135C9.57531 18 8.88031 17.155 8.88031 15.95ZM10.5303 12.655C10.8178 12.3094 11.2002 12.0556 11.6303 11.925C10.8053 12.49 10.8503 13.495 10.6003 14.335C10.5103 14.64 10.3753 14.93 10.3003 15.245L10.3253 15.265C10.4727 14.8868 10.7034 14.5467 11.0003 14.27C11.5753 13.73 12.4403 13.4 12.7253 12.605C12.7103 13.71 11.7703 14.55 10.9103 15.2C10.5275 15.4888 10.2161 15.8618 10.0003 16.29C10.0303 15.99 10.0503 15.73 10.0203 15.435C9.93031 14.47 9.87031 13.385 10.5353 12.655H10.5303ZM13.8553 10.8C13.2503 11.335 12.8453 12.02 12.3753 12.635C11.9903 13.15 11.4553 13.465 11.0003 13.895C11.2503 13.385 11.2903 12.795 11.6053 12.3C12.1403 11.45 13.0303 11.12 13.8553 10.8Z" fill="white"/>
<path d="M16.8603 29.35C17.0054 29.5074 17.1643 29.6513 17.3353 29.78C18.3953 28.68 19.6453 27.47 20.8303 27.47C21.5653 27.47 22.0903 28.03 22.7103 28.42C23.5653 28.97 24.7403 29.28 25.7453 28.875C26.3137 28.6803 26.8184 28.3347 27.2053 27.875C26.7798 28.1404 26.2975 28.3015 25.7978 28.3449C25.2981 28.3884 24.7953 28.313 24.3303 28.125C23.3453 27.715 22.3353 27.17 21.2103 27.17C19.5503 27.17 17.9703 28.295 16.8603 29.35ZM29.1403 25.9C28.0403 27.15 26.2453 26.75 24.7803 27.06C24.5753 27.11 24.3803 27.175 24.1603 27.14C24.3353 27.03 24.5703 27.015 24.7703 26.94C25.9103 26.51 26.0853 25.29 26.7103 24.455C25.9103 24.985 25.2553 25.705 24.5103 26.39C23.9852 26.8243 23.35 27.1046 22.6753 27.2C22.8353 27.26 23.0453 27.25 23.2253 27.29C24.4253 27.59 25.7553 28.06 27.0353 27.64C27.9279 27.3424 28.677 26.7217 29.1353 25.9H29.1403ZM30.9003 23C30.2153 24.555 28.4903 24.68 27.3503 25.63C27.1459 25.8115 26.919 25.9661 26.6753 26.09L26.6603 26.08C26.9422 25.8342 27.1955 25.5575 27.4153 25.255C28.0703 24.305 27.8553 23.005 28.3603 21.995C27.8912 22.5164 27.502 23.1045 27.2053 23.74C26.7803 24.75 26.6353 25.905 25.6803 26.675C26.7153 26.335 27.9053 26.4 28.8303 25.795C29.8103 25.155 30.7153 24.145 30.9003 23.005V23ZM31.6353 19.86C31.5353 21.23 30.0853 21.96 29.3853 23.085C29.2353 23.325 29.0853 23.575 28.8703 23.765C28.9053 23.62 29.0203 23.49 29.0903 23.35C29.3199 22.8446 29.4113 22.2873 29.3553 21.735C29.2903 21.035 29.0003 20.385 29.1103 19.65C28.5103 20.945 28.7053 22.56 28.3603 23.955C28.2803 24.265 28.0953 24.535 27.9803 24.83C28.5653 24.38 29.3353 23.98 29.9803 23.48C30.6234 23.0177 31.1254 22.3859 31.4303 21.655C31.6267 21.0783 31.6966 20.4661 31.6353 19.86ZM31.5953 17.34C31.5253 17.035 31.4703 16.72 31.3403 16.44C31.5903 17.73 30.7303 18.66 30.4403 19.78C30.3303 20.2 30.2903 20.645 30.1203 21.04C30.1053 21.045 30.0903 21.03 30.0803 21.02C30.5053 19.83 29.8803 18.73 29.2803 17.795C29.1333 17.5385 29.0286 17.2599 28.9703 16.97C28.9053 17.51 29.0203 18.13 29.1203 18.685C29.2453 19.4 29.4903 20.07 29.6853 20.76C29.7909 21.2097 29.7994 21.6767 29.7103 22.13L29.7753 22.08C30.2253 21.25 31.1153 20.6 31.3803 19.69C31.6336 18.934 31.7072 18.1294 31.5953 17.34ZM31.1203 15.95C31.104 15.0316 30.768 14.1475 30.1703 13.45C30.1553 13.44 30.1403 13.425 30.1203 13.43C30.7503 14.38 30.1753 15.59 30.2603 16.675L30.3403 17.785C30.3303 17.795 30.3303 17.83 30.3003 17.815C30.2603 17.69 30.2503 17.56 30.2303 17.43C30.0803 16.53 29.2903 15.91 28.6253 15.28C28.4715 15.1348 28.3519 14.9572 28.2753 14.76C28.3303 15.21 28.4553 15.665 28.6553 16.07C29.1703 17.11 30.1603 17.95 30.3403 19.135C30.4253 18 31.1203 17.155 31.1203 15.95ZM29.4703 12.655C29.1829 12.3094 28.8004 12.0556 28.3703 11.925C29.1953 12.49 29.1503 13.495 29.4003 14.335C29.4903 14.64 29.6253 14.93 29.7003 15.245L29.6753 15.265C29.528 14.8868 29.2972 14.5467 29.0003 14.27C28.4253 13.73 27.5603 13.4 27.2753 12.605C27.2903 13.71 28.2303 14.55 29.0903 15.2C29.4731 15.4888 29.7845 15.8618 30.0003 16.29C29.9703 15.99 29.9503 15.73 29.9803 15.435C30.0703 14.47 30.1303 13.385 29.4653 12.655H29.4703ZM26.1453 10.8C26.7503 11.335 27.1553 12.02 27.6253 12.635C28.0103 13.15 28.5453 13.465 29.0003 13.895C28.7503 13.385 28.7103 12.795 28.3953 12.3C27.8603 11.45 26.9703 11.12 26.1453 10.8Z" fill="white"/>
<path d="M27.4219 21.8359L27.2344 21.7344C26.8565 22.5152 26.3553 23.2301 25.75 23.8516L24.7031 22.8047C25.2113 22.2812 25.6285 21.6765 25.9375 21.0156L25.7578 20.9219C25.4583 21.5623 25.0544 22.1484 24.5625 22.6562L23.6094 21.7031C24.0128 21.2864 24.3406 20.8026 24.5781 20.2734L24.3984 20.1797C24.171 20.691 23.8564 21.1589 23.4688 21.5625L22.4219 20.5234C22.7108 20.2177 22.9388 19.8598 23.0938 19.4687L22.9141 19.375C22.7695 19.7483 22.5546 20.0904 22.2812 20.3828L21.3281 19.4297C21.6005 19.1281 21.7606 18.7418 21.7812 18.3359H23.125C23.1147 18.6918 23.0433 19.0433 22.9141 19.375L23.0938 19.4687C23.2367 19.1102 23.316 18.7295 23.3281 18.3438H24.8125C24.7985 18.9798 24.6577 19.6066 24.3984 20.1875L24.5781 20.2812C24.8504 19.6682 24.9965 19.0066 25.0078 18.3359H26.3516C26.3402 19.2329 26.1378 20.1171 25.7578 20.9297L25.9375 21.0234C26.3281 20.1953 26.5391 19.2812 26.5547 18.3359H28.0391C28.0246 19.5142 27.7499 20.6747 27.2344 21.7344L27.4141 21.8359C27.9593 20.7164 28.2425 19.4874 28.2422 18.2422C28.2422 17.1641 28.0312 16.1172 27.6406 15.1484L27.4609 15.2266C27.8281 16.1406 28.0234 17.125 28.0391 18.1406H26.5547C26.5409 17.3451 26.382 16.5588 26.0859 15.8203L25.9062 15.8984C26.1894 16.6127 26.3403 17.3724 26.3516 18.1406H25.0078C24.9978 17.5524 24.8841 16.9706 24.6719 16.4219L24.4922 16.5C24.6913 17.0244 24.7971 17.5797 24.8047 18.1406H23.3203C23.312 17.7834 23.246 17.4299 23.125 17.0938L22.9375 17.1719C23.0509 17.4828 23.1142 17.8098 23.125 18.1406H21.7812C21.7606 17.7348 21.6005 17.3484 21.3281 17.0469L22.2812 16.1016C22.5733 16.4093 22.7993 16.7735 22.9453 17.1719L23.125 17.0938C22.9698 16.6724 22.7306 16.287 22.4219 15.9609L23.4688 14.9062C23.9107 15.3671 24.256 15.9116 24.4844 16.5078L24.6719 16.4297C24.432 15.8098 24.0708 15.244 23.6094 14.7656L24.5625 13.8203C25.1427 14.418 25.5993 15.1241 25.9062 15.8984L26.0938 15.8203C25.7753 15.0223 25.3028 14.2949 24.7031 13.6797L25.7578 12.625C26.4899 13.3727 27.0685 14.2565 27.4609 15.2266L27.6406 15.1484C27.2264 14.1244 26.6099 13.1945 25.8281 12.4141C25.0439 11.6277 24.1084 11.0085 23.0781 10.5938L23 10.7812C23.9756 11.1719 24.8649 11.7506 25.6172 12.4844L24.5625 13.5391C23.9573 12.9494 23.2436 12.4825 22.4609 12.1641L22.3828 12.3516C23.1419 12.6584 23.8344 13.1094 24.4219 13.6797L23.4688 14.6328C23.0152 14.1929 22.4823 13.843 21.8984 13.6016L21.8203 13.7891C22.3806 14.0191 22.8922 14.3531 23.3281 14.7734L22.2812 15.8203C21.9898 15.5456 21.651 15.3259 21.2812 15.1719L21.2031 15.3594C21.5491 15.5021 21.8667 15.7059 22.1406 15.9609L21.1875 16.9141C20.8859 16.6416 20.4996 16.4816 20.0938 16.4609V15.1172C20.4774 15.1259 20.8561 15.2053 21.2109 15.3516L21.2891 15.1719C20.9125 15.0136 20.5099 14.9262 20.1016 14.9141V13.4297C20.6917 13.4427 21.2744 13.5645 21.8203 13.7891L21.8984 13.6016C21.3272 13.3694 20.718 13.2449 20.1016 13.2344V11.875C20.887 11.8882 21.6632 12.0471 22.3906 12.3437L22.4688 12.1562C21.7161 11.8518 20.9134 11.6902 20.1016 11.6797V10.1953C21.1172 10.2031 22.0938 10.4062 23.0078 10.7734L23.0859 10.5859C22.1045 10.1942 21.0567 9.9953 20 10C18.7193 9.99925 17.4563 10.2989 16.3125 10.875L16.4062 11.0469C17.4913 10.5045 18.6855 10.216 19.8984 10.2031V11.6875C18.9245 11.7013 17.966 11.9336 17.0938 12.3672L17.1875 12.5391C18.0309 12.1209 18.9572 11.8967 19.8984 11.8828V13.2344C19.175 13.2474 18.4632 13.4181 17.8125 13.7344L17.8984 13.9062C18.5227 13.6045 19.2051 13.4419 19.8984 13.4297V14.9141C19.4467 14.9279 19.0027 15.0343 18.5938 15.2266L18.6797 15.3984C19.0622 15.2206 19.4768 15.1223 19.8984 15.1094V16.4609C19.6875 16.4687 19.4922 16.5234 19.3047 16.6016L19.3984 16.7734C19.5894 16.6954 19.7937 16.6556 20 16.6562C20.2079 16.6569 20.4136 16.6987 20.6054 16.7791C20.7971 16.8596 20.971 16.9771 21.1172 17.125C21.2651 17.2712 21.3826 17.4451 21.463 17.6368C21.5435 17.8285 21.5853 18.0343 21.5859 18.2422C21.5859 19.1094 20.875 19.8281 20 19.8281C19.7907 19.8289 19.5834 19.7878 19.3902 19.7073C19.197 19.6268 19.0218 19.5085 18.875 19.3594C18.7285 19.2126 18.6124 19.0383 18.5333 18.8467C18.4543 18.655 18.4137 18.4496 18.4141 18.2422C18.4141 17.8125 18.5781 17.4141 18.8828 17.1172C19.0304 16.9698 19.2056 16.853 19.3984 16.7734L19.3047 16.5937C19.1246 16.6702 18.9583 16.7758 18.8125 16.9062L17.8594 15.9609C18.0981 15.7288 18.3724 15.5362 18.6719 15.3906L18.5938 15.2344C18.2724 15.3845 17.977 15.5849 17.7188 15.8281L16.6641 14.7656C17.0279 14.4162 17.4445 14.1262 17.8984 13.9062L17.8125 13.7344C17.3412 13.9652 16.9089 14.2683 16.5312 14.6328L15.5781 13.6719C16.0519 13.2102 16.5949 12.8253 17.1875 12.5312L17.0938 12.3594C16.4845 12.6621 15.9257 13.0574 15.4375 13.5312L14.3828 12.4766C14.9789 11.8956 15.6615 11.4107 16.4062 11.0391L16.3125 10.8672C14.7071 11.6755 13.4075 12.9832 12.6094 14.5937L12.7813 14.6875C13.1558 13.9246 13.6489 13.2258 14.2422 12.6172L15.2969 13.6719C14.8058 14.1791 14.3995 14.7621 14.0938 15.3984L14.2656 15.4922C14.5629 14.8727 14.9587 14.3054 15.4375 13.8125L16.3906 14.7656C16.0047 15.1664 15.6879 15.6284 15.4531 16.1328L15.625 16.2266C15.848 15.7367 16.1517 15.2877 16.5234 14.8984L17.5781 15.9531C17.308 16.2408 17.0911 16.5741 16.9375 16.9375L17.1094 17.0312C17.2543 16.6846 17.4608 16.367 17.7188 16.0938L18.6719 17.0469C18.4016 17.3467 18.2418 17.7298 18.2188 18.1328H16.875C16.8858 17.7545 16.9652 17.3812 17.1094 17.0312L16.9375 16.9375C16.7753 17.3159 16.6852 17.7213 16.6719 18.1328H15.1875C15.2006 17.4741 15.3496 16.8251 15.625 16.2266L15.4531 16.1328C15.1595 16.7596 14.9998 17.4408 14.9844 18.1328H13.6406C13.6556 17.2178 13.8688 16.3168 14.2656 15.4922L14.0938 15.3984C13.681 16.2518 13.4597 17.185 13.4453 18.1328H11.9609C11.9747 16.9402 12.255 15.7657 12.7813 14.6953L12.6094 14.5937C12.0485 15.7254 11.7571 16.9714 11.7578 18.2344C11.759 19.0198 11.8721 19.8011 12.0938 20.5547L12.2891 20.5078C12.0804 19.7997 11.97 19.0663 11.9609 18.3281H13.4453C13.4538 18.9425 13.5484 19.5526 13.7266 20.1406L13.9219 20.0938C13.7482 19.521 13.6561 18.9266 13.6484 18.3281H14.9922C15.0001 18.8161 15.079 19.3004 15.2266 19.7656L15.4219 19.7187C15.276 19.2692 15.197 18.8007 15.1875 18.3281H16.6719C16.6828 18.6774 16.7488 19.0228 16.8672 19.3516L17.0625 19.3047C16.9483 18.9913 16.885 18.6616 16.875 18.3281H18.2188C18.2394 18.734 18.3995 19.1203 18.6719 19.4219L17.7188 20.375C17.4297 20.0664 17.2064 19.7023 17.0625 19.3047L16.8672 19.3516C17.0208 19.7847 17.263 20.1811 17.5781 20.5156L16.5312 21.5625C16.0264 21.04 15.647 20.4095 15.4219 19.7187L15.2266 19.7656C15.4608 20.4922 15.8591 21.1551 16.3906 21.7031L15.4375 22.6562C14.7355 21.935 14.2158 21.0564 13.9219 20.0938L13.7266 20.1406C14.0278 21.1381 14.5636 22.049 15.2891 22.7969L14.25 23.8438C13.333 22.9092 12.6596 21.7636 12.2891 20.5078L12.0938 20.5547C12.4799 21.8804 13.1947 23.087 14.1719 24.0625C14.8438 24.7344 15.6172 25.2734 16.4453 25.6719L16.5469 25.5C15.7441 25.1183 15.0102 24.6062 14.375 23.9844L15.4297 22.9375C15.9678 23.4591 16.5915 23.8845 17.2734 24.1953L17.3672 24.0234C16.7021 23.721 16.0943 23.306 15.5703 22.7969L16.5234 21.8437C16.961 22.266 17.472 22.6049 18.0312 22.8437L18.1328 22.6719C17.5877 22.4423 17.0897 22.1138 16.6641 21.7031L17.7109 20.6562C18.0439 20.9677 18.4375 21.2071 18.8672 21.3594L18.9688 21.1875C18.5532 21.0448 18.1724 20.8158 17.8516 20.5156L18.8047 19.5625C19.1063 19.8349 19.4926 19.995 19.8984 20.0156V21.3594C19.579 21.3504 19.2628 21.2924 18.9609 21.1875L18.8672 21.3672C19.1964 21.4831 19.5417 21.5464 19.8906 21.5547V23.0391C19.2868 23.0284 18.6904 22.9038 18.1328 22.6719L18.0312 22.8437C18.6198 23.0945 19.251 23.2297 19.8906 23.2422V24.5859C19.0197 24.5741 18.1607 24.3826 17.3672 24.0234L17.2734 24.1953C18.0953 24.5723 18.9865 24.7744 19.8906 24.7891V26.2734C18.7188 26.2578 17.5781 25.9922 16.5312 25.4922L16.4375 25.6719C17.5489 26.2069 18.7665 26.4846 20 26.4844C21.3125 26.4844 22.5781 26.1719 23.7109 25.6016L23.6172 25.4141C22.5265 25.9658 21.3238 26.2598 20.1016 26.2734V24.7891C21.0867 24.777 22.0562 24.5419 22.9375 24.1016L22.8438 23.9219C21.9921 24.35 21.0546 24.5797 20.1016 24.5937V23.25C20.8425 23.2357 21.571 23.0569 22.2344 22.7266L22.1406 22.5469C21.507 22.8653 20.8105 23.0387 20.1016 23.0547V21.5703C20.5735 21.5567 21.037 21.4422 21.4609 21.2344L21.3672 21.0547C20.9721 21.2471 20.5408 21.3536 20.1016 21.3672V20.0234C20.5047 20.001 20.888 19.8411 21.1875 19.5703L22.1406 20.5234C21.9109 20.7383 21.6501 20.9173 21.3672 21.0547L21.4609 21.2344C21.7615 21.0866 22.0381 20.8944 22.2812 20.6641L23.3281 21.7109C22.9768 22.0479 22.5764 22.3298 22.1406 22.5469L22.2344 22.7266C22.6877 22.499 23.1039 22.204 23.4688 21.8516L24.4219 22.8047C23.9557 23.2552 23.4235 23.6319 22.8438 23.9219L22.9375 24.1016C23.535 23.8013 24.083 23.4114 24.5625 22.9453L25.6094 23.9922C25.0215 24.5647 24.3497 25.0441 23.6172 25.4141L23.7109 25.6016C24.4907 25.206 25.2027 24.6892 25.8203 24.0703C26.4726 23.4197 27.0113 22.6645 27.4141 21.8359H27.4219Z" fill="white"/>
<path d="M20.4219 16.3281V16.3984H20.4766V16.3359L20.4219 16.3281ZM20.3438 16.25H20.4219V16.3047H20.3438V16.25ZM20.2891 16.25V16.1953L20.2344 16.1875V16.2344L20.2891 16.25ZM20.1797 16.2188L20.125 16.2109V16.1562L20.1875 16.1641L20.1797 16.2188ZM19.7031 16.1562H19.7656V16.2031H19.7031V16.1562ZM19.6094 16.25V16.2031L19.5547 16.1953V16.2422L19.6094 16.25ZM19.5547 16.3281L19.4844 16.3047L19.5 16.2578L19.5625 16.2734L19.5547 16.3281ZM19.4375 16.3828L19.4297 16.3359L19.4766 16.3281L19.4844 16.375L19.4375 16.3828ZM12.8906 21.4844H12.8516V21.5625H12.9219V21.6797H12.9688L12.9609 21.5469L12.8906 21.5234V21.4844ZM13.5469 22.2188L13.5156 22.2734L13.4219 22.1953L13.3594 22.1016L13.2656 21.8672L13.3906 21.9297L13.4297 22.0469L13.4922 22.0938L13.5469 22.2188ZM15.2344 24.4531L15.1719 24.3516L15.2734 24.3672L15.375 24.4609L15.4219 24.5703L15.3594 24.6016L15.3281 24.5547L15.25 24.5312L15.2344 24.4531ZM19.75 16.875H19.6562L19.6406 16.6875L19.6953 16.6484V16.5625H19.3984V16.4844L19.4375 16.4531L19.3672 16.4297L19.3203 16.5L19.3047 16.5781L19.2188 16.5938V16.6328H19.1562V16.7422L18.9219 16.9375L18.4609 16.9219C18.4297 17 18.3438 16.9141 18.3438 16.9141C18.3281 16.8594 18.2109 16.9141 18.2109 16.9141C18.2109 17 18.0547 16.8672 18.0547 16.8672L17.7656 16.6562C17.6016 16.5 17.3516 16.7031 17.3438 16.7422C17.3438 16.8594 17.1484 16.7656 17.1484 16.7656C17.1484 16.7656 16.9844 16.7188 16.9609 16.7812C16.9297 16.8516 16.8281 16.8359 16.8281 16.8359L16.8047 16.8672L16.7266 16.8828L16.7109 16.9375L16.6094 16.9531L16.8594 16.9453C16.9219 16.9375 16.8359 17.0859 16.7891 17.0781L16.6719 17.0859L16.6328 17.1328H16.5234L16.4766 17.1953H16.3203C16.3203 17.1953 16.2266 17.2656 16.2344 17.2891C16.2422 17.3125 16.2188 17.3906 16.1953 17.3906C16.1719 17.3906 16.1172 17.4688 16.1328 17.4922C16.1484 17.5156 16.0859 17.6016 16.0859 17.6016L16.0703 17.6797L16.0156 17.7031V17.9375L15.9219 18V18.1016L15.7656 18.2578L15.7891 18.3984L15.6641 18.5312L15.6797 18.6641L15.6016 18.6875L15.5859 18.75L15.5547 18.9297H15.6328C15.6797 18.9219 15.6719 19.0469 15.6328 19.0625C15.6016 19.0781 15.5078 19.1094 15.5547 19.1406C15.6094 19.1797 15.4297 19.1719 15.4297 19.1172C15.4297 19.0703 15.3281 19.0312 15.3047 19.0391C15.2812 19.0625 15.2344 18.9688 15.2344 18.9688C15.1484 18.875 14.8672 18.9766 14.8672 18.9766L14.8203 19.1094C14.7266 19.1328 14.6719 19.2812 14.6719 19.2812C14.5938 19.3047 14.5391 19.3984 14.5625 19.4219C14.5859 19.4531 14.5234 19.4609 14.5234 19.4609V19.6406L14.4844 19.7031V19.9062C14.5391 19.9062 14.5312 20 14.5312 20C14.4531 20 14.4609 20.1172 14.4609 20.1172L14.2891 20.1719L14.2578 20.2266L14.0391 20.2188L13.9844 20.2734L13.9219 20.2188H13.5078L13.4922 20.1719L13.4141 20.1562L13.3984 20.0625L13.2734 20.0703L13.25 20.125H13.1172C13.125 20.2188 12.9844 20.3438 12.9609 20.3125C12.9531 20.2734 12.8594 20.1875 12.8984 20.1641L13.0547 20.1328V20.0703H12.7422L12.7109 20.1172H12.5781V20.2578L12.5234 20.2734C12.4766 20.3047 12.5234 20.3906 12.5234 20.3906C12.5859 20.4531 12.5234 20.5469 12.5234 20.5469C12.4688 20.5938 12.5625 20.6875 12.5625 20.6875C12.625 20.7031 12.5234 20.7578 12.5234 20.7578C12.5391 20.8359 12.5859 20.8672 12.5859 20.8672C12.5391 20.9453 12.6172 20.9922 12.6172 20.9922L12.625 21.1328L12.6875 21.1719V21.2656L12.7188 21.3203H12.8516L12.8438 21.1094C12.7266 20.9766 12.9453 20.9453 12.9531 20.9922C12.9531 21.0469 13.0547 21.0703 13.0547 21.0703C13.0703 21.1953 13.2109 21.2734 13.25 21.1484C13.2891 21.0156 13.3281 21.0938 13.3516 21.1484C13.375 21.2109 13.5312 21.3594 13.5312 21.3594H13.6562L13.6719 21.4766C13.8125 21.4688 13.8594 21.4766 13.9141 21.6797C13.9304 21.7328 13.9586 21.7814 13.9965 21.822C14.0344 21.8626 14.081 21.8941 14.1328 21.9141H14.25C14.25 21.8125 14.3672 21.9297 14.3672 21.9844C14.3672 22.0313 14.5859 22.2188 14.5859 22.2188L14.8203 22.2734L15.0234 22.4453L15.1797 22.4297H15.25C15.2891 22.2813 15.4844 22.4297 15.5078 22.4844C15.5234 22.5391 15.6562 22.625 15.6641 22.5781C15.6875 22.5391 15.7812 22.5625 15.7969 22.6875C15.8125 22.8125 15.875 22.7891 15.875 22.7891H16.3438L16.5078 22.6328H16.9297C17.1484 22.625 17.0156 22.3203 16.9766 22.3203C16.8984 22.2656 17 22.0234 17 22.0234L16.3906 21.4609C16.25 21.4609 16.375 21.25 16.375 21.25C16.4844 21.1875 16.3516 21.0781 16.3516 21.0781C16.3672 20.9766 16.2969 20.8594 16.2969 20.8594C16.1406 20.7578 16.1875 20.5625 16.1875 20.5625V20.4297C16.0625 20.3125 16.2344 20.2891 16.2344 20.2891C16.2969 20.1875 16.1953 20.1172 16.1953 20.1172L16.1875 20.0078L16.0547 19.9922L16.0391 19.5938L15.7344 19.1641C15.6797 19.1484 15.7188 19.0469 15.7188 19.0469C15.7969 19 15.7031 18.8984 15.7031 18.8984L15.6953 18.7188L15.8672 18.6953L15.9141 18.6328H15.9922V18.4141C16.0234 18.3047 16.125 18.3594 16.125 18.3594L16.2422 18.3672L16.3125 18.2422L16.3281 18.1406H16.2344C16.1328 18.0703 16.1875 17.8516 16.1875 17.8516C16.3438 17.6172 16.5234 17.75 16.5234 17.75H16.6406C16.8203 17.8594 16.6562 18.0859 16.6562 18.0859C16.625 18.1328 16.6406 18.2969 16.6406 18.2969L16.6875 18.5625L16.5781 18.6562C16.4844 18.7031 16.4844 18.8281 16.5781 18.8516C16.6562 18.8516 16.625 19.0156 16.5234 18.9062C16.375 18.9062 16.6016 19.0469 16.5391 19.0078C16.6953 19.0859 16.6562 18.9453 16.6562 18.9453L16.8594 18.7891C16.9375 18.7266 17.0625 18.9062 17.0625 18.9375C17.0625 18.9609 17.3984 18.9375 17.3984 18.9375C17.4922 19 17.5234 19.1562 17.5234 19.1562C17.6172 19.0391 17.8047 19.1484 17.6641 19.2109C17.7969 19.2969 17.7969 19.3672 17.7969 19.3672C17.9062 19.3359 17.9062 19.4219 17.9062 19.4453L17.9375 19.3203C17.8125 19.2266 18.1016 19.1953 18.0156 19.3672L17.9688 19.4453L18.0547 19.5078L18.0625 19.7031C18.25 19.6875 18.1953 19.4609 18.1953 19.4609L18.2734 19.4375C18.2734 19.3594 18.3359 19.4062 18.3359 19.4062C18.2812 19.1172 18.4688 19.0703 18.4688 19.0703C18.5781 19.0469 18.5859 18.8125 18.5859 18.8125C18.5078 18.7812 18.5547 18.6641 18.6406 18.7656C18.7188 18.8672 18.5859 18.5625 18.5859 18.5625L18.5234 18.5078L18.4297 18.4922L18.4219 18.4062H18.2656L18.25 18.5234L18.1875 18.5391L18.1719 18.5078L18.1484 18.5938H17.9922V18.4922L18.0781 18.4688L18.1172 18.4219L18.1406 18.2812H18.25L18.3906 18.2422C18.3906 18.1016 18.4688 18.1328 18.4688 18.1328L18.5234 18.1719L18.6016 18.2344V18.2812L18.5547 18.3125L18.5469 18.375L18.5703 18.4688H18.6406C18.6641 18.3359 18.8359 18.3359 18.8906 18.4219L18.9375 18.3047C18.8203 18.2422 18.9375 18.1484 18.9688 18.1953C19 18.2344 19.0781 18.0859 19.0781 18.0859C19.0781 18.0859 19.1328 18.1641 19.0781 18.0547C19.0156 17.9531 19.1172 17.8984 19.1172 17.8984C19.1016 17.8047 19.2266 17.8203 19.2266 17.8203L19.2344 17.6875L19.1172 17.6797C19.0938 17.7969 18.9922 17.6953 19.0391 17.6719C19.0859 17.6484 19.1406 17.5938 19.1406 17.5938V17.5156L19.1953 17.4922V17.4141H19.3281L19.4375 17.3594L19.4609 17.3125H19.5781L19.7422 17.1562L19.7266 17.0859C19.625 17.0859 19.7266 17.0078 19.7266 17.0078L19.75 16.875Z" fill="white"/>
<path d="M16.3906 18.5469L16.2422 18.5312L16.25 18.5938H16.2969C16.3594 18.7109 16.2969 18.9922 16.2969 18.9922C16.2969 18.9922 16.2031 19 16.1875 18.9531C16.1719 18.8984 16.125 19.0625 16.1641 19.0859C16.1953 19.1094 16.3125 19.0859 16.3203 19.1797C16.3203 19.2734 16.3984 19.125 16.3984 19.125L16.3906 18.5469Z" fill="white"/>
<path d="M16.4297 19.4922L16.4453 19.4141L16.3828 19.3906L16.3906 19.2656L16.4453 19.2578V19.1953L16.3281 19.2812L16.25 19.2344V19.4375L16.375 19.6094L16.4297 19.4922ZM16.4609 19.7109L16.3984 19.7188V19.7891H16.4609V19.7109ZM16.3828 20.1406L16.3125 20.1484V20.2109L16.3906 20.2031L16.3828 20.1406ZM16.4844 19.9375C16.5 19.9375 16.5156 19.9297 16.5156 19.9062C16.5156 19.8828 16.5 19.8672 16.4844 19.8672C16.4688 19.8672 16.4453 19.8828 16.4453 19.9062C16.4453 19.9219 16.4609 19.9375 16.4844 19.9375Z" fill="white"/>
<path d="M16.5391 20.125C16.5606 20.125 16.5781 20.1075 16.5781 20.0859C16.5781 20.0644 16.5606 20.0469 16.5391 20.0469C16.5175 20.0469 16.5 20.0644 16.5 20.0859C16.5 20.1075 16.5175 20.125 16.5391 20.125Z" fill="white"/>
<path d="M16.5391 19.1562C16.5606 19.1562 16.5781 19.1388 16.5781 19.1172C16.5781 19.0956 16.5606 19.0781 16.5391 19.0781C16.5175 19.0781 16.5 19.0956 16.5 19.1172C16.5 19.1388 16.5175 19.1562 16.5391 19.1562Z" fill="white"/>
<path d="M18.8672 18.8594L18.8906 18.7812L18.9375 18.75V18.6719L18.9766 18.6094L19.0312 18.5469L19.0469 18.4766L19.125 18.4297L19.2266 18.4141L19.2656 18.3594L19.2891 18.2578V18.1797L19.3281 18.1328L19.4297 18.0938V17.9375H19.375V17.875L19.2812 17.8672L19.2578 17.9062H19.2188L19.2109 17.9766H19.2578L19.2656 18.0234L19.2344 18.0547L19.2188 18.1016L19.1562 18.1172L19 18.2578V18.3281L18.9531 18.3906L18.9062 18.5156H18.7266L18.6953 18.6719L18.7188 18.7969L18.8672 18.8594ZM19.6016 18.4453V18.3281L19.5859 18.2188L19.4609 18.1562L19.3672 18.2422L19.3516 18.3594V18.4375L19.2734 18.4531L19.25 18.6875L19.1875 18.7109V18.7891L19.1094 18.8203L19.0078 18.8438L18.9922 18.9531L18.9297 18.9922L18.8984 19.0938L18.8516 19.3438C18.8516 19.3438 18.9297 19.4844 18.9688 19.4219C18.98 19.4015 18.9957 19.384 19.0146 19.3705C19.0335 19.3569 19.0552 19.3478 19.0781 19.3438L19.1016 19.2812L19.3281 19.2891C19.3438 19.1953 19.4531 19.2344 19.4531 19.2734C19.4531 19.3125 19.5312 19.2812 19.5312 19.2812L19.5938 19.1875H19.6875V19.0859L19.7344 19.0625V18.9062C19.8672 18.8672 19.8516 18.7422 19.8516 18.7422L19.8828 18.7031L19.8672 18.6406C19.7969 18.6172 19.8359 18.5625 19.875 18.5703C19.9141 18.5938 19.8203 18.4922 19.8203 18.4922C19.7656 18.5391 19.7266 18.4453 19.7266 18.4453H19.6016ZM19.7344 19.4609C19.7266 19.5703 19.6016 19.6016 19.6016 19.6016L19.5078 19.5781L19.4609 19.5312L19.4531 19.4141H19.5312L19.5391 19.4609H19.7344ZM20.1797 18.9297C20.2031 19.0078 20.1953 18.8125 20.2344 18.8203C20.2656 18.8203 20.2344 18.7031 20.2344 18.7031L20.0938 18.8125C20.1719 18.8125 20.1719 18.8906 20.1797 18.9297ZM20.625 18.4844C20.6562 18.5625 20.6484 18.6719 20.7734 18.7578C20.8125 18.7891 20.75 18.8359 20.7031 18.8203C20.6641 18.7891 20.5469 18.6094 20.5469 18.6094V18.5C20.5703 18.4297 20.6094 18.4531 20.625 18.4922V18.4844ZM20.7344 21.0312L20.6797 21.0078L20.625 21.0547L20.6484 21.0781L20.6719 21.1172L20.7344 21.0312ZM21.6875 20.75L21.6562 20.7109L21.5938 20.75L21.6172 20.7969L21.6875 20.75ZM24.0234 22.5547L24.1016 22.5859V22.7344C24.2031 22.8359 24.5312 22.75 24.5312 22.7266L24.5156 22.4141L24.4688 22.3672V22.1562C24.5 22.0469 24.3125 21.8906 24.2891 21.9219C24.2734 21.9531 24.1641 21.9297 24.1641 21.9609C24.1641 22 24.0938 22.1641 24.1328 22.2266C24.1641 22.2812 24.1094 22.2812 24.0938 22.3438C24.0938 22.4062 24.0078 22.5 24.0156 22.5547H24.0234ZM23.8359 22.2188C23.8203 22.2812 23.7656 22.3203 23.7344 22.2969C23.6953 22.2656 23.7734 22.3359 23.7891 22.375C23.7933 22.3814 23.7991 22.3867 23.806 22.3904C23.8128 22.3941 23.8204 22.396 23.8281 22.396C23.8359 22.396 23.8435 22.3941 23.8503 22.3904C23.8571 22.3867 23.8629 22.3814 23.8672 22.375C23.8906 22.3359 23.8828 22.2578 23.8984 22.2188C23.9141 22.1953 23.8516 22.1875 23.8359 22.2188ZM23.4531 20.6719H23.5078V20.8281H23.4531V20.6719ZM24.3125 19.0469C24.2734 19 24.4766 18.9141 24.5156 19.0156C24.5469 19.1172 24.5156 19.0938 24.4766 19.0938C24.4453 19.0781 24.3594 19.1094 24.3203 19.0469H24.3125ZM24.4844 17.9688L24.5781 17.9844V17.9297L24.5 17.9141L24.4844 17.9688ZM24.2656 18.0781L24.3125 18.0547L24.2969 18.0156L24.2812 17.9922L24.2578 18L24.1953 18.0391L24.1406 18L24.1172 18.0469L24.1875 18.0859L24.1953 18.0938H24.2109L24.2578 18.0625L24.2656 18.0781ZM24.5781 16.0078H24.4453C24.4453 16.0078 24.4844 16.0234 24.3672 15.9141C24.25 15.8047 24.1797 15.9375 24.1797 15.9375L24.0469 15.9609V16.0938L23.9844 16.1172V16.1953H24.0781C24.0781 16.1953 24.0781 16.2969 24.1094 16.25C24.1406 16.2031 24.3438 16.2578 24.3203 16.3594C24.3203 16.4062 24.5312 16.5156 24.5078 16.6484C24.6094 16.6641 24.5859 16.7734 24.5859 16.7734L24.7266 16.7969L24.7734 16.7109H24.8125V16.6641L24.7188 16.6406L24.7031 16.375L24.6484 16.3281L24.6641 16.2656L24.5938 16.2344L24.6328 16.125L24.5703 16.0078H24.5781ZM24.9375 16.8672H24.8672L24.7188 16.8828L24.6406 17.0391C24.6406 17.0391 24.6797 17.0703 24.7188 17.1328C24.7422 17.1875 24.7656 17.5391 24.6641 17.6016C24.5625 17.6562 24.6641 17.6172 24.6641 17.6172L24.6562 17.8047C24.6797 17.8828 24.7187 17.8516 24.7422 17.8047C24.7734 17.7656 24.7969 17.7578 24.8281 17.7109C24.8717 17.6613 24.9038 17.6026 24.9219 17.5391C24.9219 17.4766 24.9688 17.3828 24.9453 17.3594C24.9219 17.3359 24.9688 17.2188 24.9688 17.2188C24.9688 17.2188 25 17.1406 24.9688 17.0781C24.9375 17.0156 24.9766 16.9375 25 16.9062L24.9375 16.8672ZM25.0391 17.2109V17.1484H25.0938V17.2266L25.0391 17.2109ZM25.0391 17.4453L24.9922 17.4219L25.0156 17.375L25.0625 17.3984L25.0391 17.4453ZM24.9609 16.7734L24.9297 16.6953C24.9297 16.6953 24.9297 16.6328 24.9453 16.6016C24.9609 16.5625 24.9141 16.5312 24.8828 16.5234C24.8594 16.5156 24.8672 16.4453 24.8594 16.4141C24.8594 16.3828 24.7969 16.3516 24.7969 16.3516L24.7812 16.2031C24.7812 16.1797 24.7031 16.1406 24.7266 16.125L24.7969 16.0469C24.8203 16.0234 24.7734 15.9062 24.8125 15.9297C24.8516 15.9609 24.8516 16.0078 24.8672 16.0312C24.8828 16.0703 24.8672 16.1875 24.9062 16.2109C24.9453 16.2344 24.8984 16.3203 24.9609 16.3203C25.0312 16.3203 24.9844 16.4766 24.9844 16.4766C24.9844 16.4766 24.9688 16.6016 25.0078 16.6094C25.0547 16.6094 25.0312 16.8203 25.0312 16.8203L24.9609 16.7734ZM24.4219 15.4062C24.4453 15.4453 24.5 15.4688 24.5 15.5C24.5 15.5391 24.4766 15.5625 24.5312 15.5703C24.5781 15.5781 24.6094 15.5625 24.6328 15.6016C24.6489 15.6497 24.6489 15.7018 24.6328 15.75C24.6328 15.7812 24.6484 15.8281 24.6875 15.8281C24.7266 15.8281 24.7344 15.8438 24.7344 15.8672C24.7344 15.8906 24.7891 15.7734 24.7891 15.7734C24.7422 15.7422 24.7109 15.6641 24.7109 15.6641L24.6719 15.5312C24.6719 15.5078 24.6172 15.4922 24.5938 15.4844C24.5625 15.4844 24.5156 15.4062 24.5156 15.4062H24.4219ZM24.5 15.3281C24.4796 15.2991 24.4529 15.275 24.4219 15.2578C24.3906 15.2422 24.3672 15.2266 24.3281 15.2266C24.3191 15.2261 24.3103 15.2235 24.3026 15.2189C24.2949 15.2143 24.2884 15.2078 24.2837 15.2001C24.2791 15.1923 24.2764 15.1836 24.276 15.1746C24.2756 15.1656 24.2774 15.1566 24.2812 15.1484C24.2969 15.1094 24.2578 15.0859 24.2578 15.0547C24.2578 15.0234 24.2812 15.0234 24.3203 15.0547C24.3672 15.0703 24.3594 15.0781 24.3906 15.125C24.4219 15.1641 24.4375 15.2031 24.4688 15.2031C24.5078 15.1875 24.5312 15.2812 24.5625 15.25C24.5938 15.2266 24.5859 15.3125 24.5859 15.3125L24.5 15.3281ZM23.5312 16.2891C23.5781 16.3359 23.2812 16.3203 23.2812 16.2891C23.2812 16.2578 23.3125 16.1328 23.3828 16.1562C23.4609 16.1875 23.4609 16.0078 23.4609 16.0078C23.4609 16.0078 23.3984 16.0156 23.4609 15.9844C23.5156 15.9531 23.4609 15.9062 23.4297 15.875L23.3828 15.8047H23.5C23.5469 15.7734 23.5625 15.6094 23.5625 15.6094C23.6641 15.6484 23.7188 15.5781 23.7188 15.5781C23.7188 15.5781 23.7344 15.6328 23.7656 15.6719C23.7969 15.7109 23.6875 15.7344 23.7266 15.75C23.7656 15.7812 23.7812 15.8594 23.7656 15.8828C23.75 15.9062 23.6562 15.8828 23.6562 15.8594C23.6562 15.8203 23.625 15.8984 23.6562 15.9375C23.6875 15.9844 23.6172 16.0469 23.6016 16.0469C23.5859 16.0469 23.4766 16.0625 23.5625 16.1094C23.6563 16.1641 23.7578 16.1328 23.7578 16.1328C23.7578 16.1328 23.8359 16.1328 23.8594 16.1719C23.8828 16.2109 23.8516 16.2188 23.8047 16.2188L23.5703 16.2031C23.5703 16.2031 23.5078 16.2656 23.5312 16.2812V16.2891ZM23 16.3672C23.0391 16.3516 23.1406 16.3437 23.1562 16.3672C23.1719 16.3984 23.1016 16.4297 23.1016 16.4297L23 16.4453C22.9688 16.4062 22.9609 16.3672 23 16.3672ZM24.0703 15.6562C24.1406 15.6172 24.2812 15.6172 24.2734 15.5703C24.2656 15.5156 24.3516 15.5 24.3516 15.5L24.3828 15.6016L24.4609 15.6562V15.75C24.4609 15.75 24.4922 15.7344 24.3984 15.75C24.3047 15.7812 24.3672 15.8281 24.3672 15.8281H24.1641L24.1406 15.75L24.0703 15.6562ZM23.75 15.1953C23.7969 15.1953 23.7344 15.3906 23.8672 15.375C24 15.3594 23.8672 15.4375 23.9766 15.4453C24.0703 15.4453 24.0547 15.3672 24.0781 15.3047C24.1172 15.25 24.1016 15.2188 24.0391 15.1953C23.9844 15.1797 23.9844 15.1797 23.9609 15.1172C23.9453 15.0469 23.8828 15.0312 23.8828 15.0312L23.8594 14.9297L23.75 15L23.6406 15.1406C23.6406 15.25 23.6953 15.1953 23.75 15.1953ZM23.9688 15.9141L23.9922 15.8594L24.0391 15.8828L24.0156 15.9375L23.9688 15.9141ZM23.8828 15.8359H23.9297V15.8906H23.8828V15.8359ZM23.9219 14.7109L23.9297 14.7891H23.8828L23.875 14.7109H23.9219ZM23.7812 15.4922H23.8359V15.5391H23.7812V15.4922ZM23.6484 15.4922V15.4453L23.7266 15.4375L23.7344 15.4844L23.6484 15.4922ZM22.9688 16.3047L22.9219 16.2812L22.9453 16.2266L22.9922 16.2422L22.9688 16.3047ZM22.7031 16.1484V16.1016L22.7812 16.0938V16.1406L22.7031 16.1484ZM21.0781 16.1484V16.1953L21.2656 16.1875V16.1328L21.0781 16.1484ZM20.9609 16.2109L20.9453 16.1328L20.9922 16.125L21.0078 16.2031L20.9609 16.2109ZM20.9219 16.2578L20.9062 16.2109H20.9297L20.9453 16.25L20.9219 16.2578ZM21.3359 16.1172V16.1797H21.4141C21.4141 16.1797 21.4609 16.2187 21.4609 16.2422C21.4609 16.2656 21.5234 16.2969 21.5547 16.2969C21.5859 16.2969 21.6797 16.2266 21.6797 16.2266C21.6797 16.2266 21.7188 16.1094 21.6797 16.1172C21.6562 16.125 21.5859 16.1797 21.5781 16.125C21.5781 16.0781 21.4687 16.1016 21.4687 16.1016L21.3359 16.1172ZM21.75 16.0234C21.75 16.0547 21.7344 16.0859 21.7891 16.0938C21.8359 16.0938 21.9297 16.0625 21.9375 16.1094C21.9375 16.1641 21.9375 16.1875 22.0156 16.2188C22.065 16.2398 22.1182 16.2504 22.1719 16.25L22.3281 16.2344C22.3281 16.2344 22.4453 16.2578 22.4688 16.2812C22.5625 16.375 22.625 16.3984 22.6406 16.3594C22.6719 16.3125 22.6406 16.2188 22.625 16.1875C22.625 16.1562 22.5 15.9922 22.4609 16.0312C22.4219 16.0625 22.4141 16.0312 22.3359 16.0547C22.2578 16.0781 22.1016 16.0547 22.1016 16.0234C22.0859 15.9922 21.9688 15.9766 21.9688 15.9453C21.9688 15.9062 21.8906 15.8672 21.8906 15.9141C21.9062 15.9688 21.8359 15.9922 21.8125 15.9766C21.8047 15.9609 21.75 16.0234 21.75 16.0234ZM23.6641 14.9453L23.7266 14.7578C23.6406 14.7422 23.6562 14.6484 23.6562 14.6484C23.6562 14.5703 23.5312 14.4922 23.4922 14.5156C23.4531 14.5391 23.4688 14.3359 23.4688 14.3359C23.4688 14.3359 23.5469 14.2891 23.5781 14.3125C23.6094 14.3359 23.2891 13.8906 23.2266 13.9297C23.1562 13.9766 23.0078 13.8906 23.0156 13.8125C23.0234 13.7344 22.7188 13.4844 22.7188 13.4844C22.7188 13.4844 22.6172 13.4219 22.6016 13.4687C22.5859 13.5156 22.5547 13.5469 22.6016 13.5781C22.6484 13.6016 22.6406 13.5391 22.7031 13.5938C22.7578 13.6562 22.8672 13.7266 22.8281 13.7812C22.7812 13.8281 22.7344 13.8516 22.7344 13.8516L22.7969 13.9141H22.8828L22.8984 14.0625C22.8984 14.0625 23 14.1094 23.0234 14.1719C23.0547 14.2266 23.0547 14.2656 23.0234 14.2969C23 14.3281 22.9453 14.3906 22.9609 14.4531C22.9609 14.5078 23.0391 14.5312 23.0391 14.5312L23.1016 14.5391L23.1484 14.5625V14.6719C23.2187 14.6562 23.3281 14.75 23.3203 14.8125C23.3125 14.8672 23.3359 14.8359 23.4141 14.8906C23.4922 14.9531 23.4766 14.9688 23.5312 15.0078C23.5938 15.0469 23.6406 15.0234 23.6641 14.9453Z" fill="white"/>
<path d="M22.2969 13.7969C22.2891 13.7656 22.2656 13.6406 22.3203 13.6562C22.3672 13.6562 22.3359 13.6562 22.3984 13.6797C22.4531 13.7031 22.4609 13.6406 22.4609 13.6406H22.5547L22.6719 13.7344L22.6484 13.8125H22.5703C22.5234 13.75 22.4453 13.7734 22.4609 13.8359C22.4766 13.8906 22.4219 14 22.3828 14.0078C22.3516 14.0156 22.2422 14.0156 22.25 13.9688L22.2969 13.7969ZM22.2266 13.5703V13.5C22.2266 13.5 22.2266 13.4375 22.1797 13.4375C22.1328 13.4375 22.0625 13.3828 22.0781 13.3516C22.0938 13.3203 21.9375 13.2812 21.9375 13.2812C21.9375 13.2812 21.7969 13.1484 21.8438 13.1641C21.8984 13.1797 21.8672 13.1094 21.8672 13.1094C21.8672 13.1094 21.7734 13.125 21.7422 13.1094C21.7187 13.1094 21.7266 13.0312 21.7266 13.0312C21.7266 13.0312 21.625 13.0078 21.625 13.0312C21.625 13.0547 21.6641 13.0547 21.6797 13.1094C21.6953 13.1562 21.6797 13.2422 21.7578 13.2656C21.8359 13.2734 21.8516 13.2891 21.8594 13.3281C21.8672 13.3594 21.9609 13.3672 21.9609 13.3672L22.0312 13.3984L22.2266 13.5703ZM21.3047 12.6406L21.2422 12.625V12.7031H21.3281L21.3047 12.6406ZM21.3047 12.3594C21.2188 12.2891 21.4219 12.4062 21.4219 12.4062C21.4844 12.4062 21.5312 12.4609 21.5312 12.4844C21.5312 12.5078 21.6172 12.5 21.6172 12.5L21.6328 12.4375L21.5625 12.3594L21.5078 12.3125C21.5078 12.3125 21.4141 12.3125 21.4141 12.2812C21.4141 12.2578 21.3359 12.3828 21.3047 12.3594ZM22.8359 12.4062C22.8125 12.4844 22.7969 12.5859 22.7578 12.5859C22.7187 12.5859 22.7344 12.6953 22.7344 12.6953H22.875C22.9062 12.7109 22.9062 12.7969 22.9062 12.7969C23.0312 12.7891 23.0859 12.9531 23.0625 13C23.0547 13.0391 23.1172 13.0391 23.1172 13.0391C23.1172 13.0391 23.1172 13.1719 23.1016 13.2109C23.0859 13.2422 23.2109 13.2656 23.2422 13.3203C23.2734 13.3672 23.2266 13.5391 23.2031 13.5469C23.1719 13.5469 23.2656 13.5781 23.2578 13.625C23.25 13.6641 23.2812 13.625 23.2891 13.6875L23.3203 13.8984L23.4297 13.9062C23.4531 13.7969 23.6641 13.7969 23.6953 13.8047C23.8437 13.8594 23.9453 14.0781 23.9453 14.125C23.9453 14.1797 23.8594 14.1875 23.8594 14.1875L23.875 14.4297C24.0156 14.4766 24.1328 14.6797 24.1094 14.7109C24.0938 14.7422 24.2109 14.7344 24.2109 14.7344C24.2266 14.5781 24.3672 14.6328 24.3828 14.6875C24.3828 14.7344 24.4141 14.8438 24.4141 14.8438L24.4531 14.9219L24.5156 14.9766H24.6016L24.625 15.0234L24.7344 15.0391C24.7344 15.0391 24.8281 15.1406 24.8359 15.1641C24.8438 15.1875 24.9688 15.1797 25 15.1875C25.0391 15.1953 25.0859 15.2266 25.0938 15.2656C25.1016 15.3125 25.1562 15.375 25.1562 15.375C25.1562 15.375 25.25 15.3984 25.2578 15.4375L25.3125 15.5469L25.3906 15.6094L25.3984 15.6875L25.4922 15.6953L25.5156 15.7969H25.6719L25.75 15.7344C25.8594 15.6719 25.9375 15.5937 25.9453 15.5625C25.9453 15.5312 25.9688 15.4062 26.0469 15.4297C26.1328 15.4531 26.0781 15.2422 26.0781 15.2422C26.0781 15.2422 25.9609 15.1641 25.9688 15.1172C25.9688 15.0703 25.8516 14.9922 25.8594 14.9609C25.8672 14.9219 25.75 14.8516 25.7578 14.8203C25.7656 14.7891 25.7031 14.6953 25.7031 14.6953L25.5781 14.5781L25.5625 14.5L25.4609 14.4922L25.2578 14.25L25.2656 14.1719H25.2109V14.0781L25.1562 14.0469L25.0625 14.0391L24.875 13.8359L24.8594 13.7422H24.7734L24.7891 13.5625C24.8437 13.4844 24.8125 13.3438 24.8125 13.3438C24.8125 13.3438 24.6953 13.4062 24.6406 13.375C24.5781 13.3516 24.6641 13.2969 24.6641 13.2969V13.2187L24.6094 13.1719C24.6094 13.1719 24.4688 13.1953 24.4609 13.1719L24.4297 13.0312L24.4219 12.8906L24.3594 12.8594V12.8125H24.2656V12.7188L24.2109 12.7031L24.1641 12.6797L24.1562 12.5781L23.9687 12.5703L23.9141 12.4844L23.8438 12.3828L23.6406 12.3672L23.5859 12.3125L23.5078 12.2969L23.4453 12.2734L23.4219 12.3125L23.2656 12.3203L23.2578 12.375C23.1797 12.4141 22.8437 12.375 22.8359 12.4062ZM23.7031 12.1875C23.6953 12.125 23.875 12.0625 23.9141 12.1094C23.9531 12.1641 24.0703 12.1719 24.0859 12.4219C24.0937 12.5156 23.9375 12.3281 23.9375 12.3281L23.8125 12.2891C23.75 12.2734 23.7109 12.2266 23.7031 12.1875ZM21.2734 12.2891L21.2266 12.2734L21.2578 12.1953L21.3047 12.2187L21.2734 12.2891ZM20.8359 11.4609L20.7344 11.3516V11.2578L20.6953 11.2266L20.6641 11.1094L20.5547 11.0781L20.4453 11.1172L20.3359 11.1953L20.2031 11.2109L20.1406 11.2891L20.4062 11.3125L20.4531 11.3906L20.6484 11.4141L20.7734 11.5391C20.8828 11.5703 20.9062 11.5234 20.8359 11.4609ZM20.8203 11.0469C20.8047 10.9687 20.6953 11.1406 20.8047 11.1719C20.9141 11.2109 21.0234 11.1719 21.0234 11.1719L21.0469 11.125L21.4609 11.1328L21.5156 11.0547C21.5156 11.0547 21.6094 11.0156 21.6562 11.0312C21.6953 11.0469 21.6562 10.9141 21.6172 10.9297C21.5781 10.9453 21.4922 10.9375 21.4922 10.9375H21.3438C21.3438 10.8828 21.2031 10.9062 21.1953 10.9375C21.1953 10.9688 21.1406 10.9844 21.1406 10.9844L20.9453 11C20.9297 11.0469 20.8281 11.0781 20.8203 11.0469ZM20 12.4688C20.125 12.5156 20.1719 12.4844 20.1797 12.4453C20.1875 12.4141 20.1953 12.4062 20.25 12.3984C20.2969 12.3906 20.2422 12.2891 20.1953 12.2969C20.1406 12.3047 20.0938 12.2812 20.0859 12.2344C20.0781 12.1953 19.9922 12.0859 19.9844 12.1719C19.9766 12.25 19.9219 12.25 19.9297 12.3125C19.9453 12.375 19.9688 12.4688 20 12.4688ZM19.0469 12.5703C19.0391 12.5391 19.2109 12.5312 19.2344 12.5547C19.2578 12.5859 19.2422 12.6328 19.3125 12.6328C19.3828 12.6328 19.3594 12.6797 19.3516 12.7031C19.3438 12.7266 19.2578 12.7188 19.25 12.6953C19.25 12.6641 19.1172 12.6562 19.1172 12.6562C19.1172 12.6562 19.0547 12.6094 19.0391 12.5703H19.0469ZM21.8047 10.8125L21.7656 10.7656L21.7266 10.8047L21.8047 10.8828L21.8203 10.8672L21.8984 10.7969L21.875 10.7578L21.8047 10.8125ZM21.3594 10.5781L21.3359 10.6172L21.3984 10.6562L21.4141 10.6641H21.4297L21.5156 10.6016L21.4922 10.5547L21.4141 10.6094L21.3594 10.5781ZM21.1328 12.3359H21.0547L21.0469 12.3828H21.1172L21.1719 12.4688L21.2109 12.4453L21.1484 12.3516V12.3438L21.1328 12.3359ZM18.3984 14.6953V14.7891H18.5312C18.5781 14.7891 18.4844 14.7266 18.4844 14.7266C18.4844 14.7266 18.3906 14.7344 18.3984 14.6953ZM18.5547 14.6953L18.5859 14.6562L18.6328 14.6953L18.6016 14.7344L18.5547 14.6953ZM17.0391 13.1172L17.0781 13.0781L17.125 13.1328L17.0938 13.1719L17.0391 13.1172ZM19.375 23.9297L19.3516 23.9766L19.3984 24.0078L19.3828 24.0234L19.4219 24.0547L19.4844 23.9922L19.4531 23.9766L19.375 23.9297ZM18.7812 23.3281L18.7266 23.3672L18.7031 23.3906L18.7344 23.4141L18.7891 23.4531L18.8203 23.4141L18.7891 23.3906L18.8125 23.3672L18.7812 23.3281ZM24.9922 21.7656C24.9844 21.7266 24.9297 21.7031 24.9297 21.7031L24.9141 21.75L24.9297 21.7578V21.8203L24.9609 21.8516C24.9844 21.8203 25 21.7969 24.9922 21.7734V21.7656ZM24.9922 21.6016V21.5234L25.0703 21.5391V21.6094L24.9922 21.6016ZM26.9922 20.9531C27.0312 20.9297 27.0703 20.8828 27.0703 20.9766C27.0703 21.0781 27.0234 21.0469 26.9922 21.0781C26.9609 21.1094 26.9453 20.9844 26.9922 20.9453V20.9531ZM27.4141 20.5938V20.5781C27.4141 20.5622 27.4115 20.5463 27.4062 20.5312L27.3594 20.5469V20.5859C27.3672 20.6016 27.3672 20.6172 27.3828 20.625L27.4141 20.6328V20.5859V20.5938ZM27.3047 20.6328L27.3359 20.7344L27.3828 20.7188C27.3706 20.6855 27.3602 20.6516 27.3516 20.6172L27.3047 20.6328ZM27.125 20.8281H27.0781C27.0781 20.8672 27.0781 20.9141 27.1172 20.9219L27.1328 20.875L27.125 20.8281ZM26.9062 19.8281C26.906 19.8202 26.9037 19.8124 26.8996 19.8056C26.8955 19.7987 26.8897 19.793 26.8828 19.7891C26.8438 19.7734 26.7812 19.7969 26.75 19.8203L26.7734 19.8594C26.8125 19.8438 26.8516 19.8281 26.8594 19.8359L26.9062 19.8281ZM24.6016 17.1328C24.5703 17.1641 24.5 17.1797 24.5 17.1797L24.4688 17.2734L24.4297 17.3047V17.3906C24.4219 17.4531 24.3516 17.4844 24.3516 17.4844L24.3125 17.5234C24.3125 17.5234 24.1172 17.5391 24.0859 17.5234C24.0078 17.4922 24.0625 17.3906 24.1172 17.3984C24.1641 17.4063 24.1094 17.2578 24.1094 17.2578L24.1719 17.25C24.1719 17.25 24.1797 17.0938 24.2031 17.0938C24.2266 17.0938 24.2031 17.0469 24.1641 17.0156C24.1328 16.9922 24.0859 16.9141 24.0547 16.9219H23.8906L23.8672 16.9688L23.7734 16.9844C23.7734 16.9844 23.7812 17.0547 23.7656 17.0703C23.7188 17.1328 23.5234 17.2578 23.6094 17.0469L23.6328 17V16.9219L23.4766 16.9141C23.4766 16.9141 23.4062 16.8828 23.4062 16.8516V16.7734L23.2266 16.5859L23.0156 16.5547L23 16.5156L22.875 16.5C22.7187 16.4219 22.5938 16.4922 22.6172 16.6172C22.6406 16.7422 22.6875 16.7969 22.6016 16.7969C22.5234 16.7969 22.5 16.7188 22.5 16.7188C22.5 16.7188 22.4375 16.7031 22.4375 16.7344C22.4375 16.7656 22.4141 16.8359 22.4375 16.8672C22.4609 16.9062 22.4062 16.9531 22.375 16.9297C22.3516 16.9062 22.2891 16.8281 22.2969 16.8047C22.3203 16.7734 22.1875 16.6172 22.3203 16.5938C22.4531 16.5625 22.3125 16.4922 22.3594 16.4766L22.4297 16.4375H22.4922L22.5391 16.4062L22.4297 16.3906L22.3594 16.3828L22.2344 16.375C22.1659 16.4163 22.1135 16.4797 22.0859 16.5547C22.0234 16.6875 21.8594 16.5078 21.9219 16.4375C21.9766 16.375 21.7344 16.4375 21.6953 16.4688C21.6562 16.5 21.5312 16.4844 21.5312 16.4844C21.5078 16.5625 21.3906 16.4766 21.4219 16.4219C21.4531 16.375 21.4531 16.3438 21.4531 16.3438L21.4141 16.3281L21.3672 16.4219C21.25 16.4219 21.2109 16.4922 21.2422 16.5312C21.2656 16.5781 21.2031 16.5312 21.1875 16.5859C21.1719 16.6406 21.1953 16.6406 21.25 16.6641C21.2969 16.6953 21.2188 16.6953 21.25 16.7344C21.2891 16.7734 21.3906 16.7344 21.3281 16.7969C21.2734 16.8516 21.1562 16.8281 21.1562 16.8281C21.1484 16.9062 20.9922 16.8828 20.9766 16.8594C20.9281 16.8012 20.8786 16.7439 20.8281 16.6875L20.6719 16.6797C20.6562 16.5547 20.75 16.6172 20.7812 16.5234C20.8125 16.4297 20.8281 16.2812 20.8281 16.2812C20.8281 16.2812 20.6953 16.2734 20.6875 16.3125C20.6875 16.3516 20.6016 16.3828 20.6016 16.3828C20.6016 16.3828 20.5312 16.4062 20.5547 16.4375C20.5859 16.4766 20.5078 16.4922 20.5078 16.4922C20.5078 16.4922 20.5234 16.5469 20.5 16.5703C20.4297 16.6328 20.2656 16.5703 20.2422 16.5469L20.1406 16.5078L20.0391 16.4375L19.9219 16.4922L19.8906 16.5234H19.7656V16.625L19.9844 16.6484L20 16.8594L19.9062 16.8281H19.8516L19.8281 16.7734H19.7734V16.9531L19.8281 16.9922L19.8672 17.0391H19.9453L19.9688 17.1484H20.1719L20.2031 17.1953L20.3281 17.2031L20.5625 17.4531L20.5469 17.5312L20.5078 17.5547C20.5234 17.6094 20.3984 17.5781 20.3984 17.5781V17.625L20.4609 17.6328L20.5156 17.6719L20.5938 17.5234C20.6875 17.4688 20.7344 17.5547 20.7422 17.6016C20.7422 17.6562 20.6953 17.6484 20.6953 17.6484V17.7656L20.75 17.7812C20.8281 17.8828 20.7188 17.9375 20.7188 17.9375L20.6875 18.0234C20.6641 18.1016 20.5703 18.0859 20.5703 18.0859L20.5391 18.1328L20.4375 18.1562L20.6406 18.1875C20.6562 18.1172 20.7031 18.1016 20.7344 18.1328C20.7578 18.1641 20.7578 18.2266 20.7578 18.2266L20.8047 18.2344V18.3281L20.8516 18.3438V18.6172L20.9062 18.6797C21.0078 18.6406 21.0078 18.7109 20.9531 18.7422C20.8984 18.7734 20.9375 18.9297 20.9375 18.9297L20.8984 18.9688V19.0391L20.8516 19.0703V19.1641C20.7656 19.1172 20.6641 19.1406 20.6406 19.1641C20.5625 19.1094 20.4062 19.1328 20.4062 19.1719C20.4609 19.2422 20.3516 19.25 20.3516 19.25L20.2891 19.3281C20.3359 19.4062 20.25 19.4141 20.25 19.4141V19.5703L20.1484 19.6719L20.1562 19.8906C20.1562 19.9453 20.2812 19.9531 20.3125 19.9219C20.3359 19.8906 20.4297 19.9922 20.4297 19.9922H20.5078L20.5234 19.8359L20.4766 19.8125V19.5703L20.5547 19.4766C20.6562 19.4375 20.625 19.6953 20.625 19.7188C20.625 19.8125 20.6719 19.8047 20.7188 19.7891C20.7969 19.75 20.7344 19.8828 20.6641 19.8672C20.6016 19.8672 20.6406 19.9531 20.6406 19.9531L20.6797 19.9766L20.6016 20.0312L20.5391 20.1094L20.4609 20.0859L20.3594 20.0781L20.3281 20.0156L20.2656 20.0078L20.2578 20.125L20.2187 20.1797L20.1172 20.2812C20.25 20.2812 20.1016 20.3672 20.0703 20.3672C20.1484 20.3984 20.0625 20.4687 19.8672 20.4141V20.4688L19.7969 20.4766L19.8594 20.5469L19.9219 20.5547L19.8984 20.6953C19.8984 20.8047 19.625 20.7344 19.6016 20.7031L19.5938 20.8594H19.5469V21.1094L19.6328 21.0938V21.1562H19.8594L20.1797 20.8203L20.375 20.7734C20.3906 20.6953 20.4766 20.7891 20.4766 20.7891C20.5547 20.7891 20.5703 20.8437 20.5703 20.8437L20.6797 20.8594C20.7734 20.8828 20.7187 20.8906 20.7266 20.9297C20.7266 20.9766 20.7734 20.9609 20.7734 20.9609L20.7891 20.8516H20.8437L20.7891 20.7969L20.6016 20.7188C20.5312 20.625 20.6172 20.6406 20.6797 20.6406H20.7891C20.7891 20.6406 20.9141 20.8203 20.9141 20.8594C20.9141 20.8984 20.9766 20.9062 20.9766 20.9062H21.0469L21.0703 20.9609H21.1484L21.1719 21.0078H21.3281V20.9297L21.1875 20.9062V20.8281L21.0781 20.7969C21.0469 20.6563 21.1094 20.6172 21.1484 20.6797L21.1953 20.6875L21.1797 20.5625L21.2422 20.5469L21.2188 20.3672L21.1719 20.3516V20.2969H21.3828C21.3672 20.1953 21.3828 20.1406 21.3828 20.1406H21.4453L21.4531 20.1875L21.7109 20.2109L21.8906 20C21.8828 19.9844 21.9062 19.9766 21.8906 19.9531C21.8594 19.9297 21.8281 19.9531 21.7891 19.9297C21.7422 19.9062 21.7891 19.7656 21.7812 19.7266C21.7734 19.6953 21.9219 19.6484 21.8984 19.7266C21.8672 19.7969 21.8984 19.8281 21.8984 19.8281C22 19.7266 22.0938 19.8359 22.0859 19.8672C22.0781 19.8906 22.1406 19.9141 22.1875 19.8906C22.2266 19.8672 22.2812 19.9688 22.2656 20.0156C22.2422 20.0625 22.0938 20.0547 22.0859 20.0078C22.0781 19.9531 22.0547 19.9766 22.0391 20C22.0234 20.0234 21.9453 20.0391 21.9062 20.0156C21.8996 20.012 21.8942 20.0066 21.8906 20L21.7109 20.2109H21.7188C21.8203 20.2656 21.7734 20.3438 21.7344 20.3672L21.6484 20.375L21.6328 20.4141L21.4141 20.4297L21.3984 20.5078C21.2891 20.5 21.2422 20.6172 21.2734 20.6719C21.2969 20.7344 21.2734 20.7812 21.2734 20.7812L21.3594 20.8281L21.4766 20.7891C21.4922 20.7109 21.5703 20.6875 21.6328 20.6328C21.7031 20.5859 21.8125 20.7344 21.7812 20.7969C21.7422 20.8672 21.7422 20.8906 21.7422 20.8906L21.75 20.9688L21.6719 21L21.6016 21.0391V21.0781H21.3672L21.3281 21.1172L21.2188 21.125L21.1875 21.1797L21.1094 21.1875C21.1094 21.1875 20.9922 21.25 21.0391 21.3125C21.0859 21.3828 20.8281 21.375 20.7734 21.2812C20.7578 21.3594 20.6641 21.2812 20.6641 21.2812L20.5703 21.2656V21.1406C20.5469 21.0547 20.3906 21.0547 20.3984 21.1094C20.4062 21.1719 20.1016 21.1406 20.1016 21.1406L20 21.1875L19.9062 21.2422V21.2812L19.75 21.2969L19.6875 21.3281L19.6562 21.2812H19.5938L19.5234 21.375C19.3516 21.375 19.1875 21.4844 19.2031 21.5312C19.2188 21.5703 19.1328 21.6094 19.1328 21.6094L19.0547 21.6328L19.0078 21.7109L18.9141 21.7422L18.8984 21.9219L18.8438 21.9531V22.0312L18.7891 22.0469V22.0937H18.7031L18.75 22.2266L18.8203 22.2578C18.9375 22.2734 18.8828 22.4141 18.8828 22.4141L18.9531 22.4297L18.9844 22.5234L19.0547 22.6562C19.0781 22.7578 19.1562 22.7344 19.1875 22.7266C19.2188 22.7188 19.25 22.8281 19.25 22.8281H19.5859C19.5859 22.8281 19.5703 22.8672 19.625 22.8828C19.6875 22.8984 20.0703 22.9141 20.0859 22.8906C20.0703 22.8125 20.2891 22.7969 20.3828 22.8672C20.4766 22.9375 20.6016 22.8906 20.6016 22.8906L20.7266 23.0469L20.8047 23.2266L20.9453 23.2734L21.0469 23.2969L21.0781 23.4375L21.1562 23.4453L21.1797 23.5391C21.2734 23.6094 21.1562 23.75 21.1562 23.75V23.9375L21.2188 23.9687V24.0391L21.3203 24.1484L21.4453 24.1562L21.7578 24.4922L22.0156 24.5703L22.0547 24.7031H22.1172L22.1719 24.6562L22.3672 24.6484L22.4688 24.5547L22.5781 24.5391L23.5 23.7578L23.4219 23.7031V23.5156C23.5625 23.4062 23.5781 23.2109 23.4297 23.2031C23.3281 23.1797 23.375 23.0703 23.4766 23.0469L23.5312 23.0312V22.9531L23.7266 22.7734V22.6406L23.3125 22.2969C23.125 22.2188 23.3125 21.8203 23.4297 21.8281C23.5547 21.8359 23.4297 21.2031 23.4297 21.2031L23.3516 21.1719L23.375 20.9688H23.2812L23.1328 21.1641L23.0938 21.2969C23.0781 21.4766 22.5625 21.4375 22.5391 21.4141L22.3359 21.3125C22.3359 21.3125 22.2031 21.2031 22.1797 21.2344C22.1562 21.2734 22.0391 21.1953 22.0391 21.2188C22.0391 21.25 21.9297 21.1641 21.9297 21.1641L21.7656 21.1016L21.8906 21.0781L21.8594 20.9766L22.0781 21.0859C22.1016 21.1172 22.2109 21.1094 22.2109 21.1094L22.2422 21.1562C22.2422 21.1562 22.3125 21.1484 22.3516 21.1953C22.3906 21.25 22.6094 21.2031 22.6094 21.2031L22.6719 21.2578L22.7578 21.2891L23.0156 21.2969L23.0234 21.1406L23.0781 21.0859L23.0703 20.9844L23.125 20.9375V20.8516L23.1719 20.8359L23.1797 20.6484L23.2266 20.6406V20.2344L23.1016 20.1172C23.0938 20.1562 22.9609 20.1562 22.9609 20.1562C22.9609 20.1562 22.9297 20.2187 22.8984 20.2187C22.8672 20.2187 22.9375 20.2969 22.9141 20.3438C22.8984 20.3984 22.8359 20.3984 22.8359 20.3984L22.7109 20.4297L22.6797 20.4688H22.5469L22.5234 20.3594L22.6797 20.3203L22.7578 20.2734L22.8047 20.1953C22.8047 20.1094 22.9062 20.1172 22.9062 20.1172C22.9062 20.1172 23.1016 19.9609 23.1094 19.8828C23.1094 19.8047 23.1875 19.5938 23.2969 19.5938H23.5156C23.5938 19.5625 23.5703 19.4531 23.5703 19.4531L23.6797 19.4297L23.6953 19.4922C23.6953 19.4922 23.8516 19.5078 23.8672 19.4844C23.8828 19.4609 23.9141 19.4062 23.9531 19.4219C24 19.4531 24.1328 19.3672 24.1328 19.3672C24.1328 19.3047 24.3438 19.3281 24.3438 19.3281L24.375 19.25C24.375 19.25 24.2266 19.0625 24.2031 19.0625C24.1797 19.0625 24.0469 18.9453 24.0312 18.9844C23.8984 18.9531 23.9062 18.7656 23.9062 18.7656L23.8594 18.6484C23.8594 18.5781 23.7344 18.4375 23.7031 18.4531C23.5781 18.3594 23.6719 18.25 23.7031 18.2422C23.7422 18.2422 23.8203 18.1172 23.8203 18.1172L23.8672 18L24.0078 17.9609L24.0234 17.8516L23.9453 17.8359C23.9453 17.8359 24.0234 17.6797 24.0703 17.6797L24.4141 17.6719C24.4375 17.6562 24.4922 17.5156 24.4922 17.4922C24.4922 17.4688 24.5547 17.4609 24.5781 17.4531C24.6016 17.4453 24.6562 17.375 24.6797 17.3438C24.6953 17.3047 24.6406 17.0938 24.6016 17.1328Z" fill="white"/>
<path d="M20 20.1719C20.0156 20.1562 20.0234 20.2109 20.0469 20.2031C20.0781 20.2031 20.0859 20.25 20.0625 20.25C20.0391 20.25 20.0391 20.2812 20.0391 20.2891C20.0391 20.3047 20.0391 20.3359 20.0156 20.3516C20 20.375 19.9844 20.3594 19.9531 20.3516C19.9297 20.3359 19.9219 20.3359 19.8906 20.3359C19.8594 20.3359 19.8828 20.3828 19.8828 20.3828C19.8828 20.3828 19.75 20.3828 19.7734 20.3594C19.8047 20.3438 19.8281 20.3359 19.8047 20.3203C19.7891 20.3125 19.8047 20.2969 19.8047 20.2734C19.8047 20.25 19.8672 20.2578 19.8516 20.2422C19.8359 20.2188 19.8516 20.1484 19.8828 20.1875L19.8984 20.1484C19.8828 20.125 19.8984 20.125 19.8594 20.1094C19.8203 20.0938 19.8516 20.0234 19.8516 20.0234V19.9688C19.8672 19.9062 19.9922 19.8984 20 19.9531V20.0547L20.0391 20.0625C20.0391 20.0625 20.0312 20.1016 20 20.1016C19.9688 20.1016 20 20.125 19.9844 20.1406L20 20.1719ZM19.5859 20.2344C19.6094 20.1953 19.6484 20.0312 19.7031 20.0781C19.75 20.1328 19.7812 20.0781 19.7812 20.0781C19.7812 20.0781 19.8047 20.1094 19.7969 20.1562C19.7812 20.2109 19.7656 20.2578 19.7344 20.2656C19.7031 20.2656 19.6797 20.2891 19.6406 20.2969C19.6094 20.3047 19.5859 20.2344 19.5859 20.2344Z" fill="white"/>
</g>
<defs>
<clipPath id="clip0_17544_70243">
<path d="M0 20C0 8.95431 8.95431 0 20 0C31.0457 0 40 8.95431 40 20C40 31.0457 31.0457 40 20 40C8.95431 40 0 31.0457 0 20Z" fill="white"/>
</clipPath>
</defs>
</svg>
