<svg width="40" height="40" viewBox="0 0 40 40" fill="none" xmlns="http://www.w3.org/2000/svg">
<g clip-path="url(#clip0_17522_60773)">
<path d="M0 0H40V40H0V0Z" fill="white"/>
<path d="M22.1875 4.44531H40V8.89062H22.1875V4.44531ZM22.1875 13.3359H40V17.7812H22.1875V13.3359ZM0 22.2188H40V26.6719H0V22.2188ZM0 31.1094H40V35.5625H0V31.1094Z" fill="#0038A8"/>
<path d="M10.6205 13.2849L11.3538 14.3849C8.32271 16.5849 10.156 17.856 8.02937 18.5405C9.34937 17.2694 7.80937 17.1472 8.93382 14.4338" fill="#FCD116"/>
<path fill-rule="evenodd" clip-rule="evenodd" d="M10.6408 13.1832L11.4539 14.4029L11.3969 14.4443C10.6447 14.9902 10.1978 15.476 9.91604 15.9063C9.63457 16.3361 9.51555 16.7142 9.42314 17.0505C9.41265 17.0887 9.40247 17.1265 9.39239 17.164C9.31449 17.4534 9.24245 17.7211 9.07987 17.9538C8.89314 18.221 8.59287 18.4362 8.05184 18.6103L7.75042 18.7073L7.97851 18.4877C8.30347 18.1747 8.44422 17.9402 8.49835 17.7262C8.55294 17.5103 8.52255 17.306 8.48241 17.0389C8.44256 16.7737 8.39554 16.4572 8.43067 16.0353C8.46578 15.6137 8.58257 15.0898 8.86607 14.4057L8.89415 14.338L9.02964 14.3941L9.00156 14.4619C8.72284 15.1345 8.61047 15.6434 8.57683 16.0475C8.54321 16.4514 8.58785 16.7536 8.62745 17.0171L8.62931 17.0295C8.66789 17.286 8.70259 17.5167 8.64054 17.7621C8.59298 17.9502 8.49033 18.1418 8.30107 18.3616C8.63611 18.2179 8.83103 18.0539 8.95964 17.8698C9.10653 17.6596 9.17168 17.4184 9.25083 17.1253C9.26083 17.0883 9.27107 17.0504 9.28172 17.0116C9.3757 16.6696 9.49959 16.2746 9.79334 15.8259C10.0794 15.389 10.5244 14.9046 11.2539 14.3672L10.5188 13.2646L10.6408 13.1832Z" fill="black"/>
<path fill-rule="evenodd" clip-rule="evenodd" d="M8.91801 16.7818C9.03931 15.9763 9.19878 14.9173 10.02 13.5647L10.1454 13.6408C9.33945 14.9682 9.18352 16.0036 9.06293 16.8044C9.06035 16.8216 9.05778 16.8386 9.05522 16.8556C8.99445 17.2582 8.93835 17.6105 8.80179 17.9063C8.66298 18.2069 8.44259 18.4467 8.06129 18.631L7.99746 18.4989C8.34949 18.3288 8.54466 18.1133 8.66863 17.8448C8.79485 17.5714 8.84874 17.2409 8.9102 16.8337C8.91279 16.8165 8.91539 16.7992 8.91801 16.7818Z" fill="black"/>
<path d="M11.1094 11.1094H12.576L11.1094 19.176L9.64271 11.1094H11.1094Z" fill="#FCD116"/>
<path fill-rule="evenodd" clip-rule="evenodd" d="M9.55484 11.036H12.6639L11.1094 19.586L9.55484 11.036ZM9.73058 11.1827L11.036 18.3628V11.1827H9.73058ZM11.1827 11.1827V18.3628L12.4882 11.1827H11.1827Z" fill="black"/>
<path d="M9.22533 12.302L8.96605 13.5984C5.2671 13.0107 5.66465 15.2059 3.67689 14.1861C5.50909 14.2206 4.50657 13.0453 7.22029 11.9218" fill="#FCD116"/>
<path fill-rule="evenodd" clip-rule="evenodd" d="M9.31162 12.2445L9.02414 13.6819L8.95455 13.6708C8.03665 13.525 7.37712 13.5524 6.87363 13.6575C6.37065 13.7624 6.01919 13.9456 5.71604 14.118C5.68162 14.1376 5.64767 14.1572 5.61404 14.1765C5.35427 14.3261 5.11404 14.4645 4.83455 14.514C4.51356 14.571 4.14911 14.5108 3.64342 14.2513L3.36169 14.1068L3.67828 14.1128C4.12933 14.1213 4.39469 14.055 4.58433 13.9419C4.77559 13.8278 4.89856 13.6619 5.05903 13.4446C5.21834 13.229 5.40889 12.9719 5.73206 12.6984C6.05506 12.4251 6.50804 12.1373 7.19223 11.854L7.25999 11.826L7.31609 11.9615L7.24834 11.9895C6.57568 12.268 6.13633 12.5484 5.82681 12.8104C5.51746 13.0722 5.3353 13.3175 5.177 13.5318L5.16956 13.5419C5.01543 13.7505 4.87683 13.9382 4.65945 14.0678C4.49283 14.1672 4.28477 14.2301 3.99548 14.2517C4.33406 14.387 4.58786 14.4088 4.80894 14.3696C5.06144 14.3249 5.27807 14.2004 5.54127 14.0491C5.57455 14.03 5.60857 14.0104 5.64351 13.9905C5.95181 13.8151 6.31875 13.6234 6.84368 13.5139C7.35493 13.4073 8.01206 13.3793 8.90792 13.5152L9.1678 12.2157L9.31162 12.2445Z" fill="black"/>
<path fill-rule="evenodd" clip-rule="evenodd" d="M5.54881 13.5709C6.20418 13.0871 7.06577 12.451 8.60295 12.0752L8.63777 12.2177C7.12925 12.5865 6.28682 13.2084 5.63533 13.6893C5.62136 13.6996 5.60747 13.7099 5.59367 13.7201C5.26604 13.9618 4.97723 14.1712 4.67154 14.2838C4.36081 14.3982 4.03543 14.4119 3.63549 14.2726L3.68373 14.1341C4.05297 14.2627 4.34335 14.2483 4.62086 14.1462C4.90339 14.0421 5.17525 13.8465 5.5066 13.602C5.52058 13.5917 5.53465 13.5813 5.54881 13.5709Z" fill="black"/>
<path d="M11.1094 11.1094L12.1465 12.1465L5.40538 16.8134L10.0723 10.0723L11.1094 11.1094Z" fill="#FCD116"/>
<path fill-rule="evenodd" clip-rule="evenodd" d="M10.062 9.9583L12.2605 12.1567L5.1155 17.1032L10.062 9.9583ZM10.0826 10.1863L5.9286 16.1864L11.0057 11.1094L10.0826 10.1863ZM11.1094 11.2131L6.03231 16.2901L12.0325 12.1362L11.1094 11.2131Z" fill="black"/>
<path d="M8.93382 10.6205L7.83382 11.3538C5.63382 8.32271 4.36271 10.156 3.67826 8.02937C4.94937 9.34937 5.0716 7.80937 7.78493 8.93382" fill="#FCD116"/>
<path fill-rule="evenodd" clip-rule="evenodd" d="M9.03551 10.6408L7.81586 11.4539L7.77447 11.3969C7.22854 10.6447 6.74276 10.1978 6.31247 9.91604C5.88261 9.63457 5.50459 9.51555 5.16828 9.42314C5.1301 9.41265 5.09226 9.40247 5.05478 9.39239C4.76532 9.31449 4.49761 9.24245 4.26494 9.07987C3.99772 8.89314 3.78258 8.59287 3.60845 8.05184L3.51145 7.75042L3.73109 7.97851C4.04401 8.30347 4.27853 8.44422 4.49259 8.49835C4.70848 8.55294 4.91279 8.52255 5.17986 8.48241C5.44501 8.44256 5.76151 8.39554 6.18341 8.43067C6.60509 8.46578 7.1289 8.58257 7.813 8.86607L7.88075 8.89415L7.8246 9.02964L7.75686 9.00156C7.08429 8.72284 6.57533 8.61047 6.17124 8.57683C5.76738 8.54321 5.46513 8.58785 5.20166 8.62745L5.18927 8.62931C4.93271 8.66789 4.70202 8.70259 4.45664 8.64054C4.26857 8.59298 4.07697 8.49033 3.85711 8.30107C4.00089 8.63611 4.1649 8.83103 4.34895 8.95964C4.55915 9.10653 4.80036 9.17168 5.09343 9.25083C5.13049 9.26083 5.16838 9.27107 5.20714 9.28172C5.54916 9.3757 5.9442 9.49959 6.39281 9.79334C6.82974 10.0794 7.31413 10.5244 7.85157 11.2539L8.95416 10.5188L9.03551 10.6408Z" fill="black"/>
<path fill-rule="evenodd" clip-rule="evenodd" d="M5.43692 8.91801C6.24244 9.03931 7.30146 9.19878 8.6541 10.02L8.57798 10.1454C7.25055 9.33945 6.21511 9.18352 5.41435 9.06293C5.39717 9.06035 5.38011 9.05778 5.36315 9.05522C4.96058 8.99445 4.60823 8.93835 4.31249 8.80179C4.01187 8.66298 3.77209 8.44259 3.58779 8.06129L3.71984 7.99746C3.88999 8.34949 4.10549 8.54466 4.37397 8.66863C4.64732 8.79485 4.97789 8.84874 5.38504 8.9102C5.40221 8.91279 5.41951 8.91539 5.43692 8.91801Z" fill="black"/>
<path d="M11.1094 11.1094L11.1094 12.576L3.04271 11.1094L11.1094 9.64271L11.1094 11.1094Z" fill="#FCD116"/>
<path fill-rule="evenodd" clip-rule="evenodd" d="M11.1827 9.55484V12.6639L2.63276 11.1094L11.1827 9.55484ZM11.036 9.73058L3.85599 11.036H11.036V9.73058ZM11.036 11.1827L3.85599 11.1827L11.036 12.4882L11.036 11.1827Z" fill="black"/>
<path d="M9.91672 9.22533L8.62036 8.96605C9.20804 5.2671 7.01287 5.66465 8.03267 3.67689C7.9981 5.50909 9.17347 4.50657 10.297 7.22029" fill="#FCD116"/>
<path fill-rule="evenodd" clip-rule="evenodd" d="M9.97425 9.31162L8.53688 9.02414L8.54793 8.95455C8.69377 8.03665 8.6663 7.37712 8.56126 6.87363C8.45633 6.37065 8.2732 6.01919 8.10073 5.71604C8.08115 5.68162 8.0616 5.64767 8.04223 5.61404C7.89262 5.35427 7.75426 5.11404 7.70471 4.83455C7.64779 4.51356 7.70798 4.14911 7.96743 3.64342L8.11197 3.36169L8.10599 3.67828C8.09748 4.12933 8.16379 4.39469 8.27688 4.58433C8.39093 4.77559 8.55689 4.89856 8.77412 5.05903C8.98979 5.21834 9.24683 5.40889 9.52032 5.73206C9.79367 6.05506 10.0815 6.50804 10.3647 7.19223L10.3928 7.25999L10.2573 7.31609L10.2292 7.24834C9.95074 6.57568 9.67031 6.13633 9.40837 5.82681C9.14657 5.51746 8.90127 5.3353 8.68698 5.177L8.6769 5.16956C8.4682 5.01543 8.28054 4.87683 8.15091 4.65945C8.05155 4.49283 7.98866 4.28477 7.96702 3.99548C7.83178 4.33406 7.80992 4.58786 7.84912 4.80894C7.89389 5.06144 8.01839 5.27807 8.16965 5.54127C8.18878 5.57455 8.20834 5.60857 8.22821 5.64351C8.4036 5.95181 8.59533 6.31875 8.70484 6.84368C8.8115 7.35493 8.83941 8.01206 8.7036 8.90792L10.003 9.1678L9.97425 9.31162Z" fill="black"/>
<path fill-rule="evenodd" clip-rule="evenodd" d="M8.64787 5.54881C9.13169 6.20418 9.76777 7.06577 10.1435 8.60295L10.001 8.63777C9.6323 7.12925 9.01039 6.28682 8.52943 5.63533C8.51912 5.62136 8.50887 5.60747 8.49869 5.59367C8.25699 5.26604 8.04752 4.97723 7.93496 4.67154C7.82054 4.36081 7.80683 4.03543 7.94614 3.63549L8.08464 3.68373C7.95603 4.05297 7.97041 4.34335 8.07259 4.62086C8.17663 4.90339 8.37227 5.17525 8.61671 5.5066C8.62702 5.52058 8.63741 5.53465 8.64787 5.54881Z" fill="black"/>
<path d="M11.1094 11.1094L10.0723 12.1465L5.40538 5.40538L12.1465 10.0723L11.1094 11.1094Z" fill="#FCD116"/>
<path fill-rule="evenodd" clip-rule="evenodd" d="M12.2605 10.062L10.062 12.2605L5.1155 5.1155L12.2605 10.062ZM12.0325 10.0826L6.03231 5.9286L11.1094 11.0057L12.0325 10.0826ZM11.0057 11.1094L5.9286 6.03231L10.0826 12.0325L11.0057 11.1094Z" fill="black"/>
<path d="M11.5983 8.93382L10.8649 7.83382C13.896 5.63382 12.0627 4.36271 14.1894 3.67826C12.8694 4.94937 14.4094 5.0716 13.2849 7.78493" fill="#FCD116"/>
<path fill-rule="evenodd" clip-rule="evenodd" d="M11.5779 9.03551L10.7648 7.81586L10.8219 7.77447C11.574 7.22854 12.021 6.74276 12.3027 6.31247C12.5842 5.88261 12.7032 5.50459 12.7956 5.16828C12.8061 5.1301 12.8163 5.09226 12.8264 5.05478C12.9043 4.76532 12.9763 4.49761 13.1389 4.26494C13.3256 3.99772 13.6259 3.78258 14.1669 3.60845L14.4683 3.51145L14.2402 3.73109C13.9153 4.04401 13.7745 4.27853 13.7204 4.49259C13.6658 4.70848 13.6962 4.91279 13.7363 5.17986C13.7762 5.44501 13.8232 5.76151 13.7881 6.18341C13.753 6.60509 13.6362 7.1289 13.3527 7.813L13.3246 7.88075L13.1891 7.8246L13.2172 7.75685C13.4959 7.08429 13.6083 6.57533 13.6419 6.17124C13.6755 5.76738 13.6309 5.46513 13.5913 5.20166L13.5894 5.18927C13.5509 4.93271 13.5162 4.70202 13.5782 4.45664C13.6258 4.26857 13.7284 4.07697 13.9177 3.85711C13.5826 4.00089 13.3877 4.1649 13.2591 4.34895C13.1122 4.55915 13.0471 4.80036 12.9679 5.09343C12.9579 5.13049 12.9477 5.16838 12.937 5.20714C12.8431 5.54916 12.7192 5.9442 12.4254 6.39281C12.1393 6.82974 11.6944 7.31413 10.9649 7.85157L11.7 8.95416L11.5779 9.03551Z" fill="black"/>
<path fill-rule="evenodd" clip-rule="evenodd" d="M13.3007 5.43692C13.1794 6.24244 13.02 7.30146 12.1987 8.6541L12.0734 8.57798C12.8793 7.25055 13.0352 6.21511 13.1558 5.41435C13.1584 5.39717 13.161 5.38011 13.1635 5.36315C13.2243 4.96058 13.2804 4.60823 13.417 4.31249C13.5558 4.01187 13.7762 3.77209 14.1575 3.58779L14.2213 3.71984C13.8693 3.88999 13.6741 4.10549 13.5501 4.37397C13.4239 4.64732 13.37 4.97789 13.3086 5.38504C13.306 5.40221 13.3034 5.41951 13.3007 5.43692Z" fill="black"/>
<path d="M11.1094 11.1094H9.64271L11.1094 3.04271L12.576 11.1094H11.1094Z" fill="#FCD116"/>
<path fill-rule="evenodd" clip-rule="evenodd" d="M12.6639 11.1827H9.55484L11.1094 2.63276L12.6639 11.1827ZM12.4882 11.036L11.1827 3.85599V11.036H12.4882ZM11.036 11.036V3.85599L9.73058 11.036L11.036 11.036Z" fill="black"/>
<path d="M12.9934 9.91672L13.2527 8.62036C16.9517 9.20804 16.5541 7.01287 18.5419 8.03267C16.7097 7.9981 17.7122 9.17347 14.9985 10.297" fill="#FCD116"/>
<path fill-rule="evenodd" clip-rule="evenodd" d="M12.9071 9.97425L13.1946 8.53688L13.2642 8.54793C14.1821 8.69377 14.8416 8.6663 15.3451 8.56126C15.8481 8.45633 16.1996 8.2732 16.5027 8.10073C16.5371 8.08115 16.5711 8.0616 16.6047 8.04223C16.8645 7.89262 17.1047 7.75426 17.3842 7.70471C17.7052 7.64779 18.0696 7.70798 18.5753 7.96743L18.8571 8.11197L18.5405 8.10599C18.0894 8.09748 17.8241 8.16379 17.6344 8.27688C17.4432 8.39093 17.3202 8.55689 17.1597 8.77412C17.0004 8.98979 16.8099 9.24683 16.4867 9.52032C16.1637 9.79367 15.7107 10.0815 15.0265 10.3647L14.9588 10.3928L14.9027 10.2573L14.9704 10.2292C15.6431 9.95074 16.0824 9.67031 16.3919 9.40837C16.7013 9.14657 16.8834 8.90127 17.0417 8.68698L17.0492 8.6769C17.2033 8.4682 17.3419 8.28054 17.5593 8.15091C17.7259 8.05155 17.934 7.98866 18.2233 7.96702C17.8847 7.83178 17.6309 7.80992 17.4098 7.84912C17.1573 7.89389 16.9407 8.01839 16.6775 8.16965C16.6442 8.18878 16.6102 8.20834 16.5752 8.22821C16.2669 8.4036 15.9 8.59533 15.3751 8.70484C14.8638 8.8115 14.2067 8.83941 13.3108 8.7036L13.051 10.003L12.9071 9.97425Z" fill="black"/>
<path fill-rule="evenodd" clip-rule="evenodd" d="M16.6699 8.64787C16.0146 9.13169 15.153 9.76777 13.6158 10.1435L13.581 10.001C15.0895 9.6323 15.9319 9.01039 16.5834 8.52943C16.5974 8.51912 16.6113 8.50887 16.6251 8.49869C16.9527 8.25699 17.2415 8.04752 17.5472 7.93496C17.8579 7.82054 18.1833 7.80683 18.5833 7.94614L18.535 8.08464C18.1658 7.95603 17.8754 7.97041 17.5979 8.07259C17.3154 8.17663 17.0435 8.37227 16.7121 8.61671C16.6982 8.62702 16.6841 8.63741 16.6699 8.64787Z" fill="black"/>
<path d="M11.1094 11.1094L10.0723 10.0723L16.8134 5.40538L12.1465 12.1465L11.1094 11.1094Z" fill="#FCD116"/>
<path fill-rule="evenodd" clip-rule="evenodd" d="M12.1567 12.2605L9.9583 10.062L17.1032 5.1155L12.1567 12.2605ZM12.1362 12.0325L16.2902 6.03231L11.2131 11.1094L12.1362 12.0325ZM11.1094 11.0057L16.1864 5.9286L10.1863 10.0826L11.1094 11.0057Z" fill="black"/>
<path d="M13.2849 11.5983L14.3849 10.8649C16.5849 13.896 17.856 12.0627 18.5405 14.1894C17.2694 12.8694 17.1472 14.4094 14.4338 13.2849" fill="#FCD116"/>
<path fill-rule="evenodd" clip-rule="evenodd" d="M13.1832 11.5779L14.4029 10.7648L14.4443 10.8219C14.9902 11.574 15.476 12.021 15.9063 12.3027C16.3361 12.5842 16.7142 12.7032 17.0505 12.7956C17.0887 12.8061 17.1265 12.8163 17.164 12.8264C17.4534 12.9043 17.7211 12.9763 17.9538 13.1389C18.221 13.3256 18.4362 13.6259 18.6103 14.1669L18.7073 14.4683L18.4877 14.2402C18.1747 13.9153 17.9402 13.7745 17.7262 13.7204C17.5103 13.6658 17.306 13.6962 17.0389 13.7363C16.7737 13.7762 16.4572 13.8232 16.0353 13.7881C15.6137 13.753 15.0898 13.6362 14.4057 13.3527L14.338 13.3246L14.3941 13.1891L14.4619 13.2172C15.1345 13.4959 15.6434 13.6083 16.0475 13.6419C16.4514 13.6755 16.7536 13.6309 17.0171 13.5913L17.0295 13.5894C17.286 13.5509 17.5167 13.5162 17.7621 13.5782C17.9502 13.6258 18.1418 13.7284 18.3616 13.9177C18.2179 13.5826 18.0539 13.3877 17.8698 13.2591C17.6596 13.1122 17.4184 13.0471 17.1253 12.9679C17.0883 12.9579 17.0504 12.9477 17.0116 12.937C16.6696 12.8431 16.2746 12.7192 15.8259 12.4254C15.389 12.1393 14.9046 11.6944 14.3672 10.9649L13.2646 11.7L13.1832 11.5779Z" fill="black"/>
<path fill-rule="evenodd" clip-rule="evenodd" d="M16.7818 13.3007C15.9763 13.1794 14.9173 13.02 13.5647 12.1987L13.6408 12.0734C14.9682 12.8793 16.0036 13.0352 16.8044 13.1558C16.8216 13.1584 16.8386 13.161 16.8556 13.1635C17.2582 13.2243 17.6105 13.2804 17.9063 13.417C18.2069 13.5558 18.4467 13.7762 18.631 14.1575L18.4989 14.2213C18.3288 13.8693 18.1133 13.6741 17.8448 13.5501C17.5714 13.4239 17.2409 13.37 16.8337 13.3086C16.8165 13.306 16.7992 13.3034 16.7818 13.3007Z" fill="black"/>
<path d="M11.1094 11.1094L11.1094 9.64271L19.176 11.1094L11.1094 12.576L11.1094 11.1094Z" fill="#FCD116"/>
<path fill-rule="evenodd" clip-rule="evenodd" d="M11.036 12.6639V9.55484L19.586 11.1094L11.036 12.6639ZM11.1827 12.4882L18.3628 11.1827H11.1827V12.4882ZM11.1827 11.036H18.3628L11.1827 9.73058L11.1827 11.036Z" fill="black"/>
<path d="M12.302 12.9934L13.5984 13.2527C13.0107 16.9517 15.2059 16.5541 14.1861 18.5419C14.2206 16.7097 13.0453 17.7122 11.9218 14.9985" fill="#FCD116"/>
<path fill-rule="evenodd" clip-rule="evenodd" d="M12.2445 12.9071L13.6819 13.1946L13.6708 13.2642C13.525 14.1821 13.5524 14.8416 13.6575 15.3451C13.7624 15.8481 13.9456 16.1996 14.118 16.5027C14.1376 16.5371 14.1572 16.5711 14.1765 16.6047C14.3261 16.8645 14.4645 17.1047 14.514 17.3842C14.571 17.7052 14.5108 18.0696 14.2513 18.5753L14.1068 18.8571L14.1128 18.5405C14.1213 18.0894 14.055 17.8241 13.9419 17.6344C13.8278 17.4432 13.6619 17.3202 13.4446 17.1597C13.229 17.0004 12.9719 16.8099 12.6984 16.4867C12.4251 16.1637 12.1373 15.7107 11.854 15.0265L11.826 14.9588L11.9615 14.9027L11.9895 14.9704C12.268 15.6431 12.5484 16.0824 12.8104 16.3919C13.0722 16.7013 13.3175 16.8834 13.5318 17.0417L13.5419 17.0492C13.7505 17.2033 13.9382 17.3419 14.0678 17.5593C14.1672 17.7259 14.2301 17.934 14.2517 18.2233C14.387 17.8847 14.4088 17.6309 14.3696 17.4098C14.3249 17.1573 14.2004 16.9407 14.0491 16.6775C14.03 16.6442 14.0104 16.6102 13.9905 16.5752C13.8151 16.2669 13.6234 15.9 13.5139 15.3751C13.4073 14.8638 13.3793 14.2067 13.5152 13.3108L12.2157 13.051L12.2445 12.9071Z" fill="black"/>
<path fill-rule="evenodd" clip-rule="evenodd" d="M13.5709 16.6699C13.0871 16.0146 12.451 15.153 12.0752 13.6158L12.2177 13.581C12.5865 15.0895 13.2084 15.9319 13.6893 16.5834C13.6996 16.5974 13.7099 16.6113 13.7201 16.6251C13.9618 16.9527 14.1712 17.2415 14.2838 17.5472C14.3982 17.8579 14.4119 18.1833 14.2726 18.5833L14.1341 18.535C14.2627 18.1658 14.2483 17.8754 14.1462 17.5979C14.0421 17.3154 13.8465 17.0435 13.602 16.7121C13.5917 16.6982 13.5813 16.6841 13.5709 16.6699Z" fill="black"/>
<path d="M11.1094 11.1094L12.1465 10.0723L16.8134 16.8134L10.0723 12.1465L11.1094 11.1094Z" fill="#FCD116"/>
<path fill-rule="evenodd" clip-rule="evenodd" d="M9.9583 12.1567L12.1567 9.9583L17.1032 17.1032L9.9583 12.1567ZM10.1863 12.1362L16.1864 16.2902L11.1094 11.2131L10.1863 12.1362ZM11.2131 11.1094L16.2901 16.1864L12.1362 10.1863L11.2131 11.1094Z" fill="black"/>
<path d="M11.1094 13.7983C12.5944 13.7983 13.7983 12.5944 13.7983 11.1094C13.7983 9.62434 12.5944 8.42049 11.1094 8.42049C9.62434 8.42049 8.42048 9.62434 8.42048 11.1094C8.42048 12.5944 9.62434 13.7983 11.1094 13.7983Z" fill="#FCD116"/>
<path fill-rule="evenodd" clip-rule="evenodd" d="M11.1094 8.49382C9.66484 8.49382 8.49382 9.66484 8.49382 11.1094C8.49382 12.5539 9.66484 13.7249 11.1094 13.7249C12.5539 13.7249 13.7249 12.5539 13.7249 11.1094C13.7249 9.66484 12.5539 8.49382 11.1094 8.49382ZM8.34715 11.1094C8.34715 9.58384 9.58384 8.34715 11.1094 8.34715C12.6349 8.34715 13.8716 9.58384 13.8716 11.1094C13.8716 12.6349 12.6349 13.8716 11.1094 13.8716C9.58384 13.8716 8.34715 12.6349 8.34715 11.1094Z" fill="black"/>
<path d="M13.0894 10.0338C12.9183 10.2294 12.8205 9.88715 12.2094 9.88715C11.5983 9.88715 11.5005 10.2538 11.4027 10.1805C11.3049 10.1071 11.916 9.66715 12.1116 9.6427C12.3072 9.61826 12.8694 9.81381 13.0894 10.0338ZM12.3805 10.2538C12.5516 10.4005 12.4049 10.7183 12.2338 10.7183C12.0627 10.7183 11.7449 10.4249 11.8916 10.2294" fill="black"/>
<path d="M11.5738 10.4738C11.5983 10.1805 11.8427 10.1316 12.2338 10.1316C12.6249 10.1316 12.796 10.4249 12.9427 10.4983C12.7716 10.4983 12.6249 10.2538 12.2338 10.2538C11.8427 10.2538 11.8427 10.2538 11.5738 10.4983M11.6472 10.5472C11.7449 10.4005 11.8672 10.6938 12.136 10.6938C12.4049 10.6938 12.5516 10.6205 12.7227 10.4983C12.8938 10.376 12.4783 10.7916 12.2094 10.7916C11.9405 10.7916 11.5738 10.6449 11.6472 10.5472Z" fill="black"/>
<path d="M12.4783 10.6938C12.796 10.5227 12.6005 10.2783 12.4783 10.2294C12.5272 10.2783 12.7227 10.5227 12.4783 10.6938ZM11.1094 12.1605C11.256 12.1605 11.3049 12.1116 11.5005 12.1116C11.696 12.1116 12.1605 12.3805 12.4294 12.2827C11.8672 12.5027 12.0872 12.356 11.1094 12.356H10.9872M12.5272 12.5027C12.4294 12.3316 12.4538 12.3805 12.2583 12.1116C12.4538 12.2583 12.5027 12.3316 12.5272 12.5027ZM11.1094 12.7472C11.7205 12.7472 11.6227 12.6249 12.4294 12.2827C11.8427 12.356 11.7205 12.5516 11.1094 12.5516H10.9872M11.1094 11.8427C11.2805 11.8427 11.3294 11.7205 11.5249 11.7205C11.7205 11.7205 11.9894 11.7938 12.1116 11.8916C12.136 11.916 12.0383 11.696 11.8427 11.6716C11.6472 11.6472 11.7205 11.3294 11.5005 11.2805C11.5005 11.3783 11.5738 11.3538 11.5983 11.5005C11.5983 11.6227 11.3783 11.6227 11.3294 11.5005C11.3783 11.696 11.2316 11.696 11.1094 11.696" fill="black"/>
<path d="M9.12937 10.0338C9.30048 10.2294 9.39826 9.88715 10.0094 9.88715C10.6205 9.88715 10.7183 10.2538 10.816 10.1805C10.9138 10.1071 10.3027 9.66715 10.1071 9.6427C9.91159 9.61826 9.34937 9.81381 9.12937 10.0338ZM9.83826 10.2538C9.66715 10.4005 9.81382 10.7183 9.98493 10.7183C10.156 10.7183 10.4738 10.4249 10.3272 10.2294" fill="black"/>
<path d="M10.6449 10.4738C10.6205 10.1805 10.376 10.1316 9.98493 10.1316C9.59381 10.1316 9.4227 10.4249 9.27604 10.4983C9.44715 10.4983 9.59381 10.2538 9.98493 10.2538C10.376 10.2538 10.376 10.2538 10.6449 10.4983M10.5716 10.5472C10.4738 10.4005 10.3516 10.6938 10.0827 10.6938C9.81381 10.6938 9.66715 10.6205 9.49604 10.4983C9.32492 10.376 9.74048 10.7916 10.0094 10.7916C10.2783 10.7916 10.6449 10.6449 10.5716 10.5472Z" fill="black"/>
<path d="M9.74048 10.6938C9.4227 10.5227 9.61826 10.2783 9.74048 10.2294C9.69159 10.2783 9.49604 10.5227 9.74048 10.6938ZM11.1094 12.1605C10.9627 12.1605 10.9138 12.1116 10.7183 12.1116C10.5227 12.1116 10.0583 12.3805 9.78937 12.2827C10.3516 12.5027 10.1316 12.356 11.1094 12.356H11.2316M9.69159 12.5027C9.78937 12.3316 9.76493 12.3805 9.96048 12.1116C9.76493 12.2583 9.71604 12.3316 9.69159 12.5027ZM11.1094 12.7472C10.4983 12.7472 10.596 12.6249 9.78937 12.2827C10.376 12.356 10.4983 12.5516 11.1094 12.5516H11.2316M11.1094 11.8427C10.9383 11.8427 10.8894 11.7205 10.6938 11.7205C10.4983 11.7205 10.2294 11.7938 10.1071 11.8916C10.0827 11.916 10.1805 11.696 10.376 11.6716C10.5716 11.6472 10.4983 11.3294 10.7183 11.2805C10.7183 11.3783 10.6449 11.3538 10.6205 11.5005C10.6205 11.6227 10.8405 11.6227 10.8894 11.5005C10.8405 11.696 10.9872 11.696 11.1094 11.696" fill="black"/>
<path d="M11.1094 12.9672C10.9872 12.9672 10.6694 13.0405 11.1094 13.0405C11.5494 13.0405 11.2316 12.9672 11.1094 12.9672Z" fill="black"/>
</g>
<defs>
<clipPath id="clip0_17522_60773">
<path d="M0 4C0 1.79086 1.79086 0 4 0H36C38.2091 0 40 1.79086 40 4V36C40 38.2091 38.2091 40 36 40H4C1.79086 40 0 38.2091 0 36V4Z" fill="white"/>
</clipPath>
</defs>
</svg>
