<svg width="40" height="40" viewBox="0 0 40 40" fill="none" xmlns="http://www.w3.org/2000/svg">
<g clip-path="url(#clip0_17522_60774)">
<path d="M0 26.6641H40V40H0V26.6641Z" fill="#1EB53A"/>
<path d="M0 0H40V13.3359H0V0Z" fill="#0099B5"/>
<path d="M0 12.7969H40V27.2031H0V12.7969Z" fill="#CE1126"/>
<path d="M0 13.5938H40V26.4062H0V13.5938Z" fill="white"/>
<path d="M11.2031 11.1953C13.8524 11.1953 16 9.04768 16 6.39844C16 3.7492 13.8524 1.60156 11.2031 1.60156C8.55388 1.60156 6.40625 3.7492 6.40625 6.39844C6.40625 9.04768 8.55388 11.1953 11.2031 11.1953Z" fill="white"/>
<path d="M12.7969 11.1953C15.4461 11.1953 17.5938 9.04768 17.5938 6.39844C17.5938 3.7492 15.4461 1.60156 12.7969 1.60156C10.1476 1.60156 8 3.7492 8 6.39844C8 9.04768 10.1476 11.1953 12.7969 11.1953Z" fill="#0099B5"/>
<path d="M21.7578 9.27437L21.4538 10.1864L21.9178 10.3464" fill="white"/>
<path d="M21.7578 9.27437L22.0618 10.1864L21.5978 10.3464" fill="white"/>
<path d="M22.6708 9.93772L21.7095 9.93042L21.7007 10.4212" fill="white"/>
<path d="M22.6708 9.93772L21.8974 10.5087L21.6019 10.1168" fill="white"/>
<path d="M20.8448 9.93772L21.6182 10.5087L21.9138 10.1168" fill="white"/>
<path d="M20.8448 9.93772L21.8061 9.93042L21.8149 10.4212" fill="white"/>
<path d="M22.3221 11.011L22.032 10.0945L21.5625 10.2378" fill="white"/>
<path d="M22.3221 11.011L21.5401 10.4519L21.8214 10.0497" fill="white"/>
<path d="M21.1935 11.011L21.9755 10.4519L21.6942 10.0497" fill="white"/>
<path d="M21.1935 11.011L21.4837 10.0945L21.9531 10.2378" fill="white"/>
<path d="M21.7578 5.43438L21.4538 6.34637L21.9178 6.50638" fill="white"/>
<path d="M21.7578 5.43438L22.0618 6.34637L21.5978 6.50638" fill="white"/>
<path d="M22.6708 6.09772L21.7095 6.09042L21.7007 6.58115" fill="white"/>
<path d="M22.6708 6.09772L21.8974 6.66866L21.6019 6.27682" fill="white"/>
<path d="M20.8448 6.09772L21.6182 6.66866L21.9138 6.27682" fill="white"/>
<path d="M20.8448 6.09772L21.8061 6.09042L21.8149 6.58115" fill="white"/>
<path d="M22.3221 7.17103L22.032 6.25452L21.5625 6.39781" fill="white"/>
<path d="M22.3221 7.17103L21.5401 6.61189L21.8214 6.20972" fill="white"/>
<path d="M21.1935 7.17103L21.9755 6.61189L21.6942 6.20972" fill="white"/>
<path d="M21.1935 7.17103L21.4837 6.25452L21.9531 6.39781" fill="white"/>
<path d="M21.7578 1.59437L21.4538 2.50637L21.9178 2.66637" fill="white"/>
<path d="M21.7578 1.59437L22.0618 2.50637L21.5978 2.66637" fill="white"/>
<path d="M22.6708 2.25772L21.7095 2.25042L21.7007 2.74115" fill="white"/>
<path d="M22.6708 2.25772L21.8974 2.82866L21.6019 2.43682" fill="white"/>
<path d="M20.8448 2.25772L21.6182 2.82866L21.9138 2.43682" fill="white"/>
<path d="M20.8448 2.25772L21.8061 2.25042L21.8149 2.74115" fill="white"/>
<path d="M22.3221 3.33103L22.032 2.41452L21.5625 2.55781" fill="white"/>
<path d="M22.3221 3.33103L21.5401 2.77189L21.8214 2.36972" fill="white"/>
<path d="M21.1935 3.33103L21.9755 2.77189L21.6942 2.36972" fill="white"/>
<path d="M21.1935 3.33103L21.4837 2.41452L21.9531 2.55781" fill="white"/>
<path d="M25.5978 9.27437L25.2938 10.1864L25.7578 10.3464" fill="white"/>
<path d="M25.5978 9.27437L25.9018 10.1864L25.4378 10.3464" fill="white"/>
<path d="M26.5108 9.93772L25.5495 9.93042L25.5407 10.4212" fill="white"/>
<path d="M26.5108 9.93772L25.7374 10.5087L25.4419 10.1168" fill="white"/>
<path d="M24.6848 9.93772L25.4582 10.5087L25.7538 10.1168" fill="white"/>
<path d="M24.6848 9.93772L25.6461 9.93042L25.6549 10.4212" fill="white"/>
<path d="M26.1621 11.011L25.872 10.0945L25.4025 10.2378" fill="white"/>
<path d="M26.1621 11.011L25.3801 10.4519L25.6614 10.0497" fill="white"/>
<path d="M25.0335 11.011L25.8155 10.4519L25.5342 10.0497" fill="white"/>
<path d="M25.0335 11.011L25.3237 10.0945L25.7931 10.2378" fill="white"/>
<path d="M25.5978 5.43438L25.2938 6.34637L25.7578 6.50638" fill="white"/>
<path d="M25.5978 5.43438L25.9018 6.34637L25.4378 6.50638" fill="white"/>
<path d="M26.5108 6.09772L25.5495 6.09042L25.5407 6.58115" fill="white"/>
<path d="M26.5108 6.09772L25.7374 6.66866L25.4419 6.27682" fill="white"/>
<path d="M24.6848 6.09772L25.4582 6.66866L25.7538 6.27682" fill="white"/>
<path d="M24.6848 6.09772L25.6461 6.09042L25.6549 6.58115" fill="white"/>
<path d="M26.1621 7.17103L25.872 6.25452L25.4025 6.39781" fill="white"/>
<path d="M26.1621 7.17103L25.3801 6.61189L25.6614 6.20972" fill="white"/>
<path d="M25.0335 7.17103L25.8155 6.61189L25.5342 6.20972" fill="white"/>
<path d="M25.0335 7.17103L25.3237 6.25452L25.7931 6.39781" fill="white"/>
<path d="M25.5978 1.59437L25.2938 2.50637L25.7578 2.66637" fill="white"/>
<path d="M25.5978 1.59437L25.9018 2.50637L25.4378 2.66637" fill="white"/>
<path d="M26.5108 2.25772L25.5495 2.25042L25.5407 2.74115" fill="white"/>
<path d="M26.5108 2.25772L25.7374 2.82866L25.4419 2.43682" fill="white"/>
<path d="M24.6848 2.25772L25.4582 2.82866L25.7538 2.43682" fill="white"/>
<path d="M24.6848 2.25772L25.6461 2.25042L25.6549 2.74115" fill="white"/>
<path d="M26.1621 3.33103L25.872 2.41452L25.4025 2.55781" fill="white"/>
<path d="M26.1621 3.33103L25.3801 2.77189L25.6614 2.36972" fill="white"/>
<path d="M25.0335 3.33103L25.8155 2.77189L25.5342 2.36972" fill="white"/>
<path d="M25.0335 3.33103L25.3237 2.41452L25.7931 2.55781" fill="white"/>
<path d="M29.4378 9.27437L29.1338 10.1864L29.5978 10.3464" fill="white"/>
<path d="M29.4378 9.27437L29.7418 10.1864L29.2778 10.3464" fill="white"/>
<path d="M30.3508 9.93772L29.3895 9.93042L29.3807 10.4212" fill="white"/>
<path d="M30.3508 9.93772L29.5774 10.5087L29.2819 10.1168" fill="white"/>
<path d="M28.5248 9.93772L29.2982 10.5087L29.5938 10.1168" fill="white"/>
<path d="M28.5248 9.93772L29.4861 9.93042L29.4949 10.4212" fill="white"/>
<path d="M30.0021 11.011L29.712 10.0945L29.2425 10.2378" fill="white"/>
<path d="M30.0021 11.011L29.2201 10.4519L29.5014 10.0497" fill="white"/>
<path d="M28.8735 11.011L29.6555 10.4519L29.3742 10.0497" fill="white"/>
<path d="M28.8735 11.011L29.1637 10.0945L29.6331 10.2378" fill="white"/>
<path d="M29.4378 5.43438L29.1338 6.34637L29.5978 6.50638" fill="white"/>
<path d="M29.4378 5.43438L29.7418 6.34637L29.2778 6.50638" fill="white"/>
<path d="M30.3508 6.09772L29.3895 6.09042L29.3807 6.58116" fill="white"/>
<path d="M30.3508 6.09772L29.5774 6.66866L29.2819 6.27682" fill="white"/>
<path d="M28.5248 6.09772L29.2982 6.66866L29.5938 6.27682" fill="white"/>
<path d="M28.5248 6.09772L29.4861 6.09042L29.4949 6.58115" fill="white"/>
<path d="M30.0021 7.17103L29.712 6.25452L29.2425 6.39781" fill="white"/>
<path d="M30.0021 7.17103L29.2201 6.61189L29.5014 6.20972" fill="white"/>
<path d="M28.8735 7.17103L29.6555 6.61189L29.3742 6.20972" fill="white"/>
<path d="M28.8735 7.17103L29.1637 6.25452L29.6331 6.39781" fill="white"/>
<path d="M29.4378 1.59437L29.1338 2.50637L29.5978 2.66637" fill="white"/>
<path d="M29.4378 1.59437L29.7418 2.50637L29.2778 2.66637" fill="white"/>
<path d="M30.3508 2.25772L29.3895 2.25042L29.3807 2.74116" fill="white"/>
<path d="M30.3508 2.25772L29.5774 2.82866L29.2819 2.43682" fill="white"/>
<path d="M28.5248 2.25772L29.2982 2.82866L29.5938 2.43682" fill="white"/>
<path d="M28.5248 2.25772L29.4861 2.25042L29.4949 2.74115" fill="white"/>
<path d="M30.0021 3.33103L29.712 2.41452L29.2425 2.55781" fill="white"/>
<path d="M30.0021 3.33103L29.2201 2.77189L29.5014 2.36972" fill="white"/>
<path d="M28.8735 3.33103L29.6555 2.77189L29.3742 2.36972" fill="white"/>
<path d="M28.8735 3.33103L29.1637 2.41452L29.6331 2.55781" fill="white"/>
<path d="M14.0778 9.27437L13.7738 10.1864L14.2378 10.3464" fill="white"/>
<path d="M14.0778 9.27437L14.3818 10.1864L13.9178 10.3464" fill="white"/>
<path d="M14.9908 9.93772L14.0295 9.93042L14.0207 10.4212" fill="white"/>
<path d="M14.9908 9.93772L14.2174 10.5087L13.9219 10.1168" fill="white"/>
<path d="M13.1648 9.93772L13.9382 10.5087L14.2338 10.1168" fill="white"/>
<path d="M13.1648 9.93772L14.1261 9.93042L14.1349 10.4212" fill="white"/>
<path d="M14.6421 11.011L14.352 10.0945L13.8825 10.2378" fill="white"/>
<path d="M14.6421 11.011L13.8601 10.4519L14.1414 10.0497" fill="white"/>
<path d="M13.5135 11.011L14.2955 10.4519L14.0142 10.0497" fill="white"/>
<path d="M13.5135 11.011L13.8037 10.0945L14.2731 10.2378" fill="white"/>
<path d="M17.9178 9.27437L17.6138 10.1864L18.0778 10.3464" fill="white"/>
<path d="M17.9178 9.27437L18.2218 10.1864L17.7578 10.3464" fill="white"/>
<path d="M18.8308 9.93772L17.8695 9.93042L17.8607 10.4212" fill="white"/>
<path d="M18.8308 9.93772L18.0574 10.5087L17.7619 10.1168" fill="white"/>
<path d="M17.0048 9.93772L17.7782 10.5087L18.0738 10.1168" fill="white"/>
<path d="M17.0048 9.93772L17.9661 9.93042L17.9749 10.4212" fill="white"/>
<path d="M18.4821 11.011L18.192 10.0945L17.7225 10.2378" fill="white"/>
<path d="M18.4821 11.011L17.7001 10.4519L17.9814 10.0497" fill="white"/>
<path d="M17.3535 11.011L18.1355 10.4519L17.8542 10.0497" fill="white"/>
<path d="M17.3535 11.011L17.6437 10.0945L18.1131 10.2378" fill="white"/>
<path d="M17.9178 5.43438L17.6138 6.34637L18.0778 6.50638" fill="white"/>
<path d="M17.9178 5.43438L18.2218 6.34637L17.7578 6.50638" fill="white"/>
<path d="M18.8308 6.09772L17.8695 6.09042L17.8607 6.58115" fill="white"/>
<path d="M18.8308 6.09772L18.0574 6.66866L17.7619 6.27682" fill="white"/>
<path d="M17.0048 6.09772L17.7782 6.66866L18.0738 6.27682" fill="white"/>
<path d="M17.0048 6.09772L17.9661 6.09042L17.9749 6.58115" fill="white"/>
<path d="M18.4821 7.17103L18.192 6.25452L17.7225 6.39781" fill="white"/>
<path d="M18.4821 7.17103L17.7001 6.61189L17.9814 6.20972" fill="white"/>
<path d="M17.3535 7.17103L18.1355 6.61189L17.8542 6.20972" fill="white"/>
<path d="M17.3535 7.17103L17.6437 6.25452L18.1131 6.39781" fill="white"/>
</g>
<defs>
<clipPath id="clip0_17522_60774">
<path d="M0 4C0 1.79086 1.79086 0 4 0H36C38.2091 0 40 1.79086 40 4V36C40 38.2091 38.2091 40 36 40H4C1.79086 40 0 38.2091 0 36V4Z" fill="white"/>
</clipPath>
</defs>
</svg>
