<svg width="40" height="40" viewBox="0 0 40 40" fill="none" xmlns="http://www.w3.org/2000/svg">
<g clip-path="url(#clip0_17522_60781)">
<path d="M2.7895e-05 -1.12057e-05H40V40H2.7895e-05V-1.12057e-05Z" fill="#009543"/>
<path d="M2.7895e-05 -1.12057e-05H40V20H2.7895e-05V-1.12057e-05Z" fill="#D21034"/>
<path d="M2.7895e-05 -1.12057e-05V40L18.6667 23.5791H40.0001V16.4211H18.6667L2.7895e-05 -1.12057e-05Z" fill="black"/>
<path d="M2.7895e-05 -1.12057e-05L18.6667 16.4211H40.0001V23.5791H18.6667L2.7895e-05 40" fill="black"/>
<path fill-rule="evenodd" clip-rule="evenodd" d="M-2.22241 2.52634L2.22247 -2.52637L19.9361 13.0563H43.3649V26.9438H19.9361L2.22247 42.5265L-2.22241 37.4738L17.3974 20.2143H36.6353V19.7859H17.3974L-2.22241 2.52634Z" fill="#FDCE12"/>
<path fill-rule="evenodd" clip-rule="evenodd" d="M-1.21221 1.378L1.21227 -1.37802L19.3591 14.5858H40.0001V18.2565H17.9743L-1.21221 1.378ZM17.9743 21.7437H40.0001V25.4144H19.3591L1.21227 41.3782L-1.21221 38.6222L17.9743 21.7437Z" fill="black"/>
<path d="M5.28238 25.4696C7.05501 25.4696 10.5399 24.1119 10.5399 19.7293C10.5399 15.3467 6.82118 14.5321 5.71234 14.5321C4.59595 14.5321 1.16383 15.3317 1.16383 18.9071C1.16383 22.4976 4.53561 22.8295 5.1994 22.8295C5.8632 22.8295 8.35243 22.2261 8.06579 19.5407C7.99148 20.1961 7.67788 20.801 7.18512 21.2395C6.69237 21.678 6.05512 21.9191 5.39553 21.9168C3.58518 21.9168 2.45371 20.5741 2.45371 19.2465C2.45371 17.9189 3.555 16.1388 5.46341 16.1388C7.37182 16.1388 8.7673 17.836 8.7673 19.5407C8.7673 21.253 7.42463 23.4254 5.28238 23.4254V25.4696Z" fill="#FDCE12"/>
<path d="M3.72095 20.7702L3.82656 20.8457C3.82656 20.8457 4.67139 18.9222 6.92678 17.5569C6.64014 17.7077 5.13152 18.4621 3.72095 20.7702Z" fill="#FDCE12"/>
<path fill-rule="evenodd" clip-rule="evenodd" d="M6.89205 17.541C6.89952 17.5371 6.90641 17.5335 6.91273 17.5302L6.9424 17.5827C5.81865 18.263 5.04631 19.0823 4.55495 19.7315C4.30929 20.0561 4.13392 20.338 4.02004 20.5387C3.96311 20.639 3.92155 20.719 3.89427 20.7738C3.88063 20.8012 3.87057 20.8223 3.86393 20.8365C3.86061 20.8436 3.85815 20.849 3.85653 20.8526L3.85473 20.8566L3.8543 20.8575L3.83924 20.8918L3.68056 20.7785L3.69521 20.7545C5.0788 18.4905 6.55743 17.7162 6.89205 17.541ZM3.81445 20.7999C3.82095 20.7862 3.82953 20.7685 3.84025 20.7469C3.86798 20.6912 3.91005 20.6102 3.96756 20.5089C4.08257 20.3062 4.25937 20.022 4.50684 19.6951C4.54505 19.6446 4.58496 19.5931 4.62658 19.5407C4.34185 19.8883 4.04967 20.2927 3.76137 20.762L3.81445 20.7999Z" fill="#FDCE12"/>
<path d="M3.9397 20.4384C3.9397 20.4384 3.68324 19.9103 3.90953 19.669C4.13582 19.4351 4.03776 20.295 4.03776 20.295L4.13582 20.1517C4.13582 20.1517 3.98496 19.503 4.15091 19.3672C4.3244 19.2239 4.24143 19.9933 4.24143 19.9933L4.34703 19.8575C4.34703 19.8575 4.23388 19.2239 4.39983 19.1032C4.57332 18.9825 4.46772 19.7067 4.46772 19.7067L4.58841 19.5558C4.58841 19.5558 4.49789 18.9524 4.70156 18.809C4.90522 18.6657 4.72419 19.3823 4.72419 19.3823L4.85996 19.2314C4.85996 19.2314 4.79962 18.6808 4.97311 18.5526C5.1466 18.4319 5.00328 19.0806 5.00328 19.0806L5.12397 18.9448C5.12397 18.9448 5.08626 18.4319 5.25221 18.3112C5.4257 18.1905 5.26729 18.8015 5.26729 18.8015L5.39553 18.6808C5.39553 18.6808 5.36535 18.1603 5.57656 18.0623C5.78777 17.9642 5.53885 18.545 5.53885 18.545L5.68971 18.4243C5.68971 18.4243 5.72742 17.8209 5.90846 17.7681C6.08949 17.7077 5.83303 18.2961 5.83303 18.2961L5.96126 18.1905C5.96126 18.1905 6.02915 17.6776 6.22527 17.6172C6.42893 17.5493 6.10458 18.0849 6.10458 18.0849L6.23281 17.9868C6.23281 17.9868 6.37613 17.4739 6.56471 17.4136C6.74575 17.3608 6.36859 17.9039 6.36859 17.9039L6.49682 17.8133C6.49682 17.8133 6.70049 17.3457 6.87398 17.3155C7.03238 17.2853 6.67786 17.7002 6.67786 17.7002L6.83626 17.6097C6.83626 17.6097 7.10027 17.1269 7.19833 17.2702C7.28885 17.4211 6.82118 17.6399 6.82118 17.6399L6.67031 17.7304C6.67031 17.7304 7.23605 17.4588 7.30394 17.5946C7.37182 17.7304 6.52699 17.8209 6.52699 17.8209L6.39122 17.9114C6.39122 17.9114 6.95695 17.7605 6.88906 17.9039C6.81363 18.0472 6.25544 18.017 6.25544 18.017L6.12721 18.1075C6.12721 18.1075 6.69294 17.9717 6.61751 18.1075C6.54208 18.2282 5.99143 18.2207 5.99143 18.2207L5.85566 18.3338C5.85566 18.3338 6.4063 18.183 6.32333 18.3564C6.2479 18.5224 5.61428 18.5149 5.61428 18.5149L5.46341 18.6657C5.46341 18.6657 6.04424 18.4621 5.99143 18.6205C5.94617 18.7713 5.28238 18.8468 5.28238 18.8468L5.13152 18.9976C5.13152 18.9976 5.7576 18.7939 5.56902 18.9825C5.38798 19.1786 4.92785 19.2239 4.92785 19.2239L4.75436 19.4502C4.75436 19.4502 5.3729 19.073 5.28238 19.2843C5.1994 19.4955 4.58841 19.6388 4.58841 19.6388L4.46772 19.7896C4.46772 19.7896 5.02591 19.4653 4.96557 19.6388C4.91277 19.8274 4.31686 20.0159 4.31686 20.0159L4.2188 20.1517C4.2188 20.1517 4.87505 19.7595 4.82225 19.9631C4.7619 20.1593 4.13582 20.3026 4.13582 20.3026L4.06039 20.4308C4.06039 20.4308 4.66384 20.0763 4.66384 20.2498C4.67893 20.4157 3.95479 20.5817 3.95479 20.5817L3.9397 20.4384Z" fill="#FDCE12"/>
<path d="M7.31148 20.7702L7.20588 20.8457C7.20588 20.8457 6.36105 18.9222 4.10565 17.5569C4.39229 17.7077 5.90092 18.4621 7.31148 20.7702Z" fill="#FDCE12"/>
<path fill-rule="evenodd" clip-rule="evenodd" d="M4.14038 17.541C4.13291 17.5371 4.12602 17.5335 4.11971 17.5302L4.09003 17.5827C5.21378 18.263 5.98612 19.0823 6.47748 19.7315C6.72315 20.0561 6.89852 20.338 7.01239 20.5387C7.06933 20.639 7.11088 20.719 7.13816 20.7738C7.1518 20.8012 7.16187 20.8223 7.1685 20.8365C7.17182 20.8436 7.17428 20.849 7.1759 20.8526L7.1777 20.8566L7.17813 20.8575L7.19319 20.8918L7.35187 20.7785L7.33723 20.7545C5.95363 18.4905 4.475 17.7162 4.14038 17.541ZM7.21799 20.7999C7.21148 20.7862 7.2029 20.7685 7.19218 20.7469C7.16445 20.6912 7.12238 20.6102 7.06487 20.5089C6.94986 20.3062 6.77306 20.022 6.5256 19.6951C6.48738 19.6446 6.44747 19.5931 6.40585 19.5407C6.69058 19.8883 6.98276 20.2927 7.27106 20.762L7.21799 20.7999Z" fill="#FDCE12"/>
<path d="M7.09273 20.4384C7.09273 20.4384 7.3492 19.9103 7.1229 19.669C6.89661 19.4351 6.99467 20.295 6.99467 20.295L6.89661 20.1517C6.89661 20.1517 7.04747 19.503 6.88152 19.3672C6.70803 19.2239 6.79101 19.9933 6.79101 19.9933L6.6854 19.8575C6.6854 19.8575 6.79855 19.2239 6.6326 19.1032C6.45911 18.9825 6.56471 19.7067 6.56471 19.7067L6.44402 19.5558C6.44402 19.5558 6.53454 18.9524 6.33087 18.809C6.12721 18.6657 6.30824 19.3823 6.30824 19.3823L6.17247 19.2314C6.17247 19.2314 6.23281 18.6808 6.05932 18.5526C5.88583 18.4319 6.02915 19.0806 6.02915 19.0806L5.90846 18.9448C5.90846 18.9448 5.94617 18.4319 5.78023 18.3112C5.60673 18.1905 5.76514 18.8015 5.76514 18.8015L5.63691 18.6808C5.63691 18.6808 5.66708 18.1603 5.45587 18.0623C5.24466 17.9642 5.49359 18.545 5.49359 18.545L5.34272 18.4243C5.34272 18.4243 5.30501 17.8209 5.12397 17.7681C4.94294 17.7077 5.19941 18.2961 5.19941 18.2961L5.07117 18.1905C5.07117 18.1905 5.00328 17.6776 4.80716 17.6172C4.6035 17.5493 4.92785 18.0849 4.92785 18.0849L4.79962 17.9868C4.79962 17.9868 4.6563 17.4739 4.46772 17.4136C4.28669 17.3608 4.66384 17.9039 4.66384 17.9039L4.53561 17.8133C4.53561 17.8133 4.33195 17.3457 4.15845 17.3155C4.00005 17.2853 4.35457 17.7002 4.35457 17.7002L4.19617 17.6097C4.19617 17.6097 3.93216 17.1269 3.8341 17.2702C3.74358 17.4211 4.21126 17.6399 4.21126 17.6399L4.36212 17.7304C4.36212 17.7304 3.79638 17.4588 3.7285 17.5946C3.66061 17.7304 4.50544 17.8209 4.50544 17.8209L4.64121 17.9114C4.64121 17.9114 4.07548 17.7605 4.14337 17.9039C4.2188 18.0472 4.77699 18.017 4.77699 18.017L4.90522 18.1075C4.90522 18.1075 4.33949 17.9717 4.41492 18.1075C4.49035 18.2282 5.041 18.2207 5.041 18.2207L5.17678 18.3338C5.17678 18.3338 4.62613 18.183 4.7091 18.3564C4.78453 18.5224 5.41816 18.5149 5.41816 18.5149L5.56902 18.6657C5.56902 18.6657 4.9882 18.4621 5.041 18.6205C5.08626 18.7713 5.75005 18.8468 5.75005 18.8468L5.90092 18.9976C5.90092 18.9976 5.27484 18.7939 5.46341 18.9825C5.64445 19.1786 6.10458 19.2239 6.10458 19.2239L6.27807 19.4502C6.27807 19.4502 5.65954 19.073 5.75005 19.2843C5.83303 19.4955 6.44402 19.6388 6.44402 19.6388L6.56471 19.7896C6.56471 19.7896 6.00652 19.4653 6.06686 19.6388C6.11967 19.8274 6.71557 20.0159 6.71557 20.0159L6.81363 20.1517C6.81363 20.1517 6.15738 19.7595 6.21018 19.9631C6.27053 20.1593 6.89661 20.3026 6.89661 20.3026L6.97204 20.4308C6.97204 20.4308 6.36859 20.0763 6.36859 20.2498C6.3535 20.4157 7.07764 20.5817 7.07764 20.5817L7.09273 20.4384Z" fill="#FDCE12"/>
</g>
<defs>
<clipPath id="clip0_17522_60781">
<path d="M0 4C0 1.79086 1.79086 0 4 0H36C38.2091 0 40 1.79086 40 4V36C40 38.2091 38.2091 40 36 40H4C1.79086 40 0 38.2091 0 36V4Z" fill="white"/>
</clipPath>
</defs>
</svg>
