<svg width="40" height="40" viewBox="0 0 40 40" fill="none" xmlns="http://www.w3.org/2000/svg">
<g clip-path="url(#clip0_17544_71441)">
<path d="M0.00626802 -0.00170255H40.0031V39.9961H0.00626802V-0.00170255Z" fill="black"/>
<path d="M-0.11712 0.0078162H79.6107V39.9866H-0.11712V0.0078162Z" fill="#006400"/>
<path d="M-0.11712 5.71907H79.6107V34.2753H-0.11712V5.71907Z" fill="#FFD200"/>
<path d="M-0.11712 11.4303H79.6107V28.5641H-0.11712V11.4303Z" fill="#D40000"/>
<path d="M-0.11712 17.1416H79.6107V22.8528H-0.11712V17.1416Z" fill="#000001"/>
<path d="M-0.11712 0.0078162V39.9866L26.4588 19.9972L-0.11712 0.0078162Z" fill="black"/>
<path fill-rule="evenodd" clip-rule="evenodd" d="M-1.06763 -1.89648L28.0401 19.9972L-1.06763 41.8909V-1.89648ZM0.833387 1.91212V38.0823L24.8776 19.9972L0.833387 1.91212Z" fill="black"/>
<path d="M-0.11712 0.0078162V39.9866L26.4588 19.9972L-0.11712 0.0078162Z" fill="white"/>
<path d="M9.99123 9.94539L15.259 26.1939L1.47744 16.1516H18.5145L4.7235 26.1939L9.99123 9.94539Z" fill="#D40000"/>
<path d="M7.74176 24.1569L8.67192 23.9855L10.3899 23.9189L11.0258 23.976L12.4495 24.214L12.5539 24.0712V23.0432L12.7248 22.1579L13.0095 21.2632L13.3227 20.5493L13.7214 19.8068L14.3668 19.9686H14.5376L14.5566 19.8449L13.1898 18.6741L11.7661 17.5794L9.70649 16.0374L9.51666 15.9898L9.29836 14.3716L9.137 13.8862L8.9187 13.6958L8.51057 13.5625L8.05498 13.5816L7.84617 13.6958L7.40956 13.791L7.18177 13.829L7.02991 14.0099L7.01093 14.2383L7.64685 14.2574L7.8082 14.324L7.78922 14.3906L7.42855 14.4382L7.2577 14.4954L7.45702 14.6477L7.66583 14.7238L7.93159 14.819L7.98854 15.0094L8.00752 17.4652L7.86515 17.846L7.8177 18.5599L8.02651 19.4165L7.49499 20.0257L7.19126 20.5683L7.13431 20.9015L6.97296 21.2346L6.95398 21.444L7.05838 21.6725L7.46651 23.0242L7.67532 24.1378L7.74176 24.1569Z" fill="#FFCC00"/>
<path d="M8.23532 13.5244C8.06447 13.5244 7.98854 13.5435 7.82719 13.6291C7.69349 13.7059 7.54425 13.7515 7.39058 13.7624C7.1533 13.7624 6.96347 13.9337 6.96347 14.1527V14.2955L7.30516 14.2859C8.31125 14.3145 7.40007 14.4097 7.32414 14.4192C7.07737 14.4668 7.38109 14.6667 7.67532 14.7714C7.98854 14.8666 7.96956 14.8095 7.96956 16.1992C7.96956 17.3319 7.96956 17.4938 7.87464 17.7508C7.75126 18.1315 7.75126 18.7026 7.87464 19.0834C7.93159 19.2357 7.96956 19.369 7.96956 19.3975C7.96956 19.4165 7.8177 19.5974 7.63736 19.8068C7.30516 20.1876 7.10584 20.5778 7.10584 20.8539C7.094 20.9427 7.06149 21.0275 7.01093 21.1014C6.88754 21.2632 6.88754 21.5392 7.00143 21.6439C7.12482 21.7582 7.62787 23.719 7.63736 24.0903C7.63736 24.2235 7.65634 24.2235 8.42515 24.0712C9.05158 23.9475 10.5227 23.9189 11.2726 24.0141C11.6143 24.0617 12.0129 24.1378 12.1553 24.1664C12.6109 24.2901 12.5919 24.3092 12.5919 23.7571C12.5954 22.8872 12.7595 22.0255 13.0759 21.2156C13.2573 20.7541 13.4763 20.3083 13.7308 19.883C13.7308 19.883 13.9017 19.902 14.1105 19.9591C14.4996 20.0543 14.6135 20.0448 14.6135 19.8639C14.6135 19.7687 14.2054 19.4261 12.2027 17.865C11.395 17.202 10.5623 16.5701 9.70649 15.9708C9.64954 15.9708 9.59259 15.9422 9.5831 15.9041L9.44073 14.9998C9.37429 14.5334 9.27937 14.0765 9.24141 13.9813C9.10853 13.6958 8.85226 13.553 8.42515 13.5244C8.36189 13.5224 8.29858 13.5224 8.23532 13.5244ZM8.24481 13.6196H8.43464C9.06107 13.6577 9.17497 13.829 9.34581 14.9523C9.39192 15.2494 9.4299 15.5478 9.45971 15.847C9.45971 15.9232 9.37429 16.0184 9.15598 16.1611C8.7968 16.4139 8.47695 16.7186 8.20684 17.0654L8.08346 17.2368L8.05498 16.837V15.7138C8.08345 14.8856 8.05498 14.8095 7.78922 14.7143C7.57092 14.6381 7.28618 14.562 7.36211 14.5144C7.45702 14.4573 7.55194 14.4954 7.77973 14.4287C7.87464 14.4097 7.86515 14.4192 7.84617 14.3431C7.82719 14.2193 7.69431 14.1527 7.34312 14.1717C7.05838 14.1908 7.02991 14.1812 7.04889 14.1051C7.08686 13.9528 7.23872 13.8576 7.476 13.829C7.62127 13.8122 7.76255 13.7703 7.89363 13.7053C7.99958 13.6414 8.1212 13.6085 8.24481 13.6101V13.6196ZM9.65903 16.0755H9.69699C9.85835 16.104 14.5186 19.7592 14.5186 19.8639C14.5186 19.902 14.4807 19.9306 14.4237 19.9306C14.3857 19.9306 13.1993 19.5974 11.7946 19.1881C9.55462 18.5218 9.23191 18.4266 9.137 18.3029C9.07097 18.2192 9.03427 18.1161 9.03255 18.0094C9.03083 17.9027 9.06421 17.7984 9.12751 17.7127C9.17307 17.6572 9.20552 17.5921 9.22242 17.5223C9.22242 17.4081 8.98514 17.6937 8.93768 17.8555C8.89022 18.0458 8.98514 18.3695 9.12751 18.4742C9.18446 18.5218 9.61157 18.6646 10.0766 18.8073C10.8739 19.0358 10.9309 19.0644 10.9688 19.1976C11.0638 19.5117 10.7316 19.883 10.257 19.9877C10.079 20.0304 9.9113 20.108 9.76343 20.2161C9.271 20.6252 8.72085 20.9588 8.13091 21.2061C8.09295 21.2346 8.04549 21.3869 8.01701 21.5297C7.96007 21.8438 7.94108 21.8914 7.84617 21.8914C7.79871 21.8914 7.78922 21.8629 7.82719 21.7582C7.89363 21.5678 7.88413 21.3393 7.81769 21.3393C7.77024 21.3393 7.75126 21.406 7.75126 21.5107C7.75126 21.6059 7.72278 21.7201 7.68482 21.7486C7.63736 21.8058 7.62787 21.7677 7.64685 21.5297C7.66583 21.3679 7.65634 21.2441 7.63736 21.2441C7.5899 21.2441 7.50448 21.4821 7.476 21.6915C7.45702 21.8153 7.45702 21.8153 7.41906 21.663C7.39058 21.5487 7.40007 21.4726 7.4855 21.3298C7.53943 21.2264 7.57173 21.113 7.58041 20.9967C7.58041 20.8729 7.67532 20.7492 8.12142 20.3018C8.40616 20.0067 8.75735 19.6355 8.88073 19.4737C9.09904 19.2071 9.10853 19.1881 9.09904 18.9121C9.09904 18.7598 9.08005 18.617 9.06107 18.5979C9.00412 18.5408 8.92819 18.8454 8.96616 19.0072C8.98514 19.1595 8.96616 19.2071 8.65294 19.5784C8.42759 19.8371 8.19003 20.0849 7.94108 20.3208C7.57092 20.6635 7.43804 20.8539 7.43804 21.0252C7.43804 21.0823 7.40007 21.2156 7.34312 21.3393C7.28618 21.4631 7.26719 21.5868 7.28618 21.6154C7.30516 21.6439 7.28618 21.6439 7.2577 21.6154C7.21024 21.5678 7.21025 21.4916 7.24821 21.3298C7.26994 21.2492 7.27638 21.1653 7.26719 21.0823C7.21974 20.9871 7.1533 21.1014 7.12482 21.3393C7.10584 21.4726 7.07737 21.5773 7.04889 21.5583C6.98245 21.5202 7.00143 21.2727 7.08686 21.1394C7.13431 21.0728 7.18177 20.9205 7.21025 20.7968C7.27668 20.4446 7.42855 20.159 7.76075 19.7783C7.86714 19.6621 7.96847 19.5414 8.06447 19.4165L7.96956 19.1024C7.84226 18.678 7.83569 18.2263 7.95057 17.7984C8.07396 17.4366 8.32074 17.0749 8.70989 16.6847C9.08954 16.3134 9.45971 16.085 9.65903 16.0755ZM11.0827 19.1405C11.0947 19.1396 11.1069 19.1404 11.1184 19.1429C11.1298 19.1453 11.1404 19.1494 11.1494 19.1548C11.1583 19.1602 11.1655 19.1668 11.1704 19.1742C11.1752 19.1816 11.1777 19.1896 11.1777 19.1976C11.1718 19.2088 11.1609 19.2185 11.1465 19.2254C11.132 19.2323 11.1147 19.236 11.097 19.236C11.0792 19.236 11.0619 19.2323 11.0475 19.2254C11.033 19.2185 11.0221 19.2088 11.0163 19.1976C11.0158 19.1844 11.0222 19.1715 11.0343 19.1611C11.0464 19.1507 11.0635 19.1434 11.0827 19.1405ZM11.32 19.1691C11.332 19.1682 11.3441 19.169 11.3556 19.1714C11.3671 19.1739 11.3777 19.178 11.3867 19.1834C11.3956 19.1888 11.4028 19.1954 11.4077 19.2027C11.4125 19.2101 11.415 19.2181 11.4149 19.2262C11.4091 19.2374 11.3982 19.2471 11.3838 19.254C11.3693 19.2608 11.352 19.2645 11.3343 19.2645C11.3165 19.2645 11.2992 19.2608 11.2848 19.254C11.2703 19.2471 11.2594 19.2374 11.2536 19.2262C11.2531 19.213 11.2594 19.2001 11.2716 19.1897C11.2837 19.1793 11.3008 19.172 11.32 19.1691ZM11.5668 19.2167C11.5788 19.2158 11.5909 19.2166 11.6024 19.219C11.6139 19.2215 11.6245 19.2256 11.6334 19.231C11.6424 19.2364 11.6496 19.243 11.6544 19.2503C11.6593 19.2577 11.6618 19.2657 11.6617 19.2738C11.6559 19.285 11.645 19.2947 11.6305 19.3015C11.6161 19.3084 11.5988 19.3121 11.581 19.3121C11.5633 19.3121 11.546 19.3084 11.5315 19.3015C11.5171 19.2947 11.5062 19.285 11.5004 19.2738C11.4999 19.2606 11.5062 19.2477 11.5183 19.2373C11.5304 19.2269 11.5476 19.2196 11.5668 19.2167ZM11.7946 19.2642C11.8066 19.2634 11.8187 19.2642 11.8302 19.2666C11.8417 19.2691 11.8523 19.2732 11.8612 19.2786C11.8702 19.2839 11.8774 19.2906 11.8822 19.2979C11.8871 19.3053 11.8896 19.3133 11.8895 19.3214C11.8837 19.3326 11.8728 19.3423 11.8583 19.3491C11.8439 19.356 11.8266 19.3597 11.8088 19.3597C11.7911 19.3597 11.7738 19.356 11.7593 19.3491C11.7449 19.3423 11.734 19.3326 11.7282 19.3214C11.7277 19.3082 11.734 19.2953 11.7461 19.2849C11.7582 19.2745 11.7754 19.2672 11.7946 19.2642ZM11.1966 19.3214C11.2086 19.3205 11.2208 19.3213 11.2322 19.3237C11.2437 19.3262 11.2543 19.3303 11.2633 19.3357C11.2722 19.3411 11.2794 19.3477 11.2843 19.355C11.2891 19.3624 11.2916 19.3704 11.2915 19.3785C11.2857 19.3897 11.2748 19.3994 11.2604 19.4062C11.2459 19.4131 11.2286 19.4168 11.2109 19.4168C11.1931 19.4168 11.1758 19.4131 11.1614 19.4062C11.1469 19.3994 11.136 19.3897 11.1302 19.3785C11.1297 19.3653 11.1361 19.3524 11.1482 19.342C11.1603 19.3316 11.1774 19.3243 11.1966 19.3214ZM11.4244 19.3594C11.4364 19.3585 11.4486 19.3593 11.46 19.3618C11.4715 19.3643 11.4821 19.3683 11.4911 19.3737C11.5 19.3791 11.5072 19.3857 11.5121 19.3931C11.5169 19.4005 11.5194 19.4085 11.5193 19.4165C11.5135 19.4277 11.5026 19.4375 11.4882 19.4443C11.4737 19.4512 11.4564 19.4549 11.4387 19.4549C11.4209 19.4549 11.4036 19.4512 11.3892 19.4443C11.3747 19.4375 11.3638 19.4277 11.358 19.4165C11.3575 19.4034 11.3638 19.3905 11.376 19.3801C11.3881 19.3696 11.4052 19.3624 11.4244 19.3594ZM11.918 19.3785C11.93 19.3776 11.9421 19.3784 11.9536 19.3809C11.9651 19.3833 11.9757 19.3874 11.9846 19.3928C11.9936 19.3982 12.0007 19.4048 12.0056 19.4122C12.0105 19.4195 12.013 19.4275 12.0129 19.4356C12.0071 19.4468 11.9962 19.4565 11.9817 19.4634C11.9673 19.4702 11.95 19.4739 11.9322 19.4739C11.9145 19.4739 11.8972 19.4702 11.8827 19.4634C11.8683 19.4565 11.8574 19.4468 11.8515 19.4356C11.8511 19.4224 11.8574 19.4095 11.8695 19.3991C11.8816 19.3887 11.8987 19.3814 11.918 19.3785ZM11.6617 19.3785C11.6737 19.3776 11.6858 19.3784 11.6973 19.3809C11.7088 19.3833 11.7194 19.3874 11.7284 19.3928C11.7373 19.3982 11.7445 19.4048 11.7493 19.4122C11.7542 19.4195 11.7567 19.4275 11.7566 19.4356C11.7508 19.4468 11.7399 19.4565 11.7254 19.4634C11.711 19.4702 11.6937 19.4739 11.676 19.4739C11.6582 19.4739 11.6409 19.4702 11.6265 19.4634C11.612 19.4565 11.6011 19.4468 11.5953 19.4356C11.5948 19.4224 11.6011 19.4095 11.6132 19.3991C11.6254 19.3887 11.6425 19.3814 11.6617 19.3785ZM12.1363 19.4356C12.1458 19.4356 12.4875 19.5117 12.8956 19.626L13.6454 19.8449L13.503 20.1019C13.4235 20.2395 13.3475 20.3792 13.2753 20.5207C13.1803 20.7111 13.1614 20.7111 12.7058 20.6064C12.2122 20.4922 11.4339 20.3875 10.6366 20.3208L9.87733 20.2542L10.1621 20.1495C10.334 20.0831 10.502 20.0068 10.6651 19.921C10.8549 19.8163 10.9309 19.7973 11.2251 19.8259C11.6522 19.8544 11.937 19.7687 12.0509 19.5974L12.1458 19.4356H12.1363ZM11.301 19.4927C11.313 19.4918 11.3252 19.4926 11.3367 19.4951C11.3481 19.4975 11.3587 19.5016 11.3677 19.507C11.3766 19.5124 11.3838 19.519 11.3887 19.5264C11.3935 19.5338 11.396 19.5417 11.396 19.5498C11.3901 19.561 11.3792 19.5707 11.3648 19.5776C11.3503 19.5845 11.333 19.5882 11.3153 19.5882C11.2975 19.5882 11.2802 19.5845 11.2658 19.5776C11.2513 19.5707 11.2404 19.561 11.2346 19.5498C11.2341 19.5366 11.2405 19.5237 11.2526 19.5133C11.2647 19.5029 11.2818 19.4956 11.301 19.4927ZM11.8326 19.4927C11.8445 19.4918 11.8567 19.4926 11.8682 19.4951C11.8797 19.4975 11.8902 19.5016 11.8992 19.507C11.9082 19.5124 11.9153 19.519 11.9202 19.5264C11.9251 19.5338 11.9275 19.5417 11.9275 19.5498C11.9203 19.5591 11.9094 19.5669 11.896 19.5724C11.8826 19.5779 11.8672 19.5808 11.8515 19.5808C11.8359 19.5808 11.8205 19.5779 11.8071 19.5724C11.7937 19.5669 11.7828 19.5591 11.7756 19.5498C11.7751 19.5366 11.7815 19.5237 11.7936 19.5133C11.8057 19.5029 11.8228 19.4956 11.8421 19.4927H11.8326ZM11.0732 19.4927C11.0852 19.4918 11.0974 19.4926 11.1089 19.4951C11.1203 19.4975 11.1309 19.5016 11.1399 19.507C11.1489 19.5124 11.156 19.519 11.1609 19.5264C11.1658 19.5338 11.1682 19.5417 11.1682 19.5498C11.1623 19.561 11.1514 19.5707 11.137 19.5776C11.1225 19.5845 11.1052 19.5882 11.0875 19.5882C11.0697 19.5882 11.0525 19.5845 11.038 19.5776C11.0235 19.5707 11.0126 19.561 11.0068 19.5498C11.0093 19.5383 11.017 19.5276 11.0289 19.5191C11.0408 19.5106 11.0562 19.5047 11.0732 19.5022V19.4927ZM11.5763 19.5117C11.5983 19.5099 11.6204 19.5138 11.6381 19.5227C11.6558 19.5316 11.6677 19.5447 11.6712 19.5593C11.6654 19.5705 11.6545 19.5802 11.64 19.5871C11.6256 19.594 11.6083 19.5977 11.5905 19.5977C11.5728 19.5977 11.5555 19.594 11.541 19.5871C11.5266 19.5802 11.5157 19.5705 11.5099 19.5593C11.5124 19.5478 11.5201 19.5371 11.5319 19.5286C11.5438 19.5201 11.5593 19.5142 11.5763 19.5117ZM10.9499 19.6164C10.9618 19.6155 10.974 19.6164 10.9855 19.6188C10.997 19.6213 11.0075 19.6254 11.0165 19.6307C11.0255 19.6361 11.0326 19.6427 11.0375 19.6501C11.0424 19.6575 11.0448 19.6655 11.0448 19.6736C11.0389 19.6848 11.028 19.6945 11.0136 19.7013C10.9991 19.7082 10.9818 19.7119 10.9641 19.7119C10.9464 19.7119 10.9291 19.7082 10.9146 19.7013C10.9001 19.6945 10.8892 19.6848 10.8834 19.6736C10.8829 19.6604 10.8893 19.6475 10.9014 19.6371C10.9135 19.6267 10.9306 19.6194 10.9499 19.6164ZM11.1871 19.6164C11.2004 19.6153 11.2139 19.6163 11.2266 19.6193C11.2392 19.6223 11.2506 19.6272 11.2598 19.6337C11.269 19.6402 11.2759 19.648 11.2797 19.6566C11.2836 19.6652 11.2844 19.6743 11.2821 19.6831C11.2762 19.6943 11.2653 19.704 11.2509 19.7108C11.2364 19.7177 11.2191 19.7214 11.2014 19.7214C11.1836 19.7214 11.1663 19.7177 11.1519 19.7108C11.1374 19.704 11.1265 19.6943 11.1207 19.6831C11.1202 19.6699 11.1266 19.657 11.1387 19.6466C11.1508 19.6362 11.1679 19.6289 11.1871 19.626V19.6164ZM11.4339 19.6355C11.4559 19.6336 11.478 19.6376 11.4958 19.6465C11.5135 19.6553 11.5253 19.6685 11.5288 19.6831C11.523 19.6943 11.5121 19.704 11.4976 19.7108C11.4832 19.7177 11.4659 19.7214 11.4482 19.7214C11.4304 19.7214 11.4131 19.7177 11.3987 19.7108C11.3842 19.704 11.3733 19.6943 11.3675 19.6831C11.37 19.6716 11.3777 19.6608 11.3896 19.6523C11.4014 19.6438 11.4169 19.6379 11.4339 19.6355ZM11.6997 19.6355C11.7117 19.6346 11.7238 19.6354 11.7353 19.6379C11.7468 19.6403 11.7574 19.6444 11.7663 19.6498C11.7753 19.6552 11.7824 19.6618 11.7873 19.6692C11.7922 19.6765 11.7947 19.6845 11.7946 19.6926C11.7888 19.7038 11.7779 19.7135 11.7634 19.7204C11.749 19.7272 11.7317 19.7309 11.7139 19.7309C11.6962 19.7309 11.6789 19.7272 11.6644 19.7204C11.65 19.7135 11.6391 19.7038 11.6332 19.6926C11.6327 19.6794 11.6391 19.6665 11.6512 19.6561C11.6633 19.6457 11.6804 19.6384 11.6997 19.6355ZM9.77292 20.4065C10.8933 20.4363 12.0086 20.5701 13.1044 20.8063C13.1139 20.8158 13.0475 21.0443 12.9431 21.3203L12.7532 21.8914C12.7437 21.939 12.6773 21.939 12.5159 21.92C11.7282 21.7962 9.45022 21.8058 8.57701 21.939C8.07396 22.0152 8.00752 22.0056 8.04549 21.9009L8.1404 21.5678L8.19735 21.3108L8.70989 21.0443C9.05152 20.8694 9.3757 20.6622 9.67801 20.4255H9.76343L9.77292 20.4065ZM7.21025 21.7582C7.23872 21.7582 7.29567 21.7867 7.36211 21.8343C7.45702 21.8914 7.57092 21.939 7.61838 21.939C7.86515 21.939 7.99803 22.2912 8.20684 23.462L8.28277 23.8808C8.30176 23.976 8.28277 23.9951 8.06447 24.0427C7.79871 24.0998 7.73227 24.1093 7.73227 24.0712C7.73227 23.976 7.46651 22.7671 7.35262 22.3388C7.29592 22.1501 7.24528 21.9596 7.20075 21.7677C7.2022 21.7668 7.20383 21.7664 7.2055 21.7664C7.20717 21.7664 7.2088 21.7668 7.21025 21.7677V21.7582ZM9.92479 21.9485H10.2L10.1051 22.0437C9.94377 22.2341 9.86784 22.2436 9.75394 22.1199C9.71394 22.0784 9.68178 22.0301 9.65903 21.9771C9.65903 21.9581 9.78242 21.939 9.92479 21.939V21.9485ZM10.5038 21.9485H11.0163L10.9024 22.0628C10.7695 22.2151 10.76 22.2151 10.6177 22.0628L10.5038 21.939V21.9485ZM11.2821 21.9485H11.4054C11.4719 21.9485 11.5953 21.9485 11.6712 21.9676L11.8136 21.9961L11.6807 22.1199C11.6048 22.1865 11.5383 22.2436 11.5288 22.2341L11.396 22.0818L11.2821 21.939V21.9485ZM12.0888 21.9771L12.2027 22.0056C12.2692 22.0247 12.4115 22.0342 12.5159 22.0437H12.7058L12.5634 22.1675C12.5118 22.2157 12.4544 22.2573 12.3926 22.2912C12.3831 22.2912 12.2976 22.2151 12.2312 22.1294L12.0888 21.9771ZM9.22242 21.9866H9.24141C9.2509 22.0056 9.21293 22.0818 9.14649 22.1484L9.05158 22.2817L8.90921 22.1675L8.76684 22.0437L9.22242 21.9866ZM9.44073 22.0056L9.59259 22.1389L9.74445 22.2817L9.45971 22.3007L9.17497 22.3102L9.30785 22.1675L9.44073 22.0056ZM11.1492 22.0056C11.1777 22.0056 11.1966 22.0152 11.2251 22.0342C11.2747 22.0811 11.3164 22.1357 11.3485 22.196C11.3865 22.2722 11.377 22.2912 11.2536 22.2912L11.0163 22.2436L10.9024 22.2151L11.0258 22.0913C11.0827 22.0342 11.1207 21.9961 11.1587 21.9961L11.1492 22.0056ZM10.3614 22.0056C10.4088 22.0056 10.4563 22.0342 10.5133 22.1294C10.5797 22.2341 10.5797 22.2341 10.3234 22.2341H10.0672L10.2 22.1104C10.2665 22.0437 10.3234 22.0152 10.3614 22.0152V22.0056ZM11.9749 22.0247L12.0888 22.1389C12.2217 22.2627 12.2407 22.3388 12.1458 22.3293L11.88 22.3007L11.6712 22.2817L11.8231 22.1579L11.9749 22.0247ZM8.63396 22.0913C8.65294 22.0913 8.72887 22.1389 8.78582 22.2055L8.89972 22.3293L8.66243 22.3674L8.33023 22.415C8.26379 22.434 8.28277 22.3864 8.42515 22.2627C8.52006 22.1675 8.61497 22.0913 8.63396 22.0913ZM8.28277 22.0913H8.32074C8.39667 22.1104 8.39667 22.1294 8.26379 22.2627L8.12142 22.4054L8.07396 22.2817C8.036 22.1865 8.04549 22.1579 8.13091 22.1199C8.17954 22.1018 8.2309 22.0921 8.28277 22.0913ZM12.6488 22.2627C12.6678 22.2627 12.6678 22.2817 12.6488 22.3198C12.6298 22.3959 12.5444 22.415 12.5444 22.3388C12.5444 22.3198 12.5729 22.2912 12.6109 22.2722L12.6488 22.2627ZM10.6177 22.415C11.3485 22.415 12.0888 22.434 12.2692 22.453C12.5634 22.4911 12.5919 22.5006 12.5919 22.6148C12.5919 22.7481 12.5539 22.7576 12.1553 22.691C12.0414 22.6624 11.5573 22.6244 11.0922 22.5863C10.1896 22.5316 9.28378 22.5634 8.38718 22.6815C8.20684 22.7005 8.15939 22.6815 8.15939 22.6244C8.15939 22.5006 9.12751 22.415 10.6177 22.415ZM9.64005 22.691H10.1526L10.0387 22.8147C9.89631 22.967 9.88682 22.967 9.75394 22.8147L9.64005 22.691ZM10.3044 22.691L10.4373 22.8243L10.5702 22.9766L10.295 22.9861H10.0197L10.1621 22.8338L10.3044 22.691ZM10.5038 22.691H11.0163L10.9024 22.8147C10.7695 22.967 10.76 22.967 10.6177 22.8147L10.5038 22.691ZM9.28886 22.691C9.30785 22.691 9.28886 22.7386 9.22242 22.8338C9.15598 22.9194 9.08954 22.9861 9.08005 22.9861C9.06107 22.9861 8.99463 22.929 8.93768 22.8623L8.82378 22.7386H8.99463C9.08149 22.739 9.1679 22.7262 9.2509 22.7005C9.26342 22.698 9.27634 22.698 9.28886 22.7005V22.691ZM9.47869 22.7386L9.60208 22.8528L9.74445 22.9766L9.49767 22.9956L9.22242 23.0146L9.3553 22.8719L9.47869 22.7386ZM11.1302 22.7386L11.2631 22.8909C11.4149 23.0527 11.4054 23.0622 11.0638 22.9956L10.9024 22.967L11.1302 22.7386ZM11.32 22.7386H11.5478C11.7946 22.7386 11.8231 22.7767 11.6807 22.9099C11.5668 23.0051 11.5668 23.0051 11.4339 22.8623L11.32 22.7386ZM8.41565 22.7862C8.52955 22.7862 8.52006 22.7957 8.37769 22.9385C8.27328 23.0432 8.26379 23.0432 8.22583 22.967C8.19735 22.8719 8.28277 22.7957 8.41565 22.7862ZM12.0983 22.8052C12.1363 22.8052 12.2122 22.8052 12.2881 22.8243L12.5064 22.8623L12.3831 22.9766L12.2692 23.0908L12.1648 22.9575L12.0698 22.8052H12.0983ZM8.68141 22.8528C8.70989 22.8528 8.73836 22.8719 8.78582 22.9194C8.88073 23.0146 8.88073 23.0146 8.8048 23.0527C8.73125 23.077 8.65443 23.0898 8.57701 23.0908H8.42515L8.54853 22.9575C8.61497 22.8909 8.64345 22.8623 8.67192 22.8528H8.68141ZM11.918 22.8814C11.9559 22.8814 11.9844 22.9004 12.0319 22.9766L12.1173 23.0908H11.918C11.7851 23.0908 11.7282 23.0717 11.7282 23.0337C11.7471 22.9956 11.7946 22.9385 11.8515 22.9099L11.918 22.8814ZM12.5254 23.0051C12.5444 23.0051 12.5444 23.0242 12.5444 23.0527C12.5444 23.1479 12.459 23.2145 12.421 23.1479C12.4115 23.1193 12.4305 23.0717 12.4685 23.0432L12.5254 23.0051ZM10.0672 23.1193C10.8929 23.1193 11.8041 23.1765 12.3451 23.2716L12.497 23.3002V23.719C12.497 24.0331 12.478 24.1378 12.4305 24.1378L11.9559 24.0427C10.8584 23.856 9.74031 23.824 8.63396 23.9475L8.41565 23.976L8.35871 23.6238C8.33512 23.5047 8.32241 23.3836 8.32074 23.2621C8.32074 23.2621 8.53904 23.2145 8.79531 23.186C9.10853 23.1384 9.57361 23.1193 10.0672 23.1193Z" fill="black"/>
<path d="M11.7282 20.7397C11.4434 20.7397 11.2441 20.9395 11.2441 21.2346C11.2441 21.6915 11.7566 21.92 12.0604 21.5963C12.3641 21.2727 12.1553 20.7397 11.7282 20.7397ZM11.7282 20.8539C11.8288 20.8539 11.9254 20.894 11.9966 20.9654C12.0678 21.0368 12.1078 21.1336 12.1078 21.2346C12.1078 21.5202 11.7946 21.7106 11.5383 21.5868C11.2821 21.444 11.301 21.0062 11.5763 20.892C11.6211 20.8707 11.6693 20.8578 11.7187 20.8539H11.7282Z" fill="black"/>
<path d="M9.82038 20.6825C9.53564 20.6825 9.33632 20.8824 9.33632 21.1775C9.33632 21.6344 9.84886 21.8629 10.1526 21.5392C10.4563 21.2156 10.2475 20.6825 9.82038 20.6825ZM9.82038 20.7968C9.92107 20.7968 10.0176 20.8369 10.0888 20.9083C10.16 20.9797 10.2 21.0765 10.2 21.1775C10.2 21.4631 9.88682 21.6535 9.63055 21.5297C9.37429 21.3869 9.39327 20.9491 9.66852 20.8348C9.71328 20.8136 9.76152 20.8007 9.81089 20.7968H9.82038Z" fill="black"/>
<path d="M8.23532 13.8386C8.19569 13.841 8.1583 13.8588 8.13028 13.8887C8.10227 13.9185 8.08559 13.9583 8.08346 14.0004C8.08346 14.0472 8.10095 14.092 8.1321 14.1251C8.16325 14.1582 8.2055 14.1768 8.24955 14.1768C8.29361 14.1768 8.33585 14.1582 8.367 14.1251C8.39815 14.092 8.41565 14.0472 8.41565 14.0004C8.41458 13.9769 8.40896 13.9539 8.39915 13.9328C8.38934 13.9117 8.37555 13.893 8.35863 13.8778C8.34172 13.8626 8.32204 13.8513 8.30082 13.8446C8.27961 13.8378 8.25731 13.8358 8.23532 13.8386ZM8.24481 13.8957C8.27502 13.8957 8.30399 13.9067 8.32535 13.9263C8.34671 13.946 8.35871 13.9726 8.35871 14.0004C8.35871 14.0281 8.34671 14.0548 8.32535 14.0744C8.30399 14.0941 8.27502 14.1051 8.24481 14.1051C8.2146 14.1051 8.18563 14.0941 8.16427 14.0744C8.14291 14.0548 8.13091 14.0281 8.13091 14.0004C8.13091 13.9866 8.13386 13.973 8.13958 13.9603C8.14531 13.9476 8.1537 13.9361 8.16427 13.9263C8.17485 13.9166 8.1874 13.9089 8.20122 13.9036C8.21504 13.8984 8.22985 13.8957 8.24481 13.8957Z" fill="black"/>
</g>
<defs>
<clipPath id="clip0_17544_71441">
<path d="M0 20C0 8.95431 8.95431 0 20 0C31.0457 0 40 8.95431 40 20C40 31.0457 31.0457 40 20 40C8.95431 40 0 31.0457 0 20Z" fill="white"/>
</clipPath>
</defs>
</svg>
