<svg width="40" height="40" viewBox="0 0 40 40" fill="none" xmlns="http://www.w3.org/2000/svg">
<g clip-path="url(#clip0_17544_58074)">
<path d="M-0.000124931 0H40.003V40.0031H-0.000124931V0Z" fill="black"/>
<path d="M-7.8125 0H53.3688V40.0031H-7.8125V0Z" fill="#0053A5"/>
<path d="M11.0125 0H22.7781V40.0031H11.0125V0Z" fill="#FFCE00"/>
<path d="M-7.8125 14.1187H53.3688V25.8844H-7.8125V14.1187Z" fill="#FFCE00"/>
<path d="M14.5422 0H19.2484V40.0031H14.5422V0Z" fill="#D21034"/>
<path d="M-7.8125 17.6484H53.3688V22.3547H-7.8125V17.6484Z" fill="#D21034"/>
</g>
<defs>
<clipPath id="clip0_17544_58074">
<path d="M0 20C0 8.95431 8.95431 0 20 0C31.0457 0 40 8.95431 40 20C40 31.0457 31.0457 40 20 40C8.95431 40 0 31.0457 0 20Z" fill="white"/>
</clipPath>
</defs>
</svg>
