<svg width="40" height="40" viewBox="0 0 40 40" fill="none" xmlns="http://www.w3.org/2000/svg">
<g clip-path="url(#clip0_17544_57956)">
<path d="M0 0H40V40H0V0Z" fill="#000066"/>
<path d="M0 20L40 0V40L0 20Z" fill="#BD1021"/>
<path d="M3.23438 20L39.9531 2.14062V37.8594" fill="white"/>
<path d="M26.1641 22.5391C26.5859 22.5625 26.5703 22.9844 26.5703 22.9844L28.0781 23.0234C28.2734 22.4922 28.4688 22.5547 28.8359 22.8203C29.0594 22.9728 29.3043 23.0913 29.5625 23.1719C29.7188 22.4219 30.7812 22.5703 30.7812 22.5703C31.2344 21.4844 31.2734 21.5 31 21.3594C30.8381 21.2787 30.7045 21.1506 30.6172 20.9922C30.3887 20.6884 30.2433 20.3303 30.1953 19.9531C30.1641 19.6797 29.8438 20.0859 29.7891 20.0078C29.7344 19.9141 29.2578 19.9688 29.2578 19.9688C29.375 20.0938 28.9766 20.0156 28.9766 20.0156C29.0156 20.0547 28.9766 20.1719 28.9766 20.1719C28.9375 20.1172 28.6328 20.0625 28.6328 20.0625C28.6089 20.1115 28.5772 20.1564 28.5391 20.1953C28.375 20.1328 28.0469 20.1406 28.0469 20.1406C27.726 20.1294 27.4087 20.2107 27.1328 20.375C27 20.4531 26.5078 20.6875 26.1172 21.0781C25.7188 21.4688 25.4922 21.4141 25.4922 21.4141C25.375 21.8516 24.4297 22.375 24.4297 22.375C24.2734 22.5078 23.7969 22.5703 23.5547 22.375C23.3125 22.1719 23.5547 21.7969 23.5547 21.7969C23.6484 21.6406 23.7344 21.6406 23.7422 21.0547C23.75 20.6641 24.1562 20.3359 24.5781 19.8828C25.0938 19.3125 25.8203 18.375 25.8203 18.375C25.8203 18.6641 25.9766 18.7109 25.9766 18.7109C26.1172 18.4219 26.3203 18.1875 26.3203 18.1875C26.3359 18.2109 26.3672 18.2266 26.3672 18.2266C26.5234 18.0078 26.625 17.9219 26.625 17.9219C26.5703 17.8984 26.1172 17.9219 25.7031 18.2891C25.2812 18.6562 25 18.5312 25 18.5312C24.7109 18.4375 24.6875 18.2188 24.6875 18.2188C24.4688 17.2969 25.3047 16.6562 25.3047 16.6562C24.1875 16.3828 24.9922 14.9609 26.3828 14.3516C27.7656 13.75 27.75 13.4766 27.75 13.4766C27.8138 13.5548 27.8664 13.6416 27.9062 13.7344C27.9062 13.7266 28.0156 13.5781 28.8203 13.2188C29.2349 13.0426 29.628 12.8198 29.9922 12.5547C30.1016 12.7578 30.0859 12.8984 30.0859 12.8984C32.2734 12.1328 34.4219 10.3672 34.4219 10.3672C34.4844 10.5156 34.4531 10.7422 34.4531 10.7422C34.8125 10.4062 36.0938 9.64844 36.0938 9.64844C36.1172 10.1328 35.7188 10.3203 35.7188 10.3203C35.7499 10.3816 35.771 10.4476 35.7812 10.5156C36.1886 10.2597 36.5898 9.99398 36.9844 9.71875C37.3438 10.0312 37.0234 10.5312 37.0234 10.5312C37.1484 10.5156 37.2344 10.4062 37.2344 10.4062C37.3359 10.9375 36.7422 11.4062 36.7422 11.4062C36.8422 11.3884 36.9377 11.3513 37.0234 11.2969C36.9062 11.875 35.8125 12.5156 35.8125 12.5156C35.9688 12.6562 35.8203 12.8438 35.6875 12.9375C35.5547 13.0156 35.3281 13.2031 35.3984 13.2812C35.4688 13.3594 35.9531 13.0078 35.9531 13.0078C36.0312 13.25 35.4141 13.7344 35.4141 13.7344C35.8516 13.7891 37.0547 13.2422 37.0547 13.2422C36.9531 13.7109 36.5078 14.0703 35.9375 14.2812C35.3828 14.4922 35.4141 14.5234 35.4141 14.5234C35.5078 14.6016 36.2734 14.375 36.2734 14.375C36.0469 14.8906 35.2422 15.25 35.2422 15.25C35.4609 15.4453 35.7656 15.2187 36.0703 15.0156C36.4352 14.7845 36.8293 14.6032 37.2422 14.4766C37.6875 14.3203 38.0078 14.4375 38.0078 14.4375C38.3984 14.3203 38.7109 14.4922 38.7109 14.4922C39.4297 14.5469 39.5078 14.8047 39.5078 14.8047C39.5859 14.8281 39.6484 14.8594 39.8359 15C40.0234 15.1328 40.0078 15.5547 40 15.7656C40 15.9688 39.9375 15.9688 39.8984 16.0234C39.8672 16.0859 39.8594 16.1484 39.8594 16.2266C39.8594 16.3047 39.6719 16.8047 38.5547 16.8047H36.8516C36.7578 16.8047 36.6484 16.8594 36.6484 16.8594C36.1797 17.0938 36.4297 16.7031 35.8672 17.1562C35.3047 17.625 35.0156 17.5469 35.0156 17.5469C34.7038 17.8682 34.3639 18.161 34 18.4219C33.6641 18.6406 33.7188 18.6172 34.0156 18.7422C34.3125 18.8672 34.75 18.7422 34.75 18.7422C34.4688 18.9375 34.6719 19.0234 34.6719 19.0234C35.0312 18.7891 35.2656 18.875 35.2656 18.875C35.3828 19.2031 34.9531 19.7188 34.9531 19.7188C35.1172 19.7344 35.4297 19.7188 35.4297 19.7188C35.3516 19.9375 35.0469 20.1797 34.8203 20.25C34.5859 20.3281 34.625 20.3594 34.6953 20.4844C34.7578 20.6328 34.7109 20.7734 34.7109 20.7734C34.3047 20.5 34.2969 20.7422 34.2969 20.7422C34.25 21.0625 34.2578 21.5391 34.2578 21.5391C33.9766 21.3984 33.9609 21.5859 33.9609 21.5859C33.8671 21.8246 33.7232 22.0403 33.5391 22.2188C33.5312 22.0391 33.3594 21.9844 33.3594 21.9844C33.1797 22.3359 32.8438 22.5469 32.8438 22.5469C32.8047 22.8438 32.8906 23.2578 32.8906 23.2578C32.6719 23.2188 32.5938 23.2188 32.5625 23.2656C32.5312 23.3203 32.6094 23.3438 32.6094 23.3438L35.3906 23.4141C35.4297 23.4141 35.5938 23.4375 35.5938 23.7266C35.6016 24.0391 35.3594 24.0547 35.3594 24.0547L32.3125 23.9766C32.3125 23.9766 32.3281 24.0625 32.1719 24.1484C32.0156 24.2344 32.0703 24.0547 32.0156 24.4297C31.9766 24.7969 31.375 24.3984 31.375 24.3984C31.2734 24.5469 31.0391 24.7344 31.0391 24.7344C30.8984 24.3203 30.7578 24.1875 30.5391 24.5469C30.3281 24.9062 30.9375 24.8438 30.9375 24.8438L34.7031 24.2969C34.8984 24.2812 35.1016 24.2969 35.1953 24.5625C35.2734 24.8359 34.7578 24.875 34.7578 24.875L31.0938 25.2812C31.0156 25.4922 30.7109 25.4844 30.7109 25.4844C30.7422 25.6875 30.5234 25.8203 30.4141 25.8906C30.2969 25.9688 29.9453 25.9375 29.9453 25.9375C29.5234 26.2266 29.3203 26 29.3203 26C29.0391 26.1172 28.8672 26.0625 28.6406 25.9688C28.4062 25.8672 28.4297 25.5938 28.4297 25.5938L26.1172 25.8281C26.0503 25.8553 25.9893 25.8951 25.9375 25.9453C26.0156 26.0469 25.7656 26.2891 25.7656 26.2891C25.8438 26.3359 25.9687 26.4688 25.9922 26.7578C26.0078 27.0703 25.6172 27.1172 25.8125 27.3359C26 27.5469 26.3672 27.3672 26.7734 27.1797C27.1641 26.9844 27.5547 27.0078 27.7266 27.0078C27.8984 27.0078 28.375 27.1328 28.6719 27.2422C28.9688 27.3359 29.0703 27.2734 29.0938 27.125C29.1094 26.9688 29.25 26.9297 29.25 26.9297C29.2109 27.0781 29.2891 27.1484 29.2891 27.1484C29.4062 27.1484 29.6016 27.0391 29.6016 27.0391C29.5859 27.1562 29.4375 27.2266 29.4375 27.2266C29.1484 27.4141 29.5469 27.3438 29.5469 27.3438C29.9667 27.2311 30.4023 27.1888 30.8359 27.2188C31.2404 27.3399 31.637 27.486 32.0234 27.6562C32.0547 27.5547 32.0391 27.3125 32.0391 27.3125C32.1727 27.3499 32.2923 27.426 32.3828 27.5312C32.4844 27.4297 32.4219 27.25 32.4219 27.25C33.2188 27.7031 32.25 27.9062 31.9922 28C31.7344 28.0781 31.7344 28.1875 31.7344 28.1875C31.9531 28.125 32.1016 28.0938 32.2812 28.0781C32.4531 28.0703 32.3906 28.0781 32.8203 28C33.25 27.9062 33.4688 28.0938 33.4688 28.0938C33.1094 28.1094 33 28.2188 33 28.2188C33.2344 28.3672 33.0156 28.5 33.0156 28.5C32.6953 28.0938 32.4141 28.5156 32.4141 28.5156C32.5969 28.5135 32.7781 28.5508 32.9453 28.625C33.0156 28.6719 33.1797 28.7578 33.3906 28.8594C33.6875 28.9844 33.625 28.9062 33.8594 28.9844C34.0938 29.0781 34 29.2969 34 29.2969C33.9295 29.1785 33.8184 29.0897 33.6875 29.0469C33.6719 29.2891 33.4297 29.3359 33.4297 29.3359C33.7344 29.0078 33.0859 28.8594 32.7812 28.8672C32.4844 28.8672 32.2578 29.0625 32.2578 29.0625C32.8672 29.6406 33.2891 29.4531 33.2891 29.4531C33.2109 29.6562 32.7109 29.5703 32.7109 29.5703C32.9453 29.75 32.9141 29.875 32.9141 29.875C32.7891 29.75 32.5938 29.8125 32.1484 29.5312C31.7188 29.25 31.3281 29.3438 31.3281 29.3438C31.7578 29.7891 31.1719 30.0625 31.1719 30.0625C30.9531 30.1953 31.2656 30.3516 31.2656 30.3516C30.9922 30.4062 30.9531 30.1328 30.9531 30.1328C30.8125 30.1016 30.6094 30.2734 30.6094 30.2734C30.625 30 30.9922 30.1406 31 29.8516C31.0078 29.5625 30.6641 29.3359 29.6328 29.4766C28.6016 29.625 28.3047 29.2891 28.3047 29.2891C28.2109 29.2891 28.2031 29.3828 28.2031 29.3828C28.3594 29.5469 28.4375 29.6172 28.4141 29.7266C28.3828 29.8438 28.4688 29.8828 28.4688 29.8828C28.2734 29.8672 28.2656 29.6484 28.2656 29.6484C28.2656 29.7422 28.2266 29.7422 28.1641 29.8438C28.1016 29.9453 28.1641 30.0625 28.1641 30.0625C28.0781 29.9922 27.9297 29.9062 28.0703 29.7109C28.1719 29.5547 27.8516 29.3594 27.8516 29.3594C27.7188 29.2266 27.3828 29.3516 27.3828 29.3516C26.6797 29.4844 26.2734 29.0391 26.2734 29.0391C26.1953 29.0391 26.0391 29 26.0391 29C25.2969 29.3281 24.6406 28.6094 24.6406 28.6094C24.0859 28.7188 23.8281 28.4531 23.6641 28.1797C23.5677 27.9954 23.4142 27.8474 23.2266 27.7578C23.0078 27.6328 22.7969 27.2422 23.0078 27.0391C23.1797 26.8594 23.1328 26.8203 23.1328 26.8203C22.8359 26.3281 23.6406 26.1797 23.6641 26.0547C23.6797 25.8906 23.8516 25.7812 24.0312 25.7656C24.2188 25.7578 24.2188 25.7656 24.3438 25.6562C24.4531 25.5234 24.6797 25.6797 24.6797 25.6797C24.7344 25.6484 25.1328 25.3359 25.4844 25.4922C25.8437 25.6484 26.1406 25.5469 26.1406 25.5469C26.3906 25.4922 28.4766 25.2109 28.4766 25.2109C28.6016 25 28.7109 24.7578 29.2812 24.6328C29.8516 24.5078 30.2812 24.1328 30.2812 24.1328C30.1797 24.0234 30.0078 24.0312 29.9219 24.0234C29.8359 24.0156 29.6562 23.8516 29.6562 23.8516C29.5469 23.9062 29.5 23.8828 28.7422 24.3438C28.0625 24.75 28.0391 23.9375 28.0391 23.9375H26.5781C26.5547 24.25 26.3203 24.375 26.3203 24.375L25.7734 24.3984C25.4844 24.2422 25.4844 23.7109 25.4844 23.7109C24.608 23.6917 23.7416 23.8989 22.9688 24.3125C21.1406 23.3828 19.7109 23.1641 19.7109 23.1641C21.9297 22.9297 23.1094 22.3047 23.1094 22.3047C23.8291 22.7435 24.6435 23.0033 25.4844 23.0625C25.5234 22.6172 25.8281 22.5078 25.8281 22.5078L26.1641 22.5391Z" fill="black"/>
<path d="M23.5156 26.2266C23.0547 26.4922 23.1406 26.6406 23.1797 26.7266C23.2188 26.8047 23.2266 26.8906 23.1016 27.0234C22.9688 27.1484 22.9844 27.1953 22.9844 27.1953C23.0078 27.6406 23.3203 27.7422 23.4531 27.8516C23.5703 27.9375 23.7578 28.2344 23.7578 28.2344C23.8282 28.349 23.929 28.4418 24.049 28.5025C24.169 28.5631 24.3035 28.5893 24.4375 28.5781C24.625 28.5781 24.6094 28.5625 24.5156 28.4766L24.2344 28.2422C24.4183 28.3249 24.5831 28.4446 24.7187 28.5938C25.1875 29.1094 25.625 29.0391 25.8125 29.0156C26.0078 28.9922 25.9766 28.875 25.9766 28.875C25.9687 28.8594 25.7891 28.8438 25.7891 28.8438C25.0703 28.7812 24.8594 28.3125 24.8594 28.3125C25.2204 28.63 25.6833 28.8074 26.1641 28.8125C26.3672 28.8047 26.3516 28.8672 26.3125 28.875C26.2656 28.8828 26.2109 28.875 26.1094 28.8672C26.0156 28.8672 26.0156 28.8828 26.0312 28.9297C26.0625 28.9609 26.1484 28.9688 26.2656 28.9609C26.375 28.9609 26.2812 28.9766 26.5781 29.1953C26.875 29.4297 27.5938 29.2422 27.5938 29.2422C27.125 29.125 27.0625 28.9062 27.0625 28.9062C26.4219 28.9844 26.1641 28.6016 26.1641 28.6016C26.0205 28.49 25.8661 28.3932 25.7031 28.3125C25.3438 28.1562 25.2891 27.8281 25.2891 27.8281C25.3906 27.9844 25.5859 28.1406 25.8359 28.2188C26.0937 28.2812 26.1562 28.3125 26.1562 28.3125C26.0936 28.3267 26.0282 28.3212 25.9688 28.2969C25.7187 28.2188 25.8594 28.3203 25.8594 28.3203C26.1406 28.5469 26.2109 28.5234 26.2109 28.5234C26.9375 28.6016 26.5781 28.3125 26.5781 28.3125C27.0859 28.4375 27.1797 28.2422 27.1797 28.2422C27.2891 28.4766 27.6797 28.3828 27.6797 28.3828C27.1562 28.6406 27.5469 28.5625 27.5469 28.5625C28.0781 28.4688 28.1875 28.6016 28.1875 28.6016C28.3203 28.7344 28.4688 28.7188 28.4688 28.7188C28.4688 28.7188 28.5625 28.7188 28.7578 28.7578C28.9609 28.7969 29.2734 28.9687 29.5625 28.9375C29.8438 28.8984 29.8984 28.9844 29.8984 28.9844C29.8359 28.9688 29.7109 28.9453 29.4922 29.0469C29.2656 29.1484 28.875 29.1797 28.3047 29.0469C27.7344 28.9141 27.6953 28.9375 27.6953 28.9375C27.8192 29.0204 27.9168 29.1369 27.9766 29.2734C28 29.3672 28.1016 29.375 28.1016 29.375C28.1406 29.25 28.3047 29.1953 28.3047 29.1953C28.4219 29.2969 28.7266 29.4297 28.7266 29.4297C28.7578 29.3672 28.7266 29.3203 28.7266 29.3203C28.9375 29.5312 29.1953 29.4688 29.1953 29.4688C29.2578 29.4219 29.2422 29.2969 29.2422 29.2969C29.3281 29.2969 29.3437 29.3516 29.3984 29.3984C29.4766 29.4297 29.6641 29.4062 29.6641 29.4062C29.5859 29.375 29.5312 29.2656 29.5312 29.2656C29.8281 29.0703 30.4453 29.1484 30.4453 29.1484C30.8906 29.2344 30.8359 29.5312 30.8359 29.5312C30.9183 29.5786 30.9922 29.6394 31.0547 29.7109C31.0938 29.6016 31.0547 29.5 31.0547 29.5C31.2656 29.5938 31.3047 29.8359 31.3047 29.8359C31.5391 29.5625 31.0781 29.2578 31.0781 29.2578C31.3047 29.2266 31.5469 29.25 31.7031 29.2656C31.9052 29.3012 32.094 29.3902 32.25 29.5234C32.3975 29.6221 32.5616 29.6936 32.7344 29.7344C32.7344 29.6719 32.5625 29.5703 32.5234 29.5469C32.4844 29.5312 32.4688 29.4688 32.4688 29.4688C32.625 29.5 32.7266 29.4844 32.7266 29.4844C32.4824 29.3492 32.2544 29.1867 32.0469 29C32.25 29.0234 32.3672 28.8984 32.3672 28.8984C31.9375 28.8984 31.9219 28.7969 31.9219 28.7969C31.9766 28.8047 32.1719 28.8594 32.4297 28.8047C32.6875 28.75 33.0391 28.8047 33.0391 28.8047C32.8516 28.5078 32.1406 28.5625 31.9062 28.5703C31.6719 28.5859 31.5938 28.5547 31.5938 28.5547C31.625 28.5391 31.6719 28.5 31.8438 28.4922C32.0234 28.4922 32.2031 28.5156 32.4062 28.3672C32.6016 28.2344 32.8828 28.2812 32.8828 28.2812C32.8203 28.1406 32.4922 28.0938 32.2109 28.2812C31.9297 28.4531 31.6641 28.4062 31.6641 28.4062C32.1172 28.3438 32.2422 28.1797 32.2422 28.1797C32.1172 28.1406 32.0391 28.1875 31.7734 28.2422C31.5 28.2969 31.4297 28.2031 31.4297 28.2031C31.7187 28.0312 31.9297 27.9609 31.9297 27.9609C31.6797 27.8984 31.4453 27.7891 31.4453 27.7891C31.1875 28.0391 30.9766 28.1797 30.4766 27.9219C29.9766 27.6484 29.7109 27.6875 29.7109 27.6875C29.8997 27.5811 30.1143 27.5292 30.3308 27.5375C30.5474 27.5458 30.7574 27.6139 30.9375 27.7344C31.2656 27.9297 31.3672 27.7734 31.3672 27.7734C31.2578 27.7109 31.2734 27.6484 31.2734 27.6484C32.0703 28.0547 32.4219 27.8047 32.6016 27.6875C32.7734 27.5625 32.5156 27.4062 32.5156 27.4062C32.5 27.6562 32.1719 27.7891 31.9141 27.6953C31.6562 27.6094 31.4219 27.5 31.0547 27.3359C30.6797 27.1797 30.2266 27.2656 29.7891 27.3594C29.3516 27.4453 29.3047 27.4062 29.2578 27.375C29.2188 27.3359 29.2031 27.2344 28.9766 27.3203C28.7578 27.4141 28.2422 27.1719 27.9219 27.0937C27.4807 27.014 27.0256 27.0885 26.6328 27.3047C26.1797 27.5625 25.9531 27.5 25.8203 27.4375C25.6875 27.375 25.5938 27.2031 25.7422 27.0469C25.8906 26.8906 25.8984 26.8594 25.8906 26.6406C25.875 26.4219 25.6562 26.2891 25.6562 26.2891C25.8594 26.0859 25.9062 26.0312 25.8359 25.9453C25.7734 25.8594 25.875 25.8594 25.9922 25.8047C26.1094 25.7578 26.0547 25.75 26.0312 25.6797C26 25.6172 25.9375 25.6328 25.9375 25.6328C25.6719 25.6406 25.5234 25.5625 25.5234 25.5625C25.0938 25.3672 24.6797 25.7578 24.6797 25.7578C24.4375 25.5625 24.375 25.6953 24.3281 25.7344C24.2969 25.7812 24.2031 25.8125 24.0938 25.8281C23.9844 25.8359 23.8203 25.875 23.7734 25.9844C23.7734 25.9844 23.7187 26.0625 23.7734 26.1406C23.7734 26.1406 23.8438 26.25 23.7266 26.375C23.6016 26.5 23.5547 26.5234 23.6016 26.6406C23.6328 26.7578 23.625 26.8516 23.5703 26.9219C23.5703 26.9219 23.5156 26.8594 23.5312 26.7812C23.5469 26.7031 23.5469 26.6484 23.5312 26.6094C23.5312 26.6094 23.4062 26.7266 23.3906 26.8125C23.3906 26.8125 23.3359 26.6797 23.5156 26.5C23.6875 26.3281 23.7734 26.2422 23.7188 26.1719C23.6797 26.1172 23.5547 26.2031 23.5234 26.2266H23.5156Z" fill="#FFC221"/>
<path d="M24.0234 28.1719C24.0234 28.1719 23.8047 28 23.8281 27.7656C23.8516 27.5312 23.8516 27.5156 23.8281 27.4531C23.8281 27.4531 23.7812 27.4766 23.7891 27.5703L23.7734 27.7578C23.7734 27.7578 23.6563 27.5703 23.6016 27.5312C23.6016 27.5312 23.6484 27.3281 23.5859 27.2422C23.5234 27.1562 23.4609 27.1484 23.3906 27.1797C23.2812 27.2109 23.2109 27.3047 23.5469 27.5859C23.5469 27.5859 23.6719 27.6875 23.7578 27.8984C23.8438 28.125 23.9922 28.1562 24.0156 28.1719H24.0234ZM25.1172 27.5234C25.1172 27.5234 25.0938 27.3984 25.2188 27.1641C25.2588 27.0929 25.2812 27.0132 25.2839 26.9316C25.2866 26.85 25.2696 26.7689 25.2344 26.6953C25.2109 26.6328 25.1953 26.6562 25.3125 26.5547C25.4688 26.4297 25.2578 26.2734 25.5078 26.0547C25.5078 26.0547 25.6641 25.9219 25.6953 25.8672C25.6953 25.8672 25.4453 26 25.2734 26.0703C25.1016 26.1406 24.4688 26.4531 24.6094 26.6641C24.75 26.875 24.7344 26.8828 24.7109 26.9766C24.7109 26.9766 24.3203 26.7734 24.4688 26.4453C24.4688 26.4453 24.5234 26.3203 24.6797 26.1641C24.8359 26.0312 24.75 26.1953 25.0391 26.0234C25.0391 26.0234 25.2734 25.8828 25.3984 25.7031C25.3984 25.7031 25.2422 25.7969 25.1875 25.8125C25.1875 25.8125 24.8438 25.875 24.7031 26.0156C24.5703 26.1719 24.2734 26.4141 24.3672 26.6953C24.3672 26.6953 24.0313 26.6562 23.9531 26.3047C23.9531 26.3047 23.3203 27.0781 24.6563 27.4453C24.6563 27.4453 24.8906 27.5156 25.1172 27.5234Z" fill="black"/>
<path d="M30.9531 24.9141C31.4531 24.8438 34.3281 24.4062 34.5938 24.375C34.875 24.3516 34.9844 24.3125 35.0781 24.5469C35.1875 24.7969 34.6875 24.8047 34.6875 24.8047L31.25 25.1953C31.0938 25.2109 31.0547 25.1484 31.0547 25.1484L30.9219 24.9766C30.9219 24.9766 30.8828 24.9297 30.9531 24.9141Z" fill="#FFC221"/>
<path d="M23.9375 26.4844C23.9375 26.4844 23.5625 27.2578 25.0234 27.4453C25.0234 27.4453 25.0234 27.3672 25.0859 27.2344C25.1484 27.1172 25.2734 26.8672 25.1484 26.7109C25.0312 26.5547 25.25 26.6328 25.2734 26.4219C25.3125 26.2188 25.2578 26.2422 25.3594 26.1094C25.3594 26.1094 24.9063 26.2734 24.7344 26.4766C24.5547 26.6797 24.9688 26.8281 24.7344 27.0547C24.7344 27.0547 24.5156 26.9766 24.3984 26.75C24.3984 26.75 24.1172 26.7578 23.9297 26.4766L23.9375 26.4844Z" fill="#5A3719"/>
<path d="M25.3672 27.4375C25.3672 27.4375 25.7266 27.75 26.1484 27.7344C26.5781 27.7188 26.7656 27.6094 26.875 27.4375C26.875 27.4375 26.9531 27.5625 26.9531 27.6484C26.9531 27.6484 27.3281 27.3438 27.9688 27.6172C28.6094 27.8906 28.4062 27.8047 28.5469 27.8281C28.5469 27.8281 28.2734 27.7812 27.6562 28.0625C27.0156 28.3516 25.3438 28.25 25.3594 27.4375H25.3672Z" fill="black"/>
<path d="M24.7656 26.0547C24.7656 26.0547 24.9219 26.0859 25.0781 25.8984C25.0781 25.8984 24.8672 25.9453 24.7656 26.0547ZM23.5391 27.5078C23.5391 27.5078 23.2422 27.2734 23.4297 27.2266C23.4297 27.2266 23.5703 27.1953 23.5391 27.5078Z" fill="#5A3719"/>
<path d="M30.0859 28.9844C30.0859 28.9844 30.2578 28.6953 30.7109 28.6953C31.1797 28.6953 31.2266 28.9141 31.8047 28.9531C31.8047 28.9531 31.1094 29.1484 30.625 28.9766C30.5392 28.9419 30.4472 28.9248 30.3547 28.9261C30.2621 28.9274 30.1707 28.9473 30.0859 28.9844Z" fill="black"/>
<path d="M25.5156 27.6484C25.5156 27.6484 26.2188 28.0625 26.8281 27.6094C26.8281 27.6094 26.875 27.6562 26.9219 27.7656C26.9219 27.7656 27.3906 27.3203 28.2188 27.8047C28.2188 27.8047 28.1172 27.7891 27.7266 27.9609C27.2188 28.1797 25.9375 28.3281 25.5156 27.6406V27.6484Z" fill="#5A3719"/>
<path d="M28.1875 28.0703C28.1875 28.0703 28.8516 28.1484 29.4062 28.1094C29.75 28.0938 30.125 28.0313 29.9453 28.1406C29.75 28.2578 29.8438 28.2734 30.6406 28.2031C31.4219 28.125 30.6328 28.3516 31.1719 28.4219C31.1719 28.4219 29.8516 29.0938 28.1875 28.0703Z" fill="black"/>
<path d="M29.9219 27.6484C29.9219 27.6484 30.3125 27.5078 30.6797 27.6719C31.0313 27.8438 30.9766 27.8594 31.2188 27.8828C31.2188 27.8828 31.0547 28.1172 30.6562 27.9297C30.4284 27.7966 30.1804 27.7016 29.9219 27.6484ZM30.3594 28.8359C30.3594 28.8359 30.7422 28.6484 31.1641 28.8438C31.2109 28.875 31.3203 28.9219 31.4375 28.9453C31.4375 28.9453 31.1172 29.0469 30.7812 28.9453C30.6443 28.8958 30.5031 28.8592 30.3594 28.8359ZM28.4688 28.1562C28.4688 28.1562 29.3281 28.2344 29.7813 28.1406C29.7813 28.1406 29.25 28.3984 30.5938 28.2812C30.5938 28.2812 30.8828 28.25 30.8516 28.2969C30.8125 28.3438 30.7891 28.375 30.9375 28.4219C30.9375 28.4219 29.9453 28.875 28.4688 28.1562Z" fill="#5A3719"/>
<path d="M24.2188 27.4375C24.2188 27.4375 24.2266 27.5 24.4141 27.5859C24.6094 27.6641 24.7109 27.8203 24.75 27.8984C24.7788 27.9566 24.8193 28.0082 24.8691 28.0499C24.9189 28.0916 24.9767 28.1225 25.0391 28.1406C25.0391 28.1406 24.3672 28.2812 24.0781 27.9297C24.0781 27.9297 23.8438 27.6875 24.2109 27.4375" fill="black"/>
<path d="M29.4688 28.9766C29.4688 28.9766 29.2109 28.9531 28.8438 28.8359C28.4844 28.7031 28.3906 28.8125 28.1875 28.6641C27.9844 28.5078 27.5703 28.6016 27.5 28.6172C27.4219 28.6172 27.2031 28.6172 27.4688 28.4375C27.4688 28.4375 27.2578 28.4375 27.1719 28.3203C27.1719 28.3203 27.0781 28.4219 26.7031 28.3828C26.7031 28.3828 26.875 28.6406 26.2109 28.5625C26.3217 28.6921 26.4685 28.7857 26.6327 28.8316C26.7968 28.8776 26.9709 28.8736 27.1328 28.8203C27.1328 28.8203 27.0859 29.0234 27.3906 29.1016C27.7031 29.1797 27.7578 29.2344 27.9219 29.2969C27.9219 29.2969 27.9375 29.1719 27.5312 28.875C27.5312 28.875 27.75 28.8672 28.0625 28.9453C28.375 29.0234 29.0859 29.1953 29.4688 28.9766ZM29.6328 29.2812C29.6328 29.2812 29.7031 29.4375 29.9062 29.3984C30.1016 29.3594 30.4297 29.3047 30.75 29.4688C30.75 29.4688 30.8125 29.1953 30.1641 29.1797C30.1641 29.1797 29.7656 29.1953 29.6328 29.2812ZM24.1953 27.5312C24.1953 27.5312 23.9453 27.7344 24.1719 27.9453C24.375 28.1406 24.6953 28.125 24.8516 28.1172C24.8516 28.1172 24.75 28.0703 24.6797 27.9453C24.5937 27.8281 24.5938 27.7422 24.4219 27.6641C24.25 27.5859 24.2266 27.5703 24.1953 27.5312ZM23.9453 26.4766C23.9453 26.4766 23.5625 27.2578 25.0312 27.4453C25.0312 27.4453 25.0313 27.3672 25.0938 27.2344C25.1406 27.1172 25.2734 26.8672 25.1563 26.7109C25.0313 26.5547 25.25 26.6328 25.2813 26.4219C25.3125 26.2188 25.2578 26.2422 25.3594 26.1094C25.3594 26.1094 24.9063 26.2734 24.7344 26.4766C24.5547 26.6797 24.9688 26.8281 24.7344 27.0547C24.7344 27.0547 24.5156 26.9766 24.3984 26.7578C24.3984 26.7578 24.1172 26.7578 23.9297 26.4766H23.9453Z" fill="#5A3719"/>
<path d="M27.7656 28.2813C27.7656 28.2813 28.0781 28.2266 28.8516 28.5156C29.6328 28.8047 29.9531 28.7344 30.0703 28.7344C30.0703 28.7344 29.6328 28.9609 28.9531 28.6562C28.3516 28.3906 28.3125 28.5 27.7656 28.2813Z" fill="black"/>
<path d="M32.6406 28.1094C32.6406 28.1094 32.8125 28.1016 32.9219 28.1406C32.9219 28.1406 32.9844 28.0859 33.1562 28.0625C33.1562 28.0625 33.0469 27.9688 32.6406 28.1094ZM32.1094 27.6719C32.1094 27.6719 32.2812 27.6719 32.3438 27.5781C32.3438 27.5781 32.2422 27.4688 32.1094 27.4062C32.1094 27.4062 32.1406 27.5391 32.1094 27.6719ZM26.1328 25.6875C26.1328 25.6875 26.0938 25.5938 26.2891 25.5703L28.8906 25.1953C28.8906 25.1953 29.0156 25.1953 29.0391 25.2734C29.0547 25.375 29.0234 25.4375 28.4375 25.5078C27.8516 25.5703 26.3047 25.7656 26.3047 25.7656C26.3047 25.7656 26.1484 25.7969 26.1328 25.6875Z" fill="#FFC221"/>
<path d="M28.4922 25.5781C28.4922 25.5781 28.4922 25.9219 28.8438 25.9688C29.1797 26.0234 29.2969 25.9531 29.3906 25.7734C29.4141 25.7266 29.5156 25.3672 29.3672 25.3438C29.2857 25.3333 29.2029 25.3413 29.125 25.3672C29.0078 25.4219 28.8984 25.4766 28.9297 25.5312C29.0234 25.6641 29.0391 25.6875 29.0078 25.7031C28.9219 25.7266 28.8594 25.6484 28.8438 25.5938C28.8281 25.5313 28.8906 25.4922 28.6641 25.5312C28.5703 25.5391 28.4922 25.5391 28.4922 25.5781Z" fill="#FFC221"/>
<path d="M29.9453 25.3125C30.1172 25.3359 30.1016 25.7109 29.8984 25.8828C29.6641 26.0703 29.4531 26 29.4531 26C29.3281 25.9531 29.3516 25.9688 29.4375 25.8359C29.5156 25.7031 29.5625 25.5312 29.5156 25.4141C29.5 25.375 29.5391 25.3359 29.5938 25.3359C29.5938 25.3359 29.7656 25.2969 29.9453 25.3125Z" fill="#FFC221"/>
<path d="M30.1016 25.3516C30.1016 25.3516 30.2266 25.5078 30.0703 25.8047C30.0703 25.8047 29.9922 25.8906 30.1563 25.8828C30.3125 25.8672 30.6719 25.7031 30.625 25.4844C30.625 25.4844 30.625 25.4297 30.5234 25.4297C30.4297 25.4375 30.5078 25.3828 30.5469 25.3672C30.5859 25.3672 30.7031 25.3125 30.3906 25.1094C30.3906 25.1094 30.3438 25.0703 30.2813 25.0859C30.2344 25.1094 30.0703 25.1641 30.0703 25.2734C30.0703 25.3125 30.1016 25.3516 30.1016 25.3516Z" fill="#FFC221"/>
<path d="M30.4375 25.0781C30.4375 25.0781 30.6953 25.2578 30.6875 25.3125C30.6875 25.3594 30.6641 25.4375 30.7344 25.4219C30.7969 25.4219 31.0625 25.3594 30.9922 25.1875C30.9141 25.0078 30.8359 24.9531 30.7188 24.8984C30.5938 24.8594 30.5625 24.9141 30.4531 25C30.4531 25 30.375 25.0469 30.4375 25.0781ZM29.1016 25.3281C29.1016 25.3281 29.1406 25.2031 28.9141 25.1484C28.9141 25.1484 29.0078 25.0703 29.2031 25.1094C29.3828 25.1484 29.3672 25.2813 29.3672 25.2891C29.3672 25.2891 29.2188 25.2891 29.1016 25.3281ZM29.5859 25.2969C29.5859 25.2969 29.8359 25.25 29.9531 25.2656C29.9531 25.2656 29.8281 24.9844 29.4844 25.0703C29.4844 25.0703 29.6094 25.2266 29.5859 25.2969ZM30.0234 25.2344C30.0234 25.2344 30.0234 25.1406 30.2422 25.0547C30.2422 25.0547 30.1406 24.9531 29.9844 24.9688C29.8203 24.9688 29.7812 25.0312 29.7812 25.0312C29.7812 25.0312 29.9766 25.1016 30.0234 25.2266V25.2344ZM30.1016 24.9219C30.1016 24.9219 30.25 24.9688 30.3359 25.0391C30.3359 25.0391 30.4609 24.8984 30.5703 24.8672C30.5703 24.8672 30.3594 24.7578 30.1016 24.9297V24.9219Z" fill="#FFC221"/>
<path d="M22.9688 24.2422C22.9688 24.2422 23.5703 23.7344 23.9062 23.7969C24.2422 23.8594 24.0781 23.8203 24.4375 23.7578C24.8125 23.7031 25.1875 23.6641 25.3438 23.6797C25.3438 23.6797 24.8906 23.3672 24.1016 23.3672C24.1016 23.3672 23.5469 23.5625 23.1641 23.8203C23.1641 23.8203 22.4141 23.4062 21.6484 23.6484C21.6484 23.6484 22.4844 23.9609 22.9766 24.2422H22.9688Z" fill="#5A3719"/>
<path d="M29.3438 25.125L29.4453 25.1094C29.4453 25.1094 29.6094 25.3125 29.4922 25.3125C29.3906 25.3125 29.4219 25.2891 29.4141 25.2344C29.4018 25.1898 29.3741 25.1511 29.3359 25.125H29.3438ZM28.5859 25.1406C28.5859 25.1406 28.5234 25.2188 28.6406 25.2031C28.7812 25.1797 28.7578 25.2031 28.8984 25.1016C28.8984 25.1016 29 25 29.1719 25.0625C29.1719 25.0625 29.3125 25.1094 29.4297 25.0547C29.5547 24.9922 29.5781 25 29.6406 25C29.7031 25.0078 29.7031 25.0234 29.7813 24.9609C29.875 24.8984 30.0156 24.9453 30.1094 24.8672C30.2031 24.7891 30.3203 24.8594 30.1094 24.7109C30.1094 24.7109 30.0625 24.6641 30.0703 24.6328C30.0703 24.6328 30.1484 24.6562 30.2188 24.7109C30.2812 24.7656 30.375 24.75 30.3984 24.7344C30.3984 24.7344 30.4141 24.5469 30.5938 24.375C30.7812 24.2031 30.7812 24.1953 30.6719 24.1953C30.5625 24.1953 30.3828 24.1484 30.3203 24.1953C30.2578 24.2422 29.7187 24.5938 29.3984 24.6562C29.0859 24.7188 28.7969 24.8125 28.5859 25.1406ZM20.1484 23.1875C20.1484 23.1875 21.125 23.4375 21.3359 23.5391C21.3359 23.5391 21.3906 23.3828 20.9453 23.2578C20.9453 23.2578 22.0234 23.2266 23.1484 23.7422C23.1484 23.7422 23.6953 23.2734 25.4609 23.4141C25.4609 23.4141 25.4609 23.2578 25.4766 23.1406C25.4766 23.1406 24.2422 23.1016 23.1094 22.4141C23.1094 22.4141 22.0859 22.9141 20.1484 23.1953V23.1875ZM25.5391 23.6562C25.4844 22.6641 25.8516 22.5703 25.8516 22.5703C25.8516 22.5703 26.0391 22.5781 26.2266 22.6094C26.2266 22.6094 25.9297 22.9688 26.0078 23.6797C26.0078 23.6797 26.0391 23.7891 25.7891 23.7891C25.5391 23.7891 25.5469 23.6719 25.5469 23.6719L25.5391 23.6562Z" fill="#FFC221"/>
<path d="M25.8047 24.3125C25.8047 24.3125 25.6172 24.125 25.6016 23.9062C25.6016 23.9062 25.6016 23.8516 25.7812 23.8516C25.9688 23.8594 25.9922 23.8438 26.0391 23.9531C26.0781 24.0547 26.1953 24.2734 26.2266 24.3047L25.8047 24.3125Z" fill="#5A3719"/>
<path d="M26.2031 23.8203C26.1849 23.6936 26.1771 23.5655 26.1797 23.4375C26.1953 22.8906 26.2813 22.9375 26.3203 23.0078H26.5156C26.5156 23.0078 26.375 22.3828 26.2031 22.75C26.0794 23.0239 26.036 23.3274 26.0781 23.625C26.0938 23.7891 26.1094 23.8906 26.1328 23.9531L26.2031 23.8203Z" fill="#FFC221"/>
<path d="M28.3437 23.8203C28.3437 23.8203 28.7031 23.8828 28.1484 24.0078C28.1484 24.0078 28.1719 24.6875 28.8281 24.2109C28.8281 24.2109 29.2266 23.9609 29.4922 23.8594C29.4922 23.8594 29.6328 23.8203 29.6172 23.7109C29.6172 23.7109 29.6328 23.5859 29.4922 23.6172C29.4922 23.6172 29.375 23.6172 29.2969 23.5938C29.2969 23.5938 29.2188 23.5 29.1719 23.5313C29.1172 23.5703 28.9922 23.5469 29.0938 23.6719C29.1875 23.7812 29.2188 23.75 29.2656 23.7188C29.3125 23.6875 29.5234 23.6094 29.3281 23.7812C29.1328 23.9531 28.9844 23.6797 28.9219 23.625L28.3437 23.8203ZM26.5078 23.8984H26.3516C26.3516 23.8984 26.2578 24.0234 26.1953 23.8203L26.1406 23.9531C26.1406 23.9531 26.3281 24.6797 26.5078 23.8984Z" fill="#5A3719"/>
<path d="M26.2812 23.0547C26.2812 23.0547 26.1953 23.5391 26.3047 23.8203L28.0625 23.8594C28.0625 23.8594 28.0391 23.5234 28.0625 23.0547H27.8125C27.8125 23.0547 27.7734 23.4453 27.8125 23.6797H27.7656C27.7656 23.6797 27.7344 23.3516 27.7656 23.0547H27.5625C27.5625 23.0547 27.5313 23.4141 27.5547 23.6797H27.5156C27.5156 23.6797 27.4844 23.3672 27.5156 23.0547H27.3203C27.3203 23.0547 27.2813 23.375 27.3203 23.6797H27.2656C27.2656 23.6797 27.2266 23.3594 27.2656 23.0547H27.0391C27.0391 23.0547 26.9922 23.3594 27.0391 23.6797H27C27 23.6797 26.9453 23.375 27 23.0547H26.7734C26.7734 23.0547 26.7266 23.3984 26.7734 23.6797H26.7266C26.7266 23.6797 26.6953 23.3516 26.7344 23.0547H26.5234C26.5234 23.0547 26.4688 23.3438 26.5234 23.6797H26.4688C26.4688 23.6797 26.4375 23.4297 26.4844 23.0547H26.2812ZM28.1328 23.9219C28.1328 23.9219 28.0937 23.0625 28.25 22.8437C28.4141 22.625 28.4531 22.6641 28.7344 22.8437C29.0156 23.0234 29.375 23.2187 29.4375 23.2344C29.4922 23.2578 29.5781 23.2812 29.5781 23.4375C29.5781 23.5938 29.6016 23.6406 29.3594 23.4375C29.3281 23.4141 29.2109 23.3125 29.125 23.2812C28.9141 23.2188 29.1797 23.3281 29.2578 23.4453C29.3203 23.5391 29.3828 23.5234 29.2109 23.5703C28.848 23.6763 28.4885 23.7935 28.1328 23.9219Z" fill="#FFC221"/>
<path d="M28.75 23.3047C28.75 23.3047 28.6172 23.1484 28.7891 23.1172C28.9453 23.0781 28.9609 23.3672 28.9922 23.5391C29.0156 23.7187 28.7891 23.3672 28.7578 23.3125L28.75 23.3047ZM28.5156 24.0625C28.5156 24.0625 28.3281 24.1328 28.4531 24.1875C28.5781 24.25 28.9219 23.9609 28.8047 23.9844C28.6797 24 28.5156 24.0625 28.5156 24.0625ZM28.7734 23.7969C28.7734 23.7969 28.9375 23.7812 28.8984 23.8516C28.875 23.9297 28.8125 23.8828 28.7891 23.8594C28.7578 23.8516 28.6484 23.8047 28.7734 23.7969Z" fill="black"/>
<path d="M29.6641 23.5703C29.6641 23.5703 29.7031 23.8984 29.9844 23.9844C29.9844 23.9844 30.1563 24.0234 30.1172 23.8828L30.0703 23.7109C30.0469 23.6562 29.9297 23.625 29.9141 23.6172C29.9063 23.6172 29.8906 23.5781 29.9688 23.6094C30.0469 23.6328 30.0547 23.6406 30.0469 23.5781C30.0469 23.5234 30 23.5469 29.9297 23.5156C29.9063 23.5 29.9297 23.4766 29.9609 23.4844C29.9922 23.4844 30.0625 23.5156 30.0625 23.4062C30.0625 23.4062 30.0781 23.3359 29.9922 23.3359C29.8984 23.3359 29.9063 23.2891 29.9297 23.2812C29.9609 23.2812 30.0547 23.3437 30.0859 23.2266C30.1172 23.1172 29.9531 23.1875 29.9766 23.125C30 23.0625 30.1172 23.1562 30.1172 23.0859C30.1328 23.0234 30.2266 22.9922 30.0625 22.9687C29.9922 22.9609 30.0625 22.9219 30.1406 22.9375C30.2344 22.9453 30.2891 22.8437 30.3359 22.8047C30.3984 22.7656 30.6875 22.5937 30.2891 22.6484C29.8984 22.7031 29.7813 22.8984 29.7656 22.9375C29.6689 23.1334 29.6335 23.354 29.6641 23.5703Z" fill="#FFC221"/>
<path d="M30.5781 23.8281C30.6328 23.8203 30.6797 23.8281 30.6953 23.8594C30.7578 23.9922 30.6172 23.9531 30.5312 24.0469C30.4453 24.1406 30.4375 24.125 30.3281 24.0938C30.2109 24.0547 30.1719 23.8828 30.1719 23.8828C30.1563 23.8203 30.2031 23.8203 30.2578 23.8281C30.2578 23.8281 30.4531 23.8516 30.5781 23.8281ZM30.1562 23.7578C30.1562 23.7578 30.1562 23.7891 30.2344 23.7969C30.2891 23.7969 30.4844 23.8203 30.6094 23.7812C30.6094 23.7812 30.6406 23.7812 30.625 23.7031C30.625 23.7031 30.625 23.6484 30.5234 23.6719C30.4141 23.6875 30.2656 23.6719 30.2109 23.6641C30.1641 23.6484 30.1328 23.6641 30.1562 23.75V23.7578ZM30.1406 23.5234C30.1406 23.5234 30.1406 23.6172 30.2344 23.6328H30.5234C30.5703 23.6328 30.6406 23.6094 30.6484 23.5547C30.6484 23.4844 30.6719 23.4453 30.5391 23.4766C30.4062 23.5078 30.2578 23.4844 30.2422 23.4766C30.2266 23.4766 30.1406 23.4531 30.1406 23.5156V23.5234ZM30.1875 23.3047C30.1875 23.3047 30.1563 23.3594 30.1641 23.3984C30.1641 23.4453 30.2422 23.4688 30.375 23.4688C30.5078 23.4688 30.6328 23.4453 30.6406 23.3984C30.6484 23.3516 30.6797 23.2969 30.5781 23.3203C30.4798 23.3361 30.3796 23.3361 30.2813 23.3203C30.2266 23.2969 30.1875 23.2891 30.1875 23.3047Z" fill="#FFC221"/>
<path d="M35.1719 23.8359C35.1719 23.8359 35.1719 23.9219 35.2422 24.0234L31.4766 23.9141C31.4766 23.9141 31.5234 23.8828 31.5391 23.7344L35.1719 23.8359Z" fill="#5A3719"/>
<path d="M30.2188 23.1562C30.2188 23.1562 30.1875 23.25 30.25 23.2656C30.3125 23.2891 30.4297 23.3047 30.5859 23.2812C30.5859 23.2812 30.6641 23.2812 30.6875 23.2031C30.7188 23.125 30.7109 23.1641 30.5 23.125C30.5 23.125 30.4297 23.1016 30.625 23.1016C30.625 23.1016 30.7422 23.1016 30.75 23.0859C30.7734 23.0703 30.9219 22.9453 30.7266 22.9609C30.5391 22.9609 30.6328 22.9219 30.7266 22.9219C30.8281 22.9219 30.8516 22.9453 30.8828 22.9219C30.9141 22.8984 30.8828 22.9062 30.8359 22.8516C30.7891 22.7969 30.8203 22.8125 30.8594 22.8516C30.8984 22.875 30.9219 22.8828 30.9609 22.8516C31.0078 22.8047 30.9297 22.75 30.9609 22.7578C30.9922 22.7578 31.0156 22.8281 31.1328 22.7734C31.2656 22.7031 31.4297 22.7344 31.4766 22.7734C31.5156 22.8047 31.6484 22.8516 31.7266 22.7734C31.8047 22.6953 31.6328 22.6172 31.7031 22.6172C31.7812 22.6016 31.8281 22.6328 31.8594 22.5703C31.8906 22.5078 31.7422 22.4609 31.8828 22.4141C32.0156 22.3828 31.8984 22 31.8594 21.9688C31.8594 21.9688 31.7031 22.0547 31.5391 22.3203C31.3672 22.5938 31.2656 22.7578 31.0391 22.6719C30.7266 22.5469 30.5469 22.7266 30.4922 22.75C30.4141 22.8047 30.6641 22.8281 30.5156 22.8281C30.375 22.8281 30.375 22.8438 30.3594 22.8672C30.3516 22.8828 30.3594 22.9062 30.3906 22.9141C30.4141 22.9141 30.4688 22.9609 30.3828 22.9609C30.2891 22.9609 30.2266 22.9453 30.2578 23.0391C30.2578 23.0391 30.2578 23.0547 30.3047 23.0625C30.3594 23.0625 30.3828 23.125 30.2812 23.125C30.2188 23.125 30.2188 23.1484 30.2188 23.1562ZM30.5625 24.0937C30.5625 24.0937 30.5 24.1406 30.5859 24.1484C30.6797 24.1484 30.7266 24.1719 30.7578 24.125C30.7891 24.0781 30.9141 24.0938 30.8359 24.0234C30.7422 23.9531 30.6875 23.9922 30.5625 24.1016V24.0937Z" fill="#FFC221"/>
<path d="M30.9531 22.9609C30.9531 22.9609 31.2656 22.6641 31.5234 22.8672L31.8203 23.1016C31.8203 23.1016 31.8516 23.125 31.7812 23.1875C31.7031 23.2578 31.7812 23.2578 31.8594 23.2109C31.9375 23.1719 31.9375 23.2109 31.9766 23.2578C32.0156 23.2969 32.0703 23.3203 31.9453 23.3203H31.5625C31.5625 23.3203 31.3906 23.3359 31.4844 23.2578C31.5625 23.1875 31.5469 23.1016 31.5078 23.1016C31.4609 23.1016 31.5078 23.1484 31.4766 23.1797C31.4453 23.2109 31.3906 23.2422 31.3203 23.2422C31.25 23.2422 31.2109 23.2891 31.3047 23.3203C31.4063 23.3594 31.2969 23.3828 31.2422 23.3828C31.1875 23.3828 30.9531 23.3984 31.1953 23.4297C31.4453 23.4609 31.1719 23.4531 31.3516 23.5547C31.5625 23.6719 31.4141 23.9141 31.3359 23.9375C31.3359 23.9375 31.2578 23.9844 31.3594 23.9687C31.4688 23.9531 31.5234 23.9453 31.4453 24C31.375 24.0625 31.2266 24.2422 31.0234 24.1016C31.0234 24.1016 30.9219 24.0625 31.0938 24.0469C31.2656 24.0469 30.9531 24 30.8984 23.9687C30.8516 23.9375 30.6641 23.7344 30.7812 23.7578C30.9062 23.7812 30.8594 23.7109 30.7812 23.6875C30.7109 23.6641 30.7031 23.5547 30.7812 23.5703C30.8594 23.6016 30.9531 23.6484 31.0234 23.6406C31.0937 23.6406 31.0703 23.6094 30.9297 23.5703C30.7891 23.5234 30.7344 23.5156 30.7656 23.3984C30.7969 23.2812 30.9531 23.4453 30.9219 23.3594C30.8828 23.2656 30.7422 23.3125 30.8125 23.2031C30.8828 23.0937 30.9062 23.1328 30.9375 23.1484C30.9688 23.1562 31.0156 23.1484 30.9375 23.0859C30.8672 23.0391 30.9375 22.9766 30.9531 22.9609Z" fill="#FFC221"/>
<path d="M31.1719 23.0469C31.1719 23.0469 31.1719 23.0078 31.2344 23.0156C31.2891 23.0156 31.2734 22.9922 31.2891 22.9766C31.3047 22.9766 31.4453 23.0234 31.3125 23.0703C31.2656 23.0859 31.1875 23.0703 31.1797 23.0469H31.1719Z" fill="black"/>
<path d="M31.4844 23.375C31.4844 23.375 31.375 23.4297 31.4687 23.5391C31.5469 23.6406 31.5469 23.6719 31.5469 23.7344C31.5391 23.7969 35.1719 23.8359 35.1719 23.8359C35.1719 23.8359 35.1641 23.6016 35.3125 23.4687L31.4844 23.375Z" fill="#FFC221"/>
<path d="M35.2266 23.7734C35.2266 23.7734 35.2422 23.5703 35.3516 23.5078C35.4141 23.4687 35.4922 23.4922 35.5234 23.6484C35.5781 23.875 35.3828 24.0703 35.2969 23.9844C35.2188 23.9062 35.2344 23.7734 35.2344 23.7734H35.2266Z" fill="#5A3719"/>
<path d="M31.0625 24.6172C31.0625 24.6172 31.3047 24.4062 31.3438 24.3203C31.3438 24.3203 32 24.7891 31.9609 24.3594C31.9609 24.3594 31.9609 24.2422 31.9766 24.1328C31.9766 24.1328 32.2109 24.1641 32.25 23.9766L31.6406 23.9531C31.6406 23.9531 31.5781 23.9375 31.4844 24.0391C31.3906 24.1406 31.1953 24.25 31.0156 24.1562C31.0156 24.1562 30.9375 24.0938 30.8594 24.1484C30.7813 24.2031 30.7812 24.2109 30.8438 24.2734C30.9063 24.3359 31.0391 24.5156 31.0625 24.6172ZM32.4688 23.3359L32.1094 23.3281C32.1094 23.3281 31.9844 23.1406 31.7266 22.9375C31.7266 22.9375 31.6484 22.9062 31.7891 22.7891C31.9453 22.6719 31.9844 22.5547 31.9844 22.4922C31.9844 22.4453 31.9844 22.3516 32.0391 22.4141C32.0859 22.4844 32.4531 22.8203 32.5078 22.7266C32.5625 22.625 32.5781 22.5781 32.5781 22.5469C32.5938 22.5156 32.6016 22.4219 32.6562 22.5234C32.7109 22.6172 32.7422 22.5937 32.75 22.8359C32.75 22.8359 32.75 23.0938 32.7969 23.1797C32.7969 23.1797 32.3281 23.0312 32.4766 23.3359H32.4688ZM30.9219 22.5703C30.9219 22.5703 31.1953 22.7266 31.3281 22.5234C31.4531 22.3203 31.5469 22.2891 31.4453 22.0781C31.3438 21.8906 31.4453 21.7969 31.5234 21.7109C31.6016 21.6328 31.6719 21.6484 31.6797 21.3203C31.6875 21.0078 31.9141 20.9062 32.0078 20.8047C32.1094 20.7109 32.3516 20.5625 31.9766 20.4922C31.6094 20.4375 30.8594 20.2422 30.6719 19.9531C30.4766 19.6641 30.3906 19.8359 30.3906 19.8438C30.3906 19.8594 30.3281 20.0703 30.5156 20.4531C30.7031 20.8359 30.8672 21.0781 31.0625 21.2031C31.2422 21.3359 31.4062 21.3984 31.3125 21.6562C31.2188 21.9141 31.0625 22.3672 30.9219 22.5781V22.5703Z" fill="#7B3C20"/>
<path d="M31.9297 21.7578C31.9297 21.7578 31.9688 22.4219 32.4531 22.6562C32.4531 22.6562 32.5625 22.3984 32.5156 22.1406C32.5156 22.1406 32.6719 22.1562 32.7188 22.2266C32.7188 22.2266 32.7188 22.0391 32.5 21.9688C32.2656 21.8984 32.3828 21.4688 32.4609 21.4219C32.5391 21.375 32.5156 21.2812 32.4609 21.2031C32.4063 21.125 32.3984 21.0156 32.5859 21.0625C32.7734 21.1094 32.7422 21.0156 32.625 20.9219C32.5156 20.8281 32.5234 20.7109 32.6797 20.7109C32.8359 20.7109 33.1094 20.5547 32.9453 20.5078C32.7891 20.4609 32.7344 20.4062 32.9453 20.3516C33.1719 20.2734 33.2812 20.2031 33.1172 20.1875C32.9453 20.1641 32.8359 20.1094 33 20.0859C33.1562 20.0547 32.9766 19.8906 32.7891 19.8828C32.5938 19.875 32.2031 19.9453 32.5156 19.6953C32.8281 19.4453 32.0703 19.6328 32.3828 19.4609C32.6953 19.3047 32.2734 19.3672 32.2109 19.3672C32.1563 19.3672 32.1562 19.3672 32.1797 19.2891C32.2031 19.2031 32.1406 19.1562 32.0391 19.2109C31.9531 19.2656 31.9531 19.2656 31.9609 19.1484C31.9609 19.0312 31.8516 19.1172 31.7812 19.1484C31.7031 19.1797 31.5391 19.3047 31.4609 19.2422C31.3984 19.1641 31.3594 19.0938 31.1484 19.2188C30.9219 19.3516 30.9766 19.2422 30.9844 19.1797C30.9844 19.1172 31.0625 18.8984 30.7734 19.1406C30.4844 19.3828 30.7109 18.8828 30.4844 19.0469C30.25 19.2188 30.2266 19.25 30.1875 19.1797C30.1562 19.1016 30.1094 19.0391 29.8516 19.2031C29.5938 19.3594 29.7891 19.1016 29.8203 19.0469C29.8594 18.9844 29.9688 18.6172 29.7422 18.9062C29.7422 18.9062 29.6328 19.1094 29.3906 18.75C29.3906 18.75 29.1406 19.1094 29.0703 18.9453C29 18.7891 28.9375 18.7734 28.8516 18.875C28.7734 18.9766 28.8281 18.875 28.7969 18.7812C28.7578 18.7031 28.7344 18.5391 28.3047 18.8438C27.8828 19.1641 28.4609 18.9375 28.1328 19.0781C27.8047 19.2188 27.0156 19.6641 27.7344 19.5625C28.4609 19.4609 27.3828 19.8438 27.6328 19.9141C27.8828 19.9844 27.8047 20.2031 28.75 19.9453C29.6875 19.6875 29.5313 19.9062 30.0156 19.6953C30.5 19.4922 29.9062 19.7656 30.5469 19.7578C31.1953 19.7344 30.6562 19.7578 30.7812 19.8828C30.9141 20.0156 31.4531 20.3281 31.9531 20.3906C32.4688 20.4375 32.5937 20.25 32.4531 20.4688C32.2969 20.6875 32.25 20.7734 32.1641 20.8594C32.0859 20.9219 31.8359 21.1016 31.8281 21.4062C31.8281 21.7109 31.4375 21.7578 31.5781 22.1016L31.9297 21.7578Z" fill="#5A3719"/>
<path d="M32.7656 22.5C32.7656 22.5 32.6484 22.4141 32.6484 22.2656C32.6484 22.2656 32.7266 22.2812 32.7656 22.3281C32.7656 22.3281 33.0547 22 32.6953 21.8828C32.3516 21.7578 32.5234 21.4453 32.6484 21.4453C32.7656 21.4453 32.7891 21.4141 32.6875 21.2734C32.5859 21.1484 32.5938 21.1328 32.7969 21.1016C32.9844 21.0703 32.9688 21.0234 32.875 20.9766C32.8167 20.9433 32.764 20.9012 32.7188 20.8516C32.7188 20.8516 33.2812 20.6094 33.1016 20.4922C32.9141 20.3828 33.1016 20.4141 33.2578 20.2969C33.4297 20.1797 33.4531 20.1562 33.4688 20.1094C33.4688 20.1094 33.3125 20.125 33.1875 20.1094C33.1875 20.1094 33.3281 20.0312 33.1875 19.9141C33.0469 19.7969 33 19.7031 32.7656 19.7578C32.5469 19.8047 32.625 19.7344 32.7031 19.6406C32.7969 19.5469 32.7578 19.4922 32.5938 19.4688C32.5938 19.4688 32.6172 19.375 32.7344 19.2578C32.7344 19.2578 32.4297 19.2812 32.3281 19.2266C32.3281 19.2266 32.4531 19.1484 32.4531 19.0391C32.4531 19.0391 32.2969 19.1016 32.0781 19.0781C32.0781 19.0781 32.2109 18.9688 32.2109 18.875C32.2109 18.875 31.8359 18.9531 31.6641 19.0859C31.6641 19.0859 31.6328 19.0859 31.6094 19.0391C31.5781 19.0078 31.5547 18.9609 31.1484 19.0859C31.1484 19.0859 31.1953 18.9062 31.2969 18.8281C31.3906 18.7656 31.375 18.625 30.75 19.0156C30.75 19.0156 30.6641 18.9688 30.5938 18.7812C30.5938 18.7812 30.4531 18.9687 30.3516 19.0312C30.3516 19.0312 30.2578 19.0703 30.2734 18.9531C30.2891 18.8203 30.2109 18.9062 30.1484 18.9531C30.0859 18.9766 30.0391 19.0703 30.0703 18.8203C30.1016 18.5703 29.9766 18.5156 29.9766 18.5156C29.9766 18.5156 29.7891 18.7969 29.6719 18.8281C29.6719 18.8281 29.4688 18.625 29.3906 18.4922C29.3203 18.3672 29.3203 18.3125 29.25 18.5469C29.1719 18.7812 29.0938 18.7969 29.0938 18.7969C29.0938 18.7969 28.9609 18.6875 28.9453 18.625C28.9453 18.625 28.9297 18.6953 28.8828 18.7188C28.8828 18.7188 28.7734 18.5859 28.7812 18.4062C28.7812 18.4062 28.1016 18.7812 28.0156 19.0078C28.0156 19.0078 27.375 18.9687 27.1172 19.0156C27.1172 19.0156 27.1797 18.8125 27.3516 18.7031C27.3516 18.7031 27.1797 18.6875 27.1719 18.5156C27.1719 18.5156 27.3047 18.5313 27.3906 18.5156C27.4688 18.4922 27.2734 18.25 27.4844 18.2422C27.6953 18.2422 27.8281 18.3438 27.7422 18.0625C27.6406 17.7812 27.6797 17.7812 27.6797 17.7812C27.6797 17.7812 28.0547 18 28.1094 17.9375C28.1719 17.8906 28.0625 17.7812 28.3906 17.8281C28.7188 17.8906 28.625 17.7031 28.7578 17.6875C28.8828 17.6875 28.9453 17.7656 28.8672 17.1797C28.7891 16.5938 29.2656 17.4688 28.9453 16.5781C28.9453 16.5781 28.8672 16.3047 28.6641 16.1875C28.6641 16.1875 28.6172 16.3828 28.4062 16.2188C28.1797 16.0391 27.75 15.9844 27.9375 15.8438C28.1172 15.7031 28.2031 15.5313 28.1484 15.4141C28.1484 15.4141 27.9297 15.6328 27.5625 15.4766C27.2656 15.3438 27.2031 15.5781 26.9062 15.5156C26.9062 15.5156 26.9063 15.4375 27.1562 15.2344C27.4141 15.0312 27.0156 15.2969 26.8594 15.3359C26.7031 15.375 26.6563 15.3359 26.9844 15.0781C27.3203 14.8203 27.9844 14.375 27.8906 13.9922C27.8906 13.9922 28.0469 14.1953 28.4609 14.0469C28.8672 13.9063 29.1797 13.8516 29.2969 13.6328C29.4219 13.4297 29.7422 13.2188 29.8281 13.1641C29.9141 13.1172 30.0234 13.0859 29.8984 13.2891C29.7656 13.4922 29.5625 13.8359 29 14.0703C28.4297 14.3047 28.2188 14.4688 28.1094 14.6016C28.0078 14.7188 27.4844 14.9922 27.8281 14.9531C28.1641 14.8984 28.7422 14.9531 28.4688 14.875C28.2031 14.7969 27.8906 14.9219 28.1406 14.6953C28.3906 14.4688 28.4375 14.3984 28.7969 14.2422C29.1641 14.0859 29.5625 13.7422 29.5234 14.1172C29.4844 14.4766 28.8047 14.875 28.6406 14.9922C28.4766 15.1172 28.5391 15.1016 28.5391 15.1484C28.5391 15.1953 28.5156 15.2969 28.4453 15.3359C28.375 15.3828 28.3984 15.4375 28.4141 15.5391C28.4375 15.6484 28.3984 15.6875 28.4453 15.7031C28.5 15.7188 28.5469 15.7266 28.5625 15.7969C28.5859 15.875 28.6172 15.8828 28.7188 15.875C28.8125 15.8672 28.875 15.875 28.875 15.9375C28.8906 15.9922 28.9844 16.0703 28.9922 15.8984C29 15.7188 29.0703 15.6875 28.8906 15.7656C28.7109 15.8438 28.6719 15.8203 28.6797 15.7344C28.6797 15.6562 28.6562 15.6719 28.5859 15.6641C28.5078 15.6641 28.4844 15.5547 28.6172 15.4844C28.75 15.4141 28.75 15.4844 28.9141 15.3438C29.0781 15.2031 29.0781 15.1719 29.1094 15.1094C29.1328 15.0391 28.875 15.2969 28.7422 15.3516C28.6172 15.4141 28.6562 15.3125 28.6797 15.1719C28.6953 15.0312 29.0078 14.8359 29.1484 14.8359C29.2969 14.8359 29.6172 14.9141 29.4844 15.1172C29.3438 15.3125 28.9453 15.5469 29.1094 15.5625C29.2812 15.5781 29.3125 15.5156 29.4141 15.5938C29.5078 15.6875 29.4141 15.8672 29.375 15.9609C29.3301 16.0516 29.2661 16.1316 29.1875 16.1953C29.1875 16.1953 29.0078 15.8672 29.0156 16.125C29.0156 16.3828 28.9766 16.4688 29.0156 16.4766C29.0547 16.4922 29.25 16.625 29.3125 16.625C29.375 16.625 28.9688 16.8125 29.1406 16.8281C29.3125 16.8438 29.5938 16.75 29.6875 16.5703C29.6875 16.5703 29.3281 16.4922 29.1953 16.3594C29.1953 16.3594 29.5938 16.2656 29.4844 15.875C29.4844 15.875 29.8906 15.9844 29.7188 16.1719C29.5391 16.3516 29.4297 16.3281 29.5859 16.375C29.7422 16.4219 29.8047 16.4688 29.8047 16.4688C29.8047 16.4688 29.9141 16.5234 29.8516 16.6016C29.7891 16.6953 29.7891 16.8203 29.8516 16.8125C29.8906 16.8125 30.0625 16.7344 29.9297 16.6562C29.7734 16.5625 30.0859 16.5781 29.9531 16.5C29.8281 16.4219 29.7891 16.4141 29.7578 16.375C29.7188 16.3438 31.3984 15.3594 30.5469 15.7266C30.5469 15.7266 30.7266 15.3359 30.9766 15.3359C31.2109 15.3359 31.2344 15.5313 31.1016 15.6875C30.9531 15.8359 30.8672 16.0703 30.5391 16.1172C30.5391 16.1172 31.0078 16.3516 30.4531 16.7266C30.4531 16.7266 30.3281 16.7812 30.375 16.8203C30.4219 16.8672 30.75 16.6797 30.7969 16.5703C30.8418 16.4585 30.9288 16.3688 31.0391 16.3203C31.1641 16.2578 31.7891 15.8359 31.9766 15.5156C32.1641 15.2031 32.2109 15.1953 32.5703 14.8984C32.9297 14.6016 32.875 14.6641 32.9219 14.5938C32.9688 14.5234 32.9844 14.4063 33.1562 14.3125C33.3125 14.2188 33.9688 13.8594 34.1719 13.7109C34.375 13.5625 34.7969 13.2891 34.9688 13.0625C35.1484 12.8359 35.6328 12.5469 35.75 12.5938C35.875 12.6562 35.75 12.8281 35.4609 13.0391C35.1719 13.25 34.4766 13.8203 34.3594 13.9141C34.0752 14.1411 33.7594 14.3254 33.4219 14.4609C33.2031 14.4922 33.2266 14.5703 33.0938 14.7188C32.9609 14.8672 32.6484 15.1641 32.5469 15.2422C32.4453 15.3359 32.1953 15.5 32.1797 15.625C32.1719 15.7422 32.2266 15.7578 32.0234 15.9375C31.7294 16.2134 31.3948 16.4427 31.0312 16.6172C31.0312 16.6172 31.4062 16.7422 31.1875 17C30.9609 17.25 30.9766 17.2109 30.9609 17.2344C30.9609 17.2344 31.5234 17.1406 31.1328 17.5859C31.1328 17.5859 31.0469 17.7188 31.2266 17.5859C31.4141 17.4297 31.3359 17.2422 31.3125 17.2188C31.3125 17.2188 31.6172 17.0234 31.9688 17.0234C32.3125 17.0234 32.2969 16.9922 31.9844 16.9062C31.9844 16.9062 32.2109 16.6328 32.3906 16.7734C32.5859 16.8984 32.5234 16.9844 32.3281 17.0859C32.125 17.1953 31.8359 17.2266 31.625 17.3516C31.625 17.3516 32.0312 17.4297 32.25 17.2656C32.4688 17.0938 32.4844 17.1797 32.5078 17.2109C32.5391 17.2422 32.5625 17.2891 32.4688 17.4375C32.3672 17.5781 32.3594 17.5781 32.3672 17.6094C32.3672 17.6484 32.3516 17.7422 32.1562 17.7656C31.9688 17.8047 31.8672 17.8906 31.9375 17.9844C32 18.0781 32 18.3047 31.8359 18.2891C31.6719 18.2656 31.7109 18.1328 31.6484 18.0781C31.5859 18.0312 31.4922 17.9531 31.1953 18.1016C30.8984 18.2578 30.8828 18.0703 30.8906 17.9688C30.8906 17.9688 30.7031 18.1406 30.5391 17.9922C30.3828 17.8359 30.5234 17.7734 30.6172 17.6953C30.7109 17.6172 31.0859 17.4531 30.8594 17.4844C30.625 17.5078 30.2969 17.5234 30.2266 17.3594C30.1406 17.1797 30.3828 17.2031 30.4297 17.2188C30.4688 17.2266 30.6172 17.3594 30.6328 17.1953C30.6328 17.0156 30.8828 17 30.7969 16.9609C30.7188 16.9375 30.5938 17.0391 30.5625 17.0859C30.5625 17.0859 30.3906 16.8438 30.1094 16.9141C29.8281 17 30.1953 16.9688 30.2656 16.9844C30.3438 16.9922 30.2969 17.1406 30.0469 17.3672C29.7969 17.5859 29.9062 17.5234 30.0938 17.5234C30.2891 17.5234 30.7422 17.5234 30.4844 17.7344C30.2109 17.9609 30.1016 18.0625 29.9688 18.0312C29.8281 17.9922 29.9766 17.8984 30.0469 17.8516C30.1094 17.8203 30.1406 17.75 30.0078 17.8047C29.875 17.8516 29.8359 17.8594 29.7266 17.6797C29.625 17.4844 29.6641 17.5469 29.7109 17.4219C29.7578 17.2969 29.8594 17.1719 29.7344 17.2188C29.6094 17.2656 29.625 17.2656 29.6328 17.125C29.6406 16.9844 29.4922 16.9531 29.4922 16.9531C29.4922 16.9531 29.5625 17.0938 29.5 17.1875C29.4531 17.2734 29.4453 17.3047 29.5312 17.3281C29.625 17.3516 29.7031 17.4297 29.5859 17.5078C29.4609 17.5859 29.4844 17.5781 29.5547 17.625C29.6328 17.6797 29.7422 17.7344 29.625 17.8516C29.5078 17.9609 29.6016 17.9297 29.6641 17.9297C29.7266 17.9297 29.8516 17.9766 29.8516 18.0859C29.8516 18.2031 29.8516 18.2266 30.0391 18.125C30.2266 18.0156 30.6016 18.0312 30.6016 18.1719C30.5938 18.3281 30.5469 18.3672 30.7578 18.2344C30.9531 18.1094 31.0391 18.3516 31.1797 18.2344C31.3125 18.1172 31.4062 18 31.5703 18.2031C31.7266 18.4062 31.6719 18.4609 31.4766 18.6094C31.2891 18.75 31.5781 18.6406 31.7188 18.5625C31.8594 18.4844 32.2812 18.4375 32.5234 18.5469C32.7578 18.6484 32.8281 18.625 32.9922 18.5469C33.1797 18.4844 33.2656 18.4687 33.5312 18.6406C33.7071 18.7725 33.9209 18.8438 34.1406 18.8438C34.1406 18.8438 33.8516 18.9609 33.5156 18.9766C33.1875 19.0078 33.0156 19.0547 32.9531 19.1094C32.9531 19.1094 33.1484 19.2422 33.1875 19.3828C33.1875 19.3828 33.4062 19.3516 33.5078 19.3906C33.5078 19.3906 33.4609 19.5469 33.5859 19.6328C33.7266 19.7188 33.8203 19.75 33.7188 19.8672C33.6172 19.9844 33.875 19.9297 33.7266 20.0859C33.5859 20.2578 33.5469 20.3281 33.5391 20.4688C33.5391 20.5938 33.5703 20.6094 33.4453 20.625C33.3203 20.6406 33.4688 20.7812 33.4062 20.9609C33.3516 21.1172 32.9922 21.1016 33.0078 21.5625C33.0078 21.5625 33.1094 21.3438 33.3203 21.1406C33.5312 20.9531 33.5391 20.9297 33.5312 20.8125C33.5312 20.6953 33.5234 20.7188 33.6406 20.6328C33.7422 20.5391 33.5859 20.4609 33.7031 20.3281C33.8125 20.2031 33.7109 20.2266 33.8516 20.1016C33.9766 19.9766 33.7266 19.9609 33.8672 19.8281C33.9922 19.7031 33.5312 19.5391 33.6719 19.4609C33.8047 19.375 34.0312 19.25 33.2578 19.2656C33.2578 19.2656 33.4453 18.9531 34.0938 19.0234C34.0938 19.0234 33.9375 19.1484 33.9141 19.2656L34.0391 19.3203C34.0391 19.3203 34.0078 19.4062 33.8828 19.5078C33.8828 19.5078 34.2344 19.7031 34.2891 19.8203C34.2891 19.8203 34.0781 19.8828 34.0234 19.9766C34.0234 19.9766 34.1172 20.0859 34.1484 20.2109C34.1484 20.2109 33.9141 20.1875 33.8828 20.3672C33.8516 20.5391 33.7812 20.4219 33.7812 20.5234C33.7812 20.625 33.7812 20.6719 33.7031 20.6875C33.625 20.7031 33.6875 20.7891 33.7031 20.8438C33.7109 20.9062 33.7422 21.0391 33.7344 21.0781C33.7344 21.0781 33.6094 21.0781 33.5547 21.0938C33.5547 21.0938 33.5938 21.3516 33.4531 21.3828C33.3125 21.4219 33.5312 21.4766 33.375 21.5C33.2266 21.5234 33.25 21.5391 33.0625 21.8672C33.0625 21.8672 33.2188 21.7812 33.375 21.6719C33.5469 21.5625 33.375 21.5938 33.6406 21.3359C33.9062 21.0625 33.8594 21.0469 33.8359 20.9141C33.8125 20.7812 33.8125 20.6719 33.9062 20.5391C34.0078 20.4141 34.0312 20.2656 34.3828 20.2891C34.3828 20.2891 34.2812 20.0547 34.1484 20C34.1484 20 34.3203 19.8828 34.4922 19.875C34.4922 19.875 34.3359 19.6797 34.0234 19.5078C34.0234 19.5078 34.2812 19.2812 34.3438 19.1797C34.3438 19.1797 34.2266 19.2031 34.125 19.1797C34.125 19.1797 34.1719 19.0781 34.4062 18.9219C34.4062 18.9219 34.5391 19.0391 34.5234 19.1641C34.5234 19.1641 34.9297 18.9375 35.1484 18.9688C35.1484 18.9688 35.2656 19.25 34.7109 19.7891C34.7109 19.7891 35.0547 19.8203 35.2031 19.8047C35.2031 19.8047 35.125 20.0625 34.7031 20.2188C34.2891 20.375 34.7891 20.5625 34.3672 20.5312C33.9453 20.5 34.0703 20.6406 34.0859 20.8516C34.0938 21.0703 34.1094 21.2969 34.1016 21.3516C34.1016 21.3516 33.7656 21.2422 33.7734 21.5703C33.7734 21.8984 33.5938 21.9688 33.5625 22C33.5625 22 33.4609 21.9219 33.3125 21.8594C33.3125 21.8594 33.1016 22.2578 32.7656 22.4922V22.5Z" fill="#5A3719"/>
<path d="M32.2812 18.375C32.2812 18.375 32.3906 18.3594 32.5938 18.4844C32.7812 18.6094 32.9766 18.3516 32.7656 18.2891C32.5391 18.2266 32.7656 18.1406 32.9531 18.3047C33.1562 18.4609 33.2344 18.3828 33.3047 18.3281C33.3828 18.2734 33.4609 18.2344 33.3281 18.1484C33.1953 18.0547 33.4219 18.1016 33.5234 18.1719C33.625 18.2344 33.5859 18.2969 33.5703 18.3125C33.5547 18.3359 33.5469 18.5469 33.7422 18.3516C33.9453 18.1484 34.0469 17.9531 34.0391 17.8516C34.0391 17.8516 34.1484 17.9219 34.1641 18.0469C34.1797 18.1719 34.3359 17.9844 34.3828 17.9141C34.4375 17.8516 34.5156 17.6719 34.5078 17.5391C34.5078 17.5391 34.6406 17.75 34.8438 17.5391C35.0391 17.3359 34.9609 17.4609 35.1953 17.3984C35.4659 17.3252 35.7099 17.1761 35.8984 16.9688C36.0625 16.7656 36.0781 16.9062 36.2891 16.8516C36.5 16.7969 36.9219 16.5078 36.9609 16.3438C37 16.1875 36.9922 16.0859 36.9375 16.1484C36.875 16.1953 36.8984 16.1484 36.8125 16.1016C36.7109 16.0391 36.5781 16.1719 36.5781 16.1719C36.5781 16.1719 36.7109 16.2734 36.6094 16.3203C36.5078 16.3594 36.4219 16.5078 36.2188 16.4453C36.0312 16.3906 35.8281 16.6328 35.8281 16.6328C35.8281 16.6328 36 16.7656 35.7656 16.8516C35.5469 16.9453 35.5781 16.9688 35.4453 16.875C35.4453 16.875 35.2031 17.1797 35.0547 17.2422C35.0547 17.2422 35 17.2422 34.9609 17.1797C34.9609 17.1797 34.8047 17.3594 34.7266 17.3906C34.7266 17.3906 34.6172 17.2969 34.5312 17.2656C34.5312 17.2656 34.3359 17.5 34.1797 17.5781C34.1797 17.5781 34.1328 17.4844 34.0312 17.4219C34.0312 17.4219 33.9844 17.7344 33.6484 17.9141C33.6484 17.9141 33.6719 17.8359 33.5 17.7188C33.5 17.7188 33.0859 18.0781 32.9297 18.1172C32.7656 18.1484 32.9062 18.0391 32.9297 17.9922C32.9531 17.9453 33.0547 17.7969 32.8516 17.7344C32.6484 17.6719 32.6953 17.7812 32.6484 17.7969C32.6016 17.8203 32.6016 17.7578 32.4609 17.7812C32.3359 17.7969 32.3516 17.8594 32.2969 17.8828C32.2344 17.8984 32 17.8438 32.0156 17.9922C32.0312 18.1484 32.1406 18.2578 31.9375 18.3438C31.7266 18.4375 32.0156 18.4219 32.2812 18.375Z" fill="#7B3C20"/>
<path d="M33.1172 17.9453C33.1172 17.9453 33.1641 17.7422 32.9922 17.6484C32.9922 17.6484 34.0859 17.4766 33.2578 17.0547C33.2578 17.0547 34.25 16.8594 34.0156 16.5469C33.7812 16.2344 33.5469 16.2891 33.5234 16.3047C33.4922 16.3047 33.7344 16.1172 33.7969 16.1484C33.8594 16.1719 34.6562 16.4688 34.4453 16.2109C34.25 15.9531 34.2656 15.9688 34.2344 15.8906C34.2344 15.8906 34.4922 15.8906 34.8906 16.2734C34.8906 16.2734 34.9688 16.1953 34.9688 16.0312C34.9688 16.0312 35.2422 16.1094 35.3359 16.1953C35.3359 16.1953 35.3828 16.1016 35.3594 16.0391C35.3594 16.0391 35.6094 16.1719 35.6953 16.3125C35.6953 16.3125 35.8047 16.2188 35.8203 16.1016C35.8203 16.1016 36.0625 16.2031 36.1328 16.2812C36.1328 16.2812 36.2109 16.1719 36.1797 16.0234C36.1797 16.0234 36.5781 16.1406 36.6406 15.8984C36.6406 15.8984 37.0391 15.9766 36.7812 16.1328C36.4375 16.3438 36.7422 16.0859 36.3906 16.3281C36.125 16.5234 35.9766 16.7422 35.8438 16.6953C35.75 16.6562 35.6328 16.9297 35.5078 16.8047C35.3828 16.6641 35.3828 16.7266 35.2812 16.8672C35.2121 16.9705 35.1336 17.0672 35.0469 17.1562C35.0469 17.1562 34.9844 17.1172 34.9219 17.0547C34.9219 17.0547 34.8438 17.1875 34.75 17.2891C34.75 17.2891 34.6719 17.1797 34.5391 17.1172C34.5391 17.1172 34.3359 17.3516 34.2188 17.4297C34.2188 17.4297 34.0938 17.3125 33.9766 17.2734C33.9766 17.2734 33.9531 17.5859 33.7109 17.7422C33.7109 17.7422 33.6641 17.6484 33.5 17.5859C33.5 17.5859 33.3828 17.7734 33.1172 17.9375V17.9453Z" fill="#5A3719"/>
<path d="M32.5391 17.4609C32.5391 17.4609 32.4062 17.5625 32.4922 17.6719C32.5781 17.7812 32.5859 17.6484 32.6953 17.6484C32.8047 17.6328 34.1484 17.3984 32.9297 17.0391C32.9297 17.0391 32.9766 16.9844 33.1875 16.9766C33.3984 16.9453 34.1641 16.7422 33.8125 16.4688C33.4531 16.2031 33.1484 16.5625 33.4531 16.2344C33.6875 15.9766 33.5 15.8516 33.5 15.8516L32.6406 16.4141C32.4844 16.4922 32.25 16.6719 32.5234 16.75C32.7891 16.8281 32.9688 16.4609 32.9922 16.5469C33.0156 16.625 32.4531 16.9375 32.5391 17.0859C32.6172 17.2266 32.6016 17.3516 32.7344 17.3203C32.875 17.2969 33.25 17.3906 32.9453 17.3828C32.6406 17.3672 32.5391 17.4609 32.5391 17.4609Z" fill="#5A3719"/>
<path d="M33.0234 16.7812C33.0234 16.7812 32.8984 16.875 33.0625 16.8281C33.2266 16.7812 33.5547 16.7109 33.5 16.6328C33.4297 16.5391 33.2188 16.6406 33.0312 16.7891L33.0234 16.7812Z" fill="black"/>
<path d="M35.1875 15.3828C35.1875 15.3828 35.8125 15.3594 36.0703 15.5391C36.3281 15.7109 36.4531 15.8281 36.5313 15.8516C36.5313 15.8516 36.5156 16.0859 36.1172 15.9141C36.1172 15.9141 36.1406 16.0312 36.0938 16.1484C36.0938 16.1484 35.9453 16.0391 35.7812 16.0078C35.7812 16.0078 35.7422 16.0938 35.6953 16.1484C35.6953 16.1484 35.5156 15.9688 35.3047 15.9141L35.2422 16.0391C35.2422 16.0391 35.0234 15.9062 34.8516 15.9062C34.8516 15.9062 34.8906 16.0391 34.8516 16.1016C34.8516 16.1016 34.4063 15.7344 34 15.7812C34 15.7812 34.1953 16.0703 34.3203 16.2109C34.3203 16.2109 33.5 16.1484 33.6406 15.7031C33.7734 15.2656 33.6328 15.375 34.1641 15.3828H35.1875Z" fill="#7B3C20"/>
<path d="M31.3516 16.6016C31.3516 16.6016 31.2578 16.6797 31.3516 16.7422C31.4453 16.8047 31.7656 16.5703 31.8125 16.5391C31.8594 16.5 31.9688 16.5078 31.8125 16.6328C31.6562 16.7578 31.5 16.8828 31.3828 17.0156C31.3828 17.0156 31.9297 16.8594 32.2812 16.5625C32.6328 16.25 32.2656 16.4531 32.8672 16.1641C33.4687 15.8672 33.7812 15.4062 33.4609 15.4609C33.1406 15.5078 32.8438 15.875 32.5938 16.0156C32.3438 16.1562 32.2031 16.1719 32.2422 16.0938C32.2812 16.0156 32.4609 16.0391 32.8125 15.7656C33.1562 15.4844 33.0781 15.5156 33.0781 15.4141C33.0781 15.3125 32.9531 15.0703 33.4688 14.7969C33.9922 14.5234 35.6094 13.5859 35.75 13.25C35.75 13.25 35.2812 13.3047 34.6562 13.7656C34.3109 14.0531 33.9334 14.2996 33.5312 14.5C33.3594 14.5625 33.375 14.5156 33.2734 14.6562C33.0034 14.9385 32.7219 15.2095 32.4297 15.4688C32.3203 15.5469 32.2812 15.6094 32.2734 15.7812C32.2734 15.8672 31.5703 16.4062 31.3594 16.6016H31.3516Z" fill="#5A3719"/>
<path d="M33.4922 15.3672C33.4922 15.3672 33.3594 15.4141 33.25 15.3672C33.1328 15.3047 33.1719 15.0547 33.4531 14.9062C33.7825 14.7269 34.1347 14.5929 34.5 14.5078C34.5 14.5078 34.4609 14.8203 33.6562 15.1016C33.6562 15.1016 33.7109 15.2578 33.4922 15.3672Z" fill="#5A3719"/>
<path d="M33.7734 15.1562C33.7734 15.1562 33.7969 15.2344 33.7734 15.3047C33.7734 15.3047 35.2578 15.4453 36.0391 14.5391C36.0391 14.5391 34.9766 14.6406 34.5547 14.8906C34.5547 14.8906 34.8281 14.5625 35.6172 14.2891C36.4062 14.0156 36.7344 13.6641 36.8047 13.4844C36.8047 13.4844 35.7891 13.8359 35.3203 13.8359C35.3203 13.8359 35.2266 13.8359 35.1328 13.8828C35.0391 13.9375 34.4062 14.3984 34.2344 14.4766C34.2344 14.4766 34.5938 14.4453 34.7188 14.3359C34.7188 14.3359 34.4688 15 33.7734 15.1562Z" fill="#AA5323"/>
<path d="M30.9141 16.0078C30.9141 16.0078 30.7188 16.1484 30.7969 16.2109C30.875 16.2812 31.0156 16.2891 31.3047 16.0547C31.6016 15.7969 32.3125 15.1953 31.8594 15.1719C31.8594 15.1719 31.2891 15.1328 31.3125 15.4844C31.3281 15.8359 30.9375 15.9844 30.9141 16.0078ZM29.5859 15.7969C29.5859 15.7969 29.9688 16.0234 29.8203 16.2031C29.8203 16.2031 30.9844 15.2188 30.6484 15C30.3359 14.7891 30.0781 15.1953 30.1562 15.2344C30.2344 15.2734 30.3984 15.2031 30.3438 15.2734C30.104 15.4658 29.8507 15.6407 29.5859 15.7969ZM29.2812 15.4844C29.2812 15.4844 29.5391 15.5625 29.5547 15.6719C29.5547 15.7734 30.3203 15.1328 30.1172 14.8594C30.0234 14.7422 29.6094 14.6875 29.5859 14.9375C29.5625 15.1719 29.9688 14.9062 29.8203 15.0781C29.6484 15.3125 29.3438 15.4453 29.2812 15.4844ZM32 14.9453C32 14.9453 31.8438 15.0625 31.9922 15.1328C32.1406 15.2031 32.2266 15.0938 32.3047 15.0312C32.375 14.9609 32.7344 14.6953 32.8125 14.5312C32.9062 14.3594 33.0234 14.3047 33.1562 14.2188C33.2891 14.1406 34.2109 13.6719 34.7812 13.1641C35.3516 12.6562 35.1094 12.7891 35.6953 12.4609C36.2812 12.1328 36.6719 11.8359 36.7969 11.4766C36.7969 11.4766 36.5234 11.5703 36.2891 11.7266C36.0469 11.8828 35.5078 12.2188 35.3906 12.2734C35.2812 12.3125 35.1406 12.3203 35.0547 12.4063C34.9766 12.4922 34.9766 12.5938 34.6953 12.8281C34.4062 13.0625 32.9453 14.0938 32.7656 14.2422C32.5061 14.4718 32.2508 14.7062 32 14.9453Z" fill="#5A3719"/>
<path d="M30.8281 15.2891C30.8281 15.2891 30.9844 15.2031 31.2891 15.2266C31.5859 15.2422 32.7734 14.0859 33.1172 13.8594C33.6509 13.4944 34.172 13.1114 34.6797 12.7109C34.8359 12.5625 34.8594 12.4141 34.9844 12.3281C35.1094 12.25 35.2266 12.2578 35.5156 12.0938C35.8047 11.9297 37.2031 11.0938 37.125 10.6094C37.125 10.6094 35.0391 11.8516 34.5625 12.2578C33.8978 12.7775 33.2124 13.2701 32.5078 13.7344C32.2734 13.8906 32.0859 14.1406 31.6875 14.4688C31.2891 14.7812 30.8906 15.0625 30.8281 15.2891Z" fill="#AA5323"/>
<path d="M30.3906 14.8438C30.3906 14.8438 30.7734 14.8047 30.8281 15C30.8281 15 31.6484 14.4297 31.8438 14.1953C32.0312 13.9609 31.7734 14.0938 32.2422 13.7891C33.0095 13.2789 33.7624 12.7475 34.5 12.1953C34.7188 12 35.1484 11.7422 35.4844 11.5078C35.8281 11.2812 37.1484 10.6328 37 10.1016L35.8125 10.8906C35.5938 11.0391 35.5 10.9531 35.2812 11.125C35.0469 11.3047 34.5625 11.6484 34.4766 11.7656C34.0957 12.0951 33.6966 12.4028 33.2812 12.6875C32.9141 12.9219 32.1094 13.3984 31.7109 13.7422C31.2745 14.1143 30.8317 14.479 30.3828 14.8359L30.3906 14.8438Z" fill="#AA5323"/>
<path d="M29.1953 14.7344C29.1953 14.7344 29.3828 14.7344 29.4531 14.8125C29.4531 14.8125 29.8047 14.4922 30.1875 14.8125C30.1875 14.8125 31.5938 13.8516 31.7344 13.6172C31.875 13.3828 32.1094 13.375 32.6484 12.9766C33.1953 12.5781 33.5391 12.4063 33.8984 12.1328C34.2656 11.8438 34.5781 11.5234 34.8359 11.3516C35.0938 11.1875 35.7578 10.75 35.6484 10.3828C35.6484 10.3828 35.1094 10.6797 34.7656 11.0625C34.4141 11.4531 34.4531 11.125 34.0938 11.4375C33.6824 11.8198 33.2259 12.1504 32.7344 12.4219C32.2812 12.6484 32.5547 12.625 32.2188 12.8359C31.8984 13.0469 31.9219 13.0156 31.7969 13.0469C31.6342 13.0857 31.4872 13.1729 31.375 13.2969C31.1285 13.5071 30.8585 13.688 30.5703 13.8359C30.0822 14.0943 29.6192 14.3977 29.1875 14.7422L29.1953 14.7344Z" fill="#AA5323"/>
<path d="M29.6094 14.0078C29.6094 14.0078 29.5391 13.8516 29.6719 13.7344C29.8047 13.625 30.0625 13.3281 30.0938 13.1484C30.1328 12.9531 30.1016 12.9922 30.4844 12.8281C31.6134 12.3556 32.6831 11.7526 33.6719 11.0312C33.8281 10.9062 34.2188 10.6406 34.3672 10.5156C34.3672 10.5156 34.4375 10.7188 34.2656 10.8672C33.6914 11.3136 33.0914 11.7258 32.4688 12.1016C32.2891 12.2031 31.8438 12.4297 31.6797 12.5703C31.5234 12.6953 31.5469 12.7344 30.8281 13.0859C30.1172 13.4297 30.0859 13.4766 30.1016 13.5C30.125 13.5312 30.4453 13.3906 30.6016 13.2969C30.7578 13.2109 31.3359 12.9375 31.5156 12.7969C31.6875 12.6562 31.9844 12.4453 32.1094 12.375C32.2344 12.3125 33.2812 11.6719 33.5938 11.4453C33.8906 11.2266 33.9766 11.1562 34.0391 11.1953C34.1016 11.2266 34.2109 11.2266 34.0781 11.3516C33.9453 11.4766 33.5156 11.8672 33.3516 11.9766C33.1875 12.0781 32.6719 12.3828 32.5312 12.4531C32.3906 12.5312 32.3359 12.6641 32.25 12.7266C32.1719 12.7891 31.9375 12.9453 31.6563 13.0078C31.375 13.0703 31.3281 13.2891 31.1406 13.4141C30.9531 13.5312 29.6328 14.2422 29.5938 14.2734C29.5938 14.2734 29.6719 14.1953 29.6172 14.0078H29.6094Z" fill="#AA5323"/>
<path d="M34.1797 11.0391C34.1797 11.0391 34.1094 11.1016 34.1484 11.1406C34.1953 11.1953 34.3828 11.3203 34.6172 11.0938C34.9443 10.7864 35.2943 10.5044 35.6641 10.25C35.8516 10.1328 35.9531 10.0234 35.9453 9.85938C35.9453 9.85938 35 10.3672 34.1797 11.0391ZM35.4844 10.9609C35.4844 10.9609 35.625 10.7109 35.9844 10.4844C36.3438 10.25 36.8828 9.92188 36.9453 9.84375C36.9453 9.84375 37.0703 9.98438 36.7969 10.1641C36.496 10.3533 36.1991 10.5486 35.9062 10.75C35.7807 10.8454 35.6372 10.9145 35.4844 10.9531V10.9609Z" fill="#AA5323"/>
<path d="M28.2344 13.5938C28.2344 13.5938 27.8438 13.8047 27.9844 13.9375C28.125 14.0625 28.3359 14.0234 28.4297 13.9844C28.5078 13.9531 28.6797 13.9062 28.7031 13.9062C28.7266 13.8984 29.0703 13.7969 29.1641 13.6328C29.2422 13.4766 29.4766 13.2891 29.6641 13.1641C29.8516 13.0312 29.9219 12.8906 29.8906 12.7969C29.8906 12.7969 28.3281 13.5312 28.2344 13.5938ZM25.875 15.4219C25.875 15.4219 26.1562 15.2578 26.5391 15.3594C26.5391 15.3594 26.5234 15.2734 26.4609 15.2188C26.4609 15.2188 26.9297 15.1016 27.0312 14.8906C27.1328 14.6797 27.1562 14.7344 27.2422 14.6719C27.3359 14.6094 27.9609 14.1016 27.8906 13.9922C27.8125 13.8828 27.8047 13.7422 27.75 13.6875C27.75 13.6875 27.625 13.8672 27.0078 14.1562C26.3984 14.4609 25.7187 14.6797 25.2187 15.3437C24.7266 16.0156 24.7812 16.3984 25.3828 16.5703C25.3828 16.5703 25.8047 16.3047 26.8438 16.3906C27.8828 16.4922 28.2344 16.875 28.3047 16.9453C28.3672 17.0234 28.5781 17.2734 28.375 17.7109C28.375 17.7109 28.5859 17.7969 28.5938 17.6016C28.6172 17.3984 28.625 17.4453 28.6719 17.4688C28.7266 17.5078 28.7812 17.5078 28.75 17.3594C28.7344 17.2031 28.6719 16.8672 28.5625 16.75C28.4766 16.6328 28.5859 16.6875 28.6406 16.7031C28.7031 16.7344 28.9219 16.9141 28.7969 16.5781C28.6641 16.2656 28.625 16.4219 28.6172 16.4297C28.6172 16.4531 28.5938 16.5312 28.3047 16.3203C28.0853 16.1508 27.8362 16.0237 27.5703 15.9453C27.3828 15.8984 27.5156 15.8984 27.6328 15.8594C27.75 15.8125 27.8906 15.7969 27.9453 15.6641C27.9453 15.6641 27.8359 15.6953 27.6328 15.6172C27.4703 15.5695 27.2989 15.5601 27.1321 15.59C26.9653 15.6198 26.8078 15.688 26.6719 15.7891C26.6719 15.7891 26.7734 15.3984 26.4687 15.4219C26.1562 15.4453 25.9531 15.4375 25.625 15.6953C25.625 15.6953 25.6094 15.3047 25.9141 15.1016C26.2266 14.8984 26.1797 15.0234 26.3516 14.9688C26.5234 14.9219 26.5391 14.75 26.4609 14.6875C26.4609 14.6875 26.8672 14.7656 27.5391 14.2031C27.5391 14.2031 27.1719 14.6719 26.7344 14.7734C26.7344 14.7734 26.6641 15.0312 26.2656 15.0859C25.875 15.1328 25.8828 15.3672 25.8828 15.4219H25.875Z" fill="#7B3C20"/>
<path d="M24.7344 17.7344C24.7344 17.7344 24.9219 16.5547 26.0312 16.4688C26.9844 16.3906 27.2969 16.5156 27.4844 16.5781C27.6719 16.6406 28.1484 16.7734 27.9609 16.9297C27.7812 17.0781 27.6797 17.0547 27.6797 17.0547C27.6797 17.0547 27.8828 16.8203 27.6953 16.7734C27.5 16.7422 27.4922 16.8516 27.4609 16.9453C27.4297 17.0547 27.4297 17.1641 27.3281 17.2422C27.3281 17.2422 27.2344 17.1328 27.0937 17.2266C26.9531 17.3203 27.0781 17.3281 27.1328 17.3125C27.1875 17.2969 27.2578 17.2656 27.2422 17.3594C27.2266 17.4375 27.1562 17.5938 26.9297 17.7109C26.6953 17.8203 26.7031 17.8203 26.4375 17.8672C26.1641 17.9062 25.9141 18.0156 25.5703 18.3047C25.2187 18.6094 24.8438 18.5078 24.7656 18.1797C24.7031 17.8906 24.7344 17.7344 24.7344 17.7344Z" fill="#5A3719"/>
<path d="M25.9922 17.6875C25.9922 17.6875 26.0938 17.4531 25.9141 17.3516C25.9141 17.3516 25.3359 17.4531 25.1562 17.2812C25.1562 17.2812 25.7812 17.2422 26.1719 17.0859C26.5625 16.9453 26.4531 16.8359 26.3203 16.8047C26.1797 16.7812 25.9297 16.8438 25.9062 16.9609C25.9062 16.9609 25.8281 16.8438 25.9297 16.75C26.0312 16.6641 26.1797 16.6484 26.3203 16.6875C26.4609 16.7266 26.5781 16.7891 27.0312 16.5547C27.0312 16.5547 27.2969 16.6172 27.3047 16.7891C27.3047 16.9688 27.2891 17.0391 27.2578 17.0625C27.2422 17.0938 27.2109 17.1406 27.1562 17.1406C27.1016 17.1406 27.0234 17.125 26.9609 17.2422C26.8984 17.3672 26.8516 17.4766 26.7344 17.5547C26.7344 17.5547 26.8672 17.1719 26.5312 17.0859C26.5312 17.0859 26.2578 17.2422 26.0469 17.2578C26.0469 17.2578 26.3203 17.5078 25.9844 17.6875H25.9922Z" fill="black"/>
<path d="M26.5937 16.9844C26.5937 16.9844 26.4687 16.8516 26.6328 16.8281C26.8047 16.8281 27.0234 16.9453 26.9766 17.0547C26.9375 17.1562 26.7422 17.1484 26.5937 16.9844Z" fill="#5A3719"/>
<path d="M36.0469 15.1328C36.0469 15.1328 35.7344 15.2188 36.0234 15.4141C36.3047 15.6016 36.4453 15.7656 36.6484 15.8125C36.8594 15.8672 37.0703 15.9375 37.0703 16.1484C37.0703 16.3516 37.0234 16.4375 36.9141 16.5781C36.7969 16.7266 36.9766 16.7812 37.125 16.7031L37.5 16.5234C37.5938 16.4609 37.7578 16.4688 37.6172 16.5469C37.4609 16.625 37.3047 16.6719 37.5 16.6719C37.6875 16.6797 38.8516 16.7031 39.0938 16.625C39.3359 16.5469 39.6562 16.5234 39.6797 16.2109C39.6797 16.2109 39.6953 16.0703 39.7812 16.0078C39.875 15.9453 39.9375 15.8125 39.8047 15.8984C39.6719 16 39.5703 16.0391 39.5469 16.0156C39.5234 15.9844 39.5078 15.9688 39.6094 15.9219C39.7031 15.875 39.7578 15.9219 39.8438 15.7969C39.9375 15.6562 39.9297 15.6797 39.8828 15.625C39.8359 15.5781 39.7266 15.5469 39.7812 15.4844C39.8359 15.4141 39.8828 15.2266 39.6719 15.3281C39.4609 15.4453 39.0391 15.7344 38.8359 15.7813C38.6484 15.8281 38.5 15.8828 38.2422 15.9375C37.995 15.9876 37.7576 16.0773 37.5391 16.2031C37.2578 16.3594 37.2812 16.1094 37.3281 16.0781C37.3281 16.0781 37.4375 16.2734 37.7188 16.0234C38 15.7813 37.9062 16.0078 38.6016 15.7813C39.2891 15.5547 39.125 15.5156 39.3906 15.3828C39.6719 15.2422 39.9219 15.2266 39.7344 15.0391C39.5391 14.8516 39.5234 14.8359 39.2812 15.0391C38.8919 15.3308 38.435 15.5189 37.9531 15.5859C37.9531 15.5859 39.5156 14.9141 39.3594 14.8203C39.2218 14.7291 39.0718 14.658 38.9141 14.6094C38.8047 14.5781 38.7734 14.5547 38.5234 14.6719C38.2734 14.7813 38.2344 14.8047 38.1641 14.8125C38.0859 14.8125 37.875 14.8594 37.5781 15.0156C37.2813 15.1719 37.125 15.2344 36.9141 15.3516C36.9141 15.3516 37.0547 15.0703 37.6797 14.8828C38.2891 14.7031 38.6016 14.5391 38.5391 14.5078C38.4766 14.4766 38.3125 14.4375 38.2031 14.4688C38.0859 14.4844 38.125 14.4531 37.7344 14.6094C37.3672 14.75 37.5234 14.7188 37.2266 14.7891C36.9141 14.8516 36.7969 14.9141 36.6484 14.9766C36.6484 14.9766 36.7109 14.8984 36.9141 14.8203C37.0234 14.7891 36.7969 14.7422 37.0938 14.7344H37.1719C37.4229 14.6807 37.665 14.5913 37.8906 14.4688C37.8281 14.4531 37.4688 14.4141 37.0938 14.5938C36.7266 14.7578 36.8906 14.7031 36.7656 14.7188C36.6406 14.75 36.3594 14.9219 36.2656 15C36.1719 15.0781 36.0469 15.1328 36.0469 15.1328Z" fill="white"/>
<path d="M26.8828 16.8203C26.8828 16.8203 27.0312 16.8672 27.0703 16.9688C27.1094 17.0703 27.1953 16.9219 27.1953 16.875C27.1953 16.8359 27.1016 16.625 26.9453 16.7188C26.7891 16.8125 26.8672 16.8125 26.8828 16.8203Z" fill="#5A3719"/>
<path d="M26.4844 18.8359C26.4844 18.8359 26.7891 18.6953 27.0547 18.7109C27.0547 18.7109 26.9453 18.3438 27.1328 18.3984C27.3125 18.4688 27.2578 18.4453 27.2969 18.4453C27.2969 18.4453 27.3125 18.2031 27.2578 18.1016C27.2578 18.1016 27.4531 18.1484 27.6406 18.1484C27.6406 18.1484 27.4609 17.8047 27.6562 17.5625C27.6922 17.632 27.742 17.6934 27.8024 17.7431C27.8628 17.7928 27.9327 17.8297 28.0078 17.8516V17.6484C28.0078 17.6484 28.1484 17.6328 28.2656 17.6875C28.375 17.75 28.4688 17.0625 28.1328 16.9062C28.1328 16.9062 28.0547 17.0391 27.7422 17.1016C27.4297 17.1641 27.4297 17.2266 27.3047 17.4688C27.1797 17.7109 27.0703 17.7031 26.7969 17.875C26.6096 18.018 26.4618 18.2061 26.3672 18.4219C26.3672 18.4219 26.5 18.5781 26.4844 18.8359Z" fill="#7B3C20"/>
<path d="M36.9141 14.8203C37.0234 14.8047 36.7969 14.7422 37.0938 14.7344H37.1719C37.4229 14.6807 37.665 14.5913 37.8906 14.4688C37.8281 14.4531 37.4688 14.4141 37.0938 14.5859C36.7188 14.7578 36.8906 14.7031 36.7656 14.7266C36.5849 14.7892 36.4159 14.8817 36.2656 15C36.1719 15.0781 36.0469 15.1328 36.0469 15.1328C36.0469 15.1328 35.7344 15.2188 36.0234 15.4141C36.3047 15.6016 36.4453 15.7656 36.6484 15.8125C36.8594 15.8672 37.0703 15.9375 37.0703 16.1484C37.0749 16.2269 37.0633 16.3055 37.0365 16.3794C37.0096 16.4533 36.968 16.5209 36.9141 16.5781C36.7969 16.7266 36.9766 16.7812 37.125 16.7031L37.5 16.5234C37.5938 16.4609 37.7578 16.4688 37.6094 16.5469C37.4531 16.625 37.3047 16.6719 37.5 16.6719C37.6875 16.6797 38.8516 16.7031 39.0938 16.625C39.3359 16.5469 39.6562 16.5234 39.6797 16.2109C39.6797 16.2109 39.6953 16.0703 39.7812 16.0078C39.875 15.9453 39.9375 15.8125 39.8047 15.8984C39.6719 16 39.5703 16.0391 39.5469 16.0156C39.5234 15.9844 39.5078 15.9688 39.6094 15.9219C39.7031 15.875 39.7578 15.9219 39.8438 15.7969C39.9375 15.6562 39.9297 15.6797 39.8828 15.625C39.8516 15.6016 39.8125 15.5859 39.7969 15.5547C39.7969 15.5547 39.7188 15.4922 39.6406 15.5469C39.4587 15.6455 39.2642 15.7191 39.0625 15.7656C38.9219 15.7812 38.7656 15.8437 38.5156 15.9687C38.2656 16.0937 37.8281 16.3594 37.7578 16.1094L37.5391 16.2031C37.25 16.3516 37.2734 16.1406 37.3281 16.0781C37.3281 16.0781 37.1719 16.25 37.1797 16.1016C37.1797 15.9453 37.2812 15.9687 37.4531 15.9219C37.6172 15.8672 37.8828 15.7656 37.7734 15.6719C37.6641 15.5859 37.5469 15.7656 37.4297 15.8203C37.3047 15.875 37.0625 15.9219 37.0234 15.7422C36.9844 15.5703 36.9844 15.4453 36.6641 15.4297C36.3359 15.4141 36.3438 15.2031 36.4297 15.1172C36.5312 15.0312 36.6016 14.8828 36.9141 14.8203Z" fill="#999999"/>
<path d="M37.9609 16.4062C37.9609 16.4062 38.4688 16.1797 38.9375 16.0703C39.4062 15.9609 39.0391 16.0859 38.9609 16.1094C38.8828 16.1328 38.1484 16.375 37.9766 16.4609C37.8047 16.5391 37.8359 16.4687 37.9609 16.4219V16.4062ZM38.0703 16.5234C38.0703 16.5234 38.6484 16.3281 38.7578 16.4062C38.8672 16.4844 38.7734 16.4531 38.6484 16.4688C38.5234 16.4844 38.1797 16.5469 38.0859 16.5469C37.9922 16.5469 38.0703 16.5234 38.0703 16.5234ZM39 16.3203C39 16.3203 39.1094 16.2969 39.1172 16.3437C39.125 16.3828 39.0703 16.3906 39.0078 16.3828C38.9453 16.3672 38.8984 16.3359 39 16.3203Z" fill="black"/>
<path d="M23.8281 21.3281C23.8281 21.3281 23.8047 20.8203 24.0625 20.5625C24.3203 20.3047 25.5469 19.0234 25.7344 18.6641C25.7344 18.6641 25.8906 18.7734 25.8984 18.9766C25.8984 18.9766 26.1094 18.625 26.2734 18.4844C26.2734 18.4844 26.4219 18.6406 26.3984 18.9375C26.3984 18.9375 26.6953 18.7812 27.1562 18.7812C27.1562 18.7812 26.9766 18.9688 26.9766 19.0938C26.9766 19.0938 27.6094 19.0156 27.9531 19.0781C27.9531 19.0781 27.0703 19.5625 27.3125 19.6094C27.5703 19.6562 27.8203 19.6094 27.8203 19.6094C27.8203 19.6094 27.5391 19.8906 27.0938 19.9453C27.0938 19.9453 27.6641 19.9453 27.7812 20.0703C27.7812 20.0703 27.2266 20.1484 26.7812 20.4922C26.7812 20.4922 26.7344 20.4688 26.7344 20.3438C26.7344 20.3438 26.7188 20.4609 26.5938 20.5703C26.4609 20.6719 26.1641 20.8984 26.0469 21.0156C25.9375 21.125 25.7344 21.3516 25.5 21.3438C25.5 21.3438 25.5469 21.1641 25.3828 21.1094C25.2974 21.0807 25.2056 21.0773 25.1183 21.0995C25.031 21.1216 24.952 21.1685 24.8906 21.2344C24.8906 21.2344 24.2969 21.25 24.1016 21.2734C24.1016 21.2734 24.2344 21.0625 24.3594 21.0625C24.4844 21.0625 24.9844 21.1406 25.0312 20.7969C25.0703 20.4609 24.7109 20.5469 24.8438 20.3516C24.9844 20.1484 24.9531 20.1562 24.9609 20.1328C24.9609 20.1328 24.8438 20.1953 24.7813 20.375C24.7267 20.5779 24.6022 20.755 24.4297 20.875C24.2637 20.9793 24.1245 21.1211 24.0234 21.2891C24.0234 21.2891 23.9141 21.3047 23.8203 21.3281H23.8281Z" fill="white"/>
<path d="M24.3984 21.0156C24.3984 21.0156 24.4141 20.9609 24.5859 20.9219C24.7656 20.8906 24.7812 20.8125 24.75 20.7656C24.7266 20.7422 24.625 20.7422 24.7891 20.5391C24.7891 20.5391 24.8516 20.5625 24.8906 20.6094C24.9375 20.6562 25.125 21.0625 24.3984 21.0234V21.0156Z" fill="white"/>
<path d="M23.9844 20.6641C23.9844 21 24.4297 20.875 24.4297 20.875C24.3116 20.9581 24.2041 21.0551 24.1094 21.1641C24.1406 21.0078 23.8594 20.9609 23.8594 20.9609C23.885 20.856 23.9272 20.7557 23.9844 20.6641ZM25.5938 18.8672L25.7344 18.6641C25.7344 18.6641 25.8906 18.7734 25.8984 18.9766C25.8984 18.9766 26.1094 18.625 26.2734 18.4844C26.2734 18.4844 26.4219 18.6406 26.3984 18.9375C26.3984 18.9375 26.6953 18.7812 27.1562 18.7812C27.1562 18.7812 26.9766 18.9688 26.9766 19.0938C26.9766 19.0938 27.6094 19.0156 27.9531 19.0781C27.9531 19.0781 27.0703 19.5625 27.3125 19.6094C27.5703 19.6562 27.8203 19.6094 27.8203 19.6094C27.8203 19.6094 27.5391 19.8906 27.0938 19.9453C27.0938 19.9453 27.6641 19.9453 27.7812 20.0703C27.7812 20.0703 27.6094 20.0938 27.3906 20.1719C27.3906 20.1719 27.2344 20.0156 26.7578 20.0469C26.7578 20.0469 27.125 19.8359 27.4219 19.7656C27.4219 19.7656 27.2969 19.6016 27.0859 19.75C27.0859 19.75 26.6875 19.4766 27.0234 19.2422C27.0234 19.2422 26.7891 19.1953 26.6328 19.3047C26.6328 19.3047 26.6328 19.1094 26.8047 19.0312C26.8047 19.0312 26.3594 18.9531 26.2578 19.2812C26.2578 19.2812 26.1641 19.1484 26.2109 19C26.2109 19 25.9375 19.1562 25.8125 19.3281C25.8125 19.3281 25.7656 18.9922 25.5938 18.8672ZM24.7344 21C24.6562 21.0234 24.5391 21.0312 24.3984 21.0234C24.3984 21.0234 24.4063 20.9766 24.5078 20.9453C24.5078 20.9453 24.5312 21 24.7266 21" fill="#999999"/>
<path d="M25.5469 19.7344C25.5469 19.7344 25.75 19.8906 25.8203 19.9844C25.8203 19.9844 26.0078 19.8594 26.0703 19.75C26.0703 19.75 26.2266 19.8438 26.2656 19.9844C26.2656 19.9844 26.375 19.9219 26.3906 19.8281C26.3906 19.8281 26.6484 19.875 26.7344 19.9531C26.7344 19.9531 26.7734 19.7188 26.7344 19.5547C26.7344 19.5547 26.9141 19.5703 27.0234 19.6172C27.0234 19.6172 26.9219 19.4531 27.4375 19.2422C27.4375 19.2422 27.0469 19.3281 26.8906 19.4922C26.8906 19.4922 26.7344 19.5078 26.6563 19.4609V19.8281C26.6563 19.8281 26.5625 19.7812 26.3672 19.7344C26.3672 19.7344 26.3203 19.8203 26.2891 19.8438C26.2891 19.8438 26.1563 19.7344 26.1094 19.6172C26.1094 19.6172 25.9141 19.7891 25.8516 19.8594C25.8516 19.8594 25.6641 19.7344 25.5391 19.7344H25.5469Z" fill="black"/>
<path d="M24.375 22.2812C24.375 22.2812 24.4531 22.3203 24.6406 22.1641C24.8281 22.0078 25.3672 21.6719 25.4141 21.3984C25.4688 21.125 25.2422 21.1094 25.0703 21.1875C24.8906 21.2656 24.9688 21.4219 24.9766 21.4687C24.9766 21.5156 24.9922 21.7031 24.7031 21.9688L24.3672 22.2812H24.375Z" fill="#FFC221"/>
<path d="M24.3125 22.3594C24.3125 22.3594 23.8828 22.1797 24.2656 21.9922C24.6484 21.8047 24.8203 21.75 24.8672 21.5859C24.9141 21.4297 24.8906 21.4531 24.7422 21.5156C24.6016 21.5859 24.0547 21.8359 23.9766 21.6016C23.9766 21.6016 24.1953 21.6875 24.4766 21.5547C24.7578 21.4141 24.9922 21.375 24.8125 21.3203C24.6328 21.2656 23.9844 21.3359 23.8828 21.3672C23.7734 21.3984 23.8047 21.3906 23.7812 21.4922C23.7656 21.6016 23.6484 21.8281 23.6016 21.8828C23.5625 21.9531 23.4453 22.2266 23.6484 22.3516C23.7503 22.4062 23.8639 22.4354 23.9795 22.4368C24.0951 22.4381 24.2093 22.4116 24.3125 22.3594Z" fill="#FFC221"/>
<path d="M24.1406 21.4297C24.1406 21.4297 24.0469 21.4453 24.0625 21.4844C24.0859 21.5156 24.1094 21.5156 24.1406 21.5156C24.1797 21.5156 24.2344 21.4922 24.2422 21.4766C24.2422 21.4453 24.1797 21.4141 24.1484 21.4297H24.1406Z" fill="black"/>
<path d="M24.2812 22.2656C24.2812 22.2656 24.0859 22.1719 24.3125 22.0469C24.5469 21.9219 24.7812 21.7969 24.8203 21.75C24.8203 21.75 24.7109 21.9062 24.2891 22.2656H24.2812Z" fill="white"/>
</g>
<defs>
<clipPath id="clip0_17544_57956">
<path d="M0 20C0 8.95431 8.95431 0 20 0C31.0457 0 40 8.95431 40 20C40 31.0457 31.0457 40 20 40C8.95431 40 0 31.0457 0 20Z" fill="white"/>
</clipPath>
</defs>
</svg>
