<svg width="40" height="40" viewBox="0 0 40 40" fill="none" xmlns="http://www.w3.org/2000/svg">
<g clip-path="url(#clip0_17544_57871)">
<path fill-rule="evenodd" clip-rule="evenodd" d="M0 0H40V20.2969H0V0Z" fill="#FF0000"/>
<path fill-rule="evenodd" clip-rule="evenodd" d="M0 19.7031H40V40H0V19.7031Z" fill="#000001"/>
<path fill-rule="evenodd" clip-rule="evenodd" d="M17.8672 11.5781C30.7734 14.9609 22.4766 31.5469 12.2969 24.6406L11.6094 25.7031C17.6016 29.9688 23.5312 26.5312 25.2031 22.0781C26.9375 17.4844 24.6094 11.0234 17.9688 10.3594L17.8672 11.5781Z" fill="#FFEC00"/>
<path fill-rule="evenodd" clip-rule="evenodd" d="M13.2812 25.8438L14.9766 26.6328L14.1797 28.3359L12.4844 27.5391L13.2812 25.8438ZM24.9219 18.0703H26.7969V19.9453H24.9219V18.0703ZM24.0078 15.0312L25.75 14.3594L26.4297 16.1016L24.6875 16.7812L24.0078 15.0312ZM21.9766 12.7578L23.3125 11.4375L24.6328 12.7656L23.3047 14.0859L21.9766 12.7578ZM19.9297 9.64844L21.6797 10.3047L21.0156 12.0547L19.2656 11.3984L19.9297 9.64844ZM24.6875 21.0938L26.4297 21.7891L25.7266 23.5234L23.9922 22.8281L24.6875 21.0938ZM19.2266 26.5625L20.9453 25.8359L21.6875 27.5547L19.9688 28.2891L19.2266 26.5625ZM16.1406 26.7812H18.0156V28.6562H16.1406V26.7812ZM19.3672 17.7188L17.7812 16.5469L16.1953 17.6875L16.8203 15.8906L15.2344 14.7188H17.1484L17.8125 12.9531L18.4219 14.7266L20.3516 14.7031L18.8203 15.8984L19.3672 17.7188Z" fill="#FFEC00"/>
<path fill-rule="evenodd" clip-rule="evenodd" d="M26.25 27.0625C26.1562 27.0938 25.7656 28.0312 25.4922 28.4844L25.7812 28.5625C26.8438 28.9375 27.375 29.2812 27.8281 29.9297C27.9329 30.0318 28.0706 30.0933 28.2165 30.1033C28.3625 30.1133 28.5072 30.0712 28.625 29.9844C28.625 29.9844 28.8438 29.9062 29.125 29.5938C29.3594 29.2422 29.2969 28.9688 29.0156 28.7266C28.1562 28.1016 27.2266 27.6328 26.25 27.0625Z" fill="#FFEE00"/>
<path fill-rule="evenodd" clip-rule="evenodd" d="M28.5391 29.125C28.5391 29.2151 28.5033 29.3016 28.4395 29.3653C28.3758 29.429 28.2894 29.4648 28.1992 29.4648C28.1091 29.4648 28.0226 29.429 27.9589 29.3653C27.8952 29.3016 27.8594 29.2151 27.8594 29.125C27.8594 29.0359 27.8948 28.9505 27.9578 28.8875C28.0208 28.8245 28.1062 28.7891 28.1953 28.7891C28.2844 28.7891 28.3699 28.8245 28.4329 28.8875C28.4959 28.9505 28.5312 29.0359 28.5312 29.125H28.5391ZM26.8672 28.0625C26.8672 28.1526 26.8314 28.2391 26.7676 28.3028C26.7039 28.3665 26.6175 28.4023 26.5273 28.4023C26.4372 28.4023 26.3508 28.3665 26.287 28.3028C26.2233 28.2391 26.1875 28.1526 26.1875 28.0625C26.1875 27.9724 26.2233 27.8859 26.287 27.8222C26.3508 27.7585 26.4372 27.7227 26.5273 27.7227C26.6175 27.7227 26.7039 27.7585 26.7676 27.8222C26.8314 27.8859 26.8672 27.9724 26.8672 28.0625ZM27.7187 28.6094C27.7187 28.6995 27.6829 28.7859 27.6192 28.8497C27.5555 28.9134 27.469 28.9492 27.3789 28.9492C27.2888 28.9492 27.2023 28.9134 27.1386 28.8497C27.0749 28.7859 27.0391 28.6995 27.0391 28.6094C27.0391 28.5192 27.0749 28.4328 27.1386 28.3691C27.2023 28.3053 27.2888 28.2695 27.3789 28.2695C27.469 28.2695 27.5555 28.3053 27.6192 28.3691C27.6829 28.4328 27.7187 28.5192 27.7187 28.6094Z" fill="#000001"/>
<path fill-rule="evenodd" clip-rule="evenodd" d="M25.3516 28.4141C22.0234 26.5156 18.5312 24.4688 15.1953 22.5703C13.7344 21.6562 13.6641 19.9609 14.6484 18.6719C14.7422 18.4922 14.8672 18.5312 14.9141 18.6328C15.0312 19.2578 15.3828 19.9062 15.8047 20.3125C19.2673 22.4906 22.6974 24.72 26.0938 27C25.8281 27.4531 25.625 27.9609 25.3516 28.4062V28.4141Z" fill="#FFEE00"/>
<path fill-rule="evenodd" clip-rule="evenodd" d="M23.2188 23.8672L24.6094 25.1172L23.3594 26.5078L21.9688 25.2578L23.2188 23.8672Z" fill="#FFEC00"/>
<path fill-rule="evenodd" clip-rule="evenodd" d="M16.1934 21.2513L25.959 27.1497L25.8379 27.3503L16.0722 21.4519L16.1934 21.2513ZM21.47 23.6595L24.7591 25.7923L24.6316 25.9889L21.3425 23.8561L21.47 23.6595ZM19.5352 25.0548L22.8868 26.9923L22.7695 27.1952L19.4179 25.2577L19.5352 25.0548Z" fill="black"/>
</g>
<defs>
<clipPath id="clip0_17544_57871">
<path d="M0 20C0 8.95431 8.95431 0 20 0C31.0457 0 40 8.95431 40 20C40 31.0457 31.0457 40 20 40C8.95431 40 0 31.0457 0 20Z" fill="white"/>
</clipPath>
</defs>
</svg>
