<svg width="40" height="40" viewBox="0 0 40 40" fill="none" xmlns="http://www.w3.org/2000/svg">
<g clip-path="url(#clip0_17522_60534)">
<path d="M-3.55244e-05 -1.19209e-06H40V40H-3.55244e-05V-1.19209e-06Z" fill="#012169"/>
<path fill-rule="evenodd" clip-rule="evenodd" d="M7.23783 10L-1.3811 1.38107L1.38103 -1.38107L9.99996 7.23786L18.6189 -1.38107L21.381 1.38107L12.7621 10L21.381 18.6189L18.6189 21.3811L9.99996 12.7621L1.38103 21.3811L-1.3811 18.6189L7.23783 10Z" fill="white"/>
<path d="M-3.55244e-05 -1.19209e-06V10H23.3359V20H20L-3.55244e-05 -1.19209e-06ZM20 -1.19209e-06H9.99996V23.3359H-3.55244e-05V20L20 -1.19209e-06Z" fill="black"/>
<path fill-rule="evenodd" clip-rule="evenodd" d="M8.34268 10L-0.828676 0.82864L0.828605 -0.828642L9.99996 8.34272L19.1713 -0.828642L20.8286 0.82864L11.6572 10L20.8286 19.1714L19.1713 20.8286L9.99996 11.6573L0.828605 20.8286L-0.828676 19.1714L8.34268 10Z" fill="#C8102E"/>
<path fill-rule="evenodd" clip-rule="evenodd" d="M7.07028 7.07031V-1.19209e-06H12.9297V7.07031H23.3359V12.9297H12.9297V23.3359H7.07028V12.9297H-3.55244e-05V7.07031H7.07028Z" fill="white"/>
<path fill-rule="evenodd" clip-rule="evenodd" d="M8.04684 8.04687V-1.19209e-06H11.9531V8.04687H23.3359V11.9531H11.9531V23.3359H8.04684V11.9531H-3.55244e-05V8.04687H8.04684Z" fill="#C8102E"/>
<path d="M-3.55244e-05 20H20V-1.19209e-06H26.664V26.6641H-3.55244e-05V20Z" fill="#012169"/>
<path d="M25.2812 17.5078C25.2812 24.5703 26.0468 27 27.5781 28.6406C28.385 29.5362 29.304 30.324 30.3125 30.9844C31.3208 30.3238 32.2398 29.536 33.0468 28.6406C34.5703 27 35.3359 24.5703 35.3359 17.5078C34.2265 18.0156 33.5937 18.2656 32.6796 18.25C31.8482 18.1667 31.0426 17.9141 30.3125 17.5078C29.5823 17.9141 28.7767 18.1667 27.9453 18.25C27.0312 18.2656 26.3984 18.0156 25.289 17.5078H25.2812Z" fill="white"/>
<path d="M30.4734 21.0448C30.7031 21.6079 31.4687 22.2335 31.6678 22.5463C31.4075 22.8592 31.3615 22.8279 31.3922 23.3909C31.8515 22.9061 31.8515 22.8435 32.1578 22.9217C32.8009 23.5786 32.2803 25.0019 31.729 25.3147C31.2084 25.6432 31.3003 25.3147 30.504 25.7214C30.8562 26.0342 31.285 25.6745 31.6371 25.7683C31.8209 26.0029 31.5453 26.4096 31.6984 26.8162C32.0046 26.785 31.974 26.1437 32.0353 25.9091C32.265 25.0645 33.6278 24.4858 33.689 23.7037C33.98 23.563 34.2556 23.6568 34.6078 23.8602C34.4393 23.1407 33.8575 23.1407 33.7043 22.9217C33.3368 22.343 33.0153 21.7017 32.2343 21.5141C31.6525 21.4046 31.6984 21.561 31.3156 21.2951C31.0706 21.1074 30.3509 20.7633 30.4734 21.0448Z" fill="#FF9900"/>
<path d="M32.0506 21.8112C32.1182 21.8112 32.1731 21.7552 32.1731 21.6861C32.1731 21.617 32.1182 21.561 32.0506 21.561C31.9829 21.561 31.9281 21.617 31.9281 21.6861C31.9281 21.7552 31.9829 21.8112 32.0506 21.8112Z" fill="white"/>
<path d="M28.5652 23.4676C28.9453 22.9972 29.129 22.0136 29.3068 21.6877C29.6992 21.7767 29.6936 21.8328 30.1667 21.5422C29.5323 21.3538 29.4781 21.383 29.4027 21.0699C29.6708 20.1823 31.1461 19.9878 31.6745 20.3395C32.2022 20.6562 31.8749 20.7267 32.5991 21.2558C32.7053 20.7917 32.1935 20.5725 32.1101 20.2106C32.2273 19.9351 32.7082 19.9941 32.9886 19.6659C32.8184 19.4039 32.2776 19.7311 32.0459 19.7853C31.2075 19.9724 30.0696 19.012 29.364 19.3219C29.1062 19.1249 29.0586 18.8321 29.07 18.4191C28.526 18.9073 28.7979 19.4327 28.6799 19.6733C28.3507 20.2754 27.9459 20.8653 28.1484 21.6582C28.3256 22.2348 28.4395 22.1203 28.3882 22.5902C28.3403 22.8991 28.3787 23.7097 28.5652 23.4676Z" fill="#FF9900"/>
<path d="M28.4915 21.6854C28.4599 21.6243 28.3858 21.6009 28.326 21.6332C28.2661 21.6654 28.2433 21.7411 28.2749 21.8022C28.3065 21.8633 28.3806 21.8867 28.4405 21.8544C28.5003 21.8221 28.5231 21.7464 28.4915 21.6854Z" fill="white"/>
<path d="M31.6507 23.7765C31.0599 23.6876 30.1404 24.0357 29.7753 24.0489C29.6469 23.6599 29.6968 23.6358 29.2086 23.3727C29.3787 24.0245 29.4312 24.0568 29.2078 24.2846C28.3251 24.5094 27.399 23.3206 27.4206 22.6769C27.4132 22.0519 27.6415 22.3015 27.7106 21.3949C27.2666 21.5422 27.3475 22.1028 27.0873 22.3628C26.7957 22.4029 26.5965 21.9522 26.1764 21.8768C26.0448 22.161 26.5987 22.4645 26.764 22.6389C27.3544 23.275 27.1378 24.7661 27.7625 25.2225C27.7307 25.5497 27.5099 25.7427 27.1578 25.9463C27.8483 26.1694 28.1482 25.6599 28.4108 25.6386C29.0858 25.6149 29.7897 25.6636 30.3496 25.0766C30.7413 24.6235 30.5864 24.5832 31.0068 24.385C31.2905 24.2671 31.9501 23.8142 31.6507 23.7765Z" fill="#FF9900"/>
<path d="M30.1949 24.7626C30.16 24.8219 30.1788 24.8987 30.2368 24.9343C30.2947 24.9699 30.37 24.9508 30.4049 24.8915C30.4397 24.8323 30.421 24.7554 30.363 24.7198C30.305 24.6842 30.2297 24.7034 30.1949 24.7626Z" fill="white"/>
<path d="M26.5468 27.1406C26.8136 27.6894 27.1612 28.1951 27.5781 28.6406C28.385 29.5362 29.304 30.324 30.3125 30.9844C31.3208 30.3238 32.2398 29.536 33.0468 28.6406C33.4638 28.1951 33.8114 27.6894 34.0781 27.1406H26.5468Z" fill="#99CCFF"/>
<path d="M25.0781 17.2266C25.0781 24.5859 25.8672 27.1172 27.4609 28.8281C28.3037 29.7543 29.2621 30.5683 30.3125 31.25C31.3609 30.5658 32.3167 29.7491 33.1562 28.8203C34.75 27.1094 35.5468 24.5859 35.5468 17.2266C34.3906 17.7578 33.7265 18.0156 32.7734 18.0078C31.914 17.9844 31.0078 17.5625 30.3125 17.2266C29.6093 17.5625 28.7031 17.9844 27.8515 18.0078C26.8906 18.0156 26.2343 17.7578 25.0703 17.2266H25.0781ZM25.3906 17.6172C26.4765 18.125 27.1015 18.3672 28 18.3516C28.8129 18.2677 29.6 18.0177 30.3125 17.6172C30.9687 17.9297 31.8203 18.3359 32.625 18.3516C33.5234 18.3672 34.1406 18.1172 35.2343 17.6172C35.2343 24.5703 34.4843 26.9609 32.9843 28.5703C32.1959 29.4474 31.2979 30.2193 30.3125 30.8672C29.3241 30.2201 28.4234 29.4481 27.6328 28.5703C26.1328 26.9609 25.3906 24.5625 25.3906 17.6172Z" fill="#FDC301"/>
</g>
<defs>
<clipPath id="clip0_17522_60534">
<path d="M0 4C0 1.79086 1.79086 0 4 0H36C38.2091 0 40 1.79086 40 4V36C40 38.2091 38.2091 40 36 40H4C1.79086 40 0 38.2091 0 36V4Z" fill="white"/>
</clipPath>
</defs>
</svg>
