<svg width="40" height="40" viewBox="0 0 40 40" fill="none" xmlns="http://www.w3.org/2000/svg">
<g clip-path="url(#clip0_17544_57882)">
<path d="M0 0H40V40H0V0Z" fill="#3A7DCE"/>
<path d="M8.41406 18.8203C8.14062 18.2031 8.14062 18.2031 8.14062 17.5938C8 17.5938 7.97656 17.625 7.89844 17.5938C7.82031 17.5703 7.78906 18.1641 7.53125 18.0469C7.49219 17.9922 7.71875 17.5625 7.46875 17.3906C7.39062 17.3281 7.49219 16.9766 7.45312 16.8281C7.45312 16.8281 7.14062 17.0078 6.90625 16.3672C6.79688 16.2031 6.64062 16.5234 6.64062 16.5234C6.64062 16.5234 6.71094 16.7188 6.58594 16.7578C6.40625 16.6172 6.28125 16.6953 6.0625 16.5C5.83594 16.3047 6.10938 16.0781 5.6875 15.9063C5.96094 15.1406 5.96094 15.2969 6.64062 14.9844C6.23438 14.6797 6.23438 14.6797 5.96094 14.2188C5.54688 14.0625 5.41406 13.9141 5.00781 13.6094C4.46094 12.8438 4.1875 11.3125 4.1875 10.2344C4.53125 9.875 5.00781 11.4609 5.6875 11.9219L6.64062 12.3828C7.1875 12.6953 7.32031 12.9922 7.73438 13.3047L8.95312 13.7656C9.5 14.2188 9.77344 14.8359 10.1797 14.9844C10.625 14.9844 10.7109 14.7031 10.8516 14.6797C11.6484 14.6406 12.0625 14.5234 12.2188 14.25C12.375 14.0312 12.7656 14.375 13.8594 13.9141L13.7188 13.3047C13.7188 13.3047 14.0156 13.0312 14.4062 13.1484C14.3906 12.8672 14.3672 12.125 14.75 11.7812C14.5156 11.5078 14.6719 11.3125 14.6719 11.3125C14.6719 11.3125 14.8906 11.0781 14.9219 10.9531C14.8047 10.2734 15.0156 10.2656 15.0703 10.0703C15.1172 9.86719 14.8828 9.9375 14.9453 9.66406C15.0156 9.39062 15.4141 9.32031 15.4609 9.09375C15.5156 8.875 15.3438 8.75781 15.3594 8.70312C15.4375 8.49219 15.3672 7.98438 15.3594 7.78906C16.0859 7.5625 16.3281 6.89844 16.5859 7.17188C16.7188 6.25 16.8594 5.94531 17.6797 5.94531C17.7891 5.66406 17.375 5.42188 17.5391 5.33594C17.8125 5.29688 18.0156 5.3125 18.3359 5.78125C18.4375 5.92969 18.4531 5.5625 18.5547 5.52344C18.6641 5.48438 18.9062 5.48437 18.9453 5.30469C18.9766 5.11719 19.0312 4.875 19.1719 4.57031C19.2891 4.32031 19.375 4.66406 19.4844 5.14844C20.0547 5.17188 21.3516 5.32031 21.8984 5.48438C22.3047 5.60938 22.5781 5.36719 22.9688 5.32031C23.2578 5.64844 23.5312 5.39844 23.6797 6.10156C23.8984 6.46875 24.25 6.125 24.3281 6.24219C24.7891 7.64844 26.3594 6.69531 26.4687 6.71875C26.6719 6.71875 26.9141 7.35156 27.0703 7.34375C27.3281 7.28906 27.2578 7.09375 27.4766 7.17188C27.4219 7.70313 27.9219 8.32031 27.9219 8.71094C27.9219 8.71094 28.0391 8.78125 28.1562 8.66406C28.2656 8.54688 28.3672 8.24219 28.4688 8.25C28.7031 8.28906 28.8047 8.32812 29.0781 8.375C29.8125 8.66406 30.1953 8.72656 30.4844 8.86719C30.6094 9.14844 30.7422 9.28906 31.0156 9.23438C31.2344 9.40625 31.0703 9.625 31.2031 9.64062C31.4766 9.48438 31.5703 9.32031 31.8359 9.46875C32.1094 9.625 32.3828 9.9375 32.5234 10.2344C32.5234 10.3906 32.3828 11 32.5234 11.9219C32.5859 12.2344 32.625 12.4687 32.9141 13C32.8359 13.5391 33.2812 14.4453 33.2812 14.6797C33.2812 14.9844 33.0625 15.1484 32.9297 15.4453C33.4766 15.9141 32.9297 16.6719 32.6562 17.1328C34.7031 17.5938 33.75 18.5156 35.3828 18.0547C34.9687 19.125 35.1172 19.0391 35.5234 20.1094C34.7109 20.7266 35.5078 20.9141 34.9609 21.6719C34.9297 21.7266 35.2891 22.3438 35.7891 22.3438C35.6562 23.5703 35.2422 23.1094 35.3828 24.9453C34.3047 24.9219 34.7422 26.3203 34.0156 26.1719C34.0625 27.0547 34.4297 27.125 34.2891 28.0156C33.7422 28.1719 33.7422 28.1719 33.4766 28.625L33.0625 28.4687C32.9297 29.2422 32.6562 29.3906 33.0625 30.1562C33.0625 30.1562 32.5391 30.1797 32.3828 30.1562C32.375 30.4219 32.6172 30.4922 32.6562 30.7734C32.6328 30.8828 31.875 31.3672 31.2969 31.3828C31.1406 31.7656 31.7031 32.1641 31.6719 32.3594C31.0312 32.4922 30.75 33.375 30.75 33.375C30.75 33.375 31.0781 33.5312 31.0234 33.6875C30.8438 33.5391 30.75 33.5312 30.4766 33.5312C30.3438 33.5703 30.0078 33.5234 29.6953 34.125C29.3438 34.2578 29.1797 34.2031 28.9141 34.6016C28.7969 34.2266 28.625 34.6016 28.4219 34.7578C28.2109 34.8984 27.9375 35.2578 27.8984 35.2422C27.9062 35.1406 28.0234 34.7578 28.0234 34.7578L27.3438 34.9141H27.2656C27.2031 34.9219 27.2187 34.4688 27.0937 34.4844C26.9609 34.5078 26.5937 35.0547 26.4687 35.0781C26.3437 35.0938 26.3047 34.8984 26.1953 34.9219C26.0859 34.9297 25.875 35.5 25.8047 35.5156C25.7266 35.5312 25.4141 35.1719 25.1562 35.2188C23.8125 35.75 23.6016 34.1719 23.3906 35.0625C23.1094 34.8984 23.1562 34.9922 22.875 35.0781C22.6953 35.1328 22.6797 34.8047 22.5156 34.8125C22.1875 34.8203 22.2031 35.1641 22.0312 35.0625C21.8906 34.3438 21.0156 34.4766 20.9297 34.1641C20.8594 33.8516 21.3047 33.8516 21.4531 33.6328C21.5625 33.3203 21.3359 33.2031 21.7891 32.8984C22.3672 32.4531 22.0312 32.2891 22.1328 31.9531C22.3203 31.4688 22.3203 31.3516 22.1641 30.9219C22.1641 30.9219 21.7109 29.5469 21.6172 29.5469C21.3516 29.4609 21.3516 30.0547 20.9531 30.2187C20.1328 30.5234 18.6875 29.4375 18.4375 29.4375C18.2031 29.4453 17.1484 29.7266 17.1875 29.125C17.0312 29.7109 16.4375 29.2656 16.4062 29.2656C15.8594 29.2656 16.0703 29.7344 15.7031 29.7187C15.5391 29.6562 13.8594 29.5469 13.8594 29.5469V29.8594L12.7656 29.2344L11.8125 28.9297C11 28.625 11.4062 27.8594 10.0469 28.3203V27.3984H9.36719C9.63281 25.5625 9.36719 26.4844 9.22656 24.7969L8.67969 24.9531C8.13281 24.1172 9.4375 24.2812 8.27344 23.7188C8.27344 23.7188 8.29687 22.8047 8 23.1094C7.94531 23.1484 8.14062 23.5703 8.14062 23.5703C7.04688 23.4141 6.77344 23.1094 6.77344 21.8828C6.77344 21.8828 7.67188 22.0312 7.59375 21.8828C7.46875 21.6484 7.29688 20.1641 7.32813 20.0625C7.3125 19.8594 8.16406 19.3516 8 18.8672C8.10156 18.8203 8.41406 18.8203 8.41406 18.8203Z" fill="white"/>
<path fill-rule="evenodd" clip-rule="evenodd" d="M4.08554 11.4128C4.09234 11.4128 4.09871 11.4129 4.10446 11.4129C4.15366 11.4129 4.19356 11.4528 4.19356 11.502C4.19356 11.5358 4.17525 11.5572 4.16862 11.5642C4.16079 11.5724 4.1531 11.5774 4.14986 11.5794C4.143 11.5836 4.13644 11.5865 4.13411 11.5875C4.13144 11.5886 4.12586 11.5909 4.12158 11.5926C4.11943 11.5935 4.1176 11.5943 4.11658 11.5947C4.10539 11.5993 4.09151 11.6056 4.07635 11.6152C4.04679 11.6338 4.01015 11.6661 3.9849 11.7257C3.97004 11.7608 3.9345 11.7826 3.89648 11.7799C3.85847 11.7772 3.82639 11.7506 3.81668 11.7137C3.80135 11.6555 3.79634 11.6006 3.80965 11.5519C3.82428 11.4983 3.85839 11.4618 3.90033 11.4405C3.93808 11.4213 3.97931 11.4159 4.01166 11.4139C4.0363 11.4124 4.06322 11.4126 4.08554 11.4128ZM4.13775 11.8977C4.13779 11.8977 4.13783 11.8977 4.12462 11.9859L4.13775 11.8977C4.17008 11.9026 4.19725 11.9248 4.20839 11.9555C4.21953 11.9863 4.21293 12.0206 4.19121 12.0451C4.1803 12.0573 4.16829 12.0639 4.16557 12.0654C4.16564 12.0653 4.16547 12.0654 4.16557 12.0654C4.16133 12.0677 4.15711 12.0696 4.15527 12.0705C4.15307 12.0715 4.15156 12.0721 4.15027 12.0727C4.14831 12.0736 4.14686 12.0742 4.14429 12.0754C4.13808 12.0784 4.13003 12.0827 4.12057 12.0899C4.10222 12.1038 4.07267 12.1331 4.04475 12.1959C4.02897 12.2314 3.99201 12.2526 3.9534 12.2483C3.9148 12.244 3.88344 12.2151 3.87592 12.177C3.86328 12.1131 3.86715 12.0548 3.89219 12.0059C3.91763 11.9561 3.95864 11.9282 3.99606 11.9134C4.03228 11.8991 4.06788 11.8957 4.09202 11.8952C4.10456 11.895 4.11523 11.8955 4.12303 11.8961C4.12696 11.8964 4.13023 11.8968 4.13272 11.8971C4.13397 11.8972 4.13503 11.8974 4.13588 11.8975L4.13775 11.8977ZM5.1713 14.2873C5.18997 14.3348 5.19208 14.3904 5.17976 14.4527C5.17224 14.4908 5.14088 14.5197 5.10228 14.524C5.06367 14.5283 5.02671 14.5071 5.01093 14.4716C4.98105 14.4044 4.95267 14.3673 4.93436 14.3474C4.92516 14.3374 4.91765 14.3308 4.91172 14.3257C4.91143 14.3255 4.91104 14.3252 4.91058 14.3248C4.9081 14.3227 4.90342 14.3187 4.90002 14.3155C4.89796 14.3136 4.89277 14.3087 4.8876 14.3018C4.88429 14.2975 4.86884 14.277 4.86884 14.2464C4.86884 14.2002 4.9042 14.1617 4.95026 14.1577L4.95794 14.2464C4.95026 14.1577 4.95021 14.1577 4.95026 14.1577L4.9524 14.1575C4.9533 14.1575 4.95438 14.1574 4.95563 14.1573C4.95812 14.1572 4.96131 14.1571 4.96509 14.1571C4.97261 14.1571 4.98275 14.1574 4.99458 14.1587C5.01748 14.1613 5.05078 14.1681 5.08395 14.1867C5.11862 14.2062 5.15209 14.2383 5.1713 14.2873ZM36.0312 23.2474C36.045 23.2139 36.0775 23.1921 36.1137 23.1921H36.1204C36.1646 23.1921 36.2021 23.2245 36.2085 23.2681C36.2107 23.2828 36.2149 23.297 36.2212 23.3164L36.2229 23.3217C36.2286 23.339 36.2362 23.3621 36.2408 23.3868C36.2525 23.4499 36.2443 23.5167 36.1976 23.5978C36.1815 23.6259 36.1514 23.643 36.119 23.6425C36.0866 23.642 36.057 23.6239 36.0418 23.5953C35.9881 23.4947 35.9816 23.3685 36.0312 23.2474Z" fill="white"/>
</g>
<defs>
<clipPath id="clip0_17544_57882">
<path d="M0 20C0 8.95431 8.95431 0 20 0C31.0457 0 40 8.95431 40 20C40 31.0457 31.0457 40 20 40C8.95431 40 0 31.0457 0 20Z" fill="white"/>
</clipPath>
</defs>
</svg>
