<svg width="40" height="40" viewBox="0 0 40 40" fill="none" xmlns="http://www.w3.org/2000/svg">
<g clip-path="url(#clip0_17544_57886)">
<path d="M0 0H40V40H0V0Z" fill="#74ACDF"/>
<path d="M0 13.3359H40V26.6719H0V13.3359Z" fill="white"/>
<path d="M19.744 20.104L22.024 25.064C22.024 25.064 22.064 25.16 22.128 25.136C22.192 25.104 22.152 25.008 22.152 25.008L20.256 19.888M20.2 21.824C20.168 22.576 20.632 22.992 20.576 23.664C20.512 24.344 20.88 24.72 20.976 24.984C21.056 25.248 20.88 25.4 20.952 25.44C21.032 25.48 21.192 25.272 21.144 24.896C21.088 24.528 20.808 24.416 20.872 23.592C20.936 22.768 20.536 22.576 20.632 21.832" fill="#F6B40E"/>
<path fill-rule="evenodd" clip-rule="evenodd" d="M22.1929 24.9918L20.2973 19.8727L20.2147 19.9033L22.111 25.0241L22.1114 25.0251C22.1116 25.0255 22.1119 25.0261 22.1122 25.0271C22.1129 25.029 22.1139 25.032 22.115 25.0357C22.1172 25.0434 22.1194 25.0532 22.1201 25.0631C22.1215 25.0828 22.1171 25.0911 22.1105 25.0954C22.1054 25.0965 22.098 25.0951 22.0854 25.0804C22.079 25.0729 22.0736 25.0644 22.0698 25.0574C22.0679 25.054 22.0665 25.0512 22.0656 25.0493C22.0652 25.0483 22.0649 25.0476 22.0647 25.0473L22.0643 25.0463L20.6622 21.9961C20.6641 21.9461 20.6684 21.8935 20.6756 21.8376L20.5884 21.8264C20.5881 21.8288 20.5877 21.8311 20.5875 21.8335L19.784 20.0856L19.704 20.1224L20.5736 22.014C20.5665 22.2929 20.6318 22.4931 20.6982 22.6957L20.6991 22.6985C20.7784 22.9403 20.8593 23.1871 20.8281 23.5886C20.7957 24.0065 20.8504 24.2472 20.922 24.431C20.945 24.4899 20.9703 24.5442 20.9939 24.5949C21.0061 24.621 21.0179 24.6462 21.0286 24.6706C21.0609 24.7438 21.0872 24.8157 21.1004 24.9021C21.1234 25.0831 21.096 25.2202 21.0561 25.3053C21.036 25.3483 21.0138 25.3758 20.9956 25.39C20.9888 25.3952 20.9834 25.398 20.9794 25.3995C20.9795 25.3991 20.9796 25.3986 20.9797 25.3982C20.9816 25.3891 20.9852 25.3777 20.9906 25.3622C20.9921 25.3578 20.9938 25.3531 20.9955 25.3482C20.9997 25.3365 21.0043 25.3234 21.0088 25.3097C21.0352 25.2295 21.0618 25.1154 21.0181 24.9712L21.0178 24.9701L21.0174 24.969C20.9918 24.8988 20.9488 24.8224 20.9023 24.7403L20.8988 24.7342C20.8526 24.6526 20.802 24.5632 20.7561 24.4618C20.6624 24.255 20.5887 23.9987 20.6198 23.6681C20.6485 23.3239 20.5446 23.0444 20.4408 22.7656L20.4382 22.7586C20.3332 22.4765 20.2284 22.192 20.244 21.8259L20.156 21.8221C20.1396 22.208 20.2508 22.5075 20.3558 22.7894C20.461 23.0719 20.5592 23.3356 20.5322 23.6601C20.4993 24.0094 20.5776 24.2811 20.6759 24.4981C20.7235 24.6032 20.7758 24.6955 20.8217 24.7766L20.8257 24.7837C20.8729 24.8671 20.9117 24.9363 20.9342 24.9979C20.9701 25.1172 20.9487 25.2107 20.9252 25.2822C20.921 25.2949 20.917 25.3065 20.913 25.3177C20.9111 25.3229 20.9093 25.3281 20.9075 25.3333C20.9021 25.3488 20.8968 25.3649 20.8936 25.3798C20.8905 25.3943 20.8883 25.4126 20.8931 25.4309C20.8986 25.4517 20.9118 25.468 20.9306 25.4785L20.9323 25.4794C20.974 25.5002 21.0175 25.4843 21.0494 25.4595C21.0822 25.4342 21.112 25.3937 21.1358 25.3427C21.184 25.2398 21.2125 25.0852 21.1876 24.8904L21.1875 24.8894C21.1727 24.792 21.143 24.712 21.1091 24.6351C21.0969 24.6073 21.0844 24.5806 21.0719 24.5537C21.049 24.5048 21.0261 24.4556 21.004 24.399C20.9376 24.2288 20.8843 24.0015 20.9159 23.5954C20.9484 23.1764 20.863 22.9161 20.7829 22.6717L20.7818 22.6683C20.735 22.5255 20.6903 22.3884 20.671 22.2261L21.9837 25.0816L21.9842 25.0829C21.9847 25.0839 21.9853 25.0852 21.9861 25.0869C21.9876 25.0902 21.9898 25.0946 21.9927 25.0998C21.9984 25.1101 22.007 25.1241 22.0186 25.1376C22.0401 25.1628 22.0845 25.1993 22.1434 25.1772L22.1456 25.1764L22.1477 25.1754C22.2038 25.1473 22.2103 25.0912 22.2079 25.0569C22.2066 25.0388 22.2028 25.0226 22.1995 25.0113C22.1978 25.0055 22.1962 25.0007 22.195 24.9973C22.1944 24.9955 22.1938 24.9941 22.1934 24.9931L22.1929 24.9918Z" fill="#85340A"/>
<path d="M19.7237 19.9981L19.932 25.4531C19.932 25.4531 19.9322 25.5571 20.0006 25.5594C20.0719 25.5543 20.0717 25.4503 20.0717 25.4503L20.2794 19.9945M19.4868 21.7617C19.1694 22.4442 19.4389 23.0061 19.13 23.6055C18.8106 24.2093 19.0067 24.6975 18.9944 24.9781C18.9673 25.2526 18.7465 25.3257 18.7977 25.3902C18.8563 25.4578 19.0838 25.3269 19.1833 24.9611C19.2724 24.5997 19.0566 24.3891 19.431 23.6523C19.8055 22.9155 19.5094 22.585 19.8828 21.9344" fill="#F6B40E"/>
<path fill-rule="evenodd" clip-rule="evenodd" d="M20.1157 25.451L20.3233 19.9962L20.2354 19.9928L20.0277 25.4495L20.0277 25.4506C20.0277 25.451 20.0277 25.4517 20.0276 25.4527C20.0275 25.4548 20.0273 25.4579 20.0269 25.4618C20.026 25.4697 20.0243 25.4796 20.0211 25.4891C20.0149 25.5078 20.0077 25.5138 19.9999 25.5152C19.9948 25.5143 19.9885 25.5101 19.9825 25.4917C19.9794 25.4823 19.9777 25.4724 19.9769 25.4645C19.9764 25.4606 19.9762 25.4575 19.9761 25.4554C19.9761 25.4544 19.976 25.4536 19.976 25.4532L19.976 25.4522L19.8479 22.0975C19.8688 22.0521 19.8929 22.0052 19.921 21.9563L19.8447 21.9125C19.8435 21.9146 19.8423 21.9167 19.8411 21.9188L19.7677 19.9964L19.6797 19.9998L19.7592 22.0802C19.6459 22.3352 19.6296 22.5451 19.6134 22.7577L19.6132 22.7606C19.5939 23.0144 19.5742 23.2734 19.3918 23.6323C19.2019 24.006 19.1603 24.2493 19.1562 24.4465C19.1548 24.5098 19.1574 24.5696 19.1599 24.6255C19.1611 24.6543 19.1623 24.6821 19.1629 24.7087C19.1647 24.7887 19.1616 24.8652 19.1407 24.9501C19.0927 25.1261 19.0149 25.2423 18.9455 25.3057C18.9105 25.3377 18.8794 25.3546 18.8571 25.3607C18.8489 25.3629 18.8428 25.3634 18.8385 25.3633C18.8388 25.3629 18.839 25.3625 18.8393 25.3622C18.8445 25.3545 18.8523 25.3454 18.8632 25.3331C18.8662 25.3297 18.8696 25.326 18.8731 25.3221C18.8814 25.3128 18.8907 25.3025 18.9001 25.2916C18.9551 25.2276 19.0234 25.1324 19.0382 24.9824L19.0383 24.9812L19.0384 24.98C19.0416 24.9055 19.0311 24.8184 19.0196 24.7248L19.0187 24.7178C19.0072 24.6247 18.9947 24.5228 18.9911 24.4115C18.9837 24.1846 19.0136 23.9196 19.1689 23.6261C19.3271 23.319 19.3381 23.0211 19.3489 22.7238L19.3492 22.7164C19.3601 22.4155 19.3721 22.1126 19.5267 21.7802L19.4469 21.7431C19.284 22.0933 19.2721 22.4126 19.2612 22.7132C19.2503 23.0145 19.2401 23.2957 19.091 23.5852C18.927 23.8953 18.8954 24.1763 18.9031 24.4144C18.9068 24.5296 18.9198 24.635 18.9312 24.7275L18.9322 24.7355C18.9439 24.8307 18.9532 24.9095 18.9505 24.975C18.938 25.0989 18.8825 25.1771 18.8333 25.2342C18.8246 25.2443 18.8165 25.2534 18.8085 25.2623C18.8048 25.2664 18.8011 25.2705 18.7974 25.2746C18.7865 25.2869 18.7755 25.2997 18.7668 25.3123C18.7584 25.3245 18.7493 25.3405 18.7468 25.3593C18.7439 25.3806 18.7499 25.4007 18.7633 25.4176L18.7645 25.419C18.795 25.4542 18.8413 25.4562 18.8803 25.4456C18.9202 25.4347 18.9632 25.4086 19.0048 25.3706C19.0886 25.2941 19.1742 25.1621 19.2258 24.9727L19.226 24.9716C19.2496 24.876 19.2528 24.7908 19.2509 24.7067C19.2502 24.6763 19.2489 24.6469 19.2476 24.6173C19.2453 24.5634 19.2429 24.5091 19.2441 24.4484C19.248 24.2657 19.2857 24.0353 19.4702 23.6722C19.6607 23.2976 19.6814 23.0244 19.7009 22.768L19.7012 22.7644C19.7126 22.6145 19.7238 22.4708 19.7681 22.3134L19.888 25.4539L19.8881 25.4553C19.8881 25.4564 19.8881 25.4579 19.8882 25.4597C19.8884 25.4633 19.8887 25.4683 19.8894 25.4742C19.8907 25.4859 19.8933 25.5021 19.8988 25.519C19.9091 25.5505 19.9361 25.6012 19.9991 25.6034L20.0014 25.6034L20.0037 25.6033C20.0663 25.5988 20.0938 25.5495 20.1046 25.5169C20.1104 25.4997 20.113 25.4833 20.1144 25.4715C20.115 25.4655 20.1154 25.4605 20.1155 25.4569C20.1156 25.455 20.1157 25.4535 20.1157 25.4524L20.1157 25.451Z" fill="#85340A"/>
<path d="M19.7454 19.8925L17.8504 25.012C17.8504 25.012 17.8108 25.1081 17.873 25.1364C17.9409 25.1591 17.9805 25.0629 17.9805 25.0629L20.2602 20.1018M18.8517 21.4312C18.2973 21.9403 18.3312 22.5626 17.8165 22.9981C17.2904 23.4337 17.2847 23.9598 17.1659 24.2144C17.0358 24.4576 16.8039 24.4406 16.8265 24.5198C16.8548 24.6047 17.115 24.5707 17.3469 24.2709C17.5676 23.9711 17.4488 23.6939 18.0767 23.1565C18.7046 22.6191 18.5575 22.2005 19.1515 21.7423" fill="#F6B40E"/>
<path fill-rule="evenodd" clip-rule="evenodd" d="M18.0209 25.0804L20.3002 20.1202L20.2202 20.0835L17.9402 25.0453L17.9397 25.0463C17.9396 25.0467 17.9393 25.0473 17.9388 25.0483C17.938 25.0501 17.9366 25.0529 17.9347 25.0563C17.9309 25.0633 17.9255 25.0718 17.919 25.0793C17.9061 25.0942 17.8971 25.097 17.8893 25.0953C17.885 25.0926 17.8808 25.0863 17.8822 25.067C17.883 25.0571 17.8852 25.0474 17.8874 25.0397C17.8885 25.0359 17.8895 25.033 17.8902 25.031C17.8906 25.03 17.8909 25.0293 17.891 25.0289L17.8914 25.028L19.0568 21.8797C19.0935 21.8457 19.1337 21.8116 19.1783 21.7771L19.1246 21.7075C19.1227 21.7089 19.1208 21.7104 19.1189 21.7119L19.7867 19.9078L19.7042 19.8772L18.9814 21.8297C18.7793 22.0219 18.6838 22.2096 18.5875 22.3998L18.5862 22.4025C18.4713 22.6295 18.354 22.8613 18.0481 23.1231C17.7296 23.3957 17.5981 23.6045 17.5188 23.7851C17.4934 23.843 17.4729 23.8993 17.4537 23.9519C17.4439 23.979 17.4344 24.0051 17.4247 24.03C17.3958 24.1045 17.3636 24.174 17.3118 24.2444C17.2001 24.3887 17.0837 24.4662 16.9954 24.4983C16.9508 24.5144 16.9156 24.5182 16.8927 24.5152C16.8842 24.5142 16.8784 24.5123 16.8745 24.5105C16.8749 24.5103 16.8752 24.5101 16.8756 24.5098C16.8834 24.5048 16.8941 24.4993 16.9088 24.4921C16.913 24.4901 16.9175 24.488 16.9222 24.4857C16.9334 24.4804 16.946 24.4744 16.9588 24.4679C17.0342 24.4298 17.1337 24.368 17.2047 24.2351L17.2053 24.2341L17.2058 24.233C17.2374 24.1653 17.2609 24.0808 17.2861 23.9899L17.288 23.9831C17.313 23.8928 17.3404 23.7938 17.3796 23.6896C17.4597 23.4771 17.5888 23.2438 17.8445 23.032C18.1082 22.8089 18.2324 22.5378 18.3561 22.2673L18.3592 22.2605C18.4845 21.9867 18.6115 21.7115 18.8814 21.4636L18.8219 21.3988C18.5375 21.66 18.4043 21.9504 18.2792 22.2239C18.1538 22.4981 18.0368 22.754 17.7882 22.9644C17.518 23.1882 17.3813 23.4356 17.2973 23.6586C17.2566 23.7665 17.2283 23.8688 17.2035 23.9586L17.2013 23.9664C17.1757 24.0588 17.1541 24.1352 17.1266 24.1947C17.0676 24.3043 16.9863 24.3554 16.9191 24.3893C16.9072 24.3954 16.8961 24.4006 16.8854 24.4058C16.8804 24.4081 16.8754 24.4105 16.8705 24.4129C16.8557 24.4201 16.8406 24.4277 16.8278 24.436C16.8153 24.444 16.8008 24.4554 16.7913 24.4718C16.7804 24.4903 16.7783 24.5112 16.7842 24.5319L16.7848 24.5337C16.7995 24.5779 16.8415 24.5975 16.8816 24.6025C16.9227 24.6078 16.9724 24.6002 17.0253 24.581C17.1321 24.5423 17.2616 24.4532 17.3817 24.2978L17.3824 24.297C17.4407 24.2177 17.4763 24.1402 17.5068 24.0618C17.5177 24.0335 17.5278 24.0057 17.5379 23.9779C17.5564 23.9272 17.5749 23.8761 17.5994 23.8205C17.6728 23.6532 17.7958 23.4548 18.1053 23.19C18.4246 22.9167 18.5483 22.6722 18.6644 22.4428L18.6661 22.4396C18.7339 22.3055 18.7993 22.177 18.9004 22.0486L17.8094 24.9959L17.8089 24.9972C17.8085 24.9982 17.808 24.9996 17.8074 25.0013C17.8062 25.0047 17.8046 25.0095 17.8029 25.0152C17.7997 25.0264 17.7959 25.0425 17.7945 25.0602C17.792 25.0932 17.7975 25.1504 17.8548 25.1765L17.8569 25.1774L17.8591 25.1782C17.9187 25.198 17.9629 25.1629 17.9855 25.137C17.9973 25.1233 18.0061 25.1092 18.0118 25.0988C18.0147 25.0935 18.0169 25.089 18.0185 25.0857C18.0193 25.084 18.0199 25.0827 18.0203 25.0816L18.0209 25.0804Z" fill="#85340A"/>
<path d="M19.806 19.8033L16.096 23.8078C16.096 23.8078 16.0226 23.8815 16.0693 23.9315C16.1234 23.9784 16.1967 23.9047 16.1967 23.9047L20.2014 20.1937M18.3914 20.8828C17.6844 21.141 17.4776 21.7289 16.8353 21.9343C16.1826 22.1354 15.9761 22.6193 15.7689 22.809C15.5556 22.9839 15.3478 22.8795 15.3384 22.9613C15.3321 23.0505 15.5855 23.1188 15.9145 22.9305C16.233 22.738 16.2294 22.4364 17.0151 22.1802C17.8009 21.924 17.8252 21.481 18.5493 21.285" fill="#F6B40E"/>
<path fill-rule="evenodd" clip-rule="evenodd" d="M16.2274 23.9363L20.2313 20.2259L20.1715 20.1614L16.1662 23.873L16.1654 23.8737C16.1652 23.874 16.1646 23.8745 16.1639 23.8752C16.1623 23.8766 16.16 23.8787 16.157 23.8811C16.1507 23.886 16.1425 23.8918 16.1336 23.8963C16.116 23.9051 16.1066 23.9043 16.1001 23.8997C16.0971 23.8955 16.0957 23.8881 16.1044 23.8708C16.1089 23.8621 16.1147 23.8539 16.1196 23.8476C16.1221 23.8446 16.1242 23.8422 16.1256 23.8407C16.1263 23.8399 16.1268 23.8393 16.1271 23.839L16.1278 23.8383L18.4093 21.3756C18.4561 21.3583 18.5064 21.3422 18.5608 21.3274L18.5378 21.2425C18.5355 21.2431 18.5332 21.2438 18.5308 21.2444L19.8382 19.8332L19.7737 19.7734L18.3588 21.3007C18.0984 21.4008 17.9384 21.5377 17.7767 21.6766L17.7744 21.6786C17.5814 21.8443 17.3843 22.0136 17.0015 22.1384C16.6029 22.2683 16.4015 22.411 16.2591 22.5475C16.2135 22.5913 16.173 22.6354 16.1352 22.6766C16.1158 22.6979 16.097 22.7184 16.0785 22.7377C16.0233 22.7955 15.9669 22.8473 15.8922 22.8926C15.7338 22.9831 15.5965 23.0103 15.5027 23.006C15.4553 23.0039 15.4214 22.9939 15.4013 22.9824C15.3939 22.9782 15.3892 22.9742 15.3863 22.9711C15.3867 22.971 15.3872 22.971 15.3876 22.9709C15.3967 22.9692 15.4087 22.9682 15.4251 22.9672C15.4297 22.967 15.4346 22.9667 15.4399 22.9664C15.4523 22.9658 15.4662 22.965 15.4805 22.964C15.5647 22.9576 15.6803 22.9386 15.7968 22.843L15.7977 22.8423L15.7986 22.8414C15.8536 22.791 15.9078 22.722 15.9658 22.6476L15.9702 22.6421C16.0278 22.5682 16.0911 22.4872 16.1671 22.406C16.3224 22.2403 16.531 22.0741 16.8483 21.9764C17.1773 21.8711 17.3958 21.6682 17.6136 21.4656L17.6191 21.4606C17.8395 21.2555 18.0622 21.0498 18.4065 20.9241L18.3763 20.8415C18.0135 20.9739 17.7793 21.1913 17.5591 21.3961C17.3384 21.6014 17.1323 21.7931 16.8221 21.8923C16.4869 21.9957 16.2658 22.172 16.1029 22.3458C16.0241 22.43 15.9588 22.5136 15.9014 22.5871L15.8964 22.5935C15.8375 22.669 15.7883 22.7313 15.7401 22.7757C15.6436 22.8545 15.549 22.8706 15.4739 22.8762C15.4606 22.8772 15.4484 22.8778 15.4364 22.8785C15.4309 22.8788 15.4254 22.8791 15.42 22.8794C15.4036 22.8803 15.3867 22.8816 15.3717 22.8843C15.3571 22.887 15.3394 22.8919 15.3242 22.9034C15.3071 22.9165 15.2972 22.9349 15.2947 22.9563L15.2945 22.9582C15.2912 23.0047 15.3226 23.0388 15.3577 23.0588C15.3936 23.0794 15.4424 23.0914 15.4987 23.0939C15.6121 23.099 15.7659 23.0662 15.9363 22.9687L15.9372 22.9682C16.0215 22.9172 16.0841 22.8593 16.1422 22.7985C16.1632 22.7765 16.1831 22.7547 16.2031 22.7329C16.2395 22.6931 16.2762 22.6531 16.32 22.611C16.4519 22.4845 16.6415 22.3483 17.0288 22.2221C17.4283 22.0918 17.6362 21.9133 17.8312 21.7458L17.834 21.7434C17.948 21.6455 18.0576 21.5518 18.2002 21.4718L16.0643 23.7773L16.0634 23.7783C16.0626 23.7791 16.0616 23.7802 16.0604 23.7815C16.0579 23.7842 16.0547 23.788 16.0509 23.7926C16.0436 23.8018 16.034 23.8151 16.0259 23.831C16.011 23.8605 15.9942 23.9155 16.0372 23.9615L16.0387 23.9632L16.0405 23.9647C16.0879 24.0059 16.1422 23.9904 16.173 23.975C16.1892 23.9669 16.2027 23.9572 16.2119 23.9498C16.2166 23.9461 16.2204 23.9427 16.2231 23.9403C16.2245 23.939 16.2256 23.938 16.2264 23.9372L16.2274 23.9363Z" fill="#85340A"/>
<path d="M20.344 21.952C20.384 22.672 20.792 22.992 20.712 23.656C20.888 23.136 20.464 22.728 20.488 21.96M19.872 20.056L21.432 23.464L20.128 19.952" fill="#85340A"/>
<path d="M19.5708 21.9351C19.3322 22.6156 19.5867 23.0673 19.2587 23.6502C19.6203 23.2371 19.3847 22.6979 19.7008 21.9976M19.8603 20.0028L19.9974 23.7483L20.1366 20.0046" fill="#85340A"/>
<path d="M18.863 21.6235C18.3821 22.1609 18.4444 22.6757 17.9183 23.0886C18.4104 22.8454 18.3991 22.2571 18.9591 21.731M19.8699 19.9491L18.5632 23.462L20.1245 20.0566" fill="#85340A"/>
<path d="M18.3282 21.0648C17.6783 21.3773 17.5388 21.8767 16.8948 22.0569C17.4425 22.0205 17.6572 21.4726 18.3759 21.2009M19.8993 19.9032L17.3477 22.6486L20.0933 20.0999" fill="#85340A"/>
<path d="M19.896 19.744L14.936 22.024C14.936 22.024 14.84 22.064 14.864 22.128C14.896 22.192 14.992 22.152 14.992 22.152L20.112 20.256M18.176 20.2C17.424 20.168 17.008 20.632 16.336 20.576C15.656 20.512 15.28 20.88 15.016 20.976C14.752 21.056 14.6 20.88 14.56 20.952C14.52 21.032 14.728 21.192 15.104 21.144C15.472 21.088 15.584 20.808 16.408 20.872C17.232 20.936 17.424 20.536 18.168 20.632" fill="#F6B40E"/>
<path fill-rule="evenodd" clip-rule="evenodd" d="M15.0082 22.1929L20.1273 20.2973L20.0967 20.2147L14.9759 22.111L14.9749 22.1114C14.9745 22.1116 14.9739 22.1119 14.9729 22.1122C14.971 22.1129 14.968 22.1139 14.9643 22.115C14.9566 22.1172 14.9468 22.1194 14.9369 22.1201C14.9172 22.1215 14.9089 22.1171 14.9046 22.1105C14.9035 22.1054 14.9049 22.098 14.9196 22.0854C14.9271 22.079 14.9356 22.0736 14.9426 22.0698C14.946 22.0679 14.9488 22.0665 14.9507 22.0656C14.9517 22.0652 14.9523 22.0649 14.9527 22.0647L14.9537 22.0643L18.0039 20.6622C18.0539 20.6641 18.1065 20.6684 18.1624 20.6756L18.1736 20.5884C18.1712 20.5881 18.1689 20.5877 18.1665 20.5875L19.9144 19.784L19.8776 19.704L17.986 20.5736C17.7071 20.5665 17.5069 20.6318 17.3043 20.6982L17.3015 20.6991C17.0597 20.7784 16.8129 20.8593 16.4114 20.8281C15.9935 20.7957 15.7528 20.8504 15.569 20.922C15.5101 20.945 15.4558 20.9703 15.4051 20.9939C15.379 21.0061 15.3538 21.0179 15.3294 21.0286C15.2562 21.0609 15.1843 21.0872 15.0979 21.1004C14.9169 21.1234 14.7798 21.096 14.6947 21.0561C14.6517 21.036 14.6242 21.0138 14.61 20.9956C14.6048 20.9888 14.602 20.9834 14.6005 20.9794C14.6009 20.9795 14.6014 20.9796 14.6018 20.9797C14.6109 20.9816 14.6223 20.9852 14.6378 20.9906C14.6422 20.9921 14.6469 20.9938 14.6518 20.9955C14.6635 20.9997 14.6766 21.0043 14.6903 21.0088C14.7705 21.0352 14.8846 21.0618 15.0288 21.0181L15.0299 21.0178L15.031 21.0174C15.1012 20.9918 15.1776 20.9488 15.2597 20.9023L15.2658 20.8988C15.3474 20.8526 15.4368 20.802 15.5381 20.7561C15.745 20.6624 16.0013 20.5887 16.3319 20.6198C16.6761 20.6485 16.9556 20.5446 17.2344 20.4408L17.2414 20.4382C17.5235 20.3332 17.808 20.2284 18.1741 20.244L18.1779 20.156C17.792 20.1396 17.4925 20.2508 17.2106 20.3558C16.9281 20.461 16.6644 20.5592 16.3399 20.5322C15.9906 20.4993 15.7189 20.5776 15.5018 20.6759C15.3968 20.7235 15.3045 20.7758 15.2234 20.8217L15.2163 20.8257C15.1329 20.8729 15.0637 20.9117 15.0021 20.9342C14.8828 20.9701 14.7893 20.9487 14.7177 20.9252C14.7051 20.921 14.6935 20.917 14.6823 20.913C14.6771 20.9111 14.6719 20.9093 14.6667 20.9075C14.6512 20.9021 14.6351 20.8968 14.6202 20.8936C14.6057 20.8905 14.5874 20.8883 14.5691 20.8931C14.5482 20.8986 14.532 20.9118 14.5215 20.9306L14.5206 20.9323C14.4998 20.974 14.5157 21.0175 14.5405 21.0494C14.5658 21.0822 14.6063 21.112 14.6573 21.1358C14.7602 21.184 14.9148 21.2125 15.1096 21.1876L15.1106 21.1875C15.208 21.1727 15.288 21.143 15.3649 21.1091C15.3927 21.0969 15.4194 21.0844 15.4463 21.0719C15.4952 21.049 15.5444 21.0261 15.601 21.004C15.7712 20.9376 15.9985 20.8843 16.4046 20.9159C16.8236 20.9484 17.0839 20.863 17.3282 20.7829L17.3317 20.7818C17.4745 20.735 17.6116 20.6903 17.7739 20.671L14.9184 21.9837L14.9171 21.9842C14.9161 21.9847 14.9148 21.9853 14.9131 21.9861C14.9098 21.9876 14.9054 21.9898 14.9001 21.9927C14.8899 21.9984 14.8759 22.007 14.8624 22.0186C14.8372 22.0401 14.8007 22.0845 14.8228 22.1434L14.8236 22.1456L14.8246 22.1477C14.8527 22.2038 14.9088 22.2103 14.9431 22.2079C14.9612 22.2066 14.9774 22.2028 14.9887 22.1995C14.9945 22.1978 14.9993 22.1962 15.0027 22.195C15.0045 22.1944 15.0059 22.1938 15.0069 22.1934L15.0082 22.1929Z" fill="#85340A"/>
<path d="M20.0019 19.7237L14.5469 19.932C14.5469 19.932 14.4429 19.9322 14.4406 20.0006C14.4457 20.0719 14.5497 20.0717 14.5497 20.0717L20.0055 20.2794M18.2383 19.4868C17.5558 19.1694 16.9939 19.4389 16.3945 19.13C15.7907 18.8106 15.3025 19.0067 15.0219 18.9944C14.7474 18.9673 14.6743 18.7465 14.6098 18.7977C14.5422 18.8563 14.6731 19.0838 15.0389 19.1833C15.4003 19.2724 15.6109 19.0566 16.3477 19.431C17.0845 19.8055 17.415 19.5094 18.0656 19.8828" fill="#F6B40E"/>
<path fill-rule="evenodd" clip-rule="evenodd" d="M14.549 20.1157L20.0038 20.3233L20.0072 20.2354L14.5505 20.0277L14.5494 20.0277C14.549 20.0277 14.5483 20.0277 14.5473 20.0276C14.5452 20.0275 14.5421 20.0273 14.5382 20.0269C14.5303 20.026 14.5204 20.0243 14.5109 20.0211C14.4922 20.0149 14.4862 20.0077 14.4848 19.9999C14.4857 19.9948 14.4899 19.9885 14.5083 19.9825C14.5177 19.9794 14.5276 19.9777 14.5355 19.9769C14.5394 19.9764 14.5425 19.9762 14.5446 19.9761C14.5456 19.9761 14.5464 19.976 14.5468 19.976L14.5478 19.976L17.9025 19.8479C17.9479 19.8688 17.9948 19.8929 18.0437 19.921L18.0875 19.8447C18.0854 19.8435 18.0833 19.8423 18.0812 19.8411L20.0036 19.7677L20.0002 19.6797L17.9198 19.7592C17.6648 19.6459 17.4549 19.6296 17.2423 19.6134L17.2394 19.6132C16.9856 19.5939 16.7266 19.5742 16.3677 19.3918C15.994 19.2019 15.7506 19.1603 15.5535 19.1562C15.4902 19.1548 15.4304 19.1574 15.3745 19.1599C15.3457 19.1611 15.3179 19.1623 15.2913 19.1629C15.2113 19.1647 15.1348 19.1616 15.0499 19.1407C14.8739 19.0927 14.7577 19.0149 14.6943 18.9455C14.6623 18.9105 14.6454 18.8794 14.6393 18.8571C14.6371 18.8489 14.6366 18.8428 14.6367 18.8385C14.6371 18.8388 14.6375 18.839 14.6378 18.8393C14.6455 18.8445 14.6546 18.8523 14.6669 18.8632C14.6703 18.8662 14.674 18.8696 14.6779 18.8731C14.6871 18.8814 14.6975 18.8907 14.7084 18.9001C14.7724 18.9551 14.8676 19.0234 15.0176 19.0382L15.0188 19.0383L15.02 19.0384C15.0945 19.0416 15.1816 19.0311 15.2752 19.0196L15.2822 19.0187C15.3753 19.0072 15.4772 18.9947 15.5884 18.9911C15.8154 18.9837 16.0804 19.0136 16.3739 19.1689C16.681 19.3271 16.9789 19.3381 17.2762 19.3489L17.2836 19.3492C17.5845 19.3601 17.8874 19.3721 18.2198 19.5267L18.2569 19.4469C17.9067 19.284 17.5874 19.2721 17.2868 19.2612C16.9855 19.2503 16.7043 19.2401 16.4148 19.091C16.1047 18.927 15.8237 18.8954 15.5856 18.9031C15.4704 18.9068 15.365 18.9198 15.2725 18.9312L15.2645 18.9322C15.1693 18.9439 15.0905 18.9532 15.025 18.9505C14.9011 18.938 14.8229 18.8825 14.7658 18.8333C14.7557 18.8246 14.7466 18.8165 14.7377 18.8085C14.7336 18.8048 14.7295 18.8011 14.7254 18.7974C14.7131 18.7865 14.7003 18.7755 14.6877 18.7668C14.6755 18.7584 14.6595 18.7493 14.6407 18.7468C14.6194 18.7439 14.5993 18.7499 14.5824 18.7633L14.581 18.7645C14.5458 18.795 14.5438 18.8413 14.5544 18.8803C14.5653 18.9202 14.5913 18.9632 14.6294 19.0048C14.7059 19.0886 14.8379 19.1742 15.0273 19.2258L15.0284 19.226C15.124 19.2496 15.2092 19.2528 15.2933 19.2509C15.3237 19.2502 15.3531 19.2489 15.3827 19.2476C15.4366 19.2453 15.4909 19.2429 15.5516 19.2441C15.7343 19.248 15.9647 19.2857 16.3278 19.4702C16.7024 19.6607 16.9756 19.6814 17.232 19.7009L17.2356 19.7012C17.3855 19.7126 17.5292 19.7238 17.6866 19.7681L14.5461 19.888L14.5447 19.8881C14.5436 19.8881 14.5421 19.8881 14.5403 19.8882C14.5367 19.8884 14.5317 19.8887 14.5258 19.8894C14.5141 19.8907 14.4979 19.8933 14.481 19.8988C14.4495 19.9091 14.3988 19.9361 14.3966 19.9991L14.3966 20.0014L14.3967 20.0037C14.4012 20.0663 14.4505 20.0938 14.4831 20.1046C14.5003 20.1104 14.5167 20.113 14.5285 20.1144C14.5345 20.115 14.5395 20.1154 14.5431 20.1155C14.545 20.1156 14.5465 20.1157 14.5476 20.1157L14.549 20.1157Z" fill="#85340A"/>
<path d="M20.1075 19.7454L14.988 17.8504C14.988 17.8504 14.8919 17.8108 14.8636 17.873C14.8409 17.9409 14.9371 17.9805 14.9371 17.9805L19.8982 20.2602M18.5688 18.8517C18.0597 18.2973 17.4374 18.3312 17.0019 17.8165C16.5663 17.2904 16.0402 17.2847 15.7856 17.1659C15.5424 17.0358 15.5594 16.8039 15.4802 16.8265C15.3953 16.8548 15.4293 17.115 15.7291 17.3469C16.0289 17.5676 16.3061 17.4488 16.8435 18.0767C17.3809 18.7046 17.7995 18.5575 18.2577 19.1515" fill="#F6B40E"/>
<path fill-rule="evenodd" clip-rule="evenodd" d="M14.9196 18.0209L19.8798 20.3002L19.9165 20.2202L14.9547 17.9402L14.9537 17.9397C14.9533 17.9396 14.9527 17.9393 14.9517 17.9388C14.9499 17.938 14.9471 17.9366 14.9437 17.9347C14.9367 17.9309 14.9282 17.9255 14.9207 17.919C14.9058 17.9061 14.903 17.8971 14.9047 17.8893C14.9074 17.885 14.9137 17.8808 14.933 17.8822C14.9429 17.883 14.9526 17.8852 14.9603 17.8874C14.9641 17.8885 14.967 17.8895 14.969 17.8902C14.97 17.8906 14.9707 17.8909 14.9711 17.891L14.972 17.8914L18.1203 19.0568C18.1543 19.0935 18.1884 19.1337 18.2228 19.1783L18.2925 19.1246C18.2911 19.1227 18.2896 19.1208 18.2881 19.1189L20.0922 19.7867L20.1228 19.7042L18.1703 18.9814C17.9781 18.7793 17.7904 18.6838 17.6002 18.5875L17.5975 18.5862C17.3705 18.4713 17.1387 18.354 16.8769 18.0481C16.6043 17.7296 16.3955 17.5981 16.2149 17.5188C16.157 17.4934 16.1007 17.4729 16.0481 17.4537C16.021 17.4439 15.9949 17.4344 15.97 17.4247C15.8954 17.3958 15.826 17.3636 15.7556 17.3118C15.6113 17.2001 15.5338 17.0837 15.5017 16.9954C15.4856 16.9508 15.4818 16.9156 15.4848 16.8927C15.4858 16.8842 15.4877 16.8784 15.4895 16.8745C15.4897 16.8749 15.4899 16.8752 15.4902 16.8756C15.4952 16.8834 15.5007 16.8941 15.5079 16.9088C15.5099 16.913 15.512 16.9175 15.5143 16.9222C15.5196 16.9334 15.5256 16.946 15.5321 16.9588C15.5702 17.0342 15.632 17.1337 15.7649 17.2047L15.7659 17.2053L15.767 17.2058C15.8347 17.2374 15.9192 17.2609 16.0101 17.2861L16.0169 17.288C16.1072 17.313 16.2062 17.3404 16.3104 17.3796C16.5229 17.4597 16.7562 17.5888 16.968 17.8445C17.1911 18.1082 17.4622 18.2324 17.7327 18.3561L17.7395 18.3592C18.0133 18.4845 18.2885 18.6115 18.5364 18.8814L18.6012 18.8219C18.34 18.5375 18.0495 18.4043 17.7761 18.2792C17.5019 18.1538 17.246 18.0368 17.0356 17.7882C16.8118 17.518 16.5644 17.3813 16.3414 17.2973C16.2335 17.2566 16.1312 17.2283 16.0414 17.2035L16.0336 17.2013C15.9412 17.1757 15.8648 17.1541 15.8053 17.1266C15.6957 17.0676 15.6446 16.9863 15.6107 16.9191C15.6046 16.9072 15.5994 16.8961 15.5942 16.8854C15.5919 16.8804 15.5895 16.8754 15.5871 16.8705C15.5799 16.8557 15.5723 16.8406 15.564 16.8278C15.556 16.8153 15.5446 16.8008 15.5282 16.7913C15.5097 16.7804 15.4888 16.7783 15.4681 16.7842L15.4663 16.7848C15.4221 16.7995 15.4025 16.8415 15.3975 16.8816C15.3922 16.9227 15.3998 16.9724 15.419 17.0253C15.4577 17.1321 15.5468 17.2616 15.7022 17.3817L15.703 17.3824C15.7823 17.4407 15.8598 17.4763 15.9382 17.5068C15.9665 17.5177 15.9943 17.5278 16.0221 17.5379C16.0728 17.5564 16.1239 17.5749 16.1795 17.5994C16.3468 17.6728 16.5452 17.7958 16.81 18.1053C17.0833 18.4246 17.3278 18.5483 17.5572 18.6644L17.5604 18.6661C17.6945 18.7339 17.823 18.7993 17.9514 18.9004L15.0041 17.8094L15.0028 17.8089C15.0018 17.8085 15.0004 17.808 14.9987 17.8074C14.9953 17.8062 14.9905 17.8046 14.9848 17.8029C14.9736 17.7997 14.9575 17.7959 14.9398 17.7945C14.9068 17.792 14.8496 17.7975 14.8235 17.8548L14.8226 17.8569L14.8218 17.8591C14.802 17.9187 14.837 17.9629 14.863 17.9855C14.8767 17.9973 14.8908 18.0061 14.9012 18.0118C14.9065 18.0147 14.911 18.0169 14.9143 18.0185C14.916 18.0193 14.9173 18.0199 14.9184 18.0203L14.9196 18.0209Z" fill="#85340A"/>
<path d="M20.1967 19.806L16.1922 16.096C16.1922 16.096 16.1185 16.0226 16.0685 16.0693C16.0216 16.1234 16.0953 16.1967 16.0953 16.1967L19.8063 20.2014M19.1172 18.3914C18.859 17.6844 18.2711 17.4776 18.0657 16.8353C17.8646 16.1826 17.3807 15.9761 17.191 15.7689C17.0161 15.5556 17.1205 15.3478 17.0387 15.3384C16.9494 15.3321 16.8812 15.5855 17.0695 15.9145C17.262 16.233 17.5636 16.2294 17.8198 17.0151C18.076 17.8009 18.519 17.8252 18.715 18.5493" fill="#F6B40E"/>
<path fill-rule="evenodd" clip-rule="evenodd" d="M16.0637 16.2274L19.7741 20.2313L19.8386 20.1715L16.127 16.1662L16.1263 16.1654C16.126 16.1652 16.1255 16.1646 16.1248 16.1639C16.1234 16.1623 16.1213 16.16 16.1189 16.157C16.114 16.1507 16.1082 16.1425 16.1037 16.1336C16.0949 16.116 16.0957 16.1066 16.1003 16.1001C16.1045 16.0971 16.1119 16.0957 16.1292 16.1044C16.1379 16.1089 16.1461 16.1147 16.1524 16.1196C16.1554 16.1221 16.1578 16.1242 16.1593 16.1256C16.1601 16.1263 16.1607 16.1268 16.161 16.1271L16.1617 16.1278L18.6244 18.4093C18.6417 18.4561 18.6578 18.5064 18.6726 18.5608L18.7575 18.5378C18.7569 18.5355 18.7562 18.5332 18.7556 18.5308L20.1668 19.8382L20.2266 19.7737L18.6993 18.3588C18.5992 18.0984 18.4623 17.9384 18.3234 17.7767L18.3214 17.7744C18.1557 17.5814 17.9864 17.3843 17.8616 17.0015C17.7317 16.6029 17.589 16.4015 17.4525 16.2591C17.4087 16.2135 17.3646 16.173 17.3234 16.1352C17.3021 16.1158 17.2816 16.097 17.2623 16.0785C17.2045 16.0233 17.1527 15.9669 17.1074 15.8922C17.0169 15.7338 16.9897 15.5965 16.994 15.5027C16.9961 15.4553 17.0061 15.4214 17.0176 15.4013C17.0218 15.3939 17.0258 15.3892 17.0289 15.3863C17.029 15.3867 17.029 15.3872 17.0291 15.3876C17.0308 15.3967 17.0318 15.4087 17.0328 15.4251C17.033 15.4297 17.0333 15.4346 17.0336 15.4399C17.0342 15.4523 17.035 15.4662 17.036 15.4805C17.0424 15.5647 17.0614 15.6803 17.157 15.7968L17.1577 15.7977L17.1585 15.7986C17.209 15.8536 17.278 15.9078 17.3524 15.9658L17.3579 15.9702C17.4318 16.0278 17.5128 16.0911 17.594 16.1671C17.7597 16.3224 17.9259 16.531 18.0236 16.8483C18.1289 17.1773 18.3318 17.3958 18.5344 17.6136L18.5394 17.6191C18.7445 17.8395 18.9501 18.0622 19.0759 18.4065L19.1585 18.3763C19.0261 18.0135 18.8087 17.7793 18.6039 17.5591C18.3986 17.3384 18.2069 17.1323 18.1077 16.8221C18.0043 16.4869 17.828 16.2658 17.6542 16.1029C17.57 16.0241 17.4863 15.9588 17.4129 15.9014L17.4065 15.8964C17.331 15.8375 17.2687 15.7883 17.2243 15.7401C17.1455 15.6436 17.1294 15.549 17.1238 15.4739C17.1228 15.4606 17.1222 15.4484 17.1215 15.4364C17.1212 15.4309 17.1209 15.4254 17.1206 15.42C17.1197 15.4036 17.1184 15.3867 17.1157 15.3717C17.113 15.3571 17.1081 15.3394 17.0966 15.3242C17.0835 15.3071 17.0651 15.2972 17.0437 15.2947L17.0418 15.2945C16.9953 15.2912 16.9612 15.3226 16.9412 15.3577C16.9206 15.3936 16.9086 15.4424 16.9061 15.4987C16.9009 15.6121 16.9338 15.7659 17.0313 15.9363L17.0318 15.9372C17.0828 16.0215 17.1407 16.0841 17.2015 16.1422C17.2235 16.1632 17.2453 16.1831 17.2671 16.2031C17.3069 16.2395 17.3469 16.2762 17.389 16.32C17.5155 16.4519 17.6517 16.6415 17.7779 17.0288C17.9082 17.4283 18.0867 17.6362 18.2542 17.8312L18.2566 17.834C18.3545 17.948 18.4482 18.0576 18.5282 18.2002L16.2227 16.0643L16.2217 16.0634C16.2209 16.0626 16.2198 16.0616 16.2185 16.0604C16.2158 16.0579 16.212 16.0547 16.2073 16.0509C16.1982 16.0436 16.1849 16.034 16.169 16.0259C16.1395 16.011 16.0845 15.9942 16.0385 16.0372L16.0368 16.0387L16.0353 16.0405C15.9941 16.0879 16.0096 16.1422 16.025 16.173C16.0331 16.1892 16.0428 16.2027 16.0502 16.2119C16.0539 16.2166 16.0573 16.2204 16.0597 16.2231C16.061 16.2245 16.062 16.2256 16.0628 16.2264L16.0637 16.2274Z" fill="#85340A"/>
<path d="M18.048 20.344C17.328 20.384 17.008 20.792 16.344 20.712C16.864 20.888 17.272 20.464 18.04 20.488M19.944 19.872L16.536 21.432L20.048 20.128" fill="#85340A"/>
<path d="M18.0649 19.5708C17.3844 19.3322 16.9327 19.5867 16.3498 19.2587C16.7629 19.6203 17.3021 19.3847 18.0024 19.7008M19.9972 19.8603L16.2517 19.9974L19.9954 20.1366" fill="#85340A"/>
<path d="M18.3765 18.863C17.8391 18.3821 17.3243 18.4444 16.9114 17.9183C17.1546 18.4104 17.7429 18.3991 18.269 18.9591M20.0509 19.8699L16.538 18.5632L19.9434 20.1245" fill="#85340A"/>
<path d="M18.9352 18.3282C18.6227 17.6783 18.1233 17.5388 17.9431 16.8948C17.9795 17.4425 18.5274 17.6572 18.7991 18.3759M20.0968 19.8993L17.3514 17.3477L19.9001 20.0933" fill="#85340A"/>
<path d="M20.256 19.896L17.976 14.936C17.976 14.936 17.936 14.84 17.872 14.864C17.808 14.896 17.848 14.992 17.848 14.992L19.744 20.112M19.8 18.176C19.832 17.424 19.368 17.008 19.424 16.336C19.488 15.656 19.12 15.28 19.024 15.016C18.944 14.752 19.12 14.6 19.048 14.56C18.968 14.52 18.808 14.728 18.856 15.104C18.912 15.472 19.192 15.584 19.128 16.408C19.064 17.232 19.464 17.424 19.368 18.168" fill="#F6B40E"/>
<path fill-rule="evenodd" clip-rule="evenodd" d="M17.8071 15.0082L19.7027 20.1273L19.7853 20.0967L17.889 14.9759L17.8886 14.9749C17.8884 14.9745 17.8881 14.9739 17.8878 14.9729C17.8871 14.971 17.8861 14.968 17.885 14.9643C17.8828 14.9566 17.8806 14.9468 17.8799 14.9369C17.8785 14.9172 17.8829 14.9089 17.8895 14.9046C17.8946 14.9035 17.902 14.9049 17.9146 14.9196C17.921 14.9271 17.9264 14.9356 17.9302 14.9426C17.9321 14.946 17.9335 14.9488 17.9344 14.9507C17.9348 14.9517 17.9351 14.9523 17.9353 14.9527L17.9357 14.9537L19.3378 18.0039C19.3359 18.0539 19.3316 18.1065 19.3244 18.1624L19.4116 18.1736C19.4119 18.1712 19.4123 18.1689 19.4125 18.1665L20.216 19.9144L20.296 19.8776L19.4264 17.986C19.4335 17.7071 19.3682 17.5069 19.3018 17.3043L19.3009 17.3015C19.2216 17.0597 19.1407 16.8129 19.1719 16.4114C19.2043 15.9935 19.1496 15.7528 19.078 15.569C19.055 15.5101 19.0297 15.4558 19.0061 15.4051C18.9939 15.379 18.9821 15.3538 18.9714 15.3294C18.9391 15.2562 18.9128 15.1843 18.8996 15.0979C18.8766 14.9169 18.904 14.7798 18.9439 14.6947C18.964 14.6517 18.9862 14.6242 19.0044 14.61C19.0112 14.6048 19.0166 14.602 19.0206 14.6005C19.0205 14.6009 19.0204 14.6014 19.0203 14.6018C19.0184 14.6109 19.0148 14.6223 19.0094 14.6378C19.0079 14.6422 19.0062 14.6469 19.0045 14.6518C19.0003 14.6635 18.9957 14.6766 18.9912 14.6903C18.9648 14.7705 18.9382 14.8846 18.9819 15.0288L18.9822 15.0299L18.9826 15.031C19.0082 15.1012 19.0512 15.1776 19.0977 15.2597L19.1012 15.2658C19.1474 15.3474 19.198 15.4368 19.2439 15.5381C19.3376 15.745 19.4113 16.0013 19.3802 16.3319C19.3515 16.6761 19.4554 16.9556 19.5592 17.2344L19.5618 17.2414C19.6668 17.5235 19.7716 17.808 19.756 18.1741L19.844 18.1779C19.8604 17.792 19.7492 17.4925 19.6442 17.2106C19.539 16.9281 19.4408 16.6644 19.4678 16.3399C19.5007 15.9906 19.4224 15.7189 19.3241 15.5018C19.2765 15.3968 19.2242 15.3045 19.1783 15.2234L19.1743 15.2163C19.1271 15.1329 19.0883 15.0637 19.0658 15.0021C19.0299 14.8828 19.0513 14.7893 19.0748 14.7177C19.079 14.7051 19.083 14.6935 19.087 14.6823C19.0889 14.6771 19.0907 14.6719 19.0925 14.6667C19.0979 14.6512 19.1032 14.6351 19.1064 14.6202C19.1095 14.6057 19.1117 14.5874 19.1069 14.5691C19.1014 14.5482 19.0882 14.532 19.0694 14.5215L19.0677 14.5206C19.026 14.4998 18.9825 14.5157 18.9506 14.5405C18.9178 14.5658 18.888 14.6063 18.8641 14.6573C18.816 14.7602 18.7875 14.9148 18.8124 15.1096L18.8125 15.1106C18.8273 15.208 18.857 15.288 18.8909 15.3649C18.9031 15.3927 18.9156 15.4194 18.9281 15.4463C18.951 15.4952 18.9739 15.5444 18.996 15.601C19.0624 15.7712 19.1157 15.9985 19.0841 16.4046C19.0516 16.8236 19.137 17.0839 19.2171 17.3282L19.2182 17.3317C19.265 17.4745 19.3097 17.6116 19.329 17.7739L18.0163 14.9184L18.0158 14.9171C18.0153 14.9161 18.0147 14.9148 18.0139 14.9131C18.0124 14.9098 18.0102 14.9054 18.0073 14.9001C18.0016 14.8899 17.993 14.8759 17.9814 14.8624C17.9599 14.8372 17.9155 14.8007 17.8566 14.8228L17.8544 14.8236L17.8523 14.8246C17.7962 14.8527 17.7897 14.9088 17.7921 14.9431C17.7934 14.9612 17.7972 14.9774 17.8005 14.9887C17.8022 14.9945 17.8038 14.9993 17.805 15.0027C17.8056 15.0045 17.8062 15.0059 17.8066 15.0069L17.8071 15.0082Z" fill="#85340A"/>
<path d="M20.2763 20.0019L20.068 14.5469C20.068 14.5469 20.0678 14.4429 19.9994 14.4406C19.9281 14.4457 19.9283 14.5497 19.9283 14.5497L19.7206 20.0055M20.5132 18.2383C20.8306 17.5558 20.5611 16.9939 20.87 16.3945C21.1894 15.7907 20.9933 15.3025 21.0056 15.0219C21.0327 14.7474 21.2535 14.6743 21.2023 14.6098C21.1437 14.5422 20.9162 14.6731 20.8167 15.0389C20.7276 15.4003 20.9434 15.6109 20.569 16.3477C20.1945 17.0845 20.4906 17.415 20.1172 18.0656" fill="#F6B40E"/>
<path fill-rule="evenodd" clip-rule="evenodd" d="M19.8843 14.549L19.6767 20.0038L19.7646 20.0072L19.9723 14.5505L19.9723 14.5494C19.9723 14.549 19.9723 14.5483 19.9724 14.5473C19.9725 14.5452 19.9727 14.5421 19.9731 14.5382C19.974 14.5303 19.9757 14.5204 19.9789 14.5109C19.9851 14.4922 19.9923 14.4862 20.0001 14.4848C20.0052 14.4857 20.0115 14.4899 20.0175 14.5083C20.0206 14.5177 20.0223 14.5276 20.0231 14.5355C20.0236 14.5394 20.0238 14.5425 20.0239 14.5446C20.0239 14.5456 20.024 14.5464 20.024 14.5468L20.024 14.5478L20.1521 17.9025C20.1312 17.9479 20.1071 17.9948 20.079 18.0437L20.1553 18.0875C20.1565 18.0854 20.1577 18.0833 20.1589 18.0812L20.2323 20.0036L20.3203 20.0002L20.2408 17.9198C20.3541 17.6648 20.3704 17.4549 20.3866 17.2423L20.3868 17.2394C20.4061 16.9856 20.4258 16.7266 20.6082 16.3677C20.7981 15.994 20.8397 15.7506 20.8438 15.5535C20.8452 15.4902 20.8426 15.4304 20.8401 15.3745C20.8389 15.3457 20.8377 15.3179 20.8371 15.2913C20.8353 15.2113 20.8384 15.1348 20.8593 15.0499C20.9073 14.8739 20.9851 14.7577 21.0545 14.6943C21.0895 14.6623 21.1206 14.6454 21.1429 14.6393C21.1511 14.6371 21.1572 14.6366 21.1615 14.6367C21.1612 14.6371 21.161 14.6375 21.1607 14.6378C21.1555 14.6455 21.1477 14.6546 21.1368 14.6669C21.1338 14.6703 21.1304 14.674 21.1269 14.6779C21.1186 14.6871 21.1093 14.6975 21.0999 14.7084C21.0449 14.7724 20.9766 14.8676 20.9618 15.0176L20.9617 15.0188L20.9616 15.02C20.9584 15.0945 20.9689 15.1816 20.9804 15.2752L20.9813 15.2822C20.9928 15.3753 21.0053 15.4772 21.0089 15.5884C21.0163 15.8154 20.9864 16.0804 20.8311 16.3739C20.6729 16.681 20.6619 16.9789 20.6511 17.2762L20.6508 17.2836C20.6399 17.5845 20.6279 17.8874 20.4733 18.2198L20.5531 18.2569C20.716 17.9067 20.7279 17.5874 20.7388 17.2868C20.7497 16.9855 20.7599 16.7043 20.909 16.4148C21.073 16.1047 21.1046 15.8237 21.0969 15.5856C21.0932 15.4704 21.0802 15.365 21.0688 15.2725L21.0678 15.2645C21.0561 15.1693 21.0468 15.0905 21.0495 15.025C21.062 14.9011 21.1175 14.8229 21.1667 14.7658C21.1754 14.7557 21.1835 14.7466 21.1915 14.7377C21.1952 14.7336 21.1989 14.7295 21.2026 14.7254C21.2135 14.7131 21.2245 14.7003 21.2332 14.6877C21.2416 14.6755 21.2507 14.6595 21.2532 14.6407C21.2561 14.6194 21.2501 14.5993 21.2367 14.5824L21.2355 14.581C21.205 14.5458 21.1587 14.5438 21.1197 14.5544C21.0798 14.5653 21.0368 14.5913 20.9952 14.6294C20.9114 14.7059 20.8258 14.8379 20.7742 15.0273L20.774 15.0284C20.7504 15.124 20.7472 15.2092 20.7491 15.2933C20.7498 15.3237 20.7511 15.3531 20.7524 15.3827C20.7547 15.4366 20.7571 15.4909 20.7559 15.5516C20.752 15.7343 20.7143 15.9647 20.5298 16.3278C20.3393 16.7024 20.3186 16.9756 20.2991 17.232L20.2988 17.2356C20.2874 17.3855 20.2762 17.5292 20.2319 17.6866L20.112 14.5461L20.1119 14.5447C20.1119 14.5436 20.1119 14.5421 20.1118 14.5403C20.1116 14.5367 20.1113 14.5317 20.1106 14.5258C20.1093 14.5141 20.1067 14.4979 20.1012 14.481C20.0909 14.4495 20.0639 14.3988 20.0009 14.3966L19.9986 14.3966L19.9963 14.3967C19.9337 14.4012 19.9062 14.4505 19.8954 14.4831C19.8896 14.5003 19.887 14.5167 19.8856 14.5285C19.885 14.5345 19.8846 14.5395 19.8845 14.5431C19.8844 14.545 19.8843 14.5465 19.8843 14.5476L19.8843 14.549Z" fill="#85340A"/>
<path d="M20.2546 20.1075L22.1496 14.988C22.1496 14.988 22.1892 14.8919 22.127 14.8636C22.0591 14.8409 22.0195 14.9371 22.0195 14.9371L19.7398 19.8982M21.1483 18.5688C21.7027 18.0597 21.6688 17.4374 22.1835 17.0019C22.7096 16.5663 22.7153 16.0402 22.8341 15.7856C22.9642 15.5424 23.1961 15.5594 23.1735 15.4802C23.1452 15.3953 22.885 15.4293 22.6531 15.7291C22.4324 16.0289 22.5512 16.3061 21.9233 16.8435C21.2954 17.3809 21.4425 17.7995 20.8485 18.2577" fill="#F6B40E"/>
<path fill-rule="evenodd" clip-rule="evenodd" d="M21.9791 14.9196L19.6998 19.8798L19.7798 19.9165L22.0598 14.9547L22.0602 14.9537C22.0604 14.9533 22.0607 14.9527 22.0611 14.9517C22.062 14.9499 22.0634 14.9471 22.0653 14.9437C22.0691 14.9367 22.0745 14.9282 22.081 14.9207C22.0939 14.9058 22.1029 14.903 22.1107 14.9047C22.115 14.9074 22.1192 14.9137 22.1178 14.933C22.117 14.9429 22.1148 14.9526 22.1126 14.9603C22.1115 14.9641 22.1105 14.967 22.1098 14.969C22.1094 14.97 22.1091 14.9707 22.109 14.9711L22.1086 14.972L20.9432 18.1203C20.9065 18.1543 20.8663 18.1884 20.8217 18.2228L20.8754 18.2925C20.8773 18.2911 20.8792 18.2896 20.8811 18.2881L20.2133 20.0922L20.2958 20.1228L21.0186 18.1703C21.2207 17.9781 21.3162 17.7904 21.4125 17.6002L21.4138 17.5975C21.5287 17.3705 21.646 17.1387 21.9519 16.8769C22.2704 16.6043 22.4019 16.3955 22.4812 16.2149C22.5066 16.157 22.5271 16.1007 22.5463 16.0481C22.5561 16.021 22.5656 15.9949 22.5753 15.97C22.6042 15.8954 22.6364 15.826 22.6882 15.7556C22.7999 15.6113 22.9163 15.5338 23.0046 15.5017C23.0492 15.4856 23.0844 15.4818 23.1073 15.4848C23.1158 15.4858 23.1216 15.4877 23.1255 15.4895C23.1251 15.4897 23.1248 15.4899 23.1244 15.4902C23.1166 15.4952 23.1059 15.5007 23.0912 15.5079C23.087 15.5099 23.0825 15.512 23.0778 15.5143C23.0666 15.5196 23.054 15.5256 23.0412 15.5321C22.9658 15.5702 22.8663 15.632 22.7953 15.7649L22.7947 15.7659L22.7942 15.767C22.7626 15.8347 22.7391 15.9192 22.7139 16.0101L22.712 16.0169C22.687 16.1072 22.6596 16.2062 22.6204 16.3104C22.5403 16.5229 22.4112 16.7562 22.1555 16.968C21.8918 17.1911 21.7676 17.4622 21.6439 17.7327L21.6408 17.7395C21.5155 18.0133 21.3885 18.2885 21.1186 18.5364L21.1781 18.6012C21.4625 18.34 21.5957 18.0495 21.7208 17.7761C21.8462 17.5019 21.9632 17.246 22.2118 17.0356C22.482 16.8118 22.6187 16.5644 22.7027 16.3414C22.7434 16.2335 22.7717 16.1312 22.7965 16.0414L22.7987 16.0336C22.8243 15.9412 22.8459 15.8648 22.8734 15.8053C22.9324 15.6957 23.0137 15.6446 23.0809 15.6107C23.0928 15.6046 23.1038 15.5994 23.1146 15.5942C23.1196 15.5919 23.1246 15.5895 23.1295 15.5871C23.1443 15.5799 23.1594 15.5723 23.1722 15.564C23.1847 15.556 23.1992 15.5446 23.2087 15.5282C23.2196 15.5097 23.2217 15.4888 23.2158 15.4681L23.2152 15.4663C23.2005 15.4221 23.1585 15.4025 23.1184 15.3975C23.0773 15.3922 23.0276 15.3998 22.9747 15.419C22.8679 15.4577 22.7384 15.5468 22.6183 15.7022L22.6176 15.703C22.5593 15.7823 22.5237 15.8598 22.4932 15.9382C22.4823 15.9665 22.4722 15.9943 22.4621 16.0221C22.4436 16.0728 22.4251 16.1239 22.4006 16.1795C22.3272 16.3468 22.2042 16.5452 21.8947 16.81C21.5754 17.0833 21.4517 17.3278 21.3356 17.5572L21.3339 17.5604C21.2661 17.6945 21.2007 17.823 21.0996 17.9514L22.1906 15.0041L22.1911 15.0028C22.1915 15.0018 22.192 15.0004 22.1926 14.9987C22.1938 14.9953 22.1954 14.9905 22.1971 14.9848C22.2003 14.9736 22.2041 14.9575 22.2055 14.9398C22.208 14.9068 22.2025 14.8496 22.1452 14.8235L22.1431 14.8226L22.1409 14.8218C22.0813 14.802 22.0371 14.837 22.0145 14.863C22.0027 14.8767 21.9939 14.8908 21.9882 14.9012C21.9853 14.9065 21.9831 14.911 21.9815 14.9143C21.9807 14.916 21.9801 14.9173 21.9797 14.9184L21.9791 14.9196Z" fill="#85340A"/>
<path d="M20.194 20.1967L23.904 16.1922C23.904 16.1922 23.9774 16.1185 23.9307 16.0685C23.8766 16.0216 23.8033 16.0953 23.8033 16.0953L19.7986 19.8063M21.6086 19.1172C22.3156 18.859 22.5224 18.2711 23.1647 18.0657C23.8174 17.8646 24.0239 17.3807 24.2311 17.191C24.4444 17.0161 24.6522 17.1205 24.6616 17.0387C24.6679 16.9494 24.4145 16.8812 24.0855 17.0695C23.767 17.262 23.7706 17.5636 22.9849 17.8198C22.1991 18.076 22.1748 18.519 21.4507 18.715" fill="#F6B40E"/>
<path fill-rule="evenodd" clip-rule="evenodd" d="M23.7726 16.0637L19.7687 19.7741L19.8285 19.8386L23.8338 16.127L23.8346 16.1263C23.8348 16.126 23.8354 16.1255 23.8361 16.1248C23.8377 16.1234 23.84 16.1213 23.843 16.1189C23.8492 16.114 23.8575 16.1082 23.8664 16.1037C23.884 16.0949 23.8934 16.0957 23.8999 16.1003C23.9029 16.1045 23.9043 16.1119 23.8956 16.1292C23.8911 16.1379 23.8853 16.1461 23.8804 16.1524C23.8779 16.1554 23.8758 16.1578 23.8744 16.1593C23.8737 16.1601 23.8732 16.1607 23.8729 16.161L23.8722 16.1617L21.5907 18.6244C21.5439 18.6417 21.4936 18.6578 21.4392 18.6726L21.4622 18.7575C21.4645 18.7569 21.4668 18.7562 21.4691 18.7556L20.1618 20.1668L20.2263 20.2266L21.6412 18.6993C21.9016 18.5992 22.0616 18.4623 22.2233 18.3234L22.2256 18.3214C22.4186 18.1557 22.6157 17.9864 22.9985 17.8616C23.3971 17.7317 23.5985 17.589 23.7409 17.4525C23.7865 17.4087 23.827 17.3646 23.8648 17.3234C23.8842 17.3021 23.903 17.2816 23.9215 17.2623C23.9767 17.2045 24.0331 17.1527 24.1078 17.1074C24.2662 17.0169 24.4035 16.9897 24.4973 16.994C24.5447 16.9961 24.5786 17.0061 24.5987 17.0176C24.6061 17.0218 24.6108 17.0258 24.6137 17.0289C24.6133 17.029 24.6128 17.029 24.6124 17.0291C24.6033 17.0308 24.5913 17.0318 24.5749 17.0328C24.5703 17.033 24.5654 17.0333 24.5601 17.0336C24.5477 17.0342 24.5338 17.035 24.5195 17.036C24.4353 17.0424 24.3197 17.0614 24.2032 17.157L24.2023 17.1577L24.2014 17.1585C24.1463 17.209 24.0922 17.278 24.0342 17.3524L24.0298 17.3579C23.9722 17.4318 23.9089 17.5128 23.8329 17.594C23.6776 17.7597 23.469 17.9259 23.1517 18.0236C22.8227 18.1289 22.6042 18.3318 22.3864 18.5344L22.3809 18.5394C22.1605 18.7445 21.9378 18.9501 21.5935 19.0759L21.6237 19.1585C21.9865 19.0261 22.2207 18.8087 22.4409 18.6039C22.6616 18.3986 22.8677 18.2069 23.1778 18.1077C23.5131 18.0043 23.7342 17.828 23.8971 17.6542C23.9759 17.57 24.0412 17.4863 24.0986 17.4129L24.1036 17.4065C24.1625 17.331 24.2117 17.2687 24.2599 17.2243C24.3564 17.1455 24.451 17.1294 24.5261 17.1238C24.5394 17.1228 24.5516 17.1222 24.5636 17.1215C24.5691 17.1212 24.5746 17.1209 24.58 17.1206C24.5964 17.1197 24.6133 17.1184 24.6283 17.1157C24.6429 17.113 24.6606 17.1081 24.6758 17.0966C24.6929 17.0835 24.7028 17.0651 24.7053 17.0437L24.7055 17.0418C24.7088 16.9953 24.6774 16.9612 24.6423 16.9412C24.6064 16.9206 24.5576 16.9086 24.5013 16.9061C24.3879 16.9009 24.2341 16.9338 24.0637 17.0313L24.0628 17.0318C23.9785 17.0828 23.9159 17.1407 23.8578 17.2015C23.8368 17.2235 23.8169 17.2453 23.7969 17.2671C23.7605 17.3069 23.7238 17.3469 23.6799 17.389C23.5481 17.5155 23.3585 17.6517 22.9712 17.7779C22.5717 17.9082 22.3638 18.0867 22.1688 18.2542L22.166 18.2566C22.052 18.3545 21.9424 18.4482 21.7998 18.5282L23.9357 16.2227L23.9366 16.2217C23.9374 16.2209 23.9384 16.2198 23.9396 16.2185C23.9421 16.2158 23.9453 16.212 23.9491 16.2073C23.9564 16.1982 23.966 16.1849 23.9741 16.169C23.989 16.1395 24.0058 16.0845 23.9628 16.0385L23.9613 16.0368L23.9595 16.0353C23.9121 15.9941 23.8578 16.0096 23.827 16.025C23.8108 16.0331 23.7973 16.0428 23.7881 16.0502C23.7834 16.0539 23.7796 16.0573 23.7769 16.0597C23.7755 16.061 23.7744 16.062 23.7736 16.0628L23.7726 16.0637Z" fill="#85340A"/>
<path d="M19.656 18.048C19.616 17.328 19.208 17.008 19.288 16.344C19.112 16.864 19.536 17.272 19.512 18.04M20.128 19.944L18.568 16.536L19.872 20.048" fill="#85340A"/>
<path d="M20.4292 18.0649C20.6678 17.3844 20.4133 16.9327 20.7413 16.3498C20.3797 16.7629 20.6153 17.3021 20.2992 18.0024M20.1397 19.9972L20.0026 16.2517L19.8634 19.9954" fill="#85340A"/>
<path d="M21.137 18.3765C21.6179 17.8391 21.5556 17.3243 22.0817 16.9114C21.5896 17.1546 21.6009 17.7429 21.0409 18.269M20.1301 20.0509L21.4368 16.538L19.8755 19.9434" fill="#85340A"/>
<path d="M21.6718 18.9352C22.3217 18.6227 22.4612 18.1233 23.1052 17.9431C22.5575 17.9795 22.3428 18.5274 21.6241 18.7991M20.1007 20.0968L22.6523 17.3514L19.9067 19.9001" fill="#85340A"/>
<path d="M20.104 20.256L25.064 17.976C25.064 17.976 25.16 17.936 25.136 17.872C25.104 17.808 25.008 17.848 25.008 17.848L19.888 19.744M21.824 19.8C22.576 19.832 22.992 19.368 23.664 19.424C24.344 19.488 24.72 19.12 24.984 19.024C25.248 18.944 25.4 19.12 25.44 19.048C25.48 18.968 25.272 18.808 24.896 18.856C24.528 18.912 24.416 19.192 23.592 19.128C22.768 19.064 22.576 19.464 21.832 19.368" fill="#F6B40E"/>
<path fill-rule="evenodd" clip-rule="evenodd" d="M24.9918 17.8071L19.8727 19.7027L19.9033 19.7853L25.0241 17.889L25.0251 17.8886C25.0255 17.8884 25.0261 17.8881 25.0271 17.8878C25.029 17.8871 25.032 17.8861 25.0357 17.885C25.0434 17.8828 25.0532 17.8806 25.0631 17.8799C25.0828 17.8785 25.0911 17.8829 25.0954 17.8895C25.0965 17.8946 25.0951 17.902 25.0804 17.9146C25.0729 17.921 25.0644 17.9264 25.0574 17.9302C25.054 17.9321 25.0512 17.9335 25.0493 17.9344C25.0483 17.9348 25.0476 17.9351 25.0473 17.9353L25.0463 17.9357L21.9961 19.3378C21.9461 19.3359 21.8935 19.3316 21.8376 19.3244L21.8264 19.4116C21.8288 19.4119 21.8311 19.4123 21.8335 19.4125L20.0856 20.216L20.1224 20.296L22.014 19.4264C22.2929 19.4335 22.4931 19.3682 22.6957 19.3018L22.6985 19.3009C22.9403 19.2216 23.1871 19.1407 23.5886 19.1719C24.0065 19.2043 24.2472 19.1496 24.431 19.078C24.4899 19.055 24.5442 19.0297 24.5949 19.0061C24.621 18.9939 24.6462 18.9821 24.6706 18.9714C24.7438 18.9391 24.8157 18.9128 24.9021 18.8996C25.0831 18.8766 25.2202 18.904 25.3053 18.9439C25.3483 18.964 25.3758 18.9862 25.39 19.0044C25.3952 19.0112 25.398 19.0166 25.3995 19.0206C25.3991 19.0205 25.3986 19.0204 25.3982 19.0203C25.3891 19.0184 25.3777 19.0148 25.3622 19.0094C25.3578 19.0079 25.3531 19.0062 25.3482 19.0045C25.3365 19.0003 25.3234 18.9957 25.3097 18.9912C25.2295 18.9648 25.1154 18.9382 24.9712 18.9819L24.9701 18.9822L24.969 18.9826C24.8988 19.0082 24.8224 19.0512 24.7403 19.0977L24.7342 19.1012C24.6526 19.1474 24.5632 19.198 24.4618 19.2439C24.255 19.3376 23.9987 19.4113 23.6681 19.3802C23.3239 19.3515 23.0444 19.4554 22.7656 19.5592L22.7586 19.5618C22.4765 19.6668 22.192 19.7716 21.8259 19.756L21.8221 19.844C22.208 19.8604 22.5075 19.7492 22.7894 19.6442C23.0719 19.539 23.3356 19.4408 23.6601 19.4678C24.0094 19.5007 24.2811 19.4224 24.4981 19.3241C24.6032 19.2765 24.6955 19.2242 24.7766 19.1783L24.7837 19.1743C24.8671 19.1271 24.9363 19.0883 24.9979 19.0658C25.1172 19.0299 25.2107 19.0513 25.2822 19.0748C25.2949 19.079 25.3065 19.083 25.3177 19.087C25.3229 19.0889 25.3281 19.0907 25.3333 19.0925C25.3488 19.0979 25.3649 19.1032 25.3798 19.1064C25.3943 19.1095 25.4126 19.1117 25.4309 19.1069C25.4517 19.1014 25.468 19.0882 25.4785 19.0694L25.4794 19.0677C25.5002 19.026 25.4843 18.9825 25.4595 18.9506C25.4342 18.9178 25.3937 18.888 25.3427 18.8641C25.2398 18.816 25.0852 18.7875 24.8904 18.8124L24.8894 18.8125C24.792 18.8273 24.712 18.857 24.6351 18.8909C24.6073 18.9031 24.5806 18.9156 24.5537 18.9281C24.5048 18.951 24.4556 18.9739 24.399 18.996C24.2288 19.0624 24.0015 19.1157 23.5954 19.0841C23.1764 19.0516 22.9161 19.137 22.6717 19.2171L22.6683 19.2182C22.5255 19.265 22.3884 19.3097 22.2261 19.329L25.0816 18.0163L25.0829 18.0158C25.0839 18.0153 25.0852 18.0147 25.0869 18.0139C25.0902 18.0124 25.0946 18.0102 25.0998 18.0073C25.1101 18.0016 25.1241 17.993 25.1376 17.9814C25.1628 17.9599 25.1993 17.9155 25.1772 17.8566L25.1764 17.8544L25.1754 17.8523C25.1473 17.7962 25.0912 17.7897 25.0569 17.7921C25.0388 17.7934 25.0226 17.7972 25.0113 17.8005C25.0055 17.8022 25.0007 17.8038 24.9973 17.805C24.9955 17.8056 24.9941 17.8062 24.9931 17.8066L24.9918 17.8071Z" fill="#85340A"/>
<path d="M19.9981 20.2763L25.4531 20.068C25.4531 20.068 25.5571 20.0678 25.5594 19.9994C25.5543 19.9281 25.4503 19.9283 25.4503 19.9283L19.9945 19.7206M21.7617 20.5132C22.4442 20.8306 23.0061 20.5611 23.6055 20.87C24.2093 21.1894 24.6975 20.9933 24.9781 21.0056C25.2526 21.0327 25.3257 21.2535 25.3902 21.2023C25.4578 21.1437 25.3269 20.9162 24.9611 20.8167C24.5997 20.7276 24.3891 20.9434 23.6523 20.569C22.9155 20.1945 22.585 20.4906 21.9344 20.1172" fill="#F6B40E"/>
<path fill-rule="evenodd" clip-rule="evenodd" d="M25.451 19.8843L19.9962 19.6767L19.9928 19.7646L25.4495 19.9723L25.4506 19.9723C25.451 19.9723 25.4517 19.9723 25.4527 19.9724C25.4548 19.9725 25.4579 19.9727 25.4618 19.9731C25.4697 19.974 25.4796 19.9757 25.4891 19.9789C25.5078 19.9851 25.5138 19.9923 25.5152 20.0001C25.5143 20.0052 25.5101 20.0115 25.4917 20.0175C25.4823 20.0206 25.4724 20.0223 25.4645 20.0231C25.4606 20.0236 25.4575 20.0238 25.4554 20.0239C25.4544 20.0239 25.4536 20.024 25.4532 20.024L25.4522 20.024L22.0975 20.1521C22.0521 20.1312 22.0052 20.1071 21.9563 20.079L21.9125 20.1553C21.9146 20.1565 21.9167 20.1577 21.9188 20.1589L19.9964 20.2323L19.9998 20.3203L22.0802 20.2408C22.3352 20.3541 22.5451 20.3704 22.7577 20.3866L22.7606 20.3868C23.0144 20.4061 23.2734 20.4258 23.6323 20.6082C24.006 20.7981 24.2493 20.8397 24.4465 20.8438C24.5098 20.8452 24.5696 20.8426 24.6255 20.8401C24.6543 20.8389 24.6821 20.8377 24.7087 20.8371C24.7887 20.8353 24.8652 20.8384 24.9501 20.8593C25.1261 20.9073 25.2423 20.9851 25.3057 21.0545C25.3377 21.0895 25.3546 21.1206 25.3607 21.1429C25.3629 21.1511 25.3634 21.1572 25.3633 21.1615C25.3629 21.1612 25.3625 21.161 25.3622 21.1607C25.3545 21.1555 25.3454 21.1477 25.3331 21.1368C25.3297 21.1338 25.326 21.1304 25.3221 21.1269C25.3128 21.1186 25.3025 21.1093 25.2916 21.0999C25.2276 21.0449 25.1324 20.9766 24.9824 20.9618L24.9812 20.9617L24.98 20.9616C24.9055 20.9584 24.8184 20.9689 24.7248 20.9804L24.7178 20.9813C24.6247 20.9928 24.5228 21.0053 24.4115 21.0089C24.1846 21.0163 23.9196 20.9864 23.6261 20.8311C23.319 20.6729 23.0211 20.6619 22.7238 20.6511L22.7164 20.6508C22.4155 20.6399 22.1126 20.6279 21.7802 20.4733L21.7431 20.5531C22.0933 20.716 22.4126 20.7279 22.7132 20.7388C23.0145 20.7497 23.2957 20.7599 23.5852 20.909C23.8953 21.073 24.1763 21.1046 24.4144 21.0969C24.5296 21.0932 24.635 21.0802 24.7275 21.0688L24.7355 21.0678C24.8307 21.0561 24.9095 21.0468 24.975 21.0495C25.0989 21.062 25.1771 21.1175 25.2342 21.1667C25.2443 21.1754 25.2534 21.1835 25.2623 21.1915C25.2664 21.1952 25.2705 21.1989 25.2746 21.2026C25.2869 21.2135 25.2997 21.2245 25.3123 21.2332C25.3245 21.2416 25.3405 21.2507 25.3593 21.2532C25.3806 21.2561 25.4007 21.2501 25.4176 21.2367L25.419 21.2355C25.4542 21.205 25.4562 21.1587 25.4456 21.1197C25.4347 21.0798 25.4086 21.0368 25.3706 20.9952C25.2941 20.9114 25.1621 20.8258 24.9727 20.7742L24.9716 20.774C24.876 20.7504 24.7908 20.7472 24.7067 20.7491C24.6763 20.7498 24.6469 20.7511 24.6173 20.7524C24.5634 20.7547 24.5091 20.7571 24.4484 20.7559C24.2657 20.752 24.0353 20.7143 23.6722 20.5298C23.2976 20.3393 23.0244 20.3186 22.768 20.2991L22.7644 20.2988C22.6145 20.2874 22.4708 20.2762 22.3134 20.2319L25.4539 20.112L25.4553 20.1119C25.4564 20.1119 25.4579 20.1119 25.4597 20.1118C25.4633 20.1116 25.4683 20.1113 25.4742 20.1106C25.4859 20.1093 25.5021 20.1067 25.519 20.1012C25.5505 20.0909 25.6012 20.0639 25.6034 20.0009L25.6034 19.9986L25.6033 19.9963C25.5988 19.9337 25.5495 19.9062 25.5169 19.8954C25.4997 19.8896 25.4833 19.887 25.4715 19.8856C25.4655 19.885 25.4605 19.8846 25.4569 19.8845C25.455 19.8844 25.4535 19.8843 25.4524 19.8843L25.451 19.8843Z" fill="#85340A"/>
<path d="M19.8925 20.2546L25.012 22.1496C25.012 22.1496 25.1081 22.1892 25.1364 22.127C25.1591 22.0591 25.0629 22.0195 25.0629 22.0195L20.1018 19.7398M21.4312 21.1483C21.9403 21.7027 22.5626 21.6688 22.9981 22.1835C23.4337 22.7096 23.9598 22.7153 24.2144 22.8341C24.4576 22.9642 24.4406 23.1961 24.5198 23.1735C24.6047 23.1452 24.5707 22.885 24.2709 22.6531C23.9711 22.4324 23.6939 22.5512 23.1565 21.9233C22.6191 21.2954 22.2005 21.4425 21.7423 20.8485" fill="#F6B40E"/>
<path fill-rule="evenodd" clip-rule="evenodd" d="M25.0804 21.9791L20.1202 19.6998L20.0835 19.7798L25.0453 22.0598L25.0463 22.0602C25.0467 22.0604 25.0473 22.0607 25.0483 22.0611C25.0501 22.062 25.0529 22.0634 25.0563 22.0653C25.0633 22.0691 25.0718 22.0745 25.0793 22.081C25.0942 22.0939 25.097 22.1029 25.0953 22.1107C25.0926 22.115 25.0863 22.1192 25.067 22.1178C25.0571 22.117 25.0474 22.1148 25.0397 22.1126C25.0359 22.1115 25.033 22.1105 25.031 22.1098C25.03 22.1094 25.0293 22.1091 25.0289 22.109L25.028 22.1086L21.8797 20.9432C21.8457 20.9065 21.8116 20.8663 21.7771 20.8217L21.7075 20.8754C21.7089 20.8773 21.7104 20.8792 21.7119 20.8811L19.9078 20.2133L19.8772 20.2958L21.8297 21.0186C22.0219 21.2207 22.2096 21.3162 22.3998 21.4125L22.4025 21.4138C22.6295 21.5287 22.8613 21.646 23.1231 21.9519C23.3957 22.2704 23.6045 22.4019 23.7851 22.4812C23.843 22.5066 23.8993 22.5271 23.9519 22.5463C23.979 22.5561 24.0051 22.5656 24.03 22.5753C24.1045 22.6042 24.174 22.6364 24.2444 22.6882C24.3887 22.7999 24.4662 22.9163 24.4983 23.0046C24.5144 23.0492 24.5182 23.0844 24.5152 23.1073C24.5142 23.1158 24.5123 23.1216 24.5105 23.1255C24.5103 23.1251 24.5101 23.1248 24.5098 23.1244C24.5048 23.1166 24.4993 23.1059 24.4921 23.0912C24.4901 23.087 24.488 23.0825 24.4857 23.0778C24.4804 23.0666 24.4744 23.054 24.4679 23.0412C24.4298 22.9658 24.368 22.8663 24.2351 22.7953L24.2341 22.7947L24.233 22.7942C24.1653 22.7626 24.0808 22.7391 23.9899 22.7139L23.9831 22.712C23.8928 22.687 23.7938 22.6596 23.6896 22.6204C23.4771 22.5403 23.2438 22.4112 23.032 22.1555C22.8089 21.8918 22.5378 21.7676 22.2673 21.6439L22.2605 21.6408C21.9867 21.5155 21.7115 21.3885 21.4636 21.1186L21.3988 21.1781C21.66 21.4625 21.9504 21.5957 22.2239 21.7208C22.4981 21.8462 22.754 21.9632 22.9644 22.2118C23.1882 22.482 23.4356 22.6187 23.6586 22.7027C23.7665 22.7434 23.8688 22.7717 23.9586 22.7965L23.9664 22.7987C24.0588 22.8243 24.1352 22.8459 24.1947 22.8734C24.3043 22.9324 24.3554 23.0137 24.3893 23.0809C24.3954 23.0928 24.4006 23.1038 24.4058 23.1146C24.4081 23.1196 24.4105 23.1246 24.4129 23.1295C24.4201 23.1443 24.4277 23.1594 24.436 23.1722C24.444 23.1847 24.4554 23.1992 24.4718 23.2087C24.4903 23.2196 24.5112 23.2217 24.5319 23.2158L24.5337 23.2152C24.5779 23.2005 24.5975 23.1585 24.6025 23.1184C24.6078 23.0773 24.6002 23.0276 24.581 22.9747C24.5423 22.8679 24.4532 22.7384 24.2978 22.6183L24.297 22.6176C24.2177 22.5593 24.1402 22.5237 24.0618 22.4932C24.0335 22.4823 24.0057 22.4722 23.9779 22.4621C23.9272 22.4436 23.8761 22.4251 23.8205 22.4006C23.6532 22.3272 23.4548 22.2042 23.19 21.8947C22.9167 21.5754 22.6722 21.4517 22.4428 21.3356L22.4396 21.3339C22.3055 21.2661 22.177 21.2007 22.0486 21.0996L24.9959 22.1906L24.9972 22.1911C24.9982 22.1915 24.9996 22.192 25.0013 22.1926C25.0047 22.1938 25.0095 22.1954 25.0152 22.1971C25.0264 22.2003 25.0425 22.2041 25.0602 22.2055C25.0932 22.208 25.1504 22.2025 25.1765 22.1452L25.1774 22.1431L25.1782 22.1409C25.198 22.0813 25.1629 22.0371 25.137 22.0145C25.1233 22.0027 25.1092 21.9939 25.0988 21.9882C25.0935 21.9853 25.089 21.9831 25.0857 21.9815C25.084 21.9807 25.0827 21.9801 25.0816 21.9797L25.0804 21.9791Z" fill="#85340A"/>
<path d="M19.8033 20.194L23.8078 23.904C23.8078 23.904 23.8815 23.9774 23.9315 23.9307C23.9784 23.8766 23.9047 23.8033 23.9047 23.8033L20.1937 19.7986M20.8828 21.6086C21.141 22.3156 21.7289 22.5224 21.9343 23.1647C22.1354 23.8174 22.6193 24.0239 22.809 24.2311C22.9839 24.4444 22.8795 24.6522 22.9613 24.6616C23.0505 24.6679 23.1188 24.4145 22.9305 24.0855C22.738 23.767 22.4364 23.7706 22.1802 22.9849C21.924 22.1991 21.481 22.1748 21.285 21.4507" fill="#F6B40E"/>
<path fill-rule="evenodd" clip-rule="evenodd" d="M23.9363 23.7726L20.2259 19.7687L20.1614 19.8285L23.873 23.8338L23.8737 23.8346C23.874 23.8348 23.8745 23.8354 23.8752 23.8361C23.8766 23.8377 23.8787 23.84 23.8811 23.843C23.886 23.8492 23.8918 23.8575 23.8963 23.8664C23.9051 23.884 23.9043 23.8934 23.8997 23.8999C23.8955 23.9029 23.8881 23.9043 23.8708 23.8956C23.8621 23.8911 23.8539 23.8853 23.8476 23.8804C23.8446 23.8779 23.8422 23.8758 23.8407 23.8744C23.8399 23.8737 23.8393 23.8732 23.839 23.8729L23.8383 23.8722L21.3756 21.5907C21.3583 21.5439 21.3422 21.4936 21.3274 21.4392L21.2425 21.4622C21.2431 21.4645 21.2438 21.4668 21.2444 21.4691L19.8332 20.1618L19.7734 20.2263L21.3007 21.6412C21.4008 21.9016 21.5377 22.0616 21.6766 22.2233L21.6786 22.2256C21.8443 22.4186 22.0136 22.6157 22.1384 22.9985C22.2683 23.3971 22.411 23.5985 22.5475 23.7409C22.5913 23.7865 22.6354 23.827 22.6766 23.8648C22.6979 23.8842 22.7184 23.903 22.7377 23.9215C22.7955 23.9767 22.8473 24.0331 22.8926 24.1078C22.9831 24.2662 23.0103 24.4035 23.006 24.4973C23.0039 24.5447 22.9939 24.5786 22.9824 24.5987C22.9782 24.6061 22.9742 24.6108 22.9711 24.6137C22.971 24.6133 22.971 24.6128 22.9709 24.6124C22.9692 24.6033 22.9682 24.5913 22.9672 24.5749C22.967 24.5703 22.9667 24.5654 22.9664 24.5601C22.9658 24.5477 22.965 24.5338 22.964 24.5195C22.9576 24.4353 22.9386 24.3197 22.843 24.2032L22.8423 24.2023L22.8414 24.2014C22.791 24.1463 22.722 24.0922 22.6476 24.0342L22.6421 24.0298C22.5682 23.9722 22.4872 23.9089 22.406 23.8329C22.2403 23.6776 22.0741 23.469 21.9764 23.1517C21.8711 22.8227 21.6682 22.6042 21.4656 22.3864L21.4606 22.3809C21.2555 22.1605 21.0498 21.9378 20.9241 21.5935L20.8415 21.6237C20.9739 21.9865 21.1913 22.2207 21.3961 22.4409C21.6014 22.6616 21.7931 22.8677 21.8923 23.1778C21.9957 23.5131 22.172 23.7342 22.3458 23.8971C22.43 23.9759 22.5136 24.0412 22.5871 24.0986L22.5935 24.1036C22.669 24.1625 22.7313 24.2117 22.7757 24.2599C22.8545 24.3564 22.8706 24.451 22.8762 24.5261C22.8772 24.5394 22.8778 24.5516 22.8785 24.5636C22.8788 24.5691 22.8791 24.5746 22.8794 24.58C22.8803 24.5964 22.8816 24.6133 22.8843 24.6283C22.887 24.6429 22.8919 24.6606 22.9034 24.6758C22.9165 24.6929 22.9349 24.7028 22.9563 24.7053L22.9582 24.7055C23.0047 24.7088 23.0388 24.6774 23.0588 24.6423C23.0794 24.6064 23.0914 24.5576 23.0939 24.5013C23.099 24.3879 23.0662 24.2341 22.9687 24.0637L22.9682 24.0628C22.9172 23.9785 22.8593 23.9159 22.7985 23.8578C22.7765 23.8368 22.7547 23.8169 22.7329 23.7969C22.6931 23.7605 22.6531 23.7238 22.611 23.6799C22.4845 23.5481 22.3483 23.3585 22.2221 22.9712C22.0918 22.5717 21.9133 22.3638 21.7458 22.1688L21.7434 22.166C21.6455 22.052 21.5518 21.9424 21.4718 21.7998L23.7773 23.9357L23.7783 23.9366C23.7791 23.9374 23.7802 23.9384 23.7815 23.9396C23.7842 23.9421 23.788 23.9453 23.7926 23.9491C23.8018 23.9564 23.8151 23.966 23.831 23.9741C23.8605 23.989 23.9155 24.0058 23.9615 23.9628L23.9632 23.9613L23.9647 23.9595C24.0059 23.9121 23.9904 23.8578 23.975 23.827C23.9669 23.8108 23.9572 23.7973 23.9498 23.7881C23.9461 23.7834 23.9427 23.7796 23.9403 23.7769C23.939 23.7755 23.938 23.7744 23.9372 23.7736L23.9363 23.7726Z" fill="#85340A"/>
<path d="M21.952 19.656C22.672 19.616 22.992 19.208 23.656 19.288C23.136 19.112 22.728 19.536 21.96 19.512M20.056 20.128L23.464 18.568L19.952 19.872" fill="#85340A"/>
<path d="M21.9351 20.4292C22.6156 20.6678 23.0673 20.4133 23.6502 20.7413C23.2371 20.3797 22.6979 20.6153 21.9976 20.2992M20.0028 20.1397L23.7483 20.0026L20.0046 19.8634" fill="#85340A"/>
<path d="M21.6235 21.137C22.1609 21.6179 22.6757 21.5556 23.0886 22.0817C22.8454 21.5896 22.2571 21.6009 21.731 21.0409M19.9491 20.1301L23.462 21.4368L20.0566 19.8755" fill="#85340A"/>
<path d="M21.0648 21.6718C21.3773 22.3217 21.8767 22.4612 22.0569 23.1052C22.0205 22.5575 21.4726 22.3428 21.2009 21.6241M19.9032 20.1007L22.6486 22.6523L20.0999 19.9067" fill="#85340A"/>
<path d="M20 22.2188C21.2254 22.2188 22.2188 21.2254 22.2188 20C22.2188 18.7746 21.2254 17.7812 20 17.7812C18.7746 17.7812 17.7812 18.7746 17.7812 20C17.7812 21.2254 18.7746 22.2188 20 22.2188Z" fill="#F6B40E"/>
<path fill-rule="evenodd" clip-rule="evenodd" d="M20 17.8398C18.807 17.8398 17.8398 18.807 17.8398 20C17.8398 21.193 18.807 22.1602 20 22.1602C21.193 22.1602 22.1602 21.193 22.1602 20C22.1602 18.807 21.193 17.8398 20 17.8398ZM17.7227 20C17.7227 18.7423 18.7423 17.7227 20 17.7227C21.2577 17.7227 22.2773 18.7423 22.2773 20C22.2773 21.2577 21.2577 22.2773 20 22.2773C18.7423 22.2773 17.7227 21.2577 17.7227 20Z" fill="#85340A"/>
<path d="M20.7578 19.5312C20.6016 19.5312 20.4609 19.5938 20.375 19.7266C20.5469 19.8828 20.9219 19.8984 21.1797 19.7109C21.1257 19.6527 21.0605 19.6061 20.988 19.5739C20.9155 19.5417 20.8372 19.5245 20.7578 19.5234V19.5312ZM20.7578 19.5625C20.9063 19.5625 21.0391 19.625 21.0625 19.6953C20.8906 19.8828 20.6172 19.8672 20.4453 19.7266C20.5234 19.6094 20.6406 19.5625 20.7578 19.5625Z" fill="#843511"/>
<path d="M20.7891 19.4219C20.5703 19.4219 20.5156 19.4688 20.4141 19.5547C20.3125 19.6406 20.2578 19.625 20.2422 19.6406C20.2266 19.6562 20.2422 19.7109 20.2734 19.6953C20.3125 19.6719 20.3828 19.6406 20.4844 19.5547C20.5859 19.4766 20.6875 19.4766 20.7969 19.4766C21.0937 19.4766 21.2656 19.7266 21.3047 19.7109C21.3359 19.6953 21.1328 19.4219 20.7891 19.4219Z" fill="#85340A"/>
<path d="M21.4062 19.5234C21.0156 19.1797 20.5156 19.1328 20.2422 19.3828C20.1782 19.4679 20.1354 19.567 20.1172 19.6719C20.0781 19.8672 20.1406 20.0781 20.2969 20.2969C20.2734 20.2969 20.2422 20.3047 20.2188 20.3281C20.0859 20.0625 20.0391 19.7969 20.0859 19.5469L20.1406 19.3516C20.5156 19.0391 21.0312 19.0078 21.4062 19.5234Z" fill="#85340A"/>
<path d="M20.75 19.8516C20.8363 19.8516 20.9062 19.7816 20.9062 19.6953C20.9062 19.609 20.8363 19.5391 20.75 19.5391C20.6637 19.5391 20.5938 19.609 20.5938 19.6953C20.5938 19.7816 20.6637 19.8516 20.75 19.8516Z" fill="#85340A"/>
<path d="M21.1953 19.7969C20.9062 20.0156 20.6172 20 20.4453 19.8984C20.2734 19.7969 20.2734 19.7578 20.3125 19.7578C20.3438 19.7578 20.3828 19.7969 20.5156 19.8672C20.6562 19.9297 20.8594 19.9297 21.2031 19.7891L21.1953 19.7969Z" fill="#85340A"/>
<path d="M19.6562 20.3125C19.6301 20.3162 19.6053 20.3265 19.5842 20.3423C19.563 20.3582 19.5463 20.3792 19.5355 20.4033C19.5247 20.4274 19.5202 20.4539 19.5224 20.4802C19.5246 20.5066 19.5334 20.5319 19.5481 20.5539C19.5627 20.5759 19.5827 20.5938 19.6062 20.6059C19.6296 20.6181 19.6558 20.6241 19.6822 20.6234C19.7086 20.6227 19.7344 20.6153 19.7572 20.6019C19.78 20.5886 19.799 20.5696 19.8125 20.5469C19.875 20.5938 19.9531 20.5938 20 20.5938H20.0234C20.0625 20.5938 20.1484 20.5938 20.2031 20.5469C20.2344 20.5859 20.2812 20.6094 20.3281 20.6094C20.364 20.6059 20.3976 20.59 20.4231 20.5646C20.4487 20.5392 20.4647 20.5057 20.4683 20.4698C20.472 20.4339 20.4632 20.3979 20.4433 20.3678C20.4235 20.3377 20.3938 20.3154 20.3594 20.3047C20.3984 20.3203 20.4297 20.3594 20.4297 20.4063C20.4297 20.4342 20.4186 20.4611 20.3988 20.4808C20.379 20.5006 20.3522 20.5117 20.3242 20.5117C20.2962 20.5117 20.2694 20.5006 20.2496 20.4808C20.2299 20.4611 20.2187 20.4342 20.2187 20.4063C20.2008 20.4475 20.1713 20.4826 20.1339 20.5075C20.0965 20.5325 20.0528 20.5461 20.0078 20.5469C19.9635 20.5436 19.9208 20.5289 19.8839 20.5043C19.8469 20.4796 19.8169 20.4459 19.7969 20.4063C19.7969 20.4609 19.75 20.5078 19.6953 20.5078C19.6684 20.512 19.6409 20.5052 19.6189 20.4891C19.5969 20.473 19.5823 20.4488 19.5781 20.4219C19.574 20.3949 19.5807 20.3675 19.5968 20.3455C19.6129 20.3235 19.6371 20.3088 19.6641 20.3047L19.6562 20.3125ZM19.8281 20.7656C19.6562 20.7656 19.5938 20.9219 19.4375 21.0234C19.5156 20.9844 19.5938 20.9219 19.7109 20.8516C19.8281 20.7812 19.9297 20.8672 20 20.8672C20.0703 20.8672 20.1719 20.7812 20.2891 20.8516C20.4062 20.9219 20.4766 20.9844 20.5625 21.0234C20.4062 20.9141 20.3438 20.7656 20.1719 20.7656C20.1121 20.7701 20.0538 20.786 20 20.8125C19.9219 20.7812 19.8594 20.7656 19.8281 20.7656Z" fill="#85340A"/>
<path d="M19.7656 20.9609C19.7031 20.9609 19.6094 20.9844 19.4844 21.0234C19.7969 20.9453 19.8594 21.0547 20 21.0547C20.1328 21.0547 20.2031 20.9531 20.5156 21.0234C20.1719 20.9141 20.1016 20.9844 20 20.9844C19.9297 20.9844 19.8828 20.9609 19.7656 20.9609Z" fill="#85340A"/>
<path d="M19.5 21.0156H19.4375C19.7969 21.0547 19.625 21.2578 20 21.2578C20.375 21.2578 20.2031 21.0547 20.5625 21.0234C20.1875 20.9844 20.3047 21.2109 20 21.2109C19.7109 21.2109 19.7969 21.0156 19.5 21.0156Z" fill="#85340A"/>
<path d="M18.6172 19.5234C19.0078 19.1797 19.5078 19.1328 19.7812 19.3828C19.8452 19.4679 19.8881 19.567 19.9062 19.6719C19.9453 19.8672 19.8828 20.0781 19.7266 20.2969C19.75 20.2969 19.7812 20.3047 19.8047 20.3281C19.9375 20.0625 19.9844 19.7969 19.9375 19.5469L19.8828 19.3516C19.5078 19.0391 18.9922 19.0078 18.6172 19.5234Z" fill="#85340A"/>
<path d="M19.2344 19.4219C19.4531 19.4219 19.5078 19.4688 19.6094 19.5547C19.7109 19.6406 19.7656 19.625 19.7812 19.6406C19.7969 19.6562 19.7813 19.7109 19.75 19.6953C19.7109 19.6719 19.6406 19.6406 19.5391 19.5547C19.4375 19.4766 19.3359 19.4766 19.2266 19.4766C18.9297 19.4766 18.7578 19.7266 18.7188 19.7109C18.6875 19.6953 18.8906 19.4219 19.2344 19.4219Z" fill="#85340A"/>
<path d="M19.2266 19.5312C19.0703 19.5312 18.9297 19.5938 18.8437 19.7266C19.0156 19.8828 19.3906 19.8984 19.6484 19.7109C19.5945 19.6527 19.5293 19.6061 19.4567 19.5739C19.3842 19.5417 19.3059 19.5245 19.2266 19.5234V19.5312ZM19.2266 19.5625C19.375 19.5625 19.5078 19.625 19.5312 19.6953C19.3594 19.8828 19.0859 19.8672 18.9141 19.7266C18.9922 19.6094 19.1094 19.5625 19.2266 19.5625Z" fill="#843511"/>
<path d="M19.2422 19.8516C19.3285 19.8516 19.3984 19.7816 19.3984 19.6953C19.3984 19.609 19.3285 19.5391 19.2422 19.5391C19.1559 19.5391 19.0859 19.609 19.0859 19.6953C19.0859 19.7816 19.1559 19.8516 19.2422 19.8516Z" fill="#85340A"/>
<path d="M18.8281 19.7969C19.1172 20.0156 19.4062 20 19.5781 19.8984C19.75 19.7969 19.75 19.7578 19.7109 19.7578C19.6797 19.7578 19.6406 19.7969 19.5078 19.8672C19.3672 19.9297 19.1641 19.9297 18.8203 19.7891L18.8281 19.7969Z" fill="#85340A"/>
</g>
<defs>
<clipPath id="clip0_17544_57886">
<path d="M0 20C0 8.95431 8.95431 0 20 0C31.0457 0 40 8.95431 40 20C40 31.0457 31.0457 40 20 40C8.95431 40 0 31.0457 0 20Z" fill="white"/>
</clipPath>
</defs>
</svg>
