<svg width="40" height="40" viewBox="0 0 40 40" fill="none" xmlns="http://www.w3.org/2000/svg">
<g clip-path="url(#clip0_17522_60551)">
<path d="M0 0H40V40H0" fill="white"/>
<path d="M40 0H8L14.5156 4L8 8L14.5156 12L8 16L14.5156 20L8 24L14.5156 28L8 32L14.5156 36L8 40H40" fill="#CE1126"/>
</g>
<defs>
<clipPath id="clip0_17522_60551">
<path d="M0 4C0 1.79086 1.79086 0 4 0H36C38.2091 0 40 1.79086 40 4V36C40 38.2091 38.2091 40 36 40H4C1.79086 40 0 38.2091 0 36V4Z" fill="white"/>
</clipPath>
</defs>
</svg>
