<svg width="40" height="40" viewBox="0 0 40 40" fill="none" xmlns="http://www.w3.org/2000/svg">
<g clip-path="url(#clip0_17544_58106)">
<path d="M0 0H40V40H0V0Z" fill="#006A4E"/>
<path d="M20.3359 33.6719C27.7012 33.6719 33.6719 27.7012 33.6719 20.3359C33.6719 12.9707 27.7012 7 20.3359 7C12.9707 7 7 12.9707 7 20.3359C7 27.7012 12.9707 33.6719 20.3359 33.6719Z" fill="#F42A41"/>
</g>
<defs>
<clipPath id="clip0_17544_58106">
<path d="M0 20C0 8.95431 8.95431 0 20 0C31.0457 0 40 8.95431 40 20C40 31.0457 31.0457 40 20 40C8.95431 40 0 31.0457 0 20Z" fill="white"/>
</clipPath>
</defs>
</svg>
