<svg width="40" height="40" viewBox="0 0 40 40" fill="none" xmlns="http://www.w3.org/2000/svg">
<g clip-path="url(#clip0_17544_58101)">
<path d="M0 -0.015625H40V40H0V-0.015625Z" fill="#00267F"/>
<path d="M13.3359 -0.015625H26.6641V40H13.3359V-0.015625Z" fill="#FFC726"/>
<path d="M20 13.5391C19.5703 14.7188 19.125 15.9531 18.1797 16.8984C18.5493 16.7842 18.9335 16.7237 19.3203 16.7188V21.6875L17.9141 21.8984C17.8594 21.8984 17.8438 21.8203 17.8438 21.7109C17.6977 20.2851 17.3911 18.8804 16.9297 17.5234C16.8984 17.3438 16.3672 16.6406 16.7734 16.7656C16.8281 16.7656 17.375 17 17.2891 16.8906C16.5042 16.0989 15.4902 15.5741 14.3906 15.3906C14.2969 15.3672 14.2344 15.4141 14.3203 15.5234C15.7266 17.6875 16.9063 20.2422 16.8984 23.2734C17.4453 23.2734 18.7734 22.9531 19.3203 22.9531V26.4609H20.0078L20.1641 16.6641L20 13.5391Z" fill="#000001"/>
<path d="M20 13.5391C20.4297 14.7188 20.875 15.9531 21.8203 16.8984C21.4507 16.7842 21.0665 16.7237 20.6797 16.7188V21.6875L22.0859 21.8984C22.1406 21.8984 22.1562 21.8203 22.1562 21.7109C22.3023 20.2851 22.6089 18.8804 23.0703 17.5234C23.1016 17.3438 23.6328 16.6406 23.2266 16.7656C23.1719 16.7656 22.625 17 22.7109 16.8906C23.4958 16.0989 24.5098 15.5741 25.6094 15.3906C25.7031 15.3672 25.7656 15.4141 25.6797 15.5234C24.2734 17.6875 23.0937 20.2422 23.1016 23.2734C22.5547 23.2734 21.2266 22.9531 20.6797 22.9531V26.4609H19.9922L19.8359 16.6641L20 13.5391Z" fill="#000001"/>
</g>
<defs>
<clipPath id="clip0_17544_58101">
<path d="M0 20C0 8.95431 8.95431 0 20 0C31.0457 0 40 8.95431 40 20C40 31.0457 31.0457 40 20 40C8.95431 40 0 31.0457 0 20Z" fill="white"/>
</clipPath>
</defs>
</svg>
