<svg width="40" height="40" viewBox="0 0 40 40" fill="none" xmlns="http://www.w3.org/2000/svg">
<g clip-path="url(#clip0_17522_60561)">
<path d="M0 0H40V40H0V0Z" fill="black"/>
<path fill-rule="evenodd" clip-rule="evenodd" d="M-5.3125 0H49.3516V40H-5.3125V0Z" fill="white"/>
<path fill-rule="evenodd" clip-rule="evenodd" d="M-7.26562 -6.07812H9.82031V15.5H-7.26562V-6.07812ZM19.4844 -0.0468745H49.25V15.5H19.4844V-0.0468745ZM-5.28125 25H9.59375V39.8672H-5.27344L-5.28125 25ZM19.6875 25.1641H49.2422V39.8672H19.6875V25.1641Z" fill="#D72828"/>
<path fill-rule="evenodd" clip-rule="evenodd" d="M12.2422 -1.98438H17.2656V39.8672H12.2266L12.2422 -1.98438Z" fill="#003897"/>
<path fill-rule="evenodd" clip-rule="evenodd" d="M-5.27344 17.5625H49.2422V22.5234H-5.27344V17.5625Z" fill="#003897"/>
</g>
<defs>
<clipPath id="clip0_17522_60561">
<path d="M0 4C0 1.79086 1.79086 0 4 0H36C38.2091 0 40 1.79086 40 4V36C40 38.2091 38.2091 40 36 40H4C1.79086 40 0 38.2091 0 36V4Z" fill="white"/>
</clipPath>
</defs>
</svg>
