<svg width="40" height="40" viewBox="0 0 40 40" fill="none" xmlns="http://www.w3.org/2000/svg">
<g clip-path="url(#clip0_17544_59302)">
<path fill-rule="evenodd" clip-rule="evenodd" d="M0 0H40V40H0V0Z" fill="#229E45"/>
<path fill-rule="evenodd" clip-rule="evenodd" d="M20.4219 31.6719L38.375 20.0156L20.3125 8.32812L2.28906 20.0469L20.4219 31.6719Z" fill="#F8E509"/>
<path fill-rule="evenodd" clip-rule="evenodd" d="M28.2422 20C28.2738 21.0172 28.1005 22.0304 27.7328 22.9794C27.3651 23.9283 26.8104 24.7937 26.1016 25.524C25.3929 26.2544 24.5445 26.8348 23.607 27.2308C22.6695 27.6269 21.662 27.8304 20.6443 27.8293C19.6266 27.8283 18.6194 27.6227 17.6828 27.2247C16.7461 26.8268 15.8989 26.2446 15.1917 25.5128C14.4844 24.781 13.9315 23.9145 13.5657 22.9648C13.2 22.0151 13.0288 21.0015 13.0625 19.9844C13.1277 18.0136 13.957 16.1455 15.3749 14.7752C16.7928 13.4049 18.6881 12.6398 20.6599 12.6419C22.6317 12.6439 24.5255 13.4128 25.9405 14.7861C27.3556 16.1593 28.181 18.0291 28.2422 20Z" fill="#2B49A3"/>
<path fill-rule="evenodd" clip-rule="evenodd" d="M18.1484 24.5469L17.9141 24.4062L17.6719 24.5312L17.7266 24.2578L17.5391 24.0625L17.8047 24.0312L17.9297 23.7812L18.0469 24.0391L18.3125 24.0859L18.1094 24.2734M23.2422 25.8359L23.0078 25.6953L22.7578 25.8203L22.8125 25.5469L22.625 25.3516L22.8984 25.3203L23.0234 25.0703L23.1328 25.3281L23.3984 25.375L23.2031 25.5625M21.0469 23.7734L20.8437 23.6562L20.6328 23.7578L20.6797 23.5234L20.5234 23.3516L20.75 23.3281L20.8594 23.1172L20.9531 23.3359L21.1875 23.375L21.0156 23.5312M26.1875 23.0312L25.9844 22.9141L25.7812 23.0156L25.8281 22.7891L25.6719 22.625L25.8984 22.5938L26 22.3906L26.1016 22.6016L26.3281 22.6406L26.1562 22.7969M20.9531 21.4922L20.7188 21.3516L20.4766 21.4766L20.5312 21.2031L20.3438 21.0078L20.6094 20.9766L20.7344 20.7344L20.8516 20.9844L21.1172 21.0312L20.9141 21.2188M14.6875 19.1406L14.4531 19L14.2188 19.125L14.2656 18.8516L14.0781 18.6562L14.3516 18.625L14.4766 18.375L14.5859 18.6328L14.8516 18.6797L14.6562 18.8672M15.4453 22.2656L15.2109 22.1328L14.9688 22.25L15.0234 21.9844L14.8359 21.7812L15.1016 21.75L15.2266 21.5156L15.3437 21.7578L15.6094 21.8125L15.4062 21.9922M23.2656 17.9844L23.0625 17.8672L22.8438 17.9688L22.8906 17.7344L22.7344 17.5547L22.9688 17.5312L23.0781 17.3125L23.1797 17.5391L23.4141 17.5781L23.2344 17.7422M22.8438 20.0234L22.6562 19.9219L22.4922 20L22.5234 19.8125L22.3984 19.6797L22.5859 19.6562L22.6719 19.4844L22.75 19.6641L22.9375 19.6953L22.7969 19.8203M14.3281 22.8281L14.1719 22.7344L14.0078 22.8125L14.0391 22.6328L13.9141 22.5L14.1016 22.4844L14.1797 22.3281L14.2578 22.4844L14.4375 22.5234L14.3047 22.6484M26.2266 23.5469L26.0938 23.4844L25.9609 23.5391L25.9922 23.4062L25.8906 23.3047L26.0391 23.2891L26.1094 23.1719L26.1641 23.2969L26.3125 23.3203L26.2031 23.4141" fill="#FFFFEF"/>
<path fill-rule="evenodd" clip-rule="evenodd" d="M14.3359 22.8359L14.1797 22.7422L14.0156 22.8203L14.0547 22.6406L13.9219 22.5078L14.1016 22.4922L14.1875 22.3359L14.2656 22.4922L14.4453 22.5312L14.3125 22.6562" fill="#FFFFEF"/>
<path fill-rule="evenodd" clip-rule="evenodd" d="M14.3359 22.8359L14.1797 22.7422L14.0156 22.8203L14.0547 22.6406L13.9219 22.5078L14.1016 22.4922L14.1875 22.3359L14.2656 22.4922L14.4453 22.5312L14.3125 22.6562M16.8281 22.8359L16.6719 22.7422L16.5156 22.8203L16.5469 22.6406L16.4219 22.5078L16.6016 22.4922L16.6797 22.3281L16.7578 22.4922L16.9375 22.5312L16.8047 22.6562M16.5156 23.6719L16.3594 23.5781L16.2031 23.6562L16.2344 23.4766L16.1094 23.3438L16.2891 23.3203L16.3672 23.1641L16.4453 23.3203L16.625 23.3594L16.4922 23.4844M21.7031 22.1562L21.5469 22.0625L21.3828 22.1406L21.4141 21.9609L21.2891 21.8281L21.4688 21.8125L21.5547 21.6484L21.6328 21.8125L21.8047 21.8438L21.6719 21.9688M20.1797 22.1562L20.0234 22.0625L19.8594 22.1406L19.8984 21.9609L19.7734 21.8281L19.9531 21.8125L20.0312 21.6484L20.1094 21.8125L20.2891 21.8438L20.1562 21.9688M16.0547 21.625L15.9609 21.5703L15.8594 21.6172L15.875 21.5L15.7969 21.4219L15.9141 21.4062L15.9688 21.3047L16.0078 21.4141L16.125 21.4297L16.0469 21.5078M26.0312 24.2188L25.875 24.1328L25.7109 24.2109L25.75 24.0312L25.625 23.8984L25.8047 23.875L25.8828 23.7188L25.9609 23.875L26.1406 23.9141L26.0078 24.0391M24.7578 24.3828L24.6328 24.3047L24.5 24.3828L24.5312 24.2266L24.4219 24.1172L24.5781 24.1016L24.6406 23.9688L24.7031 24.1016L24.8594 24.1328L24.7422 24.2344M25.3672 24.375L25.2422 24.2969L25.1172 24.3672L25.1406 24.2266L25.0469 24.125L25.1875 24.1094L25.25 23.9844L25.3047 24.1094L25.4453 24.1328L25.3438 24.2344M27.0781 22.875L26.9609 22.8047L26.8359 22.8672L26.8672 22.7344L26.7734 22.6328L26.9062 22.6172L26.9688 22.5L27.0234 22.625L27.1562 22.6484L27.0547 22.7422M24.7656 25.2266L24.6094 25.1406L24.4531 25.2188L24.4922 25.0469L24.3672 24.9297L24.5391 24.9062L24.625 24.7578L24.7031 24.9141L24.8672 24.9453L24.7422 25.0547M24.7734 25.9062L24.6328 25.8281L24.4922 25.8984L24.5234 25.7266L24.4141 25.6094L24.5703 25.5859L24.6484 25.4375L24.7109 25.5938L24.8672 25.625L24.75 25.7344M23.6172 24.375L23.5 24.3047L23.375 24.3672L23.4062 24.2266L23.3125 24.1328L23.4453 24.1172L23.5078 23.9922L23.5625 24.1172L23.6953 24.1406L23.5938 24.2344M22.5391 24.375L22.4219 24.3047L22.2969 24.3672L22.3281 24.2266L22.2344 24.1328L22.3672 24.1172L22.4297 23.9922L22.4844 24.1172L22.6172 24.1406L22.5234 24.2344M20.7031 22.7656L20.5859 22.6953L20.4609 22.7578L20.4922 22.625L20.3984 22.5234L20.5312 22.5078L20.5938 22.3906L20.6484 22.5156L20.7812 22.5391L20.6797 22.625M20.9062 26.0234L20.8047 25.9688L20.7031 26.0234L20.7266 25.9062L20.6484 25.8281L20.7578 25.8047L20.8125 25.7031L20.8594 25.8125L20.9766 25.8281L20.8906 25.9062M18.1406 20.75L17.9062 20.6172L17.6641 20.7344L17.7188 20.4688L17.5312 20.2656L17.7969 20.2344L17.9219 19.9922L18.0391 20.2422L18.3047 20.2891L18.1016 20.4766" fill="#FFFFEF"/>
<path fill-rule="evenodd" clip-rule="evenodd" d="M27.7422 22.7344C27.8892 22.3513 28.0042 21.9567 28.0859 21.5547C24.0547 18.0078 19.5547 16.1875 13.8672 16.5625C13.6634 16.9606 13.4961 17.3764 13.3672 17.8047C15.9764 17.5412 18.6117 17.8446 21.0928 18.6941C23.5738 19.5435 25.8421 20.9191 27.7422 22.7266V22.7344Z" fill="white"/>
<path d="M25.9297 20.7344L26.0703 20.8125C26.0484 20.856 26.0429 20.9059 26.0547 20.9531C26.0625 20.9844 26.0938 21.0234 26.1328 21.0469C26.1797 21.0781 26.2188 21.0938 26.2578 21.0938C26.2891 21.0938 26.3203 21.0703 26.3359 21.0469C26.3438 21.0312 26.3516 21.0156 26.3438 20.9922L26.3203 20.9297L26.2266 20.8281C26.1767 20.7775 26.1393 20.716 26.1172 20.6484C26.1035 20.5976 26.1086 20.5436 26.1316 20.4962C26.1546 20.4489 26.1938 20.4114 26.2422 20.3906C26.2839 20.3722 26.3302 20.3667 26.375 20.375C26.4314 20.3873 26.4846 20.4112 26.5312 20.4453C26.599 20.4929 26.6529 20.5576 26.6875 20.6328C26.697 20.6674 26.6984 20.7037 26.6916 20.7389C26.6848 20.7741 26.6701 20.8073 26.6484 20.8359L26.5078 20.75C26.5234 20.7109 26.5312 20.6719 26.5234 20.6406C26.5156 20.6172 26.4844 20.5859 26.4453 20.5625C26.4062 20.5313 26.3672 20.5234 26.3359 20.5234C26.3269 20.5237 26.318 20.526 26.3099 20.53C26.3018 20.5341 26.2947 20.5398 26.2891 20.5469C26.2837 20.5548 26.2801 20.5638 26.2788 20.5733C26.2774 20.5828 26.2783 20.5925 26.2812 20.6016C26.2812 20.6328 26.3203 20.6797 26.375 20.7344L26.4922 20.8906C26.5135 20.9295 26.5233 20.9736 26.5206 21.0179C26.5178 21.0621 26.5025 21.1047 26.4766 21.1406C26.4493 21.1793 26.4113 21.2092 26.3672 21.2266C26.3207 21.2478 26.2686 21.2533 26.2188 21.2422C26.1595 21.2271 26.1038 21.2006 26.0547 21.1641C25.9809 21.1198 25.9255 21.0505 25.8984 20.9688C25.875 20.8984 25.8828 20.8203 25.9297 20.7344ZM25.2422 20.2891L25.3984 20.3672C25.3801 20.4061 25.3746 20.4499 25.3828 20.4922C25.3906 20.5312 25.4219 20.5703 25.4609 20.5938C25.5078 20.625 25.5469 20.6328 25.5859 20.625C25.6172 20.625 25.6484 20.6094 25.6641 20.5781C25.6715 20.5637 25.6742 20.5473 25.6719 20.5312C25.6719 20.5078 25.6641 20.4922 25.6406 20.4688L25.5469 20.3672C25.4954 20.3194 25.4554 20.2607 25.4297 20.1953C25.4193 20.1643 25.4161 20.1314 25.4201 20.0989C25.4242 20.0665 25.4355 20.0353 25.4531 20.0078C25.4763 19.9734 25.5088 19.9463 25.5469 19.9297C25.5887 19.9117 25.6348 19.9063 25.6797 19.9141C25.7266 19.9141 25.7734 19.9375 25.8359 19.9766C25.9141 20.0312 25.9766 20.0859 25.9922 20.1562C26.0039 20.1897 26.0078 20.2253 26.0038 20.2605C25.9997 20.2957 25.9877 20.3295 25.9688 20.3594L25.8203 20.2734C25.8438 20.2344 25.8438 20.1953 25.8359 20.1719C25.8203 20.1406 25.7969 20.1172 25.7578 20.0938C25.7243 20.0679 25.683 20.0541 25.6406 20.0547C25.6309 20.0559 25.6216 20.0593 25.6135 20.0647C25.6053 20.0702 25.5986 20.0774 25.5938 20.0859C25.5896 20.0945 25.5875 20.1038 25.5875 20.1133C25.5875 20.1228 25.5896 20.1321 25.5938 20.1406C25.5938 20.1641 25.6328 20.2109 25.6875 20.2734C25.75 20.3281 25.7891 20.3828 25.8125 20.4141C25.8366 20.4531 25.8486 20.4983 25.8472 20.5441C25.8459 20.59 25.8311 20.6344 25.8047 20.6719C25.7781 20.7124 25.7403 20.7443 25.6959 20.7637C25.6515 20.7831 25.6025 20.7892 25.5547 20.7812C25.4933 20.7693 25.4349 20.7454 25.3828 20.7109C25.3079 20.6695 25.2499 20.6031 25.2187 20.5234C25.1965 20.4452 25.2049 20.3614 25.2422 20.2891ZM24.3984 20.0547L24.8359 19.3516L25.3594 19.6641L25.2812 19.7891L24.9062 19.5547L24.8047 19.7109L25.1641 19.9297L25.0859 20.0547L24.7344 19.8359L24.6172 20.0312L25.0078 20.2656L24.9375 20.3906L24.3984 20.0625V20.0547ZM23.1641 19.0469L23.2344 18.9219L23.5469 19.0938L23.3984 19.3828C23.2718 19.4109 23.1393 19.3943 23.0234 19.3359C22.9535 19.2997 22.8943 19.2458 22.8516 19.1797C22.8103 19.12 22.7884 19.0491 22.7891 18.9766C22.7891 18.8984 22.8125 18.8281 22.8516 18.7578C22.8876 18.6857 22.9414 18.6238 23.0078 18.5781C23.0625 18.5312 23.1406 18.5078 23.2188 18.5078C23.2734 18.5078 23.3438 18.5312 23.4141 18.5625C23.4911 18.5987 23.5542 18.659 23.5938 18.7344C23.625 18.7969 23.6328 18.8672 23.6172 18.9453L23.4531 18.8984C23.4619 18.8588 23.4564 18.8172 23.4375 18.7812C23.4167 18.7429 23.3837 18.7127 23.3437 18.6953C23.316 18.6781 23.2849 18.6672 23.2526 18.6631C23.2202 18.6591 23.1873 18.6621 23.1562 18.6719C23.1016 18.6953 23.0469 18.75 23 18.8281C22.9619 18.9 22.9482 18.9822 22.9609 19.0625C22.9766 19.125 23.0156 19.1719 23.0859 19.2031L23.1875 19.2344H23.2891L23.3359 19.1406L23.1641 19.0469ZM17.7891 17.7188L17.9141 16.8906L18.1641 16.9297L18.2266 17.5156L18.4609 16.9688L18.7031 17.0078L18.5859 17.8359L18.4297 17.8125L18.5234 17.1641L18.2656 17.7891L18.1094 17.7656L18.0391 17.0859L17.9453 17.7422L17.7891 17.7188ZM16.9531 17.6172L17.0312 16.7891L17.6406 16.8438L17.6328 16.9844L17.1797 16.9453L17.1641 17.125L17.5781 17.1641L17.5703 17.3047L17.1562 17.2656L17.1328 17.5L17.5938 17.5391L17.5781 17.6797L16.9531 17.6172Z" fill="#309E3A"/>
<path d="M14.1719 17.0938C14.1719 17.0156 14.1875 16.9375 14.2109 16.8828L14.2891 16.7734L14.4062 16.6953C14.464 16.6755 14.5251 16.6675 14.5859 16.6719C14.6402 16.6715 14.6939 16.6824 14.7436 16.704C14.7934 16.7255 14.8381 16.7571 14.875 16.7969C14.9531 16.875 14.9766 16.9766 14.9766 17.1094C14.9766 17.25 14.9297 17.3516 14.8594 17.4219C14.8203 17.4598 14.7736 17.4891 14.7225 17.508C14.6714 17.5268 14.6169 17.5347 14.5625 17.5312C14.5089 17.5326 14.4555 17.5229 14.4058 17.5028C14.356 17.4826 14.311 17.4524 14.2734 17.4141C14.2348 17.3725 14.2057 17.323 14.1882 17.269C14.1707 17.215 14.1651 17.1579 14.1719 17.1016V17.0938Z" fill="#309E3A"/>
<path d="M14.3438 17.0938C14.3438 17.1875 14.3594 17.2656 14.4062 17.3125C14.4453 17.3672 14.5 17.3906 14.5625 17.3906C14.5944 17.3912 14.6261 17.3853 14.6557 17.3732C14.6853 17.3611 14.712 17.3431 14.7344 17.3203C14.7734 17.2734 14.7969 17.2031 14.8047 17.1094C14.8047 17.0078 14.7891 16.9375 14.7422 16.8906C14.7232 16.8672 14.6995 16.8481 14.6725 16.8346C14.6456 16.8212 14.6161 16.8136 14.5859 16.8125C14.5078 16.8125 14.4531 16.8359 14.4141 16.8828C14.3672 16.9297 14.3438 17 14.3359 17.0938H14.3438Z" fill="#F7FFFF"/>
<path d="M15.1562 17.5312L15.1641 16.6953H15.5156C15.6094 16.6953 15.6719 16.7109 15.7109 16.7266C15.75 16.7422 15.7891 16.7656 15.8047 16.8047C15.8203 16.8438 15.8438 16.8828 15.8438 16.9375C15.8438 17 15.8203 17.0469 15.7891 17.0938C15.75 17.1328 15.6953 17.1562 15.6172 17.1719C15.6562 17.1875 15.6875 17.2109 15.7109 17.2344L15.8047 17.375L15.9062 17.5312H15.7031L15.5859 17.3516C15.5573 17.308 15.526 17.2662 15.4922 17.2266C15.4791 17.2127 15.4631 17.202 15.4453 17.1953C15.4202 17.1863 15.3939 17.1811 15.3672 17.1797H15.3281V17.5312H15.1562Z" fill="#309E3A"/>
<path d="M15.3281 17.0469H15.4531C15.505 17.0533 15.5575 17.0533 15.6094 17.0469L15.6484 17.0078C15.6641 16.9922 15.6719 16.9688 15.6719 16.9453C15.6719 16.9141 15.6641 16.8906 15.6484 16.875C15.632 16.8575 15.6098 16.8464 15.5859 16.8438H15.3359L15.3281 17.0469Z" fill="white"/>
<path d="M16.1094 16.7344L16.4141 16.75C16.467 16.7508 16.5195 16.7587 16.5703 16.7734C16.6148 16.7902 16.6549 16.8169 16.6875 16.8516C16.724 16.8948 16.7506 16.9454 16.7656 17C16.7812 17.0547 16.7812 17.1172 16.7812 17.1953C16.7836 17.2551 16.7729 17.3147 16.75 17.37C16.7271 17.4253 16.6924 17.475 16.6484 17.5156C16.6172 17.5391 16.5781 17.5625 16.5312 17.5781H16.375L16.0625 17.5703L16.1094 16.7344Z" fill="#309E3A"/>
<path d="M16.2656 16.8828L16.2422 17.4297L16.3672 17.4453H16.4688L16.5391 17.4062C16.5625 17.3906 16.5703 17.3672 16.5859 17.3281L16.6094 17.1719L16.6016 17.0312C16.5859 16.9922 16.5781 16.9688 16.5547 16.9531C16.5339 16.9301 16.5067 16.9138 16.4766 16.9062C16.4328 16.8971 16.3884 16.8919 16.3438 16.8906L16.2656 16.8828Z" fill="white"/>
<path d="M20.1953 18.2266L20.3906 17.4141L20.6484 17.4766C20.75 17.5 20.8125 17.5234 20.8438 17.5391C20.8828 17.5625 20.9219 17.5938 20.9375 17.6406C20.9609 17.6953 20.9609 17.75 20.9453 17.8125C20.9384 17.8528 20.9211 17.8906 20.895 17.9221C20.869 17.9536 20.8351 17.9778 20.7969 17.9922C20.77 18.0054 20.7408 18.0134 20.7109 18.0156C20.6528 18.0106 20.5953 18.0001 20.5391 17.9844L20.4297 17.9609L20.3516 18.2656L20.1953 18.2266Z" fill="#309E3A"/>
<path d="M20.5156 17.5938L20.4609 17.8281L20.5547 17.8438C20.6172 17.8594 20.6641 17.8672 20.6875 17.8594C20.7091 17.8571 20.7296 17.8485 20.7463 17.8346C20.763 17.8207 20.7752 17.8021 20.7812 17.7812L20.7734 17.6953C20.76 17.6701 20.7377 17.6506 20.7109 17.6406L20.5938 17.6094L20.5156 17.5938Z" fill="white"/>
<path d="M20.9688 18.4609L21.2422 17.6719L21.5781 17.7891C21.639 17.8063 21.697 17.8326 21.75 17.8672C21.7812 17.8984 21.8047 17.9375 21.8203 17.9844C21.8359 18.0312 21.8203 18.0703 21.8047 18.1172C21.7891 18.1797 21.75 18.2188 21.7031 18.2422C21.6762 18.2578 21.6465 18.268 21.6156 18.272C21.5848 18.276 21.5534 18.2738 21.5234 18.2656L21.5859 18.3594L21.6328 18.5156L21.6719 18.7031L21.4844 18.6406L21.4297 18.4297C21.4175 18.3792 21.4018 18.3296 21.3828 18.2812C21.3761 18.2635 21.3654 18.2474 21.3516 18.2344C21.3279 18.2171 21.3015 18.2039 21.2734 18.1953L21.2422 18.1875L21.125 18.5156L20.9688 18.4609Z" fill="#309E3A"/>
<path d="M21.2812 18.0625L21.3984 18.1016L21.5469 18.1406C21.5703 18.1406 21.5859 18.1406 21.6016 18.125L21.6406 18.0703V17.9922C21.6307 17.9718 21.6142 17.9553 21.5938 17.9453L21.4766 17.9062L21.3516 17.8594L21.2812 18.0625Z" fill="white"/>
<path d="M21.9453 18.4297C21.9652 18.3582 21.9998 18.2917 22.0469 18.2344C22.0703 18.1953 22.1094 18.1719 22.1484 18.1484C22.1871 18.1271 22.2296 18.1139 22.2734 18.1094C22.3281 18.1094 22.3906 18.1094 22.4531 18.1328C22.5061 18.1461 22.5558 18.1703 22.5988 18.2039C22.6419 18.2376 22.6774 18.2799 22.7031 18.3281C22.75 18.4219 22.7578 18.5391 22.7109 18.6641C22.698 18.7203 22.6741 18.7734 22.6406 18.8203C22.6071 18.8672 22.5646 18.907 22.5156 18.9375C22.4674 18.9615 22.4148 18.9753 22.361 18.978C22.3072 18.9807 22.2535 18.9722 22.2031 18.9531C22.1501 18.9399 22.1005 18.9156 22.0574 18.882C22.0143 18.8483 21.9788 18.806 21.9531 18.7578C21.9072 18.6538 21.9044 18.5358 21.9453 18.4297Z" fill="#309E3A"/>
<path d="M22.1094 18.4766C22.0859 18.5625 22.0859 18.6328 22.1094 18.6953C22.1406 18.7578 22.1875 18.7969 22.25 18.8203C22.3125 18.8359 22.3672 18.8281 22.4219 18.7969C22.4766 18.7656 22.5234 18.7031 22.5547 18.6094C22.5781 18.5156 22.5781 18.4453 22.5547 18.3828C22.5416 18.354 22.5221 18.3285 22.4977 18.3082C22.4734 18.2879 22.4448 18.2733 22.4141 18.2656C22.3843 18.2559 22.3527 18.253 22.3216 18.2571C22.2905 18.2611 22.2607 18.2721 22.2344 18.2891C22.1797 18.3203 22.1406 18.3828 22.1094 18.4766Z" fill="white"/>
<path d="M23.5703 19.5938L23.9531 18.8516L24.2656 19.0078C24.3438 19.0547 24.3984 19.0859 24.4219 19.1172C24.4531 19.1562 24.4687 19.1953 24.4766 19.2344C24.4844 19.2734 24.4766 19.3281 24.4453 19.3672C24.4219 19.4219 24.3828 19.4609 24.3281 19.4844C24.2734 19.5 24.2188 19.5 24.1484 19.4766C24.1719 19.5078 24.1875 19.5469 24.1953 19.5781L24.2188 19.7422L24.2344 19.9375L24.0547 19.8438L24.0312 19.625L24.0078 19.4688C24.0011 19.451 23.9904 19.4349 23.9766 19.4219C23.9557 19.4027 23.932 19.3869 23.9062 19.375L23.875 19.3594L23.7188 19.6719L23.5703 19.5938Z" fill="#309E3A"/>
<path d="M23.9375 19.2422L24.0469 19.2969L24.1875 19.3594C24.2109 19.3594 24.2266 19.3594 24.2422 19.3438C24.2632 19.3328 24.2805 19.3158 24.2916 19.2949C24.3028 19.2739 24.3073 19.2501 24.3047 19.2266C24.2963 19.2032 24.2796 19.1838 24.2578 19.1719C24.2247 19.1498 24.1909 19.129 24.1562 19.1094L24.0391 19.0547L23.9375 19.2422Z" fill="white"/>
<path d="M26.6562 21.1172C26.7031 21.0391 26.75 20.9922 26.8125 20.9609C26.8506 20.9355 26.8929 20.917 26.9375 20.9062C26.9788 20.8982 27.0212 20.8982 27.0625 20.9062C27.1172 20.9141 27.1797 20.9375 27.2344 20.9844C27.2805 21.0126 27.3204 21.05 27.3513 21.0944C27.3822 21.1388 27.4036 21.1891 27.4141 21.2422C27.4254 21.3559 27.3948 21.4698 27.3281 21.5625C27.2984 21.6129 27.259 21.6569 27.212 21.6918C27.165 21.7267 27.1115 21.7518 27.0547 21.7656C27.0018 21.7755 26.9474 21.7744 26.895 21.7623C26.8426 21.7502 26.7932 21.7274 26.75 21.6953C26.7038 21.6671 26.664 21.6297 26.6331 21.5853C26.6022 21.5409 26.5808 21.4906 26.5703 21.4375C26.5616 21.3816 26.564 21.3245 26.5774 21.2696C26.5908 21.2146 26.615 21.1628 26.6484 21.1172H26.6562Z" fill="#309E3A"/>
<path d="M26.7969 21.2031C26.75 21.2812 26.7266 21.3594 26.7344 21.4219C26.7397 21.4535 26.7515 21.4837 26.769 21.5105C26.7864 21.5374 26.8092 21.5604 26.8359 21.5781C26.8607 21.5953 26.8888 21.607 26.9185 21.6124C26.9481 21.6178 26.9786 21.6167 27.0078 21.6094C27.0703 21.5938 27.1328 21.5469 27.1875 21.4609C27.2422 21.3828 27.2656 21.3125 27.25 21.25C27.25 21.1875 27.2109 21.1406 27.1562 21.0938C27.1016 21.0469 27.0391 21.0469 26.9766 21.0625C26.9141 21.0781 26.8594 21.125 26.8047 21.2031H26.7969Z" fill="white"/>
<path d="M19.25 17.8906L19.3828 17.2969L19.8203 17.3984L19.7969 17.5L19.4844 17.4219L19.4531 17.5547L19.7422 17.625L19.7188 17.7266L19.4297 17.6484L19.3906 17.8125L19.7188 17.8906L19.6953 17.9922L19.25 17.8906Z" fill="#309E3A"/>
</g>
<defs>
<clipPath id="clip0_17544_59302">
<path d="M0 20C0 8.95431 8.95431 0 20 0C31.0457 0 40 8.95431 40 20C40 31.0457 31.0457 40 20 40C8.95431 40 0 31.0457 0 20Z" fill="white"/>
</clipPath>
</defs>
</svg>
