<svg width="40" height="40" viewBox="0 0 40 40" fill="none" xmlns="http://www.w3.org/2000/svg">
<g clip-path="url(#clip0_17522_60555)">
<path d="M0 0H40V40H0V0Z" fill="#F7E017"/>
<path d="M0 2.78125V20.5469L40 28.8828V19.4297L0 2.78125Z" fill="white"/>
<path d="M0 12.2188V20.5547L40 37.2188V28.8906L0 12.2188Z" fill="#000001"/>
<path d="M18.6499 31.65C17.6748 31.5423 16.7366 31.2156 15.9055 30.6944C15.7722 30.6055 15.6499 30.5277 15.6277 30.5277C15.6055 30.5277 15.5944 30.6333 15.5944 30.7555C15.5944 31.1111 15.4499 31.2888 15.0944 31.3833C14.7499 31.4722 14.2277 31.2944 13.8055 30.9388C13.4051 30.5963 12.9378 30.3409 12.4333 30.1888C11.9077 30.0637 11.3545 30.1348 10.8777 30.3888C10.8306 30.422 10.7779 30.4465 10.7222 30.4611C10.6611 30.4611 10.6666 30.0777 10.7333 29.9611C10.8166 29.7944 11.0166 29.6388 11.2555 29.5555C11.3777 29.5111 11.4777 29.4555 11.4777 29.4277C11.4777 29.4055 11.4333 29.3166 11.3833 29.2277C11.2222 28.9444 11.2888 28.6722 11.5722 28.4555C11.8611 28.2333 12.35 28.2 12.7777 28.3611C12.85 28.3919 12.9242 28.4179 12.9999 28.4388C13.0555 28.4388 13.0222 28.3555 12.8666 28.1277C12.6888 27.8666 12.6499 27.7388 12.6722 27.4222C12.6874 27.2284 12.7714 27.0463 12.9088 26.9089C13.0463 26.7714 13.2283 26.6875 13.4222 26.6722C13.7444 26.65 13.9444 26.7611 14.4222 27.2111C15.7054 28.5027 17.3908 29.3179 19.1999 29.5222C19.661 29.5777 20.5777 29.55 21.1166 29.4666C22.8238 29.1818 24.4065 28.3923 25.661 27.2C26.0166 26.8666 26.1833 26.7777 26.4777 26.7777C26.7277 26.7777 26.9055 26.8555 27.0888 27.0555C27.2555 27.2388 27.311 27.4111 27.2888 27.6944C27.2777 27.8722 27.2499 27.9555 27.1444 28.1333C26.9888 28.3833 27.0166 28.4111 27.3221 28.2888C27.7444 28.1222 28.261 28.2 28.5388 28.4666C28.7833 28.7 28.8055 28.9333 28.6166 29.2444C28.5444 29.3611 28.4888 29.4666 28.4888 29.4888C28.4888 29.5222 28.5444 29.5333 28.7944 29.5777C29.1277 29.6333 29.3221 29.8777 29.3221 30.2555C29.3221 30.3666 29.3055 30.4611 29.2888 30.4611C29.2721 30.4611 29.1444 30.4111 29.011 30.3555C28.6221 30.1944 28.3999 30.1555 27.9444 30.1611C27.5999 30.1611 27.4833 30.1777 27.2444 30.2555C26.8445 30.3946 26.4762 30.6117 26.161 30.8944C25.8055 31.2111 25.5833 31.3111 25.2388 31.3055C24.9166 31.3055 24.6999 31.2111 24.5833 31.0277C24.5222 30.9277 24.511 30.8722 24.5277 30.65C24.5388 30.5055 24.5333 30.3888 24.5277 30.3888C24.511 30.3888 24.3888 30.4666 24.2499 30.5611C23.9328 30.7885 23.5873 30.9734 23.2222 31.1111C21.76 31.6407 20.1952 31.8251 18.6499 31.65Z" fill="#CF1126"/>
<path d="M19.2388 29.1777C18.1642 29.079 17.123 28.7518 16.1851 28.2181C15.2471 27.6845 14.4339 26.9566 13.7999 26.0833C12.4444 24.2388 12.0222 21.8 12.4333 19.5722C12.6555 18.5555 13.0999 17.5389 13.8499 16.8166C13.2316 18.0998 13.0615 19.5532 13.3666 20.9444C13.8666 23.7111 16.1999 26.05 18.9944 26.4555C20.1055 26.7722 21.2444 26.4333 22.2999 26.0944C24.6333 25.2722 26.411 23.0611 26.6222 20.5889C26.8055 19.2555 26.6055 17.8611 25.9999 16.6444C26.3444 16.8277 26.7777 17.5444 27.0333 18.0222C27.9221 19.7444 27.961 21.8055 27.4388 23.6444C26.7277 25.9833 24.9388 28.0333 22.5777 28.7777C21.5005 29.1143 20.3706 29.2498 19.2444 29.1777H19.2388Z" fill="#CF1126"/>
<path d="M8.4444 26.1055C8.30551 26.0833 8.14996 26.2222 8.20551 26.3666C8.30551 26.5111 8.48329 26.5888 8.63884 26.6555C9.0487 26.8155 9.48865 26.8838 9.92773 26.8555C10.2499 26.8556 10.5695 26.7992 10.8722 26.6888C11.0388 26.6333 11.25 26.5777 11.3166 26.3888C11.3888 26.2722 11.2611 26.15 11.1444 26.1722C10.9777 26.2111 10.8111 26.2833 10.6444 26.3333C10.2781 26.437 9.89616 26.4746 9.51662 26.4444C9.2404 26.4042 8.97114 26.3257 8.71662 26.2111C8.62773 26.1722 8.5444 26.1166 8.4444 26.1055Z" fill="#CF1126"/>
<path d="M8.59995 25.5277C8.46106 25.5055 8.33884 25.6722 8.3944 25.8055C8.50551 25.9611 8.68884 26.0444 8.86106 26.1166C9.16152 26.2345 9.48298 26.2893 9.80551 26.2777H9.88884C10.1631 26.2789 10.435 26.2261 10.6888 26.1222C10.8388 26.0611 11.0277 26 11.0944 25.8333C11.1444 25.7388 11.1055 25.6055 10.9833 25.5944C10.8833 25.5944 10.7888 25.6611 10.6888 25.6888C10.3269 25.8383 9.93459 25.8992 9.5444 25.8666C9.29995 25.8388 9.07217 25.75 8.84995 25.6444C8.76662 25.6055 8.6944 25.5444 8.59995 25.5333V25.5277Z" fill="#CF1126"/>
<path d="M8.7944 24.9777C8.67218 24.9611 8.58884 25.1 8.61107 25.2055C8.62773 25.3055 8.71106 25.3722 8.78329 25.4277C9.08578 25.6373 9.44912 25.7408 9.81662 25.7222H9.90551C10.1365 25.7205 10.3643 25.6673 10.5722 25.5666C10.7111 25.5111 10.8722 25.4388 10.9222 25.2777C10.9444 25.2055 10.9555 25.1 10.8722 25.0555C10.7833 25.0111 10.7 25.0833 10.6222 25.1111C10.3564 25.2507 10.0612 25.325 9.76107 25.3277C9.5034 25.3175 9.25275 25.2409 9.03329 25.1055C8.94995 25.0666 8.88329 24.9944 8.7944 24.9777Z" fill="#CF1126"/>
<path d="M6.74996 16.8166C6.57218 17 6.71107 17.3333 6.6944 17.5666C6.7944 18.3 6.91107 19.0389 7.18329 19.7333C7.51662 20.4 8.22773 20.7611 8.65551 21.3555C8.81106 21.6389 8.75551 21.9833 8.78884 22.3C8.81107 23.15 8.80551 24.0055 8.78884 24.8555C9.17773 25.0555 9.5944 25.2444 10.0388 25.1722C10.3 25.1111 10.7888 25.0722 10.8444 24.8111L10.7888 20.3944C10.6388 19.9444 10.1777 19.7111 9.83884 19.4222C9.55559 19.1426 9.292 18.8437 9.04995 18.5277C8.90551 18.2777 8.33329 18.1944 8.53884 18.6166C8.66107 18.9889 8.96662 19.2611 9.0444 19.65C9.06106 19.8666 9.32217 20.2611 9.09995 20.3833C8.96308 20.1418 8.75567 19.948 8.50551 19.8277C8.26106 19.6444 7.85551 19.5666 7.76662 19.2444C7.68658 18.7861 7.47414 18.3612 7.15551 18.0222C7.23884 17.6111 7.15551 17.0944 6.79996 16.8278L6.74996 16.8166Z" fill="#CF1126"/>
<path d="M7.29996 16.9C7.13329 16.9278 7.1444 17.1333 7.21662 17.2444C7.29897 17.4835 7.31998 17.7395 7.27774 17.9889C7.58238 18.3281 7.78633 18.7456 7.86662 19.1944C7.86662 19.3611 8.0444 19.4166 8.16107 19.5C8.43329 19.6722 8.73329 19.8 8.97773 20.0166C9.02773 20.0722 9.06662 20.1277 9.03329 20.0166C8.9944 19.8722 8.97773 19.7166 8.86662 19.6111C8.71107 19.4444 8.52218 19.3 8.29996 19.2555C8.28329 19.0222 8.17218 18.8111 8.07218 18.6111C7.96107 18.4166 7.8444 18.2111 7.65551 18.0889C7.65551 17.75 7.65551 17.3944 7.51107 17.0778C7.46662 17 7.39996 16.9055 7.29996 16.9Z" fill="#CF1126"/>
<path d="M7.76107 17.0333C7.64996 17.0666 7.67218 17.2111 7.70551 17.2944C7.75404 17.5357 7.7727 17.782 7.76107 18.0278C7.97773 18.1944 8.10551 18.4389 8.22773 18.6722C8.30551 18.8277 8.37218 18.9944 8.39996 19.1666C8.57218 19.2222 8.72218 19.3333 8.85551 19.4444C8.79996 19.2889 8.68885 19.1666 8.60551 19.0166C8.52218 18.8666 8.43885 18.7055 8.39996 18.5333C8.23329 18.3611 8.1444 18.1111 8.17773 17.8666C8.18885 17.6055 8.10551 17.3333 7.92773 17.1333C7.88329 17.0889 7.82773 17.0389 7.76107 17.0333Z" fill="#CF1126"/>
<path d="M8.28885 17.1111C8.22218 17.1222 8.18884 17.1778 8.15551 17.2278C8.13884 17.2778 8.19996 17.3277 8.21107 17.3833C8.28365 17.5667 8.31035 17.765 8.28885 17.9611C8.28329 18.1 8.33329 18.2389 8.39996 18.35C8.41244 18.3072 8.4378 18.2693 8.4726 18.2415C8.50739 18.2136 8.54993 18.1972 8.5944 18.1944C8.62218 18.1944 8.67218 18.2055 8.64996 18.1555C8.62773 17.8889 8.58885 17.6222 8.4944 17.3778C8.46704 17.2815 8.41313 17.1948 8.33884 17.1278C8.32773 17.1166 8.30551 17.1055 8.28329 17.1111H8.28885Z" fill="#CF1126"/>
<path d="M31.5555 26.1055C31.6944 26.0833 31.8499 26.2222 31.7944 26.3666C31.6944 26.5111 31.5166 26.5888 31.361 26.6555C30.9512 26.8155 30.5112 26.8838 30.0721 26.8555C29.75 26.8556 29.4304 26.7992 29.1277 26.6888C28.961 26.6333 28.7499 26.5777 28.6833 26.3888C28.611 26.2722 28.7388 26.15 28.8555 26.1722C29.0221 26.2111 29.1888 26.2833 29.3555 26.3333C29.7218 26.437 30.1037 26.4746 30.4833 26.4444C30.7595 26.4042 31.0287 26.3257 31.2833 26.2111C31.3721 26.1722 31.4555 26.1166 31.5555 26.1055Z" fill="#CF1126"/>
<path d="M31.3999 25.5277C31.5388 25.5055 31.661 25.6722 31.6055 25.8055C31.4944 25.9611 31.311 26.0444 31.1388 26.1166C30.8384 26.2345 30.5169 26.2893 30.1944 26.2777H30.111C29.8367 26.2789 29.5649 26.2261 29.311 26.1222C29.161 26.0611 28.9721 26 28.9055 25.8333C28.8555 25.7388 28.8944 25.6055 29.0166 25.5944C29.1166 25.5944 29.211 25.6611 29.311 25.6888C29.6729 25.8383 30.0653 25.8992 30.4555 25.8666C30.6999 25.8388 30.9277 25.75 31.1499 25.6444C31.2333 25.6055 31.3055 25.5444 31.3999 25.5333V25.5277Z" fill="#CF1126"/>
<path d="M31.2055 24.9777C31.3277 24.9611 31.411 25.1 31.3888 25.2055C31.3721 25.3055 31.2888 25.3722 31.2166 25.4277C30.9141 25.6373 30.5508 25.7408 30.1833 25.7222H30.0944C29.8634 25.7205 29.6356 25.6673 29.4277 25.5666C29.2888 25.5111 29.1277 25.4388 29.0777 25.2777C29.0555 25.2055 29.0444 25.1 29.1277 25.0555C29.2166 25.0111 29.2999 25.0833 29.3777 25.1111C29.6434 25.2507 29.9386 25.325 30.2388 25.3277C30.4965 25.3175 30.7471 25.2409 30.9666 25.1055C31.0499 25.0666 31.1166 24.9944 31.2055 24.9777Z" fill="#CF1126"/>
<path d="M33.2499 16.8166C33.4277 17 33.2888 17.3333 33.3055 17.5666C33.2055 18.3 33.0888 19.0389 32.8166 19.7333C32.4833 20.4 31.7721 20.7611 31.3444 21.3555C31.1888 21.6389 31.2444 21.9833 31.211 22.3C31.1888 23.15 31.1944 24.0055 31.211 24.8555C30.8221 25.0555 30.4055 25.2444 29.961 25.1722C29.6999 25.1111 29.211 25.0722 29.1555 24.8111L29.211 20.3944C29.361 19.9444 29.8221 19.7111 30.161 19.4222C30.4443 19.1426 30.7079 18.8437 30.9499 18.5277C31.0944 18.2777 31.6666 18.1944 31.461 18.6166C31.3388 18.9889 31.0333 19.2611 30.9555 19.65C30.9388 19.8666 30.6777 20.2611 30.8999 20.3833C31.0368 20.1418 31.2442 19.948 31.4944 19.8277C31.7388 19.6444 32.1444 19.5666 32.2333 19.2444C32.3133 18.7861 32.5257 18.3612 32.8444 18.0222C32.761 17.6111 32.8444 17.0944 33.1999 16.8278L33.2499 16.8166Z" fill="#CF1126"/>
<path d="M32.6999 16.9C32.8666 16.9278 32.8555 17.1333 32.7833 17.2444C32.7009 17.4835 32.6799 17.7395 32.7221 17.9889C32.4175 18.3281 32.2136 18.7456 32.1333 19.1944C32.1333 19.3611 31.9555 19.4166 31.8388 19.5C31.5666 19.6722 31.2666 19.8 31.0221 20.0166C30.9721 20.0722 30.9333 20.1277 30.9666 20.0166C31.0055 19.8722 31.0221 19.7166 31.1333 19.6111C31.2888 19.4444 31.4777 19.3 31.6999 19.2555C31.7166 19.0222 31.8277 18.8111 31.9277 18.6111C32.0388 18.4166 32.1555 18.2111 32.3444 18.0889C32.3444 17.75 32.3444 17.3944 32.4888 17.0778C32.5333 17 32.5999 16.9055 32.6999 16.9Z" fill="#CF1126"/>
<path d="M32.2388 17.0333C32.3499 17.0666 32.3277 17.2111 32.2944 17.2944C32.2458 17.5357 32.2272 17.782 32.2388 18.0278C32.0221 18.1944 31.8944 18.4389 31.7721 18.6722C31.6944 18.8277 31.6277 18.9944 31.5999 19.1666C31.4277 19.2222 31.2777 19.3333 31.1444 19.4444C31.1999 19.2889 31.311 19.1666 31.3944 19.0166C31.4777 18.8666 31.561 18.7055 31.5999 18.5333C31.7666 18.3611 31.8555 18.1111 31.8221 17.8666C31.811 17.6055 31.8944 17.3333 32.0721 17.1333C32.1166 17.0889 32.1721 17.0389 32.2388 17.0333Z" fill="#CF1126"/>
<path d="M31.711 17.1111C31.7777 17.1222 31.811 17.1778 31.8444 17.2278C31.861 17.2778 31.7999 17.3277 31.7888 17.3833C31.7162 17.5667 31.6895 17.765 31.711 17.9611C31.7166 18.1 31.6666 18.2389 31.5999 18.35C31.5874 18.3072 31.5621 18.2693 31.5273 18.2415C31.4925 18.2136 31.45 18.1972 31.4055 18.1944C31.3777 18.1944 31.3277 18.2055 31.3499 18.1555C31.3721 17.8889 31.411 17.6222 31.5055 17.3778C31.5328 17.2815 31.5867 17.1948 31.661 17.1278C31.6721 17.1166 31.6944 17.1055 31.7166 17.1111H31.711Z" fill="#CF1126"/>
<path d="M19.761 26.4444C19.3858 26.4038 19.03 26.2567 18.7357 26.0205C18.4413 25.7842 18.2207 25.4687 18.0999 25.1111C18.1166 24.9888 18.2666 25.1777 18.3388 25.1944C18.4743 25.2752 18.6262 25.3245 18.7833 25.3388C18.9777 25.4222 19.0999 25.6166 19.2888 25.7222C19.3777 25.7888 19.6888 25.9222 19.6277 25.7055C19.5555 25.5944 19.5055 25.45 19.5722 25.3166C19.6722 25.0888 19.8333 24.8888 19.9999 24.6944C20.1166 24.6555 20.1999 24.8944 20.2833 24.9722C20.3999 25.1555 20.5444 25.3777 20.4722 25.6C20.4055 25.6833 20.361 25.9333 20.5444 25.8555C20.7666 25.7555 20.9499 25.5888 21.1333 25.4333C21.2999 25.3222 21.5055 25.3166 21.6722 25.2111C21.7555 25.1944 21.9166 25.0388 21.9499 25.1222C21.8504 25.3705 21.7116 25.6013 21.5388 25.8055C21.2717 26.1227 20.9023 26.3368 20.4944 26.4111C20.2499 26.4555 20.0055 26.4666 19.761 26.4444Z" fill="#CF1126"/>
<path d="M20.6388 25.5666C20.6555 25.4166 20.6222 25.2666 20.5444 25.1222C20.4277 24.8889 20.2666 24.6777 20.0999 24.4611C19.9444 24.3722 19.861 24.6666 19.761 24.75C19.5999 24.9889 19.3999 25.2333 19.3888 25.5277C19.2999 25.6666 19.1333 25.4166 19.061 25.3333C18.913 25.143 18.8346 24.9077 18.8388 24.6666C18.8254 24.2754 18.8935 23.8857 19.0388 23.5222C19.1499 23.2111 19.3222 22.9111 19.3055 22.5777C19.3166 22.3166 19.2666 22.0389 19.061 21.8666C18.861 21.7111 19.1888 21.6777 19.2888 21.7555C19.4666 21.7722 19.561 22.0611 19.7222 21.9889C19.7833 21.8389 19.7999 21.6555 19.9333 21.5389C20.061 21.3611 20.1944 21.6111 20.2388 21.7333C20.3333 21.8333 20.2388 22.0944 20.3833 22.1C20.561 21.9722 20.6888 21.7666 20.9166 21.7166C21.011 21.6611 21.1666 21.7166 21.0444 21.8166C20.8777 21.9777 20.7333 22.1722 20.6999 22.4111C20.6499 22.7055 20.7222 23.0055 20.8499 23.2666C21.0999 23.7889 21.2944 24.3777 21.1666 24.9611C21.111 25.2166 20.9333 25.4389 20.7222 25.5889C20.6944 25.6055 20.6499 25.6055 20.6388 25.5666Z" fill="#CF1126"/>
<path d="M20.3722 21.6444C20.2974 21.4941 20.1913 21.3615 20.061 21.2555C19.9277 21.2555 19.8444 21.4222 19.7555 21.5111C19.6944 21.6277 19.6166 21.8222 19.461 21.6722C19.211 21.5277 19.1722 21.2111 19.1722 20.95C19.1555 20.5277 19.3277 20.1333 19.4777 19.75C19.5722 19.5111 19.5499 19.2389 19.4888 18.9944C19.4166 18.7166 19.1888 18.5166 19.0166 18.2944C19.0277 18.2111 19.2499 18.2555 19.3333 18.2722C19.5222 18.3222 19.6333 18.4833 19.7722 18.6055C19.8722 18.5722 19.8277 18.3722 19.8777 18.2777C19.8777 18.1444 20.0555 17.9722 20.1277 18.1611C20.2388 18.2833 20.1277 18.5222 20.2666 18.5944C20.3999 18.5444 20.4666 18.4 20.5888 18.3333C20.6526 18.292 20.726 18.2678 20.8019 18.2629C20.8777 18.258 20.9536 18.2727 21.0222 18.3055C21.0722 18.4277 20.8777 18.5277 20.8222 18.6389C20.7111 18.7774 20.6341 18.94 20.5975 19.1137C20.5608 19.2874 20.5655 19.4673 20.611 19.6389C20.6888 19.9166 20.8222 20.1666 20.8722 20.4444C20.9322 20.7612 20.9227 21.0872 20.8444 21.4C20.7944 21.5889 20.6333 21.7111 20.4666 21.7889C20.4222 21.75 20.3999 21.6944 20.3722 21.6444Z" fill="#CF1126"/>
<path d="M19.5333 18.1611C19.3444 18.0222 19.2833 17.8944 19.2833 17.6333C19.2833 17.5055 19.311 17.4333 19.3944 17.3111C19.5277 17.1333 19.5055 17.0778 19.3222 17.1278C19.0277 17.2111 18.8888 17.1389 18.8777 16.8889C18.8777 16.7666 18.8999 16.7166 19.061 16.5166C19.1944 16.3611 19.2444 16.2778 19.2166 16.25C19.1888 16.2278 19.0333 16.3611 18.7166 16.6833C18.518 16.8927 18.3065 17.0894 18.0833 17.2722C17.5388 17.6389 17.0166 17.6944 16.7777 17.4111C16.6555 17.2666 16.6611 17.1889 16.7999 17.1C16.8884 17.0402 16.9703 16.9713 17.0444 16.8944C17.3167 16.6458 17.6168 16.4296 17.9388 16.25C18.1388 16.15 18.1833 16.0833 18.0555 16.0833C17.8888 16.0833 17.3611 16.4278 16.9555 16.7944C16.8388 16.9055 16.6666 17.0278 16.5777 17.0722C16.3305 17.1623 16.0631 17.1816 15.8055 17.1278C15.6833 17.0889 15.4555 16.8778 15.4555 16.8C15.4555 16.7833 15.5111 16.7389 15.5666 16.7C15.6572 16.6488 15.7427 16.5893 15.8222 16.5222C16.1444 16.2444 16.7555 15.95 17.2388 15.8444C17.3944 15.8166 17.3333 15.7333 17.1611 15.7444C16.6511 15.8418 16.1736 16.0653 15.7722 16.3944C15.3111 16.7778 14.6166 16.7389 14.3944 16.3222C14.3555 16.25 14.3277 16.1833 14.3388 16.1722C14.7323 16.0729 15.1128 15.9274 15.4722 15.7389C15.7817 15.5564 16.1228 15.4339 16.4777 15.3778C16.6333 15.35 16.6444 15.2722 16.4944 15.2555C16.2944 15.2333 15.9944 15.3333 15.4666 15.5889C14.7833 15.9278 14.5888 15.9889 14.2333 15.9666C13.8999 15.9444 13.7166 15.8611 13.4555 15.6111C13.2777 15.4444 13.0333 15.0278 13.0777 14.9778C13.3662 15.0384 13.661 15.0627 13.9555 15.05C14.4166 15.05 14.5444 15.0389 14.7888 14.9666C15.2664 14.8153 15.7165 14.5884 16.1222 14.2944C16.694 13.8107 17.4176 13.5433 18.1666 13.5389C18.8555 13.5389 19.2888 13.6944 19.6777 14.0889C19.811 14.2222 19.9222 14.3055 19.9388 14.2889C19.9555 14.2722 19.9722 14.0389 19.9777 13.7722C19.9777 13.7722 20.1833 13.75 20.2277 13.8111C20.2277 14.2389 20.2277 14.2778 20.2944 14.2778C20.3333 14.2778 20.3777 14.2333 20.4055 14.1666C20.461 14.0278 20.6833 13.8333 20.9166 13.7111C21.4166 13.4611 22.2888 13.45 22.9888 13.6944C23.3235 13.8214 23.6364 13.9994 23.9166 14.2222C24.3253 14.5097 24.7747 14.7344 25.2499 14.8889C25.6277 15 26.3055 15.0278 26.6444 14.9444C26.7435 14.9215 26.8436 14.9029 26.9444 14.8889C27.0721 14.8889 26.8555 15.3111 26.5999 15.5611C26.1333 16.0166 25.5277 16.0111 24.6777 15.5555C24.1444 15.2666 23.511 15.1111 23.511 15.2666C23.511 15.3 23.5444 15.3222 23.5944 15.3222C23.7777 15.3222 24.1333 15.4444 24.6333 15.6833C24.9474 15.8645 25.2919 15.9868 25.6499 16.0444C25.7777 16.0444 25.7833 16.1278 25.661 16.3055C25.5333 16.4944 25.3166 16.5833 25.011 16.5833C24.7166 16.5833 24.5499 16.5222 24.2888 16.3055C23.8444 15.9389 22.7555 15.5278 22.7944 15.75C22.8055 15.7889 22.8555 15.8166 22.9722 15.8333C23.4414 15.9353 23.8806 16.1444 24.2555 16.4444L24.5833 16.6833C24.6444 16.7166 24.6444 16.7278 24.5944 16.8222C24.5166 16.9778 24.3055 17.0944 24.0833 17.1166C23.7944 17.15 23.5388 17.0611 23.2777 16.8389C22.7222 16.3778 22.2055 16.0444 22.0388 16.0444C21.8999 16.0444 21.961 16.1222 22.2055 16.25C22.5217 16.4175 22.8164 16.6227 23.0833 16.8611C23.1944 16.9666 23.3222 17.0666 23.361 17.0889C23.4666 17.1444 23.461 17.2222 23.3499 17.3666C23.2388 17.5111 23.0499 17.5778 22.811 17.55C22.3333 17.5 21.9555 17.2722 21.3666 16.6611C21.2266 16.5047 21.0742 16.3598 20.911 16.2278C20.8333 16.2278 20.8833 16.3333 21.0333 16.5055C21.2222 16.7111 21.2555 16.8278 21.1833 17.0055C21.1222 17.15 21.0166 17.1889 20.8055 17.1278C20.5833 17.0722 20.5499 17.1278 20.6944 17.3C20.9055 17.5722 20.8777 17.8944 20.611 18.1222C20.5559 18.1753 20.492 18.2185 20.4222 18.25C20.3999 18.25 20.3444 18.1944 20.2944 18.1166C20.1277 17.8611 19.9777 17.8611 19.811 18.1166C19.7759 18.1734 19.7388 18.229 19.6999 18.2833C19.6437 18.2435 19.5882 18.2027 19.5333 18.1611Z" fill="#CF1126"/>
<path d="M20.3722 12.9444L20.0833 13.1666L19.8277 12.9778V14.5222H20.3722V12.9444Z" fill="#CF1126"/>
<path d="M18.6055 11.35C18.555 11.9746 18.3852 12.5837 18.1055 13.1444L18.7222 12.5722L19.1499 13.0833L19.6166 12.5611L20.0888 13.0055L20.5444 12.5444L21.0166 13.1L21.4277 12.6444L22.1277 13.1444C21.8722 12.5889 21.5333 12.1111 21.5722 11.3222C20.8999 11.8222 19.2944 11.9111 18.6055 11.3444V11.35Z" fill="#CF1126"/>
<path d="M19.8333 10.9778C19.5833 10.9778 19.3222 10.9833 19.0888 11.0333C18.9343 11.0579 18.7867 11.1147 18.6555 11.2C18.6722 11.6778 20.9333 11.8722 21.5388 11.2111C21.4025 11.1168 21.2469 11.0541 21.0833 11.0278C20.861 10.9833 20.6055 10.9833 20.3666 10.9722V11.3666H19.8333V10.9778Z" fill="#CF1126"/>
<path d="M20.2722 8.55554H19.9222V11.3H20.2777L20.2722 8.55554Z" fill="#CF1126"/>
<path d="M20.2722 8.62221L20.1388 9.93887L21.4888 10.6L20.8055 9.68332L21.7388 9.37776L20.2722 8.62221ZM20.1222 8.28332C19.9166 8.28332 19.7666 8.3611 19.7666 8.44999C19.7666 8.53888 19.9166 8.61665 20.1222 8.61665C20.3277 8.61665 20.4777 8.53888 20.4777 8.44999C20.4777 8.3611 20.3277 8.28332 20.1222 8.28332Z" fill="#CF1126"/>
<path d="M19.5 31.3281C19.7266 31.25 19.8516 31.1172 19.9375 30.8594C19.9749 30.7611 20.0011 30.6589 20.0156 30.5547C19.9922 30.4766 19.8906 30.4766 19.7891 30.5703C19.7109 30.625 19.7109 30.6562 19.7266 30.7812C19.7812 31.0938 19.6719 31.1719 19.0781 31.2344C19.0234 31.2344 18.8516 31.2344 18.7031 31.2109C18.4219 31.1797 18.3281 31.2109 18.4297 31.2891C18.482 31.3249 18.5402 31.3513 18.6016 31.3672C18.7578 31.4062 19.3359 31.3828 19.5 31.3203V31.3281ZM20.7266 31.2734C20.7578 31.2422 20.8672 31.1953 20.9766 31.1562C21.1172 31.1094 21.1953 31.0625 21.25 30.9688C21.4219 30.7109 21.3906 30.4922 21.1406 30.1875C21 30.0312 20.9375 30.0312 20.8281 30.2187C20.7344 30.375 20.7344 30.375 20.875 30.4141C20.9531 30.4297 21.0156 30.4922 21.0547 30.5547C21.2031 30.8125 21.1562 30.9688 20.9375 30.9688C20.7344 30.9688 20.6797 31 20.625 31.125C20.6027 31.1776 20.587 31.2327 20.5781 31.2891C20.5781 31.3438 20.6562 31.3359 20.7266 31.2734ZM20.3203 30.9766C20.3594 30.875 20.375 30.6953 20.3672 30.3203C20.3672 30.0312 20.3594 29.7891 20.3438 29.7734C20.3125 29.75 20.1484 29.8516 20.125 29.9219C20.1172 29.9609 20.1328 30.0391 20.1641 30.1016C20.2188 30.2031 20.2266 30.2969 20.2109 30.6875C20.1875 31.1797 20.2188 31.2578 20.3203 30.9766Z" fill="#F7E017"/>
<path d="M19.3828 30.75C19.4063 30.6563 19.4297 30.4688 19.4375 30.3281C19.4531 30.1953 19.4766 30.0156 19.5 29.9375C19.5625 29.75 19.5 29.7031 19.3438 29.8125L19.2344 29.8906L19.2578 30.1641C19.2812 30.4141 19.2422 30.875 19.1797 31.0547C19.1719 31.1094 19.1953 31.0938 19.2578 31.0234C19.3189 30.9396 19.3615 30.8437 19.3828 30.7422V30.75ZM18.5469 30.8828C18.75 30.7109 18.7266 30.4141 18.7734 30.1797C18.7734 30.0234 18.875 29.8359 18.8047 29.7031C18.6172 29.7344 18.4922 29.9141 18.5938 30.0938C18.6016 30.3047 18.5938 30.5313 18.4922 30.7188C18.4062 30.8359 18.125 30.7969 18.1406 30.6328C18.2109 30.375 17.9063 30.5 17.7813 30.5703C17.6875 30.6328 17.4922 30.6406 17.5625 30.4766C17.5156 30.2578 17.2422 30.3984 17.0938 30.3984C16.9531 30.3984 17.0781 30.1094 16.875 30.1641C16.5 30.125 16.0781 30.1641 15.75 29.9297C15.5625 29.8438 15.5938 29.6172 15.6875 29.4609C15.8125 29.2578 15.8438 29 16.0312 28.8438C16.2188 28.6641 15.8594 28.7422 15.7734 28.8047C15.5938 28.8984 15.7578 29.1563 15.6172 29.2969C15.5234 29.4531 15.4062 29.6484 15.2109 29.625C14.9141 29.5703 14.7422 29.2969 14.5391 29.1172C14.3594 29.0781 14.4609 29.4062 14.5547 29.4766C14.7398 29.6137 14.9492 29.7144 15.1719 29.7734C15.3906 29.7344 15.3984 30.0234 15.5859 30.0703C15.9297 30.2266 16.3125 30.2734 16.6797 30.2969C16.8359 30.3047 16.75 30.5703 16.9453 30.5156C17.0547 30.5469 17.2969 30.4766 17.3047 30.6016C17.1484 30.7969 17.4609 30.7969 17.5859 30.7578C17.7422 30.7344 17.9297 30.6797 17.9766 30.8828C18.1016 31.0234 18.3359 31 18.4844 30.9219L18.5469 30.8828Z" fill="#F7E017"/>
<path d="M15.2344 29.1953C15.2891 29.1172 15.3828 28.9609 15.4375 28.8438C15.4801 28.741 15.5352 28.6439 15.6016 28.5547C15.7031 28.4453 15.6484 28.3828 15.4844 28.4219C15.4062 28.4375 15.3672 28.4688 15.3594 28.5391C15.3125 28.7734 15.2266 29.0156 15.1484 29.125C15.0078 29.3281 15.0078 29.3359 15.0703 29.3359C15.0937 29.3359 15.1641 29.2734 15.2266 29.1953H15.2344ZM13.1406 27.8906C12.9844 27.8906 12.9844 27.9922 13.1328 28.0469C13.2031 28.0703 13.2656 28.125 13.3125 28.2344C13.4687 28.5234 13.5469 28.5781 13.9375 28.6094L14.1953 28.6328L14.2031 28.7891C14.2109 28.8672 14.2344 28.9453 14.25 28.9453C14.2734 28.9453 14.3672 28.8984 14.4687 28.8516C14.6484 28.7578 14.8281 28.5391 14.8281 28.4062C14.8281 28.3203 14.6719 28.2188 14.5469 28.2188C14.4494 28.2332 14.3576 28.2737 14.2812 28.3359C14 28.5391 13.7031 28.4922 13.5391 28.2344C13.4062 28.0156 13.2656 27.8906 13.1406 27.8906ZM14.5 28.4375C14.5781 28.4375 14.5938 28.4922 14.5547 28.5938C14.5234 28.6719 14.4297 28.6719 14.3984 28.5938C14.375 28.5156 14.4219 28.4375 14.5 28.4375ZM25.0391 28.0938C24.9375 28.0938 24.9062 28.1172 24.8438 28.2188C24.7344 28.375 24.7266 28.7109 24.8281 28.8281C24.8828 28.9062 24.8906 28.9062 25.0234 28.8516C25.2031 28.7734 25.2344 28.7812 25.2266 28.875C25.2266 29.125 24.875 29.5938 24.5078 29.8516C24.4327 29.8931 24.3664 29.9488 24.3125 30.0156C24.2812 30.0938 24.4219 30.0703 24.5859 29.9844C24.8203 29.8672 25.1172 29.5625 25.2422 29.3203C25.3359 29.125 25.3516 29.0625 25.3672 28.7266C25.3672 28.4141 25.3672 28.3281 25.3125 28.2188C25.2578 28.1016 25.2344 28.0938 25.0859 28.0938H25.0391ZM25.0547 28.3125C25.1328 28.3125 25.1406 28.3281 25.1484 28.4375C25.1562 28.5312 25.1484 28.5859 25.0938 28.6328C25.0156 28.6953 25.0156 28.6953 24.9531 28.6016C24.875 28.4688 24.9219 28.3125 25.0547 28.3125ZM23.3672 30.6797C23.6465 30.5633 23.8741 30.3496 24.0078 30.0781C24.049 29.9953 24.083 29.909 24.1094 29.8203C24.1094 29.7734 23.9531 29.7031 23.8516 29.7031C23.75 29.7031 23.7422 29.6328 23.7734 29.4531C23.8203 29.2734 23.7734 29.0547 23.6953 29.0547C23.6641 29.0547 23.6172 29.0938 23.5859 29.1406C23.5312 29.2188 23.5312 29.2578 23.5703 29.375C23.625 29.5312 23.5781 29.6641 23.4297 29.7656C23.3516 29.8203 23.3125 29.8828 23.3125 29.9375C23.3125 29.9844 23.3203 30.0234 23.3281 30.0234L23.5078 29.9375L23.6641 29.8438L23.7656 29.9219C23.8125 29.9609 23.8594 30.0312 23.8594 30.0703C23.8594 30.2656 23.2969 30.6016 22.9062 30.6328C22.7031 30.6484 22.6719 30.6328 22.5938 30.5703C22.5391 30.5078 22.5156 30.4609 22.5312 30.3906L22.5781 30.1797C22.6172 30.0078 22.5391 30.0312 22.4141 30.2344C22.3047 30.3906 22.2734 30.5781 22.3359 30.6719C22.3828 30.75 22.7031 30.8203 22.9297 30.8047C23.0703 30.7969 23.2188 30.7578 23.3672 30.6797ZM25.5312 29.4688C25.7344 29.2656 25.8281 29.0156 25.8281 28.6328V28.3438L25.9922 28.2656C26.2109 28.1641 26.4219 27.9531 26.4219 27.8438C26.4219 27.7188 26.3672 27.7266 26.2734 27.8594C26.2031 27.9531 26.1172 28.0078 25.7734 28.1641C25.6875 28.2031 25.6797 28.2266 25.6641 28.5859C25.6406 29 25.5859 29.1484 25.3516 29.4375C25.2109 29.6016 25.2031 29.625 25.3047 29.625C25.3438 29.625 25.4453 29.5625 25.5391 29.4688H25.5312ZM23.3047 29.2344C23.3281 29.1797 23.2109 29.1406 23.1641 29.1875C23.1406 29.2109 23.1406 29.2422 23.1562 29.2656C23.1875 29.3203 23.2891 29.3047 23.3125 29.2422L23.3047 29.2344ZM26.375 28.4453C26.3984 28.3828 26.2812 28.3438 26.2344 28.3906C26.2109 28.4141 26.2109 28.4531 26.2266 28.4688C26.2578 28.5234 26.3594 28.5078 26.3828 28.4453H26.375ZM22.6797 26.2891C22.6016 26.3281 22.5625 26.4141 22.5078 26.4844C22.4688 26.5078 22.5 26.5312 22.5234 26.5625C22.6641 26.7109 22.7188 26.9141 22.7891 27.1094C22.8516 27.3281 22.9375 27.5703 22.8672 27.8047C22.8359 27.8906 22.7656 27.9844 22.6641 27.9609C22.4922 27.9453 22.3281 27.9062 22.1641 27.9062C22.0078 27.9062 21.8906 28.0469 21.7422 28.0312C21.6406 28.0391 21.6484 27.8359 21.5547 27.8906C21.5078 28 21.5312 28.1172 21.5234 28.2344C21.5469 28.25 21.5938 28.2344 21.6172 28.2344H21.9297C21.9453 28.3438 21.9375 28.4688 22.0156 28.5469C22.125 28.5859 22.2422 28.5469 22.3359 28.5078C22.4453 28.4609 22.4609 28.3281 22.4922 28.2344C22.5234 28.125 22.6641 28.1562 22.75 28.1094C22.8479 28.0756 22.9322 28.0107 22.99 27.9248C23.0478 27.8388 23.076 27.7363 23.0703 27.6328C23.0625 27.3125 22.9375 27.0078 22.8438 26.7109C22.7969 26.5781 22.7656 26.4453 22.7109 26.3125C22.7109 26.3047 22.6953 26.2891 22.6797 26.2969V26.2891ZM22.1797 28.1094C22.2891 28.1094 22.3359 28.2422 22.3203 28.3359C22.2734 28.4609 22.1172 28.3828 22.0859 28.2891C22.0312 28.2109 22.0703 28.1016 22.1797 28.1094Z" fill="#F7E017"/>
<path d="M18 27.0703C17.9409 27.0709 17.8835 27.09 17.8359 27.125C17.5391 27.3359 17.4609 27.5781 17.6641 27.6719C17.8125 27.7422 17.7734 27.8281 17.5391 27.9453C17.2109 28.1016 16.9141 28.0859 16.3672 27.8594C16.2266 27.7969 16.1875 27.8203 16.2188 27.9453C16.25 28.0703 16.3672 28.1328 16.6406 28.2031C16.9453 28.2656 17.3047 28.25 17.5391 28.1484C17.6762 28.0793 17.7984 27.9837 17.8984 27.8672L18.0781 27.6719L18.2891 27.6953C18.5469 27.7266 18.5547 27.7344 18.5547 27.8516C18.5547 27.9531 18.5547 27.9609 18.7969 27.9766L19.1875 28C19.2969 28 19.3594 28.0234 19.3906 28.0781C19.4375 28.1328 19.4688 28.1406 19.8594 28.1016C20.2187 28.0703 20.2969 28.0703 20.4609 28.1328C20.5781 28.1719 20.7031 28.1875 20.8047 28.1719C21.0859 28.1406 21.4688 27.9141 21.5234 27.7422C21.5312 27.7266 21.6328 27.6875 21.75 27.6641C22.0312 27.6094 22.0469 27.5469 21.7812 27.5156C21.6507 27.4977 21.5224 27.4663 21.3984 27.4219C21.3061 27.3844 21.2087 27.3607 21.1094 27.3516C20.9688 27.3516 20.8281 27.4375 20.8281 27.5312C20.8281 27.5938 20.8516 27.6016 21.0234 27.5859C21.1797 27.5625 21.2266 27.5703 21.3047 27.6406C21.3672 27.6875 21.3984 27.7344 21.3828 27.75C21.3516 27.8125 21.0234 27.9609 20.875 27.9844C20.7905 28.0019 20.7026 27.9909 20.625 27.9531C20.4922 27.8906 20.3047 27.875 20.2656 27.9297C20.2578 27.9609 20.2109 27.9453 20.1562 27.8906L20.0781 27.8125L19.875 27.8906C19.6719 27.9688 19.6016 27.9688 19.6016 27.875C19.6016 27.8281 19.5469 27.8281 19.25 27.8438C18.9219 27.8672 18.8906 27.8594 18.8281 27.7969C18.7734 27.7344 18.7734 27.7109 18.8125 27.6406C18.8516 27.5859 18.8516 27.5625 18.8125 27.5234C18.7812 27.4922 18.7344 27.4922 18.6094 27.5234C18.2891 27.6094 18.1953 27.5625 18.1953 27.3125C18.1953 27.1562 18.1094 27.0703 18 27.0703ZM17.9219 27.3047C17.9375 27.3047 17.9453 27.3047 17.9688 27.3359C18 27.3594 18.0156 27.4141 18 27.4453C17.9766 27.5234 17.8359 27.5156 17.8047 27.4375C17.7969 27.3984 17.8047 27.3594 17.8516 27.3281L17.9141 27.2969L17.9219 27.3047Z" fill="#F7E017"/>
<path d="M17.3438 27.5312C17.5312 27.4062 17.5312 27.4219 17.5547 27.0703C17.5781 26.8359 17.5781 26.8125 17.5078 26.8125C17.4141 26.8125 17.3594 26.9141 17.3594 27.1172C17.3594 27.2422 17.3437 27.3047 17.2812 27.375C17.1094 27.5312 16.7031 27.4609 16.6562 27.2578C16.6406 27.1875 16.6562 27.125 16.7422 27.0078C16.9219 26.7578 16.8828 26.6953 16.6641 26.8828C16.5078 27.0156 16.4844 27.0156 16.5156 26.9062C16.5391 26.8047 16.4844 26.7578 16.3594 26.7891C16.3047 26.8047 16.2734 26.8438 16.2578 26.9219C16.2422 27 16.2031 27.0391 16.1484 27.0469C16.0469 27.0781 15.8828 26.9844 15.8828 26.8984C15.8828 26.8438 16.1328 26.5391 16.4531 26.1953C16.5384 26.1184 16.6144 26.0319 16.6797 25.9375C16.6797 25.9219 16.6094 25.9062 16.5312 25.9062C16.4141 25.9062 16.3906 25.9219 16.3906 25.9766C16.3906 26.0078 16.2266 26.2266 16.0234 26.4453C15.6094 26.9141 15.5781 27.0156 15.7891 27.1328C15.871 27.182 15.9653 27.2067 16.0609 27.2039C16.1564 27.2011 16.2492 27.171 16.3281 27.1172L16.4609 27.0234V27.1953C16.4609 27.4062 16.5 27.4766 16.6719 27.5703C16.7762 27.6228 16.8926 27.6468 17.0091 27.6399C17.1257 27.6331 17.2385 27.5956 17.3359 27.5312H17.3438ZM26.0391 24.6484C25.8828 24.7422 26 24.9375 26.0234 25.0625C25.9609 25.2344 25.7422 25.2812 25.5781 25.3203C25.3437 25.3516 25.1797 25.5547 25.0938 25.7578C25.0469 25.8906 24.9297 26.0938 24.8047 25.8906C24.6953 25.7812 24.4922 25.6953 24.3672 25.8203C24.2656 25.9141 24.2422 26.0547 24.2031 26.1797C24.1484 26.0859 24.125 25.9453 24 25.9141C23.8047 25.9375 23.875 26.1875 23.9609 26.2891C24.0469 26.4062 24.125 26.5625 24.0391 26.7031C23.9766 26.875 23.7266 26.9844 23.5703 26.8438C23.4375 26.7656 23.5312 26.5078 23.3984 26.4922C23.3281 26.5469 23.3203 26.8125 23.2188 26.6641C23.1406 26.5391 23.1797 26.3672 23.0859 26.2578C22.9766 26.2734 22.8828 26.4609 22.9219 26.5703C23.057 26.7787 23.1474 27.0128 23.1875 27.2578C23.2266 27.3594 23.1875 27.5469 23.2734 27.5859C23.3359 27.4297 23.2734 27.2578 23.3281 27.1016C23.4688 27.0859 23.6406 27.1484 23.7891 27.1172C24.0078 27.0859 24.1797 26.9062 24.25 26.7109C24.2734 26.5547 24.25 26.4141 24.2422 26.2656C24.4141 26.2891 24.5937 26.2891 24.7578 26.3438C24.8359 26.4688 24.7344 26.6484 24.7109 26.7812C24.625 27.0625 24.3984 27.2656 24.1875 27.4531C24.1016 27.5078 24.0859 27.6484 24.2188 27.5781C24.5078 27.4531 24.7188 27.1875 24.8438 26.9062C24.9375 26.6953 24.8594 26.4531 24.9219 26.2344C25.0078 26.0625 25.2187 26.1016 25.375 26.1016C25.5312 26.0938 25.6719 25.9062 25.6094 25.75C25.5625 25.5703 25.7578 25.4844 25.8828 25.4219C26.0547 25.3359 26.1953 25.1562 26.1797 24.9531C26.1719 24.8516 26.1797 24.6562 26.0391 24.6484ZM25.4219 25.6875C25.6094 25.7422 25.3906 26.0938 25.2891 25.8672C25.2656 25.7891 25.3359 25.6875 25.4219 25.6875ZM24.5625 25.9453C24.8047 25.9297 24.7187 26.2812 24.5156 26.125C24.4062 26.0703 24.4375 25.9375 24.5625 25.9453ZM15.8359 27.3047C15.8437 27.2656 15.8281 27.2422 15.7969 27.2422C15.7266 27.2422 15.6875 27.3047 15.7187 27.3516C15.75 27.4062 15.8281 27.375 15.8359 27.3047ZM18.6641 26.9922C18.6641 26.9375 18.6406 26.9141 18.6016 26.9297C18.5078 26.9453 18.4922 27.0625 18.5859 27.0625C18.6406 27.0625 18.6641 27.0391 18.6641 26.9844V26.9922ZM15.1719 25.2969C15.0547 25.2734 14.9844 25.3672 14.9453 25.4531C14.8672 25.6016 14.7578 25.7422 14.6094 25.8203C14.5 25.8516 14.375 25.8047 14.2891 25.75C14.1719 25.6953 14.2031 25.5625 14.1484 25.4688C14.0703 25.4062 13.9297 25.4922 13.9297 25.5938C13.9219 25.7266 14.0469 25.8047 14.1484 25.8516C14.2344 25.9062 14.3594 25.9375 14.3984 26.0469C14.3984 26.1406 14.4297 26.2422 14.5469 26.2031C14.6719 26.2031 14.7031 26.3594 14.6484 26.4531C14.5912 26.5552 14.5692 26.6733 14.5859 26.7891C14.6484 26.8438 14.7109 26.7109 14.7578 26.6641L14.8437 26.5469C15.0625 26.5625 15.2891 26.5859 15.5078 26.5781C15.6641 26.5781 15.8047 26.4766 15.8984 26.3672C16.0469 26.2109 16.1641 26.0391 16.3281 25.9141C16.4453 25.8828 16.3828 25.6641 16.2578 25.7266C16.1484 25.7734 16.1172 25.8906 16.0391 25.9688C15.9141 26.125 15.7812 26.2812 15.6172 26.4062C15.5 26.4531 15.3672 26.4375 15.2422 26.4062C15.1953 26.3672 15.3437 26.3281 15.3672 26.2812C15.4375 26.2031 15.5234 26.1406 15.5547 26.0469C15.5156 25.9688 15.3984 25.9609 15.3203 25.9609C15.1094 25.9844 14.9531 26.1562 14.75 26.1719C14.5938 26.1719 14.6719 26.0078 14.75 25.9531C14.8828 25.7891 15.0312 25.6328 15.1797 25.4688C15.2188 25.4219 15.3672 25.375 15.2734 25.3125C15.2422 25.2969 15.2031 25.2969 15.1719 25.2969ZM15.2734 26.125C15.375 26.1797 15.2031 26.2812 15.1328 26.2656C15.0391 26.2891 15.0391 26.1953 15.1172 26.1797C15.1641 26.1562 15.2187 26.125 15.2734 26.125ZM14.9531 26.3438C15.0078 26.3438 15.1328 26.3984 15.0156 26.4297C14.9375 26.4922 14.8437 26.3672 14.9531 26.3438Z" fill="#F7E017"/>
<path d="M17.4531 26.4844C17.4531 26.4063 17.3125 26.4141 17.2969 26.5C17.2891 26.5469 17.2969 26.5625 17.375 26.5547C17.4141 26.5469 17.4531 26.5156 17.4531 26.4844ZM23.6797 25.9375C23.6953 25.8594 23.5859 25.8125 23.5312 25.8594C23.4766 25.9219 23.5312 26.0234 23.6094 26.0156C23.6406 26 23.6719 25.9688 23.6797 25.9375ZM13.9922 25.1719C14.0859 25.0938 14.0859 25.0859 14.0469 24.8984C13.9844 24.6406 13.9922 24.6094 14.0859 24.5859C14.2109 24.5547 14.5312 24.7266 14.6016 24.8594C14.6562 24.9688 14.6562 24.9688 14.5625 25.0547C14.4609 25.1484 14.4609 25.2578 14.5625 25.2578C14.6406 25.2578 14.875 25.0391 14.875 24.9609C14.875 24.8594 14.6172 24.6016 14.4219 24.5078C14.2992 24.4526 14.1657 24.4259 14.0312 24.4297C13.7734 24.4297 13.7422 24.4844 13.8047 24.7813C13.8828 25.125 13.7812 25.1719 13.4922 24.9141C13.393 24.8241 13.316 24.7124 13.2672 24.5877C13.2184 24.463 13.1991 24.3287 13.2109 24.1953C13.2109 23.8516 13.3438 23.6797 13.6328 23.6484C13.8359 23.6172 13.8281 23.5703 13.6328 23.5391C13.3281 23.4922 13.0859 23.6953 12.9844 24.0391C12.8828 24.4297 13.125 24.9062 13.5469 25.1484C13.7734 25.2812 13.8594 25.2813 13.9922 25.1719ZM25.5938 24.7422C25.6172 24.7188 25.6328 24.6641 25.6328 24.625C25.6328 24.5859 25.6797 24.4922 25.7266 24.4297C25.7661 24.383 25.7978 24.3303 25.8203 24.2734C25.8203 24.2031 25.7031 24.2109 25.6172 24.2734C25.5234 24.3516 25.4609 24.3516 25.4609 24.2812C25.4609 24.2656 25.5 24.2266 25.5547 24.2031C25.6875 24.1406 25.6953 24.0781 25.5859 24.0234C25.4375 23.9609 25.2969 24.0781 25.2812 24.2734C25.2734 24.4063 25.2812 24.4297 25.3828 24.4844C25.4766 24.5391 25.4922 24.5703 25.4766 24.6406C25.4531 24.7812 25.5078 24.8281 25.5938 24.7422ZM26.6875 24.6172C26.7656 24.5469 26.8281 24.4609 26.8281 24.4375C26.8281 24.4141 26.8984 24.3438 26.9844 24.2812C27.2187 24.1094 27.2734 23.9375 27.1641 23.6641C27.125 23.5625 26.9922 23.4141 26.7109 23.1562C26.5747 23.022 26.4256 22.9016 26.2656 22.7969C26.1875 22.7969 26.1953 23.0859 26.2734 23.1094C26.4219 23.1562 26.5078 23.2187 26.7266 23.4219C26.9922 23.6562 27.1094 23.875 27.0391 23.9922C26.9844 24.1094 26.8984 24.0703 26.6641 23.8359C26.5469 23.7031 26.4297 23.6016 26.4062 23.6016C26.375 23.6016 26.3594 23.6406 26.3594 23.7109C26.3594 23.7891 26.3984 23.8672 26.5156 24C26.7109 24.2188 26.7344 24.3438 26.5937 24.4609C26.5312 24.5 26.4844 24.5391 26.4687 24.5391C26.2794 24.216 26.027 23.9344 25.7266 23.7109C25.6875 23.7109 25.6719 23.7422 25.6719 23.8281C25.6719 23.9297 25.6953 23.9688 25.7734 24.0078C25.8672 24.0547 26.1172 24.3047 26.3594 24.6016C26.4297 24.6797 26.5 24.7578 26.5156 24.7578C26.5234 24.7578 26.6016 24.6953 26.6797 24.6172H26.6875ZM27.1719 23.2266C27.1406 23.125 26.4688 22.4453 26.4062 22.4453C26.3672 22.4453 26.3594 22.4844 26.3672 22.5938C26.3672 22.7266 26.3906 22.75 26.4766 22.7656C26.5391 22.7891 26.7109 22.9219 26.8672 23.0781C27.0234 23.2344 27.1641 23.3438 27.1797 23.3359L27.1719 23.2266ZM23.1875 30.9375C23.1939 30.9517 23.1965 30.9672 23.1948 30.9826C23.1932 30.998 23.1875 31.0127 23.1783 31.0256C23.169 31.0384 23.1564 31.0489 23.1417 31.0562C23.1269 31.0635 23.1105 31.0673 23.0938 31.0673C23.077 31.0673 23.0606 31.0635 23.0458 31.0562C23.0311 31.0489 23.0185 31.0384 23.0092 31.0256C23 31.0127 22.9943 30.998 22.9927 30.9826C22.991 30.9672 22.9936 30.9517 23 30.9375C22.9957 30.9235 22.9949 30.9089 22.9978 30.8946C23.0007 30.8803 23.0071 30.8669 23.0166 30.8553C23.026 30.8437 23.0383 30.8343 23.0524 30.8278C23.0664 30.8214 23.0819 30.818 23.0977 30.818C23.1134 30.818 23.1289 30.8214 23.143 30.8278C23.157 30.8343 23.1693 30.8437 23.1787 30.8553C23.1882 30.8669 23.1946 30.8803 23.1975 30.8946C23.2004 30.9089 23.1996 30.9235 23.1953 30.9375H23.1875ZM23.5469 30.8203C23.5469 30.8452 23.5362 30.869 23.5171 30.8866C23.4981 30.9042 23.4722 30.9141 23.4453 30.9141C23.4184 30.9141 23.3925 30.9042 23.3735 30.8866C23.3545 30.869 23.3437 30.8452 23.3437 30.8203C23.3437 30.7955 23.3545 30.7716 23.3735 30.754C23.3925 30.7364 23.4184 30.7266 23.4453 30.7266C23.4722 30.7266 23.4981 30.7364 23.5171 30.754C23.5362 30.7716 23.5469 30.7955 23.5469 30.8203Z" fill="#F7E017"/>
</g>
<defs>
<clipPath id="clip0_17522_60555">
<path d="M0 4C0 1.79086 1.79086 0 4 0H36C38.2091 0 40 1.79086 40 4V36C40 38.2091 38.2091 40 36 40H4C1.79086 40 0 38.2091 0 36V4Z" fill="white"/>
</clipPath>
</defs>
</svg>
