<svg width="40" height="40" viewBox="0 0 40 40" fill="none" xmlns="http://www.w3.org/2000/svg">
<g clip-path="url(#clip0_17544_58114)">
<path fill-rule="evenodd" clip-rule="evenodd" d="M40 39.9688H0.0390625V0H40V39.9688Z" fill="#DE0000"/>
<path fill-rule="evenodd" clip-rule="evenodd" d="M39.9844 40H0V20.0156H39.9766L39.9844 40Z" fill="#35A100"/>
<path fill-rule="evenodd" clip-rule="evenodd" d="M30.3906 17.4844L23.9141 21.8984L26.3906 29.0547L19.9297 24.625L13.4609 29.0547L15.9375 21.8984L9.46875 17.4766L17.4609 17.4922L19.9297 10.3281L22.3906 17.4844" fill="#FFF300"/>
</g>
<defs>
<clipPath id="clip0_17544_58114">
<path d="M0 20C0 8.95431 8.95431 0 20 0C31.0457 0 40 8.95431 40 20C40 31.0457 31.0457 40 20 40C8.95431 40 0 31.0457 0 20Z" fill="white"/>
</clipPath>
</defs>
</svg>
