<svg width="40" height="40" viewBox="0 0 40 40" fill="none" xmlns="http://www.w3.org/2000/svg">
<g clip-path="url(#clip0_17544_58127)">
<path d="M-0.0091753 -0.00305176H39.9906V39.9968H-0.0091753V-0.00305176Z" fill="black"/>
<path fill-rule="evenodd" clip-rule="evenodd" d="M-13.9062 -0.00305176L19.6022 19.9969L-13.9062 39.9968V-0.00305176ZM53.0877 -0.00305176L19.6022 19.9969L53.0648 39.9968L53.0877 -0.00305176Z" fill="#18B637"/>
<path fill-rule="evenodd" clip-rule="evenodd" d="M-13.9062 -0.00305176L19.6022 19.9969L53.0648 -0.00305176H-13.9062ZM-13.9062 39.9968L19.6022 19.9969L53.0648 39.9968H-13.9062Z" fill="#CF0921"/>
<path fill-rule="evenodd" clip-rule="evenodd" d="M53.0877 -0.00305176H46.8477L-13.9062 36.2711V39.9968H-7.66628L53.0877 3.72264V-0.00305176Z" fill="white"/>
<path fill-rule="evenodd" clip-rule="evenodd" d="M31.1678 19.9968C31.1678 23.0643 29.9493 26.006 27.7803 28.175C25.6113 30.344 22.6696 31.5625 19.6022 31.5625C16.5348 31.5625 13.593 30.344 11.424 28.175C9.25502 26.006 8.0365 23.0643 8.0365 19.9968C8.0365 16.9294 9.25502 13.9877 11.424 11.8187C13.593 9.64971 16.5348 8.43119 19.6022 8.43119C22.6696 8.43119 25.6113 9.64971 27.7803 11.8187C29.9493 13.9877 31.1678 16.9294 31.1678 19.9968Z" fill="white"/>
<path fill-rule="evenodd" clip-rule="evenodd" d="M-13.9062 -0.00305176V3.72264L46.8477 39.9968H53.0877V36.2711L-7.66628 -0.00305176H-13.9062Z" fill="white"/>
<path fill-rule="evenodd" clip-rule="evenodd" d="M21.865 15.6312L20.3564 15.654L19.5793 16.934L18.8022 15.654L17.3165 15.6312L18.0479 14.3055L17.3165 13.0026L18.825 12.9569L19.6022 11.6769L20.3793 12.9797H21.865L21.1564 14.3055L21.865 15.6312ZM16.8365 24.3625H15.3279L14.5508 25.6654L13.7736 24.3854L12.2651 24.3397L12.9965 23.0368L12.2879 21.7111L13.7736 21.6883L14.5508 20.4083L15.3279 21.6883L16.8365 21.734L16.105 23.0368L16.8365 24.3625ZM27.0307 24.3625H25.5221L24.745 25.6654L23.9678 24.3854L22.4821 24.3397L23.1907 23.0368L22.4821 21.7111L23.9907 21.6883L24.7678 20.4083L25.545 21.6883L27.0307 21.734L26.2993 23.0368L27.0307 24.3625Z" fill="#CF0921"/>
<path fill-rule="evenodd" clip-rule="evenodd" d="M19.6033 11.3814L20.4658 12.8274H22.1192L21.3292 14.3055L22.1172 15.7797L20.443 15.8051L19.5793 17.2276L18.7156 15.8051L17.0605 15.7796L17.8735 14.3061L17.0605 12.8579L18.7377 12.8071L19.6033 11.3814ZM19.601 11.9724L18.9123 13.1067L17.5724 13.1473L18.2223 14.3048L17.5724 15.4827L18.8887 15.503L19.5793 16.6404L20.2699 15.5029L21.6128 15.4826L20.9837 14.3055L21.6108 13.1321H20.2928L19.601 11.9724ZM14.5508 20.1147L15.4152 21.5385L17.0924 21.5893L16.2794 23.0375L17.0946 24.5149H15.4144L14.5519 25.9609L13.6863 24.5352L12.0091 24.4844L12.8227 23.035L12.0357 21.5626L13.6871 21.5372L14.5508 20.1147ZM24.7678 20.1147L25.6323 21.5385L27.2866 21.5894L26.4737 23.0375L27.2888 24.5149H25.6087L24.7461 25.9609L23.8805 24.5352L22.23 24.4844L23.0176 23.0362L22.2299 21.5626L23.9042 21.5372L24.7678 20.1147ZM14.5508 20.7019L13.8602 21.8393L12.5401 21.8597L13.1702 23.0386L12.521 24.195L13.8609 24.2356L14.5496 25.3699L15.2414 24.2102H16.5784L15.9306 23.0362L16.5805 21.8787L15.2406 21.8381L14.5508 20.7019ZM24.7678 20.7019L24.0772 21.8394L22.7343 21.8597L23.3638 23.0375L22.7343 24.195L24.0552 24.2356L24.7438 25.3699L25.4356 24.2102H26.7726L26.1249 23.0362L26.7748 21.8786L25.4576 21.838L24.7678 20.7019Z" fill="#18B637"/>
</g>
<defs>
<clipPath id="clip0_17544_58127">
<path d="M0 20C0 8.95431 8.95431 0 20 0C31.0457 0 40 8.95431 40 20C40 31.0457 31.0457 40 20 40C8.95431 40 0 31.0457 0 20Z" fill="white"/>
</clipPath>
</defs>
</svg>
