<svg width="40" height="40" viewBox="0 0 40 40" fill="none" xmlns="http://www.w3.org/2000/svg">
<g clip-path="url(#clip0_17544_59802)">
<path d="M0 0H40V40H0V0Z" fill="black"/>
<path fill-rule="evenodd" clip-rule="evenodd" d="M-9.64063 18.2031H56.4844V34.2969H-9.64844L-9.64063 18.2031Z" fill="white"/>
<path fill-rule="evenodd" clip-rule="evenodd" d="M-9.59375 0H56.5V20.0469H-9.59375V0ZM-9.57031 30.1484H57V40H-9.57031V30.1484Z" fill="#081873"/>
<path fill-rule="evenodd" clip-rule="evenodd" d="M-9.57031 23.6406H56.5234V26.7344H-9.57031V23.6406Z" fill="#DE3929"/>
<path fill-rule="evenodd" clip-rule="evenodd" d="M10.2344 31.1875L10.75 32.7812H12.4219L11.0625 33.7734L11.5781 35.375L10.2344 34.375L8.875 35.3672L9.39844 33.7656L8.03906 32.7734H9.71875M24.7656 19.5625L25.2891 21.1641H26.9531L25.5938 22.1484L26.1094 23.75L24.75 22.7578L23.3906 23.75L23.9062 22.1484L22.5469 21.1641H24.2344M6.89062 26.1953L7.40625 27.7969H9.08594L7.73438 28.7969L8.25781 30.3906L6.89844 29.4062L5.53906 30.3906L6.05469 28.7969L4.69531 27.8047H6.375M24.7656 25.7422L25.2891 27.3359H26.9531L25.5938 28.3281L26.1094 29.9219L24.75 28.9375L23.3906 29.9297L23.9062 28.3281L22.5469 27.3359H24.2344M21.0703 14.7031L21.5938 16.2969H23.2812L21.9219 17.2891L22.4375 18.8906L21.0781 17.8984L19.7188 18.8906L20.2422 17.2891L18.875 16.2969H20.5625M15.5234 12.7656L16.0469 14.3672H17.7266L16.3672 15.3516L16.8828 16.9531L15.5234 15.9688L14.1641 16.9531L14.6875 15.3516L13.3281 14.3672H15M9.96094 14.5938L10.4844 16.1953H12.1641L10.8047 17.1797L11.3281 18.7812L9.96094 17.7891L8.60156 18.7812L9.125 17.1797L7.76562 16.1953H9.45312M6.73438 19.5703L7.25 21.1719H8.9375L7.57031 22.1562L8.09375 23.7578L6.73438 22.7656L5.375 23.7578L5.89062 22.1562L4.53125 21.1719H6.21094M15.5234 32.8438L16.0469 34.4453H17.7266L16.3672 35.4297L16.8906 37.0312L15.5234 36.0391L14.1641 37.0312L14.6875 35.4297L13.3281 34.4453H15M21.4219 31.1875L21.9375 32.7812H23.6172L22.2656 33.7734L22.7891 35.375L21.4297 34.3828L20.0625 35.375L20.5859 33.7734L19.2266 32.7812H20.9062" fill="#FFCE08"/>
</g>
<defs>
<clipPath id="clip0_17544_59802">
<path d="M0 20C0 8.95431 8.95431 0 20 0C31.0457 0 40 8.95431 40 20C40 31.0457 31.0457 40 20 40C8.95431 40 0 31.0457 0 20Z" fill="white"/>
</clipPath>
</defs>
</svg>
