<svg width="40" height="40" viewBox="0 0 40 40" fill="none" xmlns="http://www.w3.org/2000/svg">
<g clip-path="url(#clip0_17544_59711)">
<path d="M0 0H40V40H0V0Z" fill="#003399"/>
<path fill-rule="evenodd" clip-rule="evenodd" d="M20 19.4258C19.2298 19.4258 18.6055 20.0501 18.6055 20.8203C18.6055 21.5905 19.2298 22.2148 20 22.2148C20.7702 22.2148 21.3945 21.5905 21.3945 20.8203C21.3945 20.0501 20.7702 19.4258 20 19.4258ZM16.3164 20.8203C16.3164 18.7859 17.9656 17.1367 20 17.1367C22.0344 17.1367 23.6836 18.7859 23.6836 20.8203C23.6836 22.8547 22.0344 24.5039 20 24.5039C17.9656 24.5039 16.3164 22.8547 16.3164 20.8203Z" fill="#FFCC00"/>
<path fill-rule="evenodd" clip-rule="evenodd" d="M20 14.6055C16.5676 14.6055 13.7852 17.3879 13.7852 20.8203C13.7852 24.2527 16.5676 27.0352 20 27.0352C23.4324 27.0352 26.2148 24.2527 26.2148 20.8203C26.2148 17.3879 23.4324 14.6055 20 14.6055ZM11.4961 20.8203C11.4961 16.1237 15.3034 12.3164 20 12.3164C24.6966 12.3164 28.5039 16.1237 28.5039 20.8203C28.5039 25.5169 24.6966 29.3242 20 29.3242C15.3034 29.3242 11.4961 25.5169 11.4961 20.8203Z" fill="#FFCC00"/>
<path d="M27.0547 13.7578L34.1094 20.8125L27.0547 27.8672L20 20.8125L27.0547 13.7578Z" fill="#003399"/>
<path d="M7.97656 19.6719H12.9141V21.9609H7.97656V19.6719ZM29.5703 19.6719H36.9297V21.9609H29.5703V19.6719ZM23.5859 15.6172L26.8125 12.3906L28.4297 14.0078L25.2031 17.2344L23.5859 15.6172ZM18.8516 4.04688H21.1406V12.9688H18.8516V4.04688Z" fill="#FFCC00"/>
<path d="M12.0938 14.4531C12.728 14.4531 13.2422 13.939 13.2422 13.3047C13.2422 12.6704 12.728 12.1562 12.0938 12.1562C11.4595 12.1562 10.9453 12.6704 10.9453 13.3047C10.9453 13.939 11.4595 14.4531 12.0938 14.4531Z" fill="#FFCC00"/>
<path d="M5.35937 21.9688C5.99364 21.9688 6.50781 21.4546 6.50781 20.8203C6.50781 20.186 5.99364 19.6719 5.35937 19.6719C4.72511 19.6719 4.21094 20.186 4.21094 20.8203C4.21094 21.4546 4.72511 21.9688 5.35937 21.9688Z" fill="#FFCC00"/>
<path d="M20 32.9297C20.6343 32.9297 21.1484 32.4155 21.1484 31.7812C21.1484 31.147 20.6343 30.6328 20 30.6328C19.3657 30.6328 18.8516 31.147 18.8516 31.7812C18.8516 32.4155 19.3657 32.9297 20 32.9297Z" fill="#FFCC00"/>
<path d="M20 36.6094C20.6343 36.6094 21.1484 36.0952 21.1484 35.4609C21.1484 34.8267 20.6343 34.3125 20 34.3125C19.3657 34.3125 18.8516 34.8267 18.8516 35.4609C18.8516 36.0952 19.3657 36.6094 20 36.6094Z" fill="#FFCC00"/>
<path d="M27.3594 21.9688C27.9936 21.9688 28.5078 21.4546 28.5078 20.8203C28.5078 20.186 27.9936 19.6719 27.3594 19.6719C26.7251 19.6719 26.2109 20.186 26.2109 20.8203C26.2109 21.4546 26.7251 21.9688 27.3594 21.9688Z" fill="#FFCC00"/>
<path d="M10.6953 28.4609L12.3125 26.8438L13.9297 28.4609L12.3125 30.0781L10.6953 28.4609ZM27.7656 30.2031L29.375 28.5938L30.9922 30.2109L29.375 31.8359L27.7656 30.2031Z" fill="#FFCC00"/>
</g>
<defs>
<clipPath id="clip0_17544_59711">
<path d="M0 20C0 8.95431 8.95431 0 20 0C31.0457 0 40 8.95431 40 20C40 31.0457 31.0457 40 20 40C8.95431 40 0 31.0457 0 20Z" fill="white"/>
</clipPath>
</defs>
</svg>
