<svg width="40" height="40" viewBox="0 0 40 40" fill="none" xmlns="http://www.w3.org/2000/svg">
<g clip-path="url(#clip0_17522_60574)">
<path d="M0 0H40V40H0V0Z" fill="#EE1C25"/>
<path d="M16 8.2L5.8 14.8L10 4L13.6 14.8L4 8.2H16Z" fill="#FFFF00"/>
<path d="M18.4825 2.58199L22.117 4.36207L18.3127 5.01573L20.7788 2.13494L20.5413 6.00834L18.4825 2.58199Z" fill="#FFFF00"/>
<path d="M23.1148 6.11002L25.772 9.16612L22.0106 8.28733L25.4056 6.59206L23.6784 10.0701L23.1148 6.11002Z" fill="#FFFF00"/>
<path d="M23.9511 11.9165L25.1293 15.7932L22.053 13.4539L25.8464 13.2926L22.8479 15.7636L23.9511 11.9165Z" fill="#FFFF00"/>
<path d="M20.782 16.065L20.373 20.092L18.44 16.75L21.998 18.064L18.282 19.185L20.782 16.065Z" fill="#FFFF00"/>
</g>
<defs>
<clipPath id="clip0_17522_60574">
<path d="M0 4C0 1.79086 1.79086 0 4 0H36C38.2091 0 40 1.79086 40 4V36C40 38.2091 38.2091 40 36 40H4C1.79086 40 0 38.2091 0 36V4Z" fill="white"/>
</clipPath>
</defs>
</svg>
