<svg width="40" height="40" viewBox="0 0 40 40" fill="none" xmlns="http://www.w3.org/2000/svg">
<g clip-path="url(#clip0_17544_59820)">
<path d="M0 0H40V40H0V0Z" fill="#0021AD"/>
<path d="M0 0H40V40L0 0Z" fill="#1C8A42"/>
<path d="M20 24.8203C22.6622 24.8203 24.8203 22.6622 24.8203 20C24.8203 17.3378 22.6622 15.1797 20 15.1797C17.3378 15.1797 15.1797 17.3378 15.1797 20C15.1797 22.6622 17.3378 24.8203 20 24.8203Z" fill="#FFC639"/>
<path d="M17.0547 17.8359C17.3906 18.2891 17.8828 19.0469 18.2891 18.8516C18.6016 18.8516 18.7578 18.875 18.8047 19.0859C19.3281 19.1383 19.8563 19.0559 20.339 18.8467C20.8216 18.6375 21.2428 18.3084 21.5625 17.8906C21.5625 17.8906 21.625 17.8906 21.6016 17.5156C21.6016 17.3438 21.8359 17.3828 21.8359 17.4375C21.8672 17.5156 21.8594 17.5781 21.9062 17.5781C22 17.5469 22.1328 17.3359 22.2422 17.2031C22.2656 17.1406 22.25 17.0781 22.2578 17C22.3203 16.8594 22.4609 16.8906 22.4922 16.9688C22.5156 17.0156 22.5156 17.0469 22.5469 17.1016C22.6875 17.1953 22.9531 17.1016 22.9766 17.1016C23 16.9844 23.0781 17 23.0781 17C23.1719 16.9766 23.1328 16.9844 23.2031 17.0156C23.1406 17.6562 23.3281 17.6875 23.3125 18.0156C23.3125 18.3828 23.2031 18.4844 23.2031 18.625C23.2344 18.7969 23.7734 18.8047 23.5938 18.9453C23.4219 19.0391 23.5938 19.2031 23.3359 19.2656C22.6016 19.6406 22.4609 19.9609 22.4609 19.9609C22.4609 19.9609 22.2812 20.3047 22.2578 20.3047C22.1328 20.5391 21.9844 20.4141 21.8906 20.5234C21.8516 20.6641 21.8047 20.9844 21.8906 21.1484C21.9297 21.3672 21.8906 21.4922 21.8281 21.7188C21.7812 22.1875 21.5938 22.2578 21.5703 22.4219C21.4922 22.5938 21.5938 23.4219 21.5078 23.4219C20.9609 23.4297 20.5469 23.3203 20.3359 23.2734C20.5391 22.3672 20.4609 21.5703 20.4609 21.4922C20.4062 20.8437 19.4922 21 19.3516 20.9141C19.2344 20.8906 19.1641 20.7969 19.1172 20.7578C18.9922 20.7422 18.9453 20.7109 18.8125 20.6953C18.75 20.7266 18.7891 20.7656 18.6406 20.8047C18.2812 20.8516 18.1172 20.4922 18.1172 20.4922C18.1328 20.3672 17.2969 20.5156 16.8359 20.4141C16.6484 20.5156 16.5703 20.8203 16.4141 20.8594C16.4141 20.9531 16.1641 20.7812 16.1094 20.6875C16.1094 20.4141 16.3516 20.2969 16.3516 20.2969C16.5469 20.1484 16.6641 20.125 16.7656 20.0312C16.8125 19.7969 16.7891 19.6172 16.8906 19.4375C16.9688 19.3047 17.1016 19.3594 17.1875 19.3047C17.2812 19.2422 17.3203 18.8359 17.2344 18.7344L16.8438 18.3828C16.7188 18.0312 16.9844 17.8125 17.0547 17.8359Z" fill="#1C8A42"/>
<path d="M35.3359 4.97656C35.1172 4.11719 33.1562 2.25781 31.6953 1.07031C31.3438 0.835938 31.1172 0.976562 31.1562 1.3125C31.3438 1.625 31.4766 1.95312 31.6641 2.25781C31.7109 2.46094 31.8125 2.60156 31.8594 2.80469C31.8594 2.80469 31.875 3.15625 31.9062 3.19531C32.1595 3.44941 32.3379 3.76837 32.4219 4.11719C32.6529 4.60897 32.9796 5.04983 33.3828 5.41406C33.8984 5.74219 33.5234 6.75 33.5391 7.28906C33.5391 7.625 33.2891 7.58594 33.0781 7.54687C31.3984 6 29.7344 6 28.2656 5.55469C27.6875 5.49219 27.6797 5.76562 27.8672 5.91406C28.8906 7.00781 29.8594 7.75781 31.125 8.38281L31.7656 8.78125L32.5 9.39062C33.0625 9.75781 33.1094 10.0938 33.1094 10.125C33.125 10.8125 32.7578 11.3437 32.6562 11.5547C32.4609 12.2812 32.0703 12.4141 32.0703 12.4141C28.9375 14.5234 27.2891 15.0703 22.1953 14.4219C22.1172 14.3828 21.6328 14.4609 22.1953 14.6641C23.4922 15.0937 26.6719 15.7891 29.75 14.3281C30.4922 13.8125 30.9922 13.9844 31.5234 13.6719C32.4062 13.125 33.6562 12.4531 33.8906 12.3828C34.5703 12.0156 36.4922 11.6016 36.9375 11.2344C37.4453 11.1953 37.9688 11.125 38.0078 10.6875C38.1719 10.5859 38.4141 10.6641 38.5938 10.3047C39 10.2344 38.9297 10.0937 38.9297 10.0937C38.8281 9.80469 38.4609 9.6875 38.1875 9.48438C37.7891 9.35156 37.5156 9.3125 37.2266 9.45312L36.9531 9.57812C36.9531 9.57812 36.5234 9.51562 36.5234 9.48438C35.5781 9.42969 35.6641 6.28125 35.3359 4.97656Z" fill="#FFC639"/>
<path d="M42.3828 17.0156C42.3698 17.0533 42.3334 17.0821 42.2817 17.0955C42.2299 17.109 42.1671 17.1061 42.107 17.0875C42.047 17.0688 41.9945 17.036 41.9613 16.9961C41.928 16.9563 41.9166 16.9127 41.9297 16.875C41.9427 16.8373 41.9791 16.8086 42.0308 16.7951C42.0826 16.7816 42.1454 16.7845 42.2055 16.8032C42.2655 16.8218 42.318 16.8547 42.3512 16.8945C42.3845 16.9344 42.3959 16.9779 42.3828 17.0156Z" fill="#1C8A42"/>
<path d="M9.11551 24.4367L8.43284 23.7967L7.74483 24.4261L7.8195 23.498L6.89683 23.3487L7.67017 22.826L7.2115 22.0154L8.10217 22.298L8.44884 21.434L8.78484 22.3034L9.67551 22.0367L9.20617 22.8367L9.97418 23.37L9.05151 23.5034L9.11551 24.4367Z" fill="white"/>
<path d="M11.5262 32.1434L10.7902 31.6581L10.0755 32.1701L10.3315 31.3434L9.60618 30.8367L10.4915 30.8154L10.7582 29.9887L11.0568 30.8047L11.9475 30.7994L11.2382 31.3168L11.5209 32.1381L11.5262 32.1434Z" fill="white"/>
<path d="M9.24884 38.7888L8.56617 38.1488L7.87817 38.7781L7.95283 37.8501L7.03016 37.7008L7.8035 37.1781L7.34483 36.3674L8.2355 36.6501L8.58217 35.7861L8.91817 36.6554L9.80884 36.3888L9.33951 37.1888L10.1075 37.7221L9.18484 37.8554L9.24884 38.7888Z" fill="white"/>
<path d="M3.13681 31.0074L2.45414 30.3674L1.76614 30.9967L1.8408 30.0687L0.918134 29.9194L1.69147 29.3967L1.2328 28.5861L2.12347 28.8687L2.47014 28.0047L2.80614 28.8741L3.69681 28.6074L3.22748 29.4074L3.99548 29.9407L3.07281 30.0741L3.13681 31.0074Z" fill="white"/>
<path d="M14.8969 28.9701L14.2142 28.3301L13.5262 28.9594L13.6009 28.0314L12.6782 27.8821L13.4515 27.3594L12.9929 26.5487L13.8835 26.8314L14.2302 25.9674L14.5662 26.8367L15.4569 26.5701L14.9875 27.3701L15.7555 27.9034L14.8329 28.0367L14.8969 28.9701Z" fill="white"/>
</g>
<defs>
<clipPath id="clip0_17544_59820">
<path d="M0 20C0 8.95431 8.95431 0 20 0C31.0457 0 40 8.95431 40 20C40 31.0457 31.0457 40 20 40C8.95431 40 0 31.0457 0 20Z" fill="white"/>
</clipPath>
</defs>
</svg>
