<svg width="40" height="40" viewBox="0 0 40 40" fill="none" xmlns="http://www.w3.org/2000/svg">
<g clip-path="url(#clip0_17544_64146)">
<path d="M0 0H40.0038V40.0038H0V0Z" fill="black"/>
<path fill-rule="evenodd" clip-rule="evenodd" d="M0 0H60.0586V9.99375H0V0Z" fill="#FFFF00"/>
<path fill-rule="evenodd" clip-rule="evenodd" d="M0 9.99375H60.0586V19.9971H0V9.99375Z" fill="white"/>
<path fill-rule="evenodd" clip-rule="evenodd" d="M0 19.9971H60.0586V29.9909H0V19.9971Z" fill="#BE0027"/>
<path fill-rule="evenodd" clip-rule="evenodd" d="M0 30.0005H60.0586V39.9942H0V30.0005Z" fill="#3B5AA3"/>
<path fill-rule="evenodd" clip-rule="evenodd" d="M0 0V39.9942L29.8275 20.0548L0 0Z" fill="#239E46"/>
<path fill-rule="evenodd" clip-rule="evenodd" d="M12.2808 11.0508C5.63109 10.7145 2.60414 16.0092 2.61375 20.1028C2.59453 24.9459 7.18781 28.9434 11.4255 28.6936C9.86615 27.8657 8.56497 26.6242 7.66485 25.1053C6.76472 23.5865 6.30044 21.849 6.32297 20.0836C6.27111 18.149 6.81474 16.2451 7.88032 14.6296C8.94589 13.014 10.482 11.7648 12.2808 11.0508Z" fill="white"/>
<path fill-rule="evenodd" clip-rule="evenodd" d="M12.1847 15.3942L11.243 14.6639L10.1091 15.0195L10.5127 13.9048L9.83039 12.9342L11.0123 12.9727L11.7234 12.0117L12.0502 13.1648L13.1841 13.5396L12.1943 14.2123L12.1847 15.3942ZM12.1655 19.459L11.2238 18.7287L10.0898 19.0842L10.4934 17.9695L9.80156 16.999L10.9931 17.0374L11.7042 16.0765L12.0309 17.2296L13.1648 17.614L12.1751 18.277L12.1655 19.459ZM12.1847 23.5718L11.243 22.8415L10.1091 23.197L10.5127 22.0727L9.83039 21.1118L11.0123 21.1502L11.7234 20.1893L12.0502 21.3424L13.1841 21.7172L12.1943 22.3802L12.1847 23.5718ZM12.1655 27.7134L11.2238 26.9831L10.0898 27.3387L10.4934 26.224L9.80156 25.2534L10.9931 25.2919L11.7042 24.3309L12.0309 25.4841L13.1648 25.8684L12.1751 26.5315L12.1655 27.7134Z" fill="white"/>
</g>
<defs>
<clipPath id="clip0_17544_64146">
<path d="M0 20C0 8.95431 8.95431 0 20 0C31.0457 0 40 8.95431 40 20C40 31.0457 31.0457 40 20 40C8.95431 40 0 31.0457 0 20Z" fill="white"/>
</clipPath>
</defs>
</svg>
