<svg width="40" height="40" viewBox="0 0 40 40" fill="none" xmlns="http://www.w3.org/2000/svg">
<g clip-path="url(#clip0_17522_60752)">
<path d="M0 0H40V40H0V0Z" fill="#3E5EB9"/>
<path d="M0 7.5H40V32.5H0V7.5Z" fill="#FFD900"/>
<path d="M0 10H40V30H0V10Z" fill="#B10C0C"/>
<path d="M34.6589 16.4805L32.7869 17.143L34.6512 17.7978L36.5232 17.143L34.6589 16.4805Z" fill="white"/>
<path fill-rule="evenodd" clip-rule="evenodd" d="M34.6589 16.4396L36.639 17.1433L34.6512 17.8387L32.6711 17.1432L34.6589 16.4396ZM32.9027 17.1429L34.6512 17.757L36.4073 17.1427L34.6589 16.5214L32.9027 17.1429Z" fill="black"/>
<path d="M33.4186 16.9196H6.38642C6.25453 16.9196 6.14761 17.0179 6.14761 17.1392C6.14761 17.2604 6.25453 17.3587 6.38642 17.3587H33.4186C33.5505 17.3587 33.6574 17.2604 33.6574 17.1392C33.6574 17.0179 33.5505 16.9196 33.4186 16.9196Z" fill="#FFD900"/>
<path fill-rule="evenodd" clip-rule="evenodd" d="M6.38642 16.9581C6.27269 16.9581 6.18613 17.0422 6.18613 17.1392C6.18613 17.2362 6.27269 17.3202 6.38642 17.3202H33.4186C33.5323 17.3202 33.6189 17.2362 33.6189 17.1392C33.6189 17.0422 33.5323 16.9581 33.4186 16.9581H6.38642ZM6.10909 17.1392C6.10909 16.9937 6.23637 16.8811 6.38642 16.8811H33.4186C33.5687 16.8811 33.6959 16.9937 33.6959 17.1392C33.6959 17.2847 33.5687 17.3973 33.4186 17.3973H6.38642C6.23637 17.3973 6.10909 17.2847 6.10909 17.1392Z" fill="black"/>
<path d="M33.0026 17.3587C33.06 17.3569 33.1146 17.3339 33.1559 17.294C33.1972 17.2541 33.2222 17.2003 33.226 17.143C33.2241 17.0844 33.1999 17.0287 33.1585 16.9872C33.117 16.9457 33.0612 16.9215 33.0026 16.9196M32.7869 17.3587C32.8429 17.3551 32.8957 17.3312 32.9354 17.2915C32.9751 17.2518 32.999 17.199 33.0026 17.143C33.0008 17.0857 32.9777 17.031 32.9379 16.9897C32.898 16.9484 32.8442 16.9234 32.7869 16.9196M32.5635 17.3587C32.6209 17.3569 32.6755 17.3339 32.7168 17.294C32.7581 17.2541 32.7831 17.2003 32.7869 17.143C32.785 17.0844 32.7608 17.0287 32.7193 16.9872C32.6779 16.9457 32.6221 16.9215 32.5635 16.9196" fill="#FFD900"/>
<path fill-rule="evenodd" clip-rule="evenodd" d="M32.5648 16.8811C32.6332 16.8834 32.6982 16.9116 32.7466 16.96C32.795 17.0084 32.8232 17.0734 32.8254 17.1418L32.8255 17.1437L32.8253 17.1456C32.8209 17.2124 32.7918 17.2752 32.7436 17.3217C32.6954 17.3682 32.6316 17.3951 32.5647 17.3972L32.5623 17.3202C32.6101 17.3187 32.6557 17.2995 32.6901 17.2663C32.724 17.2335 32.7448 17.1894 32.7483 17.1424C32.7463 17.0942 32.7262 17.0485 32.6921 17.0144C32.6575 16.9799 32.6111 16.9597 32.5622 16.9581L32.5648 16.8811ZM33.0039 16.8811C33.0723 16.8834 33.1373 16.9116 33.1857 16.96C33.2341 17.0084 33.2623 17.0734 33.2645 17.1418L33.2646 17.1437L33.2645 17.1456C33.26 17.2124 33.2309 17.2752 33.1827 17.3217C33.1345 17.3682 33.0707 17.3951 33.0038 17.3972L33.0014 17.3202C33.0492 17.3187 33.0948 17.2995 33.1292 17.2663C33.1631 17.2335 33.1839 17.1894 33.1874 17.1424C33.1854 17.0942 33.1653 17.0485 33.1312 17.0144C33.0966 16.9799 33.0502 16.9597 33.0013 16.9581L33.0039 16.8811ZM32.7895 16.8812C32.8563 16.8856 32.9191 16.9148 32.9656 16.9629C33.0121 17.0111 33.039 17.0749 33.0411 17.1418L33.0412 17.1437L33.041 17.1455C33.0368 17.2109 33.0089 17.2725 32.9626 17.3188C32.9163 17.3651 32.8547 17.3929 32.7894 17.3972L32.7844 17.3203C32.8311 17.3173 32.8751 17.2974 32.9082 17.2643C32.9408 17.2316 32.9606 17.1884 32.964 17.1424C32.9621 17.0952 32.943 17.0504 32.9102 17.0165C32.8769 16.982 32.8321 16.9612 32.7844 16.9581L32.7895 16.8812Z" fill="black"/>
<path d="M32.8639 17.7978L30.992 18.4604L32.8562 19.1152L34.7282 18.4604L32.8639 17.7978Z" fill="white"/>
<path fill-rule="evenodd" clip-rule="evenodd" d="M32.864 17.757L34.8441 18.4606L32.8562 19.156L30.8761 18.4605L32.864 17.757ZM31.1078 18.4602L32.8563 19.0744L34.6124 18.4601L32.8639 17.8387L31.1078 18.4602Z" fill="black"/>
<path d="M31.6237 18.237H4.59147C4.45957 18.237 4.35265 18.3353 4.35265 18.4565C4.35265 18.5778 4.45957 18.6761 4.59147 18.6761H31.6237C31.7555 18.6761 31.8625 18.5778 31.8625 18.4565C31.8625 18.3353 31.7555 18.237 31.6237 18.237Z" fill="#FFD900"/>
<path fill-rule="evenodd" clip-rule="evenodd" d="M4.59147 18.2755C4.47773 18.2755 4.39117 18.3595 4.39117 18.4565C4.39117 18.5535 4.47773 18.6375 4.59147 18.6375H31.6237C31.7374 18.6375 31.8239 18.5535 31.8239 18.4565C31.8239 18.3595 31.7374 18.2755 31.6237 18.2755H4.59147ZM4.31414 18.4565C4.31414 18.311 4.44141 18.1984 4.59147 18.1984H31.6237C31.7737 18.1984 31.901 18.311 31.901 18.4565C31.901 18.602 31.7737 18.7146 31.6237 18.7146H4.59147C4.44141 18.7146 4.31414 18.602 4.31414 18.4565Z" fill="black"/>
<path d="M31.2077 18.6761C31.265 18.6743 31.3197 18.6512 31.361 18.6113C31.4023 18.5715 31.4273 18.5176 31.4311 18.4604C31.4291 18.4017 31.405 18.346 31.3635 18.3045C31.322 18.263 31.2663 18.2389 31.2077 18.237M30.992 18.6761C31.048 18.6724 31.1008 18.6485 31.1404 18.6089C31.1801 18.5692 31.204 18.5164 31.2077 18.4604C31.2059 18.403 31.1828 18.3483 31.1429 18.307C31.103 18.2657 31.0492 18.2408 30.992 18.237M30.7685 18.6761C30.8259 18.6743 30.8806 18.6512 30.9219 18.6113C30.9632 18.5715 30.9882 18.5176 30.992 18.4604C30.99 18.4017 30.9659 18.346 30.9244 18.3045C30.8829 18.263 30.8272 18.2389 30.7685 18.237" fill="#FFD900"/>
<path fill-rule="evenodd" clip-rule="evenodd" d="M30.7698 18.1985C30.8382 18.2007 30.9032 18.2289 30.9516 18.2773C31 18.3257 31.0282 18.3907 31.0305 18.4591L31.0305 18.461L31.0304 18.4629C31.026 18.5297 30.9968 18.5925 30.9486 18.639C30.9005 18.6856 30.8367 18.7125 30.7697 18.7146L30.7673 18.6376C30.8152 18.6361 30.8607 18.6168 30.8951 18.5836C30.9291 18.5508 30.9498 18.5067 30.9534 18.4597C30.9513 18.4115 30.9313 18.3659 30.8972 18.3318C30.8626 18.2972 30.8162 18.2771 30.7673 18.2755L30.7698 18.1985ZM31.2089 18.1985C31.2773 18.2007 31.3423 18.2289 31.3907 18.2773C31.4391 18.3257 31.4673 18.3907 31.4696 18.4591L31.4696 18.461L31.4695 18.4629C31.4651 18.5297 31.4359 18.5925 31.3877 18.639C31.3396 18.6856 31.2758 18.7125 31.2089 18.7146L31.2065 18.6376C31.2543 18.6361 31.2998 18.6168 31.3342 18.5836C31.3682 18.5508 31.3889 18.5067 31.3925 18.4597C31.3904 18.4115 31.3704 18.3659 31.3363 18.3318C31.3017 18.2972 31.2553 18.2771 31.2064 18.2755L31.2089 18.1985ZM30.9945 18.1985C31.0613 18.203 31.1241 18.2321 31.1706 18.2803C31.2171 18.3285 31.2441 18.3922 31.2462 18.4592L31.2462 18.461L31.2461 18.4628C31.2419 18.5282 31.214 18.5898 31.1677 18.6361C31.1214 18.6824 31.0598 18.7103 30.9944 18.7145L30.9895 18.6376C31.0361 18.6346 31.0801 18.6147 31.1132 18.5816C31.1459 18.549 31.1657 18.5057 31.1691 18.4597C31.1672 18.4126 31.148 18.3678 31.1152 18.3338C31.082 18.2994 31.0371 18.2786 30.9894 18.2754L30.9945 18.1985Z" fill="black"/>
<path d="M38.3875 19.6698H1.61785C1.43916 19.6698 1.2943 19.8181 1.2943 20.0011C1.2943 20.184 1.43916 20.3324 1.61785 20.3324H38.3875C38.5662 20.3324 38.711 20.184 38.711 20.0011C38.711 19.8181 38.5662 19.6698 38.3875 19.6698Z" fill="#FFD900"/>
<path fill-rule="evenodd" clip-rule="evenodd" d="M1.61785 19.7122C1.46349 19.7122 1.33667 19.8406 1.33667 20.0011C1.33667 20.1616 1.46349 20.29 1.61785 20.29H38.3875C38.5418 20.29 38.6687 20.1616 38.6687 20.0011C38.6687 19.8406 38.5418 19.7122 38.3875 19.7122H1.61785ZM1.25193 20.0011C1.25193 19.7957 1.41482 19.6275 1.61785 19.6275H38.3875C38.5905 19.6275 38.7534 19.7957 38.7534 20.0011C38.7534 20.2065 38.5905 20.3747 38.3875 20.3747H1.61785C1.41482 20.3747 1.25193 20.2065 1.25193 20.0011Z" fill="black"/>
<path d="M30.7969 20C28.6016 22.2031 25.6641 26.6016 19.7969 26.6016C14.6562 26.6016 10.9922 22.2031 8.78125 20C10.9922 17.7969 14.6562 13.3984 19.7969 13.3984C25.6562 13.3984 28.6016 17.7969 30.7969 20Z" fill="white"/>
<path fill-rule="evenodd" clip-rule="evenodd" d="M8.83655 20C9.06272 20.226 9.30365 20.4741 9.55943 20.7375C10.5525 21.7601 11.7692 23.0131 13.2139 24.0957C15.0451 25.4679 17.2382 26.5625 19.7969 26.5625C24.7461 26.5625 27.6006 23.4239 29.6962 21.1198C30.0659 20.7133 30.412 20.3327 30.7418 20C30.4129 19.6682 30.0677 19.2889 29.6989 18.8837C27.6014 16.5792 24.742 13.4375 19.7969 13.4375C17.2382 13.4375 15.0451 14.5321 13.2139 15.9043C11.7692 16.9869 10.5525 18.2399 9.55943 19.2625C9.30365 19.5259 9.06272 19.774 8.83655 20ZM13.167 15.8418C15.0056 14.464 17.2149 13.3594 19.7969 13.3594C24.7798 13.3594 27.6653 16.5314 29.7615 18.8358C30.1389 19.2506 30.4907 19.6374 30.8245 19.9724L30.852 20L30.8245 20.0276C30.4898 20.3635 30.1372 20.7515 29.7589 21.1676C27.6645 23.4717 24.7839 26.6406 19.7969 26.6406C17.2149 26.6406 15.0056 25.536 13.167 24.1582C11.7168 23.0715 10.4944 21.8126 9.50115 20.7897C9.2356 20.5162 8.98644 20.2596 8.75368 20.0277L8.72591 20L8.75368 19.9723C8.98644 19.7404 9.2356 19.4838 9.50115 19.2103C10.4944 18.1874 11.7168 16.9285 13.167 15.8418Z" fill="black"/>
<path d="M19.0234 15.6953C19.6094 16.3516 19.125 16.6172 19.7422 16.6641C20.3984 16.7109 20.0234 17.3594 20.5781 17.3828C20.9609 17.3984 20.5391 18.9297 20.9062 19.4375C21.2813 19.9688 21.6016 19.5937 21.6094 19.9766C21.6094 20.3672 20.5781 20.3281 20.5625 21.5391C20.5312 22.2422 19.6875 22.2891 19.6484 22.7422C19.6016 23.1641 21.3047 23.4062 21.2891 23.7812C21.2578 24.1641 19.4453 24.1016 19.3594 24.5312C19.3203 24.9219 21.8594 25.2344 22.0703 26.3594C21.324 26.5254 20.5614 26.6067 19.7969 26.6016C14.6562 26.6016 10.9922 22.2031 8.78906 20C10.9922 17.7969 14.6562 13.3984 19.7969 13.3984C19.7969 13.3984 18.2734 14.7891 19.0234 15.6953Z" fill="black"/>
<path fill-rule="evenodd" clip-rule="evenodd" d="M13.4391 17.6515V19.4156H12.9076V17.6515H13.4391ZM13.9707 19.4156V17.6515H14.5022V19.4156H13.9707ZM15.0338 19.4156V17.6515H15.5653V19.4156H15.0338Z" fill="white"/>
<path fill-rule="evenodd" clip-rule="evenodd" d="M13.4391 20.5866V22.3507H12.9076V20.5866H13.4391ZM13.9707 22.3507V20.5866H14.5022V22.3507H13.9707ZM15.0338 22.3507V20.5866H15.5653V22.3507H15.0338Z" fill="white"/>
<path fill-rule="evenodd" clip-rule="evenodd" d="M16.6439 17.6515V19.4156H16.1123V17.6515H16.6439ZM17.1754 19.4156V17.6515H17.707V19.4156H17.1754ZM18.2385 19.4156V17.6515H18.7701V19.4156H18.2385Z" fill="white"/>
<path fill-rule="evenodd" clip-rule="evenodd" d="M16.6439 20.5866V22.3507H16.1123V20.5866H16.6439ZM17.1754 22.3507V20.5866H17.707V22.3507H17.1754ZM18.2385 22.3507V20.5866H18.7701V22.3507H18.2385Z" fill="white"/>
<path fill-rule="evenodd" clip-rule="evenodd" d="M21.5126 17.6515V19.4156H20.981V17.6515H21.5126ZM22.0441 19.4156V17.6515H22.5757V19.4156H22.0441ZM23.1072 19.4156V17.6515H23.6388V19.4156H23.1072Z" fill="black"/>
<path fill-rule="evenodd" clip-rule="evenodd" d="M21.5126 20.5866V22.3507H20.981V20.5866H21.5126ZM22.0441 22.3507V20.5866H22.5757V22.3507H22.0441ZM23.1072 22.3507V20.5866H23.6388V22.3507H23.1072Z" fill="black"/>
<path fill-rule="evenodd" clip-rule="evenodd" d="M24.7173 17.6515V19.4156H24.1858V17.6515H24.7173ZM25.2489 19.4156V17.6515H25.7804V19.4156H25.2489ZM26.312 19.4156V17.6515H26.8435V19.4156H26.312Z" fill="black"/>
<path fill-rule="evenodd" clip-rule="evenodd" d="M24.7173 20.5866V22.3507H24.1858V20.5866H24.7173ZM25.2489 22.3507V20.5866H25.7804V22.3507H25.2489ZM26.312 22.3507V20.5866H26.8435V22.3507H26.312Z" fill="black"/>
<path d="M36.0781 19.7422C35.7422 20.3125 36.3359 19.5469 37.7734 20.5078C37.9199 20.6288 38.0399 20.7786 38.1259 20.9479C38.212 21.1173 38.2622 21.3026 38.2734 21.4922C38.2031 21.4531 38.1562 21.3516 38.0781 21.2891C37.9766 21.3906 38.1875 21.8672 38.2109 22.0938C37.9844 21.9688 38.0078 21.9141 37.9297 21.7578C37.9453 21.9453 37.8906 22.4609 37.9844 22.6562C37.8047 22.6016 37.8203 22.4609 37.7266 22.4375C37.7891 22.6562 37.6719 22.8984 37.7031 23.1562C37.6016 23.0547 37.4844 22.9688 37.4375 22.9219C37.4297 23.0547 37.2422 23.3672 37.2344 23.4766C37.2021 23.4553 37.1743 23.4277 37.1529 23.3955C37.1314 23.3633 37.1166 23.3271 37.1094 23.2891C36.9021 23.5316 36.7262 23.7994 36.5859 24.0859C36.2891 23.8203 35.5234 23.1797 35.4219 22.8359C35.3359 23.0312 35.2031 23.0938 34.9531 23.2344C34.8594 22.6953 34.4844 22.0938 34.6797 21.625C34.5451 21.7097 34.4147 21.8009 34.2891 21.8984C34.4036 21.4255 34.6252 20.9851 34.9367 20.6113C35.2482 20.2375 35.6414 19.9401 36.0859 19.7422H36.0781Z" fill="#333333"/>
<path fill-rule="evenodd" clip-rule="evenodd" d="M36.058 19.707H36.0859L36.0956 19.7525L36.1084 19.76C36.1056 19.7648 36.1029 19.7695 36.1002 19.7741C36.1003 19.774 36.1001 19.7741 36.1002 19.7741C36.0629 19.8379 36.0396 19.8817 36.0285 19.9116C36.0227 19.9273 36.0216 19.936 36.0217 19.94C36.0238 19.941 36.0286 19.9428 36.038 19.9441C36.0501 19.9459 36.0664 19.9466 36.0878 19.9465C36.1059 19.9465 36.1265 19.9459 36.1501 19.9453C36.1543 19.9451 36.1586 19.945 36.1629 19.9449C36.1918 19.9441 36.2245 19.9434 36.2607 19.9434C36.553 19.9434 37.0678 19.9938 37.793 20.4786L37.7945 20.4796L37.7958 20.4807C37.946 20.6047 38.0691 20.7583 38.1573 20.932C38.2455 21.1057 38.297 21.2957 38.3085 21.4901L38.3123 21.554L38.2564 21.5229C38.2141 21.4994 38.1807 21.4584 38.1512 21.4213C38.1489 21.4184 38.1466 21.4155 38.1444 21.4127C38.1258 21.3893 38.108 21.3668 38.0888 21.3468C38.0887 21.3476 38.0885 21.3485 38.0884 21.3493C38.0852 21.3684 38.085 21.3928 38.0877 21.4225C38.0933 21.4818 38.1102 21.5556 38.1316 21.6354C38.1436 21.6802 38.1565 21.725 38.1694 21.7696C38.1797 21.8056 38.1901 21.8416 38.1999 21.8774C38.2214 21.9555 38.2397 22.0303 38.2459 22.0901L38.2528 22.157L38.194 22.1245C38.0787 22.0609 38.0221 22.0126 37.9853 21.9569C37.9786 21.9467 37.9727 21.9365 37.9672 21.9261C37.9671 21.9341 37.9669 21.9423 37.9668 21.9505C37.9664 21.969 37.966 21.9881 37.9656 22.0076C37.9643 22.0702 37.9629 22.137 37.9629 22.2041C37.9629 22.292 37.9653 22.3792 37.9734 22.4562C37.9816 22.5338 37.9953 22.5978 38.0161 22.641L38.0507 22.7132L37.9741 22.6899C37.8739 22.6594 37.827 22.6036 37.7941 22.5548C37.7885 22.5465 37.7836 22.539 37.7792 22.5321C37.779 22.5317 37.7787 22.5313 37.7784 22.5309C37.785 22.616 37.7738 22.7024 37.7613 22.7873C37.76 22.7965 37.7587 22.8056 37.7573 22.8148C37.7407 22.9271 37.7242 23.0381 37.738 23.152L37.7503 23.2531L37.6783 23.1811C37.6286 23.1315 37.5749 23.0854 37.5272 23.0455C37.5185 23.0382 37.5098 23.031 37.5014 23.024C37.4869 23.0119 37.4731 23.0005 37.4605 22.9897C37.4541 23.0127 37.4458 23.037 37.4364 23.0616C37.4172 23.1125 37.3924 23.1683 37.368 23.2224C37.3652 23.2286 37.3625 23.2347 37.3597 23.2408C37.3381 23.2888 37.3173 23.3348 37.3009 23.3755C37.282 23.4227 37.271 23.4579 37.2694 23.4791L37.2652 23.5389L37.215 23.5059C37.1788 23.482 37.1477 23.4511 37.1236 23.415C37.1123 23.398 37.1026 23.38 37.0947 23.3612C36.9072 23.5884 36.7471 23.8368 36.6175 24.1014L36.5971 24.1431L36.5625 24.1121C36.5285 24.0817 36.4882 24.0462 36.4433 24.0067C36.2933 23.8747 36.0923 23.6978 35.9061 23.5153C35.785 23.3967 35.6694 23.275 35.5775 23.161C35.5098 23.077 35.4535 22.9954 35.4177 22.921C35.3333 23.0624 35.2109 23.1307 35.0259 23.234C35.008 23.244 34.9895 23.2543 34.9704 23.265L34.927 23.2894L34.9185 23.2404C34.8955 23.1082 34.8551 22.9715 34.8099 22.8323C34.7955 22.7876 34.7804 22.7426 34.7653 22.6974C34.7337 22.6026 34.7018 22.5072 34.6743 22.4132C34.6035 22.1719 34.5576 21.9299 34.6147 21.7086C34.5106 21.7771 34.4091 21.8497 34.3106 21.9262L34.2312 21.9878L34.2549 21.8902C34.3707 21.412 34.5947 20.9668 34.9097 20.5888C35.2198 20.2167 35.6098 19.9196 36.0507 19.7195L36.058 19.707ZM35.9909 19.8256C35.596 20.0199 35.246 20.2951 34.9637 20.6338C34.6772 20.9777 34.4676 21.3784 34.3485 21.8091C34.4499 21.7338 34.5541 21.6625 34.661 21.5952L34.7547 21.5363L34.7121 21.6385C34.6195 21.8608 34.6609 22.1178 34.7417 22.3934C34.7689 22.4862 34.8001 22.5794 34.8315 22.6735C34.8467 22.719 34.8619 22.7647 34.8768 22.8106C34.9169 22.934 34.954 23.058 34.9786 23.1798C34.9813 23.1783 34.984 23.1768 34.9866 23.1753C35.2056 23.0528 35.315 22.9916 35.3897 22.8218L35.4284 22.7339L35.4556 22.826C35.4789 22.9049 35.5421 23.005 35.6322 23.1169C35.7217 23.2279 35.8351 23.3474 35.9553 23.4651C36.14 23.6461 36.3388 23.8211 36.4888 23.9531C36.5198 23.9804 36.5487 24.0058 36.5749 24.0291C36.713 23.7555 36.8835 23.4993 37.0826 23.2662L37.1302 23.2105L37.1439 23.2825C37.1503 23.3159 37.1632 23.3477 37.1821 23.376C37.191 23.3894 37.2012 23.4019 37.2124 23.4133C37.2187 23.393 37.2268 23.3713 37.2357 23.3493C37.2527 23.3071 37.2741 23.2597 37.2956 23.212C37.2984 23.2058 37.3011 23.1997 37.3039 23.1936C37.3283 23.1393 37.3523 23.0853 37.3707 23.0368C37.3894 22.9874 37.4008 22.9473 37.4024 22.9198L37.407 22.8417L37.4624 22.897C37.4801 22.9147 37.5088 22.9387 37.545 22.9688C37.5537 22.976 37.5628 22.9836 37.5724 22.9916C37.6006 23.0152 37.6314 23.0414 37.6626 23.0695C37.662 22.9779 37.6751 22.8892 37.6875 22.8058C37.689 22.7962 37.6904 22.7866 37.6918 22.7771C37.7095 22.6564 37.7217 22.5483 37.6928 22.4472L37.676 22.3886L37.7351 22.4034C37.7679 22.4116 37.7905 22.4303 37.8081 22.4513C37.8197 22.4652 37.8308 22.4823 37.841 22.4982C37.845 22.5042 37.8487 22.5101 37.8524 22.5155C37.8702 22.5419 37.891 22.5686 37.9247 22.5907C37.915 22.5519 37.9083 22.5087 37.9035 22.4635C37.895 22.383 37.8926 22.293 37.8926 22.2041C37.8926 22.1362 37.894 22.0683 37.8953 22.0056C37.8958 21.9862 37.8961 21.9674 37.8965 21.9492C37.898 21.871 37.8984 21.8055 37.8947 21.7607L37.9611 21.7421C37.9782 21.7761 37.9906 21.8057 38.0013 21.8312C38.0033 21.8359 38.0052 21.8405 38.0071 21.8449C38.0193 21.8738 38.0298 21.8966 38.044 21.9181C38.0656 21.9509 38.0979 21.9835 38.1643 22.0255C38.1562 21.9865 38.145 21.9428 38.1321 21.896C38.1229 21.8625 38.1126 21.8268 38.1022 21.7906C38.089 21.7447 38.0756 21.6979 38.0637 21.6536C38.0422 21.5733 38.0239 21.4947 38.0177 21.4291C38.0147 21.3962 38.0144 21.365 38.019 21.3377C38.0236 21.3105 38.0335 21.284 38.0533 21.2642L38.0755 21.242L38.1001 21.2616C38.1393 21.293 38.1711 21.3332 38.1987 21.3681C38.2013 21.3713 38.2038 21.3744 38.2062 21.3775C38.2146 21.3881 38.2226 21.3979 38.2303 21.407C38.211 21.2528 38.1652 21.1028 38.0946 20.9639C38.011 20.7993 37.8946 20.6537 37.7524 20.536C37.0409 20.0608 36.5405 20.0137 36.2607 20.0137C36.2255 20.0137 36.1935 20.0144 36.1648 20.0152C36.1606 20.0153 36.1564 20.0154 36.1523 20.0155C36.1287 20.0162 36.107 20.0168 36.088 20.0168C36.0657 20.0169 36.0453 20.0163 36.0279 20.0137C36.011 20.0113 35.9927 20.0065 35.9779 19.9953C35.9611 19.9825 35.9527 19.9644 35.9515 19.9442C35.9506 19.926 35.9554 19.9066 35.9626 19.8872C35.9691 19.8697 35.9786 19.8492 35.9909 19.8256Z" fill="black"/>
<path d="M34.8359 22.6016C34.9766 22.3203 35.1016 22.2344 35.1953 22.0547C35.3516 21.7422 35.375 21.4922 35.5078 21.5312C35.6484 21.5703 35.6484 21.6953 35.4688 22C35.2969 22.3125 35.2109 22.3828 34.8359 22.6016ZM35.7734 23.2578C35.7578 23.0547 35.8203 22.9609 35.8047 22.8281C35.7891 22.5859 35.6875 22.4219 35.8203 22.4062C35.9375 22.4062 36 22.4844 36 22.7187C36 22.9531 35.9688 23.0312 35.7656 23.2578H35.7734ZM36.4844 23.6719C36.4297 23.375 36.4688 23.25 36.4297 23.0547C36.375 22.7266 36.25 22.5078 36.3672 22.4688C36.4844 22.4375 36.5547 22.5469 36.6016 22.8906C36.6406 23.2266 36.625 23.3203 36.4844 23.6719ZM37.2266 21.6172C37.0469 21.4766 36.9453 21.4688 36.8359 21.3828C36.6406 21.2266 36.5391 21.0781 36.4766 21.1562C36.4141 21.2344 36.4609 21.3203 36.6641 21.4609C36.8672 21.6016 36.9453 21.6094 37.2266 21.6172ZM37.1016 22.5859C37.0078 22.3906 36.9141 22.3516 36.8516 22.2266C36.75 22.0078 36.75 21.8281 36.6328 21.8672C36.5234 21.9219 36.5078 22.0234 36.6328 22.2266C36.7578 22.4375 36.8203 22.4688 37.1016 22.5859Z" fill="#B3B3B3"/>
<path d="M2.91406 20.2969C2.89062 20.1328 2.92969 20.1094 2.82812 19.9844C2.98438 20.0391 2.98438 20.2187 3.16406 20.0938C3.23438 20.0547 3.25781 20.0547 3.17969 19.8672C3.36719 19.875 3.99219 20.0937 4.09375 20.1016C4.35938 20.1016 4.83594 19.8203 5.17187 20.1797C5.48437 20.4922 5.38281 20.8359 5.38281 21.2734C5.25781 21.2187 5.3125 21.1953 5.17969 21.0312C5.28125 21.4219 5.17969 22.125 5.17969 22.5469C5.125 22.4375 5.13281 22.4844 5.07812 22.3906C4.94531 22.7578 4.78125 22.8359 4.78125 23.2891C4.72656 23.1094 4.78125 23.1484 4.72656 23.0547C4.59375 23.3438 3.69531 23.5938 4.04688 23.875C3.73438 23.6953 3.60156 23.7187 3.46094 23.5547C3.39844 23.5938 3.35156 23.6719 3.29688 23.7656C2.75 23.5156 2.94531 22.9844 2.51562 22.6172C2.4375 22.7734 2.48438 22.75 2.39844 22.9922C2.32031 22.6484 2.28906 22.4375 2.19531 22.1875C2.11719 22.3203 2.11719 22.2656 1.96094 22.4766C1.89844 22.0625 1.80469 21.9609 1.83594 21.6953C1.67969 21.8047 1.78906 21.7578 1.625 21.8984C1.78125 20.8359 2.4375 20.0469 2.90625 20.2969H2.91406Z" fill="#333333"/>
<path fill-rule="evenodd" clip-rule="evenodd" d="M3.11408 19.8214L3.18148 19.8243C3.23331 19.8264 3.31149 19.8427 3.39779 19.8643C3.48523 19.8863 3.5848 19.9148 3.68108 19.9432C3.71756 19.9539 3.75349 19.9646 3.78815 19.9749C3.84538 19.9919 3.89917 20.0079 3.94629 20.0214C3.98403 20.0323 4.01693 20.0413 4.04335 20.0479C4.06924 20.0543 4.08644 20.0577 4.09557 20.0586C4.15573 20.0583 4.22971 20.0422 4.31709 20.0214C4.32594 20.0193 4.33492 20.0172 4.344 20.015C4.42348 19.996 4.51122 19.975 4.60088 19.9633C4.80191 19.937 5.02154 19.9563 5.20277 20.1498C5.36742 20.3147 5.42312 20.4891 5.43738 20.6764C5.44443 20.7691 5.44136 20.8652 5.43672 20.9639C5.43587 20.982 5.43497 21.0002 5.43406 21.0184C5.42997 21.1006 5.42578 21.185 5.42578 21.2734V21.3391L5.36559 21.3128C5.33264 21.2984 5.30822 21.2847 5.28905 21.2682C5.27489 21.2561 5.26476 21.2435 5.25629 21.2304C5.27238 21.3973 5.26941 21.589 5.2607 21.7793C5.25589 21.8844 5.24934 21.989 5.24304 22.0898C5.23251 22.258 5.22266 22.4156 5.22266 22.5469L5.14126 22.5661C5.11475 22.5131 5.10485 22.5008 5.09628 22.4909C5.09511 22.4895 5.09392 22.4881 5.09271 22.4867C5.09141 22.4852 5.09008 22.4837 5.0887 22.4821C5.05132 22.5722 5.01217 22.6459 4.97669 22.7127C4.95571 22.7523 4.93602 22.7893 4.91874 22.826C4.86375 22.9425 4.82422 23.069 4.82422 23.2891L4.74014 23.3016C4.71608 23.2225 4.71183 23.1821 4.71109 23.1542C4.66572 23.2064 4.60414 23.255 4.5396 23.3004C4.49 23.3353 4.43644 23.3697 4.38352 23.4034C4.37759 23.4071 4.37167 23.4109 4.36576 23.4147C4.31867 23.4446 4.27244 23.474 4.2292 23.5033C4.12972 23.5708 4.055 23.6323 4.0238 23.6894C4.00919 23.7162 4.00585 23.7389 4.01131 23.7602C4.01702 23.7824 4.03407 23.8097 4.07372 23.8414L4.02546 23.9123C3.89838 23.8392 3.80243 23.8007 3.72131 23.7682C3.70464 23.7615 3.6886 23.7551 3.67305 23.7487C3.59163 23.7151 3.52336 23.6813 3.45587 23.6127C3.44093 23.6265 3.42606 23.6439 3.41069 23.665C3.38583 23.699 3.36151 23.7401 3.33399 23.7873L3.31439 23.8209L3.27901 23.8047C2.98931 23.6723 2.89617 23.4629 2.82173 23.2495C2.81408 23.2276 2.80663 23.2056 2.7992 23.1838C2.73952 23.0083 2.68115 22.8365 2.52981 22.6883C2.51312 22.7277 2.50799 22.7514 2.5021 22.7809C2.50163 22.7832 2.50115 22.7856 2.50067 22.788C2.49193 22.832 2.48056 22.8892 2.43893 23.0066L2.38938 23.1462L2.35654 23.0017C2.33627 22.9125 2.31922 22.8327 2.30351 22.7591C2.26479 22.5779 2.23418 22.4346 2.18356 22.283C2.1681 22.3027 2.15423 22.3167 2.13781 22.3331C2.10983 22.3611 2.0717 22.3992 1.99547 22.5021L1.93389 22.5853L1.91845 22.483C1.89372 22.3191 1.86422 22.2057 1.8392 22.1094C1.833 22.0856 1.82708 22.0628 1.82157 22.0406C1.8005 21.9556 1.7858 21.8794 1.78681 21.7873C1.77777 21.796 1.7741 21.8014 1.76943 21.8086C1.76894 21.8093 1.76845 21.8101 1.76794 21.8109C1.76169 21.8205 1.75354 21.8331 1.73725 21.8514C1.72023 21.8704 1.69473 21.8953 1.65296 21.9311L1.56578 22.0058L1.58249 21.8922C1.66154 21.3546 1.86725 20.8842 2.11506 20.5784C2.23888 20.4256 2.37501 20.3118 2.51341 20.2527C2.63096 20.2026 2.75088 20.1918 2.86395 20.2315C2.86312 20.2195 2.86256 20.2085 2.8621 20.1983C2.86187 20.1932 2.86167 20.1883 2.86148 20.1837C2.8606 20.1627 2.85994 20.147 2.85783 20.1319C2.85341 20.1002 2.84251 20.0702 2.79478 20.0115L2.69907 19.8937L2.84232 19.9438C2.88867 19.96 2.92287 19.9854 2.95021 20.0104C2.96285 20.0219 2.97434 20.0336 2.98445 20.0439L2.98638 20.0459C2.99734 20.0571 3.00642 20.0662 3.01533 20.0739C3.03267 20.0888 3.04478 20.0941 3.05793 20.0941C3.07279 20.0942 3.09767 20.0876 3.13952 20.0585L3.1413 20.0572L3.1432 20.0562C3.14817 20.0534 3.15251 20.0511 3.15634 20.049C3.16824 20.0424 3.1752 20.0386 3.18083 20.0343C3.1849 20.0311 3.18502 20.0302 3.18515 20.0292C3.18512 20.0293 3.18516 20.0291 3.18515 20.0292C3.18591 20.0247 3.18596 20.0132 3.17877 19.988C3.1718 19.9635 3.15942 19.9303 3.14002 19.8837L3.11408 19.8214ZM4.76097 23.0284C4.77923 22.9355 4.80736 22.8606 4.84103 22.7893C4.8613 22.7463 4.88261 22.7063 4.90445 22.6652C4.94811 22.5832 4.99389 22.4972 5.03772 22.376L5.06896 22.2896L5.11524 22.369C5.12556 22.3867 5.13332 22.3987 5.13962 22.4077C5.14339 22.3064 5.15035 22.195 5.15753 22.0799C5.16378 21.9797 5.17021 21.8768 5.17485 21.7754C5.18756 21.4976 5.18704 21.2303 5.1381 21.0421L5.21309 21.0042C5.27043 21.0751 5.29523 21.1223 5.31199 21.1543C5.3155 21.161 5.31866 21.167 5.32169 21.1724C5.32842 21.1844 5.33379 21.1923 5.34074 21.1991C5.34222 21.135 5.3453 21.073 5.34826 21.0134C5.34916 20.9954 5.35005 20.9775 5.35088 20.9599C5.35551 20.8614 5.3583 20.7699 5.35169 20.6829C5.33861 20.5111 5.28894 20.3575 5.14149 20.2101L5.14048 20.209C4.98587 20.0436 4.79946 20.024 4.61201 20.0485C4.52712 20.0596 4.44386 20.0795 4.36384 20.0986C4.35484 20.1008 4.34588 20.1029 4.33697 20.105C4.25067 20.1256 4.16608 20.1445 4.09375 20.1445H4.0921L4.09045 20.1444C4.07374 20.1431 4.04965 20.138 4.02266 20.1313C3.99473 20.1243 3.96067 20.115 3.92261 20.104C3.87515 20.0904 3.82057 20.0742 3.76296 20.0571C3.72837 20.0468 3.6927 20.0362 3.65681 20.0256C3.5607 19.9973 3.46252 19.9692 3.37687 19.9477C3.32718 19.9352 3.28292 19.9253 3.24629 19.9187C3.25251 19.9357 3.25755 19.9509 3.26142 19.9644C3.26961 19.9932 3.274 20.0196 3.26988 20.0434C3.2652 20.0706 3.25066 20.0889 3.23348 20.1022C3.22187 20.1112 3.20679 20.1194 3.19365 20.1265C3.19127 20.1278 3.18896 20.1291 3.18675 20.1303C3.13952 20.1629 3.09759 20.1802 3.05755 20.1801C3.01528 20.1799 2.98393 20.1602 2.95928 20.139C2.95392 20.1344 2.94866 20.1295 2.94355 20.1246C2.94582 20.1428 2.9466 20.162 2.94741 20.1815C2.94758 20.1858 2.94776 20.1902 2.94795 20.1945C2.94914 20.221 2.95101 20.2517 2.9566 20.2908L2.96361 20.3398H2.89551L2.88603 20.3348C2.78242 20.2795 2.66742 20.2804 2.54714 20.3318C2.42577 20.3835 2.30019 20.4865 2.18182 20.6325C1.96519 20.8998 1.77877 21.3042 1.68961 21.7735C1.69186 21.7703 1.69383 21.7672 1.69584 21.7641C1.69635 21.7633 1.69686 21.7625 1.69737 21.7617C1.70499 21.75 1.7133 21.7382 1.73099 21.7218C1.74746 21.7066 1.77184 21.6877 1.8113 21.6601L1.88981 21.6052L1.87861 21.7003C1.86382 21.8261 1.87831 21.9123 1.90499 22.0199C1.91025 22.0412 1.916 22.0633 1.92208 22.0866C1.94201 22.1633 1.96554 22.2537 1.98713 22.3722C2.0289 22.3206 2.05545 22.2939 2.07704 22.2724L2.0782 22.2712C2.10487 22.2445 2.12198 22.2274 2.15828 22.1657L2.20393 22.0881L2.23555 22.1724C2.30662 22.362 2.34264 22.5306 2.38859 22.7458C2.39397 22.771 2.39948 22.7969 2.40521 22.8234C2.41006 22.8031 2.41335 22.7866 2.41634 22.7715C2.41684 22.769 2.41734 22.7665 2.41783 22.764C2.4273 22.7167 2.43628 22.6798 2.47719 22.598L2.50177 22.5488L2.54354 22.5845C2.74564 22.7572 2.81629 22.966 2.88059 23.156C2.88804 23.178 2.8954 23.1998 2.90288 23.2212C2.97157 23.4181 3.04988 23.592 3.27989 23.7097C3.30015 23.6755 3.32031 23.643 3.34127 23.6143C3.36916 23.5761 3.40031 23.5419 3.43816 23.5182L3.46951 23.4987L3.49356 23.5267C3.55749 23.6013 3.61867 23.6333 3.70586 23.6693C3.72062 23.6754 3.73611 23.6816 3.75243 23.6881C3.80153 23.7078 3.85803 23.7304 3.92428 23.762C3.91896 23.7218 3.92919 23.6834 3.94837 23.6482C3.99089 23.5704 4.08317 23.4985 4.18096 23.4322C4.22533 23.4021 4.27269 23.372 4.31963 23.3421C4.32555 23.3384 4.33147 23.3346 4.33737 23.3309C4.39034 23.2971 4.44238 23.2637 4.49018 23.2301C4.58797 23.1614 4.65969 23.0973 4.68752 23.0367L4.72203 22.9616L4.76097 23.0284Z" fill="black"/>
<path d="M2.24219 22.0312C2.38281 21.6875 2.50781 21.5859 2.60156 21.3672C2.75781 20.9766 2.78125 20.6641 2.91406 20.7109C3.04688 20.7578 3.04688 20.9141 2.86719 21.2969C2.6875 21.6875 2.60938 21.7656 2.24219 22.0312ZM2.77344 22.8906C2.82812 22.5781 2.91406 22.4766 2.95312 22.2734C3.02344 21.9297 2.98438 21.6719 3.10938 21.6797C3.23438 21.6953 3.26562 21.8359 3.17969 22.1719C3.09375 22.5234 3.03906 22.6016 2.76563 22.8906H2.77344ZM3.39844 23.4922C3.42188 23.1953 3.49219 23.0781 3.5 22.8828C3.52344 22.5469 3.45312 22.3047 3.57812 22.3047C3.69531 22.3047 3.73438 22.4219 3.70312 22.7656C3.66406 23.1016 3.625 23.1875 3.40625 23.4922H3.39844ZM4.76562 21.5391C4.50781 21.2813 4.35156 21.2266 4.17969 21.0703C3.89062 20.7734 3.74219 20.5 3.63281 20.6016C3.53125 20.6953 3.59375 20.8359 3.90625 21.1172C4.21875 21.3984 4.32812 21.4375 4.76562 21.5391ZM4.60938 22.5469C4.44531 22.2891 4.3125 22.2109 4.20312 22.0469C4.00781 21.75 3.95312 21.5 3.83594 21.5625C3.72656 21.625 3.75781 21.7578 3.96094 22.0469C4.17188 22.3281 4.25 22.3828 4.60938 22.5469Z" fill="#B3B3B3"/>
<path d="M16.2422 14.5703C15.9297 15.1563 16.7734 14.375 18.0859 15.3672C18.4079 15.7096 18.6154 16.1437 18.6797 16.6094C18.4103 16.5227 18.151 16.4075 17.9062 16.2656C17.9062 16.2656 18.4922 16.8516 18.4922 17.5234C18.2812 17.3984 18.1797 17.4141 18.1016 17.2578C18.1016 17.4766 18.2969 17.6094 18.2969 17.9453C18.1696 17.8448 18.0337 17.7559 17.8906 17.6797C18.0859 18.0156 17.5391 18.6719 17.8125 18.8828C17.5807 18.8514 17.3578 18.7728 17.1576 18.6519C16.9574 18.5309 16.7841 18.3702 16.6484 18.1797C16.5469 18.2422 16.5391 18.3516 16.5312 18.4688C16.5469 18.4844 15.8047 17.9219 15.875 17.7031C15.7897 17.8102 15.7405 17.9414 15.7344 18.0781C15.4518 17.8426 15.2385 17.5348 15.1172 17.1875L14.8672 17.5C14.7812 16.9531 14.7812 16.9688 14.9609 16.5C14.8366 16.585 14.7166 16.6762 14.6016 16.7734C14.6945 16.3075 14.89 15.8681 15.1737 15.4871C15.4575 15.106 15.8225 14.7929 16.2422 14.5703Z" fill="#333333"/>
<path fill-rule="evenodd" clip-rule="evenodd" d="M16.3179 14.4948L16.2698 14.585C16.2307 14.6583 16.2124 14.7055 16.2089 14.7357C16.2072 14.7501 16.2093 14.7577 16.2115 14.7618C16.2135 14.7656 16.2173 14.7698 16.2265 14.7739C16.2475 14.7832 16.2841 14.7868 16.3423 14.7871C16.3675 14.7872 16.3955 14.7867 16.4266 14.7862C16.4303 14.7862 16.4341 14.7861 16.4379 14.786C16.4734 14.7855 16.5125 14.7849 16.5549 14.7852C16.8955 14.7871 17.4418 14.841 18.1048 15.3423L18.1069 15.3439L18.1087 15.3458C18.4351 15.693 18.6455 16.1331 18.7106 16.6051L18.7174 16.6543L18.6701 16.6391C18.4556 16.5701 18.2474 16.4831 18.0478 16.3791C18.0994 16.4427 18.1625 16.5266 18.2256 16.6258C18.3735 16.8585 18.5234 17.1789 18.5234 17.5234V17.5783L18.4763 17.5503C18.4069 17.5092 18.3522 17.4848 18.3038 17.4632C18.2789 17.4521 18.2556 17.4417 18.2329 17.4302C18.2038 17.4154 18.1778 17.3995 18.1541 17.3791C18.1686 17.422 18.1892 17.4647 18.2119 17.5119C18.217 17.5224 18.2222 17.5332 18.2274 17.5442C18.277 17.6483 18.3281 17.7705 18.3281 17.9453V18.0098L18.2775 17.9698C18.1746 17.8885 18.0658 17.8149 17.9522 17.7495C17.9709 17.8229 17.9674 17.9035 17.9531 17.9851C17.9343 18.0934 17.8955 18.2086 17.8586 18.3181C17.8564 18.3248 17.8541 18.3314 17.8519 18.3381C17.8126 18.4551 17.7773 18.5639 17.7679 18.6562C17.7586 18.748 17.7757 18.8149 17.8316 18.8581L17.9242 18.9295L17.8083 18.9138C17.5723 18.8818 17.3453 18.8018 17.1415 18.6786C16.9465 18.5609 16.7767 18.4061 16.6414 18.2232C16.5774 18.2775 16.5697 18.3621 16.5624 18.4708C16.5614 18.4771 16.5582 18.4847 16.555 18.4896C16.5487 18.4951 16.5363 18.4999 16.5314 18.5003C16.5287 18.5002 16.5244 18.4995 16.5228 18.4991C16.52 18.4983 16.518 18.4973 16.5175 18.497C16.5166 18.4966 16.5159 18.4962 16.5155 18.496C16.5147 18.4955 16.514 18.4951 16.5135 18.4948C16.5118 18.4937 16.5096 18.4921 16.5073 18.4904C16.5024 18.4869 16.4951 18.4813 16.4856 18.4741C16.4667 18.4596 16.439 18.4379 16.4057 18.4107C16.339 18.3564 16.2492 18.2802 16.1611 18.1965C16.0732 18.113 15.9858 18.0211 15.9246 17.9354C15.8941 17.8926 15.8692 17.8502 15.8544 17.8104C15.8526 17.8055 15.8509 17.8006 15.8493 17.7957C15.799 17.8818 15.7701 17.9791 15.7656 18.0795L15.7628 18.1425L15.7144 18.1021C15.4418 17.875 15.2327 17.5815 15.1069 17.2504L14.8473 17.5749L14.8363 17.5049C14.8352 17.4979 14.8341 17.491 14.8331 17.4842C14.7925 17.2262 14.7715 17.0924 14.7833 16.9677C14.7938 16.8582 14.8296 16.7562 14.8952 16.5842C14.8013 16.6516 14.7101 16.7227 14.6217 16.7973L14.5534 16.855L14.5709 16.7673C14.6648 16.2969 14.8621 15.8532 15.1487 15.4684C15.4352 15.0837 15.8037 14.7674 16.2275 14.5427L16.3179 14.4948ZM17.9062 16.2656L17.9219 16.2386C18.1502 16.3709 18.3912 16.4799 18.6413 16.5639C18.5705 16.1244 18.37 15.7157 18.065 15.3905C17.4165 14.901 16.8853 14.8496 16.5545 14.8477C16.5129 14.8474 16.4744 14.848 16.4389 14.8485C16.4351 14.8486 16.4313 14.8487 16.4276 14.8487C16.3966 14.8492 16.3679 14.8497 16.342 14.8496C16.2857 14.8493 16.2359 14.8464 16.2012 14.8311C16.1826 14.8228 16.1663 14.8102 16.1562 14.791C16.1463 14.7722 16.1442 14.7508 16.1468 14.7285C16.1496 14.7048 16.1579 14.6772 16.1714 14.6449C15.7916 14.8615 15.4603 15.1545 15.1988 15.5057C14.9356 15.8591 14.7492 16.2632 14.651 16.692C14.7454 16.6154 14.8429 16.5428 14.9433 16.4742L15.0259 16.4177L14.9901 16.5112C14.9871 16.5191 14.9841 16.5269 14.9812 16.5346C14.8967 16.7547 14.8564 16.8599 14.8456 16.9737C14.8353 17.0813 14.8514 17.1972 14.8871 17.4251L15.1281 17.1239L15.1467 17.1772C15.2595 17.5002 15.4532 17.7885 15.7088 18.0149C15.7253 17.8941 15.7741 17.7796 15.8506 17.6837L15.9048 17.7127C15.899 17.7306 15.9006 17.7555 15.9129 17.7885C15.9251 17.8213 15.9466 17.8586 15.9755 17.8991C16.0332 17.9799 16.1173 18.0687 16.2041 18.1512C16.2908 18.2335 16.3793 18.3086 16.4451 18.3622C16.4679 18.3808 16.488 18.3967 16.5043 18.4095C16.513 18.3123 16.534 18.2134 16.6321 18.1531L16.6569 18.1378L16.6739 18.1616C16.8071 18.3486 16.9772 18.5064 17.1738 18.6251C17.3464 18.7294 17.5363 18.8016 17.7341 18.8386C17.7044 18.7841 17.6988 18.7186 17.7057 18.6499C17.7159 18.5494 17.7538 18.4336 17.7926 18.3182C17.7947 18.312 17.7968 18.3058 17.7989 18.2996C17.8362 18.1887 17.8735 18.0778 17.8916 17.9744C17.9106 17.865 17.9069 17.7699 17.8636 17.6954L17.8084 17.6005L17.9053 17.6521C18.0302 17.7187 18.1498 17.7948 18.263 17.8798C18.2524 17.7527 18.2123 17.6577 18.171 17.5711C18.1659 17.5602 18.1606 17.5495 18.1554 17.5387C18.1126 17.4503 18.0703 17.3631 18.0703 17.2578L18.1295 17.2438C18.165 17.3148 18.2043 17.3456 18.2612 17.3745C18.2793 17.3837 18.3003 17.3931 18.3239 17.4036C18.3624 17.4209 18.408 17.4413 18.4596 17.4691C18.4451 17.1621 18.3099 16.875 18.1728 16.6593C18.1005 16.5455 18.0281 16.4524 17.9739 16.3878C17.9468 16.3555 17.9242 16.3303 17.9085 16.3133C17.9006 16.3048 17.8945 16.2984 17.8903 16.294C17.889 16.2927 17.8878 16.2915 17.8869 16.2905L17.79 16.2344H17.9062V16.2656Z" fill="black"/>
<path d="M15.4844 17.4453C15.5391 17.0391 15.6406 16.8984 15.6719 16.625C15.7344 16.1719 15.6641 15.8281 15.8281 15.8438C15.9844 15.8516 16.0312 16.0234 15.9531 16.4766C15.875 16.9453 15.7969 17.0469 15.4844 17.4531V17.4453ZM16.3438 18.1953C16.3047 17.8516 16.3672 17.7031 16.3438 17.4844C16.3125 17.0937 16.1875 16.8359 16.3281 16.8125C16.4766 16.7891 16.5469 16.9141 16.5625 17.3125C16.5781 17.7031 16.5391 17.8047 16.3359 18.1953H16.3438ZM17.6719 18.8047C17.5234 18.5078 17.3984 18.4141 17.3047 18.2266C17.1484 17.8906 17.1016 17.6172 16.9766 17.6641C16.8516 17.7188 16.8594 17.8594 17.0391 18.1875C17.2266 18.5156 17.3047 18.5781 17.6641 18.8047H17.6719ZM18.1328 16.1484C17.7578 15.9531 17.5703 15.9453 17.3359 15.8281C16.9141 15.6016 16.6719 15.3594 16.5859 15.5C16.5078 15.6328 16.6172 15.7656 17.0469 15.9688C17.4766 16.1641 17.6094 16.1719 18.125 16.1406L18.1328 16.1484ZM18.2656 17.25C17.9922 17.0312 17.8359 17 17.6641 16.8594C17.3516 16.6016 17.2031 16.3594 17.1094 16.4609C17.0078 16.5625 17.0703 16.6953 17.3906 16.9297C17.7031 17.1641 17.8203 17.1953 18.2656 17.25Z" fill="#B3B3B3"/>
</g>
<defs>
<clipPath id="clip0_17522_60752">
<path d="M0 4C0 1.79086 1.79086 0 4 0H36C38.2091 0 40 1.79086 40 4V36C40 38.2091 38.2091 40 36 40H4C1.79086 40 0 38.2091 0 36V4Z" fill="white"/>
</clipPath>
</defs>
</svg>
