<svg width="40" height="40" viewBox="0 0 40 40" fill="none" xmlns="http://www.w3.org/2000/svg">
<g clip-path="url(#clip0_17522_60602)">
<path d="M0 0H40V40H0V0Z" fill="black"/>
<path fill-rule="evenodd" clip-rule="evenodd" d="M-6.09375 0H49.2344V40H-6.09375V0Z" fill="white"/>
<path fill-rule="evenodd" clip-rule="evenodd" d="M-5.92969 15.5547H9.5625V0H18.4141V15.5547H49.3984V24.4531H18.4141V40H9.5625V24.4453H-5.9375L-5.92969 15.5547Z" fill="#003897"/>
<path fill-rule="evenodd" clip-rule="evenodd" d="M-5.92969 17.7812H11.7734V0H16.2031V17.7812H49.3984V22.2266H16.1953V40H11.7734V22.2188H-5.92969V17.7812Z" fill="#D72828"/>
</g>
<defs>
<clipPath id="clip0_17522_60602">
<path d="M0 4C0 1.79086 1.79086 0 4 0H36C38.2091 0 40 1.79086 40 4V36C40 38.2091 38.2091 40 36 40H4C1.79086 40 0 38.2091 0 36V4Z" fill="white"/>
</clipPath>
</defs>
</svg>
