<svg width="40" height="40" viewBox="0 0 40 40" fill="none" xmlns="http://www.w3.org/2000/svg">
<g clip-path="url(#clip0_17544_61794)">
<path d="M0 0H40V40H0V0Z" fill="black"/>
<path fill-rule="evenodd" clip-rule="evenodd" d="M-6.09375 0H49.2344V40H-6.09375V0Z" fill="white"/>
<path fill-rule="evenodd" clip-rule="evenodd" d="M-5.92969 15.5547H9.5625V0H18.4141V15.5547H49.3984V24.4531H18.4141V40H9.5625V24.4453H-5.9375L-5.92969 15.5547Z" fill="#003897"/>
<path fill-rule="evenodd" clip-rule="evenodd" d="M-5.92969 17.7812H11.7734V0H16.2031V17.7812H49.3984V22.2266H16.1953V40H11.7734V22.2188H-5.92969V17.7812Z" fill="#D72828"/>
</g>
<defs>
<clipPath id="clip0_17544_61794">
<path d="M0 20C0 8.95431 8.95431 0 20 0C31.0457 0 40 8.95431 40 20C40 31.0457 31.0457 40 20 40C8.95431 40 0 31.0457 0 20Z" fill="white"/>
</clipPath>
</defs>
</svg>
