<svg width="40" height="40" viewBox="0 0 40 40" fill="none" xmlns="http://www.w3.org/2000/svg">
<g clip-path="url(#clip0_17544_66364)">
<path d="M0 0H40V40H0V0Z" fill="black"/>
<path d="M0 0H40V40H0V0Z" fill="white"/>
<path fill-rule="evenodd" clip-rule="evenodd" d="M16.4375 28.3984C16.4375 28.3984 17.3438 27.6641 18.2188 27.6641C19.0938 27.6641 19.3437 28.2734 19.9531 28.3203C20.5625 28.375 21.0781 27.7109 21.8281 27.6953C22.5938 27.6641 23.5469 28.2266 23.5469 28.2266L20.2266 29.2188L16.4375 28.3906V28.3984ZM14.5391 27.3203L25.8125 27.375C25.8125 27.375 24.8359 26.3203 23.6875 26.2969C22.5469 26.2734 22.8594 26.7891 21.9844 26.8594C21.1016 26.9375 20.8828 26.3203 20.0781 26.3438C19.2734 26.3672 18.8047 26.8594 18.2031 26.8828C17.5859 26.9062 16.8047 26.2734 16.3438 26.2969C15.875 26.3203 14.2188 27.0312 14.2188 27.0312L14.5391 27.3203ZM13.0938 25.9766L27.0078 26.0312C27.2344 25.7109 26.3281 24.9531 25.5 24.8828C24.8125 24.9062 24.3281 25.5859 23.7656 25.6094C23.2031 25.6406 22.5703 24.9062 21.9297 24.9297C21.3047 24.9531 20.6406 25.6172 20.0078 25.6172C19.3672 25.6172 18.9062 24.9062 18.1016 24.9062C17.2969 24.9062 16.9297 25.6875 16.3203 25.6406C15.7031 25.5859 15.1719 24.8594 14.5859 24.8594C14 24.8594 13.0234 25.7344 12.8281 25.6875C12.6328 25.6406 13.0703 26.0547 13.0938 25.9766Z" fill="#083D9C"/>
<path fill-rule="evenodd" clip-rule="evenodd" d="M14.0481 24.9007C14.2293 24.8175 14.4167 24.7552 14.5859 24.7552C14.754 24.7552 14.9132 24.8073 15.0629 24.8801C15.212 24.9526 15.3583 25.0491 15.4991 25.1428L15.505 25.1467C15.7927 25.3382 16.0543 25.5123 16.3289 25.5368C16.5817 25.556 16.7884 25.4101 17.0566 25.2207C17.0636 25.2158 17.0706 25.2109 17.0777 25.2059C17.346 25.0166 17.6631 24.8021 18.1016 24.8021C18.5355 24.8021 18.8741 24.9948 19.1698 25.1724C19.1838 25.1808 19.1977 25.1892 19.2114 25.1974C19.4974 25.3696 19.7357 25.513 20.0078 25.513C20.2938 25.513 20.5943 25.3619 20.9234 25.1899C20.9339 25.1844 20.9444 25.1789 20.9549 25.1734C21.2624 25.0126 21.596 24.838 21.9258 24.8256C22.2813 24.8126 22.6266 25.009 22.9287 25.1821L22.9498 25.1941C23.0979 25.279 23.2374 25.3589 23.3728 25.4174C23.5145 25.4786 23.6423 25.5119 23.7598 25.5054L23.7613 25.5053C23.8817 25.5003 24.0025 25.46 24.1308 25.396C24.2465 25.3384 24.3621 25.2649 24.4861 25.1861C24.5007 25.1768 24.5154 25.1675 24.5302 25.1581C24.8053 24.9837 25.1207 24.7915 25.4965 24.7787L25.5026 24.7785L25.5088 24.779C25.9477 24.8163 26.4002 25.0337 26.714 25.2815C26.8709 25.4054 26.9999 25.5422 27.075 25.6754C27.1481 25.8051 27.1847 25.9615 27.0929 26.0914L27.0616 26.1356L13.1274 26.0809C13.1229 26.0828 13.1182 26.0844 13.1134 26.0858C13.0823 26.0947 13.0547 26.0891 13.0403 26.0852C13.01 26.0769 12.9805 26.0598 12.9577 26.0448C12.9088 26.0127 12.8525 25.9647 12.8053 25.9174C12.7609 25.8731 12.7113 25.8165 12.6889 25.7665C12.6829 25.7531 12.6754 25.733 12.6741 25.7093C12.6727 25.6839 12.6784 25.6465 12.7088 25.616C12.7372 25.5876 12.7716 25.5811 12.7926 25.5799C12.8121 25.5788 12.8308 25.5814 12.8469 25.5849C12.8481 25.5848 12.8497 25.5845 12.8519 25.584C12.8614 25.582 12.8757 25.5776 12.8956 25.5693C12.9354 25.5526 12.987 25.5252 13.0499 25.4881C13.1276 25.4424 13.215 25.3867 13.3113 25.3254C13.3726 25.2863 13.4374 25.245 13.5055 25.2026C13.6773 25.0956 13.8649 24.9848 14.0481 24.9007ZM12.953 25.7705C12.9935 25.811 13.0386 25.8487 13.0721 25.8707C13.0729 25.8713 13.0738 25.8718 13.0746 25.8723L26.9383 25.9268C26.9415 25.893 26.9314 25.8449 26.8935 25.7777C26.8365 25.6765 26.7297 25.5594 26.5849 25.445C26.2967 25.2175 25.8848 25.0217 25.4974 24.9871C25.1882 24.9996 24.9194 25.1581 24.6417 25.3341C24.627 25.3434 24.6123 25.3528 24.5975 25.3622C24.475 25.44 24.3497 25.5197 24.2237 25.5825C24.0817 25.6532 23.9313 25.7066 23.7707 25.7134C23.6072 25.7223 23.4452 25.6756 23.2903 25.6087C23.1436 25.5454 22.9947 25.46 22.8498 25.377C22.8416 25.3723 22.8334 25.3675 22.8252 25.3629C22.5101 25.1824 22.2186 25.0234 21.9335 25.0338C21.6516 25.0444 21.3546 25.1996 21.027 25.3709L21.0199 25.3745C20.7026 25.5404 20.3547 25.7214 20.0078 25.7214C19.6755 25.7214 19.3893 25.5484 19.1189 25.385C19.1 25.3736 19.0813 25.3622 19.0626 25.351C18.7665 25.1732 18.4723 25.0104 18.1016 25.0104C17.7353 25.0104 17.4665 25.1865 17.1977 25.3761C17.1833 25.3863 17.1687 25.3966 17.1541 25.407C16.9081 25.5815 16.6425 25.7699 16.3123 25.7445L16.3111 25.7444C15.9825 25.7153 15.6815 25.5147 15.4127 25.3355C15.403 25.3291 15.3933 25.3226 15.3837 25.3162C15.2413 25.2214 15.1063 25.1329 14.9718 25.0674C14.8378 25.0023 14.7109 24.9635 14.5859 24.9635C14.4622 24.9635 14.3078 25.0106 14.135 25.09C13.9642 25.1685 13.7856 25.2736 13.6156 25.3794C13.5522 25.4189 13.4892 25.459 13.4284 25.4978C13.3292 25.561 13.2358 25.6205 13.1556 25.6677C13.0904 25.706 13.0291 25.7393 12.9758 25.7615C12.9683 25.7647 12.9607 25.7677 12.953 25.7705ZM23.6896 26.1927C23.3972 26.1867 23.1906 26.2151 23.0316 26.2657L23.6896 26.1927ZM23.0316 26.2657C22.8707 26.317 22.7645 26.3893 22.6725 26.4606L23.0316 26.2657ZM22.6725 26.4606C22.6531 26.4757 22.6349 26.4902 22.6172 26.5042L22.6725 26.4606ZM22.6172 26.5042C22.5499 26.5579 22.491 26.6047 22.4113 26.6461L22.6172 26.5042ZM22.4113 26.6461C22.3141 26.6965 22.1835 26.7389 21.976 26.7555L22.4113 26.6461ZM21.9931 26.9632C21.5211 27.0048 21.2236 26.8583 20.953 26.714C20.9411 26.7077 20.9294 26.7014 20.9177 26.6951C20.6644 26.5597 20.4359 26.4375 20.0812 26.4479C19.7002 26.459 19.3976 26.5805 19.1064 26.7086C19.0827 26.7191 19.059 26.7296 19.0353 26.7401C18.7723 26.8568 18.5053 26.9753 18.2072 26.9869C17.8691 26.9997 17.496 26.8343 17.1712 26.6844C17.149 26.6742 17.1269 26.664 17.1051 26.6538C16.9629 26.5879 16.8294 26.5261 16.7052 26.4793C16.5607 26.4248 16.442 26.3962 16.349 26.4009C16.247 26.406 16.0675 26.4506 15.8454 26.5208C15.627 26.5899 15.3781 26.6802 15.1427 26.7702C14.9074 26.8601 14.6866 26.9493 14.5246 27.0161C14.4821 27.0336 14.4436 27.0496 14.4101 27.0636L14.5793 27.2163L25.5526 27.2696C25.4468 27.1749 25.2997 27.053 25.1216 26.9306C24.741 26.6688 24.23 26.4121 23.6854 26.401C23.4075 26.3953 23.2254 26.4226 23.0949 26.4642C22.9662 26.5052 22.882 26.5618 22.8002 26.6253C22.7849 26.6371 22.7694 26.6495 22.7534 26.6623C22.6845 26.7173 22.6066 26.7794 22.5072 26.831C22.3813 26.8963 22.223 26.9447 21.9931 26.9632ZM25.8125 27.375L25.8889 27.3042L26.052 27.4803L14.4988 27.4243L14.0283 26.9997L14.1777 26.9355L14.2188 27.0312C14.1777 26.9355 14.1776 26.9355 14.1777 26.9355L14.1826 26.9334L14.1967 26.9274C14.209 26.9222 14.2271 26.9145 14.2504 26.9047C14.2968 26.8851 14.3636 26.8571 14.4452 26.8235C14.6083 26.7563 14.8309 26.6663 15.0683 26.5756C15.3055 26.4849 15.5586 26.393 15.7826 26.3222C16.0028 26.2526 16.2061 26.1995 16.3385 26.1928M25.8125 27.375C25.8889 27.3042 25.889 27.3043 25.8889 27.3042L25.8879 27.3031L25.8854 27.3005C25.8849 27.2999 25.8842 27.2992 25.8834 27.2984C25.8816 27.2964 25.8792 27.2939 25.8763 27.291C25.8684 27.2827 25.8569 27.2709 25.8419 27.2559C25.8119 27.226 25.768 27.1835 25.7119 27.1327C25.5998 27.031 25.4382 26.8954 25.2397 26.7589C24.8449 26.4874 24.2934 26.2051 23.6896 26.1927M17.2585 26.4953C17.5938 26.65 17.92 26.7893 18.1991 26.7787C18.4554 26.7687 18.6863 26.6666 18.9575 26.5467C18.9789 26.5372 19.0006 26.5276 19.0225 26.5179C19.3173 26.3882 19.6513 26.252 20.0751 26.2396C20.4863 26.2277 20.7583 26.3734 21.0102 26.5083C21.0238 26.5157 21.0374 26.5229 21.051 26.5301C21.3115 26.669 21.5654 26.7919 21.976 26.7555M17.2585 26.4953C17.2368 26.4853 17.2151 26.4752 17.1934 26.4651L17.2585 26.4953ZM17.1934 26.4651C17.052 26.3996 16.9106 26.3341 16.7787 26.2844L17.1934 26.4651ZM16.7787 26.2844C16.6279 26.2275 16.476 26.1859 16.3385 26.1928L16.7787 26.2844ZM16.6944 28.3402L20.2225 29.1112L23.2742 28.1993C23.1822 28.1535 23.0661 28.0992 22.9351 28.0456C22.6049 27.9104 22.1922 27.7847 21.8324 27.7994L21.8313 27.7994L21.8303 27.7995C21.4842 27.8067 21.1892 27.9631 20.8873 28.1259L20.8703 28.1351C20.5838 28.2896 20.2793 28.4539 19.9445 28.4241C19.6487 28.4012 19.4271 28.2564 19.2164 28.1188C19.1873 28.0997 19.1584 28.0808 19.1295 28.0624C18.8885 27.9087 18.6274 27.7682 18.2188 27.7682C17.8073 27.7682 17.3805 27.942 17.05 28.1227C16.9086 28.1999 16.787 28.2772 16.6944 28.3402ZM23.5469 28.2266C23.5998 28.1369 23.5998 28.1368 23.5998 28.1368L23.5989 28.1363L23.5965 28.1349C23.5945 28.1338 23.5916 28.1321 23.5878 28.1299C23.5803 28.1256 23.5692 28.1193 23.555 28.1114C23.5266 28.0956 23.4854 28.0732 23.4337 28.0466C23.3304 27.9933 23.1845 27.9226 23.0141 27.8528C22.6766 27.7147 22.2304 27.5749 21.8249 27.5912C21.4239 27.5998 21.088 27.781 20.7937 27.9396L20.7885 27.9425C20.4824 28.1075 20.2301 28.2406 19.9624 28.2166L19.9611 28.2165C19.7216 28.198 19.5466 28.0844 19.3321 27.9452C19.3028 27.9262 19.2727 27.9066 19.2416 27.8868C18.9865 27.7241 18.6851 27.5599 18.2188 27.5599C17.7552 27.5599 17.2914 27.7533 16.95 27.9398C16.778 28.0338 16.6341 28.1278 16.5332 28.1983C16.4855 28.2315 16.4473 28.2596 16.4201 28.2802L16.3333 28.2612V28.6169L16.4718 28.5047L20.2306 29.3263L23.8052 28.2581L23.5998 28.1368L23.5469 28.2266Z" fill="#083D9C"/>
<path fill-rule="evenodd" clip-rule="evenodd" d="M18.4375 18.2422L21.6406 19.1016V14.5312C20.1719 14.6094 18.9531 11.75 21.5391 11.5547C19.0078 11.1797 18.7109 11.8438 18.4141 12.5469L18.4375 18.2422Z" fill="#FF0000"/>
<path fill-rule="evenodd" clip-rule="evenodd" d="M19.0961 11.5586C19.5517 11.3381 20.2838 11.27 21.5534 11.4581C21.6026 11.4654 21.6384 11.5085 21.6367 11.5582C21.6349 11.6079 21.596 11.6483 21.5464 11.6521C20.9175 11.6996 20.5391 11.9073 20.3348 12.1727C20.1305 12.4383 20.0867 12.7797 20.1646 13.124C20.2426 13.4687 20.4413 13.8077 20.7079 14.055C20.9745 14.3024 21.3014 14.4515 21.6354 14.4337C21.6622 14.4323 21.6884 14.4419 21.7078 14.4604C21.7273 14.4788 21.7383 14.5044 21.7383 14.5312V19.1016C21.7383 19.1319 21.7242 19.1606 21.7001 19.179C21.676 19.1975 21.6446 19.2038 21.6153 19.1959L18.4122 18.3365C18.3697 18.3251 18.34 18.2866 18.3398 18.2426L18.3164 12.5473C18.3164 12.5341 18.319 12.521 18.3241 12.5089C18.4723 12.158 18.6323 11.7831 19.0961 11.5586ZM18.5118 12.5665L18.5348 18.1672L21.543 18.9743V14.6299C21.1813 14.6185 20.8439 14.4476 20.5751 14.1982C20.2808 13.9252 20.0611 13.5518 19.9741 13.1671C19.8869 12.7818 19.9315 12.3766 20.18 12.0536C20.3392 11.8468 20.5762 11.681 20.9003 11.5753C20.0276 11.4955 19.5094 11.5755 19.1812 11.7344C18.7964 11.9206 18.6576 12.2219 18.5118 12.5665Z" fill="black"/>
<path fill-rule="evenodd" clip-rule="evenodd" d="M16.2188 21.5619C16.2191 21.454 16.3068 21.3668 16.4147 21.3672L23.6413 21.3906C23.7491 21.391 23.8363 21.4787 23.8359 21.5866C23.8356 21.6944 23.7479 21.7816 23.64 21.7812L16.4134 21.7578C16.3056 21.7575 16.2184 21.6697 16.2188 21.5619Z" fill="#083D9C"/>
<path fill-rule="evenodd" clip-rule="evenodd" d="M17.2569 19.5939C17.3431 19.5977 17.4099 19.6707 17.4061 19.7569L17.3973 19.9575L17.5671 19.752C17.622 19.6855 17.7205 19.6761 17.787 19.7311C17.8536 19.7861 17.8629 19.8846 17.8079 19.9511L17.4075 20.4356L17.7423 20.8829C17.794 20.952 17.7799 21.05 17.7108 21.1017C17.6417 21.1534 17.5438 21.1393 17.4921 21.0702L17.2027 20.6835L16.8783 21.0761C16.8233 21.1426 16.7248 21.152 16.6583 21.097C16.5918 21.042 16.5824 20.9435 16.6374 20.877L17.0101 20.426L16.6327 19.9217C16.581 19.8526 16.5951 19.7547 16.6642 19.703C16.7333 19.6513 16.8312 19.6654 16.8829 19.7345L17.0826 20.0013L17.0939 19.7431C17.0977 19.6569 17.1707 19.5901 17.2569 19.5939ZM18.6241 19.5939C18.7103 19.5977 18.7771 19.6707 18.7733 19.7569L18.7645 19.9575L18.9342 19.752C18.9892 19.6855 19.0877 19.6761 19.1542 19.7311C19.2207 19.7861 19.2301 19.8846 19.1751 19.9511L18.7747 20.4356L19.1095 20.8829C19.1612 20.952 19.1471 21.05 19.078 21.1017C19.0089 21.1534 18.911 21.1393 18.8593 21.0702L18.5699 20.6835L18.2454 21.0761C18.1905 21.1426 18.092 21.152 18.0255 21.097C17.9589 21.042 17.9496 20.9435 18.0046 20.877L18.3773 20.426L17.9999 19.9217C17.9482 19.8526 17.9623 19.7547 18.0314 19.703C18.1005 19.6513 18.1984 19.6654 18.2501 19.7345L18.4497 20.0013L18.4611 19.7431C18.4649 19.6569 18.5378 19.5901 18.6241 19.5939ZM20.013 19.5938C20.0992 19.5967 20.1668 19.6689 20.164 19.7551L20.1574 19.9547L20.3249 19.752C20.3798 19.6855 20.4783 19.6761 20.5448 19.7311C20.6114 19.7861 20.6207 19.8846 20.5658 19.9511L20.1644 20.4367L20.4931 20.8841C20.5442 20.9536 20.5292 21.0514 20.4597 21.1025C20.3902 21.1536 20.2924 21.1386 20.2413 21.0691L19.9592 20.6851L19.6361 21.0761C19.5811 21.1426 19.4826 21.152 19.4161 21.097C19.3496 21.042 19.3402 20.9435 19.3952 20.877L19.7684 20.4254L19.3975 19.9206C19.3464 19.8511 19.3614 19.7533 19.4309 19.7022C19.5005 19.6511 19.5983 19.6661 19.6494 19.7356L19.8433 19.9995L19.8516 19.7449C19.8545 19.6586 19.9267 19.591 20.013 19.5938ZM21.4505 19.5938C21.5367 19.5967 21.6043 19.6689 21.6015 19.7551L21.5946 19.9627L21.7706 19.7515C21.8258 19.6852 21.9244 19.6763 21.9907 19.7315C22.0569 19.7868 22.0659 19.8853 22.0107 19.9516L21.605 20.4384L21.9376 20.8829C21.9893 20.952 21.9752 21.05 21.9061 21.1017C21.837 21.1534 21.7391 21.1393 21.6874 21.0702L21.3993 20.6852L21.0732 21.0766C21.0179 21.1429 20.9194 21.1518 20.8531 21.0966C20.7868 21.0414 20.7778 20.9428 20.8331 20.8765L21.2069 20.428L20.828 19.9217C20.7763 19.8526 20.7904 19.7547 20.8595 19.703C20.9286 19.6513 21.0265 19.6654 21.0782 19.7345L21.2806 20.0049L21.2891 19.7449C21.292 19.6586 21.3642 19.591 21.4505 19.5938ZM22.8411 19.5938C22.9273 19.5967 22.9949 19.6689 22.9921 19.7551L22.9853 19.9627L23.1612 19.7515C23.2165 19.6852 23.315 19.6763 23.3813 19.7315C23.4476 19.7868 23.4565 19.8853 23.4013 19.9516L22.9972 20.4365L23.3286 20.8835C23.38 20.9528 23.3655 21.0507 23.2962 21.1021C23.2269 21.1535 23.129 21.1389 23.0776 21.0696L22.7913 20.6835L22.4638 21.0766C22.4085 21.1429 22.31 21.1518 22.2437 21.0966C22.1774 21.0414 22.1685 20.9428 22.2237 20.8765L22.5998 20.4252L22.2261 19.9212C22.1747 19.8519 22.1892 19.754 22.2585 19.7026C22.3278 19.6512 22.4257 19.6657 22.4771 19.7351L22.6715 19.9972L22.6798 19.7449C22.6826 19.6586 22.7548 19.591 22.8411 19.5938Z" fill="black"/>
<path fill-rule="evenodd" clip-rule="evenodd" d="M11.5625 21.6406L14.6328 21.6562V19.7266L11.1172 19.5625L11.5547 21.6328L11.5625 21.6406ZM11.4062 18.9766L14.6875 19.2891L14.6562 17.9219L11.4531 16.6562L11.4062 18.9766ZM12.0703 16.2422L14.5859 17.4609L14.9453 17.0859C14.9453 17.0859 14.7109 16.9297 14.7266 16.7734C14.7266 16.6328 14.9609 16.6094 14.9609 16.4453C14.9609 16.2969 14.7031 16.2812 14.7031 16.1328C14.6797 15.9766 14.9062 15.7969 14.9062 15.7969L12.6328 13.8281L12.0703 16.2422ZM28.5703 21.6562H25.3281L25.3047 19.7812L28.8672 19.5078L28.5703 21.6562ZM25.3516 19.3359L29.2109 18.8672L28.375 16.6562L25.3281 17.9453L25.3516 19.3359ZM28.1641 16.0469L25.3672 17.5C25.3281 17.3438 25.2891 17.1875 25.1016 17.0625C25.1016 17.0625 25.2734 16.9609 25.2734 16.7891C25.2734 16.6172 25.0469 16.5938 25.0469 16.5C25.0469 16.4062 25.25 16.3125 25.2656 16.0938C25.2422 15.9375 25.0469 15.7344 25.0859 15.6875L27.25 14.0312L28.1484 16.0391L28.1641 16.0469ZM22.1172 19.2969L23.5156 19.2344L23.5391 18.6719L22.1172 19.2969ZM17.875 19.25L16.4062 19.2188V18.6328L17.875 19.25ZM17.8672 19.0781L16.4062 18.3281V17.3516C16.4062 17.3516 16.2344 17.375 16.2578 17.1797C16.2656 16.7734 17.3359 17.9219 17.875 18.2969L17.8672 19.0781ZM22.1172 18.9922V18.3594C22.1172 18.3594 23.4297 17.1719 23.7109 16.9531C23.7109 17.1953 23.5547 17.3828 23.5547 17.3828V18.3203L22.1172 18.9922ZM13.5938 13.6484L15.0703 15.2891C15.1094 15.1328 15.4453 15.1172 15.7891 15.1328C16.1328 15.1641 16.4062 15.1172 16.4062 15.3672C16.4062 15.6016 16.2266 15.5703 16.2266 15.7422C16.2266 15.9141 16.4922 15.8984 16.4922 16.1172C16.4922 16.3359 16.3047 16.2891 16.2969 16.4609C16.2969 16.6016 16.5 16.6172 16.5 16.6172L17.8828 17.9531V16.5156L15.0312 12.0391L13.5938 13.6484ZM15.8594 11.9531L17.7969 15.9141C17.7969 15.9141 17.8203 12.2578 18.1406 12.0625L17.5938 11.0625L15.8594 11.9531ZM24.2734 12.1094L22.1172 15.9609V14.3359C22.1172 14.3359 22.2969 14.0625 22.0156 14.0859C21.7344 14.1094 21.3828 14.0625 21.3828 14.0625L22.25 11.0156L24.2734 12.1094ZM26.4922 13.7578C26.4688 13.8047 25.0312 15.2578 25.0312 15.2578C24.9688 15.0859 24.5312 15.1719 24.125 15.1719C23.7109 15.1719 23.6562 15.3047 23.6719 15.4062C23.7188 15.6953 23.8594 15.4844 23.8594 15.75C23.8594 16.0078 23.6562 15.9062 23.6406 16.1016C23.6562 16.3203 23.9531 16.2656 23.7812 16.4375L22.1172 18.0312V16.5156L25.2109 11.7109L26.4922 13.7578Z" fill="#EF7D08"/>
<path fill-rule="evenodd" clip-rule="evenodd" d="M19.1484 22.3672C18.4531 23.5156 16.5938 23.1797 16.1641 22.3672C16.0312 22.3359 16.1094 17.4062 16.1094 17.4062C16.1094 17.4062 15.8984 17.3125 15.8906 17.1641C15.8828 17.0078 16.1719 17 16.1719 16.8047C16.1719 16.6094 15.875 16.6797 15.8672 16.4922C15.8672 16.2969 16.1875 16.3203 16.1797 16.1484C16.1562 15.9531 15.8203 15.9844 15.8047 15.7969C15.7891 15.6562 16.0391 15.5312 16.1172 15.4688H15.3438C14.9687 15.4688 15.3516 15.5547 15.3438 15.7812C15.3438 15.9219 15.1563 16.0156 15.1406 16.1406C15.1406 16.2656 15.4062 16.3516 15.4141 16.5078C15.4141 16.6406 15.1406 16.6562 15.1484 16.7812C15.1719 16.9922 15.3906 17.0391 15.3906 17.1719C15.3906 17.2969 15.0859 17.3516 15.0859 17.4531L15.1328 22.5156C15.6016 25 18.3672 25.625 19.1484 22.3594V22.3672ZM20.9688 22.3672C21.6719 23.5156 23.5234 23.1797 23.9609 22.3672C24.0938 22.3359 24.0156 17.4062 24.0156 17.4062C24.0156 17.4062 24.2266 17.3125 24.2344 17.1641C24.2422 17.0078 23.9688 17 23.9688 16.8047C23.9688 16.6094 24.25 16.6797 24.2578 16.4922C24.2578 16.2969 23.9609 16.3125 23.9766 16.1328C23.9922 15.9375 24.2188 15.9609 24.2344 15.7812C24.2422 15.625 24.0859 15.5312 24.0156 15.4688H24.7734C25.1562 15.4688 24.7734 15.5547 24.7734 15.7812C24.7734 15.9219 24.9688 16.0156 24.9844 16.1406C24.9844 16.2656 24.7109 16.3516 24.7109 16.5078C24.7109 16.6406 24.9844 16.6562 24.9688 16.7812C24.9531 16.9922 24.7344 17.0391 24.7344 17.1719C24.7344 17.2969 25.0391 17.3516 25.0391 17.4531C25.0234 17.6562 24.9922 22.5156 24.9922 22.5156C24.5156 25 21.7578 25.625 20.9688 22.3594V22.3672Z" fill="#FF0000"/>
<path fill-rule="evenodd" clip-rule="evenodd" d="M15.2257 15.3758C15.2565 15.3724 15.2957 15.3711 15.3438 15.3711H16.1172C16.1587 15.3711 16.1956 15.3973 16.2093 15.4364C16.2231 15.4756 16.2106 15.5191 16.1782 15.545C16.1579 15.5612 16.1291 15.5803 16.1017 15.5984C16.0968 15.6016 16.092 15.6048 16.0872 15.608C16.0533 15.6305 16.0185 15.6543 15.987 15.6796C15.9551 15.7053 15.931 15.7292 15.9163 15.7506C15.9016 15.7718 15.9014 15.7826 15.9017 15.7861C15.9018 15.787 15.9019 15.7879 15.902 15.7888C15.903 15.8012 15.9076 15.8116 15.9265 15.8264C15.9495 15.8442 15.9819 15.8593 16.0294 15.8807C16.0305 15.8812 16.0316 15.8817 16.0328 15.8822C16.0744 15.901 16.1288 15.9255 16.1737 15.9606C16.2233 15.9996 16.2669 16.0558 16.2766 16.1368C16.2769 16.1392 16.2771 16.1416 16.2772 16.144C16.2809 16.2241 16.2434 16.2818 16.198 16.3211C16.161 16.3531 16.1138 16.3768 16.0789 16.3944C16.076 16.3959 16.0732 16.3973 16.0705 16.3987C16.029 16.4196 16.0019 16.4347 15.9838 16.4516C15.9705 16.464 15.9653 16.4742 15.9649 16.4902C15.9658 16.5038 15.9697 16.509 15.9786 16.516C15.9942 16.5283 16.0173 16.5382 16.0589 16.5549C16.06 16.5553 16.061 16.5557 16.0621 16.5562C16.0967 16.5701 16.1478 16.5906 16.1887 16.6255C16.2373 16.6669 16.2695 16.7258 16.2695 16.8047C16.2695 16.9599 16.1498 17.037 16.0833 17.0798L16.0812 17.0811C16.0786 17.0828 16.0761 17.0844 16.0736 17.086C16.0381 17.1088 16.0158 17.1232 16 17.1388C15.9877 17.151 15.9879 17.1556 15.9881 17.1587C15.9881 17.1587 15.9881 17.1588 15.9881 17.1587M15.2257 15.3758C15.2003 15.3786 15.1621 15.3842 15.1315 15.4051L15.2257 15.3758ZM15.1315 15.4051C15.1127 15.418 15.0916 15.4402 15.084 15.4738L15.1315 15.4051ZM15.084 15.4738C15.0767 15.5053 15.0848 15.5318 15.0917 15.5473L15.084 15.4738ZM15.0917 15.5473C15.1036 15.5744 15.125 15.5966 15.1356 15.6077L15.0917 15.5473ZM15.1356 15.6077C15.1438 15.6162 15.1517 15.624 15.1592 15.6316L15.1356 15.6077ZM15.1592 15.6316C15.1796 15.652 15.198 15.6704 15.2152 15.6941L15.1592 15.6316ZM15.2152 15.6941C15.2368 15.7239 15.2471 15.7507 15.2462 15.7779L15.2152 15.6941ZM15.4414 15.783C15.4439 15.6977 15.4094 15.6293 15.3734 15.5795C15.3702 15.5751 15.3669 15.5707 15.3635 15.5664H15.8197C15.7964 15.5884 15.7741 15.6129 15.7556 15.6395C15.7256 15.6829 15.7006 15.7401 15.7075 15.8063C15.7146 15.8869 15.7577 15.9425 15.8066 15.9805C15.8497 16.014 15.9027 16.0379 15.9435 16.0562C15.9454 16.0571 15.9473 16.0579 15.9491 16.0588C15.996 16.0799 16.0292 16.0955 16.0532 16.1143C16.072 16.1291 16.0796 16.1415 16.0822 16.1564C16.082 16.1606 16.0801 16.1648 16.0703 16.1733C16.0525 16.1887 16.026 16.2023 15.9823 16.2244C15.9446 16.2434 15.8919 16.2701 15.8504 16.3089C15.8045 16.3519 15.7695 16.4116 15.7695 16.4922C15.7695 16.4935 15.7696 16.4949 15.7696 16.4963C15.7729 16.5748 15.809 16.631 15.8576 16.6693C15.8972 16.7005 15.9458 16.72 15.9794 16.7335C15.9817 16.7344 15.9839 16.7352 15.986 16.7361C16.0265 16.7524 16.0483 16.7625 16.0621 16.7742C16.0694 16.7804 16.0742 16.786 16.0742 16.8047C16.0742 16.8431 16.052 16.8676 15.9755 16.9169C15.9722 16.919 15.9687 16.9212 15.9651 16.9235C15.9345 16.9431 15.894 16.969 15.8625 17.0001C15.8235 17.0388 15.7893 17.094 15.7931 17.1689C15.7993 17.2876 15.884 17.3718 15.9428 17.4178C15.967 17.4367 15.9908 17.4522 16.0108 17.4642C16.0103 17.5002 16.0095 17.5518 16.0086 17.6168C16.0068 17.7517 16.0042 17.9445 16.0016 18.1759C15.9963 18.6387 15.9907 19.2562 15.9893 19.8748C15.9878 20.4931 15.9905 21.1133 16.0019 21.5812C16.0075 21.8149 16.0154 22.0121 16.0262 22.1525C16.0316 22.2223 16.0378 22.2807 16.0454 22.3234C16.0491 22.3442 16.0538 22.3655 16.0605 22.3838C16.0638 22.3926 16.0691 22.4053 16.0778 22.4179C16.0797 22.4207 16.0826 22.4245 16.0864 22.4288C16.3292 22.8676 16.9338 23.1572 17.5499 23.2C18.0325 23.2334 18.5455 23.1173 18.9264 22.7835C18.4999 24.0592 17.7328 24.5449 17.0302 24.4963C16.2421 24.4419 15.4614 23.7143 15.2304 22.506L15.1837 17.4687C15.1858 17.4669 15.1885 17.4647 15.192 17.4621C15.2118 17.4473 15.2387 17.4325 15.2746 17.4128C15.2781 17.4108 15.2817 17.4088 15.2854 17.4068C15.3224 17.3864 15.3691 17.3603 15.4063 17.3287C15.4426 17.2978 15.4883 17.2462 15.4883 17.1719C15.4883 17.1089 15.4615 17.0602 15.4326 17.0239C15.4105 16.9958 15.3817 16.969 15.3584 16.9471C15.3539 16.9429 15.3496 16.9389 15.3455 16.935C15.2935 16.8856 15.2573 16.8439 15.247 16.7815C15.2479 16.7807 15.249 16.7797 15.2504 16.7785C15.2651 16.7658 15.2878 16.7532 15.3245 16.7335C15.3255 16.733 15.3265 16.7324 15.3275 16.7319C15.3586 16.7152 15.4012 16.6924 15.4354 16.6628C15.4729 16.6303 15.5117 16.5798 15.5117 16.5078C15.5117 16.5062 15.5117 16.5046 15.5116 16.5029C15.5082 16.4355 15.4771 16.3814 15.4438 16.3405C15.4112 16.3003 15.3703 16.2656 15.3373 16.2377C15.3347 16.2356 15.3321 16.2334 15.3296 16.2313C15.2972 16.2041 15.2729 16.1837 15.2552 16.1638C15.2461 16.1536 15.2418 16.1468 15.2398 16.143C15.2427 16.1344 15.2484 16.1228 15.2592 16.1071C15.2731 16.0871 15.2901 16.0675 15.3115 16.0427C15.3149 16.0388 15.3184 16.0348 15.322 16.0306L15.3235 16.0289C15.3682 15.977 15.4407 15.893 15.4414 15.783ZM19.2372 22.408C19.243 22.3952 19.2461 22.3813 19.2461 22.3672V22.3594C19.2461 22.3099 19.209 22.2682 19.1599 22.2624C19.1116 22.2567 19.0666 22.2874 19.0541 22.3342C18.7289 22.8541 18.1389 23.045 17.5634 23.0051C16.976 22.9644 16.4433 22.6863 16.2504 22.3215C16.2478 22.3166 16.2448 22.312 16.2414 22.3076C16.2404 22.3032 16.2391 22.2972 16.2377 22.2892C16.2319 22.2563 16.2262 22.2056 16.221 22.1376C16.2106 22.0024 16.2028 21.8093 16.1971 21.5765C16.1858 21.1113 16.1831 20.4932 16.1846 19.8752C16.186 19.2575 16.1916 18.6406 16.1969 18.1781C16.1995 17.9469 16.202 17.7543 16.2039 17.6195C16.2049 17.5521 16.2056 17.4992 16.2062 17.4631L16.207 17.4079C16.207 17.4078 16.207 17.4078 16.1094 17.4062L16.207 17.4079C16.2076 17.3688 16.1849 17.3331 16.1493 17.3171M19.2372 22.408C18.8378 24.0452 17.9278 24.7542 17.0167 24.6912C16.1113 24.6286 15.2767 23.8048 15.0368 22.5337C15.0358 22.5281 15.0352 22.5223 15.0352 22.5165L14.9883 17.4531C14.9883 17.377 15.0441 17.3289 15.0751 17.3057C15.1066 17.2821 15.1464 17.2603 15.1793 17.2423C15.1833 17.24 15.1873 17.2379 15.1911 17.2358C15.2303 17.2141 15.2598 17.1968 15.2798 17.1799C15.2867 17.174 15.2905 17.1698 15.2924 17.1673C15.2914 17.163 15.2883 17.1562 15.2795 17.1451C15.2672 17.1295 15.2515 17.1148 15.2286 17.0932C15.2232 17.0881 15.2174 17.0827 15.2111 17.0767C15.151 17.0196 15.0672 16.9343 15.0514 16.792C15.0512 16.7905 15.0511 16.7889 15.051 16.7873C15.0464 16.7137 15.086 16.6622 15.1229 16.6305C15.1555 16.6024 15.1969 16.5803 15.2272 16.564C15.2289 16.5631 15.2306 16.5623 15.2322 16.5614C15.2682 16.5421 15.2918 16.5288 15.3075 16.5152C15.312 16.5113 15.3145 16.5085 15.3158 16.5068C15.3139 16.4966 15.3078 16.4829 15.2923 16.4637C15.2729 16.4399 15.2459 16.4161 15.2116 16.3873C15.2085 16.3847 15.2053 16.382 15.2021 16.3793C15.1726 16.3546 15.1372 16.325 15.1094 16.2937C15.0786 16.2593 15.043 16.2077 15.043 16.1406C15.043 16.1366 15.0432 16.1325 15.0437 16.1285C15.0504 16.0751 15.0747 16.0306 15.0987 15.9959C15.119 15.9665 15.1439 15.9379 15.1647 15.9139C15.1679 15.9101 15.1711 15.9065 15.1741 15.903C15.2269 15.8418 15.2461 15.8098 15.2461 15.7812C15.2461 15.7801 15.2461 15.779 15.2462 15.7779M23.9243 15.434C23.9388 15.3961 23.9751 15.3711 24.0156 15.3711H24.7734C24.8224 15.3711 24.8624 15.3724 24.8937 15.3758C24.9201 15.3786 24.9577 15.3841 24.9879 15.4037C25.0062 15.4155 25.028 15.4364 25.0371 15.4694C25.046 15.5012 25.0388 15.5287 25.0319 15.5453C25.0201 15.5737 24.9981 15.5966 24.9874 15.6077C24.9782 15.6173 24.9694 15.626 24.9609 15.6344C24.9411 15.654 24.9231 15.6719 24.9054 15.6954C24.8825 15.726 24.8711 15.7535 24.8711 15.7812C24.8711 15.8084 24.8903 15.8398 24.9458 15.9016C24.9488 15.905 24.952 15.9086 24.9553 15.9122C24.977 15.9363 25.0029 15.965 25.0242 15.9946C25.049 16.0292 25.0745 16.0741 25.0813 16.1285C25.0818 16.1325 25.082 16.1366 25.082 16.1406C25.082 16.2087 25.0449 16.2605 25.0138 16.2946C24.986 16.3251 24.9506 16.3542 24.9211 16.3785C24.9173 16.3816 24.9136 16.3847 24.91 16.3877C24.8752 16.4165 24.8485 16.44 24.8299 16.4632C24.8131 16.4841 24.8091 16.4974 24.8086 16.5061C24.8098 16.5078 24.8123 16.5107 24.8175 16.5153C24.8333 16.529 24.8566 16.5422 24.8924 16.5617L24.8965 16.5639C24.9265 16.5802 24.9682 16.6029 25.0004 16.6319C25.0371 16.665 25.074 16.7177 25.066 16.7907C25.0547 16.933 24.9729 17.0188 24.9135 17.0761C24.9065 17.083 24.9 17.0891 24.894 17.0948C24.8724 17.1154 24.8575 17.1296 24.8455 17.1449C24.8367 17.1561 24.8336 17.163 24.8326 17.1673C24.8345 17.1698 24.8383 17.174 24.8452 17.1799C24.8652 17.1968 24.8947 17.2141 24.9339 17.2358C24.9377 17.2379 24.9417 17.24 24.9457 17.2423C24.9786 17.2603 25.0184 17.2821 25.0499 17.3057C25.0809 17.3289 25.1367 17.377 25.1367 17.4531C25.1367 17.4556 25.1366 17.4581 25.1364 17.4606C25.129 17.5577 25.1172 18.8173 25.1074 20.0613C25.1025 20.6814 25.0981 21.2951 25.095 21.7538C25.0934 21.9832 25.0921 22.1738 25.0912 22.3071L25.0898 22.516C25.0898 22.5161 25.0898 22.5163 24.9922 22.5156L25.0898 22.516C25.0898 22.522 25.0892 22.5282 25.0881 22.534C24.8443 23.8048 24.0098 24.6286 23.1044 24.6912C22.1933 24.7542 21.2834 24.0453 20.8802 22.4083C20.8742 22.3954 20.8711 22.3814 20.8711 22.3672V22.3594C20.8711 22.3099 20.9081 22.2683 20.9572 22.2624C21.0054 22.2567 21.0504 22.2872 21.063 22.3338C21.392 22.8542 21.9823 23.045 22.5577 23.0051C23.1449 22.9644 23.6781 22.6864 23.875 22.3209C23.8775 22.3162 23.8804 22.3118 23.8836 22.3076C23.8846 22.3032 23.8859 22.2972 23.8873 22.2892C23.8931 22.2563 23.8988 22.2056 23.904 22.1376C23.9144 22.0024 23.9222 21.8093 23.9279 21.5765C23.9392 21.1113 23.9419 20.4932 23.9404 19.8752C23.939 19.2575 23.9334 18.6406 23.9281 18.1781C23.9255 17.9469 23.9229 17.7543 23.9211 17.6195C23.9201 17.5521 23.9194 17.4992 23.9188 17.4631L23.918 17.408C23.918 17.408 23.918 17.4078 24.0156 17.4062L23.918 17.408C23.9174 17.3689 23.9401 17.333 23.9758 17.3171C23.9758 17.3171 23.9757 17.3171 23.9758 17.3171C23.9767 17.3167 23.9793 17.3155 23.9815 17.3144C23.986 17.3121 23.9928 17.3087 24.0011 17.304C24.018 17.2946 24.0401 17.281 24.0619 17.2639C24.1105 17.2259 24.1352 17.1888 24.1368 17.159C24.1371 17.1538 24.1369 17.1488 24.1255 17.1368C24.1108 17.1215 24.0901 17.1074 24.0563 17.0844L24.0485 17.079C23.9843 17.0353 23.8711 16.9582 23.8711 16.8047C23.8711 16.7277 23.9008 16.6692 23.9475 16.6272C23.987 16.5918 24.0363 16.5709 24.0692 16.5569L24.0722 16.5556C24.1118 16.5388 24.1328 16.5293 24.1469 16.5175C24.1546 16.5112 24.1591 16.5057 24.1601 16.4901C24.1594 16.4568 24.1407 16.4377 24.0614 16.3906C24.0596 16.3895 24.0578 16.3884 24.0559 16.3873C24.0234 16.368 23.978 16.3411 23.9433 16.3047C23.9015 16.2609 23.8726 16.2016 23.8792 16.1247C23.8911 15.9784 23.9886 15.9124 24.0494 15.8712L24.0507 15.8703C24.1154 15.8265 24.1332 15.8109 24.1369 15.7746C24.1384 15.7341 24.12 15.6967 24.0825 15.6561C24.0636 15.6356 24.0418 15.6165 24.0186 15.5975C24.0122 15.5922 24.0049 15.5864 23.9975 15.5804C23.9813 15.5674 23.964 15.5535 23.9507 15.5417C23.9204 15.5148 23.9099 15.4719 23.9243 15.434ZM24.1142 17.4642C24.1147 17.5002 24.1155 17.5518 24.1164 17.6168C24.1182 17.7517 24.1208 17.9445 24.1234 18.1759C24.1287 18.6387 24.1343 19.2562 24.1357 19.8748C24.1372 20.4931 24.1345 21.1133 24.1231 21.5812C24.1175 21.8149 24.1096 22.0121 24.0988 22.1525C24.0934 22.2223 24.0872 22.2807 24.0796 22.3234C24.0759 22.3442 24.0712 22.3655 24.0645 22.3838C24.0612 22.3926 24.0559 22.4053 24.0472 22.4179C24.0452 22.4208 24.0422 22.4248 24.0382 22.4293C23.7918 22.8674 23.1876 23.1572 22.5712 23.2C22.0878 23.2335 21.5741 23.1169 21.1914 22.7821C21.6207 24.0588 22.388 24.5449 23.0909 24.4963C23.8789 24.4419 24.6597 23.7143 24.8946 22.506L24.8959 22.3058C24.8968 22.1725 24.8981 21.9819 24.8997 21.7525C24.9028 21.2937 24.9072 20.6799 24.9121 20.0598C24.9214 18.8813 24.9324 17.6708 24.9405 17.4681C24.9386 17.4664 24.9361 17.4644 24.933 17.4621C24.9132 17.4473 24.8863 17.4325 24.8504 17.4128C24.8469 17.4108 24.8433 17.4088 24.8396 17.4068C24.8026 17.3864 24.7559 17.3603 24.7187 17.3287C24.6824 17.2978 24.6367 17.2462 24.6367 17.1719C24.6367 17.109 24.6635 17.0603 24.6921 17.0241C24.7136 16.9967 24.7416 16.9701 24.7642 16.9486C24.769 16.9441 24.7736 16.9397 24.7779 16.9356C24.8304 16.8849 24.8649 16.8431 24.871 16.7782C24.8706 16.7779 24.8702 16.7775 24.8697 16.777C24.8566 16.7652 24.8352 16.7529 24.799 16.7332L24.7951 16.7311C24.7646 16.7146 24.7229 16.6919 24.6893 16.6627C24.652 16.6302 24.6133 16.5797 24.6133 16.5078C24.6133 16.4384 24.6441 16.3827 24.6775 16.341C24.7101 16.3003 24.7517 16.2652 24.7853 16.2373C24.7891 16.2342 24.7928 16.2312 24.7963 16.2282C24.8279 16.2021 24.8517 16.1824 24.8695 16.1629C24.8784 16.1532 24.8828 16.1466 24.885 16.1428C24.882 16.1347 24.8763 16.1235 24.8655 16.1085C24.8511 16.0884 24.8333 16.0687 24.811 16.0438C24.8075 16.04 24.804 16.0361 24.8003 16.032L24.7983 16.0297C24.752 15.9781 24.6758 15.8931 24.6758 15.7812C24.6758 15.6957 24.7122 15.6276 24.7491 15.5783C24.7521 15.5743 24.7552 15.5703 24.7583 15.5664H24.2615C24.303 15.6229 24.3364 15.6959 24.3319 15.7861C24.3318 15.7873 24.3318 15.7885 24.3317 15.7897C24.3199 15.9249 24.2255 15.9882 24.1687 16.0263C24.1658 16.0283 24.1629 16.0302 24.1602 16.032C24.0999 16.0729 24.0777 16.0928 24.0739 16.1406C24.0728 16.1533 24.0752 16.16 24.0846 16.1699C24.0991 16.1851 24.1218 16.1992 24.1612 16.2227C24.1636 16.2241 24.1661 16.2256 24.1686 16.2271C24.2344 16.2659 24.3555 16.3375 24.3555 16.4922C24.3555 16.4935 24.3554 16.4949 24.3554 16.4963C24.3522 16.5729 24.3187 16.6287 24.2718 16.6678C24.2336 16.6995 24.1867 16.7193 24.1548 16.7327C24.1527 16.7336 24.1506 16.7345 24.1485 16.7354C24.1101 16.7517 24.0904 16.7614 24.0781 16.7725C24.0719 16.7781 24.0664 16.784 24.0664 16.8047C24.0664 16.8456 24.0887 16.8701 24.1595 16.9183C24.1626 16.9204 24.1658 16.9226 24.1692 16.9249C24.1981 16.9444 24.2369 16.9706 24.2669 17.0021C24.3044 17.0415 24.3356 17.0961 24.3319 17.1689C24.3257 17.2876 24.241 17.3718 24.1822 17.4178C24.158 17.4367 24.1342 17.4522 24.1142 17.4642Z" fill="black"/>
<path fill-rule="evenodd" clip-rule="evenodd" d="M18.4766 24.6328H21.5859C21.6094 24.6094 20.8828 23.5547 20.0234 23.6328C19.0703 23.6562 18.4219 24.6328 18.4766 24.6328ZM28.3828 24.5547H24.1328C24.1328 24.5547 24.6797 24.2344 24.8359 23.9297C25.1094 24.0859 25.0312 24.2344 25.5781 24.2578C26.125 24.2812 26.6562 23.6328 27.1797 23.6562C27.7031 23.6797 28.3828 24.5781 28.3828 24.5547ZM11.6328 24.5547H15.8828C15.8828 24.5547 15.3359 24.2344 15.1797 23.9297C14.9062 24.0859 14.9844 24.2344 14.4297 24.2578C13.8828 24.2812 13.3594 23.6328 12.8281 23.6562C12.3047 23.6797 11.6328 24.5781 11.6328 24.5547ZM11.9453 23.2266L14.9766 23.2422C14.9766 23.2422 14.7812 22.8281 14.7578 22.3203C13.9766 22.0469 13.3359 22.9062 12.7812 22.9297C12.2188 22.9531 11.6328 22.3203 11.6328 22.3203L11.9453 23.2188V23.2266ZM28.1172 23.2266L25.0859 23.2422C25.0859 23.2422 25.2812 22.8281 25.3047 22.3203C26.0859 22.0469 26.7188 22.9062 27.2812 22.9297C27.8438 22.9531 28.4297 22.3203 28.4297 22.3203L28.1172 23.2188V23.2266ZM19.25 23.2422L20.7891 23.1953C20.7891 23.1953 20.8125 22.7266 20.0078 22.7266C19.2031 22.7266 19.2734 23.2734 19.25 23.2422ZM18.3125 22.5859C18.5859 22.4375 18.8359 22.2891 19 21.9531L17.9531 21.9766C17.9531 21.9766 17.4688 22.2656 17.2188 22.5859H18.3125ZM21.7109 22.5859C21.4199 22.457 21.1806 22.2342 21.0313 21.9531L22.0781 21.9766C22.0781 21.9766 22.5703 22.2656 22.8125 22.5859H21.7109Z" fill="#083D9C"/>
<path fill-rule="evenodd" clip-rule="evenodd" d="M20.8558 21.845L22.1075 21.873L22.1309 21.8867L22.0781 21.9766C22.1309 21.8867 22.1309 21.8867 22.1309 21.8867L22.1327 21.8878L22.1372 21.8905C22.1412 21.8929 22.1469 21.8963 22.1541 21.9008C22.1687 21.9097 22.1895 21.9226 22.2152 21.9391C22.2664 21.9721 22.3373 22.0194 22.416 22.0771C22.5716 22.1911 22.7651 22.3506 22.8956 22.5231L23.0219 22.6901H21.6889L21.6687 22.6812C21.3564 22.5428 21.0996 22.3037 20.9393 22.002L20.8558 21.845ZM22.048 22.0801L21.2216 22.0616C21.3531 22.2422 21.529 22.3872 21.7334 22.4818H22.5784C22.4878 22.3948 22.3861 22.3134 22.2929 22.2452C22.2183 22.1905 22.151 22.1456 22.1025 22.1143C22.0798 22.0998 22.0612 22.0882 22.048 22.0801ZM19.1687 21.8452L19.0936 21.9988C18.9141 22.3663 18.6378 22.5279 18.3622 22.6775L18.3389 22.6901H17.0053L17.1366 22.5218C17.2705 22.3503 17.4633 22.1913 17.6179 22.0773C17.696 22.0197 17.7661 21.9724 17.8167 21.9394C17.842 21.9229 17.8626 21.91 17.8769 21.9011C17.884 21.8967 17.8896 21.8932 17.8935 21.8909L17.898 21.8882L17.8992 21.8874C17.8992 21.8874 17.8997 21.8871 17.9531 21.9766L17.8992 21.8874L17.9233 21.873L19.1687 21.8452ZM17.9836 22.0801C17.9706 22.0882 17.9525 22.0996 17.9304 22.114C17.8824 22.1453 17.8157 22.1903 17.7415 22.245C17.6491 22.3131 17.5474 22.3945 17.4558 22.4818H18.286C18.4967 22.3667 18.6776 22.2557 18.8154 22.0614L17.9836 22.0801ZM25.4042 22.3986C25.3859 22.6346 25.3345 22.8461 25.286 23.0025C25.2703 23.0534 25.2547 23.0986 25.2406 23.1372L28.0403 23.1228L28.1997 22.6646C28.1765 22.6824 28.1522 22.7005 28.1271 22.7185C27.906 22.8768 27.5945 23.047 27.2769 23.0338C27.1124 23.0269 26.9505 22.9597 26.7963 22.8782C26.709 22.8321 26.6145 22.7757 26.5206 22.7197C26.4538 22.6798 26.3873 22.6401 26.3239 22.6044C26.0217 22.4344 25.7241 22.314 25.4042 22.3986ZM28.3534 22.2496L28.5281 22.3545L28.2214 23.2363V23.3302L24.9212 23.3472L24.9917 23.1978L24.9933 23.1943C24.9946 23.1916 24.9965 23.1873 24.9989 23.1817C25.0039 23.1703 25.0112 23.1532 25.0201 23.1309C25.0379 23.0863 25.0621 23.0213 25.087 22.9408C25.1371 22.7794 25.1894 22.558 25.2006 22.3155L25.2039 22.2452L25.2703 22.222C25.7067 22.0692 26.0963 22.2373 26.4261 22.4229C26.5012 22.4652 26.5704 22.5066 26.6371 22.5465C26.7245 22.5988 26.8074 22.6485 26.8936 22.694C27.0407 22.7718 27.1689 22.8207 27.2856 22.8256C27.5305 22.8358 27.7933 22.7013 28.0058 22.5491C28.1098 22.4746 28.1972 22.3992 28.2586 22.3424C28.2892 22.314 28.3133 22.2904 28.3295 22.2741C28.3376 22.2659 28.3437 22.2596 28.3477 22.2554C28.3497 22.2533 28.3512 22.2517 28.3521 22.2507L28.3534 22.2496C28.3533 22.2495 28.3534 22.2496 28.3534 22.2496ZM13.6336 22.4228C13.9643 22.2372 14.3558 22.0693 14.7922 22.222L14.8586 22.2452L14.8619 22.3155C14.8731 22.558 14.9254 22.7794 14.9755 22.9408C15.0004 23.0213 15.0246 23.0863 15.0424 23.1309C15.0513 23.1532 15.0586 23.1703 15.0636 23.1817C15.066 23.1873 15.0679 23.1916 15.0692 23.1943L15.0705 23.1972L15.1413 23.3472L11.8411 23.3302V23.2363L11.5344 22.3545L11.7091 22.2496C11.7091 22.2496 11.7092 22.2495 11.7091 22.2496L11.7104 22.2507C11.7113 22.2517 11.7128 22.2533 11.7148 22.2554C11.7188 22.2596 11.7249 22.2659 11.733 22.2741C11.7492 22.2904 11.7732 22.314 11.8039 22.3424C11.8653 22.3992 11.9528 22.4746 12.0567 22.5491C12.2692 22.7013 12.532 22.8358 12.7769 22.8256M11.8628 22.6646C11.886 22.6824 11.9103 22.7005 11.9354 22.7185C12.1565 22.8768 12.468 23.047 12.7856 23.0338C12.9483 23.0269 13.1094 22.9595 13.263 22.8782C13.3407 22.837 13.4194 22.7906 13.4977 22.744C13.5085 22.7375 13.5193 22.7311 13.5301 22.7247C13.5982 22.684 13.6662 22.6434 13.7355 22.6045C14.0387 22.4344 14.3382 22.314 14.6583 22.3986C14.6766 22.6346 14.728 22.8461 14.7765 23.0025C14.7922 23.0534 14.8078 23.0986 14.8219 23.1372L12.0222 23.1228L11.8628 22.6646ZM13.6336 22.4228C13.5616 22.4632 13.491 22.5054 13.423 22.5459L13.6336 22.4228ZM13.423 22.5459C13.4123 22.5523 13.4017 22.5587 13.3911 22.565L13.423 22.5459ZM13.3911 22.565C13.3127 22.6117 13.238 22.6556 13.1655 22.6941L13.3911 22.565ZM13.1655 22.6941C13.0185 22.7719 12.8914 22.8208 12.7769 22.8256L13.1655 22.6941ZM19.2485 22.9395C19.3581 22.7701 19.5792 22.6224 20.0078 22.6224C20.4303 22.6224 20.6606 22.7462 20.7812 22.8955C20.8401 22.9684 20.8683 23.042 20.8815 23.0981C20.8882 23.1262 20.8911 23.15 20.8924 23.1676C20.893 23.1764 20.8933 23.1837 20.8933 23.1893C20.8933 23.1921 20.8933 23.1944 20.8932 23.1963L20.8932 23.1988L20.8931 23.2001C20.8931 23.2002 20.8931 23.2005 20.7891 23.1953L20.8931 23.2001L20.8883 23.2965L19.2717 23.3457C19.238 23.3523 19.2105 23.3411 19.1943 23.3306C19.1796 23.321 19.1706 23.31 19.1667 23.3047L19.0463 23.1442L19.1659 23.1405C19.1776 23.0868 19.2003 23.014 19.2485 22.9395ZM19.3838 23.1339L20.6614 23.095C20.6518 23.0735 20.6383 23.05 20.6192 23.0264C20.5504 22.9413 20.39 22.8307 20.0078 22.8307C19.6317 22.8307 19.4857 22.9565 19.4234 23.0527C19.4055 23.0804 19.3928 23.1081 19.3838 23.1339ZM20.685 23.1916C20.685 23.1917 20.685 23.1917 20.685 23.1916ZM21.6907 24.6313C21.6906 24.642 21.6891 24.677 21.6596 24.7065L21.6291 24.737H18.4766C18.4555 24.737 18.4278 24.7306 18.4042 24.7089C18.3819 24.6886 18.374 24.6644 18.3711 24.6493C18.3661 24.6229 18.3722 24.6008 18.374 24.5941C18.3792 24.5754 18.3884 24.5566 18.3965 24.5415C18.414 24.5088 18.4417 24.4662 18.4774 24.4179C18.5493 24.3207 18.6597 24.1926 18.8024 24.0642C19.0854 23.8094 19.5075 23.5424 20.0175 23.5288C20.4899 23.4873 20.9133 23.7551 21.2053 24.0172C21.3537 24.1504 21.4734 24.2867 21.5549 24.3919C21.5955 24.4444 21.6275 24.4901 21.6491 24.5248C21.6597 24.5417 21.6691 24.5581 21.6759 24.5724C21.679 24.5789 21.6835 24.5892 21.6866 24.6009C21.6881 24.6063 21.6907 24.6174 21.6907 24.6313ZM21.0662 24.1722C20.7866 23.9213 20.4184 23.7015 20.0329 23.7366L20.0294 23.7369L20.026 23.7369C19.5844 23.7478 19.2069 23.9803 18.9418 24.219C18.8166 24.3317 18.7191 24.4435 18.6547 24.5286H21.3972C21.3949 24.5256 21.3926 24.5226 21.3902 24.5195C21.3152 24.4227 21.2039 24.2959 21.0662 24.1722ZM14.0642 24.0746C14.1906 24.1283 14.3097 24.1587 14.4252 24.1537C14.6944 24.1424 14.7899 24.1012 14.8499 24.0586C14.8758 24.0402 14.896 24.0213 14.923 23.9961C14.9326 23.9872 14.9431 23.9774 14.955 23.9666C14.9982 23.9272 15.0508 23.8834 15.128 23.8392L15.2226 23.7852L15.2724 23.8822C15.3387 24.0115 15.4968 24.1555 15.6527 24.2734C15.7283 24.3305 15.7994 24.3786 15.8516 24.4124C15.8776 24.4293 15.8988 24.4426 15.9134 24.4515C15.9207 24.456 15.9264 24.4594 15.9301 24.4616L15.9343 24.4641L15.9353 24.4647L16.2668 24.6589H11.6421C11.6226 24.6605 11.5922 24.6578 11.5643 24.6335C11.5302 24.6036 11.5286 24.5653 11.5286 24.5547V24.4505H11.5883C11.5934 24.4447 11.5991 24.438 11.6055 24.4306C11.6224 24.4109 11.6437 24.3862 11.6676 24.3589C11.7397 24.2765 11.8423 24.1632 11.9619 24.048C12.0813 23.9332 12.2199 23.8143 12.3645 23.722C12.5075 23.6308 12.666 23.5592 12.8235 23.5522C12.9781 23.5454 13.1269 23.5876 13.2669 23.648C13.4034 23.707 13.5388 23.7866 13.6678 23.8625L13.6759 23.8672C13.8098 23.946 13.9372 24.0205 14.0642 24.0746ZM11.8646 24.4505H15.5416C15.5368 24.4469 15.5319 24.4432 15.527 24.4395C15.4 24.3435 15.2488 24.2145 15.1482 24.0757C15.1288 24.0907 15.1117 24.1056 15.0953 24.1206C15.0879 24.1273 15.0802 24.1345 15.0721 24.1421C15.0427 24.1696 15.0088 24.2013 14.9704 24.2285C14.8625 24.3051 14.7196 24.3498 14.4341 24.3619C14.2762 24.3687 14.1248 24.3267 13.9827 24.2663C13.8411 24.206 13.702 24.1243 13.5702 24.0468L13.568 24.0455C13.4347 23.9671 13.3088 23.8931 13.1843 23.8393C13.0596 23.7855 12.9438 23.7554 12.8328 23.7603M11.8646 24.4505C11.9302 24.3771 12.013 24.288 12.1064 24.1981C12.2205 24.0883 12.348 23.9797 12.4766 23.8976C12.6068 23.8146 12.7285 23.765 12.8328 23.7603M26.0261 24.2663C25.8834 24.3268 25.7316 24.3687 25.5737 24.3619C25.2917 24.3498 25.1507 24.305 25.0438 24.2282C25.0063 24.2013 24.9729 24.1699 24.9439 24.1427C24.9356 24.1349 24.9277 24.1274 24.9201 24.1205C24.9038 24.1056 24.8867 24.0907 24.8675 24.0757C24.7668 24.2145 24.6156 24.3435 24.4886 24.4395C24.4837 24.4432 24.4788 24.4469 24.474 24.4505H28.1494C28.0832 24.3772 27.9996 24.2881 27.9056 24.1984C27.7906 24.0886 27.662 23.9799 27.5327 23.8978C27.4016 23.8146 27.2794 23.765 27.175 23.7603C27.0662 23.7554 26.9514 23.7853 26.8269 23.8392C26.7035 23.8927 26.5784 23.966 26.4456 24.0438L26.4404 24.0469C26.3081 24.1244 26.1682 24.2061 26.0261 24.2663ZM28.4269 24.4505C28.4216 24.4445 28.4155 24.4375 28.4088 24.4297C28.3918 24.4101 28.3704 24.3856 28.3465 24.3585C28.2736 24.2761 28.1701 24.1628 28.0495 24.0477C27.9292 23.9329 27.7896 23.8141 27.6443 23.7219C27.5007 23.6307 27.3417 23.5592 27.1843 23.5522C27.0315 23.5453 26.8835 23.5877 26.7441 23.6481C26.609 23.7066 26.4743 23.7855 26.3457 23.8609L26.335 23.8672C26.2007 23.9459 26.0725 24.0204 25.9448 24.0745C25.8177 24.1283 25.6981 24.1587 25.5826 24.1537C25.3176 24.1424 25.2243 24.1013 25.1652 24.0589C25.1399 24.0408 25.1201 24.0222 25.0938 23.9975C25.0839 23.9882 25.0731 23.978 25.0606 23.9667C25.0175 23.9273 24.9648 23.8834 24.8876 23.8392L24.793 23.7852L24.7432 23.8822C24.6769 24.0115 24.5188 24.1555 24.3629 24.2734C24.2873 24.3305 24.2163 24.3786 24.1641 24.4124C24.138 24.4293 24.1168 24.4426 24.1022 24.4515C24.0949 24.456 24.0892 24.4594 24.0855 24.4616L24.0813 24.4641L24.0802 24.4648L23.7489 24.6589H28.3734C28.3927 24.6605 28.423 24.6579 28.4508 24.6338C28.4853 24.604 28.487 24.5656 28.487 24.5547V24.4505H28.4269Z" fill="#083D9C"/>
<path fill-rule="evenodd" clip-rule="evenodd" d="M-10 30H50V40H-10V30ZM-10 0H50V10H-10V0Z" fill="#DE2010"/>
</g>
<defs>
<clipPath id="clip0_17544_66364">
<path d="M0 20C0 8.95431 8.95431 0 20 0C31.0457 0 40 8.95431 40 20C40 31.0457 31.0457 40 20 40C8.95431 40 0 31.0457 0 20Z" fill="white"/>
</clipPath>
</defs>
</svg>
