<svg width="40" height="40" viewBox="0 0 40 40" fill="none" xmlns="http://www.w3.org/2000/svg">
<g clip-path="url(#clip0_17544_62131)">
<path d="M0 0H40V40H0V0Z" fill="white"/>
<path d="M16.0156 0H23.9844V40H16.0156V0Z" fill="#FF0000"/>
<path d="M0 16.0156H40V23.9844H0V16.0156Z" fill="#FF0000"/>
<path fill-rule="evenodd" clip-rule="evenodd" d="M8.91406 31.0859C9 29.6797 9.25 28.4766 9.25 28.4766C9.25 28.4766 8.42188 28.5547 8.00781 28.5547C7.59375 28.5547 6.76562 28.4766 6.76562 28.4766C6.76562 28.4766 7.01562 29.6719 7.10156 31.0859C5.69531 31 4.49219 30.75 4.49219 30.75C4.49219 30.75 4.57031 31.375 4.57031 31.9922C4.57031 32.6094 4.49219 33.2344 4.49219 33.2344C4.49219 33.2344 5.6875 32.9844 7.10156 32.8984C7.01562 34.3047 6.76562 35.5078 6.76562 35.5078C6.76562 35.5078 7.39062 35.4297 8.00781 35.4297C8.63281 35.4297 9.25 35.5078 9.25 35.5078C9.25 35.5078 9 34.3125 8.91406 32.8984C10.3203 32.9844 11.5234 33.2344 11.5234 33.2344C11.5234 33.2344 11.4453 32.4062 11.4453 31.9922C11.4453 31.5781 11.5234 30.75 11.5234 30.75C11.5234 30.75 10.3281 31 8.91406 31.0859ZM32.8984 7.10156C32.9844 5.69531 33.2344 4.49219 33.2344 4.49219C33.2344 4.49219 32.4062 4.57031 31.9922 4.57031C31.5781 4.57031 30.75 4.49219 30.75 4.49219C30.75 4.49219 31 5.69531 31.0859 7.10156C29.6797 7.01562 28.4766 6.76562 28.4766 6.76562C28.4766 6.76562 28.5547 7.39062 28.5547 8.00781C28.5547 8.63281 28.4766 9.25 28.4766 9.25C28.4766 9.25 29.6719 9 31.0859 8.91406C31 10.3203 30.75 11.5234 30.75 11.5234C30.75 11.5234 31.375 11.4453 31.9922 11.4453C32.6094 11.4453 33.2344 11.5234 33.2344 11.5234C33.2344 11.5234 32.9844 10.3281 32.8984 8.91406C34.3047 9 35.5078 9.25 35.5078 9.25C35.5078 9.25 35.4297 8.42188 35.4297 8.00781C35.4297 7.60156 35.5078 6.76562 35.5078 6.76562C35.5078 6.76562 34.3047 7.01562 32.8984 7.10156ZM8.91406 7.10156C9 5.69531 9.25 4.49219 9.25 4.49219C9.25 4.49219 8.42188 4.57031 8.00781 4.57031C7.59375 4.57031 6.76562 4.49219 6.76562 4.49219C6.76562 4.49219 7.01562 5.69531 7.10156 7.10156C5.69531 7.01562 4.49219 6.76562 4.49219 6.76562C4.49219 6.76562 4.57031 7.39062 4.57031 8.00781C4.57031 8.63281 4.49219 9.25 4.49219 9.25C4.49219 9.25 5.6875 9 7.10156 8.91406C7.01562 10.3203 6.76562 11.5234 6.76562 11.5234C6.76562 11.5234 7.39062 11.4453 8.00781 11.4453C8.63281 11.4453 9.25 11.5234 9.25 11.5234C9.25 11.5234 9 10.3281 8.91406 8.91406C10.3203 9 11.5234 9.25 11.5234 9.25C11.5234 9.25 11.4453 8.42188 11.4453 8.00781C11.4453 7.60156 11.5234 6.76562 11.5234 6.76562C11.5234 6.76562 10.3281 7.01562 8.91406 7.10156ZM32.8984 31.0859C32.9844 29.6797 33.2344 28.4766 33.2344 28.4766C33.2344 28.4766 32.4062 28.5547 31.9922 28.5547C31.5781 28.5547 30.75 28.4766 30.75 28.4766C30.75 28.4766 31 29.6719 31.0859 31.0859C29.6797 31 28.4766 30.75 28.4766 30.75C28.4766 30.75 28.5547 31.375 28.5547 31.9922C28.5547 32.6094 28.4766 33.2344 28.4766 33.2344C28.4766 33.2344 29.6719 32.9844 31.0859 32.8984C31 34.3047 30.75 35.5078 30.75 35.5078C30.75 35.5078 31.375 35.4297 31.9922 35.4297C32.6094 35.4297 33.2344 35.5078 33.2344 35.5078C33.2344 35.5078 32.9844 34.3125 32.8984 32.8984C34.3047 32.9844 35.5078 33.2344 35.5078 33.2344C35.5078 33.2344 35.4297 32.4062 35.4297 31.9922C35.4297 31.5781 35.5078 30.75 35.5078 30.75C35.5078 30.75 34.3047 31 32.8984 31.0859Z" fill="#FF0000"/>
</g>
<defs>
<clipPath id="clip0_17544_62131">
<path d="M0 20C0 8.95431 8.95431 0 20 0C31.0457 0 40 8.95431 40 20C40 31.0457 31.0457 40 20 40C8.95431 40 0 31.0457 0 20Z" fill="white"/>
</clipPath>
</defs>
</svg>
