<svg width="40" height="40" viewBox="0 0 40 40" fill="none" xmlns="http://www.w3.org/2000/svg">
<g clip-path="url(#clip0_17544_62153)">
<path d="M0 0H40V40H0V0Z" fill="#DA000C"/>
<path d="M0 0H40V26.7969H0V0Z" fill="white"/>
<path d="M10.7188 18.1719H20.7188V25.0469H10.7188V18.1719Z" fill="#000001"/>
<path d="M15.9062 24.0469H9.8125L8.45313 24.9375V25.875H15.9062M13.3594 20.0938C14.2344 20.0938 14.9531 20.8281 14.9531 21.7344V24.0313H16.0938V15.2813H9.79688V24.0313H11.7656V21.7344C11.7656 20.8594 12.4688 20.0938 13.3594 20.0938Z" fill="#DA000C"/>
<path fill-rule="evenodd" clip-rule="evenodd" d="M9.71875 15.2031H16.1719V24.1094H15.9844V24.125H9.83581L8.53125 24.9797V25.7969H15.9844V25.9531H8.375V24.8953L9.71875 24.0149V15.2031ZM11.8438 23.9688V21.7344C11.8438 20.8991 12.5153 20.1719 13.3594 20.1719C14.1893 20.1719 14.875 20.8693 14.875 21.7344V23.9688H11.8438ZM15.0312 23.9531H16.0156V15.3594H9.875V23.9531H11.6875V21.7344C11.6875 20.8197 12.4222 20.0156 13.3594 20.0156C14.2795 20.0156 15.0312 20.787 15.0312 21.7344V23.9531Z" fill="black"/>
<path d="M11.9531 9.375H14.8594V14.6875H11.9531V9.375Z" fill="#000001"/>
<path d="M14.8438 13.8594H12.3125V12.9531H10.4531V13.8594H9.20312V12.9531H8.4375V14.5781H14.8438M9.1875 14.5781H14.6562V15.2813H9.1875V14.5781ZM11.375 7.4375V12.9688H12.3125V11.4531C12.3125 10.8906 12.7031 10.4219 13.2656 10.3906H13.3281C13.4677 10.3906 13.6058 10.4181 13.7347 10.4715C13.8636 10.5249 13.9808 10.6032 14.0794 10.7018C14.1781 10.8005 14.2564 10.9176 14.3097 11.0465C14.3631 11.1754 14.3906 11.3136 14.3906 11.4531V12.9688H15.2812V7.4375H11.375ZM11.0156 6.6875V7.4375H15.5938V6.6875H11.0156ZM10.4375 5.26562V6.6875H15.9062V5.26562H15.0781V6H14.0469V5.26562H12.4844V6H11.4687V5.26562H10.4375ZM20.7812 24.5H15.7188L14.1875 25.2344V26.3281H20.7812" fill="#DA000C"/>
<path fill-rule="evenodd" clip-rule="evenodd" d="M10.3594 5.1875H11.5469V5.92188H12.4062V5.1875H14.125V5.92188H15V5.1875H15.9844V6.76562H15.6719V7.51562H15.3594V13.0469H14.3125V11.4531C14.3125 11.3239 14.287 11.1959 14.2376 11.0764C14.1881 10.957 14.1156 10.8485 14.0242 10.7571C13.9328 10.6657 13.8243 10.5932 13.7048 10.5437C13.5854 10.4942 13.4574 10.4688 13.3281 10.4688H13.2678C12.7531 10.4985 12.3906 10.9273 12.3906 11.4531V13.7812H14.9219V13.9375H12.2344V13.0469H11.2969V13.0312H10.5312V13.9375H9.125V13.0312H8.51562V14.5H14.9219V14.6562H14.7344V15.3594H9.10938V14.6562H8.35938V12.875H9.28125V13.7812H10.375V12.875H11.2969V7.51562H10.9375V6.76562H10.3594V5.1875ZM15.8281 6.60938V5.34375H15.1562V6.07812H13.9687V5.34375H12.5625V6.07812H11.3906V5.34375H10.5156V6.60938H15.8281ZM11.0938 6.76562V7.35937H15.5156V6.76562H11.0938ZM11.4531 7.51562V12.875H12.2344V11.4531C12.2344 10.8546 12.6521 10.3465 13.2613 10.3126L13.2635 10.3125H13.3281C13.4779 10.3125 13.6262 10.342 13.7646 10.3993C13.903 10.4566 14.0288 10.5407 14.1347 10.6466C14.2406 10.7525 14.3246 10.8782 14.3819 11.0166C14.4392 11.155 14.4688 11.3033 14.4688 11.4531V12.8906H15.2031V7.51562H11.4531ZM9.26562 14.6562V15.2031H14.5781V14.6562H9.26562ZM15.701 24.4219H20.8594V24.5781H15.7365L15.1501 24.8594H16.0156V25.0156H14.8243L14.2656 25.2836V26.25H20.8594V26.4062H14.1094V25.1852L14.4629 25.0156H8.35938V24.8594H14.7887L15.701 24.4219Z" fill="black"/>
<path fill-rule="evenodd" clip-rule="evenodd" d="M20.9375 25.3125H14.1875V25.1562H20.9375V25.3125Z" fill="black"/>
<path d="M29.2812 18.1719H19.2812V25.0469H29.2812V18.1719Z" fill="#000001"/>
<path d="M24.0938 24.0469H30.1875L31.5469 24.9375V25.875H24.0938M26.6406 20.0938C25.7656 20.0938 25.0469 20.8281 25.0469 21.7344V24.0313H23.9062V15.2813H30.2031V24.0313H28.2344V21.7344C28.2344 20.8594 27.5312 20.0938 26.6406 20.0938Z" fill="#DA000C"/>
<path fill-rule="evenodd" clip-rule="evenodd" d="M30.2812 15.2031H23.8281V24.1094H24.0156V24.125H30.1642L31.4688 24.9797V25.7969H24.0156V25.9531H31.625V24.8953L30.2812 24.0149V15.2031ZM28.1562 23.9688V21.7344C28.1562 20.8991 27.4847 20.1719 26.6406 20.1719C25.8107 20.1719 25.125 20.8693 25.125 21.7344V23.9688H28.1562ZM24.9688 23.9531H23.9844V15.3594H30.125V23.9531H28.3125V21.7344C28.3125 20.8197 27.5778 20.0156 26.6406 20.0156C25.7205 20.0156 24.9688 20.787 24.9688 21.7344V23.9531Z" fill="black"/>
<path d="M28.0469 9.375H25.1406V14.6875H28.0469V9.375Z" fill="#000001"/>
<path d="M25.1562 13.8594H27.6875V12.9531H29.5469V13.8594H30.7969V12.9531H31.5625V14.5781H25.1562M30.8125 14.5781H25.3438V15.2813H30.8125V14.5781ZM28.625 7.4375V12.9688H27.6875V11.4531C27.6875 10.8906 27.2969 10.4219 26.7344 10.3906H26.6719C26.5323 10.3906 26.3942 10.4181 26.2653 10.4715C26.1364 10.5249 26.0192 10.6032 25.9206 10.7018C25.8219 10.8005 25.7436 10.9176 25.6903 11.0465C25.6369 11.1754 25.6094 11.3136 25.6094 11.4531V12.9688H24.7188V7.4375H28.625ZM28.9844 6.6875V7.4375H24.4062V6.6875H28.9844ZM29.5625 5.26562V6.6875H24.0938V5.26562H24.9219V6H25.9531V5.26562H27.5156V6H28.5312V5.26562H29.5625ZM19.2188 24.5H24.2812L25.8125 25.2344V26.3281H19.2188" fill="#DA000C"/>
<path fill-rule="evenodd" clip-rule="evenodd" d="M29.6406 5.1875H28.4531V5.92188H27.5938V5.1875H25.875V5.92188H25V5.1875H24.0156V6.76562H24.3281V7.51562H24.6406V13.0469H25.6875V11.4531C25.6875 11.3239 25.713 11.1959 25.7624 11.0764C25.8119 10.957 25.8844 10.8485 25.9758 10.7571C26.0672 10.6657 26.1757 10.5932 26.2952 10.5437C26.4146 10.4942 26.5426 10.4688 26.6719 10.4688H26.7322C27.2469 10.4985 27.6094 10.9273 27.6094 11.4531V13.7812H25.0781V13.9375H27.7656V13.0469H28.7031V13.0312H29.4688V13.9375H30.875V13.0312H31.4844V14.5H25.0781V14.6562H25.2656V15.3594H30.8906V14.6562H31.6406V12.875H30.7188V13.7812H29.625V12.875H28.7031V7.51562H29.0625V6.76562H29.6406V5.1875ZM24.1719 6.60938V5.34375H24.8438V6.07812H26.0312V5.34375H27.4375V6.07812H28.6094V5.34375H29.4844V6.60938H24.1719ZM28.9062 6.76562V7.35937H24.4844V6.76562H28.9062ZM28.5469 7.51562V12.875H27.7656V11.4531C27.7656 10.8546 27.3479 10.3465 26.7387 10.3126L26.7365 10.3125H26.6719C26.5221 10.3125 26.3738 10.342 26.2354 10.3993C26.097 10.4566 25.9712 10.5407 25.8653 10.6466C25.7594 10.7525 25.6754 10.8782 25.6181 11.0166C25.5608 11.155 25.5312 11.3033 25.5312 11.4531V12.8906H24.7969V7.51562H28.5469ZM30.7344 14.6562V15.2031H25.4219V14.6562H30.7344ZM24.299 24.4219H19.1406V24.5781H24.2635L24.8499 24.8594H23.9844V25.0156H25.1757L25.7344 25.2836V26.25H19.1406V26.4062H25.8906V25.1852L25.5371 25.0156H31.6406V24.8594H25.2113L24.299 24.4219Z" fill="black"/>
<path fill-rule="evenodd" clip-rule="evenodd" d="M19.0625 25.3125H25.8125V25.1562H19.0625V25.3125Z" fill="black"/>
<path d="M22.7031 23.4375C22.2812 23.5938 21.9219 23.8125 21.5312 24.0313C21.0451 24.3089 20.5803 24.6223 20.1406 24.9688C19.9844 25.0781 19.8281 25.1875 19.7188 25.3438C19.5625 25.4688 19.4062 25.6562 19.4375 25.8906C19.4375 25.9844 19.5625 25.7656 19.6562 25.75C19.8046 25.6706 19.977 25.6483 20.1406 25.6875C20.3438 25.4688 20.6094 25.3281 20.8281 25.1562C21.465 24.6953 22.1453 24.2976 22.8594 23.9688L22.7031 23.4375Z" fill="#F8D80E"/>
<path fill-rule="evenodd" clip-rule="evenodd" d="M22.7442 23.3556L22.9346 24.0029L22.8855 24.0255C22.1755 24.3525 21.4991 24.7479 20.8658 25.2062C20.7892 25.2663 20.706 25.3233 20.6236 25.3798C20.5869 25.4051 20.5503 25.4302 20.5145 25.4554C20.3964 25.5386 20.2835 25.6255 20.1864 25.73L20.1616 25.7568L20.1261 25.7483C19.9773 25.7127 19.8206 25.7329 19.6857 25.8051L19.6767 25.81L19.6665 25.8117C19.6611 25.8126 19.6468 25.8191 19.6231 25.8393C19.6023 25.857 19.5815 25.8788 19.5605 25.9008C19.5593 25.902 19.5581 25.9033 19.5569 25.9045C19.5463 25.9156 19.5353 25.9271 19.525 25.9368C19.5156 25.9458 19.5031 25.9569 19.4896 25.9646C19.4817 25.9691 19.4409 25.9913 19.4034 25.9604C19.3876 25.9474 19.3812 25.931 19.3785 25.9207C19.3761 25.9117 19.3753 25.9029 19.3751 25.8951C19.3419 25.6321 19.5151 25.4285 19.6728 25.3005C19.7882 25.1392 19.9495 25.0262 20.1006 24.9204L20.1033 24.9186C20.5451 24.5706 21.012 24.2559 21.5002 23.977C21.5595 23.9438 21.6187 23.9102 21.6772 23.877C22.0017 23.6931 22.319 23.5131 22.6814 23.3789L22.7442 23.3556ZM21.562 24.0857C21.0787 24.3617 20.6165 24.6733 20.1793 25.0178L20.1779 25.0189L20.1765 25.02C20.0186 25.1305 19.8719 25.2339 19.77 25.3796L19.7648 25.3869L19.7578 25.3926C19.631 25.494 19.5177 25.6275 19.4988 25.7848C19.5124 25.7711 19.527 25.7569 19.542 25.7442C19.5656 25.724 19.5979 25.7002 19.6346 25.6908C19.7839 25.6131 19.9546 25.588 20.1195 25.6191C20.2195 25.5166 20.3315 25.4315 20.4425 25.3532C20.4812 25.3259 20.5194 25.2997 20.557 25.274C20.6379 25.2184 20.7159 25.1649 20.7895 25.1071L20.7905 25.1063L20.7915 25.1056C21.4171 24.6529 22.0843 24.2608 22.7842 23.9347L22.6622 23.5199C22.3359 23.6474 22.0458 23.8118 21.7406 23.9848C21.6818 24.0182 21.6224 24.0519 21.562 24.0857ZM19.5 25.8923C19.5001 25.8924 19.5 25.8923 19.5 25.8923Z" fill="black"/>
<path fill-rule="evenodd" clip-rule="evenodd" d="M21.8281 23.7812C21.8713 23.7812 21.9063 23.8162 21.9063 23.8594V24.4844C21.9063 24.5275 21.8713 24.5625 21.8281 24.5625C21.785 24.5625 21.75 24.5275 21.75 24.4844V23.8594C21.75 23.8162 21.785 23.7812 21.8281 23.7812ZM21.4375 24.0156C21.4806 24.0156 21.5156 24.0506 21.5156 24.0938V24.6875C21.5156 24.7306 21.4806 24.7656 21.4375 24.7656C21.3944 24.7656 21.3594 24.7306 21.3594 24.6875V24.0938C21.3594 24.0506 21.3944 24.0156 21.4375 24.0156ZM21.0625 24.25C21.1056 24.25 21.1406 24.285 21.1406 24.3281V24.9375C21.1406 24.9806 21.1056 25.0156 21.0625 25.0156C21.0194 25.0156 20.9844 24.9806 20.9844 24.9375V24.3281C20.9844 24.285 21.0194 24.25 21.0625 24.25ZM20.6875 24.5156C20.7306 24.5156 20.7656 24.5506 20.7656 24.5938V25.2031C20.7656 25.2463 20.7306 25.2813 20.6875 25.2813C20.6444 25.2813 20.6094 25.2463 20.6094 25.2031V24.5938C20.6094 24.5506 20.6444 24.5156 20.6875 24.5156Z" fill="black"/>
<path d="M17.3281 23.4688L17.1406 23.9844C18.0041 24.3156 18.8313 24.7344 19.6094 25.2344C19.875 25.4219 20.1562 25.5938 20.3594 25.8438C20.4062 25.9688 20.2812 26.0781 20.1562 26.0313C20.0469 26 19.9219 25.9531 19.8125 26.0313C19.6406 26.1094 19.4844 26.375 19.7344 26.4531C20.1094 26.7031 20.6875 26.5938 20.8594 26.1719C20.9531 25.9531 20.9688 25.6719 20.7812 25.4844C20.4688 25.125 20.0312 24.8594 19.625 24.5938C18.8955 24.1491 18.1266 23.7726 17.3281 23.4688Z" fill="#F8D80E"/>
<path fill-rule="evenodd" clip-rule="evenodd" d="M17.2911 23.3878L17.3503 23.4103C18.1524 23.7155 18.9247 24.0938 19.6575 24.5404L19.6592 24.5414C19.7013 24.569 19.7439 24.5966 19.7868 24.6244C20.1534 24.8621 20.5409 25.1134 20.827 25.4418C21.0388 25.6552 21.015 25.967 20.917 26.196C20.8219 26.429 20.6155 26.573 20.387 26.6254C20.1615 26.6771 19.9088 26.6413 19.707 26.5099C19.6376 26.4865 19.5869 26.4471 19.5606 26.3923C19.5336 26.336 19.538 26.2752 19.5561 26.222C19.5908 26.1201 19.6831 26.0234 19.7812 25.9769C19.8502 25.9296 19.9234 25.9213 19.9906 25.928C20.0458 25.9336 20.1013 25.9499 20.1477 25.9636C20.1566 25.9663 20.1652 25.9688 20.1734 25.9712L20.1758 25.9718L20.1782 25.9727C20.2183 25.9878 20.2562 25.9774 20.2803 25.9556C20.3018 25.9362 20.3128 25.9076 20.3037 25.8744C20.1415 25.6781 19.9298 25.5321 19.7097 25.3802C19.6648 25.3493 19.6196 25.3181 19.5744 25.2862C18.8003 24.7889 17.9773 24.3722 17.1182 24.0427L17.0609 24.0207L17.2911 23.3878ZM17.3651 23.5499L17.2203 23.9481C18.0671 24.2773 18.8788 24.6906 19.6432 25.1818L19.6443 25.1825L19.6454 25.1833C19.6884 25.2137 19.7323 25.2439 19.7764 25.2743C20 25.4283 20.2324 25.5884 20.4079 25.8043L20.4143 25.8123L20.4179 25.8218C20.4509 25.9099 20.4229 25.9952 20.3642 26.0483C20.3068 26.1002 20.2209 26.1212 20.1368 26.0907C20.1274 26.088 20.1181 26.0853 20.109 26.0826C20.0627 26.069 20.0206 26.0567 19.9782 26.0524C19.9298 26.0476 19.8877 26.0543 19.8488 26.0821L19.8439 26.0856L19.8384 26.0882C19.7665 26.1208 19.6976 26.1943 19.6744 26.2624C19.6632 26.2951 19.6647 26.3202 19.6733 26.3382C19.6815 26.3554 19.7019 26.3775 19.753 26.3935L19.7616 26.3961L19.769 26.4011C19.9411 26.5158 20.1615 26.5488 20.3591 26.5035C20.5562 26.4583 20.7247 26.3368 20.8015 26.1483L20.8019 26.1473C20.891 25.9393 20.8984 25.6899 20.7371 25.5286L20.7355 25.527L20.7341 25.5254C20.4602 25.2104 20.0876 24.9686 19.7181 24.7289C19.6758 24.7014 19.6336 24.6741 19.5916 24.6466C18.8837 24.2152 18.1385 23.8482 17.3651 23.5499Z" fill="black"/>
<path fill-rule="evenodd" clip-rule="evenodd" d="M18.2344 23.8125C18.2775 23.8125 18.3125 23.8475 18.3125 23.8906V24.375C18.3125 24.4181 18.2775 24.4531 18.2344 24.4531C18.1912 24.4531 18.1562 24.4181 18.1562 24.375V23.8906C18.1562 23.8475 18.1912 23.8125 18.2344 23.8125ZM18.7188 24.0781C18.7619 24.0781 18.7969 24.1131 18.7969 24.1563V24.6719C18.7969 24.715 18.7619 24.75 18.7188 24.75C18.6756 24.75 18.6406 24.715 18.6406 24.6719V24.1563C18.6406 24.1131 18.6756 24.0781 18.7188 24.0781ZM19.2188 24.3438C19.2619 24.3438 19.2969 24.3787 19.2969 24.4219V24.9688C19.2969 25.0119 19.2619 25.0469 19.2188 25.0469C19.1756 25.0469 19.1406 25.0119 19.1406 24.9688V24.4219C19.1406 24.3787 19.1756 24.3438 19.2188 24.3438ZM19.6944 24.6097C19.7373 24.6135 19.7691 24.6514 19.7653 24.6944L19.7184 25.2256C19.7147 25.2686 19.6767 25.3004 19.6338 25.2966C19.5908 25.2928 19.559 25.2549 19.5628 25.2119L19.6097 24.6806C19.6135 24.6377 19.6514 24.6059 19.6944 24.6097ZM20.1434 24.8772C20.1853 24.8874 20.2111 24.9296 20.2009 24.9715L20.0759 25.4872C20.0658 25.5291 20.0235 25.5548 19.9816 25.5447C19.9397 25.5345 19.9139 25.4923 19.9241 25.4503L20.0491 24.9347C20.0592 24.8928 20.1015 24.867 20.1434 24.8772ZM20.6382 25.2483C20.6737 25.2728 20.6825 25.3215 20.658 25.357L20.3767 25.7632C20.3522 25.7987 20.3035 25.8075 20.268 25.783C20.2326 25.7584 20.2237 25.7098 20.2483 25.6743L20.5295 25.268C20.5541 25.2326 20.6027 25.2237 20.6382 25.2483ZM20.9371 25.836C20.9414 25.8789 20.9101 25.9172 20.8671 25.9215L20.3984 25.9684C20.3555 25.9727 20.3172 25.9413 20.3129 25.8984C20.3086 25.8555 20.3399 25.8172 20.3829 25.8129L20.8516 25.766C20.8945 25.7617 20.9328 25.793 20.9371 25.836ZM20.2593 26.0255C20.2798 25.9875 20.3272 25.9733 20.3652 25.9937L20.7714 26.2125C20.8094 26.2329 20.8236 26.2803 20.8032 26.3183C20.7827 26.3563 20.7353 26.3705 20.6973 26.35L20.3154 26.1444L20.3435 26.5096C20.3468 26.5527 20.3146 26.5902 20.2716 26.5935C20.2286 26.5968 20.191 26.5646 20.1877 26.5216L20.1565 26.1154C20.1532 26.0723 20.1854 26.0348 20.2284 26.0315C20.2377 26.0308 20.2468 26.0317 20.2553 26.0341C20.2565 26.0312 20.2578 26.0283 20.2593 26.0255ZM20.1406 26.0156C20.1665 26.0501 20.1595 26.0991 20.125 26.125L19.75 26.4063C19.7155 26.4321 19.6665 26.4251 19.6406 26.3906C19.6147 26.3561 19.6217 26.3071 19.6562 26.2813L20.0312 26C20.0658 25.9741 20.1147 25.9811 20.1406 26.0156Z" fill="black"/>
<path d="M16.8438 35.5625V36.8125H17.625V36.1875H18.7031V36.8125H19.5469V35.5625H16.8438ZM16.8438 37.2812V38.5312H19.5312V37.2812H18.6875V37.9062H17.6094V37.2812H16.8438Z" fill="#F8D80E"/>
<path fill-rule="evenodd" clip-rule="evenodd" d="M16.7656 35.4844H19.625V36.8906H18.625V36.2656H17.7031V36.8906H16.7656V35.4844ZM16.9219 35.6406V36.7344H17.5469V36.1094H18.7812V36.7344H19.4688V35.6406H16.9219ZM16.7656 37.2031H17.6875V37.8281H18.6094V37.2031H19.6094V38.6094H16.7656V37.2031ZM16.9219 37.3594V38.4531H19.4531V37.3594H18.7656V37.9844H17.5312V37.3594H16.9219Z" fill="black"/>
<path d="M19.5312 30.2656H20.3125V39.3281H19.5312V30.2656Z" fill="#F8D80E"/>
<path fill-rule="evenodd" clip-rule="evenodd" d="M19.4531 30.1875H20.3906V39.4062H19.4531V30.1875ZM19.6094 30.3438V39.25H20.2344V30.3438H19.6094Z" fill="black"/>
<path d="M19.5312 31.0469H20.3125V38.8594H19.5312V31.0469ZM19.9375 28.0312L21.5938 29L19.9375 29.9688L18.2656 29L19.9375 28.0312ZM17.7031 28.6562H17.2812V29.3438H17.7031L19.9375 30.6406L22.1562 29.3438H22.5938V28.6562H22.1562L19.9375 27.3594L17.7031 28.6562Z" fill="#F8D80E"/>
<path fill-rule="evenodd" clip-rule="evenodd" d="M19.9376 27.269L22.1774 28.5781H22.6719V29.4219H22.1774L19.9376 30.731L17.6821 29.4219H17.2031V28.5781H17.6821L19.9376 27.269ZM19.9374 27.4498L17.7242 28.7344H17.3594V29.2656H17.7242L19.9374 30.5502L22.1351 29.2656H22.5156V28.7344H22.1351L19.9374 27.4498ZM19.9377 27.9408L21.7485 29L19.9377 30.0592L18.1098 29L19.9377 27.9408ZM18.4215 29L19.9373 29.8784L21.439 29L19.9373 28.1216L18.4215 29ZM19.4531 30.9688H20.3906V38.9375H19.4531V30.9688ZM19.6094 31.125V38.7812H20.2344V31.125H19.6094Z" fill="black"/>
<path d="M19.8906 25.6719C19.7088 25.7088 19.546 25.8093 19.4315 25.9553C19.317 26.1013 19.2582 26.2833 19.2656 26.4688V28.2188C19.28 28.4046 19.3603 28.5792 19.4921 28.711C19.6239 28.8428 19.7985 28.9231 19.9844 28.9375C20.139 28.9491 20.2935 28.9135 20.4274 28.8354C20.5613 28.7572 20.6684 28.6403 20.7344 28.5L20.4688 28.3438C20.4319 28.4353 20.3662 28.5123 20.2816 28.563C20.197 28.6138 20.0981 28.6355 20 28.625C19.75 28.625 19.5469 28.375 19.5781 28.1406V26.3906C19.59 26.276 19.645 26.1702 19.7321 26.0947C19.8192 26.0193 19.9317 25.9798 20.0469 25.9844C20.1406 25.9531 20.2813 26.0938 20.3438 25.9844C20.4375 25.8438 20.2813 25.75 20.1875 25.6719H19.8906ZM20.7969 26.2812C20.7205 26.3882 20.6184 26.4742 20.5 26.5313V27.7031L20.8125 27.875V26.2812H20.7969Z" fill="#F8D80E"/>
<path fill-rule="evenodd" clip-rule="evenodd" d="M19.8828 25.5938H20.2158L20.2375 25.6119C20.2481 25.6207 20.2597 25.6298 20.2727 25.6401C20.2856 25.6503 20.3006 25.6621 20.3147 25.6739C20.3425 25.697 20.3731 25.7248 20.3979 25.7571C20.4228 25.7895 20.445 25.8304 20.4498 25.8796C20.4547 25.9294 20.4409 25.9787 20.4102 26.0256C20.3825 26.0724 20.3411 26.0982 20.2931 26.1037C20.2516 26.1085 20.2113 26.0971 20.1831 26.0881C20.169 26.0835 20.1576 26.0795 20.1474 26.0759C20.1322 26.0706 20.1195 26.0661 20.1044 26.0622C20.0817 26.0563 20.0733 26.0579 20.0716 26.0585L20.058 26.063L20.0438 26.0624C19.9485 26.0586 19.8553 26.0913 19.7833 26.1538C19.7122 26.2154 19.6669 26.3014 19.6562 26.3948V28.1458L19.6556 28.151C19.6433 28.2428 19.6769 28.3423 19.7431 28.4201C19.809 28.4975 19.9017 28.5469 20 28.5469H20.0042L20.0084 28.5473C20.0895 28.5561 20.1714 28.538 20.2414 28.496C20.3114 28.454 20.3658 28.3903 20.3963 28.3146L20.4302 28.2304L20.8354 28.4688L20.8051 28.5333C20.7323 28.6879 20.6143 28.8167 20.4668 28.9028C20.3192 28.9889 20.1489 29.0282 19.9785 29.0154C19.7741 28.9996 19.5819 28.9112 19.4369 28.7662C19.2919 28.6213 19.2035 28.4292 19.1877 28.2248L19.1875 28.2218V26.4703C19.1797 26.2669 19.2444 26.0673 19.37 25.9071C19.496 25.7465 19.675 25.636 19.8751 25.5953L19.8828 25.5938ZM19.8987 25.75C19.7381 25.7845 19.5945 25.8741 19.493 26.0035C19.3899 26.1349 19.337 26.2988 19.3437 26.4656L19.3438 26.4672V28.2157C19.3573 28.3818 19.4294 28.5378 19.5474 28.6558C19.666 28.7744 19.8231 28.8467 19.9903 28.8596C20.1291 28.87 20.2678 28.838 20.388 28.7679C20.4878 28.7097 20.5709 28.6275 20.6302 28.5293L20.5007 28.4532C20.4563 28.5252 20.3951 28.586 20.3218 28.63C20.2238 28.6888 20.1094 28.7144 19.9958 28.7031C19.8458 28.7017 19.7136 28.6265 19.6241 28.5213C19.5352 28.4169 19.483 28.2765 19.5 28.1357V26.3866L19.5004 26.3826C19.5143 26.2482 19.5788 26.1242 19.6809 26.0357C19.7799 25.9499 19.9069 25.9038 20.0375 25.906C20.0773 25.8969 20.1153 25.9036 20.1436 25.9109C20.1641 25.9162 20.1887 25.9248 20.2085 25.9317C20.2172 25.9347 20.2249 25.9374 20.2309 25.9393C20.2556 25.9472 20.268 25.9489 20.274 25.9486C20.2745 25.9479 20.2752 25.9469 20.2759 25.9456L20.2773 25.9433L20.2787 25.941C20.2939 25.9183 20.2952 25.9038 20.2943 25.8949C20.2933 25.8844 20.2881 25.8707 20.274 25.8523C20.2597 25.8338 20.2396 25.8147 20.2146 25.7939C20.2024 25.7837 20.1897 25.7737 20.1766 25.7633L20.1751 25.7621C20.1701 25.7581 20.1649 25.7541 20.1598 25.75H19.8987ZM20.7567 26.2031H20.8906V28.0071L20.4219 27.7493V26.4822L20.4661 26.4609C20.5727 26.4095 20.6646 26.3321 20.7333 26.2359L20.7567 26.2031ZM20.7344 26.4675C20.6867 26.5102 20.6343 26.5475 20.5781 26.5787V27.6569L20.7344 27.7429V26.4675Z" fill="black"/>
<path d="M17.625 6H22.2031V14.3125H17.625V6Z" fill="#000001"/>
<path d="M17.3125 6V12.9531H18.7656V10.8906C18.7656 10.4219 19.0781 9.75 20 9.75C20.9219 9.75 21.25 10.4219 21.25 10.8906V12.9688H22.6875V6H17.3125ZM19.7812 6.78125H20.2188V9.15625H19.7812V6.78125ZM18.4844 7.25H18.9531V8.98438H18.4844V7.25ZM21.0625 7.25H21.5156V8.98438H21.0469L21.0625 7.25ZM16.8125 5V5.98438H23.1875V5H16.8125ZM16.2188 3.84375V5H23.7969V3.84375H22.8438V4.46875H21.75V3.84375H20.5312V4.46875H19.4688V3.84375H18.2344V4.46875H17.1875V3.84375H16.2188ZM14.8125 15.2813V16H25.2031V15.2813H14.8125Z" fill="#DA000C"/>
<path fill-rule="evenodd" clip-rule="evenodd" d="M16.1406 3.76562H17.2656V4.39062H18.1562V3.76562H19.5469V4.39062H20.4531V3.76562H21.8281V4.39062H22.7656V3.76562H23.875V5.07812H23.2656V6.0625H22.7656V13.0469H21.1719V10.8906C21.1719 10.6727 21.0952 10.4064 20.9118 10.1958C20.7304 9.98751 20.44 9.82813 20 9.82813C19.5601 9.82813 19.2739 9.98742 19.0965 10.1952C18.9171 10.4055 18.8438 10.6718 18.8438 10.8906V13.0312H17.2344V6.0625H16.7344V5.07812H16.1406V3.76562ZM23.7187 4.92188V3.92188H22.9219V4.54688H21.6719V3.92188H20.6094V4.54688H19.3906V3.92188H18.3125V4.54688H17.1094V3.92188H16.2969V4.92188H23.7187ZM16.8906 5.07812V5.90625H23.1094V5.07812H16.8906ZM17.3906 6.07813V12.875H18.6875V10.8906C18.6875 10.6407 18.7704 10.3367 18.9777 10.0938C19.187 9.84852 19.518 9.67188 20 9.67188C20.4819 9.67188 20.8165 9.84843 21.0296 10.0932C21.2408 10.3357 21.3281 10.6398 21.3281 10.8906V12.8906H22.6094V6.07813H17.3906ZM19.7031 6.70313H20.2969V9.23438H19.7031V6.70313ZM19.8594 6.85938V9.07812H20.1406V6.85938H19.8594ZM18.4062 7.17188H19.0312V9.0625H18.4062V7.17188ZM18.5625 7.32813V8.90625H18.875V7.32813H18.5625ZM20.9851 7.17188H21.5938V9.0625H20.968L20.9851 7.17188ZM21.1399 7.32813L21.1257 8.90625H21.4375V7.32813H21.1399ZM14.7344 15.2031H25.2812V16.0781H14.7344V15.2031ZM14.8906 15.3594V15.9219H25.125V15.3594H14.8906Z" fill="black"/>
<path d="M14.375 12.9531V15.2969H25.625V12.9531H24.5625V13.8594H23.125V12.9531H21.2187V13.8594H18.75V12.9531H16.8438V13.8594H15.4375V12.9531H14.375Z" fill="#DA000C"/>
<path fill-rule="evenodd" clip-rule="evenodd" d="M14.2969 12.875H15.5156V13.7812H16.7656V12.875H18.8281V13.7812H21.1406V12.875H23.2031V13.7812H24.4844V12.875H25.7031V15.375H14.2969V12.875ZM14.4531 13.0312V15.2188H25.5469V13.0312H24.6406V13.9375H23.0469V13.0312H21.2969V13.9375H18.6719V13.0312H16.9219V13.9375H15.3594V13.0312H14.4531Z" fill="black"/>
<path d="M15.7344 16V24.5H17.7344V21.3125C17.7344 19.8281 18.7344 19.125 20 19.125C21.2188 19.125 22.2656 19.8281 22.2656 21.3125V24.5H24.2656V16H15.7344Z" fill="#DA000C"/>
<path fill-rule="evenodd" clip-rule="evenodd" d="M15.6562 16C15.6562 15.9569 15.6912 15.9219 15.7344 15.9219H24.2656C24.3088 15.9219 24.3437 15.9569 24.3437 16V24.5C24.3437 24.5431 24.3088 24.5781 24.2656 24.5781H22.2656C22.2225 24.5781 22.1875 24.5431 22.1875 24.5V21.3125C22.1875 20.5901 21.9336 20.0658 21.5385 19.721C21.1418 19.3748 20.5951 19.2031 20 19.2031C19.3809 19.2031 18.8347 19.3751 18.4444 19.7206C18.0555 20.0648 17.8125 20.589 17.8125 21.3125V24.5C17.8125 24.5431 17.7775 24.5781 17.7344 24.5781H15.7344C15.6912 24.5781 15.6562 24.5431 15.6562 24.5V16ZM15.8125 16.0781V24.4219H17.6562V21.3125C17.6562 20.5516 17.9133 19.982 18.3408 19.6036C18.7668 19.2265 19.3535 19.0469 20 19.0469C20.6236 19.0469 21.2098 19.2268 21.6412 19.6032C22.0742 19.9811 22.3438 20.5505 22.3438 21.3125V24.4219H24.1875V16.0781H15.8125Z" fill="black"/>
</g>
<defs>
<clipPath id="clip0_17544_62153">
<path d="M0 20C0 8.95431 8.95431 0 20 0C31.0457 0 40 8.95431 40 20C40 31.0457 31.0457 40 20 40C8.95431 40 0 31.0457 0 20Z" fill="white"/>
</clipPath>
</defs>
</svg>
