<svg width="40" height="40" viewBox="0 0 40 40" fill="none" xmlns="http://www.w3.org/2000/svg">
<g clip-path="url(#clip0_17544_62201)">
<path d="M0 0H40V40H0V0Z" fill="white"/>
<path d="M0 20H40V40H0V20ZM4.16406 20C4.16406 21.7513 4.50901 23.4855 5.1792 25.1034C5.84939 26.7214 6.83171 28.1916 8.07007 29.4299C9.30842 30.6683 10.7786 31.6506 12.3966 32.3208C14.0145 32.991 15.7487 33.3359 17.5 33.3359C19.2513 33.3359 20.9855 32.991 22.6034 32.3208C24.2214 31.6506 25.6916 30.6683 26.9299 29.4299C28.1683 28.1916 29.1506 26.7214 29.8208 25.1034C30.491 23.4855 30.8359 21.7513 30.8359 20C30.8359 16.4631 29.4309 13.071 26.9299 10.5701C24.429 8.0691 21.0369 6.66406 17.5 6.66406C13.9631 6.66406 10.571 8.0691 8.07007 10.5701C5.5691 13.071 4.16406 16.4631 4.16406 20Z" fill="#D00C33"/>
</g>
<defs>
<clipPath id="clip0_17544_62201">
<path d="M0 20C0 8.95431 8.95431 0 20 0C31.0457 0 40 8.95431 40 20C40 31.0457 31.0457 40 20 40C8.95431 40 0 31.0457 0 20Z" fill="white"/>
</clipPath>
</defs>
</svg>
