<svg width="40" height="40" viewBox="0 0 40 40" fill="none" xmlns="http://www.w3.org/2000/svg">
<g clip-path="url(#clip0_17544_62012)">
<path d="M0 0H40V40H0V0Z" fill="#CE1126"/>
<path d="M5.60156 5.60156H34.3984V34.3984H5.60156V5.60156Z" fill="#007A5E"/>
<path d="M5.60156 5.60156H34.3984L5.60156 34.4062H34.3984L5.60156 5.60156Z" fill="#FCD116"/>
<path d="M19.9922 24.8047C22.6414 24.8047 24.7891 22.6571 24.7891 20.0078C24.7891 17.3586 22.6414 15.2109 19.9922 15.2109C17.3429 15.2109 15.1953 17.3586 15.1953 20.0078C15.1953 22.6571 17.3429 24.8047 19.9922 24.8047Z" fill="#CE1126"/>
<path d="M20 15.6L18.6403 19.7846L20.7326 20.4645" fill="#FCD116"/>
<path d="M20 15.6L21.3597 19.7846L19.2673 20.4645" fill="#FCD116"/>
<path d="M24.1846 18.6403H19.7846V20.8403" fill="#FCD116"/>
<path d="M24.1846 18.6403L20.625 21.2266L19.3318 19.4467" fill="#FCD116"/>
<path d="M22.5863 23.5597L21.2266 19.375L19.1343 20.0549" fill="#FCD116"/>
<path d="M22.5863 23.5597L19.0266 20.9734L20.3197 19.1936" fill="#FCD116"/>
<path d="M17.4137 23.5597L20.9734 20.9734L19.6803 19.1936" fill="#FCD116"/>
<path d="M17.4137 23.5597L18.7734 19.375L20.8657 20.0549" fill="#FCD116"/>
<path d="M15.8154 18.6403L19.375 21.2266L20.6682 19.4467" fill="#FCD116"/>
<path d="M15.8154 18.6403H20.2154V20.8403" fill="#FCD116"/>
<path d="M10.9062 0.196875L10.1028 2.66962L11.3392 3.07134" fill="#FCD116"/>
<path d="M10.9062 0.196875L11.7097 2.66962L10.4733 3.07134" fill="#FCD116"/>
<path d="M13.379 1.99343H10.779V3.29343" fill="#FCD116"/>
<path d="M13.379 1.99343L11.2756 3.52167L10.5114 2.46995" fill="#FCD116"/>
<path d="M12.4345 4.90032L11.631 2.42757L10.3947 2.82929" fill="#FCD116"/>
<path d="M12.4345 4.90032L10.331 3.37208L11.0952 2.32036" fill="#FCD116"/>
<path d="M9.37801 4.90032L11.4815 3.37208L10.7173 2.32036" fill="#FCD116"/>
<path d="M9.37801 4.90032L10.1815 2.42757L11.4178 2.82929" fill="#FCD116"/>
<path d="M8.4335 1.99343L10.5369 3.52167L11.3011 2.46995" fill="#FCD116"/>
<path d="M8.4335 1.99343L11.0335 1.99343V3.29343" fill="#FCD116"/>
<path d="M20 0.204687L19.1966 2.67743L20.4329 3.07916" fill="#FCD116"/>
<path d="M20 0.204687L20.8034 2.67743L19.5671 3.07916" fill="#FCD116"/>
<path d="M22.4727 2.00124H19.8727V3.30124" fill="#FCD116"/>
<path d="M22.4727 2.00124L20.3693 3.52949L19.6052 2.47776" fill="#FCD116"/>
<path d="M21.5282 4.90813L20.7248 2.43538L19.4884 2.83711" fill="#FCD116"/>
<path d="M21.5282 4.90813L19.4248 3.37989L20.1889 2.32817" fill="#FCD116"/>
<path d="M18.4718 4.90813L20.5752 3.37989L19.8111 2.32817" fill="#FCD116"/>
<path d="M18.4718 4.90813L19.2752 2.43539L20.5116 2.83711" fill="#FCD116"/>
<path d="M17.5273 2.00124L19.6307 3.52948L20.3948 2.47776" fill="#FCD116"/>
<path d="M17.5273 2.00124H20.1273V3.30124" fill="#FCD116"/>
<path d="M29.0938 0.204687L28.2903 2.67743L29.5267 3.07916" fill="#FCD116"/>
<path d="M29.0938 0.204687L29.8972 2.67743L28.6608 3.07916" fill="#FCD116"/>
<path d="M31.5665 2.00124H28.9665V3.30124" fill="#FCD116"/>
<path d="M31.5665 2.00124L29.4631 3.52949L28.6989 2.47776" fill="#FCD116"/>
<path d="M30.622 4.90813L29.8185 2.43538L28.5822 2.83711" fill="#FCD116"/>
<path d="M30.622 4.90813L28.5185 3.37989L29.2827 2.32817" fill="#FCD116"/>
<path d="M27.5655 4.90813L29.669 3.37989L28.9048 2.32817" fill="#FCD116"/>
<path d="M27.5655 4.90813L28.369 2.43539L29.6053 2.83711" fill="#FCD116"/>
<path d="M26.621 2.00124L28.7244 3.52948L29.4886 2.47776" fill="#FCD116"/>
<path d="M26.621 2.00124H29.221V3.30124" fill="#FCD116"/>
<path d="M7.79688 20.0625C8.39844 21.1797 9.5625 22.3906 10.5859 22.8203C10.6016 21.6875 10.1953 20.2266 9.64844 19.0703L7.79688 20.0625Z" fill="#CE1126"/>
<path d="M6.78125 16.2188C7.64844 18.0391 4.51562 22.3672 9.73438 23.3828C9.03385 22.3605 8.71576 21.1241 8.83594 19.8906C9.9901 20.4304 10.9384 21.3294 11.5391 22.4531C12.9062 17.5 8.03906 17.8047 6.77344 16.2188H6.78125Z" fill="#FCD116"/>
<path d="M10.9062 34.7359L10.1028 37.2087L11.3392 37.6104" fill="#FCD116"/>
<path d="M10.9062 34.7359L11.7097 37.2087L10.4733 37.6104" fill="#FCD116"/>
<path d="M13.379 36.5325H10.779V37.8325" fill="#FCD116"/>
<path d="M13.379 36.5325L11.2756 38.0607L10.5114 37.009" fill="#FCD116"/>
<path d="M12.4345 39.4394L11.631 36.9666L10.3947 37.3684" fill="#FCD116"/>
<path d="M12.4345 39.4394L10.331 37.9111L11.0952 36.8594" fill="#FCD116"/>
<path d="M9.37801 39.4394L11.4815 37.9111L10.7173 36.8594" fill="#FCD116"/>
<path d="M9.37801 39.4394L10.1815 36.9666L11.4178 37.3684" fill="#FCD116"/>
<path d="M8.4335 36.5325L10.5369 38.0607L11.3011 37.009" fill="#FCD116"/>
<path d="M8.4335 36.5325H11.0335V37.8325" fill="#FCD116"/>
<path d="M20 34.7438L19.1966 37.2165L20.4329 37.6182" fill="#FCD116"/>
<path d="M20 34.7438L20.8034 37.2165L19.5671 37.6182" fill="#FCD116"/>
<path d="M22.4727 36.5403H19.8727V37.8403" fill="#FCD116"/>
<path d="M22.4727 36.5403L20.3693 38.0685L19.6052 37.0168" fill="#FCD116"/>
<path d="M21.5282 39.4472L20.7248 36.9744L19.4884 37.3762" fill="#FCD116"/>
<path d="M21.5282 39.4472L19.4248 37.919L20.1889 36.8672" fill="#FCD116"/>
<path d="M18.4718 39.4472L20.5752 37.919L19.8111 36.8672" fill="#FCD116"/>
<path d="M18.4718 39.4472L19.2752 36.9744L20.5116 37.3762" fill="#FCD116"/>
<path d="M17.5273 36.5403L19.6307 38.0685L20.3948 37.0168" fill="#FCD116"/>
<path d="M17.5273 36.5403H20.1273V37.8403" fill="#FCD116"/>
<path d="M29.0938 34.7516L28.2903 37.2243L29.5267 37.626" fill="#FCD116"/>
<path d="M29.0938 34.7516L29.8972 37.2243L28.6608 37.626" fill="#FCD116"/>
<path d="M31.5665 36.5481H28.9665V37.8481" fill="#FCD116"/>
<path d="M31.5665 36.5481L29.4631 38.0764L28.6989 37.0246" fill="#FCD116"/>
<path d="M30.622 39.455L29.8185 36.9823L28.5822 37.384" fill="#FCD116"/>
<path d="M30.622 39.455L28.5185 37.9268L29.2827 36.875" fill="#FCD116"/>
<path d="M27.5655 39.455L29.669 37.9268L28.9048 36.875" fill="#FCD116"/>
<path d="M27.5655 39.455L28.369 36.9823L29.6053 37.384" fill="#FCD116"/>
<path d="M26.621 36.5481L28.7244 38.0764L29.4886 37.0246" fill="#FCD116"/>
<path d="M26.621 36.5481H29.221V37.8481" fill="#FCD116"/>
</g>
<defs>
<clipPath id="clip0_17544_62012">
<path d="M0 20C0 8.95431 8.95431 0 20 0C31.0457 0 40 8.95431 40 20C40 31.0457 31.0457 40 20 40C8.95431 40 0 31.0457 0 20Z" fill="white"/>
</clipPath>
</defs>
</svg>
