<svg width="40" height="40" viewBox="0 0 40 40" fill="none" xmlns="http://www.w3.org/2000/svg">
<g clip-path="url(#clip0_17522_60613)">
<path d="M0 0H40V40H0V0Z" fill="white"/>
<path d="M15 0H25V40H15V0Z" fill="#E8112D"/>
<path d="M0 14.6641H40V25.3359H0V14.6641Z" fill="#E8112D"/>
<path d="M3.59375 23.8906L5.41406 21.9375H21.8203V18.0547H5.41406L3.59375 16.1094V23.8906Z" fill="#F9DD16"/>
<path d="M16.3525 2.50522L18.1836 4.44689V21.9469H21.8237V4.44689L23.6475 2.50522H16.3525Z" fill="#F9DD16"/>
<path d="M23.6475 37.4948L21.8164 35.5531V18.0531H18.1763V35.5531L16.3525 37.4948H23.6475Z" fill="#F9DD16"/>
<path d="M36.4062 16.1094L34.5859 18.0625H18.1797V21.9453H34.5859L36.4062 23.8906V16.1094Z" fill="#F9DD16"/>
</g>
<defs>
<clipPath id="clip0_17522_60613">
<path d="M0 4C0 1.79086 1.79086 0 4 0H36C38.2091 0 40 1.79086 40 4V36C40 38.2091 38.2091 40 36 40H4C1.79086 40 0 38.2091 0 36V4Z" fill="white"/>
</clipPath>
</defs>
</svg>
