<svg width="40" height="40" viewBox="0 0 40 40" fill="none" xmlns="http://www.w3.org/2000/svg">
<g clip-path="url(#clip0_17522_60628)">
<path d="M0 0H40V40H0V0Z" fill="#00008B"/>
<path d="M20 0V2.5L12.5781 10L20 17.3047V20H17.3828L9.92188 12.6562L2.65625 20H0V17.3438L7.26562 10.0391L0 2.89062V0H2.42188L9.92188 7.34375L17.1875 0H20Z" fill="white"/>
<path d="M7.1875 12.6562L7.61719 13.9844L1.64062 20H0V19.8828L7.1875 12.6562ZM12.0312 12.1875L14.1406 12.5L20 18.2422V20L12.0312 12.1875ZM20 0L12.5 7.65625L12.3438 5.9375L18.2031 0H20ZM0 0.0390625L7.53906 7.42188L5.23438 7.10938L0 1.91406V0.0390625Z" fill="#FF0000"/>
<path d="M6.875 0V20H13.125V0H6.875ZM0 6.875V13.125H20V6.875H0Z" fill="white"/>
<path d="M0 8.125V11.875H20V8.125H0ZM8.125 0V20H11.875V0H8.125Z" fill="#FF0000"/>
<path d="M15.7812 31.4688L12.2031 31.8906L12.5625 35.4766L10 32.9453L7.42188 35.4609L7.80469 31.875L4.22656 31.4219L7.26562 29.4844L5.39062 26.4062L8.79688 27.5781L10.0312 24.1875L11.2422 27.5859L14.6562 26.4375L12.7578 29.5L15.7891 31.4609L15.7812 31.4688ZM33.1797 32.0938L31.5781 32.2969L31.75 33.8984L30.5938 32.7734L29.4453 33.9062L29.6016 32.3047L28 32.1172L29.3516 31.2422L28.5 29.875L30.0312 30.3828L30.5703 28.8594L31.125 30.375L32.6484 29.8516L31.8125 31.2266L33.1797 32.0938ZM32.4219 22.9375L32.6328 21.9219L31.8672 21.2188L32.8984 21.1016L33.3281 20.1562L33.7578 21.1016L34.7891 21.2188L34.0234 21.9219L34.2344 22.9375L33.3281 22.4219L32.4219 22.9375ZM25.8516 18.25L24.2656 18.4219L24.4062 20.0078L23.2812 18.875L22.125 19.9766L22.3125 18.3906L20.7344 18.1797L22.0859 17.3359L21.2656 15.9688L22.7734 16.5L23.3359 15.0078L23.8594 16.5156L25.375 16.0234L24.5234 17.375L25.8516 18.25ZM39.5859 15.6875L37.9531 15.8984L38.1328 17.5312L36.9531 16.3828L35.7812 17.5391L35.9453 15.8984L34.3125 15.7109L35.6953 14.8125L34.8281 13.4141L36.3906 13.9375L36.9375 12.3906L37.5 13.9375L39.0547 13.3984L38.1953 14.8047L39.5859 15.6875ZM33.1719 9.16406L31.5547 9.34375L31.7031 10.9688L30.5547 9.8125L29.375 10.9375L29.5625 9.32031L27.9453 9.10156L29.3281 8.24219L28.4922 6.84375L30.0312 7.38281L30.6016 5.85938L31.1328 7.39844L32.6797 6.89062L31.8125 8.26562L33.1719 9.16406Z" fill="white"/>
</g>
<defs>
<clipPath id="clip0_17522_60628">
<path d="M0 4C0 1.79086 1.79086 0 4 0H36C38.2091 0 40 1.79086 40 4V36C40 38.2091 38.2091 40 36 40H4C1.79086 40 0 38.2091 0 36V4Z" fill="white"/>
</clipPath>
</defs>
</svg>
