<svg width="40" height="40" viewBox="0 0 40 40" fill="none" xmlns="http://www.w3.org/2000/svg">
<g clip-path="url(#clip0_17544_62753)">
<path d="M0 0H40V40H0" fill="#EC1B2E"/>
<path d="M22.0547 9.3125C15.8594 8.90625 13.0156 17.0312 18.875 20.0312C16.8438 18.2812 17.2656 15.7031 18.0859 14.375L18.2344 14.4531C17.1562 16.2969 17.3594 18.5781 19.0938 20C18.1094 19.0469 18.3594 16.9531 20.0469 16.1875C21.7344 15.4219 21.8906 13.1172 21.3281 12.3516C20.5625 11.0182 20.8047 10.0026 22.0547 9.30469V9.3125ZM19.0547 14.0625L18.6875 14.6406L18.5469 13.9688L17.875 13.7891L18.4844 13.4531L18.4375 12.75L18.9453 13.2344L19.5938 12.9766L19.3047 13.6016L19.7422 14.1406L19.0547 14.0625Z" fill="white"/>
<path d="M30.6545 19.3977C29.1264 13.3801 20.5203 13.1863 19.4778 19.6859C20.5145 17.2133 23.0968 16.8178 24.6134 17.1876L24.585 17.3529C22.4983 16.8973 20.3915 17.7954 19.5751 19.8843C20.1774 18.6536 22.246 18.2443 23.4956 19.6127C24.7452 20.981 26.9854 20.4174 27.5397 19.6458C28.5712 18.5056 29.6119 18.4221 30.662 19.3953L30.6545 19.3977ZM25.21 18.0124L24.5467 17.8418L25.1422 17.5004L25.1055 16.8059L25.6133 17.2817L26.2675 17.0198L25.9638 17.6524L26.4093 18.1895L25.7256 18.1077L25.3481 18.6904L25.21 18.0124Z" fill="white"/>
<path d="M23.7204 30.6931C28.9713 27.3803 26.4962 19.1355 19.9925 20.1525C22.6645 20.3744 23.8385 22.7081 23.9556 24.2647L23.7895 24.2888C23.578 22.1634 22.0728 20.4373 19.8339 20.3064C21.1905 20.4989 22.219 22.3397 21.3038 23.951C20.3886 25.5623 21.6168 27.5187 22.5219 27.8074C23.925 28.4361 24.3261 29.4001 23.725 30.6995L23.7204 30.6931ZM23.3555 25.087L23.3127 24.4034L23.8214 24.8643L24.4706 24.6148L24.1751 25.2447L24.6263 25.786L23.9307 25.6926L23.5577 26.2823L23.4242 25.6068L22.7534 25.4279L23.3555 25.087Z" fill="white"/>
<path d="M10.8351 27.5889C15.6084 31.5591 22.6848 26.6573 19.7078 20.7862C20.3225 23.3959 18.4658 25.2337 17.0215 25.826L16.9474 25.6756C18.9033 24.8177 20.0799 22.8527 19.5125 20.6829C19.7486 22.0326 18.3157 23.5796 16.5005 23.2071C14.6852 22.8346 13.2041 24.6073 13.2092 25.5573C13.0449 27.086 12.252 27.7653 10.8305 27.5952L10.8351 27.5889ZM16.0541 25.5094L16.691 25.2575L16.4098 25.8838L16.8478 26.424L16.1573 26.3376L15.782 26.934L15.6558 26.2437L14.9797 26.0711L15.5809 25.7354L15.5438 25.0421L16.0541 25.5094Z" fill="white"/>
<path d="M9.80559 14.3749C7.50477 20.1415 14.3533 25.3568 19.0171 20.7113C16.7251 22.1023 14.4035 20.9044 13.3939 19.7138L13.5141 19.5968C14.9344 21.1919 17.1668 21.7037 19.055 20.4936C17.8444 21.1352 15.9303 20.2505 15.7237 18.409C15.517 16.5675 13.3734 15.7067 12.4714 16.0051C10.9667 16.3212 10.0756 15.777 9.79816 14.3725L9.80559 14.3749ZM13.3961 18.6959L13.8324 19.2238L13.15 19.1499L12.7715 19.7334L12.6403 19.05L11.9571 18.8773L12.5747 18.5441L12.5298 17.8477L13.0349 18.3157L13.6828 18.0662L13.3961 18.6959Z" fill="white"/>
</g>
<defs>
<clipPath id="clip0_17544_62753">
<path d="M0 20C0 8.95431 8.95431 0 20 0C31.0457 0 40 8.95431 40 20C40 31.0457 31.0457 40 20 40C8.95431 40 0 31.0457 0 20Z" fill="white"/>
</clipPath>
</defs>
</svg>
