<svg width="40" height="40" viewBox="0 0 40 40" fill="none" xmlns="http://www.w3.org/2000/svg">
<g clip-path="url(#clip0_17544_63301)">
<path d="M0 0H40V13.3359H0V0Z" fill="#FF9933"/>
<path d="M0 13.3359H40V26.6641H0V13.3359Z" fill="white"/>
<path d="M0 26.6641H40V40H0V26.6641Z" fill="#128807"/>
<path d="M20 25.3333C22.9455 25.3333 25.3333 22.9455 25.3333 20C25.3333 17.0545 22.9455 14.6667 20 14.6667C17.0545 14.6667 14.6667 17.0545 14.6667 20C14.6667 22.9455 17.0545 25.3333 20 25.3333Z" fill="#000088"/>
<path d="M20 24.6667C22.5773 24.6667 24.6667 22.5773 24.6667 20C24.6667 17.4227 22.5773 15.3333 20 15.3333C17.4227 15.3333 15.3333 17.4227 15.3333 20C15.3333 22.5773 17.4227 24.6667 20 24.6667Z" fill="white"/>
<path d="M20 20.9333C20.5155 20.9333 20.9333 20.5155 20.9333 20C20.9333 19.4845 20.5155 19.0667 20 19.0667C19.4845 19.0667 19.0667 19.4845 19.0667 20C19.0667 20.5155 19.4845 20.9333 20 20.9333Z" fill="#000088"/>
<path d="M24.5953 20.8488C24.7267 20.8661 24.8473 20.7736 24.8646 20.6422C24.8819 20.5108 24.7894 20.3902 24.658 20.3729C24.5266 20.3556 24.406 20.4481 24.3887 20.5795C24.3714 20.711 24.4639 20.8315 24.5953 20.8488Z" fill="#000088"/>
<path d="M20 24.6667L20.16 21.8667L20 20.5333L19.84 21.8667L20 24.6667Z" fill="#000088"/>
<path d="M24.2191 22.0092C24.3415 22.06 24.4819 22.0018 24.5326 21.8794C24.5834 21.7569 24.5252 21.6165 24.4027 21.5658C24.2803 21.5151 24.1399 21.5732 24.0892 21.6957C24.0384 21.8181 24.0966 21.9585 24.2191 22.0092Z" fill="#000088"/>
<path d="M18.7922 24.5077L19.6714 21.8445L19.862 20.5152L19.3623 21.7616L18.7922 24.5077Z" fill="#000088"/>
<path d="M23.5553 23.0328C23.6604 23.1134 23.8111 23.0936 23.8918 22.9885C23.9725 22.8833 23.9526 22.7326 23.8475 22.6519C23.7423 22.5713 23.5917 22.5911 23.511 22.6962C23.4303 22.8014 23.4501 22.9521 23.5553 23.0328Z" fill="#000088"/>
<path d="M17.6667 24.0414L19.2052 21.6966L19.7333 20.4619L18.9281 21.5366L17.6667 24.0414Z" fill="#000088"/>
<path d="M22.6492 23.8496C22.7299 23.9547 22.8805 23.9746 22.9857 23.8939C23.0909 23.8132 23.1107 23.6625 23.03 23.5574C22.9493 23.4522 22.7986 23.4324 22.6935 23.5131C22.5883 23.5938 22.5685 23.7444 22.6492 23.8496Z" fill="#000088"/>
<path d="M16.7002 23.2998L18.7932 21.4331L19.6229 20.3771L18.5669 21.2068L16.7002 23.2998Z" fill="#000088"/>
<path d="M21.5626 24.4041C21.6133 24.5265 21.7537 24.5847 21.8761 24.534C21.9986 24.4832 22.0568 24.3428 22.006 24.2204C21.9553 24.0979 21.8149 24.0398 21.6925 24.0905C21.57 24.1412 21.5118 24.2816 21.5626 24.4041Z" fill="#000088"/>
<path d="M15.9586 22.3333L18.4634 21.0719L19.5381 20.2667L18.3034 20.7948L15.9586 22.3333Z" fill="#000088"/>
<path d="M20.3695 24.6584C20.3868 24.7898 20.5073 24.8824 20.6387 24.8651C20.7702 24.8478 20.8627 24.7272 20.8454 24.5958C20.8281 24.4644 20.7075 24.3719 20.5761 24.3892C20.4447 24.4065 20.3522 24.527 20.3695 24.6584Z" fill="#000088"/>
<path d="M15.4924 21.2078L18.2384 20.6377L19.4848 20.138L18.1555 20.3286L15.4924 21.2078Z" fill="#000088"/>
<path d="M19.1512 24.5953C19.1339 24.7267 19.2264 24.8473 19.3578 24.8646C19.4892 24.8819 19.6098 24.7894 19.6271 24.658C19.6444 24.5266 19.5519 24.406 19.4205 24.3887C19.289 24.3714 19.1685 24.4639 19.1512 24.5953Z" fill="#000088"/>
<path d="M15.3333 20L18.1333 20.16L19.4667 20L18.1333 19.84L15.3333 20Z" fill="#000088"/>
<path d="M17.9908 24.2191C17.94 24.3415 17.9982 24.4819 18.1206 24.5326C18.2431 24.5834 18.3835 24.5252 18.4342 24.4027C18.4849 24.2803 18.4268 24.1399 18.3043 24.0892C18.1819 24.0384 18.0415 24.0966 17.9908 24.2191Z" fill="#000088"/>
<path d="M15.4924 18.7922L18.1555 19.6714L19.4848 19.862L18.2384 19.3623L15.4924 18.7922Z" fill="#000088"/>
<path d="M16.9672 23.5553C16.8866 23.6604 16.9064 23.8111 17.0115 23.8918C17.1167 23.9725 17.2674 23.9526 17.3481 23.8475C17.4287 23.7423 17.4089 23.5917 17.3038 23.511C17.1986 23.4303 17.0479 23.4501 16.9672 23.5553Z" fill="#000088"/>
<path d="M15.9586 17.6667L18.3034 19.2052L19.5381 19.7333L18.4634 18.9281L15.9586 17.6667Z" fill="#000088"/>
<path d="M16.1504 22.6492C16.0453 22.7299 16.0254 22.8805 16.1061 22.9857C16.1868 23.0909 16.3375 23.1107 16.4426 23.03C16.5478 22.9493 16.5676 22.7986 16.4869 22.6935C16.4062 22.5883 16.2556 22.5685 16.1504 22.6492Z" fill="#000088"/>
<path d="M16.7002 16.7002L18.5669 18.7932L19.6229 19.6229L18.7932 18.5669L16.7002 16.7002Z" fill="#000088"/>
<path d="M15.5959 21.5626C15.4735 21.6133 15.4153 21.7537 15.466 21.8761C15.5168 21.9986 15.6572 22.0568 15.7796 22.006C15.9021 21.9553 15.9602 21.8149 15.9095 21.6925C15.8588 21.57 15.7184 21.5118 15.5959 21.5626Z" fill="#000088"/>
<path d="M17.6667 15.9586L18.9281 18.4634L19.7333 19.5381L19.2052 18.3034L17.6667 15.9586Z" fill="#000088"/>
<path d="M15.3416 20.3695C15.2102 20.3868 15.1176 20.5073 15.1349 20.6387C15.1522 20.7702 15.2728 20.8627 15.4042 20.8454C15.5356 20.8281 15.6281 20.7075 15.6108 20.5761C15.5935 20.4447 15.473 20.3522 15.3416 20.3695Z" fill="#000088"/>
<path d="M18.7922 15.4924L19.3623 18.2384L19.862 19.4848L19.6714 18.1555L18.7922 15.4924Z" fill="#000088"/>
<path d="M15.4047 19.1512C15.2733 19.1339 15.1527 19.2264 15.1354 19.3578C15.1181 19.4892 15.2106 19.6098 15.342 19.6271C15.4734 19.6444 15.594 19.5519 15.6113 19.4205C15.6286 19.289 15.5361 19.1685 15.4047 19.1512Z" fill="#000088"/>
<path d="M20 15.3333L19.84 18.1333L20 19.4667L20.16 18.1333L20 15.3333Z" fill="#000088"/>
<path d="M15.7809 17.9908C15.6585 17.94 15.5181 17.9982 15.4674 18.1206C15.4166 18.2431 15.4748 18.3835 15.5973 18.4342C15.7197 18.4849 15.8601 18.4268 15.9108 18.3043C15.9616 18.1819 15.9034 18.0415 15.7809 17.9908Z" fill="#000088"/>
<path d="M21.2078 15.4924L20.3286 18.1555L20.138 19.4848L20.6377 18.2384L21.2078 15.4924Z" fill="#000088"/>
<path d="M16.4447 16.9672C16.3396 16.8866 16.1889 16.9064 16.1082 17.0115C16.0275 17.1167 16.0474 17.2674 16.1525 17.3481C16.2577 17.4287 16.4083 17.4089 16.489 17.3038C16.5697 17.1986 16.5499 17.0479 16.4447 16.9672Z" fill="#000088"/>
<path d="M22.3333 15.9586L20.7948 18.3034L20.2667 19.5381L21.0719 18.4634L22.3333 15.9586Z" fill="#000088"/>
<path d="M17.3508 16.1504C17.2701 16.0453 17.1195 16.0254 17.0143 16.1061C16.9091 16.1868 16.8893 16.3375 16.97 16.4426C17.0507 16.5478 17.2014 16.5676 17.3065 16.4869C17.4117 16.4062 17.4315 16.2556 17.3508 16.1504Z" fill="#000088"/>
<path d="M23.2998 16.7002L21.2068 18.5669L20.3771 19.6229L21.4331 18.7932L23.2998 16.7002Z" fill="#000088"/>
<path d="M18.4374 15.5959C18.3867 15.4735 18.2463 15.4153 18.1239 15.466C18.0014 15.5168 17.9432 15.6572 17.994 15.7796C18.0447 15.9021 18.1851 15.9602 18.3075 15.9095C18.43 15.8588 18.4882 15.7184 18.4374 15.5959Z" fill="#000088"/>
<path d="M24.0414 17.6667L21.5366 18.9281L20.4619 19.7333L21.6966 19.2052L24.0414 17.6667Z" fill="#000088"/>
<path d="M19.6305 15.3416C19.6132 15.2102 19.4927 15.1176 19.3613 15.1349C19.2298 15.1522 19.1373 15.2728 19.1546 15.4042C19.1719 15.5356 19.2925 15.6281 19.4239 15.6108C19.5553 15.5935 19.6478 15.473 19.6305 15.3416Z" fill="#000088"/>
<path d="M24.5077 18.7922L21.7616 19.3623L20.5152 19.862L21.8445 19.6714L24.5077 18.7922Z" fill="#000088"/>
<path d="M20.8488 15.4047C20.8661 15.2733 20.7736 15.1527 20.6422 15.1354C20.5108 15.1181 20.3902 15.2106 20.3729 15.342C20.3556 15.4734 20.4481 15.594 20.5795 15.6113C20.711 15.6286 20.8315 15.5361 20.8488 15.4047Z" fill="#000088"/>
<path d="M24.6667 20L21.8667 19.84L20.5333 20L21.8667 20.16L24.6667 20Z" fill="#000088"/>
<path d="M22.0092 15.7809C22.06 15.6585 22.0018 15.5181 21.8794 15.4674C21.7569 15.4166 21.6165 15.4748 21.5658 15.5973C21.5151 15.7197 21.5732 15.8601 21.6957 15.9108C21.8181 15.9616 21.9585 15.9034 22.0092 15.7809Z" fill="#000088"/>
<path d="M24.5076 21.2078L21.8445 20.3286L20.5152 20.138L21.7616 20.6377L24.5076 21.2078Z" fill="#000088"/>
<path d="M23.0328 16.4447C23.1134 16.3396 23.0936 16.1889 22.9885 16.1082C22.8833 16.0275 22.7326 16.0474 22.6519 16.1525C22.5713 16.2577 22.5911 16.4083 22.6962 16.489C22.8014 16.5697 22.9521 16.5499 23.0328 16.4447Z" fill="#000088"/>
<path d="M24.0414 22.3333L21.6966 20.7948L20.4619 20.2667L21.5366 21.0719L24.0414 22.3333Z" fill="#000088"/>
<path d="M23.8496 17.3508C23.9547 17.2701 23.9746 17.1195 23.8939 17.0143C23.8132 16.9091 23.6625 16.8893 23.5574 16.97C23.4522 17.0507 23.4324 17.2014 23.5131 17.3065C23.5938 17.4117 23.7444 17.4315 23.8496 17.3508Z" fill="#000088"/>
<path d="M23.2998 23.2998L21.4331 21.2068L20.3771 20.3771L21.2068 21.4331L23.2998 23.2998Z" fill="#000088"/>
<path d="M24.4041 18.4374C24.5265 18.3867 24.5847 18.2463 24.534 18.1239C24.4832 18.0014 24.3428 17.9432 24.2204 17.994C24.0979 18.0447 24.0398 18.1851 24.0905 18.3075C24.1412 18.43 24.2816 18.4882 24.4041 18.4374Z" fill="#000088"/>
<path d="M22.3333 24.0414L21.0719 21.5366L20.2667 20.4619L20.7948 21.6966L22.3333 24.0414Z" fill="#000088"/>
<path d="M24.6584 19.6305C24.7898 19.6132 24.8824 19.4927 24.8651 19.3613C24.8478 19.2298 24.7272 19.1373 24.5958 19.1546C24.4644 19.1719 24.3719 19.2925 24.3892 19.4239C24.4065 19.5553 24.527 19.6478 24.6584 19.6305Z" fill="#000088"/>
<path d="M21.2078 24.5076L20.6377 21.7616L20.138 20.5152L20.3286 21.8445L21.2078 24.5076Z" fill="#000088"/>
</g>
<defs>
<clipPath id="clip0_17544_63301">
<path d="M0 20C0 8.95431 8.95431 0 20 0C31.0457 0 40 8.95431 40 20C40 31.0457 31.0457 40 20 40C8.95431 40 0 31.0457 0 20Z" fill="white"/>
</clipPath>
</defs>
</svg>
