<svg width="40" height="40" viewBox="0 0 40 40" fill="none" xmlns="http://www.w3.org/2000/svg">
<g clip-path="url(#clip0_17544_63592)">
<path d="M0 13.3359H40V26.6641H0V13.3359Z" fill="white"/>
<path d="M0 0H40V13.3359H0V0Z" fill="#CE1126"/>
<path d="M0 26.6641H40V40H0V26.6641Z" fill="#000001"/>
<path d="M25.9085 17.5501C25.8325 17.5136 25.7633 17.4642 25.7042 17.4041C25.6604 17.3311 25.6896 17.3311 25.8793 17.3749C26.2151 17.4771 26.4341 17.4333 26.6531 17.2582L26.8428 17.0976L27.0618 17.1998C27.1932 17.2727 27.3246 17.3165 27.3538 17.3019C27.456 17.2727 27.6604 17.01 27.6458 16.9224C27.6458 16.8202 27.7333 16.8494 27.7917 16.9662C27.8793 17.1998 27.7479 17.4771 27.4998 17.5355C27.3976 17.5647 27.2954 17.5501 27.1202 17.4917C26.9158 17.4187 26.872 17.4187 26.7698 17.4917C26.6475 17.5842 26.5009 17.6389 26.3479 17.6493C26.1949 17.6597 26.0422 17.6252 25.9085 17.5501ZM26.7552 16.7764C26.6564 16.5979 26.6061 16.3965 26.6093 16.1925C26.6239 16.1049 26.6531 16.0757 26.7261 16.1049C26.872 16.1487 26.9012 16.2509 26.872 16.5428C26.872 16.8056 26.8282 16.8786 26.7552 16.7764ZM16.8867 16.499C16.8721 16.6888 17.2371 17.1706 17.3977 17.2582C17.2809 17.3019 17.1495 17.2873 17.0473 17.3311C16.4633 17.9151 14.3612 19.9589 13.9816 20.4552C15.1203 20.4844 16.3758 20.4406 17.4414 20.3968C17.4414 19.6231 18.1714 19.5793 18.6677 19.3019C18.9159 19.6961 19.5436 19.6669 19.6312 20.2654V22.8348H9.92325C9.88653 23.0296 9.80931 23.2145 9.6966 23.3776C9.58388 23.5407 9.43817 23.6783 9.26891 23.7815C9.09965 23.8847 8.9106 23.9512 8.71401 23.9767C8.51741 24.0022 8.31765 23.9862 8.12764 23.9296C8.41961 23.6377 8.91596 23.5209 9.09114 23.0975C9.23712 22.1632 8.79917 21.5939 8.5072 21.0537C8.87443 20.936 9.21971 20.7584 9.52909 20.5282C9.19333 21.5501 10.4342 21.4479 11.3393 21.4187C11.3685 21.0683 11.3539 20.6596 11.0911 20.6012C11.4269 20.4698 11.4853 20.426 12.0546 19.9589V21.3603L18.7845 21.3457C18.7845 20.9078 18.9013 20.1924 18.5509 20.1924C18.2298 20.1924 18.5509 21.0975 18.2882 21.0975H13.0765V20.2216C13.2955 19.9881 13.2663 20.0027 14.7699 18.499C14.9159 18.353 15.9816 17.3895 16.9013 16.499H16.8867ZM29.8939 16.4552C30.2589 16.6596 30.5508 16.9224 30.9888 17.0392C30.945 17.229 30.7698 17.3019 30.726 17.4917V21.4333C31.2224 21.5355 31.3392 21.2435 31.5727 21.0975C31.6311 21.7253 32.0399 22.3384 32.0107 22.8494H29.8939V16.4552ZM27.0618 18.572C27.0618 18.572 27.8355 17.9151 27.8355 17.8859V21.3165H28.3903L28.3757 17.4771C28.5947 17.2436 29.0472 16.9224 29.1494 16.6888V22.8202H24.2735C24.2005 21.5501 24.1859 20.2362 25.675 20.5136V20.0027C25.6312 19.9151 25.5436 20.0173 25.529 19.9005C25.7626 19.6669 25.8355 19.6085 26.4779 19.0538L26.4925 21.3165H27.0618V18.572ZM25.2224 21.2873C25.3246 21.4333 25.6896 21.4333 25.6604 21.1705C25.6166 20.9516 25.1494 21.0245 25.2224 21.2873Z" fill="#007A3D"/>
<path d="M11.0911 23.8566C11.2524 23.8566 11.3831 23.7259 11.3831 23.5647C11.3831 23.4034 11.2524 23.2727 11.0911 23.2727C10.9299 23.2727 10.7992 23.4034 10.7992 23.5647C10.7992 23.7259 10.9299 23.8566 11.0911 23.8566Z" fill="#007A3D"/>
<path d="M20.2881 16.4698C20.6531 16.6596 20.9451 16.937 21.3976 17.0538C21.3392 17.229 21.1786 17.3019 21.1348 17.4917V21.4333C21.6312 21.5355 21.7334 21.2581 21.967 21.0975C22.04 21.7253 22.4341 22.353 22.4195 22.8493H20.2881V16.4698Z" fill="#007A3D"/>
</g>
<defs>
<clipPath id="clip0_17544_63592">
<path d="M0 20C0 8.95431 8.95431 0 20 0C31.0457 0 40 8.95431 40 20C40 31.0457 31.0457 40 20 40C8.95431 40 0 31.0457 0 20Z" fill="white"/>
</clipPath>
</defs>
</svg>
