<svg width="40" height="40" viewBox="0 0 40 40" fill="none" xmlns="http://www.w3.org/2000/svg">
<g clip-path="url(#clip0_17522_60649)">
<path d="M0.00197029 0H39.9986V40.0022H0.00197029V0Z" fill="black"/>
<path fill-rule="evenodd" clip-rule="evenodd" d="M-10 0H50.0005V40.0022H-10V0Z" fill="white"/>
<path d="M20.0007 32.4374C26.8675 32.4374 32.4341 26.8708 32.4341 20.004C32.4341 13.1373 26.8675 7.57067 20.0007 7.57067C13.1339 7.57067 7.56732 13.1373 7.56732 20.004C7.56732 26.8708 13.1339 32.4374 20.0007 32.4374Z" fill="#BC002D"/>
</g>
<defs>
<clipPath id="clip0_17522_60649">
<path d="M0 4C0 1.79086 1.79086 0 4 0H36C38.2091 0 40 1.79086 40 4V36C40 38.2091 38.2091 40 36 40H4C1.79086 40 0 38.2091 0 36V4Z" fill="white"/>
</clipPath>
</defs>
</svg>
