<svg width="40" height="40" viewBox="0 0 40 40" fill="none" xmlns="http://www.w3.org/2000/svg">
<g clip-path="url(#clip0_17522_60648)">
<path d="M0.00468731 0H39.9971V40.0005H0.00468731V0Z" fill="black"/>
<path fill-rule="evenodd" clip-rule="evenodd" d="M-9.20312 0H70.7979V13.3335H-9.20312V0Z" fill="#000001"/>
<path fill-rule="evenodd" clip-rule="evenodd" d="M-9.20312 13.3335H70.7979V26.667H-9.20312L-9.20312 13.3335Z" fill="white"/>
<path fill-rule="evenodd" clip-rule="evenodd" d="M-9.20312 26.667H70.7979V40.0005H-9.20312V26.667Z" fill="#009900"/>
<path fill-rule="evenodd" clip-rule="evenodd" d="M-9.20312 40.0005L30.7974 19.9962L-9.20312 0L-9.20312 40.0005Z" fill="#FF0000"/>
<path fill-rule="evenodd" clip-rule="evenodd" d="M4.15469 19.7773L5.93789 20.6365H3.95205L4.39785 22.5818L3.15771 21.0175L1.91758 22.5737L2.36338 20.6365H0.361328L2.15264 19.7692L0.9125 18.2211L2.70381 19.0803L3.14961 17.1431L3.59541 19.0884L5.37861 18.2211L4.15469 19.7773Z" fill="white"/>
</g>
<defs>
<clipPath id="clip0_17522_60648">
<path d="M0 4C0 1.79086 1.79086 0 4 0H36C38.2091 0 40 1.79086 40 4V36C40 38.2091 38.2091 40 36 40H4C1.79086 40 0 38.2091 0 36V4Z" fill="white"/>
</clipPath>
</defs>
</svg>
