<svg width="40" height="40" viewBox="0 0 40 40" fill="none" xmlns="http://www.w3.org/2000/svg">
<g clip-path="url(#clip0_17522_60660)">
<path d="M0 0H40V40H0V0Z" fill="#00ABC2"/>
<path d="M21.6172 22.1809C24.5907 22.1809 27.0012 19.7704 27.0012 16.7969C27.0012 13.8234 24.5907 11.4129 21.6172 11.4129C18.6437 11.4129 16.2332 13.8234 16.2332 16.7969C16.2332 19.7704 18.6437 22.1809 21.6172 22.1809Z" fill="#FFEC2D"/>
<path d="M21.6172 10.6809C21.9372 10.6769 22.0572 10.4769 22.0572 10.2369C22.0572 9.91687 21.6172 8.39287 21.6172 8.39287C21.6172 8.39287 21.1772 9.91687 21.1772 10.2369C21.1772 10.4769 21.2972 10.6809 21.6172 10.6809Z" fill="#FFEC2D"/>
<path d="M27.7332 16.7969C27.7372 17.1169 27.9372 17.2369 28.1772 17.2369C28.4972 17.2369 30.0212 16.7969 30.0212 16.7969C30.0212 16.7969 28.4972 16.3569 28.1772 16.3569C27.9372 16.3569 27.7332 16.4769 27.7332 16.7969Z" fill="#FFEC2D"/>
<path d="M21.6172 22.9129C21.2972 22.9169 21.1772 23.1169 21.1772 23.3569C21.1772 23.6769 21.6172 25.2009 21.6172 25.2009C21.6172 25.2009 22.0572 23.6769 22.0572 23.3569C22.0572 23.1169 21.9372 22.9129 21.6172 22.9129Z" fill="#FFEC2D"/>
<path d="M15.5012 16.7969C15.4972 16.4769 15.2972 16.3569 15.0572 16.3569C14.7372 16.3569 13.2132 16.7969 13.2132 16.7969C13.2132 16.7969 14.7372 17.2369 15.0572 17.2369C15.2972 17.2369 15.5012 17.1169 15.5012 16.7969Z" fill="#FFEC2D"/>
<path d="M23.9577 11.1464C24.2549 11.2652 24.4423 11.1263 24.5341 10.9046C24.6566 10.609 24.8333 9.03259 24.8333 9.03259C24.8333 9.03259 23.8435 10.2722 23.7211 10.5678C23.6292 10.7896 23.662 11.024 23.9577 11.1464Z" fill="#FFEC2D"/>
<path d="M27.2676 19.1374C27.1489 19.4345 27.2877 19.6219 27.5095 19.7138C27.8051 19.8362 29.3815 20.0129 29.3815 20.0129C29.3815 20.0129 28.1419 19.0232 27.8462 18.9008C27.6245 18.8089 27.3901 18.8417 27.2676 19.1374Z" fill="#FFEC2D"/>
<path d="M19.2767 22.4473C18.9795 22.3286 18.7921 22.4674 18.7003 22.6891C18.5778 22.9848 18.4011 24.5612 18.4011 24.5612C18.4011 24.5612 19.3908 23.3215 19.5133 23.0259C19.6051 22.8042 19.5723 22.5698 19.2767 22.4473Z" fill="#FFEC2D"/>
<path d="M15.9667 14.4564C16.0855 14.1592 15.9466 13.9718 15.7249 13.88C15.4293 13.7575 13.8529 13.5808 13.8529 13.5808C13.8529 13.5808 15.0925 14.5705 15.3882 14.693C15.6099 14.7848 15.8443 14.752 15.9667 14.4564Z" fill="#FFEC2D"/>
<path d="M25.9419 12.4722C26.171 12.6957 26.3972 12.6391 26.5669 12.4694C26.7932 12.2431 27.5597 10.8544 27.5597 10.8544C27.5597 10.8544 26.171 11.6209 25.9447 11.8471C25.775 12.0168 25.7156 12.2459 25.9419 12.4722Z" fill="#FFEC2D"/>
<path d="M25.9419 21.1215C25.7184 21.3506 25.775 21.5769 25.9447 21.7466C26.171 21.9729 27.5597 22.7394 27.5597 22.7394C27.5597 22.7394 26.7932 21.3506 26.5669 21.1244C26.3972 20.9547 26.1681 20.8953 25.9419 21.1215Z" fill="#FFEC2D"/>
<path d="M17.2925 21.1215C17.0634 20.8981 16.8371 20.9547 16.6674 21.1244C16.4412 21.3506 15.6747 22.7394 15.6747 22.7394C15.6747 22.7394 17.0634 21.9729 17.2897 21.7466C17.4594 21.5769 17.5188 21.3478 17.2925 21.1215Z" fill="#FFEC2D"/>
<path d="M17.2925 12.4722C17.516 12.2431 17.4594 12.0168 17.2897 11.8471C17.0634 11.6209 15.6747 10.8543 15.6747 10.8543C15.6747 10.8543 16.4412 12.2431 16.6674 12.4694C16.8371 12.6391 17.0662 12.6985 17.2925 12.4722Z" fill="#FFEC2D"/>
<path d="M27.2676 14.4564C27.3938 14.7505 27.6245 14.7848 27.8462 14.693C28.1419 14.5705 29.3815 13.5808 29.3815 13.5808C29.3815 13.5808 27.8051 13.7575 27.5095 13.88C27.2877 13.9718 27.1452 14.1607 27.2676 14.4564Z" fill="#FFEC2D"/>
<path d="M23.9577 22.4473C23.6636 22.5735 23.6292 22.8042 23.7211 23.0259C23.8435 23.3215 24.8333 24.5612 24.8333 24.5612C24.8333 24.5612 24.6566 22.9848 24.5341 22.6891C24.4423 22.4674 24.2533 22.3249 23.9577 22.4473Z" fill="#FFEC2D"/>
<path d="M15.9667 19.1374C15.8406 18.8433 15.6099 18.8089 15.3882 18.9008C15.0925 19.0232 13.8529 20.0129 13.8529 20.0129C13.8529 20.0129 15.4293 19.8362 15.7249 19.7138C15.9467 19.6219 16.0892 19.433 15.9667 19.1374Z" fill="#FFEC2D"/>
<path d="M19.2767 11.1464C19.5708 11.0203 19.6051 10.7896 19.5133 10.5678C19.3908 10.2722 18.4011 9.03259 18.4011 9.03259C18.4011 9.03259 18.5778 10.609 18.7003 10.9046C18.7921 11.1263 18.9811 11.2689 19.2767 11.1464Z" fill="#FFEC2D"/>
<path d="M22.8156 10.7994C23.1302 10.8582 23.287 10.6856 23.3341 10.4503C23.3968 10.1365 23.2639 8.55579 23.2639 8.55579C23.2639 8.55579 22.5338 9.96403 22.4711 10.2778C22.4241 10.5132 22.5018 10.7367 22.8156 10.7994Z" fill="#FFEC2D"/>
<path d="M27.6146 17.9953C27.5558 18.3099 27.7285 18.4667 27.9638 18.5138C28.2776 18.5765 29.8583 18.4436 29.8583 18.4436C29.8583 18.4436 28.45 17.7135 28.1362 17.6508C27.9009 17.6038 27.6773 17.6815 27.6146 17.9953Z" fill="#FFEC2D"/>
<path d="M20.4188 22.7943C20.1042 22.7355 19.9473 22.9081 19.9003 23.1435C19.8376 23.4573 19.9705 25.038 19.9705 25.038C19.9705 25.038 20.7005 23.6297 20.7633 23.3159C20.8103 23.0806 20.7326 22.857 20.4188 22.7943Z" fill="#FFEC2D"/>
<path d="M15.6197 15.5985C15.6785 15.2839 15.5059 15.127 15.2706 15.08C14.9568 15.0173 13.3761 15.1501 13.3761 15.1501C13.3761 15.1501 14.7843 15.8802 15.0981 15.9429C15.3335 15.99 15.557 15.9123 15.6197 15.5985Z" fill="#FFEC2D"/>
<path d="M25.0195 11.7146C25.2876 11.8893 25.4986 11.7898 25.6321 11.5904C25.8101 11.3245 26.2923 9.81328 26.2923 9.81328C26.2923 9.81328 25.0789 10.8349 24.9009 11.1008C24.7673 11.3003 24.7536 11.5366 25.0195 11.7146Z" fill="#FFEC2D"/>
<path d="M26.6995 20.1992C26.5248 20.4673 26.6242 20.6783 26.8237 20.8118C27.0896 20.9898 28.6008 21.472 28.6008 21.472C28.6008 21.472 27.5791 20.2586 27.3132 20.0805C27.1138 19.947 26.8775 19.9333 26.6995 20.1992Z" fill="#FFEC2D"/>
<path d="M18.2149 21.8792C17.9467 21.7045 17.7358 21.8039 17.6023 22.0034C17.4242 22.2693 16.9421 23.7805 16.9421 23.7805C16.9421 23.7805 18.1555 22.7588 18.3335 22.4929C18.467 22.2935 18.4808 22.0572 18.2149 21.8792Z" fill="#FFEC2D"/>
<path d="M16.5349 13.3946C16.7096 13.1264 16.6101 12.9155 16.4107 12.7819C16.1448 12.6039 14.6336 12.1218 14.6336 12.1218C14.6336 12.1218 15.6552 13.3352 15.9212 13.5132C16.1206 13.6467 16.3569 13.6605 16.5349 13.3946Z" fill="#FFEC2D"/>
<path d="M26.7054 13.4034C26.8863 13.6675 27.1193 13.6563 27.3189 13.5232C27.5852 13.3456 28.6089 12.134 28.6089 12.134C28.6089 12.134 27.0969 12.6135 26.8307 12.791C26.631 12.9242 26.5279 13.1372 26.7054 13.4034Z" fill="#FFEC2D"/>
<path d="M25.0106 21.8851C24.7466 22.066 24.7577 22.299 24.8909 22.4986C25.0685 22.7649 26.2801 23.7886 26.2801 23.7886C26.2801 23.7886 25.8006 22.2766 25.623 22.0104C25.4899 21.8107 25.2768 21.7076 25.0106 21.8851Z" fill="#FFEC2D"/>
<path d="M16.529 20.1903C16.3481 19.9263 16.1151 19.9374 15.9154 20.0706C15.6492 20.2481 14.6254 21.4598 14.6254 21.4598C14.6254 21.4598 16.1375 20.9803 16.4037 20.8027C16.6034 20.6696 16.7065 20.4565 16.529 20.1903Z" fill="#FFEC2D"/>
<path d="M18.2238 11.7086C18.4878 11.5278 18.4766 11.2948 18.3435 11.0951C18.1659 10.8289 16.9543 9.80513 16.9543 9.80513C16.9543 9.80513 17.4338 11.3172 17.6113 11.5834C17.7445 11.7831 17.9575 11.8862 18.2238 11.7086Z" fill="#FFEC2D"/>
<path d="M27.6167 15.6089C27.6828 15.9221 27.9023 16.0009 28.1377 15.9543C28.4516 15.8922 29.8611 15.1645 29.8611 15.1645C29.8611 15.1645 28.2807 15.0289 27.9668 15.0911C27.7314 15.1377 27.5546 15.295 27.6167 15.6089Z" fill="#FFEC2D"/>
<path d="M22.8051 22.7964C22.492 22.8625 22.4131 23.082 22.4597 23.3174C22.5219 23.6313 23.2495 25.0408 23.2495 25.0408C23.2495 25.0408 23.3851 23.4604 23.323 23.1465C23.2764 22.911 23.119 22.7342 22.8051 22.7964Z" fill="#FFEC2D"/>
<path d="M15.6177 17.9848C15.5516 17.6717 15.3321 17.5928 15.0967 17.6394C14.7828 17.7016 13.3732 18.4292 13.3732 18.4292C13.3732 18.4292 14.9537 18.5648 15.2676 18.5027C15.503 18.4561 15.6798 18.2987 15.6177 17.9848Z" fill="#FFEC2D"/>
<path d="M20.4293 10.7974C20.7424 10.7313 20.8212 10.5118 20.7746 10.2763C20.7125 9.96244 19.9848 8.55293 19.9848 8.55293C19.9848 8.55293 19.8492 10.1334 19.9114 10.4473C19.958 10.6827 20.1153 10.8595 20.4293 10.7974Z" fill="#FFEC2D"/>
<path d="M21.4304 26.2C21.2904 26.452 21.2064 26.744 21.0304 26.972C20.4864 26.48 19.7024 26.492 19.0144 26.464C18.4464 26.432 17.8304 26.38 17.3904 25.976C16.9304 25.596 16.5504 25.108 16.0384 24.8C15.5573 24.6964 15.1051 24.4874 14.7144 24.188C13.9064 23.528 13.4424 22.548 12.6504 21.868C12.5024 21.724 12.3224 21.608 12.1544 21.484C11.9944 21.524 12.0664 21.868 11.8704 21.692C11.7624 21.612 11.4944 21.608 11.4704 21.716C11.7104 22.036 11.9544 22.396 11.9904 22.804C11.8224 22.82 11.5304 22.768 11.4504 22.828C11.6703 23.1577 11.9465 23.4462 12.2664 23.68C12.1144 23.704 11.8144 23.692 11.7544 23.752C12.0539 24.0388 12.4237 24.2416 12.8264 24.34C12.9064 24.452 12.7024 24.668 12.8784 24.764C12.9784 24.804 13.3144 24.876 13.0824 24.992C12.9224 25.096 12.9824 25.348 13.1864 25.34C13.3144 25.408 13.6024 25.42 13.6264 25.54C13.5104 25.652 13.1584 25.788 13.4584 25.9C13.7413 26.0603 14.0577 26.1521 14.3824 26.168C14.2224 26.304 14.0224 26.38 13.8584 26.508C14.5984 26.944 15.4184 27.228 16.2344 27.508C16.5544 27.612 16.8864 27.712 17.2224 27.776C16.2464 27.72 15.3024 27.432 14.4144 27.036C13.9544 26.836 13.4944 26.64 13.0224 26.468C13.2264 26.36 13.4664 26.332 13.6824 26.24C13.2344 26.152 12.7504 26.12 12.3624 25.88C12.4184 25.768 12.6424 25.764 12.7704 25.708C13.0104 25.652 13.1544 25.588 12.8224 25.564C12.4864 25.472 12.1024 25.512 11.8024 25.312C11.8224 25.192 12.1344 25.232 12.2584 25.18C12.4184 25.152 12.5944 25.128 12.7224 25.02C12.2024 24.808 11.5224 24.96 11.1144 24.5C11.0224 24.324 11.4064 24.464 11.5144 24.436C11.7944 24.436 12.0944 24.524 12.3624 24.412C11.6024 24.08 10.7904 23.772 10.2144 23.156C10.1504 23.056 9.95844 22.784 10.1144 22.752C10.5624 22.812 10.8864 23.3 11.3704 23.224C11.4344 23.14 11.0904 23 11.0024 22.876C10.2788 22.2946 9.64766 21.6068 9.13043 20.836C9.09843 20.568 9.51043 20.528 9.61843 20.732C10.1544 21.252 10.6384 21.852 11.3064 22.204C11.5464 22.32 11.1704 22.068 11.1224 21.976C10.4871 21.2717 9.9379 20.4942 9.48644 19.66C9.40644 19.508 9.28244 19.232 9.51444 19.152C9.74244 19.036 9.97443 19.192 10.0904 19.392C10.5424 19.964 10.8784 20.644 11.4424 21.12C10.9624 20.188 10.4464 19.2 10.4344 18.128C10.4464 17.92 10.4584 17.608 10.7424 17.612C10.9824 17.576 10.9424 17.88 11.0224 18.024C11.2544 18.816 11.3544 19.672 11.8224 20.368C11.7224 19.784 11.5664 19.18 11.6704 18.584C11.6944 18.384 11.9104 18.328 12.0584 18.448C12.1744 18.728 12.1984 19.084 12.3024 19.388C12.9258 21.4586 14.2384 23.2539 16.0224 24.476C17.4832 25.4756 19.1877 26.0603 20.9544 26.168C21.1144 26.184 21.2744 26.188 21.4304 26.196M26.8864 29.84C26.5984 30.016 26.3744 29.704 26.1344 29.612C25.9584 29.708 25.9424 30.02 25.7824 30.172C25.5904 30.392 25.3504 30.108 25.3704 29.892C25.1384 30.088 25.0224 30.532 24.6504 30.468C24.4704 30.324 24.3384 30.02 24.2024 30.368C24.0944 30.536 23.8024 30.776 23.6464 30.52C23.5984 30.296 23.4864 30.032 23.3664 30.388C23.2784 30.644 23.0064 30.828 22.7504 30.716C22.6064 30.6 22.8624 30.168 22.6824 30.196C22.4104 30.38 22.2504 30.824 21.8704 30.788C21.7224 30.628 21.9624 30.344 21.7984 30.16C21.6104 30.404 21.3984 30.764 21.0664 30.788C20.9064 30.66 21.0744 30.288 20.9704 30.236C20.6344 30.436 20.2744 30.8 19.8504 30.688C20.0144 30.048 20.7104 29.828 21.2904 29.78C22.2944 29.656 23.3504 29.884 24.3184 29.52C24.4744 29.424 24.8504 29.292 24.7184 29.072C24.5984 28.896 25.0264 28.964 25.0664 28.76C25.0424 28.504 25.2664 28.54 25.4824 28.52C26.4584 28.476 27.4224 28.68 28.3944 28.716C28.4664 29.188 27.9424 29.52 27.5144 29.376C27.3144 29.408 27.0144 28.912 27.0744 29.272C27.0344 29.464 27.0584 29.712 26.8864 29.84ZM18.5904 28.872C18.8144 29.076 18.9744 28.832 19.1864 28.74C19.8787 28.469 20.5292 28.1013 21.1184 27.648C21.4864 27.344 21.8064 26.948 22.3024 26.848C23.2704 26.556 24.2984 26.592 25.2664 26.32C26.0064 25.312 27.2584 24.948 28.3104 24.368C28.5464 24.296 28.6384 24.1 28.7104 23.888C29.1104 23.252 29.6584 22.692 30.3064 22.308C30.6123 22.1274 30.9727 22.0621 31.3224 22.124C31.2742 22.532 31.0795 22.9087 30.7744 23.184C31.0104 23.18 31.2144 23.032 31.4464 23.04C31.5264 23.464 31.0704 23.684 30.8264 23.948C30.9624 23.98 31.4824 24.02 31.1984 24.156C30.8384 24.404 30.4264 24.576 30.0944 24.868C30.4024 24.924 30.4384 24.988 30.1264 25.1C29.9544 25.212 29.6304 25.252 29.5984 25.476C29.8304 25.62 29.4944 25.756 29.3624 25.804C29.1144 25.864 28.8504 25.972 29.1824 26.164C29.0584 26.352 28.7864 26.392 28.5664 26.372C28.6344 26.588 28.7304 26.828 28.4544 26.924C27.8353 27.4134 27.0937 27.7234 26.3104 27.82C27.2904 27.892 28.3024 27.712 29.1384 27.18C29.2504 27.048 29.8304 26.904 29.5064 26.796C29.3544 26.732 29.0264 26.66 29.0024 26.544C29.4584 26.264 30.0304 26.364 30.5184 26.2C30.5304 26.04 30.1464 26.084 30.0024 26.048C29.6624 26.02 29.6824 25.932 30.0104 25.9C30.4264 25.788 30.8984 25.768 31.2504 25.5C30.9664 25.364 30.6064 25.48 30.3024 25.372C30.8184 25.148 31.4264 25.124 31.8904 24.784C32.1024 24.548 31.6184 24.624 31.4784 24.628C31.1944 24.68 31.0624 24.54 31.3864 24.424C31.9424 24.012 32.6424 23.748 33.0344 23.156C33.1264 23.024 33.2504 22.624 32.9544 22.764C32.5704 22.896 32.2304 23.328 31.7864 23.196C32.6584 22.52 33.4824 21.756 34.0784 20.824C34.1104 20.552 33.6864 20.524 33.5784 20.736C33.0184 21.272 32.5144 21.908 31.7984 22.248C32.4733 21.5732 33.0594 20.8151 33.5424 19.992C33.6504 19.752 33.9344 19.46 33.7824 19.192C33.5304 18.984 33.2184 19.176 33.0904 19.42C32.6544 19.988 32.3264 20.648 31.7704 21.112C32.2544 20.18 32.7624 19.184 32.7704 18.112C32.7704 17.888 32.7304 17.56 32.4264 17.604C32.1864 17.644 32.2464 18.004 32.1464 18.184C31.9304 18.92 31.8264 19.716 31.3864 20.356C31.4864 19.76 31.6584 19.136 31.5264 18.536C31.4624 18.264 31.0264 18.38 31.0864 18.648C30.5664 21.284 28.7944 23.588 26.4864 24.92C25.4264 25.52 24.2464 25.904 23.0384 26.08C22.7184 26.148 22.3664 26.108 22.0584 26.22C21.3064 26.792 20.8544 27.756 19.9064 28.056C19.4784 28.268 18.9264 28.312 18.6224 28.704C18.5978 28.7564 18.5868 28.8142 18.5904 28.872ZM20.6584 28.46C20.5144 28.468 20.3744 28.484 20.2344 28.528C20.0464 28.556 19.8664 28.62 19.6824 28.648L19.6064 28.664L19.4824 28.676C19.4986 28.743 19.4986 28.813 19.4824 28.88C19.4694 28.9102 19.4504 28.9375 19.4264 28.96C19.4024 28.992 19.3744 29.016 19.3384 29.032C19.3059 29.048 19.2706 29.0575 19.2344 29.06C19.1984 29.06 19.1624 29.06 19.1264 29.044C19.0904 29.032 19.0584 29.012 19.0264 28.984L18.9144 29.004H18.8104L18.6984 28.964C18.6623 28.9498 18.6275 28.9324 18.5944 28.912C18.4584 28.992 18.3064 29.068 18.2224 29.208C18.1834 29.2721 18.1613 29.345 18.1584 29.42C18.1504 29.516 18.1744 29.612 18.2144 29.7C18.2304 29.724 18.2424 29.608 18.2864 29.592C18.3624 29.528 18.4584 29.484 18.5544 29.46C18.6344 29.42 18.6224 29.46 18.5904 29.524C18.5824 29.56 18.5384 29.684 18.5984 29.62C18.875 29.5167 19.1672 29.4612 19.4624 29.456C19.8864 29.412 20.3104 29.4 20.7344 29.396L21.9344 29.42C22.1264 29.428 22.3184 29.468 22.5064 29.436C22.5504 29.424 22.6224 29.424 22.6504 29.396C22.5624 29.348 22.4624 29.344 22.3704 29.332H21.6064C21.3944 29.312 21.1744 29.308 20.9744 29.228C20.9184 29.208 20.8704 29.156 20.8184 29.212C20.7423 29.2392 20.663 29.2567 20.5824 29.264C20.4424 29.272 20.3024 29.244 20.1744 29.192C20.2664 29.064 20.3784 28.952 20.4824 28.832L20.2344 28.78C20.3824 28.68 20.5144 28.564 20.6584 28.46Z" fill="#FFEC2D"/>
<path d="M19.1984 28.932C19.2515 28.932 19.2944 28.889 19.2944 28.836C19.2944 28.783 19.2515 28.74 19.1984 28.74C19.1454 28.74 19.1024 28.783 19.1024 28.836C19.1024 28.889 19.1454 28.932 19.1984 28.932Z" fill="#FFEC2D"/>
<path d="M19.1904 28.86C19.2125 28.86 19.2304 28.8421 19.2304 28.82C19.2304 28.7979 19.2125 28.78 19.1904 28.78C19.1683 28.78 19.1504 28.7979 19.1504 28.82C19.1504 28.8421 19.1683 28.86 19.1904 28.86Z" fill="#FFEC2D"/>
<path fill-rule="evenodd" clip-rule="evenodd" d="M19.1904 28.788C19.1728 28.788 19.1584 28.8023 19.1584 28.82C19.1584 28.8377 19.1728 28.852 19.1904 28.852C19.2081 28.852 19.2224 28.8377 19.2224 28.82C19.2224 28.8023 19.2081 28.788 19.1904 28.788ZM19.1424 28.82C19.1424 28.7935 19.1639 28.772 19.1904 28.772C19.2169 28.772 19.2384 28.7935 19.2384 28.82C19.2384 28.8465 19.2169 28.868 19.1904 28.868C19.1639 28.868 19.1424 28.8465 19.1424 28.82Z" fill="#FFEC2D"/>
<path d="M4.8 2.92C4.8 2.92 4.416 2.592 4.284 2.756C4.076 3.016 4.932 4.316 4.932 4.772C4.932 5.524 4.428 5.728 3.812 5.832C3.396 5.904 2.72 5.804 2.72 5.804C2.848 5.632 2.932 5.58 3.144 5.568C2.904 5.448 2.664 5.176 2.664 4.756C2.664 4.112 2.928 3.844 2.928 3.116C2.928 2.72 2.6 2.2 2.6 2.2C3.184 2.26 3.472 2.8 3.308 3.232C3.35302 3.24096 3.39954 3.23871 3.44349 3.22546C3.48743 3.2122 3.52744 3.18835 3.56 3.156C3.6 3.276 3.536 3.416 3.444 3.536C3.516 3.576 3.572 3.552 3.684 3.528C3.676 3.648 3.604 3.784 3.42 3.908C3.948 3.772 4.268 4.136 4.268 4.52C4.268 4.812 4.068 5.02 3.868 5.02C3.804 5.02 3.708 4.992 3.656 4.952C3.616 5.032 3.64 5.14 3.676 5.22C3.532 5.18 3.436 5.092 3.504 4.912C3.392 4.904 3.304 4.864 3.244 4.792C3.304 4.712 3.396 4.672 3.504 4.672C3.424 4.504 3.516 4.412 3.648 4.336C3.648 4.336 3.564 4.672 3.776 4.672C3.872 4.672 3.96 4.644 3.96 4.5C3.96 4.376 3.852 4.204 3.6 4.216C3.352 4.228 3.148 4.388 3.148 4.788C3.148 5.156 3.448 5.34 3.84 5.348C4.192 5.364 4.46 5.172 4.46 4.808C4.46 4.32 3.76 3.216 3.76 2.784C3.76 2.46 4.048 2.276 4.336 2.276C4.704 2.276 5.016 2.644 5.016 2.644L4.8 2.916V2.92Z" fill="#FFEC2D"/>
<path d="M4.88 11.684C4.88 12.496 4.152 12.912 3.58 12.912C2.812 12.912 2.4 12.452 2.4 11.848C2.4 11.508 2.464 11.292 2.62 10.968L4.388 7.3C4.45205 7.14571 4.47943 6.97866 4.468 6.812C4.468 6.484 4.148 6.216 3.816 6.212C3.512 6.2 3.176 6.492 3.176 6.824C3.176 7.228 3.388 7.408 3.604 7.408C3.868 7.408 3.972 7.3 3.972 7.112C3.972 6.984 3.912 6.928 3.82 6.928C3.592 6.928 3.66 7.232 3.66 7.232C3.62989 7.22643 3.60139 7.21429 3.57652 7.19643C3.55165 7.17858 3.53103 7.15545 3.51612 7.1287C3.50122 7.10196 3.49241 7.07225 3.49031 7.04171C3.48822 7.01116 3.49289 6.98053 3.504 6.952C3.41838 6.9328 3.34123 6.88651 3.284 6.82C3.344 6.76 3.416 6.716 3.504 6.7C3.452 6.524 3.524 6.44 3.676 6.4C3.64865 6.46013 3.64163 6.52753 3.656 6.592C3.896 6.52 4.268 6.632 4.268 7.048C4.268 7.464 3.98 7.812 3.44 7.728C3.568 7.788 3.632 7.912 3.648 8.052C3.548 8.012 3.44 8.012 3.44 8.012C3.504 8.12 3.592 8.212 3.588 8.436C3.488 8.388 3.392 8.304 3.268 8.356C3.468 8.756 3.22 9.3 2.588 9.428C2.82 9.156 2.932 8.868 2.932 8.576C2.932 7.636 2.672 7.48 2.672 6.824C2.67612 6.67186 2.71635 6.52288 2.78937 6.38935C2.8624 6.25581 2.96613 6.14156 3.092 6.056V6.068C3.0146 6.0521 2.94143 6.02001 2.87732 5.97382C2.8132 5.92763 2.75959 5.86839 2.72 5.8C3.16559 5.67719 3.63664 5.68134 4.08 5.812C4.2283 5.83298 4.36999 5.88701 4.49461 5.97009C4.61923 6.05317 4.72359 6.16318 4.8 6.292C4.87986 6.47423 4.92109 6.67104 4.92109 6.87C4.92109 7.06896 4.87986 7.26577 4.8 7.448C4.548 7.968 3.372 10.472 3.004 11.256C2.924 11.424 2.88 11.6 2.88 11.792C2.88 12.272 3.32 12.44 3.568 12.44C3.868 12.44 4.176 12.212 4.176 11.928C4.176 11.748 4.076 11.636 3.936 11.636C3.596 11.636 3.616 11.924 3.684 12.108C3.472 12.012 3.352 11.844 3.384 11.668C3.25274 11.646 3.13362 11.5779 3.048 11.476C3.128 11.372 3.232 11.292 3.384 11.288C3.316 11.012 3.504 10.896 3.684 10.832C3.628 11.032 3.588 11.268 3.936 11.268C4.188 11.268 4.384 11.308 4.5 11.476L4.528 10.396C4.544 10.072 4.096 10.076 3.808 10.176C3.916 9.804 4.136 9.6 4.648 9.652C4.56956 9.62184 4.50261 9.56773 4.45666 9.49737C4.4107 9.427 4.38808 9.34395 4.392 9.26C4.392 8.956 4.64 8.62 4.8 8.52L4.88 11.68V11.684Z" fill="#FFEC2D"/>
<path d="M4.88 14.116C4.88 13.304 4.152 12.888 3.58 12.888C2.812 12.888 2.4 13.348 2.4 13.952C2.4 14.292 2.464 14.508 2.62 14.832L4.388 18.5C4.45205 18.6543 4.47943 18.8213 4.468 18.988C4.468 19.316 4.148 19.584 3.816 19.588C3.512 19.6 3.176 19.308 3.176 18.976C3.176 18.572 3.388 18.392 3.604 18.392C3.868 18.392 3.972 18.5 3.972 18.688C3.972 18.816 3.912 18.872 3.82 18.872C3.592 18.872 3.66 18.568 3.66 18.568C3.62989 18.5736 3.60139 18.5857 3.57652 18.6036C3.55165 18.6214 3.53103 18.6446 3.51612 18.6713C3.50122 18.698 3.49241 18.7277 3.49031 18.7583C3.48822 18.7888 3.49289 18.8195 3.504 18.848C3.41838 18.8672 3.34123 18.9135 3.284 18.98C3.344 19.04 3.416 19.084 3.504 19.1C3.452 19.276 3.524 19.36 3.676 19.4C3.64865 19.3399 3.64163 19.2725 3.656 19.208C3.896 19.28 4.268 19.168 4.268 18.752C4.268 18.336 3.98 17.988 3.44 18.072C3.568 18.012 3.632 17.888 3.648 17.748C3.548 17.788 3.44 17.788 3.44 17.788C3.504 17.68 3.592 17.588 3.588 17.364C3.488 17.412 3.392 17.496 3.268 17.444C3.468 17.044 3.22 16.5 2.588 16.372C2.82 16.644 2.932 16.932 2.932 17.224C2.932 18.164 2.672 18.32 2.672 18.976C2.67612 19.1281 2.71635 19.2771 2.78937 19.4107C2.8624 19.5442 2.96613 19.6584 3.092 19.744V19.732C3.0146 19.7479 2.94143 19.78 2.87732 19.8262C2.8132 19.8724 2.75959 19.9316 2.72 20C3.16559 20.1228 3.63664 20.1187 4.08 19.988C4.2283 19.967 4.36999 19.913 4.49461 19.8299C4.61923 19.7468 4.72359 19.6368 4.8 19.508C4.87986 19.3258 4.92109 19.129 4.92109 18.93C4.92109 18.731 4.87986 18.5342 4.8 18.352C4.548 17.832 3.372 15.328 3.004 14.544C2.924 14.376 2.88 14.2 2.88 14.008C2.88 13.528 3.32 13.36 3.568 13.36C3.868 13.36 4.176 13.588 4.176 13.872C4.176 14.052 4.076 14.164 3.936 14.164C3.596 14.164 3.616 13.876 3.684 13.692C3.472 13.788 3.352 13.956 3.384 14.132C3.25274 14.154 3.13362 14.2221 3.048 14.324C3.128 14.428 3.232 14.508 3.384 14.512C3.316 14.788 3.504 14.904 3.684 14.968C3.628 14.768 3.588 14.532 3.936 14.532C4.188 14.532 4.384 14.492 4.5 14.324L4.528 15.404C4.544 15.728 4.096 15.724 3.808 15.624C3.916 15.996 4.136 16.2 4.648 16.148C4.56956 16.1782 4.50261 16.2323 4.45666 16.3026C4.4107 16.373 4.38808 16.456 4.392 16.54C4.392 16.844 4.64 17.18 4.8 17.28L4.88 14.12V14.116Z" fill="#FFEC2D"/>
<path d="M4.8 2.92C4.8 2.92 5.184 2.592 5.316 2.756C5.524 3.016 4.668 4.316 4.668 4.772C4.668 5.524 5.172 5.728 5.788 5.832C6.204 5.904 6.88 5.804 6.88 5.804C6.752 5.632 6.668 5.58 6.456 5.568C6.696 5.448 6.936 5.176 6.936 4.756C6.936 4.112 6.672 3.844 6.672 3.116C6.672 2.72 7 2.2 7 2.2C6.416 2.26 6.128 2.8 6.292 3.232C6.24698 3.24096 6.20046 3.23871 6.15651 3.22546C6.11257 3.2122 6.07256 3.18835 6.04 3.156C6 3.276 6.064 3.416 6.156 3.536C6.084 3.576 6.028 3.552 5.916 3.528C5.924 3.648 5.996 3.784 6.18 3.908C5.652 3.772 5.332 4.136 5.332 4.52C5.332 4.812 5.532 5.02 5.732 5.02C5.796 5.02 5.892 4.992 5.944 4.952C5.984 5.032 5.96 5.14 5.924 5.22C6.068 5.18 6.164 5.092 6.096 4.912C6.208 4.904 6.296 4.864 6.356 4.792C6.296 4.712 6.204 4.672 6.096 4.672C6.176 4.504 6.084 4.412 5.952 4.336C5.952 4.336 6.036 4.672 5.824 4.672C5.728 4.672 5.64 4.644 5.64 4.5C5.64 4.376 5.748 4.204 6 4.216C6.248 4.228 6.452 4.388 6.452 4.788C6.452 5.156 6.152 5.34 5.76 5.348C5.408 5.364 5.14 5.172 5.14 4.808C5.14 4.32 5.84 3.216 5.84 2.784C5.84 2.46 5.552 2.276 5.264 2.276C4.896 2.276 4.584 2.644 4.584 2.644L4.8 2.916V2.92Z" fill="#FFEC2D"/>
<path d="M4.72 11.684C4.72 12.496 5.448 12.912 6.02 12.912C6.788 12.912 7.2 12.452 7.2 11.848C7.2 11.508 7.136 11.292 6.98 10.968L5.212 7.3C5.14795 7.14571 5.12057 6.97866 5.132 6.812C5.132 6.484 5.452 6.216 5.784 6.212C6.088 6.2 6.424 6.492 6.424 6.824C6.424 7.228 6.212 7.408 5.996 7.408C5.732 7.408 5.628 7.3 5.628 7.112C5.628 6.984 5.688 6.928 5.78 6.928C6.008 6.928 5.94 7.232 5.94 7.232C5.97011 7.22643 5.99861 7.21429 6.02348 7.19643C6.04835 7.17858 6.06897 7.15545 6.08388 7.1287C6.09878 7.10196 6.10759 7.07225 6.10969 7.04171C6.11178 7.01116 6.10711 6.98053 6.096 6.952C6.18162 6.9328 6.25877 6.88651 6.316 6.82C6.256 6.76 6.184 6.716 6.096 6.7C6.148 6.524 6.076 6.44 5.924 6.4C5.95135 6.46013 5.95837 6.52753 5.944 6.592C5.704 6.52 5.332 6.632 5.332 7.048C5.332 7.464 5.62 7.812 6.16 7.728C6.032 7.788 5.968 7.912 5.952 8.052C6.052 8.012 6.16 8.012 6.16 8.012C6.096 8.12 6.008 8.212 6.012 8.436C6.112 8.388 6.208 8.304 6.332 8.356C6.132 8.756 6.38 9.3 7.012 9.428C6.78 9.156 6.668 8.868 6.668 8.576C6.668 7.636 6.928 7.48 6.928 6.824C6.92388 6.67186 6.88365 6.52288 6.81063 6.38934C6.7376 6.25581 6.63387 6.14156 6.508 6.056V6.068C6.5854 6.0521 6.65857 6.02001 6.72268 5.97382C6.7868 5.92763 6.84041 5.86839 6.88 5.8C6.43441 5.67719 5.96336 5.68134 5.52 5.812C5.3717 5.83298 5.23001 5.88701 5.10539 5.97009C4.98077 6.05317 4.87641 6.16318 4.8 6.292C4.72014 6.47423 4.67891 6.67104 4.67891 6.87C4.67891 7.06896 4.72014 7.26577 4.8 7.448C5.052 7.968 6.228 10.472 6.596 11.256C6.676 11.424 6.72 11.6 6.72 11.792C6.72 12.272 6.28 12.44 6.032 12.44C5.732 12.44 5.424 12.212 5.424 11.928C5.424 11.748 5.524 11.636 5.664 11.636C6.004 11.636 5.984 11.924 5.916 12.108C6.128 12.012 6.248 11.844 6.216 11.668C6.34726 11.646 6.46637 11.5779 6.552 11.476C6.472 11.372 6.368 11.292 6.216 11.288C6.284 11.012 6.096 10.896 5.916 10.832C5.972 11.032 6.012 11.268 5.664 11.268C5.412 11.268 5.216 11.308 5.1 11.476L5.072 10.396C5.056 10.072 5.504 10.076 5.792 10.176C5.684 9.804 5.464 9.6 4.952 9.652C5.03044 9.62184 5.09739 9.56773 5.14334 9.49737C5.1893 9.427 5.21192 9.34395 5.208 9.26C5.208 8.956 4.96 8.62 4.8 8.52L4.72 11.68V11.684Z" fill="#FFEC2D"/>
<path d="M4.72 14.116C4.72 13.304 5.448 12.888 6.02 12.888C6.788 12.888 7.2 13.348 7.2 13.952C7.2 14.292 7.136 14.508 6.98 14.832L5.212 18.5C5.14795 18.6543 5.12057 18.8213 5.132 18.988C5.132 19.316 5.452 19.584 5.784 19.588C6.088 19.6 6.424 19.308 6.424 18.976C6.424 18.572 6.212 18.392 5.996 18.392C5.732 18.392 5.628 18.5 5.628 18.688C5.628 18.816 5.688 18.872 5.78 18.872C6.008 18.872 5.94 18.568 5.94 18.568C5.97011 18.5736 5.99861 18.5857 6.02348 18.6036C6.04835 18.6214 6.06897 18.6446 6.08388 18.6713C6.09878 18.698 6.10759 18.7277 6.10969 18.7583C6.11178 18.7888 6.10711 18.8195 6.096 18.848C6.18162 18.8672 6.25877 18.9135 6.316 18.98C6.256 19.04 6.184 19.084 6.096 19.1C6.148 19.276 6.076 19.36 5.924 19.4C5.95135 19.3399 5.95837 19.2725 5.944 19.208C5.704 19.28 5.332 19.168 5.332 18.752C5.332 18.336 5.62 17.988 6.16 18.072C6.032 18.012 5.968 17.888 5.952 17.748C6.052 17.788 6.16 17.788 6.16 17.788C6.096 17.68 6.008 17.588 6.012 17.364C6.112 17.412 6.208 17.496 6.332 17.444C6.132 17.044 6.38 16.5 7.012 16.372C6.78 16.644 6.668 16.932 6.668 17.224C6.668 18.164 6.928 18.32 6.928 18.976C6.92388 19.1281 6.88365 19.2771 6.81063 19.4107C6.7376 19.5442 6.63387 19.6584 6.508 19.744V19.732C6.5854 19.7479 6.65857 19.78 6.72268 19.8262C6.7868 19.8724 6.84041 19.9316 6.88 20C6.43441 20.1228 5.96336 20.1187 5.52 19.988C5.3717 19.967 5.23001 19.913 5.10539 19.8299C4.98077 19.7468 4.87641 19.6368 4.8 19.508C4.72014 19.3258 4.67891 19.129 4.67891 18.93C4.67891 18.731 4.72014 18.5342 4.8 18.352C5.052 17.832 6.228 15.328 6.596 14.544C6.676 14.376 6.72 14.2 6.72 14.008C6.72 13.528 6.28 13.36 6.032 13.36C5.732 13.36 5.424 13.588 5.424 13.872C5.424 14.052 5.524 14.164 5.664 14.164C6.004 14.164 5.984 13.876 5.916 13.692C6.128 13.788 6.248 13.956 6.216 14.132C6.34726 14.154 6.46637 14.2221 6.552 14.324C6.472 14.428 6.368 14.508 6.216 14.512C6.284 14.788 6.096 14.904 5.916 14.968C5.972 14.768 6.012 14.532 5.664 14.532C5.412 14.532 5.216 14.492 5.1 14.324L5.072 15.404C5.056 15.728 5.504 15.724 5.792 15.624C5.684 15.996 5.464 16.2 4.952 16.148C5.03044 16.1782 5.09739 16.2323 5.14334 16.3026C5.1893 16.373 5.21192 16.456 5.208 16.54C5.208 16.844 4.96 17.18 4.8 17.28L4.72 14.12V14.116Z" fill="#FFEC2D"/>
<path d="M4.8 37.08C4.8 37.08 4.416 37.408 4.284 37.244C4.076 36.984 4.932 35.684 4.932 35.228C4.932 34.476 4.428 34.272 3.812 34.168C3.396 34.096 2.72 34.196 2.72 34.196C2.848 34.368 2.932 34.42 3.144 34.432C2.904 34.552 2.664 34.824 2.664 35.244C2.664 35.888 2.928 36.156 2.928 36.884C2.928 37.28 2.6 37.8 2.6 37.8C3.184 37.74 3.472 37.2 3.308 36.768C3.35302 36.759 3.39954 36.7613 3.44349 36.7745C3.48743 36.7878 3.52744 36.8116 3.56 36.844C3.6 36.724 3.536 36.584 3.444 36.464C3.516 36.424 3.572 36.448 3.684 36.472C3.676 36.352 3.604 36.216 3.42 36.092C3.948 36.228 4.268 35.864 4.268 35.48C4.268 35.188 4.068 34.98 3.868 34.98C3.804 34.98 3.708 35.008 3.656 35.048C3.616 34.968 3.64 34.86 3.676 34.78C3.532 34.82 3.436 34.908 3.504 35.088C3.392 35.096 3.304 35.136 3.244 35.208C3.304 35.288 3.396 35.328 3.504 35.328C3.424 35.496 3.516 35.588 3.648 35.664C3.648 35.664 3.564 35.328 3.776 35.328C3.872 35.328 3.96 35.356 3.96 35.5C3.96 35.624 3.852 35.796 3.6 35.784C3.352 35.772 3.148 35.612 3.148 35.212C3.148 34.844 3.448 34.66 3.84 34.652C4.192 34.636 4.46 34.828 4.46 35.192C4.46 35.68 3.76 36.784 3.76 37.216C3.76 37.54 4.048 37.724 4.336 37.724C4.704 37.724 5.016 37.356 5.016 37.356L4.8 37.084V37.08Z" fill="#FFEC2D"/>
<path d="M4.88 28.316C4.88 27.504 4.152 27.088 3.58 27.088C2.812 27.088 2.4 27.548 2.4 28.152C2.4 28.492 2.464 28.708 2.62 29.032L4.388 32.7C4.45205 32.8543 4.47943 33.0213 4.468 33.188C4.468 33.516 4.148 33.784 3.816 33.788C3.512 33.8 3.176 33.508 3.176 33.176C3.176 32.772 3.388 32.592 3.604 32.592C3.868 32.592 3.972 32.7 3.972 32.888C3.972 33.016 3.912 33.072 3.82 33.072C3.592 33.072 3.66 32.768 3.66 32.768C3.62989 32.7736 3.60139 32.7857 3.57652 32.8036C3.55165 32.8214 3.53103 32.8446 3.51612 32.8713C3.50122 32.898 3.49241 32.9277 3.49031 32.9583C3.48822 32.9888 3.49289 33.0195 3.504 33.048C3.41838 33.0672 3.34123 33.1135 3.284 33.18C3.344 33.24 3.416 33.284 3.504 33.3C3.452 33.476 3.524 33.56 3.676 33.6C3.64865 33.5399 3.64163 33.4725 3.656 33.408C3.896 33.48 4.268 33.368 4.268 32.952C4.268 32.536 3.98 32.188 3.44 32.272C3.568 32.212 3.632 32.088 3.648 31.948C3.548 31.988 3.44 31.988 3.44 31.988C3.504 31.88 3.592 31.788 3.588 31.564C3.488 31.612 3.392 31.696 3.268 31.644C3.468 31.244 3.22 30.7 2.588 30.572C2.82 30.844 2.932 31.132 2.932 31.424C2.932 32.364 2.672 32.52 2.672 33.176C2.67612 33.3281 2.71635 33.4771 2.78937 33.6107C2.8624 33.7442 2.96613 33.8584 3.092 33.944V33.932C3.0146 33.9479 2.94143 33.98 2.87732 34.0262C2.8132 34.0724 2.75959 34.1316 2.72 34.2C3.16559 34.3228 3.63664 34.3187 4.08 34.188C4.2283 34.167 4.36999 34.113 4.49461 34.0299C4.61923 33.9468 4.72359 33.8368 4.8 33.708C4.87986 33.5258 4.92109 33.329 4.92109 33.13C4.92109 32.931 4.87986 32.7342 4.8 32.552C4.548 32.032 3.372 29.528 3.004 28.744C2.924 28.576 2.88 28.4 2.88 28.208C2.88 27.728 3.32 27.56 3.568 27.56C3.868 27.56 4.176 27.788 4.176 28.072C4.176 28.252 4.076 28.364 3.936 28.364C3.596 28.364 3.616 28.076 3.684 27.892C3.472 27.988 3.352 28.156 3.384 28.332C3.25274 28.354 3.13362 28.4221 3.048 28.524C3.128 28.628 3.232 28.708 3.384 28.712C3.316 28.988 3.504 29.104 3.684 29.168C3.628 28.968 3.588 28.732 3.936 28.732C4.188 28.732 4.384 28.692 4.5 28.524L4.528 29.604C4.544 29.928 4.096 29.924 3.808 29.824C3.916 30.196 4.136 30.4 4.648 30.348C4.56956 30.3782 4.50261 30.4323 4.45666 30.5026C4.4107 30.573 4.38808 30.656 4.392 30.74C4.392 31.044 4.64 31.38 4.8 31.48L4.88 28.32V28.316Z" fill="#FFEC2D"/>
<path d="M4.88 25.884C4.88 26.696 4.152 27.112 3.58 27.112C2.812 27.112 2.4 26.652 2.4 26.048C2.4 25.708 2.464 25.492 2.62 25.168L4.388 21.5C4.45205 21.3457 4.47943 21.1787 4.468 21.012C4.468 20.684 4.148 20.416 3.816 20.412C3.512 20.4 3.176 20.692 3.176 21.024C3.176 21.428 3.388 21.608 3.604 21.608C3.868 21.608 3.972 21.5 3.972 21.312C3.972 21.184 3.912 21.128 3.82 21.128C3.592 21.128 3.66 21.432 3.66 21.432C3.62989 21.4264 3.60139 21.4143 3.57652 21.3964C3.55165 21.3786 3.53103 21.3554 3.51612 21.3287C3.50122 21.302 3.49241 21.2722 3.49031 21.2417C3.48822 21.2112 3.49289 21.1805 3.504 21.152C3.41838 21.1328 3.34123 21.0865 3.284 21.02C3.344 20.96 3.416 20.916 3.504 20.9C3.452 20.724 3.524 20.64 3.676 20.6C3.64865 20.6601 3.64163 20.7275 3.656 20.792C3.896 20.72 4.268 20.832 4.268 21.248C4.268 21.664 3.98 22.012 3.44 21.928C3.568 21.988 3.632 22.112 3.648 22.252C3.548 22.212 3.44 22.212 3.44 22.212C3.504 22.32 3.592 22.412 3.588 22.636C3.488 22.588 3.392 22.504 3.268 22.556C3.468 22.956 3.22 23.5 2.588 23.628C2.82 23.356 2.932 23.068 2.932 22.776C2.932 21.836 2.672 21.68 2.672 21.024C2.67612 20.8719 2.71635 20.7229 2.78937 20.5893C2.8624 20.4558 2.96613 20.3416 3.092 20.256V20.268C3.0146 20.2521 2.94143 20.22 2.87732 20.1738C2.8132 20.1276 2.75959 20.0684 2.72 20C3.16559 19.8772 3.63664 19.8813 4.08 20.012C4.2283 20.033 4.36999 20.087 4.49461 20.1701C4.61923 20.2532 4.72359 20.3632 4.8 20.492C4.87986 20.6742 4.92109 20.871 4.92109 21.07C4.92109 21.269 4.87986 21.4658 4.8 21.648C4.548 22.168 3.372 24.672 3.004 25.456C2.924 25.624 2.88 25.8 2.88 25.992C2.88 26.472 3.32 26.64 3.568 26.64C3.868 26.64 4.176 26.412 4.176 26.128C4.176 25.948 4.076 25.836 3.936 25.836C3.596 25.836 3.616 26.124 3.684 26.308C3.472 26.212 3.352 26.044 3.384 25.868C3.25274 25.846 3.13362 25.7779 3.048 25.676C3.128 25.572 3.232 25.492 3.384 25.488C3.316 25.212 3.504 25.096 3.684 25.032C3.628 25.232 3.588 25.468 3.936 25.468C4.188 25.468 4.384 25.508 4.5 25.676L4.528 24.596C4.544 24.272 4.096 24.276 3.808 24.376C3.916 24.004 4.136 23.8 4.648 23.852C4.56956 23.8218 4.50261 23.7677 4.45666 23.6974C4.4107 23.627 4.38808 23.5439 4.392 23.46C4.392 23.156 4.64 22.82 4.8 22.72L4.88 25.88V25.884Z" fill="#FFEC2D"/>
<path d="M4.8 37.08C4.8 37.08 5.184 37.408 5.316 37.244C5.524 36.984 4.668 35.684 4.668 35.228C4.668 34.476 5.172 34.272 5.788 34.168C6.204 34.096 6.88 34.196 6.88 34.196C6.752 34.368 6.668 34.42 6.456 34.432C6.696 34.552 6.936 34.824 6.936 35.244C6.936 35.888 6.672 36.156 6.672 36.884C6.672 37.28 7 37.8 7 37.8C6.416 37.74 6.128 37.2 6.292 36.768C6.24698 36.759 6.20046 36.7613 6.15651 36.7745C6.11257 36.7878 6.07256 36.8116 6.04 36.844C6 36.724 6.064 36.584 6.156 36.464C6.084 36.424 6.028 36.448 5.916 36.472C5.924 36.352 5.996 36.216 6.18 36.092C5.652 36.228 5.332 35.864 5.332 35.48C5.332 35.188 5.532 34.98 5.732 34.98C5.796 34.98 5.892 35.008 5.944 35.048C5.984 34.968 5.96 34.86 5.924 34.78C6.068 34.82 6.164 34.908 6.096 35.088C6.208 35.096 6.296 35.136 6.356 35.208C6.296 35.288 6.204 35.328 6.096 35.328C6.176 35.496 6.084 35.588 5.952 35.664C5.952 35.664 6.036 35.328 5.824 35.328C5.728 35.328 5.64 35.356 5.64 35.5C5.64 35.624 5.748 35.796 6 35.784C6.248 35.772 6.452 35.612 6.452 35.212C6.452 34.844 6.152 34.66 5.76 34.652C5.408 34.636 5.14 34.828 5.14 35.192C5.14 35.68 5.84 36.784 5.84 37.216C5.84 37.54 5.552 37.724 5.264 37.724C4.896 37.724 4.584 37.356 4.584 37.356L4.8 37.084V37.08Z" fill="#FFEC2D"/>
<path d="M4.72 28.316C4.72 27.504 5.448 27.088 6.02 27.088C6.788 27.088 7.2 27.548 7.2 28.152C7.2 28.492 7.136 28.708 6.98 29.032L5.212 32.7C5.14795 32.8543 5.12057 33.0213 5.132 33.188C5.132 33.516 5.452 33.784 5.784 33.788C6.088 33.8 6.424 33.508 6.424 33.176C6.424 32.772 6.212 32.592 5.996 32.592C5.732 32.592 5.628 32.7 5.628 32.888C5.628 33.016 5.688 33.072 5.78 33.072C6.008 33.072 5.94 32.768 5.94 32.768C5.97011 32.7736 5.99861 32.7857 6.02348 32.8036C6.04835 32.8214 6.06897 32.8446 6.08388 32.8713C6.09878 32.898 6.10759 32.9277 6.10969 32.9583C6.11178 32.9888 6.10711 33.0195 6.096 33.048C6.18162 33.0672 6.25877 33.1135 6.316 33.18C6.256 33.24 6.184 33.284 6.096 33.3C6.148 33.476 6.076 33.56 5.924 33.6C5.95135 33.5399 5.95837 33.4725 5.944 33.408C5.704 33.48 5.332 33.368 5.332 32.952C5.332 32.536 5.62 32.188 6.16 32.272C6.032 32.212 5.968 32.088 5.952 31.948C6.052 31.988 6.16 31.988 6.16 31.988C6.096 31.88 6.008 31.788 6.012 31.564C6.112 31.612 6.208 31.696 6.332 31.644C6.132 31.244 6.38 30.7 7.012 30.572C6.78 30.844 6.668 31.132 6.668 31.424C6.668 32.364 6.928 32.52 6.928 33.176C6.92388 33.3281 6.88365 33.4771 6.81063 33.6107C6.7376 33.7442 6.63387 33.8584 6.508 33.944V33.932C6.5854 33.9479 6.65857 33.98 6.72268 34.0262C6.7868 34.0724 6.84041 34.1316 6.88 34.2C6.43441 34.3228 5.96336 34.3187 5.52 34.188C5.3717 34.167 5.23001 34.113 5.10539 34.0299C4.98077 33.9468 4.87641 33.8368 4.8 33.708C4.72014 33.5258 4.67891 33.329 4.67891 33.13C4.67891 32.931 4.72014 32.7342 4.8 32.552C5.052 32.032 6.228 29.528 6.596 28.744C6.676 28.576 6.72 28.4 6.72 28.208C6.72 27.728 6.28 27.56 6.032 27.56C5.732 27.56 5.424 27.788 5.424 28.072C5.424 28.252 5.524 28.364 5.664 28.364C6.004 28.364 5.984 28.076 5.916 27.892C6.128 27.988 6.248 28.156 6.216 28.332C6.34726 28.354 6.46637 28.4221 6.552 28.524C6.472 28.628 6.368 28.708 6.216 28.712C6.284 28.988 6.096 29.104 5.916 29.168C5.972 28.968 6.012 28.732 5.664 28.732C5.412 28.732 5.216 28.692 5.1 28.524L5.072 29.604C5.056 29.928 5.504 29.924 5.792 29.824C5.684 30.196 5.464 30.4 4.952 30.348C5.03044 30.3782 5.09739 30.4323 5.14334 30.5026C5.1893 30.573 5.21192 30.656 5.208 30.74C5.208 31.044 4.96 31.38 4.8 31.48L4.72 28.32V28.316Z" fill="#FFEC2D"/>
<path d="M4.72 25.884C4.72 26.696 5.448 27.112 6.02 27.112C6.788 27.112 7.2 26.652 7.2 26.048C7.2 25.708 7.136 25.492 6.98 25.168L5.212 21.5C5.14795 21.3457 5.12057 21.1787 5.132 21.012C5.132 20.684 5.452 20.416 5.784 20.412C6.088 20.4 6.424 20.692 6.424 21.024C6.424 21.428 6.212 21.608 5.996 21.608C5.732 21.608 5.628 21.5 5.628 21.312C5.628 21.184 5.688 21.128 5.78 21.128C6.008 21.128 5.94 21.432 5.94 21.432C5.97011 21.4264 5.99861 21.4143 6.02348 21.3964C6.04835 21.3786 6.06897 21.3554 6.08388 21.3287C6.09878 21.302 6.10759 21.2723 6.10969 21.2417C6.11178 21.2112 6.10711 21.1805 6.096 21.152C6.18162 21.1328 6.25877 21.0865 6.316 21.02C6.256 20.96 6.184 20.916 6.096 20.9C6.148 20.724 6.076 20.64 5.924 20.6C5.95135 20.6601 5.95837 20.7275 5.944 20.792C5.704 20.72 5.332 20.832 5.332 21.248C5.332 21.664 5.62 22.012 6.16 21.928C6.032 21.988 5.968 22.112 5.952 22.252C6.052 22.212 6.16 22.212 6.16 22.212C6.096 22.32 6.008 22.412 6.012 22.636C6.112 22.588 6.208 22.504 6.332 22.556C6.132 22.956 6.38 23.5 7.012 23.628C6.78 23.356 6.668 23.068 6.668 22.776C6.668 21.836 6.928 21.68 6.928 21.024C6.92388 20.8719 6.88365 20.7229 6.81063 20.5893C6.7376 20.4558 6.63387 20.3416 6.508 20.256V20.268C6.5854 20.2521 6.65857 20.22 6.72268 20.1738C6.7868 20.1276 6.84041 20.0684 6.88 20C6.43441 19.8772 5.96336 19.8813 5.52 20.012C5.3717 20.033 5.23001 20.087 5.10539 20.1701C4.98077 20.2532 4.87641 20.3632 4.8 20.492C4.72014 20.6742 4.67891 20.871 4.67891 21.07C4.67891 21.269 4.72014 21.4658 4.8 21.648C5.052 22.168 6.228 24.672 6.596 25.456C6.676 25.624 6.72 25.8 6.72 25.992C6.72 26.472 6.28 26.64 6.032 26.64C5.732 26.64 5.424 26.412 5.424 26.128C5.424 25.948 5.524 25.836 5.664 25.836C6.004 25.836 5.984 26.124 5.916 26.308C6.128 26.212 6.248 26.044 6.216 25.868C6.34726 25.846 6.46637 25.7779 6.552 25.676C6.472 25.572 6.368 25.492 6.216 25.488C6.284 25.212 6.096 25.096 5.916 25.032C5.972 25.232 6.012 25.468 5.664 25.468C5.412 25.468 5.216 25.508 5.1 25.676L5.072 24.596C5.056 24.272 5.504 24.276 5.792 24.376C5.684 24.004 5.464 23.8 4.952 23.852C5.03044 23.8218 5.09739 23.7677 5.14334 23.6974C5.1893 23.627 5.21192 23.544 5.208 23.46C5.208 23.156 4.96 22.82 4.8 22.72L4.72 25.88V25.884Z" fill="#FFEC2D"/>
</g>
<defs>
<clipPath id="clip0_17522_60660">
<path d="M0 4C0 1.79086 1.79086 0 4 0H36C38.2091 0 40 1.79086 40 4V36C40 38.2091 38.2091 40 36 40H4C1.79086 40 0 38.2091 0 36V4Z" fill="white"/>
</clipPath>
</defs>
</svg>
