<svg width="40" height="40" viewBox="0 0 40 40" fill="none" xmlns="http://www.w3.org/2000/svg">
<g clip-path="url(#clip0_17544_64197)">
<path d="M0 0H39.9939V39.9939H0V0Z" fill="black"/>
<path fill-rule="evenodd" clip-rule="evenodd" d="M0 13.3286H79.9958V26.6653H0V13.3286Z" fill="white"/>
<path fill-rule="evenodd" clip-rule="evenodd" d="M0 26.6653H79.9958V40.0019H0V26.6653Z" fill="#F31830"/>
<path fill-rule="evenodd" clip-rule="evenodd" d="M0 0H79.9958V13.3367H0V0Z" fill="#00D941"/>
<path fill-rule="evenodd" clip-rule="evenodd" d="M0 0V39.9939L19.9566 26.6653L19.9969 13.3205L0 0Z" fill="#000001"/>
</g>
<defs>
<clipPath id="clip0_17544_64197">
<path d="M0 20C0 8.95431 8.95431 0 20 0C31.0457 0 40 8.95431 40 20C40 31.0457 31.0457 40 20 40C8.95431 40 0 31.0457 0 20Z" fill="white"/>
</clipPath>
</defs>
</svg>
