<svg width="40" height="40" viewBox="0 0 40 40" fill="none" xmlns="http://www.w3.org/2000/svg">
<g clip-path="url(#clip0_17522_60671)">
<path d="M0 -0.000976562H40V39.999H0V-0.000976562Z" fill="black"/>
<path d="M-20 -0.000976562H60V39.999H-20V-0.000976562Z" fill="#239E46"/>
<path d="M-20 -0.000976562H60V29.999H-20V-0.000976562Z" fill="#000001"/>
<path d="M-20 -0.000976562H60V9.99902H-20V-0.000976562Z" fill="#E70013"/>
<path d="M23.536 16.463C22.8864 15.9995 22.1218 15.7238 21.3258 15.6663C20.5299 15.6088 19.7336 15.7716 19.0241 16.1369C18.3146 16.5022 17.7195 17.0559 17.304 17.7372C16.8885 18.4185 16.6687 19.201 16.6687 19.999C16.6687 20.797 16.8885 21.5796 17.304 22.2609C17.7195 22.9421 18.3146 23.4958 19.0241 23.8611C19.7336 24.2264 20.5299 24.3892 21.3258 24.3317C22.1218 24.2742 22.8864 23.9986 23.536 23.535C22.8367 24.2342 21.9458 24.7102 20.9759 24.903C20.006 25.0959 19.0008 24.9968 18.0872 24.6183C17.1737 24.2398 16.3928 23.599 15.8435 22.7767C15.2941 21.9545 15.0009 20.9879 15.0009 19.999C15.0009 19.0102 15.2941 18.0435 15.8435 17.2213C16.3928 16.3991 17.1737 15.7582 18.0872 15.3798C19.0008 15.0013 20.006 14.9022 20.9759 15.095C21.9458 15.2878 22.8367 15.7639 23.536 16.463ZM22.432 19.999L29.16 17.815L25 23.535V16.463L29.16 22.183L22.432 19.999Z" fill="white"/>
</g>
<defs>
<clipPath id="clip0_17522_60671">
<path d="M0 4C0 1.79086 1.79086 0 4 0H36C38.2091 0 40 1.79086 40 4V36C40 38.2091 38.2091 40 36 40H4C1.79086 40 0 38.2091 0 36V4Z" fill="white"/>
</clipPath>
</defs>
</svg>
