<svg width="40" height="40" viewBox="0 0 40 40" fill="none" xmlns="http://www.w3.org/2000/svg">
<g clip-path="url(#clip0_17522_60683)">
<path d="M0 0H40V40H0V0Z" fill="#00785E"/>
<path d="M21.2891 11.5156L20 7.53906L18.7109 11.5234L22.0938 9.0625H17.9062L21.2891 11.5156Z" fill="#FBD116"/>
<path d="M20 27.6328H11.4609C11.3547 27.5254 11.2506 27.416 11.1484 27.3047H20C20.0325 27.3167 20.0609 27.3378 20.0817 27.3655C20.1025 27.3932 20.1148 27.4264 20.1172 27.4609C20.1172 27.5391 20.0703 27.6094 20 27.6328ZM20 25.0234C20.0469 24.9219 20.1484 24.6875 20.1016 24.3984C20.0854 24.2868 20.0511 24.1786 20 24.0781C19.2311 24.8074 18.3029 25.3477 17.2891 25.6562C16.6557 25.8478 15.9976 25.9452 15.3359 25.9453H10.0703C10.2266 26.1749 10.3907 26.399 10.5625 26.6172H15.6406C17.2367 26.6193 18.7817 26.0545 20 25.0234ZM10.8672 22.9688C10.6094 23.067 10.338 23.125 10.0625 23.1406C10.6953 23.86 11.4741 24.4362 12.347 24.8309C13.2199 25.2256 14.167 25.4297 15.125 25.4297C16.0358 25.4305 16.9374 25.2468 17.7752 24.8897C18.6131 24.5325 19.3699 24.0093 20 23.3516C20.2348 21.7238 20.3601 20.0821 20.375 18.4375C20.395 16.5505 20.2697 14.6647 20 12.7969C19.4531 13.2891 18.4219 14.3594 17.9375 15.9922C17.7517 16.6159 17.657 17.2632 17.6562 17.9141C17.6542 19.2522 18.0513 20.5606 18.7969 21.6719C17.8817 20.4889 17.3869 19.0347 17.3906 17.5391C17.3868 16.5399 17.6057 15.5524 18.0312 14.6484C17.742 14.3425 17.528 13.9733 17.4062 13.5703C16.8306 14.5849 16.5291 15.7319 16.5313 16.8984C16.5307 18.345 16.9964 19.7531 17.8594 20.9141C17.0763 20.0886 16.1246 19.4416 15.069 19.0169C14.0134 18.5923 12.8787 18.4 11.7422 18.4531C11.971 18.6663 12.1613 18.9174 12.3047 19.1953C13.3755 19.196 14.435 19.4137 15.4192 19.8353C16.4035 20.257 17.2921 20.8737 18.0312 21.6484C16.6031 20.4538 14.7994 19.8009 12.9375 19.8047C11.8594 19.8047 10.8281 20.0156 9.89062 20.4141C10.4108 21.7855 11.3627 22.9507 12.6027 23.7342C13.8427 24.5176 15.3037 24.8769 16.7656 24.7578C16.3686 24.8299 15.966 24.8665 15.5625 24.8672C13.81 24.8694 12.1257 24.1884 10.8672 22.9688ZM20 30.3672H15.5781C16.9853 30.926 18.4859 31.2123 20 31.2109C20.0663 31.083 20.1011 30.941 20.1016 30.7969C20.1033 30.6475 20.0685 30.5 20 30.3672ZM20 28.3203H12.1953C12.4079 28.5024 12.6268 28.677 12.8516 28.8438H20C20.0677 28.7747 20.1068 28.6826 20.1094 28.5859C20.1094 28.4297 20.0156 28.3438 20 28.3203ZM20 29.3672H13.6094C13.9974 29.6114 14.3991 29.8331 14.8125 30.0312H20C20.0654 29.926 20.0981 29.8036 20.0938 29.6797C20.0907 29.5691 20.0584 29.4612 20 29.3672Z" fill="white"/>
<path d="M12.1562 16.5391L11.6094 13.6953L10.3828 16.3203L12.9141 14.9141L10.0391 14.5625L12.1562 16.5391ZM16.0078 11.9453L13.6953 10.2031L14.5391 12.9688L15.4844 10.2344L13.1172 11.8984L16.0078 11.9453Z" fill="#FBD116"/>
<path d="M20 27.6328H28.5391C28.6453 27.5254 28.7494 27.416 28.8516 27.3047H20C19.9675 27.3167 19.9391 27.3378 19.9183 27.3655C19.8975 27.3932 19.8852 27.4264 19.8828 27.4609C19.8828 27.5391 19.9297 27.6094 20 27.6328ZM20 25.0234C19.9531 24.9219 19.8516 24.6875 19.8984 24.3984C19.9146 24.2868 19.9489 24.1786 20 24.0781C20.7689 24.8074 21.6971 25.3477 22.7109 25.6562C23.3443 25.8478 24.0024 25.9452 24.6641 25.9453H29.9297C29.7734 26.1749 29.6093 26.399 29.4375 26.6172H24.3594C22.7633 26.6193 21.2183 26.0545 20 25.0234ZM29.1328 22.9688C29.3906 23.067 29.662 23.125 29.9375 23.1406C29.3047 23.86 28.5259 24.4362 27.653 24.8309C26.7801 25.2256 25.833 25.4297 24.875 25.4297C23.9642 25.4305 23.0626 25.2468 22.2248 24.8897C21.3869 24.5325 20.6301 24.0093 20 23.3516C19.7652 21.7238 19.6399 20.0821 19.625 18.4375C19.605 16.5505 19.7303 14.6647 20 12.7969C20.5469 13.2891 21.5781 14.3594 22.0625 15.9922C22.2483 16.6159 22.343 17.2632 22.3437 17.9141C22.3458 19.2522 21.9487 20.5606 21.2031 21.6719C22.1183 20.4889 22.6131 19.0347 22.6094 17.5391C22.6132 16.5399 22.3943 15.5524 21.9687 14.6484C22.258 14.3425 22.472 13.9733 22.5937 13.5703C23.1694 14.5849 23.4709 15.7319 23.4687 16.8984C23.4693 18.345 23.0036 19.7531 22.1406 20.9141C22.9237 20.0886 23.8754 19.4416 24.931 19.0169C25.9866 18.5923 27.1213 18.4 28.2578 18.4531C28.029 18.6663 27.8387 18.9174 27.6953 19.1953C26.6245 19.196 25.565 19.4137 24.5808 19.8353C23.5965 20.257 22.7079 20.8737 21.9687 21.6484C23.3969 20.4538 25.2006 19.8009 27.0625 19.8047C28.1406 19.8047 29.1719 20.0156 30.1094 20.4141C29.5892 21.7855 28.6373 22.9507 27.3973 23.7342C26.1573 24.5176 24.6963 24.8769 23.2344 24.7578C23.6314 24.8299 24.034 24.8665 24.4375 24.8672C26.19 24.8694 27.8743 24.1884 29.1328 22.9688ZM20 30.3672H24.4219C23.0147 30.926 21.5141 31.2123 20 31.2109C19.9337 31.083 19.8989 30.941 19.8984 30.7969C19.8967 30.6475 19.9315 30.5 20 30.3672ZM20 28.3203H27.8047C27.5921 28.5024 27.3732 28.677 27.1484 28.8438H20C19.9323 28.7747 19.8932 28.6826 19.8906 28.5859C19.8906 28.4297 19.9844 28.3438 20 28.3203ZM20 29.3672H26.3906C26.0026 29.6114 25.6009 29.8331 25.1875 30.0312H20C19.9346 29.926 19.9019 29.8036 19.9062 29.6797C19.9093 29.5691 19.9416 29.4612 20 29.3672Z" fill="white"/>
<path d="M27.8437 16.5391L28.3906 13.6953L29.6172 16.3203L27.0859 14.9141L29.9609 14.5625L27.8437 16.5391ZM23.9922 11.9453L26.3047 10.2031L25.4609 12.9688L24.5156 10.2344L26.8828 11.8984L23.9922 11.9453Z" fill="#FBD116"/>
</g>
<defs>
<clipPath id="clip0_17522_60683">
<path d="M0 4C0 1.79086 1.79086 0 4 0H36C38.2091 0 40 1.79086 40 4V36C40 38.2091 38.2091 40 36 40H4C1.79086 40 0 38.2091 0 36V4Z" fill="white"/>
</clipPath>
</defs>
</svg>
