<svg width="40" height="40" viewBox="0 0 40 40" fill="none" xmlns="http://www.w3.org/2000/svg">
<g clip-path="url(#clip0_17522_60691)">
<path d="M0.00245667 0H40.0047V40.0022H0.00245667V0Z" fill="black"/>
<path fill-rule="evenodd" clip-rule="evenodd" d="M-10.1406 0H49.8599V40.0022H-10.1406V0Z" fill="#F41408"/>
<path fill-rule="evenodd" clip-rule="evenodd" d="M-10.1406 26.6644H49.8599V40.0022H-10.1406L-10.1406 26.6644Z" fill="#21873B"/>
<path fill-rule="evenodd" clip-rule="evenodd" d="M-10.1406 0H49.8599V13.3322H-10.1406V0Z" fill="#000001"/>
<path fill-rule="evenodd" clip-rule="evenodd" d="M12.5162 12.0791C13.3539 10.0396 14.9674 8.41625 17.0019 7.56626C19.0364 6.71627 21.3252 6.70921 23.3648 7.54663C24.3905 7.95027 25.3219 8.5611 26.1008 9.34097C26.8797 10.1208 27.4893 11.053 27.8917 12.0791H12.5162ZM10.4842 12.6323C9.10296 12.5265 7.73364 12.2999 6.39198 11.955C6.07589 11.8421 6.05896 11.6502 6.09847 11.5034C6.13085 11.4078 6.19861 11.3282 6.28783 11.281C6.37705 11.2337 6.48096 11.2224 6.57825 11.2494C7.02416 11.3623 8.83038 11.8421 10.4899 12.6323H10.4842ZM20.2265 5.22676C19.8992 3.42054 19.8145 1.42805 19.8484 1.09502C19.8766 0.756357 20.0628 0.699912 20.2152 0.699912C20.3151 0.70706 20.4085 0.751823 20.4766 0.825161C20.5447 0.898498 20.5824 0.994945 20.5821 1.09502C20.5821 1.55787 20.5708 3.42618 20.2265 5.22676ZM21.1296 5.27192C21.0009 3.89053 20.9915 2.50061 21.1014 1.1176C21.1635 0.784579 21.3498 0.739423 21.5022 0.756357C21.6546 0.767646 21.8578 0.942624 21.8352 1.18534C21.7957 1.63689 21.6264 3.49956 21.1296 5.27192ZM21.9424 5.38481C21.9199 3.54472 22.1682 1.56916 22.2642 1.24178C22.3488 0.914402 22.5408 0.886179 22.6932 0.914401C22.7901 0.938598 22.8743 0.998637 22.9288 1.08242C22.9832 1.16621 23.0039 1.26753 22.9867 1.36596C22.9076 1.81751 22.5859 3.65761 21.9424 5.37916V5.38481ZM22.806 5.57107C22.9472 3.74227 23.3705 1.79494 23.4834 1.47885C23.5963 1.16276 23.7938 1.15147 23.9406 1.19098C24.035 1.22334 24.1136 1.29021 24.1607 1.37815C24.2078 1.4661 24.2199 1.56862 24.1946 1.66511C24.076 2.11103 23.5963 3.91725 22.806 5.57107ZM23.6527 5.84201C23.8794 4.47487 24.225 3.13014 24.6857 1.82316C24.8324 1.51836 25.0243 1.524 25.1711 1.5748C25.2636 1.61584 25.3369 1.69084 25.3757 1.78431C25.4146 1.87779 25.4161 1.98261 25.3799 2.07716C25.2219 2.50614 24.5784 4.26156 23.6471 5.84201H23.6527ZM24.4429 6.17503C24.8945 4.39138 25.6509 2.55129 25.8258 2.25778C25.9952 1.96427 26.1871 1.98685 26.3225 2.05458C26.4094 2.10254 26.475 2.18141 26.5064 2.27552C26.5378 2.36964 26.5326 2.47211 26.4919 2.56258C26.2943 2.98592 25.5097 4.67925 24.4429 6.17503ZM25.2219 6.58143C25.6853 5.27434 26.2593 4.00915 26.9378 2.79965C27.1297 2.52307 27.3216 2.56258 27.4571 2.6416C27.5386 2.69879 27.5955 2.78463 27.6164 2.88195C27.6373 2.97927 27.6207 3.08091 27.57 3.16654C27.3442 3.56165 26.4129 5.18161 25.2219 6.58143ZM25.9557 7.04992C26.5298 5.78834 27.2135 4.57956 27.9989 3.43747C28.2134 3.17783 28.3997 3.23427 28.5239 3.32458C28.6005 3.38765 28.6506 3.47724 28.6642 3.57554C28.6778 3.67385 28.6539 3.77367 28.5973 3.85516C28.332 4.23334 27.2652 5.76299 25.9557 7.04992ZM26.6443 7.58614C27.5474 5.98312 28.7553 4.40267 28.998 4.15996C29.2351 3.92289 29.4157 3.99063 29.5342 4.09223C29.6471 4.19383 29.7149 4.44783 29.5568 4.6341C29.2633 4.98405 28.0667 6.41774 26.6443 7.58614ZM27.2934 8.17881C28.0775 7.03581 28.9595 5.96309 29.9294 4.97276C30.189 4.75827 30.364 4.84294 30.4712 4.95019C30.5373 5.02633 30.5718 5.12487 30.5676 5.2256C30.5634 5.32634 30.5208 5.42167 30.4486 5.49205C29.4776 6.48046 28.4197 7.37966 27.2877 8.17881H27.2934ZM27.8804 8.82792C29.0488 7.41117 30.5164 6.06214 30.7929 5.87023C31.0752 5.67832 31.2332 5.77992 31.3348 5.89281C31.3938 5.97407 31.4196 6.07472 31.407 6.17431C31.3944 6.27391 31.3444 6.36498 31.2671 6.42903C30.2102 7.32579 29.077 8.12847 27.8804 8.82792ZM28.3884 9.49397C29.3574 8.50085 30.4112 7.59429 31.538 6.78463C31.8315 6.6153 31.9896 6.73383 32.0742 6.86365C32.1646 6.98783 32.1646 7.24748 31.9614 7.38859C30.8366 8.19413 29.6429 8.89866 28.3941 9.49397H28.3884ZM28.8513 10.2165C29.9016 9.31079 31.0292 8.49867 32.221 7.78935C32.5258 7.64823 32.6726 7.77806 32.7516 7.90788C32.825 8.0377 32.808 8.30299 32.5935 8.42717C32.1984 8.65295 30.5841 9.60122 28.8513 10.2165ZM29.2802 11.0406C30.411 10.2382 31.6082 9.53382 32.8588 8.93517C33.1749 8.82228 33.3104 8.96339 33.3725 9.1045C33.4074 9.19767 33.4058 9.30057 33.3681 9.39265C33.3305 9.48473 33.2594 9.55921 33.1693 9.60122C31.9177 10.1942 30.6163 10.6759 29.2802 11.0406ZM29.6076 11.8364C30.7994 11.13 32.0518 10.5312 33.3499 10.0471C33.6773 9.96246 33.8014 10.1149 33.8522 10.256C33.9087 10.3971 33.8353 10.6511 33.6039 10.7358C32.3071 11.2206 30.9698 11.589 29.6076 11.8364ZM29.8673 12.6831C31.1204 12.0848 32.4237 11.5975 33.7619 11.2268C34.0893 11.1704 34.1966 11.3284 34.2361 11.4808C34.2538 11.5777 34.2347 11.6777 34.1825 11.7613C34.1302 11.8448 34.0487 11.9058 33.9538 11.9324C33.5023 12.0566 31.7017 12.5363 29.8673 12.6774V12.6831ZM19.346 5.25499C18.9741 3.92318 18.7192 2.56146 18.584 1.18534C18.584 0.846668 18.759 0.77329 18.9114 0.756357C19.0124 0.754656 19.1103 0.791741 19.1848 0.859984C19.2594 0.928227 19.3049 1.02244 19.3121 1.12325C19.3573 1.5748 19.521 3.43747 19.346 5.26627V5.25499ZM18.4768 5.36788C17.9897 4.07094 17.6176 2.7337 17.3648 1.3716C17.3366 1.03293 17.5059 0.942624 17.6527 0.914401C17.7533 0.902889 17.8544 0.930435 17.9353 0.991354C18.0162 1.05227 18.0706 1.14192 18.0873 1.24178C18.1663 1.69334 18.4937 3.53343 18.4768 5.36788ZM17.6132 5.55979C17.0134 4.30855 16.5242 3.00725 16.1512 1.67076C16.0948 1.33774 16.2585 1.23049 16.4052 1.19098C16.5029 1.17351 16.6036 1.19341 16.6872 1.24675C16.7709 1.30008 16.8314 1.38293 16.8568 1.47885C16.981 1.92476 17.4664 3.72534 17.6132 5.55979ZM16.8004 5.81379C16.0975 4.61898 15.5006 3.36488 15.0167 2.06587C14.932 1.73849 15.0844 1.61431 15.2255 1.56351C15.3221 1.53626 15.4254 1.54676 15.5145 1.59288C15.6036 1.639 15.6718 1.71729 15.7053 1.81187C15.8634 2.24649 16.5012 3.99627 16.8004 5.81379ZM16.0101 6.13552C15.2053 5.00836 14.5008 3.8128 13.9047 2.56258C13.7919 2.24085 13.9273 2.11103 14.0684 2.04894C14.1623 2.0124 14.2666 2.01308 14.3599 2.05085C14.4533 2.08862 14.5287 2.16062 14.5708 2.25214C14.7627 2.66983 15.5473 4.36316 16.0045 6.14681L16.0101 6.13552ZM15.2086 6.55321C14.3059 5.49909 13.4975 4.36773 12.7928 3.17218C12.6517 2.86738 12.7759 2.72063 12.9057 2.64725C12.996 2.60228 13.1002 2.59359 13.1968 2.62298C13.2933 2.65237 13.375 2.7176 13.425 2.80529C13.6564 3.20041 14.5934 4.82036 15.2086 6.55321ZM14.4748 7.01606C13.4851 6.04304 12.5823 4.98539 11.7768 3.85516C11.6075 3.56165 11.7203 3.40361 11.8502 3.31894C11.937 3.26911 12.0391 3.25307 12.137 3.2739C12.235 3.29474 12.3217 3.35097 12.3807 3.43183C12.646 3.81001 13.7128 5.33965 14.4748 7.01606ZM13.7919 7.52406C12.7226 6.64171 11.7329 5.66712 10.8342 4.61152C10.6423 4.33494 10.7439 4.17125 10.8624 4.07529C10.9436 4.01635 11.0443 3.99055 11.1439 4.00313C11.2435 4.01571 11.3346 4.06573 11.3986 4.14303C11.6921 4.49298 12.8887 5.92668 13.7919 7.5297V7.52406ZM13.1258 8.12801C11.9822 7.34262 10.9094 6.45872 9.91976 5.48641C9.70527 5.22676 9.78994 5.05178 9.89718 4.94454C9.97333 4.87846 10.0719 4.84398 10.1726 4.84818C10.2733 4.85238 10.3687 4.89493 10.4391 4.96712C10.7664 5.2945 12.0872 6.60965 13.1258 8.12801ZM12.5501 8.74326C11.3451 8.05791 10.2025 7.26843 9.13518 6.38388C8.89812 6.14681 8.97149 5.96619 9.07309 5.84765C9.14321 5.77707 9.23738 5.73553 9.33678 5.73135C9.43619 5.72716 9.53351 5.76063 9.60932 5.82508C9.96492 6.11859 11.3873 7.32086 12.5501 8.74326ZM12.0026 9.44881C10.741 8.87247 9.53222 8.18688 8.39012 7.39988C8.13047 7.17974 8.18691 6.99348 8.27723 6.8693C8.34048 6.79113 8.43117 6.74002 8.5308 6.72638C8.63043 6.71275 8.73152 6.73762 8.81345 6.79592C9.95144 7.58602 11.0185 8.47367 12.0026 9.44881ZM11.5115 10.2052C10.2034 9.74661 8.93795 9.17433 7.72972 8.4949C7.44749 8.29735 7.487 8.11108 7.56603 7.97561C7.62236 7.89319 7.70781 7.83515 7.80519 7.81316C7.90258 7.79117 8.00467 7.80686 8.09096 7.85708C8.49172 8.08286 10.1117 9.01419 11.5115 10.2052ZM11.0995 10.9785C9.32145 10.5269 7.47571 9.77055 7.1822 9.60122C6.89433 9.43188 6.91127 9.23997 6.979 9.1045C7.02801 9.01724 7.1079 8.95146 7.20295 8.92013C7.29801 8.88879 7.40135 8.89416 7.49265 8.93517C7.91034 9.12708 9.60367 9.9173 11.1051 10.9785H11.0995ZM10.7721 11.7574C9.40401 11.5271 8.05911 11.1758 6.75322 10.7075C6.44842 10.5664 6.45407 10.3689 6.50487 10.2277C6.56131 10.0866 6.7758 9.93424 7.00722 10.0189C7.4362 10.1769 9.19163 10.8204 10.7721 11.7574Z" fill="#F31509"/>
<path fill-rule="evenodd" clip-rule="evenodd" d="M10.4899 12.6323C8.65541 12.4912 6.70807 12.0735 6.39198 11.955C6.07589 11.8421 6.05896 11.6502 6.09847 11.5034C6.13085 11.4078 6.19861 11.3282 6.28783 11.281C6.37705 11.2337 6.48096 11.2224 6.57825 11.2494C7.02416 11.3623 8.83038 11.8421 10.4899 12.6323Z" fill="#F31509"/>
<path fill-rule="evenodd" clip-rule="evenodd" d="M5.39855 12.1186H35.1843V13.208H5.39855V12.1186Z" fill="black"/>
</g>
<defs>
<clipPath id="clip0_17522_60691">
<path d="M0 4C0 1.79086 1.79086 0 4 0H36C38.2091 0 40 1.79086 40 4V36C40 38.2091 38.2091 40 36 40H4C1.79086 40 0 38.2091 0 36V4Z" fill="white"/>
</clipPath>
</defs>
</svg>
