<svg width="40" height="40" viewBox="0 0 40 40" fill="none" xmlns="http://www.w3.org/2000/svg">
<g clip-path="url(#clip0_17544_65095)">
<path fill-rule="evenodd" clip-rule="evenodd" d="M20 0H40V40H20V0Z" fill="#CE0000"/>
<path fill-rule="evenodd" clip-rule="evenodd" d="M0 0H20V40H0V0Z" fill="white"/>
<path fill-rule="evenodd" clip-rule="evenodd" d="M8.18704 8.44582C8.18704 8.50871 8.11594 8.56067 8.02843 8.56067C7.93818 8.56067 7.86708 8.50598 7.86708 8.44582C7.86708 8.38292 7.93818 8.33096 8.02569 8.33096C8.1132 8.33096 8.18978 8.38292 8.18978 8.44582H8.18704Z" fill="#F1EEEE"/>
<path fill-rule="evenodd" clip-rule="evenodd" d="M3.17969 7.89069V10.7976H6.08948C6.10609 11.0491 6.21334 11.2861 6.39135 11.4646C6.56937 11.6431 6.80607 11.751 7.05758 11.7684V14.6753H9.96464V11.7684C10.2162 11.751 10.4529 11.6431 10.6309 11.4646C10.8089 11.2861 10.9161 11.0491 10.9327 10.7976H13.8398V7.89069H10.9327C10.9155 7.63963 10.808 7.4033 10.63 7.22535C10.4521 7.04741 10.2157 6.93988 9.96464 6.92264V4.01575H7.05758V6.92264C6.80651 6.93988 6.57016 7.04741 6.39221 7.22535C6.21425 7.4033 6.10672 7.63963 6.08948 7.89069H3.17969Z" fill="#CC0000"/>
<path fill-rule="evenodd" clip-rule="evenodd" d="M3.27814 7.98914V10.7019H6.18519C6.20244 10.9529 6.30997 11.1893 6.48793 11.3672C6.66588 11.5452 6.90223 11.6527 7.1533 11.6699V14.5795H9.86619V11.6699C10.1177 11.6533 10.3548 11.5461 10.5333 11.3681C10.7118 11.1901 10.8197 10.9534 10.837 10.7019H13.7441V7.98914H10.837C10.8203 7.73715 10.7127 7.49981 10.5341 7.32124C10.3555 7.14267 10.1182 7.03503 9.86619 7.01835V4.11146H7.1533V7.01835C6.90228 7.0363 6.66623 7.14449 6.48878 7.32294C6.31133 7.50139 6.20446 7.73803 6.18793 7.98914H3.27814Z" fill="#FFE600"/>
<path fill-rule="evenodd" clip-rule="evenodd" d="M3.37112 10.6034H6.27818C6.29486 10.8554 6.4025 11.0928 6.58108 11.2713C6.75966 11.4499 6.99702 11.5575 7.24902 11.5742V14.4811H9.76774V11.5715C10.0192 11.5542 10.256 11.4462 10.434 11.2677C10.612 11.0892 10.7192 10.8522 10.7358 10.6007H13.6429V8.08485H10.7358C10.7193 7.83374 10.6124 7.5971 10.435 7.41865C10.2575 7.24021 10.0215 7.13201 9.77047 7.11406V4.20991H7.25175V7.11406C7.00019 7.13067 6.76319 7.23792 6.58467 7.41592C6.40615 7.59393 6.29823 7.83062 6.28091 8.08211H3.37112V10.6034Z" fill="#707070"/>
<path fill-rule="evenodd" clip-rule="evenodd" d="M3.46957 8.18056V10.505H6.37663C6.39324 10.7565 6.50049 10.9935 6.67851 11.172C6.85652 11.3505 7.09322 11.4584 7.34474 11.4758V14.3827H9.66929V11.4758C9.92085 11.4592 10.1579 11.3519 10.3364 11.1739C10.5149 10.9959 10.6228 10.7592 10.6401 10.5077H13.5444V8.18329H10.6401C10.6235 7.93175 10.5163 7.69476 10.3383 7.51625C10.1602 7.33774 9.92353 7.22983 9.67202 7.21251V4.30562H7.34747V7.21251C7.09591 7.22912 6.8589 7.33636 6.68039 7.51437C6.50187 7.69237 6.39395 7.92906 6.37663 8.18056H3.46957Z" fill="#A0A0A0"/>
<path fill-rule="evenodd" clip-rule="evenodd" d="M7.36935 6.97186C7.54164 7.14414 7.40217 7.55707 7.06305 7.8989C6.72394 8.24072 6.30826 8.37745 6.13597 8.20517C5.96641 8.03562 6.10589 7.6227 6.445 7.28087C6.78411 6.93905 7.19979 6.80232 7.36935 6.97186Z" fill="#D0D0D0"/>
<path fill-rule="evenodd" clip-rule="evenodd" d="M7.16424 7.17696C7.33653 7.34924 7.29004 7.66919 7.06305 7.89616C6.83607 8.12313 6.51337 8.16962 6.34381 8.00007C6.17152 7.83053 6.21801 7.50785 6.445 7.28087C6.67198 7.0539 6.99469 7.00741 7.16424 7.17696Z" fill="#808080"/>
<path fill-rule="evenodd" clip-rule="evenodd" d="M6.30826 7.69106L6.37663 7.6227L6.6501 7.75943L6.51337 7.48597L6.58174 7.4176L6.85521 7.96453L6.30826 7.69106ZM6.71847 7.28087L6.78684 7.21251L7.19706 7.6227L7.13142 7.69106L6.71847 7.28087Z" fill="#D0D0D0"/>
<path fill-rule="evenodd" clip-rule="evenodd" d="M10.8808 8.20791C10.7112 8.37745 10.2955 8.23799 9.95644 7.89889C9.61733 7.5598 9.47785 7.14414 9.64741 6.97186C9.8197 6.80232 10.2326 6.94178 10.5718 7.28087C10.9109 7.61996 11.0503 8.03562 10.8808 8.20517V8.20791Z" fill="#D0D0D0"/>
<path fill-rule="evenodd" clip-rule="evenodd" d="M10.6757 8.00008C10.5061 8.16962 10.1834 8.12587 9.95644 7.89889C9.72945 7.67192 9.68296 7.34924 9.85252 7.17969C10.0221 7.01015 10.3448 7.0539 10.5718 7.28087C10.7987 7.50785 10.8452 7.82779 10.6757 8.00008Z" fill="#808080"/>
<path fill-rule="evenodd" clip-rule="evenodd" d="M10.1615 7.14141L10.2299 7.21251L10.0932 7.48597L10.3667 7.34924L10.435 7.4176L9.88807 7.69106L10.1615 7.14414V7.14141ZM10.5718 7.55433L10.6401 7.6227L10.2299 8.03289L10.1615 7.96726L10.5718 7.55433Z" fill="#D0D0D0"/>
<path fill-rule="evenodd" clip-rule="evenodd" d="M9.64741 11.7164C9.47785 11.5469 9.61733 11.1312 9.95644 10.7921C10.2955 10.453 10.7112 10.3136 10.8808 10.4831C11.0503 10.6526 10.9136 11.0683 10.5718 11.4074C10.2299 11.7465 9.8197 11.886 9.64741 11.7164Z" fill="#D0D0D0"/>
<path fill-rule="evenodd" clip-rule="evenodd" d="M9.85252 11.5113C9.68296 11.3418 9.72945 11.0191 9.95644 10.7921C10.1834 10.5651 10.5034 10.5187 10.6757 10.6882C10.8452 10.8605 10.7987 11.1804 10.5718 11.4074C10.3448 11.6344 10.0248 11.6809 9.85252 11.5113Z" fill="#808080"/>
<path fill-rule="evenodd" clip-rule="evenodd" d="M10.7112 10.9972L10.6429 11.0656L10.3694 10.9288L10.5061 11.2023L10.435 11.2707L10.1615 10.7237L10.7085 10.9972H10.7112ZM10.301 11.4074L10.2299 11.4758L9.8197 11.0656L9.88807 10.9972L10.301 11.4074Z" fill="#D0D0D0"/>
<path fill-rule="evenodd" clip-rule="evenodd" d="M6.1387 10.4831C6.30826 10.3136 6.72121 10.4503 7.06305 10.7921C7.4049 11.1339 7.54164 11.5469 7.37208 11.7164C7.19979 11.886 6.78684 11.7492 6.445 11.4074C6.10315 11.0656 5.96641 10.6526 6.1387 10.4831Z" fill="#D0D0D0"/>
<path fill-rule="evenodd" clip-rule="evenodd" d="M6.34381 10.6882C6.51337 10.5187 6.83607 10.5651 7.06305 10.7921C7.29004 11.0191 7.33653 11.339 7.16424 11.5113C6.99469 11.6809 6.67198 11.6344 6.445 11.4074C6.21801 11.1804 6.17152 10.8605 6.34381 10.6882Z" fill="#808080"/>
<path fill-rule="evenodd" clip-rule="evenodd" d="M6.85521 11.5441L6.78684 11.4758L6.92358 11.2023L6.6501 11.339L6.58108 11.2713L7.12869 10.9972L6.85521 11.5441ZM6.445 11.1339L6.37663 11.0656L6.78684 10.6554L6.85521 10.7237L6.445 11.1339Z" fill="#D0D0D0"/>
<path fill-rule="evenodd" clip-rule="evenodd" d="M8.51265 7.32897C7.39804 7.32897 6.49525 8.23154 6.49525 9.3455C6.49525 10.4595 7.3954 11.362 8.50998 11.362C9.62457 11.362 10.5274 10.4568 10.5274 9.3455V9.32749H10.53C10.5203 8.22182 9.62124 7.32897 8.51265 7.32897ZM10.5633 9.36352H10.5661V9.3455C10.5661 8.21162 9.64715 7.29294 8.51265 7.29294C7.37815 7.29294 6.45921 8.21162 6.45921 9.3455C6.45921 10.4794 7.37545 11.3981 8.50998 11.3981C9.63846 11.3981 10.5536 10.4864 10.5633 9.36352Z" fill="#707070"/>
<path fill-rule="evenodd" clip-rule="evenodd" d="M8.51187 7.80866C7.66263 7.80866 6.97478 8.49633 6.97478 9.34506C6.97478 10.1938 7.66062 10.8815 8.50983 10.8815C9.35905 10.8815 10.0469 10.1917 10.0469 9.34506V9.33133H10.0489C10.0415 8.48892 9.35652 7.80866 8.51187 7.80866ZM10.0743 9.35879H10.0764V9.34506C10.0764 8.48115 9.37626 7.78121 8.51187 7.78121C7.64748 7.78121 6.94733 8.48115 6.94733 9.34506C6.94733 10.2089 7.64542 10.9089 8.50983 10.9089C9.36964 10.9089 10.0669 10.2143 10.0743 9.35879Z" fill="#707070"/>
<path fill-rule="evenodd" clip-rule="evenodd" d="M7.82879 10.9917C7.82879 11.0171 7.8187 11.0415 7.80075 11.0594C7.7828 11.0774 7.75846 11.0874 7.73307 11.0874C7.70769 11.0874 7.68334 11.0774 7.66539 11.0594C7.64744 11.0415 7.63736 11.0171 7.63736 10.9917C7.63736 10.9664 7.64744 10.942 7.66539 10.9241C7.68334 10.9061 7.70769 10.896 7.73307 10.896C7.75846 10.896 7.7828 10.9061 7.80075 10.9241C7.8187 10.942 7.82879 10.9664 7.82879 10.9917ZM9.38214 10.9917C9.38214 11.0175 9.37191 11.0422 9.3537 11.0604C9.33549 11.0786 9.3108 11.0888 9.28505 11.0888C9.2593 11.0888 9.23461 11.0786 9.2164 11.0604C9.1982 11.0422 9.18797 11.0175 9.18797 10.9917C9.18797 10.9664 9.19805 10.942 9.216 10.9241C9.23395 10.9061 9.2583 10.896 9.28368 10.896C9.30907 10.896 9.33342 10.9061 9.35137 10.9241C9.36932 10.942 9.3794 10.9664 9.3794 10.9917H9.38214ZM8.44411 10.9917V11.0929H8.31558C8.18704 11.0929 8.18704 11.1941 8.31558 11.1941H8.44411V11.2953C8.44411 11.3992 8.55897 11.4129 8.56718 11.3035L8.57538 11.1941H8.70391C8.83245 11.1941 8.83245 11.0929 8.70391 11.0929H8.57538V10.9917C8.57538 10.8906 8.44411 10.8906 8.44411 10.9917Z" fill="#D0D0D0"/>
<path fill-rule="evenodd" clip-rule="evenodd" d="M8.02812 9.56089V9.61747C8.02812 9.61747 7.99831 9.66192 7.80409 9.67566C7.60987 9.6894 7.58006 9.67566 7.58006 9.67566C7.58548 9.72496 7.62252 9.82034 7.61168 9.93349C7.61981 10.0644 7.57554 10.184 7.57554 10.184C7.58006 10.1905 7.55748 10.1946 7.51592 10.1905C7.54844 10.1622 7.54393 10.079 7.54844 9.96178C7.55206 9.84377 7.42559 9.66677 7.45179 9.61827C7.47798 9.56978 8.02812 9.56089 8.02812 9.56089Z" fill="#D0D0D0"/>
<path fill-rule="evenodd" clip-rule="evenodd" d="M8.03382 9.5551V9.6192L8.03285 9.62064L8.02812 9.61747C8.03285 9.62064 8.03286 9.62063 8.03285 9.62064L8.03217 9.62155C8.0318 9.62201 8.03128 9.62261 8.03057 9.62335C8.02915 9.62483 8.027 9.62682 8.02385 9.62918C8.01756 9.63391 8.00732 9.64012 7.99107 9.64669C7.95861 9.65982 7.90197 9.67445 7.80449 9.68134C7.70726 9.68822 7.65099 9.68823 7.61894 9.6865C7.60301 9.68564 7.59298 9.68434 7.58684 9.68322C7.58848 9.69356 7.59117 9.70569 7.59436 9.71955C7.59496 9.72216 7.59558 9.72482 7.59621 9.72753C7.59983 9.74317 7.60388 9.76063 7.60756 9.77954C7.61617 9.82386 7.62281 9.87642 7.61739 9.93358C7.62143 9.99959 7.61232 10.0626 7.60223 10.1091C7.59716 10.1324 7.59184 10.1516 7.58778 10.165C7.58575 10.1717 7.58404 10.1769 7.58283 10.1805C7.58234 10.1819 7.58194 10.1831 7.58163 10.1839C7.58192 10.1853 7.5819 10.1868 7.58133 10.1883C7.58039 10.1909 7.57838 10.1924 7.57682 10.1933C7.57366 10.1951 7.56901 10.1962 7.56373 10.1969C7.55286 10.1983 7.53635 10.1982 7.51537 10.1962L7.5022 10.1949L7.51218 10.1862C7.51922 10.1801 7.5246 10.1707 7.52865 10.1576C7.53269 10.1446 7.53528 10.1283 7.53701 10.109C7.53927 10.0838 7.54006 10.054 7.54096 10.02C7.54144 10.0017 7.54195 9.98223 7.54275 9.96158C7.54362 9.93304 7.53662 9.90059 7.52576 9.86689C7.51491 9.83323 7.50036 9.79875 7.48641 9.7662C7.4854 9.76385 7.48439 9.7615 7.48339 9.75916C7.4706 9.72936 7.45854 9.70127 7.45092 9.67755C7.44681 9.66475 7.4439 9.65296 7.4429 9.64267C7.4419 9.63246 7.44272 9.62306 7.44677 9.61557C7.44928 9.61093 7.45431 9.60739 7.46003 9.60454C7.46596 9.60158 7.4736 9.59889 7.48254 9.5964C7.50046 9.59141 7.52439 9.58705 7.55211 9.58321C7.60759 9.57552 7.679 9.56985 7.74944 9.56571C7.81992 9.56156 7.88956 9.55893 7.94158 9.55734C7.96759 9.55655 7.9892 9.55601 8.0043 9.55567C8.01186 9.5555 8.01779 9.55538 8.02183 9.55531L8.02644 9.55522L8.03382 9.5551ZM8.02242 9.56669C8.01839 9.56677 8.0121 9.56689 8.00456 9.56706C7.98948 9.5674 7.9679 9.56793 7.94193 9.56873C7.88997 9.57032 7.82044 9.57294 7.75011 9.57708C7.67975 9.58122 7.6087 9.58687 7.55367 9.59449C7.52613 9.59831 7.50278 9.60259 7.4856 9.60737C7.47699 9.60977 7.47013 9.61223 7.46512 9.61473C7.4599 9.61734 7.45757 9.61956 7.4568 9.62098C7.4543 9.62561 7.45334 9.63235 7.45424 9.64157C7.45512 9.6507 7.45777 9.66161 7.46177 9.67407C7.46922 9.69724 7.48106 9.72484 7.49393 9.75484C7.49491 9.75712 7.49589 9.75941 7.49688 9.76171C7.51082 9.79423 7.52557 9.82916 7.5366 9.86339C7.54762 9.89758 7.55507 9.93149 7.55414 9.96195C7.55336 9.9822 7.55284 10.0016 7.55236 10.0198C7.55146 10.054 7.55065 10.0844 7.54836 10.11C7.54659 10.1296 7.54392 10.1468 7.53953 10.161C7.53658 10.1705 7.53279 10.1789 7.52783 10.1858C7.54284 10.1868 7.55448 10.1866 7.56229 10.1856C7.5656 10.1851 7.56793 10.1846 7.56944 10.1841L7.5702 10.1821L7.57067 10.1808C7.57098 10.1799 7.57145 10.1786 7.57203 10.1768C7.57321 10.1733 7.57489 10.1682 7.57688 10.1617C7.58087 10.1485 7.58611 10.1296 7.59109 10.1067C7.60108 10.0607 7.61001 9.99861 7.60599 9.93384C7.61134 9.87802 7.6049 9.82559 7.59638 9.78172C7.59274 9.76302 7.58874 9.74578 7.58512 9.73014C7.58449 9.72741 7.58387 9.72474 7.58326 9.72211C7.57921 9.70453 7.5758 9.689 7.5744 9.67628L7.5733 9.66627L7.58235 9.67044C7.58236 9.67045 7.58233 9.67043 7.58235 9.67044C7.58248 9.67049 7.58283 9.67061 7.58332 9.67075C7.5843 9.67104 7.58603 9.67148 7.58879 9.67199C7.59431 9.67301 7.60385 9.67427 7.61955 9.67512C7.65096 9.67682 7.70671 9.67684 7.80369 9.66998C7.90043 9.66313 7.95581 9.64866 7.9868 9.63613C8.00229 9.62987 8.01163 9.62411 8.01701 9.62007C8.01969 9.61805 8.02138 9.61647 8.02236 9.61545C8.02233 9.61548 8.02238 9.61543 8.02236 9.61545L8.02242 9.56669Z" fill="#707070"/>
<path fill-rule="evenodd" clip-rule="evenodd" d="M8.79447 9.35287C8.98327 9.34398 9.29944 9.3456 9.29944 9.3456C9.29944 9.3456 9.37442 9.49512 9.37081 9.57756C9.36719 9.66 9.3419 9.73113 9.30757 9.69556C9.27324 9.66 9.32293 9.66728 9.32925 9.57756C9.33558 9.48865 9.26963 9.39651 9.26963 9.39651C9.26963 9.39651 9.13413 9.45552 8.93088 9.44339C8.72762 9.43127 8.81705 9.3561 8.79447 9.35287Z" fill="#D0D0D0"/>
<path fill-rule="evenodd" clip-rule="evenodd" d="M8.79447 9.35837L8.7942 9.34718C8.88872 9.34273 9.01506 9.34091 9.11772 9.3402C9.16906 9.33985 9.21449 9.33977 9.24709 9.33978C9.26339 9.33979 9.27649 9.33982 9.2855 9.33985L9.29941 9.3399L9.29944 9.3456L9.30453 9.34304L9.3054 9.34478C9.30595 9.34591 9.30676 9.34757 9.30779 9.34971C9.30985 9.35399 9.31278 9.36019 9.31628 9.36788C9.32329 9.38327 9.3326 9.40464 9.3418 9.42862C9.36007 9.47627 9.37836 9.53527 9.3765 9.57781C9.37468 9.61934 9.36739 9.6586 9.35587 9.68323C9.35019 9.69535 9.34291 9.70519 9.33357 9.709C9.32333 9.71317 9.31294 9.70933 9.30347 9.69952C9.2947 9.69044 9.28999 9.68284 9.28989 9.67481C9.2898 9.6671 9.29411 9.66041 9.29831 9.65389C9.29856 9.65351 9.29888 9.65301 9.29914 9.65261C9.30783 9.63916 9.32059 9.6194 9.32357 9.57716C9.32663 9.53411 9.31217 9.48988 9.29664 9.45608C9.2889 9.43924 9.28096 9.42514 9.27497 9.41525C9.27197 9.41031 9.26946 9.40644 9.26771 9.4038C9.26777 9.40389 9.26765 9.40371 9.26771 9.4038C9.26709 9.40405 9.26622 9.40405 9.26547 9.40434C9.26129 9.40596 9.25512 9.40824 9.2471 9.41094C9.23105 9.41634 9.20757 9.42339 9.17771 9.43006C9.11801 9.44339 9.03278 9.45518 8.93054 9.44908C8.87946 9.44603 8.84624 9.43901 8.82488 9.42982C8.80338 9.42057 8.7933 9.40884 8.78988 9.39629C8.78666 9.3845 8.78978 9.3732 8.79185 9.36571C8.7918 9.36589 8.7919 9.36552 8.79185 9.36571C8.79301 9.36149 8.7937 9.3587 8.79365 9.3574C8.79379 9.35757 8.79435 9.35829 8.79447 9.35837ZM8.80503 9.35809C8.80492 9.36117 8.80394 9.3647 8.80311 9.36772C8.80315 9.36756 8.80307 9.36787 8.80311 9.36772C8.80094 9.37561 8.79852 9.38467 8.80087 9.3933C8.8031 9.40147 8.80995 9.411 8.82938 9.41936C8.84896 9.42778 8.88066 9.43469 8.93122 9.43771C9.03222 9.44373 9.11637 9.43208 9.17523 9.41894C9.20466 9.41237 9.22776 9.40543 9.24347 9.40014C9.25132 9.3975 9.25733 9.39527 9.26135 9.39371C9.26337 9.39293 9.26488 9.39232 9.26589 9.39191L9.26701 9.39144L9.27158 9.38945L9.27426 9.3932L9.27506 9.39433C9.27556 9.39506 9.27628 9.39612 9.2772 9.39749C9.27903 9.40024 9.28162 9.40426 9.28471 9.40935C9.29088 9.41952 9.29903 9.43401 9.30699 9.45132C9.32284 9.48581 9.33819 9.53211 9.33493 9.57796M8.80503 9.35809C8.89806 9.35399 9.01885 9.35228 9.11779 9.35159C9.1691 9.35124 9.21451 9.35117 9.24709 9.35118C9.26338 9.35118 9.27646 9.35121 9.28547 9.35124L9.29582 9.35128M9.29944 9.3456L9.30453 9.34304L9.30297 9.33992L9.29941 9.3399L9.29944 9.3456Z" fill="#707070"/>
<path fill-rule="evenodd" clip-rule="evenodd" d="M8.8605 9.50092C9.0493 9.49122 9.17306 9.52032 9.17306 9.52032C9.17306 9.52032 9.24714 9.66985 9.24443 9.75229C9.24172 9.83473 9.21552 9.90585 9.18029 9.87029C9.14506 9.83473 9.19655 9.842 9.20287 9.75229C9.2092 9.66338 9.14235 9.57043 9.14235 9.57043C9.14235 9.57043 9.00685 9.62943 8.8045 9.61812C8.60124 9.60599 8.65906 9.59387 8.63647 9.59064C8.61389 9.5874 8.60757 9.64721 8.30043 9.6553C7.99329 9.66338 7.83611 9.59064 7.83611 9.59064C7.83611 9.59064 7.80539 9.63428 7.61208 9.64721C7.41876 9.66015 7.38805 9.64721 7.38805 9.64721C7.39256 9.69733 7.4305 9.7927 7.41966 9.90585C7.42689 10.0368 7.38353 10.1564 7.38353 10.1564C7.38805 10.1629 7.36456 10.1669 7.32391 10.1629C7.35553 10.1346 7.35191 10.0513 7.35553 9.93414C7.35914 9.81614 7.23357 9.63832 7.25977 9.58983C7.28597 9.54133 7.42508 9.5866 7.45218 9.56073C7.47838 9.53568 7.32752 9.35625 7.35553 9.18894C7.38443 9.02083 7.54342 9.06771 7.74035 9.07417C7.93638 9.07983 8.37089 9.13075 8.47658 9.07417C8.58137 9.01759 8.5353 8.80745 8.63557 8.67328C8.6636 8.63595 8.70197 8.60575 8.74693 8.58564C8.7919 8.56552 8.84192 8.55618 8.89212 8.55851C8.95536 8.55851 9.05201 8.78805 9.05201 8.84463L9.0204 8.87373H8.98788V8.90202C8.91561 8.9101 8.90477 8.83978 8.8605 8.78805C8.84063 8.86888 8.92374 9.13156 8.92374 9.3029C8.92374 9.44677 8.86412 9.50981 8.8605 9.49931V9.50092Z" fill="#D0D0D0"/>
<path fill-rule="evenodd" clip-rule="evenodd" d="M8.89186 8.5642C8.84253 8.56191 8.79339 8.5711 8.74926 8.59084C8.70513 8.61058 8.66755 8.64019 8.64013 8.6767C8.59359 8.73897 8.5791 8.81806 8.56565 8.89145C8.56489 8.89561 8.56413 8.89974 8.56337 8.90386C8.55633 8.94198 8.54904 8.9783 8.53681 9.00866C8.52454 9.03912 8.50707 9.06418 8.47929 9.07918C8.46531 9.08667 8.44627 9.0922 8.42365 9.09625C8.40095 9.10032 8.37429 9.10297 8.34482 9.10452C8.28589 9.10763 8.21533 9.10639 8.1421 9.1032C8.07038 9.10008 7.99597 9.0951 7.92725 9.09049L7.92284 9.0902C7.85285 9.08551 7.78906 9.08128 7.74019 9.07987C7.70598 9.07874 7.67281 9.0764 7.64142 9.07418C7.62753 9.0732 7.61399 9.07224 7.60086 9.07142C7.55783 9.06874 7.51905 9.06757 7.48564 9.07174C7.45226 9.07591 7.42477 9.08535 7.40389 9.10348C7.38309 9.12154 7.36821 9.1488 7.36114 9.18989C7.34745 9.27174 7.37749 9.35706 7.40838 9.42585C7.41607 9.44299 7.42379 9.45905 7.43086 9.47373L7.43132 9.47467C7.43819 9.48894 7.44446 9.50197 7.44942 9.51332C7.45445 9.52485 7.45829 9.53503 7.45999 9.54328C7.46158 9.55108 7.46175 9.55947 7.45612 9.56485C7.45161 9.56915 7.44525 9.57158 7.43836 9.573C7.43139 9.57444 7.42321 9.57499 7.41442 9.57507C7.4021 9.57517 7.38794 9.57434 7.3735 9.57349C7.36747 9.57314 7.36138 9.57278 7.35536 9.57248C7.33465 9.57147 7.31452 9.57121 7.29805 9.57407C7.28144 9.57696 7.27006 9.58276 7.26478 9.59254C7.26228 9.59717 7.26131 9.60393 7.26218 9.61317C7.26305 9.62233 7.26566 9.63328 7.26962 9.64577C7.27701 9.66909 7.2888 9.69688 7.30162 9.72707C7.30255 9.72927 7.30348 9.73148 7.30443 9.7337C7.31825 9.76631 7.33289 9.80134 7.34383 9.83565C7.35476 9.8699 7.36215 9.90386 7.36122 9.93431C7.36068 9.9518 7.3603 9.96859 7.35994 9.98458C7.3591 10.0219 7.35836 10.0549 7.35589 10.0824C7.35413 10.102 7.35146 10.1192 7.34713 10.1333C7.34421 10.1429 7.34049 10.1512 7.33563 10.1581C7.35039 10.1591 7.36204 10.1589 7.36994 10.1579C7.37345 10.1575 7.3759 10.1569 7.37747 10.1564L7.37817 10.1545L7.37864 10.1532C7.37894 10.1523 7.3794 10.151 7.37997 10.1492C7.38113 10.1457 7.38278 10.1406 7.38473 10.134C7.38865 10.1209 7.39381 10.102 7.39874 10.079C7.40861 10.0331 7.41755 9.97096 7.41398 9.90617C7.41932 9.85036 7.41267 9.79797 7.40403 9.75399C7.40063 9.73669 7.39694 9.72063 7.39355 9.70589C7.39263 9.70187 7.39173 9.69794 7.39086 9.69411C7.38685 9.6764 7.38354 9.66069 7.38237 9.64773L7.38152 9.63829L7.39018 9.64193C7.39014 9.64192 7.39019 9.64194 7.39018 9.64193C7.39033 9.64198 7.39072 9.64211 7.39123 9.64224C7.39225 9.64252 7.39402 9.64294 7.39683 9.64342C7.40245 9.64438 7.41209 9.64557 7.42786 9.64637C7.45939 9.64798 7.51516 9.64799 7.6117 9.64153C7.70799 9.63509 7.76338 9.62102 7.7945 9.60878C7.81005 9.60266 7.81949 9.59702 7.82494 9.59305C7.82766 9.59107 7.82939 9.58951 7.83038 9.58851C7.83088 9.58801 7.83119 9.58766 7.83136 9.58746L7.83419 9.58347L7.8385 9.58547L7.84021 9.58622C7.84139 9.58674 7.84319 9.5875 7.84559 9.58846C7.8504 9.5904 7.85764 9.59317 7.86731 9.59649C7.88665 9.60311 7.91569 9.6119 7.95432 9.62044C8.03157 9.63751 8.14719 9.65363 8.30028 9.6496C8.45355 9.64557 8.53123 9.62863 8.57321 9.61337C8.59412 9.60577 8.60627 9.59855 8.61464 9.59339C8.61514 9.59308 8.61563 9.59278 8.61612 9.59248C8.61963 9.59031 8.62284 9.58832 8.62578 9.58698C8.62934 9.58535 8.63304 9.58439 8.63728 9.585C8.64036 9.58544 8.64297 9.58613 8.64504 9.58754C8.64721 9.58901 8.64818 9.5909 8.64863 9.59178C8.64861 9.59173 8.64866 9.59184 8.64863 9.59178C8.64898 9.59244 8.64919 9.59283 8.64963 9.59319C8.65022 9.59369 8.65157 9.59457 8.65466 9.59568C8.66091 9.59793 8.67291 9.60063 8.69637 9.60351C8.71971 9.60638 8.75408 9.6094 8.80483 9.61243C8.90538 9.61805 8.9893 9.6062 9.04805 9.59296C9.07743 9.58634 9.1005 9.57937 9.11619 9.57408C9.12404 9.57143 9.13005 9.5692 9.13407 9.56763C9.13608 9.56685 9.1376 9.56624 9.13861 9.56582L9.13973 9.56536L9.14429 9.56337L9.14697 9.56711L9.14778 9.56825C9.14828 9.56898 9.14902 9.57004 9.14994 9.57143C9.1518 9.57421 9.15443 9.57825 9.15756 9.58337C9.16381 9.59362 9.17208 9.60821 9.18015 9.62562C9.19623 9.66031 9.21182 9.70682 9.20856 9.75269M8.89226 8.55282C8.84123 8.55046 8.79036 8.55997 8.74461 8.58044C8.69882 8.60093 8.65966 8.63171 8.63102 8.66986C8.58282 8.73436 8.56788 8.81595 8.55456 8.88876C8.55376 8.89313 8.55296 8.89748 8.55217 8.90179C8.5451 8.94004 8.53799 8.97526 8.52625 9.0044C8.51455 9.03344 8.49849 9.05586 8.47388 9.06915C8.46144 9.07581 8.44377 9.08107 8.42164 9.08504C8.39957 9.089 8.37342 9.09161 8.34422 9.09315C8.28584 9.09623 8.2157 9.095 8.14259 9.09182C8.07101 9.0887 7.99671 9.08373 7.92795 9.07912L7.9236 9.07883C7.85369 9.07415 7.78966 9.0699 7.74053 9.06848C7.70654 9.06736 7.67377 9.06504 7.64248 9.06283C7.62854 9.06184 7.61489 9.06088 7.60156 9.06005C7.55849 9.05737 7.51879 9.05612 7.48423 9.06044C7.44963 9.06476 7.41964 9.07471 7.39642 9.09488C7.37313 9.1151 7.3573 9.14502 7.34991 9.18798C7.33561 9.27343 7.36699 9.3615 7.39798 9.43051C7.40575 9.44782 7.41353 9.464 7.4206 9.47867C7.42752 9.49305 7.43411 9.50672 7.43898 9.51788C7.44396 9.5293 7.44739 9.53856 7.44882 9.54557C7.45035 9.55304 7.44917 9.55573 7.44825 9.55662C7.44598 9.55878 7.44207 9.5606 7.43606 9.56184C7.43014 9.56306 7.4228 9.5636 7.41432 9.56367C7.4024 9.56378 7.38887 9.56298 7.37463 9.56214C7.3685 9.56178 7.36224 9.56141 7.35592 9.5611C7.33518 9.56009 7.31393 9.55975 7.2961 9.56285C7.27842 9.56592 7.26258 9.57265 7.25476 9.58712C7.25071 9.59461 7.24988 9.60401 7.25084 9.61424C7.25182 9.62455 7.25469 9.63637 7.25876 9.64921C7.26632 9.67307 7.27832 9.70135 7.29105 9.73134C7.29201 9.7336 7.29297 9.73587 7.29394 9.73814C7.30778 9.77079 7.32221 9.80537 7.33298 9.83911C7.34376 9.87289 7.35071 9.90541 7.34983 9.93396M9.04626 8.84219C9.04562 8.82865 9.03999 8.80563 9.03053 8.77789C9.02056 8.74866 9.00661 8.7149 8.99068 8.68289C8.97474 8.65085 8.95694 8.62078 8.93934 8.59883C8.93053 8.58784 8.92192 8.57906 8.91377 8.57308C8.90557 8.56705 8.89806 8.5642 8.89186 8.5642M9.14026 9.57744C9.13964 9.57769 9.13895 9.57796 9.13819 9.57825C9.13402 9.57987 9.12785 9.58217 9.11984 9.58487C9.1038 9.59028 9.08035 9.59736 9.05056 9.60407C8.99097 9.6175 8.90597 9.6295 8.80418 9.62381C8.75331 9.62077 8.71866 9.61773 8.69498 9.61482C8.6714 9.61192 8.65833 9.60911 8.65081 9.6064C8.64701 9.60504 8.6443 9.60359 8.64231 9.60192C8.64017 9.60012 8.63921 9.59835 8.63863 9.59723C8.63867 9.59732 8.63855 9.59708 8.63863 9.59723C8.63828 9.5971 8.63729 9.59651 8.63567 9.59628C8.63426 9.59608 8.63282 9.59628 8.63052 9.59734C8.62828 9.59836 8.62574 9.59993 8.62207 9.60219C8.62161 9.60248 8.62112 9.60278 8.62062 9.60309C8.61186 9.60849 8.59899 9.61612 8.57711 9.62408C8.5335 9.63993 8.45444 9.65694 8.30058 9.66099C8.14653 9.66505 8.02999 9.64883 7.95186 9.63156C7.9128 9.62292 7.88335 9.61403 7.86362 9.60727C7.85376 9.60389 7.84632 9.60104 7.84133 9.59903C7.83984 9.59843 7.83857 9.5979 7.83751 9.59746C7.83611 9.59878 7.8342 9.6004 7.83164 9.60226C7.82529 9.60689 7.81497 9.61297 7.79867 9.61938C7.76611 9.63219 7.70948 9.64641 7.61246 9.6529C7.51568 9.65937 7.45943 9.65938 7.42728 9.65775C7.4112 9.65694 7.40109 9.65571 7.39491 9.65465C7.39499 9.65466 7.39482 9.65463 7.39491 9.65465C7.3964 9.66519 7.39878 9.67749 7.40197 9.6916C7.40283 9.69536 7.40372 9.69925 7.40464 9.70325C7.40803 9.71801 7.41177 9.7343 7.4152 9.75179C7.42393 9.7962 7.43079 9.84879 7.42538 9.90597C7.42896 9.97195 7.41986 10.035 7.40988 10.0814C7.40487 10.1047 7.39964 10.1239 7.39565 10.1373C7.39366 10.144 7.39197 10.1492 7.39079 10.1528C7.39031 10.1542 7.38991 10.1554 7.3896 10.1563C7.38991 10.1577 7.38986 10.1592 7.38922 10.1608C7.38822 10.1633 7.38618 10.1648 7.38461 10.1657C7.3814 10.1675 7.37671 10.1686 7.37137 10.1692C7.36039 10.1706 7.34389 10.1706 7.32335 10.1685L7.31046 10.1673L7.32011 10.1586C7.32694 10.1525 7.33223 10.1431 7.33623 10.13C7.34023 10.1169 7.34281 10.1007 7.34455 10.0813C7.34697 10.0543 7.3477 10.0219 7.34854 9.98479C7.3489 9.96872 7.34928 9.95176 7.34983 9.93396" fill="#707070"/>
<path fill-rule="evenodd" clip-rule="evenodd" d="M8.24275 9.2511C8.24636 9.30768 7.99613 9.43619 7.97536 9.48711C7.95458 9.53803 8.03859 9.56551 8.0133 9.5946C7.9871 9.6237 7.96632 9.61239 7.9609 9.61804C7.95548 9.6237 7.86695 9.41922 7.86695 9.41922C7.86695 9.41922 8.10183 9.31414 8.09279 9.26807C8.08376 9.22201 7.91935 9.19533 7.88864 9.07975C7.85882 8.96498 7.87599 8.74272 7.8516 8.69584C7.82721 8.64977 7.53814 8.60532 7.53814 8.535C7.53814 8.46468 7.83624 8.27232 7.86695 8.24403C7.89857 8.21494 7.93019 8.27232 7.89857 8.30061C7.86695 8.32971 7.63479 8.50671 7.63479 8.535C7.63479 8.5641 7.82721 8.59239 7.89135 8.59239C7.95458 8.59239 7.9871 8.5641 7.9871 8.53581C7.9871 8.51075 7.92387 8.50671 7.92387 8.44933C7.92387 8.39194 7.95548 8.36365 8.01962 8.36365C8.05124 8.36365 8.11267 8.40002 8.11538 8.44933C8.11809 8.49782 8.05846 8.50267 8.05124 8.535C8.04401 8.56733 8.11447 8.59239 8.17951 8.59239C8.24275 8.59239 8.46226 8.75888 8.49388 8.78798C8.5255 8.81627 8.55711 8.81627 8.5255 8.84456C8.49388 8.87365 8.51285 8.9076 8.48033 8.8785C8.45323 8.85102 8.44871 8.82193 8.44871 8.82193C8.446 8.79525 8.21113 8.67806 8.17951 8.70716C8.14699 8.73544 8.17951 9.07895 8.17951 9.10804C8.17951 9.16462 8.24546 9.16462 8.24275 9.2511Z" fill="#D0D0D0"/>
<path fill-rule="evenodd" clip-rule="evenodd" d="M7.83426 8.58802H8.21713V8.99H7.83426V8.58802Z" fill="#A7A7A7"/>
<path d="M9.0773 10.0319L7.79009 8.09965C7.7792 8.08331 7.76444 8.07323 7.75711 8.07714C7.74978 8.08105 7.75266 8.09747 7.76355 8.11381L9.05076 10.046C9.06165 10.0624 9.07641 10.0724 9.08374 10.0685C9.09107 10.0646 9.08819 10.0482 9.0773 10.0319Z" fill="#808080"/>
<path fill-rule="evenodd" clip-rule="evenodd" d="M7.92967 8.27248C7.92967 8.2877 7.92291 8.30229 7.91088 8.31306C7.89886 8.32382 7.88254 8.32986 7.86553 8.32986C7.84852 8.32986 7.83221 8.32382 7.82018 8.31306C7.80815 8.30229 7.80139 8.2877 7.80139 8.27248C7.80139 8.25726 7.80815 8.24266 7.82018 8.2319C7.83221 8.22114 7.84852 8.21509 7.86553 8.21509C7.88254 8.21509 7.89886 8.22114 7.91088 8.2319C7.92291 8.24266 7.92967 8.25726 7.92967 8.27248Z" fill="#D0D0D0"/>
<path fill-rule="evenodd" clip-rule="evenodd" d="M7.86553 8.22079C7.84984 8.22079 7.8349 8.22637 7.82398 8.23615C7.81308 8.2459 7.80709 8.25899 7.80709 8.27248C7.80709 8.28597 7.81308 8.29905 7.82398 8.30881C7.8349 8.31858 7.84984 8.32417 7.86553 8.32417C7.88122 8.32417 7.89616 8.31858 7.90709 8.30881C7.91799 8.29905 7.92397 8.28597 7.92397 8.27248C7.92397 8.25899 7.91799 8.2459 7.90709 8.23615C7.89616 8.22637 7.88122 8.22079 7.86553 8.22079ZM7.81638 8.22765C7.82951 8.2159 7.8472 8.2094 7.86553 8.2094C7.88386 8.2094 7.90155 8.2159 7.91468 8.22765C7.92784 8.23942 7.93537 8.25553 7.93537 8.27248C7.93537 8.28942 7.92784 8.30553 7.91468 8.3173C7.90155 8.32905 7.88386 8.33556 7.86553 8.33556C7.8472 8.33556 7.82951 8.32905 7.81638 8.3173C7.80323 8.30553 7.7957 8.28942 7.7957 8.27248C7.7957 8.25553 7.80323 8.23942 7.81638 8.22765Z" fill="#707070"/>
<path fill-rule="evenodd" clip-rule="evenodd" d="M9.05123 8.79311C9.05123 8.82046 8.90355 8.8478 8.73126 8.8478C8.55897 8.8478 8.41129 8.82046 8.41129 8.79311C8.41129 8.77123 8.55897 8.82866 8.73126 8.82866C8.90355 8.82866 9.05123 8.77123 9.05123 8.79311Z" fill="#808080"/>
<path fill-rule="evenodd" clip-rule="evenodd" d="M7.86708 8.99H8.18704V9.10212H7.86708V8.99Z" fill="#A7A7A7"/>
<path fill-rule="evenodd" clip-rule="evenodd" d="M8.90629 8.7056C8.87894 8.76577 8.84612 8.80678 8.84065 8.79858C8.83518 8.79311 8.85706 8.73842 8.88714 8.68099C8.91996 8.62357 8.95004 8.58255 8.95278 8.58802C8.95825 8.59622 8.9391 8.64818 8.90629 8.7056ZM8.98833 8.85601C8.95278 8.88882 8.92543 8.9107 8.9227 8.9025C8.9227 8.89703 8.95004 8.86695 8.98559 8.83413C9.02115 8.80405 9.05123 8.78217 9.05123 8.79038C9.05123 8.79585 9.02388 8.82593 8.98833 8.85601Z" fill="#808080"/>
<path fill-rule="evenodd" clip-rule="evenodd" d="M8.95004 8.78217C8.97466 8.8314 8.99106 8.87242 8.98559 8.87515C8.98286 8.87515 8.95825 8.8396 8.9309 8.79311C8.90355 8.74389 8.88714 8.7056 8.89261 8.70287C8.89808 8.70287 8.91996 8.73842 8.94731 8.78491L8.95004 8.78217ZM8.9227 9.03102C8.9227 9.03923 8.82424 9.0447 8.69844 9.0447C8.57265 9.0447 8.47419 9.03923 8.47419 9.03102C8.47419 9.02282 8.57538 9.01735 8.69844 9.01735C8.82424 9.01735 8.9227 9.02282 8.9227 9.03102ZM8.18704 9.00368C8.18704 9.01188 8.11594 9.01735 8.02843 9.01735C7.93818 9.01735 7.86708 9.01188 7.86708 9.00368C7.86708 8.99547 7.93818 8.99 8.02569 8.99C8.1132 8.99 8.18978 8.99547 8.18978 9.00368H8.18704Z" fill="#808080"/>
<path fill-rule="evenodd" clip-rule="evenodd" d="M7.48422 10.0002C7.48422 10.0002 7.53738 10.1281 7.76183 10.1298C7.98628 10.1316 8.06484 10.0915 7.97328 10.0233C7.88173 9.95509 7.7134 9.97675 7.73525 10.0354C7.7571 10.094 7.67146 10.1135 7.65138 10.0723C7.63129 10.0311 7.55097 9.90891 7.69568 9.90074C7.84039 9.89257 8.14753 9.84817 8.22431 9.93342C8.3011 10.0187 8.1369 10.0957 8.26093 10.1139C8.38497 10.1316 8.40269 10.0933 8.61533 10.0815C8.82796 10.0698 8.90888 10.1206 8.98153 10.1135C9.05418 10.1064 9.04414 9.98137 8.98626 9.94976C8.92896 9.91779 8.81792 9.91211 8.78957 9.8773C8.76122 9.84249 8.68443 9.87055 8.69152 9.83112C8.69861 9.7917 8.80079 9.85847 8.80197 9.83823C8.80197 9.83752 8.8191 9.82437 8.82265 9.82082C8.80965 9.81798 8.80197 9.82295 8.79252 9.82793C8.80315 9.8194 8.80256 9.81549 8.80611 9.80875C8.80434 9.80626 8.79134 9.81869 8.78898 9.81585C8.78662 9.81301 8.80374 9.79596 8.79607 9.80235C8.7937 9.80413 8.77362 9.81407 8.77303 9.80733C8.77303 9.80448 8.78366 9.79738 8.78012 9.79312C8.77717 9.78992 8.7624 9.79702 8.76004 9.79773C8.7689 9.78601 8.76831 9.78637 8.76004 9.77749C8.75236 9.76896 8.74704 9.76896 8.73464 9.77891C8.73995 9.7647 8.74113 9.76186 8.72873 9.75653C8.71928 9.75085 8.71869 9.74588 8.70629 9.77109C8.71101 9.7441 8.69861 9.74268 8.70392 9.73025C8.70688 9.71852 8.72342 9.71355 8.75059 9.71604C8.80374 9.71639 8.83151 9.77997 8.84863 9.77962C8.86635 9.77962 8.88526 9.71249 8.95968 9.73948C9.03351 9.76683 9.04237 9.77216 9.08017 9.7885C9.11738 9.80448 9.05359 9.82899 9.07485 9.86096C9.09612 9.89293 9.24201 9.99878 9.20066 10.1096C9.15932 10.2197 9.053 10.2375 9.04296 10.2854C9.03351 10.333 9.37963 10.3138 9.46823 10.3298C9.55683 10.3458 9.61235 10.4115 9.6159 10.4229C9.61944 10.4343 9.46114 10.4332 9.46114 10.4332C9.46114 10.4332 9.37963 10.3913 9.1859 10.387C8.99157 10.3835 8.91774 10.3053 8.84509 10.2954C8.77244 10.2854 8.61769 10.3121 8.53145 10.3082C8.44463 10.3042 8.35721 10.2904 8.3011 10.2829C8.24498 10.2751 7.9662 10.4087 7.96738 10.4399C7.9089 10.4374 7.77246 10.4303 7.77778 10.4339C7.78368 10.4374 7.80258 10.3735 7.9089 10.3621C8.01522 10.3508 8.11977 10.2996 8.11563 10.2662C8.11268 10.2325 8.1369 10.1171 8.14516 10.068C8.15343 10.019 8.19419 9.99487 8.18474 9.96859C8.17529 9.94301 8.05361 9.91637 7.93666 9.91708C7.81971 9.91779 7.68977 9.92419 7.67087 9.9526C7.65197 9.98102 7.66673 10.0627 7.69095 10.0531C7.71458 10.0439 7.68504 9.99025 7.71044 9.97924C7.75767 9.96483 7.80987 9.95729 7.86283 9.95722C7.92426 9.9558 8.03117 10.0094 8.02999 10.0265C8.02881 10.0439 8.06424 10.1011 8.01522 10.1224C7.9662 10.1444 7.86578 10.1544 7.76951 10.1494C7.68512 10.1439 7.60546 10.1232 7.54093 10.0901C7.50549 10.0688 7.48422 10.0048 7.48422 10.0002Z" fill="#D0D0D0"/>
<path fill-rule="evenodd" clip-rule="evenodd" d="M8.71906 9.72074C8.71173 9.72296 8.708 9.72656 8.70689 9.73099C8.70576 9.73362 8.70548 9.73593 8.70574 9.73763C8.70596 9.73916 8.70648 9.74059 8.70718 9.74255C8.70736 9.74306 8.70756 9.74361 8.70777 9.7442C8.70892 9.7475 8.71008 9.75146 8.71037 9.75694C8.71063 9.75651 8.71089 9.7561 8.71114 9.75571C8.71312 9.75268 8.71508 9.75039 8.71744 9.74941C8.72018 9.74827 8.72259 9.74916 8.72446 9.75019C8.72538 9.7507 8.72634 9.75134 8.72726 9.75195C8.72813 9.75254 8.72913 9.7532 8.73013 9.75381C8.73319 9.75513 8.73569 9.75642 8.73754 9.75789C8.73953 9.75948 8.74087 9.76138 8.74133 9.76383C8.74176 9.7661 8.74134 9.7685 8.74065 9.77097C8.74357 9.76932 8.7463 9.76835 8.74897 9.76822C8.75424 9.76798 8.75831 9.77102 8.76229 9.77543C8.76263 9.77579 8.76296 9.77615 8.76328 9.77649C8.76484 9.77816 8.7662 9.77961 8.76719 9.78088C8.76841 9.78247 8.76945 9.78425 8.76951 9.78646C8.76956 9.78816 8.76902 9.78976 8.76821 9.7913C8.76798 9.79137 8.76843 9.79122 8.76821 9.7913C8.77045 9.79054 8.77355 9.78963 8.77569 9.78936C8.77676 9.78923 8.7779 9.78918 8.77899 9.78935C8.78005 9.78952 8.78136 9.78996 8.78236 9.79105C8.78419 9.79324 8.7841 9.79589 8.78336 9.79782C8.78267 9.79964 8.78139 9.80134 8.78025 9.80271C8.77966 9.80342 8.77905 9.80411 8.77849 9.80474C8.77794 9.80535 8.7774 9.80596 8.77699 9.80646C8.77702 9.80642 8.77695 9.8065 8.77699 9.80646C8.77846 9.80638 8.78046 9.80599 8.78289 9.80515C8.78544 9.80427 8.78807 9.80312 8.79022 9.80208C8.79237 9.80104 8.79379 9.80022 8.79419 9.79994C8.79465 9.79956 8.79505 9.79924 8.79538 9.79899C8.79568 9.79876 8.79607 9.79847 8.79647 9.79827C8.79626 9.79834 8.79658 9.79821 8.79647 9.79827C8.79664 9.79821 8.79754 9.79787 8.79806 9.79788C8.79861 9.79788 8.79963 9.79806 8.8004 9.79899C8.80111 9.79985 8.80113 9.80077 8.80111 9.80117C8.80107 9.80186 8.80079 9.80239 8.80073 9.80251C8.80082 9.80237 8.80063 9.80271 8.80073 9.80251C8.8003 9.80316 8.79906 9.80485 8.79805 9.80611C8.79767 9.80658 8.79729 9.80706 8.79691 9.80754C8.79599 9.80869 8.79505 9.80991 8.79422 9.81107C8.79482 9.8107 8.79545 9.81029 8.7961 9.80987C8.79592 9.80999 8.79628 9.80975 8.7961 9.80987C8.79777 9.80879 8.80011 9.80727 8.80162 9.80649C8.80244 9.80607 8.80343 9.80563 8.80441 9.80545C8.80531 9.80529 8.80731 9.80518 8.80859 9.80697L8.80968 9.8085L8.80881 9.81017C8.80802 9.81167 8.80745 9.81302 8.80686 9.81444C8.80631 9.81573 8.80568 9.81724 8.80491 9.81867C8.81012 9.81695 8.81597 9.81624 8.8233 9.81784L8.82875 9.81903L8.82481 9.82298C8.82293 9.82486 8.81778 9.82902 8.81323 9.8327C8.81086 9.83461 8.8083 9.83668 8.80666 9.83805C8.80589 9.83869 8.80529 9.83921 8.80486 9.83959C8.80455 9.84111 8.80378 9.84246 8.80249 9.84346C8.80099 9.84462 8.79914 9.84505 8.79737 9.84517C8.79389 9.84539 8.78933 9.84446 8.78438 9.84305C8.77788 9.84121 8.76992 9.8383 8.76154 9.83524C8.75708 9.83361 8.7525 9.83194 8.74796 9.83037C8.73465 9.82574 8.72157 9.82188 8.71149 9.8215C8.70646 9.82131 8.70254 9.82201 8.69977 9.82359C8.69715 9.82509 8.69527 9.82754 8.69453 9.83166C8.69372 9.83616 8.69417 9.83934 8.69529 9.84168C8.69641 9.844 8.69837 9.84585 8.70127 9.84737C8.7073 9.8505 8.71649 9.85176 8.72757 9.85291C8.72881 9.85303 8.73006 9.85316 8.73134 9.85329C8.74119 9.85428 8.752 9.85537 8.76206 9.85799C8.77345 9.86095 8.78427 9.86596 8.79194 9.87537C8.7985 9.88343 8.81013 9.89008 8.82531 9.89596C8.84041 9.90182 8.85858 9.90675 8.87781 9.91164C8.88213 9.91273 8.88651 9.91383 8.89091 9.91493C8.92549 9.92358 8.96193 9.93269 8.98774 9.94709C9.01798 9.96361 9.03522 10.004 9.0359 10.0408C9.03624 10.0592 9.03242 10.0771 9.02364 10.091C9.0148 10.105 9.00099 10.1147 8.98183 10.1165C8.96327 10.1184 8.94428 10.1165 8.92305 10.1129C8.91148 10.1109 8.89907 10.1084 8.88564 10.1057C8.8746 10.1035 8.86288 10.1011 8.85037 10.0988C8.79466 10.0885 8.72152 10.0787 8.61549 10.0846C8.51874 10.0899 8.46247 10.1008 8.41804 10.1093C8.41375 10.1102 8.40957 10.111 8.40548 10.1118C8.35878 10.1206 8.32298 10.1258 8.2605 10.1169C8.24485 10.1146 8.23344 10.1113 8.22546 10.1071C8.21741 10.1028 8.21266 10.0974 8.21075 10.0909C8.20888 10.0845 8.20988 10.0775 8.21218 10.0704C8.21447 10.0632 8.21819 10.0555 8.22217 10.0475C8.22259 10.0466 8.22302 10.0458 8.22344 10.0449C8.23115 10.0294 8.23952 10.0125 8.24196 9.99462C8.2445 9.97598 8.24062 9.95609 8.22204 9.93546C8.20355 9.91493 8.1708 9.90187 8.12912 9.89421C8.08755 9.88656 8.03766 9.88437 7.98551 9.8851C7.91675 9.88607 7.84448 9.89208 7.78238 9.89725C7.75016 9.89994 7.72068 9.90239 7.69585 9.90379C7.66002 9.90581 7.63884 9.91487 7.6271 9.9273C7.61545 9.93965 7.61257 9.95592 7.61476 9.97376C7.61695 9.99164 7.62419 10.0107 7.63225 10.028C7.63626 10.0366 7.64045 10.0447 7.64428 10.052C7.64517 10.0537 7.64603 10.0553 7.64687 10.0569C7.64966 10.0622 7.65217 10.067 7.65412 10.071C7.66324 10.0897 7.68771 10.0952 7.70808 10.0884C7.71812 10.085 7.72671 10.0788 7.73152 10.0702C7.7363 10.0616 7.73759 10.0504 7.73239 10.0364C7.7294 10.0284 7.72962 10.0208 7.73266 10.014C7.73566 10.0072 7.7413 10.0014 7.74868 9.9966C7.76342 9.987 7.78584 9.98086 7.81149 9.97873C7.8628 9.97447 7.92858 9.98618 7.97511 10.0208C7.98668 10.0295 7.99567 10.0377 8.00206 10.0456C8.00844 10.0535 8.01234 10.0611 8.01345 10.0685C8.01458 10.076 8.01279 10.083 8.00827 10.0892C8.0038 10.0954 7.99675 10.1008 7.98744 10.1055C7.96883 10.1149 7.94041 10.122 7.9028 10.1266C7.86513 10.1312 7.818 10.1333 7.76181 10.1329C7.64896 10.132 7.5789 10.0994 7.53698 10.0668C7.5186 10.0525 7.50568 10.0382 7.49695 10.0266C7.49847 10.03 7.50016 10.0336 7.50201 10.0373C7.51169 10.0565 7.52551 10.0772 7.54241 10.0874C7.6065 10.1203 7.6857 10.1409 7.76969 10.1463C7.81767 10.1488 7.86667 10.1476 7.90976 10.143C7.95292 10.1384 7.9899 10.1304 8.01397 10.1196C8.02558 10.1146 8.03197 10.1075 8.03522 10.0997C8.03852 10.0918 8.03878 10.0827 8.03752 10.0734C8.03627 10.0641 8.03358 10.055 8.03118 10.0468C8.03 10.0428 8.02883 10.0388 8.02805 10.0354C8.02728 10.0321 8.02676 10.0289 8.02694 10.0263C8.02696 10.026 8.02688 10.0254 8.02631 10.0244C8.02574 10.0233 8.02481 10.0221 8.02345 10.0207C8.02073 10.0178 8.0166 10.0144 8.01128 10.0108C8.00066 10.0035 7.98566 9.99534 7.96864 9.98771C7.9345 9.9724 7.89292 9.95958 7.8629 9.96027C7.81028 9.96034 7.75838 9.96783 7.71151 9.98211C7.70653 9.98433 7.70407 9.98859 7.70301 9.99466C7.70192 10.0009 7.70244 10.0085 7.70308 10.0166C7.7031 10.017 7.70313 10.0173 7.70316 10.0177C7.70376 10.0252 7.70438 10.0331 7.70341 10.0397C7.70238 10.0467 7.69942 10.0531 7.69206 10.056C7.6882 10.0575 7.68441 10.0572 7.68097 10.0554C7.67765 10.0537 7.6748 10.0508 7.6724 10.0471C7.66758 10.0399 7.66396 10.0293 7.66174 10.0177C7.65952 10.0061 7.65867 9.99321 7.65958 9.98141C7.6605 9.96968 7.66318 9.95864 7.66833 9.95091C7.6711 9.94675 7.67571 9.94324 7.68152 9.94023C7.68736 9.93721 7.69466 9.93456 7.70311 9.93222C7.72002 9.92755 7.74188 9.92404 7.76668 9.92142C7.8163 9.91616 7.87815 9.91438 7.93665 9.91403C7.99533 9.91367 8.05521 9.92017 8.10164 9.92999C8.12485 9.93489 8.14481 9.94065 8.15961 9.94683C8.16701 9.94992 8.17322 9.95316 8.17793 9.95651C8.18258 9.95982 8.18611 9.96348 8.1876 9.96753C8.19029 9.975 8.18934 9.98226 8.18655 9.98943C8.18379 9.9965 8.17914 10.0038 8.17416 10.0115C8.17389 10.0119 8.17362 10.0123 8.17334 10.0127C8.16345 10.0279 8.15208 10.0454 8.14818 10.0685C8.14626 10.0799 8.14349 10.0948 8.14041 10.1114L8.13965 10.1155C8.13626 10.1337 8.13256 10.1538 8.1292 10.1734C8.12584 10.193 8.12284 10.212 8.12087 10.2283C8.11889 10.2446 8.11797 10.2578 8.11867 10.2659C8.11987 10.2759 8.11302 10.2863 8.10205 10.296C8.09088 10.3059 8.07459 10.316 8.05499 10.3252C8.01577 10.3437 7.96272 10.3595 7.90923 10.3652C7.85671 10.3708 7.82601 10.3893 7.80773 10.4059C7.79857 10.4142 7.79247 10.422 7.78825 10.4276C7.7879 10.4281 7.78755 10.4285 7.78722 10.429C7.78699 10.4293 7.78677 10.4296 7.78655 10.4299C7.78947 10.4299 7.79298 10.4299 7.79699 10.4299C7.80998 10.4301 7.8284 10.4308 7.84878 10.4316C7.87328 10.4326 7.9007 10.4338 7.92501 10.435C7.9399 10.4357 7.95362 10.4363 7.9648 10.4368C7.9654 10.4348 7.96651 10.4329 7.96786 10.4311C7.97004 10.4282 7.97318 10.425 7.97707 10.4216C7.98487 10.4148 7.99604 10.407 8.00951 10.3985C8.03649 10.3817 8.0731 10.3622 8.11144 10.344C8.1498 10.3258 8.18997 10.3088 8.22411 10.2969C8.24117 10.2909 8.25678 10.2862 8.26992 10.2832C8.28296 10.2802 8.29391 10.2789 8.30151 10.2799C8.31114 10.2812 8.32168 10.2827 8.33298 10.2842C8.38759 10.2918 8.45979 10.3019 8.53159 10.3051C8.57062 10.3069 8.62384 10.3023 8.67734 10.2978C8.6826 10.2973 8.68786 10.2969 8.69311 10.2965C8.75153 10.2915 8.80877 10.2873 8.8455 10.2923C8.8641 10.2949 8.88266 10.3018 8.90288 10.3106C8.91049 10.3139 8.91831 10.3175 8.92646 10.3212C8.94015 10.3274 8.95479 10.3341 8.97102 10.3408C9.02258 10.3619 9.08924 10.3822 9.18595 10.384C9.28303 10.3861 9.35208 10.3977 9.3969 10.4087C9.41932 10.4143 9.43567 10.4197 9.44645 10.4237C9.45184 10.4257 9.45584 10.4274 9.4585 10.4286C9.45983 10.4292 9.46083 10.4296 9.4615 10.43L9.46293 10.4301L9.46794 10.4302C9.47226 10.4302 9.47842 10.4302 9.48581 10.4301C9.50058 10.43 9.52023 10.4298 9.53976 10.4292C9.55931 10.4287 9.57867 10.4277 9.59289 10.4263C9.60003 10.4255 9.60573 10.4246 9.60948 10.4236C9.61086 10.4233 9.61184 10.4229 9.61249 10.4226C9.61196 10.4215 9.61104 10.42 9.60966 10.418C9.60771 10.4152 9.60498 10.4118 9.6015 10.4078C9.59454 10.4 9.58463 10.3903 9.57208 10.3805C9.54697 10.3609 9.51138 10.3407 9.46769 10.3328C9.44581 10.3289 9.40782 10.3271 9.363 10.3259C9.34461 10.3254 9.32508 10.325 9.3051 10.3246C9.27655 10.324 9.24708 10.3235 9.21873 10.3225C9.17052 10.321 9.1252 10.3184 9.09249 10.3132C9.07617 10.3106 9.06273 10.3074 9.0536 10.3031C9.04904 10.301 9.0453 10.2985 9.04285 10.2955C9.04031 10.2924 9.03917 10.2888 9.03996 10.2848C9.04269 10.2718 9.0519 10.2611 9.06406 10.2509C9.07211 10.2441 9.08178 10.2372 9.09215 10.2299C9.09738 10.2262 9.1028 10.2224 9.10827 10.2184C9.1411 10.1943 9.17744 10.1628 9.19781 10.1085C9.21789 10.0547 9.19264 10.0017 9.15882 9.95757C9.14196 9.93557 9.12313 9.91599 9.10713 9.89986C9.10454 9.89725 9.10202 9.89473 9.09959 9.89229C9.09454 9.88723 9.08989 9.88258 9.08586 9.8784C9.07993 9.87223 9.07514 9.8669 9.07231 9.86265C9.06639 9.85375 9.06639 9.84521 9.06906 9.83741C9.0715 9.83027 9.07621 9.82368 9.0803 9.81796C9.08054 9.81762 9.08077 9.81729 9.08101 9.81696C9.08318 9.81392 9.08511 9.81114 9.08657 9.80854C9.08803 9.80591 9.08885 9.80371 9.08901 9.80182C9.08915 9.80007 9.08874 9.79846 9.08739 9.79683C9.08597 9.79509 9.08339 9.79321 9.07897 9.79131C9.071 9.78786 9.06432 9.78491 9.05806 9.78214C9.03456 9.77175 9.01684 9.76391 8.95863 9.74235C8.94046 9.73576 8.9259 9.73499 8.91402 9.73736C8.90213 9.73973 8.89269 9.7453 8.88484 9.75178C8.87844 9.75706 8.87321 9.76284 8.86851 9.76803C8.86739 9.76927 8.8663 9.77047 8.86524 9.77162C8.86252 9.77457 8.85988 9.77726 8.85728 9.77922C8.85471 9.78117 8.85182 9.78267 8.84863 9.78267C8.84866 9.78267 8.84861 9.78267 8.84863 9.78267C8.84558 9.78272 8.84266 9.78136 8.83996 9.77953C8.83721 9.77765 8.83435 9.77503 8.83139 9.77203C8.82866 9.76927 8.82575 9.76608 8.82267 9.76271L8.82185 9.76181C8.81845 9.7581 8.81484 9.75417 8.81095 9.75024C8.79534 9.73446 8.77586 9.71926 8.75057 9.71909C8.73716 9.71787 8.72642 9.7185 8.71906 9.72074ZM9.45974 10.4359C9.45912 10.4356 9.4573 10.4347 9.45603 10.4342C9.45347 10.433 9.44959 10.4314 9.44431 10.4294C9.43375 10.4255 9.41762 10.4201 9.39544 10.4147C9.35108 10.4037 9.28249 10.3922 9.18584 10.3901M7.77849 10.4302C7.77945 10.4292 7.78065 10.4276 7.78226 10.4254C7.78261 10.425 7.78298 10.4245 7.78337 10.4239C7.78767 10.4182 7.79405 10.41 7.80364 10.4014C7.82287 10.384 7.85478 10.3649 7.90858 10.3591C7.9614 10.3535 8.01379 10.3379 8.05238 10.3197C8.07169 10.3106 8.08741 10.3008 8.098 10.2914C8.10878 10.2819 8.11343 10.2733 8.1126 10.2666C8.11183 10.2578 8.11282 10.2439 8.11481 10.2276C8.1168 10.2112 8.11982 10.192 8.12318 10.1724C8.12654 10.1527 8.13026 10.1326 8.13364 10.1144L8.13439 10.1103C8.13748 10.0937 8.14024 10.0788 8.14215 10.0675C8.14627 10.0431 8.15825 10.0247 8.16808 10.0096C8.1684 10.0091 8.16872 10.0086 8.16904 10.0081C8.17409 10.0003 8.17837 9.99359 8.18086 9.98721C8.18331 9.98093 8.1839 9.97529 8.18187 9.96963C8.181 9.96729 8.17865 9.96452 8.17439 9.96149C8.17018 9.95849 8.16442 9.95546 8.15726 9.95247C8.14294 9.94648 8.12339 9.94083 8.10038 9.93596C8.05438 9.92624 7.99495 9.91978 7.93668 9.92013C7.87823 9.92049 7.81663 9.92227 7.76732 9.92749C7.74265 9.9301 7.72117 9.93356 7.70474 9.93811C7.69652 9.94038 7.68966 9.94289 7.68432 9.94566C7.67895 9.94844 7.67537 9.95135 7.67341 9.95429C7.66911 9.96077 7.66655 9.9706 7.66567 9.98188C7.6648 9.99309 7.66561 10.0054 7.66774 10.0165C7.66988 10.0277 7.67331 10.0375 7.67748 10.0438C7.67957 10.0469 7.6817 10.049 7.68375 10.05C7.68568 10.051 7.68765 10.0511 7.68983 10.0503C7.69429 10.0485 7.6965 10.0447 7.69737 10.0388C7.69824 10.0329 7.69766 10.0256 7.69704 10.0178C7.69642 10.0099 7.69575 10.0008 7.697 9.99361C7.69827 9.98629 7.7016 9.97975 7.70923 9.97644C7.75676 9.96194 7.80957 9.95424 7.86279 9.95417C7.8942 9.95345 7.93677 9.96673 7.97114 9.98214C7.98838 9.98987 8.00372 9.99821 8.01473 10.0057C8.02022 10.0095 8.02474 10.0131 8.02788 10.0165C8.02945 10.0181 8.03075 10.0198 8.03165 10.0214C8.03254 10.023 8.03316 10.0248 8.03303 10.0267C8.03292 10.0284 8.03325 10.0308 8.034 10.034C8.03474 10.0372 8.0358 10.0409 8.03701 10.045C8.03937 10.053 8.04226 10.0628 8.04357 10.0726C8.0449 10.0824 8.04475 10.0927 8.04086 10.102C8.03694 10.1115 8.02934 10.1196 8.01645 10.1252C7.9915 10.1364 7.95377 10.1444 7.91041 10.149C7.86697 10.1537 7.81764 10.1549 7.76935 10.1524C7.68462 10.1469 7.60449 10.1262 7.53953 10.0928C7.52103 10.0817 7.50635 10.0595 7.49656 10.0401C7.49162 10.0303 7.48781 10.021 7.48523 10.0139C7.48394 10.0104 7.48295 10.0073 7.48227 10.005C7.48194 10.0039 7.48167 10.0029 7.48149 10.0021C7.48155 10.0024 7.48142 10.0018 7.48149 10.0021L7.48117 10.0008L7.48422 10.0002L7.48704 9.99902L7.48763 10.0003C7.48806 10.0012 7.48871 10.0025 7.48963 10.0042C7.49147 10.0076 7.49436 10.0125 7.49853 10.0184C7.50687 10.0302 7.52032 10.0461 7.54073 10.0619C7.58151 10.0937 7.65025 10.1259 7.76185 10.1268C7.81789 10.1272 7.86474 10.1251 7.90206 10.1205C7.93945 10.1159 7.96703 10.109 7.98468 10.1001C7.99349 10.0956 7.99962 10.0908 8.00332 10.0857C8.00695 10.0806 8.00829 10.0752 8.00741 10.0694C8.00652 10.0635 8.00329 10.0568 7.99732 10.0494C7.99135 10.0421 7.98278 10.0342 7.97146 10.0257C7.92644 9.9922 7.86227 9.98064 7.81199 9.98481C7.78684 9.9869 7.76556 9.9929 7.75202 10.0017C7.74526 10.0061 7.74062 10.0111 7.73824 10.0165C7.7359 10.0217 7.73564 10.0277 7.73811 10.0343C7.74384 10.0497 7.74262 10.0628 7.73685 10.0731C7.73113 10.0834 7.72115 10.0904 7.71001 10.0942C7.68799 10.1015 7.6596 10.0961 7.64863 10.0736C7.64673 10.0697 7.64428 10.0651 7.64151 10.0598C7.64066 10.0582 7.63978 10.0566 7.63888 10.0549C7.63503 10.0475 7.63079 10.0393 7.62671 10.0306C7.61857 10.0131 7.61101 9.99335 7.6087 9.97451C7.60638 9.95563 7.60931 9.93725 7.62266 9.92311C7.63594 9.90904 7.65897 9.89976 7.6955 9.89769C7.72003 9.89631 7.74935 9.89387 7.78148 9.8912C7.84371 9.88602 7.9165 9.87996 7.98542 9.879C8.03774 9.87826 8.08808 9.88045 8.13022 9.8882C8.17224 9.89593 8.20669 9.90929 8.22658 9.93138C8.2464 9.95338 8.25079 9.97509 8.24801 9.99544C8.24543 10.0144 8.23664 10.0321 8.22902 10.0474C8.22856 10.0483 8.22809 10.0493 8.22764 10.0502C8.22364 10.0582 8.22013 10.0656 8.21799 10.0722C8.21585 10.0789 8.21524 10.0845 8.21661 10.0892C8.21795 10.0937 8.22132 10.098 8.22833 10.1017C8.23541 10.1055 8.24602 10.1086 8.26137 10.1108C8.32293 10.1197 8.358 10.1146 8.40434 10.1058C8.40842 10.105 8.4126 10.1042 8.41689 10.1033C8.46139 10.0948 8.51799 10.0838 8.61516 10.0785C8.72177 10.0726 8.79541 10.0824 8.85148 10.0928C8.86424 10.0952 8.876 10.0975 8.88702 10.0997C8.9003 10.1024 8.9125 10.1049 8.92408 10.1068C8.9451 10.1104 8.96347 10.1122 8.98123 10.1105C8.9984 10.1088 9.01058 10.1002 9.01848 10.0877C9.02644 10.0752 9.03012 10.0585 9.02979 10.0409C9.02914 10.0054 9.01243 9.96753 8.98479 9.95244C8.95976 9.93847 8.92417 9.92955 8.88942 9.92085C8.88503 9.91975 8.88065 9.91866 8.87631 9.91755C8.85708 9.91267 8.83859 9.90766 8.8231 9.90166C8.8077 9.89569 8.79481 9.88857 8.7872 9.87923C8.78069 9.87123 8.77128 9.8667 8.76052 9.8639C8.75096 9.86141 8.74064 9.86037 8.73073 9.85937C8.72946 9.85924 8.7282 9.85911 8.72694 9.85898C8.71616 9.85786 8.70571 9.85656 8.69845 9.85279C8.69472 9.85084 8.69162 9.84814 8.68978 9.84432C8.68795 9.84051 8.68755 9.83595 8.68851 9.83058C8.68954 9.82485 8.6924 9.82077 8.69674 9.81829C8.70092 9.8159 8.70615 9.81519 8.71172 9.8154C8.72282 9.81581 8.7367 9.81999 8.74996 9.8246C8.75475 9.82626 8.75945 9.82798 8.76396 9.82962C8.77217 9.83262 8.77975 9.83539 8.78605 9.83718C8.79095 9.83857 8.79463 9.83922 8.79698 9.83907C8.79814 9.839 8.79861 9.83874 8.79874 9.83864C8.79871 9.83917 8.79876 9.83863 8.79874 9.83864C8.79874 9.83795 8.79915 9.83703 8.79924 9.83686C8.79916 9.83696 8.79934 9.83663 8.79924 9.83686C8.79938 9.83665 8.79983 9.83598 8.79993 9.83588C8.80014 9.83565 8.8004 9.8354 8.80066 9.83517C8.80118 9.83468 8.80191 9.83406 8.80275 9.83336C8.80443 9.83196 8.80671 9.83012 8.80906 9.82822C8.81126 9.82644 8.81349 9.82463 8.81542 9.82304C8.80823 9.82302 8.80281 9.82591 8.79618 9.82944C8.79545 9.82983 8.79471 9.83023 8.79394 9.83063L8.79061 9.82554C8.79571 9.82145 8.79793 9.81863 8.79931 9.81617C8.79962 9.81562 8.7999 9.81508 8.80016 9.81452C8.80024 9.81446 8.80008 9.81457 8.80016 9.81452C8.79832 9.81571 8.79549 9.81753 8.79368 9.81836C8.79279 9.81877 8.79172 9.81918 8.79065 9.81929C8.78955 9.81941 8.78785 9.81927 8.78663 9.8178C8.78524 9.81613 8.78575 9.81411 8.78601 9.81328C8.78634 9.8122 8.78694 9.81108 8.78756 9.81006C8.78752 9.81012 8.7876 9.81 8.78756 9.81006C8.78664 9.81042 8.78582 9.8106 8.78488 9.81092C8.78212 9.81188 8.77909 9.81268 8.77656 9.8127C8.77531 9.81271 8.77381 9.81252 8.77251 9.81173C8.77102 9.81083 8.77014 9.80935 8.76999 9.80759C8.76999 9.80639 8.7705 9.80511 8.77086 9.80451C8.77127 9.80383 8.77179 9.80316 8.77229 9.80255C8.77278 9.80197 8.77332 9.80135 8.77385 9.80076C8.77442 9.80013 8.77504 9.79942 8.77556 9.7988C8.77663 9.7975 8.77735 9.79646 8.77765 9.79565C8.77763 9.79573 8.7777 9.79553 8.77765 9.79565C8.77735 9.79563 8.77701 9.79535 8.77644 9.79542C8.77491 9.79561 8.77295 9.79614 8.77083 9.79685C8.76874 9.79756 8.76665 9.79838 8.7649 9.79909C8.76458 9.79923 8.76425 9.79936 8.76392 9.79949C8.76267 9.80001 8.76153 9.80047 8.76092 9.80066L8.75196 9.80335L8.7576 9.79589C8.75985 9.79292 8.76136 9.79088 8.76232 9.78929C8.7633 9.78769 8.76342 9.78698 8.76341 9.78664C8.7634 9.78635 8.76329 9.78583 8.76235 9.78462C8.76156 9.78359 8.76046 9.78241 8.75891 9.78075C8.75856 9.78038 8.75819 9.77999 8.7578 9.77957C8.75411 9.77547 8.75165 9.77421 8.74925 9.77432C8.7465 9.77445 8.74277 9.7763 8.73655 9.78129L8.72789 9.78823L8.73187 9.77759C8.73317 9.77411 8.73416 9.77148 8.73476 9.76934C8.73539 9.76712 8.73549 9.76582 8.73533 9.76495C8.7352 9.76425 8.73485 9.76356 8.73373 9.76266C8.73252 9.7617 8.73058 9.76065 8.72753 9.75934C8.72633 9.75862 8.7249 9.75772 8.72399 9.75711C8.72302 9.75647 8.72216 9.7559 8.72151 9.75554C8.72026 9.75485 8.71996 9.75497 8.7198 9.75504C8.71929 9.75525 8.71818 9.7561 8.71626 9.75905C8.71442 9.76187 8.71212 9.76615 8.70903 9.77244L8.70328 9.77057C8.70554 9.75766 8.7037 9.75109 8.702 9.74622C8.70185 9.74578 8.70169 9.74533 8.70152 9.74488C8.70079 9.74286 8.70002 9.74071 8.69969 9.73853C8.69927 9.73568 8.69957 9.73276 8.70102 9.72927C8.70293 9.72211 8.70891 9.71744 8.71729 9.71489C8.7257 9.71234 8.73703 9.71174 8.75074 9.71299C8.77853 9.71322 8.79948 9.72996 8.81529 9.74595C8.81927 9.74997 8.82296 9.75398 8.82635 9.75769L8.82716 9.75857C8.83026 9.76196 8.83309 9.76506 8.83574 9.76774C8.83862 9.77066 8.84115 9.77294 8.8434 9.77448C8.8457 9.77604 8.84736 9.77659 8.84857 9.77657C8.84981 9.77657 8.85146 9.77597 8.8536 9.77435C8.85572 9.77275 8.85805 9.77041 8.86075 9.76748C8.86175 9.7664 8.86278 9.76526 8.86387 9.76406C8.86858 9.75885 8.87418 9.75266 8.88095 9.74707C8.88934 9.74014 8.89968 9.73399 8.91282 9.73137C8.92597 9.72875 8.94168 9.7297 8.96072 9.73661C9.01911 9.75824 9.03698 9.76614 9.06052 9.77655C9.06678 9.77932 9.07345 9.78227 9.08138 9.7857C9.08626 9.78779 9.08982 9.79016 9.09211 9.79295C9.09449 9.79584 9.09536 9.79903 9.09509 9.80232C9.09483 9.80548 9.09354 9.80857 9.0919 9.81151C9.09026 9.81446 9.08813 9.81749 9.08598 9.82051C9.08175 9.82643 9.07698 9.83313 9.07484 9.83939C9.07269 9.84568 9.07269 9.85219 9.0774 9.85927C9.07989 9.86301 9.08431 9.86798 9.09026 9.87416C9.09425 9.8783 9.09883 9.88289 9.10386 9.88793C9.1063 9.89037 9.10884 9.89291 9.11147 9.89556C9.1275 9.91173 9.14656 9.93153 9.16366 9.95385C9.19776 9.99834 9.22478 10.0537 9.20353 10.1107C9.18254 10.1665 9.14505 10.199 9.11188 10.2233C9.10619 10.2275 9.10066 10.2314 9.09538 10.2351C9.08517 10.2423 9.07585 10.2489 9.06799 10.2555C9.0561 10.2656 9.04825 10.2751 9.04595 10.286C9.04557 10.288 9.04603 10.2898 9.04756 10.2916C9.04919 10.2936 9.052 10.2956 9.05617 10.2976C9.06451 10.3014 9.07725 10.3046 9.09344 10.3072C9.12574 10.3123 9.17072 10.3148 9.21893 10.3164C9.24728 10.3174 9.27664 10.3179 9.30514 10.3185C9.32512 10.3189 9.34467 10.3193 9.36316 10.3198C9.40786 10.321 9.44635 10.3228 9.46877 10.3268C9.51368 10.3349 9.55016 10.3556 9.57584 10.3757C9.58868 10.3857 9.59886 10.3956 9.60607 10.4038C9.60968 10.4078 9.61256 10.4115 9.61467 10.4145C9.61672 10.4175 9.61822 10.4201 9.61881 10.422C9.6192 10.4232 9.61899 10.4244 9.61839 10.4255C9.61786 10.4264 9.61707 10.427 9.61639 10.4274C9.61501 10.4283 9.61312 10.429 9.61105 10.4295C9.60682 10.4307 9.60073 10.4316 9.59353 10.4323C9.57907 10.4338 9.55952 10.4348 9.53994 10.4353C9.52034 10.4359 9.50064 10.4361 9.48584 10.4362C9.47844 10.4363 9.47226 10.4363 9.46793 10.4363L9.46291 10.4362L9.46158 10.4362L9.45974 10.4359M8.79178 9.81531C8.79177 9.81538 8.79178 9.81531 8.79178 9.81531Z" fill="#808080"/>
<path fill-rule="evenodd" clip-rule="evenodd" d="M8.90902 9.81039C8.90902 9.81764 8.90614 9.82459 8.90101 9.82972C8.89588 9.83485 8.88893 9.83773 8.88167 9.83773C8.87442 9.83773 8.86746 9.83485 8.86234 9.82972C8.85721 9.82459 8.85433 9.81764 8.85433 9.81039C8.85433 9.80313 8.85721 9.79618 8.86234 9.79105C8.86746 9.78592 8.87442 9.78304 8.88167 9.78304C8.88893 9.78304 8.89588 9.78592 8.90101 9.79105C8.90614 9.79618 8.90902 9.80313 8.90902 9.81039Z" fill="black"/>
<path d="M10.1151 9.43848L10.2409 9.46583L10.4487 9.32089L10.4323 9.39746L10.3229 9.46856L10.2627 9.50685L10.3038 9.56701L10.3721 9.67639L10.3557 9.74749L10.2272 9.52599L10.1014 9.49864L10.1151 9.43848ZM9.90448 8.52239L10.1451 8.41027L10.0795 8.26807L10.1123 8.25439L10.2682 8.59622L10.2354 8.60989L10.1697 8.46769L9.92909 8.57708L9.90174 8.52239H9.90448ZM9.52981 8.06571L9.75133 7.86334L9.79509 7.91257L9.78962 8.25439L9.96464 8.09579L10.0057 8.13954L9.78141 8.3419L9.73766 8.29541L9.74586 7.95085L9.57084 8.11219L9.52981 8.06571ZM8.55897 7.67466L8.59726 7.37385L8.65742 7.38479L8.62734 7.64731L8.8598 7.67466L8.85433 7.71021L8.55897 7.67466ZM8.08312 7.71841L8.02843 7.42307L8.09133 7.41213L8.13782 7.67192L8.36754 7.6309L8.37574 7.66645L8.08312 7.71841ZM7.19979 8.15321L7.17791 8.12587L7.33653 8.00008L7.4049 8.08758C7.39012 8.11877 7.37176 8.14814 7.35021 8.17509C7.33017 8.20129 7.30723 8.22514 7.28184 8.24619C7.24824 8.27396 7.21038 8.29612 7.16971 8.31182C7.13142 8.32549 7.09861 8.32823 7.06852 8.32276C7.03844 8.31729 7.01383 8.30088 6.99469 8.27901C6.97675 8.25543 6.96714 8.22658 6.96734 8.19697C6.96629 8.16214 6.97582 8.12782 6.99469 8.09852C7.01857 8.06294 7.04813 8.03153 7.0822 8.00554C7.10733 7.9857 7.1349 7.96916 7.16424 7.95632C7.18885 7.94538 7.21073 7.93718 7.23261 7.93718C7.25449 7.93718 7.2709 7.94265 7.29004 7.95359L7.25175 7.99734C7.23818 7.99045 7.22322 7.98671 7.208 7.9864C7.19432 7.9864 7.18065 7.98914 7.16151 7.99734C7.14085 8.00656 7.12153 8.01851 7.10408 8.03289C7.0822 8.0493 7.06305 8.06844 7.04938 8.08758L7.02477 8.13407C7.01941 8.15121 7.01835 8.16941 7.02169 8.18705C7.02503 8.2047 7.03266 8.22125 7.04391 8.23525C7.05882 8.25471 7.08013 8.26827 7.10408 8.27354C7.12595 8.27901 7.15057 8.27627 7.17791 8.26533C7.20526 8.25439 7.23261 8.23799 7.25722 8.22158C7.27775 8.20476 7.29612 8.18547 7.31192 8.16415C7.32833 8.14228 7.33927 8.12313 7.34474 8.10946L7.30918 8.06571L7.19979 8.15321ZM7.19159 10.3163L6.94546 10.4913L6.7595 10.2288L6.78684 10.2096L6.93726 10.4202L7.01383 10.3655L6.88529 10.1823L6.91264 10.1632L7.04391 10.3436L7.1533 10.2643L7.19159 10.319V10.3163ZM6.8306 9.92524C6.84691 9.92069 6.86178 9.912 6.87376 9.90003C6.88573 9.88805 6.89442 9.87319 6.89897 9.85687C6.90991 9.82132 6.90991 9.78304 6.89897 9.73655C6.88931 9.69622 6.86732 9.6599 6.83607 9.63264C6.82261 9.6214 6.80652 9.61375 6.78931 9.6104C6.77209 9.60706 6.75431 9.60812 6.73762 9.61349C6.71612 9.61934 6.69699 9.63177 6.68292 9.64904C6.66704 9.66851 6.6575 9.69237 6.65557 9.71741C6.65284 9.74476 6.65557 9.7721 6.66378 9.80218C6.67375 9.84175 6.69459 9.87775 6.72394 9.9061C6.75129 9.93344 6.78684 9.93618 6.8306 9.92524ZM6.84701 9.98814C6.79778 10.0018 6.75403 9.99087 6.71574 9.96079C6.67745 9.92524 6.65011 9.87875 6.63096 9.81312C6.62002 9.76937 6.61455 9.73108 6.61729 9.6928C6.62002 9.65451 6.63096 9.62443 6.6501 9.59982C6.66672 9.5762 6.6908 9.55886 6.71847 9.5506C6.74738 9.54211 6.77836 9.54404 6.80599 9.55607C6.83731 9.57009 6.86391 9.59289 6.88256 9.6217C6.90486 9.65422 6.9215 9.69028 6.93179 9.72835C6.94273 9.7721 6.94819 9.81039 6.94273 9.84867C6.94063 9.88211 6.92926 9.9143 6.90991 9.94165C6.8947 9.96372 6.87257 9.98008 6.84701 9.98814ZM6.87162 9.37558L6.5708 9.37012L6.57627 9.15955C6.57627 9.1158 6.579 9.08571 6.58447 9.06384C6.59268 9.04196 6.60088 9.02282 6.61455 9.00915C6.62823 8.99821 6.64464 8.99274 6.66104 8.99274C6.68292 8.99274 6.69933 9.00368 6.71574 9.02555C6.73215 9.04743 6.73762 9.08025 6.74035 9.12673L6.75676 9.09118C6.76804 9.07128 6.78183 9.0529 6.79778 9.03649L6.87983 8.95719V9.03923L6.81419 9.09939L6.77317 9.14314C6.76223 9.15408 6.75676 9.16502 6.75129 9.17596C6.74753 9.18473 6.74478 9.19391 6.74309 9.2033V9.23885L6.74035 9.30995L6.87162 9.31542V9.37832V9.37558ZM6.7048 9.30995L6.70754 9.17322L6.7048 9.10759C6.70219 9.09327 6.69555 9.07999 6.68566 9.06931C6.67803 9.06224 6.66854 9.0575 6.65831 9.05563C6.64464 9.05563 6.63096 9.06384 6.62549 9.08298C6.61435 9.10598 6.60873 9.13126 6.60908 9.15682L6.60635 9.30722L6.7048 9.30995ZM7.54164 7.9864V7.63364L7.6018 7.59809L7.92177 7.75943L7.86161 7.79498L7.76589 7.74576L7.59633 7.84694V7.95085L7.54164 7.9864ZM7.59633 7.80865L7.73307 7.72661L7.64829 7.68013L7.58813 7.64458L7.5936 7.70747L7.59633 7.80865ZM9.04849 7.71568L9.37393 7.57895L9.42863 7.61996L9.40948 7.97546L9.34932 7.93444L9.36026 7.8278L9.19617 7.71294L9.10319 7.75396L9.04849 7.71568ZM9.23172 7.69653L9.36299 7.79224L9.3712 7.6938C9.37393 7.66645 9.37667 7.64184 9.38214 7.62543L9.32744 7.65551L9.23172 7.69653ZM10.0385 8.81772L10.3311 8.74662L10.3803 8.95172C10.3885 8.99274 10.394 9.02555 10.394 9.04743C10.394 9.06772 10.3883 9.08761 10.3776 9.10486C10.3667 9.12127 10.3557 9.1322 10.3393 9.13494C10.3174 9.14041 10.2983 9.13494 10.2791 9.1158C10.255 9.09021 10.2372 9.05929 10.2272 9.02555C10.2272 9.04196 10.2272 9.0529 10.2217 9.06384C10.2151 9.08494 10.2059 9.10515 10.1944 9.124L10.1342 9.22518L10.1151 9.14861L10.1615 9.07204L10.1916 9.01735C10.1998 9.00368 10.2026 8.99 10.2053 8.9818C10.2063 8.97271 10.2063 8.96354 10.2053 8.95445L10.1998 8.9189L10.1807 8.8478L10.0522 8.87788L10.0385 8.81772ZM10.2162 8.8396L10.2463 8.97086C10.2545 8.99821 10.26 9.02009 10.2682 9.03376C10.2764 9.05017 10.2846 9.0611 10.2955 9.06657C10.3038 9.07204 10.3147 9.07478 10.3229 9.07204C10.3366 9.06931 10.3475 9.05837 10.3502 9.04196C10.3563 9.01483 10.3554 8.9866 10.3475 8.95992L10.312 8.81499L10.2162 8.8396Z" fill="#D0D0D0"/>
</g>
<defs>
<clipPath id="clip0_17544_65095">
<path d="M0 20C0 8.95431 8.95431 0 20 0C31.0457 0 40 8.95431 40 20C40 31.0457 31.0457 40 20 40C8.95431 40 0 31.0457 0 20Z" fill="white"/>
</clipPath>
</defs>
</svg>
