<svg width="40" height="40" viewBox="0 0 40 40" fill="none" xmlns="http://www.w3.org/2000/svg">
<g clip-path="url(#clip0_17544_64882)">
<path fill-rule="evenodd" clip-rule="evenodd" d="M0 0H39.9922V40H0V0Z" fill="#3B5AA3"/>
<path fill-rule="evenodd" clip-rule="evenodd" d="M10.8594 0.09375L10.4453 6.96875L8.63281 2.58594L9.33594 7.25L6.53125 3.48437L8.36719 7.78125L4.69531 4.92969L7.55469 8.51562L3.39844 6.67188L7.03906 9.42969L2.50781 8.82812L6.79688 10.5234L0.078125 11.1406L6.79688 11.5859L2.53906 13.3359L7.03125 12.7344L3.40625 15.4062L7.60938 13.5625L4.74219 17.1719L8.39062 14.4062L6.5625 18.625L9.48438 14.9688L8.70312 19.5234L10.5312 15.2656L10.9531 21.9922L11.5938 15.2813L13.1797 19.5703L12.5781 14.9531L15.4844 18.6094L13.5703 14.3359L17.2188 17.2734L14.3281 13.6016L18.6562 15.4062L14.8203 12.6094L19.4922 13.3906L15.0156 11.6719L21.9688 11.2422L15.0156 10.5938L19.6094 9.0625L14.8672 9.65625L18.7891 6.92188L14.3672 8.69531L17.4141 5L13.7031 7.89844L15.5 3.46094L12.6094 7.23438L13.2344 2.52344L11.5156 6.96875L10.875 0.09375H10.8594Z" fill="white"/>
<path fill-rule="evenodd" clip-rule="evenodd" d="M0 38.9219L40 0V7.24219L0 40V38.9219Z" fill="#E2AE57"/>
<path fill-rule="evenodd" clip-rule="evenodd" d="M1.40625 40L40 14.9375L39.9922 6.97656L-0.0078125 40H1.40625Z" fill="white"/>
</g>
<defs>
<clipPath id="clip0_17544_64882">
<path d="M0 20C0 8.95431 8.95431 0 20 0C31.0457 0 40 8.95431 40 20C40 31.0457 31.0457 40 20 40C8.95431 40 0 31.0457 0 20Z" fill="white"/>
</clipPath>
</defs>
</svg>
