<svg width="40" height="40" viewBox="0 0 40 40" fill="none" xmlns="http://www.w3.org/2000/svg">
<g clip-path="url(#clip0_17544_64664)">
<path fill-rule="evenodd" clip-rule="evenodd" d="M0 0H13.3359V40H0V0Z" fill="#00319C"/>
<path fill-rule="evenodd" clip-rule="evenodd" d="M13.3359 0H26.6641V40H13.3359V0Z" fill="#FFDE00"/>
<path fill-rule="evenodd" clip-rule="evenodd" d="M26.6641 0H40V40H26.6641V0Z" fill="#DE2110"/>
<path fill-rule="evenodd" clip-rule="evenodd" d="M22.6298 25.1189L24.1688 27.3394C24.2558 27.4649 24.3404 27.5869 24.2127 27.6678C24.0814 27.7509 24.1228 28.0757 24.2098 28.2012C24.3813 28.4487 24.596 28.4934 24.7237 28.4126L25.891 27.6738C26.0187 27.593 26.0594 27.3867 25.8879 27.1392C25.7912 27.0148 25.5041 26.8505 25.3764 26.9313C25.2451 27.0144 25.1605 26.8924 25.076 26.7704L23.5321 24.5428" fill="#FF1900"/>
<path fill-rule="evenodd" clip-rule="evenodd" d="M23.5562 24.5276L25.1001 26.7551C25.1433 26.8175 25.1827 26.8738 25.2261 26.9056C25.2469 26.9209 25.267 26.9292 25.2873 26.9304C25.3074 26.9316 25.3313 26.9261 25.3602 26.9078C25.4 26.8826 25.4498 26.878 25.5 26.8844C25.5504 26.891 25.6044 26.909 25.6561 26.9331C25.759 26.9811 25.8591 27.0559 25.9111 27.1226L25.912 27.1239C26.0878 27.3776 26.0543 27.6042 25.9073 27.6972L24.7399 28.436C24.5929 28.5291 24.3615 28.4701 24.1857 28.2164C24.1382 28.1479 24.1053 28.0297 24.1003 27.9193C24.0978 27.8637 24.1023 27.8082 24.1167 27.7604C24.1309 27.7128 24.1558 27.67 24.1964 27.6443C24.2243 27.6267 24.2382 27.6084 24.2444 27.5907C24.2507 27.5727 24.2502 27.5519 24.2432 27.5273C24.2287 27.4765 24.1892 27.4188 24.1447 27.3547L22.6057 25.1342L22.6539 25.1036L24.1949 27.327C24.2369 27.3876 24.282 27.4526 24.2993 27.5134C24.3083 27.5451 24.3105 27.5778 24.2995 27.6093C24.2884 27.6411 24.2649 27.6684 24.2289 27.6912C24.2039 27.7071 24.1847 27.736 24.1725 27.7767C24.1604 27.817 24.1561 27.8662 24.1584 27.9178C24.1631 28.022 24.1944 28.129 24.2339 28.1859C24.4012 28.4273 24.5991 28.4577 24.7074 28.3891L25.8748 27.6503C25.983 27.5818 26.031 27.3961 25.8642 27.1551C25.8193 27.0976 25.7279 27.0284 25.6314 26.9834C25.5833 26.961 25.5355 26.9454 25.4932 26.9399C25.4506 26.9344 25.4167 26.9395 25.3927 26.9547C25.3559 26.978 25.3199 26.9884 25.2846 26.9863C25.2495 26.9842 25.2185 26.9699 25.1912 26.9499C25.1391 26.9116 25.0946 26.8473 25.0538 26.7884L23.508 24.5581L23.5562 24.5276Z" fill="black"/>
<path fill-rule="evenodd" clip-rule="evenodd" d="M23.2262 23.548C23.9135 24.3286 24.1526 25.2237 23.7609 25.5386C23.3691 25.8536 22.4871 25.4752 21.7998 24.6946C21.1125 23.9139 20.8768 23.0161 21.2685 22.7012C21.6603 22.3863 22.5394 22.7614 23.2295 23.5453L23.2262 23.548Z" fill="#A77B3B"/>
<path fill-rule="evenodd" clip-rule="evenodd" d="M21.1952 23.5077C21.2881 23.8577 21.5131 24.2686 21.8515 24.653C22.19 25.0374 22.5744 25.3203 22.9186 25.4683C23.2677 25.6184 23.5522 25.6213 23.717 25.4889C23.8818 25.3564 23.9275 25.088 23.8325 24.7336C23.7389 24.3843 23.5129 23.9739 23.1745 23.5895L23.1307 23.5397L23.1336 23.5374C22.8049 23.1766 22.4387 22.9115 22.1098 22.7703C21.7612 22.6207 21.4772 22.6184 21.3124 22.751C21.1475 22.8835 21.101 23.1527 21.1952 23.5077ZM23.3213 23.5565L23.3251 23.5535L23.2812 23.5037C22.931 23.1059 22.5308 22.8093 22.1645 22.652C21.8031 22.4969 21.4516 22.469 21.2247 22.6514C20.9978 22.8338 20.9663 23.1709 21.0638 23.5387C21.1628 23.9115 21.3992 24.3398 21.7481 24.7361C22.097 25.1324 22.4972 25.429 22.8638 25.5866C23.2254 25.7421 23.5777 25.7709 23.8047 25.5884C24.0317 25.406 24.0622 25.0694 23.9638 24.7023C23.8682 24.3459 23.6465 23.9385 23.3213 23.5565Z" fill="black"/>
<path fill-rule="evenodd" clip-rule="evenodd" d="M16.3779 24.2095L15.0192 26.5349C14.9424 26.6663 14.8678 26.7941 14.734 26.7228C14.5965 26.6494 14.3135 26.8336 14.2367 26.965C14.0852 27.2242 14.1422 27.427 14.2759 27.4983L15.4984 28.1505C15.6322 28.2219 15.8427 28.1618 15.9941 27.9026C16.0654 27.7634 16.0865 27.4443 15.9528 27.3729C15.8152 27.2996 15.8899 27.1718 15.9645 27.044L17.3275 24.7113" fill="#FF1900"/>
<path fill-rule="evenodd" clip-rule="evenodd" d="M17.3527 24.7247L15.9897 27.0575C15.9515 27.1228 15.9173 27.182 15.9076 27.2334C15.9029 27.2581 15.9044 27.2789 15.9126 27.2967C15.9207 27.3144 15.9368 27.3321 15.9672 27.3483C16.0088 27.3705 16.036 27.4107 16.053 27.4562C16.07 27.502 16.078 27.5562 16.0793 27.6111C16.0819 27.7205 16.0583 27.8399 16.02 27.9146L16.0193 27.916C15.864 28.1818 15.6379 28.2572 15.4841 28.1752L14.2615 27.5229C14.1077 27.4409 14.0562 27.2174 14.2115 26.9516C14.2535 26.8797 14.3484 26.7976 14.4487 26.7427C14.4993 26.7151 14.553 26.6934 14.604 26.6837C14.6548 26.6739 14.706 26.6755 14.7484 26.6981C14.7776 26.7137 14.801 26.7171 14.8204 26.7143C14.84 26.7113 14.8591 26.7015 14.8787 26.6843C14.9194 26.6486 14.9548 26.5886 14.994 26.5215L16.3527 24.196L16.4031 24.2229L15.0426 26.5513C15.0056 26.6147 14.9658 26.6829 14.9172 26.7255C14.8918 26.7477 14.8624 26.7646 14.828 26.7697C14.7934 26.7748 14.7573 26.7675 14.7196 26.7474C14.6933 26.7333 14.6575 26.7304 14.6142 26.7387C14.5711 26.7469 14.5234 26.7658 14.4764 26.7914C14.3817 26.8432 14.2967 26.9189 14.2619 26.9784C14.1143 27.231 14.1767 27.413 14.2903 27.4737L15.5128 28.1259C15.6264 28.1865 15.821 28.1418 15.9685 27.8899C16.0013 27.8254 16.0238 27.716 16.0213 27.6136C16.0201 27.5624 16.0127 27.5147 15.9984 27.4762C15.9839 27.4375 15.9636 27.411 15.9384 27.3976C15.8999 27.3771 15.8738 27.3513 15.8596 27.3204C15.8454 27.2896 15.8444 27.2567 15.8506 27.2244C15.8623 27.1625 15.9016 27.0952 15.9376 27.0336L17.3023 24.6978L17.3527 24.7247Z" fill="black"/>
<path fill-rule="evenodd" clip-rule="evenodd" d="M19.5293 22.5924C19.4856 22.6342 19.1355 24.8502 18.7549 25.7031C18.2911 26.74 16.8953 27.6557 16.8953 27.6557C16.8953 27.6557 17.7266 27.9065 17.9804 28.0738C18.0417 28.0571 19.3718 27.7769 19.5293 26.1505C19.6825 27.7769 18.5973 28.517 18.5973 28.517C18.5973 28.517 20.1507 28.9602 20.1507 30.0013C20.1507 28.9644 21.6996 28.517 21.6996 28.517C21.6996 28.517 20.9208 27.7769 20.7676 26.1463C21.0739 27.7769 22.2553 28.0571 22.3209 28.0696C22.5703 27.9065 23.4017 27.6515 23.4017 27.6515C23.4017 27.6515 22.0103 26.7442 21.5465 25.7031C21.1658 24.8543 20.8114 22.63 20.772 22.5924H19.5293Z" fill="#A77B3B"/>
<path fill-rule="evenodd" clip-rule="evenodd" d="M19.5028 22.5261H20.7986L20.8178 22.5444C20.8277 22.5539 20.8327 22.5646 20.834 22.5674C20.8362 22.572 20.838 22.5768 20.8393 22.5806C20.8419 22.5883 20.8446 22.5975 20.8471 22.6074C20.8524 22.6274 20.8586 22.6548 20.8658 22.6881C20.8801 22.7548 20.8988 22.8487 20.9211 22.9621C20.9263 22.9884 20.9317 23.0157 20.9372 23.044C20.9798 23.2608 21.0338 23.5354 21.0961 23.8298C21.2375 24.4981 21.42 25.2592 21.607 25.676C21.8329 26.1831 22.2878 26.6626 22.6918 27.0179C22.8929 27.1949 23.0798 27.3396 23.2163 27.4401C23.2846 27.4903 23.3402 27.5294 23.3786 27.5559C23.3978 27.5691 23.4128 27.5792 23.4228 27.586C23.4279 27.5893 23.4317 27.5919 23.4342 27.5935L23.4371 27.5954L23.5566 27.6733L23.4211 27.7149L23.4188 27.7156L23.4119 27.7177C23.4059 27.7196 23.3969 27.7224 23.3854 27.726C23.3623 27.7333 23.329 27.7438 23.2883 27.757C23.2068 27.7833 23.0957 27.8201 22.9769 27.8619C22.7358 27.9468 22.4739 28.0488 22.3572 28.1251L22.3348 28.1397L22.3085 28.1347C22.245 28.1226 21.4687 27.9357 20.9941 27.0264C21.0959 27.3936 21.226 27.6872 21.3491 27.9112C21.4541 28.102 21.5541 28.2424 21.6274 28.3346C21.6641 28.3807 21.694 28.4148 21.7146 28.437C21.7249 28.4482 21.7328 28.4564 21.738 28.4617C21.7395 28.4633 21.7409 28.4646 21.7419 28.4656C21.7427 28.4664 21.7433 28.467 21.7438 28.4675L21.7451 28.4687L21.8291 28.5486L21.718 28.5807L21.7142 28.5818C21.7115 28.5826 21.7074 28.5839 21.7019 28.5856C21.691 28.5889 21.6749 28.5941 21.6542 28.6011C21.6129 28.615 21.5535 28.6361 21.4822 28.6646C21.3394 28.7218 21.1496 28.8085 20.9602 28.9265C20.5777 29.1651 20.217 29.5189 20.217 30.0013H20.0844C20.0844 29.5168 19.7226 29.163 19.3391 28.925C19.1492 28.8072 18.9588 28.721 18.8156 28.6641C18.7441 28.6357 18.6846 28.6148 18.6431 28.601C18.6224 28.594 18.6062 28.5889 18.5953 28.5856C18.5898 28.5839 18.5857 28.5827 18.583 28.5818L18.58 28.581L18.4431 28.5419L18.5599 28.4622L18.5622 28.4607C18.5639 28.4595 18.5666 28.4575 18.5702 28.4549C18.5775 28.4495 18.5884 28.4413 18.6024 28.4302C18.6303 28.4079 18.6706 28.3739 18.7187 28.328C18.815 28.2361 18.9424 28.0967 19.0652 27.9075C19.2396 27.6389 19.4054 27.2692 19.4595 26.7914C19.0819 27.8687 18.1209 28.1071 18.0068 28.1355C18.0027 28.1365 17.9997 28.1372 17.9979 28.1377L17.9689 28.1456L17.9439 28.1291C17.8252 28.0509 17.5623 27.9489 17.3208 27.8646C17.2018 27.823 17.0905 27.7867 17.009 27.7606C16.9682 27.7476 16.9349 27.7372 16.9119 27.7301C16.9004 27.7265 16.8914 27.7238 16.8853 27.7219L16.8784 27.7198L16.8767 27.7193L16.7402 27.6781L16.8589 27.6002L16.8597 27.5997L16.8626 27.5978C16.8651 27.5961 16.869 27.5935 16.874 27.5901C16.8841 27.5833 16.8991 27.5732 16.9184 27.5598C16.957 27.5331 17.0127 27.4937 17.0812 27.4431C17.2182 27.3419 17.4056 27.1962 17.6073 27.0185C18.0124 26.6615 18.4684 26.1811 18.6943 25.676C18.8813 25.2571 19.0627 24.4971 19.2036 23.8299C19.2625 23.5509 19.3139 23.2899 19.3555 23.0788C19.3635 23.0384 19.3711 22.9998 19.3784 22.9632C19.4008 22.8499 19.4197 22.7559 19.4343 22.6889C19.4417 22.6555 19.4481 22.6279 19.4536 22.6075C19.4563 22.5975 19.4591 22.5881 19.462 22.5801C19.4634 22.5762 19.4652 22.5715 19.4675 22.5668C19.469 22.5637 19.474 22.5536 19.4835 22.5444L19.5028 22.5261ZM17.045 27.633C17.0464 27.6334 17.0478 27.6339 17.0493 27.6343C17.1316 27.6606 17.244 27.6974 17.3645 27.7394C17.5882 27.8175 17.8491 27.9169 17.9917 28.0026C18.1936 27.9505 19.3208 27.6161 19.4634 26.1441L19.5953 26.1443C19.6735 26.9743 19.4355 27.5807 19.1764 27.9797C19.047 28.1789 18.9127 28.3262 18.8103 28.4239C18.7826 28.4503 18.7573 28.4731 18.735 28.4923C18.7716 28.5052 18.8154 28.5214 18.8645 28.5409C19.0125 28.5996 19.2105 28.6892 19.409 28.8124C19.7073 28.9975 20.0183 29.2658 20.1508 29.6278C20.2832 29.2673 20.5929 28.9993 20.8901 28.814C21.088 28.6906 21.2853 28.6006 21.4329 28.5415C21.4906 28.5184 21.5408 28.5 21.5807 28.4861C21.564 28.4667 21.5448 28.4438 21.5236 28.4171C21.4461 28.3196 21.3418 28.173 21.233 27.9751C21.0151 27.579 20.7791 26.9776 20.7016 26.1525L20.8328 26.1341C21.1122 27.6215 22.1331 27.9533 22.3092 27.9988C22.4496 27.915 22.7096 27.8155 22.9328 27.7369C23.053 27.6945 23.1653 27.6574 23.2475 27.6308C23.2491 27.6303 23.2506 27.6298 23.2521 27.6293C23.2197 27.6065 23.1812 27.5789 23.1377 27.5469C22.9989 27.4447 22.8089 27.2975 22.6042 27.1175C22.1965 26.7589 21.7238 26.2641 21.4859 25.7302C21.2922 25.2982 21.1072 24.5227 20.9664 23.8573C20.9039 23.5619 20.8497 23.2863 20.8071 23.0695C20.8016 23.0412 20.7962 23.0139 20.791 22.9877C20.7687 22.8741 20.7502 22.7814 20.7361 22.716C20.7312 22.6931 20.7269 22.6739 20.7233 22.6587H19.5774C19.5735 22.6742 19.569 22.6937 19.5639 22.7172C19.5495 22.7827 19.5309 22.8754 19.5084 22.989C19.5012 23.0254 19.4936 23.0639 19.4857 23.1043C19.4441 23.3153 19.3924 23.5774 19.3333 23.8573C19.193 24.5217 19.0091 25.2961 18.8154 25.7301C18.5775 26.262 18.1037 26.7579 17.695 27.118C17.4898 27.2988 17.2992 27.4468 17.16 27.5497C17.1163 27.582 17.0776 27.6099 17.045 27.633Z" fill="black"/>
<path fill-rule="evenodd" clip-rule="evenodd" d="M15.4937 15.18L17.8215 15.92C18.2235 15.8945 18.6022 15.7304 18.8871 15.4582C19.172 15.1859 19.3438 14.8241 19.3705 14.4399C19.3967 12.7926 18.7491 12.2156 18.596 12.2156L18.9023 11.9229L18.4428 11.4713C18.4428 11.4713 18.6004 10.702 20.1493 10.7313C21.6982 10.7606 21.6982 11.4713 21.6982 12.2114C21.6982 12.9556 20.9238 12.9556 20.9238 14.4357C20.9515 14.8203 21.1241 15.1822 21.4098 15.4543C21.6954 15.7265 22.0746 15.8905 22.4771 15.9158L24.8005 15.1758V22.5931H15.4937V15.18Z" fill="#A77B3B"/>
<path fill-rule="evenodd" clip-rule="evenodd" d="M18.5181 11.4523L18.9975 11.9236L18.7168 12.1918C18.7523 12.2138 18.7912 12.2446 18.8316 12.284C18.9194 12.3697 19.0179 12.4994 19.1096 12.68C19.2931 13.0415 19.45 13.6086 19.4367 14.441L19.4367 14.4427L19.4366 14.4445C19.4087 14.8456 19.2294 15.2227 18.9329 15.5061C18.6364 15.7894 18.2429 15.9597 17.8257 15.9862L17.8133 15.987L15.56 15.2706V22.5268H24.7342V15.2665L22.4853 15.9828L22.4729 15.982C22.0552 15.9557 21.6612 15.7855 21.364 15.5023C21.0668 15.2191 20.8866 14.8419 20.8576 14.4405L20.8575 14.4381V14.4357C20.8575 13.6808 21.056 13.2977 21.2566 13.0097C21.2916 12.9595 21.3258 12.913 21.3584 12.8686C21.513 12.6586 21.6319 12.4968 21.6319 12.2114C21.6319 11.8356 21.6296 11.4965 21.4505 11.2431C21.2753 10.9953 20.9154 10.8121 20.148 10.7976C19.3845 10.7832 18.9746 10.9656 18.7569 11.1419C18.6478 11.2303 18.5851 11.3186 18.5499 11.3833C18.5347 11.4112 18.5246 11.4349 18.5181 11.4523ZM18.4428 11.4713L18.3779 11.458L18.3707 11.4934L18.807 11.9222L18.4306 12.2819H18.596C18.596 12.2819 18.5959 12.2819 18.596 12.2819C18.5963 12.2819 18.6002 12.2822 18.6082 12.285C18.6165 12.2879 18.6274 12.2929 18.6407 12.3007C18.6674 12.3164 18.701 12.3418 18.739 12.3789C18.8149 12.453 18.9053 12.5704 18.9914 12.74C19.1633 13.0786 19.3169 13.6231 19.3042 14.4371C19.2783 14.8037 19.1141 15.1495 18.8413 15.4102C18.5709 15.6687 18.2118 15.826 17.8296 15.853L15.4274 15.0893V22.6594H24.8668V15.0851L22.469 15.8489C22.0862 15.8219 21.7267 15.6647 21.4555 15.4063C21.1821 15.1458 21.0171 14.8001 20.9901 14.4333C20.9905 13.7098 21.1789 13.3533 21.3654 13.0855C21.3964 13.041 21.4281 12.9981 21.4595 12.9558C21.6167 12.7434 21.7645 12.5437 21.7645 12.2114V12.1995C21.7646 11.8388 21.7646 11.4577 21.5588 11.1665C21.3467 10.8666 20.9321 10.6798 20.1505 10.665C19.3651 10.6502 18.9218 10.8377 18.6735 11.0388C18.5497 11.1391 18.4762 11.2413 18.4334 11.3199C18.4121 11.3592 18.3985 11.3924 18.39 11.4165C18.3858 11.4285 18.3829 11.4382 18.381 11.4453C18.3801 11.4488 18.3793 11.4517 18.3788 11.4538C18.3786 11.4549 18.3784 11.4558 18.3782 11.4565L18.3779 11.458C18.3779 11.4581 18.3779 11.458 18.4428 11.4713Z" fill="black"/>
<path fill-rule="evenodd" clip-rule="evenodd" d="M19.3686 15.4595L19.5248 15.9096L19.8351 15.4638L19.9848 15.928L20.1426 15.4617L20.3722 15.933L20.6091 15.462L20.7628 15.905L20.9134 15.4739L20.9234 15.4774L20.7628 15.9374L20.6073 15.4893L20.3721 15.9569L20.1444 15.4896L19.9846 15.9619L19.8316 15.4875L19.5216 15.9328L19.3686 15.4919L19.213 15.9374L19.0534 15.4774L19.0635 15.4739L19.213 15.905L19.3686 15.4595Z" fill="black"/>
<path fill-rule="evenodd" clip-rule="evenodd" d="M19.3641 15.4756L19.6748 13.845L19.6874 13.8474L19.3768 15.478L19.3641 15.4756ZM20.6023 15.4774L20.4492 13.8468L20.462 13.8456L20.6151 15.4762L20.6023 15.4774ZM20.913 15.4774L20.7599 13.8468L20.7726 13.8456L20.9258 15.4762L20.913 15.4774ZM19.8278 15.4768V13.8462H19.8407V15.4768H19.8278ZM20.1385 15.4768V13.8462H20.1513V15.4768H20.1385Z" fill="black"/>
<path fill-rule="evenodd" clip-rule="evenodd" d="M13.9448 10.7355C12.3959 11.4755 12.3959 12.9598 12.3959 13.6999C12.4484 14.373 12.3959 28.5135 12.3959 28.5135C12.3959 28.5135 12.4965 27.6773 13.1703 27.0334L13.9404 26.2933L14.7149 25.5533C15.2837 25.0599 15.4894 24.069 15.4894 23.3289V12.9598C15.4894 12.9598 15.4894 12.2156 13.9404 10.7355H13.9448Z" fill="#A77B3B"/>
<path fill-rule="evenodd" clip-rule="evenodd" d="M13.9561 10.7191L13.9448 10.6692H13.7751L13.8278 10.7195C12.3296 11.4911 12.3296 12.9709 12.3296 13.6961V13.7024L12.3298 13.705C12.3426 13.87 12.3493 14.876 12.3517 16.2986C12.3542 17.7188 12.3525 19.5494 12.3493 21.359C12.346 23.1686 12.3411 24.9571 12.337 26.2933C12.3349 26.9614 12.3331 27.5164 12.3317 27.9043C12.3311 28.0983 12.3305 28.2505 12.3302 28.3543L12.3296 28.5131C12.3296 28.5132 12.3296 28.5132 12.3959 28.5135L12.3296 28.5131L12.4613 28.5214C12.4613 28.5214 12.4617 28.5214 12.4613 28.5214L12.4619 28.5197C12.4621 28.5184 12.4624 28.5162 12.4628 28.5134C12.4636 28.5076 12.4649 28.4988 12.4669 28.4873C12.4708 28.4643 12.4771 28.4303 12.4868 28.3874C12.5062 28.3014 12.539 28.1798 12.5924 28.0383C12.6994 27.7551 12.8884 27.3945 13.2161 27.0813L13.9864 26.3411L14.7596 25.6023C15.0563 25.3443 15.2546 24.9607 15.3789 24.5529C15.5036 24.1438 15.5557 23.7045 15.5557 23.3289V12.9598H15.4894C15.5557 12.9598 15.5557 12.9599 15.5557 12.9598L15.5557 12.9582C15.5557 12.9575 15.5556 12.9566 15.5556 12.9555C15.5555 12.9533 15.5554 12.9504 15.5552 12.9468C15.5547 12.9395 15.5538 12.9294 15.5521 12.9164C15.5487 12.8903 15.5421 12.8528 15.5293 12.8037C15.5038 12.7055 15.4535 12.5616 15.3545 12.372C15.1568 11.993 14.7646 11.4313 13.9862 10.6875L13.9561 10.7191ZM13.9294 10.8167C12.4665 11.5434 12.4622 12.9616 12.4622 13.6974C12.4754 13.8765 12.4819 14.8875 12.4843 16.2984C12.4868 17.7188 12.4851 19.5496 12.4819 21.3592C12.4786 23.1689 12.4737 24.9575 12.4696 26.2937C12.4675 26.9618 12.4657 27.5168 12.4643 27.9048C12.4642 27.9389 12.4641 27.9717 12.464 28.0032C12.4654 27.9993 12.4669 27.9954 12.4684 27.9915C12.5802 27.6956 12.7785 27.3162 13.1244 26.9856" fill="black"/>
<path fill-rule="evenodd" clip-rule="evenodd" d="M14.7198 12.8703L13.9448 13.6109L13.1703 12.8709L12.3501 13.6547L12.4417 13.7505L13.1703 13.0542L13.9448 13.7943L14.7188 13.0547C14.7382 13.0736 14.763 13.0978 14.7916 13.1257C14.8629 13.1951 14.9581 13.2877 15.0539 13.3802C15.1496 13.4728 15.2461 13.5655 15.3198 13.6352C15.3566 13.6699 15.3881 13.6992 15.411 13.72C15.4224 13.7303 15.4322 13.7389 15.4397 13.7452C15.4434 13.7483 15.4474 13.7515 15.4513 13.7543C15.4531 13.7556 15.4561 13.7577 15.4598 13.7598C15.4616 13.7608 15.4647 13.7625 15.4688 13.7641C15.4716 13.7652 15.4811 13.7689 15.4938 13.7689V13.6363C15.5062 13.6363 15.5153 13.6399 15.5176 13.6408C15.5213 13.6423 15.5239 13.6437 15.525 13.6444C15.5264 13.6451 15.5274 13.6458 15.5278 13.6461C15.5271 13.6455 15.5259 13.6445 15.5246 13.6434C15.5192 13.6388 15.5109 13.6316 15.4999 13.6216C15.4781 13.6019 15.4475 13.5734 15.4109 13.5388C15.3378 13.4697 15.2417 13.3774 15.146 13.2849C15.0504 13.1925 14.9553 13.1 14.8841 13.0307C14.8485 12.996 14.8189 12.9671 14.7982 12.9469L14.7657 12.9152C14.7657 12.9152 14.7656 12.9151 14.7193 12.9625L14.7657 12.9152L14.7198 12.8703Z" fill="black"/>
<path fill-rule="evenodd" clip-rule="evenodd" d="M14.7198 15.2703L13.9448 14.5297L13.1703 15.2698L12.3501 14.486L12.4417 14.3901L13.1703 15.0864L13.9448 14.3463L14.7188 15.0859C14.7382 15.067 14.763 15.0428 14.7916 15.0149C14.8629 14.9455 14.9581 14.853 15.0539 14.7604C15.1496 14.6678 15.2461 14.5751 15.3198 14.5055C15.3566 14.4707 15.3881 14.4414 15.411 14.4207C15.4224 14.4104 15.4322 14.4017 15.4397 14.3954C15.4434 14.3924 15.4474 14.3891 15.4513 14.3863C15.4531 14.385 15.4561 14.3829 15.4598 14.3809C15.4616 14.3798 15.4647 14.3781 15.4688 14.3765C15.4716 14.3754 15.4811 14.3717 15.4938 14.3717V14.5043C15.5062 14.5043 15.5153 14.5007 15.5176 14.4998C15.5213 14.4984 15.5239 14.4969 15.525 14.4963C15.5264 14.4955 15.5274 14.4949 15.5278 14.4946C15.5271 14.4952 15.5259 14.4962 15.5246 14.4973C15.5192 14.5018 15.5109 14.509 15.4999 14.519C15.4781 14.5387 15.4475 14.5672 15.4109 14.6018C15.3378 14.671 15.2417 14.7633 15.146 14.8557C15.0504 14.9481 14.9553 15.0406 14.8841 15.1099C14.8485 15.1446 14.8189 15.1735 14.7982 15.1937L14.7657 15.2254C14.7657 15.2255 14.7656 15.2255 14.7193 15.1781L14.7657 15.2254L14.7198 15.2703Z" fill="black"/>
<path fill-rule="evenodd" clip-rule="evenodd" d="M14.7198 15.8235L13.9448 16.564L13.1703 15.824L12.3501 16.6078L12.4417 16.7037L13.1703 16.0074L13.9448 16.7474L14.7188 16.0078C14.7382 16.0268 14.763 16.0509 14.7916 16.0788C14.8629 16.1482 14.9581 16.2408 15.0539 16.3334C15.1496 16.4259 15.2461 16.5186 15.3198 16.5883C15.3566 16.6231 15.3881 16.6524 15.411 16.6731C15.4224 16.6834 15.4322 16.6921 15.4397 16.6984C15.4434 16.7014 15.4474 16.7046 15.4513 16.7074C15.4531 16.7087 15.4561 16.7108 15.4598 16.7129C15.4616 16.7139 15.4647 16.7156 15.4688 16.7172C15.4716 16.7184 15.4811 16.722 15.4938 16.722V16.5894C15.5062 16.5894 15.5153 16.593 15.5176 16.594C15.5213 16.5954 15.5239 16.5968 15.525 16.5975C15.5264 16.5983 15.5274 16.5989 15.5278 16.5992C15.5271 16.5986 15.5259 16.5976 15.5246 16.5965C15.5192 16.5919 15.5109 16.5847 15.4999 16.5748C15.4781 16.555 15.4475 16.5265 15.4109 16.4919C15.3378 16.4228 15.2417 16.3305 15.146 16.238C15.0504 16.1456 14.9553 16.0532 14.8841 15.9838C14.8485 15.9491 14.8189 15.9203 14.7982 15.9L14.7657 15.8683C14.7657 15.8683 14.7656 15.8683 14.7193 15.9157L14.7657 15.8683L14.7198 15.8235Z" fill="black"/>
<path fill-rule="evenodd" clip-rule="evenodd" d="M14.8106 25.5581L14.8019 12.9622L14.6192 12.9623L14.628 25.5582L14.8106 25.5581Z" fill="black"/>
<path fill-rule="evenodd" clip-rule="evenodd" d="M14.0402 26.2712L14.0314 13.706L13.8584 13.7061L13.8672 26.2714L14.0402 26.2712Z" fill="black"/>
<path fill-rule="evenodd" clip-rule="evenodd" d="M13.2718 27.0381L13.263 12.9622L13.0799 12.9624L13.0887 27.0382L13.2718 27.0381Z" fill="black"/>
<path fill-rule="evenodd" clip-rule="evenodd" d="M26.3521 10.7355C27.901 11.4755 27.901 12.9598 27.901 13.6999C27.8485 14.373 27.901 28.5135 27.901 28.5135C27.901 28.5135 27.8004 27.6773 27.1265 27.0334L26.3564 26.2933L25.582 25.5533C25.0131 25.0599 24.8075 24.069 24.8075 23.3289V12.9598C24.8075 12.9598 24.8075 12.2156 26.3564 10.7355H26.3521Z" fill="#A77B3B"/>
<path fill-rule="evenodd" clip-rule="evenodd" d="M26.3408 10.7191L26.3521 10.6692H26.5218L26.4691 10.7195C27.9673 11.4911 27.9673 12.9709 27.9673 13.6961V13.7024L27.9671 13.705C27.9542 13.87 27.9476 14.876 27.9451 16.2986C27.9427 17.7188 27.9443 19.5494 27.9476 21.359C27.9509 23.1686 27.9558 24.9571 27.9599 26.2933C27.962 26.9614 27.9638 27.5164 27.9651 27.9043C27.9658 28.0983 27.9663 28.2505 27.9667 28.3543L27.9673 28.5131C27.9673 28.5132 27.9673 28.5132 27.901 28.5135L27.9673 28.5131L27.8356 28.5214C27.8356 28.5214 27.8352 28.5214 27.8356 28.5214L27.835 28.5197C27.8348 28.5184 27.8345 28.5162 27.8341 28.5134C27.8333 28.5076 27.8319 28.4988 27.83 28.4873C27.8261 28.4643 27.8198 28.4303 27.8101 28.3874C27.7907 28.3014 27.7579 28.1798 27.7044 28.0383C27.5975 27.7551 27.4085 27.3945 27.0807 27.0813L26.3105 26.3411L25.5373 25.6023C25.2406 25.3443 25.0423 24.9607 24.918 24.5529C24.7933 24.1438 24.7412 23.7045 24.7412 23.3289V12.9598L24.8075 12.9598C24.7412 12.9598 24.7412 12.9599 24.7412 12.9598L24.7412 12.9582C24.7412 12.9575 24.7412 12.9566 24.7413 12.9555C24.7413 12.9533 24.7415 12.9504 24.7417 12.9468C24.7422 12.9395 24.7431 12.9294 24.7448 12.9164C24.7482 12.8903 24.7548 12.8528 24.7675 12.8037C24.7931 12.7055 24.8434 12.5616 24.9423 12.372C25.1401 11.993 25.5323 11.4313 26.3106 10.6875L26.3408 10.7191ZM26.3675 10.8167C27.8304 11.5434 27.8347 12.9616 27.8347 13.6974C27.8215 13.8765 27.815 14.8875 27.8126 16.2984C27.8101 17.7188 27.8117 19.5496 27.815 21.3592C27.8183 23.1689 27.8232 24.9575 27.8273 26.2937C27.8294 26.9618 27.8312 27.5168 27.8326 27.9048C27.8327 27.9389 27.8328 27.9717 27.8329 28.0032C27.8314 27.9993 27.83 27.9954 27.8285 27.9915C27.7167 27.6956 27.5184 27.3162 27.1725 26.9856" fill="black"/>
<path fill-rule="evenodd" clip-rule="evenodd" d="M25.5771 12.8703L26.3521 13.6109L27.1265 12.8709L27.9468 13.6547L27.8552 13.7505L27.1265 13.0542L26.3521 13.7943L25.5781 13.0547C25.5587 13.0736 25.5339 13.0978 25.5053 13.1257C25.434 13.1951 25.3388 13.2877 25.243 13.3802C25.1472 13.4728 25.0507 13.5655 24.977 13.6352C24.9402 13.6699 24.9088 13.6992 24.8859 13.72C24.8745 13.7303 24.8647 13.7389 24.8571 13.7452C24.8535 13.7483 24.8495 13.7515 24.8456 13.7543C24.8438 13.7556 24.8408 13.7577 24.8371 13.7598C24.8353 13.7608 24.8321 13.7625 24.8281 13.7641C24.8252 13.7652 24.8158 13.7689 24.8031 13.7689V13.6363C24.7907 13.6363 24.7816 13.6399 24.7792 13.6408C24.7756 13.6423 24.773 13.6437 24.7718 13.6444C24.7705 13.6451 24.7695 13.6458 24.769 13.6461C24.7698 13.6455 24.7709 13.6445 24.7723 13.6434C24.7777 13.6388 24.7859 13.6316 24.7969 13.6216C24.8188 13.6019 24.8494 13.5734 24.886 13.5388C24.9591 13.4697 25.0552 13.3774 25.1508 13.2849C25.2465 13.1925 25.3416 13.1 25.4128 13.0307C25.4484 12.996 25.478 12.9671 25.4987 12.9469L25.5312 12.9152C25.5312 12.9152 25.5312 12.9151 25.5776 12.9625L25.5312 12.9152L25.5771 12.8703Z" fill="black"/>
<path fill-rule="evenodd" clip-rule="evenodd" d="M25.5771 15.2703L26.3521 14.5297L27.1265 15.2698L27.9468 14.486L27.8552 14.3901L27.1265 15.0864L26.3521 14.3463L25.5781 15.0859C25.5587 15.067 25.5339 15.0428 25.5053 15.0149C25.434 14.9455 25.3388 14.853 25.243 14.7604C25.1472 14.6678 25.0507 14.5751 24.977 14.5055C24.9402 14.4707 24.9088 14.4414 24.8859 14.4207C24.8745 14.4104 24.8647 14.4017 24.8571 14.3954C24.8535 14.3924 24.8495 14.3891 24.8456 14.3863C24.8438 14.385 24.8408 14.3829 24.8371 14.3809C24.8353 14.3798 24.8321 14.3781 24.8281 14.3765C24.8252 14.3754 24.8158 14.3717 24.8031 14.3717V14.5043C24.7907 14.5043 24.7816 14.5007 24.7792 14.4998C24.7756 14.4984 24.773 14.4969 24.7718 14.4963C24.7705 14.4955 24.7695 14.4949 24.769 14.4946C24.7698 14.4952 24.7709 14.4962 24.7723 14.4973C24.7777 14.5018 24.7859 14.509 24.7969 14.519C24.8188 14.5387 24.8494 14.5672 24.886 14.6018C24.9591 14.671 25.0552 14.7633 25.1508 14.8557C25.2465 14.9481 25.3416 15.0406 25.4128 15.1099C25.4484 15.1446 25.478 15.1735 25.4987 15.1937L25.5312 15.2254C25.5312 15.2255 25.5312 15.2255 25.5776 15.1781L25.5312 15.2254L25.5771 15.2703Z" fill="black"/>
<path fill-rule="evenodd" clip-rule="evenodd" d="M25.5771 15.8235L26.3521 16.564L27.1265 15.824L27.9468 16.6078L27.8552 16.7037L27.1265 16.0074L26.3521 16.7474L25.5781 16.0078C25.5587 16.0268 25.5339 16.0509 25.5053 16.0788C25.434 16.1482 25.3388 16.2408 25.243 16.3334C25.1472 16.4259 25.0507 16.5186 24.977 16.5883C24.9402 16.6231 24.9088 16.6524 24.8859 16.6731C24.8745 16.6834 24.8647 16.6921 24.8571 16.6984C24.8535 16.7014 24.8495 16.7046 24.8456 16.7074C24.8438 16.7087 24.8408 16.7108 24.8371 16.7129C24.8353 16.7139 24.8321 16.7156 24.8281 16.7172C24.8252 16.7184 24.8158 16.722 24.8031 16.722V16.5894C24.7907 16.5894 24.7816 16.593 24.7792 16.594C24.7756 16.5954 24.773 16.5968 24.7718 16.5975C24.7705 16.5983 24.7695 16.5989 24.769 16.5992C24.7698 16.5986 24.7709 16.5976 24.7723 16.5965C24.7777 16.5919 24.7859 16.5847 24.7969 16.5748C24.8188 16.555 24.8494 16.5265 24.886 16.4919C24.9591 16.4228 25.0552 16.3305 25.1508 16.238C25.2465 16.1456 25.3416 16.0532 25.4128 15.9838C25.4484 15.9491 25.478 15.9203 25.4987 15.9L25.5312 15.8683C25.5312 15.8683 25.5312 15.8683 25.5776 15.9157L25.5312 15.8683L25.5771 15.8235Z" fill="black"/>
<path fill-rule="evenodd" clip-rule="evenodd" d="M25.4863 25.5581L25.495 12.9622L25.6777 12.9623L25.6689 25.5582L25.4863 25.5581Z" fill="black"/>
<path fill-rule="evenodd" clip-rule="evenodd" d="M26.2567 26.2712L26.2655 13.706L26.4385 13.7061L26.4297 26.2714L26.2567 26.2712Z" fill="black"/>
<path fill-rule="evenodd" clip-rule="evenodd" d="M27.0251 27.0381L27.0338 12.9622L27.217 12.9624L27.2082 27.0382L27.0251 27.0381Z" fill="black"/>
<path fill-rule="evenodd" clip-rule="evenodd" d="M18.111 24.0042C17.7004 24.9459 16.9777 25.5596 16.5052 25.3714C16.0326 25.1833 15.9798 24.2609 16.3904 23.3192C16.801 22.3775 17.5277 21.7654 18.0002 21.9536C18.4728 22.1417 18.5273 23.0603 18.115 24.0058L18.111 24.0042Z" fill="#A77B3B"/>
<path fill-rule="evenodd" clip-rule="evenodd" d="M17.2153 22.2618C16.9327 22.501 16.654 22.8803 16.452 23.3437C16.2499 23.8071 16.1633 24.263 16.1835 24.6228C16.2041 24.9873 16.3317 25.231 16.5317 25.3106C16.7317 25.3903 17.0026 25.3052 17.2879 25.0625C17.5696 24.8229 17.8473 24.4431 18.0494 23.9797L18.0759 23.9189L18.0794 23.9203C18.2637 23.4762 18.3421 23.0444 18.3225 22.7008C18.3018 22.3369 18.1739 22.094 17.9737 22.0143C17.7736 21.9347 17.5017 22.0195 17.2153 22.2618ZM18.1456 24.0893L18.1501 24.0911L18.1766 24.0304C18.386 23.5502 18.4783 23.074 18.4564 22.6905C18.4348 22.3117 18.2992 22.0012 18.0267 21.8928C17.7543 21.7843 17.4267 21.9115 17.1288 22.1635C16.8273 22.4187 16.5374 22.8163 16.3288 23.2946C16.1202 23.7729 16.028 24.2491 16.0496 24.633C16.071 25.0121 16.2061 25.3237 16.4787 25.4322C16.7512 25.5407 17.0779 25.413 17.3747 25.1605C17.6624 24.9158 17.9395 24.5406 18.1456 24.0893Z" fill="black"/>
<path fill-rule="evenodd" clip-rule="evenodd" d="M15.5 15.9219H24.7969V20.3672H15.5V15.9219Z" fill="#FF0000"/>
<path fill-rule="evenodd" clip-rule="evenodd" d="M15.5 20.3672H24.7969V22.5781C24.7969 24.0625 22.4766 24.0625 20.1484 25.5469C17.8203 24.0625 15.5 24.0625 15.5 22.5781V20.3672Z" fill="#564DFF"/>
<path fill-rule="evenodd" clip-rule="evenodd" d="M15.4403 15.8666H24.8496V22.5931C24.8496 22.98 24.6966 23.2713 24.4327 23.5115C24.1713 23.7494 23.8008 23.9374 23.3644 24.1229C23.157 24.211 22.9342 24.2989 22.6994 24.3914C21.9411 24.6904 21.0587 25.0382 20.1737 25.6025L20.1449 25.6209L20.1161 25.6025C19.233 25.0383 18.3512 24.6905 17.5928 24.3914C17.3579 24.2987 17.1347 24.2107 16.9271 24.1224C16.4904 23.9366 16.1194 23.7482 15.8577 23.5097C15.5935 23.2689 15.4403 22.9768 15.4403 22.5889V15.8666ZM15.5472 15.9735V22.5889C15.5472 22.9431 15.6849 23.2076 15.9297 23.4307C16.1771 23.656 16.5333 23.8387 16.969 24.024C17.1725 24.1106 17.3929 24.1974 17.626 24.2894C18.3775 24.5858 19.2617 24.9345 20.1449 25.4941C21.03 24.9344 21.9148 24.5856 22.6663 24.2894C22.8992 24.1976 23.1192 24.1109 23.3225 24.0245C23.7579 23.8394 24.1137 23.6572 24.3607 23.4324C24.6052 23.2099 24.7427 22.9462 24.7427 22.5931V15.9735H15.5472Z" fill="#FFFF00"/>
<path fill-rule="evenodd" clip-rule="evenodd" d="M18.4433 16.2222C18.4433 16.2222 16.8935 17.3118 16.8935 18.3543C16.8935 19.3968 18.5199 19.7463 18.5199 19.7463C18.5199 19.7463 17.9778 19.7463 17.9778 21.1363C17.9778 21.8332 19.6042 21.4857 19.6042 21.8332C19.6042 22.1807 19.5827 23.021 19.6042 23.5727C19.6042 23.9202 18.5199 23.5727 18.5199 23.9202C18.5199 24.093 19.3346 24.9627 20.1493 24.9627C20.9641 24.9627 21.7757 24.093 21.7757 23.9202C21.7757 23.5727 20.6915 23.9202 20.6915 23.5727V21.8332C20.6915 21.4857 22.3179 21.8332 22.3179 21.1363C22.3179 19.7463 21.7757 19.7463 21.7757 19.7463C21.7757 19.7463 23.4052 19.3988 23.4052 18.3543C23.4052 17.3098 21.8523 16.2222 21.8523 16.2222C21.8523 16.2222 22.7252 17.6593 22.7252 18.3543C22.7252 18.7018 22.3179 19.3988 21.2336 19.3988C21.2336 19.3988 20.958 19.0493 20.6915 19.3988C20.6915 19.3988 20.3791 19.0493 20.1493 19.3988C20.0697 19.5166 19.9288 19.0493 19.6042 19.3988C19.4694 19.491 19.3591 19.0493 19.062 19.3988C18.5199 19.3988 17.4356 19.0493 17.4356 18.3543C17.4356 17.6593 18.4433 16.2222 18.4433 16.2222Z" fill="#FFFF00"/>
<path fill-rule="evenodd" clip-rule="evenodd" d="M21.8209 16.2413L21.8734 16.192L21.8523 16.2222L21.8209 16.2413ZM21.9086 19.7505C21.9463 19.74 21.9912 19.7268 22.0416 19.7107C22.1957 19.6614 22.4016 19.5845 22.6078 19.4744C23.0177 19.2556 23.442 18.8982 23.442 18.3543C23.442 18.0843 23.3417 17.8139 23.1943 17.5619C23.0468 17.3097 22.8505 17.0735 22.6552 16.871C22.4598 16.6684 22.2645 16.4988 22.1181 16.3799C22.0449 16.3204 21.9839 16.2735 21.9411 16.2415C21.9197 16.2255 21.9028 16.2132 21.8913 16.2048C21.8855 16.2007 21.8811 16.1975 21.8781 16.1954L21.8747 16.1929L21.8734 16.192C21.8734 16.192 21.8734 16.192 21.8523 16.2222C21.8209 16.2413 21.8209 16.2413 21.8209 16.2413L21.8215 16.2423L21.8233 16.2453C21.8249 16.248 21.8274 16.2521 21.8305 16.2574C21.8369 16.268 21.8462 16.2837 21.8581 16.3039C21.8819 16.3444 21.9159 16.403 21.9566 16.4756C22.0382 16.6208 22.147 16.8215 22.2557 17.0438C22.3645 17.2661 22.473 17.5095 22.5541 17.7402C22.6356 17.9716 22.6885 18.1869 22.6885 18.3543C22.6885 18.6768 22.3047 19.3548 21.2505 19.3619C21.2498 19.3612 21.2492 19.3605 21.2485 19.3597C21.2398 19.3501 21.2271 19.337 21.2111 19.3224C21.1794 19.2935 21.1331 19.2579 21.0769 19.2339C21.0204 19.2097 20.9525 19.1968 20.8794 19.2157C20.8153 19.2323 20.7508 19.2724 20.6886 19.3441C20.6811 19.3372 20.6724 19.3295 20.6626 19.3213C20.6281 19.2927 20.5786 19.2574 20.5205 19.2337C20.4623 19.2099 20.3932 19.1967 20.3215 19.2158C20.2493 19.235 20.1799 19.2854 20.1188 19.3783C20.118 19.3795 20.1173 19.3804 20.1168 19.381C20.116 19.3807 20.1149 19.3802 20.1135 19.3795C20.1095 19.3776 20.1045 19.3745 20.0981 19.3697C20.0873 19.3618 20.0757 19.3517 20.0617 19.3394C20.0584 19.3366 20.0551 19.3336 20.0516 19.3306C20.0335 19.315 20.0126 19.2974 19.9893 19.2815C19.9426 19.2496 19.8831 19.2227 19.8107 19.2314C19.7397 19.2399 19.6637 19.2817 19.5804 19.3703C19.5725 19.375 19.5662 19.3756 19.56 19.3746C19.5514 19.3732 19.5402 19.3684 19.525 19.3581C19.5104 19.3482 19.4951 19.3354 19.4771 19.3204L19.4753 19.3189C19.4571 19.3038 19.4367 19.2868 19.4146 19.2719C19.3701 19.2417 19.3145 19.2166 19.247 19.228C19.1838 19.2387 19.1178 19.2801 19.0453 19.3619C18.7803 19.3584 18.3892 19.2725 18.0623 19.1044C17.727 18.932 17.4724 18.6804 17.4724 18.3543C17.4724 18.1879 17.5331 17.9732 17.6272 17.7418C17.7208 17.5113 17.846 17.268 17.9715 17.0457C18.097 16.8235 18.2225 16.6228 18.3167 16.4776C18.3638 16.405 18.403 16.3464 18.4305 16.3059C18.4442 16.2857 18.455 16.27 18.4623 16.2594C18.4659 16.2541 18.4687 16.25 18.4706 16.2473L18.4727 16.2443L18.4734 16.2433C18.4734 16.2433 18.4734 16.2433 18.4433 16.2222L18.4734 16.2433L18.4222 16.1921L18.4433 16.2222C18.4222 16.1921 18.4222 16.1921 18.4222 16.1921L18.4209 16.193L18.4175 16.1954C18.4145 16.1975 18.4101 16.2007 18.4043 16.2049C18.3928 16.2132 18.376 16.2256 18.3546 16.2416C18.3119 16.2737 18.251 16.3206 18.1779 16.3802C18.0318 16.4993 17.8369 16.6691 17.6419 16.8718C17.447 17.0744 17.2512 17.3107 17.1039 17.5628C16.9568 17.8147 16.8567 18.0848 16.8567 18.3543C16.8567 18.8972 17.2802 19.2546 17.6893 19.4737C17.8952 19.5838 18.1007 19.6609 18.2545 19.7104C18.3048 19.7266 18.3497 19.7398 18.3873 19.7504C18.3369 19.7776 18.278 19.8228 18.2198 19.8974C18.0771 20.0804 17.941 20.4375 17.941 21.1363C17.941 21.2312 17.9689 21.3099 18.0185 21.3745C18.0676 21.4385 18.1367 21.4867 18.2164 21.5237C18.3749 21.5974 18.5837 21.6305 18.787 21.6524C18.8589 21.6601 18.9298 21.6664 18.9981 21.6725C19.1262 21.6838 19.2451 21.6944 19.3436 21.712C19.4189 21.7254 19.4773 21.7422 19.5162 21.7641C19.5539 21.7855 19.5674 21.8078 19.5674 21.8332C19.5674 21.93 19.5657 22.0657 19.5637 22.2231C19.5587 22.6277 19.5519 23.1756 19.5674 23.5734C19.5672 23.6052 19.5554 23.6273 19.5342 23.6448C19.5111 23.6638 19.4754 23.6784 19.4271 23.6888C19.33 23.7095 19.199 23.7097 19.062 23.7097H19.0589C18.9257 23.7097 18.7871 23.7097 18.6816 23.7322C18.6284 23.7436 18.5793 23.7615 18.5431 23.7914C18.5052 23.8226 18.4831 23.8655 18.4831 23.9202C18.4831 23.9375 18.488 23.9559 18.495 23.9737C18.5021 23.992 18.5122 24.0121 18.5248 24.0333C18.5501 24.0759 18.5864 24.1258 18.6318 24.1797C18.7227 24.2876 18.8518 24.4143 19.0064 24.5352C19.3146 24.7763 19.73 24.9995 20.1493 24.9995C20.5687 24.9995 20.9834 24.7763 21.2908 24.5352C21.445 24.4142 21.5738 24.2876 21.6644 24.1796C21.7096 24.1257 21.7458 24.0759 21.771 24.0333C21.7835 24.012 21.7936 23.992 21.8007 23.9737C21.8076 23.9558 21.8125 23.9375 21.8125 23.9202C21.8125 23.8655 21.7905 23.8226 21.7525 23.7914C21.7163 23.7615 21.6673 23.7436 21.614 23.7322C21.5086 23.7097 21.3699 23.7097 21.2368 23.7097H21.2336C21.0967 23.7097 20.9656 23.7095 20.8686 23.6888C20.8202 23.6784 20.7845 23.6638 20.7615 23.6448C20.7401 23.6272 20.7283 23.6049 20.7283 23.5727V21.8332C20.7283 21.8078 20.7417 21.7855 20.7795 21.7641C20.8183 21.7422 20.8768 21.7254 20.9521 21.712C21.0505 21.6944 21.1694 21.6838 21.2975 21.6725C21.3658 21.6664 21.4368 21.6601 21.5086 21.6524C21.712 21.6305 21.9207 21.5974 22.0793 21.5237C22.159 21.4867 22.228 21.4385 22.2772 21.3745C22.3268 21.3099 22.3547 21.2312 22.3547 21.1363C22.3547 20.4375 22.2186 20.0804 22.0758 19.8974C22.0177 19.823 21.9589 19.7778 21.9086 19.7505ZM21.7681 19.7103L21.7724 19.7093C21.7754 19.7087 21.7798 19.7077 21.7856 19.7063C21.7973 19.7036 21.8145 19.6994 21.8365 19.6937C21.8805 19.6823 21.9435 19.6648 22.0191 19.6406C22.1705 19.5922 22.372 19.5169 22.5732 19.4095C22.978 19.1934 23.3684 18.8549 23.3684 18.3543C23.3684 18.1021 23.2746 17.8448 23.1308 17.5991C22.9872 17.3536 22.7952 17.1221 22.6023 16.9221C22.4095 16.7222 22.2166 16.5546 22.0718 16.437C22.0368 16.4086 22.0048 16.3832 21.9761 16.3609C21.9899 16.3848 22.0048 16.4111 22.0208 16.4396C22.1028 16.5856 22.2123 16.7876 22.3218 17.0115C22.4313 17.2352 22.5411 17.4814 22.6235 17.7157C22.7058 17.9493 22.762 18.1742 22.762 18.3543C22.762 18.7251 22.3351 19.4356 21.2336 19.4356H21.2158L21.2048 19.4216C21.2045 19.4213 21.2037 19.4202 21.2032 19.4197C21.2029 19.4193 21.2026 19.419 21.2023 19.4186C21.2005 19.4165 21.1977 19.4132 21.194 19.4092C21.1866 19.401 21.1756 19.3896 21.1616 19.3768C21.1334 19.3511 21.094 19.3212 21.048 19.3015C21.0023 19.282 20.9513 19.2731 20.8978 19.2869C20.8444 19.3008 20.7837 19.3385 20.7207 19.4211L20.6937 19.4565L20.6641 19.4233C20.6636 19.4228 20.6623 19.4213 20.6612 19.4202C20.6591 19.418 20.656 19.4147 20.6518 19.4106C20.6434 19.4024 20.6311 19.3908 20.6156 19.3779C20.5843 19.352 20.5413 19.3217 20.4926 19.3018C20.444 19.2819 20.3919 19.2732 20.3404 19.2869C20.2895 19.3004 20.2337 19.3373 20.1801 19.419C20.165 19.4413 20.1425 19.4569 20.1139 19.455C20.0905 19.4534 20.0698 19.4403 20.0544 19.4289C20.041 19.419 20.0265 19.4064 20.0124 19.394C20.0093 19.3914 20.0063 19.3888 20.0034 19.3862C19.9857 19.3709 19.9675 19.3556 19.9479 19.3423C19.9089 19.3157 19.8673 19.2987 19.8195 19.3044C19.7712 19.3102 19.7089 19.34 19.6311 19.4238L19.6283 19.4268L19.6249 19.4291C19.6006 19.4458 19.5747 19.4513 19.5487 19.4473C19.5243 19.4435 19.5025 19.4317 19.4837 19.419C19.466 19.407 19.4481 19.392 19.4312 19.3779L19.4282 19.3754C19.4098 19.3601 19.392 19.3454 19.3733 19.3328C19.3363 19.3077 19.3002 19.2937 19.2593 19.3006C19.2172 19.3077 19.1617 19.3383 19.09 19.4226L19.079 19.4356H19.062C18.785 19.4356 18.3726 19.3467 18.0287 19.1699C17.6864 18.9938 17.3988 18.7232 17.3988 18.3543C17.3988 18.1732 17.4641 17.9477 17.559 17.7141C17.6543 17.4796 17.7811 17.2333 17.9074 17.0095C18.0339 16.7856 18.1603 16.5836 18.255 16.4376C18.267 16.4192 18.2784 16.4016 18.2893 16.3851C18.269 16.4011 18.2473 16.4186 18.2244 16.4372C18.0799 16.555 17.8873 16.7228 17.6949 16.9228C17.5024 17.1229 17.3107 17.3545 17.1674 17.5999C17.024 17.8455 16.9303 18.1026 16.9303 18.3543C16.9303 18.8539 17.32 19.1925 17.7241 19.4088C17.9248 19.5163 18.1259 19.5917 18.277 19.6404C18.3525 19.6646 18.4154 19.6822 18.4593 19.6936C18.4812 19.6993 18.4984 19.7035 18.5101 19.7063C18.5159 19.7077 18.5203 19.7087 18.5233 19.7093L18.5266 19.7101L18.5199 19.7825C18.5199 19.7825 18.52 19.783 18.5199 19.7825C18.5194 19.7825 18.5184 19.7831 18.5169 19.7833C18.5141 19.7835 18.5094 19.784 18.5032 19.7852C18.4908 19.7874 18.4723 19.7921 18.4496 19.8018C18.4045 19.8211 18.3418 19.8607 18.2778 19.9426C18.1495 20.1071 18.0145 20.445 18.0145 21.1363C18.0145 21.2156 18.0375 21.2785 18.0768 21.3297C18.1166 21.3814 18.1746 21.4232 18.2474 21.457C18.3938 21.525 18.5917 21.5574 18.7949 21.5792C18.8631 21.5866 18.9323 21.5927 18.9998 21.5987C19.1303 21.6103 19.255 21.6214 19.3565 21.6395C19.4337 21.6533 19.5023 21.6718 19.5524 21.7001C19.6035 21.729 19.6409 21.7718 19.6409 21.8332C19.6409 21.9315 19.6392 22.0685 19.6373 22.2269C19.6323 22.6314 19.6255 23.1754 19.6409 23.5713L19.6409 23.5727C19.6409 23.6274 19.6189 23.6703 19.581 23.7015C19.5447 23.7314 19.4957 23.7493 19.4424 23.7607C19.337 23.7832 19.1983 23.7832 19.0652 23.7832H19.062C18.9251 23.7832 18.794 23.7834 18.697 23.8041C18.6486 23.8145 18.6129 23.8291 18.5899 23.8481C18.5685 23.8658 18.5567 23.888 18.5567 23.9202C18.5567 23.9245 18.5581 23.9332 18.5635 23.9471C18.5687 23.9605 18.5769 23.9768 18.5881 23.9959C18.6107 24.0339 18.6443 24.0804 18.6881 24.1323C18.7754 24.236 18.9008 24.3592 19.0518 24.4773C19.3546 24.7142 19.754 24.9259 20.1493 24.9259C20.5447 24.9259 20.9433 24.7142 21.2454 24.4773C21.3959 24.3592 21.5209 24.2361 21.608 24.1323C21.6516 24.0804 21.6852 24.034 21.7076 23.9959C21.7188 23.9769 21.7269 23.9605 21.7321 23.9471C21.7375 23.9332 21.739 23.9245 21.739 23.9202C21.739 23.888 21.7271 23.8658 21.7058 23.8481C21.6827 23.8291 21.647 23.8145 21.5986 23.8041C21.5016 23.7834 21.3706 23.7832 21.2336 23.7832H21.2305C21.0973 23.7832 20.9587 23.7832 20.8532 23.7607C20.7999 23.7493 20.7509 23.7314 20.7147 23.7015C20.6768 23.6703 20.6547 23.6274 20.6547 23.5727V21.8332C20.6547 21.7718 20.6921 21.729 20.7433 21.7001C20.7934 21.6718 20.8619 21.6533 20.9391 21.6395C21.0406 21.6214 21.1653 21.6103 21.2958 21.5987C21.3634 21.5927 21.4325 21.5866 21.5007 21.5792C21.704 21.5574 21.9018 21.525 22.0482 21.457C22.121 21.4232 22.1791 21.3814 22.2188 21.3297C22.2582 21.2785 22.2811 21.2156 22.2811 21.1363C22.2811 20.445 22.1461 20.1071 22.0178 19.9426C21.9539 19.8607 21.8911 19.8211 21.846 19.8018C21.8233 19.7921 21.8048 19.7874 21.7924 19.7852C21.7862 19.784 21.7816 19.7835 21.7787 19.7833C21.7777 19.7832 21.7769 19.7831 21.7764 19.7831L21.7681 19.7103Z" fill="black"/>
<path fill-rule="evenodd" clip-rule="evenodd" d="M18.4717 22.4471C18.3614 22.5177 18.6126 23.6506 18.6861 23.6996C18.7963 23.7683 19.4487 23.7683 19.5559 23.6996C19.6325 23.6506 19.5559 22.5865 19.4487 22.5177C19.3385 22.4471 18.5483 22.3999 18.4686 22.4471H18.4717Z" fill="#FFFF00"/>
<path fill-rule="evenodd" clip-rule="evenodd" d="M19.387 22.4568C19.4196 22.4648 19.4492 22.4744 19.4686 22.4868C19.483 22.496 19.4932 22.5105 19.5006 22.5239C19.5085 22.5381 19.5156 22.5553 19.5221 22.5744C19.5351 22.6125 19.5469 22.6618 19.5576 22.7176C19.579 22.8295 19.5964 22.9719 19.6079 23.1131C19.6195 23.2542 19.6253 23.3953 19.6234 23.5046C19.6224 23.5591 19.6195 23.6067 19.6141 23.643C19.6114 23.661 19.608 23.6774 19.6033 23.691C19.5994 23.7024 19.5919 23.7203 19.5758 23.7306C19.5568 23.7428 19.5296 23.7514 19.5005 23.758C19.4703 23.7649 19.4341 23.7705 19.3943 23.7748C19.3147 23.7836 19.2183 23.788 19.1222 23.788C19.0261 23.788 18.9294 23.7836 18.8494 23.7749C18.8095 23.7705 18.773 23.7649 18.7426 23.7581C18.7132 23.7514 18.6859 23.7429 18.6666 23.7309L18.6657 23.7302C18.6582 23.7252 18.6528 23.7188 18.649 23.7137C18.645 23.7082 18.6413 23.702 18.6379 23.6955C18.631 23.6826 18.624 23.6663 18.6169 23.6478C18.6026 23.6105 18.5869 23.5607 18.5707 23.5031C18.5382 23.3878 18.5031 23.2384 18.4739 23.0885C18.4446 22.9388 18.421 22.7875 18.4117 22.6686C18.407 22.6093 18.4058 22.5567 18.4096 22.5157C18.4106 22.5046 18.4121 22.4939 18.4141 22.4838H18.3342L18.4499 22.4154C18.46 22.4094 18.4725 22.4058 18.4837 22.4034C18.4957 22.4008 18.5098 22.3987 18.5252 22.3971C18.5563 22.3938 18.5953 22.3921 18.6394 22.3915C18.7276 22.3904 18.8383 22.3941 18.9496 22.4015C19.0609 22.4089 19.1736 22.4201 19.2657 22.4339C19.3118 22.4408 19.3532 22.4484 19.387 22.4568ZM18.4931 22.4771C18.4925 22.4779 18.4913 22.48 18.4899 22.4842C18.487 22.4925 18.4845 22.5051 18.4828 22.5226C18.4796 22.5573 18.4805 22.6051 18.485 22.6628C18.494 22.7777 18.5171 22.926 18.5461 23.0744C18.575 23.2227 18.6096 23.3701 18.6415 23.4832C18.6574 23.5398 18.6725 23.5872 18.6856 23.6215C18.6922 23.6387 18.698 23.6519 18.7028 23.661C18.7051 23.6654 18.707 23.6682 18.7082 23.6699C18.7173 23.6748 18.7337 23.6806 18.7588 23.6863C18.7856 23.6923 18.8191 23.6975 18.8575 23.7017C18.9341 23.7101 19.028 23.7144 19.1222 23.7144C19.2164 23.7144 19.31 23.7101 19.3863 23.7017C19.4245 23.6975 19.4577 23.6923 19.4842 23.6863C19.5078 23.6809 19.5235 23.6754 19.5323 23.6708C19.5327 23.6699 19.5332 23.6687 19.5338 23.667C19.5363 23.6596 19.539 23.6481 19.5413 23.6322C19.546 23.6006 19.5489 23.5565 19.5498 23.5033C19.5517 23.3971 19.546 23.2586 19.5346 23.119C19.5232 22.9794 19.5061 22.8399 19.4854 22.7314C19.475 22.677 19.4639 22.6316 19.4525 22.5981C19.4467 22.5814 19.4413 22.5686 19.4363 22.5597C19.4315 22.5511 19.4287 22.5486 19.4287 22.5486C19.4286 22.5485 19.4287 22.5486 19.4287 22.5486C19.4205 22.5433 19.4015 22.5361 19.3694 22.5282C19.3386 22.5206 19.2996 22.5133 19.2548 22.5066C19.1653 22.4932 19.0547 22.4822 18.9448 22.4749C18.8348 22.4676 18.7261 22.464 18.6403 22.4651C18.5974 22.4656 18.5608 22.4673 18.5329 22.4703C18.5189 22.4717 18.5078 22.4734 18.4994 22.4753C18.4972 22.4757 18.4946 22.4766 18.4931 22.4771Z" fill="black"/>
<path fill-rule="evenodd" clip-rule="evenodd" d="M21.8252 22.4471C21.9355 22.5177 21.6843 23.6506 21.6108 23.6996C21.5005 23.7683 20.8481 23.7683 20.7409 23.6996C20.6644 23.6506 20.7409 22.5865 20.8481 22.5177C20.9584 22.4471 21.7486 22.3999 21.8283 22.4471H21.8252Z" fill="#FFFF00"/>
<path fill-rule="evenodd" clip-rule="evenodd" d="M20.9098 22.4568C20.8773 22.4648 20.8476 22.4744 20.8283 22.4868C20.8139 22.496 20.8037 22.5105 20.7963 22.5239C20.7884 22.5381 20.7813 22.5553 20.7748 22.5744C20.7618 22.6125 20.7499 22.6618 20.7393 22.7176C20.7179 22.8295 20.7005 22.9719 20.689 23.1131C20.6774 23.2542 20.6716 23.3953 20.6735 23.5046C20.6745 23.5591 20.6774 23.6067 20.6828 23.643C20.6854 23.661 20.6889 23.6774 20.6936 23.691C20.6975 23.7024 20.705 23.7203 20.7211 23.7306C20.7401 23.7428 20.7673 23.7514 20.7964 23.758C20.8266 23.7649 20.8628 23.7705 20.9025 23.7748C20.9822 23.7836 21.0786 23.788 21.1747 23.788C21.2708 23.788 21.3674 23.7836 21.4474 23.7749C21.4874 23.7705 21.5238 23.7649 21.5542 23.7581C21.5837 23.7514 21.611 23.7429 21.6302 23.7309L21.6312 23.7302C21.6387 23.7252 21.6441 23.7188 21.6479 23.7137C21.6519 23.7082 21.6556 23.702 21.659 23.6955C21.6659 23.6826 21.6729 23.6663 21.68 23.6478C21.6942 23.6105 21.71 23.5607 21.7262 23.5031C21.7587 23.3878 21.7938 23.2384 21.823 23.0885C21.8522 22.9388 21.8759 22.7875 21.8852 22.6686C21.8899 22.6093 21.8911 22.5567 21.8873 22.5157C21.8862 22.5046 21.8848 22.4939 21.8828 22.4838H21.9627L21.847 22.4154C21.8368 22.4094 21.8244 22.4058 21.8132 22.4034C21.8012 22.4008 21.7871 22.3987 21.7716 22.3971C21.7406 22.3938 21.7015 22.3921 21.6575 22.3915C21.5693 22.3904 21.4586 22.3941 21.3472 22.4015C21.2359 22.4089 21.1233 22.4201 21.0311 22.4339C20.9851 22.4408 20.9437 22.4484 20.9098 22.4568ZM21.8038 22.4771C21.8044 22.4779 21.8055 22.48 21.807 22.4842C21.8099 22.4925 21.8124 22.5051 21.814 22.5226C21.8173 22.5573 21.8164 22.6051 21.8119 22.6628C21.8028 22.7777 21.7798 22.926 21.7508 23.0744C21.7219 23.2227 21.6872 23.3701 21.6554 23.4832C21.6395 23.5398 21.6244 23.5872 21.6113 23.6215C21.6047 23.6387 21.5989 23.6519 21.594 23.661C21.5917 23.6654 21.5899 23.6682 21.5887 23.6699C21.5796 23.6748 21.5632 23.6806 21.5381 23.6863C21.5113 23.6923 21.4778 23.6975 21.4394 23.7017C21.3628 23.7101 21.2689 23.7144 21.1747 23.7144C21.0805 23.7144 20.9869 23.7101 20.9106 23.7017C20.8724 23.6975 20.8392 23.6923 20.8127 23.6863C20.7891 23.6809 20.7734 23.6754 20.7646 23.6708C20.7642 23.6699 20.7637 23.6687 20.7631 23.667C20.7605 23.6596 20.7579 23.6481 20.7555 23.6322C20.7509 23.6006 20.748 23.5565 20.7471 23.5033C20.7452 23.3971 20.7509 23.2586 20.7623 23.119C20.7737 22.9794 20.7908 22.8399 20.8115 22.7314C20.8219 22.677 20.833 22.6316 20.8444 22.5981C20.8501 22.5814 20.8556 22.5686 20.8606 22.5597C20.8653 22.5511 20.8682 22.5486 20.8682 22.5486C20.8683 22.5485 20.8682 22.5486 20.8682 22.5486C20.8764 22.5433 20.8953 22.5361 20.9274 22.5282C20.9582 22.5206 20.9972 22.5133 21.042 22.5066C21.1316 22.4932 21.2421 22.4822 21.3521 22.4749C21.4621 22.4676 21.5708 22.464 21.6566 22.4651C21.6995 22.4656 21.7361 22.4673 21.764 22.4703C21.7779 22.4717 21.7891 22.4734 21.7975 22.4753C21.7997 22.4757 21.8023 22.4766 21.8038 22.4771Z" fill="black"/>
<path fill-rule="evenodd" clip-rule="evenodd" d="M19.5884 22.0299C19.5884 22.1337 19.529 22.2333 19.4234 22.3068C19.3178 22.3802 19.1745 22.4214 19.0251 22.4214C18.8757 22.4214 18.7324 22.3802 18.6268 22.3068C18.5211 22.2333 18.4618 22.1337 18.4618 22.0299C18.4618 21.926 18.5211 21.8264 18.6268 21.753C18.7324 21.6795 18.8757 21.6383 19.0251 21.6383C19.1745 21.6383 19.3178 21.6795 19.4234 21.753C19.529 21.8264 19.5884 21.926 19.5884 22.0299Z" fill="#FFFF00"/>
<path fill-rule="evenodd" clip-rule="evenodd" d="M19.0251 21.6823C18.8832 21.6823 18.749 21.7216 18.6519 21.7891C18.5549 21.8565 18.5058 21.9439 18.5058 22.0299C18.5058 22.1158 18.5549 22.2032 18.6519 22.2706C18.749 22.3381 18.8832 22.3774 19.0251 22.3774C19.167 22.3774 19.3011 22.3381 19.3983 22.2706C19.4952 22.2032 19.5443 22.1158 19.5443 22.0299C19.5443 21.9439 19.4952 21.8565 19.3983 21.7891C19.3011 21.7216 19.167 21.6823 19.0251 21.6823ZM18.6017 21.7168C18.7158 21.6375 18.8682 21.5942 19.0251 21.5942C19.182 21.5942 19.3344 21.6375 19.4485 21.7168C19.5628 21.7963 19.6324 21.9081 19.6324 22.0299C19.6324 22.1516 19.5628 22.2635 19.4485 22.3429C19.3344 22.4223 19.182 22.4655 19.0251 22.4655C18.8682 22.4655 18.7158 22.4223 18.6017 22.3429C18.4874 22.2635 18.4178 22.1516 18.4178 22.0299C18.4178 21.9081 18.4874 21.7963 18.6017 21.7168Z" fill="black"/>
<path fill-rule="evenodd" clip-rule="evenodd" d="M21.8306 22.03C21.8306 22.1339 21.7712 22.2335 21.6656 22.3069C21.5599 22.3804 21.4167 22.4216 21.2673 22.4216C21.1179 22.4216 20.9746 22.3804 20.869 22.3069C20.7633 22.2335 20.704 22.1339 20.704 22.03C20.704 21.9262 20.7633 21.8266 20.869 21.7531C20.9746 21.6797 21.1179 21.6384 21.2673 21.6384C21.4167 21.6384 21.5599 21.6797 21.6656 21.7531C21.7712 21.8266 21.8306 21.9262 21.8306 22.03Z" fill="#FFFF00"/>
<path fill-rule="evenodd" clip-rule="evenodd" d="M21.2673 21.6825C21.1254 21.6825 20.9912 21.7218 20.8941 21.7893C20.7971 21.8567 20.748 21.9441 20.748 22.03C20.748 22.116 20.7971 22.2034 20.8941 22.2708C20.9912 22.3383 21.1254 22.3776 21.2673 22.3776C21.4092 22.3776 21.5433 22.3383 21.6404 22.2708C21.7374 22.2034 21.7865 22.116 21.7865 22.03C21.7865 21.9441 21.7374 21.8567 21.6404 21.7893C21.5433 21.7218 21.4092 21.6825 21.2673 21.6825ZM20.8438 21.717C20.958 21.6376 21.1104 21.5944 21.2673 21.5944C21.4242 21.5944 21.5766 21.6376 21.6907 21.717C21.805 21.7964 21.8746 21.9083 21.8746 22.03C21.8746 22.1518 21.805 22.2636 21.6907 22.3431C21.5766 22.4225 21.4242 22.4657 21.2673 22.4657C21.1104 22.4657 20.958 22.4225 20.8438 22.3431C20.7296 22.2636 20.66 22.1518 20.66 22.03C20.66 21.9083 20.7296 21.7964 20.8438 21.717Z" fill="black"/>
<path fill-rule="evenodd" clip-rule="evenodd" d="M21.125 24.2969C21.125 24.3906 21 24.4688 20.8516 24.4688C20.7031 24.4688 20.5859 24.3906 20.5859 24.2969C20.5859 24.2031 20.7031 24.125 20.8516 24.125C21 24.125 21.125 24.2031 21.125 24.2969ZM19.7188 24.2969C19.7188 24.3906 19.5938 24.4688 19.4453 24.4688C19.2969 24.4688 19.1719 24.3906 19.1719 24.2969C19.1719 24.2031 19.2969 24.125 19.4453 24.125C19.5938 24.125 19.7109 24.2031 19.7109 24.2969H19.7188Z" fill="black"/>
<path fill-rule="evenodd" clip-rule="evenodd" d="M20.1479 18.74L19.8149 18.3198L19.2685 18.3892L19.3453 17.867L18.9056 17.5529L19.3453 17.2348L19.2685 16.7126L19.8149 16.7861L20.1479 16.3659L20.4808 16.7861L21.023 16.7126L20.9504 17.2348L21.3858 17.5529L20.9504 17.8711L21.023 18.3892L20.4766 18.3198L20.1479 18.74Z" fill="#FFFF00"/>
<path fill-rule="evenodd" clip-rule="evenodd" d="M20.1479 16.3211L20.4928 16.7564L21.0556 16.6801L20.9802 17.2221L21.433 17.5529L20.9803 17.8837L21.0556 18.4213L20.4887 18.3494L20.148 18.7849L19.8028 18.3494L19.2356 18.4214L19.3153 17.8798L18.858 17.5531L19.3153 17.2221L19.2356 16.6801L19.8029 16.7564L20.1479 16.3211ZM20.1479 16.4107L19.8269 16.8157L19.3014 16.7451L19.3753 17.2474L18.9533 17.5528L19.3753 17.8543L19.3013 18.3569L19.8269 18.2902L20.1477 18.695L20.4644 18.2902L20.9904 18.357L20.9205 17.8585L21.3387 17.5529L20.9206 17.2474L20.9904 16.7451L20.4689 16.8157L20.1479 16.4107Z" fill="black"/>
<path fill-rule="evenodd" clip-rule="evenodd" d="M22.4683 20.3645L23.4003 20.8119L24.3323 20.3645L23.4003 19.9213L22.4683 20.3645Z" fill="#FFFF00"/>
<path fill-rule="evenodd" clip-rule="evenodd" d="M23.4003 19.8898L24.3985 20.3644L23.4003 20.8435L22.4022 20.3644L23.4003 19.8898ZM22.5345 20.3647L23.4003 20.7803L24.2662 20.3647L23.4003 19.9529L22.5345 20.3647Z" fill="black"/>
<path fill-rule="evenodd" clip-rule="evenodd" d="M15.8043 20.3645L16.7363 20.8119L17.6683 20.3645L16.7363 19.9213L15.8043 20.3645Z" fill="#FFFF00"/>
<path fill-rule="evenodd" clip-rule="evenodd" d="M16.7363 19.8898L17.7344 20.3644L16.7363 20.8435L15.7381 20.3644L16.7363 19.8898ZM15.8704 20.3647L16.7363 20.7803L17.6021 20.3647L16.7363 19.9529L15.8704 20.3647Z" fill="black"/>
<path fill-rule="evenodd" clip-rule="evenodd" d="M23.9177 23.0198C23.6324 22.8389 23.1518 22.9291 22.8824 23.0769C22.613 23.2247 22.3435 23.3726 22.3073 23.9084C21.9979 23.3935 22.2416 22.9175 22.6514 22.6926C22.8687 22.5905 23.1175 22.5678 23.3511 22.6287C23.5848 22.6896 23.787 22.83 23.9199 23.0234L23.9177 23.0198Z" fill="#FFFF00"/>
<path fill-rule="evenodd" clip-rule="evenodd" d="M22.2875 23.8124C22.3159 23.5919 22.388 23.4414 22.485 23.329C22.5938 23.2027 22.7323 23.1267 22.8658 23.0535L22.8677 23.0525C23.006 22.9766 23.1973 22.916 23.3906 22.8972C23.5373 22.8829 23.6878 22.8926 23.8177 22.9401C23.6934 22.8034 23.5289 22.704 23.3441 22.6558C23.1176 22.5967 22.8763 22.6186 22.6653 22.7175C22.4659 22.8271 22.308 22.9972 22.2371 23.2011C22.1742 23.3822 22.1793 23.5918 22.2875 23.8124ZM23.9377 22.9993C23.8007 22.8046 23.595 22.6634 23.3582 22.6016C23.1177 22.5389 22.8617 22.5623 22.6383 22.6673L22.6367 22.6681C22.4267 22.7834 22.2581 22.9636 22.1821 23.1823C22.1059 23.4018 22.1235 23.658 22.2823 23.9221L22.3301 24.0016L22.3363 23.9108C22.3541 23.6475 22.4288 23.4825 22.5298 23.3654C22.6316 23.2473 22.7618 23.1756 22.897 23.1014C23.0282 23.0294 23.2118 22.971 23.3975 22.953C23.5837 22.9349 23.7675 22.9578 23.9022 23.0432L23.9112 23.0296L23.9449 23.0097L23.9392 23.0002L23.9377 22.9993Z" fill="black"/>
<path fill-rule="evenodd" clip-rule="evenodd" d="M17.5156 22.1435C17.5156 22.2217 17.483 22.2967 17.4252 22.352C17.3673 22.4073 17.2889 22.4383 17.2071 22.4383C17.1253 22.4383 17.0468 22.4073 16.9889 22.352C16.9311 22.2967 16.8986 22.2217 16.8986 22.1435C16.8986 22.0654 16.9311 21.9904 16.9889 21.9351C17.0468 21.8798 17.1253 21.8488 17.2071 21.8488C17.2889 21.8488 17.3673 21.8798 17.4252 21.9351C17.483 21.9904 17.5156 22.0654 17.5156 22.1435Z" fill="#FFFF00"/>
<path fill-rule="evenodd" clip-rule="evenodd" d="M17.2071 21.8773C17.1324 21.8773 17.0611 21.9056 17.0086 21.9557C16.9563 22.0058 16.9271 22.0734 16.9271 22.1435C16.9271 22.2137 16.9563 22.2813 17.0086 22.3314C17.0611 22.3814 17.1324 22.4098 17.2071 22.4098C17.2817 22.4098 17.3531 22.3814 17.4055 22.3314C17.4579 22.2813 17.487 22.2137 17.487 22.1435C17.487 22.0734 17.4579 22.0058 17.4055 21.9557C17.3531 21.9056 17.2817 21.8773 17.2071 21.8773ZM16.9692 21.9145C17.0325 21.854 17.1181 21.8203 17.2071 21.8203C17.296 21.8203 17.3816 21.854 17.4449 21.9145C17.5082 21.975 17.5441 22.0574 17.5441 22.1435C17.5441 22.2297 17.5082 22.3121 17.4449 22.3726C17.3816 22.4331 17.296 22.4668 17.2071 22.4668C17.1181 22.4668 17.0325 22.4331 16.9692 22.3726C16.9059 22.3121 16.8701 22.2297 16.8701 22.1435C16.8701 22.0574 16.9059 21.975 16.9692 21.9145Z" fill="black"/>
<path fill-rule="evenodd" clip-rule="evenodd" d="M17.2031 23.1826C17.2031 23.2608 17.1705 23.3358 17.1127 23.391C17.0548 23.4463 16.9764 23.4774 16.8946 23.4774C16.8128 23.4774 16.7343 23.4463 16.6764 23.391C16.6186 23.3358 16.5861 23.2608 16.5861 23.1826C16.5861 23.1044 16.6186 23.0295 16.6764 22.9742C16.7343 22.9189 16.8128 22.8878 16.8946 22.8878C16.9764 22.8878 17.0548 22.9189 17.1127 22.9742C17.1705 23.0295 17.2031 23.1044 17.2031 23.1826Z" fill="#FFFF00"/>
<path fill-rule="evenodd" clip-rule="evenodd" d="M16.8946 22.9164C16.8199 22.9164 16.7486 22.9447 16.6961 22.9948C16.6438 23.0448 16.6146 23.1124 16.6146 23.1826C16.6146 23.2528 16.6438 23.3204 16.6961 23.3704C16.7486 23.4205 16.8199 23.4489 16.8946 23.4489C16.9692 23.4489 17.0406 23.4205 17.093 23.3704C17.1454 23.3204 17.1745 23.2528 17.1745 23.1826C17.1745 23.1124 17.1454 23.0448 17.093 22.9948C17.0406 22.9447 16.9692 22.9164 16.8946 22.9164ZM16.6567 22.9536C16.72 22.8931 16.8056 22.8593 16.8946 22.8593C16.9835 22.8593 17.0691 22.8931 17.1324 22.9536C17.1957 23.0141 17.2316 23.0964 17.2316 23.1826C17.2316 23.2688 17.1957 23.3511 17.1324 23.4117C17.0691 23.4721 16.9835 23.5059 16.8946 23.5059C16.8056 23.5059 16.72 23.4721 16.6567 23.4117C16.5934 23.3511 16.5576 23.2688 16.5576 23.1826C16.5576 23.0964 16.5934 23.0141 16.6567 22.9536Z" fill="black"/>
<path fill-rule="evenodd" clip-rule="evenodd" d="M17.0468 22.5889C17.0468 22.667 17.0143 22.742 16.9564 22.7973C16.8986 22.8526 16.8201 22.8836 16.7383 22.8836C16.6565 22.8836 16.578 22.8526 16.5202 22.7973C16.4623 22.742 16.4298 22.667 16.4298 22.5889C16.4298 22.5107 16.4623 22.4357 16.5202 22.3804C16.578 22.3251 16.6565 22.2941 16.7383 22.2941C16.8201 22.2941 16.8986 22.3251 16.9564 22.3804C17.0143 22.4357 17.0468 22.5107 17.0468 22.5889Z" fill="#FFFF00"/>
<path fill-rule="evenodd" clip-rule="evenodd" d="M16.7383 22.3226C16.6637 22.3226 16.5923 22.351 16.5399 22.401C16.4875 22.4511 16.4584 22.5187 16.4584 22.5889C16.4584 22.659 16.4875 22.7266 16.5399 22.7767C16.5923 22.8268 16.6637 22.8551 16.7383 22.8551C16.813 22.8551 16.8843 22.8268 16.9367 22.7767C16.9891 22.7266 17.0183 22.659 17.0183 22.5889C17.0183 22.5187 16.9891 22.4511 16.9367 22.401C16.8843 22.351 16.813 22.3226 16.7383 22.3226ZM16.5005 22.3598C16.5638 22.2993 16.6494 22.2656 16.7383 22.2656C16.8273 22.2656 16.9129 22.2993 16.9761 22.3598C17.0395 22.4203 17.0753 22.5027 17.0753 22.5889C17.0753 22.675 17.0395 22.7574 16.9761 22.8179C16.9129 22.8784 16.8273 22.9121 16.7383 22.9121C16.6494 22.9121 16.5638 22.8784 16.5005 22.8179C16.4372 22.7574 16.4013 22.675 16.4013 22.5889C16.4013 22.5027 16.4372 22.4203 16.5005 22.3598Z" fill="black"/>
<path fill-rule="evenodd" clip-rule="evenodd" d="M17.8202 23.1826C17.8202 23.2608 17.7877 23.3358 17.7299 23.391C17.672 23.4463 17.5936 23.4774 17.5118 23.4774C17.4299 23.4774 17.3515 23.4463 17.2936 23.391C17.2358 23.3358 17.2031 23.2608 17.2031 23.1826C17.2031 23.1044 17.2358 23.0295 17.2936 22.9742C17.3515 22.9189 17.4299 22.8878 17.5118 22.8878C17.5936 22.8878 17.672 22.9189 17.7299 22.9742C17.7877 23.0295 17.8202 23.1044 17.8202 23.1826Z" fill="#FFFF00"/>
<path fill-rule="evenodd" clip-rule="evenodd" d="M17.5118 22.9164C17.4371 22.9164 17.3657 22.9447 17.3133 22.9948C17.261 23.0448 17.2316 23.1124 17.2316 23.1826C17.2316 23.2528 17.261 23.3204 17.3133 23.3704C17.3657 23.4205 17.4371 23.4489 17.5118 23.4489C17.5864 23.4489 17.6578 23.4205 17.7102 23.3704C17.7626 23.3204 17.7917 23.2528 17.7917 23.1826C17.7917 23.1124 17.7626 23.0448 17.7102 22.9948C17.6578 22.9447 17.5864 22.9164 17.5118 22.9164ZM17.2739 22.9536C17.3372 22.8931 17.4228 22.8593 17.5118 22.8593C17.6007 22.8593 17.6863 22.8931 17.7496 22.9536C17.8129 23.0141 17.8488 23.0964 17.8488 23.1826C17.8488 23.2688 17.8129 23.3511 17.7496 23.4117C17.6863 23.4721 17.6007 23.5059 17.5118 23.5059C17.4228 23.5059 17.3372 23.4721 17.2739 23.4117C17.2106 23.3511 17.1745 23.2688 17.1745 23.1826C17.1745 23.0964 17.2106 23.0141 17.2739 22.9536Z" fill="black"/>
<path fill-rule="evenodd" clip-rule="evenodd" d="M17.9765 22.5889C17.9765 22.667 17.944 22.742 17.8861 22.7973C17.8283 22.8526 17.7498 22.8836 17.668 22.8836C17.5862 22.8836 17.5077 22.8526 17.4499 22.7973C17.392 22.742 17.3595 22.667 17.3595 22.5889C17.3595 22.5107 17.392 22.4357 17.4499 22.3804C17.5077 22.3251 17.5862 22.2941 17.668 22.2941C17.7498 22.2941 17.8283 22.3251 17.8861 22.3804C17.944 22.4357 17.9765 22.5107 17.9765 22.5889Z" fill="#FFFF00"/>
<path fill-rule="evenodd" clip-rule="evenodd" d="M17.668 22.3226C17.5934 22.3226 17.522 22.351 17.4696 22.401C17.4172 22.4511 17.3881 22.5187 17.3881 22.5889C17.3881 22.659 17.4172 22.7266 17.4696 22.7767C17.522 22.8268 17.5934 22.8551 17.668 22.8551C17.7427 22.8551 17.814 22.8268 17.8664 22.7767C17.9188 22.7266 17.948 22.659 17.948 22.5889C17.948 22.5187 17.9188 22.4511 17.8664 22.401C17.814 22.351 17.7427 22.3226 17.668 22.3226ZM17.4302 22.3598C17.4935 22.2993 17.579 22.2656 17.668 22.2656C17.757 22.2656 17.8425 22.2993 17.9058 22.3598C17.9692 22.4203 18.005 22.5027 18.005 22.5889C18.005 22.675 17.9692 22.7574 17.9058 22.8179C17.8425 22.8784 17.757 22.9121 17.668 22.9121C17.579 22.9121 17.4935 22.8784 17.4302 22.8179C17.3669 22.7574 17.331 22.675 17.331 22.5889C17.331 22.5027 17.3669 22.4203 17.4302 22.3598Z" fill="black"/>
<path fill-rule="evenodd" clip-rule="evenodd" d="M17.5156 22.7373C17.5156 22.8155 17.483 22.8904 17.4252 22.9457C17.3673 23.001 17.2889 23.0321 17.2071 23.0321C17.1253 23.0321 17.0468 23.001 16.9889 22.9457C16.9311 22.8904 16.8986 22.8155 16.8986 22.7373C16.8986 22.6591 16.9311 22.5841 16.9889 22.5289C17.0468 22.4736 17.1253 22.4425 17.2071 22.4425C17.2889 22.4425 17.3673 22.4736 17.4252 22.5289C17.483 22.5841 17.5156 22.6591 17.5156 22.7373Z" fill="#FFFF00"/>
<path fill-rule="evenodd" clip-rule="evenodd" d="M17.2071 22.471C17.1324 22.471 17.0611 22.4994 17.0086 22.5495C16.9563 22.5995 16.9271 22.6671 16.9271 22.7373C16.9271 22.8075 16.9563 22.8751 17.0086 22.9251C17.0611 22.9752 17.1324 23.0035 17.2071 23.0035C17.2817 23.0035 17.3531 22.9752 17.4055 22.9251C17.4579 22.8751 17.487 22.8075 17.487 22.7373C17.487 22.6671 17.4579 22.5995 17.4055 22.5495C17.3531 22.4994 17.2817 22.471 17.2071 22.471ZM16.9692 22.5082C17.0325 22.4478 17.1181 22.414 17.2071 22.414C17.296 22.414 17.3816 22.4478 17.4449 22.5082C17.5082 22.5688 17.5441 22.6511 17.5441 22.7373C17.5441 22.8235 17.5082 22.9058 17.4449 22.9663C17.3816 23.0268 17.296 23.0606 17.2071 23.0606C17.1181 23.0606 17.0325 23.0268 16.9692 22.9663C16.9059 22.9058 16.8701 22.8235 16.8701 22.7373C16.8701 22.6511 16.9059 22.5688 16.9692 22.5082Z" fill="black"/>
<path fill-rule="evenodd" clip-rule="evenodd" d="M18.6484 12.4219C17.8672 12.4219 17.7656 12.5391 17.4141 12.6562C17.4141 12.3203 18.2812 11.9219 19.0625 11.9219C19.0625 12.1719 18.8594 12.4141 18.6484 12.4141V12.4219Z" fill="#DA4500"/>
<path fill-rule="evenodd" clip-rule="evenodd" d="M19.8438 11.625C19.8438 11.7891 19.7031 11.9219 19.5312 11.9219C19.3594 11.9219 19.2188 11.7891 19.2188 11.625C19.2188 11.4609 19.3594 11.3281 19.5312 11.3281C19.7031 11.3281 19.8438 11.4609 19.8438 11.625Z" fill="#CAC9C7"/>
<path fill-rule="evenodd" clip-rule="evenodd" d="M16.5788 10.5891V11.0323H17.3533V13.2525H17.8215V11.0323H18.596V10.5891H17.8215V9.99542H17.3489V10.5891H16.5788Z" fill="#FFFF00"/>
<path fill-rule="evenodd" clip-rule="evenodd" d="M17.3204 9.96691H17.85V10.5606H18.6245V11.0608H17.85V13.281H17.3248V11.0608H16.5503V10.5606H17.3204V9.96691ZM17.3775 10.0239V10.6177H16.6074V11.0038H17.3818V13.224H17.793V11.0038H18.5675V10.6177H17.793V10.0239H17.3775Z" fill="black"/>
<path fill-rule="evenodd" clip-rule="evenodd" d="M19.0625 11.9219C18.4325 11.8871 17.8016 11.972 17.2031 12.1719C17.2031 11.7109 17.7344 11.1797 18.6484 11.1797C18.8594 11.1797 19.0625 11.6719 19.0625 11.9219Z" fill="#DA4500"/>
<path fill-rule="evenodd" clip-rule="evenodd" d="M11.0012 19.7864C10.778 19.3054 10.7832 19.1519 11.1802 19.7022L15.962 28.7678L15.8156 28.809L11.0036 19.7883L11.0012 19.7864Z" fill="#008500"/>
<path fill-rule="evenodd" clip-rule="evenodd" d="M11.0087 19.7791C10.9536 19.6601 10.9127 19.5617 10.8884 19.4895C10.8762 19.453 10.8683 19.4236 10.8648 19.4018C10.8631 19.3909 10.8625 19.3823 10.8629 19.3759C10.8634 19.3694 10.8647 19.3663 10.8657 19.365C10.8663 19.3642 10.8673 19.3633 10.8702 19.3636C10.8735 19.3638 10.8786 19.3655 10.8858 19.3699C10.9004 19.3785 10.9205 19.3959 10.9467 19.4234C10.9989 19.4783 11.0731 19.5711 11.1721 19.7083L15.9469 28.7605L15.8201 28.7963L11.0109 19.7807L11.0087 19.7791ZM10.96 19.4077C11.0133 19.4638 11.0885 19.5579 11.1878 19.6956L15.9771 28.775L15.8111 28.8218L10.9963 19.7958L10.9936 19.7938L10.9924 19.7911C10.9365 19.6707 10.8948 19.5705 10.8699 19.4964C10.8575 19.4594 10.8491 19.4285 10.8453 19.4047C10.8434 19.3928 10.8426 19.3823 10.8432 19.3734C10.8438 19.3646 10.8457 19.3563 10.8505 19.3501C10.8556 19.3435 10.8628 19.341 10.8707 19.3415C10.8781 19.3421 10.8861 19.3455 10.8946 19.3505C10.9116 19.3607 10.9334 19.3798 10.96 19.4077Z" fill="black"/>
<path fill-rule="evenodd" clip-rule="evenodd" d="M14.2422 25.75C14.2969 25.0781 13.0703 24.3516 13.0156 24.3984C12.9688 24.4453 13.0938 24.8359 13.3281 25.0391C12.875 24.8125 12.4063 24.6719 12.3906 24.7734C12.3594 24.9062 13.0937 25.2266 13.1562 25.3516C13.1562 25.4375 12.6094 25.4297 12.625 25.5156C12.6328 25.6094 14.1641 26.375 14.2422 25.75ZM13.0156 23.7969C13.0625 23.125 11.8359 22.3906 11.7812 22.4453C11.7344 22.4922 11.8594 22.8828 12.0938 23.0859C11.6484 22.8516 11.1797 22.7109 11.1641 22.8125C11.1328 22.9453 11.8672 23.2656 11.9219 23.3906C11.9297 23.4844 11.3828 23.4688 11.3984 23.5625C11.4062 23.6484 12.9375 24.4219 13.0156 23.7969ZM12.0781 22.0156C12.125 21.3438 10.8906 20.6172 10.8438 20.6641C10.7969 20.7109 10.9219 21.1016 11.1563 21.3047C10.7031 21.0703 10.2344 20.9375 10.2266 21.0391C10.1875 21.1719 10.9297 21.4922 10.9844 21.6172C10.9922 21.7031 10.4453 21.6953 10.4531 21.7812C10.4688 21.8672 11.9922 22.6406 12.0703 22.0156H12.0781ZM11.1406 20.0938C11.1953 19.4219 9.96875 18.6875 9.91406 18.7422C9.86719 18.7891 9.99219 19.1797 10.2266 19.3828C9.77344 19.1484 9.30469 19.0078 9.29688 19.1094C9.25781 19.2422 9.99219 19.5625 10.0547 19.6875C10.0625 19.7812 9.51562 19.7656 9.52344 19.8594C9.53125 19.9375 11.0625 20.7188 11.1406 20.0938Z" fill="#008F00"/>
<path fill-rule="evenodd" clip-rule="evenodd" d="M11.4609 20C12.0625 19.6406 11.9453 18.2656 11.875 18.2578C11.8047 18.2422 11.5469 18.5703 11.5156 18.875C11.4375 18.3906 11.2812 17.9453 11.2031 18C11.0625 18.0547 11.2266 18.8047 11.1562 18.9297C11.0859 18.9844 10.7656 18.5625 10.7031 18.6172C10.6328 18.6797 10.8906 20.3125 11.4609 20ZM12.3203 21.6953C13.0156 21.5391 13.3828 20.2109 13.3281 20.1797C13.2656 20.1484 12.9062 20.375 12.7734 20.6484C12.875 20.1719 12.875 19.7031 12.7734 19.7188C12.6328 19.7266 12.5156 20.4844 12.4141 20.5781C12.3281 20.6172 12.1797 20.1094 12.0938 20.1484C12.0078 20.1797 11.6797 21.8047 12.3281 21.6953H12.3203ZM13.3594 23.4219C13.9844 23.1094 14 21.7344 13.9297 21.7188C13.8594 21.7031 13.5781 22.0078 13.5156 22.3047C13.4844 21.8203 13.375 21.3672 13.2812 21.4062C13.1406 21.4453 13.2266 22.2109 13.1484 22.3281C13.0703 22.375 12.8047 21.9219 12.7266 21.9766C12.6484 22.0312 12.7578 23.6875 13.3516 23.4219H13.3594ZM14.4687 25.6875C15.125 25.4375 15.2891 24.0625 15.2188 24.0469C15.1562 24.0156 14.8359 24.2891 14.75 24.5781C14.7734 24.0938 14.7031 23.6328 14.6094 23.6641C14.4609 23.6953 14.4766 24.4609 14.3828 24.5703C14.3047 24.6172 14.0781 24.1406 14 24.1797C13.9219 24.2344 13.8437 25.8828 14.4687 25.6797V25.6875Z" fill="#008F00"/>
<path fill-rule="evenodd" clip-rule="evenodd" d="M15.9173 28.034C15.7509 28.3188 15.2247 28.3445 14.7357 28.0836C14.2467 27.8227 13.9935 27.3812 14.1599 27.0964C14.3263 26.8117 14.8563 26.788 15.3415 27.0468C15.8267 27.3057 16.0837 27.7493 15.9173 28.034Z" fill="#FF1900"/>
<path fill-rule="evenodd" clip-rule="evenodd" d="M14.6318 26.8958C14.4233 26.9047 14.2612 26.9795 14.1851 27.1099C14.1089 27.2403 14.1264 27.4109 14.2274 27.5849C14.328 27.7583 14.5094 27.9306 14.7501 28.059C14.9908 28.1874 15.2395 28.2445 15.4468 28.2354C15.6547 28.2262 15.8159 28.151 15.8921 28.0206C15.9683 27.8902 15.9499 27.7192 15.8484 27.5448C15.7473 27.3711 15.5659 27.1988 15.3271 27.0715C15.0883 26.9441 14.8397 26.8869 14.6318 26.8958ZM14.6304 26.8398C14.8505 26.8303 15.1095 26.8907 15.3559 27.0222C15.6023 27.1537 15.792 27.3326 15.8991 27.5166C16.0058 27.6999 16.0327 27.893 15.9425 28.0474C15.8523 28.2017 15.6672 28.2818 15.4482 28.2914C15.2286 28.3011 14.9696 28.2407 14.7213 28.1082C14.473 27.9758 14.2833 27.7968 14.1767 27.6131C14.0704 27.4299 14.0446 27.2373 14.1347 27.083C14.2249 26.9286 14.4111 26.8492 14.6304 26.8398Z" fill="black"/>
<path fill-rule="evenodd" clip-rule="evenodd" d="M28.5407 18.4958L28.6231 18.2833L28.8448 18.3531L28.9271 18.1406L29.1489 18.2105L29.0677 18.42L29.2958 18.4918L29.2123 18.7073L28.9842 18.6355L28.779 19.1652L28.5573 19.0954L28.7625 18.5656L28.5407 18.4958ZM28.0645 20.3673L28.2862 20.4371L25.9034 26.5874L25.6816 26.5175L28.0645 20.3673Z" fill="#FFFF00"/>
<path fill-rule="evenodd" clip-rule="evenodd" d="M28.9213 18.1286L29.1618 18.2043L29.0806 18.4138L29.3087 18.4856L29.2181 18.7194L28.9901 18.6475L28.7848 19.1773L28.5444 19.1015L28.7496 18.5718L28.5279 18.502L28.6173 18.2712L28.839 18.3411L28.9213 18.1286ZM28.933 18.1527L28.8506 18.3652L28.6289 18.2954L28.5536 18.4896L28.7754 18.5594L28.5701 19.0892L28.7732 19.1531L28.9784 18.6234L29.2065 18.6952L29.2829 18.498L29.0549 18.4262L29.136 18.2167L28.933 18.1527ZM28.0587 20.3552L28.2991 20.4309L25.9092 26.5994L25.6687 26.5237L28.0587 20.3552ZM28.0703 20.3794L25.6945 26.5113L25.8976 26.5753L28.2733 20.4433L28.0703 20.3794Z" fill="black"/>
<path fill-rule="evenodd" clip-rule="evenodd" d="M25.6082 26.3769L26.058 26.5185L25.4005 28.2155L24.9507 28.0738L25.6082 26.3769ZM28.2532 19.238L28.9279 19.4505C29.3746 19.5912 28.3617 20.5818 28.3617 20.5818L27.915 20.4411C27.915 20.4411 27.8033 19.0963 28.2532 19.238ZM28.8733 19.252C28.8386 19.3418 28.7125 19.3827 28.589 19.3438C28.4654 19.3049 28.3919 19.2011 28.4255 19.1143C28.4591 19.0275 28.5863 18.9836 28.7099 19.0225C28.8334 19.0614 28.907 19.1652 28.8722 19.255L28.8733 19.252Z" fill="#FFFF00"/>
<path fill-rule="evenodd" clip-rule="evenodd" d="M28.5368 19.0303C28.4875 19.0466 28.4503 19.0774 28.4349 19.1173C28.4195 19.1569 28.4283 19.2014 28.4566 19.2413C28.485 19.2812 28.5325 19.3157 28.5925 19.3346C28.6525 19.3535 28.7127 19.3529 28.7617 19.3371C28.8101 19.3214 28.8471 19.2912 28.8634 19.2506C28.8786 19.2097 28.8699 19.165 28.842 19.1253C28.8138 19.0851 28.7663 19.0506 28.7063 19.0317C28.6464 19.0128 28.586 19.0141 28.5368 19.0303ZM28.8827 19.2549C28.8999 19.2073 28.8889 19.157 28.8588 19.114C28.828 19.0702 28.777 19.0334 28.7134 19.0134C28.6498 18.9934 28.5849 18.9945 28.5312 19.0122C28.4775 19.0299 28.4344 19.0644 28.4162 19.1114C28.3979 19.1585 28.4091 19.2093 28.44 19.2527C28.4524 19.2702 28.4681 19.2866 28.4866 19.3013L28.2567 19.2289C28.1982 19.2104 28.1476 19.2159 28.1047 19.2409C28.0621 19.2656 28.0284 19.3085 28.0016 19.3625C27.9479 19.4703 27.9196 19.6267 27.9054 19.7861C27.8912 19.9458 27.8912 20.1099 27.8946 20.234C27.8963 20.296 27.8989 20.3481 27.9011 20.3846C27.9022 20.4029 27.9032 20.4173 27.9039 20.4272C27.9043 20.4321 27.9045 20.4359 27.9047 20.4385L27.905 20.4414C27.905 20.4414 27.905 20.4424 27.915 20.4411L27.905 20.4414L27.9055 20.4484L28.3641 20.5928L28.3686 20.5883L28.3617 20.5818C28.3686 20.5883 28.3686 20.5883 28.3686 20.5883L28.3694 20.5876L28.3716 20.5855C28.3735 20.5836 28.3763 20.5808 28.38 20.5771C28.3873 20.5698 28.398 20.5591 28.4114 20.5453C28.4383 20.5179 28.4762 20.4786 28.5203 20.431C28.6084 20.3358 28.7213 20.2072 28.8203 20.0742C28.9192 19.9414 29.0049 19.8032 29.0375 19.6887C29.0539 19.6314 29.0573 19.579 29.0413 19.5359C29.0251 19.4923 28.9896 19.4597 28.9315 19.4414L28.6975 19.3677C28.722 19.3665 28.7455 19.3622 28.7672 19.3552C28.8197 19.3382 28.8622 19.3047 28.8815 19.2579L28.8827 19.2549ZM28.2496 19.2471C28.1957 19.2302 28.1514 19.2357 28.1143 19.2572C28.0769 19.2789 28.0455 19.3178 28.0195 19.37C27.9676 19.4744 27.9395 19.6277 27.9254 19.7868C27.9112 19.9455 27.9111 20.1088 27.9146 20.2325C27.9163 20.2943 27.9189 20.3462 27.9211 20.3826C27.9221 20.4008 27.9231 20.4151 27.9238 20.4249C27.9241 20.4285 27.9243 20.4315 27.9245 20.4339L28.3593 20.5708C28.361 20.5691 28.3632 20.5668 28.3659 20.5642C28.3732 20.5569 28.3838 20.5462 28.3972 20.5326C28.424 20.5053 28.4617 20.4661 28.5057 20.4186C28.5935 20.3237 28.7059 20.1958 28.8043 20.0636C28.9029 19.9311 28.9866 19.7954 29.0183 19.6845C29.0341 19.6291 29.0365 19.5811 29.0224 19.5431C29.0085 19.5056 28.9779 19.4765 28.9244 19.4596L28.2496 19.2471ZM25.6024 26.3648L26.0709 26.5123L25.4064 28.2275L24.9378 28.08L25.6024 26.3648ZM26.0451 26.5247L25.614 26.3889L24.9636 28.0676L25.3947 28.2034L26.0451 26.5247Z" fill="black"/>
<path fill-rule="evenodd" clip-rule="evenodd" d="M25.9749 27.2646C26.1633 27.5366 25.9459 27.9951 25.4789 28.2907C25.012 28.5862 24.4852 28.5986 24.2968 28.3267C24.1083 28.0548 24.3294 27.5939 24.7927 27.3007C25.256 27.0074 25.7864 26.9927 25.9749 27.2646Z" fill="#FF1900"/>
<path fill-rule="evenodd" clip-rule="evenodd" d="M24.3267 27.8338C24.2394 28.0149 24.2345 28.1868 24.3209 28.3114C24.4073 28.4361 24.574 28.4994 24.7821 28.4935C24.9895 28.4876 25.2328 28.4127 25.4627 28.2672C25.6925 28.1218 25.8596 27.9369 25.9462 27.7567C26.0331 27.576 26.0372 27.4046 25.9508 27.2799C25.8644 27.1553 25.6968 27.0925 25.4882 27.0987C25.2803 27.1049 25.0369 27.1798 24.809 27.3241C24.581 27.4684 24.4138 27.6532 24.3267 27.8338ZM24.2739 27.8095C24.3661 27.6184 24.5411 27.4262 24.7765 27.2772C25.0118 27.1283 25.2653 27.0493 25.4855 27.0428C25.705 27.0363 25.8969 27.1021 25.999 27.2494C26.101 27.3966 26.0906 27.5905 25.9991 27.7809C25.9073 27.9718 25.7323 28.164 25.4952 28.3141C25.258 28.4642 25.0045 28.5432 24.7847 28.5494C24.5655 28.5556 24.3747 28.4892 24.2727 28.3419C24.1706 28.1946 24.182 28.0001 24.2739 27.8095Z" fill="black"/>
</g>
<defs>
<clipPath id="clip0_17544_64664">
<path d="M0 20C0 8.95431 8.95431 0 20 0C31.0457 0 40 8.95431 40 20C40 31.0457 31.0457 40 20 40C8.95431 40 0 31.0457 0 20Z" fill="white"/>
</clipPath>
</defs>
</svg>
