<svg width="40" height="40" viewBox="0 0 40 40" fill="none" xmlns="http://www.w3.org/2000/svg">
<g clip-path="url(#clip0_17522_60682)">
<path d="M0 0H40V40H0V0Z" fill="#DA2032"/>
<path d="M13.3359 0H26.6641V40H13.3359V0Z" fill="#0066B3"/>
<path d="M6.66406 18.0938C8.17422 18.0938 9.39844 16.8695 9.39844 15.3594C9.39844 13.8492 8.17422 12.625 6.66406 12.625C5.15391 12.625 3.92969 13.8492 3.92969 15.3594C3.92969 16.8695 5.15391 18.0938 6.66406 18.0938Z" fill="#FFD900"/>
<path d="M6.66406 17.1016C8.31229 17.1016 9.64844 15.7654 9.64844 14.1172C9.64844 12.469 8.31229 11.1328 6.66406 11.1328C5.01584 11.1328 3.67969 12.469 3.67969 14.1172C3.67969 15.7654 5.01584 17.1016 6.66406 17.1016Z" fill="#DA2032"/>
<path d="M6.66406 16.6016C7.76432 16.6016 8.65625 15.7096 8.65625 14.6094C8.65625 13.5091 7.76432 12.6172 6.66406 12.6172C5.56381 12.6172 4.67188 13.5091 4.67188 14.6094C4.67188 15.7096 5.56381 16.6016 6.66406 16.6016Z" fill="#FFD900"/>
<path d="M6.875 8.14844C6.77285 8.19215 6.68502 8.26365 6.62149 8.3548C6.55796 8.44595 6.52128 8.5531 6.51562 8.66406C6.5 8.83594 6.57812 9.02344 6.58594 9.1875C6.58594 9.47656 6.28906 9.57031 6.28906 9.97656C6.28906 10.1172 6.42187 10.2734 6.42187 10.6328C6.39844 10.8281 6.28906 10.8672 6.17188 10.8828C6.10557 10.8828 6.04198 10.8565 5.9951 10.8096C5.94821 10.7627 5.92188 10.6991 5.92188 10.6328C5.92238 10.5686 5.94755 10.5071 5.99219 10.4609C5.99947 10.4526 6.0073 10.4448 6.01562 10.4375C6.07031 10.3828 6.14844 10.3594 6.14844 10.2031C6.14844 10.125 6.10156 10.0625 6.05469 9.92188C6.03306 9.83927 6.03025 9.75286 6.04648 9.66903C6.0627 9.58519 6.09755 9.50607 6.14844 9.4375C5.97656 9.5 5.86719 9.67188 5.8125 9.82031C5.75781 10 5.80469 10.1094 5.72656 10.2656C5.67969 10.3594 5.61719 10.3984 5.57031 10.4844C5.5 10.5781 5.42969 10.7812 5.42969 10.8828C5.464 11.1883 5.60964 11.4703 5.83878 11.6752C6.06793 11.88 6.36452 11.9933 6.67188 11.9933C6.97923 11.9933 7.27582 11.88 7.50497 11.6752C7.73411 11.4703 7.87975 11.1883 7.91406 10.8828C7.91406 10.7812 7.83594 10.5703 7.77344 10.4844C7.71875 10.4062 7.65625 10.3594 7.61719 10.2656C7.53906 10.1094 7.58594 10 7.52344 9.82031C7.46875 9.66406 7.36719 9.50781 7.1875 9.42969C7.2409 9.49852 7.27781 9.57867 7.29542 9.66399C7.31302 9.74931 7.31085 9.83753 7.28906 9.92188C7.23438 10.0625 7.1875 10.1328 7.1875 10.2109C7.1875 10.3594 7.26562 10.3828 7.32031 10.4453C7.32841 10.4501 7.33624 10.4553 7.34375 10.4609C7.39125 10.5058 7.4193 10.5675 7.42188 10.6328C7.42189 10.6663 7.41518 10.6995 7.40213 10.7303C7.38908 10.7612 7.36996 10.7891 7.34591 10.8124C7.32186 10.8357 7.29337 10.854 7.26213 10.8661C7.2309 10.8782 7.19754 10.8839 7.16406 10.8828C7.03125 10.8672 6.92969 10.8047 6.91406 10.6328C6.91406 10.1562 7.125 10.125 7.125 9.77344C7.125 9.26562 6.67188 9.02344 6.67188 8.65625C6.67188 8.53125 6.69531 8.32031 6.875 8.14844ZM1.19531 18.5859H3.6875V30.5234H1.19531V18.5859ZM9.64844 18.5859H12.1328V30.5234H9.64844V18.5859ZM4.17969 18.5859H9.15625L6.66406 20.0781L4.17969 18.5859ZM4.17969 20.5781H9.15625V21.5625H4.17969V20.5781ZM4.17969 27.5312H9.15625V28.5313H4.17969V27.5312ZM4.17969 29.0312H9.15625L6.66406 30.5156L4.17969 29.0312Z" fill="#FFD900"/>
<path d="M6.66406 27.0391C8.03614 27.0391 9.14844 25.9268 9.14844 24.5547C9.14844 23.1826 8.03614 22.0703 6.66406 22.0703C5.29198 22.0703 4.17969 23.1826 4.17969 24.5547C4.17969 25.9268 5.29198 27.0391 6.66406 27.0391Z" fill="#FFD900"/>
<path d="M6.66188 23.7328C6.93645 23.7328 7.15903 23.5103 7.15903 23.2357C7.15903 22.9611 6.93645 22.7385 6.66188 22.7385C6.3873 22.7385 6.16472 22.9611 6.16472 23.2357C6.16472 23.5103 6.3873 23.7328 6.66188 23.7328Z" fill="#DA2032"/>
<path d="M6.66188 26.3678C6.93645 26.3678 7.15903 26.1452 7.15903 25.8706C7.15903 25.596 6.93645 25.3735 6.66188 25.3735C6.3873 25.3735 6.16472 25.596 6.16472 25.8706C6.16472 26.1452 6.3873 26.3678 6.66188 26.3678Z" fill="#DA2032"/>
<path d="M6.66188 21.7691C7.05084 21.7691 7.42388 21.9236 7.69893 22.1986C7.97397 22.4737 8.12849 22.8467 8.12849 23.2357C8.12849 23.6247 7.97397 23.9977 7.69893 24.2727C7.42388 24.5478 7.05084 24.7023 6.66188 24.7023C6.35202 24.7023 6.05485 24.8254 5.83575 25.0445C5.61665 25.2636 5.49356 25.5608 5.49356 25.8706C5.49356 26.1805 5.61665 26.4776 5.83575 26.6967C6.05485 26.9158 6.35202 27.0389 6.66188 27.0389V27.3372C6.27291 27.3372 5.89987 27.1827 5.62482 26.9077C5.34978 26.6326 5.19526 26.2596 5.19526 25.8706C5.19526 25.4817 5.34978 25.1086 5.62482 24.8336C5.89987 24.5585 6.27291 24.404 6.66188 24.404C6.97173 24.404 7.2689 24.2809 7.488 24.0618C7.7071 23.8427 7.83019 23.5455 7.83019 23.2357C7.83019 22.9258 7.7071 22.6287 7.488 22.4096C7.2689 22.1905 6.97173 22.0674 6.66188 22.0674V21.7691Z" fill="#DA2032"/>
</g>
<defs>
<clipPath id="clip0_17522_60682">
<path d="M0 4C0 1.79086 1.79086 0 4 0H36C38.2091 0 40 1.79086 40 4V36C40 38.2091 38.2091 40 36 40H4C1.79086 40 0 38.2091 0 36V4Z" fill="white"/>
</clipPath>
</defs>
</svg>
