<svg width="40" height="40" viewBox="0 0 40 40" fill="none" xmlns="http://www.w3.org/2000/svg">
<g clip-path="url(#clip0_17544_65637)">
<path d="M0 0H40V40H0V0Z" fill="black"/>
<path fill-rule="evenodd" clip-rule="evenodd" d="M0 0H40V40H0V0Z" fill="white"/>
<path fill-rule="evenodd" clip-rule="evenodd" d="M-8.45312 0.015625L-8.39063 28.8125L36.4531 0L-8.45312 0.015625Z" fill="#3662A2"/>
<path fill-rule="evenodd" clip-rule="evenodd" d="M49.2734 39.9609L49.1641 10.0234L3.92969 39.9844L49.2734 39.9609Z" fill="#38A100"/>
<path fill-rule="evenodd" clip-rule="evenodd" d="M-8.42969 30.9844L-8.39063 40L1.39844 39.9844L49.1875 7.94531L49.1406 0.109375L39.4688 0.015625L-8.42969 30.9844Z" fill="#C70000"/>
<path fill-rule="evenodd" clip-rule="evenodd" d="M12.0312 14.3281L10.2266 13.2344L9.17969 15.0781L8.16406 13.2188L6.32812 14.2969L6.375 12.1797L4.26562 12.1953L5.35938 10.3828L3.51562 9.33594L5.375 8.32031L4.29688 6.48438L6.40625 6.53125L6.39844 4.41406L8.21094 5.50781L9.25781 3.66406L10.2734 5.51562L12.125 4.45312L12.0781 6.5625L14.1875 6.55469L13.0938 8.36719L14.9375 9.40625L13.0781 10.4297L14.1484 12.2578L12.0391 12.2187L12.0312 14.3281Z" fill="#FFE700"/>
<path fill-rule="evenodd" clip-rule="evenodd" d="M13.1094 9.375C13.1094 11.5 11.3672 13.2266 9.21875 13.2266C7.07031 13.2266 5.33594 11.5 5.33594 9.36719C5.33594 7.23438 7.07812 5.51562 9.22656 5.51562C11.375 5.51562 13.1094 7.23438 13.1094 9.36719V9.375Z" fill="#3662A2"/>
<path fill-rule="evenodd" clip-rule="evenodd" d="M12.2656 9.375C12.2865 9.78758 12.2233 10.2001 12.0798 10.5875C11.9364 10.9749 11.7156 11.329 11.431 11.6285C11.1464 11.9279 10.8038 12.1663 10.4242 12.3292C10.0446 12.4921 9.63576 12.5761 9.22266 12.5761C8.80955 12.5761 8.40075 12.4921 8.02112 12.3292C7.64149 12.1663 7.29896 11.9279 7.01433 11.6285C6.72971 11.329 6.50895 10.9749 6.36547 10.5875C6.22198 10.2001 6.15878 9.78758 6.17969 9.375C6.21924 8.59462 6.5571 7.85927 7.12343 7.32091C7.68976 6.78256 8.44128 6.48236 9.22266 6.48236C10.004 6.48236 10.7556 6.78256 11.3219 7.32091C11.8882 7.85927 12.2261 8.59462 12.2656 9.375Z" fill="#FFE700"/>
</g>
<defs>
<clipPath id="clip0_17544_65637">
<path d="M0 20C0 8.95431 8.95431 0 20 0C31.0457 0 40 8.95431 40 20C40 31.0457 31.0457 40 20 40C8.95431 40 0 31.0457 0 20Z" fill="white"/>
</clipPath>
</defs>
</svg>
