<svg width="40" height="40" viewBox="0 0 40 40" fill="none" xmlns="http://www.w3.org/2000/svg">
<g clip-path="url(#clip0_17522_60704)">
<path d="M-0.00369072 0H39.9983V39.9939H0.00437164L-0.00369072 0Z" fill="black"/>
<path fill-rule="evenodd" clip-rule="evenodd" d="M-10.9375 0H69.0583V39.9939H-10.9375V0Z" fill="#002170"/>
<path fill-rule="evenodd" clip-rule="evenodd" d="M-10.9375 18.2875H69.0583V21.7064H-10.9375V18.2875Z" fill="#FFB20D"/>
<path fill-rule="evenodd" clip-rule="evenodd" d="M12.6395 34.2206L10.0673 31.6403L9.24489 35.1882L8.30149 31.6645L5.80993 34.3254L6.7614 30.8098L3.27807 31.858L5.85831 29.2939L2.31047 28.4634L5.82606 27.528L3.16518 25.0284L6.68077 25.9799L5.63254 22.4966L8.19667 25.0768L9.02719 21.529L9.97059 25.0446L12.4541 22.3917L11.5107 25.9073L14.994 24.8591L12.4138 27.4232L15.9616 28.2537L12.446 29.1891L15.1069 31.6806L11.5832 30.7372L12.6395 34.2206Z" fill="white"/>
</g>
<defs>
<clipPath id="clip0_17522_60704">
<path d="M0 4C0 1.79086 1.79086 0 4 0H36C38.2091 0 40 1.79086 40 4V36C40 38.2091 38.2091 40 36 40H4C1.79086 40 0 38.2091 0 36V4Z" fill="white"/>
</clipPath>
</defs>
</svg>
