<svg width="40" height="40" viewBox="0 0 40 40" fill="none" xmlns="http://www.w3.org/2000/svg">
<g clip-path="url(#clip0_17544_65972)">
<path d="M0 -6.80089e-05H40V39.9999H0V-6.80089e-05Z" fill="black"/>
<path d="M0 -6.80089e-05H40V39.9999H0V-6.80089e-05Z" fill="black"/>
<path fill-rule="evenodd" clip-rule="evenodd" d="M0.507812 39.4921H30.1016L10.7344 19.8515L30.8359 19.8749L0.515625 0.507744V39.4921H0.507812Z" fill="#CE0000"/>
<path fill-rule="evenodd" clip-rule="evenodd" d="M0.00781249 -0.419189L32.5775 20.3848L11.9497 20.3607L31.3155 39.9999H0.507812V39.4921H0.00781249V-0.419189ZM1.02344 38.9843H28.8876L9.51906 19.3423L29.0944 19.3651L1.02344 1.43468V38.9843Z" fill="#000063"/>
<path fill-rule="evenodd" clip-rule="evenodd" d="M14.1172 29.0468L12.0078 29.7499L13.6641 31.2968L11.4375 31.1562L12.3516 33.2031L10.3594 32.2421L10.3984 34.4765L8.92969 32.8437L8.09375 34.9218L7.375 32.8671L5.78906 34.4765L5.92969 32.3124L3.82812 33.2031L4.8125 31.2499L2.52344 31.2968L4.20312 29.8671L2.07031 29.0468L4.17969 28.3437L2.51562 26.7968L4.73438 26.9374L3.82812 24.8906L5.82812 25.8515L5.78906 23.6171L7.25781 25.2499L8.09375 23.1718L8.80469 25.2265L10.3984 23.6171L10.25 25.7812L12.3594 24.8906L11.3672 26.8437L13.6641 26.7968L11.9844 28.2265L14.1172 29.0468ZM11.5859 14.6171L10.7031 15.2734L11.1406 15.6327C12.1673 14.9156 12.993 13.9473 13.5391 12.8202C13.6797 14.4843 12.1562 18.2109 8.17188 18.2499C7.44363 18.2592 6.72075 18.1242 6.04496 17.8526C5.36917 17.5811 4.75385 17.1784 4.23452 16.6678C3.71519 16.1571 3.30213 15.5487 3.01917 14.8776C2.73622 14.2065 2.58897 13.486 2.58594 12.7577C3.36719 14.1796 3.85156 14.8671 5.08594 15.6093L5.45312 15.2656L4.625 14.5702L5.69531 14.289L5.11719 13.3202L6.24219 13.3984L6.10156 12.2734L7.08594 12.8515L7.39844 11.7968L8.10156 12.6406L8.76562 11.8359L9.125 12.9296L10.0469 12.289L9.92969 13.4062L11.0391 13.2734L10.5156 14.3046L11.5859 14.6171Z" fill="white"/>
</g>
<defs>
<clipPath id="clip0_17544_65972">
<path d="M0 20C0 8.95431 8.95431 0 20 0C31.0457 0 40 8.95431 40 20C40 31.0457 31.0457 40 20 40C8.95431 40 0 31.0457 0 20Z" fill="white"/>
</clipPath>
</defs>
</svg>
