<svg width="40" height="40" viewBox="0 0 40 40" fill="none" xmlns="http://www.w3.org/2000/svg">
<g clip-path="url(#clip0_17544_65649)">
<path d="M0 0H40V40H0V0Z" fill="#009543"/>
<path d="M0 0H40V26.6641H0V0Z" fill="#ED4135"/>
<path d="M0 0H40V13.3359H0V0Z" fill="#0035AD"/>
<path d="M17.625 33.1094C24.8651 33.1094 30.7344 27.2401 30.7344 20C30.7344 12.7599 24.8651 6.89062 17.625 6.89062C10.3849 6.89062 4.51562 12.7599 4.51562 20C4.51562 27.2401 10.3849 33.1094 17.625 33.1094Z" fill="#FAE600"/>
<path fill-rule="evenodd" clip-rule="evenodd" d="M17.625 7.11328C10.5079 7.11328 4.73828 12.8829 4.73828 20C4.73828 27.1171 10.5079 32.8867 17.625 32.8867C24.7421 32.8867 30.5117 27.1171 30.5117 20C30.5117 12.8829 24.7421 7.11328 17.625 7.11328ZM4.29297 20C4.29297 12.6369 10.2619 6.66797 17.625 6.66797C24.9881 6.66797 30.957 12.6369 30.957 20C30.957 27.3631 24.9881 33.332 17.625 33.332C10.2619 33.332 4.29297 27.3631 4.29297 20Z" fill="black"/>
<path fill-rule="evenodd" clip-rule="evenodd" d="M17.3594 18.4062V6.92188H17.8906V18.4062H19.8516V18.9375H17.8906V21.6875H19.8516V22.2188H17.8906V29.3281H17.3594V22.2188H15.4062V21.6875H17.3594V18.9375H15.4062V18.4062H17.3594Z" fill="black"/>
<path d="M12.3437 32.0312C17.7031 34.2187 22.7187 32.1719 22.7187 32.1719C22.7187 32.1719 20.8203 30.125 19.8516 29.3203C18.9062 28.5391 16.1172 28.5703 15.1641 29.3203C14.3828 29.9453 12.1016 32.25 12.3516 32.0391L12.3437 32.0312Z" fill="#000001"/>
<path d="M17.625 28.1797C18.4362 28.1797 19.0938 27.2248 19.0938 26.0469C19.0938 24.869 18.4362 23.9141 17.625 23.9141C16.8138 23.9141 16.1562 24.869 16.1562 26.0469C16.1562 27.2248 16.8138 28.1797 17.625 28.1797Z" fill="#000001"/>
<path d="M17.625 21.4375C18.6088 21.4375 19.4062 20.9338 19.4062 20.3125C19.4062 19.6912 18.6088 19.1875 17.625 19.1875C16.6412 19.1875 15.8438 19.6912 15.8438 20.3125C15.8438 20.9338 16.6412 21.4375 17.625 21.4375Z" fill="#000001"/>
<path d="M17.625 16.8906C18.6088 16.8906 19.4062 16.0931 19.4062 15.1094C19.4062 14.1256 18.6088 13.3281 17.625 13.3281C16.6412 13.3281 15.8438 14.1256 15.8438 15.1094C15.8438 16.0931 16.6412 16.8906 17.625 16.8906Z" fill="#000001"/>
<path d="M19.7656 8.49219C19.7656 8.49219 19.9219 8.74219 19.5938 9.32812C18.0391 12.1172 16.4922 12.1797 16.1953 12.4141C15.8672 12.6797 15.7266 12.6641 15.7266 12.6641C15.7578 12.4297 15.7734 11.4453 15.7891 11.3516C16.0234 10.0547 18 10.0703 19.5391 8.73438C19.7734 8.52344 19.7578 8.48438 19.7578 8.48438L19.7656 8.49219ZM14.5625 14.4922C14.5625 14.4922 14.9141 15.4844 14.9609 16.4922C15.0469 18.0859 16.5781 18.1328 17.625 18.1328V17.2422C16.8438 17.2422 16.1484 17.1328 15.5859 15.9531C15.288 15.4372 14.9456 14.9484 14.5625 14.4922ZM14.5156 27.3828C14.5156 27.3828 15.0781 26.6797 15.7344 25.0703C15.8849 24.6876 16.1441 24.3572 16.48 24.1198C16.816 23.8825 17.2139 23.7485 17.625 23.7344V22.4844C15.9375 22.4844 15.125 23.1094 15.0469 24.0391C14.8594 25.9141 14.5156 27.375 14.5156 27.375V27.3828ZM20.7031 14.4922C20.7031 14.4922 20.3438 15.4844 20.2969 16.4922C20.2109 18.0938 18.6797 18.1328 17.6328 18.1328V17.25C18.4219 17.25 19.1094 17.1328 19.6797 15.9609C19.9766 15.4375 20.3203 14.9453 20.6953 14.4922H20.7031ZM20.7422 27.3828C20.7422 27.3828 20.1875 26.6875 19.5234 25.0703C19.3717 24.689 19.112 24.3603 18.7761 24.1244C18.4403 23.8885 18.043 23.7556 17.6328 23.7422V22.4922C19.3203 22.4922 20.1328 23.1172 20.2188 24.0391C20.3242 25.1634 20.499 26.2801 20.7422 27.3828Z" fill="#000001"/>
</g>
<defs>
<clipPath id="clip0_17544_65649">
<path d="M0 20C0 8.95431 8.95431 0 20 0C31.0457 0 40 8.95431 40 20C40 31.0457 31.0457 40 20 40C8.95431 40 0 31.0457 0 20Z" fill="white"/>
</clipPath>
</defs>
</svg>
