<svg width="40" height="40" viewBox="0 0 40 40" fill="none" xmlns="http://www.w3.org/2000/svg">
<g clip-path="url(#clip0_17544_66002)">
<path fill-rule="evenodd" clip-rule="evenodd" d="M0 0H40V40H0V0Z" fill="#00247D"/>
<path d="M30.9683 12.1039V13.178L33.1165 12.1039H30.9683Z" fill="white"/>
<path d="M31.3979 13.3928L30.9683 12.5336L33.1165 12.1039L31.3979 13.3928Z" fill="white"/>
<path d="M30.9683 12.1039V13.178L28.8201 12.1039H30.9683Z" fill="white"/>
<path d="M30.5386 13.3928L30.9683 12.5336L28.8201 12.1039L30.5386 13.3928Z" fill="white"/>
<path d="M31.5812 12.5492L30.5597 12.8811L32.245 14.5923L31.5812 12.5492Z" fill="white"/>
<path d="M30.4881 13.3561L31.1726 12.682L32.245 14.5923L30.4881 13.3561Z" fill="white"/>
<path d="M30.3554 12.5492L31.3769 12.8811L31.0192 10.5062L30.3554 12.5492Z" fill="white"/>
<path d="M31.714 12.5389L30.764 12.682L31.0192 10.5062L31.714 12.5389Z" fill="white"/>
<path d="M30.3554 12.5492L31.3769 12.8811L29.6915 14.5923L30.3554 12.5492Z" fill="white"/>
<path d="M31.4484 13.3561L30.764 12.682L29.6915 14.5923L31.4484 13.3561Z" fill="white"/>
<path d="M30.9683 12.3225V13.0323L32.3878 12.3225H30.9683Z" fill="#CC142B"/>
<path d="M31.2522 13.1742L30.9683 12.6064L32.3878 12.3225L31.2522 13.1742Z" fill="#CC142B"/>
<path d="M30.9683 12.3225V13.0323L29.5488 12.3225H30.9683Z" fill="#CC142B"/>
<path d="M30.6844 13.1742L30.9683 12.6064L29.5488 12.3225L30.6844 13.1742Z" fill="#CC142B"/>
<path d="M31.3733 12.6168L30.6983 12.8361L31.8119 13.9668L31.3733 12.6168Z" fill="#CC142B"/>
<path d="M30.651 13.15L31.1033 12.7045L31.8119 13.9668L30.651 13.15Z" fill="#CC142B"/>
<path d="M30.5633 12.6168L31.2383 12.8361L31.0019 11.2667L30.5633 12.6168Z" fill="#CC142B"/>
<path d="M31.461 12.61L30.8333 12.7045L31.0019 11.2667L31.461 12.61Z" fill="#CC142B"/>
<path d="M30.5633 12.6168L31.2383 12.8361L30.1246 13.9668L30.5633 12.6168Z" fill="#CC142B"/>
<path d="M31.2856 13.15L30.8333 12.7045L30.1246 13.9668L31.2856 13.15Z" fill="#CC142B"/>
<path d="M36.5959 17.0637V18.0195L38.5075 17.0637H36.5959Z" fill="white"/>
<path d="M36.9783 18.2107L36.5959 17.4461L38.5075 17.0637L36.9783 18.2107Z" fill="white"/>
<path d="M36.5959 17.0637V18.0195L34.6843 17.0637H36.5959Z" fill="white"/>
<path d="M36.2136 18.2107L36.5959 17.4461L34.6843 17.0637L36.2136 18.2107Z" fill="white"/>
<path d="M37.1413 17.46L36.2323 17.7554L37.7321 19.2781L37.1413 17.46Z" fill="white"/>
<path d="M36.1687 18.178L36.7777 17.5781L37.7321 19.2781L36.1687 18.178Z" fill="white"/>
<path d="M36.0505 17.46L36.9595 17.7554L36.6412 15.642L36.0505 17.46Z" fill="white"/>
<path d="M37.2595 17.4508L36.4141 17.5781L36.6412 15.642L37.2595 17.4508Z" fill="white"/>
<path d="M36.0505 17.46L36.9595 17.7554L35.4598 19.2781L36.0505 17.46Z" fill="white"/>
<path d="M37.0232 18.178L36.4141 17.5781L35.4598 19.2781L37.0232 18.178Z" fill="white"/>
<path d="M36.5959 17.2823V17.8738L37.7789 17.2823H36.5959Z" fill="#CC142B"/>
<path d="M36.8325 17.9921L36.5959 17.5189L37.7789 17.2823L36.8325 17.9921Z" fill="#CC142B"/>
<path d="M36.5959 17.2823V17.8738L35.413 17.2823H36.5959Z" fill="#CC142B"/>
<path d="M36.3593 17.9921L36.5959 17.5189L35.413 17.2823L36.3593 17.9921Z" fill="#CC142B"/>
<path d="M36.9334 17.5276L36.3709 17.7103L37.299 18.6526L36.9334 17.5276Z" fill="#CC142B"/>
<path d="M36.3315 17.9719L36.7084 17.6007L37.299 18.6526L36.3315 17.9719Z" fill="#CC142B"/>
<path d="M36.2584 17.5276L36.8209 17.7103L36.624 16.4025L36.2584 17.5276Z" fill="#CC142B"/>
<path d="M37.0066 17.5219L36.4834 17.6007L36.624 16.4025L37.0066 17.5219Z" fill="#CC142B"/>
<path d="M36.2584 17.5276L36.8209 17.7103L35.8929 18.6526L36.2584 17.5276Z" fill="#CC142B"/>
<path d="M36.8603 17.9719L36.4834 17.6007L35.8929 18.6526L36.8603 17.9719Z" fill="#CC142B"/>
<path d="M24.4111 18.7074V19.7815L26.5593 18.7074H24.4111Z" fill="white"/>
<path d="M24.8407 19.9963L24.4111 19.137L26.5593 18.7074L24.8407 19.9963Z" fill="white"/>
<path d="M24.4111 18.7074V19.7815L22.2629 18.7074H24.4111Z" fill="white"/>
<path d="M23.9814 19.9963L24.4111 19.137L22.2629 18.7074L23.9814 19.9963Z" fill="white"/>
<path d="M25.024 19.1527L24.0025 19.4846L25.6878 21.1957L25.024 19.1527Z" fill="white"/>
<path d="M23.9309 19.9596L24.6154 19.2855L25.6878 21.1957L23.9309 19.9596Z" fill="white"/>
<path d="M23.7982 19.1527L24.8197 19.4846L24.462 17.1096L23.7982 19.1527Z" fill="white"/>
<path d="M25.1568 19.1424L24.2068 19.2855L24.462 17.1096L25.1568 19.1424Z" fill="white"/>
<path d="M23.7982 19.1527L24.8197 19.4846L23.1343 21.1957L23.7982 19.1527Z" fill="white"/>
<path d="M24.8912 19.9596L24.2068 19.2855L23.1343 21.1957L24.8912 19.9596Z" fill="white"/>
<path d="M24.4111 18.926V19.6357L25.8306 18.926H24.4111Z" fill="#CC142B"/>
<path d="M24.695 19.7777L24.4111 19.2099L25.8306 18.926L24.695 19.7777Z" fill="#CC142B"/>
<path d="M24.4111 18.926V19.6357L22.9916 18.926H24.4111Z" fill="#CC142B"/>
<path d="M24.1272 19.7777L24.4111 19.2099L22.9916 18.926L24.1272 19.7777Z" fill="#CC142B"/>
<path d="M24.8161 19.2202L24.1411 19.4396L25.2547 20.5703L24.8161 19.2202Z" fill="#CC142B"/>
<path d="M24.0938 19.7534L24.5461 19.308L25.2547 20.5703L24.0938 19.7534Z" fill="#CC142B"/>
<path d="M24.0061 19.2202L24.6811 19.4396L24.4447 17.8702L24.0061 19.2202Z" fill="#CC142B"/>
<path d="M24.9038 19.2134L24.2761 19.308L24.4447 17.8702L24.9038 19.2134Z" fill="#CC142B"/>
<path d="M24.0061 19.2202L24.6811 19.4396L23.5674 20.5703L24.0061 19.2202Z" fill="#CC142B"/>
<path d="M24.7284 19.7534L24.2761 19.308L23.5674 20.5703L24.7284 19.7534Z" fill="#CC142B"/>
<path d="M30.9683 29.0671V30.2595L33.3531 29.0671H30.9683Z" fill="white"/>
<path d="M31.4452 30.498L30.9683 29.5441L33.3531 29.0671L31.4452 30.498Z" fill="white"/>
<path d="M30.9683 29.0671V30.2595L28.5835 29.0671H30.9683Z" fill="white"/>
<path d="M30.4913 30.498L30.9683 29.5441L28.5835 29.0671L30.4913 30.498Z" fill="white"/>
<path d="M31.6487 29.5615L30.5147 29.93L32.3856 31.8295L31.6487 29.5615Z" fill="white"/>
<path d="M30.4352 30.4573L31.1951 29.7089L32.3856 31.8295L30.4352 30.4573Z" fill="white"/>
<path d="M30.2879 29.5615L31.4219 29.93L31.0248 27.2934L30.2879 29.5615Z" fill="white"/>
<path d="M31.7961 29.55L30.7415 29.7089L31.0248 27.2934L31.7961 29.55Z" fill="white"/>
<path d="M30.2879 29.5615L31.4219 29.93L29.5509 31.8295L30.2879 29.5615Z" fill="white"/>
<path d="M31.5013 30.4573L30.7415 29.7089L29.5509 31.8295L31.5013 30.4573Z" fill="white"/>
<path d="M30.9683 29.2857V30.1138L32.6244 29.2857H30.9683Z" fill="#CC142B"/>
<path d="M31.2995 30.2794L30.9683 29.617L32.6244 29.2857L31.2995 30.2794Z" fill="#CC142B"/>
<path d="M30.9683 29.2857V30.1138L29.3122 29.2857H30.9683Z" fill="#CC142B"/>
<path d="M30.6371 30.2794L30.9683 29.617L29.3122 29.2857L30.6371 30.2794Z" fill="#CC142B"/>
<path d="M31.4408 29.629L30.6533 29.8849L31.9526 31.2041L31.4408 29.629Z" fill="#CC142B"/>
<path d="M30.5981 30.2511L31.1258 29.7314L31.9526 31.2041L30.5981 30.2511Z" fill="#CC142B"/>
<path d="M30.4958 29.629L31.2833 29.8849L31.0075 28.054L30.4958 29.629Z" fill="#CC142B"/>
<path d="M31.5431 29.6211L30.8108 29.7314L31.0075 28.054L31.5431 29.6211Z" fill="#CC142B"/>
<path d="M30.4958 29.629L31.2833 29.8849L29.984 31.2041L30.4958 29.629Z" fill="#CC142B"/>
<path d="M31.3384 30.2511L30.8108 29.7314L29.984 31.2041L31.3384 30.2511Z" fill="#CC142B"/>
<path d="M0 0H20V20H0V0Z" fill="#012169"/>
<path d="M20 0V2.5L12.5781 10L20 17.3047V20H17.3828L9.92188 12.6562L2.65625 20H0V17.3438L7.26562 10.0391L0 2.89062V0H2.42188L9.92188 7.34375L17.1875 0H20Z" fill="white"/>
<path d="M7.1875 12.6562L7.61719 13.9844L1.64062 20H0V19.8828L7.1875 12.6562ZM12.0312 12.1875L14.1406 12.5L20 18.2422V20L12.0312 12.1875ZM20 0L12.5 7.65625L12.3438 5.9375L18.2031 0H20ZM0 0.0390625L7.53906 7.42188L5.23438 7.10938L0 1.91406V0.0390625Z" fill="#C8102E"/>
<path d="M6.875 0V20H13.125V0H6.875ZM0 6.875V13.125H20V6.875H0Z" fill="white"/>
<path d="M0 8.125V11.875H20V8.125H0ZM8.125 0V20H11.875V0H8.125Z" fill="#C8102E"/>
</g>
<defs>
<clipPath id="clip0_17544_66002">
<path d="M0 20C0 8.95431 8.95431 0 20 0C31.0457 0 40 8.95431 40 20C40 31.0457 31.0457 40 20 40C8.95431 40 0 31.0457 0 20Z" fill="white"/>
</clipPath>
</defs>
</svg>
