<svg width="40" height="40" viewBox="0 0 40 40" fill="none" xmlns="http://www.w3.org/2000/svg">
<g clip-path="url(#clip0_17522_60700)">
<path d="M0 0H40V40H0V0Z" fill="#0067C6"/>
<path d="M0 13.3359H40V26.6641H0V13.3359Z" fill="white"/>
<path d="M14 19.9531L14.6641 20L14.6719 19.8984L14.4062 19.8828L14.4297 19.5703L14.7109 19.3672V19.2422L14.4219 19.4531C14.4141 19.3828 14.375 19.3125 14.3047 19.2891C14.2422 19.2656 14.1719 19.2578 14.1172 19.3047C14.0547 19.3516 14.0391 19.4453 14.0313 19.5156L14 19.9531ZM14.1016 19.8672L14.125 19.5391C14.1328 19.4844 14.1406 19.4219 14.1875 19.3828C14.198 19.3745 14.2106 19.3691 14.2238 19.3671C14.2371 19.365 14.2506 19.3664 14.2632 19.3711C14.2757 19.3758 14.2869 19.3837 14.2955 19.3939C14.3041 19.4042 14.31 19.4165 14.3125 19.4297C14.3516 19.5078 14.3359 19.6016 14.3281 19.6875L14.3125 19.8828L14.1016 19.8672ZM14.0859 18.9297L14.7344 19.0859L14.8906 18.4531L14.7891 18.4297L14.6641 18.9766L14.4688 18.9219L14.5781 18.4375L14.4922 18.4141L14.375 18.8984L14.2031 18.8594L14.3203 18.3438L14.2266 18.3203L14.0859 18.9297ZM14.3203 18.0625L14.9453 18.2812L14.9844 18.1875L14.7344 18.1094L14.8359 17.8203C14.8516 17.7422 14.8672 17.6484 14.8203 17.5781C14.8017 17.5518 14.7772 17.5303 14.7486 17.5154C14.7201 17.5004 14.6885 17.4925 14.6563 17.4922C14.5781 17.4922 14.5234 17.5469 14.4922 17.6094C14.4453 17.6953 14.4141 17.7969 14.3828 17.8906L14.3203 18.0625ZM14.4453 18L14.5469 17.7188C14.5625 17.6641 14.5938 17.6094 14.6484 17.5938C14.6953 17.5781 14.75 17.6172 14.75 17.6719C14.7656 17.75 14.7266 17.8438 14.6953 17.9219L14.6484 18.0781L14.4453 18ZM14.6719 17.2578L15.0234 17.4609C15.0938 17.5 15.1797 17.5234 15.25 17.4766C15.3438 17.4297 15.4062 17.3203 15.4531 17.2344C15.4844 17.1562 15.5156 17.0547 15.4688 16.9688C15.4141 16.8906 15.3203 16.8516 15.2422 16.7969L15.0078 16.6641L14.9688 16.7422C15.0781 16.8203 15.1953 16.8828 15.3047 16.9453C15.3594 16.9766 15.4062 17.0391 15.3906 17.1016C15.3774 17.1786 15.3452 17.2511 15.2969 17.3125C15.2578 17.3672 15.1953 17.4062 15.1328 17.3906C15.0547 17.3828 15.0078 17.3359 14.9453 17.3047L14.7109 17.1719L14.6719 17.2578ZM15.1484 16.4766L15.6797 16.875L15.9219 16.5547C15.9688 16.4844 16.0156 16.3984 15.9844 16.3203C15.9701 16.2856 15.9464 16.2556 15.9161 16.2335C15.8858 16.2115 15.8499 16.1982 15.8125 16.1953C15.7812 16.1953 15.7344 16.2109 15.7188 16.2266C15.7344 16.1484 15.6797 16.0859 15.6172 16.0703C15.5391 16.0391 15.4609 16.0938 15.4062 16.1484C15.3438 16.2109 15.2891 16.2891 15.2344 16.3594L15.1484 16.4766ZM15.2813 16.4531L15.4688 16.2188C15.5 16.1797 15.5469 16.1406 15.5938 16.1641C15.6406 16.1875 15.6484 16.2422 15.625 16.2734C15.5938 16.3516 15.5469 16.3984 15.5 16.4609L15.4219 16.5625L15.2813 16.4531ZM15.5 16.6094L15.6875 16.375C15.7266 16.3359 15.7656 16.2891 15.8203 16.2969C15.8672 16.3125 15.8984 16.3594 15.8906 16.4062C15.8594 16.4922 15.7969 16.5625 15.7422 16.6406L15.6641 16.7422L15.5 16.6172V16.6094ZM15.75 15.7656L16.2031 16.25L16.5938 15.875L16.5312 15.8125L16.2188 16.1094H16.2031L15.8125 15.6953L15.75 15.7656ZM16.3359 15.25L16.7422 15.7812L16.8203 15.7188L16.4141 15.1875L16.3359 15.25ZM16.9297 14.8438C16.8685 14.8827 16.8155 14.9331 16.7734 14.9922C16.7337 15.0415 16.7107 15.1022 16.7079 15.1654C16.7051 15.2287 16.7226 15.2911 16.7578 15.3438C16.79 15.3966 16.8359 15.4398 16.8906 15.4688C16.9453 15.4922 17 15.5078 17.0625 15.5C17.1415 15.4853 17.2168 15.4549 17.2839 15.4106C17.351 15.3664 17.4085 15.3091 17.4531 15.2422C17.4835 15.1818 17.4918 15.1127 17.4766 15.0469L17.3828 15.0859C17.4062 15.2188 17.3203 15.2812 17.2266 15.3438C17.0703 15.4297 16.9297 15.4219 16.8359 15.2891C16.75 15.1328 16.8516 15.0078 16.9766 14.9219C17.0703 14.8672 17.1562 14.8281 17.2422 14.8828L17.3203 14.8203C17.2701 14.7854 17.2094 14.7688 17.1484 14.7734C17.0781 14.7734 17.0078 14.7969 16.9297 14.8516V14.8438ZM17.7188 14.4531L17.6484 15.1953L17.7578 15.1562L17.7734 14.9219L18.1172 14.7891L18.2891 14.9453L18.3906 14.8984L17.8281 14.4062L17.7188 14.4531ZM17.8125 14.5312L18.0312 14.7188L17.7812 14.8203L17.8125 14.5312ZM19.1797 14.0391L19.2266 14.7031L19.5859 14.6797C19.6797 14.6719 19.7812 14.6484 19.8438 14.5703C19.8801 14.5218 19.9047 14.4655 19.9156 14.4058C19.9264 14.3462 19.9232 14.2848 19.9062 14.2266C19.8885 14.1758 19.8573 14.1309 19.8161 14.0965C19.7748 14.0621 19.725 14.0396 19.6719 14.0313C19.5781 14.0078 19.4766 14.0234 19.3672 14.0313L19.1797 14.0391ZM19.2812 14.125L19.5703 14.1094C19.6262 14.1065 19.6815 14.123 19.7266 14.1562C19.7597 14.1798 19.7858 14.2118 19.8023 14.2489C19.8188 14.286 19.825 14.3269 19.8203 14.3672C19.8178 14.4129 19.8016 14.4567 19.7737 14.493C19.7458 14.5292 19.7076 14.5562 19.6641 14.5703L19.5078 14.5938L19.3125 14.6016L19.2812 14.125ZM20.1094 14L20.0703 14.6641L20.7188 14.7031V14.6094L20.1719 14.5781L20.1875 14.375L20.6797 14.4062L20.6875 14.3125L20.1953 14.2812V14.1016L20.7344 14.1328V14.0391L20.1094 14ZM21.8516 14.2812L21.6172 14.9062L21.6953 14.9297L21.8906 14.4375V14.4141L21.9062 14.4453L22.1406 15.1016L22.25 15.1484L22.4844 14.5234L22.4062 14.4922L22.2109 14.9844V15.0078L22.1953 14.9844L21.9609 14.3203L21.8516 14.2812ZM22.75 14.6641L22.4375 15.2578L22.3594 15.2109L22.6562 14.6172L22.75 14.6641ZM23.25 14.9609C23.191 14.9201 23.1247 14.8909 23.0547 14.875C22.993 14.859 22.9278 14.8632 22.8687 14.8872C22.8096 14.9111 22.7597 14.9534 22.7266 15.0078C22.6919 15.0562 22.6703 15.1127 22.6641 15.1719C22.6641 15.2344 22.6797 15.2969 22.7109 15.3516C22.7564 15.4154 22.815 15.4686 22.8828 15.5078C22.9609 15.5625 23.0312 15.5859 23.1016 15.5938C23.1797 15.5938 23.2344 15.5781 23.2969 15.5391L23.2188 15.4609C23.1094 15.5391 23.0156 15.4922 22.9219 15.4297C22.7734 15.3359 22.7188 15.1953 22.8047 15.0625C22.9062 14.9062 23.0703 14.9453 23.1953 15.0312C23.2891 15.0859 23.3594 15.1562 23.3516 15.2578L23.4297 15.2969C23.4432 15.2361 23.4349 15.1725 23.4062 15.1172C23.3679 15.053 23.3142 14.9993 23.25 14.9609ZM23.8828 15.4297L23.1875 15.7109L23.2656 15.7891L23.4844 15.7031L23.7656 15.9375L23.7109 16.1719L23.7891 16.2422L23.9688 15.5078L23.8906 15.4297H23.8828ZM23.8594 15.5547L23.7812 15.8359L23.5859 15.6641L23.8594 15.5547ZM24.3906 15.8984L23.875 16.3203L23.9375 16.3984L24.1406 16.2344L24.3438 16.4766L24.2812 16.8125L24.3594 16.9141L24.4219 16.5547C24.4844 16.6016 24.5703 16.6328 24.6328 16.5859C24.6953 16.5625 24.75 16.5078 24.75 16.4375C24.7578 16.3438 24.6953 16.2734 24.6406 16.2031L24.3906 15.8984ZM24.375 16.0312C24.4531 16.125 24.5312 16.2109 24.5938 16.3047C24.625 16.3516 24.6719 16.4141 24.625 16.4688C24.6016 16.5156 24.5312 16.5156 24.4922 16.4844C24.4141 16.4297 24.3594 16.3438 24.2891 16.2734L24.2109 16.1719L24.375 16.0312ZM25.1641 16.9609L24.4141 16.9922L24.4766 17.0938L24.7109 17.0781L24.8906 17.3906L24.7578 17.5938L24.8203 17.6875L25.2266 17.0625L25.1719 16.9609H25.1641ZM25.1016 17.0625L24.9453 17.3047L24.8125 17.0703L25.1016 17.0625ZM25.5938 17.8438C25.5547 17.7266 25.4844 17.6094 25.375 17.5547C25.3127 17.5243 25.242 17.5154 25.1741 17.5296C25.1062 17.5437 25.045 17.58 25 17.6328C24.9219 17.7266 24.9219 17.8516 24.9375 17.9609C24.9604 18.092 25.02 18.2139 25.1094 18.3125L25.0625 18.3281L25.0938 18.4141L25.4062 18.3047L25.2812 17.9688L25.2109 17.9922L25.3047 18.2422L25.1953 18.2812C25.1069 18.1975 25.0469 18.0882 25.0234 17.9688C25 17.875 25 17.7656 25.0703 17.7031C25.1484 17.625 25.2812 17.5938 25.3828 17.6641C25.4654 17.7373 25.5205 17.8365 25.5391 17.9453C25.5625 18.0156 25.5625 18.1016 25.5078 18.1562C25.4922 18.1641 25.5078 18.1797 25.5156 18.1953L25.5469 18.2344C25.5746 18.2117 25.5967 18.1831 25.6116 18.1506C25.6265 18.1181 25.6337 18.0826 25.6328 18.0469C25.6328 17.9766 25.6172 17.9062 25.5938 17.8438ZM25.7891 18.3672L25.4141 18.4375C25.3438 18.4531 25.2969 18.4688 25.2578 18.5C25.2266 18.5312 25.2031 18.5703 25.1875 18.625C25.177 18.6926 25.1797 18.7616 25.1953 18.8281C25.2109 18.9062 25.2344 18.9687 25.2734 19.0156C25.2969 19.0625 25.3359 19.0937 25.375 19.1094C25.4219 19.1172 25.4766 19.125 25.5469 19.1094L25.9141 19.0312L25.8984 18.9375L25.5391 19.0156C25.375 19.0391 25.3203 18.9531 25.2891 18.8125C25.2578 18.6562 25.2812 18.5625 25.4453 18.5312L25.8047 18.4531L25.7891 18.3672ZM25.9922 19.5L25.3047 19.2031V19.3125L25.5234 19.4062L25.5469 19.7656L25.3516 19.8906L25.3594 20L26 19.6094L25.9922 19.5ZM25.8906 19.5625L25.6406 19.7188L25.6172 19.4453L25.8906 19.5625ZM14.5156 21.2266L14.4219 21.25L14.5234 21.6562L14.625 21.6328L14.5156 21.2266ZM25.4844 21.2266L25.5781 21.25L25.4766 21.6562L25.375 21.6328L25.4844 21.2266ZM15.5469 22.9297L14.8047 23.0156L14.8672 23.1094L15.1016 23.0859L15.2969 23.3906L15.1875 23.5938L15.25 23.6875L15.6094 23.0234L15.5469 22.9297ZM15.4922 23.0391L15.3516 23.2969L15.1953 23.0703L15.4922 23.0391ZM15.8359 23.3438L15.3594 23.7812L15.4219 23.8594L15.8203 23.4766L15.6094 24.0547L15.6875 24.1328L16.2578 23.9609L15.8672 24.3281L15.9297 24.3906L16.3984 23.9531L16.3047 23.8438L15.7266 24.0234L15.9453 23.4531L15.8359 23.3438ZM16.5234 24.0469L16.125 24.5781L16.6406 24.9688L16.6953 24.8906L16.2578 24.5625L16.3828 24.4062L16.7734 24.6953L16.8359 24.6172L16.4375 24.3203L16.5469 24.1797L16.9688 24.5L17.0234 24.4219L16.5234 24.0469ZM17.1797 24.5234L16.8672 25.1094L16.9453 25.1562L17.0703 24.9219L17.3594 25.0781L17.4219 25.4141L17.5312 25.4688L17.4609 25.1172C17.5391 25.1406 17.6172 25.125 17.6719 25.0703C17.7109 25.0234 17.7422 24.9531 17.7188 24.8906C17.6953 24.8047 17.6094 24.7578 17.5391 24.7188L17.1797 24.5234ZM17.2188 24.6562L17.5234 24.8125C17.5625 24.8516 17.625 24.8906 17.6172 24.9531C17.6172 25.0078 17.5547 25.0312 17.5078 25.0312C17.4062 25.0078 17.3281 24.9531 17.2422 24.9062L17.1172 24.8438L17.2188 24.6562ZM17.9297 24.9141L17.6797 25.5391L17.7734 25.5703L18.0234 24.9531L17.9297 24.9141ZM18.5312 25.125C18.4636 25.1012 18.392 25.0906 18.3203 25.0938C18.2571 25.0944 18.1957 25.1152 18.1451 25.1531C18.0945 25.1911 18.0574 25.2442 18.0391 25.3047C18.018 25.3621 18.0126 25.4242 18.0234 25.4844C18.0391 25.5469 18.0703 25.6016 18.1172 25.6406C18.1756 25.6939 18.2449 25.7339 18.3203 25.7578C18.4063 25.7891 18.4844 25.7891 18.5547 25.7812C18.6234 25.7669 18.6844 25.728 18.7266 25.6719L18.6406 25.625C18.5469 25.7266 18.4453 25.7031 18.3359 25.6719C18.1719 25.6094 18.0859 25.4922 18.1328 25.3359C18.1875 25.1641 18.3516 25.1641 18.5 25.2109C18.6016 25.2422 18.6875 25.2891 18.7031 25.3906L18.7969 25.3984C18.7892 25.339 18.7617 25.284 18.7188 25.2422C18.6669 25.1882 18.6025 25.148 18.5312 25.125ZM19.2031 25.2812L18.7656 25.8828L18.875 25.8984L19.0078 25.7109L19.3672 25.7656L19.4453 25.9844L19.5547 26L19.3125 25.2969L19.2031 25.2734V25.2812ZM19.2422 25.3906L19.3359 25.6641L19.0703 25.625L19.2422 25.3906ZM20.7656 25.2812C20.6935 25.2938 20.6245 25.3204 20.5625 25.3594C20.5082 25.391 20.4653 25.4391 20.44 25.4966C20.4147 25.5542 20.4084 25.6183 20.4219 25.6797C20.434 25.7376 20.4609 25.7915 20.5 25.8359C20.5391 25.8906 20.5937 25.9141 20.6562 25.9375C20.7188 25.9531 20.7969 25.9531 20.8906 25.9375C20.9686 25.9227 21.0414 25.8877 21.1016 25.8359C21.1548 25.7925 21.1908 25.7316 21.2031 25.6641H21.0938C21.0703 25.7969 20.9688 25.8203 20.8594 25.8516C20.6797 25.8828 20.5469 25.8203 20.5156 25.6641C20.4844 25.4844 20.625 25.3984 20.7734 25.3672C20.875 25.3438 20.9766 25.3438 21.0312 25.4219L21.125 25.3906C21.0908 25.342 21.0413 25.3062 20.9844 25.2891C20.9083 25.2659 20.8275 25.2632 20.75 25.2812H20.7656ZM21.2109 25.2031L21.3984 25.8438L22.0234 25.6562L21.9922 25.5625L21.4688 25.7188L21.4062 25.5312L21.8828 25.3828L21.8594 25.2969L21.3828 25.4375L21.3281 25.2656L21.8359 25.1094L21.8125 25.0234L21.2109 25.2031ZM21.9297 24.9688L22.2109 25.5781L22.2891 25.5391L22.0547 25.0391L22.7031 25.3359H22.75L22.8281 25.2891L22.5547 24.6875L22.4766 24.7266L22.7031 25.2266L22.0391 24.9219L21.9297 24.9688ZM22.6641 24.6328L22.7188 24.7109L22.9531 24.5547L22.9609 24.5469L23.2734 25.0234L23.3516 24.9688L23.0469 24.5V24.4844L23.2891 24.3281L23.2422 24.25L22.6641 24.6328ZM23.3359 24.1641L23.7891 24.6641L23.8594 24.5938L23.6797 24.4062L23.9141 24.1875L24.2578 24.2266L24.3438 24.1484L23.9844 24.1016C24.0312 24.0391 24.0469 23.9453 24.0078 23.8828C23.9766 23.8281 23.9219 23.7812 23.8516 23.7812C23.7578 23.7812 23.6953 23.8438 23.6172 23.9062L23.3359 24.1641ZM23.4688 24.1719L23.7266 23.9375C23.7656 23.9062 23.8359 23.8594 23.8906 23.8984C23.9375 23.9297 23.9375 23.9922 23.9062 24.0391C23.8594 24.1172 23.7812 24.1797 23.7109 24.25L23.6172 24.3281L23.4688 24.1719ZM24.1094 23.3906L24.4062 24.0859L24.4844 24L24.3828 23.7812L24.6172 23.5L24.8438 23.5547L24.9141 23.4609L24.1797 23.3047L24.1094 23.3906ZM24.2266 23.4219L24.5156 23.4766L24.3438 23.6875L24.2266 23.4219ZM24.3984 23.0156L24.9609 23.3828L25.25 22.9297L25.1719 22.875L24.9375 23.2344V23.25L24.9219 23.2422L24.4531 22.9297L24.3984 23.0156Z" fill="#C8A400"/>
<path d="M19.9973 15.0933L15.7506 22.4466H24.2439L19.9973 15.0933Z" fill="black"/>
<path d="M19.9973 15.0933L16.8706 20.5066H23.1239L22.1439 18.8133L19.9973 15.0933Z" fill="white"/>
<path d="M19.9973 15.0933L19.8373 15.3599L19.9973 19.0266L20.1573 15.3599L19.9973 15.0933Z" fill="#17C0EB"/>
<path fill-rule="evenodd" clip-rule="evenodd" d="M19.9973 15.0868L20.1606 15.3591L20.0006 19.0267H19.9939L19.8339 15.3591L19.9973 15.0868ZM19.8406 15.3608L19.9973 18.9501L20.1539 15.3608L19.9973 15.0998L19.8406 15.3608Z" fill="#17C0EB"/>
<path d="M19.9906 18.4999L19.9973 18.6999L20.0039 18.4999H19.9906Z" fill="white"/>
<path d="M23.7444 17.8157L23.4414 17.746L20.0036 19.0312L23.5402 18.0503L23.7444 17.8157Z" fill="#17C0EB"/>
<path fill-rule="evenodd" clip-rule="evenodd" d="M23.7506 17.8137L23.5421 18.0533L20.0045 19.0344L20.0024 19.0281L23.4411 17.7425L23.7506 17.8137ZM23.4416 17.7494L20.0763 19.0076L23.5384 18.0474L23.7383 17.8177L23.4416 17.7494Z" fill="#17C0EB"/>
<path d="M20.5024 18.8621L20.3143 18.9303L20.5066 18.8748L20.5024 18.8621Z" fill="white"/>
<path d="M22.3131 22.2208L22.2858 21.911L20.0012 19.0387L22.027 22.0991L22.3131 22.2208Z" fill="#17C0EB"/>
<path fill-rule="evenodd" clip-rule="evenodd" d="M22.3169 22.226L22.0247 22.1018L19.9984 19.0405L20.0038 19.0366L22.2891 21.9097L22.3169 22.226ZM22.2826 21.9123L20.0461 19.1005L22.0292 22.0964L22.3093 22.2155L22.2826 21.9123Z" fill="#17C0EB"/>
<path d="M20.3161 19.4608L20.1932 19.3029L20.3054 19.4687L20.3161 19.4608Z" fill="white"/>
<path d="M17.6814 22.2208L17.9676 22.0991L19.9933 19.0387L17.7087 21.911L17.6814 22.2208Z" fill="#17C0EB"/>
<path fill-rule="evenodd" clip-rule="evenodd" d="M17.6776 22.226L17.7055 21.9097L19.9907 19.0366L19.9961 19.0405L17.9698 22.1018L17.6776 22.226ZM17.9654 22.0964L19.9484 19.1005L17.7119 21.9123L17.6852 22.2155L17.9654 22.0964Z" fill="#17C0EB"/>
<path d="M19.6892 19.4687L19.8013 19.3029L19.6784 19.4608L19.6892 19.4687Z" fill="white"/>
<path d="M16.2501 17.8157L16.4543 18.0503L19.9909 19.0312L16.5532 17.746L16.2501 17.8157Z" fill="#17C0EB"/>
<path fill-rule="evenodd" clip-rule="evenodd" d="M16.244 17.8137L16.5534 17.7425L19.9921 19.0281L19.99 19.0344L16.4524 18.0533L16.244 17.8137ZM16.4561 18.0474L19.9182 19.0076L16.5529 17.7494L16.2563 17.8177L16.4561 18.0474Z" fill="#17C0EB"/>
<path d="M19.488 18.8748L19.6803 18.9303L19.4921 18.8621L19.488 18.8748Z" fill="white"/>
<path d="M20.5456 15.1316L20.35 15.3734L19.9973 19.0266L20.6669 15.418L20.5456 15.1316Z" fill="#17C0EB"/>
<path fill-rule="evenodd" clip-rule="evenodd" d="M20.5465 15.1252L20.6704 15.4176L20.0015 19.0273L19.9949 19.0263L20.3468 15.3721L20.5465 15.1252ZM20.3533 15.3747L20.0088 18.9509L20.6635 15.4183L20.5447 15.138L20.3533 15.3747Z" fill="#17C0EB"/>
<path d="M20.0649 18.5042L20.0437 18.7032L20.0781 18.506L20.0649 18.5042Z" fill="white"/>
<path d="M23.8774 18.3491L23.587 18.2378L20.0036 19.0312L23.6426 18.553L23.8774 18.3491Z" fill="#17C0EB"/>
<path fill-rule="evenodd" clip-rule="evenodd" d="M23.8838 18.348L23.644 18.5561L20.0043 19.0354L20.0031 19.0288L23.5872 18.2344L23.8838 18.348ZM23.5867 18.2413L20.0791 19.0188L23.6411 18.5498L23.871 18.3502L23.5867 18.2413Z" fill="#17C0EB"/>
<path d="M20.5213 18.9341L20.3255 18.9754L20.5236 18.9472L20.5213 18.9341Z" fill="white"/>
<path d="M21.847 22.5121L21.8631 22.2015L20.0012 19.0387L21.5805 22.3517L21.847 22.5121Z" fill="#17C0EB"/>
<path fill-rule="evenodd" clip-rule="evenodd" d="M21.85 22.5178L21.5779 22.3541L19.9974 19.0406L20.0033 19.0375L21.8664 22.2007L21.85 22.5178ZM21.8597 22.2023L20.0363 19.1067L21.5831 22.3494L21.8439 22.5063L21.8597 22.2023Z" fill="#17C0EB"/>
<path d="M20.2535 19.501L20.1538 19.3276L20.2418 19.5073L20.2535 19.501Z" fill="white"/>
<path d="M17.2603 21.8675L17.5607 21.7868L19.9933 19.0387L17.3305 21.5645L17.2603 21.8675Z" fill="#17C0EB"/>
<path fill-rule="evenodd" clip-rule="evenodd" d="M17.2558 21.8721L17.3274 21.5628L19.9903 19.0356L19.9951 19.0403L17.5625 21.7897L17.2558 21.8721ZM17.5588 21.7838L19.9395 19.0931L17.3335 21.5662L17.2648 21.8628L17.5588 21.7838Z" fill="#17C0EB"/>
<path d="M19.6316 19.4215L19.7657 19.273L19.622 19.4123L19.6316 19.4215Z" fill="white"/>
<path d="M16.456 17.3061L16.6256 17.5668L19.9909 19.0312L16.7658 17.2792L16.456 17.3061Z" fill="#17C0EB"/>
<path fill-rule="evenodd" clip-rule="evenodd" d="M16.4502 17.3032L16.7666 17.2758L19.9929 19.0274L19.9899 19.0334L16.6233 17.5694L16.4502 17.3032ZM16.6278 17.5641L19.9226 18.9968L16.7651 17.2826L16.4619 17.3089L16.6278 17.5641Z" fill="#17C0EB"/>
<path d="M19.515 18.8055L19.6977 18.8871L19.5208 18.7935L19.515 18.8055Z" fill="white"/>
<path d="M21.0833 15.2459L20.856 15.4581L19.9991 19.0268L21.1636 15.5463L21.0833 15.2459Z" fill="#17C0EB"/>
<path fill-rule="evenodd" clip-rule="evenodd" d="M21.0851 15.2397L21.1671 15.5464L20.0024 19.0281L19.9959 19.0261L20.853 15.4564L21.0851 15.2397ZM20.859 15.4599L20.0202 18.9534L21.1601 15.5462L21.0815 15.2521L20.859 15.4599Z" fill="#17C0EB"/>
<path d="M20.1379 18.5188L20.0891 18.7128L20.1507 18.5224L20.1379 18.5188Z" fill="white"/>
<path d="M23.9348 18.8958L23.6628 18.7452L20.0039 19.033L23.6739 19.065L23.9348 18.8958Z" fill="#17C0EB"/>
<path fill-rule="evenodd" clip-rule="evenodd" d="M23.9413 18.8955L23.6749 19.0683L20.0038 19.0366L20.0037 19.0297L23.6635 18.7418L23.9413 18.8955ZM23.662 18.7486L20.0803 19.0304L23.673 19.0616L23.9284 18.896L23.662 18.7486Z" fill="#17C0EB"/>
<path d="M20.53 19.008L20.3304 19.0216L20.5305 19.0213L20.53 19.008Z" fill="white"/>
<path d="M21.3448 22.7356L21.404 22.4303L19.9995 19.0395L21.1033 22.5398L21.3448 22.7356Z" fill="#17C0EB"/>
<path fill-rule="evenodd" clip-rule="evenodd" d="M21.347 22.7417L21.1004 22.5417L19.9961 19.0405L20.0026 19.0382L21.4074 22.43L21.347 22.7417ZM21.4005 22.4307L20.0257 19.1114L21.1061 22.5378L21.3426 22.7295L21.4005 22.4307Z" fill="#17C0EB"/>
<path d="M20.1859 19.5321L20.1113 19.3465L20.1734 19.5367L20.1859 19.5321Z" fill="white"/>
<path d="M16.8925 21.459L17.2012 21.4209L19.992 19.0374L17.0041 21.1687L16.8925 21.459Z" fill="#17C0EB"/>
<path fill-rule="evenodd" clip-rule="evenodd" d="M16.8874 21.4629L17.0014 21.1666L19.99 19.0344L19.9942 19.0399L17.2026 21.424L16.8874 21.4629ZM17.1998 21.4177L19.9318 19.0844L17.0069 21.1708L16.8976 21.455L17.1998 21.4177Z" fill="#17C0EB"/>
<path d="M19.5811 19.3669L19.7346 19.2385L19.5729 19.3564L19.5811 19.3669Z" fill="white"/>
<path d="M16.7309 16.83L16.8625 17.1118L19.9917 19.0295L17.0414 16.8465L16.7309 16.83Z" fill="#17C0EB"/>
<path fill-rule="evenodd" clip-rule="evenodd" d="M16.7255 16.8264L17.0426 16.8432L19.9939 19.0267L19.99 19.0324L16.8599 17.1141L16.7255 16.8264ZM16.8651 17.1095L19.9283 18.9868L17.0402 16.8498L16.7362 16.8337L16.8651 17.1095Z" fill="#17C0EB"/>
<path d="M19.5514 18.7405L19.7209 18.8469L19.5588 18.7295L19.5514 18.7405Z" fill="white"/>
<path d="M21.5998 15.4339L21.3452 15.6124L20.0006 19.0267L21.6375 15.7426L21.5998 15.4339Z" fill="#17C0EB"/>
<path fill-rule="evenodd" clip-rule="evenodd" d="M21.6024 15.428L21.6409 15.7432L20.0031 19.0288L19.9973 19.0266L21.3424 15.6103L21.6024 15.428ZM21.3479 15.6146L20.0311 18.9573L21.6341 15.742L21.5972 15.4398L21.3479 15.6146Z" fill="#17C0EB"/>
<path d="M20.2081 18.5433L20.1328 18.7287L20.2203 18.5487L20.2081 18.5433Z" fill="white"/>
<path d="M23.9157 19.4451L23.6672 19.2581L20.0039 19.033L23.6337 19.5763L23.9157 19.4451Z" fill="#17C0EB"/>
<path fill-rule="evenodd" clip-rule="evenodd" d="M23.9221 19.4458L23.6342 19.5798L20.0033 19.0375L20.0036 19.0312L23.6684 19.2548L23.9221 19.4458ZM23.666 19.2614L20.0799 19.0419L23.6332 19.5729L23.9092 19.4444L23.666 19.2614Z" fill="#17C0EB"/>
<path d="M20.5284 19.0824L20.3288 19.0681L20.527 19.0956L20.5284 19.0824Z" fill="white"/>
<path d="M20.8164 22.8871L20.9175 22.593L19.9984 19.0405L20.6045 22.6596L20.8164 22.8871Z" fill="#17C0EB"/>
<path fill-rule="evenodd" clip-rule="evenodd" d="M20.8178 22.8935L20.6014 22.6611L19.9951 19.0403L20.0012 19.0387L20.921 22.5932L20.8178 22.8935ZM20.914 22.5929L20.0145 19.1146L20.6076 22.658L20.8151 22.8808L20.914 22.5929Z" fill="#17C0EB"/>
<path d="M20.1147 19.5535L20.0666 19.3593L20.1016 19.5563L20.1147 19.5535Z" fill="white"/>
<path d="M16.5851 21.0033L16.8961 21.0085L19.9907 19.0366L16.7361 20.7314L16.5851 21.0033Z" fill="#17C0EB"/>
<path fill-rule="evenodd" clip-rule="evenodd" d="M16.5795 21.0065L16.7337 20.7289L19.9899 19.0334L19.9933 19.0387L16.897 21.0118L16.5795 21.0065ZM16.8951 21.0051L19.9253 19.0748L16.7385 20.7338L16.5907 21L16.8951 21.0051Z" fill="#17C0EB"/>
<path d="M19.5387 19.3057L19.7086 19.1999L19.5321 19.2941L19.5387 19.3057Z" fill="white"/>
<path d="M17.0693 16.3969L17.1604 16.6942L19.9921 19.0281L17.3745 16.4564L17.0693 16.3969Z" fill="#17C0EB"/>
<path fill-rule="evenodd" clip-rule="evenodd" d="M17.0645 16.3926L17.3761 16.4533L19.9949 19.0263L19.9909 19.0312L17.1575 16.6962L17.0645 16.3926ZM17.1633 16.6923L19.9355 18.9776L17.3729 16.4595L17.0741 16.4012L17.1633 16.6923Z" fill="#17C0EB"/>
<path d="M19.5965 18.6813L19.7496 18.8102L19.6054 18.6714L19.5965 18.6813Z" fill="white"/>
<path d="M22.0851 15.692L21.8081 15.8333L20.0006 19.0267L22.0795 16.0029L22.0851 15.692Z" fill="#17C0EB"/>
<path fill-rule="evenodd" clip-rule="evenodd" d="M22.0886 15.6865L22.0828 16.004L20.0031 19.0288L19.9973 19.0266L21.8057 15.8308L22.0886 15.6865ZM21.8105 15.8358L20.0413 18.9628L22.0762 16.0018L22.0817 15.6975L21.8105 15.8358Z" fill="#17C0EB"/>
<path d="M20.2742 18.5774L20.1739 18.7506L20.2855 18.5845L20.2742 18.5774Z" fill="white"/>
<path d="M23.8202 19.9864L23.6002 19.7667L20.0043 19.0354L23.5228 20.0772L23.8202 19.9864Z" fill="#17C0EB"/>
<path fill-rule="evenodd" clip-rule="evenodd" d="M23.8265 19.988L23.5228 20.0806L20.0026 19.0382L20.0036 19.0312L23.6018 19.7636L23.8265 19.988ZM23.5985 19.7697L20.0779 19.0534L23.5227 20.0737L23.8139 19.9849L23.5985 19.7697Z" fill="#17C0EB"/>
<path d="M20.5164 19.1558L20.3207 19.1139L20.5131 19.1688L20.5164 19.1558Z" fill="white"/>
<path d="M20.2721 22.9636L20.4131 22.6865L19.9984 19.0405L20.0939 22.7088L20.2721 22.9636Z" fill="#17C0EB"/>
<path fill-rule="evenodd" clip-rule="evenodd" d="M20.2726 22.9701L20.0906 22.7099L19.9942 19.0399L20.0012 19.0387L20.4165 22.6871L20.2726 22.9701ZM20.4097 22.6859L20.0031 19.1162L20.0972 22.7077L20.2716 22.9572L20.4097 22.6859Z" fill="#17C0EB"/>
<path d="M20.0411 19.5648L20.0205 19.3658L20.0278 19.5658L20.0411 19.5648Z" fill="white"/>
<path d="M16.3442 20.5092L16.6514 20.5577L19.9907 19.0366L16.5315 20.261L16.3442 20.5092Z" fill="#17C0EB"/>
<path fill-rule="evenodd" clip-rule="evenodd" d="M16.3382 20.5116L16.5294 20.2582L19.99 19.0324L19.9933 19.0387L16.6518 20.5611L16.3382 20.5116ZM16.6509 20.5542L19.9202 19.0644L16.5335 20.2638L16.3502 20.5068L16.6509 20.5542Z" fill="#17C0EB"/>
<path d="M19.5053 19.2392L19.6882 19.1581L19.5003 19.2269L19.5053 19.2392Z" fill="white"/>
<path d="M17.4647 16.0151L17.5135 16.3222L19.9929 19.0274L17.7587 16.1165L17.4647 16.0151Z" fill="#17C0EB"/>
<path fill-rule="evenodd" clip-rule="evenodd" d="M17.4605 16.0101L17.7607 16.1137L19.9959 19.0261L19.9909 19.0312L17.5104 16.3237L17.4605 16.0101ZM17.5167 16.3207L19.9438 18.9696L17.7566 16.1193L17.4689 16.02L17.5167 16.3207Z" fill="#17C0EB"/>
<path d="M19.6493 18.629L19.783 18.7779L19.6596 18.6204L19.6493 18.629Z" fill="white"/>
<path d="M22.5298 16.0151L22.2359 16.1165L20.0024 19.0281L22.481 16.3222L22.5298 16.0151Z" fill="#17C0EB"/>
<path fill-rule="evenodd" clip-rule="evenodd" d="M22.534 16.0101L22.4841 16.3237L20.0037 19.0297L19.9991 19.0268L22.2338 16.1137L22.534 16.0101ZM22.2379 16.1193L20.0507 18.9696L22.4779 16.3207L22.5257 16.02L22.2379 16.1193Z" fill="#17C0EB"/>
<path d="M20.335 18.6204L20.2115 18.7779L20.3452 18.629L20.335 18.6204Z" fill="white"/>
<path d="M23.6504 20.5092L23.463 20.261L20.0038 19.0366L23.3432 20.5577L23.6504 20.5092Z" fill="#17C0EB"/>
<path fill-rule="evenodd" clip-rule="evenodd" d="M23.6564 20.5116L23.3427 20.5611L20.0012 19.0387L20.0039 19.033L23.4651 20.2582L23.6564 20.5116ZM23.461 20.2638L20.0743 19.0644L23.3436 20.5542L23.6444 20.5068L23.461 20.2638Z" fill="#17C0EB"/>
<path d="M20.4943 19.2269L20.3063 19.1581L20.4893 19.2392L20.4943 19.2269Z" fill="white"/>
<path d="M19.7224 22.9636L19.9006 22.7088L19.9961 19.0405L19.5814 22.6865L19.7224 22.9636Z" fill="#17C0EB"/>
<path fill-rule="evenodd" clip-rule="evenodd" d="M19.722 22.9701L19.578 22.6871L19.9933 19.0387L19.9995 19.0395L19.9039 22.7099L19.722 22.9701ZM19.8973 22.7077L19.9915 19.1162L19.5848 22.6859L19.7229 22.9572L19.8973 22.7077Z" fill="#17C0EB"/>
<path d="M19.9667 19.5658L19.974 19.3658L19.9534 19.5648L19.9667 19.5658Z" fill="white"/>
<path d="M16.1743 19.9864L16.4718 20.0772L19.9903 19.0356L16.3944 19.7667L16.1743 19.9864Z" fill="#17C0EB"/>
<path fill-rule="evenodd" clip-rule="evenodd" d="M16.168 19.988L16.3927 19.7636L19.99 19.0324L19.992 19.0374L16.4718 20.0806L16.168 19.988ZM16.4718 20.0737L19.9166 19.0534L16.396 19.7697L16.1806 19.9849L16.4718 20.0737Z" fill="#17C0EB"/>
<path d="M19.4814 19.1688L19.6738 19.1139L19.4782 19.1558L19.4814 19.1688Z" fill="white"/>
<path d="M17.9094 15.692L17.915 16.0029L19.9939 19.0267L18.1864 15.8333L17.9094 15.692Z" fill="#17C0EB"/>
<path fill-rule="evenodd" clip-rule="evenodd" d="M17.906 15.6865L18.1888 15.8308L19.9959 19.0261L19.9917 19.0295L17.9117 16.004L17.906 15.6865ZM17.9183 16.0018L19.9532 18.9628L18.184 15.8358L17.9128 15.6975L17.9183 16.0018Z" fill="#17C0EB"/>
<path d="M19.709 18.5845L19.8206 18.7506L19.7203 18.5774L19.709 18.5845Z" fill="white"/>
<path d="M22.9252 16.3969L22.62 16.4564L20.0024 19.0281L22.8341 16.6942L22.9252 16.3969Z" fill="#17C0EB"/>
<path fill-rule="evenodd" clip-rule="evenodd" d="M22.9301 16.3926L22.837 16.6962L20.0036 19.0312L20.0006 19.0267L22.6184 16.4533L22.9301 16.3926ZM22.6216 16.4595L20.059 18.9776L22.8312 16.6923L22.9204 16.4012L22.6216 16.4595Z" fill="#17C0EB"/>
<path d="M20.3891 18.6714L20.245 18.8102L20.3981 18.6813L20.3891 18.6714Z" fill="white"/>
<path d="M23.4094 21.0033L23.2585 20.7314L20.0033 19.0375L23.0985 21.0085L23.4094 21.0033Z" fill="#17C0EB"/>
<path fill-rule="evenodd" clip-rule="evenodd" d="M23.415 21.0065L23.0975 21.0118L20.0012 19.0387L20.0045 19.0344L23.2609 20.7289L23.415 21.0065ZM23.256 20.7338L20.0693 19.0748L23.0994 21.0051L23.4038 21L23.256 20.7338Z" fill="#17C0EB"/>
<path d="M20.4625 19.2942L20.2859 19.1999L20.4558 19.3057L20.4625 19.2942Z" fill="white"/>
<path d="M19.1781 22.8871L19.39 22.6596L19.9961 19.0405L19.077 22.593L19.1781 22.8871Z" fill="#17C0EB"/>
<path fill-rule="evenodd" clip-rule="evenodd" d="M19.1768 22.8935L19.0736 22.5932L19.9933 19.0387L19.9995 19.0395L19.3932 22.6611L19.1768 22.8935ZM19.3869 22.658L19.98 19.1146L19.0805 22.5929L19.1794 22.8808L19.3869 22.658Z" fill="#17C0EB"/>
<path d="M19.8929 19.5563L19.928 19.3593L19.8799 19.5536L19.8929 19.5563Z" fill="white"/>
<path d="M16.0789 19.4451L16.3608 19.5763L19.99 19.0344L16.3273 19.2581L16.0789 19.4451Z" fill="#17C0EB"/>
<path fill-rule="evenodd" clip-rule="evenodd" d="M16.0724 19.4458L16.3261 19.2548L19.9909 19.0312L19.9907 19.0366L16.3603 19.5798L16.0724 19.4458ZM16.3613 19.5729L19.9146 19.0419L16.3285 19.2614L16.0853 19.4444L16.3613 19.5729Z" fill="#17C0EB"/>
<path d="M19.4676 19.0956L19.6658 19.0681L19.4662 19.0824L19.4676 19.0956Z" fill="white"/>
<path d="M18.3947 15.4339L18.357 15.7426L19.9949 19.0263L18.6494 15.6124L18.3947 15.4339Z" fill="#17C0EB"/>
<path fill-rule="evenodd" clip-rule="evenodd" d="M18.3921 15.428L18.6521 15.6103L19.9973 19.0266L19.9917 19.0295L18.3536 15.7432L18.3921 15.428ZM18.3605 15.742L19.9635 18.9573L18.6466 15.6146L18.3974 15.4398L18.3605 15.742Z" fill="#17C0EB"/>
<path d="M19.7743 18.5487L19.8617 18.7287L19.7864 18.5433L19.7743 18.5487Z" fill="white"/>
<path d="M23.2637 16.83L22.9531 16.8465L20.0031 19.0288L23.1321 17.1118L23.2637 16.83Z" fill="#17C0EB"/>
<path fill-rule="evenodd" clip-rule="evenodd" d="M23.269 16.8264L23.1347 17.1141L20.0039 19.033L20.0006 19.0267L22.9519 16.8432L23.269 16.8264ZM22.9543 16.8498L20.0662 18.9868L23.1295 17.1095L23.2583 16.8337L22.9543 16.8498Z" fill="#17C0EB"/>
<path d="M20.4357 18.7295L20.2736 18.8469L20.4431 18.7406L20.4357 18.7295Z" fill="white"/>
<path d="M23.102 21.459L22.9904 21.1687L20.0026 19.0382L22.7934 21.4209L23.102 21.459Z" fill="#17C0EB"/>
<path fill-rule="evenodd" clip-rule="evenodd" d="M23.1071 21.4629L22.792 21.424L19.9995 19.0395L20.0045 19.0344L22.9931 21.1666L23.1071 21.4629ZM22.9876 21.1708L20.0628 19.0844L22.7948 21.4177L23.0969 21.455L22.9876 21.1708Z" fill="#17C0EB"/>
<path d="M20.4216 19.3564L20.2599 19.2385L20.4134 19.3669L20.4216 19.3564Z" fill="white"/>
<path d="M18.6497 22.7356L18.8913 22.5398L19.9951 19.0403L18.5906 22.4303L18.6497 22.7356Z" fill="#17C0EB"/>
<path fill-rule="evenodd" clip-rule="evenodd" d="M18.6475 22.7417L18.5871 22.43L19.992 19.0374L19.9984 19.0405L18.8941 22.5417L18.6475 22.7417ZM18.8884 22.5378L19.9688 19.1114L18.594 22.4307L18.6519 22.7295L18.8884 22.5378Z" fill="#17C0EB"/>
<path d="M19.8211 19.5367L19.8833 19.3465L19.8086 19.5321L19.8211 19.5367Z" fill="white"/>
<path d="M16.0597 18.8958L16.3206 19.065L19.99 19.0324L16.3318 18.7452L16.0597 18.8958Z" fill="#17C0EB"/>
<path fill-rule="evenodd" clip-rule="evenodd" d="M16.0532 18.8955L16.331 18.7418L19.9917 19.0295L19.9907 19.0366L16.3196 19.0683L16.0532 18.8955ZM16.3216 19.0616L19.9142 19.0304L16.3325 18.7486L16.0662 18.896L16.3216 19.0616Z" fill="#17C0EB"/>
<path d="M19.464 19.0213L19.6641 19.0216L19.4645 19.008L19.464 19.0213Z" fill="white"/>
<path d="M18.9113 15.2459L18.831 15.5463L19.9959 19.0261L19.1386 15.4581L18.9113 15.2459Z" fill="#17C0EB"/>
<path fill-rule="evenodd" clip-rule="evenodd" d="M18.9095 15.2397L19.1416 15.4564L19.9991 19.0268L19.9929 19.0274L18.8275 15.5464L18.9095 15.2397ZM18.8344 15.5462L19.9744 18.9534L19.1356 15.4599L18.913 15.2521L18.8344 15.5462Z" fill="#17C0EB"/>
<path d="M19.8439 18.5224L19.9054 18.7128L19.8567 18.5187L19.8439 18.5224Z" fill="white"/>
<path d="M23.5385 17.3061L23.2287 17.2792L20.0036 19.0312L23.369 17.5668L23.5385 17.3061Z" fill="#17C0EB"/>
<path fill-rule="evenodd" clip-rule="evenodd" d="M23.5443 17.3032L23.3712 17.5694L20.0039 19.033L20.0015 19.0273L23.228 17.2758L23.5443 17.3032ZM23.2294 17.2826L20.072 18.9968L23.3667 17.5641L23.5327 17.3089L23.2294 17.2826Z" fill="#17C0EB"/>
<path d="M20.4737 18.7935L20.2969 18.8871L20.4795 18.8055L20.4737 18.7935Z" fill="white"/>
<path d="M22.7342 21.8674L22.6641 21.5645L20.0012 19.0387L22.4339 21.7868L22.7342 21.8674Z" fill="#17C0EB"/>
<path fill-rule="evenodd" clip-rule="evenodd" d="M22.7387 21.8721L22.432 21.7897L19.9995 19.0395L20.0043 19.0354L22.6671 21.5628L22.7387 21.8721ZM22.661 21.5662L20.055 19.0931L22.4357 21.7838L22.7297 21.8628L22.661 21.5662Z" fill="#17C0EB"/>
<path d="M20.3725 19.4123L20.2288 19.273L20.363 19.4215L20.3725 19.4123Z" fill="white"/>
<path d="M18.1476 22.5121L18.414 22.3517L19.9942 19.0399L18.1315 22.2015L18.1476 22.5121Z" fill="#17C0EB"/>
<path fill-rule="evenodd" clip-rule="evenodd" d="M18.1445 22.5178L18.1281 22.2007L19.992 19.0374L19.9974 19.0406L18.4166 22.3541L18.1445 22.5178ZM18.4114 22.3494L19.9582 19.1067L18.1349 22.2023L18.1506 22.5063L18.4114 22.3494Z" fill="#17C0EB"/>
<path d="M19.7528 19.5073L19.8408 19.3276L19.741 19.501L19.7528 19.5073Z" fill="white"/>
<path d="M16.1171 18.3491L16.352 18.553L19.99 19.0324L16.4075 18.2378L16.1171 18.3491Z" fill="#17C0EB"/>
<path fill-rule="evenodd" clip-rule="evenodd" d="M16.1108 18.348L16.4073 18.2344L19.9917 19.0295L19.9903 19.0356L16.3505 18.5561L16.1108 18.348ZM16.3534 18.5498L19.9154 19.0188L16.4078 18.2413L16.1235 18.3502L16.3534 18.5498Z" fill="#17C0EB"/>
<path d="M19.4709 18.9472L19.669 18.9754L19.4732 18.9341L19.4709 18.9472Z" fill="white"/>
<path d="M19.4489 15.1316L19.3276 15.418L19.9959 19.0261L19.6445 15.3734L19.4489 15.1316Z" fill="#17C0EB"/>
<path fill-rule="evenodd" clip-rule="evenodd" d="M19.448 15.1252L19.6477 15.3721L19.9991 19.0268L19.9929 19.0274L19.3241 15.4176L19.448 15.1252ZM19.3311 15.4183L19.9857 18.9509L19.6413 15.3747L19.4498 15.138L19.3311 15.4183Z" fill="#17C0EB"/>
<path d="M19.9164 18.506L19.9509 18.7032L19.9296 18.5042L19.9164 18.506Z" fill="white"/>
<path d="M19.9973 17.7199C19.2871 17.7191 18.6006 17.9748 18.0639 18.4399L17.0906 20.1333C17.0557 20.3157 17.0379 20.5009 17.0373 20.6866H17.3706C17.4045 20.0137 17.6957 19.3796 18.184 18.9153C18.6722 18.4511 19.3202 18.1922 19.9939 18.1922C20.6677 18.1922 21.3156 18.4511 21.8039 18.9153C22.2921 19.3796 22.5833 20.0137 22.6173 20.6866H22.9506C22.9522 20.5011 22.9366 20.3159 22.9039 20.1333L21.9306 18.4399C21.3937 17.9753 20.7073 17.7197 19.9973 17.7199Z" fill="#FF0000"/>
<path d="M19.9973 17.7799C19.2438 17.7784 18.5194 18.07 17.9773 18.5933L17.1773 19.9866C17.1206 20.2134 17.0915 20.4462 17.0906 20.6799H17.3773C17.4246 20.0173 17.7211 19.3973 18.2073 18.9446C18.6934 18.492 19.333 18.2403 19.9973 18.2403C20.6615 18.2403 21.3011 18.492 21.7873 18.9446C22.2734 19.3973 22.57 20.0173 22.6173 20.6799H22.9039C22.9034 20.4439 22.8743 20.2089 22.8173 19.9799L22.0173 18.5933C21.4751 18.07 20.7507 17.7784 19.9973 17.7799Z" fill="#FF6600"/>
<path d="M19.9973 17.8333C19.5945 17.8322 19.196 17.9166 18.8283 18.081C18.4605 18.2453 18.1318 18.4858 17.8639 18.7866L17.2839 19.7866C17.1915 20.0775 17.1465 20.3814 17.1506 20.6866H17.3706C17.4045 20.0137 17.6957 19.3796 18.184 18.9153C18.6722 18.4511 19.3202 18.1922 19.9939 18.1922C20.6677 18.1922 21.3156 18.4511 21.8039 18.9153C22.2921 19.3796 22.5833 20.0137 22.6173 20.6866H22.8506C22.8506 20.3733 22.7973 20.0733 22.7106 19.7933L22.1239 18.7866C21.857 18.4863 21.5295 18.2461 21.1629 18.0817C20.7963 17.9174 20.399 17.8327 19.9973 17.8333Z" fill="#FFFF00"/>
<path d="M19.9973 17.8866C19.5374 17.8864 19.0846 17.9994 18.6789 18.2156C18.2731 18.4319 17.9268 18.7448 17.6706 19.1266L17.4839 19.4533C17.295 19.8369 17.1969 20.2589 17.1973 20.6866H17.3773C17.4246 20.024 17.7211 19.404 18.2073 18.9513C18.6934 18.4986 19.333 18.247 19.9973 18.247C20.6615 18.247 21.3011 18.4986 21.7873 18.9513C22.2734 19.404 22.57 20.024 22.6173 20.6866H22.7973C22.7976 20.2589 22.6995 19.8369 22.5106 19.4533L22.3239 19.1199C22.0677 18.7381 21.7215 18.4252 21.3157 18.2089C20.9099 17.9927 20.4571 17.8797 19.9973 17.8799V17.8866Z" fill="#00FF00"/>
<path d="M19.9973 17.9333C19.636 17.9333 19.2783 18.0045 18.9446 18.143C18.6109 18.2814 18.3079 18.4843 18.0527 18.7401C17.7976 18.9959 17.5954 19.2994 17.4578 19.6334C17.3201 19.9674 17.2497 20.3253 17.2506 20.6866L17.3773 20.6866C17.4246 20.024 17.7211 19.404 18.2073 18.9513C18.6934 18.4986 19.333 18.247 19.9973 18.247C20.6615 18.247 21.3011 18.4986 21.7873 18.9513C22.2734 19.404 22.57 20.024 22.6173 20.6866L22.7439 20.6866C22.7448 20.3253 22.6744 19.9674 22.5368 19.6334C22.3991 19.2994 22.1969 18.9959 21.9418 18.7401C21.6867 18.4843 21.3836 18.2814 21.0499 18.143C20.7162 18.0045 20.3585 17.9333 19.9973 17.9333Z" fill="#00CCFF"/>
<path d="M19.9973 17.9866C19.283 17.9866 18.5979 18.2704 18.0928 18.7755C17.5877 19.2805 17.3039 19.9656 17.3039 20.6799H17.3973C17.3973 19.9904 17.6712 19.329 18.1588 18.8414C18.6464 18.3539 19.3077 18.0799 19.9973 18.0799C20.6868 18.0799 21.3481 18.3539 21.8357 18.8414C22.3233 19.329 22.5973 19.9904 22.5973 20.6799H22.6906C22.6871 19.9679 22.4017 19.2863 21.897 18.7841C21.3923 18.2818 20.7093 17.9999 19.9973 17.9999V17.9866Z" fill="#0000FF"/>
<path d="M19.9973 18.0466C19.6466 18.0465 19.2995 18.1163 18.9761 18.2519C18.6527 18.3875 18.3596 18.5861 18.1138 18.8363C17.868 19.0864 17.6746 19.3829 17.5447 19.7086C17.4148 20.0343 17.3511 20.3827 17.3573 20.7333H17.4106V20.6799C17.4177 19.9939 17.697 19.3388 18.1871 18.8587C18.6772 18.3786 19.3379 18.1129 20.0239 18.1199C20.71 18.127 21.3651 18.4063 21.8452 18.8964C22.3253 19.3865 22.591 20.0472 22.5839 20.7333H22.6373V20.6799C22.6373 20.3332 22.569 19.9899 22.4363 19.6696C22.3036 19.3493 22.1092 19.0583 21.864 18.8132C21.6189 18.568 21.3278 18.3736 21.0075 18.2409C20.6872 18.1082 20.344 18.0399 19.9973 18.0399V18.0466Z" fill="#800080"/>
<path d="M20.0239 19.2066C19.9773 19.2066 19.9439 19.1733 19.9039 19.1666C19.8845 19.1837 19.8699 19.2057 19.8617 19.2303C19.8535 19.2549 19.852 19.2812 19.8573 19.3066C19.8773 19.3133 19.8773 19.3333 19.9173 19.3666C19.9573 19.3999 19.9506 19.4133 19.9439 19.4999C19.9439 19.5266 19.9506 19.5999 19.9839 19.6066C20.0173 19.6133 20.0506 19.5866 20.0573 19.5266C20.0639 19.4799 20.0839 19.4466 20.1039 19.4199C20.1239 19.2933 20.0906 19.2466 20.0239 19.2066Z" fill="#510000"/>
<path d="M19.8106 18.8999C19.7706 18.8999 19.7039 18.9666 19.6773 18.9333C19.6639 18.9133 19.6573 18.8733 19.6773 18.8399C19.7073 18.7736 19.759 18.7195 19.8239 18.6866C19.9773 18.5933 20.0839 18.6199 20.1573 18.7533C20.2306 18.8733 20.3039 19.0066 20.3106 19.1133C20.3106 19.1466 20.3306 19.2066 20.2973 19.2399C20.2106 19.3333 19.9906 19.1399 19.8639 19.1733C19.8239 19.1799 19.7706 19.2133 19.7306 19.1866C19.7039 19.1666 19.7306 19.1199 19.7506 19.0999C19.7906 19.0666 19.8506 18.9399 19.8439 18.8866C19.8439 18.8599 19.8439 18.8999 19.8106 18.8999Z" fill="#FF0000"/>
<path d="M19.7973 18.8399C19.7173 18.8666 19.7306 18.9066 19.6906 18.9399C19.7039 18.9466 19.7439 18.9599 19.7839 18.9199C19.7973 18.9066 19.8173 18.8999 19.8306 18.8999L19.7839 18.9466C19.7443 18.9792 19.7125 19.0202 19.6906 19.0666C19.6706 19.1199 19.6639 19.1799 19.6706 19.1866C19.6706 19.1866 19.6973 19.2399 19.7706 19.2666C19.9039 19.3199 19.9306 19.4333 20.0706 19.4333C20.1773 19.4333 20.1639 19.3599 20.2506 19.3733C20.3173 19.3866 20.3639 19.3266 20.2906 19.2933C20.1717 19.2699 20.0495 19.2699 19.9306 19.2933C19.9039 19.0266 19.9306 19.1199 19.9239 18.9999C19.9173 18.8866 19.8773 18.8799 19.9239 18.7799C19.8906 18.8466 19.8439 18.8333 19.7906 18.8333L19.7973 18.8399Z" fill="url(#paint0_linear_17522_60700)"/>
<path d="M20.0639 18.6533L20.0573 18.6933L20.0773 18.7599L20.0906 18.8266C20.0906 18.8466 20.1173 18.8533 20.1373 18.8666C20.1639 18.8866 20.1373 18.9333 20.1573 18.9399C20.1706 18.9399 20.1906 18.8733 20.1906 18.8599V18.8133C20.1802 18.7929 20.169 18.7729 20.1573 18.7533C20.1532 18.7464 20.1487 18.7397 20.1439 18.7333C20.1291 18.7108 20.1112 18.6906 20.0906 18.6733C20.0841 18.6685 20.0775 18.6641 20.0706 18.6599L20.0573 18.6533H20.0639Z" fill="#FF2A2A"/>
<path d="M20.0839 19.1599L19.9506 19.1133C19.8639 19.0866 19.7773 19.0333 19.7173 19.0599C19.6973 19.0666 19.6973 19.0866 19.6906 19.1199C19.6906 19.1533 19.6573 19.2066 19.6906 19.1866C19.7306 19.1599 19.8506 19.2399 19.8906 19.2599C19.9106 19.2733 19.9573 19.2999 19.9639 19.3266C19.9773 19.3666 19.9639 19.4466 19.9639 19.4866C19.9639 19.5199 19.9773 19.6066 20.0106 19.6199C20.0506 19.6266 20.0839 19.5933 20.0973 19.5333C20.1173 19.4733 20.1239 19.4399 20.1506 19.4066C20.1773 19.3733 20.2039 19.3533 20.2373 19.3466C20.2773 19.3466 20.3306 19.3799 20.3306 19.3333C20.3306 19.3066 20.3039 19.2799 20.3173 19.2399C20.3239 19.2066 20.2906 19.2133 20.2573 19.1999L20.0839 19.1599Z" fill="url(#paint1_linear_17522_60700)"/>
<path d="M19.8906 19.2599C19.8639 19.2466 19.7373 19.1599 19.6906 19.1933C19.6706 19.1933 19.6639 19.1933 19.6639 19.1733L19.6773 19.1133C19.6773 19.0933 19.6906 19.0599 19.7106 19.0466C19.7573 19.0066 19.8639 19.0799 19.9173 19.0999L19.8906 19.2599Z" fill="#910000"/>
<path d="M20.1173 19.4266C20.1773 19.3199 20.2173 19.3333 20.2906 19.3333C20.3173 19.3333 20.3239 19.3133 20.3173 19.2866C20.2973 19.3266 20.2039 19.2866 20.1506 19.3066C20.0506 19.3533 20.0706 19.5533 20.0173 19.5733C20.0706 19.6199 20.0906 19.4599 20.1173 19.4266Z" fill="#FF3A3A"/>
<path d="M16.8706 20.5066L16.2039 21.6599H23.7973L23.1306 20.5133H16.8773L16.8706 20.5066Z" fill="white"/>
<path d="M16.6439 21.4266C16.5392 21.4264 16.4345 21.4331 16.3306 21.4466L16.2973 21.5066C16.4573 21.4866 16.6106 21.4599 16.7773 21.4599C16.9906 21.4599 17.1906 21.5133 17.4239 21.5133H17.7306C17.9639 21.5133 18.1573 21.4599 18.3773 21.4599C18.5973 21.4599 18.7973 21.5133 19.0306 21.5133H19.3373C19.5706 21.5133 19.7639 21.4599 19.9839 21.4599C20.2039 21.4599 20.4039 21.5133 20.6373 21.5133H20.9373C21.1706 21.5133 21.3706 21.4599 21.5906 21.4599C21.8106 21.4599 22.0106 21.5133 22.2439 21.5133H22.5439C22.7773 21.5133 22.9773 21.4599 23.1973 21.4599C23.3706 21.4599 23.5306 21.4932 23.6973 21.5066L23.6639 21.4399C23.5665 21.4298 23.4685 21.4254 23.3706 21.4266H23.0706C22.8373 21.4266 22.6373 21.4732 22.4173 21.4799C22.1973 21.4799 21.9973 21.4266 21.7639 21.4266H21.4639C21.2306 21.4266 21.0306 21.4732 20.8106 21.4799C20.5906 21.4799 20.3906 21.4266 20.1573 21.4266H19.8639C19.6306 21.4266 19.4306 21.4732 19.2106 21.4799C18.9906 21.4799 18.7906 21.4266 18.5573 21.4266H18.2573C18.0239 21.4266 17.8239 21.4732 17.6039 21.4799C17.3839 21.4799 17.1906 21.4266 16.9573 21.4266H16.6439Z" fill="url(#paint2_linear_17522_60700)"/>
<path d="M16.6439 21.3532C16.5392 21.3531 16.4345 21.3598 16.3306 21.3733L16.2973 21.4333C16.4573 21.4133 16.6106 21.3866 16.7773 21.3866C16.9906 21.3866 17.1906 21.4399 17.4239 21.4399H17.7306C17.9639 21.4399 18.1573 21.3866 18.3773 21.3866C18.5973 21.3866 18.7973 21.4399 19.0306 21.4399H19.3373C19.5706 21.4399 19.7639 21.3866 19.9839 21.3866C20.2039 21.3866 20.4039 21.4399 20.6373 21.4399H20.9373C21.1706 21.4399 21.3706 21.3866 21.5906 21.3866C21.8106 21.3866 22.0106 21.4399 22.2439 21.4399H22.5439C22.7773 21.4399 22.9773 21.3866 23.1973 21.3866C23.3706 21.3866 23.5306 21.4199 23.6973 21.4333L23.6639 21.3666C23.5665 21.3565 23.4685 21.352 23.3706 21.3532H23.0706C22.8373 21.3532 22.6373 21.3999 22.4173 21.4066C22.1973 21.4066 21.9973 21.3532 21.7639 21.3532H21.4639C21.2306 21.3532 21.0306 21.3999 20.8106 21.4066C20.5906 21.4066 20.3906 21.3532 20.1573 21.3532H19.8639C19.6306 21.3532 19.4306 21.3999 19.2106 21.4066C18.9906 21.4066 18.7906 21.3532 18.5573 21.3532H18.2573C18.0239 21.3532 17.8239 21.3999 17.6039 21.4066C17.3839 21.4066 17.1906 21.3532 16.9573 21.3532H16.6439Z" fill="url(#paint3_linear_17522_60700)"/>
<path d="M16.6439 21.2799C16.5392 21.2797 16.4345 21.2864 16.3306 21.2999L16.2973 21.3599C16.4573 21.3399 16.6106 21.3132 16.7773 21.3132C16.9906 21.3132 17.1906 21.3666 17.4239 21.3666H17.7306C17.9639 21.3666 18.1573 21.3132 18.3773 21.3132C18.5973 21.3132 18.7973 21.3666 19.0306 21.3666H19.3373C19.5706 21.3666 19.7639 21.3132 19.9839 21.3132C20.2039 21.3132 20.4039 21.3666 20.6373 21.3666H20.9373C21.1706 21.3666 21.3706 21.3132 21.5906 21.3132C21.8106 21.3132 22.0106 21.3666 22.2439 21.3666H22.5439C22.7773 21.3666 22.9773 21.3132 23.1973 21.3132C23.3706 21.3132 23.5306 21.3466 23.6973 21.3599L23.6639 21.2933C23.5665 21.2831 23.4685 21.2787 23.3706 21.2799H23.0706C22.8373 21.2799 22.6373 21.3266 22.4173 21.3333C22.1973 21.3333 21.9973 21.2799 21.7639 21.2799H21.4639C21.2306 21.2799 21.0306 21.3266 20.8106 21.3333C20.5906 21.3333 20.3906 21.2799 20.1573 21.2799H19.8639C19.6306 21.2799 19.4306 21.3266 19.2106 21.3333C18.9906 21.3333 18.7906 21.2799 18.5573 21.2799H18.2573C18.0239 21.2799 17.8239 21.3266 17.6039 21.3333C17.3839 21.3333 17.1906 21.2799 16.9573 21.2799H16.6439Z" fill="url(#paint4_linear_17522_60700)"/>
<path d="M16.6439 21.2066C16.5392 21.2064 16.4345 21.2131 16.3306 21.2266L16.2973 21.2866C16.4573 21.2666 16.6106 21.2399 16.7773 21.2399C16.9906 21.2399 17.1906 21.2933 17.4239 21.2933H17.7306C17.9639 21.2933 18.1573 21.2399 18.3773 21.2399C18.5973 21.2399 18.7973 21.2933 19.0306 21.2933H19.3373C19.5706 21.2933 19.7639 21.2399 19.9839 21.2399C20.2039 21.2399 20.4039 21.2933 20.6373 21.2933H20.9373C21.1706 21.2933 21.3706 21.2399 21.5906 21.2399C21.8106 21.2399 22.0106 21.2933 22.2439 21.2933H22.5439C22.7773 21.2933 22.9773 21.2399 23.1973 21.2399C23.3706 21.2399 23.5306 21.2733 23.6973 21.2866L23.6639 21.2199C23.5665 21.2098 23.4685 21.2054 23.3706 21.2066H23.0706C22.8373 21.2066 22.6373 21.2533 22.4173 21.2599C22.1973 21.2599 21.9973 21.2066 21.7639 21.2066H21.4639C21.2306 21.2066 21.0306 21.2533 20.8106 21.2599C20.5906 21.2599 20.3906 21.2066 20.1573 21.2066H19.8639C19.6306 21.2066 19.4306 21.2533 19.2106 21.2599C18.9906 21.2599 18.7906 21.2066 18.5573 21.2066H18.2573C18.0239 21.2066 17.8239 21.2533 17.6039 21.2599C17.3839 21.2599 17.1906 21.2066 16.9573 21.2066H16.6439Z" fill="url(#paint5_linear_17522_60700)"/>
<path d="M16.6439 21.1333C16.5392 21.1331 16.4345 21.1398 16.3306 21.1533L16.2973 21.2133C16.4573 21.1933 16.6106 21.1666 16.7773 21.1666C16.9906 21.1666 17.1906 21.2199 17.4239 21.2199H17.7306C17.9639 21.2199 18.1573 21.1666 18.3773 21.1666C18.5973 21.1666 18.7973 21.2199 19.0306 21.2199H19.3373C19.5706 21.2199 19.7639 21.1666 19.9839 21.1666C20.2039 21.1666 20.4039 21.2199 20.6373 21.2199H20.9373C21.1706 21.2199 21.3706 21.1666 21.5906 21.1666C21.8106 21.1666 22.0106 21.2199 22.2439 21.2199H22.5439C22.7773 21.2199 22.9773 21.1666 23.1973 21.1666C23.3706 21.1666 23.5306 21.1999 23.6973 21.2133L23.6639 21.1466C23.5665 21.1365 23.4685 21.132 23.3706 21.1333H23.0706C22.8373 21.1333 22.6373 21.1799 22.4173 21.1866C22.1973 21.1866 21.9973 21.1333 21.7639 21.1333H21.4639C21.2306 21.1333 21.0306 21.1799 20.8106 21.1866C20.5906 21.1866 20.3906 21.1333 20.1573 21.1333H19.8639C19.6306 21.1333 19.4306 21.1799 19.2106 21.1866C18.9906 21.1866 18.7906 21.1333 18.5573 21.1333H18.2573C18.0239 21.1333 17.8239 21.1799 17.6039 21.1866C17.3839 21.1866 17.1906 21.1333 16.9573 21.1333H16.6439Z" fill="url(#paint6_linear_17522_60700)"/>
<path d="M16.6439 21.0599C16.5392 21.0597 16.4345 21.0664 16.3306 21.0799L16.2973 21.1399C16.4573 21.1199 16.6106 21.0933 16.7773 21.0933C16.9906 21.0933 17.1906 21.1466 17.4239 21.1466H17.7306C17.9639 21.1466 18.1573 21.0933 18.3773 21.0933C18.5973 21.0933 18.7973 21.1466 19.0306 21.1466H19.3373C19.5706 21.1466 19.7639 21.0933 19.9839 21.0933C20.2039 21.0933 20.4039 21.1466 20.6373 21.1466H20.9373C21.1706 21.1466 21.3706 21.0933 21.5906 21.0933C21.8106 21.0933 22.0106 21.1466 22.2439 21.1466H22.5439C22.7773 21.1466 22.9773 21.0933 23.1973 21.0933C23.3706 21.0933 23.5306 21.1266 23.6973 21.1399L23.6639 21.0733C23.5665 21.0631 23.4685 21.0587 23.3706 21.0599H23.0706C22.8373 21.0599 22.6373 21.1066 22.4173 21.1133C22.1973 21.1133 21.9973 21.0599 21.7639 21.0599H21.4639C21.2306 21.0599 21.0306 21.1066 20.8106 21.1133C20.5906 21.1133 20.3906 21.0599 20.1573 21.0599H19.8639C19.6306 21.0599 19.4306 21.1066 19.2106 21.1133C18.9906 21.1133 18.7906 21.0599 18.5573 21.0599H18.2573C18.0239 21.0599 17.8239 21.1066 17.6039 21.1133C17.3839 21.1133 17.1906 21.0599 16.9573 21.0599H16.6439Z" fill="url(#paint7_linear_17522_60700)"/>
<path d="M16.6439 20.9799C16.5392 20.9797 16.4345 20.9864 16.3306 20.9999L16.2973 21.0599C16.4573 21.0399 16.6106 21.0133 16.7773 21.0133C16.9906 21.0133 17.1906 21.0666 17.4239 21.0666H17.7306C17.9639 21.0666 18.1573 21.0133 18.3773 21.0133C18.5973 21.0133 18.7973 21.0666 19.0306 21.0666H19.3373C19.5706 21.0666 19.7639 21.0133 19.9839 21.0133C20.2039 21.0133 20.4039 21.0666 20.6373 21.0666H20.9373C21.1706 21.0666 21.3706 21.0133 21.5906 21.0133C21.8106 21.0133 22.0106 21.0666 22.2439 21.0666H22.5439C22.7773 21.0666 22.9773 21.0133 23.1973 21.0133C23.3706 21.0133 23.5306 21.0466 23.6973 21.0599L23.6639 20.9932C23.5665 20.9831 23.4685 20.9787 23.3706 20.9799H23.0706C22.8373 20.9799 22.6373 21.0266 22.4173 21.0333C22.1973 21.0333 21.9973 20.9799 21.7639 20.9799H21.4639C21.2306 20.9799 21.0306 21.0266 20.8106 21.0333C20.5906 21.0333 20.3906 20.9799 20.1573 20.9799H19.8639C19.6306 20.9799 19.4306 21.0266 19.2106 21.0333C18.9906 21.0333 18.7906 20.9799 18.5573 20.9799H18.2573C18.0239 20.9799 17.8239 21.0266 17.6039 21.0333C17.3839 21.0333 17.1906 20.9799 16.9573 20.9799H16.6439Z" fill="url(#paint8_linear_17522_60700)"/>
<path d="M16.6439 20.9066C16.5392 20.9064 16.4345 20.9131 16.3306 20.9266L16.2973 20.9866C16.4573 20.9666 16.6106 20.9399 16.7773 20.9399C16.9906 20.9399 17.1906 20.9933 17.4239 20.9933H17.7306C17.9639 20.9933 18.1573 20.9399 18.3773 20.9399C18.5973 20.9399 18.7973 20.9933 19.0306 20.9933H19.3373C19.5706 20.9933 19.7639 20.9399 19.9839 20.9399C20.2039 20.9399 20.4039 20.9933 20.6373 20.9933H20.9373C21.1706 20.9933 21.3706 20.9399 21.5906 20.9399C21.8106 20.9399 22.0106 20.9933 22.2439 20.9933H22.5439C22.7773 20.9933 22.9773 20.9399 23.1973 20.9399C23.3706 20.9399 23.5306 20.9733 23.6973 20.9866L23.6639 20.9199C23.5665 20.9098 23.4685 20.9054 23.3706 20.9066H23.0706C22.8373 20.9066 22.6373 20.9533 22.4173 20.9599C22.1973 20.9599 21.9973 20.9066 21.7639 20.9066H21.4639C21.2306 20.9066 21.0306 20.9533 20.8106 20.9599C20.5906 20.9599 20.3906 20.9066 20.1573 20.9066H19.8639C19.6306 20.9066 19.4306 20.9533 19.2106 20.9599C18.9906 20.9599 18.7906 20.9066 18.5573 20.9066H18.2573C18.0239 20.9066 17.8239 20.9533 17.6039 20.9599C17.3839 20.9599 17.1906 20.9066 16.9573 20.9066H16.6439Z" fill="url(#paint9_linear_17522_60700)"/>
<path d="M16.6439 20.8333C16.5392 20.8331 16.4345 20.8398 16.3306 20.8533L16.2973 20.9133C16.4573 20.8933 16.6106 20.8666 16.7773 20.8666C16.9906 20.8666 17.1906 20.9199 17.4239 20.9199H17.7306C17.9639 20.9199 18.1573 20.8666 18.3773 20.8666C18.5973 20.8666 18.7973 20.9199 19.0306 20.9199H19.3373C19.5706 20.9199 19.7639 20.8666 19.9839 20.8666C20.2039 20.8666 20.4039 20.9199 20.6373 20.9199H20.9373C21.1706 20.9199 21.3706 20.8666 21.5906 20.8666C21.8106 20.8666 22.0106 20.9199 22.2439 20.9199H22.5439C22.7773 20.9199 22.9773 20.8666 23.1973 20.8666C23.3706 20.8666 23.5306 20.8999 23.6973 20.9133L23.6639 20.8466C23.5665 20.8365 23.4685 20.832 23.3706 20.8333H23.0706C22.8373 20.8333 22.6373 20.8799 22.4173 20.8866C22.1973 20.8866 21.9973 20.8333 21.7639 20.8333H21.4639C21.2306 20.8333 21.0306 20.8799 20.8106 20.8866C20.5906 20.8866 20.3906 20.8333 20.1573 20.8333H19.8639C19.6306 20.8333 19.4306 20.8799 19.2106 20.8866C18.9906 20.8866 18.7906 20.8333 18.5573 20.8333H18.2573C18.0239 20.8333 17.8239 20.8799 17.6039 20.8866C17.3839 20.8866 17.1906 20.8333 16.9573 20.8333H16.6439Z" fill="url(#paint10_linear_17522_60700)"/>
<path d="M16.8773 20.4999V20.5133H23.1239L23.1173 20.4999H16.8773ZM16.8639 20.5199L16.8573 20.5399H23.1306L23.1239 20.5199H16.8573H16.8639ZM16.8506 20.5466L16.8373 20.5666H23.1573L23.1439 20.5466H16.8506ZM16.8306 20.5799L16.8106 20.6133H23.1839L23.1639 20.5799H16.8306ZM16.8039 20.6266L16.7839 20.6599H23.2106L23.1906 20.6266H16.8039ZM16.7773 20.6733L16.7639 20.6999H23.2306L23.2173 20.6733H16.7773ZM16.7506 20.7199L16.7373 20.7466H23.2639L23.2439 20.7199H16.7506ZM16.7239 20.7666L16.7039 20.8066H23.2906L23.2706 20.7666H16.7239Z" fill="url(#paint11_linear_17522_60700)"/>
<path d="M17.1573 20.8199C17.3839 20.8666 17.4039 20.8199 17.4039 20.8199H17.1573ZM22.5906 20.8199C22.5906 20.8199 22.6106 20.8666 22.8373 20.8199H22.5906Z" fill="url(#paint12_linear_17522_60700)"/>
<path d="M22.0373 19.7999C21.9239 19.7999 21.8906 19.8599 21.8906 19.8599C21.7106 20.5666 21.1039 21.2799 20.3839 21.2799H19.8506V21.9999H23.9439L23.5306 21.2666C22.8839 21.1732 22.3573 20.5133 22.1906 19.8599C22.1906 19.8599 22.1506 19.7999 22.0373 19.7999Z" fill="url(#paint13_linear_17522_60700)"/>
<path d="M22.0373 19.8333C21.9839 19.8333 21.9573 19.8399 21.9373 19.8533L21.9173 19.8733C21.8173 20.2424 21.6245 20.5797 21.3573 20.8533C21.0906 21.1266 20.7573 21.3133 20.3839 21.3133H19.8706V21.9732H23.9306L23.5506 21.3066C23.2373 21.2599 22.9506 21.0932 22.7239 20.8533C22.4567 20.5797 22.2639 20.2424 22.1639 19.8733L22.1439 19.8533C22.1111 19.8362 22.074 19.8292 22.0373 19.8333Z" fill="#97C924"/>
<path d="M22.0373 19.8333H22.0639V20.5533C22.0576 20.7047 22.0116 20.8518 21.9306 20.9799C21.8973 21.0866 21.8639 21.0466 21.7773 21.1733C21.6648 21.212 21.5486 21.2388 21.4306 21.2533C21.2639 21.2799 20.8973 21.3066 20.7039 21.2599C20.952 21.184 21.1768 21.0464 21.3573 20.8599C21.4069 20.8069 21.4536 20.7513 21.4973 20.6933C21.5716 20.6009 21.6384 20.5028 21.6973 20.3999L21.7639 20.2666C21.7958 20.2035 21.8247 20.139 21.8506 20.0733C21.8763 20.0078 21.8986 19.9411 21.9173 19.8733L21.9373 19.8533L21.9773 19.8399L22.0373 19.8333Z" fill="#EDE71F"/>
<path d="M21.9973 19.9266C21.9639 20.3266 21.8439 20.8066 21.5506 21.1133C21.4439 21.1999 21.3039 21.2866 21.1773 21.2666C21.6239 20.8999 21.8973 20.3333 21.9906 19.9266H21.9973Z" fill="#C6CB24"/>
<path d="M21.6306 20.6199C21.5639 20.7999 21.3106 21.0666 21.0439 21.2866H20.8506C21.0173 21.2732 21.4039 20.9533 21.6306 20.6199Z" fill="#9ECB34"/>
<path d="M21.0173 19.7999C20.9039 19.7999 20.8706 19.8599 20.8706 19.8599C20.6906 20.5666 20.0839 21.2799 19.3639 21.2799H18.8306V21.9999H22.9239L22.5106 21.2666C21.8639 21.1732 21.3373 20.5133 21.1706 19.8599C21.1706 19.8599 21.1306 19.7999 21.0173 19.7999Z" fill="url(#paint14_linear_17522_60700)"/>
<path d="M21.0173 19.8333C20.9639 19.8333 20.9373 19.8399 20.9173 19.8533L20.8973 19.8733C20.7973 20.2424 20.6045 20.5797 20.3373 20.8533C20.0706 21.1266 19.7373 21.3133 19.3639 21.3133H18.8506V21.9732H22.9106L22.5306 21.3066C22.2173 21.2599 21.9306 21.0932 21.7039 20.8533C21.4367 20.5797 21.2439 20.2424 21.1439 19.8733L21.1239 19.8533C21.0911 19.8362 21.054 19.8292 21.0173 19.8333Z" fill="#97C924"/>
<path d="M21.0173 19.8333H21.0439V20.5533C21.0376 20.7047 20.9916 20.8518 20.9106 20.9799C20.8773 21.0866 20.8439 21.0466 20.7573 21.1733C20.6448 21.212 20.5286 21.2388 20.4106 21.2533C20.2439 21.2799 19.8773 21.3066 19.6839 21.2599C19.932 21.184 20.1568 21.0464 20.3373 20.8599C20.3869 20.8069 20.4336 20.7513 20.4773 20.6933C20.5516 20.6009 20.6184 20.5028 20.6773 20.3999L20.7439 20.2666C20.7758 20.2035 20.8047 20.139 20.8306 20.0733C20.8563 20.0078 20.8786 19.9411 20.8973 19.8733L20.9173 19.8533L20.9573 19.8399L21.0173 19.8333Z" fill="#EDE71F"/>
<path d="M20.9773 19.9266C20.9439 20.3266 20.8239 20.8066 20.5306 21.1133C20.4239 21.1999 20.2839 21.2866 20.1573 21.2666C20.6039 20.8999 20.8773 20.3333 20.9706 19.9266H20.9773Z" fill="#C6CB24"/>
<path d="M20.6106 20.6199C20.5439 20.7999 20.2906 21.0666 20.0239 21.2866H19.8306C19.9973 21.2732 20.3839 20.9533 20.6106 20.6199Z" fill="#9ECB34"/>
<path d="M20.1439 19.8666C20.3306 20.5666 20.9306 21.2799 21.6506 21.2799H22.1906V21.9999H17.8039V21.2799H18.3373C19.0573 21.2799 19.6639 20.5666 19.8439 19.8599C19.8439 19.8599 19.8839 19.8066 19.9973 19.8066C20.1106 19.8066 20.1439 19.8599 20.1439 19.8599V19.8666Z" fill="url(#paint15_linear_17522_60700)"/>
<path d="M19.9973 19.8333C20.0506 19.8333 20.0773 19.8466 20.0973 19.8533L20.1173 19.8733C20.2172 20.2424 20.41 20.5797 20.6773 20.8533C20.9439 21.1266 21.2773 21.3132 21.6506 21.3132H22.1639V21.9732H17.8306V21.3066H18.3439C18.7106 21.3066 19.0506 21.1266 19.3173 20.8533C19.5821 20.579 19.7726 20.2417 19.8706 19.8733L19.8906 19.8533C19.9236 19.8369 19.9605 19.83 19.9973 19.8333Z" fill="#97C924"/>
<path d="M19.9506 19.8333C19.9439 19.833 19.9373 19.833 19.9306 19.8333L19.8906 19.8533L19.8706 19.8733C19.852 19.9411 19.8298 20.0079 19.8039 20.0733C19.7804 20.1411 19.7537 20.2079 19.7239 20.2733C19.703 20.3162 19.6808 20.3584 19.6573 20.3999C19.5985 20.5028 19.5316 20.6009 19.4573 20.6933C19.4134 20.749 19.3667 20.8024 19.3173 20.8533C19.1376 21.0421 18.9127 21.1821 18.6639 21.2599C18.8506 21.3066 18.9306 21.2599 19.0973 21.2333C19.2306 21.2133 19.3773 21.1933 19.4973 21.1533C19.5973 21.0199 19.5639 21.0666 19.5973 20.9599C19.6773 20.8133 19.7973 20.6799 19.8239 20.5133C19.9306 20.3133 19.9506 19.9399 19.9506 19.8333Z" fill="#EDE71F"/>
<path d="M19.9506 19.9266C19.9239 20.3266 19.7973 20.8066 19.5039 21.1133C19.3973 21.1999 19.2639 21.2866 19.1306 21.2666C19.5839 20.8999 19.8573 20.3333 19.9506 19.9266Z" fill="#C6CB24"/>
<path d="M19.5839 20.6199C19.439 20.882 19.2388 21.1095 18.9973 21.2866H18.8106C18.9773 21.2732 19.3573 20.9533 19.5839 20.6199Z" fill="#9ECB34"/>
<path d="M20.0639 19.8399L20.0973 19.8533L20.1239 19.8733C20.1429 19.941 20.1651 20.0077 20.1906 20.0733C20.214 20.1412 20.2407 20.2079 20.2706 20.2733L20.3373 20.3999C20.3961 20.5028 20.4629 20.6009 20.5373 20.6933C20.5811 20.749 20.6279 20.8024 20.6773 20.8533C20.8557 21.0496 21.0803 21.1986 21.3306 21.2866C20.8439 21.2866 20.6373 21.2466 20.4639 21.0199C20.3379 20.8865 20.2424 20.7273 20.1839 20.5533C20.1506 20.4199 20.0506 20.1199 20.0573 19.8399H20.0639Z" fill="#EDE71F"/>
<path d="M20.0973 19.9266C20.1239 20.3266 20.2439 20.7266 20.5373 21.0333C20.6439 21.1266 20.7773 21.2066 20.9106 21.1866C20.4918 20.8828 20.2017 20.4334 20.0973 19.9266Z" fill="#C6CB24"/>
<path d="M18.9839 19.7999C18.8639 19.7999 18.8306 19.8599 18.8306 19.8599C18.6639 20.5133 18.0439 21.3466 17.3973 21.4466L17.0773 21.9999H20.3439V21.2466C19.7573 21.0866 19.2839 20.4666 19.1306 19.8599C19.1306 19.8599 19.0973 19.8066 18.9773 19.8066L18.9839 19.7999Z" fill="url(#paint16_linear_17522_60700)"/>
<path d="M18.9839 19.8333C18.9306 19.8333 18.8973 19.8466 18.8773 19.8533L18.8573 19.8733C18.7451 20.239 18.5616 20.5789 18.3173 20.8733C18.0906 21.1599 17.6706 21.4466 17.3839 21.4733L17.0973 21.9732H20.2973V21.2599C20.0566 21.1805 19.8391 21.0431 19.6639 20.8599C19.3957 20.5845 19.2028 20.2447 19.1039 19.8733L19.0839 19.8533C19.053 19.8378 19.0185 19.8309 18.9839 19.8333Z" fill="#97C924"/>
<path d="M18.8906 19.9266C18.8506 20.5266 18.5173 21.2932 18.1373 21.4199C18.0106 21.4666 17.7973 21.4799 17.7239 21.4866C18.0179 21.3233 18.2742 21.1 18.4764 20.8313C18.6785 20.5625 18.8219 20.2543 18.8973 19.9266H18.8906Z" fill="#93BC30"/>
<path d="M18.9839 19.8333L18.9506 19.8333V20.5533C18.9506 20.7066 19.0106 20.8333 19.0839 20.9799L19.0973 21.0133C19.1306 21.0866 19.1506 21.1133 19.2506 21.1933C19.5369 21.3976 19.887 21.4922 20.2373 21.4599C20.1639 21.3999 20.0839 21.3466 20.0106 21.2999L20.3106 21.2666C20.0635 21.1859 19.841 21.0436 19.6639 20.8533C19.6317 20.821 19.6006 20.7876 19.5706 20.7533L19.5306 20.6999C19.4517 20.6057 19.3804 20.5054 19.3173 20.3999C19.2936 20.3562 19.2714 20.3117 19.2506 20.2666C19.2097 20.1822 19.1741 20.0954 19.1439 20.0066C19.1291 19.9626 19.1158 19.9181 19.1039 19.8733L19.0839 19.8533C19.0713 19.8469 19.0578 19.8424 19.0439 19.8399C19.0221 19.8346 18.9997 19.8323 18.9773 19.8333L18.9839 19.8333Z" fill="#EDE71F"/>
<path d="M19.0239 19.9266C19.0573 20.3266 19.1773 20.8066 19.4706 21.1133C19.5773 21.1999 19.7106 21.2866 19.8439 21.2666C19.4373 20.9166 19.1505 20.448 19.0239 19.9266Z" fill="#CCD11E"/>
<path d="M19.3039 20.4866C19.5199 20.9089 19.8594 21.2554 20.2773 21.4799H20.4439C20.1506 21.3199 19.6773 21.0933 19.3106 20.4799L19.3039 20.4866Z" fill="#9ECB34"/>
<path d="M17.9573 19.7999C17.8373 19.7999 17.8039 19.8599 17.8039 19.8599C17.6373 20.5133 17.0173 21.3466 16.3706 21.4466L16.0506 21.9999H19.3173V21.2466C18.7306 21.0866 18.2573 20.4666 18.1039 19.8599C18.1039 19.8599 18.0706 19.8066 17.9506 19.8066L17.9573 19.7999Z" fill="url(#paint17_linear_17522_60700)"/>
<path d="M17.9573 19.8333C17.9039 19.8333 17.8706 19.8466 17.8506 19.8533L17.8306 19.8733C17.7185 20.239 17.5349 20.5789 17.2906 20.8733C17.0639 21.1599 16.6439 21.4466 16.3573 21.4733L16.0706 21.9732H19.2706V21.2599C19.0299 21.1805 18.8124 21.0431 18.6373 20.8599C18.369 20.5845 18.1762 20.2447 18.0773 19.8733L18.0573 19.8533C18.0263 19.8378 17.9918 19.8309 17.9573 19.8333Z" fill="#97C924"/>
<path d="M17.8639 19.9266C17.8239 20.5266 17.4906 21.2932 17.1106 21.4199C16.9839 21.4666 16.7706 21.4799 16.6973 21.4866C16.9912 21.3233 17.2476 21.1 17.4497 20.8313C17.6518 20.5625 17.7952 20.2543 17.8706 19.9266H17.8639Z" fill="#93BC30"/>
<path d="M17.9573 19.8333L17.9239 19.8333V20.5533C17.9239 20.7066 17.9839 20.8333 18.0573 20.9799L18.0706 21.0133C18.1039 21.0866 18.1239 21.1133 18.2239 21.1933C18.5102 21.3976 18.8604 21.4922 19.2106 21.4599C19.1373 21.3999 19.0573 21.3466 18.9839 21.2999L19.2839 21.2666C19.0368 21.1859 18.8143 21.0436 18.6373 20.8533C18.605 20.821 18.5739 20.7876 18.5439 20.7533L18.5039 20.6999C18.425 20.6057 18.3537 20.5054 18.2906 20.3999C18.2669 20.3562 18.2447 20.3117 18.2239 20.2666C18.183 20.1822 18.1474 20.0954 18.1173 20.0066C18.1025 19.9626 18.0891 19.9181 18.0773 19.8733L18.0573 19.8533C18.0447 19.8469 18.0312 19.8424 18.0173 19.8399C17.9955 19.8346 17.973 19.8323 17.9506 19.8333L17.9573 19.8333Z" fill="#EDE71F"/>
<path d="M17.9973 19.9266C18.0306 20.3266 18.1506 20.8066 18.4439 21.1133C18.5506 21.1999 18.6839 21.2866 18.8173 21.2666C18.4106 20.9166 18.1238 20.448 17.9973 19.9266Z" fill="#C6CB24"/>
<path d="M18.2773 20.4866C18.4932 20.9089 18.8327 21.2554 19.2506 21.4799H19.4173C19.1239 21.3199 18.6506 21.0933 18.2839 20.4799L18.2773 20.4866Z" fill="#9ECB34"/>
<path d="M23.7639 21.6466C23.7239 21.6599 23.4706 21.6332 23.3372 21.6466L23.2506 21.6666H23.0306C22.7906 21.6666 22.5839 21.7332 22.3573 21.7332C22.1306 21.7332 21.9239 21.6666 21.6906 21.6666H21.4639C21.2239 21.6666 21.0173 21.7332 20.7906 21.7332C20.5639 21.7332 20.3573 21.6666 20.1239 21.6666H19.8973C19.6573 21.6666 19.4506 21.7332 19.2306 21.7332C18.9973 21.7332 18.7973 21.6666 18.5573 21.6666H18.3306C18.0906 21.6666 17.8906 21.7332 17.6639 21.7332C17.4306 21.7332 17.2306 21.6666 16.9906 21.6666H16.7639C16.5773 21.6666 16.3506 21.7066 16.1706 21.7199L15.7506 22.4466H24.2439L23.7639 21.6466Z" fill="white"/>
<path d="M23.1973 21.5399H23.1573C22.9439 21.5466 22.7839 21.6133 22.4106 21.6133C22.0373 21.6133 21.9973 21.5466 21.5706 21.5599C21.1706 21.5599 21.0106 21.6399 20.7906 21.6399C20.5773 21.6399 20.2306 21.5932 19.9573 21.6199C19.6906 21.6466 19.3706 21.7066 19.1573 21.7066C18.8973 21.7066 18.6373 21.6599 18.3706 21.6866C18.0973 21.7132 17.9706 21.7866 17.6306 21.7866C17.3373 21.7866 17.0306 21.7399 16.7773 21.7399C16.5506 21.7399 16.2973 21.8066 16.1106 21.8332L16.0506 21.9332C16.2039 21.9132 16.6239 21.8466 16.7706 21.8466C16.9306 21.8466 17.4839 21.8799 17.7906 21.8666C18.1039 21.8599 18.1373 21.7866 18.5039 21.7866C18.7573 21.7866 18.9439 21.8132 19.2039 21.8132C19.3706 21.8132 19.5173 21.7332 19.7639 21.7332L19.9506 21.7266C20.1573 21.6932 20.5106 21.7266 20.7506 21.7399C20.9706 21.7532 21.1173 21.6999 21.3506 21.6932L21.6439 21.6866C21.8773 21.6732 22.0706 21.7266 22.2906 21.7266C22.5039 21.7132 22.7173 21.6599 22.9439 21.6599L23.2439 21.6466C23.3973 21.6466 23.6373 21.6466 23.7973 21.6799L23.7439 21.5866C23.5839 21.5799 23.3906 21.5399 23.1973 21.5399Z" fill="url(#paint18_linear_17522_60700)"/>
<path d="M16.6839 22.3199C16.4573 22.3199 16.2573 22.3732 16.0439 22.3799C15.9636 22.3778 15.8835 22.3711 15.8039 22.3599L15.7706 22.4132H16.1706C16.4039 22.4132 16.5973 22.3599 16.8106 22.3532C17.0306 22.3599 17.2239 22.4199 17.4573 22.4199H17.7573C17.9839 22.4199 18.1839 22.3599 18.3973 22.3532C18.6173 22.3599 18.8173 22.4199 19.0439 22.4199H19.3439C19.5773 22.4199 19.7706 22.3599 19.9906 22.3532C20.2039 22.3599 20.3973 22.4199 20.6306 22.4199H20.9306C21.1573 22.4199 21.3573 22.3599 21.5773 22.3532C21.7906 22.3599 21.9906 22.4199 22.2173 22.4199H22.5173C22.7506 22.4199 22.9439 22.3599 23.1573 22.3532C23.3773 22.3599 23.5706 22.4199 23.8039 22.4199H24.1039L24.2239 22.4132L24.1906 22.3599C24.1239 22.3666 24.0506 22.3799 23.9773 22.3799C23.7573 22.3799 23.5639 22.3132 23.3306 22.3132H23.0306C22.8039 22.3132 22.6039 22.3799 22.3906 22.3799C22.1706 22.3732 21.9773 22.3132 21.7439 22.3132H21.4439C21.2173 22.3132 21.0173 22.3799 20.8039 22.3799C20.5839 22.3732 20.3906 22.3132 20.1573 22.3132H19.8573C19.6239 22.3132 19.4306 22.3799 19.2173 22.3799C18.9973 22.3732 18.8039 22.3132 18.5706 22.3132H18.2706C18.0439 22.3132 17.8439 22.3799 17.6306 22.3799C17.4106 22.3732 17.2173 22.3132 16.9839 22.3132H16.6839V22.3199Z" fill="url(#paint19_linear_17522_60700)"/>
<path d="M16.6839 22.2332C16.4573 22.2332 16.2573 22.2866 16.0439 22.2932C15.9636 22.2911 15.8835 22.2845 15.8039 22.2732L15.7706 22.3266H16.1706C16.4039 22.3266 16.5973 22.2732 16.8106 22.2666C17.0306 22.2732 17.2239 22.3332 17.4573 22.3332H17.7573C17.9839 22.3332 18.1839 22.2732 18.3973 22.2666C18.6173 22.2732 18.8173 22.3332 19.0439 22.3332H19.3439C19.5773 22.3332 19.7706 22.2732 19.9906 22.2666C20.2039 22.2732 20.3973 22.3332 20.6306 22.3332H20.9306C21.1573 22.3332 21.3573 22.2732 21.5773 22.2666C21.7906 22.2732 21.9906 22.3332 22.2173 22.3332H22.5173C22.7506 22.3332 22.9439 22.2732 23.1573 22.2666C23.3773 22.2732 23.5706 22.3332 23.8039 22.3332H24.1039L24.2239 22.3266L24.1906 22.2732C24.1239 22.2799 24.0506 22.2932 23.9773 22.2932C23.7573 22.2932 23.5639 22.2266 23.3306 22.2266H23.0306C22.8039 22.2266 22.6039 22.2932 22.3906 22.2932C22.1706 22.2866 21.9773 22.2266 21.7439 22.2266H21.4439C21.2173 22.2266 21.0173 22.2932 20.8039 22.2932C20.5839 22.2866 20.3906 22.2266 20.1573 22.2266H19.8573C19.6239 22.2266 19.4306 22.2932 19.2173 22.2932C18.9973 22.2866 18.8039 22.2266 18.5706 22.2266H18.2706C18.0439 22.2266 17.8439 22.2932 17.6306 22.2932C17.4106 22.2866 17.2173 22.2266 16.9839 22.2266H16.6839V22.2332Z" fill="url(#paint20_linear_17522_60700)"/>
<path d="M16.6839 22.1466C16.4573 22.1466 16.2573 22.1999 16.0439 22.2066C15.9636 22.2045 15.8835 22.1978 15.8039 22.1866L15.7706 22.2399H16.1706C16.4039 22.2399 16.5973 22.1866 16.8106 22.1799C17.0306 22.1866 17.2239 22.2466 17.4573 22.2466H17.7573C17.9839 22.2466 18.1839 22.1866 18.3973 22.1799C18.6173 22.1866 18.8173 22.2466 19.0439 22.2466H19.3439C19.5773 22.2466 19.7706 22.1866 19.9906 22.1799C20.2039 22.1866 20.3973 22.2466 20.6306 22.2466H20.9306C21.1573 22.2466 21.3573 22.1866 21.5773 22.1799C21.7906 22.1866 21.9906 22.2466 22.2173 22.2466H22.5173C22.7506 22.2466 22.9439 22.1866 23.1573 22.1799C23.3773 22.1866 23.5706 22.2466 23.8039 22.2466H24.1039L24.2239 22.2399L24.1906 22.1866C24.1239 22.1932 24.0506 22.2066 23.9773 22.2066C23.7573 22.2066 23.5639 22.1399 23.3306 22.1399H23.0306C22.8039 22.1399 22.6039 22.2066 22.3906 22.2066C22.1706 22.1999 21.9773 22.1399 21.7439 22.1399H21.4439C21.2173 22.1399 21.0173 22.2066 20.8039 22.2066C20.5839 22.1999 20.3906 22.1399 20.1573 22.1399H19.8573C19.6239 22.1399 19.4306 22.2066 19.2173 22.2066C18.9973 22.1999 18.8039 22.1399 18.5706 22.1399H18.2706C18.0439 22.1399 17.8439 22.2066 17.6306 22.2066C17.4106 22.1999 17.2173 22.1399 16.9839 22.1399H16.6839V22.1466Z" fill="url(#paint21_linear_17522_60700)"/>
<path d="M16.6839 22.0599C16.4573 22.0599 16.2573 22.1132 16.0439 22.1199C15.9636 22.1178 15.8835 22.1111 15.8039 22.0999L15.7706 22.1532H16.1706C16.4039 22.1532 16.5973 22.0999 16.8106 22.0932C17.0306 22.0999 17.2239 22.1599 17.4573 22.1599H17.7573C17.9839 22.1599 18.1839 22.0999 18.3973 22.0932C18.6173 22.0999 18.8173 22.1599 19.0439 22.1599H19.3439C19.5773 22.1599 19.7706 22.0999 19.9906 22.0932C20.2039 22.0999 20.3973 22.1599 20.6306 22.1599H20.9306C21.1573 22.1599 21.3573 22.0999 21.5773 22.0932C21.7906 22.0999 21.9906 22.1599 22.2173 22.1599H22.5173C22.7506 22.1599 22.9439 22.0999 23.1573 22.0932C23.3773 22.0999 23.5706 22.1599 23.8039 22.1599H24.1039L24.2239 22.1532L24.1906 22.0999C24.1239 22.1066 24.0506 22.1199 23.9773 22.1199C23.7573 22.1199 23.5639 22.0532 23.3306 22.0532H23.0306C22.8039 22.0532 22.6039 22.1199 22.3906 22.1199C22.1706 22.1132 21.9773 22.0532 21.7439 22.0532H21.4439C21.2173 22.0532 21.0173 22.1199 20.8039 22.1199C20.5839 22.1132 20.3906 22.0532 20.1573 22.0532H19.8573C19.6239 22.0532 19.4306 22.1199 19.2173 22.1199C18.9973 22.1132 18.8039 22.0532 18.5706 22.0532H18.2706C18.0439 22.0532 17.8439 22.1199 17.6306 22.1199C17.4106 22.1132 17.2173 22.0532 16.9839 22.0532H16.6839V22.0599Z" fill="url(#paint22_linear_17522_60700)"/>
<path d="M16.6839 21.9732C16.4573 21.9732 16.2573 22.0266 16.0439 22.0333C15.9636 22.0311 15.8835 22.0245 15.8039 22.0132L15.7706 22.0666H16.1706C16.4039 22.0666 16.5973 22.0132 16.8106 22.0066C17.0306 22.0132 17.2239 22.0732 17.4573 22.0732H17.7573C17.9839 22.0732 18.1839 22.0132 18.3973 22.0066C18.6173 22.0132 18.8173 22.0732 19.0439 22.0732H19.3439C19.5773 22.0732 19.7706 22.0132 19.9906 22.0066C20.2039 22.0132 20.3973 22.0732 20.6306 22.0732H20.9306C21.1573 22.0732 21.3573 22.0132 21.5773 22.0066C21.7906 22.0132 21.9906 22.0732 22.2173 22.0732H22.5173C22.7506 22.0732 22.9439 22.0132 23.1573 22.0066C23.3773 22.0132 23.5706 22.0732 23.8039 22.0732H24.1039L24.2239 22.0666L24.1906 22.0132C24.1239 22.0199 24.0506 22.0333 23.9773 22.0333C23.7573 22.0333 23.5639 21.9666 23.3306 21.9666H23.0306C22.8039 21.9666 22.6039 22.0333 22.3906 22.0333C22.1706 22.0266 21.9773 21.9666 21.7439 21.9666H21.4439C21.2173 21.9666 21.0173 22.0333 20.8039 22.0333C20.5839 22.0266 20.3906 21.9666 20.1573 21.9666H19.8573C19.6239 21.9666 19.4306 22.0333 19.2173 22.0333C18.9973 22.0266 18.8039 21.9666 18.5706 21.9666H18.2706C18.0439 21.9666 17.8439 22.0333 17.6306 22.0333C17.4106 22.0266 17.2173 21.9666 16.9839 21.9666H16.6839V21.9732Z" fill="url(#paint23_linear_17522_60700)"/>
<path d="M16.6839 21.8866C16.4573 21.8866 16.2573 21.9399 16.0439 21.9466C15.9636 21.9445 15.8835 21.9378 15.8039 21.9266L15.7706 21.9799H16.1706C16.4039 21.9799 16.5973 21.9266 16.8106 21.9199C17.0306 21.9266 17.2239 21.9866 17.4573 21.9866H17.7573C17.9839 21.9866 18.1839 21.9266 18.3973 21.9199C18.6173 21.9266 18.8173 21.9866 19.0439 21.9866H19.3439C19.5773 21.9866 19.7706 21.9266 19.9906 21.9199C20.2039 21.9266 20.3973 21.9866 20.6306 21.9866H20.9306C21.1573 21.9866 21.3573 21.9266 21.5773 21.9199C21.7906 21.9266 21.9906 21.9866 22.2173 21.9866H22.5173C22.7506 21.9866 22.9439 21.9266 23.1573 21.9199C23.3773 21.9266 23.5706 21.9866 23.8039 21.9866H24.1039L24.2239 21.9799L24.1906 21.9266C24.1239 21.9332 24.0506 21.9466 23.9773 21.9466C23.7573 21.9466 23.5639 21.8799 23.3306 21.8799H23.0306C22.8039 21.8799 22.6039 21.9466 22.3906 21.9466C22.1706 21.9399 21.9773 21.8799 21.7439 21.8799H21.4439C21.2173 21.8799 21.0173 21.9466 20.8039 21.9466C20.5839 21.9399 20.3906 21.8799 20.1573 21.8799H19.8573C19.6239 21.8799 19.4306 21.9466 19.2173 21.9466C18.9973 21.9399 18.8039 21.8799 18.5706 21.8799H18.2706C18.0439 21.8799 17.8439 21.9466 17.6306 21.9466C17.4106 21.9399 17.2173 21.8799 16.9839 21.8799H16.6839V21.8866Z" fill="url(#paint24_linear_17522_60700)"/>
<path d="M16.6839 21.8066C16.4573 21.8066 16.2573 21.8599 16.0439 21.8666C15.9636 21.8645 15.8835 21.8578 15.8039 21.8466L15.7706 21.8999H16.1706C16.4039 21.8999 16.5973 21.8466 16.8106 21.8399C17.0306 21.8466 17.2239 21.9066 17.4573 21.9066H17.7573C17.9839 21.9066 18.1839 21.8466 18.3973 21.8399C18.6173 21.8466 18.8173 21.9066 19.0439 21.9066H19.3439C19.5773 21.9066 19.7706 21.8466 19.9906 21.8399C20.2039 21.8466 20.3973 21.9066 20.6306 21.9066H20.9306C21.1573 21.9066 21.3573 21.8466 21.5773 21.8399C21.7906 21.8466 21.9906 21.9066 22.2173 21.9066H22.5173C22.7506 21.9066 22.9439 21.8466 23.1573 21.8399C23.3773 21.8466 23.5706 21.9066 23.8039 21.9066H24.1039L24.2239 21.8999L24.1906 21.8466C24.1239 21.8532 24.0506 21.8666 23.9773 21.8666C23.7573 21.8666 23.5639 21.7999 23.3306 21.7999H23.0306C22.8039 21.7999 22.6039 21.8666 22.3906 21.8666C22.1706 21.8599 21.9773 21.7999 21.7439 21.7999H21.4439C21.2173 21.7999 21.0173 21.8666 20.8039 21.8666C20.5839 21.8599 20.3906 21.7999 20.1573 21.7999H19.8573C19.6239 21.7999 19.4306 21.8666 19.2173 21.8666C18.9973 21.8599 18.8039 21.7999 18.5706 21.7999H18.2706C18.0439 21.7999 17.8439 21.8666 17.6306 21.8666C17.4106 21.8599 17.2173 21.7999 16.9839 21.7999H16.6839V21.8066Z" fill="url(#paint25_linear_17522_60700)"/>
<path d="M16.6839 21.7199C16.4573 21.7199 16.2573 21.7733 16.0439 21.7799C15.9636 21.7778 15.8835 21.7711 15.8039 21.7599L15.7706 21.8132H16.1706C16.4039 21.8132 16.5973 21.7599 16.8106 21.7532C17.0306 21.7599 17.2239 21.8199 17.4573 21.8199H17.7573C17.9839 21.8199 18.1839 21.7599 18.3973 21.7532C18.6173 21.7599 18.8173 21.8199 19.0439 21.8199H19.3439C19.5773 21.8199 19.7706 21.7599 19.9906 21.7532C20.2039 21.7599 20.3973 21.8199 20.6306 21.8199H20.9306C21.1573 21.8199 21.3573 21.7599 21.5773 21.7532C21.7906 21.7599 21.9906 21.8199 22.2173 21.8199H22.5173C22.7506 21.8199 22.9439 21.7599 23.1573 21.7532C23.3773 21.7599 23.5706 21.8199 23.8039 21.8199H24.1039L24.2239 21.8132L24.1906 21.7599C24.1239 21.7666 24.0506 21.7799 23.9773 21.7799C23.7573 21.7799 23.5639 21.7132 23.3306 21.7132H23.0306C22.8039 21.7132 22.6039 21.7799 22.3906 21.7799C22.1706 21.7733 21.9773 21.7132 21.7439 21.7132H21.4439C21.2173 21.7132 21.0173 21.7799 20.8039 21.7799C20.5839 21.7733 20.3906 21.7132 20.1573 21.7132H19.8573C19.6239 21.7132 19.4306 21.7799 19.2173 21.7799C18.9973 21.7733 18.8039 21.7132 18.5706 21.7132H18.2706C18.0439 21.7132 17.8439 21.7799 17.6306 21.7799C17.4106 21.7733 17.2173 21.7132 16.9839 21.7132H16.6839V21.7199Z" fill="url(#paint26_linear_17522_60700)"/>
<path d="M16.6839 21.6332C16.4573 21.6332 16.2573 21.6866 16.0439 21.6932C15.9636 21.6911 15.8835 21.6845 15.8039 21.6732L15.7706 21.7266H16.1706C16.4039 21.7266 16.5973 21.6732 16.8106 21.6666C17.0306 21.6732 17.2239 21.7332 17.4573 21.7332H17.7573C17.9839 21.7332 18.1839 21.6732 18.3973 21.6666C18.6173 21.6732 18.8173 21.7332 19.0439 21.7332H19.3439C19.5773 21.7332 19.7706 21.6732 19.9906 21.6666C20.2039 21.6732 20.3973 21.7332 20.6306 21.7332H20.9306C21.1573 21.7332 21.3573 21.6732 21.5773 21.6666C21.7906 21.6732 21.9906 21.7332 22.2173 21.7332H22.5173C22.7506 21.7332 22.9439 21.6732 23.1573 21.6666C23.3773 21.6732 23.5706 21.7332 23.8039 21.7332H24.1039L24.2239 21.7266L24.1906 21.6732C24.1239 21.6799 24.0506 21.6932 23.9773 21.6932C23.7573 21.6932 23.5639 21.6266 23.3306 21.6266H23.0306C22.8039 21.6266 22.6039 21.6932 22.3906 21.6932C22.1706 21.6866 21.9773 21.6266 21.7439 21.6266H21.4439C21.2173 21.6266 21.0173 21.6932 20.8039 21.6932C20.5839 21.6866 20.3906 21.6266 20.1573 21.6266H19.8573C19.6239 21.6266 19.4306 21.6932 19.2173 21.6932C18.9973 21.6866 18.8039 21.6266 18.5706 21.6266H18.2706C18.0439 21.6266 17.8439 21.6932 17.6306 21.6932C17.4106 21.6866 17.2173 21.6266 16.9839 21.6266H16.6839V21.6332Z" fill="url(#paint27_linear_17522_60700)"/>
<path d="M16.2573 21.6466L16.0906 21.9266C16.2839 21.8932 16.5639 21.8132 16.8039 21.8132C17.0439 21.8132 17.3373 21.8732 17.6306 21.8799C17.9639 21.8799 18.0973 21.7999 18.3639 21.7732C18.6373 21.7466 18.8973 21.8066 19.1639 21.8132C19.3706 21.8132 19.6906 21.7399 19.9639 21.7132C20.2306 21.6799 20.4773 21.7332 20.7973 21.7332C21.1239 21.7399 21.1773 21.6533 21.5706 21.6466C21.9973 21.6399 22.0373 21.7066 22.4106 21.7066C22.6906 21.7199 22.9373 21.6466 23.1906 21.6332C23.4439 21.6132 23.5573 21.6332 23.7439 21.6332L23.6173 21.4199L16.8639 21.5732L16.2573 21.6466Z" fill="#97C924"/>
<path d="M23.3306 21.6399L23.5972 21.6599C23.6616 21.6676 23.726 21.6743 23.7906 21.6799L23.7639 21.6466C23.7239 21.6599 23.4706 21.6332 23.3372 21.6466L23.3306 21.6399Z" fill="white"/>
<path d="M20 14.9922L15.6719 22.5H24.3281L20 14.9922ZM20 15.1875L22.1094 18.8359L24.1641 22.3984H15.8438L17.9453 18.7578L20 15.1875Z" fill="#C8A400"/>
</g>
<defs>
<linearGradient id="paint0_linear_17522_60700" x1="14.7034" y1="30.2041" x2="22.5189" y2="6.98432" gradientUnits="userSpaceOnUse">
<stop stop-color="#510000"/>
<stop offset="0.3" stop-color="#8A0000"/>
<stop offset="1" stop-color="#AA0000"/>
</linearGradient>
<linearGradient id="paint1_linear_17522_60700" x1="25.3394" y1="26.3284" x2="33.1389" y2="8.28352" gradientUnits="userSpaceOnUse">
<stop stop-color="#FF2A2A"/>
<stop offset="1" stop-color="#FF0000"/>
</linearGradient>
<linearGradient id="paint2_linear_17522_60700" x1="0" y1="-119.632" x2="68.4324" y2="-119.632" gradientUnits="userSpaceOnUse">
<stop stop-color="#002255"/>
<stop offset="0.5" stop-color="#0044AA"/>
<stop offset="1" stop-color="#002255"/>
</linearGradient>
<linearGradient id="paint3_linear_17522_60700" x1="0" y1="-119.632" x2="68.4324" y2="-119.632" gradientUnits="userSpaceOnUse">
<stop stop-color="#002255"/>
<stop offset="0.5" stop-color="#0044AA"/>
<stop offset="1" stop-color="#002255"/>
</linearGradient>
<linearGradient id="paint4_linear_17522_60700" x1="0" y1="-119.632" x2="68.4324" y2="-119.632" gradientUnits="userSpaceOnUse">
<stop stop-color="#002255"/>
<stop offset="0.5" stop-color="#0044AA"/>
<stop offset="1" stop-color="#002255"/>
</linearGradient>
<linearGradient id="paint5_linear_17522_60700" x1="0" y1="-119.632" x2="68.4324" y2="-119.632" gradientUnits="userSpaceOnUse">
<stop stop-color="#002255"/>
<stop offset="0.5" stop-color="#0044AA"/>
<stop offset="1" stop-color="#002255"/>
</linearGradient>
<linearGradient id="paint6_linear_17522_60700" x1="0" y1="-119.632" x2="68.4324" y2="-119.632" gradientUnits="userSpaceOnUse">
<stop stop-color="#002255"/>
<stop offset="0.5" stop-color="#0044AA"/>
<stop offset="1" stop-color="#002255"/>
</linearGradient>
<linearGradient id="paint7_linear_17522_60700" x1="0" y1="-119.632" x2="68.4324" y2="-119.632" gradientUnits="userSpaceOnUse">
<stop stop-color="#002255"/>
<stop offset="0.5" stop-color="#0044AA"/>
<stop offset="1" stop-color="#002255"/>
</linearGradient>
<linearGradient id="paint8_linear_17522_60700" x1="0" y1="-119.632" x2="68.4324" y2="-119.632" gradientUnits="userSpaceOnUse">
<stop stop-color="#002255"/>
<stop offset="0.5" stop-color="#0044AA"/>
<stop offset="1" stop-color="#002255"/>
</linearGradient>
<linearGradient id="paint9_linear_17522_60700" x1="0" y1="-119.632" x2="68.4324" y2="-119.632" gradientUnits="userSpaceOnUse">
<stop stop-color="#002255"/>
<stop offset="0.5" stop-color="#0044AA"/>
<stop offset="1" stop-color="#002255"/>
</linearGradient>
<linearGradient id="paint10_linear_17522_60700" x1="0" y1="-119.632" x2="68.4324" y2="-119.632" gradientUnits="userSpaceOnUse">
<stop stop-color="#002255"/>
<stop offset="0.5" stop-color="#0044AA"/>
<stop offset="1" stop-color="#002255"/>
</linearGradient>
<linearGradient id="paint11_linear_17522_60700" x1="-2.46964" y1="86.9565" x2="74.413" y2="86.9565" gradientUnits="userSpaceOnUse">
<stop stop-color="#002255"/>
<stop offset="0.5" stop-color="#0044AA"/>
<stop offset="1" stop-color="#002255"/>
</linearGradient>
<linearGradient id="paint12_linear_17522_60700" x1="-6.05634" y1="668.571" x2="83.0986" y2="668.571" gradientUnits="userSpaceOnUse">
<stop stop-color="#002255"/>
<stop offset="0.5" stop-color="#0044AA"/>
<stop offset="1" stop-color="#002255"/>
</linearGradient>
<linearGradient id="paint13_linear_17522_60700" x1="-8.46906" y1="17.8182" x2="-8.46906" y2="24.9697" gradientUnits="userSpaceOnUse">
<stop stop-color="#F5F549"/>
<stop offset="1" stop-color="#97C924"/>
</linearGradient>
<linearGradient id="paint14_linear_17522_60700" x1="-8.46906" y1="17.8182" x2="-8.46906" y2="24.9697" gradientUnits="userSpaceOnUse">
<stop stop-color="#F5F549"/>
<stop offset="1" stop-color="#97C924"/>
</linearGradient>
<linearGradient id="paint15_linear_17522_60700" x1="10.7599" y1="17.7508" x2="10.7599" y2="24.924" gradientUnits="userSpaceOnUse">
<stop stop-color="#F5F549"/>
<stop offset="1" stop-color="#97C924"/>
</linearGradient>
<linearGradient id="paint16_linear_17522_60700" x1="23.3469" y1="17.8182" x2="23.3469" y2="24.9697" gradientUnits="userSpaceOnUse">
<stop stop-color="#F5F549"/>
<stop offset="1" stop-color="#97C924"/>
</linearGradient>
<linearGradient id="paint17_linear_17522_60700" x1="23.3469" y1="17.8182" x2="23.3469" y2="24.9697" gradientUnits="userSpaceOnUse">
<stop stop-color="#F5F549"/>
<stop offset="1" stop-color="#97C924"/>
</linearGradient>
<linearGradient id="paint18_linear_17522_60700" x1="0.00417728" y1="0.157776" x2="40.0495" y2="0.157776" gradientUnits="userSpaceOnUse">
<stop stop-color="#002255"/>
<stop offset="0.5" stop-color="#0044AA"/>
<stop offset="1" stop-color="#002255"/>
</linearGradient>
<linearGradient id="paint19_linear_17522_60700" x1="0.139431" y1="1.008" x2="39.8593" y2="1.008" gradientUnits="userSpaceOnUse">
<stop stop-color="#002255"/>
<stop offset="0.5" stop-color="#0044AA"/>
<stop offset="1" stop-color="#002255"/>
</linearGradient>
<linearGradient id="paint20_linear_17522_60700" x1="0.139431" y1="1.008" x2="39.8593" y2="1.008" gradientUnits="userSpaceOnUse">
<stop stop-color="#002255"/>
<stop offset="0.5" stop-color="#0044AA"/>
<stop offset="1" stop-color="#002255"/>
</linearGradient>
<linearGradient id="paint21_linear_17522_60700" x1="0.139431" y1="1.008" x2="39.8593" y2="1.008" gradientUnits="userSpaceOnUse">
<stop stop-color="#002255"/>
<stop offset="0.5" stop-color="#0044AA"/>
<stop offset="1" stop-color="#002255"/>
</linearGradient>
<linearGradient id="paint22_linear_17522_60700" x1="0.139431" y1="1.008" x2="39.8593" y2="1.008" gradientUnits="userSpaceOnUse">
<stop stop-color="#002255"/>
<stop offset="0.5" stop-color="#0044AA"/>
<stop offset="1" stop-color="#002255"/>
</linearGradient>
<linearGradient id="paint23_linear_17522_60700" x1="0.139431" y1="1.008" x2="39.8593" y2="1.008" gradientUnits="userSpaceOnUse">
<stop stop-color="#002255"/>
<stop offset="0.5" stop-color="#0044AA"/>
<stop offset="1" stop-color="#002255"/>
</linearGradient>
<linearGradient id="paint24_linear_17522_60700" x1="0.139431" y1="1.008" x2="39.8593" y2="1.008" gradientUnits="userSpaceOnUse">
<stop stop-color="#002255"/>
<stop offset="0.5" stop-color="#0044AA"/>
<stop offset="1" stop-color="#002255"/>
</linearGradient>
<linearGradient id="paint25_linear_17522_60700" x1="0.139431" y1="1.008" x2="39.8593" y2="1.008" gradientUnits="userSpaceOnUse">
<stop stop-color="#002255"/>
<stop offset="0.5" stop-color="#0044AA"/>
<stop offset="1" stop-color="#002255"/>
</linearGradient>
<linearGradient id="paint26_linear_17522_60700" x1="0.139431" y1="1.008" x2="39.8593" y2="1.008" gradientUnits="userSpaceOnUse">
<stop stop-color="#002255"/>
<stop offset="0.5" stop-color="#0044AA"/>
<stop offset="1" stop-color="#002255"/>
</linearGradient>
<linearGradient id="paint27_linear_17522_60700" x1="0.139431" y1="1.008" x2="39.8593" y2="1.008" gradientUnits="userSpaceOnUse">
<stop stop-color="#002255"/>
<stop offset="0.5" stop-color="#0044AA"/>
<stop offset="1" stop-color="#002255"/>
</linearGradient>
<clipPath id="clip0_17522_60700">
<path d="M0 4C0 1.79086 1.79086 0 4 0H36C38.2091 0 40 1.79086 40 4V36C40 38.2091 38.2091 40 36 40H4C1.79086 40 0 38.2091 0 36V4Z" fill="white"/>
</clipPath>
</defs>
</svg>
