<svg width="40" height="40" viewBox="0 0 40 40" fill="none" xmlns="http://www.w3.org/2000/svg">
<g clip-path="url(#clip0_17522_60697)">
<path d="M0 0H40V40H0V0Z" fill="#0DB02B"/>
<path d="M0 0H40V26.6641H0V0Z" fill="white"/>
<path d="M0 0H40V13.3359H0V0Z" fill="#E05206"/>
<path d="M20 25.6641C23.1282 25.6641 25.6641 23.1282 25.6641 20C25.6641 16.8718 23.1282 14.3359 20 14.3359C16.8718 14.3359 14.3359 16.8718 14.3359 20C14.3359 23.1282 16.8718 25.6641 20 25.6641Z" fill="#E05206"/>
</g>
<defs>
<clipPath id="clip0_17522_60697">
<path d="M0 4C0 1.79086 1.79086 0 4 0H36C38.2091 0 40 1.79086 40 4V36C40 38.2091 38.2091 40 36 40H4C1.79086 40 0 38.2091 0 36V4Z" fill="white"/>
</clipPath>
</defs>
</svg>
