<svg width="40" height="40" viewBox="0 0 40 40" fill="none" xmlns="http://www.w3.org/2000/svg">
<g clip-path="url(#clip0_17522_60705)">
<path d="M0 0H40V40H0V0Z" fill="#FEDD00"/>
<path d="M0 0H20V20H0V0Z" fill="#012169"/>
<path d="M20 0V2.5L12.5781 10L20 17.3047V20H17.3828L9.92188 12.6562L2.65625 20H0V17.3438L7.26562 10.0391L0 2.89062V0H2.42188L9.92188 7.34375L17.1875 0H20Z" fill="white"/>
<path d="M7.1875 12.6562L7.61719 13.9844L1.64062 20H0V19.8828L7.1875 12.6562ZM12.0312 12.1875L14.1406 12.5L20 18.2422V20L12.0312 12.1875ZM20 0L12.5 7.65625L12.3438 5.9375L18.2031 0H20ZM0 0.0390625L7.53906 7.42188L5.23438 7.10938L0 1.91406V0.0390625Z" fill="#C8102E"/>
<path d="M6.875 0V20H13.125V0H6.875ZM0 6.875V13.125H20V6.875H0Z" fill="white"/>
<path d="M0 8.125V11.875H20V8.125H0ZM8.125 0V20H11.875V0H8.125Z" fill="#C8102E"/>
<path d="M10 13.4062C11.8812 13.4062 13.4062 11.8812 13.4062 10C13.4062 8.11878 11.8812 6.59375 10 6.59375C8.11878 6.59375 6.59375 8.11878 6.59375 10C6.59375 11.8812 8.11878 13.4062 10 13.4062Z" fill="#012169"/>
<path d="M10 6.59375L12 12.75L6.76562 8.94531H13.2344L8 12.75M4.16406 8.19531L5.33594 11.8125L2.26562 9.57812H6.07031L2.99219 11.8125M15.8359 8.19531L17.0078 11.8125L13.9297 9.57812H17.7344L14.6562 11.8125M10 14.8594L11.1719 18.4766L8.10156 16.2422H11.8984L8.82812 18.4766M10 1.52344L11.1719 5.15625L8.10156 2.91406H11.8984L8.82812 5.15625" fill="#FEDD00"/>
</g>
<defs>
<clipPath id="clip0_17522_60705">
<path d="M0 4C0 1.79086 1.79086 0 4 0H36C38.2091 0 40 1.79086 40 4V36C40 38.2091 38.2091 40 36 40H4C1.79086 40 0 38.2091 0 36V4Z" fill="white"/>
</clipPath>
</defs>
</svg>
