<svg width="40" height="40" viewBox="0 0 40 40" fill="none" xmlns="http://www.w3.org/2000/svg">
<g clip-path="url(#clip0_17522_60714)">
<path d="M0 0H40V40H0V0Z" fill="black"/>
<path fill-rule="evenodd" clip-rule="evenodd" d="M-7.42188 0H52.5781V40H-7.42188V0Z" fill="#0C590B"/>
<path fill-rule="evenodd" clip-rule="evenodd" d="M-7.42188 0H7.61719V40H-7.42188V0Z" fill="white"/>
<path fill-rule="evenodd" clip-rule="evenodd" d="M31.5391 17.6094L29.1016 17.0938L27.8203 19.2266L27.5547 16.7578L25.1328 16.1953L27.3984 15.1797L27.1875 12.7031L28.8594 14.5469L31.1484 13.5781L29.9062 15.7344L31.5469 17.6094H31.5391Z" fill="white"/>
<path fill-rule="evenodd" clip-rule="evenodd" d="M32.4531 23.9062C31.9332 25.0408 31.1941 26.0613 30.2784 26.9092C29.3627 27.7572 28.2884 28.4157 27.1173 28.8469C25.9462 29.2782 24.7014 29.4737 23.4545 29.4222C22.2076 29.3707 20.9831 29.0732 19.8516 28.5469C17.5558 27.4839 15.7763 25.5525 14.9045 23.1776C14.0328 20.8026 14.1402 18.1786 15.2031 15.8828C15.731 14.7027 16.5 13.646 17.4607 12.7809C18.4214 11.9157 19.5525 11.2612 20.7812 10.8594C20.4596 11.1272 20.1519 11.4115 19.8594 11.7109C18.3352 13.399 17.526 15.6129 17.6026 17.886C17.6791 20.1591 18.6354 22.3136 20.2697 23.8952C21.9041 25.4769 24.0888 26.3621 26.3631 26.3641C28.6375 26.3662 30.8237 25.4849 32.4609 23.9062H32.4531Z" fill="white"/>
</g>
<defs>
<clipPath id="clip0_17522_60714">
<path d="M0 4C0 1.79086 1.79086 0 4 0H36C38.2091 0 40 1.79086 40 4V36C40 38.2091 38.2091 40 36 40H4C1.79086 40 0 38.2091 0 36V4Z" fill="white"/>
</clipPath>
</defs>
</svg>
