<svg width="40" height="40" viewBox="0 0 40 40" fill="none" xmlns="http://www.w3.org/2000/svg">
<g clip-path="url(#clip0_17522_60712)">
<path d="M0.00101089 0H39.9949V39.9939H0.00101089V0Z" fill="black"/>
<path fill-rule="evenodd" clip-rule="evenodd" d="M-6.52218 0L-6.5625 39.9939H46.5745L-6.52218 0Z" fill="#000001"/>
<path fill-rule="evenodd" clip-rule="evenodd" d="M46.5342 39.9939L46.5745 0H-6.5625L46.5342 39.9939Z" fill="#FF0000"/>
<path d="M26.247 9.95009L25.5374 9.91784C25.3197 9.40179 24.7069 9.20827 24.3279 9.43404C23.9893 9.45823 22.1912 9.40178 22.1912 9.40178L23.5055 9.97428C23.828 10.8532 24.9569 11.0628 24.9569 11.0628C24.8601 12.6755 23.32 10.8532 22.0299 11.7724C21.1107 12.3288 21.0946 12.9819 20.5946 14.0543C20.3506 14.4246 20.0812 14.7775 19.7883 15.1106L20.8768 15.03L20.5301 15.4815L21.8202 15.296C21.8202 15.296 21.6509 15.4412 21.5461 15.5541C21.7396 15.5944 23.0217 15.2557 23.0217 15.2557L22.933 15.667C23.5861 15.4009 24.4005 15.1348 24.4005 15.1348C24.4005 15.1348 24.6908 15.3767 24.9569 15.4815L25.1423 14.7477L25.8761 14.9332L26.0615 14.1914C27.1662 15.667 27.5371 17.1425 29.561 17.5134L29.3755 16.7716C29.94 17.0135 30.9882 17.5296 30.9882 17.5296L31.1495 17.1909C32.0284 17.8198 32.7621 17.8118 33.2459 17.8763L32.8831 16.9571L33.254 17.1425L32.6976 15.667L33.254 15.8524L32.5122 14.7477L32.7863 14.5623L32.7057 14.0059C33.8023 14.3768 35.2859 14.9332 35.4633 16.2233C35.6488 18.2472 33.4314 18.8036 31.9639 18.6181C33.0685 19.5373 35.0924 19.1664 36.0197 18.2472C36.3695 17.8151 36.6201 17.3114 36.7534 16.7716C36.9389 17.328 37.3098 18.0617 37.3098 18.8036C37.1244 20.4565 34.907 21.0129 33.4394 21.1984C35.0924 22.1176 38.0436 21.0129 38.229 18.6181C38.229 16.5862 36.9389 15.667 36.3825 14.7477C36.3118 14.4189 36.2499 14.0882 36.1971 13.756C36.2777 13.7721 36.7534 14.014 36.7534 14.014C36.7534 14.014 36.4309 13.4012 36.3825 13.2722C36.3825 13.2722 35.81 11.7079 35.6004 11.3612C35.6327 11.337 36.0197 11.4257 36.0197 11.4257L34.5038 9.5308L34.9311 9.48242C34.9311 9.48242 33.1895 8.1036 32.7057 7.92621L33.262 7.74075C32.1493 7.19245 30.8592 7.55529 29.7545 8.29712L29.94 7.74075L29.6013 7.773V7.14407L29.94 6.63608L29.3917 6.45062L29.7545 5.53141L29.2062 5.71687L29.3917 4.78959C29.3917 4.78959 28.9724 4.98311 28.7224 4.95085C28.7305 4.97504 29.0208 4.32998 29.0208 4.32998C28.8434 4.05583 29.0208 3.49946 29.0208 3.49946C27.7306 3.68492 27.5452 3.87037 26.8114 4.97504C25.6987 7.00699 26.0696 7.9262 26.2551 9.95009H26.247Z" fill="#FFCC00"/>
<path fill-rule="evenodd" clip-rule="evenodd" d="M28.8956 3.61183C28.3378 3.69795 28.0193 3.78909 27.7603 3.96874C27.4788 4.16402 27.2587 4.46939 26.8909 5.02305C26.3417 6.02676 26.1617 6.74957 26.1391 7.46851C26.1237 7.95793 26.1805 8.44307 26.2479 9.01857C26.2809 9.3008 26.3165 9.60477 26.3474 9.94163L26.3567 10.0428H26.2449L25.4747 10.0078L25.452 9.95388C25.2533 9.48286 24.6998 9.3204 24.3754 9.5137L24.3565 9.52496L24.3345 9.52653C24.1597 9.53902 23.6197 9.53071 23.1305 9.51969C22.9665 9.51599 22.8072 9.51196 22.6677 9.50823L23.5789 9.9051L23.5925 9.94233C23.7422 10.3503 24.0813 10.6081 24.3938 10.7653C24.5491 10.8435 24.6951 10.8953 24.8022 10.9275C24.8556 10.9436 24.8992 10.9548 24.9291 10.9619C24.944 10.9654 24.9555 10.9679 24.9631 10.9695C24.9651 10.9699 24.9668 10.9703 24.9682 10.9706C24.9696 10.9708 24.9707 10.971 24.9716 10.9712L24.9735 10.9716L25.0543 10.9866L25.0494 11.0684C25.0246 11.4816 24.9047 11.7201 24.6742 11.811C24.5656 11.8539 24.4437 11.8585 24.3191 11.8459C24.1942 11.8333 24.0583 11.8025 23.9185 11.7676C23.8818 11.7585 23.8448 11.7491 23.8075 11.7396C23.2628 11.6013 22.6486 11.4454 22.0837 11.8479L22.0809 11.8499L22.0779 11.8517C21.6352 12.1196 21.4128 12.4078 21.2381 12.7609C21.1506 12.9379 21.0753 13.1309 20.99 13.3493L20.9869 13.3573C20.9007 13.578 20.805 13.8224 20.6787 14.0935L20.6758 14.0996L20.6721 14.1053C20.4668 14.4167 20.2438 14.716 20.0041 15.0016L21.0765 14.9222L20.7424 15.3573L22.1228 15.1589M24.4599 15.0635L24.4626 15.0658C24.4646 15.0675 24.4677 15.07 24.4717 15.0732C24.4797 15.0797 24.4916 15.0892 24.5068 15.1009C24.5372 15.1245 24.5805 15.157 24.6318 15.1927C24.7088 15.2462 24.8012 15.305 24.8941 15.3516L25.0751 14.6351L25.8087 14.8205L26.0189 13.9797L26.1358 14.1358C26.401 14.4901 26.6241 14.8441 26.8357 15.1799C26.8466 15.1971 26.8574 15.2142 26.8682 15.2313C27.0903 15.5835 27.3007 15.9134 27.5387 16.2084C27.9879 16.7652 28.5345 17.1972 29.4355 17.3937L29.2402 16.6128L29.4121 16.6864C29.6962 16.8082 30.101 16.9984 30.4336 17.1577C30.6001 17.2374 30.749 17.3096 30.8562 17.3618C30.8902 17.3783 30.9199 17.3929 30.9448 17.405L31.1134 17.0511L31.2034 17.1155C31.9407 17.6431 32.5674 17.7094 33.0413 17.7596C33.0621 17.7618 33.0825 17.7639 33.1027 17.7661L32.7079 16.7658L33.0837 16.9537L32.5421 15.5174L33.0255 15.6785L32.3837 14.7227L32.6862 14.5181L32.5922 13.8697L32.7354 13.9181C33.2833 14.1034 33.9388 14.3384 34.48 14.6923C35.0222 15.0469 35.4614 15.5288 35.5552 16.2107L35.5555 16.2128L35.5557 16.2149C35.6037 16.739 35.4963 17.1735 35.2802 17.5259C35.0647 17.8773 34.7447 18.1413 34.376 18.3316C33.7515 18.654 32.9785 18.7699 32.3018 18.7397C32.7984 19.0236 33.4259 19.1058 34.0471 19.03C34.7892 18.9395 35.5045 18.6252 35.9508 18.1849C36.2904 17.7643 36.5337 17.2743 36.6634 16.7494L36.7402 16.4387L36.8414 16.7423C36.885 16.8732 36.9392 17.0144 36.9974 17.166L37.0052 17.1863C37.066 17.3448 37.1304 17.5136 37.1891 17.6886C37.3063 18.0381 37.4025 18.418 37.4025 18.8036V18.8088L37.402 18.8139C37.3041 19.6863 36.6696 20.2597 35.8958 20.6347C35.2266 20.9592 34.4388 21.1429 33.7612 21.247C34.5255 21.5448 35.5025 21.4682 36.3447 21.0673C37.2888 20.6178 38.0454 19.7695 38.1363 18.6145C38.1355 17.6226 37.8211 16.9032 37.4368 16.3165C37.2443 16.0224 37.0344 15.762 36.8354 15.515L36.8336 15.5127C36.6353 15.2667 36.4461 15.0319 36.3032 14.7958L36.2951 14.7825L36.2919 14.7672C36.2208 14.4368 36.1586 14.1044 36.1055 13.7705L36.0846 13.6389L36.2153 13.665C36.2343 13.6688 36.2575 13.6773 36.2781 13.6854C36.3006 13.6943 36.3272 13.7056 36.3558 13.7184C36.4113 13.7432 36.477 13.7742 36.5401 13.8047C36.5282 13.7816 36.5159 13.7578 36.5036 13.7337C36.4183 13.5671 36.3223 13.3755 36.2957 13.3047L36.3768 13.2743C36.2954 13.304 36.2957 13.3047 36.2957 13.3047L36.289 13.2865C36.2848 13.275 36.2786 13.2581 36.2705 13.2364C36.2545 13.1931 36.2314 13.1307 36.203 13.0548C36.1461 12.903 36.0682 12.6971 35.9837 12.4804C35.8992 12.2636 35.8083 12.0365 35.7257 11.8423C35.6423 11.6462 35.5696 11.4894 35.521 11.4091L35.4776 11.3373L35.5448 11.287C35.5662 11.2709 35.5891 11.2673 35.5969 11.2662C35.6081 11.2645 35.6192 11.2642 35.6284 11.2643C35.6472 11.2644 35.6689 11.2664 35.6906 11.269C35.7198 11.2725 35.7532 11.2777 35.7874 11.2837L34.3264 9.45755L34.6956 9.41576C34.6651 9.39208 34.6314 9.36589 34.5947 9.33757C34.4242 9.20579 34.1919 9.02831 33.9447 8.84538C33.6973 8.66233 33.4356 8.47436 33.2061 8.32136C32.9735 8.16628 32.7827 8.05323 32.6738 8.01327L32.4249 7.92204L33.0031 7.72933C31.9844 7.34506 30.8259 7.68937 29.8062 8.3741L29.5806 8.52559L29.807 7.84657L29.5086 7.87498V7.11599L29.7958 6.6852L29.2696 6.50724L29.5949 5.6833L29.0838 5.85616L29.267 4.94015C29.24 4.95007 29.2105 4.96037 29.1795 4.97048C29.0468 5.01374 28.8684 5.0592 28.7232 5.04428C28.717 5.04427 28.7104 5.04365 28.7035 5.04216C28.6577 5.03231 28.6397 4.99584 28.6344 4.98018L28.5877 4.83998L28.6751 4.85125C28.6794 4.84277 28.6842 4.83327 28.6894 4.8228C28.7172 4.76685 28.7538 4.68938 28.7905 4.61039C28.8272 4.53159 28.8636 4.45197 28.8909 4.392C28.9009 4.36984 28.9098 4.35038 28.9169 4.33466C28.8793 4.25935 28.8611 4.17492 28.8536 4.09302C28.8444 3.99335 28.8506 3.89089 28.8623 3.80015C28.8713 3.72967 28.8837 3.66482 28.8956 3.61183M29.0208 4.32998C29.1053 4.36803 29.1053 4.36804 29.1053 4.36804L29.0928 4.39585C29.0848 4.4135 29.0734 4.43867 29.0597 4.46879C29.0323 4.52902 28.9956 4.60915 28.9587 4.68859C28.9318 4.74641 28.9046 4.80423 28.8806 4.85387C28.9577 4.84253 29.0423 4.82014 29.122 4.79415C29.1874 4.77285 29.2455 4.7505 29.2872 4.73347C29.308 4.72497 29.3247 4.71784 29.336 4.71289C29.3417 4.71041 29.346 4.70848 29.3488 4.7072L29.352 4.70577L29.5183 4.62899L29.3286 5.57757L29.9142 5.37952L29.5137 6.39401L30.0842 6.58696L29.694 7.17214V7.67102L30.073 7.63493L29.9255 8.07725C30.9928 7.42436 32.2225 7.12515 33.303 7.65757L33.5055 7.75734L32.9498 7.94259C33.0561 8.00269 33.1791 8.08049 33.3089 8.16705C33.5421 8.32246 33.8065 8.51245 34.055 8.69629C34.3036 8.88023 34.537 9.05855 34.7081 9.19084C34.7937 9.25699 34.8638 9.31167 34.9125 9.34983C34.9369 9.36891 34.9559 9.38386 34.9688 9.39405L34.9884 9.40945C34.9884 9.40946 34.9887 9.40972 34.9311 9.48242L34.9884 9.40945L35.165 9.54927L34.6811 9.60404L36.2583 11.5755L35.999 11.5161L35.9948 11.5151L35.9828 11.5124C35.9723 11.5101 35.9573 11.5067 35.9391 11.5028C35.9028 11.495 35.8542 11.4848 35.8048 11.4754C35.79 11.4726 35.7753 11.4699 35.761 11.4674C35.8023 11.553 35.8484 11.657 35.8964 11.7697C35.9801 11.9664 36.0717 12.1954 36.1565 12.413C36.2413 12.6307 36.3196 12.8375 36.3766 12.9898C36.4052 13.066 36.4284 13.1286 36.4445 13.1721C36.4525 13.1939 36.4588 13.2109 36.4631 13.2225L36.4692 13.2391C36.4691 13.239 36.4692 13.2392 36.4692 13.2391C36.4912 13.2977 36.5808 13.4775 36.6687 13.6492C36.7119 13.7336 36.7536 13.814 36.7845 13.8734C36.7936 13.8907 36.8017 13.9063 36.8087 13.9196C36.8136 13.929 36.8179 13.9373 36.8216 13.9444L36.8354 13.9707L36.9713 14.2288L36.7062 14.094L36.6911 14.0863C36.678 14.0797 36.6592 14.0703 36.6364 14.0589C36.5907 14.036 36.5291 14.0055 36.4651 13.9745C36.4141 13.9498 36.3619 13.9249 36.3152 13.9036C36.3608 14.1745 36.4123 14.4443 36.4699 14.7129C36.6042 14.932 36.7817 15.1529 36.978 15.3964L36.982 15.4014C37.1797 15.6467 37.3944 15.9132 37.592 16.2149C37.9914 16.8248 38.3218 17.58 38.3218 18.6181V18.6217L38.3215 18.6253C38.2256 19.8632 37.4145 20.7634 36.4244 21.2347C35.4369 21.7048 34.2533 21.7571 33.3944 21.2794L33.147 21.1419L33.4278 21.1064C34.1578 21.0141 35.0673 20.8303 35.8149 20.4678C36.5615 20.1059 37.1276 19.5762 37.2171 18.7984C37.2162 18.4438 37.1273 18.0878 37.0133 17.7475C36.956 17.5768 36.8929 17.4115 36.832 17.2527L36.8236 17.2308C36.8031 17.1774 36.7829 17.1247 36.7633 17.0729C36.6165 17.5204 36.3891 17.9383 36.0917 18.3056L36.0886 18.3095L36.085 18.3131C35.6037 18.7901 34.8453 19.1195 34.0695 19.2141C33.2938 19.3088 32.4829 19.1707 31.9045 18.6894L31.6605 18.4863L31.9755 18.5261C32.6955 18.6171 33.5969 18.5251 34.2909 18.1668C34.6368 17.9882 34.9281 17.7452 35.1221 17.4289C35.3152 17.114 35.4154 16.7207 35.3712 16.2339C35.2869 15.6267 34.8959 15.186 34.3784 14.8475C33.9039 14.5372 33.3329 14.3195 32.8192 14.1426L32.8864 14.6065L32.6407 14.7728L33.4825 16.0263L32.8531 15.8165L33.4243 17.3314L33.0583 17.1483L33.3901 17.9891L33.2337 17.9682C33.1691 17.9596 33.0992 17.9523 33.0245 17.9444C32.5672 17.8965 31.9271 17.8295 31.1862 17.3294L31.0315 17.6543L30.9472 17.6128L30.9882 17.5296C30.9472 17.6128 30.9472 17.6128 30.9472 17.6128L30.9013 17.5902C30.8715 17.5756 30.8285 17.5546 30.775 17.5285C30.668 17.4764 30.5196 17.4045 30.3535 17.3249C30.0843 17.1961 29.77 17.0479 29.5113 16.9324L29.6859 17.6306L29.5443 17.6047C28.5069 17.4145 27.8897 16.9388 27.3944 16.3249C27.1486 16.0202 26.9327 15.6814 26.7113 15.3303C26.7008 15.3136 26.6903 15.297 26.6798 15.2803C26.4998 14.9947 26.3146 14.7008 26.1035 14.4058L25.9435 15.0459L25.2095 14.8604L25.0209 15.6064L24.9229 15.5678C24.7798 15.5114 24.6338 15.4199 24.526 15.345C24.4715 15.3071 24.4256 15.2726 24.3932 15.2475C24.3892 15.2444 24.3854 15.2414 24.3818 15.2386C24.3592 15.2461 24.3291 15.2561 24.2926 15.2684C24.2063 15.2974 24.0845 15.3389 23.9423 15.3886C23.6576 15.4882 23.2924 15.6206 22.968 15.7528L22.8053 15.8191L22.8423 15.6474M20.6772 15.1377L19.5688 15.2198L19.7187 15.0494C20.0072 14.7212 20.2728 14.3736 20.5135 14.009C20.6356 13.7463 20.7286 13.5089 20.8141 13.2898L20.8189 13.2776C20.9029 13.0625 20.9808 12.863 21.0719 12.6787C21.2598 12.2989 21.5043 11.9828 21.9789 11.6949C22.6161 11.2429 23.3121 11.4211 23.8446 11.5575C23.8851 11.5679 23.9247 11.5781 23.9633 11.5877C24.1027 11.6224 24.2273 11.6502 24.3377 11.6614C24.4484 11.6726 24.5366 11.666 24.6061 11.6385C24.7232 11.5923 24.8255 11.4692 24.8582 11.1354C24.8284 11.128 24.7914 11.118 24.7487 11.1051C24.634 11.0706 24.4776 11.0151 24.3104 10.931C23.9868 10.7682 23.612 10.4925 23.4328 10.0438L22.1541 9.4868L22.1941 9.3091L22.1912 9.40178C22.1941 9.3091 22.1941 9.3091 22.1941 9.3091L22.2143 9.30973C22.2275 9.31014 22.247 9.31073 22.2719 9.31148C22.3216 9.31297 22.3932 9.31508 22.48 9.31754C22.6538 9.32245 22.8889 9.32874 23.1346 9.33428C23.6099 9.34499 24.1165 9.35263 24.3006 9.34282C24.7201 9.11107 25.3465 9.3148 25.5982 9.82778L26.1528 9.85298C26.1254 9.56972 26.0946 9.30639 26.0655 9.05722C25.9971 8.47258 25.9379 7.96591 25.9537 7.46267C25.9774 6.70887 26.168 5.95693 26.7301 4.93051L26.732 4.92704L26.7342 4.92374C27.0988 4.37482 27.338 4.03595 27.6546 3.81636C27.9736 3.5951 28.3623 3.50044 29.0076 3.40768L29.1541 3.38662L29.1091 3.52758L29.1088 3.52862L29.1075 3.53269C29.1064 3.53639 29.1047 3.54203 29.1026 3.5494C29.0984 3.56417 29.0925 3.58584 29.0859 3.61279C29.0726 3.66686 29.0567 3.7414 29.0462 3.82368C29.0356 3.90631 29.0308 3.99434 29.0383 4.07609C29.0458 4.15858 29.0654 4.22831 29.0986 4.27961L29.126 4.32199L29.1053 4.36804L29.0208 4.32998" fill="#FFCC00"/>
<path fill-rule="evenodd" clip-rule="evenodd" d="M33.2137 12.9819C33.3104 13.1431 34.3506 13.6431 35.1408 14.0946C34.9311 13.2399 33.3911 13.0545 33.2056 12.9819H33.2137Z" fill="#FF0000"/>
<path fill-rule="evenodd" clip-rule="evenodd" d="M33.1788 13.0028L33.2056 12.8609H33.2821L33.2949 12.8821C33.3118 12.8863 33.3333 12.8914 33.3602 12.8975C33.3783 12.9017 33.3984 12.9061 33.4199 12.9109C33.4681 12.9217 33.5241 12.9342 33.5845 12.9484C33.7603 12.9899 33.9824 13.0479 34.2065 13.1316C34.4298 13.2151 34.6605 13.3259 34.8507 13.4752C35.0415 13.625 35.1975 13.8181 35.2583 14.0658L35.3254 14.3394L35.0808 14.1996C34.8139 14.0471 34.5194 13.8897 34.241 13.7407C34.1086 13.67 33.9799 13.6011 33.8594 13.5357C33.6738 13.4348 33.5074 13.3416 33.3807 13.2631C33.3175 13.2238 33.2621 13.187 33.2184 13.1536C33.1788 13.1233 33.135 13.0859 33.11 13.0441L33.1788 13.0028ZM33.9039 13.2844C33.9272 13.2971 33.9508 13.31 33.9749 13.3231C34.0924 13.387 34.2195 13.4549 34.3509 13.5252C34.5079 13.6092 34.6712 13.6965 34.8319 13.7842C34.7929 13.7426 34.7492 13.7031 34.7014 13.6655C34.5381 13.5374 34.3328 13.4371 34.1218 13.3582C34.0487 13.3309 33.9755 13.3064 33.9039 13.2844Z" fill="#FF0000"/>
<path fill-rule="evenodd" clip-rule="evenodd" d="M7.87077 33.253L6.69353 32.5031L5.12119 33.261L5.47598 31.9145L4.26649 30.6485L5.66144 30.5679L6.49195 29.0359L6.99994 30.326L8.70935 30.6405L7.63694 31.5274L7.87077 33.253ZM10.8784 26.6733L10.3301 26.4153L9.81403 26.7136L9.89466 26.117L9.44311 25.7138L10.0398 25.6009L10.2817 25.0526L10.572 25.5848L11.1687 25.6493L10.7494 26.0847L10.8784 26.6733ZM13.5312 22.8997L12.3378 22.3192L11.1767 22.9642L11.3622 21.658L10.3865 20.7549L11.6928 20.5291L12.2411 19.3196L12.87 20.4969L14.1843 20.642L13.2732 21.6096L13.5312 22.8997ZM8.07236 17.6586L6.66935 16.949L5.29859 17.707L5.52436 16.1588L4.37937 15.0783L5.92752 14.8284L6.59678 13.4012L7.32247 14.7961L8.87868 14.9896L7.77401 16.1185L8.07236 17.6586ZM3.03281 23.1013L1.61367 22.2627L0.202594 23.1255L0.565441 21.5128L-0.69243 20.4404L0.952478 20.2792L1.58948 18.7552L2.23454 20.2711L3.88751 20.4082L2.65383 21.4967L3.03281 23.1013Z" fill="white"/>
</g>
<defs>
<clipPath id="clip0_17522_60712">
<path d="M0 4C0 1.79086 1.79086 0 4 0H36C38.2091 0 40 1.79086 40 4V36C40 38.2091 38.2091 40 36 40H4C1.79086 40 0 38.2091 0 36V4Z" fill="white"/>
</clipPath>
</defs>
</svg>
