<svg width="40" height="40" viewBox="0 0 40 40" fill="none" xmlns="http://www.w3.org/2000/svg">
<g clip-path="url(#clip0_17544_66396)">
<path d="M0 0H40V20H0V0Z" fill="#0038A8"/>
<path d="M0 20H40V40H0V20Z" fill="#CE1126"/>
<path d="M34.6406 20L0 40V0" fill="white"/>
<path d="M1.96875 3.46875L3.17188 4.50781L4.57031 3.74219L3.94531 5.20312L5.11719 6.29688L3.51562 6.16406L2.84375 7.60156L2.47656 6.05469L0.898438 5.85156L2.26562 5.03125L1.96875 3.46875ZM29.0703 17.8906L29.1016 19.4766L30.6094 20L29.1016 20.5234L29.0703 22.1094L28.1094 20.8438L26.5859 21.3125L27.5 20L26.5859 18.6953L28.1094 19.1562L29.0703 17.8906ZM2.85156 32.3984L3.52344 33.8359L5.10938 33.7031L3.95312 34.7969L4.57031 36.2578L3.17188 35.4922L1.96875 36.5312L2.27344 34.9688L0.90625 34.1484L2.48438 33.9453L2.85156 32.3984ZM12.4141 11.5625L11.8984 12.0781L12.1484 16.0078L11.8906 16.0312L11.4219 12.4453L10.9922 12.8672L11.6328 16.0703C11.1187 16.1743 10.6302 16.3787 10.1953 16.6719L8.375 13.9531H7.77344L9.97656 16.8281L9.78125 16.9922L7.17969 14.0234H6.44531V14.7656L9.41406 17.3672L9.24219 17.5625L6.36719 15.3594V15.9609L9.08594 17.7812C8.79533 18.2167 8.59356 18.7052 8.49219 19.2188L5.28906 18.5781L4.85938 19.0078L8.45312 19.4766L8.42188 19.7422L4.49219 19.4844L3.96875 20L4.49219 20.5156L8.42188 20.2656L8.44531 20.5234L4.85938 20.9922L5.28125 21.4219L8.48438 20.7812C8.58833 21.2953 8.79276 21.7838 9.08594 22.2188L6.36719 24.0391V24.6406L9.24219 22.4375L9.40625 22.6328L6.4375 25.2344V25.9688H7.1875L9.78906 23L9.98438 23.1719L7.78125 26.0469H8.38281L10.2031 23.3281C10.6384 23.6189 11.127 23.8207 11.6406 23.9219L11 27.125L11.4297 27.5547L11.8984 23.9609L12.1562 23.9922L11.9062 27.9219L12.4219 28.4453L12.9375 27.9219L12.6875 23.9922L12.9453 23.9688L13.4141 27.5547L13.8438 27.1328L13.2031 23.9297C13.7172 23.8257 14.2057 23.6213 14.6406 23.3281L16.4609 26.0469H17.0625L14.8438 23.1719L15.0391 23.0078L17.6406 25.9766H18.375V25.2344L15.4062 22.6328L15.5781 22.4375L18.4531 24.6406V24.0391L15.7344 22.2188C16.025 21.7833 16.2268 21.2948 16.3281 20.7812L19.5312 21.4219L19.9609 20.9922L16.3672 20.5234L16.3984 20.2656L20.3281 20.5156L20.8516 20L20.3281 19.4844L16.3984 19.7422C16.3984 19.6484 16.3828 19.5625 16.375 19.4766L19.9609 19.0078L19.5391 18.5781L16.3359 19.2188C16.232 18.7047 16.0276 18.2162 15.7344 17.7812L18.4531 15.9609V15.3594L15.5781 17.5625L15.4141 17.3672L18.3828 14.7656V14.0313H17.6406L15.0391 17L14.8438 16.8281L17.0469 13.9531H16.4453L14.625 16.6719C14.1896 16.3813 13.7011 16.1795 13.1875 16.0781L13.8281 12.875L13.3984 12.4453L12.9297 16.0391L12.6719 16.0078L12.9219 12.0781L12.4141 11.5625Z" fill="#FCD116"/>
</g>
<defs>
<clipPath id="clip0_17544_66396">
<path d="M0 20C0 8.95431 8.95431 0 20 0C31.0457 0 40 8.95431 40 20C40 31.0457 31.0457 40 20 40C8.95431 40 0 31.0457 0 20Z" fill="white"/>
</clipPath>
</defs>
</svg>
