<svg width="40" height="40" viewBox="0 0 40 40" fill="none" xmlns="http://www.w3.org/2000/svg">
<g clip-path="url(#clip0_17544_66504)">
<path d="M-0.00152469 0H40.0007V40.0022H-0.00152469V0Z" fill="black"/>
<path fill-rule="evenodd" clip-rule="evenodd" d="M-2.91406 0H57.0865V40.0022H-2.91406V0Z" fill="#ED0000"/>
<path fill-rule="evenodd" clip-rule="evenodd" d="M-2.91406 7.99819H57.0865V16.002H-2.91406V7.99819ZM-2.91406 24.0002H57.0865V31.9984H-2.91406V24.0002Z" fill="white"/>
<path fill-rule="evenodd" clip-rule="evenodd" d="M-2.91406 0L31.5171 19.9757L-2.91406 39.9232V0Z" fill="#0050F0"/>
<path fill-rule="evenodd" clip-rule="evenodd" d="M12.2244 25.4283L8.51595 22.6625L4.83013 25.4565L6.20173 20.9127L2.5159 18.1074L7.07097 18.0679L8.48209 13.541L9.92707 18.0566L14.4821 18.0622L10.8189 20.8958L12.2244 25.4283Z" fill="white"/>
</g>
<defs>
<clipPath id="clip0_17544_66504">
<path d="M0 20C0 8.95431 8.95431 0 20 0C31.0457 0 40 8.95431 40 20C40 31.0457 31.0457 40 20 40C8.95431 40 0 31.0457 0 20Z" fill="white"/>
</clipPath>
</defs>
</svg>
