<svg width="40" height="40" viewBox="0 0 40 40" fill="none" xmlns="http://www.w3.org/2000/svg">
<g clip-path="url(#clip0_17544_67025)">
<path d="M0 0H40V40H0V0Z" fill="#8D1B3D"/>
<path d="M0 0V40H8.82812L16.9688 37.7812L8.82812 35.5469L16.9688 33.3281L8.82812 31.1094L16.9688 28.8906L8.82812 26.6641L16.9688 24.4531L8.82812 22.2188L16.9688 20L8.82812 17.7812L16.9688 15.5469L8.82812 13.3359L16.9688 11.1094L8.82812 8.89062L16.9688 6.66406L8.82812 4.45312L16.9688 2.23438L8.82812 0H0Z" fill="white"/>
</g>
<defs>
<clipPath id="clip0_17544_67025">
<path d="M0 20C0 8.95431 8.95431 0 20 0C31.0457 0 40 8.95431 40 20C40 31.0457 31.0457 40 20 40C8.95431 40 0 31.0457 0 20Z" fill="white"/>
</clipPath>
</defs>
</svg>
