<svg width="40" height="40" viewBox="0 0 40 40" fill="none" xmlns="http://www.w3.org/2000/svg">
<g clip-path="url(#clip0_17522_60728)">
<path d="M0 0H40V40H0V0Z" fill="#20603D"/>
<path d="M0 0H40V30H0V0Z" fill="#FAD201"/>
<path d="M0 0H40V20H0V0Z" fill="#00A1DE"/>
<path d="M35.6999 10.4531L31.2333 10.7142L35.4777 12.1253L31.1 11.2198L34.8388 13.6753L30.8389 11.6642L33.8055 15.0142L30.4666 12.042L32.4777 16.0419L30.0167 12.3031L30.9166 16.6752L29.5111 12.4364L29.25 16.903L29.1944 10.3976L35.6999 10.4531Z" fill="#E5BE01"/>
<path d="M35.6999 10.4531L31.2333 10.192L35.4777 8.78093L31.1 9.68647L34.8388 7.23095L30.8389 9.24203L33.8055 5.89209L30.4666 8.86426L32.4777 4.86432L30.0167 8.60315L30.9166 4.231L29.5111 8.46982L29.25 4.00323L29.1944 10.5087L35.6999 10.4531Z" fill="#E5BE01"/>
<path d="M22.8001 10.4531L27.2667 10.7142L23.0223 12.1253L27.4 11.2198L23.6612 13.6753L27.6611 11.6642L24.6945 15.0142L28.0334 12.042L26.0223 16.0419L28.4833 12.3031L27.5834 16.6752L28.9889 12.4364L29.25 16.903L29.3056 10.3976L22.8001 10.4531Z" fill="#E5BE01"/>
<path d="M22.8001 10.4531L27.2667 10.192L23.0223 8.78093L27.4 9.68647L23.6612 7.23095L27.6611 9.24203L24.6945 5.89209L28.0334 8.86426L26.0223 4.86432L28.4833 8.60315L27.5834 4.231L28.9889 8.46982L29.25 4.00323L29.3056 10.5087L22.8001 10.4531Z" fill="#E5BE01"/>
<path d="M29.25 12.3587C30.3024 12.3587 31.1555 11.5055 31.1555 10.4531C31.1555 9.40073 30.3024 8.5476 29.25 8.5476C28.1976 8.5476 27.3445 9.40073 27.3445 10.4531C27.3445 11.5055 28.1976 12.3587 29.25 12.3587Z" fill="#E5BE01"/>
<path fill-rule="evenodd" clip-rule="evenodd" d="M29.25 8.64204C28.2498 8.64204 27.4389 9.45289 27.4389 10.4531C27.4389 11.4534 28.2498 12.2642 29.25 12.2642C30.2502 12.2642 31.0611 11.4534 31.0611 10.4531C31.0611 9.45289 30.2502 8.64204 29.25 8.64204ZM27.25 10.4531C27.25 9.34857 28.1454 8.45316 29.25 8.45316C30.3546 8.45316 31.25 9.34857 31.25 10.4531C31.25 11.5577 30.3546 12.4531 29.25 12.4531C28.1454 12.4531 27.25 11.5577 27.25 10.4531Z" fill="#00A1DE"/>
</g>
<defs>
<clipPath id="clip0_17522_60728">
<path d="M0 4C0 1.79086 1.79086 0 4 0H36C38.2091 0 40 1.79086 40 4V36C40 38.2091 38.2091 40 36 40H4C1.79086 40 0 38.2091 0 36V4Z" fill="white"/>
</clipPath>
</defs>
</svg>
