<svg width="40" height="40" viewBox="0 0 40 40" fill="none" xmlns="http://www.w3.org/2000/svg">
<g clip-path="url(#clip0_17522_60783)">
<path fill-rule="evenodd" clip-rule="evenodd" d="M0 0H40V40H0V0Z" fill="#CE1126"/>
<path fill-rule="evenodd" clip-rule="evenodd" d="M0 0H20V20H0V0Z" fill="#002B7F"/>
<path fill-rule="evenodd" clip-rule="evenodd" d="M11.4844 18.0781L9.95312 17.0391L8.47656 18.0938L8.94531 16.2578L7.53906 15.1094L9.35156 15.0078L9.95312 13.2578L10.6172 15.0391L12.3984 15.0781L10.9766 16.2891L11.4844 18.0781ZM11.2188 5.82812L10 5.04687L8.79688 5.82812L9.125 4.34375L8.05469 3.39844L9.48438 3.27344L10.0156 1.90625L10.5703 3.28906L11.9766 3.39844L10.8828 4.375L11.2188 5.82812ZM5.80469 10.2344L4.61719 9.39062L3.41406 10.2031L3.77344 8.77344L2.65625 7.82812L4.07812 7.76562L4.60156 6.35156L5.11719 7.74219L6.54688 7.82812L5.42969 8.76562L5.80469 10.2344ZM16.6641 9.24219L15.5156 8.5L14.3984 9.25781L14.7109 7.89844L13.6953 7.02344L15.0469 6.91406L15.5156 5.63281L16.0312 6.92969L17.3438 7.00781L16.3125 7.91406L16.6641 9.24219ZM13.4531 12.4688L12.6953 11.9844L11.9453 12.4688L12.1406 11.5625L11.4609 10.9609L12.3516 10.8828L12.6953 10.0234L13.0469 10.8828L13.9219 10.9609L13.2578 11.5625L13.4531 12.4688Z" fill="white"/>
</g>
<defs>
<clipPath id="clip0_17522_60783">
<path d="M0 4C0 1.79086 1.79086 0 4 0H36C38.2091 0 40 1.79086 40 4V36C40 38.2091 38.2091 40 36 40H4C1.79086 40 0 38.2091 0 36V4Z" fill="white"/>
</clipPath>
</defs>
</svg>
