<svg width="40" height="40" viewBox="0 0 40 40" fill="none" xmlns="http://www.w3.org/2000/svg">
<g clip-path="url(#clip0_17544_67575)">
<path d="M-0.0015316 0H39.9923V39.9939H-0.0015316V0Z" fill="black"/>
<path fill-rule="evenodd" clip-rule="evenodd" d="M-10 0H49.9908V39.9939H-10V0Z" fill="#165D31"/>
<path fill-rule="evenodd" clip-rule="evenodd" d="M5.11865 11.337C5.05415 12.2723 4.96545 13.9172 5.76372 14.0866C6.72325 14.1752 6.19107 12.4578 6.53779 12.1514C6.61036 11.9901 6.73131 11.9901 6.73937 12.1917V13.6431C6.73131 14.1269 7.03772 14.2559 7.27961 14.3607C7.53764 14.3365 7.6989 14.3446 7.80373 14.5865L7.91661 17.1103C7.91661 17.1103 8.50523 17.2715 8.52942 15.6911C8.56167 14.7639 8.34397 13.9817 8.47298 13.8043C8.47298 13.6269 8.69875 13.6189 8.86002 13.6995C9.10998 13.8769 9.22286 14.1027 9.6099 14.0059C10.2066 13.8447 10.5614 13.5544 10.5775 13.1028C10.557 12.6581 10.4644 12.2197 10.3033 11.8046C10.3275 11.724 10.1824 11.5224 10.2146 11.4418C10.3195 11.6031 10.4807 11.595 10.5211 11.4418C10.4162 11.1031 10.263 10.7887 10.005 10.6516C9.79536 10.4661 9.48895 10.5065 9.37607 10.8935C9.36284 11.4018 9.53478 11.8975 9.85986 12.2884C9.96125 12.5075 10.003 12.7495 9.98081 12.9899C9.81148 13.0948 9.64215 13.0464 9.49701 12.9012C9.49701 12.9012 9.02128 12.5384 9.02128 12.4658C9.15029 11.6595 9.05353 11.5708 8.98096 11.345C8.93259 11.0386 8.78745 10.9419 8.6665 10.7322C8.54555 10.6032 8.39235 10.6032 8.31171 10.7322C8.10207 11.0951 8.19883 11.8691 8.35203 12.2159C8.46492 12.5384 8.62618 12.74 8.54555 12.74C8.48104 12.9174 8.35203 12.8771 8.25527 12.6674C8.13559 12.2233 8.0786 11.7646 8.08594 11.3047C8.04562 10.9419 8.00531 10.1759 7.76341 9.98234C7.61827 9.78882 7.40056 9.88558 7.32799 10.063C7.3076 10.4125 7.31569 10.763 7.35218 11.1112C7.51345 11.6756 7.56183 12.1917 7.64246 12.7803C7.66665 13.5705 7.18285 13.127 7.20704 12.7319C7.31993 12.2239 7.28768 11.4176 7.19092 11.216C7.11028 11.0144 7.02159 10.9661 6.83613 10.9983C6.67487 10.9822 6.29589 11.4015 6.19107 12.111C6.19107 12.111 6.09431 12.4739 6.05399 12.7884C5.99755 13.1512 5.76372 13.4092 5.59439 12.74C5.44925 12.2562 5.36055 11.0548 5.11865 11.337Z" fill="white"/>
<path fill-rule="evenodd" clip-rule="evenodd" d="M7.73116 15.1751L5.23154 16.3765C5.25573 15.8121 6.41684 14.78 7.20704 14.7639C7.72309 14.78 7.59408 14.9655 7.73116 15.167V15.1751Z" fill="white"/>
<path fill-rule="evenodd" clip-rule="evenodd" d="M7.29574 15.9572C5.97336 19.3519 10.3759 19.8276 10.8678 16.0943C10.9161 15.9411 11.1097 15.7879 11.1339 16.0379C11.029 19.4244 7.73115 19.6502 7.16672 18.5859C7.02965 18.344 6.98933 17.7795 6.97321 17.4409C6.89257 16.7797 6.53779 17.0377 6.48941 17.6989C6.43297 18.0617 6.44103 18.1666 6.44103 18.5214C6.61842 21.1822 10.8758 20.0373 11.5693 17.836C11.9321 16.6184 11.5048 15.7153 11.7064 15.7153C12.1256 16.1749 12.7223 15.7798 12.8513 15.6186C12.9078 15.5379 13.0449 15.4896 13.1416 15.5944C13.4641 15.8363 14.0528 15.7153 14.1737 15.3041C14.2382 14.8929 14.2947 14.4736 14.3108 14.0382C14.0447 14.1188 13.8431 14.1752 13.827 14.2801L13.7705 14.651C13.7464 14.7639 13.5125 14.7719 13.5045 14.6187C13.3996 14.1591 12.9803 14.0946 12.7223 14.8122C12.553 14.9574 12.2385 14.9735 12.2063 14.7719C12.2466 14.2881 12.0531 14.2236 11.666 14.4494L11.2871 11.6273C11.4483 11.6273 11.6015 11.7401 11.7467 11.5547C11.5854 11.0467 11.2387 10.0227 11.0532 9.94203C10.9565 9.82914 10.8839 9.90171 10.7629 9.9259C10.5533 9.9904 10.3598 10.1678 10.4243 10.5145L11.0694 14.5623C11.1016 14.7316 10.9565 14.9654 10.771 14.9413C10.4565 14.7236 10.3759 14.2962 9.84373 14.3123C9.44863 14.3123 9.00515 14.7397 8.95677 15.1509C8.8842 15.4734 8.86001 15.8282 8.95677 16.1104C9.22286 16.433 9.55345 16.4088 9.84373 16.3281C10.0776 16.2314 10.2711 15.9976 10.3598 16.054C10.4162 16.1266 10.3678 16.9006 9.23899 17.5054C8.56167 17.8118 8.01337 17.8763 7.72309 17.3199C7.5457 16.9732 7.73922 15.6508 7.29574 15.9492V15.9572Z" fill="white"/>
<path fill-rule="evenodd" clip-rule="evenodd" d="M12.8836 12.4981C13.1497 12.4094 14.3995 10.9661 14.3995 10.9661L14.214 10.8209C14.1415 10.7564 14.1495 10.7 14.214 10.6355C14.5204 10.4581 14.4237 10.0549 14.2624 9.87752C14.1572 9.825 14.0413 9.79765 13.9238 9.79765C13.8062 9.79765 13.6903 9.825 13.5851 9.87752C13.3674 10.0952 13.319 10.4258 13.4883 10.6355C13.6496 10.7161 13.827 10.8774 13.7141 10.9741C13.1981 11.5224 11.795 12.4658 11.9563 12.5061C11.9886 12.5465 12.8594 12.5465 12.8836 12.5061V12.4981ZM5.31217 17.578C4.8445 18.3278 4.80418 19.4486 5.07027 19.7792C5.19928 19.9405 5.42506 20.005 5.59439 19.9566C5.89273 19.8276 6.02174 19.2309 5.94917 19.0132C5.85241 18.852 5.77178 18.8358 5.67502 18.9648C5.46537 19.3841 5.37668 19.0938 5.36055 18.86C5.3283 18.4165 5.36861 17.9972 5.41699 17.6747C5.47344 17.3441 5.41699 17.4409 5.31217 17.578ZM25.3978 16.3685C24.9463 15.3928 24.3173 14.4252 24.1157 14.0543C23.5077 13.0914 22.8621 12.1526 22.1805 11.2402C21.6968 10.6597 22.9788 11.4821 22.0193 10.3291C21.6564 10.0065 21.6322 9.99847 21.3258 9.74044C21.1726 9.62756 20.8017 9.43404 20.7372 9.75657C20.7052 9.98773 20.7161 10.2228 20.7695 10.45C20.8017 10.6113 21.0356 10.8774 21.1565 11.0386C22.6885 13.0948 24.0512 15.1832 25.3575 17.7957C25.5671 17.6989 25.5187 16.5378 25.3978 16.3685Z" fill="white"/>
<path fill-rule="evenodd" clip-rule="evenodd" d="M23.4062 19.6502C23.3175 19.755 23.6239 20.1824 24.027 20.1824C24.7044 20.1018 25.293 19.7228 25.8413 18.731C25.9864 18.4891 26.2445 18.0053 26.2525 17.6102C26.309 15.3525 26.1396 13.5947 25.801 11.9659C25.7848 11.8046 25.801 11.6111 25.8252 11.5627C25.8655 11.5144 26.0106 11.5627 26.0912 11.4418C26.2041 11.3208 25.7848 10.3452 25.551 9.97428C25.4623 9.80495 25.4301 9.69206 25.293 9.99041C25.1398 10.2323 25.0511 10.6597 25.0511 11.0548C25.3736 13.2802 25.4784 15.2315 25.6881 17.4489C25.7042 17.6666 25.672 17.9811 25.5268 18.1021C24.9371 18.7619 24.2143 19.2895 23.4062 19.6502ZM32.5016 19.6422C32.0178 19.9163 32.0178 20.2388 32.4129 20.255C33.0821 20.1743 33.8804 20.1179 34.4287 19.2874C34.5738 19.0535 34.7512 18.4246 34.7593 18.0456C34.8077 15.7879 34.727 14.0946 34.3884 12.4658C34.3722 12.3046 34.2997 11.9417 34.3239 11.8933C34.3722 11.7805 34.5899 11.9014 34.6706 11.7724C34.7835 11.6595 34.1061 10.7806 33.8643 10.4016C33.7756 10.2404 33.7433 10.1275 33.6062 10.4258C33.453 10.6677 33.4046 11.1031 33.4611 11.4821C33.8239 13.9011 34.09 15.7153 34.1384 17.8521C34.1142 18.0617 34.1061 18.1746 34.0094 18.4246C33.7997 18.6987 33.5659 19.0374 33.3401 19.1987C33.1224 19.3599 32.6548 19.5212 32.5016 19.6422Z" fill="white"/>
<path fill-rule="evenodd" clip-rule="evenodd" d="M32.8644 17.4731V15.9975C32.8582 15.6299 32.7758 15.2675 32.6225 14.9332C32.4774 14.6107 32.5661 14.3607 32.5016 14.014C32.437 13.6753 32.4532 13.1593 32.3564 12.7561C32.3242 12.5948 32.2435 12.0949 32.2758 12.0465C32.308 11.9337 32.4612 12.0465 32.5338 11.9175C32.6467 11.7966 32.1468 10.5065 31.8968 10.1436C31.8081 9.98234 31.6468 10.0307 31.4372 10.3049C31.2517 10.4742 31.3243 10.8774 31.3969 11.2563C31.8807 13.7801 32.2355 16.0701 32.1629 18.4649C32.1387 18.6746 32.8725 17.8602 32.8644 17.4731ZM29.2924 14.3446C28.994 14.3446 28.357 13.7479 28.1635 13.4092C28.1356 13.3276 28.1247 13.2411 28.1317 13.1551C28.1386 13.0691 28.1632 12.9854 28.2038 12.9093C28.3167 12.8287 28.4941 12.748 28.6231 12.8287C28.6231 12.8287 28.7521 13.0222 28.7279 13.0464C28.8892 13.127 28.9698 13.0786 28.986 13.0061C28.994 12.8932 28.9295 12.8206 28.9295 12.6835C29.0102 12.3368 29.4133 12.2804 29.5585 12.5062C29.6713 12.6432 29.7117 12.9335 29.7278 13.1351C29.7278 13.2318 29.5665 13.1109 29.4698 13.1351C29.3811 13.1673 29.3569 13.2722 29.3488 13.3689C29.3327 13.6269 29.3004 14.0382 29.2924 14.3365V14.3446ZM23.6803 18.1021C23.761 17.328 23.6561 15.9653 23.6481 15.5138C23.6158 14.4413 23.4384 12.3691 23.3578 12.0304C23.261 11.3773 23.6239 12.103 23.5755 11.724C23.4546 11.0789 23.0917 10.6274 22.6724 10.0307C22.5353 9.84527 22.5434 9.80495 22.3257 10.0791C22.0999 10.6113 22.3015 10.9741 22.3579 11.3854C22.6643 12.7319 22.8417 13.9656 22.9224 15.1912C23.0127 16.466 23.0235 17.7452 22.9546 19.0213C23.1885 19.0374 23.5594 18.6504 23.6803 18.1021Z" fill="white"/>
<path fill-rule="evenodd" clip-rule="evenodd" d="M33.9046 16.8684C33.3643 15.9734 32.558 14.9977 32.3403 14.6349C31.6183 13.6213 30.8599 12.6343 30.0664 11.6756C29.3972 10.9741 30.3728 11.5627 29.9374 11.0225C29.5665 10.6193 29.4536 10.4903 29.1472 10.2484C28.986 10.1436 28.8892 9.95009 28.8408 10.2807C28.8166 10.571 28.8005 10.9096 28.8166 11.1596C28.8166 11.2967 28.9618 11.5466 29.0827 11.6998C30.6954 13.6915 32.4693 15.7315 33.8965 18.2875C34.0981 18.1746 34.0336 17.0296 33.8965 16.8684H33.9046Z" fill="white"/>
<path fill-rule="evenodd" clip-rule="evenodd" d="M9.57765 15.2073C9.53733 15.2799 9.44864 15.3686 9.48089 15.4492C9.54539 15.5299 9.59377 15.5541 9.69053 15.5621C9.77117 15.5621 9.90018 15.5783 9.92437 15.5299C9.95343 15.4943 9.97249 15.4517 9.97958 15.4063C9.98667 15.361 9.98153 15.3146 9.96469 15.2719C9.88405 15.0461 9.62603 15.1267 9.57765 15.2073Z" fill="#165D31"/>
<path fill-rule="evenodd" clip-rule="evenodd" d="M27.6717 28.3263C28.3893 28.3505 28.857 28.3586 29.4939 28.4311L30.2358 28.3505C31.0663 28.2699 31.1066 29.5358 31.1066 29.5358C31.0985 30.2776 30.8083 30.3099 30.4454 30.3905C30.2358 30.4228 30.1229 30.2696 30.0181 30.1083C29.881 30.1647 29.6955 30.1728 29.4617 30.1405C29.1634 30.1244 28.865 30.1244 28.5747 30.1002C28.2522 30.076 28.0829 30.1405 27.7684 30.1083C27.6958 30.2131 27.6071 30.3502 27.4217 30.3099C27.2604 30.2937 27.0669 29.8341 27.1233 29.4955C27.2362 29.2455 27.204 29.3262 27.1959 29.2133C24.2609 29.1407 21.3097 29.0117 18.4311 29.052C16.1734 29.052 13.956 29.1488 11.7386 29.2455C10.5533 29.2294 9.64215 29.0359 9.02128 28.1167C9.07772 28.1167 12.045 28.2941 12.9078 28.2376C14.5204 28.2134 15.9799 28.0844 17.6167 28.036C20.842 28.0925 24.027 28.0925 27.2524 28.3182C26.946 28.1086 26.9298 27.6087 27.4136 27.4877C27.4459 27.4635 27.4701 27.7296 27.5426 27.7296C27.9136 27.7054 27.7523 28.2134 27.6717 28.3263ZM14.7381 10.5629C14.2543 11.9578 15.0123 13.4818 15.5445 13.3367C15.9315 13.4979 16.1734 12.7642 16.3347 11.9659C16.4395 11.7401 16.5201 11.7159 16.5766 11.8288C16.5605 12.8932 16.6572 13.127 16.9314 13.4496C17.0891 13.5904 17.292 13.6702 17.5034 13.6746C17.7148 13.6791 17.9209 13.6078 18.0844 13.4737L18.5601 12.9899C18.665 12.8851 18.802 12.8771 18.9552 12.9738C19.1004 13.1109 19.0762 13.3367 19.3907 13.4979C19.6487 13.6028 20.2131 13.5221 20.3421 13.2964C20.5115 12.998 20.5598 12.8932 20.6405 12.7803C20.7614 12.619 20.9711 12.6835 20.9711 12.74C20.9549 12.8287 20.834 12.9254 20.9146 13.0867C21.0598 13.1996 21.1001 13.127 21.1888 13.1028C21.4952 12.9577 21.729 12.2804 21.729 12.2804C21.7371 12.0385 21.6 12.0546 21.5113 12.103L21.2694 12.2723C21.1081 12.2965 20.8179 12.3933 20.6727 12.1675C20.5276 11.9014 20.5195 11.5224 20.4066 11.2483C20.4066 11.2322 20.2131 10.8209 20.3986 10.7967C20.4873 10.8129 20.6888 10.8612 20.7211 10.7C20.8179 10.5387 20.5115 10.0791 20.3018 9.84527C20.1244 9.65175 19.8664 9.62756 19.6245 9.82914C19.4632 9.99041 19.4794 10.1517 19.4471 10.321C19.4192 10.4386 19.4193 10.5612 19.4473 10.6788C19.4753 10.7964 19.5305 10.9059 19.6084 10.9983C19.7777 11.3289 20.0922 11.7563 19.9873 12.3691C19.9873 12.3691 19.8019 12.6513 19.4874 12.611C19.3584 12.5787 19.1488 12.5303 19.0359 11.6918C18.9552 11.0548 19.052 10.1678 18.7859 9.75657C18.6892 9.49855 18.6246 9.25665 18.3827 9.69206C18.3182 9.85333 18.0441 10.1114 18.2376 10.6435C18.4221 11.1122 18.4778 11.6217 18.3989 12.1191C18.286 12.2884 18.2618 12.3529 18.1086 12.5223C17.907 12.74 17.6812 12.6835 17.5119 12.6029C17.3507 12.4981 17.2216 12.4416 17.1491 12.0949C17.1652 11.5466 17.1894 10.6516 17.0926 10.4581C16.9475 10.1678 16.7056 10.2726 16.6008 10.3613C16.1329 10.8802 15.82 11.5199 15.6977 12.2078C15.5606 12.6513 15.4155 12.5303 15.3106 12.3449C15.0607 12.103 15.0446 10.2565 14.7381 10.5629Z" fill="white"/>
<path fill-rule="evenodd" clip-rule="evenodd" d="M16.2057 13.6028C16.4314 13.4415 16.3266 13.3367 16.6572 13.6673C17.0827 14.4154 17.331 15.2513 17.3829 16.1104C17.3587 16.312 17.5039 16.433 17.5684 16.3927C17.6006 15.925 18.7537 15.2638 19.8019 15.167C19.9632 15.1348 19.8825 14.8284 19.9067 14.6671C19.8422 14.0866 20.2292 13.5544 20.7856 13.5141C21.5274 13.6269 21.7774 14.022 21.7935 14.6268C21.7129 15.796 20.4953 15.9975 19.81 16.0782C19.7051 16.1266 19.6648 16.1749 19.81 16.2314L22.6724 16.2394L22.8176 16.3201C22.8337 16.4007 22.7772 16.3362 22.6563 16.5217C22.5353 16.7071 22.3821 17.1425 22.3741 17.4248C21.5159 17.6752 20.6356 17.8426 19.7454 17.9247C19.439 18.0859 19.2858 18.2956 19.3423 18.5294C19.4471 18.7955 20.1405 19.0535 20.1405 19.0697C20.2696 19.1503 20.4228 19.3438 20.1002 19.7308C18.7053 19.6744 17.6248 19.0777 17.2539 18.2391C17.141 18.1585 17.012 18.2391 16.9394 18.352C16.454 19.0983 15.754 19.6801 14.9317 20.0211C14.3753 20.1582 13.8109 19.9405 13.5448 19.5776C13.3674 19.368 13.3755 19.1422 13.3029 19.0938C13.0045 19.2229 10.4324 20.3195 10.7629 19.8115C11.3838 19.1342 12.4724 18.6423 13.4238 17.9811C13.5045 17.7634 13.6254 17.0135 14.0044 16.7716C14.0205 16.7716 13.9399 17.207 13.9479 17.3925C13.9479 17.5457 13.9399 17.6021 13.9721 17.5618C14.0366 17.5215 15.1978 16.6104 15.2864 16.3281C15.3993 16.1669 15.3187 15.7637 15.3187 15.7476C15.1091 15.1832 14.8027 15.1428 14.6898 14.8606C14.5849 14.4897 14.6333 14.0704 14.843 13.9495C15.0284 13.7801 15.2461 13.7963 15.4558 13.9817C15.6977 14.1914 15.8993 14.6026 15.9638 14.909C15.9234 15.03 15.6574 14.8284 15.5606 14.8929C15.7219 15.0541 15.8025 15.2557 15.8589 15.4976C16.0202 16.1427 15.9638 16.3846 15.8186 16.8039C15.3026 17.8844 14.6414 18.215 14.0608 18.6101C14.0447 18.6181 14.0366 18.8923 14.2543 19.0374C14.335 19.118 14.6333 19.1503 14.98 19.0374C15.7342 18.621 16.3443 17.9856 16.7298 17.2151C16.8346 16.6345 16.6895 16.0217 16.5363 15.4896C16.3605 15.0651 16.1991 14.6348 16.0525 14.1994C16.0363 13.8769 16.0605 13.764 16.2137 13.6028H16.2057ZM8.72294 10.5871C9.04547 10.7403 9.66634 10.6677 9.64215 10.1436L9.62603 9.89365C9.56152 9.73238 9.37607 9.7727 9.33575 9.94203C9.31962 9.9904 9.35994 10.0791 9.31156 10.1033C9.2793 10.1275 9.17448 10.1114 9.18254 9.96622C9.18254 9.91784 9.15029 9.86946 9.1261 9.8372C9.10191 9.82914 9.09385 9.82108 9.05353 9.82108C9.00515 9.82108 9.01322 9.8372 8.98096 9.87752L8.95677 9.99847C8.95677 10.0549 8.93258 10.071 8.89227 10.0791C8.85195 10.0791 8.86001 10.0791 8.82776 10.063C8.80357 10.0388 8.77938 10.0307 8.77938 9.99041L8.76325 9.86139C8.74178 9.83761 8.71371 9.82077 8.68262 9.81301C8.49717 9.81301 8.4891 10.0227 8.49717 10.1033C8.48104 10.1114 8.47298 10.4823 8.72294 10.5871Z" fill="white"/>
<path fill-rule="evenodd" clip-rule="evenodd" d="M18.3666 14.6671C18.6892 14.8284 19.4794 14.7316 19.2858 14.2236L19.2697 13.9817C19.2052 13.8205 19.0278 13.8608 18.9794 14.022C18.9714 14.0704 19.0036 14.1591 18.9552 14.1833C18.9311 14.2156 18.8262 14.1994 18.8262 14.0543C18.8262 14.0059 18.794 13.9575 18.7698 13.9253C18.7537 13.9092 18.7375 13.9092 18.6972 13.9092C18.6569 13.9092 18.6569 13.9172 18.6327 13.9575L18.6085 14.0785C18.6005 14.1349 18.5763 14.1591 18.544 14.1591C18.4956 14.1591 18.5118 14.1591 18.4714 14.143C18.4553 14.1188 18.4231 14.1107 18.4231 14.0704C18.4231 14.0301 18.4231 13.9656 18.4069 13.9414C18.3908 13.9172 18.3586 13.9092 18.3263 13.9011C18.1489 13.9011 18.1328 14.1027 18.1409 14.1833C18.1328 14.1994 18.1247 14.5623 18.3666 14.6671ZM23.9948 12.9738C24.3173 13.1351 24.9382 13.0625 24.914 12.5384L24.8979 12.2884C24.8334 12.1272 24.6479 12.1675 24.6076 12.3288C24.5915 12.3852 24.6318 12.4658 24.5834 12.49C24.5512 12.5223 24.4463 12.5061 24.4544 12.361C24.4544 12.3126 24.4141 12.2642 24.398 12.232C24.3738 12.2239 24.3657 12.2159 24.3173 12.2159C24.277 12.2159 24.277 12.232 24.2528 12.2723L24.2286 12.3933C24.2286 12.4416 24.2044 12.4658 24.1641 12.4739C24.1238 12.4739 24.1319 12.4739 24.0996 12.4497C24.0754 12.4336 24.0512 12.4175 24.0512 12.3852C24.0512 12.3449 24.0432 12.2804 24.027 12.2481C24.0109 12.2239 23.9867 12.2159 23.9464 12.2078C23.769 12.2078 23.761 12.4175 23.769 12.49C23.7529 12.5061 23.7448 12.8771 23.9948 12.9738ZM26.8976 17.2232C26.3331 17.8682 26.5831 18.9326 26.7121 19.1584C26.9056 19.5454 27.0508 19.7873 27.4217 19.9727C27.7603 20.2146 28.0184 20.0614 28.1635 19.8921C28.5022 19.5454 28.5022 18.6504 28.6634 18.473C28.7763 18.1504 29.0505 18.2069 29.1875 18.352C29.312 18.5273 29.4783 18.6686 29.6713 18.7633C29.9858 19.0374 30.3567 19.0858 30.7276 18.8439C30.9776 18.6987 31.1469 18.5133 31.2921 18.1504C31.4533 17.707 31.3727 15.675 31.3324 14.4736C31.3243 14.3768 31.0098 12.8126 31.0098 12.7964C31.0098 12.7803 30.9615 11.9982 30.9292 11.8127C30.9292 11.7401 30.905 11.7159 30.9857 11.7321C31.0663 11.7966 31.0824 11.8046 31.1308 11.8288C31.2114 11.845 31.2921 11.6998 31.2437 11.5627L30.4535 10.1114C30.397 10.0549 30.3164 9.9904 30.2116 10.1355C30.1506 10.1887 30.1017 10.2544 30.0683 10.3282C30.0349 10.4019 30.0178 10.482 30.0181 10.5629C30.0423 10.9096 30.0987 11.2563 30.1229 11.6031L30.4454 13.3609C30.5422 14.6187 30.5664 15.6428 30.6631 16.9087C30.647 17.4328 30.4857 17.9005 30.3245 17.9569C30.3245 17.9569 30.0906 18.1021 29.9374 17.9569C29.8165 17.9005 29.3569 17.1829 29.3569 17.1829C29.115 16.9651 28.9698 17.0216 28.7924 17.1829C28.3409 17.6263 28.1313 18.4649 27.8168 19.0374C27.7362 19.1664 27.5023 19.2793 27.2524 19.0293C26.6073 18.1424 26.9863 16.9006 26.9056 17.2232H26.8976ZM24.1399 9.89365C24.4383 10.0146 24.6399 10.6193 24.5753 10.9096C24.5189 11.2644 24.3576 11.6595 24.2528 11.6031C24.1238 11.5627 24.3335 11.2483 24.2125 10.9177C24.148 10.708 23.7448 10.3129 23.7851 10.2001C23.7045 9.95815 23.9625 9.85333 24.1399 9.89365Z" fill="white"/>
<path fill-rule="evenodd" clip-rule="evenodd" d="M27.8571 17.578C27.9135 16.8523 27.8087 16.4168 27.7926 15.9976C27.7765 15.5783 27.3088 12.3691 27.2282 12.0465C27.1072 11.4418 27.6717 11.9659 27.6071 11.6111C27.4136 11.1676 26.9379 10.5226 26.7847 10.1436C26.696 9.98234 26.7282 9.82914 26.5267 10.0952C26.3526 10.5748 26.2919 11.0881 26.3493 11.595C26.8331 14.1188 27.3249 16.2153 27.2443 18.6181C27.4781 18.6181 27.7442 18.094 27.8571 17.5699V17.578ZM32.8886 10.9096C33.1627 11.0467 33.316 11.7966 33.2918 12.0062C33.2353 12.4013 33.0902 12.8126 32.9854 12.7642C32.8805 12.7158 33.0095 12.1836 32.9531 12.0224C32.8967 11.7885 32.5338 11.3692 32.5661 11.2402C32.4935 10.9822 32.7273 10.8693 32.8886 10.9177V10.9096ZM12.9158 16.2153C13.1739 16.3201 13.319 16.8603 13.2948 17.0216C13.2464 17.3119 13.1094 17.6183 13.0126 17.586C12.9078 17.5457 13.0287 17.1587 12.9804 17.0377C12.9562 16.7394 12.6014 16.5862 12.6094 16.4652C12.5449 16.2233 12.7626 16.183 12.9158 16.2233V16.2153Z" fill="white"/>
<path fill-rule="evenodd" clip-rule="evenodd" d="M19.1326 17.0458C19.4552 17.0619 19.6245 17.328 19.3181 17.4328C19.0117 17.5376 18.7133 17.6183 18.7133 18.0618C18.8262 18.6826 18.5521 18.4649 18.3908 18.3843C18.2054 18.2472 17.6732 17.9247 17.6006 17.2151C17.5925 17.0538 17.7216 16.9087 17.9312 16.9087C18.2537 16.9893 18.7214 17.0055 19.1246 17.0458H19.1326Z" fill="#165D31"/>
<path fill-rule="evenodd" clip-rule="evenodd" d="M6.04593 9.71625C6.4249 9.82914 6.44909 10.3855 6.41684 10.5548C6.36846 10.8532 6.23139 11.1676 6.13463 11.1273C6.0298 11.0951 6.13463 10.6919 6.08625 10.5629C6.0298 10.3855 5.70727 10.063 5.74759 9.96622C5.66696 9.7727 5.89273 9.684 6.04593 9.72432V9.71625ZM13.5367 12.3449C13.2464 12.5061 13.1336 12.9738 13.3109 13.248C13.4803 13.4899 13.7464 13.4012 13.7867 13.4012C14.0689 13.4334 14.2382 12.8609 14.2382 12.8609C14.2382 12.8609 14.2463 12.6997 13.9157 13.0061C13.7706 13.0303 13.7544 12.9819 13.7141 12.9012C13.6797 12.7495 13.6967 12.5907 13.7625 12.4497C13.8109 12.3126 13.698 12.2481 13.5367 12.3449ZM15.7138 9.49854C15.5767 9.60337 15.2784 9.90171 15.2703 10.2484C15.2703 10.4419 15.23 10.4419 15.351 10.571C15.4477 10.7 15.5445 10.6919 15.7299 10.5951C15.7761 10.5652 15.8156 10.5262 15.8461 10.4804C15.8766 10.4347 15.8975 10.3832 15.9073 10.3291C15.9557 10.1033 15.6735 10.4339 15.6412 10.1839C15.5767 9.95815 15.7541 9.86139 15.9235 9.63562C15.9235 9.48242 15.9234 9.3776 15.7219 9.49854H15.7138ZM17.4797 9.82108C17.4094 10.1039 17.3662 10.3928 17.3507 10.6838C17.3023 10.9016 17.5764 10.9903 17.7054 10.708C17.8909 10.2001 17.8909 9.98234 17.907 9.76463C17.8506 9.4421 17.6248 9.4421 17.4797 9.81301V9.82108ZM28.5667 15.4573C28.5989 15.417 30.131 14.3284 30.131 14.3284C30.2842 14.2801 30.2519 14.8929 30.1793 14.8929C29.7062 15.3515 29.1615 15.7301 28.5667 16.0137C28.486 16.0621 28.4135 15.5944 28.5667 15.4492V15.4573ZM29.9536 15.4492C30.2196 15.5783 30.3325 16.3685 30.3003 16.5781C30.3083 16.9974 30.0423 17.328 29.9374 17.2715C29.8245 17.2232 29.9455 16.7555 29.8971 16.5942C29.8407 16.3604 29.6068 15.925 29.6472 15.804C29.5665 15.5379 29.7923 15.4009 29.9536 15.4492ZM20.8904 18.8358C20.9953 18.6746 21.3178 18.4568 21.3258 18.4568C21.479 18.3762 21.6242 18.5133 21.6161 18.5052C21.6403 18.6584 21.5194 18.7955 21.5597 18.9971C21.5919 19.0777 21.6161 19.1664 21.7693 19.1342C22.0112 18.9487 22.237 18.9326 22.4789 18.9165C22.6644 18.9326 22.6644 19.239 22.5515 19.2471C22.0999 19.3438 21.9064 19.4648 21.5839 19.5857C21.4307 19.6744 21.3017 19.5615 21.3017 19.5535C21.3017 19.5454 21.221 19.4648 21.2775 19.2632C21.2855 19.1019 21.221 19.0213 21.092 19.0374C20.9872 19.0858 20.8985 19.118 20.8501 19.0052C20.8259 18.9245 20.8259 18.8842 20.8904 18.8358ZM31.5582 19.2551C31.6227 19.3357 31.671 19.4164 31.5582 19.5535L31.2679 19.7954C31.2114 19.8921 31.1872 20.0211 31.3404 20.0614C31.6227 20.1421 32.2838 19.7147 32.2838 19.7067C32.3887 19.626 32.3564 19.4728 32.3403 19.4728C32.2838 19.4003 32.1387 19.4406 32.05 19.4325C32.0016 19.4325 31.8565 19.4083 31.921 19.2793C31.9855 19.1987 32.0016 19.1503 32.0419 19.0455C32.0903 18.9487 32.05 18.8842 31.8887 18.8278C31.7275 18.8036 31.663 18.8197 31.4856 18.8278C31.3808 18.8519 31.3485 18.8923 31.3243 19.0132C31.3404 19.1906 31.4453 19.1825 31.5662 19.2551H31.5582Z" fill="white"/>
<path fill-rule="evenodd" clip-rule="evenodd" d="M20.9469 14.8203C20.9066 14.9009 20.7614 14.8929 20.6243 14.8203C20.4873 14.7477 20.4228 14.6187 20.4631 14.5462C20.5034 14.4736 20.6485 14.4736 20.7856 14.5462C20.9227 14.6187 20.9872 14.7477 20.9469 14.8203ZM13.9883 10.6435C13.9076 10.6677 13.8028 10.5952 13.7544 10.4823C13.706 10.3694 13.7302 10.2807 13.8109 10.2565C13.8915 10.2323 13.9963 10.3129 14.0447 10.4178C14.0931 10.5226 14.0689 10.6274 13.9883 10.6435ZM27.7523 29.2939C28.478 29.3262 29.1714 29.302 29.8971 29.3423C30.0342 29.4471 29.9374 29.7293 29.8487 29.7051L29.2359 29.689C29.2359 29.4552 28.6312 29.4955 28.6554 29.6971C28.3328 29.7374 28.0426 29.689 27.72 29.6729C27.6233 29.5519 27.6394 29.3423 27.7523 29.2939Z" fill="#165D31"/>
</g>
<defs>
<clipPath id="clip0_17544_67575">
<path d="M0 20C0 8.95431 8.95431 0 20 0C31.0457 0 40 8.95431 40 20C40 31.0457 31.0457 40 20 40C8.95431 40 0 31.0457 0 20Z" fill="white"/>
</clipPath>
</defs>
</svg>
