<svg width="40" height="40" viewBox="0 0 40 40" fill="none" xmlns="http://www.w3.org/2000/svg">
<g clip-path="url(#clip0_17522_60731)">
<path d="M0 0H40V40H0V0Z" fill="white"/>
<path d="M0 40V0H40V13.3359L0 40Z" fill="#D92223"/>
<path d="M0 40V0H26.6641L0 40Z" fill="#FCD955"/>
<path d="M0 40V0H13.3359L0 40Z" fill="#003D88"/>
<path d="M0 40L40 26.6641V40H0Z" fill="#007A39"/>
</g>
<defs>
<clipPath id="clip0_17522_60731">
<path d="M0 4C0 1.79086 1.79086 0 4 0H36C38.2091 0 40 1.79086 40 4V36C40 38.2091 38.2091 40 36 40H4C1.79086 40 0 38.2091 0 36V4Z" fill="white"/>
</clipPath>
</defs>
</svg>
