<svg width="40" height="40" viewBox="0 0 40 40" fill="none" xmlns="http://www.w3.org/2000/svg">
<g clip-path="url(#clip0_17544_68497)">
<path d="M-0.00188255 0H39.9958V39.9977H-0.00188255V0Z" fill="black"/>
<path fill-rule="evenodd" clip-rule="evenodd" d="M-4.84375 0H75.1597V39.9977H-4.84375V0Z" fill="white"/>
<path fill-rule="evenodd" clip-rule="evenodd" d="M-4.84375 26.6705H75.1597V39.9977H-4.84375L-4.84375 26.6705Z" fill="#D50000"/>
<path fill-rule="evenodd" clip-rule="evenodd" d="M-4.84375 13.3352H75.1597V26.6705H-4.84375V13.3352Z" fill="#0000BF"/>
<path fill-rule="evenodd" clip-rule="evenodd" d="M17.8374 7.2628C17.5237 12.0805 17.3468 14.7186 16.6149 15.9412C15.8186 17.2522 15.0465 18.2093 11.95 19.3675C8.86147 18.2093 8.08934 17.2522 7.29309 15.9412C6.56922 14.7186 6.38423 12.0805 6.07056 7.2628L6.52901 7.10998C7.44591 6.82848 8.1376 6.60328 8.64431 6.50676C9.36818 6.3459 9.98748 6.177 11.9419 6.13679C13.8964 6.16896 14.5157 6.35395 15.2395 6.50676C15.7543 6.61132 16.4701 6.82848 17.379 7.10998L17.8374 7.2628Z" fill="#D50000"/>
<path fill-rule="evenodd" clip-rule="evenodd" d="M17.387 7.10194C17.0894 11.9116 16.8481 14.1154 16.454 15.169C15.706 16.9868 14.5157 17.9841 11.95 18.9251C9.3923 17.976 8.20194 16.9868 7.44591 15.169C7.05984 14.1154 6.81051 11.9197 6.52901 7.10194C7.42982 6.82044 8.1376 6.60328 8.64431 6.49872C9.36818 6.3459 9.98748 6.16091 11.9419 6.12874C13.8964 6.16091 14.5237 6.3459 15.2476 6.49872C15.7623 6.60328 16.4782 6.82044 17.387 7.10194Z" fill="#0000BF"/>
<path fill-rule="evenodd" clip-rule="evenodd" d="M11.95 8.5738L12.0706 8.8714L12.6095 8.94378L12.2636 9.1529L12.6014 9.3781L12.1108 9.45853L11.958 9.72395L11.7972 9.45049L11.3146 9.38614L11.6363 9.1529L11.3146 8.94378L11.8293 8.86335L11.95 8.5738Z" fill="#FFDF00"/>
<path fill-rule="evenodd" clip-rule="evenodd" d="M16.269 14.035L15.9715 13.7937L15.7543 13.4398L15.3361 13.0698L15.1109 12.6998L14.6926 12.3218L14.4835 11.9519L14.2583 11.7669L14.1055 11.6301L13.7275 11.9599L13.5183 12.3299L13.2529 12.5631L12.9714 12.3379L12.7543 11.9599L11.95 10.5363L11.1457 11.9599L10.9366 12.3379L10.647 12.5631L10.3896 12.3218L10.1805 11.9599L9.8025 11.6301L9.64968 11.7669L9.42448 11.9519L9.21536 12.3218L8.79712 12.6998L8.57192 13.0698L8.14564 13.4398L7.93653 13.7937L7.63894 14.035C7.81063 15.1078 8.3174 16.0988 9.08667 16.8661C9.60142 17.3567 10.655 18.0243 11.9419 18.4667C12.9988 18.132 13.9759 17.5846 14.8133 16.8581C15.584 16.094 16.0935 15.1059 16.269 14.035Z" fill="white"/>
<path fill-rule="evenodd" clip-rule="evenodd" d="M13.2368 6.55502L13.3575 6.84457L13.8964 6.925L13.5505 7.12607L13.8883 7.35932L13.3977 7.43975L13.2449 7.70516L13.084 7.4317L12.6095 7.36736L12.9312 7.12607L12.6014 6.925L13.1162 6.84457L13.2368 6.55502ZM10.6631 6.55502L10.7837 6.83652L11.3226 6.91695L10.9768 7.12607L11.3146 7.35127L10.824 7.4317L10.6711 7.69712L10.5022 7.42366L10.0357 7.35932L10.3575 7.12607L10.0277 6.91695L10.5424 6.83652L10.6631 6.54698V6.55502Z" fill="#FFDF00"/>
<path fill-rule="evenodd" clip-rule="evenodd" d="M15.6015 15.8607H15.0224L14.4835 15.8205L13.832 15.4988L13.0921 15.5068L12.4567 15.8205L11.958 15.8607L11.4513 15.8205L10.8159 15.5068H10.084L9.43252 15.8286L8.89364 15.8607H8.29846L8.01696 15.3782L8.025 15.3621L8.90168 15.5068L9.43252 15.4666L10.084 15.1449H10.824L11.4674 15.4666L11.9661 15.5068L12.4647 15.4586L13.1082 15.153H13.832L14.4915 15.4666L15.0304 15.5068L15.8749 15.354L15.891 15.3782L15.6015 15.8607ZM8.84538 16.6087L9.42448 16.5685L10.076 16.2468H10.8079L11.4513 16.5605L11.95 16.6087L12.4486 16.5605L13.0921 16.2468H13.824L14.4755 16.5685L15.0626 16.6087L15.4406 16.1422L15.4245 16.1262L15.0224 16.2468L14.4835 16.2066L13.832 15.8849H13.1001L12.4567 16.2066L11.958 16.2468L11.4593 16.2066L10.8159 15.8849H10.084L9.43252 16.2066L8.89364 16.2468L8.49149 16.1503V16.1664L8.84538 16.6087Z" fill="#0000BF"/>
</g>
<defs>
<clipPath id="clip0_17544_68497">
<path d="M0 20C0 8.95431 8.95431 0 20 0C31.0457 0 40 8.95431 40 20C40 31.0457 31.0457 40 20 40C8.95431 40 0 31.0457 0 20Z" fill="white"/>
</clipPath>
</defs>
</svg>
