<svg width="40" height="40" viewBox="0 0 40 40" fill="none" xmlns="http://www.w3.org/2000/svg">
<g clip-path="url(#clip0_17544_68517)">
<path d="M0 0H40V40H0V0Z" fill="#EE1C25"/>
<path d="M0 0H40V26.6641H0V0Z" fill="#0B4EA2"/>
<path d="M0 0H40V13.3359H0V0Z" fill="white"/>
<path d="M15.875 30.8984C12.2891 29.1797 7.16406 25.7422 7.16406 18.9609C7.16406 12.1797 7.48438 9.10156 7.48438 9.10156H24.2656C24.2656 9.10156 24.5938 12.1797 24.5938 18.9609C24.5938 25.7422 19.4531 29.1719 15.875 30.8984Z" fill="white"/>
<path d="M15.875 30C12.5859 28.4141 7.88281 25.2734 7.88281 19.0469C7.88281 12.8203 8.17969 10 8.17969 10H23.5703C23.5703 10 23.8672 12.8281 23.8672 19.0469C23.8672 25.2656 19.1641 28.4219 15.875 30Z" fill="#EE1C25"/>
<path d="M16.5781 17.4219C17.4688 17.4375 19.2109 17.4687 20.7578 16.9531C20.7578 16.9531 20.7109 17.5 20.7109 18.1484C20.7109 18.7969 20.7578 19.3438 20.7578 19.3438C19.3978 18.9691 17.9873 18.8109 16.5781 18.875V22.3125H15.1719V18.875C13.7627 18.8109 12.3522 18.9691 10.9922 19.3438C10.9922 19.3438 11.0391 18.7969 11.0391 18.1484C11.0391 17.5 10.9922 16.9531 10.9922 16.9531C12.5469 17.4687 14.2812 17.4375 15.1719 17.4219V15.2578C14.0514 15.2303 12.9343 15.3914 11.8672 15.7344C11.8672 15.7344 11.9062 15.1875 11.9062 14.5391C11.9062 13.8906 11.8672 13.3359 11.8672 13.3359C13.1953 13.7812 14.3594 13.8203 15.1641 13.8047C15.125 12.4453 14.7266 10.7266 14.7266 10.7266C14.7266 10.7266 15.5469 10.7891 15.875 10.7891C16.2031 10.7891 17.0234 10.7266 17.0234 10.7266C17.0234 10.7266 16.625 12.4453 16.5781 13.8125C17.6983 13.8455 18.816 13.687 19.8828 13.3438C19.8828 13.3438 19.8438 13.8906 19.8438 14.5391C19.8438 15.1875 19.8828 15.7344 19.8828 15.7344C18.5547 15.2891 17.3906 15.2578 16.5781 15.2656V17.4219Z" fill="white"/>
<path d="M15.875 21.9375C14.2188 21.9375 13.3281 24.2344 13.3281 24.2344C13.3281 24.2344 12.8359 23.1406 11.4844 23.1406C10.5703 23.1406 9.89844 23.9609 9.46875 24.7188C11.1328 27.3594 13.7891 28.9922 15.875 30C17.9609 28.9922 20.6172 27.3594 22.2812 24.7109C21.8516 23.9609 21.1797 23.1484 20.2656 23.1484C18.9141 23.1484 18.4219 24.2422 18.4219 24.2422C18.4219 24.2422 17.5312 21.9375 15.875 21.9375Z" fill="#0B4EA2"/>
</g>
<defs>
<clipPath id="clip0_17544_68517">
<path d="M0 20C0 8.95431 8.95431 0 20 0C31.0457 0 40 8.95431 40 20C40 31.0457 31.0457 40 20 40C8.95431 40 0 31.0457 0 20Z" fill="white"/>
</clipPath>
</defs>
</svg>
