<svg width="40" height="40" viewBox="0 0 40 40" fill="none" xmlns="http://www.w3.org/2000/svg">
<g clip-path="url(#clip0_17522_60730)">
<path d="M0 0H39.9939V39.9939H0V0Z" fill="black"/>
<path fill-rule="evenodd" clip-rule="evenodd" d="M0 39.623L77.1414 0H0V39.623Z" fill="#0000D6"/>
<path fill-rule="evenodd" clip-rule="evenodd" d="M79.9958 0L2.12064 39.9939H79.9958V0Z" fill="#006000"/>
<path fill-rule="evenodd" clip-rule="evenodd" d="M80.0039 0H75.7142L0 37.9216V39.9939H4.2816L79.9958 2.14483L79.9958 0H80.0039Z" fill="#FFCC00"/>
<path fill-rule="evenodd" clip-rule="evenodd" d="M3.14468 7.74881L4.08002 5.06374L1.64491 3.4027H4.65251L5.57979 0.709569L6.50707 3.4027H9.50661L7.07956 5.06374L8.00684 7.74075L5.57979 6.08778L3.14468 7.74881ZM18.0779 7.74881L19.0132 5.06374L16.5781 3.4027H19.5857L20.513 0.709569L21.4403 3.4027H24.4317L22.0128 5.06374L22.94 7.74075L20.513 6.07971L18.0779 7.74881ZM18.0779 19.0374L19.0132 16.3523L16.5781 14.6913H19.5857L20.513 11.9982L21.4403 14.6913H24.4317L22.0128 16.3523L22.9481 19.0374L20.5211 17.3764L18.0779 19.0374ZM10.6597 13.4576L11.5869 10.7725L9.15989 9.11151H12.1594L13.0867 6.42643L14.014 9.11151H17.0216L14.5865 10.7725L15.5138 13.4576L13.0948 11.7966L10.6597 13.4576ZM3.14468 19.0374L4.08002 16.3523L1.64491 14.6913H4.65251L5.57979 11.9982L6.50707 14.6913H9.50661L7.07956 16.3523L8.00684 19.0293L5.57979 17.3683L3.14468 19.0374Z" fill="white"/>
</g>
<defs>
<clipPath id="clip0_17522_60730">
<path d="M0 4C0 1.79086 1.79086 0 4 0H36C38.2091 0 40 1.79086 40 4V36C40 38.2091 38.2091 40 36 40H4C1.79086 40 0 38.2091 0 36V4Z" fill="white"/>
</clipPath>
</defs>
</svg>
