<svg width="40" height="40" viewBox="0 0 40 40" fill="none" xmlns="http://www.w3.org/2000/svg">
<g clip-path="url(#clip0_17522_60746)">
<path d="M0 0H40V40H0V0Z" fill="#377E3F"/>
<path d="M0 8H40V32H0V8Z" fill="white"/>
<path d="M0 12H40V28H0V12Z" fill="#B40A2D"/>
<path d="M19.9922 12.7656L24.6953 27.2344L12.3828 18.2891H27.6016L15.2891 27.2344L19.9922 12.7656Z" fill="#ECC81D"/>
</g>
<defs>
<clipPath id="clip0_17522_60746">
<path d="M0 4C0 1.79086 1.79086 0 4 0H36C38.2091 0 40 1.79086 40 4V36C40 38.2091 38.2091 40 36 40H4C1.79086 40 0 38.2091 0 36V4Z" fill="white"/>
</clipPath>
</defs>
</svg>
