<svg width="40" height="40" viewBox="0 0 40 40" fill="none" xmlns="http://www.w3.org/2000/svg">
<g clip-path="url(#clip0_17522_60751)">
<path d="M0 0H40V40H0V0Z" fill="#000001"/>
<path d="M0 0H40V26.6641H0V0Z" fill="white"/>
<path d="M0 0H40V13.3359H0V0Z" fill="#CE1126"/>
<path d="M6.75 25L10 15L13.25 25L4.74219 18.8203H15.2578M26.75 25L30 15L33.25 25L24.7422 18.8203H35.2578" fill="#007A3D"/>
</g>
<defs>
<clipPath id="clip0_17522_60751">
<path d="M0 4C0 1.79086 1.79086 0 4 0H36C38.2091 0 40 1.79086 40 4V36C40 38.2091 38.2091 40 36 40H4C1.79086 40 0 38.2091 0 36V4Z" fill="white"/>
</clipPath>
</defs>
</svg>
