<svg width="40" height="40" viewBox="0 0 40 40" fill="none" xmlns="http://www.w3.org/2000/svg">
<g clip-path="url(#clip0_17544_70161)">
<path d="M0 0H40V40H0V0Z" fill="black"/>
<path d="M0 0H60V40H0V0Z" fill="#FF0000"/>
<path d="M0 0H30V20H0V0Z" fill="#000095"/>
<path d="M12.8359 10.5781L12.625 11.375L13.4141 11.5859L13.2578 11.0078L12.8359 10.5781ZM16.7422 11.0078L16.5859 11.5859L17.375 11.375L17.1641 10.5781L16.7422 11.0078ZM13.2578 8.99219L12.8359 9.42188L12.9922 10L13.2578 8.99219Z" fill="white"/>
<path d="M12.9922 10L12.8359 10.5781L13.2578 11.0078L12.9922 10Z" fill="white"/>
<path d="M12.8359 9.42188L12.2578 10L12.8359 10.5781L12.9922 10L12.8359 9.42188ZM13.9922 11.7422L14.4219 12.1641L15 12.0078L13.9922 11.7422ZM15.5781 12.1641L16.375 12.375L16.5859 11.5859L16.0078 11.7422L15.5781 12.1641Z" fill="white"/>
<path d="M16.0078 11.7422L16.5859 11.5859L16.7422 11.0078L16.0078 11.7422ZM13.4141 11.5859L13.625 12.375L14.4219 12.1641L13.9922 11.7422L13.4141 11.5859ZM15 12.0078L15.5781 12.1641L16.0078 11.7422L15 12.0078Z" fill="white"/>
<path d="M14.4219 12.1641L15 12.7422L15.5781 12.1641L15 12.0078L14.4219 12.1641ZM13.4141 8.41406L12.625 8.625L12.8359 9.42188L13.2578 8.99219L13.4141 8.41406ZM13.2578 11.0078L13.4141 11.5859L13.9922 11.7422L13.2578 11.0078ZM17.0078 10L17.1641 9.42188L16.7422 8.99219L17.0078 10Z" fill="white"/>
<path d="M13.9922 8.25781L13.4141 8.41406L13.2578 8.99219L13.9922 8.25781ZM16.7422 8.99219L16.5859 8.41406L16.0078 8.25781L16.7422 8.99219ZM17.1641 10.5781L17.7422 10L17.1641 9.42188L17.0078 10L17.1641 10.5781Z" fill="white"/>
<path d="M16.7422 8.99219L16.0078 8.25781L15 7.99219L13.9922 8.25781L13.2578 8.99219L12.9922 10L13.2578 11.0078L13.9922 11.7422L15 12.0078L16.0078 11.7422L16.7422 11.0078L17.0078 10L16.7422 8.99219Z" fill="white"/>
<path d="M16.7422 11.0078L17.1641 10.5781L17.0078 10L16.7422 11.0078ZM17.1641 9.42188L17.375 8.625L16.5859 8.41406L16.7422 8.99219L17.1641 9.42188ZM16.5859 8.41406L16.375 7.625L15.5781 7.83594L16.0078 8.25781L16.5859 8.41406ZM14.4219 7.83594L13.625 7.625L13.4141 8.41406L13.9922 8.25781L14.4219 7.83594Z" fill="white"/>
<path d="M15 7.99219L14.4219 7.83594L13.9922 8.25781L15 7.99219Z" fill="white"/>
<path d="M15.5781 7.83594L15 7.25781L14.4219 7.83594L15 7.99219L15.5781 7.83594Z" fill="white"/>
<path d="M16.0078 8.25781L15.5781 7.83594L15 7.99219L16.0078 8.25781ZM14.4219 12.1641L13.625 12.375L13.9922 13.75L15 12.7422L14.4219 12.1641ZM13.9922 13.75L15 17.5L16.0078 13.75L15 12.7422L13.9922 13.75ZM13.4141 11.5859L12.625 11.375L12.2578 12.7422L13.625 12.375L13.4141 11.5859Z" fill="white"/>
<path d="M12.2578 12.7422L11.25 16.4922L13.9922 13.75L13.625 12.375L12.2578 12.7422ZM11.25 11.0078L8.50781 13.75L12.2578 12.7422L12.625 11.375L11.25 11.0078Z" fill="white"/>
<path d="M12.8359 10.5781L12.2578 10L11.25 11.0078L12.625 11.375L12.8359 10.5781ZM12.8359 9.42188L12.625 8.625L11.25 8.99219L12.2578 10L12.8359 9.42188Z" fill="white"/>
<path d="M11.25 8.99219L7.5 10L11.25 11.0078L12.2578 10L11.25 8.99219ZM18.75 11.0078L17.375 11.375L17.7422 12.7422L21.4922 13.75L18.75 11.0078Z" fill="white"/>
<path d="M16.5859 11.5859L16.375 12.375L17.7422 12.7422L17.375 11.375L16.5859 11.5859ZM15.5781 12.1641L15 12.7422L16.0078 13.75L16.375 12.375L15.5781 12.1641ZM17.1641 10.5781L17.375 11.375L18.75 11.0078L17.7422 10L17.1641 10.5781ZM16.0078 13.75L18.75 16.4922L17.7422 12.7422L16.375 12.375L16.0078 13.75ZM16.5859 8.41406L17.375 8.625L17.7422 7.25781L16.375 7.625L16.5859 8.41406ZM18.75 8.99219L21.4922 6.25L17.7422 7.25781L17.375 8.625L18.75 8.99219ZM17.7422 7.25781L18.75 3.50781L16.0078 6.25L16.375 7.625L17.7422 7.25781ZM18.75 11.0078L22.5 10L18.75 8.99219L17.7422 10L18.75 11.0078Z" fill="white"/>
<path d="M17.1641 9.42188L17.7422 10L18.75 8.99219L17.375 8.625L17.1641 9.42188ZM13.9922 6.25L11.25 3.50781L12.2578 7.25781L13.625 7.625L13.9922 6.25ZM13.4141 8.41406L13.625 7.625L12.2578 7.25781L12.625 8.625L13.4141 8.41406Z" fill="white"/>
<path d="M12.2578 7.25781L8.50781 6.25L11.25 8.99219L12.625 8.625L12.2578 7.25781ZM15.5781 7.83594L16.375 7.625L16.0078 6.25L15 7.25781L15.5781 7.83594Z" fill="white"/>
<path d="M16.0078 6.25L15 2.5L13.9922 6.25L15 7.25781L16.0078 6.25Z" fill="white"/>
<path d="M14.4219 7.83594L15 7.25781L13.9922 6.25L13.625 7.625L14.4219 7.83594Z" fill="white"/>
<path d="M15 14.25C17.3472 14.25 19.25 12.3472 19.25 10C19.25 7.65279 17.3472 5.75 15 5.75C12.6528 5.75 10.75 7.65279 10.75 10C10.75 12.3472 12.6528 14.25 15 14.25Z" fill="#000095"/>
<path d="M15 13.75C17.0711 13.75 18.75 12.0711 18.75 10C18.75 7.92893 17.0711 6.25 15 6.25C12.9289 6.25 11.25 7.92893 11.25 10C11.25 12.0711 12.9289 13.75 15 13.75Z" fill="white"/>
</g>
<defs>
<clipPath id="clip0_17544_70161">
<path d="M0 20C0 8.95431 8.95431 0 20 0C31.0457 0 40 8.95431 40 20C40 31.0457 31.0457 40 20 40C8.95431 40 0 31.0457 0 20Z" fill="white"/>
</clipPath>
</defs>
</svg>
