<svg width="40" height="40" viewBox="0 0 40 40" fill="none" xmlns="http://www.w3.org/2000/svg">
<g clip-path="url(#clip0_17522_60758)">
<path d="M0 0H40V40H0V0Z" fill="#006600"/>
<path d="M0 0H40V28.5703H0V0Z" fill="white"/>
<path d="M0 0H40V11.4297H0V0Z" fill="#CC0000"/>
<path d="M18.4001 19.4686C18.4781 19.3345 18.5976 19.2294 18.7407 19.1692C18.8837 19.1091 19.0425 19.0971 19.1929 19.1352C19.3433 19.1733 19.4773 19.2594 19.5744 19.3803C19.6716 19.5013 19.7267 19.6507 19.7315 19.8058V22.6629H20.2687V19.8058C20.2734 19.6507 20.3286 19.5013 20.4257 19.3803C20.5229 19.2594 20.6568 19.1733 20.8073 19.1352C20.9577 19.0971 21.1164 19.1091 21.2595 19.1692C21.4025 19.2294 21.5221 19.3345 21.6001 19.4686C21.6841 19.2153 21.7068 18.9456 21.6662 18.6818C21.6257 18.418 21.5231 18.1676 21.3669 17.9512C21.2107 17.7348 21.0053 17.5586 20.7677 17.4371C20.5301 17.3156 20.267 17.2522 20.0001 17.2522C19.7332 17.2522 19.4701 17.3156 19.2325 17.4371C18.9949 17.5586 18.7895 17.7348 18.6333 17.9512C18.4771 18.1676 18.3745 18.418 18.3339 18.6818C18.2934 18.9456 18.3161 19.2153 18.4001 19.4686Z" fill="#F8C300"/>
<path d="M18.7829 18.72C19.0177 18.6724 19.2615 18.6997 19.4799 18.7981C19.6983 18.8966 19.8803 19.0611 20.0001 19.2686C20.1199 19.0611 20.3018 18.8966 20.5202 18.7981C20.7386 18.6997 20.9824 18.6724 21.2172 18.72C21.1768 18.4259 21.0313 18.1564 20.8075 17.9613C20.5838 17.7661 20.297 17.6586 20.0001 17.6586C19.7032 17.6586 19.4164 17.7661 19.1926 17.9613C18.9689 18.1564 18.8233 18.4259 18.7829 18.72Z" fill="white"/>
<path d="M19.7315 21.52C19.6946 21.9248 19.5447 22.3112 19.2991 22.635C19.0534 22.9589 18.7218 23.2073 18.3419 23.352C17.9621 23.4966 17.5492 23.5318 17.1504 23.4534C16.7515 23.375 16.3827 23.1863 16.0858 22.9086C15.9593 23.2278 15.7616 23.5139 15.5079 23.7451C15.2541 23.9764 14.9509 24.1467 14.6214 24.2431C14.2919 24.3396 13.9448 24.3596 13.6064 24.3016C13.268 24.2436 12.9473 24.1092 12.6686 23.9086C12.8801 25.9886 16.0001 25.5658 16.2286 23.5429C17.2115 25.2629 19.3715 24.7715 20.0001 22.6629L19.7315 21.52Z" fill="#F8C300"/>
<path d="M20.2687 21.52C20.3056 21.9248 20.4554 22.3112 20.7011 22.635C20.9467 22.9589 21.2783 23.2073 21.6582 23.352C22.0381 23.4966 22.4509 23.5318 22.8498 23.4534C23.2486 23.375 23.6175 23.1863 23.9144 22.9086C24.0409 23.2278 24.2385 23.5139 24.4923 23.7451C24.7461 23.9764 25.0492 24.1467 25.3787 24.2431C25.7082 24.3396 26.0554 24.3596 26.3938 24.3016C26.7322 24.2436 27.0529 24.1092 27.3315 23.9086C27.1201 25.9886 24.0001 25.5658 23.7715 23.5429C22.7887 25.2629 20.6287 24.7715 20.0001 22.6629L20.2687 21.52Z" fill="#F8C300"/>
<path d="M17.6458 25.2172C17.2115 26.1601 16.3429 26.3201 15.5829 25.56C15.5829 25.56 15.8858 25.3429 16.2115 25.2858C16.1916 25.1399 16.2032 24.9915 16.2456 24.8505C16.288 24.7095 16.3602 24.5793 16.4572 24.4686C16.7016 24.627 16.8833 24.8654 16.9715 25.1429C17.4286 25.0858 17.6458 25.2172 17.6458 25.2172Z" fill="#F8C300"/>
<path d="M21.0625 25.111C20.48 25.9702 19.597 25.9862 18.9713 25.1123C18.9713 25.1123 19.3056 24.9476 19.6362 24.9444C19.6404 24.7972 19.6761 24.6527 19.741 24.5205C19.8058 24.3884 19.8983 24.2717 20.0121 24.1783C20.2273 24.3745 20.3677 24.6393 20.4094 24.9276C20.8697 24.9458 21.0625 25.111 21.0625 25.111Z" fill="#F8C300"/>
<path d="M24.415 25.5565C23.7014 26.3103 22.8273 26.1834 22.3511 25.2199C22.3511 25.2199 22.7076 25.1113 23.0345 25.1616C23.0624 25.017 23.121 24.8802 23.2063 24.7602C23.2917 24.6403 23.4018 24.5401 23.5292 24.4664C23.7099 24.6947 23.8056 24.9788 23.8001 25.2699C24.2515 25.3624 24.415 25.5565 24.415 25.5565Z" fill="#F8C300"/>
<path fill-rule="evenodd" clip-rule="evenodd" d="M25.4125 27.7525C21.8808 26.7012 18.1194 26.7012 14.5876 27.7525L14.3268 26.8762C18.0287 25.7743 21.9714 25.7743 25.6734 26.8762L25.4125 27.7525Z" fill="#F8C300"/>
<path d="M21.3959 13.2608L19.1374 14.9017L20.0001 12.2467L20.8627 14.9017L18.6043 13.2608H21.3959Z" fill="#F8C300"/>
<path d="M17.3959 14.3351L15.1374 15.9759L16.0001 13.321L16.8627 15.9759L14.6043 14.3351H17.3959Z" fill="#F8C300"/>
<path d="M14.4702 17.2608L12.2117 18.9017L13.0744 16.2467L13.937 18.9017L11.6785 17.2608H14.4702Z" fill="#F8C300"/>
<path d="M13.3959 21.2608L11.1374 22.9017L12.0001 20.2467L12.8627 22.9017L10.6043 21.2608H13.3959Z" fill="#F8C300"/>
<path d="M22.6043 14.3351L24.8627 15.9759L24.0001 13.321L23.1374 15.9759L25.3959 14.3351H22.6043Z" fill="#F8C300"/>
<path d="M25.53 17.2608L27.7885 18.9017L26.9258 16.2467L26.0631 18.9017L28.3216 17.2608H25.53Z" fill="#F8C300"/>
<path d="M26.6043 21.2608L28.8628 22.9017L28.0001 20.2467L27.1374 22.9017L29.3959 21.2608H26.6043Z" fill="#F8C300"/>
</g>
<defs>
<clipPath id="clip0_17522_60758">
<path d="M0 4C0 1.79086 1.79086 0 4 0H36C38.2091 0 40 1.79086 40 4V36C40 38.2091 38.2091 40 36 40H4C1.79086 40 0 38.2091 0 36V4Z" fill="white"/>
</clipPath>
</defs>
</svg>
