<svg width="40" height="40" viewBox="0 0 40 40" fill="none" xmlns="http://www.w3.org/2000/svg">
<g clip-path="url(#clip0_17522_60760)">
<path d="M0 0H39.9939V39.9939H0V0Z" fill="black"/>
<path fill-rule="evenodd" clip-rule="evenodd" d="M0 0H80.5522V39.9939H0V0Z" fill="#CB000F"/>
<path fill-rule="evenodd" clip-rule="evenodd" d="M0 0C0.249962 0 39.9939 20.0534 39.9939 20.0534L0 40.0019V0Z" fill="#F8C00C"/>
<path fill-rule="evenodd" clip-rule="evenodd" d="M0 0C0.161266 0 26.6088 20.0534 26.6088 20.0534L0 40.0019V0Z" fill="#000001"/>
<path fill-rule="evenodd" clip-rule="evenodd" d="M14.6671 23.2948L9.90977 22.2466L7.49885 26.3669L7.09569 21.7064L2.35448 20.6581L6.63608 18.7229L6.37806 14.0866L9.52274 17.4731L13.8447 15.5057L11.5869 19.7147L14.651 23.2948H14.6671Z" fill="white"/>
</g>
<defs>
<clipPath id="clip0_17522_60760">
<path d="M0 4C0 1.79086 1.79086 0 4 0H36C38.2091 0 40 1.79086 40 4V36C40 38.2091 38.2091 40 36 40H4C1.79086 40 0 38.2091 0 36V4Z" fill="white"/>
</clipPath>
</defs>
</svg>
