<svg width="40" height="40" viewBox="0 0 40 40" fill="none" xmlns="http://www.w3.org/2000/svg">
<g clip-path="url(#clip0_17522_60756)">
<path d="M0 0.00732422H39.9987V39.9979H0V0.00732422Z" fill="black"/>
<path fill-rule="evenodd" clip-rule="evenodd" d="M0 0.00732422H59.9617V39.9979H0V0.00732422Z" fill="#FFE300"/>
<path fill-rule="evenodd" clip-rule="evenodd" d="M0 16.2631H59.9617V24.2983H0V16.2631ZM0 0.023443H59.9617V8.05864H0V0.023443Z" fill="#118600"/>
<path fill-rule="evenodd" clip-rule="evenodd" d="M0 0.023443H23.9444V24.2983H0V0.023443Z" fill="#D80000"/>
<path fill-rule="evenodd" clip-rule="evenodd" d="M10.5014 10.0412C10.5014 9.96871 11.9762 5.89067 11.9762 5.89067L13.3141 9.96871C13.3141 9.96871 17.7951 10.1057 17.7951 10.0332C17.7951 9.96065 14.249 12.7089 14.249 12.7089C14.249 12.7089 15.9173 17.3914 15.8528 17.2624C15.7883 17.1254 11.9762 14.4497 11.9762 14.4497C11.9762 14.4497 8.09161 17.1254 8.16415 17.1254C8.23668 17.1254 9.63095 12.717 9.63095 12.717L6.15736 10.0977L10.5014 10.0412Z" fill="white"/>
<path fill-rule="evenodd" clip-rule="evenodd" d="M0 31.9708H59.9617V40.006H0V31.9708Z" fill="#118600"/>
</g>
<defs>
<clipPath id="clip0_17522_60756">
<path d="M0 4C0 1.79086 1.79086 0 4 0H36C38.2091 0 40 1.79086 40 4V36C40 38.2091 38.2091 40 36 40H4C1.79086 40 0 38.2091 0 36V4Z" fill="white"/>
</clipPath>
</defs>
</svg>
