<svg width="40" height="40" viewBox="0 0 40 40" fill="none" xmlns="http://www.w3.org/2000/svg">
<g clip-path="url(#clip0_17522_60765)">
<path d="M0 0H40V40H0V0Z" fill="white"/>
<path fill-rule="evenodd" clip-rule="evenodd" d="M28.9844 40L0 0.078125V39.9766L28.9844 40ZM11.0156 0L40 39.9219V0.015625L11.0156 0Z" fill="#E00000"/>
<path fill-rule="evenodd" clip-rule="evenodd" d="M1.73438 0.015625H9.14844L38.4062 39.9609H30.7578L1.73438 0.015625Z" fill="#000001"/>
</g>
<defs>
<clipPath id="clip0_17522_60765">
<path d="M0 4C0 1.79086 1.79086 0 4 0H36C38.2091 0 40 1.79086 40 4V36C40 38.2091 38.2091 40 36 40H4C1.79086 40 0 38.2091 0 36V4Z" fill="white"/>
</clipPath>
</defs>
</svg>
