<svg width="40" height="40" viewBox="0 0 40 40" fill="none" xmlns="http://www.w3.org/2000/svg">
<g clip-path="url(#clip0_17544_69949)">
<path d="M0 0H40V40H0V0Z" fill="#00843D"/>
<path d="M29.7891 4.42969C30.454 4.70944 31.0505 5.13 31.5373 5.6624C32.0242 6.19479 32.3898 6.82638 32.6091 7.51367C32.8285 8.20096 32.8962 8.92762 32.8077 9.6436C32.7192 10.3596 32.4766 11.0479 32.0965 11.6611C31.7165 12.2743 31.2081 12.7979 30.6063 13.1957C30.0044 13.5936 29.3236 13.8562 28.6105 13.9657C27.8974 14.0751 27.1691 14.0287 26.4756 13.8296C25.7822 13.6305 25.1402 13.2835 24.5937 12.8125C25.6915 13.2875 26.9232 13.3526 28.0649 12.9959C29.2065 12.6393 30.1822 11.8846 30.8143 10.8692C31.4464 9.85387 31.693 8.64529 31.5091 7.46345C31.3253 6.2816 30.7232 5.20504 29.8125 4.42969H29.7891ZM25.0625 8.08594L25.5938 6.34375L24.1172 7.4375H25.9766L24.5 6.34375L25.0625 8.08594ZM25.0625 5.52344L25.5938 3.80469L24.1172 4.86719H25.9766L24.5 3.80469L25.0625 5.52344ZM27.5703 6.85156L28.1328 5.10938L26.6562 6.17188H28.4844L27.0078 5.10938L27.5703 6.85156ZM22.4922 9.32812L23.0859 7.60938L21.6016 8.67969H23.4062L21.9297 7.61719L22.4922 9.32812ZM25.0312 10.6562L25.625 8.91406L24.1406 9.97656H25.9453L24.4688 8.91406L25.0312 10.6562Z" fill="white"/>
<path d="M7.20312 0H18.0078V40H7.20312V0Z" fill="#D22630"/>
<path d="M9.82812 0H9.47656L8.79688 0.59375L8.53125 0.359375H8.76562L8.73438 0.0625H8.26562L7.46875 0.882812V1.17969H7.85937V0.945312L8.03125 1.125L7.58594 1.47656L7.79688 1.67969L7.20312 2.27344V2.625L8.23438 1.6875L8.03125 1.47656L8.44531 1.08594L8.08594 0.734375L8.32031 0.5L8.79688 0.945312L9.82812 0ZM7.17188 0V0.734375L7.4375 0.5V0.203125H7.70312L7.91406 0H7.17188ZM9.17969 0H8.88281L8.94531 0.179688L9.17969 0Z" fill="#383739"/>
<path d="M9.79688 0H9.50781L8.79688 0.648438L8.46875 0.351562H8.76562L8.71094 0.117188H8.32031L7.5 0.882812V1.11719H7.79688V0.828125L8.08594 1.09375L7.64844 1.47656L7.85156 1.67969L7.20312 2.27344L7.20312 2.60156L8.17969 1.67969L7.96875 1.48438L8.41406 1.09375L8.02344 0.742188L8.32812 0.476562L8.79688 0.921875L9.79688 0ZM7.20312 0V0.703125L7.40625 0.46875V0.179688H7.70312L7.85938 0H7.20312ZM9.125 0H8.94531V0.117188L9.125 0Z" fill="#FFC72C"/>
<path d="M7.20312 4.63281V5.02344L7.79688 5.60938L7.57812 5.78125L8.02344 6.19531L7.84375 6.36719V6.10156H7.46094V6.40625L8.28906 7.20312H8.72656L8.75781 6.90625H8.55469L8.85156 6.67188L9.5 7.26562L8.82031 7.88281L8.55469 7.64844H8.78906L8.75781 7.35156H8.25781L7.42969 8.14844V8.44531H7.82031V8.21094L7.99219 8.35156L7.54688 8.76562L7.75781 8.97656L7.16406 9.53125V9.92188L8.19531 8.97656L7.99219 8.76562L8.40625 8.35156L8.05469 8.03125L8.28906 7.79688L8.75781 8.23438L9.78906 7.29688L8.75781 6.32031L8.28906 6.75781L8.05469 6.52344L8.40625 6.20312L7.99219 5.78906L8.19531 5.60938L7.16406 4.63281H7.20312ZM7.20312 6.55469V8.03125L7.4375 7.76562V7.46875H7.70312L7.91406 7.28906L7.70312 7.08594H7.4375V6.78906L7.20312 6.55469ZM8.97656 7.05469L8.90625 7.26562L8.9375 7.46875L9.17188 7.26562L8.97656 7.05469Z" fill="#383739"/>
<path d="M7.20312 4.6875V5L7.85156 5.58594L7.64844 5.79688L8.08594 6.21094L7.79688 6.44531V6.14844H7.5V6.40625L8.32812 7.17188H8.71094L8.73438 6.9375H8.44531L8.79688 6.64062L9.5 7.28906L8.79688 7.91406L8.46875 7.61719H8.76562L8.71094 7.38281H8.32031L7.5 8.14844V8.41406H7.79688V8.11719L8.08594 8.35156L7.64844 8.76562L7.85156 8.97656L7.20312 9.5625V9.85938L8.17969 8.97656L7.96875 8.76562L8.41406 8.35156L8.02344 8.03125L8.32812 7.73438L8.79688 8.20312L9.79688 7.28906L8.79688 6.375L8.32812 6.82031L8.03125 6.52344L8.41406 6.20312L7.96875 5.78125L8.17969 5.60156L7.20312 4.6875ZM7.20312 6.58594V7.96875L7.40625 7.76562V7.46875H7.70312L7.85938 7.28906L7.67188 7.11719H7.40625V6.82031L7.20312 6.58594ZM8.97656 7.11719L8.94531 7.26562V7.40625L9.125 7.26562L8.97656 7.11719Z" fill="#FFC72C"/>
<path d="M7.20312 12.1641V12.5469L7.79688 13.1328L7.58594 13.3125L8.03125 13.7031L7.85156 13.875V13.6406H7.46875V13.9297L8.29688 14.7031H8.73438L8.76562 14.4375H8.5625L8.85938 14.2031L9.50781 14.7891L8.82812 15.3828L8.5625 15.1484H8.79688L8.76562 14.875H8.26562L7.4375 15.6719V15.9687H7.82812V15.7031L8 15.8828L7.55469 16.2969L7.76562 16.4688L7.17188 17.0625V17.4141L8.20312 16.4453L8 16.2656L8.41406 15.8516L8.0625 15.5L8.29688 15.2891L8.76562 15.7344L9.79688 14.7578L8.76562 13.8203L8.29688 14.2578L8.0625 14.0234L8.41406 13.6641L8 13.2812L8.20312 13.0781L7.17188 12.1328L7.20312 12.1641ZM7.20312 14.0547V15.5312L7.4375 15.2969V15H7.70312L7.91406 14.7891L7.70312 14.5859H7.4375V14.2891L7.20312 14.0547ZM8.97656 14.5859L8.91406 14.7891L8.94531 15L9.17969 14.7891L8.97656 14.5859Z" fill="#383739"/>
<path d="M7.20312 12.1875V12.4844L7.85156 13.1094L7.64844 13.3125L8.08594 13.7031L7.79688 13.9609V13.6719H7.5V13.9375L8.32812 14.7109H8.71094L8.73438 14.4766H8.44531L8.79688 14.1797L9.5 14.8047L8.79688 15.4453L8.46875 15.1484H8.76562L8.71094 14.9141H8.32031L7.5 15.6484V15.9141H7.79688V15.6172L8.08594 15.8516L7.64844 16.2656L7.85156 16.4453L7.20312 17.0312V17.4219L8.17969 16.5312L7.96875 16.3281L8.41406 15.9141L8.02344 15.5547L8.32812 15.2891L8.79688 15.7344L9.79688 14.8516L8.79688 13.9062L8.32812 14.3438L8.03125 14.0781L8.41406 13.7266L7.96875 13.3359L8.17969 13.1328L7.20312 12.1875ZM7.20312 14.1094V15.5L7.40625 15.2891V15H7.70312L7.85938 14.7891L7.67188 14.6094H7.40625V14.3203L7.20312 14.1094ZM8.97656 14.6406L8.94531 14.7969V14.9375L9.125 14.7891L8.97656 14.6406Z" fill="#FFC72C"/>
<path d="M7.20312 19.6641V20.0703L7.79688 20.6328L7.58594 20.8125L8.03125 21.2266L7.85156 21.3984V21.1328H7.46875V21.4297L8.29688 22.2266H8.73438L8.76562 21.9297H8.5625L8.85938 21.6953L9.50781 22.2891L8.82812 22.9141L8.5625 22.6719H8.79688L8.76562 22.375H8.26562L7.4375 23.1719V23.4688H7.82812V23.2344L8 23.4062L7.55469 23.7969L7.76562 24L7.17188 24.5938V24.9453L8.20312 24L8 23.7969L8.41406 23.4062L8.0625 23.0547L8.29688 22.8203L8.76562 23.2656L9.79688 22.3203L8.76562 21.375L8.29688 21.8125L8.0625 21.5781L8.41406 21.2266L8 20.8125L8.20312 20.6328L7.17188 19.6641H7.20312ZM7.20312 21.5781V23.0625L7.4375 22.8203V22.5234H7.70312L7.91406 22.3203L7.70312 22.1094H7.4375V21.8125L7.20312 21.5781ZM8.97656 22.1094L8.91406 22.2891L8.94531 22.4922L9.17969 22.2891L8.97656 22.1094Z" fill="#383739"/>
<path d="M7.20312 19.7188V20.0156L7.85156 20.6406L7.64844 20.8125L8.08594 21.2266L7.79688 21.4609V21.1641H7.5V21.4609L8.32812 22.2031H8.71094L8.73438 21.9922H8.44531L8.79688 21.6641L9.5 22.3203L8.79688 22.9688L8.46875 22.6719H8.76562L8.71094 22.4375H8.32031L7.5 23.2031V23.4375H7.79688V23.1406L8.08594 23.4062L7.64844 23.7969L7.85156 24L7.20312 24.5938V24.8828L8.17969 24L7.96875 23.7969L8.41406 23.4062L8.02344 23.0547L8.32812 22.7578L8.79688 23.2266L9.79688 22.3203L8.79688 21.3984L8.32812 21.8438L8.03125 21.5469L8.41406 21.2578L7.96875 20.8125L8.17969 20.6328L7.20312 19.7188ZM7.20312 21.6094V23.0234L7.40625 22.8203V22.5234H7.70312L7.85938 22.3438L7.67188 22.1719H7.40625V21.875L7.20312 21.6406V21.6094ZM8.97656 22.1719L8.94531 22.2891V22.4375L9.125 22.2812L8.97656 22.1719Z" fill="#FFC72C"/>
<path d="M7.20312 27.1875V27.5781L7.79688 28.1641L7.58594 28.3359L8.03125 28.75L7.85156 28.9297V28.6328H7.46875V28.9297L8.29688 29.7266H8.73438L8.76562 29.4297H8.5625L8.85938 29.1953L9.50781 29.7891L8.82812 30.4062L8.5625 30.1719H8.79688L8.76562 29.875H8.26562L7.4375 30.6719V30.9688H7.82812V30.7344L8 30.875L7.55469 31.2891L7.76562 31.5L7.17188 32.0625V32.4453L8.20312 31.5L8 31.2891L8.41406 30.875L8.0625 30.5547L8.29688 30.3203L8.76562 30.7578L9.79688 29.8203L8.76562 28.8438L8.29688 29.2812L8.0625 29.0469L8.41406 28.7266L8 28.3125L8.20312 28.1328L7.20312 27.1875ZM7.20312 29.1094V30.5859L7.4375 30.3203V30.0234H7.70312L7.91406 29.8438L7.70312 29.6406H7.4375V29.3438L7.20312 29.1094ZM8.97656 29.6094L8.91406 29.8125L8.94531 30.0234L9.17969 29.8125L8.97656 29.6094Z" fill="#383739"/>
<path d="M7.20312 27.25V27.5391L7.85156 28.1328L7.64844 28.3359L8.08594 28.75L7.79688 28.9844V28.6953H7.5V28.9609L8.32812 29.7266H8.71094L8.73438 29.4922H8.44531L8.79688 29.1953L9.5 29.8438L8.79688 30.4688L8.46875 30.1719H8.76562L8.71094 29.9375H8.32031L7.5 30.7031V31H7.79688V30.7031L8.08594 30.9062L7.65625 31.3281L7.85938 31.5391L7.21094 32.125V32.4219L8.1875 31.5391L7.97656 31.3281L8.42188 30.9141L8.03125 30.5938L8.33594 30.2969L8.80469 30.7656L9.80469 29.8516L8.80469 28.9375L8.33594 29.3828L8.03906 29.0859L8.42188 28.7578L7.97656 28.3438L8.1875 28.1719L7.20312 27.25ZM7.20312 29.1328V30.5234L7.40625 30.3203V30.0234H7.70312L7.85938 29.8438L7.67188 29.6641H7.40625V29.375L7.20312 29.1328ZM8.97656 29.6641L8.94531 29.8203V29.9609L9.125 29.8125L8.97656 29.6641Z" fill="#FFC72C"/>
<path d="M15.3516 0H15.7344L16.3828 0.59375L16.6797 0.359375H16.4062L16.4609 0.0625H16.875L17.7031 0.882812V1.17969H17.3516V0.945312L17.1406 1.125L17.5859 1.47656L17.3828 1.67969L17.9688 2.27344V2.625L16.9688 1.6875L17.1719 1.47656L16.7266 1.08594L17.1172 0.734375L16.8516 0.5L16.3828 0.945312L15.3516 0ZM18.0078 0V0.734375L17.7422 0.5V0.203125H17.5078L17.2969 0H18.0078ZM16.0312 0H16.2969L16.2344 0.179688L16.0312 0Z" fill="#383739"/>
<path d="M15.4062 0H15.7031L16.3828 0.648438L16.7344 0.351562H16.4453L16.5 0.117188H16.8281L17.7109 0.882812V1.14844H17.4219V0.859375L17.1328 1.09375L17.6016 1.47656L17.3984 1.67969L18.0469 2.27344V2.60156L17.0312 1.71094L17.2422 1.50781L16.8281 1.09375L17.125 0.734375L16.8281 0.46875L16.3594 0.914062L15.4062 0ZM18.0078 0V0.703125L17.7734 0.46875V0.179688H17.5L17.3281 0H18.0078ZM16.0547 0H16.2344V0.117188L16.0547 0Z" fill="#FFC72C"/>
<path d="M18.0078 4.63281V5.02344L17.3828 5.60938L17.5938 5.78906L17.1484 6.20312L17.3594 6.375V6.10938H17.7109V6.40625L16.8828 7.20312H16.4688L16.4141 6.90625H16.6484L16.3828 6.67188L15.7344 7.26562L16.3828 7.88281L16.6797 7.64844H16.4062L16.4609 7.35156H16.875L17.7031 8.14844V8.44531H17.3516V8.21094L17.1406 8.35156L17.5859 8.76562L17.3828 8.97656L17.9688 9.53125V9.92188L16.9688 8.97656L17.1719 8.76562L16.7266 8.35156L17.1172 8.03125L16.8516 7.79688L16.3828 8.23438L15.3438 7.29688L16.375 6.32031L16.8438 6.75781L17.1172 6.52344L16.7266 6.20312L17.1875 5.78125L16.9844 5.60156L18.0078 4.63281ZM18.0078 6.55469V8.03125L17.7422 7.76562V7.46875H17.5078L17.2969 7.28906L17.5078 7.08594H17.7422V6.78906L18.0078 6.55469ZM16.2344 7.05469L16.2656 7.26562V7.46875L16.0312 7.26562L16.2344 7.05469Z" fill="#383739"/>
<path d="M18.0078 4.6875V5L17.3594 5.58594L17.5625 5.79688L17.125 6.21094L17.3906 6.44531V6.14844H17.6797V6.40625L16.8594 7.17188H16.5312L16.4688 6.9375H16.7656L16.4141 6.64062L15.7109 7.28906L16.4141 7.91406L16.7656 7.61719H16.4688L16.5312 7.38281H16.8281L17.6562 8.14844V8.41406H17.3594V8.11719L17.0625 8.35156L17.5312 8.76562L17.3281 8.97656L17.9766 9.5625V9.85938L16.9766 8.98438L17.1797 8.77344L16.7656 8.35938L17.125 8.03906L16.8281 7.74219L16.3594 8.21094L15.3828 7.29688L16.3516 6.38281L16.8203 6.82812L17.125 6.53125L16.8281 6.21094L17.2422 5.79688L17.0312 5.61719L18.0078 4.6875ZM18.0078 6.58594V7.96875L17.7734 7.76562V7.46875H17.5L17.3203 7.28906L17.5 7.11719H17.7891V6.82031L18.0078 6.58594ZM16.2344 7.10938V7.39844L16.0625 7.25781L16.2344 7.10938Z" fill="#FFC72C"/>
<path d="M18.0078 12.1641V12.5469L17.3828 13.1328L17.5938 13.3125L17.1484 13.7031L17.3594 13.875V13.6406H17.7109V13.9297L16.8828 14.7031H16.4688L16.4141 14.4375H16.6484L16.3828 14.2031L15.7344 14.7891L16.3828 15.3828L16.6797 15.1484H16.4062L16.4609 14.875H16.875L17.7031 15.6719V15.9687H17.3516V15.7031L17.1406 15.8828L17.5859 16.2969L17.3828 16.4688L17.9688 17.0625V17.4141L16.9688 16.4453L17.1719 16.2656L16.7266 15.8516L17.1172 15.5L16.8516 15.2891L16.3828 15.7344L15.3438 14.7578L16.375 13.8203L16.8438 14.2578L17.1172 14.0234L16.7266 13.6641L17.1719 13.2812L16.9688 13.0781L18 12.1328L18.0078 12.1641ZM18.0078 14.0547V15.5312L17.7422 15.2969V15H17.5078L17.2969 14.7891L17.5078 14.5859H17.7422V14.2891L18.0078 14.0547ZM16.2344 14.5859L16.2656 14.7891V15L16.0312 14.7891L16.2344 14.5859Z" fill="#383739"/>
<path d="M18.0078 12.1875V12.4844L17.3594 13.1094L17.5625 13.3125L17.125 13.7031L17.3906 13.9609V13.6719H17.6797V13.9375L16.8594 14.7109H16.5312L16.4688 14.4766H16.7656L16.4141 14.1797L15.7109 14.8047L16.4141 15.4453L16.7656 15.1484H16.4688L16.5312 14.9141H16.8281L17.7109 15.6562V15.9219H17.4219V15.625L17.1328 15.8594L17.6016 16.2734L17.3984 16.4531L18.0469 17.0391V17.4297L17.0312 16.5234L17.2422 16.3203L16.8281 15.9062L17.1797 15.5469L16.8828 15.2812L16.4141 15.7266L15.4375 14.8438L16.4141 13.8984L16.8828 14.3359L17.1797 14.0703L16.8281 13.7188L17.2422 13.3281L17.0312 13.125L18.0078 12.1875ZM18.0078 14.1094V15.5L17.7734 15.2891V15H17.5L17.3203 14.7891L17.5 14.6094H17.7891V14.3203L18.0078 14.1094ZM16.2344 14.6406V14.9375L16.0625 14.7891L16.2344 14.6406Z" fill="#FFC72C"/>
<path d="M18.0078 19.6641V20.0703L17.3828 20.6328L17.5938 20.8125L17.1484 21.2266L17.3594 21.3984V21.1328H17.7109V21.4297L16.8828 22.2266H16.4688L16.4141 21.9297H16.6484L16.3828 21.6953L15.7344 22.2891L16.3828 22.9141L16.6797 22.6719H16.4062L16.4609 22.375H16.875L17.7031 23.1719V23.4688H17.3516V23.2344L17.1406 23.4062L17.5859 23.7969L17.3828 24L17.9688 24.5938V24.9453L16.9688 24L17.1719 23.7969L16.7266 23.4062L17.1172 23.0234L16.8516 22.7891L16.3828 23.2344L15.3438 22.2891L16.375 21.3438L16.8438 21.7891L17.1172 21.5547L16.7266 21.1953L17.1719 20.7812L16.9688 20.6016L18 19.6328L18.0078 19.6641ZM18.0078 21.5781V23.0625L17.7344 22.8125V22.5156H17.5L17.2891 22.3125L17.5 22.1016H17.7344V21.8047L18.0078 21.5781ZM16.2344 22.1094L16.2656 22.2891V22.4922L16.0312 22.2891L16.2344 22.1094Z" fill="#383739"/>
<path d="M18.0078 19.7188V20.0156L17.3594 20.6641L17.5625 20.8438L17.125 21.2578L17.3906 21.4922V21.1953H17.6797V21.4922L16.8594 22.2266H16.5312L16.4688 22.0234H16.7656L16.4141 21.6953L15.7109 22.3438L16.4141 23L16.7656 22.7031H16.4688L16.5312 22.4688H16.8281L17.6562 23.2344V23.4688H17.3594V23.1719L17.0625 23.4375L17.5312 23.8281L17.3281 24.0312L17.9766 24.6172V24.9141L16.9766 24.0312L17.1797 23.8203L16.7656 23.4375L17.125 23.0234L16.8281 22.7344L16.3594 23.2031L15.3828 22.2891L16.3516 21.375L16.8203 21.8125L17.125 21.5234L16.7656 21.2266L17.1797 20.7812L16.9766 20.6016L18.0078 19.7188ZM18.0078 21.6094V23.0234L17.7734 22.8203V22.5234H17.5L17.3203 22.3438L17.5 22.1719H17.7891V21.875L18 21.6406L18.0078 21.6094ZM16.2344 22.1719V22.4375L16.0625 22.2813L16.2344 22.1719Z" fill="#FFC72C"/>
<path d="M18.0078 27.1875V27.5781L17.3828 28.1641L17.5938 28.3359L17.1484 28.75L17.3594 28.9297V28.6328H17.7109V28.9297L16.8828 29.7266H16.4688L16.4141 29.4297H16.6484L16.3828 29.1953L15.7344 29.7891L16.3828 30.4062L16.6797 30.1719H16.4062L16.4609 29.875H16.875L17.7031 30.7031V31H17.3516V30.7656L17.1406 30.9062L17.5859 31.3203L17.3828 31.5312L17.9688 32.0859V32.4766L16.9688 31.5312L17.1719 31.3203L16.7266 30.9062L17.1172 30.5859L16.8516 30.3516L16.3828 30.7891L15.3438 29.8125L16.375 28.8438L16.8438 29.2812L17.1172 29.0469L16.7266 28.7266L17.1719 28.3125L16.9688 28.1328L18.0078 27.1875ZM18.0078 29.1094V30.5859L17.7344 30.3125V30.0156H17.5L17.2891 29.8359L17.5 29.6328H17.7344V29.3359L18.0078 29.1094ZM16.2344 29.6094L16.2656 29.8125V30.0234L16.0312 29.8125L16.2344 29.6094Z" fill="#383739"/>
<path d="M18.0078 27.25V27.5391L17.3594 28.1328L17.5625 28.3359L17.125 28.75L17.3906 28.9844V28.6953H17.6797V28.9609L16.8594 29.7266H16.5312L16.4688 29.4922H16.7656L16.4141 29.1953L15.7109 29.8438L16.4141 30.4688L16.7656 30.1719H16.4688L16.5312 29.9375H16.8281L17.7109 30.7031V31H17.4219V30.7031L17.1328 30.9063L17.6016 31.3203L17.3984 31.5313L18.0469 32.1172V32.4141L17.0312 31.5313L17.2422 31.3203L16.8281 30.9063L17.1797 30.5859L16.8828 30.2891L16.4141 30.7578L15.4375 29.8438L16.4141 28.9297L16.8828 29.375L17.1797 29.0781L16.8281 28.75L17.2422 28.3359L17.0312 28.1641L18.0078 27.25ZM18.0078 29.1328V30.5234L17.7734 30.3203V30.0234H17.5L17.3203 29.8438L17.5 29.6641H17.7891V29.375L18.0078 29.1328ZM16.2344 29.6641V29.9609L16.0625 29.8125L16.2344 29.6641Z" fill="#FFC72C"/>
<path d="M8.08594 35.3672C8.11719 35.6016 8.29688 35.7812 8.35156 36.0156C8.44531 35.7812 8.50781 35.5703 8.44531 35.3125C8.41406 35.1016 8.26562 34.9531 8.23438 34.7734C8.0625 34.9297 8.03125 35.1641 8.08594 35.3672ZM8.03125 36.3359C8.18294 36.54 8.38477 36.7015 8.61719 36.8047C8.5625 36.6016 8.64844 36.4922 8.73438 36.3359C8.85938 36.1641 8.91406 36.0156 8.82812 35.8047C8.78279 35.9118 8.72228 36.0117 8.64844 36.1016C8.5625 36.2188 8.5 36.3359 8.46875 36.5156C8.35855 36.4233 8.27719 36.3013 8.23438 36.1641C8.13786 35.99 7.99439 35.8465 7.82031 35.75C7.88281 35.9531 7.91406 36.1641 8.03125 36.3359ZM8.85938 36.9297C8.85938 37.0469 8.79688 37.1641 8.82812 37.2812L8.46875 36.9922C8.28907 36.9065 8.12937 36.7841 8 36.6328C8 36.8672 8.11719 37.0781 8.29688 37.2266L8.97656 37.6094C8.94531 37.3984 9.03125 37.2188 9.09375 37.0156C9.12074 36.9244 9.12415 36.8278 9.10365 36.7349C9.08316 36.642 9.03943 36.5558 8.97656 36.4844C8.97656 36.6406 8.91406 36.7812 8.85938 36.9297ZM9.32812 37.6953L9.5625 38.1406C9.35938 38.0781 9.14844 37.9297 8.97656 37.8438C8.74219 37.6953 8.46875 37.6406 8.26562 37.4609C8.35156 37.8516 8.61719 38.0547 9 38.2031C9.29688 38.2812 9.50781 38.2266 9.82812 38.375C9.79375 38.1498 9.72526 37.9311 9.625 37.7266L9.39062 37.2812C9.32457 37.4086 9.30259 37.5542 9.32812 37.6953ZM10.1562 38.2891C10.2304 38.4164 10.3318 38.5258 10.4531 38.6094C10.1562 38.6094 9.85938 38.4375 9.5625 38.4375C9.39062 38.4375 9.21094 38.4922 9 38.4375C9.23438 38.6094 9.46875 38.7344 9.77344 38.7891C10.125 38.8203 10.4531 38.7344 10.8359 38.7891C10.6741 38.6497 10.5414 38.4798 10.4453 38.2891C10.3047 38.0547 10.1562 37.875 9.85938 37.8438C9.97656 37.9609 10.0703 38.1406 10.1562 38.2891ZM11.25 38.8203C10.6875 38.9062 10.1875 39.0234 9.625 39.0234C10.2115 39.2499 10.8593 39.2609 11.4531 39.0547C11.7234 38.934 12.0165 38.8728 12.3125 38.875C12.83 38.933 13.3054 39.1875 13.6406 39.5859L13.8125 39.4375C13.4609 39.1455 13.0474 38.9374 12.6034 38.8291C12.1594 38.7208 11.6965 38.7151 11.25 38.8125V38.8203Z" fill="#FFC72C"/>
<path d="M8.5625 4.6875L7.67188 4.14062V2.89062L8.5625 2.35938V1.67969L9.35938 1.17969H10.0391L11.3047 0.476562H13.9609L15.1719 1.17969H15.8203L16.6484 1.67969V2.35938L17.5312 2.89062V4.14062L16.6484 4.67188V5.35156L15.8203 5.82031H15.1719L13.9297 6.53125H11.2734L10.0078 5.82812H9.35938L8.5625 5.38281V4.6875Z" fill="#383739"/>
<path d="M11.2734 0.5L10.0391 1.20312H9.39062L8.5625 1.67969V2.35938L7.67188 2.89062V4.14062L8.5625 4.67188V5.35156L9.35938 5.82031H10.0391L11.2734 6.53125H13.9297L15.1797 5.82812H15.8203L16.6172 5.35156V4.67188L17.5078 4.14062V2.89062L16.6172 2.35938V1.67969L15.8203 1.21094H15.1719L13.9297 0.507812L11.2734 0.5ZM11.3359 0.796875H13.875L15.0859 1.47656H15.7344L16.3281 1.82812V2.50781L17.2109 3.03906V3.98438L16.3281 4.51562V5.19531L15.7344 5.58594H15.0859L13.875 6.25H11.3672L10.0938 5.60156H9.45312L8.86719 5.21094V4.53906L7.96875 4.01562V3.07031L8.85938 2.53906V1.83594L9.44531 1.47656H10.0938L11.3359 0.796875Z" fill="#00843D"/>
<path d="M12.5781 3.53906V0.796875H11.3281L10.0859 1.5H9.45312L8.86719 1.85938V2.53906L8.00781 3.07031V3.51562H12.6172V6.20313H13.8828L15.125 5.52344H15.7734L16.3594 5.16406V4.48438L17.25 3.95312V3.53906H12.5781Z" fill="#FFC72C"/>
<path d="M8 3.53906V3.98438L8.88281 4.51562V5.19531L9.47656 5.54688H10.1016L11.3359 6.22656H12.5781V3.53906H17.1875V3.10156L16.2969 2.57031V1.86719L15.7656 1.47656H15.1172L13.8672 0.796875H12.6328V3.53906H8Z" fill="white"/>
<path d="M9.89062 1.77344L9.67969 1.5625L9.47656 1.67969L9.67969 1.89062L9.39062 2.07031H10.0391L10.5391 2.53906L10.7188 2.35938L10.2109 1.89062V1.59375L9.89062 1.77344Z" fill="#383739"/>
<path d="M10.9219 1.65625L10.6875 1.47656L10.4766 1.59375L10.6875 1.79688L10.3906 1.97656H11.0156L11.5391 2.44531L11.6953 2.27344L11.2188 1.80469V1.50781L10.9219 1.65625ZM9.79688 2.35938L9.5625 2.15625L9.35938 2.27344L9.59375 2.47656L9.29688 2.65625H9.89062L10.4219 3.125L10.6016 2.95312L10.0938 2.48438V2.1875L9.79688 2.35938Z" fill="#383739"/>
<path d="M12.6016 0.765625H12.0469L11.75 1.0625H11.2188L10.8047 1.26563L10.9219 1.47656L11.2734 1.29688H11.4297L12.0156 1.94531L12.6016 1.5625V0.765625Z" fill="#383739"/>
<path d="M9.6875 1.59375L9.85938 1.77344L9.71094 1.85938L9.50781 1.67969L9.6875 1.59375ZM10.1562 1.625V1.92188L10.6562 2.35938L10.5078 2.51562L10.0391 2.03906H9.53125L10.1875 1.625H10.1562ZM10.6875 1.50781L10.8672 1.67969L10.7109 1.77344L10.5391 1.59375L10.6875 1.50781ZM11.1562 1.53125V1.82812L11.6641 2.27344L11.5391 2.42188L11.0391 1.95312H10.5078L11.1562 1.53125Z" fill="#D22630"/>
<path d="M9.59375 2.15625L9.79688 2.33594L9.625 2.45313L9.44531 2.24219L9.59375 2.15625ZM10.0938 2.1875V2.47656L10.5625 2.92188L10.4531 3.07031L9.94531 2.60156H9.45312L10.0938 2.1875ZM12.5781 0.796875H12.1094L11.7969 1.09375H11.2109L10.8594 1.26563L10.9141 1.44531L11.2656 1.26563H11.4453L11.9766 1.89063L12.5703 1.53125L12.5781 0.796875Z" fill="#D22630"/>
<path d="M9.89062 5.3125L9.67969 5.49219L9.47656 5.33594L9.67969 5.16406L9.39062 4.99219H10.0391L10.5391 4.48438L10.7188 4.66406L10.2109 5.13281V5.46875L9.89062 5.3125Z" fill="#383739"/>
<path d="M10.9219 5.375L10.6875 5.57812L10.4766 5.42969L10.6875 5.25781L10.3906 5.07812H11.0156L11.5391 4.57812L11.6953 4.75L11.1875 5.21875V5.54688L10.9219 5.375ZM9.79688 4.72656L9.5625 4.92969L9.35938 4.78125L9.59375 4.57812L9.29688 4.42188H9.89062L10.4219 3.92969L10.6016 4.10156L10.0938 4.57031V4.86719L9.79688 4.72656Z" fill="#383739"/>
<path d="M12.6016 6.25781H12.0469L11.75 5.99219H11.2188L10.8047 5.78906L10.9219 5.55469L11.2734 5.75781H11.4297L12.0156 5.10938L12.6016 5.46094V6.25781Z" fill="#383739"/>
<path d="M9.6875 5.46094L9.85938 5.28125L9.71094 5.16406L9.50781 5.34375L9.6875 5.46094ZM10.1562 5.42969V5.13281L10.6562 4.66406L10.5078 4.54688L10.0391 5.01562H9.53125L10.1875 5.42969H10.1562ZM10.6875 5.54688L10.8672 5.375L10.7109 5.25781L10.5391 5.42969L10.6875 5.54688ZM11.1562 5.49219V5.19531L11.6641 4.75L11.5391 4.63281L11.0391 5.10156H10.5078L11.1562 5.49219Z" fill="#D22630"/>
<path d="M9.59375 4.86719L9.79688 4.69531L9.625 4.60156L9.44531 4.78125L9.59375 4.86719ZM10.0938 4.86719V4.57812L10.5625 4.10938L10.4531 3.98438L9.94531 4.45312H9.45312L10.0938 4.86719ZM12.5781 6.22656H12.1094L11.8047 5.96094H11.2188L10.8672 5.75781L10.9219 5.57812L11.2734 5.78906H11.4531L11.9844 5.13281L12.5781 5.49219V6.22656Z" fill="#D22630"/>
<path d="M9.53125 2.65625L9.26562 2.53906L8.94531 2.77344V2.83594L8.41406 3.53906L8.94531 4.21875V4.28125L9.26562 4.51562L9.53125 4.42969L9.39062 4.3125V4.13281L9.44531 4.04688H9.74219V3.03906H9.44531L9.39062 2.98438V2.77344L9.53125 2.65625Z" fill="#383739"/>
<path d="M8.97656 2.80469L9.26562 2.57031L9.47656 2.65625L9.35938 2.74219V2.95312L9.41406 3.03906H9.71094V3.98438H9.41406L9.35938 4.07031V4.30469L9.47656 4.39844L9.26562 4.46094L8.97656 4.25V4.19531L8.4375 3.51562L8.96875 2.86719L8.97656 2.80469Z" fill="#D22630"/>
<path d="M15.2891 1.77344L15.5 1.5625L15.7344 1.67969L15.5 1.89062L15.7969 2.07031H15.2031L14.6719 2.53906L14.4922 2.35938L15 1.89062V1.59375L15.2891 1.77344Z" fill="#383739"/>
<path d="M14.2891 1.65625L14.4922 1.47656L14.7031 1.59375L14.4922 1.79688L14.7891 1.97656H14.2031L13.6641 2.44531L13.4922 2.27344L13.9922 1.80469V1.50781L14.2891 1.65625ZM15.3828 2.35938L15.5859 2.15625L15.7969 2.27344L15.5859 2.47656L15.8828 2.65625H15.2578L14.7344 3.125L14.5781 2.95312L15.0547 2.45312V2.15625L15.3828 2.35938Z" fill="#383739"/>
<path d="M12.6016 0.765625H13.1328L13.4297 1.0625H13.9609L14.375 1.26562L14.2969 1.48438L13.9062 1.30469H13.7656L13.2031 1.95312L12.6094 1.57031L12.6016 0.765625Z" fill="#383739"/>
<path d="M15.5312 1.59375L15.3203 1.77344L15.5 1.85938L15.6719 1.67969L15.5312 1.59375ZM15.0234 1.625V1.92188L14.5547 2.35938L14.6719 2.51562L15.1719 2.03906H15.6719L15.0547 1.625H15.0234ZM14.4922 1.50781L14.3203 1.67969L14.4688 1.77344L14.6719 1.59375L14.4922 1.50781ZM14.0234 1.53125V1.82812L13.5781 2.27344L13.6953 2.42188L14.1641 1.95312H14.6719L14.0234 1.53125Z" fill="#D22630"/>
<path d="M15.5859 2.15625L15.4062 2.33594L15.5625 2.45313L15.7656 2.24219L15.5859 2.15625ZM15.1172 2.1875V2.47656L14.6094 2.92188L14.7656 3.07031L15.2656 2.60156H15.7656L15.1172 2.1875ZM12.6016 0.796875H13.1328L13.4375 1.09375H13.9688L14.3594 1.26563L14.2656 1.44531L13.9375 1.26563H13.7656L13.2031 1.89063L12.6094 1.53125L12.6016 0.796875Z" fill="#D22630"/>
<path d="M15.2891 5.3125L15.5 5.49219L15.7344 5.33594L15.5 5.16406L15.7969 4.99219H15.2031L14.6719 4.48438L14.4922 4.66406L15 5.13281V5.46875L15.2891 5.3125Z" fill="#383739"/>
<path d="M14.2891 5.375L14.4922 5.57812L14.7031 5.42969L14.4922 5.25781L14.7891 5.07812H14.2031L13.6641 4.57812L13.4922 4.75L13.9922 5.21875V5.54688L14.2891 5.375ZM15.3828 4.72656L15.5859 4.92969L15.7969 4.78125L15.5859 4.57812L15.8828 4.42188H15.2578L14.7344 3.92969L14.5781 4.10156L15.0859 4.57031V4.89844L15.3828 4.72656Z" fill="#383739"/>
<path d="M12.6016 6.25781H13.1328L13.4297 5.99219H13.9609L14.375 5.78906L14.2891 5.55469L13.8984 5.75781H13.7578L13.1953 5.10938L12.6016 5.46094V6.25781Z" fill="#383739"/>
<path d="M15.5312 5.46094L15.3203 5.28125L15.5 5.16406L15.6719 5.34375L15.5312 5.46094ZM15.0234 5.42969V5.13281L14.5547 4.66406L14.6719 4.54688L15.1719 5.01562H15.6719L15.0547 5.42969H15.0234ZM14.4922 5.54688L14.3203 5.375L14.4688 5.25781L14.6719 5.42969L14.4922 5.54688ZM14.0234 5.49219V5.19531L13.5781 4.78125L13.6953 4.66406L14.2031 5.13281H14.7031L14.0547 5.52344L14.0234 5.49219Z" fill="#D22630"/>
<path d="M15.5859 4.86719L15.4062 4.69531L15.5625 4.60156L15.7656 4.78125L15.5859 4.86719ZM15.1172 4.86719V4.57812L14.6094 4.10938L14.7656 3.98438L15.2656 4.45312H15.7656L15.1172 4.86719ZM12.6016 6.19531H13.1328L13.4375 5.9375H13.9688L14.3594 5.73438L14.2656 5.55469L13.9375 5.76562H13.7656L13.2031 5.11719L12.6094 5.46875L12.6016 6.19531Z" fill="#D22630"/>
<path d="M15.6484 2.65625L15.9375 2.53906L16.2344 2.77344V2.83594L16.8281 3.53906L16.2344 4.19531V4.25L15.8828 4.48438L15.6172 4.39844L15.7969 4.28125V4.13281L15.7344 4.04688H15.4375V3.03906H15.7344L15.7969 2.98438V2.77344L15.6484 2.65625Z" fill="#383739"/>
<path d="M16.2344 2.80469L15.9141 2.57031L15.7344 2.65625L15.8516 2.74219V2.95312L15.7656 3.03906H15.5V3.98438H15.7969L15.8516 4.07031V4.30469L15.7344 4.39844L15.9141 4.46094L16.2031 4.25V4.19531L16.7344 3.51562L16.2344 2.86719V2.80469Z" fill="#D22630"/>
<path d="M9.09375 4.07031L8.9375 3.95312V3.90625L8.64844 3.51562L8.94531 3.14062V3.07812L9.09375 2.96094L9.32812 3.16406H9.17969L9.41406 3.39844H9.92188L10.3047 3.10938V2.21094H11.3047L12.4844 1.50781V1.32812L12.2812 1.21094H12.25L12.0469 1.32812L12.0156 1.44531L11.8672 1.24219L12.1641 0.976562H12.1953L12.5469 0.742188H12.6641L12.9922 0.976562H13.0469L13.3438 1.24219L13.1641 1.44531V1.32812L12.9609 1.21094H12.8984L12.7344 1.32812V1.50781L13.9062 2.21094H14.8828V3.04688L15.2969 3.34375H15.8047L16.0078 3.14062H15.8594L16.125 2.92969L16.2734 3.04688V3.10938L16.5703 3.49219L16.2734 3.875V3.9375L16.125 4.05469L15.8594 3.82812H16.0078L15.8047 3.625H15.2969L14.8828 3.92188V4.74219H13.8828L12.7266 5.46875V5.64844L12.8984 5.76562H12.9609L13.1328 5.64844L13.1641 5.55469L13.3438 5.76562L13.0469 6H12.9922L12.6641 6.23438H12.5469L12.1953 6H12.1641L11.8672 5.76562L12.0156 5.55469L12.0469 5.64844L12.25 5.76562H12.2812L12.4609 5.64844V5.46875L11.3047 4.76562H10.3359V3.92188L9.94531 3.625H9.45312L9.21875 3.82812H9.36719L9.09375 4.07031Z" fill="#383739"/>
<path d="M12.6016 5.8125L12.7266 5.90625L12.6016 6.02344V5.8125ZM12.2188 5.99219L12.5156 6.22656H12.5781V6.05469L12.3984 5.89844L12.5781 5.78906V5.42969L11.3281 4.66406H10.4453V3.89844L9.91406 3.53906H9.20312L9.02344 3.75L8.85156 3.53906H8.64062L8.9375 3.89844V3.95312L9.02344 4.04688L9.23438 3.89062H9.14062V3.86719L9.375 3.63281H9.91406L10.3281 3.92969V4.75H11.2969L12.4766 5.49219V5.69531L12.3047 5.8125H12.2109L12.0078 5.69531V5.60938L11.8906 5.75781L12.1875 5.96094L12.2188 5.99219ZM9.0625 3.33594L9.21094 3.51562H8.90625L9.0625 3.33594ZM12.6016 1.03125L12.4609 1.125L12.5781 1.20312L12.6016 1.03125ZM15.9688 3.53906L16.0859 3.69531L16.2422 3.53906H15.9688ZM12.9922 1.03906L12.6641 0.796875H12.6016V1L12.7812 1.125L12.6016 1.26562V1.625L13.875 2.35938H14.7578V3.13281L15.2266 3.51562H15.9375L16.1172 3.30469L16.3281 3.51562H16.5312L16.2344 3.15625V3.10156L16.1172 2.98438L15.9375 3.125H16.0312V3.14844L15.7969 3.41406H15.2656L14.8516 3.09375V2.26562H13.875L12.6953 1.5625V1.35156L12.8984 1.19531H12.9609L13.1641 1.35156V1.40625L13.2812 1.25781L13.0156 1.02344L12.9922 1.03906Z" fill="#FFC72C"/>
<path d="M12.5781 6.01562L12.4609 5.90625L12.5781 5.8125V6.01562ZM9.21094 3.53906L9.0625 3.69531L8.91406 3.53906H9.21094ZM12.9922 5.99219L12.6641 6.22656H12.6016V6.05469L12.7812 5.89844L12.6016 5.78906V5.42969L13.8516 4.66406H14.7578V3.89844L15.2266 3.53906H15.9375L16.1172 3.75L16.3281 3.53906H16.5312L16.2344 3.89844V3.95312L16.1172 4.04688L15.9375 3.89062H16.0312V3.86719L15.7969 3.63281H15.2656L14.8516 3.92969V4.75H13.875L12.6953 5.49219V5.69531L12.8984 5.8125H12.9609L13.1641 5.69531V5.60938L13.2812 5.75781L13.0156 5.96094L12.9922 5.99219ZM16.1172 3.33594L16 3.51562H16.2969L16.1172 3.33594ZM12.2188 1.03125L12.5156 0.796875H12.5781V1L12.3984 1.125L12.5781 1.26562V1.625L11.3281 2.35938H10.4453V3.13281L9.91406 3.53906H9.20312L9.02344 3.33594L8.85156 3.53906H8.64062L8.9375 3.1875V3.13281L9.02344 3.00781L9.23438 3.16406H9.14062V3.1875L9.375 3.45312H9.91406L10.3281 3.13281V2.26562H11.2969L12.4766 1.5625V1.35156L12.3047 1.19531H12.2109L12.0078 1.35156V1.40625L11.8906 1.25781L12.1875 1.02344L12.2188 1.03125ZM12.6094 1.21094L12.7266 1.125L12.6016 1.03125L12.6094 1.21094Z" fill="white"/>
<path d="M12.5781 3.53906V1.65625L11.3672 2.35938H10.4688V3.13281L10 3.48437H12.5938V5.375L13.8438 4.60156H14.7266V3.86719L15.1953 3.51562L12.5781 3.53906Z" fill="#00843D"/>
<path d="M10 3.53906L10.4531 3.89844V4.63281H11.3281L12.5703 5.39844V3.51562H15.1953L14.7266 3.15625V2.35938H13.8359L12.5938 1.625V3.53906H10Z" fill="#D22630"/>
<path d="M11.2734 2.60156L11.0703 2.39062L10.8359 2.53906L11.0703 2.74219L10.7734 2.89844H11.3672L11.8984 3.39844L12.0703 3.21875L11.5703 2.75V2.45312L11.2734 2.60156ZM13.9297 4.42969L14.1406 4.63281L14.3438 4.51562L14.1406 4.3125L14.4062 4.13281H13.8125L13.2812 3.66406L13.1328 3.83594L13.6406 4.30469V4.60938L13.9297 4.42969ZM11.2734 4.42969L11.0703 4.63281L10.8359 4.51562L11.0703 4.3125L10.7734 4.13281H11.3672L11.8984 3.66406L12.0703 3.83594L11.5703 4.30469V4.60938L11.2734 4.42969ZM13.9297 2.60156L14.1406 2.39062L14.3438 2.53906L14.1406 2.74219L14.4062 2.89844H13.8125L13.2812 3.39844L13.1328 3.21875L13.6406 2.75V2.45312L13.9297 2.60156Z" fill="#383739"/>
<path d="M14.1406 4.60938L13.9297 4.42969L14.1094 4.3125L14.2891 4.48438L14.1406 4.60938ZM13.6719 4.57812V4.28125L13.1641 3.83594L13.2812 3.6875L13.7891 4.15625H14.3203L13.6719 4.57812ZM11.0391 2.45312L11.25 2.625L11.0938 2.71875L10.8906 2.53906L11.0391 2.45312ZM11.5391 2.45312V2.73438L12.0078 3.20312L11.8984 3.32812L11.3984 2.85938H10.9297L11.5391 2.45312Z" fill="#D22630"/>
<path d="M14.1406 2.45312L13.9297 2.625L14.1094 2.71875L14.2891 2.53906L14.1406 2.45312ZM13.6719 2.45312V2.73438L13.1641 3.24219L13.2812 3.35938L13.7891 2.89062H14.3203L13.6719 2.45312ZM11.0391 4.60156L11.25 4.42969L11.0938 4.3125L10.8906 4.48438L11.0391 4.60156ZM11.5391 4.57812V4.28125L12.0078 3.83594L11.8984 3.6875L11.3984 4.15625H10.9297L11.5703 4.57812H11.5391Z" fill="#00843D"/>
<path d="M13.9297 3.53906L12.6016 4.42969L11.2734 3.53906L12.6016 2.65625L13.9297 3.53906Z" fill="#383739"/>
<path d="M12.5781 2.65625L11.3281 3.53906H13.8672L12.6016 2.65625V4.33594L13.875 3.53906H11.3672L12.6016 4.375L12.5781 2.65625Z" fill="white"/>
<path d="M12.9609 3.83594V4.07031H12.2578V3.83594H11.7812V3.21094H12.25V2.97656H12.9531V3.21094H13.3984V3.80469L12.9609 3.83594Z" fill="#383739"/>
<path d="M12.2812 3.00781V3.24219H11.8125V3.51562H12.5781V3.00781H12.2812ZM12.6016 3.51562H13.375V3.21875H12.9297V3.00781H12.6328V3.51562H12.6016ZM11.8047 3.51562V3.80469H12.2734V4.03906H12.5781V3.53906L11.8047 3.51562ZM12.6016 4.04688H12.8984V3.8125H13.3672V3.51562H12.6016V4.04688Z" fill="#D22630"/>
<path d="M14.8438 13.5781V13.2031H15.9375V12.7891H17V9.27344H15.9375V8.89062H14.875V8.50781H13.8125V8.125H11.4531V8.51562H10.3359V8.89062H9.26562V9.28125H8.20312V12.8125H9.26562V13.1953H10.3359V13.5859H11.3984V13.9609H13.7891V13.5781H14.8438Z" fill="#383739"/>
<path d="M11.4219 8.14844V8.53125H10.3594V8.92188H9.29688V9.29688H8.26562V12.75H9.32812V13.1641H10.3906V13.5547H11.4531V13.9297H13.8125V13.5469H14.8516V13.1641H15.9141V12.75H16.9766V9.29688H15.9141V8.91406H14.8438V8.5625H13.7812V8.17188L11.4219 8.14844ZM11.7188 8.44531H13.4922V8.82812H14.5547V9.21094H15.6172V9.59375H16.6797V12.4844H15.6172V12.875H14.5547V13.2578H13.4922V13.6406H11.7188V13.2812H10.625V12.8984H9.5625V12.5156H8.5V9.625H9.5625V9.23438H10.625V8.85938H11.6875L11.7188 8.44531Z" fill="#FFC72C"/>
<path d="M10.6875 13.2266V12.8359H9.625V12.4609H8.5625V9.625H9.625V9.23438H10.6875V8.85938H11.75V8.4375H13.4609V8.85156H14.5234V9.23438H15.5859V9.61719H16.6484V12.4531H15.5859V12.8359H14.5312V13.2188H13.4688V13.6016H11.75V13.2109L10.6875 13.2266Z" fill="#D22630"/>
<path d="M10.9219 9.14844L10.625 8.91406V9.32812L10.3906 9.50781V9.24219L10.125 9.47656L9.89062 9.24219V9.50781L9.59375 9.29688V9.6875L9.35938 9.85938V9.625L9.0625 9.82812L8.76562 9.625V9.85938L8.53125 9.65625V10.7734H8.20312V11.3047H8.5V12.3984L8.79688 12.1953V12.4297L9.09375 12.2188L9.35938 12.4297V12.1953L9.59375 12.3672V12.7578L9.89062 12.5469V12.8125L10.125 12.5781L10.3906 12.8125V12.5469L10.6562 12.7266V13.1328L10.9531 12.8984V13.1953L11.1875 12.9609L11.4844 13.1953V12.8984L11.7188 13.1094V13.5234L12.0703 13.1953V13.5859L12.6016 13.2812L13.1094 13.5781V13.2031L13.4922 13.5312V13.1172L13.7266 12.9062V13.2031L14.0234 12.9688L14.2578 13.2031V12.9062L14.5547 13.1406V12.7344L14.8203 12.5547V12.8203L15.0547 12.5859L15.3203 12.8203V12.5547L15.6172 12.7578V12.4062L15.8516 12.2266V12.4609L16.1484 12.2578L16.4141 12.4688V12.2344L16.6797 12.4375V11.3125H16.9766V10.7812H16.6797V9.66406L16.3828 9.86719V9.63281L16.1172 9.83594L15.8203 9.63281V9.86719L15.625 9.6875V9.29688L15.3281 9.50781V9.24219L15.0625 9.47656L14.8281 9.24219V9.50781L14.5312 9.32812V8.91406L14.2656 9.125V8.82812L14 9.125L13.7344 8.82812V9.125L13.5 8.94531V8.53125L13.1094 8.85938V8.46875L12.6094 8.76562L12.0781 8.46875V8.85938L11.7266 8.53125V8.94531L11.4609 9.125V8.82812L11.1953 9.125L10.9297 8.82812L10.9219 9.14844Z" fill="#383739"/>
<path d="M8.82812 9.92188V9.6875L9.0625 9.85938L9.32812 9.67969V9.91406L9.59375 9.71094V12.3672L9.29688 12.1641V12.3984L9.0625 12.2188L8.82812 12.3984V12.1641L8.53125 12.3672V11.2734H8.23438V10.8047H8.53125V9.74219L8.82812 9.92188ZM10.9531 8.91406L11.1875 9.125L11.4219 8.91406V9.21094L11.7188 8.97656V13.1094L11.4219 12.8984V13.1641L11.1875 12.9297L10.9531 13.1641V12.8672L10.6562 13.1016V8.98438L10.9531 9.1875V8.91406ZM14.2344 8.91406L14 9.125L13.7578 8.91406V9.21094L13.4609 8.97656V13.1094L13.7578 12.8984V13.1641L13.9922 12.9297L14.2266 13.1641V12.8672L14.5234 13.1016V8.98438L14.2266 9.1875L14.2344 8.91406ZM16.3828 9.92188V9.6875L16.1172 9.85938L15.8828 9.67969V9.91406L15.5859 9.71094V12.3672L15.8828 12.1641V12.3984L16.1172 12.2188L16.3828 12.3984V12.1641L16.6484 12.3672V11.2734H16.9453V10.8047H16.6406V9.74219L16.3828 9.92188Z" fill="#00843D"/>
<path d="M9.92188 9.29688L10.125 9.50781L10.3594 9.29688V9.53125L10.6562 9.35938V12.7188L10.3594 12.5469V12.7812L10.125 12.5781L9.92188 12.7812V12.5469L9.625 12.7266V9.35938L9.92188 9.53125V9.29688ZM12.1094 8.91406L11.75 8.59375V13.4922L12.1016 13.1641V13.5781L12.6016 13.2578L13.0703 13.5469V13.1641L13.4609 13.4922V8.59375L13.0703 8.91406V8.5L12.6016 8.79688L12.1016 8.5L12.1094 8.91406ZM15.2891 9.30469L15.0547 9.50781L14.8516 9.29688V9.53125L14.5547 9.35938V12.7188L14.8516 12.5469V12.7812L15.0547 12.5781L15.2891 12.7812V12.5469L15.5859 12.7266V9.35938L15.2891 9.53125V9.30469Z" fill="#FFC72C"/>
<path d="M8.94531 10.5703L9.0625 10.6016L9.17969 10.5703C9.22329 10.5057 9.25338 10.433 9.26815 10.3564C9.28291 10.2799 9.28206 10.2012 9.26562 10.125L9.14844 10.2734L9.0625 10.1562L8.97656 10.2734L8.85938 10.125C8.85938 10.2734 8.85938 10.4531 8.9375 10.5703H8.94531ZM10.0703 10.2734L9.97656 10.1875V10L9.77344 10.1797L10.125 10.5312L10.4766 10.1797L10.2734 10V10.1797L10.2109 10.2656V9.96875L10.3672 9.82031L10.1328 9.64844L9.92188 9.82031L10.0703 9.97656V10.2734ZM11.1328 9.92188L11.0391 9.85938V9.6875L10.8359 9.86719L11.1875 10.2188L11.5391 9.86719L11.3359 9.6875V9.86719L11.2734 9.92969V9.63281L11.4297 9.51562L11.1953 9.30469L10.9844 9.51562L11.1328 9.63281V9.92188Z" fill="#383739"/>
<path d="M9.0625 10.2109L9.14844 10.3359L9.24219 10.2109C9.24219 10.3672 9.24219 10.4766 9.14844 10.5078C9.13747 10.5196 9.12417 10.5291 9.10938 10.5355C9.0946 10.542 9.07864 10.5453 9.0625 10.5453C9.04636 10.5453 9.0304 10.542 9.01562 10.5355C9.00083 10.5291 8.98753 10.5196 8.97656 10.5078C8.91406 10.4766 8.88281 10.3594 8.88281 10.2109L9 10.3359L9.0625 10.2109ZM11.25 9.625V10.0078L11.3672 9.85938V9.74219L11.5156 9.85938L11.2188 10.1562L10.8906 9.85938L11.0078 9.74219V9.85938L11.1641 10.0078V9.61719L11.0078 9.50781L11.1875 9.35156L11.3672 9.50781L11.25 9.625Z" fill="white"/>
<path d="M10.1875 9.94531V10.3359L10.3047 10.1797V10.0781L10.4531 10.1953L10.1562 10.4844L9.82812 10.1953L9.94531 10.0781V10.1953L10.1016 10.3438V9.95312L9.94531 9.83594L10.125 9.6875L10.3047 9.84375L10.1875 9.94531Z" fill="#D22630"/>
<path d="M16.2344 10.5703L16.1172 10.6016L16 10.5703C15.9141 10.4531 15.9141 10.2734 15.9141 10.125L16.0625 10.2734L16.1172 10.1562L16.2031 10.2734L16.3594 10.125C16.3594 10.2734 16.3594 10.4531 16.2344 10.5703ZM15.1406 10.2734L15.2031 10.1875V10L15.4062 10.1797L15.0547 10.5312L14.7031 10.1797L14.9062 10V10.1797L15 10.2656V9.96875L14.8438 9.82031L15.0547 9.64844L15.2891 9.82031L15.1406 9.97656V10.2734ZM14.0469 9.92188L14.1406 9.85938V9.6875L14.3438 9.86719L13.9922 10.2188L13.6406 9.86719L13.8438 9.6875V9.86719L13.9297 9.92969V9.63281L13.7891 9.51562L13.9922 9.30469L14.2266 9.51562L14.0547 9.63281L14.0469 9.92188Z" fill="#383739"/>
<path d="M16.1172 10.2109L16.0625 10.3359L15.9375 10.2109C15.9375 10.3672 15.9688 10.4766 16.0312 10.5078C16.0415 10.5257 16.0563 10.5405 16.0742 10.5508C16.092 10.5611 16.1122 10.5665 16.1328 10.5665C16.1534 10.5665 16.1736 10.5611 16.1915 10.5508C16.2093 10.5405 16.2241 10.5257 16.2344 10.5078C16.2969 10.4766 16.3281 10.3594 16.3281 10.2109L16.2031 10.3359L16.1172 10.2109ZM13.9609 9.625V10.0078L13.8125 9.85938V9.74219L13.6953 9.85938L13.9922 10.1562L14.2891 9.85938L14.1719 9.74219V9.85938L14.0547 10.0078V9.61719L14.1719 9.50781L13.9922 9.35156L13.8125 9.50781L13.9609 9.625Z" fill="white"/>
<path d="M15.0234 9.94531V10.3359L14.875 10.1797V10.0781L14.7578 10.1953L15.0547 10.4844L15.3516 10.1953L15.2344 10.0781V10.1953L15.1172 10.3438V9.95312L15.2344 9.83594L15.0547 9.6875L14.875 9.84375L15.0234 9.94531Z" fill="#D22630"/>
<path d="M12.9922 10.0391L12.8984 9.88281L13.1953 9.625L12.8984 9.41406V9.57031L12.8125 9.64844V9.35938L13.0781 9.17969L12.6094 8.82812L12.1328 9.17969L12.3984 9.39062V9.67969L12.2812 9.5625V9.41406L11.9844 9.625L12.2812 9.92188L12.1953 10.0703L12.9922 10.0391Z" fill="#383739"/>
<path d="M12.2188 10.0391L12.3359 9.88281L12.0469 9.625L12.25 9.46875V9.5625L12.4297 9.71875V9.35938L12.1641 9.17969L12.6016 8.88281L13.0156 9.17969L12.7812 9.35938V9.71094L12.9609 9.5625V9.47656L13.1641 9.625L12.8672 9.92188L12.9609 10.0391H12.2188Z" fill="#D22630"/>
<path d="M12.3984 9.17969L12.6016 9.32812L12.8125 9.17969L12.6016 9.03125L12.3984 9.17969Z" fill="#383739"/>
<path d="M12.6016 9.0625L12.7578 9.17969L12.6016 9.29688L12.4297 9.17969L12.6016 9.0625Z" fill="#00843D"/>
<path d="M8.94531 11.5156C8.96154 11.5025 8.98037 11.4929 9.00057 11.4875C9.02076 11.4821 9.04187 11.481 9.0625 11.4844L9.17969 11.5156C9.2216 11.5751 9.25085 11.6425 9.26563 11.7137C9.28041 11.785 9.28041 11.8585 9.26562 11.9297L9.14844 11.8047L9.0625 11.9609L8.97656 11.8047L8.85938 11.9609C8.85938 11.8359 8.85938 11.6641 8.9375 11.5391L8.94531 11.5156ZM10.0703 11.8047L9.97656 11.8984V12.0703L9.77344 11.8672L10.125 11.5391L10.4766 11.8672L10.2734 12.0703V11.8984L10.2109 11.8047V12.1016L10.3672 12.2578L10.1328 12.4297L9.92188 12.25L10.0703 12.1016V11.8047ZM11.1328 12.1328L11.0391 12.2188V12.3984L10.8359 12.2188L11.1875 11.8672L11.5391 12.2188L11.3359 12.3984V12.2188L11.2734 12.1328V12.4297L11.4297 12.5781L11.1953 12.75L10.9844 12.5781L11.1328 12.4609V12.1328Z" fill="#383739"/>
<path d="M9.0625 11.8672L9.14844 11.75L9.24219 11.8672C9.24219 11.7188 9.24219 11.5703 9.14844 11.5391C9.13747 11.5272 9.12417 11.5178 9.10938 11.5113C9.0946 11.5049 9.07864 11.5015 9.0625 11.5015C9.04636 11.5015 9.0304 11.5049 9.01562 11.5113C9.00083 11.5178 8.98753 11.5272 8.97656 11.5391C8.91406 11.6016 8.88281 11.7188 8.88281 11.8672L9 11.75L9.0625 11.8672ZM11.25 12.4609V12.0703L11.3672 12.2266V12.3359L11.5156 12.2188L11.2188 11.9297L10.8906 12.2188L11.0078 12.3359V12.2188L11.1641 12.0703V12.4609L11.0078 12.5781L11.1875 12.7266L11.3672 12.5703L11.25 12.4609Z" fill="white"/>
<path d="M10.1875 12.1094V11.75L10.3047 11.8672V11.9844L10.4531 11.8672L10.1562 11.5703L9.82812 11.8672L9.94531 11.9844V11.875L10.1016 11.7578V12.1094L9.94531 12.2266L10.125 12.3828L10.3047 12.2266L10.1875 12.1094Z" fill="#D22630"/>
<path d="M16.2344 11.5156C16.2181 11.5025 16.1993 11.4929 16.1791 11.4875C16.1589 11.4821 16.1378 11.481 16.1172 11.4844L16 11.5156C15.9141 11.6328 15.9141 11.8047 15.9141 11.9297L16.0625 11.7734L16.1172 11.9297L16.2031 11.7734L16.3594 11.9297C16.3594 11.8047 16.3594 11.6328 16.2344 11.5156ZM15.1406 11.8047L15.2031 11.8984V12.0703L15.4062 11.8672L15.0547 11.5391L14.7031 11.8672L14.9062 12.0703V11.8984L15 11.8047V12.1016L14.8438 12.2578L15.0547 12.4297L15.2891 12.25L15.1406 12.1016V11.8047ZM14.0469 12.1016L14.1406 12.1953V12.3672L14.3438 12.1953L13.9922 11.8359L13.6406 12.1953L13.8438 12.3672V12.1953L13.9297 12.1016V12.3984L13.7891 12.5469L13.9922 12.7266L14.2266 12.5469L14.0547 12.4297L14.0469 12.1016Z" fill="#383739"/>
<path d="M16.1172 11.8672L16.0625 11.75L15.9375 11.8672C15.9375 11.7188 15.9688 11.5703 16.0312 11.5391C16.0415 11.5212 16.0563 11.5064 16.0742 11.4961C16.092 11.4858 16.1122 11.4803 16.1328 11.4803C16.1534 11.4803 16.1736 11.4858 16.1915 11.4961C16.2093 11.5064 16.2241 11.5212 16.2344 11.5391C16.2969 11.6016 16.3281 11.7188 16.3281 11.8672L16.2031 11.75L16.1172 11.8672ZM13.9609 12.4609V12.0703L13.8125 12.2266V12.3359L13.6953 12.2188L13.9922 11.9297L14.2891 12.2188L14.1719 12.3359V12.2188L14.0547 12.0703V12.4609L14.1719 12.5781L13.9922 12.7266L13.8125 12.5703L13.9609 12.4609Z" fill="white"/>
<path d="M15.0234 12.1094V11.75L14.875 11.8672V11.9844L14.7656 11.875L15.0625 11.5781L15.3594 11.875L15.2422 11.9922V11.875L15.125 11.7578V12.1094L15.2422 12.2031L15.0625 12.375L14.8828 12.2031L15.0234 12.1094Z" fill="#D22630"/>
<path d="M12.9922 12.0156L12.8984 12.1641L13.1953 12.4609L12.8984 12.6641V12.5156L12.8125 12.3984V12.6953L13.0781 12.8984L12.6094 13.2266L12.1328 12.8984L12.3984 12.6953V12.3984L12.2812 12.5156V12.6641L11.9844 12.4609L12.2812 12.1641L12.1953 12.0078L12.9922 12.0156Z" fill="#383739"/>
<path d="M12.2188 12.0469L12.3359 12.1953L12.0469 12.4609L12.25 12.6016V12.4844L12.4297 12.3359V12.7266L12.1641 12.8984L12.6016 13.1953L13.0156 12.8984L12.7812 12.7266V12.3359L12.9609 12.4922V12.6016L13.1641 12.4609L12.8672 12.1641L12.9609 12.0469H12.2188Z" fill="#D22630"/>
<path d="M12.3984 12.8984L12.6016 12.7266L12.8125 12.8984L12.6016 13.0547L12.3984 12.8984Z" fill="#383739"/>
<path d="M12.6016 12.9922L12.7578 12.8984L12.6016 12.7812L12.4297 12.8984L12.6016 12.9922Z" fill="#00843D"/>
<path d="M16.3828 10.8594H15.9375V10.6875H14.5312L13.4922 10.0391H11.7188L10.7188 10.6875H9.26562V10.8672H8.79688V11.2188H9.26562V11.4219H10.7188L11.7188 12.0703H13.4922L14.4922 11.4219H15.9141V11.2188H16.3828V10.8594Z" fill="#383739"/>
<path d="M11.7188 10.0391L10.7188 10.7188H9.29688V10.8906H8.85938V11.1875H9.32812V11.3672H10.7422L11.75 12.0156H13.5156L14.4844 11.3672H15.9062V11.1562H16.375V10.9219H15.9062V10.7422H14.4609L13.4844 10.0938L11.7188 10.0391ZM11.7188 10.1562H13.4609L14.3438 10.7422V10.8359H15.3906V11.2188H14.375V11.3359L13.4609 11.9297H11.7422L10.8359 11.3359V11.2188H9.79688V10.8281H10.8359V10.75L11.7188 10.1562Z" fill="#D22630"/>
<path d="M13.4609 10.1875L14.3438 10.7734V10.8672H15.3516V11.2188H14.3438V11.3359L13.4609 11.9297H11.7422L10.8672 11.3359V11.2188H9.82812V10.9219H10.8672V10.8047L11.75 10.2109L13.4609 10.1875Z" fill="#D22630"/>
<path d="M11.3047 11.3672L11.6953 11.6641L11.9297 11.4844L11.7734 11.3672L11.6953 11.4219L11.6016 11.3672L13.0781 10.2734H12.7813L11.3047 11.3672ZM12.1094 11.7969H12.4062L13.8828 10.7031L13.4922 10.4141L13.2031 10.5938L13.3828 10.7109L13.5 10.6172L13.5859 10.7109L12.1094 11.7969ZM12.7344 11.7969H13.0234L11.5469 10.7031L11.6719 10.625L11.75 10.7031L11.9062 10.5938L11.6719 10.4141L11.2812 10.7109L12.7344 11.7969ZM13.5938 11.3594L13.5 11.4141L13.3828 11.3594L13.2266 11.4766L13.5 11.6562L13.8828 11.3594L12.4062 10.2656H12.1094L13.5938 11.3594ZM10.9922 11.0312L11.2578 11.2109L11.5234 11.0312L11.2266 10.8594L10.9922 11.0312Z" fill="#383739"/>
<path d="M12.3438 11.0391L12.6016 11.2188L12.8672 11.0391L12.5781 10.8672L12.3438 11.0391ZM14.2031 11.0391L13.9062 11.2188L13.6719 11.0391L13.9297 10.8672L14.2031 11.0391Z" fill="#383739"/>
<path d="M13.8438 11.3672L13.5234 11.6328L13.3125 11.4766L13.3984 11.3984L13.5234 11.4766L13.6406 11.3672L12.2188 10.3047H12.4297L13.8438 11.3672ZM12.9609 11.7812H12.75L11.3359 10.7188L11.6875 10.4531L11.8984 10.6016L11.7812 10.6797L11.6875 10.6016L11.5391 10.7188L12.9609 11.7812ZM12.4297 11.7812H12.2188L13.6406 10.7188L13.5234 10.6016L13.3984 10.6797L13.3203 10.6016L13.5234 10.4453L13.8438 10.7188L12.4297 11.7812ZM12.75 10.2969H12.9609L11.5391 11.3672L11.6953 11.4844L11.7734 11.3984L11.8984 11.4766L11.6875 11.6328L11.3359 11.3672L12.75 10.2969Z" fill="#FFC72C"/>
<path d="M11.2734 10.9219L11.4844 11.0391L11.2734 11.1953L11.0703 11.0391L11.2734 10.9219ZM12.6016 10.9219L12.8125 11.0391L12.6016 11.1953L12.3984 11.0391L12.6016 10.9219ZM13.9297 10.9219L13.7266 11.0391L13.9297 11.1953L14.1406 11.0391L13.9297 10.9219Z" fill="#00843D"/>
<path d="M8.03125 18.2734L7.9375 18.4219L8.11719 18.5703L7.9375 18.6875L8.03125 18.8359L8.23438 18.8672L8.44531 18.7109L8.97656 19.0078V18.7734L8.64844 18.5703L8.94531 18.3594V18.0703L8.44531 18.4219L8.23438 18.2422L8.03125 18.2734ZM8.03125 17.3281L7.9375 17.4766L8.11719 17.625L7.9375 17.7734L8.03125 17.8906L8.23438 17.9219L8.44531 17.7656L8.97656 18.0703V17.8359L8.64844 17.625L8.94531 17.4141V17.125L8.44531 17.4766L8.23438 17.2969L8.03125 17.3281ZM8.03125 19.7812L7.9375 19.625L8.11719 19.4844L7.9375 19.3672L8.03125 19.2109L8.23438 19.1875L8.44531 19.3359L8.97656 19.0391V19.2734L8.64844 19.4844L8.94531 19.6875V19.9844L8.44531 19.6328L8.23438 19.8047L8.03125 19.7812ZM17.1797 18.2734L17.2656 18.4219L17.0938 18.5703L17.2656 18.6875L17.1484 18.8359L16.9453 18.8672L16.7344 18.7109L16.2344 19.0078V18.7734L16.5312 18.5703L16.2344 18.3594V18.0703L16.7344 18.4219L16.9453 18.2422L17.1797 18.2734ZM17.1484 17.3281L17.2656 17.4766L17.0938 17.625L17.2656 17.7734L17.1484 17.8906L16.9453 17.9219L16.7344 17.7656L16.2344 18.0703V17.8359L16.5312 17.625L16.2344 17.4141V17.125L16.7344 17.4766L16.9453 17.2969L17.1484 17.3281ZM17.1484 19.7812L17.2656 19.625L17.0938 19.4844L17.2656 19.3672L17.1484 19.2109L16.9453 19.1875L16.7344 19.3359L16.2344 19.0391V19.2734L16.5312 19.4844L16.2344 19.6875V19.9844L16.7344 19.6328L16.9453 19.8047L17.1484 19.7812ZM15.0859 15.7031V16.0938H15.3828V16.2656H15.6719V15.9688H15.4375V15.7031H15.0859ZM15.9688 16.3281V16.7109H16.2344V16.8828H16.5312V16.5938H16.2344V16.3281H15.9688ZM10.0703 15.7344V16.0859H9.76562V16.2656H9.5V15.9688H9.76562V15.7031L10.0703 15.7344ZM15.0859 21.3984V21.0156H15.3828V20.8438H15.6719V21.1328H15.4375V21.3984H15.0859ZM10.0703 21.3984V21.0156H9.76562V20.8438H9.5V21.1328H9.76562V21.3984H10.0703ZM15.9688 20.8125V20.3672H16.2344V20.1953H16.5312V20.4844H16.2344V20.7812L15.9688 20.8125ZM9.21875 16.2969V16.6797H8.90625V16.8594H8.64062V16.5625H8.90625V16.2969H9.21875ZM9.21875 20.75V20.3672H8.90625V20.1953H8.64062V20.4844H8.90625V20.7812L9.21875 20.75ZM13.6484 15.6719L13.4141 15.4688L13.2031 15.6484L13.3828 15.8516L13.1484 16.0625H13.5L13.6172 15.9375L13.7656 16.0625H14.1172L13.8828 15.8516L14.0625 15.6484L13.8516 15.4688L13.6172 15.6719H13.6484ZM12.5859 15.6719L12.3516 15.4688L12.1406 15.6484L12.3203 15.8516L12.0859 16.0625H12.4375L12.5859 15.9375L12.7031 16.0625H13.0547L12.8203 15.8516L13 15.6484L12.7891 15.4688L12.5859 15.6719ZM11.5234 15.6719L11.7266 15.4688L11.9609 15.6484L11.7578 15.8516L12.0234 16.0625H11.6328L11.5234 15.9375L11.4062 16.0625H11.0469L11.2812 15.8516L11.1094 15.6484L11.3125 15.4688L11.5234 15.6719ZM13.6172 21.375L13.4062 21.5781L13.2031 21.3984L13.3828 21.2266L13.1484 20.9922H13.5L13.6172 21.1094L13.7656 20.9922H14.1172L13.8828 21.2266L14.0625 21.3984L13.8516 21.5781L13.6172 21.375ZM12.5859 21.375L12.3516 21.5781L12.1406 21.3984L12.3203 21.2266L12.0859 20.9922H12.4375L12.5859 21.1094L12.7031 20.9922H13.0547L12.8203 21.2266L13 21.3984L12.7891 21.5781L12.5859 21.375ZM11.5234 21.375L11.7266 21.5781L11.9609 21.3984L11.7578 21.2266L12.0234 20.9922H11.6328L11.5234 21.1094L11.4062 20.9922H11.0469L11.2812 21.2266L11.1094 21.3984L11.3125 21.5781L11.5234 21.375Z" fill="#383739"/>
<path d="M8.94531 18.7734V18.9844L8.44531 18.6875L8.23438 18.8359H8.0625L7.96875 18.7188L8.14844 18.5625L7.96875 18.4219L8.0625 18.3047H8.23438L8.44531 18.4531L8.94531 18.1562V18.3359L8.55469 18.6016L8.94531 18.7734ZM8.94531 17.8359V18.0391L8.4375 17.7344L8.22656 17.8828H8.05469L7.96094 17.7656L8.14062 17.6094L7.96094 17.4688L8.05469 17.3516H8.22656L8.4375 17.5L8.9375 17.2031V17.3828L8.58594 17.6172L8.94531 17.8359ZM8.94531 19.2734V19.0703L8.44531 19.3672L8.23438 19.2109H8.0625L7.96875 19.3359L8.14844 19.4844L7.96875 19.6328L8.0625 19.75H8.23438L8.44531 19.6016L8.94531 19.8984V19.7188L8.55469 19.4844L8.94531 19.2734ZM16.2344 18.7734V18.9844L16.7031 18.6875L16.9141 18.8359H17.125L17.1797 18.7188L17 18.5625L17.1797 18.4219L17.125 18.3047H16.9141L16.7109 18.4531L16.2422 18.1562V18.3359L16.5938 18.5703L16.2344 18.7734ZM16.2344 17.8359V18.0391L16.7031 17.7422L16.9141 17.8906H17.125L17.1797 17.7734L17 17.6172L17.1797 17.4766L17.125 17.3594H16.9141L16.7188 17.5L16.25 17.2031V17.3828L16.6016 17.6172L16.2344 17.8359ZM16.2344 19.2734V19.0703L16.7031 19.3672L16.9141 19.2109H17.125L17.1797 19.3359L17 19.4844L17.1797 19.6328L17.125 19.75H16.9141L16.7109 19.6016L16.2422 19.8984V19.7188L16.5938 19.4844L16.2344 19.2734ZM15.3516 15.7344V16H15.6172V16.2344H15.3828V16.0625H15.0781V15.7656L15.3516 15.7344ZM16.2109 16.3594V16.5938H16.4453V16.8828H16.2344V16.6797H15.9375V16.3516L16.2109 16.3594ZM9.77344 15.7656V16H9.50781V16.2344H9.74219V16.0625H10.0391V15.7656H9.77344ZM15.3828 21.375V21.1406H15.6172V20.8438H15.3828V21.0469H15.0781V21.375H15.3828ZM9.77344 21.375V21.1406H9.50781V20.8438H9.74219V21.0469H10.0391V21.375H9.77344ZM16.2031 20.7812V20.4844H16.4375V20.25H16.2344V20.4297H15.9375V20.75L16.2031 20.7812ZM8.9375 16.3516V16.5859H8.67969V16.8828H8.91406V16.6797H9.21094V16.3516H8.9375ZM8.9375 20.7812V20.4844H8.67969V20.25H8.91406V20.4297H9.21094V20.75L8.9375 20.7812ZM13.375 15.5312L13.6094 15.7344L13.8438 15.5312L14 15.6719L13.8125 15.8828L14.0234 16.0625H13.75L13.5938 15.9375L13.4844 16.0625H13.1875L13.3906 15.8828L13.2188 15.6719L13.375 15.5312ZM12.3359 15.5312L12.5703 15.7344L12.7812 15.5312L12.9609 15.6719L12.7812 15.8828L12.9922 16.0625H12.6953L12.5781 15.9375L12.4219 16.0625H12.1328L12.3672 15.8828L12.1953 15.6719L12.3359 15.5312ZM11.75 15.5312L11.5156 15.7344L11.3047 15.5312L11.1328 15.6719L11.3047 15.8828L11.1016 16.0625H11.3984L11.5156 15.9375L11.6641 16.0625H11.9531L11.7188 15.8828L11.8984 15.6719L11.75 15.5312ZM13.3984 21.5781L13.6094 21.375L13.8438 21.5781L14 21.4297L13.8125 21.2578L14.0234 21.0469H13.75L13.5938 21.1641L13.4844 21.0469H13.1875L13.3906 21.2578L13.2188 21.4297L13.3984 21.5781ZM12.3359 21.5781L12.5703 21.375L12.7812 21.5781L12.9609 21.4297L12.7812 21.2578L12.9922 21.0469H12.6953L12.5781 21.1719L12.4219 21.0547H12.1328L12.3672 21.2656L12.1953 21.4375L12.3359 21.5781ZM11.75 21.5781L11.5156 21.375L11.3047 21.5781L11.1328 21.4297L11.3047 21.2578L11.1016 21.0469H11.3984L11.5156 21.1641L11.6641 21.0469H11.9531L11.7188 21.2578L11.8984 21.4297L11.75 21.5781Z" fill="#00843D"/>
<path d="M9.74219 20.4297V21.0156H15.4062V20.4297H16.2656V16.6797H15.4062V16.0859H9.77344V16.6797H8.94531V20.4297H9.74219Z" fill="#383739"/>
<path d="M9.79688 16.0938V16.7109H8.98438V20.3906H9.80469V20.9844H15.4141V20.3906H16.2422V16.7031H15.4141V16.1094H9.80469L9.79688 16.0938ZM10.1562 16.3281H15.0547V16.9141L15.2656 17.0938H16.0312V20.0469H15.2656L15.0547 20.1953V20.7812H10.1562V20.1953L9.94531 20.0391H9.21875V17.0938H9.95312L10.1641 16.9375V16.3516L10.1562 16.3281Z" fill="#FFC72C"/>
<path d="M10.1875 16.3516V16.9141L10.9219 16.3516H10.1875ZM14.2578 16.3516L15 16.9141V16.3516H14.2578ZM9.24219 17.125V17.625L9.92188 17.125H9.24219ZM15.2578 17.125L15.9687 17.625V17.125H15.2578ZM15.9687 19.4844L15.2656 20.0156H15.9687V19.4844ZM9.24219 19.4844V20.0156H9.92188L9.24219 19.4844ZM10.1797 20.1875V20.75H10.9219L10.1797 20.1875ZM15 20.1875L14.2578 20.75H15V20.1875Z" fill="#D22630"/>
<path d="M14.2266 16.3516L15.9688 17.6562L15.9687 19.4844L14.2031 20.7812H10.9531L9.23438 19.4844V17.7109L10.9844 16.3828L14.2266 16.3516Z" fill="#00843D"/>
<path d="M9.65625 19.6641L9.44531 19.4297L9.625 19.2188L9.44531 18.9844L9.625 18.7734L9.44531 18.5703L9.625 18.3359L9.44531 18.125L9.625 17.8906L9.44531 17.6797L9.65625 17.4453H15.5469L15.7578 17.6797L15.5469 17.8906L15.7578 18.125L15.5469 18.3359L15.7578 18.5703L15.5469 18.7734L15.7578 18.9844L15.5469 19.2188L15.7578 19.4219L15.5469 19.6562L9.65625 19.6641ZM13.6953 16.6484L13.4609 16.4453L13.2578 16.6484L13.0469 16.4453L12.8125 16.6484L12.6016 16.4453L12.3672 16.6484L12.1641 16.4453L11.9531 16.6484L11.7188 16.4453L11.4844 16.6484V20.4844L11.7188 20.6641L11.9531 20.4844L12.1641 20.6641L12.3672 20.4844L12.6016 20.6641L12.8125 20.4844L13.0469 20.6641L13.2578 20.4844L13.4609 20.6641L13.6953 20.4609V16.6484Z" fill="#383739"/>
<path d="M13.2266 16.6484L13.0469 16.4688L12.8438 16.6484V20.4688L13.0469 20.6406L13.2266 20.4688V16.6484ZM12.3359 16.6484L12.1641 16.4688L11.9531 16.6484V20.4688L12.1641 20.6406L12.3672 20.4688L12.3359 16.6484Z" fill="#FFC72C"/>
<path d="M9.65625 19.6328L9.47656 19.4219L9.65625 19.2188H15.5469L15.7031 19.4219L15.5234 19.6328H9.65625ZM15.5469 18.3594L15.7031 18.5703L15.5234 18.7422H9.64844L9.46875 18.5703L9.64844 18.3594H15.5469ZM15.5469 17.8906L15.7031 17.6797L15.5234 17.4766H9.64844L9.46875 17.6797L9.64844 17.8906H15.5469Z" fill="#FFC72C"/>
<path d="M13.6719 16.6484L13.4609 16.4688L13.2578 16.6484V20.4688L13.4609 20.6406L13.6641 20.4688L13.6719 16.6484ZM11.9297 16.6484L11.7188 16.4688L11.5156 16.6484V20.4688L11.7188 20.6406L11.9297 20.4688V16.6484Z" fill="#D22630"/>
<path d="M9.65625 19.1875L9.47656 18.9844L9.65625 18.7734H15.5469L15.7031 18.9844L15.5234 19.1875H9.65625ZM9.65625 18.3047L9.47656 18.125L9.65625 17.9219H15.5469L15.7031 18.125L15.5234 18.3359L9.65625 18.3047Z" fill="#D22630"/>
<path d="M12.8125 20.4609L12.6016 20.6328L12.3984 20.4609V16.6406L12.6016 16.4609L12.8125 16.6406V20.4609Z" fill="#D22630"/>
<path d="M14.5859 16.7344H10.6016V17.0312H10.0938V20.0781H10.625V20.3672H14.6094V20.0781H15.1172V17.0703H14.6094V16.7422L14.5859 16.7344Z" fill="#383739"/>
<path d="M10.625 17.0625H10.125V20.0156H10.625L10.625 20.3672H11.0391L10.2109 19.6875V17.4219L11.0391 16.7344H10.625V17.0625ZM14.1719 16.7656L14.9688 17.4453V19.6641L14.1719 20.3359H14.5859V20.0469H15.0547V17.0938H14.5547V16.7656H14.1719Z" fill="#D22630"/>
<path d="M11.0938 16.7656L10.2422 17.4688V19.6328L11.1016 20.3359H14.0781L14.9688 19.6328V17.4766L14.0781 16.7734L11.0938 16.7656ZM11.1328 16.8828H14.0547L14.8203 17.5312V19.6094L14.0547 20.2344H11.1328L10.3594 19.5781V17.5156L11.1328 16.8828Z" fill="#00843D"/>
<path d="M11.9297 19.6016L12.0469 19.6641V19.8047L11.8906 19.9609L12.1328 20.1953H11.8984L11.7422 20.0391L11.5703 20.1953H11.3672L11.6016 19.9609L11.4219 19.8047L11.4531 19.6641L11.5703 19.6016L11.75 19.75L11.9297 19.6016ZM12.75 19.6016L12.9062 19.6641V19.8047L12.75 19.9609L12.9844 20.1953H12.75L12.6016 20.0391L12.4297 20.1953H12.1953L12.4297 19.9609L12.2734 19.8047V19.6641L12.4297 19.6016L12.6016 19.75L12.75 19.6016ZM13.2812 19.6016L13.1641 19.6641L13.1328 19.8047L13.2891 19.9609L13.0547 20.1953H13.2891L13.4609 20.0391L13.6094 20.1953H13.8438L13.6094 19.9609L13.7578 19.8047V19.6641L13.6016 19.6016L13.4609 19.75L13.2812 19.6016ZM11.9297 17.5078L12.0469 17.4453V17.2969L11.8906 17.1484L12.1328 16.9141H11.8984L11.7422 17.0625L11.5703 16.9141H11.3672L11.6016 17.1484L11.4219 17.3047L11.4531 17.4453L11.5703 17.5078L11.75 17.3516L11.9297 17.5078ZM12.75 17.5078L12.9062 17.4453V17.2969L12.75 17.1484L12.9844 16.9141H12.75L12.6016 17.0625L12.4297 16.9141H12.1953L12.4297 17.1484L12.2734 17.3047V17.4453L12.4297 17.5078L12.6016 17.3516L12.75 17.5078ZM13.2812 17.5078L13.1641 17.4453L13.1328 17.2969L13.2891 17.1484L13.0547 16.9141H13.2891L13.4609 17.0625L13.6094 16.9141H13.8438L13.6094 17.1484L13.7578 17.3047V17.4453L13.6016 17.5078L13.4609 17.3516L13.2812 17.5078ZM14.7891 17.7422L14.6719 17.8594L14.7891 17.9453V18.125L14.5859 17.9766L14.4297 18.0938H14.2969L14.2344 17.9766L14.3906 17.8594L14.2344 17.7109L14.2969 17.625H14.4453L14.5938 17.7109L14.7969 17.5625L14.7891 17.7422ZM14.7891 18.4453L14.6719 18.5703L14.7891 18.6562V18.8359L14.5859 18.6797L14.4297 18.8047H14.2969L14.2344 18.6875L14.3906 18.5703L14.2344 18.4141L14.2969 18.3359H14.4453L14.5938 18.4141L14.7969 18.2734L14.7891 18.4453ZM14.7891 19.3672L14.6719 19.2734L14.7891 19.1562V18.9844L14.5859 19.1328L14.4297 19.0078H14.2969L14.2344 19.1328L14.3906 19.2734L14.2344 19.3984L14.2969 19.4766L14.4453 19.5156L14.5938 19.3984L14.7969 19.5391L14.7891 19.3672ZM10.3906 17.7344L10.5391 17.8516L10.3906 17.9375V18.1172L10.6016 17.9688L10.7422 18.0859H10.8984L10.9531 17.9688L10.8359 17.8516L10.9531 17.7031L10.8906 17.6172H10.7422L10.6016 17.7031L10.3906 17.5547V17.7344ZM10.3906 18.4375L10.5391 18.5625L10.3906 18.6484V18.8281L10.6016 18.6719L10.7422 18.7969H10.8984L10.9531 18.6797L10.8359 18.5625L10.9531 18.4062L10.8906 18.3281H10.7422L10.6016 18.4062L10.3906 18.2656V18.4375ZM10.3906 19.3594L10.5391 19.2656L10.3906 19.1484V18.9844L10.6016 19.1328L10.7422 19.0078H10.8984L10.9531 19.1328L10.8359 19.2734L10.9531 19.3984L10.8906 19.4766L10.7422 19.5156L10.6016 19.3984L10.3906 19.5391V19.3594Z" fill="#00843D"/>
<path d="M11.1562 16.9141L10.4219 17.5078L10.6016 17.6797L10.7422 17.5625H10.9219L10.9844 17.7188L10.8672 17.8594L10.9844 17.9766L10.9219 18.0938L10.7422 18.125L10.6016 18.0078L10.3906 18.1875V18.2422L10.6016 18.3984L10.7422 18.2734H10.9219L10.9844 18.4219L10.8672 18.5703L10.9844 18.6875L10.9219 18.8047L10.7422 18.8359L10.6016 18.7188L10.3906 18.8906V18.9531L10.6016 19.1016L10.7422 18.9844H10.9219L10.9844 19.1328L10.8672 19.2734L10.9844 19.3984L10.9219 19.5156L10.7422 19.5391L10.6016 19.4219L10.4219 19.5781L11.1562 20.1953H11.3125L11.5469 19.9609L11.3906 19.8359L11.4219 19.6641L11.5781 19.5703L11.75 19.7266L11.8984 19.5703L12.0703 19.6641V19.8359L11.9531 19.9531L12.1641 20.1875L12.3984 19.9531L12.25 19.8359V19.6641L12.4297 19.5703L12.6016 19.7266L12.7578 19.5703L12.9297 19.6641V19.8359L12.7812 19.9531L13.0156 20.1875L13.25 19.9531L13.1094 19.8359V19.6641L13.2812 19.5703L13.4609 19.7266L13.6094 19.5703L13.7578 19.6641L13.7891 19.8359L13.6328 19.9531L13.8672 20.1875H14.0547L14.7891 19.6016L14.5859 19.4219L14.4688 19.5391H14.2891L14.2031 19.3984L14.3203 19.2734L14.2031 19.1328L14.2812 19.0078L14.4688 18.9844L14.5859 19.1016L14.7891 18.9453V18.8906L14.5859 18.7188L14.4688 18.8359H14.2891L14.2031 18.6797L14.3203 18.5703L14.2031 18.4141L14.2812 18.3047H14.4688L14.5859 18.3906L14.7891 18.2422V18.1875L14.5859 18.0078L14.4688 18.125H14.2891L14.2031 17.9766L14.3203 17.8594L14.2031 17.7109L14.2812 17.5938H14.4688L14.5859 17.6797L14.7891 17.5312L14.0547 16.9141H13.875L13.6406 17.1484L13.7891 17.2656V17.4453L13.6094 17.5312L13.4609 17.4141L13.2812 17.5312L13.1328 17.4531L13.1094 17.2656L13.2578 17.1484L13.0234 16.9141L12.7891 17.1484L12.9609 17.2656L12.9297 17.4453L12.75 17.5312L12.6016 17.4141L12.4297 17.5312L12.2734 17.4531L12.25 17.2656L12.3984 17.1484L12.1641 16.9141L11.9531 17.1484L12.1094 17.2656L12.0703 17.4453L11.8984 17.5312L11.7422 17.4141L11.5703 17.5312L11.4219 17.4531V17.2656L11.5391 17.1484L11.3047 16.9141H11.1562ZM10.3906 18.4766V18.6328L10.4766 18.5703L10.3906 18.4766Z" fill="#D22630"/>
<path d="M11.75 20.0781L11.6328 20.1953H11.8672L11.75 20.0781ZM12.6094 20.0781L12.4844 20.1953H12.7188L12.6094 20.0781ZM13.4609 20.0781L13.3125 20.1953H13.5781L13.4609 20.0781ZM11.6328 16.9141L11.75 17.0312L11.8672 16.9141H11.6328ZM12.4609 16.9141L12.6016 17.0312L12.7266 16.9141H12.4609ZM13.3438 16.9141L13.4609 17.0312L13.5781 16.9141H13.3438ZM14.7891 17.7969L14.7031 17.8594L14.7891 17.9219V17.7969ZM14.7891 18.4766L14.7031 18.5703L14.7891 18.625V18.4766ZM14.7891 19.1875L14.7031 19.2734L14.7891 19.3359V19.1875ZM10.3906 17.7734V17.9219L10.4766 17.8594L10.3906 17.7734ZM10.3906 18.4766V18.6328L10.4766 18.5703L10.3906 18.4766ZM10.3906 19.1875V19.3359L10.4766 19.2734L10.3906 19.1875Z" fill="white"/>
<path d="M13.3125 18.3047V18.0703H13.0781V17.7734H12.1016V18.0703H11.8359V18.3359H11.5156V18.8047H11.8672V19.0391H12.1328V19.3359H13.0703V19.0391H13.3125V18.8047H13.6641V18.3047H13.3125Z" fill="#383739"/>
<path d="M12.5781 17.8281V18.125L12.1875 18.3359V18.5391H11.5156V18.3594H11.8672V18.0938H12.1328V17.7969L12.5781 17.8281ZM12.6016 19.3125V19.0078L13.0156 18.7734V18.6016H13.6406V18.8047H13.2812V19.0391H13.0469V19.3359L12.6016 19.3125Z" fill="#FFC72C"/>
<path d="M12.9922 18.5391V18.3359L12.6016 18.1016V17.7969H13.0469V18.0938H13.2812V18.3594H13.6406V18.5391H12.9922ZM11.5391 18.5703H12.1953V18.7734L12.5781 19.0078V19.3047H12.1641V19.0078H11.8984V18.7734H11.5391V18.5703Z" fill="white"/>
<path d="M12.1875 18.5938V18.7734L12.5781 18.9844V18.5703L12.1875 18.5938Z" fill="#D22630"/>
<path d="M12.5781 18.125L12.1875 18.3594V18.5391H12.5781V18.125Z" fill="#00843D"/>
<path d="M12.9922 18.5391V18.3594L12.6016 18.125V18.5391H12.9922Z" fill="#D22630"/>
<path d="M12.6016 18.9844L12.9922 18.7734V18.5703H12.6016V18.9844Z" fill="#00843D"/>
<path d="M9.14844 23.5938V24.3516H8.44531V25.0938H7.67188V27.1016H8.44531V27.8047H9.14844V28.6016H11.8359L12.3359 28.8984L12.1016 29.0156H11.1328L11.0391 28.9297H11.9297L11.6953 28.6953H10.4219L11.0078 29.2812H12.1953L12.5781 29.0156L12.9609 29.2812H14.1328L14.7344 28.6953H13.4609L13.2266 28.9297H14.1094L13.9922 29.0156H13.0547L12.8125 28.9062L13.2812 28.6094H16V27.75H16.7344V27.0469H17.4766V25.0938H16.7344V24.3906H16V23.625H13.2812L12.8125 23.3281L13.0469 23.1797H13.9922L14.0781 23.2734H13.2031L13.4688 23.5391H14.7109L14.1484 22.9453H12.9688L12.5781 23.1797L12.1719 22.9453H10.9922L10.4297 23.5391H11.6953L11.9297 23.2734H11.0469L11.1406 23.1797H12.1094L12.3438 23.3359L11.8438 23.625L9.14844 23.5938Z" fill="#D22630"/>
<path d="M13.2812 28.5469H16V27.75H16.7344V27.0469H17.4766V25.0938H16.7344V24.3906H16V23.6094H13.2812L12.1641 22.9375H10.9844L10.4766 23.4688H11.6641L11.8672 23.2656H10.9844L11.1328 23.1094H12.1016L13.375 23.8828H15.6719V24.6797H16.4141V25.3828H17.1797V26.7734H16.4141V27.4531H15.6719V28.2188H13.375L12.1016 29.0156H11.1328L10.9766 28.8672H11.875L11.6719 28.6953H10.4688L11 29.2266H12.1563L13.2812 28.5469ZM11.8047 28.25H9.45312V27.4844H8.71875V26.7812H7.96875V25.3906H8.71094V24.6797H9.44531V23.8828H11.8047L13.0781 23.1172H14.0781L14.2031 23.2656H13.3125L13.5234 23.4688H14.6953L14.1719 22.9375H12.9922L11.9297 23.6172H9.24219V24.3828H8.5V25.0859H7.67188V27.0391H8.44531V27.7422H9.17969V28.5469H11.8359L12.9922 29.2266H14.1641L14.6719 28.6953H13.4922L13.3125 28.8672H14.2031L14.0469 29.0234H13.0469L11.8047 28.25Z" fill="#FFC72C"/>
<path d="M15.5 27.25V28.0469H13.3438L12.6016 28.4844L11.8672 28.0469H9.71094V27.25H8.98438V26.5625H8.20312V25.625H8.97656V24.9219H9.71094V24.1406H11.875L12.6094 23.7031L13.3516 24.1484H15.5078V24.9141H16.2422V25.6172H16.9844V26.5703H16.2422V27.2734L15.5 27.25Z" fill="#00843D"/>
<path d="M9.97656 26.9844V27.75H11.1562L9.98438 26.9531L9.97656 26.9844ZM9.97656 25.1484V24.4141H11.1562L9.98438 25.1797L9.97656 25.1484ZM15.2031 27.75H14.0234L15.2031 26.9531V27.75ZM15.2031 24.4141H14.0234L15.2031 25.1797V24.4141Z" fill="#383739"/>
<path d="M10.0391 27.0078L11.0703 27.7188H10.0391V27.0078ZM10.0391 25.1484L11.0703 24.4453H10.0391V25.1484ZM15.1719 27.0078L14.1094 27.7188H15.1719V27.0078ZM15.1719 25.1484L14.1094 24.4453H15.1719V25.1484Z" fill="#D22630"/>
<path d="M11.5156 25.8594V25.4688H11.3594L10.7188 25.0938L10.125 25.4766H9.97656V25.8672H9.6875V26.2734H9.98438V26.6641H10.1016L10.7266 27.0703L11.375 26.6562H11.4922V26.2734H11.9609V25.8594H11.5156Z" fill="#383739"/>
<path d="M10.7422 25.0938L11.3359 25.4766H10.1562L10.7422 25.0938ZM11.3359 26.6562L10.7422 27.0469L10.1562 26.6562H11.3359ZM11.1562 25.8906V26.2734H10.4531V25.9219L11.1562 25.8906Z" fill="#D22630"/>
<path d="M11.4531 26.2734V26.625H10.75V26.2734H11.4531ZM10.7188 26.2734V26.625H10V26.2734H10.7188ZM11.8906 25.8828V26.2734H11.2188V25.9219L11.8906 25.8828ZM10.4219 25.8828V26.2734H9.71875V25.9219L10.4219 25.8828ZM11.4531 25.5078V25.8594H10.75V25.5078H11.4531ZM10.7188 25.5078V25.8594H10V25.5078H10.7188Z" fill="#FFC72C"/>
<path d="M10.2109 25.9766V26.1875H9.92188V25.9766H10.2109ZM10.5078 25.5938V25.7969H10.2109V25.5938H10.5078ZM11.2734 25.5938V25.7969H10.9219V25.5938H11.2734ZM10.9844 25.9844V26.1875H10.625V25.9766L10.9844 25.9844ZM11.7188 25.9844V26.1875H11.4062V25.9766L11.7188 25.9844ZM11.2734 26.3594V26.5703H10.9219V26.3594H11.2734ZM10.5078 26.3594V26.5703H10.2109V26.3594H10.5078Z" fill="#383739"/>
<path d="M10.1875 25.9766H9.92188V26.1562H10.2109L10.1875 25.9766ZM10.4766 25.625H10.2109V25.7734H10.5078L10.4766 25.625ZM11.25 25.625H10.9531V25.7734H11.25V25.625ZM10.9219 25.9766H10.625V26.1328H10.9219V25.9766ZM11.6641 25.9766H11.3984V26.1328H11.6641V25.9766ZM11.2188 26.3906H10.9219V26.5391H11.2188V26.3906ZM10.4531 26.3906H10.1875V26.5391H10.4766L10.4531 26.3906Z" fill="white"/>
<path d="M13.6953 25.8594V25.4688H13.8516L14.4375 25.0938H14.4688L15.0859 25.4766H15.2344V25.8672H15.5312V26.2734H15.2344V26.6641H15.0547L14.4688 27.0703L13.8438 26.6562H13.6953V26.2734H13.2812V25.8594H13.6953Z" fill="#383739"/>
<path d="M14.4688 25.0938L13.875 25.4766H15.0547L14.4688 25.0938ZM13.875 26.6562L14.4688 27.0469L15.0547 26.6562H13.875ZM14.0234 25.8906V26.2734H14.7578V25.9219L14.0234 25.8906Z" fill="#D22630"/>
<path d="M13.7266 26.2734V26.625H14.4688V26.2734H13.7266ZM14.4688 26.2734V26.625H15.2031V26.2734H14.4688ZM13.2812 25.8828V26.2734L13.9922 26.2734V25.9219L13.2812 25.8828ZM14.7656 25.8828V26.2734H15.5V25.9219L14.7656 25.8828ZM13.7266 25.5078V25.8594H14.4688V25.5078H13.7266ZM14.4688 25.5078V25.8594H15.2031V25.5078H14.4688Z" fill="#FFC72C"/>
<path d="M14.9688 25.9766V26.1875H15.2891V25.9766H14.9688ZM14.6719 25.5938V25.7969H15V25.5938H14.6719ZM13.9297 25.5938V25.7969H14.2266V25.5938H13.9297ZM14.2266 25.9844V26.1875H14.5234V25.9766L14.2266 25.9844ZM13.4609 25.9844V26.1875H13.7891V25.9766L13.4609 25.9844ZM13.9297 26.3594V26.5703H14.2266V26.3594H13.9297ZM14.6719 26.3594V26.5703H15V26.3594H14.6719Z" fill="#383739"/>
<path d="M15 25.9766H15.2891V26.1562H15V25.9766ZM14.7031 25.625H15V25.7734H14.7031V25.625ZM13.9609 25.625H14.2266V25.7734H13.9297L13.9609 25.625ZM14.2578 26.0078H14.5234V26.1562H14.2266L14.2578 26.0078ZM13.4922 26.0078H13.7891V26.1562H13.4922V26.0078ZM13.9609 26.3984H14.2266V26.5391H13.9297L13.9609 26.3984ZM14.7031 26.3984H15V26.5391H14.7031V26.3984Z" fill="white"/>
<path d="M13.375 25.2109V25.5938H13.2187L12.6016 26.0078L11.9531 25.5938H11.8359V25.2031H11.4531V24.7969H11.8438V24.4062H11.9531L12.6016 24.0312L13.2266 24.4141H13.375V24.7969H13.7266V25.2109H13.375Z" fill="#383739"/>
<path d="M12.6016 25.9766L13.1953 25.5938H12.0156L12.6016 25.9766ZM13.1953 24.4141L12.6016 24.0625L12.0156 24.4141H13.1953Z" fill="#FFC72C"/>
<path d="M13.3438 24.7969V24.4453H12.6016V24.7969H13.3438ZM12.5781 24.7969V24.4453H11.8672V24.7969H12.5781ZM13.6953 25.1875V24.8281H12.9922V25.1797L13.6953 25.1875ZM12.9609 25.1875V24.8281H12.2578V25.1797L12.9609 25.1875ZM12.2188 25.1875V24.8281H11.4844V25.1797L12.2188 25.1875ZM13.3438 25.5625V25.2109H12.6016V25.5625H13.3438ZM12.5781 25.5625V25.2109H11.8672V25.5625H12.5781Z" fill="#D22630"/>
<path d="M12.3984 24.5V24.7344H12.0703V24.5H12.3984ZM13.1328 24.5V24.7344H12.8125V24.5H13.1328ZM12.0156 24.9141V25.125H11.6875V24.9141H12.0156ZM12.75 24.9141V25.125H12.4609V24.9141H12.75ZM13.5234 24.9141V25.125H13.1953V24.9141H13.5234ZM12.3672 25.3047V25.5078H12.0703V25.2969L12.3672 25.3047ZM13.1328 25.3047V25.5078H12.8125V25.2969L13.1328 25.3047Z" fill="#383739"/>
<path d="M12.3438 24.5625H12.1094V24.7109H12.3438V24.5625ZM13.1094 24.5625H12.8438V24.7109H13.1094V24.5625ZM11.9844 24.9453H11.6875V25.0938H11.9844V24.9453ZM12.7266 24.9453H12.4609V25.0938H12.75L12.7266 24.9453ZM13.4922 24.9453H13.1953V25.0938H13.4922V24.9453ZM12.3359 25.3281H12.1016V25.4766H12.3359V25.3281ZM13.1094 25.3281H12.8438V25.4766H13.1094V25.3281Z" fill="white"/>
<path d="M13.375 27.3359V27.75H13.2187L12.6016 28.1641L11.9531 27.75H11.8359V27.3594H11.4531V26.9531H11.8438V26.5625H11.9531L12.6016 26.1875L13.2266 26.5703H13.375V26.9531H13.7266V27.3672L13.375 27.3359Z" fill="#383739"/>
<path d="M12.6016 28.0703L13.1953 27.7188H12.0156L12.6016 28.0703ZM13.1953 26.5391L12.6016 26.1875L12.0156 26.5391H13.1953Z" fill="#FFC72C"/>
<path d="M13.3438 26.9219V26.5703H12.6016V26.9219H13.3438ZM12.5781 26.9219V26.5703H11.8672V26.9219H12.5781ZM13.6953 27.3125V26.9531H12.9922V27.3047L13.6953 27.3125ZM12.9609 27.3125V26.9531H12.2578V27.3047L12.9609 27.3125ZM12.2188 27.3125V26.9531H11.4844V27.3047L12.2188 27.3125ZM13.3438 27.6875V27.3438H12.6016V27.6953L13.3438 27.6875ZM12.5781 27.6875V27.3438H11.8672V27.6953L12.5781 27.6875Z" fill="#D22630"/>
<path d="M12.3984 26.6562V26.8359H12.0703V26.6562H12.3984ZM13.1328 26.6562V26.8359H12.8125V26.6562H13.1328ZM12.0156 27.0469V27.25H11.6875V27.0312L12.0156 27.0469ZM12.75 27.0469V27.25H12.4609V27.0312L12.75 27.0469ZM13.5234 27.0469V27.25H13.1953V27.0312L13.5234 27.0469ZM12.3672 27.4219V27.6328H12.0703V27.4219H12.3672ZM13.1328 27.4219V27.6328H12.8125V27.4219H13.1328Z" fill="#383739"/>
<path d="M12.3438 26.6875H12.1094V26.8047H12.3438V26.6875ZM13.1094 26.6875H12.8438V26.8047H13.1094V26.6875ZM11.9844 27.0703H11.6875V27.1875H11.9844V27.0703ZM12.7266 27.0703H12.4609V27.1875H12.75L12.7266 27.0703ZM13.4922 27.0703H13.1953V27.1875H13.4922V27.0703ZM12.3359 27.4609H12.1016V27.6016H12.3359V27.4609ZM13.1094 27.4609H12.8438V27.6016H13.1094V27.4609Z" fill="white"/>
<path d="M8.5 31.9375L11.3125 30.4688H13.875L16.6797 31.9375V34.4219L13.8672 35.9531H11.3047L8.5 34.4219V31.9375Z" fill="#383739"/>
<path d="M11.3359 30.4688L8.53125 31.9375V34.4219L11.3359 35.8984H13.875L16.6484 34.4141V31.9688L13.875 30.4922L11.3359 30.4688ZM11.3672 30.6719H13.8125L16.4688 32.0859V34.3047L13.8125 35.7188H11.3672L8.71094 34.3047V32.0859L11.3672 30.6719Z" fill="#00843D"/>
<path d="M12.6016 33.1797V35.6875H13.8125L16.4453 34.2734V33.2109H12.6016V30.7031H11.3672L8.76562 32.0859V33.1797H12.6016Z" fill="#FFC72C"/>
<path d="M12.5781 33.1797V35.6875H11.3984L8.74219 34.2734V33.2109H12.6016V30.7031H13.8125L16.4453 32.0859V33.1797H12.5781Z" fill="white"/>
<path d="M12.8438 35.5469V34.8359L12.6094 34.9844L12.375 34.8281V35.5391H11.6328L12.1328 35.1875V34.6562L11.3672 34.1875H10.8594V32.1797H11.3594L12.125 31.7109V31.2031L11.625 30.8516H12.3906V31.5547L12.625 31.4062L12.8594 31.5625V30.8516H13.5703L13.1016 31.2031V31.7031L13.8359 32.1719H14.3672V34.1875H13.8359L13.1016 34.6562V35.1875L13.5703 35.5391L12.8438 35.5469Z" fill="#383739"/>
<path d="M12.8672 31.6172L12.6016 31.4688V31.6719L13.7578 32.4141H14.1406V33.1797H14.3203V32.1875H13.8125L13.0469 31.7188V31.1484L13.4609 30.8594H12.8672V31.6172ZM10.8906 33.2109V34.1484H11.3984L12.1641 34.6562V35.1875L11.7188 35.5156H12.3125V34.7656L12.6016 34.9219V34.7109L11.4297 33.9688H11.0703V33.2031L10.8906 33.2109Z" fill="#FFC72C"/>
<path d="M11.7188 30.875L12.1641 31.1719V31.7344L11.3984 32.2031H10.8906V33.1797H11.0703V32.4219H11.4219L12.6016 31.6797V31.4766L12.3125 31.625V30.8828L11.7188 30.875ZM14.1406 33.2109V33.9766H13.75L12.6016 34.7188V34.9219L12.8672 34.7734V35.5156H13.4609L13.0469 35.2188V34.6562L13.8125 34.1562H14.3203V33.2031L14.1406 33.2109Z" fill="white"/>
<path d="M11.0938 33.9453H11.4531L12.6016 34.6875L13.7578 33.9453H14.1094V32.4219H13.7578L12.5781 31.7188L11.4531 32.4219H11.1016L11.0938 33.9453Z" fill="#D22630"/>
<path d="M13.3984 33.5625H13.6328V33.4453H13.4609V33.2422H13.8516V33.7734H13.4609V34.125H12.6953V33.5938H13.0469V33.8281H12.8984V33.9219H13.2578V33.7109L11.7734 32.8281H11.5391V32.9453H11.75V33.1484H11.3281V32.6172H11.7188V32.2344H12.4766V32.7656H12.1562V32.5625H12.2734V32.4688H11.9219V32.6484L13.3984 33.5625ZM13.2578 32.6797V32.4688H12.8906V32.5625H13.0469V32.7656H12.6875V32.2344H13.4531V32.625H13.8672V33.1484H13.4766V32.9453H13.6562V32.8281H13.4219L11.9531 33.7109V33.9219H12.3125V33.8281H12.1875V33.5938H12.5391V34.125H11.7422V33.7734H11.3516V33.2422H11.7734V33.4453H11.5078V33.5625H11.7734L13.2578 32.6797Z" fill="#383739"/>
<path d="M13.2812 33.7109V33.9453H12.8672V33.7969H13.0234V33.625H12.7266V34.0938H13.4297V33.75H13.8203V33.2812H13.4922V33.4219H13.6641V33.6016H13.375L11.8906 32.6875V32.4531H12.3125V32.6016H12.1875V32.7422H12.4766V32.2734H11.7422V32.6641H11.3516V33.1328H11.7109V32.9766H11.5078V32.8047H11.7969L13.2812 33.7109ZM13.375 32.8281H13.6641V32.9766H13.4922V33.125H13.8125V32.6562H13.4375V32.2656H12.7344V32.7344H13.0234V32.5938H12.875V32.4375H13.2891V32.6719L11.8125 33.5625H11.5234V33.4141H11.7266V33.2656H11.375V33.7344H11.7578V34.0938H12.4922V33.6562H12.2031V33.8281H12.3203V33.9844H11.9062V33.7422L13.375 32.8281Z" fill="white"/>
<path d="M15.8594 33.3281V34.0938H15.5469V33.7969H15.1953V34.0938H14.8438V33.3594H15.1953V33.625H15.5234V33.3281H15.8594ZM14.6719 34.3594V35.1328H14.3438V34.8672H13.9922V35.1562H13.6719V34.3594H14V34.6562H14.3516V34.3594H14.6719ZM15.8516 33.0625V32.2969H15.5547V32.5625H15.2031V32.2656H14.8516V33.0625H15.2031V32.7656H15.5312V33.0625H15.8516ZM9.32812 33.3281V34.0938H9.65625V33.7969H10.0391V34.0938H10.3359V33.3594H10V33.625H9.64844V33.3281H9.32812ZM9.32812 33.0625V32.2969H9.65625V32.5625H10.0391V32.2656H10.3359V33.0625H10V32.7656H9.64844V33.0625H9.32812ZM14.6719 32.0312V31.2344H14.3438V31.5313H13.9922V31.2344H13.6719V32.0312H14V31.7344H14.3516V32.0312H14.6719ZM10.5391 34.3594V35.1328H10.8359V34.8672H11.2188V35.1562H11.5156V34.3594H11.2188V34.6562H10.8594V34.3594H10.5391ZM10.5391 32V31.2344H10.8359V31.5313H11.2188V31.2344H11.5156V32.0312H11.2188V31.7344H10.8594V32.0312L10.5391 32ZM14.875 31.4688V32.0625H15.9375L14.875 31.4688ZM10.3359 34.8906V34.3047H9.21094L10.3359 34.8906ZM10.3359 31.4688V32.0625H9.21094L10.3359 31.4688ZM14.875 34.8906V34.3047H15.9375L14.875 34.8906Z" fill="#383739"/>
<path d="M15.5547 33.7969V34.0938H15.8516V33.3594H15.5547V33.625H15.1719V33.3281H14.875V34.0703H15.1719V33.7734L15.5547 33.7969ZM14.3828 34.8359V35.1328H14.6406V34.3906H14.3438V34.6875H13.9609V34.3906H13.6953V35.0938H13.9922V34.8438L14.3828 34.8359ZM15.5547 32.5938V32.2969H15.8516L15.8516 33.0312H15.5547V32.7344H15.1719V33.0312H14.875V32.3281H15.1719V32.5938H15.5547ZM9.65625 33.7656V34.0703H9.35938V33.3594H9.65625V33.625H10.0391V33.3281H10.3047V34.0703H10V33.7734L9.65625 33.7656ZM9.65625 32.5938V32.2969H9.35938V33.0312H9.65625V32.7344H10.0391V33.0312H10.3047V32.3281H10V32.5938H9.65625ZM14.375 31.5547V31.2656H14.6406V32H14.3438V31.7031H13.9609V32H13.6953V31.2656H13.9922V31.5547H14.375ZM10.8359 34.8359V35.1328H10.5391V34.3906H10.8359V34.6875H11.2188V34.3906H11.5156V35.0938H11.2188V34.8438L10.8359 34.8359ZM10.8359 31.5547V31.2656H10.5391V32H10.8359V31.7031H11.2188V32H11.5156V31.2656H11.2188V31.5547H10.8359Z" fill="#D22630"/>
<path d="M14.9062 31.5312V32.0312H15.8594L14.9062 31.5312ZM9.32812 34.3359L10.3047 34.8672V34.3359H9.32812Z" fill="#FFC72C"/>
<path d="M10.3047 31.5312L9.32812 32.0312H10.3359L10.3047 31.5312ZM14.9141 34.3359V34.8672L15.8516 34.3359H14.9141Z" fill="white"/>
<path d="M17.125 35.3672C17.0625 35.6016 16.8906 35.7812 16.8281 36.0156C16.7656 35.7812 16.6719 35.5703 16.7344 35.3125C16.7656 35.1016 16.9453 34.9531 16.9688 34.7734C17.1484 34.9297 17.1797 35.1641 17.125 35.3672ZM17.1797 36.3359C17.028 36.54 16.8262 36.7015 16.5938 36.8047C16.6172 36.6016 16.5312 36.4922 16.4375 36.3359C16.3281 36.1641 16.2656 36.0156 16.3828 35.8047C16.4184 35.91 16.4684 36.0099 16.5312 36.1016C16.6484 36.2188 16.7109 36.3359 16.7109 36.5156C16.8211 36.4233 16.9025 36.3013 16.9453 36.1641C17.0502 35.9856 17.205 35.8417 17.3906 35.75C17.3281 35.9531 17.2969 36.1641 17.1797 36.3359ZM16.3203 36.9297L16.3828 37.2812L16.7344 36.9922C16.8906 36.8984 17.0625 36.7812 17.2031 36.6328C17.1995 36.749 17.1695 36.8629 17.1154 36.9657C17.0612 37.0686 16.9844 37.1578 16.8906 37.2266C16.6797 37.375 16.4141 37.4609 16.2344 37.6094C16.2344 37.3984 16.1797 37.2188 16.1172 37.0156C16.0902 36.9244 16.0868 36.8278 16.1073 36.7349C16.1278 36.642 16.1715 36.5558 16.2344 36.4844L16.3203 36.9297ZM15.8516 37.6953C15.8203 37.8516 15.7031 37.9922 15.6172 38.1406C15.8516 38.0781 16.0312 37.9297 16.2031 37.8438C16.4688 37.6953 16.7344 37.6406 16.9453 37.4609C16.8281 37.8516 16.5547 38.0547 16.1797 38.2031C15.9141 38.2812 15.7109 38.2266 15.3828 38.375C15.4172 38.1498 15.4857 37.9311 15.5859 37.7266L15.7969 37.2812C15.8516 37.3984 15.9141 37.5469 15.8516 37.6953ZM15.0547 38.2891C14.9805 38.4164 14.8792 38.5258 14.7578 38.6094C15.0547 38.6094 15.3203 38.4375 15.6484 38.4375C15.8203 38.4375 16 38.4922 16.1797 38.4375C15.9453 38.6094 15.7109 38.7344 15.4375 38.7891C15.0859 38.8203 14.7578 38.7344 14.3438 38.7891C14.5234 38.6406 14.6406 38.4922 14.7344 38.2891C14.9062 38.0547 15.0234 37.875 15.3203 37.8438C15.2031 37.9609 15.1406 38.1406 15.0234 38.2891H15.0547ZM13.9297 38.8203C14.4922 38.9062 15.0234 39.0234 15.5859 39.0234C14.9902 39.2576 14.3299 39.2687 13.7266 39.0547C13.4659 38.9383 13.1839 38.8772 12.8984 38.875C12.5156 38.9062 12.0703 39.0547 11.5703 39.5859L11.3672 39.4375C11.7141 39.1375 12.1274 38.9244 12.573 38.8157C13.0186 38.707 13.4836 38.7059 13.9297 38.8125V38.8203Z" fill="#FFC72C"/>
</g>
<defs>
<clipPath id="clip0_17544_69949">
<path d="M0 20C0 8.95431 8.95431 0 20 0C31.0457 0 40 8.95431 40 20C40 31.0457 31.0457 40 20 40C8.95431 40 0 31.0457 0 20Z" fill="white"/>
</clipPath>
</defs>
</svg>
