<svg width="40" height="40" viewBox="0 0 40 40" fill="none" xmlns="http://www.w3.org/2000/svg">
<g clip-path="url(#clip0_17544_70204)">
<path d="M-0.0015316 0H39.9923V39.9939H-0.0015316V0Z" fill="black"/>
<path fill-rule="evenodd" clip-rule="evenodd" d="M-10 26.6653H49.9908V33.3336H-10V26.6653Z" fill="#FFE700"/>
<path fill-rule="evenodd" clip-rule="evenodd" d="M-10 19.9969H49.9908V26.6653H-10V19.9969Z" fill="#000001"/>
<path fill-rule="evenodd" clip-rule="evenodd" d="M-10 13.3367H49.9908V19.9969H-10V13.3367Z" fill="#DE3908"/>
<path fill-rule="evenodd" clip-rule="evenodd" d="M-10 6.66833H49.9908V13.3367H-10V6.66833Z" fill="#FFE700"/>
<path fill-rule="evenodd" clip-rule="evenodd" d="M-10 0H49.9908V6.66833H-10L-10 0Z" fill="#000001"/>
<path fill-rule="evenodd" clip-rule="evenodd" d="M26.2283 19.9969C26.2283 21.6489 25.5721 23.2333 24.4039 24.4014C23.2358 25.5696 21.6514 26.2258 19.9994 26.2258C18.3474 26.2258 16.7631 25.5696 15.595 24.4014C14.4268 23.2333 13.7706 21.6489 13.7706 19.9969C13.7706 18.3449 14.4268 16.7606 15.595 15.5925C16.7631 14.4243 18.3474 13.7681 19.9994 13.7681C21.6514 13.7681 23.2358 14.4243 24.4039 15.5925C25.5721 16.7606 26.2283 18.3449 26.2283 19.9969Z" fill="#FFFDFF"/>
<path fill-rule="evenodd" clip-rule="evenodd" d="M19.9994 13.8043C18.3571 13.8043 16.7819 14.4568 15.6206 15.6181C14.4593 16.7794 13.8068 18.3546 13.8068 19.9969C13.8068 21.6393 14.4593 23.2144 15.6206 24.3758C16.7819 25.5371 18.3571 26.1895 19.9994 26.1895C21.6418 26.1895 23.2169 25.5371 24.3783 24.3758C25.5396 23.2144 26.192 21.6393 26.192 19.9969C26.192 18.3546 25.5396 16.7794 24.3783 15.6181C23.2169 14.4568 21.6418 13.8043 19.9994 13.8043ZM15.5693 15.5668C16.7442 14.3918 18.3378 13.7318 19.9994 13.7318C21.6611 13.7318 23.2546 14.3918 24.4296 15.5668C25.6045 16.7417 26.2646 18.3353 26.2646 19.9969C26.2646 21.6586 25.6045 23.2521 24.4296 24.4271C23.2546 25.602 21.6611 26.2621 19.9994 26.2621C18.3378 26.2621 16.7442 25.602 15.5693 24.4271C14.3943 23.2521 13.7343 21.6586 13.7343 19.9969C13.7343 18.3353 14.3943 16.7417 15.5693 15.5668Z" fill="black"/>
<path fill-rule="evenodd" clip-rule="evenodd" d="M18.8988 15.2235L18.4956 14.4817C18.6569 14.3204 18.9149 14.2075 19.3342 14.2075L19.2939 15.0138L18.8988 15.2235Z" fill="#DE3108"/>
<path fill-rule="evenodd" clip-rule="evenodd" d="M18.5407 14.4886L18.9135 15.1746L19.2587 14.9914L19.2961 14.2441C18.9228 14.2505 18.6896 14.3504 18.5407 14.4886ZM18.47 14.456C18.6399 14.2861 18.9083 14.1712 19.3342 14.1712H19.3724L19.3291 15.0362L18.8841 15.2724L18.4508 14.4752L18.47 14.456Z" fill="black"/>
<path fill-rule="evenodd" clip-rule="evenodd" d="M19.2939 15.03L19.3423 14.2075C19.3423 14.2075 20.1809 14.1591 20.6324 14.6994L20.1889 15.3444L19.2939 15.03Z" fill="#FFE700"/>
<path fill-rule="evenodd" clip-rule="evenodd" d="M19.3423 14.2075L19.3402 14.1713L19.308 14.1731L19.2561 15.0551L20.2031 15.3879L20.6779 14.6972L20.6602 14.6761C20.4271 14.3971 20.0954 14.2716 19.8254 14.2153C19.6901 14.1871 19.5691 14.1761 19.482 14.1721C19.4384 14.1701 19.4032 14.1699 19.3788 14.1702C19.3666 14.1703 19.357 14.1706 19.3505 14.1708C19.3473 14.1709 19.3447 14.1711 19.343 14.1711L19.3402 14.1713C19.3402 14.1713 19.3402 14.1713 19.3423 14.2075ZM19.3796 14.2428C19.3786 14.2428 19.3775 14.2428 19.3766 14.2428L19.3317 15.0048L20.1748 15.301L20.5867 14.7018C20.3693 14.4549 20.0657 14.3395 19.8106 14.2864C19.6799 14.2591 19.5629 14.2485 19.4787 14.2446C19.4366 14.2427 19.4028 14.2425 19.3796 14.2428Z" fill="black"/>
<path fill-rule="evenodd" clip-rule="evenodd" d="M20.2051 15.3364L20.6163 14.6913C20.8904 14.9816 21.0033 15.1912 21.0517 15.4976C21.0517 15.5138 20.3986 15.6589 20.3986 15.6589L20.2051 15.3364Z" fill="#DE3108"/>
<path fill-rule="evenodd" clip-rule="evenodd" d="M20.6107 14.6325L20.6427 14.6664C20.9204 14.9605 21.0377 15.1765 21.0875 15.492L21.088 15.4948V15.4976C21.088 15.5127 21.0791 15.5219 21.0769 15.5241C21.0736 15.5274 21.0703 15.5295 21.0686 15.5306C21.0649 15.5328 21.061 15.5345 21.0581 15.5357C21.0518 15.5383 21.0435 15.541 21.0343 15.5439C21.0157 15.5496 20.9895 15.5568 20.9588 15.5648C20.8971 15.5807 20.8151 15.6005 20.7334 15.6196C20.6517 15.6388 20.5699 15.6575 20.5086 15.6714C20.478 15.6783 20.4524 15.684 20.4346 15.688L20.4065 15.6943C20.4065 15.6943 20.4064 15.6943 20.3986 15.6589L20.4065 15.6943L20.3809 15.7L20.1624 15.3358L20.6107 14.6325ZM20.4162 15.6178L20.4187 15.6172C20.4365 15.6132 20.462 15.6075 20.4926 15.6006C20.5538 15.5867 20.6353 15.5681 20.7168 15.549C20.7984 15.5298 20.8797 15.5103 20.9405 15.4945C20.97 15.4869 20.9942 15.4802 21.0112 15.4751C20.9638 15.2045 20.8608 15.0102 20.6217 14.7503L20.2477 15.3369L20.4162 15.6178Z" fill="black"/>
<path fill-rule="evenodd" clip-rule="evenodd" d="M19.1084 25.8751C19.1084 25.8751 19.8825 24.9881 21.3823 25.1736C21.1565 24.8107 20.4228 24.851 20.4228 24.851C20.4228 24.851 20.197 23.1255 20.3744 23.0449C20.5518 22.9642 21.3017 23.0449 21.3017 23.0449C21.4065 23.0449 21.5758 22.7788 21.4387 22.6094C21.3017 22.4401 20.9066 21.787 21.0678 21.658C21.2291 21.529 22.116 21.7305 22.116 21.7305L19.6164 18.5214C19.6164 18.5214 19.3584 17.3119 19.8745 16.7394C20.4873 16.2233 20.4228 15.675 20.4066 15.6831C20.326 15.1187 19.4713 14.7155 18.8907 15.2315C18.5521 15.6428 18.7778 15.9572 18.7778 15.9572C18.7778 15.9572 17.8909 16.1991 17.8506 16.3604C17.8183 16.5055 18.8585 16.3281 18.8585 16.3281L18.7617 17.0377C18.7617 17.0377 16.7298 18.8923 18.2779 20.4807C18.3021 20.4807 18.3344 20.4082 18.3344 20.4082C18.3344 20.4082 18.8827 21.0855 19.4552 21.2306C19.9954 21.787 19.939 21.6983 19.939 21.6983C19.939 21.6983 20.0518 22.5691 19.947 22.7465C19.3797 22.6763 18.8062 22.6709 18.2376 22.7304C18.0522 22.7868 17.3426 22.7546 17.5119 23.9076L17.7699 23.319C17.7699 23.319 17.7538 23.7383 17.9231 23.8834C17.8909 23.448 18.0844 23.1497 18.0844 23.1497C18.0844 23.1497 18.1167 23.6335 18.2295 23.698C18.3344 23.7786 18.3344 22.9239 18.923 22.9884C19.5116 23.069 19.939 23.0449 19.939 23.0449C19.939 23.0449 20.1325 24.7059 20.068 24.8672C19.6487 24.7623 18.6327 24.9075 18.5682 25.1655C19.1649 25.1252 19.439 25.1978 19.439 25.1978C19.439 25.1978 18.9552 25.6251 19.1084 25.8751Z" fill="black"/>
<path fill-rule="evenodd" clip-rule="evenodd" d="M20.4372 15.6696C20.3912 15.3766 20.1486 15.1305 19.8471 15.0218C19.5412 14.9115 19.1696 14.9405 18.8693 15.2074C18.8681 15.2085 18.8669 15.2097 18.8658 15.211C18.6911 15.4232 18.6602 15.6132 18.6752 15.7521C18.6827 15.821 18.7014 15.8764 18.7184 15.9147C18.7221 15.9231 18.7257 15.9307 18.7291 15.9374C18.7047 15.9444 18.6704 15.9543 18.6293 15.9667C18.5453 15.992 18.4326 16.0274 18.3185 16.068C18.2047 16.1084 18.0885 16.1543 17.9978 16.2006C17.9525 16.2238 17.9125 16.2475 17.8821 16.2714C17.8529 16.2942 17.8271 16.3214 17.8193 16.3526C17.815 16.3719 17.8198 16.391 17.8323 16.4052C17.8434 16.4178 17.8588 16.4257 17.8738 16.4311C17.9039 16.4418 17.946 16.4469 17.9931 16.4488C18.0885 16.4527 18.2174 16.4439 18.3457 16.4308C18.4744 16.4176 18.6039 16.3999 18.7012 16.3855C18.7498 16.3783 18.7905 16.3719 18.819 16.3673C18.8195 16.3672 18.8201 16.3671 18.8206 16.3671L18.7313 17.022C18.7276 17.0254 18.7228 17.03 18.7169 17.0357C18.7022 17.0499 18.6809 17.0708 18.6544 17.098C18.6013 17.1523 18.5274 17.2315 18.4437 17.3316C18.2763 17.5316 18.0689 17.8154 17.9101 18.1497C17.7514 18.484 17.6405 18.8704 17.6682 19.2748C17.696 19.6801 17.8627 20.1009 18.2548 20.5032C18.2609 20.5095 18.2692 20.513 18.2779 20.513C18.289 20.513 18.2981 20.5089 18.3043 20.505C18.3107 20.5011 18.3161 20.4961 18.3204 20.4915C18.3279 20.4836 18.3347 20.474 18.3403 20.4652C18.3563 20.4837 18.3782 20.5086 18.4052 20.5381C18.4661 20.6044 18.5533 20.6944 18.6585 20.789C18.866 20.9754 19.1474 21.1831 19.4383 21.2596C19.704 21.533 19.8242 21.6493 19.8783 21.6972C19.8919 21.7093 19.9018 21.7175 19.9091 21.7229C19.909 21.7228 19.9093 21.723 19.9091 21.7229C19.9097 21.7277 19.9108 21.7336 19.9116 21.7399C19.9144 21.7639 19.9184 21.7985 19.9229 21.8405C19.9318 21.9247 19.9426 22.0386 19.9501 22.1579C19.9576 22.2774 19.9619 22.4016 19.9578 22.5066C19.9557 22.5592 19.9516 22.6062 19.945 22.6451C19.9403 22.6728 19.9345 22.695 19.928 22.7117C19.3657 22.6438 18.7976 22.6393 18.2343 22.6983C18.2322 22.6985 18.2302 22.6989 18.2282 22.6995C18.2076 22.7058 18.1791 22.711 18.1425 22.7178L18.1404 22.7182C18.1036 22.7249 18.0604 22.733 18.0142 22.7447C17.9219 22.7683 17.8162 22.8071 17.7216 22.8826C17.5297 23.0356 17.3944 23.3297 17.48 23.9123C17.4821 23.9265 17.4934 23.9377 17.5076 23.9396C17.5219 23.9415 17.5357 23.9338 17.5415 23.9206L17.7417 23.4637C17.7438 23.4909 17.7468 23.5205 17.7511 23.5513C17.7599 23.6141 17.7741 23.6826 17.7976 23.7453C17.8208 23.8077 17.8541 23.8667 17.9021 23.9079C17.912 23.9164 17.9261 23.9181 17.9377 23.9122C17.9493 23.9063 17.9563 23.8941 17.9553 23.8811C17.9396 23.6686 17.9789 23.4896 18.0222 23.3638C18.0358 23.3241 18.0498 23.2898 18.0626 23.2614C18.0674 23.3033 18.074 23.3535 18.0829 23.4051C18.0941 23.4703 18.109 23.5388 18.1288 23.5957C18.1386 23.6241 18.15 23.6505 18.1633 23.6725C18.1759 23.6935 18.1917 23.7129 18.2118 23.7249C18.224 23.7337 18.2401 23.7388 18.2576 23.7334C18.2735 23.7285 18.2844 23.7167 18.2915 23.7068C18.3058 23.687 18.318 23.6561 18.3298 23.6228C18.3365 23.6036 18.3435 23.5827 18.3509 23.5604C18.3705 23.5011 18.3933 23.4323 18.4243 23.3623C18.4668 23.2665 18.5227 23.1735 18.6016 23.1083C18.6793 23.044 18.7809 23.0054 18.9191 23.0204C19.2146 23.0609 19.4697 23.0751 19.651 23.0791C19.7417 23.0811 19.814 23.0806 19.8636 23.0796C19.8826 23.0792 19.8982 23.0788 19.9103 23.0784C19.9116 23.0895 19.9132 23.1035 19.9151 23.1202C19.9203 23.1659 19.9276 23.2313 19.9361 23.3104C19.9532 23.4685 19.9754 23.681 19.9955 23.8985C20.0157 24.1161 20.0338 24.3383 20.0428 24.516C20.0473 24.6049 20.0496 24.6823 20.0487 24.7421C20.0483 24.772 20.0471 24.7971 20.0451 24.8169C20.0446 24.8211 20.0442 24.825 20.0437 24.8285C19.8249 24.783 19.4806 24.7954 19.1794 24.8485C19.0208 24.8765 18.872 24.9161 18.7579 24.9657C18.7009 24.9905 18.6514 25.0183 18.6135 25.0493C18.5759 25.0802 18.5473 25.1161 18.5369 25.1577C18.5344 25.1677 18.5368 25.1783 18.5435 25.1862C18.5501 25.1941 18.5601 25.1984 18.5704 25.1977C18.8671 25.1776 19.0831 25.1857 19.2244 25.1986C19.2887 25.2045 19.3375 25.2114 19.3715 25.2171C19.3628 25.2256 19.3531 25.2353 19.3428 25.2459C19.2992 25.2905 19.2424 25.3529 19.1903 25.4235C19.1385 25.4939 19.0901 25.574 19.0647 25.6541C19.0393 25.7342 19.0359 25.8185 19.0809 25.8919C19.0863 25.9007 19.0955 25.9063 19.1057 25.9072C19.116 25.9081 19.126 25.904 19.1327 25.8963L19.1346 25.8941C19.136 25.8926 19.1382 25.8903 19.1411 25.8872C19.1468 25.881 19.1556 25.8719 19.1673 25.8602C19.1908 25.8369 19.2263 25.8036 19.2735 25.7641C19.368 25.6851 19.5097 25.5814 19.6979 25.4834C20.0739 25.2874 20.6358 25.1138 21.3783 25.2056C21.3907 25.2071 21.4028 25.2014 21.4095 25.1909C21.4162 25.1805 21.4162 25.1671 21.4097 25.1565C21.2888 24.9622 21.0358 24.8799 20.8232 24.8444C20.7154 24.8265 20.6151 24.8201 20.5418 24.8182C20.5051 24.8172 20.475 24.8174 20.4541 24.8178C20.4531 24.8178 20.452 24.8178 20.451 24.8178C20.4495 24.8061 20.4476 24.7909 20.4454 24.7728C20.4396 24.7255 20.4315 24.6579 20.4223 24.5765C20.4039 24.4137 20.3813 24.1959 20.3642 23.9757C20.3471 23.7552 20.3356 23.5333 20.3393 23.3618C20.3412 23.2759 20.3469 23.204 20.3572 23.1518C20.3623 23.1257 20.3684 23.1059 20.3748 23.0922C20.3816 23.0779 20.3869 23.0746 20.3877 23.0742C20.4058 23.066 20.4334 23.059 20.4698 23.0536C20.5058 23.0483 20.5484 23.0449 20.5954 23.0431C20.6893 23.0393 20.7986 23.0418 20.903 23.0468C21.0073 23.0519 21.1061 23.0594 21.1789 23.0657C21.2153 23.0688 21.2452 23.0716 21.2659 23.0736C21.2763 23.0747 21.2844 23.0755 21.2899 23.0761L21.2961 23.0767L21.2981 23.0769C21.2992 23.077 21.3005 23.0771 21.3017 23.0771C21.3403 23.0771 21.3783 23.0535 21.409 23.0238C21.4408 22.993 21.4698 22.9509 21.4905 22.9036C21.5314 22.8097 21.5428 22.6867 21.4638 22.5891C21.3971 22.5068 21.2653 22.3034 21.1705 22.1047C21.123 22.0053 21.0858 21.9091 21.0701 21.8309C21.0622 21.7918 21.0601 21.759 21.0638 21.7335C21.0674 21.7083 21.0761 21.6926 21.088 21.6832C21.1017 21.6722 21.1267 21.6624 21.1646 21.6558C21.2017 21.6494 21.2475 21.6468 21.2994 21.6471C21.4031 21.6479 21.5275 21.6608 21.6479 21.6778C21.7681 21.6948 21.8834 21.7159 21.9687 21.7327C22.0113 21.7411 22.0464 21.7484 22.0709 21.7537C22.0763 21.7548 22.0813 21.7559 22.0856 21.7569C22.091 21.758 22.0955 21.759 22.0991 21.7598L22.1064 21.7614L22.1083 21.7619C22.1216 21.7649 22.136 21.7594 22.1433 21.7478C22.1506 21.7363 22.1499 21.7215 22.1415 21.7107L19.6465 18.5075C19.6462 18.5058 19.6458 18.5037 19.6453 18.5014C19.6436 18.4926 19.6411 18.4795 19.6381 18.4627C19.6321 18.4289 19.6241 18.3799 19.6162 18.3192C19.6002 18.1979 19.5842 18.0302 19.5842 17.845C19.5842 17.4733 19.6486 17.0395 19.8969 16.7626C20.2072 16.5008 20.3473 16.2298 20.4074 16.0237C20.4374 15.9206 20.4474 15.8339 20.4487 15.7729C20.4494 15.7424 20.4479 15.7179 20.4455 15.7006C20.4443 15.6922 20.4428 15.6843 20.4407 15.6779C20.4401 15.676 20.439 15.6729 20.4372 15.6696ZM19.6164 18.5214C19.5849 18.5281 19.5849 18.5281 19.5849 18.5281L19.5841 18.5243C19.5836 18.522 19.5829 18.5184 19.582 18.5138C19.5802 18.5047 19.5776 18.4912 19.5746 18.4739C19.5685 18.4393 19.5603 18.3893 19.5522 18.3276C19.5359 18.2043 19.5197 18.0338 19.5197 17.845C19.5197 17.4697 19.584 17.0135 19.8505 16.7178C19.8515 16.7167 19.8525 16.7157 19.8537 16.7147C20.1551 16.4609 20.2887 16.2003 20.3454 16.0057C20.3738 15.9082 20.383 15.827 20.3842 15.7715C20.3848 15.7436 20.3834 15.7226 20.3816 15.7094C20.3811 15.7061 20.3807 15.7036 20.3803 15.7017C20.3774 15.6976 20.3754 15.6928 20.3747 15.6876C20.3365 15.4201 20.1133 15.1864 19.8252 15.0825C19.5391 14.9793 19.194 15.0064 18.914 15.254C18.7515 15.4522 18.7262 15.6243 18.7394 15.7451C18.746 15.8062 18.7626 15.8552 18.7774 15.8886C18.7848 15.9053 18.7917 15.9181 18.7966 15.9266C18.7991 15.9308 18.8011 15.934 18.8024 15.936C18.803 15.9369 18.8035 15.9377 18.8038 15.9381C18.8099 15.9466 18.8118 15.9581 18.8082 15.968C18.8047 15.978 18.7965 15.9856 18.7863 15.9883L18.7839 15.989L18.7765 15.9911C18.7701 15.9929 18.7606 15.9955 18.7485 15.999C18.7243 16.0059 18.6896 16.0159 18.6479 16.0284C18.5644 16.0535 18.4529 16.0887 18.3401 16.1287C18.2272 16.1689 18.1141 16.2137 18.0271 16.2581C17.9836 16.2803 17.9477 16.3019 17.9219 16.3222C17.8982 16.3408 17.887 16.3551 17.8831 16.3645C17.8853 16.366 17.8891 16.368 17.8955 16.3703C17.916 16.3776 17.9499 16.3825 17.9958 16.3844C18.0863 16.388 18.2114 16.3797 18.3391 16.3666C18.4665 16.3536 18.595 16.336 18.6917 16.3217C18.7401 16.3145 18.7805 16.3082 18.8087 16.3036C18.8229 16.3014 18.834 16.2995 18.8415 16.2983L18.8501 16.2968L18.853 16.2964C18.853 16.2964 18.8531 16.2964 18.8585 16.3281L18.853 16.2964C18.8631 16.2946 18.8735 16.2978 18.8809 16.305C18.8883 16.3121 18.8918 16.3223 18.8904 16.3325L18.7937 17.0421C18.7927 17.0496 18.789 17.0564 18.7835 17.0615L18.7811 17.059C18.7835 17.0615 18.7835 17.0615 18.7835 17.0615L18.7822 17.0627L18.778 17.0666C18.7743 17.0701 18.7688 17.0753 18.7617 17.0822C18.7474 17.0959 18.7265 17.1164 18.7005 17.143C18.6485 17.1963 18.5757 17.2744 18.4932 17.373C18.3279 17.5704 18.1241 17.8495 17.9684 18.1774C17.8127 18.5053 17.7059 18.8804 17.7326 19.2704C17.7588 19.6529 17.9135 20.0521 18.2812 20.4376C18.2833 20.4346 18.2855 20.4313 18.2877 20.4276C18.2926 20.4196 18.297 20.4114 18.3001 20.4051C18.3017 20.402 18.3029 20.3994 18.3037 20.3976L18.3046 20.3956C18.3046 20.3956 18.3046 20.3956 18.3046 20.3956C18.3092 20.3854 18.319 20.3777 18.3301 20.3762C18.3413 20.3747 18.3524 20.3791 18.3594 20.3879L18.3609 20.3897C18.3616 20.3906 18.3627 20.3918 18.364 20.3934C18.3645 20.394 18.3649 20.3946 18.3655 20.3952C18.3695 20.4001 18.3756 20.4073 18.3835 20.4166C18.3994 20.4351 18.4228 20.4619 18.4527 20.4945C18.5126 20.5597 18.5983 20.6481 18.7016 20.741C18.9093 20.9276 19.1847 21.1288 19.4631 21.1994C19.4689 21.2008 19.4741 21.2039 19.4783 21.2081C19.7485 21.4864 19.8687 21.6025 19.9211 21.649C19.9297 21.6566 19.9362 21.6621 19.9411 21.6661C19.9511 21.6668 19.9605 21.6721 19.9662 21.681L19.939 21.6983L19.9084 21.7023C19.9084 21.7023 19.9084 21.7022 19.9084 21.7023L19.939 21.6983C19.9662 21.681 19.9662 21.681 19.9662 21.681L19.9668 21.682C19.967 21.6824 19.9674 21.683 19.9677 21.6837C19.9684 21.6848 19.9696 21.6871 19.9706 21.69C19.9712 21.6914 19.9719 21.6937 19.9724 21.6965C19.9727 21.6985 19.9732 21.7024 19.9726 21.7071C19.9731 21.7113 19.9737 21.7164 19.9744 21.7224C19.9748 21.7254 19.9752 21.7287 19.9756 21.7322C19.9785 21.7565 19.9825 21.7914 19.987 21.8337C19.996 21.9184 20.0069 22.0333 20.0145 22.1539C20.0221 22.2743 20.0264 22.401 20.0222 22.5092C20.0201 22.5632 20.0158 22.6133 20.0086 22.656C20.0014 22.6979 19.9909 22.7356 19.9748 22.7629C19.9683 22.774 19.9558 22.7801 19.9431 22.7785C19.3791 22.7087 18.8091 22.7032 18.2439 22.7622C18.2201 22.7691 18.1897 22.7747 18.157 22.7807L18.1521 22.7816C18.1152 22.7884 18.0739 22.7961 18.0301 22.8073C17.9425 22.8296 17.8466 22.8654 17.7618 22.933C17.6066 23.0569 17.4791 23.2959 17.5294 23.7875L17.7404 23.3061C17.7466 23.2919 17.7621 23.2841 17.7772 23.2876C17.7923 23.291 17.8028 23.3048 17.8022 23.3202C17.8022 23.3202 17.8022 23.3202 17.8022 23.3202L17.8021 23.3212L17.802 23.3246C17.802 23.3275 17.8019 23.3319 17.8018 23.3376C17.8017 23.349 17.8018 23.3656 17.8023 23.3859C17.8034 23.4267 17.8066 23.4824 17.815 23.5423C17.8234 23.6025 17.8368 23.666 17.858 23.7227C17.8666 23.7458 17.8763 23.7673 17.8873 23.7868C17.8871 23.6071 17.9226 23.4549 17.9612 23.3428C17.9839 23.2767 18.0077 23.2244 18.0259 23.1885C18.035 23.1705 18.0427 23.1567 18.0483 23.1472C18.051 23.1424 18.0532 23.1388 18.0548 23.1362C18.0555 23.135 18.0562 23.134 18.0566 23.1333L18.0573 23.1323C18.0573 23.1323 18.0573 23.1321 18.0844 23.1497L18.0573 23.1323C18.0648 23.1206 18.0791 23.115 18.0925 23.1185C18.106 23.122 18.1157 23.1337 18.1166 23.1475L18.1167 23.1488L18.117 23.1527C18.1172 23.1562 18.1176 23.1614 18.1182 23.1679C18.1192 23.1811 18.1209 23.2 18.1233 23.223C18.128 23.2689 18.1355 23.3306 18.1464 23.3942C18.1574 23.458 18.1717 23.5225 18.1897 23.5745C18.1987 23.6005 18.2084 23.6225 18.2185 23.6393C18.2268 23.6529 18.2344 23.6616 18.2408 23.6667C18.2485 23.6549 18.2576 23.6334 18.2689 23.6013C18.275 23.5841 18.2816 23.5644 18.2887 23.5429C18.3085 23.483 18.333 23.4093 18.3654 23.3362C18.4096 23.2364 18.4705 23.1329 18.5605 23.0586C18.6516 22.9833 18.7706 22.9393 18.9265 22.9564C19.2194 22.9965 19.473 23.0106 19.6524 23.0146C19.7421 23.0166 19.8135 23.0161 19.8623 23.0151C19.8867 23.0146 19.9055 23.014 19.9182 23.0135C19.9245 23.0133 19.9293 23.013 19.9325 23.0129L19.936 23.0127L19.9371 23.0127C19.9541 23.0117 19.969 23.0242 19.971 23.0411L19.939 23.0449C19.971 23.0411 19.971 23.0411 19.971 23.0411L19.9732 23.0599C19.9746 23.0721 19.9766 23.09 19.9792 23.1129C19.9844 23.1587 19.9917 23.2243 20.0003 23.3034C20.0174 23.4618 20.0396 23.6746 20.0598 23.8926C20.0799 24.1104 20.0981 24.3337 20.1072 24.5128C20.1118 24.6022 20.1141 24.6811 20.1132 24.743C20.1128 24.7739 20.1115 24.8011 20.1092 24.8234C20.1071 24.8449 20.1037 24.8646 20.0979 24.8791C20.0919 24.8941 20.0758 24.9024 20.0602 24.8984C19.8569 24.8476 19.5033 24.8569 19.1906 24.912C19.0348 24.9395 18.8913 24.978 18.7837 25.0249C18.7298 25.0483 18.6861 25.0733 18.6544 25.0993C18.6417 25.1096 18.6314 25.1198 18.6232 25.1297C18.894 25.1141 19.0948 25.122 19.2303 25.1344C19.3028 25.141 19.3566 25.149 19.3925 25.1553C19.4104 25.1584 19.4239 25.1612 19.433 25.1632C19.4376 25.1642 19.441 25.165 19.4434 25.1656L19.4462 25.1663L19.4472 25.1665C19.4472 25.1665 19.4473 25.1666 19.4449 25.1757L19.4472 25.1665C19.4587 25.1696 19.4677 25.1787 19.4704 25.1903C19.4732 25.2019 19.4693 25.2141 19.4604 25.2219L19.4592 25.223C19.4583 25.2238 19.457 25.2249 19.4554 25.2265C19.452 25.2295 19.447 25.2341 19.4407 25.2401C19.428 25.252 19.41 25.2694 19.3889 25.291C19.3466 25.3343 19.292 25.3944 19.2423 25.4618C19.1923 25.5296 19.1485 25.6031 19.1262 25.6735C19.1094 25.7265 19.1055 25.7753 19.1182 25.8182C19.1194 25.8169 19.1206 25.8157 19.1219 25.8144C19.1466 25.7899 19.1834 25.7554 19.2321 25.7146C19.3296 25.6331 19.4752 25.5267 19.668 25.4262C20.0412 25.2317 20.5911 25.0597 21.3116 25.1331C21.1952 25.0036 20.9977 24.9389 20.8126 24.908C20.7086 24.8907 20.6114 24.8845 20.5401 24.8826C20.5045 24.8817 20.4754 24.8819 20.4553 24.8823C20.4453 24.8825 20.4375 24.8827 20.4323 24.8829C20.4297 24.883 20.4277 24.8831 20.4264 24.8831L20.4249 24.8832L20.4228 24.851L20.3908 24.8552C20.393 24.8719 20.4081 24.8841 20.4249 24.8832M20.4228 24.851C20.3908 24.8552 20.3908 24.8552 20.3908 24.8552L20.3901 24.8502L20.3883 24.8357C20.3867 24.823 20.3843 24.8044 20.3814 24.7807C20.3756 24.7332 20.3674 24.6654 20.3582 24.5838C20.3398 24.4205 20.3171 24.2019 20.2999 23.9807C20.2827 23.7597 20.271 23.5351 20.2749 23.3604C20.2768 23.2732 20.2825 23.197 20.2939 23.1394C20.2995 23.1107 20.3068 23.0851 20.3165 23.0646C20.3259 23.0448 20.3397 23.0252 20.361 23.0155C20.3873 23.0036 20.4219 22.9955 20.4605 22.9898C20.4995 22.9841 20.5445 22.9805 20.5928 22.9786C20.6894 22.9748 20.8008 22.9773 20.9061 22.9824C21.0114 22.9875 21.1112 22.9951 21.1845 23.0014C21.2212 23.0045 21.2513 23.0074 21.2722 23.0095C21.2827 23.0105 21.2909 23.0113 21.2965 23.0119L21.3031 23.0126C21.3169 23.0119 21.3388 23.0021 21.3641 22.9775C21.3893 22.9531 21.4137 22.9181 21.4313 22.8777C21.467 22.7962 21.4718 22.7015 21.4137 22.6297C21.3433 22.5428 21.2089 22.335 21.1123 22.1325C21.064 22.0313 21.0241 21.9295 21.0068 21.8436C20.9982 21.8007 20.9948 21.76 20.9999 21.7244C21.005 21.6885 21.0192 21.6556 21.0477 21.6328C21.0742 21.6115 21.1122 21.5994 21.1537 21.5923C21.196 21.585 21.2459 21.5822 21.2999 21.5826C21.4078 21.5834 21.5354 21.5967 21.6569 21.6139C21.7786 21.6312 21.8952 21.6525 21.9812 21.6694C22.0013 21.6734 22.0197 21.6771 22.0362 21.6805L19.591 18.5412C19.588 18.5373 19.5859 18.5328 19.5849 18.5281L19.6164 18.5214M20.3794 15.698C20.3794 15.698 20.3794 15.6979 20.3794 15.698Z" fill="black"/>
<path fill-rule="evenodd" clip-rule="evenodd" d="M19.3503 16.7716C19.3503 16.7716 17.8667 18.4004 18.5037 19.6502C18.544 19.4728 18.5279 19.368 18.544 19.3761C18.5118 19.3519 18.7295 19.5212 18.7053 19.489C18.7214 19.4003 18.6488 19.2067 18.6488 19.2067L18.8424 19.2551L18.7295 19.0374L19.0117 19.0777C19.0117 19.0777 18.9149 18.8036 18.9472 18.8036C19.0252 18.8077 19.1032 18.8131 19.181 18.8197C18.7617 18.0698 19.1568 17.4489 19.3423 16.7797L19.3503 16.7716Z" fill="#9CA69C"/>
<path fill-rule="evenodd" clip-rule="evenodd" d="M19.3724 16.7917L19.3742 16.7933C19.386 16.7804 19.3853 16.7604 19.3726 16.7483C19.3599 16.7362 19.3399 16.7364 19.3275 16.7488L19.3195 16.7569C19.3175 16.7589 19.3158 16.7611 19.3144 16.7635C19.3129 16.7652 19.3113 16.767 19.3096 16.769C19.2987 16.7814 19.2829 16.7997 19.2631 16.8234C19.2235 16.8707 19.1676 16.9397 19.1027 17.0263C18.9728 17.1995 18.8062 17.4437 18.6595 17.7274C18.3671 18.2929 18.149 19.0253 18.475 19.6649C18.4811 19.677 18.4942 19.6839 18.5077 19.6822C18.5212 19.6805 18.5321 19.6706 18.5352 19.6574C18.5558 19.5664 18.562 19.4939 18.5651 19.4457C18.5654 19.4415 18.5656 19.4376 18.5658 19.4339C18.5772 19.4425 18.5897 19.452 18.6024 19.4614C18.6261 19.4791 18.6506 19.4969 18.6679 19.5084C18.6757 19.5136 18.6846 19.5192 18.6915 19.5221C18.6932 19.5228 18.6972 19.5244 18.7022 19.525C18.7046 19.5253 18.7098 19.5257 18.716 19.5239C18.7231 19.5218 18.7315 19.5165 18.7362 19.5067C18.7403 19.4981 18.7396 19.4902 18.7389 19.4864C18.7388 19.4858 18.7386 19.4852 18.7385 19.4847C18.7415 19.4595 18.7393 19.4306 18.7352 19.4027C18.7304 19.3704 18.7225 19.3366 18.7142 19.3061C18.7089 19.2866 18.7034 19.2683 18.6984 19.2524L18.8345 19.2864C18.8468 19.2895 18.8598 19.2851 18.8677 19.2751C18.8755 19.2652 18.8768 19.2515 18.871 19.2403L18.787 19.0782L19.0071 19.1097C19.0183 19.1112 19.0295 19.1069 19.0366 19.0982C19.0438 19.0895 19.0459 19.0776 19.0421 19.067L19.0411 19.064L19.0381 19.0554C19.0355 19.048 19.0319 19.0374 19.0277 19.0247C19.0192 18.9992 19.0082 18.9653 18.9983 18.9315C18.9883 18.8975 18.9796 18.8647 18.9754 18.8408C18.9752 18.8396 18.975 18.8385 18.9748 18.8374C19.0427 18.8413 19.1105 18.8461 19.1783 18.8518C19.1902 18.8528 19.2017 18.8472 19.2081 18.8372C19.2146 18.8271 19.215 18.8144 19.2092 18.804C19.0042 18.4374 18.9981 18.1031 19.0664 17.7761C19.1008 17.6119 19.1538 17.4498 19.2104 17.2858C19.2197 17.2588 19.2291 17.2318 19.2385 17.2046C19.2852 17.0704 19.3324 16.9347 19.371 16.7969L19.3732 16.7944L19.3742 16.7933L19.3724 16.7917C19.3724 16.7917 19.3724 16.7917 19.3724 16.7917ZM19.2663 16.921C19.2341 16.9608 19.1961 17.0092 19.1543 17.065C19.0259 17.2363 18.8614 17.4774 18.7168 17.7571C18.4408 18.2909 18.2417 18.9563 18.4903 19.5451C18.4963 19.5036 18.499 19.4688 18.5007 19.4415C18.5011 19.4354 18.5015 19.4294 18.5018 19.4237C18.5027 19.4088 18.5035 19.3959 18.5046 19.3867C18.5052 19.3812 18.5065 19.372 18.5103 19.3642C18.511 19.3627 18.5122 19.3604 18.514 19.358C18.5148 19.3559 18.5157 19.354 18.5167 19.3522C18.5258 19.3451 18.5418 19.3415 18.5467 19.342C18.5489 19.3425 18.5523 19.3436 18.5534 19.344C18.5541 19.3443 18.5553 19.3449 18.5558 19.3452C18.5573 19.346 18.5585 19.3468 18.5586 19.3468L18.5595 19.3475L18.5607 19.3483L18.5634 19.3503C18.5646 19.3512 18.5658 19.3522 18.5669 19.3533C18.5698 19.3556 18.5738 19.3587 18.5787 19.3625C18.5941 19.3744 18.6174 19.3922 18.6409 19.4097C18.6523 19.4182 18.6636 19.4265 18.674 19.434C18.6734 19.4271 18.6725 19.4198 18.6714 19.4122C18.6671 19.3832 18.6599 19.3521 18.652 19.323C18.6441 19.2941 18.6358 19.2677 18.6293 19.2486C18.6261 19.2391 18.6234 19.2314 18.6216 19.2261C18.6206 19.2234 18.6199 19.2214 18.6194 19.22L18.6188 19.2185M19.2663 16.921C19.2384 17.0085 19.2081 17.0956 19.1778 17.1829C19.1683 17.2102 19.1588 17.2375 19.1494 17.2648C19.0928 17.429 19.0385 17.5944 19.0033 17.7629C18.9358 18.0855 18.9381 18.4198 19.1246 18.7828C19.0661 18.7783 19.0075 18.7745 18.9489 18.7714C18.9483 18.7713 18.9478 18.7713 18.9472 18.7713C18.9306 18.7713 18.9194 18.7816 18.9141 18.7916C18.9098 18.7997 18.9088 18.8081 18.9085 18.8135C18.9078 18.8249 18.9095 18.8387 18.9119 18.852C18.9168 18.8796 18.9263 18.9153 18.9364 18.9497C18.9458 18.9816 18.956 19.0134 18.9642 19.0384L18.734 19.0055C18.7221 19.0038 18.7102 19.0089 18.7032 19.0187C18.6962 19.0286 18.6953 19.0415 18.7008 19.0523L18.7808 19.2065L18.6567 19.1754C18.645 19.1725 18.6328 19.1763 18.6248 19.1853C18.6168 19.1942 18.6146 19.2073 18.6188 19.2185" fill="#9CA69C"/>
<path fill-rule="evenodd" clip-rule="evenodd" d="M19.8583 15.3847C19.8583 15.3847 19.939 15.9492 19.6326 16.1104C19.5842 16.1427 19.3907 16.2072 19.4149 16.3201C19.4552 16.4733 19.5358 16.441 19.6567 16.4168C19.9793 16.3604 20.3502 15.675 19.8583 15.3847Z" fill="#9CA69C"/>
<path fill-rule="evenodd" clip-rule="evenodd" d="M19.8117 15.3151L19.8768 15.3535C20.0075 15.4306 20.0827 15.5355 20.1147 15.6508C20.1464 15.7654 20.1348 15.8876 20.0974 16C20.0599 16.1124 19.9959 16.217 19.9199 16.2975C19.8444 16.3774 19.7543 16.4365 19.6635 16.4525C19.6542 16.4544 19.6447 16.4564 19.6353 16.4584C19.616 16.4624 19.5967 16.4665 19.5793 16.4693C19.5528 16.4735 19.525 16.4759 19.4984 16.4706C19.4705 16.465 19.4454 16.4512 19.4248 16.4265C19.4049 16.4027 19.3906 16.3703 19.3798 16.3293L19.3794 16.3277C19.3708 16.2876 19.3821 16.2524 19.402 16.2236C19.4213 16.1957 19.449 16.1731 19.4764 16.1548C19.504 16.1364 19.5337 16.121 19.5584 16.1085C19.5636 16.1059 19.5685 16.1035 19.5731 16.1012C19.5916 16.0919 19.6047 16.0854 19.6124 16.0802L19.614 16.0792L19.6157 16.0783C19.7517 16.0067 19.8064 15.8423 19.8243 15.6831C19.8331 15.6049 19.8326 15.5314 19.8299 15.4773C19.8286 15.4503 19.8267 15.4282 19.8251 15.413C19.8243 15.4054 19.8236 15.3995 19.8232 15.3956C19.8229 15.3936 19.8227 15.3921 19.8226 15.3912L19.8224 15.3901L19.8117 15.3151ZM19.9015 15.4582C19.9018 15.4632 19.9021 15.4683 19.9024 15.4736C19.9052 15.5304 19.9058 15.608 19.8964 15.6912C19.8781 15.8539 19.8202 16.0517 19.651 16.1417C19.639 16.1494 19.6212 16.1583 19.6032 16.1673C19.5991 16.1693 19.595 16.1713 19.591 16.1733C19.5667 16.1856 19.5404 16.1994 19.5166 16.2152C19.4926 16.2312 19.4735 16.2479 19.4617 16.2649C19.4508 16.2807 19.4469 16.2956 19.4502 16.3117C19.4595 16.3468 19.4702 16.3676 19.4805 16.38C19.4901 16.3915 19.5003 16.3969 19.5127 16.3994C19.5264 16.4022 19.544 16.4015 19.5679 16.3976C19.5836 16.3951 19.5997 16.3917 19.6177 16.3879C19.6277 16.3858 19.6382 16.3835 19.6496 16.3813C19.7199 16.369 19.7978 16.3211 19.8671 16.2477C19.936 16.1747 19.9944 16.0793 20.0285 15.977C20.0626 15.8747 20.0717 15.7676 20.0447 15.6702C20.0232 15.5925 19.9783 15.5193 19.9015 15.4582Z" fill="#9CA69C"/>
<path fill-rule="evenodd" clip-rule="evenodd" d="M19.31 15.8605C19.31 15.8926 19.2973 15.9233 19.2746 15.946C19.2519 15.9687 19.2212 15.9814 19.1891 15.9814C19.157 15.9814 19.1262 15.9687 19.1036 15.946C19.0809 15.9233 19.0681 15.8926 19.0681 15.8605C19.0681 15.8284 19.0809 15.7976 19.1036 15.775C19.1262 15.7523 19.157 15.7395 19.1891 15.7395C19.2212 15.7395 19.2519 15.7523 19.2746 15.775C19.2973 15.7976 19.31 15.8284 19.31 15.8605Z" fill="white"/>
<path fill-rule="evenodd" clip-rule="evenodd" d="M18.8343 16.3281C18.7537 16.3927 18.3505 16.82 18.7537 16.9732C19.1729 16.8603 19.052 16.7878 19.1488 16.691C19.1488 16.5055 18.9391 16.4491 18.8343 16.3281Z" fill="#DE3108"/>
<path fill-rule="evenodd" clip-rule="evenodd" d="M18.8389 16.278L18.8617 16.3044C18.8852 16.3314 18.9152 16.3557 18.9491 16.3805C18.9597 16.3883 18.9709 16.3962 18.9823 16.4044C19.0061 16.4213 19.0309 16.439 19.0535 16.457C19.1219 16.5118 19.185 16.5816 19.185 16.691V16.706L19.1744 16.7167C19.1552 16.7359 19.1469 16.7534 19.1389 16.7734C19.1378 16.7761 19.1368 16.7788 19.1357 16.7817C19.1284 16.8007 19.1191 16.8246 19.1009 16.8482C19.0585 16.9031 18.9727 16.9518 18.7631 17.0082L18.7518 17.0113L18.7408 17.0071C18.6325 16.966 18.5715 16.9034 18.5499 16.8267C18.5289 16.7522 18.5477 16.673 18.5795 16.6025C18.643 16.4618 18.7682 16.3345 18.8116 16.2998L18.8389 16.278ZM18.7558 16.935C18.9562 16.8801 19.0178 16.8371 19.0434 16.8039C19.0548 16.7891 19.0602 16.7755 19.0676 16.7565C19.0688 16.7533 19.0701 16.7501 19.0715 16.7466C19.0798 16.7257 19.0905 16.7021 19.112 16.6772C19.1073 16.6087 19.0669 16.5607 19.0082 16.5137C18.9871 16.4968 18.9653 16.4813 18.9425 16.4651C18.9307 16.4567 18.9186 16.4481 18.9062 16.4391C18.881 16.4206 18.8554 16.4007 18.8323 16.3785C18.7824 16.4262 18.6935 16.5262 18.6456 16.6323C18.6169 16.6959 18.6055 16.7563 18.6198 16.807C18.6329 16.8536 18.6701 16.9 18.7558 16.935Z" fill="black"/>
<path fill-rule="evenodd" clip-rule="evenodd" d="M19.7293 20.3517C19.7051 20.4485 19.6164 20.7871 19.7454 21.0452C20.1002 20.9 20.2615 20.9403 20.3824 21.021C20.0922 20.7791 19.9793 20.6904 19.7293 20.3517Z" fill="#9CA69C"/>
<path fill-rule="evenodd" clip-rule="evenodd" d="M19.7231 20.3201C19.7353 20.3177 19.7479 20.3225 19.7553 20.3326C19.9932 20.6549 20.1046 20.7476 20.3697 20.9684C20.3806 20.9775 20.3917 20.9867 20.4031 20.9962C20.4163 21.0072 20.4185 21.0265 20.4083 21.0403C20.398 21.054 20.3788 21.0573 20.3646 21.0478C20.3082 21.0103 20.2436 20.9825 20.151 20.9807C20.0573 20.9788 19.9328 21.0034 19.7577 21.075C19.742 21.0814 19.7241 21.0747 19.7166 21.0596C19.6484 20.9232 19.6385 20.7674 19.6478 20.6357C19.6567 20.5087 19.6837 20.401 19.6965 20.3499C19.6971 20.3478 19.6976 20.3458 19.698 20.3439C19.7011 20.3318 19.7108 20.3225 19.7231 20.3201ZM19.7446 20.4261C19.7322 20.4812 19.718 20.5564 19.7121 20.6402C19.7039 20.7573 19.7121 20.8884 19.7618 21.0039C19.9271 20.9389 20.0521 20.9141 20.1523 20.9162C20.1735 20.9166 20.1935 20.9182 20.2124 20.9209C20.0352 20.7708 19.9238 20.6633 19.7446 20.4261Z" fill="#9CA69C"/>
<path fill-rule="evenodd" clip-rule="evenodd" d="M20.3421 21.9644L20.3583 22.7546C20.3583 22.7546 20.6405 22.811 20.7614 22.7546C20.8904 22.7062 20.7614 22.2063 20.3421 21.9644Z" fill="white"/>
<path fill-rule="evenodd" clip-rule="evenodd" d="M20.3257 21.9366C20.3357 21.9307 20.3482 21.9306 20.3582 21.9364C20.5748 22.0614 20.7162 22.2527 20.7871 22.4194C20.8224 22.5026 20.841 22.5815 20.8415 22.6444C20.8418 22.6758 20.8376 22.7051 20.8273 22.7293C20.817 22.7536 20.7997 22.7742 20.774 22.7843C20.7385 22.8006 20.6939 22.8079 20.6494 22.8106C20.6038 22.8134 20.5555 22.8115 20.5118 22.8079C20.468 22.8043 20.4282 22.7989 20.3993 22.7944C20.3848 22.7921 20.3731 22.7901 20.3649 22.7886C20.3608 22.7879 20.3576 22.7873 20.3554 22.7869L20.3529 22.7864C20.3529 22.7864 20.3519 22.7862 20.3583 22.7546L20.3529 22.7864C20.338 22.7834 20.3263 22.7704 20.326 22.7552L20.3099 21.965C20.3096 21.9534 20.3157 21.9425 20.3257 21.9366ZM20.39 22.7275C20.3956 22.7285 20.402 22.7295 20.4092 22.7306C20.437 22.735 20.4753 22.7402 20.5171 22.7436C20.5591 22.7471 20.604 22.7487 20.6454 22.7462C20.6874 22.7436 20.723 22.7369 20.7478 22.7254C20.7485 22.725 20.7493 22.7247 20.7501 22.7244C20.7559 22.7222 20.7625 22.7169 20.768 22.704C20.7736 22.6907 20.7773 22.6711 20.777 22.645C20.7766 22.593 20.7609 22.5227 20.7277 22.4447C20.667 22.3019 20.5505 22.1393 20.3756 22.023L20.39 22.7275Z" fill="white"/>
<path fill-rule="evenodd" clip-rule="evenodd" d="M22.3499 22.0611C22.3499 22.0611 21.8338 20.8275 20.5356 20.513C19.2375 20.1985 19.3987 18.8197 19.5035 18.731C19.56 18.6101 19.6003 18.4246 19.9793 18.602C20.3583 18.7794 22.0838 19.6502 22.3338 19.6905C22.5837 19.7308 22.366 22.0934 22.3499 22.0611Z" fill="#9CA69C"/>
<path fill-rule="evenodd" clip-rule="evenodd" d="M19.5515 18.7126C19.5467 18.7235 19.5419 18.7347 19.5364 18.7463L19.5331 18.7536L19.5271 18.7586M19.5515 18.7126C19.5605 18.692 19.569 18.6724 19.5801 18.6525L19.5515 18.7126ZM19.5801 18.6525C19.5961 18.6238 19.6145 18.6007 19.6393 18.5856L19.5801 18.6525ZM19.6393 18.5856C19.6874 18.5563 19.7768 18.5473 19.9639 18.6349L19.6393 18.5856ZM19.6016 18.5236C19.6826 18.4743 19.8028 18.4793 19.9947 18.5691C20.0856 18.6117 20.2546 18.6944 20.4619 18.796C20.6865 18.9059 20.9561 19.0379 21.2206 19.165C21.4755 19.2874 21.7261 19.4054 21.9284 19.4952C22.0296 19.5402 22.1184 19.5779 22.1895 19.6057C22.2618 19.6338 22.3126 19.6504 22.3395 19.6547C22.3701 19.6596 22.3915 19.6815 22.4061 19.705C22.421 19.7289 22.4326 19.7603 22.442 19.7961C22.4608 19.8679 22.4729 19.9662 22.4802 20.0802C22.4948 20.3088 22.4905 20.6084 22.4779 20.9046C22.4652 21.201 22.4443 21.4951 22.4255 21.7131C22.4161 21.8221 22.4072 21.9123 22.4001 21.9743C22.3966 22.0052 22.3935 22.0296 22.391 22.0459C22.3897 22.0537 22.3885 22.0608 22.3872 22.0661C22.3867 22.0678 22.3854 22.0731 22.3828 22.0781C22.3819 22.0796 22.3803 22.0825 22.3776 22.0855C22.3752 22.0881 22.3693 22.0941 22.3592 22.0966C22.347 22.0997 22.3356 22.0961 22.328 22.0902C22.3217 22.0853 22.3186 22.0797 22.3174 22.0774L22.3169 22.0763L22.3164 22.0752L22.3151 22.072C22.3141 22.0698 22.3127 22.0665 22.3107 22.0621C22.3067 22.0533 22.3007 22.0402 22.2925 22.0233C22.2762 21.9896 22.2513 21.9409 22.2174 21.8814C22.1496 21.7623 22.0458 21.6002 21.9018 21.4283C21.6137 21.0844 21.1664 20.7031 20.5271 20.5483C19.863 20.3874 19.5702 19.9524 19.4585 19.547C19.4028 19.345 19.392 19.1504 19.4018 19.0003C19.4067 18.9252 19.4168 18.8606 19.4294 18.8112C19.4357 18.7865 19.4427 18.765 19.4504 18.7476C19.4563 18.7342 19.4637 18.7205 19.4733 18.7099C19.4764 18.7031 19.4796 18.6957 19.483 18.688C19.4928 18.6655 19.504 18.64 19.5167 18.6172C19.5359 18.5827 19.5619 18.5478 19.6016 18.5236ZM22.3311 21.9384C22.3375 21.8792 22.3451 21.8001 22.3532 21.7069C22.3719 21.4897 22.3928 21.1967 22.4054 20.9015C22.4179 20.606 22.4222 20.3095 22.4078 20.0848C22.4006 19.9722 22.3888 19.8795 22.3718 19.8145C22.3632 19.7818 22.3539 19.7584 22.3445 19.7433C22.3349 19.7278 22.3287 19.7265 22.328 19.7264C22.2924 19.7206 22.2346 19.7011 22.1632 19.6733C22.0906 19.645 22.0006 19.6067 21.899 19.5615C21.6956 19.4712 21.4443 19.3529 21.1892 19.2304C20.9231 19.1026 20.6534 18.9705 20.4292 18.8607C20.2227 18.7596 20.0548 18.6774 19.9639 18.6349M22.3311 21.9384C22.3171 21.9115 22.3003 21.8803 22.2805 21.8455C22.211 21.7234 22.1047 21.5575 21.9574 21.3817C21.6629 21.0301 21.2031 20.6373 20.5442 20.4777C19.9101 20.3241 19.6345 19.9124 19.5285 19.5277C19.4752 19.3346 19.4649 19.1482 19.4742 19.005C19.4789 18.9334 19.4885 18.8733 19.4997 18.8291C19.5054 18.8069 19.5112 18.7895 19.5168 18.7768C19.5196 18.7705 19.5221 18.7658 19.5242 18.7626C19.526 18.7597 19.5271 18.7586 19.5271 18.7586C19.5271 18.7586 19.5271 18.7586 19.5271 18.7586" fill="black"/>
<path fill-rule="evenodd" clip-rule="evenodd" d="M21.1081 20.513C21.0839 20.5211 22.8498 21.5532 22.3176 22.4401C22.8256 22.1095 22.6563 21.5209 22.6563 21.5209C22.6563 21.5209 23.0675 22.5933 22.0677 23.1174C22.1806 23.2142 22.2451 23.19 22.2451 23.19L22.0838 23.3593C22.0838 23.3593 22.0032 23.4883 22.6724 23.1658C22.487 23.3109 22.4708 23.4158 22.4708 23.4158C22.4708 23.4158 22.5273 23.5609 22.9627 23.1739C22.7893 23.3445 22.6425 23.5402 22.5273 23.7544C23.4949 23.6657 25.5752 20.5533 21.8742 19.6341L22.0354 19.8115L21.1081 20.513Z" fill="#DE3108"/>
<path fill-rule="evenodd" clip-rule="evenodd" d="M21.8465 19.6176C21.8537 19.6054 21.8681 19.5994 21.8819 19.6028C22.8116 19.8337 23.3834 20.2036 23.6996 20.6341C24.0163 21.0652 24.0737 21.5529 23.9831 22.0119C23.8926 22.4704 23.6546 22.9014 23.3784 23.2235C23.2402 23.3846 23.0919 23.5191 22.9468 23.6164C22.8021 23.7134 22.6586 23.7748 22.5302 23.7865C22.5184 23.7876 22.5069 23.7821 22.5004 23.7722C22.4938 23.7623 22.4932 23.7496 22.4989 23.7391C22.562 23.6218 22.6344 23.5099 22.7155 23.4046C22.648 23.4456 22.5974 23.465 22.5591 23.4717C22.5188 23.4788 22.4896 23.4724 22.4694 23.4597C22.4595 23.4536 22.4527 23.4465 22.4482 23.4405C22.446 23.4375 22.4444 23.4348 22.4432 23.4326C22.4426 23.4314 22.4421 23.4304 22.4417 23.4296L22.4412 23.4284C22.4411 23.4283 22.4408 23.4275 22.4708 23.4158C22.439 23.4109 22.439 23.4108 22.439 23.4108L22.4391 23.4098L22.4395 23.4081C22.4397 23.4068 22.4401 23.4051 22.4406 23.403C22.4417 23.3988 22.4434 23.3931 22.4459 23.3861C22.4511 23.3719 22.4599 23.3523 22.4746 23.3283C22.484 23.3129 22.4959 23.2958 22.5109 23.2771C22.4293 23.3139 22.3632 23.3416 22.3097 23.3622C22.2225 23.3957 22.1669 23.411 22.1312 23.4155C22.1135 23.4178 22.0981 23.4177 22.0852 23.4143C22.0714 23.4106 22.0581 23.402 22.0518 23.3867C22.0463 23.3732 22.0489 23.3608 22.0508 23.3547C22.0519 23.3513 22.0531 23.3484 22.0541 23.3464C22.0546 23.3454 22.0551 23.3445 22.0555 23.3438L22.056 23.3429C22.0561 23.3429 22.0564 23.3422 22.0838 23.3593L22.056 23.3429C22.0572 23.3411 22.0589 23.3387 22.0604 23.3371L22.1746 23.2172C22.1403 23.2071 22.0973 23.1853 22.0467 23.1419C22.0386 23.135 22.0344 23.1244 22.0356 23.1138C22.0368 23.1032 22.0432 23.0938 22.0527 23.0889C22.5407 22.8331 22.6831 22.4453 22.7047 22.1205C22.7097 22.0453 22.7082 21.9735 22.703 21.9074C22.6724 22.0932 22.5783 22.3089 22.3352 22.4671C22.3226 22.4753 22.3061 22.4738 22.2952 22.4633C22.2844 22.4529 22.2822 22.4364 22.29 22.4235C22.4166 22.2125 22.4074 21.9928 22.3199 21.7781C22.2319 21.5623 22.0653 21.3535 21.8806 21.1698C21.6963 20.9865 21.4959 20.8301 21.3428 20.7189C21.2663 20.6633 21.2017 20.6191 21.1568 20.5884L21.1543 20.5867C21.1332 20.5722 21.1162 20.5606 21.1048 20.5524C21.099 20.5483 21.0938 20.5445 21.0901 20.5413C21.0887 20.5401 21.0855 20.5374 21.0828 20.5338C21.0828 20.5339 21.0828 20.5338 21.0828 20.5338C21.0819 20.5327 21.0773 20.5268 21.076 20.5181C21.0752 20.5125 21.0755 20.504 21.0808 20.4957C21.0834 20.4917 21.0865 20.4887 21.0896 20.4866L21.9878 19.8071L21.8503 19.6558C21.8407 19.6453 21.8392 19.6298 21.8465 19.6176ZM22.6563 21.5209C22.6864 21.5093 22.6864 21.5094 22.6864 21.5094L22.6868 21.5104L22.6877 21.5129C22.6885 21.5151 22.6897 21.5183 22.6911 21.5225C22.694 21.5308 22.6981 21.543 22.7028 21.5586C22.7124 21.5897 22.7248 21.6346 22.7365 21.69C22.7598 21.8007 22.7804 21.9542 22.7691 22.1248C22.747 22.4572 22.6032 22.8538 22.1265 23.1221C22.1608 23.1455 22.1873 23.1548 22.205 23.1584C22.217 23.1608 22.2254 23.1606 22.2301 23.1602C22.2325 23.1599 22.234 23.1596 22.2346 23.1595C22.2346 23.1595 22.2347 23.1595 22.2346 23.1595C22.2484 23.1548 22.2639 23.16 22.272 23.1722C22.2803 23.1847 22.2788 23.2014 22.2684 23.2122L22.1381 23.3491C22.1677 23.3433 22.2143 23.3298 22.2865 23.302C22.372 23.2692 22.4915 23.2172 22.6584 23.1367C22.6733 23.1296 22.6911 23.1348 22.6998 23.1488C22.7085 23.1628 22.7053 23.1811 22.6923 23.1912C22.6022 23.2617 22.5545 23.3214 22.5296 23.3621C22.5176 23.3816 22.5108 23.3968 22.507 23.4068C22.5131 23.4094 22.5254 23.4122 22.5479 23.4082C22.6069 23.3978 22.7241 23.3428 22.9413 23.1498C22.9543 23.1381 22.9743 23.1391 22.9862 23.1518C22.9982 23.1646 22.9978 23.1846 22.9853 23.1969C22.8298 23.3499 22.696 23.5233 22.5876 23.7123C22.6861 23.6907 22.7962 23.6397 22.9109 23.5628C23.0503 23.4693 23.1943 23.339 23.3294 23.1815C23.5997 22.8663 23.8319 22.4451 23.9198 21.9995C24.0076 21.5544 23.9516 21.0861 23.6477 20.6723C23.355 20.2738 22.8295 19.9221 21.9706 19.6923L22.0593 19.7898C22.0654 19.7965 22.0684 19.8054 22.0675 19.8145C22.0667 19.8235 22.0621 19.8317 22.0549 19.8372L21.1613 20.5132C21.1698 20.5191 21.1798 20.526 21.1914 20.5339L21.1932 20.5351C21.2382 20.5659 21.3034 20.6105 21.3807 20.6667C21.5352 20.7789 21.7385 20.9375 21.9261 21.1241C22.1134 21.3103 22.2869 21.5264 22.3796 21.7538C22.4562 21.9417 22.478 22.1386 22.4057 22.332C22.5685 22.1845 22.6283 22.0052 22.6454 21.8529C22.6556 21.7619 22.6505 21.6807 22.6428 21.6222C22.639 21.5931 22.6345 21.5697 22.6311 21.5537C22.6293 21.5457 22.6278 21.5396 22.6268 21.5355C22.6263 21.5335 22.6259 21.532 22.6256 21.531L22.6253 21.53C22.6206 21.5134 22.6297 21.4958 22.646 21.4903C22.6624 21.4848 22.6802 21.4933 22.6864 21.5094L22.6563 21.5209ZM22.4708 23.4158L22.439 23.4108C22.4381 23.4164 22.4387 23.4222 22.4408 23.4275L22.4708 23.4158Z" fill="black"/>
<path fill-rule="evenodd" clip-rule="evenodd" d="M21.1807 20.2066C21.4226 20.3678 21.5032 20.4324 21.5355 20.513C21.3178 20.4646 21.1162 20.4807 21.1162 20.4807C21.1162 20.4807 20.6485 20.0292 20.5598 19.9969C20.4953 19.9969 20.1244 19.755 20.1244 19.755C19.939 19.6663 19.7696 19.0293 20.4469 19.2148C21.1565 19.5454 21.2533 19.5696 21.2533 19.5696L22.0919 19.8357L22.5757 20.3759C22.5757 20.3759 21.7129 19.9486 21.6081 19.9405C21.85 20.134 21.979 20.392 21.979 20.392C21.7048 20.3114 21.471 20.2469 21.1807 20.2066Z" fill="white"/>
<path fill-rule="evenodd" clip-rule="evenodd" d="M20.0307 19.5938C20.0607 19.6602 20.1019 19.7085 20.1383 19.7259C20.1396 19.7266 20.1409 19.7272 20.142 19.728L20.1431 19.7287L20.1461 19.7307C20.1489 19.7324 20.1528 19.735 20.1579 19.7383C20.1682 19.7449 20.1828 19.7543 20.2006 19.7656C20.2363 19.7882 20.2844 19.8183 20.3345 19.8483C20.3847 19.8784 20.4365 19.9083 20.4794 19.9305C20.5009 19.9416 20.5197 19.9506 20.5347 19.9567C20.5422 19.9597 20.5483 19.9618 20.5531 19.9632C20.5574 19.9644 20.5594 19.9646 20.5598 19.9647C20.5599 19.9647 20.5599 19.9647 20.5598 19.9647C20.5636 19.9647 20.5673 19.9653 20.5709 19.9666C20.5867 19.9724 20.6071 19.9856 20.6281 20.0009C20.6502 20.0169 20.6764 20.0377 20.7048 20.0613C20.7617 20.1087 20.8289 20.1685 20.893 20.2271C20.9572 20.2858 21.0186 20.3433 21.0639 20.3863C21.0866 20.4077 21.1052 20.4255 21.1182 20.438C21.1221 20.4417 21.1255 20.4449 21.1283 20.4477C21.1341 20.4474 21.1413 20.447 21.15 20.4467C21.1729 20.446 21.2055 20.4454 21.245 20.4465C21.3067 20.4481 21.3854 20.4534 21.47 20.4675C21.4564 20.4515 21.4389 20.4342 21.4158 20.4146C21.363 20.3696 21.2839 20.3142 21.1628 20.2334C21.1503 20.2251 21.1452 20.2092 21.1506 20.1951C21.1559 20.1811 21.1702 20.1726 21.1851 20.1746C21.4503 20.2115 21.6687 20.2683 21.9115 20.3387C21.8974 20.3157 21.8795 20.2881 21.8579 20.2574C21.7965 20.1703 21.7058 20.06 21.5879 19.9657C21.5769 19.9568 21.5729 19.9418 21.5781 19.9287C21.5833 19.9155 21.5964 19.9073 21.6105 19.9083C21.6289 19.9098 21.6582 19.9191 21.6909 19.9313C21.7253 19.944 21.7682 19.9616 21.8162 19.9823C21.9124 20.0237 22.0304 20.0781 22.1449 20.1321C22.254 20.1835 22.36 20.2346 22.4412 20.2741L22.0737 19.8638L21.2441 19.6005L21.243 19.6002C21.2417 19.5998 21.2401 19.5993 21.2378 19.5986C21.2333 19.5971 21.2263 19.5947 21.2159 19.5909C21.1952 19.5833 21.1604 19.5697 21.1037 19.5459C20.9906 19.4984 20.7892 19.4098 20.4358 19.2452C20.2712 19.2005 20.1643 19.2075 20.0982 19.2378C20.0338 19.2673 20.0026 19.3213 19.9941 19.3863C19.9855 19.4525 20.0011 19.5285 20.0307 19.5938ZM21.2611 19.5383C21.2606 19.5381 21.2594 19.5378 21.2577 19.5372C21.2541 19.5361 21.248 19.534 21.2382 19.5304C21.2187 19.5232 21.1849 19.51 21.1287 19.4864C21.0163 19.4393 20.8152 19.3508 20.4606 19.1856C20.4589 19.1848 20.4572 19.1842 20.4555 19.1837C20.283 19.1365 20.1577 19.1396 20.0713 19.1792C19.9827 19.2198 19.9409 19.2957 19.9302 19.378C19.9196 19.4589 19.9388 19.5471 19.9719 19.6204C20.0043 19.6918 20.053 19.7557 20.1085 19.7832L20.1111 19.7848C20.1138 19.7866 20.1179 19.7892 20.123 19.7925C20.1333 19.7992 20.1482 19.8087 20.1661 19.8201C20.202 19.8428 20.2506 19.8732 20.3013 19.9036C20.3519 19.934 20.405 19.9646 20.4498 19.9878C20.4721 19.9993 20.4929 20.0093 20.5105 20.0164C20.5239 20.0219 20.5389 20.0272 20.5523 20.0287C20.5595 20.0322 20.5721 20.0399 20.5903 20.0531C20.6107 20.0679 20.6357 20.0877 20.6636 20.1109C20.7193 20.1573 20.7857 20.2164 20.8495 20.2747C20.9133 20.333 20.9744 20.3903 21.0196 20.4331C21.0421 20.4545 21.0607 20.4722 21.0736 20.4846C21.0801 20.4908 21.0851 20.4956 21.0886 20.4989L21.0938 20.5039C21.1004 20.5103 21.1096 20.5136 21.1188 20.5129" fill="black"/>
<path fill-rule="evenodd" clip-rule="evenodd" d="M17.8499 16.424C17.8326 16.4281 17.8152 16.4174 17.8111 16.4C17.807 16.3827 17.8178 16.3653 17.8351 16.3613L17.8425 16.3927C17.8351 16.3613 17.8351 16.3613 17.8351 16.3613L17.8444 16.3591C17.8505 16.3577 17.8594 16.3556 17.8708 16.353C17.8935 16.3477 17.9261 16.3403 17.9655 16.3314C18.0442 16.3138 18.1503 16.2905 18.2594 16.2683C18.3684 16.2461 18.481 16.2248 18.5725 16.2111C18.6182 16.2042 18.6592 16.1992 18.6922 16.1969C18.7087 16.1957 18.7237 16.1952 18.7365 16.1956C18.7487 16.196 18.7613 16.1973 18.7719 16.2008C18.7888 16.2064 18.798 16.2247 18.7923 16.2416C18.7867 16.2585 18.7684 16.2676 18.7515 16.262C18.75 16.2615 18.7449 16.2604 18.7344 16.2601C18.7246 16.2598 18.712 16.2602 18.6967 16.2612C18.6662 16.2633 18.6271 16.2681 18.5821 16.2749C18.4922 16.2884 18.3809 16.3094 18.2723 16.3315C18.1637 16.3536 18.0581 16.3768 17.9796 16.3944C17.9404 16.4032 17.9079 16.4106 17.8853 16.4158C17.874 16.4184 17.8651 16.4205 17.8591 16.4219L17.8499 16.424Z" fill="white"/>
<path fill-rule="evenodd" clip-rule="evenodd" d="M-10 33.3336H49.9908V40.0019H-10V33.3336Z" fill="#DE3908"/>
</g>
<defs>
<clipPath id="clip0_17544_70204">
<path d="M0 20C0 8.95431 8.95431 0 20 0C31.0457 0 40 8.95431 40 20C40 31.0457 31.0457 40 20 40C8.95431 40 0 31.0457 0 20Z" fill="white"/>
</clipPath>
</defs>
</svg>
