<svg width="40" height="40" viewBox="0 0 40 40" fill="none" xmlns="http://www.w3.org/2000/svg">
<g clip-path="url(#clip0_17544_70257)">
<path d="M0 0H40V40H0" fill="#BD3D44"/>
<path fill-rule="evenodd" clip-rule="evenodd" d="M40 6.09375H0V2.96875H40V6.09375ZM40 12.2656H0V9.14062H40V12.2656ZM40 18.4375H0V15.3125H40V18.4375ZM40 24.6094H0V21.4844H40V24.6094ZM40 30.7812H0V27.6562H40V30.7812ZM40 36.9531H0V33.8281H40V36.9531Z" fill="white"/>
<path d="M0 0H30.4688V21.4844H0V0Z" fill="#192F5D"/>
<path d="M2.18304 1.65332L1.954 1L1.72496 1.65332H1L1.58829 2.04317L1.36692 2.67459L1.954 2.28553L2.54108 2.67459L2.31972 2.04317L2.908 1.65332H2.18304Z" fill="white"/>
<path d="M7.40115 1.65332L7.17211 1L6.94308 1.65332H6.21811L6.8064 2.04317L6.58504 2.67459L7.17212 2.28553L7.75919 2.67459L7.53783 2.04317L8.12612 1.65332H7.40115Z" fill="white"/>
<path d="M12.6196 1.65332L12.3906 1L12.1615 1.65332H11.4366L12.0249 2.04317L11.8035 2.67459L12.3906 2.28553L12.9777 2.67459L12.7563 2.04317L13.3446 1.65332H12.6196Z" fill="white"/>
<path d="M17.8381 1.65332L17.6091 1L17.38 1.65332H16.6551L17.2433 2.04317L17.022 2.67459L17.6091 2.28553L18.1961 2.67459L17.9748 2.04317L18.5631 1.65332H17.8381Z" fill="white"/>
<path d="M23.0566 1.65332L22.8275 1L22.5985 1.65332H21.8735L22.4618 2.04317L22.2404 2.67459L22.8275 2.28553L23.4146 2.67459L23.1932 2.04317L23.7815 1.65332H23.0566Z" fill="white"/>
<path d="M28.275 1.65332L28.046 1L27.817 1.65332H27.092L27.6803 2.04317L27.4589 2.67459L28.046 2.28553L28.6331 2.67459L28.4117 2.04317L29 1.65332H28.275Z" fill="white"/>
<path d="M2.18304 6.15328L1.954 5.49996L1.72496 6.15328H1L1.58829 6.54314L1.36692 7.17456L1.954 6.7855L2.54108 7.17456L2.31972 6.54314L2.908 6.15328H2.18304Z" fill="white"/>
<path d="M7.40115 6.15328L7.17211 5.49996L6.94308 6.15328H6.21811L6.8064 6.54314L6.58504 7.17456L7.17212 6.7855L7.75919 7.17456L7.53783 6.54314L8.12612 6.15328H7.40115Z" fill="white"/>
<path d="M12.6196 6.15328L12.3906 5.49996L12.1615 6.15328H11.4366L12.0249 6.54314L11.8035 7.17456L12.3906 6.7855L12.9777 7.17456L12.7563 6.54314L13.3446 6.15328H12.6196Z" fill="white"/>
<path d="M17.8381 6.15328L17.6091 5.49996L17.38 6.15328H16.6551L17.2433 6.54314L17.022 7.17456L17.6091 6.7855L18.1961 7.17456L17.9748 6.54314L18.5631 6.15328H17.8381Z" fill="white"/>
<path d="M23.0566 6.15328L22.8275 5.49996L22.5985 6.15328H21.8735L22.4618 6.54314L22.2404 7.17456L22.8275 6.7855L23.4146 7.17456L23.1932 6.54314L23.7815 6.15328H23.0566Z" fill="white"/>
<path d="M28.275 6.15328L28.046 5.49996L27.817 6.15328H27.092L27.6803 6.54314L27.4589 7.17456L28.046 6.7855L28.6331 7.17456L28.4117 6.54314L29 6.15328H28.275Z" fill="white"/>
<path d="M2.18304 10.4787L1.954 9.82537L1.72496 10.4787H1L1.58829 10.8685L1.36692 11.5L1.954 11.1109L2.54108 11.5L2.31972 10.8685L2.908 10.4787H2.18304Z" fill="white"/>
<path d="M7.40115 10.4787L7.17211 9.82537L6.94308 10.4787H6.21811L6.8064 10.8685L6.58504 11.5L7.17212 11.1109L7.75919 11.5L7.53783 10.8685L8.12612 10.4787H7.40115Z" fill="white"/>
<path d="M12.6196 10.4787L12.3906 9.82537L12.1615 10.4787H11.4366L12.0249 10.8685L11.8035 11.5L12.3906 11.1109L12.9777 11.5L12.7563 10.8685L13.3446 10.4787H12.6196Z" fill="white"/>
<path d="M17.8381 10.4787L17.6091 9.82537L17.38 10.4787H16.6551L17.2433 10.8685L17.022 11.5L17.6091 11.1109L18.1961 11.5L17.9748 10.8685L18.5631 10.4787H17.8381Z" fill="white"/>
<path d="M23.0566 10.4787L22.8275 9.82537L22.5985 10.4787H21.8735L22.4618 10.8685L22.2404 11.5L22.8275 11.1109L23.4146 11.5L23.1932 10.8685L23.7815 10.4787H23.0566Z" fill="white"/>
<path d="M28.275 10.4787L28.046 9.82537L27.817 10.4787H27.092L27.6803 10.8685L27.4589 11.5L28.046 11.1109L28.6331 11.5L28.4117 10.8685L29 10.4787H28.275Z" fill="white"/>
<path d="M2.18304 14.6533L1.954 14L1.72496 14.6533H1L1.58829 15.0431L1.36692 15.6746L1.954 15.2855L2.54108 15.6746L2.31972 15.0431L2.908 14.6533H2.18304Z" fill="white"/>
<path d="M7.40115 14.6533L7.17211 14L6.94308 14.6533H6.21811L6.8064 15.0431L6.58504 15.6746L7.17212 15.2855L7.75919 15.6746L7.53783 15.0431L8.12612 14.6533H7.40115Z" fill="white"/>
<path d="M12.6196 14.6533L12.3906 14L12.1615 14.6533H11.4366L12.0249 15.0431L11.8035 15.6746L12.3906 15.2855L12.9777 15.6746L12.7563 15.0431L13.3446 14.6533H12.6196Z" fill="white"/>
<path d="M17.8381 14.6533L17.6091 14L17.38 14.6533H16.6551L17.2433 15.0431L17.022 15.6746L17.6091 15.2855L18.1961 15.6746L17.9748 15.0431L18.5631 14.6533H17.8381Z" fill="white"/>
<path d="M23.0566 14.6533L22.8275 14L22.5985 14.6533H21.8735L22.4618 15.0431L22.2404 15.6746L22.8275 15.2855L23.4146 15.6746L23.1932 15.0431L23.7815 14.6533H23.0566Z" fill="white"/>
<path d="M28.275 14.6533L28.046 14L27.817 14.6533H27.092L27.6803 15.0431L27.4589 15.6746L28.046 15.2855L28.6331 15.6746L28.4117 15.0431L29 14.6533H28.275Z" fill="white"/>
<path d="M2.18259 18.9787L1.95355 18.3254L1.72451 18.9787H0.99955L1.58784 19.3685L1.36647 20L1.95355 19.6109L2.54063 20L2.31927 19.3685L2.90755 18.9787H2.18259Z" fill="white"/>
<path d="M7.4007 18.9787L7.17166 18.3254L6.94263 18.9787H6.21766L6.80595 19.3685L6.58459 20L7.17167 19.6109L7.75874 20L7.53738 19.3685L8.12567 18.9787H7.4007Z" fill="white"/>
<path d="M12.6192 18.9787L12.3901 18.3254L12.1611 18.9787H11.4361L12.0244 19.3685L11.8031 20L12.3901 19.6109L12.9772 20L12.7559 19.3685L13.3441 18.9787H12.6192Z" fill="white"/>
<path d="M17.8376 18.9787L17.6086 18.3254L17.3796 18.9787H16.6546L17.2429 19.3685L17.0215 20L17.6086 19.6109L18.1957 20L17.9743 19.3685L18.5626 18.9787H17.8376Z" fill="white"/>
<path d="M23.0561 18.9787L22.8271 18.3254L22.598 18.9787H21.8731L22.4614 19.3685L22.24 20L22.8271 19.6109L23.4142 20L23.1928 19.3685L23.7811 18.9787H23.0561Z" fill="white"/>
<path d="M28.2746 18.9787L28.0455 18.3254L27.8165 18.9787H27.0915L27.6798 19.3685L27.4585 20L28.0455 19.6109L28.6326 20L28.4113 19.3685L28.9995 18.9787H28.2746Z" fill="white"/>
<path d="M4.90115 3.97869L4.67211 3.32537L4.44307 3.97869H3.71811L4.3064 4.36855L4.08504 4.99996L4.67212 4.61091L5.25919 4.99996L5.03783 4.36855L5.62612 3.97869H4.90115Z" fill="white"/>
<path d="M10.1196 3.97869L9.89058 3.32537L9.66154 3.97869H8.93658L9.52487 4.36855L9.30351 4.99996L9.89059 4.61091L10.4777 4.99996L10.2563 4.36855L10.8446 3.97869H10.1196Z" fill="white"/>
<path d="M15.3381 3.97869L15.1091 3.32537L14.88 3.97869H14.1551L14.7433 4.36855L14.522 4.99996L15.1091 4.61091L15.6961 4.99996L15.4748 4.36855L16.0631 3.97869H15.3381Z" fill="white"/>
<path d="M20.5566 3.97869L20.3275 3.32537L20.0985 3.97869H19.3735L19.9618 4.36855L19.7404 4.99996L20.3275 4.61091L20.9146 4.99996L20.6932 4.36855L21.2815 3.97869H20.5566Z" fill="white"/>
<path d="M25.775 3.97869L25.546 3.32537L25.317 3.97869H24.592L25.1803 4.36855L24.9589 4.99996L25.546 4.61091L26.1331 4.99996L25.9117 4.36855L26.5 3.97869H25.775Z" fill="white"/>
<path d="M4.90115 8.47869L4.67211 7.82537L4.44307 8.47869H3.71811L4.3064 8.86855L4.08504 9.49996L4.67212 9.11091L5.25919 9.49996L5.03783 8.86855L5.62612 8.47869H4.90115Z" fill="white"/>
<path d="M10.1196 8.47869L9.89058 7.82537L9.66154 8.47869H8.93658L9.52487 8.86855L9.30351 9.49996L9.89059 9.11091L10.4777 9.49996L10.2563 8.86855L10.8446 8.47869H10.1196Z" fill="white"/>
<path d="M15.3381 8.47869L15.1091 7.82537L14.88 8.47869H14.1551L14.7433 8.86855L14.522 9.49996L15.1091 9.11091L15.6961 9.49996L15.4748 8.86855L16.0631 8.47869H15.3381Z" fill="white"/>
<path d="M20.5566 8.47869L20.3275 7.82537L20.0985 8.47869H19.3735L19.9618 8.86855L19.7404 9.49996L20.3275 9.11091L20.9146 9.49996L20.6932 8.86855L21.2815 8.47869H20.5566Z" fill="white"/>
<path d="M25.775 8.47869L25.546 7.82537L25.317 8.47869H24.592L25.1803 8.86855L24.9589 9.49996L25.546 9.11091L26.1331 9.49996L25.9117 8.86855L26.5 8.47869H25.775Z" fill="white"/>
<path d="M4.90115 12.6533L4.67211 12L4.44307 12.6533H3.71811L4.3064 13.0431L4.08504 13.6746L4.67212 13.2855L5.25919 13.6746L5.03783 13.0431L5.62612 12.6533H4.90115Z" fill="white"/>
<path d="M10.1196 12.6533L9.89058 12L9.66154 12.6533H8.93658L9.52487 13.0431L9.30351 13.6746L9.89059 13.2855L10.4777 13.6746L10.2563 13.0431L10.8446 12.6533H10.1196Z" fill="white"/>
<path d="M15.3381 12.6533L15.1091 12L14.88 12.6533H14.1551L14.7433 13.0431L14.522 13.6746L15.1091 13.2855L15.6961 13.6746L15.4748 13.0431L16.0631 12.6533H15.3381Z" fill="white"/>
<path d="M20.5566 12.6533L20.3275 12L20.0985 12.6533H19.3735L19.9618 13.0431L19.7404 13.6746L20.3275 13.2855L20.9146 13.6746L20.6932 13.0431L21.2815 12.6533H20.5566Z" fill="white"/>
<path d="M25.775 12.6533L25.546 12L25.317 12.6533H24.592L25.1803 13.0431L24.9589 13.6746L25.546 13.2855L26.1331 13.6746L25.9117 13.0431L26.5 12.6533H25.775Z" fill="white"/>
<path d="M4.90115 16.9787L4.67211 16.3254L4.44307 16.9787H3.71811L4.3064 17.3685L4.08504 18L4.67212 17.6109L5.25919 18L5.03783 17.3685L5.62612 16.9787H4.90115Z" fill="white"/>
<path d="M10.1196 16.9787L9.89058 16.3254L9.66154 16.9787H8.93658L9.52487 17.3685L9.30351 18L9.89059 17.6109L10.4777 18L10.2563 17.3685L10.8446 16.9787H10.1196Z" fill="white"/>
<path d="M15.3381 16.9787L15.1091 16.3254L14.88 16.9787H14.1551L14.7433 17.3685L14.522 18L15.1091 17.6109L15.6961 18L15.4748 17.3685L16.0631 16.9787H15.3381Z" fill="white"/>
<path d="M20.5566 16.9787L20.3275 16.3254L20.0985 16.9787H19.3735L19.9618 17.3685L19.7404 18L20.3275 17.6109L20.9146 18L20.6932 17.3685L21.2815 16.9787H20.5566Z" fill="white"/>
<path d="M25.775 16.9787L25.546 16.3254L25.317 16.9787H24.592L25.1803 17.3685L24.9589 18L25.546 17.6109L26.1331 18L25.9117 17.3685L26.5 16.9787H25.775Z" fill="white"/>
</g>
<defs>
<clipPath id="clip0_17544_70257">
<path d="M0 20C0 8.95431 8.95431 0 20 0C31.0457 0 40 8.95431 40 20C40 31.0457 31.0457 40 20 40C8.95431 40 0 31.0457 0 20Z" fill="white"/>
</clipPath>
</defs>
</svg>
