<svg width="40" height="40" viewBox="0 0 40 40" fill="none" xmlns="http://www.w3.org/2000/svg">
<g clip-path="url(#clip0_17544_70956)">
<path d="M0 0H40V40H0V0Z" fill="#CF142B"/>
<path d="M0 0H40V26.6641H0V0Z" fill="#00247D"/>
<path d="M0 0H40V13.3359H0V0Z" fill="#FFCC00"/>
<path d="M22.3957 14.5462L21.6258 16.0345L22.4925 16.4918L22.3957 14.5462Z" fill="white"/>
<path d="M22.3957 14.5462L22.6102 16.2081L21.6393 16.3414L22.3957 14.5462Z" fill="white"/>
<path d="M23.7562 15.9551L22.1028 15.6827L21.9357 16.6483L23.7562 15.9551Z" fill="white"/>
<path d="M23.7562 15.9551L22.242 16.6726L21.8151 15.7904L23.7562 15.9551Z" fill="white"/>
<path d="M20.6354 15.4048L21.8129 16.5969L22.5157 15.914L20.6354 15.4048Z" fill="white"/>
<path d="M20.6354 15.4048L22.2822 15.7143L22.109 16.6789L20.6354 15.4048Z" fill="white"/>
<path d="M22.8367 17.6843L22.5848 16.0277L21.6148 16.1672L22.8367 17.6843Z" fill="white"/>
<path d="M22.8367 17.6843L21.6864 16.4659L22.3935 15.7874L22.8367 17.6843Z" fill="white"/>
<path d="M20.908 17.3442L22.4057 16.5927L21.9733 15.7133L20.908 17.3442Z" fill="white"/>
<path d="M20.908 17.3442L21.7113 15.8737L22.5751 16.3365L20.908 17.3442Z" fill="white"/>
<path d="M26.8541 16.1689L25.6216 17.3041L26.2796 18.0303L26.8541 16.1689Z" fill="white"/>
<path d="M26.8541 16.1689L26.4873 17.8039L25.5293 17.5972L26.8541 16.1689Z" fill="white"/>
<path d="M27.6507 17.9581L26.1902 17.1367L25.7029 17.987L27.6507 17.9581Z" fill="white"/>
<path d="M27.6507 17.9581L25.9824 18.1145L25.883 17.1396L27.6507 17.9581Z" fill="white"/>
<path d="M24.9063 16.3737L25.6051 17.8967L26.4991 17.4952L24.9063 16.3737Z" fill="white"/>
<path d="M24.9063 16.3737L26.3479 17.2278L25.8553 18.0749L24.9063 16.3737Z" fill="white"/>
<path d="M26.1952 19.2686L26.5251 17.6258L25.5659 17.4251L26.1952 19.2686Z" fill="white"/>
<path d="M26.1952 19.2686L25.531 17.7303L26.4275 17.3345L26.1952 19.2686Z" fill="white"/>
<path d="M24.4991 18.2894L26.1635 18.0955L26.058 17.1212L24.4991 18.2894Z" fill="white"/>
<path d="M24.4991 18.2894L25.7569 17.1823L26.4104 17.9126L24.4991 18.2894Z" fill="white"/>
<path d="M30.4886 19.2187L28.9422 19.8639L29.3121 20.7713L30.4886 19.2187Z" fill="white"/>
<path d="M30.4886 19.2187L29.5847 20.6296L28.7553 20.1077L30.4886 19.2187Z" fill="white"/>
<path d="M30.6252 21.1724L29.5338 19.901L28.785 20.5333L30.6252 21.1724Z" fill="white"/>
<path d="M30.6252 21.1724L29.004 20.7487L29.2441 19.7986L30.6252 21.1724Z" fill="white"/>
<path d="M28.5883 18.7449L28.724 20.415L29.7014 20.3436L28.5883 18.7449Z" fill="white"/>
<path d="M28.5883 18.7449L29.6508 20.0405L28.8981 20.6681L28.5883 18.7449Z" fill="white"/>
<path d="M28.8093 21.9061L29.6812 20.4751L28.8485 19.9585L28.8093 21.9061Z" fill="white"/>
<path d="M28.8093 21.9061L28.7113 20.2333L29.6891 20.168L28.8093 21.9061Z" fill="white"/>
<path d="M27.5504 20.4058L29.1808 20.7928L29.4148 19.8412L27.5504 20.4058Z" fill="white"/>
<path d="M27.5504 20.4058L29.111 19.7956L29.4753 20.7054L27.5504 20.4058Z" fill="white"/>
<path d="M32.8609 23.3276L31.187 23.4049L31.2243 24.3842L32.8609 23.3276Z" fill="white"/>
<path d="M32.8609 23.3276L31.5289 24.3442L30.928 23.5701L32.8609 23.3276Z" fill="white"/>
<path d="M32.321 25.2102L31.7302 23.6422L30.8104 23.9802L32.321 25.2102Z" fill="white"/>
<path d="M32.321 25.2102L30.9425 24.2576L31.4931 23.4469L32.321 25.2102Z" fill="white"/>
<path d="M31.2372 22.2324L30.7935 23.8482L31.7364 24.1153L31.2372 22.2324Z" fill="white"/>
<path d="M31.2372 22.2324L31.7925 23.8133L30.8706 24.1456L31.2372 22.2324Z" fill="white"/>
<path d="M30.3637 25.2785L31.6724 24.2321L31.0667 23.4618L30.3637 25.2785Z" fill="white"/>
<path d="M30.3637 25.2785L30.8437 23.6731L31.7849 23.9462L30.3637 25.2785Z" fill="white"/>
<path d="M29.6939 23.4381L31.0935 24.3594L31.6389 23.5453L29.6939 23.4381Z" fill="white"/>
<path d="M29.6939 23.4381L31.369 23.3986L31.4002 24.378L29.6939 23.4381Z" fill="white"/>
<path d="M7.186 23.3276L8.51797 24.3442L9.11887 23.5701L7.186 23.3276Z" fill="white"/>
<path d="M7.186 23.3276L8.85985 23.4049L8.82256 24.3842L7.186 23.3276Z" fill="white"/>
<path d="M8.80967 22.2324L8.25436 23.8133L9.17629 24.1456L8.80967 22.2324Z" fill="white"/>
<path d="M8.80967 22.2324L9.25336 23.8482L8.31049 24.1153L8.80967 22.2324Z" fill="white"/>
<path d="M7.72583 25.2102L9.10435 24.2576L8.55379 23.4469L7.72583 25.2102Z" fill="white"/>
<path d="M7.72583 25.2102L8.31665 23.6422L9.23647 23.9802L7.72583 25.2102Z" fill="white"/>
<path d="M10.353 23.4381L8.67783 23.3986L8.64672 24.378L10.353 23.4381Z" fill="white"/>
<path d="M10.353 23.4381L8.95335 24.3594L8.40793 23.5453L10.353 23.4381Z" fill="white"/>
<path d="M9.68315 25.2785L9.20315 23.6731L8.26199 23.9462L9.68315 25.2785Z" fill="white"/>
<path d="M9.68315 25.2785L8.37444 24.2321L8.98021 23.4618L9.68315 25.2785Z" fill="white"/>
<path d="M9.55825 19.2187L10.4622 20.6296L11.2916 20.1077L9.55825 19.2187Z" fill="white"/>
<path d="M9.55825 19.2187L11.1047 19.8639L10.7347 20.7713L9.55825 19.2187Z" fill="white"/>
<path d="M11.4586 18.7449L10.396 20.0405L11.1487 20.6681L11.4586 18.7449Z" fill="white"/>
<path d="M11.4586 18.7449L11.3229 20.415L10.3455 20.3436L11.4586 18.7449Z" fill="white"/>
<path d="M9.42164 21.1724L11.0428 20.7487L10.8028 19.7986L9.42164 21.1724Z" fill="white"/>
<path d="M9.42164 21.1724L10.5131 19.901L11.2618 20.5333L9.42164 21.1724Z" fill="white"/>
<path d="M12.4965 20.4058L10.9358 19.7956L10.5716 20.7054L12.4965 20.4058Z" fill="white"/>
<path d="M12.4965 20.4058L10.8661 20.7928L10.632 19.8412L12.4965 20.4058Z" fill="white"/>
<path d="M11.2375 21.9061L11.3356 20.2333L10.3578 20.168L11.2375 21.9061Z" fill="white"/>
<path d="M11.2375 21.9061L10.3657 20.4751L11.1984 19.9585L11.2375 21.9061Z" fill="white"/>
<path d="M13.1928 16.1689L13.5596 17.8039L14.5175 17.5972L13.1928 16.1689Z" fill="white"/>
<path d="M13.1928 16.1689L14.4253 17.3041L13.7673 18.0303L13.1928 16.1689Z" fill="white"/>
<path d="M15.1406 16.3737L13.6989 17.2278L14.1916 18.0749L15.1406 16.3737Z" fill="white"/>
<path d="M15.1406 16.3737L14.4418 17.8967L13.5478 17.4952L15.1406 16.3737Z" fill="white"/>
<path d="M12.3962 17.9581L14.0645 18.1145L14.1639 17.1396L12.3962 17.9581Z" fill="white"/>
<path d="M12.3962 17.9581L13.8567 17.1367L14.344 17.987L12.3962 17.9581Z" fill="white"/>
<path d="M15.5478 18.2894L14.2899 17.1823L13.6365 17.9126L15.5478 18.2894Z" fill="white"/>
<path d="M15.5478 18.2894L13.8834 18.0955L13.9889 17.1212L15.5478 18.2894Z" fill="white"/>
<path d="M13.8516 19.2686L14.5159 17.7303L13.6194 17.3345L13.8516 19.2686Z" fill="white"/>
<path d="M13.8516 19.2686L13.5217 17.6258L14.481 17.4251L13.8516 19.2686Z" fill="white"/>
<path d="M17.6512 14.5462L17.4367 16.2081L18.4076 16.3414L17.6512 14.5462Z" fill="white"/>
<path d="M17.6512 14.5462L18.4211 16.0345L17.5544 16.4918L17.6512 14.5462Z" fill="white"/>
<path d="M19.4115 15.4048L17.7647 15.7143L17.9379 16.6789L19.4115 15.4048Z" fill="white"/>
<path d="M19.4115 15.4048L18.234 16.5969L17.5312 15.914L19.4115 15.4048Z" fill="white"/>
<path d="M16.2907 15.9551L17.8049 16.6726L18.2317 15.7904L16.2907 15.9551Z" fill="white"/>
<path d="M16.2907 15.9551L17.944 15.6827L18.1112 16.6483L16.2907 15.9551Z" fill="white"/>
<path d="M19.1389 17.3442L18.3356 15.8737L17.4718 16.3365L19.1389 17.3442Z" fill="white"/>
<path d="M19.1389 17.3442L17.6412 16.5927L18.0736 15.7133L19.1389 17.3442Z" fill="white"/>
<path d="M17.2101 17.6843L18.3605 16.4659L17.6534 15.7874L17.2101 17.6843Z" fill="white"/>
<path d="M17.2101 17.6843L17.462 16.0277L18.432 16.1672L17.2101 17.6843Z" fill="white"/>
</g>
<defs>
<clipPath id="clip0_17544_70956">
<path d="M0 20C0 8.95431 8.95431 0 20 0C31.0457 0 40 8.95431 40 20C40 31.0457 31.0457 40 20 40C8.95431 40 0 31.0457 0 20Z" fill="white"/>
</clipPath>
</defs>
</svg>
