<svg width="40" height="40" viewBox="0 0 40 40" fill="none" xmlns="http://www.w3.org/2000/svg">
<g clip-path="url(#clip0_17544_71346)">
<path d="M0.00197029 0H39.9986V40.0022H0.00197029V0Z" fill="black"/>
<path fill-rule="evenodd" clip-rule="evenodd" d="M-10 0H50.0005V40.0022H-10V0Z" fill="#DA251D"/>
<path fill-rule="evenodd" clip-rule="evenodd" d="M27.3098 29.7745L20.3107 24.5477L13.3511 29.8253L15.9419 21.2457L8.98794 15.9512L17.5901 15.8778L20.2543 7.3265L22.9805 15.8609L31.5827 15.8722L24.6682 21.2175L27.3098 29.7745Z" fill="#FFFF00"/>
</g>
<defs>
<clipPath id="clip0_17544_71346">
<path d="M0 20C0 8.95431 8.95431 0 20 0C31.0457 0 40 8.95431 40 20C40 31.0457 31.0457 40 20 40C8.95431 40 0 31.0457 0 20Z" fill="white"/>
</clipPath>
</defs>
</svg>
