<svg width="40" height="40" viewBox="0 0 40 40" fill="none" xmlns="http://www.w3.org/2000/svg">
<g clip-path="url(#clip0_17522_60780)">
<path d="M0.00197029 0H39.9986V40.0022H0.00197029V0Z" fill="black"/>
<path fill-rule="evenodd" clip-rule="evenodd" d="M-10 0H50.0005V40.0022H-10V0Z" fill="#DA251D"/>
<path fill-rule="evenodd" clip-rule="evenodd" d="M27.3098 29.7745L20.3107 24.5477L13.3511 29.8253L15.9419 21.2457L8.98794 15.9512L17.5901 15.8778L20.2543 7.3265L22.9805 15.8609L31.5827 15.8722L24.6682 21.2175L27.3098 29.7745Z" fill="#FFFF00"/>
</g>
<defs>
<clipPath id="clip0_17522_60780">
<path d="M0 4C0 1.79086 1.79086 0 4 0H36C38.2091 0 40 1.79086 40 4V36C40 38.2091 38.2091 40 36 40H4C1.79086 40 0 38.2091 0 36V4Z" fill="white"/>
</clipPath>
</defs>
</svg>
